<svg viewBox="0 0 1466 825" version="1.1" xmlns="http://www.w3.org/2000/svg">
<defs>
<clipPath id="c0_80"><path d="M-.2 825.3V-.2H1467V825.3Z"/></clipPath>
<clipPath id="c1_80"><path d="M1343.9 529.1V456.4H1452v72.7Z"/></clipPath>
<clipPath id="c2_80"><path d="M1346.3 621.3V549.7h102.9v71.6Z"/></clipPath>
<clipPath id="c3_80"><path d="M1346.4 716.6V641.9h103v74.7Z"/></clipPath>
<clipPath id="c4_80"><path d="M1353 825V744.6h96.2V825Z"/></clipPath>
<clipPath id="c5_80"><path d="M7.7 800.4V438H766.5V800.4Z"/></clipPath>
<style>
.g0_80{fill:#F00;}
.g1_80{fill:none;stroke:#000;stroke-width:1.466;stroke-linejoin:round;}
</style>
</defs>
<image clip-path="url(#c0_80)" preserveAspectRatio="none" x="0" y="-7" width="1467" height="840" href="img/1.jpg"/>
<path fill-rule="evenodd" d="M1092.5 349.8l3.8 2.4l-2.9 3.4l-3.2-2l-2.3 2.5l-3.8-2.1l2.8-3.6l3.3 2.1ZM817.9 336.9l6.9 3.7l-3.6 6.7l-6.9-3.6Zm631.6-.3l5.6 3.1l-3.1 5.7l-4.4-2.2l-2.5 4.9l-5.5-3.1l3.3-6l4.3 2.3Zm-1028.8 0l5.5 3.1l-3.1 5.7l-4.4-2.2l-2.5 4.9l-5.4-3.1l3.3-6l4.2 2.3ZM660 334.9c.4 1.8 1.3 3.3 2.8 4.6c1.5 1.3 3.1 1.9 4.9 1.9c.6 0 .9-.2 .9-.6c0-1.1-.7-2.2-1.9-3.2c-1.6-1.2-3.8-2.1-6.7-2.7Zm-211 0c.3 1.8 1.3 3.3 2.8 4.6c1.5 1.3 3.1 1.9 4.9 1.9c.5 0 .9-.2 .9-.6c0-1.1-.7-2.2-2-3.2c-1.5-1.2-3.7-2.1-6.6-2.7Zm983-13.4c-.6 0-1.1 .3-1.4 .7c-.4 .5-.6 1.1-.6 1.6c0 .8 .4 1.3 1.2 1.8c.8 .5 1.8 .7 3.1 .7h1.2c-.6-3.2-1.7-4.8-3.5-4.8Zm-838.7 0c-.6 0-1.1 .3-1.5 .7c-.3 .5-.5 1.1-.5 1.6c0 .8 .4 1.3 1.2 1.8c.7 .5 1.8 .7 3.1 .7h1.1c-.6-3.2-1.7-4.8-3.4-4.8Zm453.4-.2c-.8 0-1.4 .9-2 2.7c1.1 .4 1.9 .7 2.4 .9c1.6 .6 2.5 .9 2.7 .9c.4 0 .7-.1 .7-.4c0-.4-.5-1.2-1.3-2.3c-1-1.2-1.8-1.8-2.5-1.8Zm-430.5 0c-.7 0-1.4 .9-1.9 2.7c1 .4 1.8 .7 2.3 .9c1.6 .6 2.5 .9 2.7 .9c.5 0 .7-.1 .7-.4c0-.4-.4-1.2-1.3-2.3c-.9-1.2-1.8-1.8-2.5-1.8Zm-417 0c-.8 0-1.5 .9-2 2.7c1 .4 1.8 .7 2.3 .9c1.7 .6 2.6 .9 2.8 .9c.4 0 .6-.1 .6-.4c0-.4-.4-1.2-1.3-2.3c-.9-1.2-1.8-1.8-2.4-1.8Zm1202-.9c-1.3 0-2.7 .4-4.4 1.3c-1.6 .8-4 2.4-7.1 4.6h7.8c6.5 0 9.8-1 9.8-3c0-.9-.7-1.6-2.1-2.2c-1.2-.5-2.5-.7-4-.7Zm-622.2 0c-1.3 0-2.8 .4-4.4 1.3c-1.7 .8-4.1 2.4-7.2 4.6h7.8c6.7 0 10.1-1 10.1-3c0-.8-.6-1.4-1.9-2c-1.2-.6-2.7-.9-4.4-.9Zm-485.9-.2c-1.3 2-1.9 3.7-1.9 5c0 .6 .2 1.2 .8 1.7c.5 .4 1.1 .6 1.9 .6c.9 0 2.1-.2 3.4-.7c1.3-.4 1.9-.8 1.9-1.2c0-.4-.7-1.1-2.1-2.3c-1.3-1.2-2.7-2.2-4-3.1Zm372.5-2.4c-.5 0-1.1 .5-1.8 1.6c-.7 1.2-1.5 2.9-2.5 5.3c2.3-.8 3.8-1.4 4.7-2c.9-.6 1.3-1.2 1.3-1.9c0-.5-.2-1.2-.5-1.9c-.4-.8-.8-1.1-1.2-1.1Zm-211 0c-.5 0-1.2 .5-1.8 1.6c-.7 1.2-1.6 2.9-2.5 5.3c2.3-.8 3.8-1.4 4.7-2c.9-.6 1.3-1.2 1.3-1.9c0-.5-.2-1.2-.6-1.9c-.3-.8-.7-1.1-1.1-1.1ZM867.3 315c1.4 1.4 2.4 3 3.2 4.8c.7 1.8 1.1 3.9 1.1 6.2v9.1c0 1.2-.7 2.8-2.1 4.8c-1.4 2-3 3.8-4.9 5.2c-2.1 1.7-3.8 2.5-5.3 2.5c-1.8 0-3.6-.5-5.6-1.5c-1.8-.9-4.5-2.6-8.2-5.1l1.2-1.9c1.8 1.2 3.2 2 4.3 2.4c1.1 .4 2.3 .6 3.6 .6c1.4 0 2.7-.4 4.1-1.1c1.4-.8 3.2-2.2 5.6-4.3c3.3-3 5-5.2 5-6.8c0-.8-.4-1.9-1-3.2c-.7-1.4-1.6-2.7-2.6-3.6ZM398 314c-.7 .3-1.2 .5-1.5 .7c-1.1 .6-2 1.1-2.7 1.6c-.4 .4-.8 .8-1.1 1.1c-.4 .5-.6 .8-.6 1c0 .3 .3 .5 1 .7c.7 .1 1.4 .2 2.1 .2c.4 0 .9-.1 1.3-.4c.5-.2 1.2-.7 2.1-1.3Zm196.6-.4c1.5 0 2.9 1.1 4 3.2c1.1 2.2 1.7 4.8 1.7 7.9v1.6h3.8c1.7 0 3.2-.2 4.2-.6c1.4-.6 2.3-1.6 2.8-2.9c1.1-2.6 2.6-4.6 4.4-6.3c1.5-1.4 2.9-2.1 4-2.1c1 0 2.2 1.5 3.7 4.6c1.6 3.2 2.4 6.2 2.4 8.9v6.5c-2.1 0-4.6-.4-7.4-1.2c-2.5-.7-4.7-1.6-6.6-2.6c-1.1 1.8-2.5 2.9-4.2 3.4c-.8 .3-1.9 .4-3.3 .4h-4.3l-.6 3.1c-.7 1.7-1.8 3.3-3.3 5c-2.9 3.3-5.7 5-8.6 5c-1.6 0-3.4-.5-5.4-1.6c-1.9-1-4.9-3.1-9-6.2l1.3-1.7c2.1 1.4 3.9 2.4 5.2 2.8c1.2 .4 2.5 .6 3.9 .6c1.9 0 3.8-.5 5.7-1.6c2.2-1.3 4.5-3.3 6.9-6.1c-.8 .1-1.5 .1-2.1 .1c-1.9 0-3.5-.6-4.7-1.9c-1.1-1.2-1.7-3-1.7-5.2c0-3 .7-5.9 2.1-8.6c1.4-3 3.1-4.5 5.1-4.5Zm-86.6-.3l1.6 1.1c-.4 .8-.8 1.5-1 2.1c-.3 .7-.6 1.2-.7 1.7c-.3 .9-.5 1.8-.5 2.7c0 1.2 .4 2.2 1.1 3.1c.8 .9 1.7 1.5 2.9 1.8c.7 .1 1.6 .3 2.7 .4c1.1 .1 2.3 .1 3.5 .1h21.6c-.6-1.6-1.1-2.6-1.4-3.2c-.4-.8-1.1-1.7-2-2.9l2.7-6.9c1.4 2.1 2.4 4.1 2.9 5.8c.4 1.6 .6 3.9 .6 6.9v8.4H517c-1.2 0-2.2 0-3 0c-.8 0-1.4-.1-1.8-.1c-.8-.1-1.6-.3-2.6-.6c-1.6-.6-3-1.7-4-3.4c-1-1.7-1.6-3.6-1.6-5.7c0-.9 .1-1.7 .2-2.6c.1-.9 .3-1.8 .7-2.8c.4-1.2 .8-2.3 1.4-3.2c.5-1 1.1-1.9 1.7-2.7Zm943.7-.2c1.5 1.7 2.5 3.5 3 5.3c.6 1.9 .9 4.6 .9 8.2v7.8h-17l-.7 3.1c-.7 1.7-1.8 3.3-3.2 5c-2.9 3.3-5.8 5-8.6 5c-1.7 0-3.5-.5-5.4-1.6c-2-1-5-3.1-9-6.2l1.2-1.7c2.2 1.4 3.9 2.4 5.3 2.8c1.1 .4 2.4 .6 3.8 .6c2 0 3.9-.5 5.8-1.6c2.2-1.3 4.5-3.3 6.9-6.1c-.9 .1-1.6 .1-2.1 .1c-2 0-3.5-.6-4.7-1.9c-1.2-1.2-1.8-3-1.8-5.2c0-3 .7-5.9 2.1-8.6c1.5-3 3.2-4.5 5.1-4.5c1.6 0 2.9 1.1 4.1 3.2c1.1 2.2 1.6 4.8 1.6 7.9v1.6h13.6c-.2-1.3-.6-2.5-1.2-3.4c-.3-.5-1-1.4-2.1-2.7Zm-653.3-.8c2.8 0 5 .6 6.5 1.7c1.6 1 2.4 2.5 2.4 4.4c0 1-.2 2-.6 2.9c-.4 .9-1.2 2.2-2.4 3.8c.3 .4 .7 .7 1.2 .9c.4 .2 .9 .3 1.3 .3h18c-.2-1.3-.6-2.5-1.1-3.4c-.4-.5-1-1.4-2.1-2.7l2.3-7.1c1.5 1.7 2.6 3.5 3.1 5.3c.6 1.9 .8 4.6 .8 8.2v7.8h-21c-1.5 0-2.9-.3-4.1-.9c-1.2-.7-2.2-1.7-2.9-3.1c-1.3 1.6-3 2.7-5 3.4c-1.4 .4-2.9 .6-4.5 .6H757.4c0 4.7-1.5 8-4.5 10c-2.5 1.8-6.4 2.6-11.6 2.6c-4.8 0-8.5-.9-11.1-2.6c-2.6-1.8-3.9-4.3-3.9-7.5c0-2.8 .4-5.3 1.2-7.6c.9-2.5 2.7-5.8 5.4-9.8l1.8 1.2c-2 3.4-3.3 5.8-3.9 7.3c-.6 1.6-.9 3.1-.9 4.7c0 2.1 1.1 3.8 3.3 5.1c2.3 1.4 5.2 2 8.9 2c3.5 0 6.5-.7 9-2c2.4-1.4 3.7-3.1 3.7-5.1c0-1.2-.3-2.4-.7-3.6c-.4-1.3-1.3-3.2-2.7-5.9l2.6-8c1.1 2.1 1.7 3.3 1.8 3.6c.6 1.2 1 2.4 1.2 3.4c.3 1.1 .4 2.5 .4 4.1c1.3 0 2.4-.3 3.5-1c.1-.1 1.1-.7 2.9-2.1l10.7-7.6c1.7-1.2 2.9-1.9 3.8-2.4c1.1-.5 2.3-.8 3.5-.8c2.2 0 3.9 .8 5.2 2.4c1.5 1.8 2.2 4.5 2.2 8.2v3.3h1.1c1.6 0 2.8-.1 3.5-.2c.6-.2 1.5-.6 2.7-1.2c-.6-1.2-1.2-2-1.6-2.5c-.5-.6-1.1-.9-1.7-.9c-.2 0-.4 0-.6 .2c-.2 .1-.4 .4-.6 .8l-1.3-.2c0-3.5 .6-6.1 1.9-7.7c1.2-1.5 3.1-2.3 5.8-2.3Zm122.2-.5c-.6 0-1.2 .3-1.7 .9c-.4 .5-.7 1.1-.7 1.8c0 .5 .2 .9 .6 1.2c.4 .3 .8 .4 1.4 .4c.5 0 .9-.1 1.4-.4c.5-.2 1-.7 1.7-1.3c-.5-1-1-1.6-1.4-2c-.4-.4-.9-.6-1.3-.6Zm-562.3 0c-.6 0-1.2 .3-1.6 .9c-.5 .5-.8 1.1-.8 1.8c0 .5 .2 .9 .6 1.2c.4 .3 .8 .4 1.4 .4c.5 0 .9-.1 1.4-.4c.5-.2 1-.7 1.7-1.3c-.5-1-1-1.6-1.4-2c-.4-.4-.8-.6-1.3-.6Zm-65.5-.3l2.9 1.7c1.3 .8 2.5 1.6 3.6 2.5c1.7 1.3 2.8 2.4 3.4 3.5c.6 1.1 .9 2.4 .9 4c0 1.2-.1 2.4-.3 3.7c-.1 1.2-.4 2.2-.7 3c-.5 1.5-1.9 2.8-4.1 3.9c-2 1.1-3.9 1.7-5.7 1.7c-1.6 0-2.8-.6-3.7-1.7c-.9-1-1.4-2.4-1.4-4.2c0-1.7 .2-3.3 .7-4.8c.5-1.6 1.3-3.6 2.5-6l-1-.7c.3-.9 .7-2 1.3-3.3c.6-1.3 1.1-2.4 1.6-3.3Zm1049.8-.5c.7 0 2.1 .1 4.2 .3c2 .2 3.9 .4 5.5 .5c3 .2 6 .4 8.8 .4l-1.7 7.2c-1.2 0-2.2 0-3.1 .2c-1.1 .2-2.1 .4-3 .6c0 .4-.1 .8-.1 1.3c-.1 .5-.1 .8-.1 1.1c0 1.4 .5 2.4 1.4 2.9c.9 .5 2.7 .8 5.2 .8h6.8c2.3 0 4.1-.6 5.3-1.7c1.4-1.4 2.3-3.7 2.7-7l2 .3c-.1 .7-.1 1.3-.1 1.7c-.1 1.3-.1 2.4-.1 3.2c0 1.1 .3 2 .9 2.6c.5 .6 1.3 .9 2.3 .9c1 0 1.9-.2 2.7-.6c.8-.4 2.1-1.2 3.9-2.5l10.7-7.6c1.2-.9 2.2-1.5 2.8-1.9c1.4-.9 2.9-1.3 4.2-1.3c2.2 0 4 .8 5.3 2.4c1.6 1.8 2.4 4.5 2.4 8.2v11.4h-31.6c-1.4 0-2.5-.3-3.4-1c-.8-.7-1.5-1.9-2.1-3.5c-1.3 1.8-2.5 3-3.7 3.6c-1 .6-2.4 .9-4.2 .9h-6.8c-3.5 0-5.9-.5-7.1-1.5c-1.3-1-1.9-2.9-1.9-5.7c0-1.3 0-2.5 .2-3.6c.1-.4 .2-1.4 .5-2.9c-4.6 1.1-8.2 2.9-11 5.5c-2.9 2.7-4.3 5.7-4.3 9.1c0 4 1.7 7 5.1 9.2c3.4 2.1 8.3 3.2 14.8 3.2c1.8 0 4.5-.2 8.1-.5l.5 .9l-11.3 7.3h-2.9c-5.8 0-10.3-1.4-13.4-4.4c-3.2-2.9-4.8-7.1-4.8-12.6c0-4.2 1-8 2.9-11.6c1.9-3.5 4.3-6.1 7.3-7.7h-.7c-1.8 0-3.4 .2-4.6 .6c-1.2 .3-3 1.1-5.4 2.4c.9-7.4 4.5-11.1 10.9-11.1Zm-340.9-4.7c2.6 1.9 4.5 4.4 5.5 7.4c1 2.8 1.5 6.5 1.5 11.2v1.4h1c1.7 0 2.9-.1 3.5-.2c.7-.2 1.6-.6 2.7-1.2c-.6-1.2-1.1-2-1.5-2.5c-.6-.6-1.1-.9-1.7-.9c-.2 0-.4 0-.6 .2c-.2 .1-.4 .4-.7 .8l-1.3-.2c0-3.5 .6-6.1 1.9-7.7c1.2-1.5 3.2-2.3 5.9-2.3c2.7 0 4.9 .6 6.5 1.7c1.6 1 2.4 2.5 2.4 4.4c0 1-.2 2-.7 2.9c-.4 .9-1.2 2.2-2.3 3.8c.3 .4 .6 .7 1.1 .9c.5 .2 1 .3 1.4 .3h8.2c1.8 0 3.2-.2 4.3-.6c1.3-.6 2.3-1.6 2.8-2.9c1.1-2.6 2.6-4.6 4.3-6.3c1.6-1.4 2.9-2.1 4-2.1c1 0 2.3 1.5 3.8 4.6c1.6 3.2 2.3 6.2 2.3 8.9v6.5c-2 0-4.5-.4-7.3-1.2c-2.5-.7-4.7-1.6-6.6-2.6c-1.1 1.8-2.6 2.9-4.2 3.4c-.9 .3-2 .4-3.4 .4h-8.2c-1.6 0-3-.3-4.2-.9c-1.1-.7-2.1-1.7-2.8-3.1c-1.3 1.6-3 2.7-5.1 3.4c-1.4 .4-2.8 .6-4.5 .6H995.2c-1.3 0-2.3-.3-3-.8c-.8-.7-1.3-1.8-1.3-3.3c0-.9 .1-1.8 .2-2.9c.1-1 .2-2 .4-3l1.1-.1c.2 .7 .5 1.2 1.1 1.5c.5 .4 1.2 .5 1.9 .5h10.3c-.5-2.9-1.3-5.2-2.4-7c-.9-1.4-2.2-2.7-3.9-3.8Zm-80.6-2c2.1 0 4 1.8 5.9 5.4c1.8 3.7 2.8 7.5 2.8 11.6v13.1H911.2v.7c0 1.2-.7 2.8-2.1 4.8c-1.4 2-3 3.8-4.9 5.2c-2.1 1.7-3.8 2.5-5.3 2.5c-1.8 0-3.6-.5-5.6-1.5c-1.8-.9-4.5-2.6-8.2-5.1l1.2-1.9c1.8 1.2 3.2 2 4.3 2.4c1.1 .4 2.3 .6 3.6 .6c1.4 0 2.7-.4 4.1-1.1c1.4-.8 3.2-2.2 5.6-4.3c3.3-3 5-5.2 5-6.8c0-.8-.4-1.9-1-3.2c-.7-1.4-1.6-2.7-2.6-3.6L907 315c1.3 1.4 2.3 3 3.1 4.8c.7 1.8 1.1 3.9 1.1 6.2v.3H927c0-1.7-.1-2.9-.2-3.7c-.1-1.1-.5-2.1-1-2.9c-.6 1.2-1.5 2.1-2.5 2.8c-1.1 .7-2.2 1-3.5 1c-1.5 0-2.9-.5-4-1.6c-1.1-1.1-1.6-2.4-1.6-4c0-2.3 .7-5.1 2.1-8.3c1.6-3.5 3.2-5.3 4.8-5.3Zm-562.3 0c2.1 0 4.1 1.8 5.9 5.4c1.9 3.7 2.8 7.5 2.8 11.6v13.1H332.4v.7c0 1.2-.7 2.8-2.1 4.8c-1.4 2-3 3.8-4.9 5.2c-2 1.7-3.8 2.5-5.3 2.5c-1.7 0-3.6-.5-5.6-1.5c-1.8-.9-4.5-2.6-8.2-5.1l1.2-1.9c1.8 1.2 3.3 2 4.3 2.4c1.1 .4 2.3 .6 3.6 .6c1.4 0 2.7-.4 4.1-1.1c1.4-.8 3.3-2.2 5.6-4.3c3.3-3 5-5.2 5-6.8c0-.8-.3-1.9-1-3.2c-.7-1.4-1.6-2.7-2.6-3.6l1.7-8.1c1.3 1.4 2.4 3 3.1 4.8c.7 1.8 1.1 3.9 1.1 6.2v.3H346c-.2-1.3-.6-2.5-1.2-3.4c-.3-.5-1-1.4-2.1-2.7l2.4-7.1c1.5 1.7 2.5 3.5 3 5.3c.5 1.6 .8 3.9 .8 6.9l.1 1h15.7c0-1.7-.1-2.9-.2-3.7c-.1-1.1-.4-2.1-.9-2.9c-.7 1.2-1.5 2.1-2.6 2.8c-1.1 .7-2.2 1-3.4 1c-1.6 0-3-.5-4.1-1.6c-1.1-1.1-1.6-2.4-1.6-4c0-2.3 .7-5.1 2.1-8.3c1.6-3.5 3.2-5.3 4.8-5.3Zm167.1-1.2l5.6 3l-3.1 5.8l-4.4-2.2l-2.6 4.8l-5.4-3l3.3-6.1l4.2 2.4Zm750.5-.3l5.4 3l-3.3 6.1l-4.2-2.4l-2.4 4.7l-5.5-3l3.1-5.8l4.4 2.2Zm-413.3-1.9l7 3.6l-3.6 6.7l-7-3.6Zm-463.5-.1l2.9 18.6c.5 2.9 1 4.9 1.8 5.9c.5 .7 1.1 1 2 1h17.4c-.2-1.3-.6-2.5-1.2-3.4c-.3-.5-1-1.4-2.1-2.7l2.4-7.1c1.5 1.7 2.5 3.5 3.1 5.3c.5 1.9 .8 4.6 .8 8.2v7.8H406.3c-.8 0-1.4-.1-2-.4c-1.2-.6-2.1-1.6-2.9-3.2c-1.1-2.1-1.8-5-2.1-8.6c-1.4 1.6-2.4 2.8-3.2 3.5c-1.1 1-2 1.5-2.7 1.5c-.4 0-.9 0-1.5-.1l-3.6-.8c-1.5-.3-2.5-.5-2.9-.6c-.3-.2-.5-.4-.5-.8c0-.5 .7-2.2 2.1-5.1c1.4-2.8 2.4-4.6 3-5.3c.5-.5 1.4-1.2 2.6-2.1c.8-.5 1.9-1.1 3.2-1.9l1.6-1c0-.2-.1-.5-.1-.8c0-.3 0-.6 0-.8c0-.8 .1-1.7 .5-2.9c.3-1.1 .9-2.5 1.8-4.2Zm748.2-1.3l5.5 3.1l-3.1 5.7l-4.4-2.2l-2.5 4.9l-5.4-3.1l3.3-6.1l4.2 2.4Zm-804.9 0l5.6 3.1l-3.1 5.7l-4.4-2.2l-2.5 4.9l-5.5-3.1l3.3-6.1l4.3 2.4Zm1046.8-.8l6.9 3.7l-3.6 6.7l-6.9-3.7Zm-622.9 0l7 3.7l-3.6 6.7l-7-3.7ZM566 298.3l7 3.7l-3.6 6.6l-7-3.6Zm-87.8 0l7 3.7l-3.6 6.6l-7-3.6Zm829-.1l1.8 10.6c.7 4 1.1 7.5 1.4 10.4c.2 2.3 .3 4.5 .3 6.6c0 1.7-.2 3.3-.6 4.8c-.5 1.4-1.3 3.4-2.5 5.9l-1.7-.7c.4-2.6 .7-4.6 .7-6.2c0-1.2-.1-3-.3-5.4c-.2-2.3-.5-4.6-.8-6.9c-.3-2.3-.8-5.1-1.4-8.2c-.3-1.2-.4-1.9-.4-2.3c0-.7 .3-1.7 .9-3.2c.6-1.5 1.5-3.3 2.6-5.4Zm-131.6 0l1.8 10.6c.6 4 1.1 7.5 1.3 10.4c.2 2.3 .3 4.5 .3 6.6c0 1.7-.2 3.3-.6 4.8c-.4 1.4-1.2 3.4-2.4 5.9l-1.8-.7c.5-2.6 .7-4.6 .7-6.2c0-1.2-.1-3-.3-5.4c-.2-2.3-.4-4.6-.7-6.9c-.3-2.3-.8-5.1-1.5-8.2c-.2-1.2-.3-1.9-.3-2.3c0-.7 .3-1.7 .9-3.2c.6-1.5 1.5-3.3 2.6-5.4Zm-238.3 0l1.7 10.6c.7 4 1.2 7.5 1.4 10.4c.2 2.3 .3 4.5 .3 6.6c0 1.7-.2 3.3-.6 4.8c-.4 1.4-1.2 3.4-2.4 5.9l-1.8-.7c.5-2.6 .7-4.6 .7-6.2c0-1.2-.1-3-.3-5.4c-.2-2.3-.4-4.6-.8-6.9c-.2-2.3-.7-5.1-1.4-8.2c-.2-1.2-.4-1.9-.4-2.3c0-.7 .4-1.7 1-3.2c.6-1.5 1.4-3.3 2.6-5.4Zm-58.2 0l1.8 10.6c.7 4 1.1 7.5 1.4 10.4c.2 2.3 .3 4.5 .3 6.6c0 1.7-.2 3.3-.6 4.8c-.4 1.4-1.3 3.4-2.4 5.9l-1.8-.7c.4-2.6 .7-4.6 .7-6.2c0-1.2-.1-3-.3-5.4c-.2-2.3-.5-4.6-.8-6.9c-.3-2.3-.7-5.1-1.4-8.2c-.3-1.2-.4-1.9-.4-2.3c0-.7 .3-1.7 .9-3.2c.7-1.5 1.5-3.3 2.6-5.4Zm-177.8 0l1.8 10.6c.7 4 1.1 7.5 1.4 10.4c.2 2.3 .3 4.5 .3 6.6c0 1.7-.2 3.3-.7 4.8c-.4 1.4-1.2 3.4-2.4 5.9l-1.8-.7c.5-2.6 .8-4.6 .8-6.2c0-1.2-.2-3-.4-5.4c-.1-2.3-.4-4.6-.7-6.9c-.3-2.3-.8-5.1-1.5-8.2c-.2-1.2-.3-1.9-.3-2.3c0-.7 .3-1.7 .9-3.2c.6-1.5 1.5-3.3 2.6-5.4Zm-155.4 0c1.2 1.6 2 3.2 2.5 4.7c.5 1.8 .7 4.2 .7 7v5.8c0 4.2 .3 7.1 .9 8.7c.4 1.3 1.1 1.9 2.1 1.9h17.7c-.2-1.3-.6-2.5-1.2-3.4c-.3-.5-1-1.4-2.1-2.7l2.4-7.1c1.5 1.7 2.5 3.5 3.1 5.3c.5 1.9 .8 4.6 .8 8.2v7.8H552.1c-2.4 0-4-.9-5.1-2.8c-1.1-2.1-1.7-5.7-1.7-10.7v-8.5c0-1.9-.3-3.4-.8-4.5c-.3-.5-.9-1.2-1.8-2.2Zm-115.3 0c1.2 1.6 2 3.2 2.4 4.7c.6 1.8 .8 4.2 .8 7v5.8c0 4.2 .3 7.1 .9 8.7c.4 1.3 1.1 1.9 2 1.9h4.8c1.1 0 2.2-.1 3.3-.3c1.2-.3 2.1-.4 2.6-.6c2.2-5.9 4.2-10.2 5.9-12.9c1.4-2.3 2.8-3.5 4.1-3.5c1 0 1.9 1 2.6 3c.6 1.7 .9 3.4 .9 5c0 2.4-.4 4.3-1.3 5.9c-1 1.8-2.5 3.1-4.5 4c1.5-.3 2.8-.4 4-.5c1.2-.1 2.3-.1 3.3-.1H482c-.2-1.3-.6-2.5-1.2-3.4c-.3-.5-1-1.4-2.1-2.7l2.4-7.1c1.5 1.7 2.5 3.5 3.1 5.3c.5 1.9 .8 4.6 .8 8.2v7.8H462.4c-.5 0-.9 0-1.4 0c-.5 0-1.2 .1-2.1 .2c.7 .4 1.4 .8 2.1 1.2c.7 .5 1 1.2 1 2c0 .8-.1 1.6-.3 2.5c-.1 .5-.4 1.3-.9 2.6c-.8 2.5-1.6 4.2-2.3 5.1c-.7 .9-1.6 1.3-2.7 1.3c-2.8 0-5.2-1.5-7.2-4.4c-2-2.9-3-6.4-3-10.5h-8.9c-2.3 0-4-.9-5-2.8c-1.1-2.1-1.7-5.7-1.7-10.7v-8.5c0-1.9-.3-3.4-.8-4.5c-.3-.5-.9-1.2-1.8-2.2Zm-168.4 0l1.8 10.6c.7 4 1.1 7.5 1.4 10.4c.2 2.3 .3 4.5 .3 6.6c0 1.7-.2 3.3-.6 4.8c-.5 1.4-1.3 3.4-2.5 5.9l-1.7-.7c.4-2.6 .7-4.6 .7-6.2c0-1.2-.1-3-.3-5.4c-.2-2.3-.5-4.6-.8-6.9c-.3-2.3-.8-5.1-1.4-8.2c-.3-1.2-.4-1.9-.4-2.3c0-.7 .3-1.7 .9-3.2c.6-1.5 1.5-3.3 2.6-5.4Zm34.5-1.6l5.4 3l-3.3 6.1l-4.2-2.4l-2.4 4.7l-5.5-3l3.1-5.8l4.4 2.2Zm685-.7l1.4 .7c-.1 .3-.1 .6-.1 1c0 .7 .4 1.4 1.2 1.9c1.2 .7 2.4 1.3 3.4 1.9c-.2 1.7-.4 2.9-.6 3.7c-.2 .7-.7 1.8-1.4 3.3l-.9-.4c0 .3 .3 2 .9 5.1c.5 3.1 1 5.8 1.4 8c.6 3.2 .8 5.2 .8 5.9v6.7c0 3-1.5 5.8-4.7 8.1c-3.2 2.4-6.8 3.6-10.9 3.6c-3.4 0-6.1-.9-8-2.6c-1.9-1.7-2.9-4.1-2.9-7.2c0-2.9 .4-5.4 1.1-7.6c.8-2.4 2.4-5.3 4.8-8.9l1.8 1.3c-1.5 2.3-2.6 4.3-3.3 6c-.6 1.7-1 3.4-1 5.1c0 1.8 .7 3.2 2 4.2c1.4 1 3.3 1.5 5.7 1.5c3.5 0 6.4-.7 8.6-2c2.1-1.4 3.2-3.2 3.2-5.3c0-.4 0-.7 0-.9c0-.3 0-.4 0-.5c0-.8 0-1.7-.2-2.6c-.1-.9-.4-2.9-1-5.8c-.8-4.7-1.7-9.4-2.5-14.1l-1.5-1.1c0-2 .9-5 2.7-9Zm288.8 0l5.5 2.9l-2.9 6.2l-5.7-3Zm22.9 0l1.4 .7c0 .1 0 .4-.1 1c0 .6 .4 1.2 1.2 1.9c.8 .5 1.9 1.1 3.6 1.8c-.2 1.3-.5 2.5-.8 3.7c-.4 1.2-.8 2.3-1.2 3.3l-1.1-.4l3.3 18.4v8.1h-16.4l-1.1-.1c-.9-.1-1.7-.2-2.5-.4c-1.4-.3-2.9-.8-4.3-1.5c-1.2 .8-2.2 1.4-3.1 1.6c-.9 .3-2.3 .4-4.1 .4h-4.8c-1.4 0-2.4-.3-3.2-1c-.8-.7-1.5-1.9-2.1-3.5c-1.1 1.7-2.3 2.9-3.6 3.6c-1.2 .6-2.6 .9-4.2 .9h-24.2l-.2 1.5c-.6 2.2-2.1 4.1-4.5 5.9c-3.2 2.4-6.8 3.6-10.9 3.6c-3.4 0-6-.9-7.9-2.6c-2-1.7-2.9-4.1-2.9-7.2c0-2.9 .3-5.4 1.1-7.6c.8-2.4 2.4-5.3 4.7-8.9l1.9 1.3c-1.6 2.3-2.7 4.3-3.3 6c-.7 1.7-1 3.4-1 5.1c0 1.8 .7 3.2 2 4.2c1.3 1 3.2 1.5 5.7 1.5c3.5 0 6.3-.7 8.5-2c2.2-1.4 3.3-3.2 3.3-5.3c0-.4 0-.7 0-.9c0-.3 0-.4 0-.5c0-.8-.1-1.7-.2-2.6c-.1-.9-.5-2.9-1-5.8c-.9-4.7-1.7-9.4-2.6-14.1l-1.5-1.1c0-2 .9-5 2.8-9l1.3 .7c0 .3-.1 .6-.1 1c0 .7 .4 1.4 1.2 1.9c1.3 .7 2.4 1.3 3.5 1.9c-.2 1.7-.5 2.9-.7 3.7c-.2 .7-.7 1.8-1.4 3.3l-.9-.4c0 .3 .3 2 .9 5.1c.6 3.1 1 5.8 1.4 8c.5 2.4 .7 4.1 .8 5.1v.1h17.3c-.8-.9-1.5-1.7-2.3-2.4c-.6-.6-1.4-1.3-2.4-2.1c-1.1-.8-2.2-1.7-3.4-2.6l-.9 1.1c-1.8-1.8-2.8-2.8-3.2-3.2c-1-1.1-1.5-2.4-1.5-3.9c0-2 .2-3.4 .5-4.2c.3-1.2 1.2-2.2 2.5-3.1c1.1-.8 2.4-1.5 3.7-2.2c1-.5 2.4-1.1 4.1-1.8c.8-.3 2.5-1 5-2V307c-.1 0-.9 .3-2.5 .8c-1.9 .6-3.5 1.2-4.6 1.7c-1.7 .7-2.5 1.2-2.5 1.5c0 .2 .7 .9 2.1 2.3c1.9 1.9 3.5 3.6 4.9 5.2c2.1 2.5 3.9 5.1 5.2 7.6v.2h2.2c2.1 0 3.8-.6 5.2-1.7c1.8-1.6 2.7-3.9 2.7-7l2 .3c0 .6-.1 1.3-.1 2.2c0 .8-.1 1.7-.1 2.7c0 1 .4 1.8 1.1 2.5c.7 .7 1.5 1 2.4 1h3.6c2.5 0 4.2-.3 5.2-1c1.3-.8 1.9-2.3 1.9-4.6c0-.4 .1-.9 .4-1.2c.2-.3 .6-.6 1.1-1l1.2-.9c0 .4 0 .9 .1 1.5c0 .7 0 1.1 0 1.3c0 1.1-.2 2.5-.5 4.3c.8 .4 1.6 .7 2.5 1c.9 .2 1.9 .4 2.9 .6c0-.7-.3-1.6-.8-2.7c-.5-1-.7-1.8-.7-2.1c0-.6 .1-1 .2-1.2c0-.1 .3-.4 .7-1l2.5-3.4c.5 1.3 .9 2.4 1.1 3.4c.3 1 .4 2.3 .4 3.9v3.1h10.8l-3.6-20.2l-1.9-1.3c0-1.2 .1-2.3 .5-3.5c.5-1.5 1.2-3.3 2.3-5.4Zm-131.6 0l1.4 .7c0 .1-.1 .4-.1 1c0 .6 .4 1.2 1.2 1.9c.7 .5 1.9 1.1 3.5 1.8c-.2 1.3-.4 2.5-.8 3.7c-.3 1.2-.7 2.3-1.2 3.3l-1-.4l3.2 18.4v8.1h-35c-2.3 0-4-.9-5-2.8c-1.1-2.1-1.7-5.7-1.7-10.7v-8.5c0-1.9-.3-3.4-.8-4.5c-.3-.5-.9-1.2-1.8-2.2l3.2-7.5c1.2 1.6 2 3.2 2.4 4.7c.6 1.8 .8 4.2 .8 7v5.8c0 4.2 .3 7.1 .9 8.7c.4 1.3 1.1 1.9 2 1.9h17.8c-.2-1.3-.6-2.5-1.2-3.4c-.3-.5-1-1.4-2.1-2.7l2.4-7.1c1.5 1.7 2.5 3.5 3.1 5.3c.5 1.6 .7 3.9 .8 6.9v1h10.6l-3.6-20.2l-1.9-1.3c0-1.2 .2-2.3 .6-3.5c.4-1.5 1.2-3.3 2.3-5.4Zm-45.1 0l1.4 .7c0 .1-.1 .4-.1 1c0 .6 .4 1.2 1.2 1.9c.7 .5 1.9 1.1 3.5 1.8c-.2 1.3-.4 2.5-.8 3.7c-.3 1.2-.7 2.3-1.2 3.3l-1-.4l3.2 18.4v8.1h-17.3c-.9 0-1.6 0-1.9 .1c-.4 0-.6 .1-.6 .4c.6 .3 1.1 .5 1.6 .7c.5 .1 .8 .3 1 .5c.2 .2 .2 .5 .2 1c0 1.4-.4 3.1-1.2 5c-.8 2-1.6 3.2-2.3 3.7c-.8 .6-2.9 1.3-6.6 2.1c-3.6 .8-6.7 1.2-9.4 1.2c-3.7 0-6.7-.8-9-2.3c-2.3-1.6-3.5-3.6-3.5-6.1c0-2.4 .5-4.7 1.5-6.9c1.3-2.7 3.5-6.1 6.9-10.1l1.8 1.2c-2.1 2.5-3.6 4.6-4.4 6.2c-.8 1.6-1.2 3.1-1.2 4.7c0 2.1 .9 3.7 2.6 4.7c1.8 1 4.5 1.5 8.2 1.5c1.9 0 4.6-.3 7.9-1c3.4-.7 5.1-1.3 5.1-1.8c0-.3-.6-.5-1.9-.7c-1.3-.2-2.8-.3-4.3-.3c-2.3 0-3.4-.5-3.4-1.5c0-.4 .3-1.3 .8-2.4c.4-.8 .8-1.7 1.2-2.5c.7-1.6 2.1-2.9 4.2-4c2.1-1 4.2-1.5 6.5-1.5h13.9l-3.6-20.2l-1.9-1.3c0-1.2 .2-2.3 .6-3.5c.4-1.5 1.2-3.3 2.3-5.4Zm-429.2 0l1.4 .7c0 .1-.1 .4-.1 1c0 .6 .4 1.2 1.2 1.9c.8 .5 1.9 1.1 3.5 1.8c-.1 1.3-.4 2.5-.8 3.7c-.3 1.2-.7 2.3-1.1 3.3l-1.1-.4l3.2 18.4v8.1H673.4c-.5 0-.9 0-1.4 0c-.5 0-1.2 .1-2.1 .2c.7 .4 1.4 .8 2.1 1.2c.7 .5 1 1.2 1 2c0 .8-.1 1.6-.3 2.5c-.1 .5-.4 1.3-.9 2.6c-.8 2.5-1.6 4.2-2.3 5.1c-.7 .9-1.6 1.3-2.7 1.3c-2.8 0-5.2-1.5-7.2-4.4c-2-2.9-3-6.4-3-10.5h-4.7v.7c0 1.2-.7 2.8-2 4.8c-1.4 2-3.1 3.8-4.9 5.2c-2.1 1.7-3.9 2.5-5.3 2.5c-1.8 0-3.7-.5-5.7-1.5c-1.7-.9-4.4-2.6-8.2-5.1l1.3-1.9c1.8 1.2 3.2 2 4.3 2.4c1.1 .4 2.3 .6 3.6 .6c1.3 0 2.7-.4 4.1-1.1c1.3-.8 3.2-2.2 5.6-4.3c3.3-3 4.9-5.2 4.9-6.8c0-.8-.3-1.9-.9-3.2c-.8-1.4-1.6-2.7-2.7-3.6l1.7-8.1c1.4 1.4 2.4 3 3.1 4.8c.8 1.8 1.1 3.9 1.1 6.2v.3h.6c1.1 0 2.2-.1 3.3-.3c1.3-.3 2.1-.4 2.6-.6c2.2-5.9 4.2-10.2 5.9-12.9c1.5-2.3 2.8-3.5 4.1-3.5c1 0 1.9 1 2.6 3c.6 1.7 1 3.4 1 5c0 2.4-.5 4.3-1.4 5.9c-1 1.8-2.5 3.1-4.5 4c1.5-.3 2.8-.4 4-.5c1.2-.1 2.3-.1 3.3-.1h16.8l-3.6-20.2l-2-1.3c0-1.2 .2-2.3 .6-3.5c.5-1.5 1.2-3.3 2.3-5.4Zm-439.1 0l1.4 .7c0 .1 0 .4-.1 1c0 .6 .4 1.2 1.2 1.9c.8 .5 1.9 1.1 3.6 1.8c-.2 1.3-.5 2.5-.8 3.7c-.4 1.2-.8 2.3-1.2 3.3l-1.1-.4l3.3 18.4v8.1H206.4v-.1l-.4-.1c-1.5-.2-3.1-.5-4.9-1c-2.5-.7-4.6-1.6-6.5-2.6c-1.2 1.8-2.6 2.9-4.3 3.4c-.8 .3-1.9 .4-3.3 .4h-5.9v-8.1H187c1.8 0 3.2-.2 4.2-.6c1.4-.6 2.3-1.6 2.8-2.9c1.2-2.6 2.6-4.6 4.4-6.3c1.6-1.4 2.9-2.1 4-2.1c1 0 2.2 1.5 3.7 4.6c1.2 2.4 2 4.7 2.2 6.8l.1 .5h19.2c-2.5-2.5-4.7-4.3-6.7-5.3c-1.8-1-3.6-1.5-5.3-1.5c-.5 0-1 0-1.4 .1c-.5 0-1.1 .1-1.9 .3c1.1-2.5 2.3-4.4 3.7-5.5c1.3-1.2 2.8-1.8 4.5-1.8c1.3 0 2.6 .3 3.8 .9c1.2 .7 2.6 1.7 4.1 3.1c1.2 1.1 2.9 2.8 5.1 5.2c1.5 1.7 2.6 2.8 3.4 3.3c.8 .5 1.9 .9 3.5 1.2h10.7l-3.6-20.2l-1.9-1.3c0-1.2 .1-2.3 .5-3.5c.5-1.5 1.2-3.3 2.3-5.4Zm670.1-4.6l7 3.7l-3.6 6.7l-7-3.7Zm-562.3 0l7 3.7l-3.6 6.7l-7-3.7Zm41.7-1.4l5.4 2.7l-3.3 5.6l-4.2-2.4l-2.4 4.7l-5.6-3l3.1-5.3l4.4 2.2Z" class="g0_80"/>
<path d="M1092.5 349.8l3.8 2.4l-2.9 3.4l-3.2-2l-2.3 2.5l-3.8-2.1l2.8-3.6l3.3 2.1ZM817.9 336.9l6.9 3.7l-3.6 6.7l-6.9-3.6Zm631.6-.3l5.6 3.1l-3.1 5.7l-4.4-2.2l-2.5 4.9l-5.5-3.1l3.3-6l4.3 2.3Zm-1028.8 0l5.5 3.1l-3.1 5.7l-4.4-2.2l-2.5 4.9l-5.4-3.1l3.3-6l4.2 2.3ZM660 334.9c.4 1.8 1.3 3.3 2.8 4.6c1.5 1.3 3.1 1.9 4.9 1.9c.6 0 .9-.2 .9-.6c0-1.1-.7-2.2-1.9-3.2c-1.6-1.2-3.8-2.1-6.7-2.7Zm-211 0c.3 1.8 1.3 3.3 2.8 4.6c1.5 1.3 3.1 1.9 4.9 1.9c.5 0 .9-.2 .9-.6c0-1.1-.7-2.2-2-3.2c-1.5-1.2-3.7-2.1-6.6-2.7Zm983-13.4c-.6 0-1.1 .3-1.4 .7c-.4 .5-.6 1.1-.6 1.6c0 .8 .4 1.3 1.2 1.8c.8 .5 1.8 .7 3.1 .7h1.2c-.6-3.2-1.7-4.8-3.5-4.8Zm-838.7 0c-.6 0-1.1 .3-1.5 .7c-.3 .5-.5 1.1-.5 1.6c0 .8 .4 1.3 1.2 1.8c.7 .5 1.8 .7 3.1 .7h1.1c-.6-3.2-1.7-4.8-3.4-4.8Zm453.4-.2c-.8 0-1.4 .9-2 2.7c1.1 .4 1.9 .7 2.4 .9c1.6 .6 2.5 .9 2.7 .9c.4 0 .7-.1 .7-.4c0-.4-.5-1.2-1.3-2.3c-1-1.2-1.8-1.8-2.5-1.8Zm-430.5 0c-.7 0-1.4 .9-1.9 2.7c1 .4 1.8 .7 2.3 .9c1.6 .6 2.5 .9 2.7 .9c.5 0 .7-.1 .7-.4c0-.4-.4-1.2-1.3-2.3c-.9-1.2-1.8-1.8-2.5-1.8Zm-417 0c-.8 0-1.5 .9-2 2.7c1 .4 1.8 .7 2.3 .9c1.7 .6 2.6 .9 2.8 .9c.4 0 .6-.1 .6-.4c0-.4-.4-1.2-1.3-2.3c-.9-1.2-1.8-1.8-2.4-1.8Zm1202-.9c-1.3 0-2.7 .4-4.4 1.3c-1.6 .8-4 2.4-7.1 4.6h7.8c6.5 0 9.8-1 9.8-3c0-.9-.7-1.6-2.1-2.2c-1.2-.5-2.5-.7-4-.7Zm-622.2 0c-1.3 0-2.8 .4-4.4 1.3c-1.7 .8-4.1 2.4-7.2 4.6h7.8c6.7 0 10.1-1 10.1-3c0-.8-.6-1.4-1.9-2c-1.2-.6-2.7-.9-4.4-.9Zm-485.9-.2c-1.3 2-1.9 3.7-1.9 5c0 .6 .2 1.2 .8 1.7c.5 .4 1.1 .6 1.9 .6c.9 0 2.1-.2 3.4-.7c1.3-.4 1.9-.8 1.9-1.2c0-.4-.7-1.1-2.1-2.3c-1.3-1.2-2.7-2.2-4-3.1Zm372.5-2.4c-.5 0-1.1 .5-1.8 1.6c-.7 1.2-1.5 2.9-2.5 5.3c2.3-.8 3.8-1.4 4.7-2c.9-.6 1.3-1.2 1.3-1.9c0-.5-.2-1.2-.5-1.9c-.4-.8-.8-1.1-1.2-1.1Zm-211 0c-.5 0-1.2 .5-1.8 1.6c-.7 1.2-1.6 2.9-2.5 5.3c2.3-.8 3.8-1.4 4.7-2c.9-.6 1.3-1.2 1.3-1.9c0-.5-.2-1.2-.6-1.9c-.3-.8-.7-1.1-1.1-1.1ZM867.3 315c1.4 1.4 2.4 3 3.2 4.8c.7 1.8 1.1 3.9 1.1 6.2v9.1c0 1.2-.7 2.8-2.1 4.8c-1.4 2-3 3.8-4.9 5.2c-2.1 1.7-3.8 2.5-5.3 2.5c-1.8 0-3.6-.5-5.6-1.5c-1.8-.9-4.5-2.6-8.2-5.1l1.2-1.9c1.8 1.2 3.2 2 4.3 2.4c1.1 .4 2.3 .6 3.6 .6c1.4 0 2.7-.4 4.1-1.1c1.4-.8 3.2-2.2 5.6-4.3c3.3-3 5-5.2 5-6.8c0-.8-.4-1.9-1-3.2c-.7-1.4-1.6-2.7-2.6-3.6ZM398 314c-.7 .3-1.2 .5-1.5 .7c-1.1 .6-2 1.1-2.7 1.6c-.4 .4-.8 .8-1.1 1.1c-.4 .5-.6 .8-.6 1c0 .3 .3 .5 1 .7c.7 .1 1.4 .2 2.1 .2c.4 0 .9-.1 1.3-.4c.5-.2 1.2-.7 2.1-1.3Zm196.6-.4c1.5 0 2.9 1.1 4 3.2c1.1 2.2 1.7 4.8 1.7 7.9v1.6h3.8c1.7 0 3.2-.2 4.2-.6c1.4-.6 2.3-1.6 2.8-2.9c1.1-2.6 2.6-4.6 4.4-6.3c1.5-1.4 2.9-2.1 4-2.1c1 0 2.2 1.5 3.7 4.6c1.6 3.2 2.4 6.2 2.4 8.9v6.5c-2.1 0-4.6-.4-7.4-1.2c-2.5-.7-4.7-1.6-6.6-2.6c-1.1 1.8-2.5 2.9-4.2 3.4c-.8 .3-1.9 .4-3.3 .4h-4.3l-.6 3.1c-.7 1.7-1.8 3.3-3.3 5c-2.9 3.3-5.7 5-8.6 5c-1.6 0-3.4-.5-5.4-1.6c-1.9-1-4.9-3.1-9-6.2l1.3-1.7c2.1 1.4 3.9 2.4 5.2 2.8c1.2 .4 2.5 .6 3.9 .6c1.9 0 3.8-.5 5.7-1.6c2.2-1.3 4.5-3.3 6.9-6.1c-.8 .1-1.5 .1-2.1 .1c-1.9 0-3.5-.6-4.7-1.9c-1.1-1.2-1.7-3-1.7-5.2c0-3 .7-5.9 2.1-8.6c1.4-3 3.1-4.5 5.1-4.5Zm-86.6-.3l1.6 1.1c-.4 .8-.8 1.5-1 2.1c-.3 .7-.6 1.2-.7 1.7c-.3 .9-.5 1.8-.5 2.7c0 1.2 .4 2.2 1.1 3.1c.8 .9 1.7 1.5 2.9 1.8c.7 .1 1.6 .3 2.7 .4c1.1 .1 2.3 .1 3.5 .1h21.6c-.6-1.6-1.1-2.6-1.4-3.2c-.4-.8-1.1-1.7-2-2.9l2.7-6.9c1.4 2.1 2.4 4.1 2.9 5.8c.4 1.6 .6 3.9 .6 6.9v8.4H517c-1.2 0-2.2 0-3 0c-.8 0-1.4-.1-1.8-.1c-.8-.1-1.6-.3-2.6-.6c-1.6-.6-3-1.7-4-3.4c-1-1.7-1.6-3.6-1.6-5.7c0-.9 .1-1.7 .2-2.6c.1-.9 .3-1.8 .7-2.8c.4-1.2 .8-2.3 1.4-3.2c.5-1 1.1-1.9 1.7-2.7Zm943.7-.2c1.5 1.7 2.5 3.5 3 5.3c.6 1.9 .9 4.6 .9 8.2v7.8h-17l-.7 3.1c-.7 1.7-1.8 3.3-3.2 5c-2.9 3.3-5.8 5-8.6 5c-1.7 0-3.5-.5-5.4-1.6c-2-1-5-3.1-9-6.2l1.2-1.7c2.2 1.4 3.9 2.4 5.3 2.8c1.1 .4 2.4 .6 3.8 .6c2 0 3.9-.5 5.8-1.6c2.2-1.3 4.5-3.3 6.9-6.1c-.9 .1-1.6 .1-2.1 .1c-2 0-3.5-.6-4.7-1.9c-1.2-1.2-1.8-3-1.8-5.2c0-3 .7-5.9 2.1-8.6c1.5-3 3.2-4.5 5.1-4.5c1.6 0 2.9 1.1 4.1 3.2c1.1 2.2 1.6 4.8 1.6 7.9v1.6h13.6c-.2-1.3-.6-2.5-1.2-3.4c-.3-.5-1-1.4-2.1-2.7Zm-653.3-.8c2.8 0 5 .6 6.5 1.7c1.6 1 2.4 2.5 2.4 4.4c0 1-.2 2-.6 2.9c-.4 .9-1.2 2.2-2.4 3.8c.3 .4 .7 .7 1.2 .9c.4 .2 .9 .3 1.3 .3h18c-.2-1.3-.6-2.5-1.1-3.4c-.4-.5-1-1.4-2.1-2.7l2.3-7.1c1.5 1.7 2.6 3.5 3.1 5.3c.6 1.9 .8 4.6 .8 8.2v7.8h-21c-1.5 0-2.9-.3-4.1-.9c-1.2-.7-2.2-1.7-2.9-3.1c-1.3 1.6-3 2.7-5 3.4c-1.4 .4-2.9 .6-4.5 .6H757.4c0 4.7-1.5 8-4.5 10c-2.5 1.8-6.4 2.6-11.6 2.6c-4.8 0-8.5-.9-11.1-2.6c-2.6-1.8-3.9-4.3-3.9-7.5c0-2.8 .4-5.3 1.2-7.6c.9-2.5 2.7-5.8 5.4-9.8l1.8 1.2c-2 3.4-3.3 5.8-3.9 7.3c-.6 1.6-.9 3.1-.9 4.7c0 2.1 1.1 3.8 3.3 5.1c2.3 1.4 5.2 2 8.9 2c3.5 0 6.5-.7 9-2c2.4-1.4 3.7-3.1 3.7-5.1c0-1.2-.3-2.4-.7-3.6c-.4-1.3-1.3-3.2-2.7-5.9l2.6-8c1.1 2.1 1.7 3.3 1.8 3.6c.6 1.2 1 2.4 1.2 3.4c.3 1.1 .4 2.5 .4 4.1c1.3 0 2.4-.3 3.5-1c.1-.1 1.1-.7 2.9-2.1l10.7-7.6c1.7-1.2 2.9-1.9 3.8-2.4c1.1-.5 2.3-.8 3.5-.8c2.2 0 3.9 .8 5.2 2.4c1.5 1.8 2.2 4.5 2.2 8.2v3.3h1.1c1.6 0 2.8-.1 3.5-.2c.6-.2 1.5-.6 2.7-1.2c-.6-1.2-1.2-2-1.6-2.5c-.5-.6-1.1-.9-1.7-.9c-.2 0-.4 0-.6 .2c-.2 .1-.4 .4-.6 .8l-1.3-.2c0-3.5 .6-6.1 1.9-7.7c1.2-1.5 3.1-2.3 5.8-2.3Zm122.2-.5c-.6 0-1.2 .3-1.7 .9c-.4 .5-.7 1.1-.7 1.8c0 .5 .2 .9 .6 1.2c.4 .3 .8 .4 1.4 .4c.5 0 .9-.1 1.4-.4c.5-.2 1-.7 1.7-1.3c-.5-1-1-1.6-1.4-2c-.4-.4-.9-.6-1.3-.6Zm-562.3 0c-.6 0-1.2 .3-1.6 .9c-.5 .5-.8 1.1-.8 1.8c0 .5 .2 .9 .6 1.2c.4 .3 .8 .4 1.4 .4c.5 0 .9-.1 1.4-.4c.5-.2 1-.7 1.7-1.3c-.5-1-1-1.6-1.4-2c-.4-.4-.8-.6-1.3-.6Zm-65.5-.3l2.9 1.7c1.3 .8 2.5 1.6 3.6 2.5c1.7 1.3 2.8 2.4 3.4 3.5c.6 1.1 .9 2.4 .9 4c0 1.2-.1 2.4-.3 3.7c-.1 1.2-.4 2.2-.7 3c-.5 1.5-1.9 2.8-4.1 3.9c-2 1.1-3.9 1.7-5.7 1.7c-1.6 0-2.8-.6-3.7-1.7c-.9-1-1.4-2.4-1.4-4.2c0-1.7 .2-3.3 .7-4.8c.5-1.6 1.3-3.6 2.5-6l-1-.7c.3-.9 .7-2 1.3-3.3c.6-1.3 1.1-2.4 1.6-3.3Zm1049.8-.5c.7 0 2.1 .1 4.2 .3c2 .2 3.9 .4 5.5 .5c3 .2 6 .4 8.8 .4l-1.7 7.2c-1.2 0-2.2 0-3.1 .2c-1.1 .2-2.1 .4-3 .6c0 .4-.1 .8-.1 1.3c-.1 .5-.1 .8-.1 1.1c0 1.4 .5 2.4 1.4 2.9c.9 .5 2.7 .8 5.2 .8h6.8c2.3 0 4.1-.6 5.3-1.7c1.4-1.4 2.3-3.7 2.7-7l2 .3c-.1 .7-.1 1.3-.1 1.7c-.1 1.3-.1 2.4-.1 3.2c0 1.1 .3 2 .9 2.6c.5 .6 1.3 .9 2.3 .9c1 0 1.9-.2 2.7-.6c.8-.4 2.1-1.2 3.9-2.5l10.7-7.6c1.2-.9 2.2-1.5 2.8-1.9c1.4-.9 2.9-1.3 4.2-1.3c2.2 0 4 .8 5.3 2.4c1.6 1.8 2.4 4.5 2.4 8.2v11.4h-31.6c-1.4 0-2.5-.3-3.4-1c-.8-.7-1.5-1.9-2.1-3.5c-1.3 1.8-2.5 3-3.7 3.6c-1 .6-2.4 .9-4.2 .9h-6.8c-3.5 0-5.9-.5-7.1-1.5c-1.3-1-1.9-2.9-1.9-5.7c0-1.3 0-2.5 .2-3.6c.1-.4 .2-1.4 .5-2.9c-4.6 1.1-8.2 2.9-11 5.5c-2.9 2.7-4.3 5.7-4.3 9.1c0 4 1.7 7 5.1 9.2c3.4 2.1 8.3 3.2 14.8 3.2c1.8 0 4.5-.2 8.1-.5l.5 .9l-11.3 7.3h-2.9c-5.8 0-10.3-1.4-13.4-4.4c-3.2-2.9-4.8-7.1-4.8-12.6c0-4.2 1-8 2.9-11.6c1.9-3.5 4.3-6.1 7.3-7.7h-.7c-1.8 0-3.4 .2-4.6 .6c-1.2 .3-3 1.1-5.4 2.4c.9-7.4 4.5-11.1 10.9-11.1Zm-340.9-4.7c2.6 1.9 4.5 4.4 5.5 7.4c1 2.8 1.5 6.5 1.5 11.2v1.4h1c1.7 0 2.9-.1 3.5-.2c.7-.2 1.6-.6 2.7-1.2c-.6-1.2-1.1-2-1.5-2.5c-.6-.6-1.1-.9-1.7-.9c-.2 0-.4 0-.6 .2c-.2 .1-.4 .4-.7 .8l-1.3-.2c0-3.5 .6-6.1 1.9-7.7c1.2-1.5 3.2-2.3 5.9-2.3c2.7 0 4.9 .6 6.5 1.7c1.6 1 2.4 2.5 2.4 4.4c0 1-.2 2-.7 2.9c-.4 .9-1.2 2.2-2.3 3.8c.3 .4 .6 .7 1.1 .9c.5 .2 1 .3 1.4 .3h8.2c1.8 0 3.2-.2 4.3-.6c1.3-.6 2.3-1.6 2.8-2.9c1.1-2.6 2.6-4.6 4.3-6.3c1.6-1.4 2.9-2.1 4-2.1c1 0 2.3 1.5 3.8 4.6c1.6 3.2 2.3 6.2 2.3 8.9v6.5c-2 0-4.5-.4-7.3-1.2c-2.5-.7-4.7-1.6-6.6-2.6c-1.1 1.8-2.6 2.9-4.2 3.4c-.9 .3-2 .4-3.4 .4h-8.2c-1.6 0-3-.3-4.2-.9c-1.1-.7-2.1-1.7-2.8-3.1c-1.3 1.6-3 2.7-5.1 3.4c-1.4 .4-2.8 .6-4.5 .6H995.2c-1.3 0-2.3-.3-3-.8c-.8-.7-1.3-1.8-1.3-3.3c0-.9 .1-1.8 .2-2.9c.1-1 .2-2 .4-3l1.1-.1c.2 .7 .5 1.2 1.1 1.5c.5 .4 1.2 .5 1.9 .5h10.3c-.5-2.9-1.3-5.2-2.4-7c-.9-1.4-2.2-2.7-3.9-3.8Zm-80.6-2c2.1 0 4 1.8 5.9 5.4c1.8 3.7 2.8 7.5 2.8 11.6v13.1H911.2v.7c0 1.2-.7 2.8-2.1 4.8c-1.4 2-3 3.8-4.9 5.2c-2.1 1.7-3.8 2.5-5.3 2.5c-1.8 0-3.6-.5-5.6-1.5c-1.8-.9-4.5-2.6-8.2-5.1l1.2-1.9c1.8 1.2 3.2 2 4.3 2.4c1.1 .4 2.3 .6 3.6 .6c1.4 0 2.7-.4 4.1-1.1c1.4-.8 3.2-2.2 5.6-4.3c3.3-3 5-5.2 5-6.8c0-.8-.4-1.9-1-3.2c-.7-1.4-1.6-2.7-2.6-3.6L907 315c1.3 1.4 2.3 3 3.1 4.8c.7 1.8 1.1 3.9 1.1 6.2v.3H927c0-1.7-.1-2.9-.2-3.7c-.1-1.1-.5-2.1-1-2.9c-.6 1.2-1.5 2.1-2.5 2.8c-1.1 .7-2.2 1-3.5 1c-1.5 0-2.9-.5-4-1.6c-1.1-1.1-1.6-2.4-1.6-4c0-2.3 .7-5.1 2.1-8.3c1.6-3.5 3.2-5.3 4.8-5.3Zm-562.3 0c2.1 0 4.1 1.8 5.9 5.4c1.9 3.7 2.8 7.5 2.8 11.6v13.1H332.4v.7c0 1.2-.7 2.8-2.1 4.8c-1.4 2-3 3.8-4.9 5.2c-2 1.7-3.8 2.5-5.3 2.5c-1.7 0-3.6-.5-5.6-1.5c-1.8-.9-4.5-2.6-8.2-5.1l1.2-1.9c1.8 1.2 3.3 2 4.3 2.4c1.1 .4 2.3 .6 3.6 .6c1.4 0 2.7-.4 4.1-1.1c1.4-.8 3.3-2.2 5.6-4.3c3.3-3 5-5.2 5-6.8c0-.8-.3-1.9-1-3.2c-.7-1.4-1.6-2.7-2.6-3.6l1.7-8.1c1.3 1.4 2.4 3 3.1 4.8c.7 1.8 1.1 3.9 1.1 6.2v.3H346c-.2-1.3-.6-2.5-1.2-3.4c-.3-.5-1-1.4-2.1-2.7l2.4-7.1c1.5 1.7 2.5 3.5 3 5.3c.5 1.6 .8 3.9 .8 6.9l.1 1h15.7c0-1.7-.1-2.9-.2-3.7c-.1-1.1-.4-2.1-.9-2.9c-.7 1.2-1.5 2.1-2.6 2.8c-1.1 .7-2.2 1-3.4 1c-1.6 0-3-.5-4.1-1.6c-1.1-1.1-1.6-2.4-1.6-4c0-2.3 .7-5.1 2.1-8.3c1.6-3.5 3.2-5.3 4.8-5.3Zm167.1-1.2l5.6 3l-3.1 5.8l-4.4-2.2l-2.6 4.8l-5.4-3l3.3-6.1l4.2 2.4Zm750.5-.3l5.4 3l-3.3 6.1l-4.2-2.4l-2.4 4.7l-5.5-3l3.1-5.8l4.4 2.2Zm-413.3-1.9l7 3.6l-3.6 6.7l-7-3.6Zm-463.5-.1l2.9 18.6c.5 2.9 1 4.9 1.8 5.9c.5 .7 1.1 1 2 1h17.4c-.2-1.3-.6-2.5-1.2-3.4c-.3-.5-1-1.4-2.1-2.7l2.4-7.1c1.5 1.7 2.5 3.5 3.1 5.3c.5 1.9 .8 4.6 .8 8.2v7.8H406.3c-.8 0-1.4-.1-2-.4c-1.2-.6-2.1-1.6-2.9-3.2c-1.1-2.1-1.8-5-2.1-8.6c-1.4 1.6-2.4 2.8-3.2 3.5c-1.1 1-2 1.5-2.7 1.5c-.4 0-.9 0-1.5-.1l-3.6-.8c-1.5-.3-2.5-.5-2.9-.6c-.3-.2-.5-.4-.5-.8c0-.5 .7-2.2 2.1-5.1c1.4-2.8 2.4-4.6 3-5.3c.5-.5 1.4-1.2 2.6-2.1c.8-.5 1.9-1.1 3.2-1.9l1.6-1c0-.2-.1-.5-.1-.8c0-.3 0-.6 0-.8c0-.8 .1-1.7 .5-2.9c.3-1.1 .9-2.5 1.8-4.2Zm748.2-1.3l5.5 3.1l-3.1 5.7l-4.4-2.2l-2.5 4.9l-5.4-3.1l3.3-6.1l4.2 2.4Zm-804.9 0l5.6 3.1l-3.1 5.7l-4.4-2.2l-2.5 4.9l-5.5-3.1l3.3-6.1l4.3 2.4Zm1046.8-.8l6.9 3.7l-3.6 6.7l-6.9-3.7Zm-622.9 0l7 3.7l-3.6 6.7l-7-3.7ZM566 298.3l7 3.7l-3.6 6.6l-7-3.6Zm-87.8 0l7 3.7l-3.6 6.6l-7-3.6Zm829-.1l1.8 10.6c.7 4 1.1 7.5 1.4 10.4c.2 2.3 .3 4.5 .3 6.6c0 1.7-.2 3.3-.6 4.8c-.5 1.4-1.3 3.4-2.5 5.9l-1.7-.7c.4-2.6 .7-4.6 .7-6.2c0-1.2-.1-3-.3-5.4c-.2-2.3-.5-4.6-.8-6.9c-.3-2.3-.8-5.1-1.4-8.2c-.3-1.2-.4-1.9-.4-2.3c0-.7 .3-1.7 .9-3.2c.6-1.5 1.5-3.3 2.6-5.4Zm-131.6 0l1.8 10.6c.6 4 1.1 7.5 1.3 10.4c.2 2.3 .3 4.5 .3 6.6c0 1.7-.2 3.3-.6 4.8c-.4 1.4-1.2 3.4-2.4 5.9l-1.8-.7c.5-2.6 .7-4.6 .7-6.2c0-1.2-.1-3-.3-5.4c-.2-2.3-.4-4.6-.7-6.9c-.3-2.3-.8-5.1-1.5-8.2c-.2-1.2-.3-1.9-.3-2.3c0-.7 .3-1.7 .9-3.2c.6-1.5 1.5-3.3 2.6-5.4Zm-238.3 0l1.7 10.6c.7 4 1.2 7.5 1.4 10.4c.2 2.3 .3 4.5 .3 6.6c0 1.7-.2 3.3-.6 4.8c-.4 1.4-1.2 3.4-2.4 5.9l-1.8-.7c.5-2.6 .7-4.6 .7-6.2c0-1.2-.1-3-.3-5.4c-.2-2.3-.4-4.6-.8-6.9c-.2-2.3-.7-5.1-1.4-8.2c-.2-1.2-.4-1.9-.4-2.3c0-.7 .4-1.7 1-3.2c.6-1.5 1.4-3.3 2.6-5.4Zm-58.2 0l1.8 10.6c.7 4 1.1 7.5 1.4 10.4c.2 2.3 .3 4.5 .3 6.6c0 1.7-.2 3.3-.6 4.8c-.4 1.4-1.3 3.4-2.4 5.9l-1.8-.7c.4-2.6 .7-4.6 .7-6.2c0-1.2-.1-3-.3-5.4c-.2-2.3-.5-4.6-.8-6.9c-.3-2.3-.7-5.1-1.4-8.2c-.3-1.2-.4-1.9-.4-2.3c0-.7 .3-1.7 .9-3.2c.7-1.5 1.5-3.3 2.6-5.4Zm-177.8 0l1.8 10.6c.7 4 1.1 7.5 1.4 10.4c.2 2.3 .3 4.5 .3 6.6c0 1.7-.2 3.3-.7 4.8c-.4 1.4-1.2 3.4-2.4 5.9l-1.8-.7c.5-2.6 .8-4.6 .8-6.2c0-1.2-.2-3-.4-5.4c-.1-2.3-.4-4.6-.7-6.9c-.3-2.3-.8-5.1-1.5-8.2c-.2-1.2-.3-1.9-.3-2.3c0-.7 .3-1.7 .9-3.2c.6-1.5 1.5-3.3 2.6-5.4Zm-155.4 0c1.2 1.6 2 3.2 2.5 4.7c.5 1.8 .7 4.2 .7 7v5.8c0 4.2 .3 7.1 .9 8.7c.4 1.3 1.1 1.9 2.1 1.9h17.7c-.2-1.3-.6-2.5-1.2-3.4c-.3-.5-1-1.4-2.1-2.7l2.4-7.1c1.5 1.7 2.5 3.5 3.1 5.3c.5 1.9 .8 4.6 .8 8.2v7.8H552.1c-2.4 0-4-.9-5.1-2.8c-1.1-2.1-1.7-5.7-1.7-10.7v-8.5c0-1.9-.3-3.4-.8-4.5c-.3-.5-.9-1.2-1.8-2.2Zm-115.3 0c1.2 1.6 2 3.2 2.4 4.7c.6 1.8 .8 4.2 .8 7v5.8c0 4.2 .3 7.1 .9 8.7c.4 1.3 1.1 1.9 2 1.9h4.8c1.1 0 2.2-.1 3.3-.3c1.2-.3 2.1-.4 2.6-.6c2.2-5.9 4.2-10.2 5.9-12.9c1.4-2.3 2.8-3.5 4.1-3.5c1 0 1.9 1 2.6 3c.6 1.7 .9 3.4 .9 5c0 2.4-.4 4.3-1.3 5.9c-1 1.8-2.5 3.1-4.5 4c1.5-.3 2.8-.4 4-.5c1.2-.1 2.3-.1 3.3-.1H482c-.2-1.3-.6-2.5-1.2-3.4c-.3-.5-1-1.4-2.1-2.7l2.4-7.1c1.5 1.7 2.5 3.5 3.1 5.3c.5 1.9 .8 4.6 .8 8.2v7.8H462.4c-.5 0-.9 0-1.4 0c-.5 0-1.2 .1-2.1 .2c.7 .4 1.4 .8 2.1 1.2c.7 .5 1 1.2 1 2c0 .8-.1 1.6-.3 2.5c-.1 .5-.4 1.3-.9 2.6c-.8 2.5-1.6 4.2-2.3 5.1c-.7 .9-1.6 1.3-2.7 1.3c-2.8 0-5.2-1.5-7.2-4.4c-2-2.9-3-6.4-3-10.5h-8.9c-2.3 0-4-.9-5-2.8c-1.1-2.1-1.7-5.7-1.7-10.7v-8.5c0-1.9-.3-3.4-.8-4.5c-.3-.5-.9-1.2-1.8-2.2Zm-168.4 0l1.8 10.6c.7 4 1.1 7.5 1.4 10.4c.2 2.3 .3 4.5 .3 6.6c0 1.7-.2 3.3-.6 4.8c-.5 1.4-1.3 3.4-2.5 5.9l-1.7-.7c.4-2.6 .7-4.6 .7-6.2c0-1.2-.1-3-.3-5.4c-.2-2.3-.5-4.6-.8-6.9c-.3-2.3-.8-5.1-1.4-8.2c-.3-1.2-.4-1.9-.4-2.3c0-.7 .3-1.7 .9-3.2c.6-1.5 1.5-3.3 2.6-5.4Zm34.5-1.6l5.4 3l-3.3 6.1l-4.2-2.4l-2.4 4.7l-5.5-3l3.1-5.8l4.4 2.2Zm685-.7l1.4 .7c-.1 .3-.1 .6-.1 1c0 .7 .4 1.4 1.2 1.9c1.2 .7 2.4 1.3 3.4 1.9c-.2 1.7-.4 2.9-.6 3.7c-.2 .7-.7 1.8-1.4 3.3l-.9-.4c0 .3 .3 2 .9 5.1c.5 3.1 1 5.8 1.4 8c.6 3.2 .8 5.2 .8 5.9v6.7c0 3-1.5 5.8-4.7 8.1c-3.2 2.4-6.8 3.6-10.9 3.6c-3.4 0-6.1-.9-8-2.6c-1.9-1.7-2.9-4.1-2.9-7.2c0-2.9 .4-5.4 1.1-7.6c.8-2.4 2.4-5.3 4.8-8.9l1.8 1.3c-1.5 2.3-2.6 4.3-3.3 6c-.6 1.7-1 3.4-1 5.1c0 1.8 .7 3.2 2 4.2c1.4 1 3.3 1.5 5.7 1.5c3.5 0 6.4-.7 8.6-2c2.1-1.4 3.2-3.2 3.2-5.3c0-.4 0-.7 0-.9c0-.3 0-.4 0-.5c0-.8 0-1.7-.2-2.6c-.1-.9-.4-2.9-1-5.8c-.8-4.7-1.7-9.4-2.5-14.1l-1.5-1.1c0-2 .9-5 2.7-9Zm288.8 0l5.5 2.9l-2.9 6.2l-5.7-3Zm22.9 0l1.4 .7c0 .1 0 .4-.1 1c0 .6 .4 1.2 1.2 1.9c.8 .5 1.9 1.1 3.6 1.8c-.2 1.3-.5 2.5-.8 3.7c-.4 1.2-.8 2.3-1.2 3.3l-1.1-.4l3.3 18.4v8.1h-16.4l-1.1-.1c-.9-.1-1.7-.2-2.5-.4c-1.4-.3-2.9-.8-4.3-1.5c-1.2 .8-2.2 1.4-3.1 1.6c-.9 .3-2.3 .4-4.1 .4h-4.8c-1.4 0-2.4-.3-3.2-1c-.8-.7-1.5-1.9-2.1-3.5c-1.1 1.7-2.3 2.9-3.6 3.6c-1.2 .6-2.6 .9-4.2 .9h-24.2l-.2 1.5c-.6 2.2-2.1 4.1-4.5 5.9c-3.2 2.4-6.8 3.6-10.9 3.6c-3.4 0-6-.9-7.9-2.6c-2-1.7-2.9-4.1-2.9-7.2c0-2.9 .3-5.4 1.1-7.6c.8-2.4 2.4-5.3 4.7-8.9l1.9 1.3c-1.6 2.3-2.7 4.3-3.3 6c-.7 1.7-1 3.4-1 5.1c0 1.8 .7 3.2 2 4.2c1.3 1 3.2 1.5 5.7 1.5c3.5 0 6.3-.7 8.5-2c2.2-1.4 3.3-3.2 3.3-5.3c0-.4 0-.7 0-.9c0-.3 0-.4 0-.5c0-.8-.1-1.7-.2-2.6c-.1-.9-.5-2.9-1-5.8c-.9-4.7-1.7-9.4-2.6-14.1l-1.5-1.1c0-2 .9-5 2.8-9l1.3 .7c0 .3-.1 .6-.1 1c0 .7 .4 1.4 1.2 1.9c1.3 .7 2.4 1.3 3.5 1.9c-.2 1.7-.5 2.9-.7 3.7c-.2 .7-.7 1.8-1.4 3.3l-.9-.4c0 .3 .3 2 .9 5.1c.6 3.1 1 5.8 1.4 8c.5 2.4 .7 4.1 .8 5.1v.1h17.3c-.8-.9-1.5-1.7-2.3-2.4c-.6-.6-1.4-1.3-2.4-2.1c-1.1-.8-2.2-1.7-3.4-2.6l-.9 1.1c-1.8-1.8-2.8-2.8-3.2-3.2c-1-1.1-1.5-2.4-1.5-3.9c0-2 .2-3.4 .5-4.2c.3-1.2 1.2-2.2 2.5-3.1c1.1-.8 2.4-1.5 3.7-2.2c1-.5 2.4-1.1 4.1-1.8c.8-.3 2.5-1 5-2V307c-.1 0-.9 .3-2.5 .8c-1.9 .6-3.5 1.2-4.6 1.7c-1.7 .7-2.5 1.2-2.5 1.5c0 .2 .7 .9 2.1 2.3c1.9 1.9 3.5 3.6 4.9 5.2c2.1 2.5 3.9 5.1 5.2 7.6v.2h2.2c2.1 0 3.8-.6 5.2-1.7c1.8-1.6 2.7-3.9 2.7-7l2 .3c0 .6-.1 1.3-.1 2.2c0 .8-.1 1.7-.1 2.7c0 1 .4 1.8 1.1 2.5c.7 .7 1.5 1 2.4 1h3.6c2.5 0 4.2-.3 5.2-1c1.3-.8 1.9-2.3 1.9-4.6c0-.4 .1-.9 .4-1.2c.2-.3 .6-.6 1.1-1l1.2-.9c0 .4 0 .9 .1 1.5c0 .7 0 1.1 0 1.3c0 1.1-.2 2.5-.5 4.3c.8 .4 1.6 .7 2.5 1c.9 .2 1.9 .4 2.9 .6c0-.7-.3-1.6-.8-2.7c-.5-1-.7-1.8-.7-2.1c0-.6 .1-1 .2-1.2c0-.1 .3-.4 .7-1l2.5-3.4c.5 1.3 .9 2.4 1.1 3.4c.3 1 .4 2.3 .4 3.9v3.1h10.8l-3.6-20.2l-1.9-1.3c0-1.2 .1-2.3 .5-3.5c.5-1.5 1.2-3.3 2.3-5.4Zm-131.6 0l1.4 .7c0 .1-.1 .4-.1 1c0 .6 .4 1.2 1.2 1.9c.7 .5 1.9 1.1 3.5 1.8c-.2 1.3-.4 2.5-.8 3.7c-.3 1.2-.7 2.3-1.2 3.3l-1-.4l3.2 18.4v8.1h-35c-2.3 0-4-.9-5-2.8c-1.1-2.1-1.7-5.7-1.7-10.7v-8.5c0-1.9-.3-3.4-.8-4.5c-.3-.5-.9-1.2-1.8-2.2l3.2-7.5c1.2 1.6 2 3.2 2.4 4.7c.6 1.8 .8 4.2 .8 7v5.8c0 4.2 .3 7.1 .9 8.7c.4 1.3 1.1 1.9 2 1.9h17.8c-.2-1.3-.6-2.5-1.2-3.4c-.3-.5-1-1.4-2.1-2.7l2.4-7.1c1.5 1.7 2.5 3.5 3.1 5.3c.5 1.6 .7 3.9 .8 6.9v1h10.6l-3.6-20.2l-1.9-1.3c0-1.2 .2-2.3 .6-3.5c.4-1.5 1.2-3.3 2.3-5.4Zm-45.1 0l1.4 .7c0 .1-.1 .4-.1 1c0 .6 .4 1.2 1.2 1.9c.7 .5 1.9 1.1 3.5 1.8c-.2 1.3-.4 2.5-.8 3.7c-.3 1.2-.7 2.3-1.2 3.3l-1-.4l3.2 18.4v8.1h-17.3c-.9 0-1.6 0-1.9 .1c-.4 0-.6 .1-.6 .4c.6 .3 1.1 .5 1.6 .7c.5 .1 .8 .3 1 .5c.2 .2 .2 .5 .2 1c0 1.4-.4 3.1-1.2 5c-.8 2-1.6 3.2-2.3 3.7c-.8 .6-2.9 1.3-6.6 2.1c-3.6 .8-6.7 1.2-9.4 1.2c-3.7 0-6.7-.8-9-2.3c-2.3-1.6-3.5-3.6-3.5-6.1c0-2.4 .5-4.7 1.5-6.9c1.3-2.7 3.5-6.1 6.9-10.1l1.8 1.2c-2.1 2.5-3.6 4.6-4.4 6.2c-.8 1.6-1.2 3.1-1.2 4.7c0 2.1 .9 3.7 2.6 4.7c1.8 1 4.5 1.5 8.2 1.5c1.9 0 4.6-.3 7.9-1c3.4-.7 5.1-1.3 5.1-1.8c0-.3-.6-.5-1.9-.7c-1.3-.2-2.8-.3-4.3-.3c-2.3 0-3.4-.5-3.4-1.5c0-.4 .3-1.3 .8-2.4c.4-.8 .8-1.7 1.2-2.5c.7-1.6 2.1-2.9 4.2-4c2.1-1 4.2-1.5 6.5-1.5h13.9l-3.6-20.2l-1.9-1.3c0-1.2 .2-2.3 .6-3.5c.4-1.5 1.2-3.3 2.3-5.4Zm-429.2 0l1.4 .7c0 .1-.1 .4-.1 1c0 .6 .4 1.2 1.2 1.9c.8 .5 1.9 1.1 3.5 1.8c-.1 1.3-.4 2.5-.8 3.7c-.3 1.2-.7 2.3-1.1 3.3l-1.1-.4l3.2 18.4v8.1H673.4c-.5 0-.9 0-1.4 0c-.5 0-1.2 .1-2.1 .2c.7 .4 1.4 .8 2.1 1.2c.7 .5 1 1.2 1 2c0 .8-.1 1.6-.3 2.5c-.1 .5-.4 1.3-.9 2.6c-.8 2.5-1.6 4.2-2.3 5.1c-.7 .9-1.6 1.3-2.7 1.3c-2.8 0-5.2-1.5-7.2-4.4c-2-2.9-3-6.4-3-10.5h-4.7v.7c0 1.2-.7 2.8-2 4.8c-1.4 2-3.1 3.8-4.9 5.2c-2.1 1.7-3.9 2.5-5.3 2.5c-1.8 0-3.7-.5-5.7-1.5c-1.7-.9-4.4-2.6-8.2-5.1l1.3-1.9c1.8 1.2 3.2 2 4.3 2.4c1.1 .4 2.3 .6 3.6 .6c1.3 0 2.7-.4 4.1-1.1c1.3-.8 3.2-2.2 5.6-4.3c3.3-3 4.9-5.2 4.9-6.8c0-.8-.3-1.9-.9-3.2c-.8-1.4-1.6-2.7-2.7-3.6l1.7-8.1c1.4 1.4 2.4 3 3.1 4.8c.8 1.8 1.1 3.9 1.1 6.2v.3h.6c1.1 0 2.2-.1 3.3-.3c1.3-.3 2.1-.4 2.6-.6c2.2-5.9 4.2-10.2 5.9-12.9c1.5-2.3 2.8-3.5 4.1-3.5c1 0 1.9 1 2.6 3c.6 1.7 1 3.4 1 5c0 2.4-.5 4.3-1.4 5.9c-1 1.8-2.5 3.1-4.5 4c1.5-.3 2.8-.4 4-.5c1.2-.1 2.3-.1 3.3-.1h16.8l-3.6-20.2l-2-1.3c0-1.2 .2-2.3 .6-3.5c.5-1.5 1.2-3.3 2.3-5.4Zm-439.1 0l1.4 .7c0 .1 0 .4-.1 1c0 .6 .4 1.2 1.2 1.9c.8 .5 1.9 1.1 3.6 1.8c-.2 1.3-.5 2.5-.8 3.7c-.4 1.2-.8 2.3-1.2 3.3l-1.1-.4l3.3 18.4v8.1H206.4v-.1l-.4-.1c-1.5-.2-3.1-.5-4.9-1c-2.5-.7-4.6-1.6-6.5-2.6c-1.2 1.8-2.6 2.9-4.3 3.4c-.8 .3-1.9 .4-3.3 .4h-5.9v-8.1H187c1.8 0 3.2-.2 4.2-.6c1.4-.6 2.3-1.6 2.8-2.9c1.2-2.6 2.6-4.6 4.4-6.3c1.6-1.4 2.9-2.1 4-2.1c1 0 2.2 1.5 3.7 4.6c1.2 2.4 2 4.7 2.2 6.8l.1 .5h19.2c-2.5-2.5-4.7-4.3-6.7-5.3c-1.8-1-3.6-1.5-5.3-1.5c-.5 0-1 0-1.4 .1c-.5 0-1.1 .1-1.9 .3c1.1-2.5 2.3-4.4 3.7-5.5c1.3-1.2 2.8-1.8 4.5-1.8c1.3 0 2.6 .3 3.8 .9c1.2 .7 2.6 1.7 4.1 3.1c1.2 1.1 2.9 2.8 5.1 5.2c1.5 1.7 2.6 2.8 3.4 3.3c.8 .5 1.9 .9 3.5 1.2h10.7l-3.6-20.2l-1.9-1.3c0-1.2 .1-2.3 .5-3.5c.5-1.5 1.2-3.3 2.3-5.4Zm670.1-4.6l7 3.7l-3.6 6.7l-7-3.7Zm-562.3 0l7 3.7l-3.6 6.7l-7-3.7Zm41.7-1.4l5.4 2.7l-3.3 5.6l-4.2-2.4l-2.4 4.7l-5.6-3l3.1-5.3l4.4 2.2Z" class="g1_80"/>
<path fill-rule="evenodd" d="M177.1 295.9l1.4 .7c-.1 .3-.2 .6-.2 1c0 .7 .5 1.4 1.3 1.9c1.2 .7 2.3 1.3 3.4 1.9c-.2 1.7-.4 2.9-.7 3.7c-.2 .7-.6 1.8-1.3 3.3l-.9-.4c0 .3 .3 2 .8 5.1c.6 3.1 1.1 5.8 1.5 8c.5 3.2 .8 5.2 .8 5.9v6.7c0 3-1.6 5.8-4.8 8.1c-3.1 2.4-6.8 3.6-10.8 3.6c-3.5 0-6.1-.9-8-2.6c-1.9-1.7-2.9-4.1-2.9-7.2c0-2.9 .4-5.4 1.1-7.6c.8-2.4 2.4-5.3 4.7-8.9l1.9 1.3c-1.6 2.3-2.7 4.3-3.3 6c-.7 1.7-1 3.4-1 5.1c0 1.8 .7 3.2 2 4.2c1.3 1 3.2 1.5 5.7 1.5c3.5 0 6.3-.7 8.5-2c2.2-1.4 3.3-3.2 3.3-5.3c0-.4 0-.7 0-.9c0-.3 0-.4 0-.5c0-.8-.1-1.7-.2-2.6c-.1-.9-.5-2.9-1-5.8c-.9-4.7-1.7-9.4-2.6-14.1l-1.5-1.1c0-2 1-5 2.8-9Z" class="g0_80"/>
<path d="M177.1 295.9l1.4 .7c-.1 .3-.2 .6-.2 1c0 .7 .5 1.4 1.3 1.9c1.2 .7 2.3 1.3 3.4 1.9c-.2 1.7-.4 2.9-.7 3.7c-.2 .7-.6 1.8-1.3 3.3l-.9-.4c0 .3 .3 2 .8 5.1c.6 3.1 1.1 5.8 1.5 8c.5 3.2 .8 5.2 .8 5.9v6.7c0 3-1.6 5.8-4.8 8.1c-3.1 2.4-6.8 3.6-10.8 3.6c-3.5 0-6.1-.9-8-2.6c-1.9-1.7-2.9-4.1-2.9-7.2c0-2.9 .4-5.4 1.1-7.6c.8-2.4 2.4-5.3 4.7-8.9l1.9 1.3c-1.6 2.3-2.7 4.3-3.3 6c-.7 1.7-1 3.4-1 5.1c0 1.8 .7 3.2 2 4.2c1.3 1 3.2 1.5 5.7 1.5c3.5 0 6.3-.7 8.5-2c2.2-1.4 3.3-3.2 3.3-5.3c0-.4 0-.7 0-.9c0-.3 0-.4 0-.5c0-.8-.1-1.7-.2-2.6c-.1-.9-.5-2.9-1-5.8c-.9-4.7-1.7-9.4-2.6-14.1l-1.5-1.1c0-2 1-5 2.8-9Z" class="g1_80"/>
<path fill-rule="evenodd" d="M125.7 334.8h8.4v8.4h-8.4Zm-17 0h8.4v8.4h-8.4Z" class="g0_80"/>
<path d="M125.7 334.8h8.4v8.4h-8.4Zm-17 0h8.4v8.4h-8.4Z" class="g1_80"/>
<path fill-rule="evenodd" d="M78 321.3c-.8 0-1.5 .9-2 2.7c1 .4 1.8 .7 2.4 .9c1.6 .6 2.5 .9 2.7 .9c.4 0 .6-.1 .6-.4c0-.4-.4-1.2-1.3-2.3c-.9-1.2-1.7-1.8-2.4-1.8ZM51.7 298.2c1.1 1.6 1.9 3.2 2.4 4.7c.5 1.8 .8 4.2 .8 7v5.8c0 4.2 .3 7.1 .8 8.7c.5 1.3 1.1 1.9 2.1 1.9h8c1.8 0 3.2-.2 4.2-.6c1.4-.6 2.3-1.6 2.8-2.9c1.2-2.6 2.6-4.6 4.4-6.3c1.6-1.4 2.9-2.1 4-2.1c1 0 2.3 1.5 3.8 4.6c1.5 3.2 2.3 6.2 2.3 8.9v6.5c-2.1 0-4.5-.4-7.4-1.2c-2.4-.7-4.6-1.6-6.5-2.6c-1.2 1.8-2.6 2.9-4.3 3.4c-.8 .3-1.9 .4-3.3 .4h-8c-2.3 0-4-.9-5-2.8c-1.2-2.1-1.8-5.7-1.8-10.7v-8.5c0-1.9-.2-3.4-.8-4.5c-.2-.5-.8-1.2-1.8-2.2Z" class="g0_80"/>
<path d="M78 321.3c-.8 0-1.5 .9-2 2.7c1 .4 1.8 .7 2.4 .9c1.6 .6 2.5 .9 2.7 .9c.4 0 .6-.1 .6-.4c0-.4-.4-1.2-1.3-2.3c-.9-1.2-1.7-1.8-2.4-1.8ZM51.7 298.2c1.1 1.6 1.9 3.2 2.4 4.7c.5 1.8 .8 4.2 .8 7v5.8c0 4.2 .3 7.1 .8 8.7c.5 1.3 1.1 1.9 2.1 1.9h8c1.8 0 3.2-.2 4.2-.6c1.4-.6 2.3-1.6 2.8-2.9c1.2-2.6 2.6-4.6 4.4-6.3c1.6-1.4 2.9-2.1 4-2.1c1 0 2.3 1.5 3.8 4.6c1.5 3.2 2.3 6.2 2.3 8.9v6.5c-2.1 0-4.5-.4-7.4-1.2c-2.4-.7-4.6-1.6-6.5-2.6c-1.2 1.8-2.6 2.9-4.3 3.4c-.8 .3-1.9 .4-3.3 .4h-8c-2.3 0-4-.9-5-2.8c-1.2-2.1-1.8-5.7-1.8-10.7v-8.5c0-1.9-.2-3.4-.8-4.5c-.2-.5-.8-1.2-1.8-2.2Z" class="g1_80"/>
<path fill-rule="evenodd" d="M1390.2 418.7l4.6 2.3l-2.2 4.1l-4.5-2.3l-2.3 3.9l-4.5-2.4l2.2-4.2l4.5 2.4Zm-88-10.1l7 3.7l-3.6 6.7l-7-3.7Zm42.5-.3l5.5 3.1l-3.1 5.7l-4.4-2.2l-2.5 4.9l-5.4-3.1l3.3-6.1l4.2 2.4ZM1122 406.6c.4 1.8 1.3 3.3 2.8 4.6c1.5 1.3 3.1 1.9 4.9 1.9c.6 0 .9-.2 .9-.6c0-1.2-.7-2.2-1.9-3.2c-1.6-1.2-3.8-2.1-6.7-2.7Zm-66.7-13.4c-.6 0-1.1 .2-1.5 .7c-.3 .5-.5 1-.5 1.6c0 .7 .4 1.3 1.2 1.8c.7 .5 1.8 .7 3.1 .7h1.1c-.6-3.2-1.7-4.8-3.4-4.8Zm22.9-.2c-.7 0-1.4 .9-1.9 2.7c1 .4 1.8 .7 2.3 .9c1.6 .6 2.5 .9 2.7 .9c.5 0 .7-.2 .7-.4c0-.5-.4-1.2-1.3-2.3c-.9-1.2-1.8-1.8-2.5-1.8Zm49.4-3.6c-.5 0-1.1 .6-1.8 1.7c-.7 1.2-1.5 2.9-2.5 5.3c2.3-.8 3.8-1.5 4.7-2c.9-.6 1.3-1.2 1.3-1.9c0-.5-.2-1.2-.5-1.9c-.4-.8-.8-1.2-1.2-1.2Zm-96.3-2.5c1.4 2.5 2.3 4.2 2.6 5.2c.6 1.7 .9 3.9 .9 6.6v5.9c0 2.8-.3 5-.8 6.6c-.6 1.7-1.5 3-2.7 4c-1.2 1.1-3 1.9-5.4 2.5c-2.3 .7-4.7 1-7.2 1c-4.9 0-8.6-.9-11.2-2.6c-2.6-1.8-3.9-4.3-3.9-7.5c0-2.8 .4-5.3 1.2-7.6c1-2.5 2.7-5.8 5.4-9.8l1.8 1.2c-2 3.4-3.3 5.8-3.9 7.3c-.6 1.5-.9 3.1-.9 4.7c0 2.1 1.1 3.8 3.4 5.1c2.2 1.3 5.1 2 8.8 2c3.6 0 6.6-.7 9-2.1c2.5-1.3 3.7-3 3.7-5c0-1.2-.2-2.4-.7-3.7c-.4-1.2-1.3-3.1-2.7-5.8Zm367.7-.2c1.1 0 2.1 .4 2.7 1.3c.7 .9 1.1 2.1 1.1 3.6c0 1.1-.2 2-.4 2.7c-.2 .7-.7 1.7-1.4 2.8c-.5-1.4-1-2.3-1.3-2.7c-.4-.4-.9-.7-1.6-.7c-1.1 0-2.6 .6-4.5 1.9c-1.8 1.2-2.8 2.2-2.8 3.1c0 .4 .4 .7 1.2 .9c.5 .1 1.3 .2 2.5 .2c.3 0 .6 0 .9 0c.2 0 .5-.1 .8-.1c2.2 0 3.6 .2 4.3 .7c.7 .4 1 1.1 1 2.2c0 2.1-.4 4.2-1.2 6.2c-1 2.4-2.5 4.2-4.3 5.3c-2.4 1.3-4.9 2.4-7.4 3.2c-2.6 .8-5 1.2-7.2 1.2c-6.1 0-9.2-2.8-9.2-8.3c0-2.8 .3-5.2 1-7.2c.8-2.3 2.4-5.4 4.9-9.3l1.4 .9c-1.5 2.5-2.6 4.7-3.3 6.7c-.7 1.9-1.1 3.6-1.1 5c0 3.8 2.1 5.7 6.3 5.7c1.6 0 3.1-.2 4.6-.4c1.4-.3 2.9-.7 4.3-1.3c1-.3 2.1-.7 3.3-1.3c2-.9 3-1.3 3.1-1.4c.9-.4 1.4-.9 1.4-1.3c0-.2-.5-.3-1.5-.3c-.9-.1-1.6-.1-2-.1c-3.1 0-5.1-.4-6.2-1.3c-.8-.7-1.2-2-1.2-4c0-.9 .3-2 .9-3.4c.6-1.4 1.3-2.8 2.3-4.2c1.4-2.1 2.9-3.6 4.3-4.7c1.5-1.1 2.9-1.6 4.3-1.6Zm-342.4-1.4c1.5 0 2.9 1.1 4 3.2c1.1 2.2 1.7 4.8 1.7 7.9V398h3.8c1.7 0 3.2-.2 4.2-.7c1.4-.5 2.3-1.5 2.8-2.8c1.1-2.6 2.6-4.7 4.4-6.3c1.5-1.4 2.9-2.2 4-2.2c1 0 2.2 1.6 3.7 4.6c1.6 3.3 2.4 6.3 2.4 9v6.5c-2.1 0-4.6-.4-7.4-1.2c-2.5-.8-4.7-1.6-6.6-2.6c-1.1 1.8-2.5 2.9-4.2 3.4c-.8 .3-1.9 .4-3.3 .4h-4l-.1 .5c-.5 2.6-1.9 5.1-4.1 7.6c-2.9 3.3-5.7 5-8.6 5c-1.6 0-3.4-.5-5.4-1.6c-1.9-1-4.9-3.1-9-6.2l1.3-1.7c2.1 1.4 3.9 2.3 5.2 2.8c1.2 .4 2.5 .6 3.9 .6c1.9 0 3.8-.5 5.7-1.6c2.2-1.3 4.5-3.3 6.9-6.1c-.8 .1-1.5 .1-2.1 .1c-1.9 0-3.5-.6-4.7-1.9c-1.1-1.3-1.7-3-1.7-5.2c0-3 .7-5.9 2.1-8.6c1.4-3 3.1-4.5 5.1-4.5Zm264.7-1.3c2.8 0 4.9 .6 6.5 1.6c1.6 1.1 2.4 2.6 2.4 4.5c0 1-.2 2-.7 2.9c-.4 .9-1.1 2.2-2.3 3.8c.3 .3 .7 .7 1.1 .9c.5 .2 1 .3 1.4 .3h18c-.2-1.4-.6-2.5-1.2-3.4c-.3-.5-1-1.4-2.1-2.7l2.4-7.1c1.5 1.7 2.5 3.5 3.1 5.3c.5 1.9 .8 4.6 .8 8.2v7.8h-21c-1.6 0-2.9-.3-4.1-.9c-1.2-.7-2.2-1.7-2.9-3.1c-1.3 1.6-3 2.7-5.1 3.4c-1.3 .4-2.8 .6-4.4 .6h-17.6v.7c0 1.2-.7 2.8-2.1 4.8c-1.4 2-3 3.7-4.9 5.2c-2 1.6-3.8 2.5-5.3 2.5c-1.7 0-3.6-.6-5.6-1.5c-1.7-.9-4.5-2.6-8.2-5.2l1.3-1.8c1.8 1.2 3.2 2 4.3 2.4c1.1 .4 2.3 .6 3.5 .6c1.4 0 2.8-.4 4.2-1.1c1.3-.8 3.2-2.2 5.6-4.4c3.3-2.9 4.9-5.2 4.9-6.8c0-.7-.3-1.8-1-3.1c-.7-1.5-1.5-2.7-2.6-3.7l1.7-8c1.3 1.4 2.4 3 3.1 4.8c.8 1.8 1.1 3.9 1.1 6.2v.3h13.6c-.2-1.4-.6-2.5-1.2-3.4c-.3-.5-1-1.4-2.1-2.7l2.4-7.1c1.5 1.7 2.5 3.5 3.1 5.3c.4 1.6 .7 3.9 .8 6.9v1h1c1.6 0 2.8-.1 3.4-.3c.7-.1 1.6-.5 2.7-1.1c-.6-1.2-1.1-2-1.5-2.5c-.5-.7-1.1-1-1.7-1c-.2 0-.4 .1-.6 .3c-.2 .1-.4 .4-.6 .8l-1.3-.2c0-3.6 .6-6.1 1.8-7.7c1.3-1.5 3.2-2.3 5.9-2.3Zm-88.2-4c2.2 0 4.3 .7 6.3 2.1c1.9 1.4 3.2 3 4.1 5l-1.3 1c-1.5-.6-2.8-.9-3.7-1.1c-.9-.2-2.1-.3-3.4-.3c-2.5 0-4.6 .2-6.4 .6c-2.3 .5-3.5 1.2-3.5 2.1c0 1.4 2.8 3.7 8.3 6.8l15.2-4.3l-3.4 8.5c-5.3 1.6-9.7 2.9-13.2 3.8c-3.1 .7-5.6 1.3-7.7 1.6c-1.6 .2-3.1 .3-4.6 .3h-.6v.5c-.2 1.9-.4 3.4-.8 4.6c-.5 1.7-1.4 3-2.6 4c-1.3 1.1-3.1 1.9-5.4 2.5c-2.4 .7-4.8 1-7.3 1c-4.8 0-8.5-.9-11.2-2.6c-2.6-1.8-3.9-4.3-3.9-7.5c0-2.8 .4-5.3 1.3-7.6c.9-2.5 2.7-5.8 5.3-9.8l1.8 1.2c-2 3.4-3.2 5.8-3.8 7.3c-.6 1.5-.9 3.1-.9 4.7c0 2.1 1.1 3.8 3.3 5.1c2.2 1.3 5.2 2 8.8 2c3.6 0 6.6-.7 9-2.1c2.5-1.3 3.7-3 3.7-5c0-1.2-.2-2.4-.6-3.7c-.5-1.2-1.4-3.1-2.8-5.8l2.6-8c1.4 2.5 2.3 4.2 2.6 5.2c.5 1.5 .8 3.4 .9 5.6v.3h1.1c.6 0 1 0 1.3 0c.6-.1 1.2-.2 1.7-.2c-1-1.5-1.6-2.7-2-3.6c-.3-1-.5-2-.5-3.2c0-2.9 1.3-5.5 3.7-7.7c2.5-2.2 5.3-3.3 8.6-3.3Zm-30.7-2.5l7 3.7l-3.6 6.7l-7-3.7Zm-184.4 0l7 3.7l-3.6 6.7l-7-3.7Zm431.9-7.6l1.7 10.6c.7 4 1.2 7.5 1.4 10.4c.2 2.3 .3 4.4 .3 6.5c0 1.8-.2 3.4-.6 4.9c-.4 1.4-1.2 3.4-2.4 5.9l-1.8-.8c.5-2.5 .7-4.6 .7-6.2c0-1.2-.1-2.9-.3-5.3c-.2-2.3-.4-4.7-.7-6.9c-.3-2.4-.8-5.1-1.5-8.3c-.2-1.1-.4-1.8-.4-2.3c0-.6 .4-1.6 1-3.1c.6-1.5 1.4-3.3 2.6-5.4Zm-286.6 0l1.8 10.6c.7 4 1.1 7.5 1.4 10.4c.2 2.3 .3 4.4 .3 6.5c0 1.8-.2 3.4-.7 4.9c-.4 1.4-1.2 3.4-2.4 5.9l-1.8-.8c.5-2.5 .8-4.6 .8-6.2c0-1.2-.2-2.9-.4-5.3c-.2-2.3-.4-4.7-.7-6.9c-.3-2.4-.8-5.1-1.5-8.3c-.2-1.1-.3-1.8-.3-2.3c0-.6 .3-1.6 .9-3.1c.6-1.5 1.5-3.3 2.6-5.4Zm272.8-2.3l1.3 .7c0 .1 0 .4-.1 .9c0 .7 .4 1.3 1.3 1.9c.7 .6 1.9 1.2 3.5 1.9c-.2 1.3-.5 2.5-.8 3.7c-.4 1.2-.7 2.3-1.2 3.3l-1.1-.5l3.3 18.5v8.1h-27.8c-1.3 0-2.3-.3-3-.8c-.9-.7-1.3-1.8-1.3-3.3c0-.9 .1-1.9 .2-2.9c0-1 .2-2 .4-3l1.1-.1c.1 .7 .5 1.2 1 1.5c.6 .3 1.2 .5 2 .5h10.3c-.5-2.9-1.3-5.3-2.4-7c-.9-1.5-2.2-2.7-3.9-3.8l2.1-9.3c2.6 2 4.4 4.4 5.5 7.5c1 2.8 1.5 6.5 1.5 11.1V398h10.7l-3.6-20.2l-1.9-1.3c0-1.2 .2-2.3 .5-3.5c.5-1.6 1.3-3.4 2.4-5.4Zm-286.6 0l1.4 .7c0 .1-.1 .4-.1 .9c0 .7 .4 1.3 1.2 1.9c.8 .6 1.9 1.2 3.5 1.9c-.1 1.3-.4 2.5-.8 3.7c-.3 1.2-.7 2.3-1.1 3.3l-1.1-.5l3.2 18.5v8.1h-20.3c-.5 0-.9 0-1.4 0c-.5 0-1.2 .1-2.1 .2c.7 .4 1.4 .8 2.1 1.2c.7 .5 1 1.2 1 2c0 .8-.1 1.6-.3 2.5c-.1 .4-.4 1.3-.9 2.6c-.8 2.5-1.6 4.2-2.3 5c-.7 .9-1.6 1.4-2.7 1.4c-2.8 0-5.2-1.5-7.2-4.4c-2-2.9-3-6.4-3-10.5h-4.7v.7c0 1.2-.7 2.8-2 4.8c-1.4 2-3.1 3.7-4.9 5.2c-2.1 1.6-3.9 2.5-5.3 2.5c-1.8 0-3.7-.6-5.7-1.5c-1.7-.9-4.4-2.6-8.2-5.2l1.3-1.8c1.8 1.2 3.2 2 4.3 2.4c1.1 .4 2.3 .6 3.6 .6c1.3 0 2.7-.4 4.1-1.1c1.3-.8 3.2-2.2 5.6-4.4c3.3-2.9 4.9-5.2 4.9-6.8c0-.7-.3-1.8-.9-3.1c-.8-1.5-1.6-2.7-2.7-3.7l1.7-8c1.4 1.4 2.4 3 3.1 4.8c.8 1.8 1.1 3.9 1.1 6.2v.3h.6c1.1 0 2.2-.1 3.3-.3c1.3-.3 2.1-.5 2.6-.6c2.2-5.9 4.2-10.3 5.9-12.9c1.5-2.4 2.8-3.5 4.1-3.5c1 0 1.9 1 2.6 3c.6 1.7 1 3.4 1 5c0 2.3-.5 4.3-1.4 5.9c-1 1.8-2.5 3.1-4.5 4c1.5-.3 2.8-.4 4-.5c1.2-.1 2.3-.1 3.3-.1h16.8l-3.6-20.2l-2-1.3c0-1.2 .2-2.3 .6-3.5c.4-1.6 1.2-3.4 2.3-5.4Zm266.5-4.4l6.9 3.7l-3.6 6.7l-6.9-3.6Z" class="g0_80"/>
<path d="M1390.2 418.7l4.6 2.3l-2.2 4.1l-4.5-2.3l-2.3 3.9l-4.5-2.4l2.2-4.2l4.5 2.4Zm-88-10.1l7 3.7l-3.6 6.7l-7-3.7Zm42.5-.3l5.5 3.1l-3.1 5.7l-4.4-2.2l-2.5 4.9l-5.4-3.1l3.3-6.1l4.2 2.4ZM1122 406.6c.4 1.8 1.3 3.3 2.8 4.6c1.5 1.3 3.1 1.9 4.9 1.9c.6 0 .9-.2 .9-.6c0-1.2-.7-2.2-1.9-3.2c-1.6-1.2-3.8-2.1-6.7-2.7Zm-66.7-13.4c-.6 0-1.1 .2-1.5 .7c-.3 .5-.5 1-.5 1.6c0 .7 .4 1.3 1.2 1.8c.7 .5 1.8 .7 3.1 .7h1.1c-.6-3.2-1.7-4.8-3.4-4.8Zm22.9-.2c-.7 0-1.4 .9-1.9 2.7c1 .4 1.8 .7 2.3 .9c1.6 .6 2.5 .9 2.7 .9c.5 0 .7-.2 .7-.4c0-.5-.4-1.2-1.3-2.3c-.9-1.2-1.8-1.8-2.5-1.8Zm49.4-3.6c-.5 0-1.1 .6-1.8 1.7c-.7 1.2-1.5 2.9-2.5 5.3c2.3-.8 3.8-1.5 4.7-2c.9-.6 1.3-1.2 1.3-1.9c0-.5-.2-1.2-.5-1.9c-.4-.8-.8-1.2-1.2-1.2Zm-96.3-2.5c1.4 2.5 2.3 4.2 2.6 5.2c.6 1.7 .9 3.9 .9 6.6v5.9c0 2.8-.3 5-.8 6.6c-.6 1.7-1.5 3-2.7 4c-1.2 1.1-3 1.9-5.4 2.5c-2.3 .7-4.7 1-7.2 1c-4.9 0-8.6-.9-11.2-2.6c-2.6-1.8-3.9-4.3-3.9-7.5c0-2.8 .4-5.3 1.2-7.6c1-2.5 2.7-5.8 5.4-9.8l1.8 1.2c-2 3.4-3.3 5.8-3.9 7.3c-.6 1.5-.9 3.1-.9 4.7c0 2.1 1.1 3.8 3.4 5.1c2.2 1.3 5.1 2 8.8 2c3.6 0 6.6-.7 9-2.1c2.5-1.3 3.7-3 3.7-5c0-1.2-.2-2.4-.7-3.7c-.4-1.2-1.3-3.1-2.7-5.8Zm367.7-.2c1.1 0 2.1 .4 2.7 1.3c.7 .9 1.1 2.1 1.1 3.6c0 1.1-.2 2-.4 2.7c-.2 .7-.7 1.7-1.4 2.8c-.5-1.4-1-2.3-1.3-2.7c-.4-.4-.9-.7-1.6-.7c-1.1 0-2.6 .6-4.5 1.9c-1.8 1.2-2.8 2.2-2.8 3.1c0 .4 .4 .7 1.2 .9c.5 .1 1.3 .2 2.5 .2c.3 0 .6 0 .9 0c.2 0 .5-.1 .8-.1c2.2 0 3.6 .2 4.3 .7c.7 .4 1 1.1 1 2.2c0 2.1-.4 4.2-1.2 6.2c-1 2.4-2.5 4.2-4.3 5.3c-2.4 1.3-4.9 2.4-7.4 3.2c-2.6 .8-5 1.2-7.2 1.2c-6.1 0-9.2-2.8-9.2-8.3c0-2.8 .3-5.2 1-7.2c.8-2.3 2.4-5.4 4.9-9.3l1.4 .9c-1.5 2.5-2.6 4.7-3.3 6.7c-.7 1.9-1.1 3.6-1.1 5c0 3.8 2.1 5.7 6.3 5.7c1.6 0 3.1-.2 4.6-.4c1.4-.3 2.9-.7 4.3-1.3c1-.3 2.1-.7 3.3-1.3c2-.9 3-1.3 3.1-1.4c.9-.4 1.4-.9 1.4-1.3c0-.2-.5-.3-1.5-.3c-.9-.1-1.6-.1-2-.1c-3.1 0-5.1-.4-6.2-1.3c-.8-.7-1.2-2-1.2-4c0-.9 .3-2 .9-3.4c.6-1.4 1.3-2.8 2.3-4.2c1.4-2.1 2.9-3.6 4.3-4.7c1.5-1.1 2.9-1.6 4.3-1.6Zm-342.4-1.4c1.5 0 2.9 1.1 4 3.2c1.1 2.2 1.7 4.8 1.7 7.9V398h3.8c1.7 0 3.2-.2 4.2-.7c1.4-.5 2.3-1.5 2.8-2.8c1.1-2.6 2.6-4.7 4.4-6.3c1.5-1.4 2.9-2.2 4-2.2c1 0 2.2 1.6 3.7 4.6c1.6 3.3 2.4 6.3 2.4 9v6.5c-2.1 0-4.6-.4-7.4-1.2c-2.5-.8-4.7-1.6-6.6-2.6c-1.1 1.8-2.5 2.9-4.2 3.4c-.8 .3-1.9 .4-3.3 .4h-4l-.1 .5c-.5 2.6-1.9 5.1-4.1 7.6c-2.9 3.3-5.7 5-8.6 5c-1.6 0-3.4-.5-5.4-1.6c-1.9-1-4.9-3.1-9-6.2l1.3-1.7c2.1 1.4 3.9 2.3 5.2 2.8c1.2 .4 2.5 .6 3.9 .6c1.9 0 3.8-.5 5.7-1.6c2.2-1.3 4.5-3.3 6.9-6.1c-.8 .1-1.5 .1-2.1 .1c-1.9 0-3.5-.6-4.7-1.9c-1.1-1.3-1.7-3-1.7-5.2c0-3 .7-5.9 2.1-8.6c1.4-3 3.1-4.5 5.1-4.5Zm264.7-1.3c2.8 0 4.9 .6 6.5 1.6c1.6 1.1 2.4 2.6 2.4 4.5c0 1-.2 2-.7 2.9c-.4 .9-1.1 2.2-2.3 3.8c.3 .3 .7 .7 1.1 .9c.5 .2 1 .3 1.4 .3h18c-.2-1.4-.6-2.5-1.2-3.4c-.3-.5-1-1.4-2.1-2.7l2.4-7.1c1.5 1.7 2.5 3.5 3.1 5.3c.5 1.9 .8 4.6 .8 8.2v7.8h-21c-1.6 0-2.9-.3-4.1-.9c-1.2-.7-2.2-1.7-2.9-3.1c-1.3 1.6-3 2.7-5.1 3.4c-1.3 .4-2.8 .6-4.4 .6h-17.6v.7c0 1.2-.7 2.8-2.1 4.8c-1.4 2-3 3.7-4.9 5.2c-2 1.6-3.8 2.5-5.3 2.5c-1.7 0-3.6-.6-5.6-1.5c-1.7-.9-4.5-2.6-8.2-5.2l1.3-1.8c1.8 1.2 3.2 2 4.3 2.4c1.1 .4 2.3 .6 3.5 .6c1.4 0 2.8-.4 4.2-1.1c1.3-.8 3.2-2.2 5.6-4.4c3.3-2.9 4.9-5.2 4.9-6.8c0-.7-.3-1.8-1-3.1c-.7-1.5-1.5-2.7-2.6-3.7l1.7-8c1.3 1.4 2.4 3 3.1 4.8c.8 1.8 1.1 3.9 1.1 6.2v.3h13.6c-.2-1.4-.6-2.5-1.2-3.4c-.3-.5-1-1.4-2.1-2.7l2.4-7.1c1.5 1.7 2.5 3.5 3.1 5.3c.4 1.6 .7 3.9 .8 6.9v1h1c1.6 0 2.8-.1 3.4-.3c.7-.1 1.6-.5 2.7-1.1c-.6-1.2-1.1-2-1.5-2.5c-.5-.7-1.1-1-1.7-1c-.2 0-.4 .1-.6 .3c-.2 .1-.4 .4-.6 .8l-1.3-.2c0-3.6 .6-6.1 1.8-7.7c1.3-1.5 3.2-2.3 5.9-2.3Zm-88.2-4c2.2 0 4.3 .7 6.3 2.1c1.9 1.4 3.2 3 4.1 5l-1.3 1c-1.5-.6-2.8-.9-3.7-1.1c-.9-.2-2.1-.3-3.4-.3c-2.5 0-4.6 .2-6.4 .6c-2.3 .5-3.5 1.2-3.5 2.1c0 1.4 2.8 3.7 8.3 6.8l15.2-4.3l-3.4 8.5c-5.3 1.6-9.7 2.9-13.2 3.8c-3.1 .7-5.6 1.3-7.7 1.6c-1.6 .2-3.1 .3-4.6 .3h-.6v.5c-.2 1.9-.4 3.4-.8 4.6c-.5 1.7-1.4 3-2.6 4c-1.3 1.1-3.1 1.9-5.4 2.5c-2.4 .7-4.8 1-7.3 1c-4.8 0-8.5-.9-11.2-2.6c-2.6-1.8-3.9-4.3-3.9-7.5c0-2.8 .4-5.3 1.3-7.6c.9-2.5 2.7-5.8 5.3-9.8l1.8 1.2c-2 3.4-3.2 5.8-3.8 7.3c-.6 1.5-.9 3.1-.9 4.7c0 2.1 1.1 3.8 3.3 5.1c2.2 1.3 5.2 2 8.8 2c3.6 0 6.6-.7 9-2.1c2.5-1.3 3.7-3 3.7-5c0-1.2-.2-2.4-.6-3.7c-.5-1.2-1.4-3.1-2.8-5.8l2.6-8c1.4 2.5 2.3 4.2 2.6 5.2c.5 1.5 .8 3.4 .9 5.6v.3h1.1c.6 0 1 0 1.3 0c.6-.1 1.2-.2 1.7-.2c-1-1.5-1.6-2.7-2-3.6c-.3-1-.5-2-.5-3.2c0-2.9 1.3-5.5 3.7-7.7c2.5-2.2 5.3-3.3 8.6-3.3Zm-30.7-2.5l7 3.7l-3.6 6.7l-7-3.7Zm-184.4 0l7 3.7l-3.6 6.7l-7-3.7Zm431.9-7.6l1.7 10.6c.7 4 1.2 7.5 1.4 10.4c.2 2.3 .3 4.4 .3 6.5c0 1.8-.2 3.4-.6 4.9c-.4 1.4-1.2 3.4-2.4 5.9l-1.8-.8c.5-2.5 .7-4.6 .7-6.2c0-1.2-.1-2.9-.3-5.3c-.2-2.3-.4-4.7-.7-6.9c-.3-2.4-.8-5.1-1.5-8.3c-.2-1.1-.4-1.8-.4-2.3c0-.6 .4-1.6 1-3.1c.6-1.5 1.4-3.3 2.6-5.4Zm-286.6 0l1.8 10.6c.7 4 1.1 7.5 1.4 10.4c.2 2.3 .3 4.4 .3 6.5c0 1.8-.2 3.4-.7 4.9c-.4 1.4-1.2 3.4-2.4 5.9l-1.8-.8c.5-2.5 .8-4.6 .8-6.2c0-1.2-.2-2.9-.4-5.3c-.2-2.3-.4-4.7-.7-6.9c-.3-2.4-.8-5.1-1.5-8.3c-.2-1.1-.3-1.8-.3-2.3c0-.6 .3-1.6 .9-3.1c.6-1.5 1.5-3.3 2.6-5.4Zm272.8-2.3l1.3 .7c0 .1 0 .4-.1 .9c0 .7 .4 1.3 1.3 1.9c.7 .6 1.9 1.2 3.5 1.9c-.2 1.3-.5 2.5-.8 3.7c-.4 1.2-.7 2.3-1.2 3.3l-1.1-.5l3.3 18.5v8.1h-27.8c-1.3 0-2.3-.3-3-.8c-.9-.7-1.3-1.8-1.3-3.3c0-.9 .1-1.9 .2-2.9c0-1 .2-2 .4-3l1.1-.1c.1 .7 .5 1.2 1 1.5c.6 .3 1.2 .5 2 .5h10.3c-.5-2.9-1.3-5.3-2.4-7c-.9-1.5-2.2-2.7-3.9-3.8l2.1-9.3c2.6 2 4.4 4.4 5.5 7.5c1 2.8 1.5 6.5 1.5 11.1V398h10.7l-3.6-20.2l-1.9-1.3c0-1.2 .2-2.3 .5-3.5c.5-1.6 1.3-3.4 2.4-5.4Zm-286.6 0l1.4 .7c0 .1-.1 .4-.1 .9c0 .7 .4 1.3 1.2 1.9c.8 .6 1.9 1.2 3.5 1.9c-.1 1.3-.4 2.5-.8 3.7c-.3 1.2-.7 2.3-1.1 3.3l-1.1-.5l3.2 18.5v8.1h-20.3c-.5 0-.9 0-1.4 0c-.5 0-1.2 .1-2.1 .2c.7 .4 1.4 .8 2.1 1.2c.7 .5 1 1.2 1 2c0 .8-.1 1.6-.3 2.5c-.1 .4-.4 1.3-.9 2.6c-.8 2.5-1.6 4.2-2.3 5c-.7 .9-1.6 1.4-2.7 1.4c-2.8 0-5.2-1.5-7.2-4.4c-2-2.9-3-6.4-3-10.5h-4.7v.7c0 1.2-.7 2.8-2 4.8c-1.4 2-3.1 3.7-4.9 5.2c-2.1 1.6-3.9 2.5-5.3 2.5c-1.8 0-3.7-.6-5.7-1.5c-1.7-.9-4.4-2.6-8.2-5.2l1.3-1.8c1.8 1.2 3.2 2 4.3 2.4c1.1 .4 2.3 .6 3.6 .6c1.3 0 2.7-.4 4.1-1.1c1.3-.8 3.2-2.2 5.6-4.4c3.3-2.9 4.9-5.2 4.9-6.8c0-.7-.3-1.8-.9-3.1c-.8-1.5-1.6-2.7-2.7-3.7l1.7-8c1.4 1.4 2.4 3 3.1 4.8c.8 1.8 1.1 3.9 1.1 6.2v.3h.6c1.1 0 2.2-.1 3.3-.3c1.3-.3 2.1-.5 2.6-.6c2.2-5.9 4.2-10.3 5.9-12.9c1.5-2.4 2.8-3.5 4.1-3.5c1 0 1.9 1 2.6 3c.6 1.7 1 3.4 1 5c0 2.3-.5 4.3-1.4 5.9c-1 1.8-2.5 3.1-4.5 4c1.5-.3 2.8-.4 4-.5c1.2-.1 2.3-.1 3.3-.1h16.8l-3.6-20.2l-2-1.3c0-1.2 .2-2.3 .6-3.5c.4-1.6 1.2-3.4 2.3-5.4Zm266.5-4.4l6.9 3.7l-3.6 6.7l-6.9-3.6Z" class="g1_80"/>
<path fill-rule="evenodd" d="M966.3 370.4H972c3 4.3 5.3 8.8 7 13.6c1.7 4.8 2.5 9.6 2.5 14.6c0 4.1-.7 8.6-2 13.3c-1.4 5.4-3.9 10.6-7.3 15.8h-5.8c1.6-3.5 2.8-6.3 3.5-8.2c.7-1.8 1.3-4 1.9-6.5c.5-2.4 1-4.8 1.2-7c.3-2.2 .5-4.5 .5-6.8c0-4.7-.5-9.2-1.6-13.4c-1-4.3-2.8-9.4-5.6-15.4Z" class="g0_80"/>
<path d="M966.3 370.4H972c3 4.3 5.3 8.8 7 13.6c1.7 4.8 2.5 9.6 2.5 14.6c0 4.1-.7 8.6-2 13.3c-1.4 5.4-3.9 10.6-7.3 15.8h-5.8c1.6-3.5 2.8-6.3 3.5-8.2c.7-1.8 1.3-4 1.9-6.5c.5-2.4 1-4.8 1.2-7c.3-2.2 .5-4.5 .5-6.8c0-4.7-.5-9.2-1.6-13.4c-1-4.3-2.8-9.4-5.6-15.4Z" class="g1_80"/>
<path fill-rule="evenodd" d="M938 382.4v26.2h4.1c2.2 0 4-.2 5.4-.8c1.5-.6 2.7-1.4 3.7-2.5c1-1.1 1.7-2.5 2.2-4.2c.5-1.7 .8-3.6 .8-5.8c0-1.9-.3-3.6-.7-5.1c-.4-1.6-1.1-3-2-4.1c-1-1.2-2.2-2.1-3.7-2.7c-1.5-.7-3.4-1-5.8-1Zm-5.5-6.1h9.9c3.5 0 6.4 .4 8.8 1.2c2.4 .8 4.4 2 6 3.6c1.7 1.5 2.9 3.5 3.8 5.8c.8 2.3 1.3 5 1.3 8.1c0 3.5-.5 6.5-1.4 9.1c-1 2.5-2.3 4.5-4 6.1c-1.7 1.6-3.8 2.8-6.3 3.5c-2.5 .8-5.4 1.1-8.8 1.1h-9.3c-.6 0-1.2-.2-1.6-.5c-.5-.4-.7-1.1-.7-1.9V378.7c0-.8 .2-1.5 .7-1.9c.4-.3 1-.5 1.6-.5Z" class="g0_80"/>
<path d="M938 382.4v26.2h4.1c2.2 0 4-.2 5.4-.8c1.5-.6 2.7-1.4 3.7-2.5c1-1.1 1.7-2.5 2.2-4.2c.5-1.7 .8-3.6 .8-5.8c0-1.9-.3-3.6-.7-5.1c-.4-1.6-1.1-3-2-4.1c-1-1.2-2.2-2.1-3.7-2.7c-1.5-.7-3.4-1-5.8-1Zm-5.5-6.1h9.9c3.5 0 6.4 .4 8.8 1.2c2.4 .8 4.4 2 6 3.6c1.7 1.5 2.9 3.5 3.8 5.8c.8 2.3 1.3 5 1.3 8.1c0 3.5-.5 6.5-1.4 9.1c-1 2.5-2.3 4.5-4 6.1c-1.7 1.6-3.8 2.8-6.3 3.5c-2.5 .8-5.4 1.1-8.8 1.1h-9.3c-.6 0-1.2-.2-1.6-.5c-.5-.4-.7-1.1-.7-1.9V378.7c0-.8 .2-1.5 .7-1.9c.4-.3 1-.5 1.6-.5Z" class="g1_80"/>
<path fill-rule="evenodd" d="M918.1 370.4h5.7c-2.7 6-4.6 11.1-5.6 15.4c-1 4.2-1.5 8.7-1.5 13.4c0 3.2 .3 6.6 .9 10c.6 3.4 1.4 6.7 2.5 9.7c.7 2.1 1.9 5 3.7 8.8H918c-3-4.6-5.4-9.4-6.9-14.3c-1.6-5-2.4-9.8-2.4-14.4c0-5.7 1-11.2 2.9-16.3c1.7-4.5 3.9-8.5 6.5-12.3Z" class="g0_80"/>
<path d="M918.1 370.4h5.7c-2.7 6-4.6 11.1-5.6 15.4c-1 4.2-1.5 8.7-1.5 13.4c0 3.2 .3 6.6 .9 10c.6 3.4 1.4 6.7 2.5 9.7c.7 2.1 1.9 5 3.7 8.8H918c-3-4.6-5.4-9.4-6.9-14.3c-1.6-5-2.4-9.8-2.4-14.4c0-5.7 1-11.2 2.9-16.3c1.7-4.5 3.9-8.5 6.5-12.3Z" class="g1_80"/>
<path fill-rule="evenodd" d="M877.3 399.1c1 0 1.9 .3 2.6 1.1c.7 .7 1 1.6 1 2.6c0 1-.3 1.9-1.1 2.6c-.7 .7-1.6 1.1-2.6 1.1c-1 0-1.8-.4-2.5-1.1c-.8-.7-1.1-1.6-1.1-2.6c0-1 .3-1.9 1.1-2.6c.7-.8 1.6-1.1 2.6-1.1Zm.5-27.7c2.4 0 4.4 .7 6 2.1c1.7 1.3 2.5 3.1 2.5 5.3c0 1.2-.3 2.3-1 3.3c-.8 1-1.9 1.5-3.2 1.5c-1 0-1.8-.3-2.4-1c-.7-.6-1-1.4-1-2.2c0-1.4 .5-2.4 1.6-3.1c1.1-.7 1.7-1.2 1.7-1.7c0-.6-.3-1.2-1-1.6c-.6-.4-1.5-.6-2.5-.6c-1.3 0-2.4 .3-3.2 1.1c-.8 .7-1.2 1.6-1.2 2.6c0 1 .4 2.2 1.2 3.8c1.3 2.3 2.1 3.7 2.4 4.4c.8 2.1 1.2 4.4 1.2 6.8c0 1.3-.1 2.8-.3 4.4h-1.8c0-.4 0-.7 0-.9l.2-1.5c0-1.1-.7-2.3-2.2-3.6c-2.5-2.3-3.9-3.5-4.1-3.8c-1.5-1.8-2.3-3.8-2.3-6c0-2.7 .9-4.9 2.7-6.6c1.8-1.8 4-2.7 6.7-2.7Z" class="g0_80"/>
<path d="M877.3 399.1c1 0 1.9 .3 2.6 1.1c.7 .7 1 1.6 1 2.6c0 1-.3 1.9-1.1 2.6c-.7 .7-1.6 1.1-2.6 1.1c-1 0-1.8-.4-2.5-1.1c-.8-.7-1.1-1.6-1.1-2.6c0-1 .3-1.9 1.1-2.6c.7-.8 1.6-1.1 2.6-1.1Zm.5-27.7c2.4 0 4.4 .7 6 2.1c1.7 1.3 2.5 3.1 2.5 5.3c0 1.2-.3 2.3-1 3.3c-.8 1-1.9 1.5-3.2 1.5c-1 0-1.8-.3-2.4-1c-.7-.6-1-1.4-1-2.2c0-1.4 .5-2.4 1.6-3.1c1.1-.7 1.7-1.2 1.7-1.7c0-.6-.3-1.2-1-1.6c-.6-.4-1.5-.6-2.5-.6c-1.3 0-2.4 .3-3.2 1.1c-.8 .7-1.2 1.6-1.2 2.6c0 1 .4 2.2 1.2 3.8c1.3 2.3 2.1 3.7 2.4 4.4c.8 2.1 1.2 4.4 1.2 6.8c0 1.3-.1 2.8-.3 4.4h-1.8c0-.4 0-.7 0-.9l.2-1.5c0-1.1-.7-2.3-2.2-3.6c-2.5-2.3-3.9-3.5-4.1-3.8c-1.5-1.8-2.3-3.8-2.3-6c0-2.7 .9-4.9 2.7-6.6c1.8-1.8 4-2.7 6.7-2.7Z" class="g1_80"/>
<image clip-path="url(#c1_80)" preserveAspectRatio="none" x="1344" y="457" width="108" height="72" href="img/2.jpg"/>
<image clip-path="url(#c2_80)" preserveAspectRatio="none" x="1347" y="550" width="102" height="71" href="img/3.jpg"/>
<image clip-path="url(#c3_80)" preserveAspectRatio="none" x="1347" y="642" width="102" height="74" href="img/4.jpg"/>
<image clip-path="url(#c4_80)" preserveAspectRatio="none" x="1353" y="745" width="96" height="80" href="img/5.jpg"/>
<image clip-path="url(#c5_80)" preserveAspectRatio="none" x="8" y="438" width="758" height="362" href="img/6.jpg"/>
</svg>