<svg viewBox="0 0 1466 825" version="1.1" xmlns="http://www.w3.org/2000/svg">
<defs>
<clipPath id="c0_103"><path d="M-.2 825.3V-.2H1467V825.3Z"/></clipPath>
<clipPath id="c1_103"><path d="M1343.9 529.1V456.4H1452v72.7Z"/></clipPath>
<clipPath id="c2_103"><path d="M1346.3 621.3V549.7h102.9v71.6Z"/></clipPath>
<clipPath id="c3_103"><path d="M1346.4 716.6V641.9h103v74.7Z"/></clipPath>
<clipPath id="c4_103"><path d="M1353 825V744.6h96.2V825Z"/></clipPath>
<clipPath id="c5_103"><path d="M18.6 642.4V472.1H574.9V642.4Z"/></clipPath>
<style>
.g0_103{fill:#F00;}
.g1_103{fill:none;stroke:#000;stroke-width:1.466;stroke-linejoin:round;}
.g2_103{fill:#606;}
</style>
</defs>
<image clip-path="url(#c0_103)" preserveAspectRatio="none" x="0" y="-7" width="1467" height="840" href="img/1.jpg"/>
<path fill-rule="evenodd" d="M1208 348.2l3.8 2.4l-2.9 3.3l-3.2-2l-2.3 2.5l-3.8-2l2.8-3.6l3.3 2.1Zm238.2-28.5c-.8 0-1.4 .9-2 2.7c1.1 .4 1.8 .7 2.4 .9c1.6 .6 2.5 .9 2.7 .9c.4 0 .7-.2 .7-.5c0-.4-.5-1.2-1.3-2.2c-1-1.2-1.8-1.8-2.5-1.8Zm-147.5-7.3c-.7 .2-1.2 .5-1.5 .7c-1.1 .5-2 1.1-2.6 1.6c-.5 .4-.9 .7-1.2 1.1c-.4 .4-.6 .7-.6 1c0 .2 .3 .5 1 .6c.7 .2 1.4 .3 2.1 .3c.4 0 .9-.2 1.4-.4c.4-.3 1.1-.7 2-1.4Zm-64-14.5l5.5 3l-3.1 5.8l-4.4-2.2l-2.5 4.8l-5.4-3l3.3-6.1l4.2 2.4Zm185.2-1.3c1.1 1.6 1.9 3.2 2.4 4.7c.5 1.8 .8 4.1 .8 6.9v5.9c0 4.1 .3 7 .8 8.6c.5 1.3 1.2 2 2.1 2h8c1.8 0 3.2-.3 4.3-.7c1.3-.6 2.2-1.5 2.8-2.9c1.1-2.5 2.5-4.6 4.3-6.2c1.6-1.5 2.9-2.2 4-2.2c1 0 2.3 1.5 3.8 4.6c1.5 3.2 2.3 6.2 2.3 8.9v6.5c-2.1 0-4.5-.4-7.3-1.2c-2.5-.7-4.7-1.5-6.6-2.5c-1.1 1.7-2.6 2.8-4.3 3.4c-.8 .2-1.9 .4-3.3 .4h-8c-2.3 0-4-1-5-2.9c-1.2-2.1-1.8-5.6-1.8-10.6v-8.5c0-2-.2-3.5-.7-4.5c-.3-.5-.9-1.3-1.8-2.3Zm-26.7 0l1.8 10.5c.7 4 1.1 7.5 1.4 10.5c.2 2.2 .3 4.4 .3 6.5c0 1.8-.3 3.4-.7 4.8c-.4 1.5-1.2 3.5-2.4 5.9l-1.8-.7c.5-2.5 .8-4.6 .8-6.2c0-1.2-.2-3-.4-5.3c-.2-2.4-.4-4.7-.7-7c-.3-2.3-.8-5-1.5-8.2c-.2-1.1-.3-1.9-.3-2.3c0-.6 .3-1.7 .9-3.1c.6-1.5 1.5-3.3 2.6-5.4Zm-130.7 0l1.8 10.5c.6 4 1.1 7.5 1.3 10.5c.2 2.2 .3 4.4 .3 6.5c0 1.8-.2 3.4-.6 4.8c-.4 1.5-1.2 3.5-2.4 5.9l-1.8-.7c.5-2.5 .7-4.6 .7-6.2c0-1.2-.1-3-.3-5.3c-.2-2.4-.4-4.7-.7-7c-.3-2.3-.8-5-1.5-8.2c-.2-1.1-.3-1.9-.3-2.3c0-.6 .3-1.7 .9-3.1c.6-1.5 1.5-3.3 2.6-5.4Zm116.9-2.4l1.4 .7c0 .2-.1 .5-.1 1c0 .7 .4 1.3 1.2 1.9c.8 .6 1.9 1.2 3.5 1.9c-.1 1.2-.4 2.5-.8 3.7c-.3 1.2-.7 2.3-1.1 3.2l-1.1-.4l3.2 18.5v8.1h-50.3c-2.4 0-4-1-5.1-2.9c-1.1-2.1-1.7-5.6-1.7-10.6v-8.5c0-2-.3-3.5-.8-4.5c-.3-.5-.9-1.3-1.8-2.3l3.2-7.4c1.2 1.6 2 3.2 2.4 4.7c.6 1.8 .8 4.1 .8 6.9v5.9c0 4.1 .3 7 .9 8.6c.4 1.3 1.1 2 2.1 2h23.2c-2.4-2.5-4.6-4.3-6.6-5.4c-1.8-1-3.6-1.5-5.3-1.5c-.6 0-1 .1-1.5 .1c-.4 .1-1 .2-1.8 .4c1.1-2.6 2.3-4.4 3.6-5.6c1.4-1.2 2.9-1.8 4.6-1.8c1.3 0 2.6 .3 3.8 1c1.2 .6 2.6 1.6 4.1 3.1c1.2 1.1 2.9 2.8 5 5.2c1.5 1.6 2.7 2.7 3.5 3.2c.7 .5 1.9 .9 3.5 1.3h10.7l-3.6-20.3l-2-1.2c0-1.2 .2-2.4 .6-3.6c.4-1.5 1.2-3.3 2.3-5.4Zm-60.5 0l1.4 .7c0 .2-.1 .5-.1 1c0 .7 .4 1.3 1.2 1.9c.8 .6 1.9 1.2 3.5 1.9c-.1 1.2-.4 2.5-.8 3.7c-.3 1.2-.7 2.3-1.1 3.2l-1.1-.4l3.2 18.5v8.1H1307c-.7 0-1.4-.2-2-.5c-1.1-.6-2.1-1.6-2.9-3.1c-1.1-2.1-1.8-5-2.1-8.7c-1.4 1.7-2.4 2.9-3.2 3.6c-1.1 1-2 1.5-2.7 1.5c-.4 0-.9-.1-1.4-.2l-3.7-.7c-1.5-.3-2.5-.6-2.8-.7c-.4-.1-.6-.4-.6-.7c0-.6 .7-2.3 2.1-5.1c1.4-2.9 2.4-4.6 3-5.3c.5-.5 1.4-1.2 2.6-2.1c.8-.5 1.9-1.2 3.3-2l1.5-.9c0-.3-.1-.6-.1-.9c0-.3 0-.5 0-.8c0-.7 .1-1.7 .5-2.8c.3-1.2 1-2.6 1.9-4.3l2.8 18.6c.5 2.9 1.1 4.9 1.8 5.9c.5 .7 1.1 1.1 2 1.1h14.6l-3.6-20.3l-2-1.2c0-1.2 .2-2.4 .6-3.6c.4-1.5 1.2-3.3 2.3-5.4Zm-70.2 0l1.4 .7c0 .2-.1 .5-.1 1c0 .7 .4 1.3 1.2 1.9c.7 .6 1.9 1.2 3.5 1.9c-.2 1.2-.4 2.5-.8 3.7c-.3 1.2-.7 2.3-1.2 3.2l-1-.4l3.2 18.5v8.1h-33.8c-.9 0-1.6 0-1.9 0c-.4 .1-.6 .2-.6 .4c.6 .4 1.1 .6 1.6 .7c.5 .1 .8 .3 1 .5c.2 .2 .2 .6 .2 1c0 1.4-.4 3.1-1.2 5.1c-.8 1.9-1.6 3.2-2.3 3.6c-.8 .6-3 1.4-6.6 2.2c-3.6 .8-6.7 1.2-9.4 1.2c-3.7 0-6.7-.8-9-2.4c-2.3-1.5-3.5-3.5-3.5-6c0-2.5 .5-4.8 1.5-7c1.3-2.6 3.5-6 6.9-10.1l1.8 1.3c-2.1 2.5-3.6 4.5-4.4 6.1c-.8 1.6-1.2 3.2-1.2 4.7c0 2.1 .9 3.7 2.6 4.7c1.8 1.1 4.5 1.6 8.2 1.6c1.9 0 4.6-.4 7.9-1.1c3.4-.7 5.1-1.3 5.1-1.8c0-.2-.7-.4-1.9-.6c-1.3-.2-2.8-.3-4.3-.3c-2.3 0-3.4-.5-3.4-1.5c0-.5 .3-1.3 .8-2.5c.4-.8 .8-1.6 1.2-2.4c.7-1.7 2.1-3 4.2-4c2.1-1 4.2-1.5 6.5-1.5h16.8c-.2-1.4-.6-2.5-1.2-3.5c-.3-.5-1-1.4-2.1-2.6l2.4-7.1c1.5 1.6 2.5 3.4 3.1 5.3c.4 1.6 .7 3.9 .8 6.9v1h10.6l-3.6-20.3l-1.9-1.2c0-1.2 .2-2.4 .6-3.6c.4-1.5 1.2-3.3 2.3-5.4Zm50-6l5.3 2.8l-3.3 5.5l-4.2-2.4l-2.4 4.7l-5.6-3l3.1-5.2l4.5 2.2Z" class="g0_103"/>
<path d="M1208 348.2l3.8 2.4l-2.9 3.3l-3.2-2l-2.3 2.5l-3.8-2l2.8-3.6l3.3 2.1Zm238.2-28.5c-.8 0-1.4 .9-2 2.7c1.1 .4 1.8 .7 2.4 .9c1.6 .6 2.5 .9 2.7 .9c.4 0 .7-.2 .7-.5c0-.4-.5-1.2-1.3-2.2c-1-1.2-1.8-1.8-2.5-1.8Zm-147.5-7.3c-.7 .2-1.2 .5-1.5 .7c-1.1 .5-2 1.1-2.6 1.6c-.5 .4-.9 .7-1.2 1.1c-.4 .4-.6 .7-.6 1c0 .2 .3 .5 1 .6c.7 .2 1.4 .3 2.1 .3c.4 0 .9-.2 1.4-.4c.4-.3 1.1-.7 2-1.4Zm-64-14.5l5.5 3l-3.1 5.8l-4.4-2.2l-2.5 4.8l-5.4-3l3.3-6.1l4.2 2.4Zm185.2-1.3c1.1 1.6 1.9 3.2 2.4 4.7c.5 1.8 .8 4.1 .8 6.9v5.9c0 4.1 .3 7 .8 8.6c.5 1.3 1.2 2 2.1 2h8c1.8 0 3.2-.3 4.3-.7c1.3-.6 2.2-1.5 2.8-2.9c1.1-2.5 2.5-4.6 4.3-6.2c1.6-1.5 2.9-2.2 4-2.2c1 0 2.3 1.5 3.8 4.6c1.5 3.2 2.3 6.2 2.3 8.9v6.5c-2.1 0-4.5-.4-7.3-1.2c-2.5-.7-4.7-1.5-6.6-2.5c-1.1 1.7-2.6 2.8-4.3 3.4c-.8 .2-1.9 .4-3.3 .4h-8c-2.3 0-4-1-5-2.9c-1.2-2.1-1.8-5.6-1.8-10.6v-8.5c0-2-.2-3.5-.7-4.5c-.3-.5-.9-1.3-1.8-2.3Zm-26.7 0l1.8 10.5c.7 4 1.1 7.5 1.4 10.5c.2 2.2 .3 4.4 .3 6.5c0 1.8-.3 3.4-.7 4.8c-.4 1.5-1.2 3.5-2.4 5.9l-1.8-.7c.5-2.5 .8-4.6 .8-6.2c0-1.2-.2-3-.4-5.3c-.2-2.4-.4-4.7-.7-7c-.3-2.3-.8-5-1.5-8.2c-.2-1.1-.3-1.9-.3-2.3c0-.6 .3-1.7 .9-3.1c.6-1.5 1.5-3.3 2.6-5.4Zm-130.7 0l1.8 10.5c.6 4 1.1 7.5 1.3 10.5c.2 2.2 .3 4.4 .3 6.5c0 1.8-.2 3.4-.6 4.8c-.4 1.5-1.2 3.5-2.4 5.9l-1.8-.7c.5-2.5 .7-4.6 .7-6.2c0-1.2-.1-3-.3-5.3c-.2-2.4-.4-4.7-.7-7c-.3-2.3-.8-5-1.5-8.2c-.2-1.1-.3-1.9-.3-2.3c0-.6 .3-1.7 .9-3.1c.6-1.5 1.5-3.3 2.6-5.4Zm116.9-2.4l1.4 .7c0 .2-.1 .5-.1 1c0 .7 .4 1.3 1.2 1.9c.8 .6 1.9 1.2 3.5 1.9c-.1 1.2-.4 2.5-.8 3.7c-.3 1.2-.7 2.3-1.1 3.2l-1.1-.4l3.2 18.5v8.1h-50.3c-2.4 0-4-1-5.1-2.9c-1.1-2.1-1.7-5.6-1.7-10.6v-8.5c0-2-.3-3.5-.8-4.5c-.3-.5-.9-1.3-1.8-2.3l3.2-7.4c1.2 1.6 2 3.2 2.4 4.7c.6 1.8 .8 4.1 .8 6.9v5.9c0 4.1 .3 7 .9 8.6c.4 1.3 1.1 2 2.1 2h23.2c-2.4-2.5-4.6-4.3-6.6-5.4c-1.8-1-3.6-1.5-5.3-1.5c-.6 0-1 .1-1.5 .1c-.4 .1-1 .2-1.8 .4c1.1-2.6 2.3-4.4 3.6-5.6c1.4-1.2 2.9-1.8 4.6-1.8c1.3 0 2.6 .3 3.8 1c1.2 .6 2.6 1.6 4.1 3.1c1.2 1.1 2.9 2.8 5 5.2c1.5 1.6 2.7 2.7 3.5 3.2c.7 .5 1.9 .9 3.5 1.3h10.7l-3.6-20.3l-2-1.2c0-1.2 .2-2.4 .6-3.6c.4-1.5 1.2-3.3 2.3-5.4Zm-60.5 0l1.4 .7c0 .2-.1 .5-.1 1c0 .7 .4 1.3 1.2 1.9c.8 .6 1.9 1.2 3.5 1.9c-.1 1.2-.4 2.5-.8 3.7c-.3 1.2-.7 2.3-1.1 3.2l-1.1-.4l3.2 18.5v8.1H1307c-.7 0-1.4-.2-2-.5c-1.1-.6-2.1-1.6-2.9-3.1c-1.1-2.1-1.8-5-2.1-8.7c-1.4 1.7-2.4 2.9-3.2 3.6c-1.1 1-2 1.5-2.7 1.5c-.4 0-.9-.1-1.4-.2l-3.7-.7c-1.5-.3-2.5-.6-2.8-.7c-.4-.1-.6-.4-.6-.7c0-.6 .7-2.3 2.1-5.1c1.4-2.9 2.4-4.6 3-5.3c.5-.5 1.4-1.2 2.6-2.1c.8-.5 1.9-1.2 3.3-2l1.5-.9c0-.3-.1-.6-.1-.9c0-.3 0-.5 0-.8c0-.7 .1-1.7 .5-2.8c.3-1.2 1-2.6 1.9-4.3l2.8 18.6c.5 2.9 1.1 4.9 1.8 5.9c.5 .7 1.1 1.1 2 1.1h14.6l-3.6-20.3l-2-1.2c0-1.2 .2-2.4 .6-3.6c.4-1.5 1.2-3.3 2.3-5.4Zm-70.2 0l1.4 .7c0 .2-.1 .5-.1 1c0 .7 .4 1.3 1.2 1.9c.7 .6 1.9 1.2 3.5 1.9c-.2 1.2-.4 2.5-.8 3.7c-.3 1.2-.7 2.3-1.2 3.2l-1-.4l3.2 18.5v8.1h-33.8c-.9 0-1.6 0-1.9 0c-.4 .1-.6 .2-.6 .4c.6 .4 1.1 .6 1.6 .7c.5 .1 .8 .3 1 .5c.2 .2 .2 .6 .2 1c0 1.4-.4 3.1-1.2 5.1c-.8 1.9-1.6 3.2-2.3 3.6c-.8 .6-3 1.4-6.6 2.2c-3.6 .8-6.7 1.2-9.4 1.2c-3.7 0-6.7-.8-9-2.4c-2.3-1.5-3.5-3.5-3.5-6c0-2.5 .5-4.8 1.5-7c1.3-2.6 3.5-6 6.9-10.1l1.8 1.3c-2.1 2.5-3.6 4.5-4.4 6.1c-.8 1.6-1.2 3.2-1.2 4.7c0 2.1 .9 3.7 2.6 4.7c1.8 1.1 4.5 1.6 8.2 1.6c1.9 0 4.6-.4 7.9-1.1c3.4-.7 5.1-1.3 5.1-1.8c0-.2-.7-.4-1.9-.6c-1.3-.2-2.8-.3-4.3-.3c-2.3 0-3.4-.5-3.4-1.5c0-.5 .3-1.3 .8-2.5c.4-.8 .8-1.6 1.2-2.4c.7-1.7 2.1-3 4.2-4c2.1-1 4.2-1.5 6.5-1.5h16.8c-.2-1.4-.6-2.5-1.2-3.5c-.3-.5-1-1.4-2.1-2.6l2.4-7.1c1.5 1.6 2.5 3.4 3.1 5.3c.4 1.6 .7 3.9 .8 6.9v1h10.6l-3.6-20.3l-1.9-1.2c0-1.2 .2-2.4 .6-3.6c.4-1.5 1.2-3.3 2.3-5.4Zm50-6l5.3 2.8l-3.3 5.5l-4.2-2.4l-2.4 4.7l-5.6-3l3.1-5.2l4.5 2.2Z" class="g1_103"/>
<path fill-rule="evenodd" d="M1161.5 324.8c-.9 1-1.6 1.7-2 2.1c-.5 .4-1.3 1-2.5 1.8c1.5-.1 2.6-.3 3.2-.5c.7-.2 1.6-.6 2.7-1.2Zm-139.8-13.2l1.6 1.1c-.4 .8-.8 1.5-1 2.2c-.3 .6-.6 1.2-.7 1.7c-.3 .9-.5 1.8-.5 2.7c0 1.1 .4 2.1 1.1 3c.8 .9 1.7 1.5 2.9 1.8c.7 .2 1.6 .3 2.7 .4c1.1 .1 2.3 .2 3.5 .2h21.6c-.6-1.6-1.1-2.7-1.4-3.3c-.4-.7-1.1-1.7-2-2.8l2.7-7c1.4 2.2 2.4 4.1 2.9 5.9c.4 1.6 .6 3.9 .6 6.8v8.5h-25c-1.2 0-2.2 0-3-.1c-.8 0-1.4 0-1.8 0c-.8-.1-1.6-.3-2.6-.7c-1.6-.5-3-1.7-4-3.4c-1-1.7-1.6-3.6-1.6-5.7c0-.8 .1-1.7 .2-2.6c.1-.8 .3-1.8 .7-2.8c.4-1.2 .8-2.2 1.4-3.2c.5-.9 1.1-1.8 1.7-2.7Zm47.9-7c2.6 1.9 4.4 4.4 5.5 7.4c1 2.9 1.5 6.6 1.5 11.2v1.5h19c-2.4-2.5-4.6-4.3-6.6-5.4c-1.8-1-3.6-1.5-5.3-1.5c-.6 0-1 .1-1.5 .1c-.4 .1-1 .2-1.8 .4c1.1-2.6 2.3-4.4 3.6-5.6c1.4-1.2 2.9-1.8 4.6-1.8c1.3 0 2.6 .3 3.8 1c1.2 .6 2.6 1.6 4.1 3.1c1.2 1.1 2.9 2.8 5 5.2c1.5 1.6 2.7 2.7 3.4 3.2c.8 .5 2 .9 3.6 1.3H1122c-.2-1.4-.6-2.5-1.2-3.5c-.3-.5-1-1.4-2.1-2.6l2.4-7.1c1.5 1.6 2.5 3.4 3.1 5.3c.5 1.8 .8 4.6 .8 8.2v7.8h-61.9c-1.4 0-2.4-.3-3.1-.9c-.8-.6-1.2-1.7-1.2-3.3c0-.8 0-1.8 .1-2.8c.1-1 .2-2 .4-3.1h1.1c.2 .7 .6 1.2 1.1 1.5c.5 .3 1.2 .5 2 .5h10.2c-.4-2.9-1.2-5.3-2.4-7c-.9-1.5-2.2-2.7-3.9-3.8Zm-29.9-3l5.4 3.1l-3.3 6l-4.2-2.3l-2.4 4.7l-5.5-3.1l3.1-5.8l4.4 2.3Zm79.3-3.7l5.5 3l-3.1 5.8l-4.4-2.2l-2.5 4.8l-5.4-3l3.3-6.1l4.2 2.4Zm44.8-1.5l1.3 .4c0 1.3 .3 2.1 .9 2.5c.4 .4 2 1 4.7 1.8c0 1.4-.1 2.8-.4 4.2c-.1 .6-.4 1.7-.8 3.2l-2.2-.8c0 2.3-.3 4.7-.8 7c-.6 2.3-1.5 4.6-2.7 6.9c1.1 2 1.7 3.1 1.9 3.5c.5 .9 .7 1.7 .7 2.4v1c0 .4-.1 2.5-.4 6c-2.3 1.1-4.3 1.8-6.1 2.1c-1.8 .3-4.4 .5-8 .5v-8.8c2-1.1 3.5-1.9 4.4-2.6c.8-.7 1.9-2 3.3-3.7c-2.2-2.8-3.9-4.9-4.9-6c-.8-1-1.9-2.1-3.2-3.4c-.4 .7-.6 1.1-.7 1.3c-.2 .3-.3 .4-.5 .4c-.4 0-1.3-.4-2.6-1.3c-1.2-.7-2.1-1.3-2.8-1.9c-.6-.6-1.1-1.7-1.4-3.3c-.3-1.5-.5-3.6-.5-6c0-1.1 .1-1.8 .2-2.2c.1-.4 .4-.7 .8-.7c.8 0 2.4 1.2 4.7 3.4c2.1 1.9 3.9 3.8 5.4 5.7c1.3 1.4 2.4 2.7 3.5 4.1c.9 1.2 2.3 3.3 4.2 6.3c.9-1.7 1.5-3.9 1.9-6.5c.2-1.6 .3-3.5 .3-5.7c-.7-.3-1.2-.7-1.5-1c-.2-.3-.4-.8-.4-1.3c0-1.2 .2-2.4 .4-3.6c.3-1.3 .7-2.6 1.3-3.9Zm-130-1.7l5.5 2.9l-3 6.2l-5.6-3Z" class="g2_103"/>
<path d="M1161.5 324.8c-.9 1-1.6 1.7-2 2.1c-.5 .4-1.3 1-2.5 1.8c1.5-.1 2.6-.3 3.2-.5c.7-.2 1.6-.6 2.7-1.2Zm-139.8-13.2l1.6 1.1c-.4 .8-.8 1.5-1 2.2c-.3 .6-.6 1.2-.7 1.7c-.3 .9-.5 1.8-.5 2.7c0 1.1 .4 2.1 1.1 3c.8 .9 1.7 1.5 2.9 1.8c.7 .2 1.6 .3 2.7 .4c1.1 .1 2.3 .2 3.5 .2h21.6c-.6-1.6-1.1-2.7-1.4-3.3c-.4-.7-1.1-1.7-2-2.8l2.7-7c1.4 2.2 2.4 4.1 2.9 5.9c.4 1.6 .6 3.9 .6 6.8v8.5h-25c-1.2 0-2.2 0-3-.1c-.8 0-1.4 0-1.8 0c-.8-.1-1.6-.3-2.6-.7c-1.6-.5-3-1.7-4-3.4c-1-1.7-1.6-3.6-1.6-5.7c0-.8 .1-1.7 .2-2.6c.1-.8 .3-1.8 .7-2.8c.4-1.2 .8-2.2 1.4-3.2c.5-.9 1.1-1.8 1.7-2.7Zm47.9-7c2.6 1.9 4.4 4.4 5.5 7.4c1 2.9 1.5 6.6 1.5 11.2v1.5h19c-2.4-2.5-4.6-4.3-6.6-5.4c-1.8-1-3.6-1.5-5.3-1.5c-.6 0-1 .1-1.5 .1c-.4 .1-1 .2-1.8 .4c1.1-2.6 2.3-4.4 3.6-5.6c1.4-1.2 2.9-1.8 4.6-1.8c1.3 0 2.6 .3 3.8 1c1.2 .6 2.6 1.6 4.1 3.1c1.2 1.1 2.9 2.8 5 5.2c1.5 1.6 2.7 2.7 3.4 3.2c.8 .5 2 .9 3.6 1.3H1122c-.2-1.4-.6-2.5-1.2-3.5c-.3-.5-1-1.4-2.1-2.6l2.4-7.1c1.5 1.6 2.5 3.4 3.1 5.3c.5 1.8 .8 4.6 .8 8.2v7.8h-61.9c-1.4 0-2.4-.3-3.1-.9c-.8-.6-1.2-1.7-1.2-3.3c0-.8 0-1.8 .1-2.8c.1-1 .2-2 .4-3.1h1.1c.2 .7 .6 1.2 1.1 1.5c.5 .3 1.2 .5 2 .5h10.2c-.4-2.9-1.2-5.3-2.4-7c-.9-1.5-2.2-2.7-3.9-3.8Zm-29.9-3l5.4 3.1l-3.3 6l-4.2-2.3l-2.4 4.7l-5.5-3.1l3.1-5.8l4.4 2.3Zm79.3-3.7l5.5 3l-3.1 5.8l-4.4-2.2l-2.5 4.8l-5.4-3l3.3-6.1l4.2 2.4Zm44.8-1.5l1.3 .4c0 1.3 .3 2.1 .9 2.5c.4 .4 2 1 4.7 1.8c0 1.4-.1 2.8-.4 4.2c-.1 .6-.4 1.7-.8 3.2l-2.2-.8c0 2.3-.3 4.7-.8 7c-.6 2.3-1.5 4.6-2.7 6.9c1.1 2 1.7 3.1 1.9 3.5c.5 .9 .7 1.7 .7 2.4v1c0 .4-.1 2.5-.4 6c-2.3 1.1-4.3 1.8-6.1 2.1c-1.8 .3-4.4 .5-8 .5v-8.8c2-1.1 3.5-1.9 4.4-2.6c.8-.7 1.9-2 3.3-3.7c-2.2-2.8-3.9-4.9-4.9-6c-.8-1-1.9-2.1-3.2-3.4c-.4 .7-.6 1.1-.7 1.3c-.2 .3-.3 .4-.5 .4c-.4 0-1.3-.4-2.6-1.3c-1.2-.7-2.1-1.3-2.8-1.9c-.6-.6-1.1-1.7-1.4-3.3c-.3-1.5-.5-3.6-.5-6c0-1.1 .1-1.8 .2-2.2c.1-.4 .4-.7 .8-.7c.8 0 2.4 1.2 4.7 3.4c2.1 1.9 3.9 3.8 5.4 5.7c1.3 1.4 2.4 2.7 3.5 4.1c.9 1.2 2.3 3.3 4.2 6.3c.9-1.7 1.5-3.9 1.9-6.5c.2-1.6 .3-3.5 .3-5.7c-.7-.3-1.2-.7-1.5-1c-.2-.3-.4-.8-.4-1.3c0-1.2 .2-2.4 .4-3.6c.3-1.3 .7-2.6 1.3-3.9Zm-130-1.7l5.5 2.9l-3 6.2l-5.6-3Z" class="g1_103"/>
<path fill-rule="evenodd" d="M988.5 335.3l7 3.7l-3.6 6.6l-7-3.6ZM828 335l5.6 3l-3.1 5.8l-4.4-2.2l-2.5 4.8l-5.5-3l3.3-6.1l4.3 2.4Zm134.5-1.7c.4 1.7 1.3 3.3 2.8 4.5c1.5 1.3 3.1 2 4.9 2c.6 0 .9-.2 .9-.7c0-1.1-.7-2.1-1.9-3.1c-1.6-1.2-3.8-2.1-6.7-2.7Zm-98.2-13.6c-.8 0-1.4 .9-2 2.7c1.1 .4 1.8 .7 2.4 .9c1.6 .6 2.5 .9 2.7 .9c.4 0 .7-.2 .7-.5c0-.4-.5-1.2-1.3-2.2c-1-1.2-1.8-1.8-2.5-1.8Zm103.8-3.6c-.5 0-1.1 .6-1.8 1.7c-.7 1.1-1.5 2.9-2.5 5.3c2.3-.8 3.8-1.5 4.7-2.1c.9-.5 1.3-1.2 1.3-1.8c0-.6-.2-1.2-.5-2c-.4-.7-.8-1.1-1.2-1.1Zm-162.8-3.7c-.6 .2-1.1 .5-1.5 .7c-1.1 .5-1.9 1.1-2.6 1.6c-.5 .4-.9 .7-1.2 1.1c-.4 .4-.6 .7-.6 1c0 .2 .4 .5 1.1 .6c.7 .2 1.4 .3 2 .3c.5 0 .9-.2 1.4-.4c.5-.3 1.1-.7 2-1.4Zm138.8-15.8c1.2 1.6 2 3.2 2.5 4.7c.5 1.8 .7 4.1 .7 6.9v5.9c0 4.1 .3 7 .9 8.6c.4 1.3 1.1 2 2.1 2H955c1.1 0 2.2-.1 3.3-.3c1.3-.3 2.1-.5 2.6-.6c2.2-6 4.2-10.3 5.9-13c1.5-2.3 2.8-3.5 4.1-3.5c1 0 1.9 1 2.6 3c.6 1.7 1 3.4 1 5.1c0 2.3-.5 4.3-1.4 5.9c-1 1.8-2.5 3.1-4.5 3.9c1.5-.2 2.8-.4 4-.4c1.2-.1 2.3-.1 3.3-.1h19.6c-.2-1.4-.6-2.5-1.2-3.5c-.3-.5-1-1.4-2.1-2.6l2.4-7.1c1.5 1.6 2.5 3.4 3.1 5.3c.5 1.8 .8 4.6 .8 8.2v7.8H975.9c-.5 0-.9 0-1.4 0c-.5 0-1.2 0-2.1 .1c.7 .4 1.4 .8 2.1 1.2c.7 .6 1 1.2 1 2c0 .8-.1 1.6-.3 2.5c-.1 .5-.4 1.4-.9 2.7c-.8 2.5-1.6 4.1-2.3 5c-.7 .9-1.6 1.3-2.7 1.3c-2.8 0-5.2-1.4-7.2-4.3c-2-2.9-3-6.4-3-10.5h-8.8c-2.4 0-4-1-5.1-2.9c-1.1-2.1-1.7-5.6-1.7-10.6v-8.5c0-2-.3-3.5-.8-4.5c-.3-.5-.9-1.3-1.8-2.3Zm-26.6 0l1.7 10.5c.7 4 1.2 7.5 1.4 10.5c.2 2.2 .3 4.4 .3 6.5c0 1.8-.2 3.4-.6 4.8c-.4 1.5-1.2 3.5-2.4 5.9l-1.8-.7c.5-2.5 .7-4.6 .7-6.2c0-1.2-.1-3-.3-5.3c-.2-2.4-.4-4.7-.7-7c-.3-2.3-.8-5-1.5-8.2c-.2-1.1-.4-1.9-.4-2.3c0-.6 .4-1.7 1-3.1c.6-1.5 1.4-3.3 2.6-5.4Zm-75.4-2.4l1.3 .7c0 .2 0 .5-.1 1c0 .7 .4 1.3 1.3 1.9c.7 .6 1.9 1.2 3.5 1.9c-.2 1.2-.5 2.5-.8 3.7c-.4 1.2-.7 2.3-1.2 3.2l-1.1-.4l3.3 18.5h3.8c1.8 0 3.2-.3 4.3-.7c1.3-.6 2.2-1.5 2.8-2.9c1.1-2.5 2.5-4.6 4.3-6.2c1.6-1.5 2.9-2.2 4-2.2c1 0 2.3 1.5 3.8 4.6c1.1 2.4 1.9 4.7 2.2 6.8v.6h1.1c1.7 0 2.8-.1 3.5-.3c.7-.2 1.6-.5 2.7-1.1c-.6-1.2-1.1-2.1-1.5-2.6c-.6-.6-1.1-.9-1.7-.9c-.2 0-.4 .1-.6 .2c-.2 .2-.4 .5-.7 .9l-1.3-.2c0-3.6 .6-6.2 1.9-7.7c1.2-1.5 3.2-2.3 5.9-2.3c2.7 0 4.9 .5 6.5 1.6c1.6 1.1 2.3 2.6 2.3 4.5c0 1-.2 1.9-.6 2.9c-.4 .9-1.2 2.2-2.3 3.7c.3 .4 .6 .7 1.1 .9c.5 .3 .9 .4 1.4 .4h15.1l-3.6-20.3l-1.9-1.2c0-1.2 .2-2.4 .5-3.6c.5-1.5 1.3-3.3 2.4-5.4l1.3 .7c0 .2 0 .5-.1 1c0 .7 .4 1.3 1.3 1.9c.7 .6 1.9 1.2 3.5 1.9c-.2 1.2-.5 2.5-.8 3.7c-.4 1.2-.7 2.3-1.2 3.2l-1.1-.4l3.3 18.5v8.1H891.2c-1.6 0-3-.3-4.2-1c-1.2-.6-2.1-1.6-2.9-3.1c-1.3 1.6-2.9 2.8-5 3.4c-1.4 .5-2.9 .7-4.5 .7h-3.1v-.2h-.4c-1.5-.2-3.1-.6-4.8-1.1c-2.5-.7-4.7-1.5-6.6-2.5c-1.1 1.7-2.6 2.8-4.3 3.4c-.8 .2-1.9 .4-3.3 .4H813.6c-.7 0-1.4-.2-2-.5c-1.1-.6-2.1-1.6-2.9-3.1c-1-2.1-1.7-5-2.1-8.7c-1.3 1.7-2.4 2.9-3.1 3.6c-1.1 1-2 1.5-2.8 1.5c-.3 0-.8-.1-1.4-.2l-3.6-.7c-1.6-.3-2.5-.6-2.9-.7c-.3-.1-.5-.4-.5-.7c0-.6 .7-2.3 2-5.1c1.4-2.9 2.4-4.6 3-5.3c.5-.5 1.4-1.2 2.7-2.1c.8-.5 1.8-1.2 3.2-2l1.6-.9c-.1-.3-.1-.6-.1-.9c-.1-.3-.1-.5-.1-.8c0-.7 .2-1.7 .5-2.8c.4-1.2 1-2.6 1.9-4.3l2.9 18.6c.4 2.9 1 4.9 1.7 5.9c.5 .7 1.2 1.1 2 1.1h17.5c-.2-1.4-.6-2.5-1.2-3.5c-.3-.5-1-1.4-2.1-2.6l2.4-7.1c1.5 1.6 2.5 3.4 3 5.3c.5 1.6 .8 3.9 .8 6.9l.1 1h10.6l-3.6-20.3l-1.9-1.2c0-1.2 .2-2.4 .5-3.6c.5-1.5 1.3-3.3 2.4-5.4Zm-36.8-6l5.3 2.8l-3.2 5.5l-4.3-2.4l-2.4 4.7l-5.5-3l3.1-5.2l4.4 2.2Z" class="g0_103"/>
<path d="M988.5 335.3l7 3.7l-3.6 6.6l-7-3.6ZM828 335l5.6 3l-3.1 5.8l-4.4-2.2l-2.5 4.8l-5.5-3l3.3-6.1l4.3 2.4Zm134.5-1.7c.4 1.7 1.3 3.3 2.8 4.5c1.5 1.3 3.1 2 4.9 2c.6 0 .9-.2 .9-.7c0-1.1-.7-2.1-1.9-3.1c-1.6-1.2-3.8-2.1-6.7-2.7Zm-98.2-13.6c-.8 0-1.4 .9-2 2.7c1.1 .4 1.8 .7 2.4 .9c1.6 .6 2.5 .9 2.7 .9c.4 0 .7-.2 .7-.5c0-.4-.5-1.2-1.3-2.2c-1-1.2-1.8-1.8-2.5-1.8Zm103.8-3.6c-.5 0-1.1 .6-1.8 1.7c-.7 1.1-1.5 2.9-2.5 5.3c2.3-.8 3.8-1.5 4.7-2.1c.9-.5 1.3-1.2 1.3-1.8c0-.6-.2-1.2-.5-2c-.4-.7-.8-1.1-1.2-1.1Zm-162.8-3.7c-.6 .2-1.1 .5-1.5 .7c-1.1 .5-1.9 1.1-2.6 1.6c-.5 .4-.9 .7-1.2 1.1c-.4 .4-.6 .7-.6 1c0 .2 .4 .5 1.1 .6c.7 .2 1.4 .3 2 .3c.5 0 .9-.2 1.4-.4c.5-.3 1.1-.7 2-1.4Zm138.8-15.8c1.2 1.6 2 3.2 2.5 4.7c.5 1.8 .7 4.1 .7 6.9v5.9c0 4.1 .3 7 .9 8.6c.4 1.3 1.1 2 2.1 2H955c1.1 0 2.2-.1 3.3-.3c1.3-.3 2.1-.5 2.6-.6c2.2-6 4.2-10.3 5.9-13c1.5-2.3 2.8-3.5 4.1-3.5c1 0 1.9 1 2.6 3c.6 1.7 1 3.4 1 5.1c0 2.3-.5 4.3-1.4 5.9c-1 1.8-2.5 3.1-4.5 3.9c1.5-.2 2.8-.4 4-.4c1.2-.1 2.3-.1 3.3-.1h19.6c-.2-1.4-.6-2.5-1.2-3.5c-.3-.5-1-1.4-2.1-2.6l2.4-7.1c1.5 1.6 2.5 3.4 3.1 5.3c.5 1.8 .8 4.6 .8 8.2v7.8H975.9c-.5 0-.9 0-1.4 0c-.5 0-1.2 0-2.1 .1c.7 .4 1.4 .8 2.1 1.2c.7 .6 1 1.2 1 2c0 .8-.1 1.6-.3 2.5c-.1 .5-.4 1.4-.9 2.7c-.8 2.5-1.6 4.1-2.3 5c-.7 .9-1.6 1.3-2.7 1.3c-2.8 0-5.2-1.4-7.2-4.3c-2-2.9-3-6.4-3-10.5h-8.8c-2.4 0-4-1-5.1-2.9c-1.1-2.1-1.7-5.6-1.7-10.6v-8.5c0-2-.3-3.5-.8-4.5c-.3-.5-.9-1.3-1.8-2.3Zm-26.6 0l1.7 10.5c.7 4 1.2 7.5 1.4 10.5c.2 2.2 .3 4.4 .3 6.5c0 1.8-.2 3.4-.6 4.8c-.4 1.5-1.2 3.5-2.4 5.9l-1.8-.7c.5-2.5 .7-4.6 .7-6.2c0-1.2-.1-3-.3-5.3c-.2-2.4-.4-4.7-.7-7c-.3-2.3-.8-5-1.5-8.2c-.2-1.1-.4-1.9-.4-2.3c0-.6 .4-1.7 1-3.1c.6-1.5 1.4-3.3 2.6-5.4Zm-75.4-2.4l1.3 .7c0 .2 0 .5-.1 1c0 .7 .4 1.3 1.3 1.9c.7 .6 1.9 1.2 3.5 1.9c-.2 1.2-.5 2.5-.8 3.7c-.4 1.2-.7 2.3-1.2 3.2l-1.1-.4l3.3 18.5h3.8c1.8 0 3.2-.3 4.3-.7c1.3-.6 2.2-1.5 2.8-2.9c1.1-2.5 2.5-4.6 4.3-6.2c1.6-1.5 2.9-2.2 4-2.2c1 0 2.3 1.5 3.8 4.6c1.1 2.4 1.9 4.7 2.2 6.8v.6h1.1c1.7 0 2.8-.1 3.5-.3c.7-.2 1.6-.5 2.7-1.1c-.6-1.2-1.1-2.1-1.5-2.6c-.6-.6-1.1-.9-1.7-.9c-.2 0-.4 .1-.6 .2c-.2 .2-.4 .5-.7 .9l-1.3-.2c0-3.6 .6-6.2 1.9-7.7c1.2-1.5 3.2-2.3 5.9-2.3c2.7 0 4.9 .5 6.5 1.6c1.6 1.1 2.3 2.6 2.3 4.5c0 1-.2 1.9-.6 2.9c-.4 .9-1.2 2.2-2.3 3.7c.3 .4 .6 .7 1.1 .9c.5 .3 .9 .4 1.4 .4h15.1l-3.6-20.3l-1.9-1.2c0-1.2 .2-2.4 .5-3.6c.5-1.5 1.3-3.3 2.4-5.4l1.3 .7c0 .2 0 .5-.1 1c0 .7 .4 1.3 1.3 1.9c.7 .6 1.9 1.2 3.5 1.9c-.2 1.2-.5 2.5-.8 3.7c-.4 1.2-.7 2.3-1.2 3.2l-1.1-.4l3.3 18.5v8.1H891.2c-1.6 0-3-.3-4.2-1c-1.2-.6-2.1-1.6-2.9-3.1c-1.3 1.6-2.9 2.8-5 3.4c-1.4 .5-2.9 .7-4.5 .7h-3.1v-.2h-.4c-1.5-.2-3.1-.6-4.8-1.1c-2.5-.7-4.7-1.5-6.6-2.5c-1.1 1.7-2.6 2.8-4.3 3.4c-.8 .2-1.9 .4-3.3 .4H813.6c-.7 0-1.4-.2-2-.5c-1.1-.6-2.1-1.6-2.9-3.1c-1-2.1-1.7-5-2.1-8.7c-1.3 1.7-2.4 2.9-3.1 3.6c-1.1 1-2 1.5-2.8 1.5c-.3 0-.8-.1-1.4-.2l-3.6-.7c-1.6-.3-2.5-.6-2.9-.7c-.3-.1-.5-.4-.5-.7c0-.6 .7-2.3 2-5.1c1.4-2.9 2.4-4.6 3-5.3c.5-.5 1.4-1.2 2.7-2.1c.8-.5 1.8-1.2 3.2-2l1.6-.9c-.1-.3-.1-.6-.1-.9c-.1-.3-.1-.5-.1-.8c0-.7 .2-1.7 .5-2.8c.4-1.2 1-2.6 1.9-4.3l2.9 18.6c.4 2.9 1 4.9 1.7 5.9c.5 .7 1.2 1.1 2 1.1h17.5c-.2-1.4-.6-2.5-1.2-3.5c-.3-.5-1-1.4-2.1-2.6l2.4-7.1c1.5 1.6 2.5 3.4 3 5.3c.5 1.6 .8 3.9 .8 6.9l.1 1h10.6l-3.6-20.3l-1.9-1.2c0-1.2 .2-2.4 .5-3.6c.5-1.5 1.3-3.3 2.4-5.4Zm-36.8-6l5.3 2.8l-3.2 5.5l-4.3-2.4l-2.4 4.7l-5.5-3l3.1-5.2l4.4 2.2Z" class="g1_103"/>
<path fill-rule="evenodd" d="M756.4 297.1h5.7c3 4.2 5.3 8.8 7 13.6c1.7 4.7 2.5 9.6 2.5 14.5c0 4.2-.7 8.6-2 13.4c-1.5 5.3-3.9 10.6-7.3 15.8h-5.8c1.6-3.6 2.8-6.3 3.5-8.2c.6-1.9 1.3-4.1 1.8-6.5c.6-2.5 1.1-4.8 1.3-7c.3-2.2 .4-4.5 .4-6.8c0-4.8-.5-9.3-1.5-13.5c-1-4.2-2.9-9.3-5.6-15.3Z" class="g0_103"/>
<path d="M756.4 297.1h5.7c3 4.2 5.3 8.8 7 13.6c1.7 4.7 2.5 9.6 2.5 14.5c0 4.2-.7 8.6-2 13.4c-1.5 5.3-3.9 10.6-7.3 15.8h-5.8c1.6-3.6 2.8-6.3 3.5-8.2c.6-1.9 1.3-4.1 1.8-6.5c.6-2.5 1.1-4.8 1.3-7c.3-2.2 .4-4.5 .4-6.8c0-4.8-.5-9.3-1.5-13.5c-1-4.2-2.9-9.3-5.6-15.3Z" class="g1_103"/>
<path fill-rule="evenodd" d="M735.6 310.3l-5.4 16.4h10.9l-5.4-16.4Zm.1-7.5c1.2 0 2.2 0 2.9 0c.6 0 1.2 .1 1.6 .2c.4 .1 .7 .3 .8 .5c.2 .2 .3 .5 .4 .9l12 34.2c.2 .7 .4 1.3 .4 1.7c.1 .4 0 .7-.2 .9c-.2 .2-.6 .4-1.2 .4c-.5 .1-1.3 .1-2.3 .1c-1 0-1.8 0-2.3-.1c-.6 0-1.1-.1-1.3-.1c-.3-.1-.5-.3-.7-.4c-.1-.2-.2-.4-.3-.6l-2.6-7.8H728.4l-2.4 7.6c-.1 .2-.2 .5-.3 .7c-.1 .1-.3 .3-.6 .4c-.3 .1-.7 .2-1.3 .2c-.5 .1-1.2 .1-2 .1c-.9 0-1.7 0-2.2-.1c-.5-.1-.9-.2-1.1-.4c-.2-.3-.2-.6-.2-1c.1-.4 .2-1 .5-1.7l11.9-34.2c.1-.3 .2-.6 .4-.8c.2-.2 .4-.4 .8-.5c.3-.1 .8-.2 1.4-.2c.6 0 1.4 0 2.4 0Z" class="g0_103"/>
<path d="M735.6 310.3l-5.4 16.4h10.9l-5.4-16.4Zm.1-7.5c1.2 0 2.2 0 2.9 0c.6 0 1.2 .1 1.6 .2c.4 .1 .7 .3 .8 .5c.2 .2 .3 .5 .4 .9l12 34.2c.2 .7 .4 1.3 .4 1.7c.1 .4 0 .7-.2 .9c-.2 .2-.6 .4-1.2 .4c-.5 .1-1.3 .1-2.3 .1c-1 0-1.8 0-2.3-.1c-.6 0-1.1-.1-1.3-.1c-.3-.1-.5-.3-.7-.4c-.1-.2-.2-.4-.3-.6l-2.6-7.8H728.4l-2.4 7.6c-.1 .2-.2 .5-.3 .7c-.1 .1-.3 .3-.6 .4c-.3 .1-.7 .2-1.3 .2c-.5 .1-1.2 .1-2 .1c-.9 0-1.7 0-2.2-.1c-.5-.1-.9-.2-1.1-.4c-.2-.3-.2-.6-.2-1c.1-.4 .2-1 .5-1.7l11.9-34.2c.1-.3 .2-.6 .4-.8c.2-.2 .4-.4 .8-.5c.3-.1 .8-.2 1.4-.2c.6 0 1.4 0 2.4 0Z" class="g1_103"/>
<path fill-rule="evenodd" d="M709.7 297.1h5.7c-2.7 6-4.6 11.1-5.6 15.3c-1 4.2-1.6 8.7-1.6 13.5c0 3.2 .3 6.6 .9 10c.7 3.4 1.5 6.6 2.5 9.7c.7 2 2 5 3.7 8.8h-5.8c-3-4.6-5.3-9.4-6.9-14.3c-1.6-5-2.4-9.8-2.4-14.4c0-5.8 1-11.2 3-16.3c1.7-4.5 3.9-8.6 6.5-12.3Z" class="g0_103"/>
<path d="M709.7 297.1h5.7c-2.7 6-4.6 11.1-5.6 15.3c-1 4.2-1.6 8.7-1.6 13.5c0 3.2 .3 6.6 .9 10c.7 3.4 1.5 6.6 2.5 9.7c.7 2 2 5 3.7 8.8h-5.8c-3-4.6-5.3-9.4-6.9-14.3c-1.6-5-2.4-9.8-2.4-14.4c0-5.8 1-11.2 3-16.3c1.7-4.5 3.9-8.6 6.5-12.3Z" class="g1_103"/>
<path fill-rule="evenodd" d="M669 325.7c1.1 0 1.9 .4 2.6 1.1c.7 .8 1.1 1.7 1.1 2.7c0 1-.4 1.8-1.1 2.6c-.8 .7-1.6 1.1-2.7 1.1c-.9 0-1.8-.4-2.5-1.1c-.7-.8-1.1-1.6-1.1-2.6c0-1.1 .4-1.9 1.1-2.7c.7-.7 1.6-1.1 2.6-1.1Zm.5-27.6c2.4 0 4.4 .7 6.1 2c1.6 1.4 2.5 3.2 2.5 5.4c0 1.2-.4 2.3-1.1 3.2c-.8 1.1-1.8 1.6-3.1 1.6c-1 0-1.8-.3-2.5-1c-.7-.6-1-1.4-1-2.3c0-1.3 .6-2.3 1.7-3c1.1-.7 1.6-1.3 1.6-1.7c0-.7-.3-1.2-1-1.6c-.6-.4-1.4-.7-2.5-.7c-1.2 0-2.3 .4-3.1 1.1c-.9 .8-1.3 1.6-1.3 2.7c0 1 .4 2.2 1.3 3.7c1.3 2.3 2 3.8 2.3 4.5c.8 2.1 1.3 4.3 1.3 6.8c0 1.3-.1 2.8-.3 4.4l-1.9-.1c0-.3 .1-.6 .1-.8l.1-1.5c0-1.2-.7-2.4-2.2-3.7c-2.5-2.2-3.9-3.5-4.1-3.7c-1.5-1.8-2.2-3.8-2.2-6c0-2.7 .9-4.9 2.6-6.7c1.8-1.7 4-2.6 6.7-2.6Z" class="g0_103"/>
<path d="M669 325.7c1.1 0 1.9 .4 2.6 1.1c.7 .8 1.1 1.7 1.1 2.7c0 1-.4 1.8-1.1 2.6c-.8 .7-1.6 1.1-2.7 1.1c-.9 0-1.8-.4-2.5-1.1c-.7-.8-1.1-1.6-1.1-2.6c0-1.1 .4-1.9 1.1-2.7c.7-.7 1.6-1.1 2.6-1.1Zm.5-27.6c2.4 0 4.4 .7 6.1 2c1.6 1.4 2.5 3.2 2.5 5.4c0 1.2-.4 2.3-1.1 3.2c-.8 1.1-1.8 1.6-3.1 1.6c-1 0-1.8-.3-2.5-1c-.7-.6-1-1.4-1-2.3c0-1.3 .6-2.3 1.7-3c1.1-.7 1.6-1.3 1.6-1.7c0-.7-.3-1.2-1-1.6c-.6-.4-1.4-.7-2.5-.7c-1.2 0-2.3 .4-3.1 1.1c-.9 .8-1.3 1.6-1.3 2.7c0 1 .4 2.2 1.3 3.7c1.3 2.3 2 3.8 2.3 4.5c.8 2.1 1.3 4.3 1.3 6.8c0 1.3-.1 2.8-.3 4.4l-1.9-.1c0-.3 .1-.6 .1-.8l.1-1.5c0-1.2-.7-2.4-2.2-3.7c-2.5-2.2-3.9-3.5-4.1-3.7c-1.5-1.8-2.2-3.8-2.2-6c0-2.7 .9-4.9 2.6-6.7c1.8-1.7 4-2.6 6.7-2.6Z" class="g1_103"/>
<image clip-path="url(#c1_103)" preserveAspectRatio="none" x="1344" y="457" width="108" height="72" href="img/2.jpg"/>
<image clip-path="url(#c2_103)" preserveAspectRatio="none" x="1347" y="550" width="102" height="71" href="img/3.jpg"/>
<image clip-path="url(#c3_103)" preserveAspectRatio="none" x="1347" y="642" width="102" height="74" href="img/4.jpg"/>
<image clip-path="url(#c4_103)" preserveAspectRatio="none" x="1353" y="745" width="96" height="80" href="img/5.jpg"/>
<image clip-path="url(#c5_103)" preserveAspectRatio="none" x="19" y="472" width="556" height="170" href="img/6.jpg"/>
<path d="M845.3 459.2l.3 .3l.2-1.3l-.4 .2h.2l-.8 .4l.2-.1l-1.4 .4l-.1 .1l-1.9 .9l.1-.1l-1.9 .7l.2-.1l-2.1 .4h-.3l-1.9 .7h.1l-2.4 .7h-.1l-2.6 1.1l-.5 .2l-2.4 2.5h-.1l-2.5 2.8l-2.8 3.2l-.1 .1l-2.6 3.3l-2.9 3.5l-2.9 3.7l-.1 .1l-2.8 3.7l-.1 .1l-2.4 4l.2-.2l-2.7 2.9l.1-.1l-2.5 2.3l.1-.1l-2.3 1.5l.3-.1l-2.3 .7h.3l-2 .2h.3l-2-.3l.7 .3l-1.5-1.3l.2 .1l-1.4-1.7l.2 .4l-.7-2.7v.1l-.4-3.1v.3l.3-3.2l.4-3.4l-.1 .3l.9-2.8v.1l1-2.3l-.1 .2l1.3-1.8l-.1 .1l1.2-1.4l-.3 .2l1.3-.9l.1-.1l1.2-.9l-.3 .1l1.4-.5h-.4l1.9-.2l1.9-.2h-.1H807h-.1l2.8 .2h2.6h-.2l3.2 .3h-.1l3.2 .7l-.2-.1l3.5 1.3l-.2-.1l3.2 2l-.3-.3l3.1 3.4l-.1-.2l2.7 4l-.2-.3l2.1 5.2l2.3 5.9v-.1l2.2 6.1l2.3 6.1l-.1-.2l1.2 4.2c.2 .6 .6 1 1.2 1.2c.5 .1 1.1-.1 1.5-.5c.4-.4 .6-1 .4-1.6l-1.2-4.2l-.1-.1l-2.5-6l.1 .1l-2.2-6.1l-2.3-5.9l-2.1-5.2l-.2-.3l-2.7-4l-.2-.1l-3-3.4l-.4-.2l-3.3-2l-.2-.1l-3.6-1.3l-.2-.1l-3.2-.6h-.1l-3.2-.3h-.2l-2.4 .1h.1l-2.8-.3H807l-2.5 .1h-.1l-1.9 .2l-1.9 .3l-.4 .1l-1.4 .6l-.2 .2l-1.3 .9h.1l-1.4 .9l-.2 .3l-1.2 1.4v.1l-1.3 1.8l-.1 .2l-1 2.3l-.1 .2l-.9 2.8v.2l-.4 3.4l-.3 3.3v.3l.6 3.1v.1l.7 2.8l.2 .4l1.4 1.8l.2 .1l1.4 1.3c.2 .2 .4 .3 .7 .4l1.9 .3h.4l1.9-.2l.3-.1l2.2-.7l.4-.2l2.3-1.5l.2-.1l2.5-2.4l2.7-2.9l.2-.2l2.4-4l-.1 .1l2.8-3.7l3-3.7l2.9-3.6l2.6-3.3v.1l2.8-3.2l2.5-2.8l-.1 .1l2.5-2.5l-.4 .3l2.6-1h-.1l2.4-.8h.1l1.9-.8l-.2 .1l2.1-.4h.2l1.9-.7l.1-.1l1.8-.9l-.1 .1l1.3-.5l.2-.1l.8-.4l.4-.5l.2-.4c.2-.3 .2-.6 0-.9c-.1-.3-.4-.5-.7-.5H846c-.3-.1-.6 .1-.7 .3c-.2 .3-.2 .6 0 .9Z" class="g0_103"/>
<path d="M732.3 521.1l.9 .9l-.2-.2l.5 1l-.1-1l-.1 .6l-.1 .1l-.7 3.8V526l-1.6 4.1l.1-.1l-2.5 4.9l-3.1 6l.1-.2l-2.5 3.6l-2.4 3.5l-4.2 6l-.1 .1l-4 6.1l.1-.2l-3.5 3.8l.1-.1l-2.2 1.7l.2-.1l-2 1.1l1.1-.1l-1.9-.8l.4 .3l-1.6-1.4l.4 .6l-.6-2.8l.1 .1l-.4-3.3v.1l-.1-3.7v-3.9l-.1-3.2l-.1-3v.3l.4-1.8l-.2 .4l.9-1.1l-.2 .2l.7-.5l-.5 .2l.6-.2h-.8l1.8 .5l-.3-.1l1.8 .9h-.1l2.6 1.5h.1l3.4 2l3.5 2l3.9 2.2h.1l4.8 2.6h.1l5.2 2.5l.1 .1l5.9 2.6h.1l6.6 2.7v.1L750 565l7.9 3.2h-.1l8.4 3.8l9 4.1c.8 .3 1.7 0 2-.8c.4-.7 .1-1.6-.7-2l-9-4.1l-8.3-4v-.1l-7.9-3.3L744 559l-6.6-2.8l-6-2.5h.1l-5.3-2.5l.1 .1l-4.9-2.6l-4-2.1l-3.5-1.9v-.1l-3.5-1.7l-2.7-1.5h-.2l-1.8-.8h-.2l-1.7-.4c-.3-.1-.6 0-.9 .1l-.5 .3l-.3 .2l-.6 .6l-.1 .1l-.8 1.2l-.2 .4l-.4 1.8v.3l.1 3v-.1v3.2l.1 3.9l.1 3.7v.1l.3 3.3v.1l.5 2.8c0 .3 .1 .5 .3 .7l1.5 1.5l.3 .2l1.9 .9c.4 .2 .8 .2 1.1 0l2.1-1l.2-.1l2.3-1.6l.1-.2l3.7-3.8l.1-.2l4.1-6.1l4.2-6l2.4-3.6v.1l2.5-3.6l.1-.2l3-6l2.5-4.9l.1-.2l1.5-4.1l.1-.2l.7-3.7v-.7c.1-.5-.1-1-.5-1.2l-.9-.7l-.1-.1l-1.1-.6c-.3-.2-.8-.1-1 .2c-.3 .4-.2 .8 0 1.1Z" class="g0_103"/>
<path d="M1351.6 687.4l.1-.3c.1-.2 .1-.5 0-.7l.1 .3l-.1-.9l-.2-2.3v-.2l-.5-1c-.1-.3-.5-.5-.8-.4c-.3 .2-.5 .5-.4 .9l.3 1v-.2v2.3v-.2l-.2 .9l.1-.2l-.1 .1v.3c-.2 .5 .1 1 .6 1.2c.5 .1 1-.1 1.1-.6Z" class="g0_103"/>
</svg>