<svg viewBox="0 0 1466 825" version="1.1" xmlns="http://www.w3.org/2000/svg">
<defs>
<clipPath id="c0_48"><path d="M-.2 825.3V-.2H1467V825.3Z"/></clipPath>
<clipPath id="c1_48"><path d="M1343.9 529.1V456.4H1452v72.7Z"/></clipPath>
<clipPath id="c2_48"><path d="M1346.3 621.3V549.7h102.9v71.6Z"/></clipPath>
<clipPath id="c3_48"><path d="M1346.4 716.6V641.9h103v74.7Z"/></clipPath>
<clipPath id="c4_48"><path d="M1353 825V744.6h96.2V825Z"/></clipPath>
<clipPath id="c5_48"><path d="M18.6 825V358.1H524.5V825Z"/></clipPath>
<style>
.g0_48{fill:#F00;}
.g1_48{fill:none;stroke:#000;stroke-width:1.466;stroke-linejoin:round;}
</style>
</defs>
<image clip-path="url(#c0_48)" preserveAspectRatio="none" x="0" y="-7" width="1467" height="840" href="img/1.jpg"/>
<path fill-rule="evenodd" d="M1026.3 382.5c1.4 0 2.6 .5 3.5 1.5c.9 1 1.4 2.2 1.4 3.6c0 1.3-.5 2.5-1.5 3.5c-.9 1-2.1 1.5-3.5 1.5c-1.3 0-2.5-.5-3.4-1.5c-1-1-1.5-2.2-1.5-3.5c0-1.4 .5-2.6 1.5-3.6c.9-1 2.1-1.5 3.5-1.5Zm.6-37.4c3.3 0 6 1 8.3 2.8c2.2 1.9 3.3 4.3 3.3 7.2c0 1.7-.4 3.2-1.4 4.4c-1.1 1.5-2.5 2.2-4.2 2.2c-1.4 0-2.5-.5-3.4-1.4c-.9-.8-1.3-1.9-1.3-3.1c0-1.8 .7-3.2 2.2-4.1c1.5-.9 2.2-1.6 2.2-2.2c0-.9-.4-1.7-1.3-2.2c-.8-.6-2-.9-3.3-.9c-1.8 0-3.2 .5-4.3 1.5c-1.2 1-1.7 2.2-1.7 3.6c0 1.3 .6 3 1.7 5c1.7 3.1 2.7 5.1 3.1 6.1c1.2 2.8 1.7 5.8 1.7 9.1c0 1.8-.1 3.8-.4 6l-2.4-.1c0-.5 0-.8 0-1.1l.2-2.1c0-1.5-1-3.1-3-4.9c-3.4-3-5.2-4.7-5.6-5.1c-2-2.4-3-5.1-3-8c0-3.7 1.2-6.7 3.7-9.1c2.4-2.4 5.4-3.6 8.9-3.6Z" class="g0_48"/>
<path d="M1026.3 382.5c1.4 0 2.6 .5 3.5 1.5c.9 1 1.4 2.2 1.4 3.6c0 1.3-.5 2.5-1.5 3.5c-.9 1-2.1 1.5-3.5 1.5c-1.3 0-2.5-.5-3.4-1.5c-1-1-1.5-2.2-1.5-3.5c0-1.4 .5-2.6 1.5-3.6c.9-1 2.1-1.5 3.5-1.5Zm.6-37.4c3.3 0 6 1 8.3 2.8c2.2 1.9 3.3 4.3 3.3 7.2c0 1.7-.4 3.2-1.4 4.4c-1.1 1.5-2.5 2.2-4.2 2.2c-1.4 0-2.5-.5-3.4-1.4c-.9-.8-1.3-1.9-1.3-3.1c0-1.8 .7-3.2 2.2-4.1c1.5-.9 2.2-1.6 2.2-2.2c0-.9-.4-1.7-1.3-2.2c-.8-.6-2-.9-3.3-.9c-1.8 0-3.2 .5-4.3 1.5c-1.2 1-1.7 2.2-1.7 3.6c0 1.3 .6 3 1.7 5c1.7 3.1 2.7 5.1 3.1 6.1c1.2 2.8 1.7 5.8 1.7 9.1c0 1.8-.1 3.8-.4 6l-2.4-.1c0-.5 0-.8 0-1.1l.2-2.1c0-1.5-1-3.1-3-4.9c-3.4-3-5.2-4.7-5.6-5.1c-2-2.4-3-5.1-3-8c0-3.7 1.2-6.7 3.7-9.1c2.4-2.4 5.4-3.6 8.9-3.6Z" class="g1_48"/>
<image clip-path="url(#c1_48)" preserveAspectRatio="none" x="1344" y="457" width="108" height="72" href="img/2.jpg"/>
<image clip-path="url(#c2_48)" preserveAspectRatio="none" x="1347" y="550" width="102" height="71" href="img/3.jpg"/>
<image clip-path="url(#c3_48)" preserveAspectRatio="none" x="1347" y="642" width="102" height="74" href="img/4.jpg"/>
<image clip-path="url(#c4_48)" preserveAspectRatio="none" x="1353" y="745" width="96" height="80" href="img/5.jpg"/>
<image clip-path="url(#c5_48)" preserveAspectRatio="none" x="19" y="358" width="505" height="467" href="img/6.jpg"/>
<path d="M530.8 598.6v-.2l-.1 .2l.2-.3c.1-.4 0-.9-.3-1.2V597l.3 .5l-.1-.2c-.3-.5-.8-.8-1.4-.7l-.7 .1h-.1l-2.1 .4h-.1l-1 .2l-.2 .1l-.9 .3l.4-.1l-1.2 .1l-.4 .2l-1 .4l.2-.1l-1.3 .4l.3-.1l-1.8 .1h-.3l-1.8 .4h.5l-1.6-.1l-1-.1H515h.5h-.3c-.5-.2-.9-.1-1.3 .1l-.1 .1l.4-.2l-.6 .2l.3-.1l-1.1 .1l-.9 .1h-.1l-1.1 .1h.1H510l-.3 .1l-.6 .1l-.2 .1l-.4 .1l.5-.1h-.5h.1h-.8h.1h-.6l-.6 .2l-.5 .2l-.8 .4h-.1l-1.1 .6h-.1l-1.3 .7l.3-.1l-1.4 .4l-.4 .1l-1.2 .7l.3-.1l-1.3 .5H499l-1.4 .6l-1.7 .8l-.2 .1l-1.2 .7l-.1 .1l-1 .6l-.4 .3l-.3 .4c-.3 .3-.5 .7-.5 1.1v.3l1.4-1.6h-.2l.7 .1H494l1.1 1.5V608c0-.8-.7-1.6-1.5-1.6h-.1h.1c-.7-.1-1.4 .3-1.8 .9l.7-.7l-.8 .5l-.3 .2l-2.6 2.3l.3-.2l-1.6 .9l-.5 .4l-1.2 1.5v.1l-1.3 1.9l.1-.2l-1.2 1.5l-.3 .4l-.8 2.1v-.1l-.8 1.9l-.1 .1l-.6 1.6l.1-.2l-.8 1.4l.2-.2l-1.3 1.6l-.3 .4l-.7 1.8l-.9 2l-.1 .2l-.8 2.4l-.1 .6l.3 2.7v-.4l-.4 2.6v-.2l-.7 2.5l-.6 2.4l.1-.3l-.8 1.7l.1-.1l-1 1.9l-.1 .1l-.8 1.7c-.1 .2-.1 .4-.1 .6l-.1 1.7l.2-.6l-.9 1.7l-.2 .6l-.1 1.3v.6l.6 2l-.1-.4l.1 1.5v.3l.4 1.4v.2l.8 2l.1 .3l.9 1.5l-.1-.1l1 2l.2 .3l1.6 2.2h.1L478 667l-.1-.1l1.2 1.8l.2 .3l1.6 1.7v-.1l1.4 1.5h-.1l1.7 2l.2 .1l1.7 1.5l.1 .2l1.8 1.2v.1l2.5 1.5l.5 .2l2.3 .6l-.1-.1l3 1l3.6 1.2l.2 .1l2.9 .6l3.3 .9h.2l3 .5H512h-.1l2.7 .2h.1l2.9-.1h-.1h2.9l2.8-.4h.2l2.7-.8h.1l2.5-.9l.3-.1l2.4-1.4l.4-.2l2.1-2.1l-.3 .2l3-1.8l.2-.1l2.8-2.5l2.7-2.4l-.1 .1l3-2l.4-.4l1.9-3v.1l1.9-2.5l.1-.1l1.8-3l.1-.2l1.2-3.2v.2l1.3-2.5l.1-.4l.8-3v.2l.8-2.5v.1l1.1-2.6l.1-.5l.2-3.3v.1l.4-3.1v-.2l-.1-3.8v-.1l-.4-3.4v.2l.1-2.9v-.3l-.4-2.5l-.2-2l-.1-.4l-.8-1.9l-.8-1.8l-.1-.2l-.9-1.6l-1-1.8l-.1-.2l-1.1-1.4l-.1-.1l-1.2-1.3l-.2-.2l-1.7-1.3l-1.8-1.3l-.3-.2l-2.5-1.1l-2.7-1.1l-2.9-1.2H538l-2.9-1h.1l-2.5-1l-2.4-1h.1l-1.9-.9l.1 .1l-1.7-.9h.1l-1.5-.9l-.2-.1l-1.6-.9l.1 .1l-1.3-.8l-.2-.1l-1.4-.7h-.1l-.8-.3l-.7-.4l-.3-.1l-1-.2h-1.8c-.4 0-.8 .2-1.2 .5l1.2-.5h-.3c-.7 0-1.3 .4-1.6 1v.1l2.1-.8l-.3-.1c-.6-.3-1.3-.1-1.8 .4c-.5 .5-.7 1.2-.4 1.8c.3 .7 .9 1.1 1.6 1h.4c.7 0 1.3-.5 1.5-1.2c.2-.7 0-1.4-.6-1.8l-.2-.2c-.6-.3-1.3-.3-1.9 0c-.5 .4-.8 1.1-.7 1.7c.1 .7 .6 1.2 1.3 1.4l1.1 .2l.5 .1c.7 .2 1.4-.1 1.7-.7c.4-.6 .4-1.4-.1-1.9c-.4-.6-1.2-.8-1.8-.5h-.2c-.6 .3-1.1 .9-1.1 1.6c.1 .7 .5 1.3 1.2 1.5l.2 .1c.6 .2 1.3 0 1.7-.6c.4-.5 .4-1.2 .1-1.8c-.3-.6-1-.8-1.7-.7l-.4 .1c-.8 .1-1.3 .8-1.2 1.6c.1 .8 .7 1.5 1.5 1.4h.5c.6 0 1.3-.4 1.5-1.1c.2-.6-.1-1.4-.6-1.8l-.2-.1c-.6-.4-1.4-.4-1.9 .1c-.6 .5-.8 1.2-.5 1.9c.3 .7 1 1.1 1.7 1l.1-.1c.8-.1 1.4-.7 1.5-1.4c0-.8-.4-1.5-1.2-1.7l-.4-.2h-.1l-1.2-.3c-.7-.2-1.5 .2-1.9 .9c-.3 .7-.1 1.5 .5 2l.1 .2c.6 .4 1.4 .5 2 .1c.6-.4 .9-1.2 .7-1.9c-.2-.7-.8-1.2-1.5-1.2h-.4c-.8-.1-1.5 .5-1.7 1.3c-.2 .8 .3 1.6 1 1.9l.3 .1c.8 .4 1.8 0 2.2-.8l.1-.1l-1.5 .9h.3c.4 0 .9-.2 1.2-.5l-1.2 .5h1.4l-.4-.1l1 .2l-.3-.1l.8 .4l.7 .3l1.5 .7l-.2-.1l1.3 .8l.1 .1l1.7 .8h-.2l1.6 .9l.1 .1l1.6 .9h.1l1.9 .9l.1 .1l2.4 .9h-.1l2.6 1.1h.1l2.9 1h-.1l2.9 1.1l2.7 1.1h-.1l2.5 1.1l-.3-.2l1.8 1.3l1.6 1.2l-.2-.1l1.3 1.3l-.1-.2L550 619l-.1-.2l1 1.7l1 1.7l-.1-.3l.8 1.8l.8 1.9l-.1-.4l.2 2l.4 2.6v-.3l-.1 2.9v.2l.4 3.4v-.1l.1 3.7v-.2l-.4 3.1v.1l-.2 3.3l.1-.4l-1.1 2.5v.1l-.8 2.4l-.1 .1l-.8 3.1l.2-.4l-1.4 2.5v.2l-1.3 3.2l.1-.3l-1.7 3v-.2l-1.9 2.6l-2 3l.4-.4l-2.9 2l-.2 .1l-2.7 2.5v-.1l-2.8 2.5l.2-.2l-3 1.8l-.2 .2l-2.2 2.2l.4-.3l-2.5 1.3l.2-.1l-2.5 .9h.1l-2.7 .7h.3l-2.9 .3h.2h-2.7l-2.9 .1h.2l-2.8-.1h-2.6h.2l-3-.5h.1l-3.4-.9l-3-.6h.2l-3.7-1.2l-2.9-1h-.2l-2.3-.6l.5 .2l-2.5-1.6l.1 .1l-1.8-1.3l.2 .1l-1.7-1.5l.1 .2l-1.6-2l-.1-.1l-1.4-1.5l-.1-.1l-1.6-1.6l.2 .3l-1.2-1.9l-.1-.1l-1.4-1.8l-1.7-2.2l.2 .3l-.9-2.1l-.1-.1l-.9-1.5l.1 .2l-.7-2v.2l-.3-1.4v.3v-1.5l-.1-.5l-.5-1.9v.7l.2-1.4l-.2 .6l.9-1.7c.1-.2 .2-.5 .2-.7l.1-1.7l-.2 .6l.8-1.7l1-1.9h.1l.7-1.8l.1-.2l.6-2.4l.7-2.5l.1-.2l.3-2.5l.1-.4l-.3-2.7v.7l.7-2.4v.2l.9-2.1v-.1l.8-1.8l-.2 .4l1.3-1.6l.1-.3l.7-1.4l.1-.1l.7-1.6h-.1l.9-1.9l.8-2.1l-.2 .4l1.2-1.4l.1-.2l1.3-1.9l-.1 .1l1.2-1.5l-.5 .4l1.6-.9l.3-.2l2.6-2.2l-.3 .2l.8-.4c.8-.4 1.1-1.4 .7-2.2c-.4-.8-1.3-1.1-2.1-.7c-.8 .4-1.1 1.3-.8 2.1c.4 .7 1.1 1.1 1.8 1v-.1l-.1 .1h.1c.9-.1 1.6-.9 1.5-1.8c0-.9-.8-1.5-1.7-1.5c-.9 0-1.6 .7-1.6 1.6v.1c0 .7 .5 1.4 1.2 1.6h.1c.3 .1 .5 .1 .8 .1l.2-.1c.8-.1 1.4-.8 1.4-1.6v-.3l-.4 1.1l.4-.5l-.4 .3l1-.6H496l1.3-.7h-.1l1.7-.7l1.4-.6l1.3-.5l.2-.2l1.1-.6l-.4 .1l1.4-.4l.3-.1l1.4-.7h-.1l1.2-.5l.8-.4l.6-.2l-.6 .1l.6-.1h.3l.2-.1l-.3 .1h.3h-.1h.5l.6-.2l.4-.1l-.2 .1l.6-.2l-.3 .1l.9-.1h.1l1.1-.1h-.1l.9-.1l1.1-.1h.3l.6-.2l.4-.2l.2-.1l-1.3 .2l.3 .1l.4 .1h.2l-.1-.1l1 .1l1.6 .2l.5-.1l1.7-.4h-.3h1.8l.3-.1l1.3-.3l.3-.1l1-.5l-.4 .1l1.1-.1l.4-.1l.9-.4l-.2 .1l1-.3H527l2.1-.4l.8-.2c.4-.1 .7-.3 .9-.7l.1-.3l-.3 .5l-1 .4h.4l-.5-.2l.1 .2c.2 .2 .5 .2 .8 .1c.2-.1 .4-.3 .4-.6Z" class="g0_48"/>
<path d="M377.5 591.9l.3-.2l.1-.3l.1-.2V591l-.1-.5c0-.3-.2-.6-.5-.7c-.3-.1-.6-.1-.8 .1c-.3 .2-.4 .5-.3 .8v.4v-.3v.2c-.1 .5 .3 1 .8 1c.6 .1 1-.2 1.1-.7v-.9l-.3 1c.2-.2 .4-.5 .4-.8c0-.4-.2-.7-.4-.9l-.1-.1c-.3-.3-.7-.4-1.1-.3c-.4 0-.7 .3-.9 .7l-.1 .1c-.3 .7 0 1.4 .6 1.8c.6 .3 1.4 .1 1.8-.5c.3-.6 .1-1.4-.5-1.8l-.1-.1l-.4-.2l-1.1-.2h-.2l-2.4-.2c-.2 0-.5 .1-.7 .2l-1.4 .5h.4l-1.8 .2l-.2 .1l-1.8 .4h.2l-2.5 .3l-2.2 .4h-.1l-2.3 .6l-2.2 .5l-2.2 .5l.2-.1l-2.3 .3h-.2l-2.3 .5l-2.3 .4h.1l-2.2 .3l-.1 .1l-2.1 .4l-1.8 .4l-.1 .1l-1.8 .5l-1.8 .6h-.2l-1.6 .7H338l-1.7 .8h-.1l-1.5 .8l-1.6 .8H333l-1.6 .8l-1.7 .9l-1.8 .9l-1.8 .9H326l-1.6 1l-.3 .2l-1.4 1.3l.2-.1l-1.6 1.2l-.1 .1l-1.3 1.1l-.2 .2l-1.1 1.4l-.2 .4l-.7 1.6l.1-.3l-.9 1.3l-.3 .5l-.5 1.8l.1-.1l-.7 1.7l-.6 1.6v.1l-.5 1.9l-.1 .1l-.4 2.3v-.1l-.6 2.3v.1l-.6 2.7v.1l-.3 3.3v-.1l-.5 3.1v.1l-.4 3.4v.1l-.4 3.8l-.4 3.8l-.2 3.9l-.1 3.7v3.5l.2 3.1v.2l.5 2.9v.1l.7 2.7v.3l1.1 2.3l1.1 2.4l.2 .2l1.5 2.1v.1l1.7 2l.1 .1l2 2.1l-.1-.1l1.9 2.2l.1 .1l2.2 2.2l.1 .1l2.5 2.2l2.6 2.2l.1 .1l2.6 2.1l.1 .1l2.8 1.9l2.8 1.8l.2 .1l3 1.5l.2 .1l3 1.1l3.3 1h.1l3.2 .6h.2l3.2 .3H357l3.5-.1l3.6-.2l.1-.1l3.5-.6l3.7-.7h.1l3.4-.8l3.4-.7v-.1l3.1-.8l3.2-.8h.2l2.9-.9l3-.9l2.7-.9l.1-.1l2.4-1l.2-.1l2.2-1.3l.1-.1l2-1.4l.1-.1l2-1.6l.2-.2l1.7-1.9l.2-.2l1.3-2.3v-.1l1.2-2.2v-.2l1-2.6l.9-2.6v-.1l.8-2.8l.6-2.8v-.1l.4-2.8l.1-.1l.3-2.7v-.2l.2-2.5l.1-2.6V651l-.3-2.2v-.2l-.5-2.1l-.1-.1l-.7-2.2v-.1l-.7-2.1l-.1-.1l-1-2.2v-.1l-1.1-2.2l-1.2-2.4l-.1-.1l-1.4-2.4v-.1l-1.6-2.4l-1.7-2.6l-1.9-2.6l-1.8-2.7l-2-2.8l-2-2.8l-2-2.8l-1.8-2.7v.1l-1.7-2.6v-.1l-1.6-2.3l-.1-.1l-1.5-2l-.1-.1l-1.6-1.8l-.1-.2l-1.7-1.5l-.2-.1l-1.6-1.2l-1.5-1.2l-.2-.1l-1.7-.9h-.1l-1.8-.8h-.2l-1.8-.5l-1.8-.5H370l-2-.3h-2l-2 .1l-2.3 .2h-.1l-2.2 .3h.1l-2.4 .1h.1l-2.4 .1h-.1l-2.5 .3h.1l-2.4 .1h.1l-2.5-.1h-2.2l.1 .1l-2.3-.2h-2.3l-2 .2h-.2l-1.9 .3l-.1 .1l-1.8 .4l-.2 .1l-1.7 .6h-.2l-1.6 .9H331l-1.7 1l-.3 .3l-1.4 1.4v.1l-1.4 1.6h-.1l-1.3 1.7l-.1 .3l-1.1 2.1l-1.1 2.4l-.1 .2l-1 2.6l-.9 2.7v.1l-.8 2.8l-.9 3v-.1l-1 3.1l-.9 3.2v-.1l-1.1 2.9l.1-.1l-1.4 2.8l-.1 .2l-1.1 2.8l-1 3l-.9 2.8l-.1 .1l-.7 2.9v.3l-.1 3l-.2 3.1l.1 .3l.5 3.2v.2l1.2 3.3v-.1l1 3.3h.1l1.1 3.3l.1 .1l1.5 3.2l1.6 3.4l1.5 3l.1 .1l1.8 3v.1l1.9 2.7v.1l1.7 2.4l.1 .1l1.9 2.2l.1 .1l2 2l.1 .1l2.2 1.7l.1 .1l2.2 1.4l.1 .1l2.4 1.2h.1l2.4 1h.1l2.3 .7l-.1-.1l2.4 .8h.1l2.7 .6l2.5 .6l2.6 .5v.1l2.5 .4l.2 .1l2.3 .1h-.1l2.4 .3l2.5 .2h.1l2.4 .1h.2l2-.2l2.2-.3l.1-.1l2.3-.5h.1l2.3-.7h.1l2.2-.8h.1l2.2-.9l.2-.1l2.1-1l2.2-1.1h.1l2.2-1.3h-.1l2.4-1.1l.4-.3l1.9-1.7l-.1 .1l2-1.6l1.9-1.6l.1-.2l1.8-1.9h.1l1.8-2l1.6-1.9l1.8-1.8l.2-.3l1.3-1.9l-.1 .1l1.4-1.8l-.1 .1l1.3-1.6l.1-.2l1-1.5l1-1.4V667l.7-1.1l.1-.1l.6-1.2l.1-.3l.4-1.1v-.1l.4-1.3v-.2l.2-1.3v-.2l.1-1.7v-.1l-.2-1.9v-.1l-.2-2.1l-.3-2.4v-.1l-.4-2.5l-.4-3.1l-.4-3.1l-.4-3.3v.1l-.3-3.4v-.1l-.5-3.3l-.6-3.4l-.7-3.5v.1l-.7-3.4v-.2l-1.1-3.3v-.1l-1.2-3.1v-.2l-1.4-2.9l-.1-.1l-1.5-2.7l-1.5-2.4l-.1-.1l-1.5-2.3l-.2-.2l-1.8-1.8h-.1l-1.9-1.7l-.1-.1l-1.6-1.3l-.3-.2l-1.8-.8l-1.6-.7v-.1l-1.5-.6l-.3-.1l-1.3-.3h.1l-1.2-.4h-.1l-.8-.2h-.1l-.8-.2c-.3 0-.7 0-1 .1l-.2 .1H379l-.3-.1l-.4-.1h-.2c-.5 0-.9 .2-1.3 .5l-.1 .1l2.1-.3h-.1l.6 .4l-.1-.1l-.1-.1l-.1-.1l.5 2v-.2l-1 1l.6-.2c.3-.1 .6-.3 .8-.5l1.5-2.1c.4-.6 .3-1.4-.3-1.9c-.5-.5-1.4-.4-1.9 .2l-1.7 1.9l1.1-.5H378l1 .3l-.2-.1c-.7-.6-1.8-.4-2.4 .3c-.6 .7-.6 1.7 .1 2.4l.2 .2l.4 .3h.1c.7 .3 1.5 .2 2.1-.4v-.1l-1.2 .6h.2l-.5-.1l.4 .1c.3 .1 .7 .1 1.1-.1l.2-.1l-1 .1l.8 .2l-.2-.1l.8 .3v-.1l1.2 .4l.2 .1l1.3 .2l-.4-.1l1.5 .6h-.1l1.6 .8l1.8 .8l-.3-.2l1.6 1.2h-.1l1.9 1.7l-.1-.1l1.8 1.8l-.2-.2l1.6 2.2l-.1-.1l1.5 2.4h-.1l1.5 2.6v-.1l1.4 2.9l-.1-.1l1.1 3.1v-.1l1.1 3.4l-.1-.2l.7 3.3v.1l.7 3.4v-.1l.6 3.4v-.1l.5 3.4v-.1l.3 3.3v.1l.4 3.2v.1l.4 3.1l.4 3.1l.4 2.6v-.1l.3 2.5l.3 2v-.1l.1 1.9v-.1v1.7l.1-.2l-.2 1.2v-.2l-.3 1.3v-.1l-.3 1.2v-.2l-.6 1.2l.1-.1l-.7 1.1l.1-.1l-1 1.5l-1 1.5l.1-.1l-1.3 1.6h-.1l-1.3 1.8l-.1 .1l-1.2 2l.2-.3l-1.8 1.8l-.1 .1l-1.7 1.9l-1.8 2h.1l-1.8 1.9l.1-.1l-1.9 1.6v-.1l-2 1.6l-.1 .1l-1.8 1.6l.4-.2l-2.4 1.2h-.1l-2.2 1.3l.1-.1l-2.3 1.1l-2.1 1.1l.1-.1l-2.2 .9h.1l-2.3 .7l-2.2 .7h.1l-2.3 .5h.1l-2.1 .3l-1.9 .2h.2h-2.4h.1l-2.5-.3v.1l-2.4-.3l-2.3-.2l.2 .1l-2.5-.5h.1l-2.5-.6l-2.6-.5l-2.6-.6h.1l-2.5-.7v-.1l-2.2-.6l.2 .1l-2.4-1l.2 .1l-2.4-1.2l.2 .1l-2.2-1.4l.1 .1l-2.1-1.7l.1 .1l-2-2l.1 .1l-1.9-2.2l.1 .1l-1.7-2.4l-1.8-2.7l-1.8-3l.1 .1l-1.5-3l-1.6-3.3l-1.5-3.2l.1 .1l-1.2-3.2l-1.1-3.2l-1.1-3.3l.1 .3l-.5-3.1v.3l.1-3l.1-3.1v.4l.7-2.9v.1l.9-2.7l1-3v.1l1-2.9l-.1 .2l1.5-2.8v-.2l1.2-2.9v-.2l.9-3.2v.1l1-3v-.1l.9-2.9l.8-2.9v.1l.9-2.7l.9-2.6v.2l1.1-2.4l1.1-2.1l-.2 .2l1.3-1.6l-.1 .1l1.4-1.6l-.1 .1l1.4-1.4l-.3 .2l1.6-1l-.1 .1l1.6-.8H334l1.7-.6l-.1 .1l1.8-.4h-.1l1.9-.4l-.2 .1l2-.1l2-.1h-.2l2.4 .2h2.3h-.1h5l.1-.1l2.5-.2h-.1l2.4-.1h.1l2.3-.2h.1l2.3-.3H362l2.2-.1l2-.2h-.1h1.7h-.3l2 .3l-.2-.1l1.8 .5l1.8 .5l-.2-.1l1.8 .7h-.1l1.6 .8l-.2-.1l1.5 1.1l1.6 1.2l-.1-.1l1.7 1.6l-.1-.2l1.5 1.8V606l1.5 2.1V608l1.6 2.3h-.1l1.7 2.6l.1 .1l1.8 2.7l2 2.8l2.1 2.8l-.1-.1l2 2.9l1.9 2.6v.1l1.8 2.5l1.7 2.6l1.6 2.4l-.1-.1l1.4 2.4v-.1l1.2 2.4l1.1 2.2V641l1 2.3l-.1-.1l.8 2.1v-.1l.7 2.2v-.1l.5 2.1v-.2l.3 2.2v-.2v2.4v-.1l-.1 2.6l-.1 2.5v-.1l-.3 2.7l-.4 2.8v-.1l-.6 2.8l-.7 2.7l.1-.1l-1 2.6l-.9 2.6l.1-.2l-1.1 2.2l-1.3 2.3l.2-.3l-1.8 1.9l.2-.1l-2 1.6l.1-.1l-2 1.4l-2.2 1.3l.2-.1l-2.4 1l.1-.1l-2.7 .9h.1l-3 .9l-3 .9h.1l-3.2 .8h-.1l-3.1 .8h.1l-3.4 .8l-3.4 .8l.1-.1l-3.7 .7l-3.6 .6h.2l-3.5 .3h.1l-3.5 .1l-3.2-.1h.1l-3.2-.2h.2l-3.2-.6l.2 .1l-3.3-1h.1l-2.9-1.1l.1 .1l-3-1.5l.2 .1l-2.8-1.8l-2.9-2l.2 .1l-2.6-2.1l-2.6-2.2l-2.5-2.2l.1 .1l-2.2-2.2l.1 .1l-1.9-2.3l-.1-.1l-2-2l.1 .1l-1.6-2.1v.1l-1.5-2.1l.2 .3l-1.1-2.4v.1l-1-2.4l.1 .3l-.7-2.6v.1l-.4-2.9v.2l-.2-3.1l.1 .1v-7.1l.2-3.8v.1l.4-3.8l.4-3.8l.4-3.4v.1l.5-3.1v-.2l.3-3.3v.2l.5-2.7v.1l.6-2.3v-.1l.5-2.2l-.1 .1l.6-1.9l-.1 .1l.6-1.5l.7-1.7v-.2l.5-1.7l-.2 .4l1-1.3l.1-.3l.7-1.6l-.2 .4l1.1-1.4l-.3 .2l1.4-1.1l-.1 .1l1.6-1.2l.1-.1l1.4-1.3l-.3 .2l1.7-1l-.1 .1l1.8-1h-.1l1.8-.8l1.7-.9l1.7-.9h-.1l1.7-.8l1.5-.8h-.1l1.8-.8h-.1l1.7-.7l-.2 .1l1.8-.6l1.8-.6l-.1 .1l1.8-.5l2.1-.5l-.1 .1l2.1-.4h.1l2.3-.5l2.3-.4h-.1l2.3-.3h.2l2.2-.5l2.2-.6l2.3-.5h-.1l2.2-.4l2.4-.3l.1-.1l1.9-.4h-.2l1.9-.3l.3-.1l1.4-.7l-.7 .2l2.5 .1l-.1-.1l1 .2h.2c.5 0 1-.2 1.2-.6c.3-.3 .3-.9 .1-1.3l-.1-.1c-.2-.6-.8-.8-1.4-.7c-.5 .1-.9 .7-.9 1.2c0 .6 .5 1.1 1 1.2h.2l-.6-.3l-.1-.1l.2 .3l.1 .1l.1 .1c.4 .3 .9 .4 1.3 .1c.3-.3 .5-.9 .2-1.3l-.1-.2v-.1l-.2-.2c-.2-.3-.5-.4-.8-.4c-.3 .1-.6 .3-.7 .6c-.1 .3 0 .7 .2 .9l.4 .4v-.1l.1 .1l-.2-.4v.3c0 .2 .1 .3 .3 .4c.1 .1 .3 .1 .4 0Z" class="g0_48"/>
<path d="M473.3 498.1l-1.7 .9c-.3 .2-.5 .6-.5 1c0 .3 .2 .7 .6 .9c.3 .1 .7 .1 1-.2h.1v-.1l-.3 .3l1.1-.5l2.5-.9l1.9-.8h.1l2.2-1l3-1.4l3.6-1.7h-.1l4.1-1.9h-.1l4.6-1.9l5-2.3h-.1l5.4-2.2l-.1 .1l5.8-2.3l-.1 .1l5.9-2.1l6-1.9l-.1 .1l5.9-1.6l5.6-1.3l5.5-1.3l5.1-.8l4.8-.8h-.1l4.4-.5l3.9-.5h-.1l3-.3l2.6-.2h-.1h2l1.4-.1h.7h-.3l.5 .1h.3l-.9-.4l.1 .1c.6 .6 1.5 .7 2.1 .2c.7-.5 .8-1.4 .4-2.1c-.5-.7-1.4-.9-2.1-.5l-.4 .2l-.1 .1l-.6 .3l.2-.1l-1.3 .6l.1-.1l-1.6 .6l-2.3 .8l-2.5 .9l-3.1 1.2l-3.5 1.4l-3.9 1.6c-.5 .2-.7 .8-.5 1.3c.2 .5 .7 .8 1.2 .6l4-1.4l3.5-1.4l3.1-1H560l2.7-.8h-.1l2.3-.6l1.6-.4h.1l1.3-.5h.2l.6-.3h-.1l.5-.2c.5-.1 .8-.5 .9-.9c.2-.5 .1-1-.1-1.4l-.1-.2c-.2-.3-.5-.5-.8-.6l-.2-.1h-.2l-.5-.2h-2.6l-2 .1l-2.6 .2h-.1l-3 .3h-.1l-3.8 .5l-4.3 .5l-.1 .1l-4.8 .8l-5.1 .9h-.2l-5.5 1.3l-5.6 1.4h-.1l-5.9 1.6l-6 2h-.1l-5.8 2.1l-5.8 2.3l-5.3 2.2l-.1 .1l-4.9 2.3l-4.5 2l-4 1.9l-3.5 1.8l-3.1 1.5h.1l-2.2 1h.1l-1.9 .8l-2.5 1l-1.1 .5c-.4 .1-.6 .4-.7 .8c0 .3 .1 .7 .4 .9v.1h.1c.2 .2 .5 .3 .8 .2c.3 0 .5-.2 .7-.5l1-1.6c.1-.2 0-.4-.1-.6c-.2-.1-.4-.2-.6-.1Z" class="g0_48"/>
<path d="M470.4 496.6l-1.9 .5c-.4 .1-.7 .4-.7 .9c0 .4 .2 .8 .6 .9l.3 .1c.4 .2 .8 .1 1.1-.1l.2-.2l-.2 .1l.3-.2l.4-.4l.2-.3l-.3 .4l.4-.3l.3-.4l.2-.3l.1-.2l.1-.3l-.3 .4l.2-.2l.2-.2l.1-.2l-.3 .3c.5-.3 .6-.9 .5-1.4c-.2-.5-.6-.9-1.2-.9l1.2 1v-.1l-.1-.1v-.1l.1 .3v-.1l-.2 .8l.1-.2l.3-.7l-.1 .2l1.2-1.8l.1-.2l.2-.7v.1l.3-.6l.1-.3l.1-.5l-.1 .4l.1-.3l.1-.1c.2-.3 .2-.7 .1-1v-.2c-.2-.6-.8-1.1-1.5-1c-.7 .1-1.2 .7-1.2 1.4c0 .6 .4 1.2 1.1 1.3l.2 .1c.4 0 .9-.1 1.3-.5c.3-.4 .4-.9 .2-1.4c-.2-.5-.6-.8-1.1-.9h-.1l.3 .1l-.1-.1l.8 .6H474l-.1-.1c-.2-.3-.5-.5-.8-.6H473c-.7-.2-1.5 .3-1.7 1.1l-.1 .2v.1l-.2 .9l-.5 2.5V494l-.4 1.4l.1-.2l-.8 1.8l-.1 .1l-.6 1.8v.1l-.5 2v-.1l-.5 1.8l-.4 1.5v.2l-.1 1.6l-.1 .2l.1 1.1l.1 .5l.3 .9c.1 .2 .2 .4 .4 .6l.6 .6l.1 .1l.8 .7l.5 .3l1.1 .4l.3 .1l1.6 .2l.1 .1l1.8 .1h6.6l2.3-.1h.2l2.4-.3c.7-.1 1.2-.7 1.2-1.5c-.1-.7-.7-1.3-1.4-1.3h-2.4l-2.3-.1h-6.4h.1l-1.8-.2l.1 .1l-1.5-.3l.3 .1l-1.2-.5l.5 .3l-.9-.6l.2 .1l-.6-.6l.4 .6l-.3-.9v.5V506v.2l.1-1.5v.2l.3-1.4l.5-1.7v-.1l.4-2v.1l.6-1.7l-.1 .1l.8-1.7v-.2l.4-1.5l.1-.1l.5-2.5l.1-1l.1-.2l-1.2 1.2h.1c.3-.1 .6-.3 .8-.6l-1.8 .4c.4 .2 .8 .3 1.2 .1h.1l-.3 .1h.1c.5-.1 .9-.5 1.1-.9c.2-.5 .1-1-.2-1.4c-.4-.4-.9-.6-1.3-.5h-.2c-.4 .1-.7 .3-.9 .7c-.2 .4-.3 .8-.1 1.2v.1l.1-1.1l-.1 .2l-.1 .3l-.2 .3v.4l.1-.3l-.3 .6l-.1 .1l-.2 .7l.1-.2l-1.1 1.7l-.1 .2l-.3 .7v-.1l-.1 .2l-.1 .4v.1h-.1l.1-.3v.1c-.2 .4-.1 1 .3 1.4c.3 .4 .8 .5 1.3 .4c.5-.1 .9-.5 1.1-1v-.1l-1.2 1.1l-.8-.3l-.4-1.4l-.1 .2l.1-.2l-.1 .2l-.2 .4l-.1 .4l.1-.3l-.2 .4l.3-.5l-.3 .3l-.3 .4l-.2 .3l.2-.2l-.2 .3l-.2 .2l.7-.4l-.4 .1c-.4 0-.7 .3-.8 .7c-.1 .3 0 .7 .3 1c.3 .2 .7 .2 1.1 .1l1.7-.9c.3-.2 .5-.6 .3-.9c-.1-.4-.5-.6-.8-.5Z" class="g0_48"/>
<path fill-rule="evenodd" d="M517.2 499.6c0 .6-.5 1.1-1.1 1.1c-.6 0-1.1-.5-1.1-1.1c0-.6 .5-1.1 1.1-1.1c.6 0 1.1 .5 1.1 1.1Z" class="g0_48"/>
<path d="M592.1 490.5l-1.5 3.4c-.2 .3-.2 .8 .1 1.1c.2 .4 .7 .6 1.1 .5c.4-.1 .8-.4 .9-.8l.1-.2v-.3l.1-1.3l.2-3.2v-2.5l-.1-2.6l-.2-3.4l-.3-3.6l-.1-.1l-.4-3.6l-.7-3.9l-.6-3.6l-.4-3.7v.1l-.4-3.7l-.3-3.8v.1l-.1-3.5v-3.1v.1l.1-2.9v.1l.3-2.5v.1l.4-2l.3-1.8l-.1 .2l.6-1.3l-.2 .3l.7-.9l-.5 .4l.9-.5l-.2 .1l.9-.4l-.7 .1l1.3 .2l-.4-.1l1.3 .6l-.2-.1l1.5 1.1l-.2-.1l1.8 1.7l-.1-.1l2.1 2.4H599l2 2.7v-.1l2.2 3.4l2.1 3.6l2.3 3.8l2.1 3.8v.1l2.2 3.7l1.9 3.2l1.8 2.8v.1l1.6 2.4v.1l1.4 1.8l1.1 1.6h.1l.6 .8l.4 .6l-.3-.6l.1 .2c.1 .5 .4 .9 .8 1.1c.5 .2 1 .2 1.4 0h.1c.4-.2 .8-.7 .8-1.3c.1-.5-.2-1-.6-1.3l-.5-.3l-.2-.1l-1.2-.6h.1l-1.8-1c-.6-.3-1.3-.2-1.7 .4c-.4 .6-.3 1.4 .3 1.8l1.7 1.2l1.2 .7h-.2l.5 .3c.5 .4 1.2 .5 1.7 .1c.5-.3 .8-.9 .7-1.6v.6v-.2c.1-.4 0-.8-.2-1.2l-.3-.6l-.1-.2l-.7-.8l-1.1-1.6l-1.4-1.8l.1 .1l-1.6-2.5v.1l-1.8-2.8h.1l-2-3.2l-2.2-3.7v.1l-2.2-3.9l-2.4-3.8l-2.2-3.6l-2.3-3.4v-.1l-2.1-2.6v-.1l-2.1-2.4l-.1-.1l-1.8-1.8l-.2-.1l-1.5-1.1l-.2-.1l-1.3-.6l-.4-.1l-1.3-.2c-.2 0-.4 0-.6 .1l-1 .3l-.2 .2l-.8 .4l-.4 .4l-.7 1l-.1 .2l-.5 1.3l-.1 .3l-.4 1.8l-.4 2v.1l-.3 2.5v.1l-.1 2.9V452l.1 3.5l.3 3.8l.4 3.7v.1l.4 3.7l.6 3.6l.6 3.9l.5 3.6v-.1l.4 3.6l.1 3.3l.2 2.7v-.1l.1 2.3v-.1l-.1 3.3v1.7l.1 .2c.2 .5 .7 .8 1.2 .8c.5-.1 1-.5 1-1l.5-3.7c0-.3-.1-.6-.4-.6c-.3-.1-.6 0-.7 .3Z" class="g0_48"/>
<path d="M593.6 472.8l.5 .7c.1 .2 .4 .4 .7 .5l.9 .3c.2 .1 .5 .1 .7 0l.8-.2h.2l.9-.4l.1-.1l1.5-.7v-.1l1.7-.9l.3-.1l1.9-1.7l-.1 .1l2.1-1.7l.2-.1l2.1-2.1l.1-.1L610 464l.1-.2l.8-1.3c.3-.5 .2-1.2-.3-1.6c-.6-.3-1.3-.2-1.6 .3l-.9 1.3v-.1l-1.9 2.2l.1-.1l-2.1 2.1l.1-.1l-2.2 1.6l-2 1.6l.3-.2l-1.8 .8h.1l-1.6 .7l-.8 .4l.3-.1l-.8 .2h.6l-1-.2h.1l-.7-.1c-.5-.2-.9 0-1.2 .4c-.3 .4-.3 .9 0 1.2Z" class="g0_48"/>
<path d="M626.3 427.6l-.4-1.5l-.1-.2l-.6-1.2l-.6-1.2l-.1-.2l-.7-.9l-.1-.2l-1-.9l-.3-.2l-1.7-.8l-.2-.1l-1.7-.6h-.2l-2.4-.3h-3.1l-3.2 .5l-4 .5h-.1l-4.4 1h-.1l-4.7 1.2h-.1l-4.6 1.8h-.1l-4.6 1.8l-.1 .1l-4.3 2.3l-4.2 2.3l-.1 .1l-3.9 2.6l-.1 .1l-3.6 2.9l-.1 .1l-2.9 3.4l-.1 .1l-2.5 3.7l-.1 .1l-2.2 4l-.1 .2l-1.8 4.5l-.1 .2l-1.3 4.7l-1.2 4.9l-.1 .3l-.4 5.1l-.4 5v.2l.4 5.1h.1l.6 5l.1 .2l1.5 4.5v.1l1.5 4l.1 .2l2 3.9l.1 .2l2.5 3.5l.2 .1l3 3.1l.1 .1l3.7 3l.2 .1l3.7 2.4l.2 .1l4.2 2l.2 .1l4.6 1.7h.1l4.9 1.4h.2l5.2 .6l5.4 .6h.3l5.4-.4h.2l5.3-.9h.2l5.5-1.7l5.7-2h.2l5.6-2.7h.1l5.4-3.1l.2-.1l5.3-4L647 496v-.1l4.9-4.4l.1-.1l4.5-4.8l.1-.1l3.8-4.9l.1-.1l3.3-4.8l.1-.1l2.5-4.8l.1-.1l2.2-4.5l.1-.2l1.3-4.1v-.2l.7-4.1v-.3l-.3-3.7v-.2l-.7-3.4l-.1-.4l-1.6-3.2l-.1-.2l-2.1-3.2l-.2-.2l-2.7-3h-.1l-3.1-2.9l-.1-.1l-3.5-2.7l-.1-.1l-4-2.7l-.1-.1l-4.6-2.7h-.1l-4.7-2.4l-.1-.1l-5.1-2h-.1l-5.3-2h-.2l-5.5-1.3l-.1-.1l-5.6-.9h-.1l-6-.5h-.1l-5.8 .1h-.3l-5.8 .8l-.1 .1l-5.7 1.1h-.2l-5.7 1.8l-.1 .1l-5.4 2.1l-.2 .1l-5.2 2.8h-.1l-5.2 3l-.2 .1l-4.7 3.8h-.1l-4.5 4.1l-.1 .2l-4 4.5l-.1 .1l-3.7 4.8l-.1 .2l-3 5.2v.1l-2.5 5.4l-.1 .2l-1.7 5.4v.1l-1.2 5.4v.3l-.1 5.2v.2l.5 5.1l.1 .3l1.6 4.9v.1l2.1 4.7l.2 .2l2.9 4.4v.1l3.4 4.3l.2 .1l4 3.8l.1 .1l4.6 3.6l.2 .1l4.9 3.1h.1l5 2.8l.2 .1l5.7 2.4h.1l5.5 1.9l.2 .1l5.9 1.2h.1l6.3 .9h.2l6.4 .2l6.4-.2h.3l6.9-1.2l7.1-1.7l.2-.1l7-2.6v-.1l7.1-3l.2-.1l6.8-4l.1-.1l6.4-4.5l.1-.1l6-5.2l.1-.1l5.5-5.4l.2-.2l4.4-6.1h.1l4.2-6.1l.1-.1l3.4-6.1v-.1l3-6.1v-.2l2-6.2v-.1l1.4-5.7l.1-.3l.4-5.6v-.1l-.1-5.4v-.3l-.9-4.8l-.1-.3l-1.6-4.6l-.2-.4l-2.8-4.3l-.1-.2l-3.4-4l-.3-.3l-4.3-3.3l-.3-.2l-3.6-1.6l-1.7-.8l-1.8-.8l-.2-.1l-8-2.5H659l-8.4-2h-.2l-9.5-1l-9.8-.5h-.2l-9.8 .3H621l-10 1.1h-.1l-9.9 2.2h-.2l-7.8 2.7h-.2l-7.4 3.4l-.1 .1l-7.4 3.8l-.2 .2l-6.6 4.9l-.1 .1l-6.3 5.3l-.2 .1l-6 6.2l-.1 .1l-5.4 6.5l-.1 .1l-4.8 6.9l-.1 .1l-4 7.1l-.2 .2l-2.6 7.2l-.1 .3l-1.6 7.2l-.1 .3l-.3 6.7v.2l.4 6.7l.1 .5l2 5.7l.1 .2l2.6 5.3l.3 .5l4.3 4.5l.1 .2l4.9 4l.3 .2l6 3l.1 .1l6.4 2.5l.3 .1l7.2 1.5h.2l7.6 .9h.3l8-.4h.1l8.4-1l.2-.1l8.2-2.3h.2l8.2-3.3l.2-.1l7.9-4.7l.1-.1l7.2-5.6l.2-.3l6.1-7.5c.5-.5 .4-1.3-.2-1.8c-.5-.4-1.3-.4-1.7 .2l-6.3 7.4l.3-.2l-7.4 5.5l.2-.1l-7.9 4.6l.2-.1l-8.2 3.2l.1-.1l-8.2 2.2l.2-.1l-8.4 .9h.1l-8 .4h.3l-7.6-.9h.1l-7.3-1.5l.4 .1l-6.4-2.5h.2l-6-3l.3 .3l-4.9-4.1l.2 .2l-4.3-4.6l.3 .5l-2.6-5.4l.1 .2l-2-5.8v.5l-.4-6.7v.2l.4-6.8l-.1 .3l1.6-7.2v.2l2.6-7.2l-.1 .2l4.1-7l-.1 .1l4.8-6.8l-.1 .1l5.4-6.5l-.1 .1l6-6.2l-.1 .1l6.3-5.3l6.6-4.9l-.2 .1l7.3-3.8l7.4-3.4l-.2 .1l7.8-2.7l-.1 .1l9.9-2.1h-.2l9.9-1.1h-.1l9.9-.3h-.2l9.8 .5h-.1l9.4 1h-.2l8.4 2l-.1-.1l8 2.5l-.2-.1l1.8 .8v.1l1.7 .7l3.5 1.7l-.3-.2l4.3 3.3l-.2-.3l3.3 4l-.1-.1l2.8 4.3l-.2-.4l1.6 4.6l-.1-.2l.9 4.8v-.2l.1 5.3v-.1l-.4 5.5l.1-.3l-1.5 5.8v-.1l-1.9 6.1l.1-.2l-2.9 6.2l.1-.1l-3.4 6l.1-.2l-4.3 6.1h.1l-4.5 6l.2-.2l-5.5 5.5l.1-.1l-6 5.2l.1-.1l-6.3 4.6l.1-.1l-6.8 4l.2-.1l-7.1 3.1V513l-6.9 2.7h.2l-7 1.6h.1l-6.9 1.3l.2-.1l-6.3 .2l-6.4-.1h.2l-6.3-.9h.2l-5.9-1.2h.2l-5.6-1.9l.1 .1l-5.7-2.4l.2 .1l-5-2.8l-5-3l.2 .1l-4.7-3.6l.2 .1l-4.1-3.8l.2 .2l-3.4-4.3l.1 .1l-2.9-4.3l.1 .2l-2.1-4.7v.2l-1.6-4.9l.1 .4l-.5-5.1v.2v-5.3v.4l1.2-5.4l-.1 .1l1.7-5.4v.2l2.5-5.4l-.1 .1l3-5.2l-.2 .2l3.7-4.8v.1l4-4.6l-.1 .1l4.5-4h-.1l4.8-3.7l-.2 .1l5.2-2.9h-.1l5.3-2.8l-.1 .1l5.4-2.2l-.1 .1l5.7-1.8l-.2 .1l5.7-1.2v.1l5.8-.9l-.2 .1l5.8-.1h-.2l6 .5h-.1l5.6 .9h-.2l5.5 1.3h-.1l5.3 1.9l5.1 2h-.2l4.7 2.4l-.1-.1l4.5 2.7l4 2.7l-.1-.1l3.6 2.8l-.2-.1l3.1 2.8l-.1-.1l2.8 3l-.2-.3l2.1 3.2l-.1-.1l1.6 3.2l-.1-.4l.7 3.3v-.2l.2 3.7l.1-.3l-.6 4v-.3l-1.3 4.2l.1-.3l-2.2 4.5l-2.5 4.7l.1-.1l-3.3 4.9l.1-.1l-3.9 4.9l.1-.1l-4.5 4.8l.1-.1l-4.9 4.4l.1-.1l-5.1 4.2v-.1l-5.3 4l.2-.1l-5.5 3h.1l-5.6 2.6h.2l-5.7 2V509l-5.4 1.7l.2-.1l-5.3 .9h.1l-5.4 .3h.2l-5.4-.5l-5.1-.6l.3 .1l-4.9-1.4h.1l-4.7-1.6h.2l-4.2-2h.1l-3.8-2.3l.2 .1l-3.8-3l.2 .1l-3-3l.1 .1l-2.5-3.4l.1 .2l-2-3.9l.1 .2l-1.5-4.1l-1.5-4.4l.1 .3l-.7-5v.1l-.5-5v.2l.4-5v.1l.4-5.2v.3l1.3-5v.1l1.2-4.8l-.1 .2l1.9-4.5l-.1 .2l2.2-4.1v.2l2.4-3.7l-.1 .1l2.9-3.3l-.2 .2l3.6-2.9h-.1l3.8-2.6l-.1 .1l4.2-2.3l4.3-2.3l-.2 .1l4.6-1.9l4.6-1.7h-.1l4.7-1.2H602l4.4-1h-.1l4-.6l3.2-.6l-.2 .1l2.8-.2h-.2l2.5 .2h-.3l1.8 .5l-.3-.1l1.7 .8l-.2-.1l1.1 .9l-.1-.1l.9 .8l-.2-.3l.6 1.3h.1l.7 1.2v-.1l.7 1.3c.2 .3 .6 .4 .9 .3c.3-.1 .5-.5 .5-.8Z" class="g0_48"/>
</svg>