<svg viewBox="0 0 1466 825" version="1.1" xmlns="http://www.w3.org/2000/svg">
<defs>
<clipPath id="c0_27"><path d="M-.2 825.3V-.2H1467V825.3Z"/></clipPath>
<clipPath id="c1_27"><path d="M1343.9 529.1V456.4H1452v72.7Z"/></clipPath>
<clipPath id="c2_27"><path d="M1346.3 621.3V549.7h102.9v71.6Z"/></clipPath>
<clipPath id="c3_27"><path d="M1346.4 716.6V641.9h103v74.7Z"/></clipPath>
<clipPath id="c4_27"><path d="M1353 825V744.6h96.2V825Z"/></clipPath>
<clipPath id="c5_27"><path d="M38.7 781.5V389.6H913.9V781.5Z"/></clipPath>
<style>
.g0_27{fill:#F00;}
.g1_27{fill:none;stroke:#000;stroke-width:1.466;stroke-linejoin:round;}
.g2_27{fill:none;stroke:#F00;stroke-width:9.166;stroke-miterlimit:8;}
</style>
</defs>
<image clip-path="url(#c0_27)" preserveAspectRatio="none" x="0" y="-7" width="1467" height="840" href="img/1.jpg"/>
<path fill-rule="evenodd" d="M1078 340.3l7.6 4.1l-3.9 7.4l-7.7-4Zm-58.2 0l7.7 4.1l-4 7.4l-7.7-4Zm-698.8 0l7.6 4.1l-3.9 7.4l-7.7-4Zm508.8-.3l6.2 3.4l-3.5 6.3l-4.8-2.4l-2.8 5.3l-6-3.3l3.7-6.7l4.6 2.6ZM635 340l6.1 3.4l-3.4 6.3l-4.9-2.4l-2.8 5.3l-5.9-3.3l3.6-6.7l4.6 2.6ZM239.3 329.8c1.1 0 2.1 .4 2.9 1.2c.7 .8 1.1 1.8 1.1 2.9c0 1.1-.4 2.1-1.2 2.9c-.8 .8-1.8 1.2-2.9 1.2c-1.1 0-2-.4-2.8-1.2c-.8-.8-1.2-1.8-1.2-2.9c0-1.1 .4-2.1 1.2-2.9c.8-.8 1.8-1.2 2.9-1.2Zm823.6-6.5c-.7 0-1.2 .3-1.6 .8c-.4 .6-.6 1.2-.6 1.8c0 .8 .4 1.4 1.3 2c.8 .5 2 .7 3.4 .7h1.2c-.6-3.5-1.8-5.3-3.7-5.3Zm-398.6 0c-.6 0-1.2 .3-1.6 .8c-.4 .6-.6 1.2-.6 1.8c0 .8 .4 1.4 1.3 2c.9 .5 2 .7 3.4 .7h1.3c-.6-3.5-1.9-5.3-3.8-5.3Zm781-.2c-.9 0-1.6 1-2.2 3c1.1 .4 2 .8 2.6 1c1.8 .6 2.8 1 3 1c.5 0 .7-.2 .7-.5c0-.5-.5-1.3-1.4-2.5c-1.1-1.3-2-2-2.7-2Zm-248.3 0c-.8 0-1.5 1-2.1 3c1.1 .4 2 .8 2.6 1c1.7 .6 2.7 1 2.9 1c.5 0 .8-.2 .8-.5c0-.5-.5-1.3-1.5-2.5c-1-1.3-1.9-2-2.7-2Zm-687.8 0c-.9 0-1.6 1-2.2 3c1.1 .4 2 .8 2.6 1c1.8 .6 2.8 1 3 1c.5 0 .7-.2 .7-.5c0-.5-.5-1.3-1.4-2.5c-1.1-1.3-2-2-2.7-2Zm-122 0c-.8 0-1.5 1-2.1 3c1.1 .4 2 .8 2.6 1c1.7 .6 2.7 1 3 1c.4 0 .7-.2 .7-.5c0-.5-.5-1.3-1.4-2.5c-1.1-1.3-2-2-2.8-2Zm375-4.9c1.5 0 3.1 .9 4.9 2.5c1.8 1.7 3.9 4.4 6.2 7.9v9l-4.2-.1c-4 0-7.6 .4-10.7 1.1c-3.1 .6-4.6 1.4-4.6 2.3c.8 2.6 1.6 5.1 2.3 7.4c.7 2.3 1 4.4 1 6.5c0 1.5-.2 2.7-.5 3.6c-.3 .9-.8 2-1.6 3c-.3-2.8-.8-5.9-1.6-9c-.3-1.2-1-3.5-2.2-7.1c-.7-2.2-1-3.7-1-4.4c0-1 .3-2.3 .8-3.9c.5-1.2 1-2.3 1.6-3.3c.7-1.1 1.9-1.9 3.7-2.6c1.7-.6 4.4-1.1 7.9-1.5c-1.7-2.5-3.2-3.7-4.6-3.7c-.5 0-1.1 .2-1.6 .7c-.5 .4-1.3 1.4-2.4 2.9l-1.6-.8c1-3.4 2.1-6 3.6-7.8c1.4-1.8 2.9-2.7 4.6-2.7Zm159.5-.3c-.4 0-.8 .2-1.1 .5c-.4 .3-.5 .6-.5 1c0 .9 .7 1.8 2.1 2.7c1.4 .9 3.1 1.5 5 1.8c-.8-1.9-1.6-3.3-2.6-4.4c-1-1-1.9-1.6-2.9-1.6Zm-562.1 0c-.4 0-.8 .2-1.1 .5c-.4 .3-.5 .6-.5 1c0 .9 .7 1.8 2.1 2.7c1.4 .9 3.1 1.5 5 1.8c-.8-1.9-1.6-3.3-2.6-4.4c-1-1-1.9-1.6-2.9-1.6ZM471 316.2c1.5 1.5 2.7 3.3 3.5 5.3c.8 2 1.2 4.2 1.2 6.8v10c0 1.4-.8 3.1-2.3 5.3c-1.5 2.2-3.3 4.1-5.4 5.8c-2.3 1.8-4.2 2.6-5.8 2.6c-2 0-4-.5-6.2-1.6c-2-.9-5-2.8-9.1-5.6l1.4-2.1c2 1.3 3.6 2.2 4.8 2.7c1.2 .4 2.5 .7 3.9 .7c1.5 0 3-.5 4.5-1.3c1.5-.9 3.6-2.5 6.2-4.8c3.6-3.2 5.5-5.7 5.5-7.5c0-.8-.4-2-1.1-3.4c-.8-1.6-1.8-3-2.9-4Zm729.6-.7c1.1 0 2.5 1.6 4.1 5c1.7 3.6 2.6 6.9 2.6 9.9v7.1c-2.3 0-5-.4-8.1-1.3c-2.8-.8-5.1-1.7-7.2-2.8c-1.3 1.9-2.9 3.1-4.7 3.7c-.9 .3-2.2 .5-3.7 .5h-4.3l-.1 .5c-.1 2.1-.3 3.8-.8 5.1c-.6 1.9-1.6 3.3-2.9 4.4c-1.3 1.2-3.3 2.1-5.9 2.8c-2.6 .7-5.3 1.1-8 1.1c-5.4 0-9.5-1-12.3-3c-2.9-1.9-4.4-4.6-4.4-8.2c0-3.1 .5-5.8 1.4-8.4c1-2.7 3-6.3 5.9-10.8l2 1.4c-2.2 3.7-3.6 6.4-4.3 8c-.6 1.7-1 3.4-1 5.2c0 2.3 1.3 4.2 3.7 5.6c2.5 1.5 5.7 2.2 9.7 2.2c4 0 7.3-.7 10-2.3c2.7-1.5 4-3.3 4-5.5c0-1.4-.2-2.7-.7-4.1c-.4-1.3-1.4-3.4-3-6.4l2.9-8.8c1.5 2.8 2.5 4.7 2.8 5.7c.6 1.7 .9 3.7 1 6.2v.3h4.3c2 0 3.5-.2 4.7-.7c1.5-.6 2.5-1.7 3.1-3.2c1.2-2.8 2.8-5.1 4.8-6.8c1.7-1.6 3.2-2.4 4.4-2.4Zm-916.1-.4c-.7 .3-1.2 .6-1.6 .8c-1.2 .6-2.2 1.2-2.9 1.7c-.5 .5-1 .9-1.3 1.2c-.4 .5-.7 .9-.7 1.1c0 .3 .4 .6 1.2 .8c.8 .1 1.5 .2 2.2 .2c.5 0 1-.1 1.6-.4c.5-.3 1.2-.8 2.2-1.5Zm718.3-.8l1.9 1.2c-.5 .8-.9 1.6-1.3 2.4c-.3 .7-.5 1.3-.7 1.8c-.3 1-.5 2-.5 3c0 1.2 .4 2.4 1.2 3.4c.8 1 1.9 1.6 3.2 1.9c.7 .2 1.7 .4 2.9 .5c1.3 .1 2.6 .1 4 .1h23.7c-.6-1.7-1.1-2.9-1.5-3.5c-.5-.9-1.2-1.9-2.2-3.2l2.9-7.6c1.7 2.3 2.7 4.5 3.2 6.4c.5 1.8 .7 4.3 .7 7.6v9.3h-27.6c-1.3 0-2.4-.1-3.3-.1c-.9 0-1.5 0-2-.1c-.8-.1-1.7-.3-2.7-.7c-1.9-.6-3.3-1.8-4.5-3.7c-1.1-1.9-1.7-4-1.7-6.3c0-.9 0-1.9 .1-2.8c.2-1 .4-2 .8-3.1c.4-1.3 1-2.5 1.6-3.6c.6-1 1.2-2 1.8-2.9Zm-365.5-.2c1.7 1.8 2.8 3.8 3.4 5.8c.6 2.1 .9 5.1 .9 9.1v8.6H623.2v.5c-.1 2.1-.4 3.8-.8 5.1c-.6 1.9-1.6 3.3-2.9 4.4c-1.4 1.2-3.4 2.1-6 2.8c-2.6 .7-5.2 1.1-8 1.1c-5.3 0-9.4-1-12.3-3c-2.9-1.9-4.3-4.6-4.3-8.2c0-3.1 .4-5.8 1.4-8.4c1-2.7 3-6.3 5.9-10.8l2 1.4c-2.2 3.7-3.6 6.4-4.3 8c-.7 1.7-1 3.4-1 5.2c0 2.3 1.2 4.2 3.7 5.6c2.5 1.5 5.7 2.2 9.7 2.2c3.9 0 7.3-.7 10-2.3c2.6-1.5 4-3.3 4-5.5c0-1.4-.2-2.7-.7-4.1c-.5-1.3-1.5-3.4-3-6.4l2.8-8.8c1.6 2.8 2.5 4.7 2.9 5.7c.5 1.7 .9 3.7 .9 6.2v.3h15.1c-.2-1.5-.7-2.7-1.3-3.7c-.3-.6-1.1-1.6-2.3-3Zm465-.6c1.5 0 2.8 .3 4.2 1c1.3 .7 2.8 1.9 4.5 3.4c1.3 1.2 3.1 3.2 5.6 5.8c1.6 1.8 2.9 3 3.7 3.6c.9 .5 2.2 1 3.9 1.3v9h-53.9v.5c-.6 2.8-2.1 5.6-4.5 8.4c-3.2 3.7-6.4 5.5-9.5 5.5c-1.8 0-3.8-.6-5.9-1.8c-2.2-1.1-5.5-3.4-10-6.8l1.4-1.9c2.4 1.5 4.3 2.6 5.8 3.1c1.3 .5 2.7 .7 4.3 .7c2.1 0 4.2-.6 6.3-1.8c2.4-1.4 5-3.6 7.6-6.8c-.9 .2-1.7 .2-2.3 .2c-2.2 0-3.9-.7-5.2-2.1c-1.3-1.4-1.9-3.3-1.9-5.7c0-3.3 .7-6.5 2.3-9.5c1.6-3.3 3.5-5 5.6-5c1.7 0 3.2 1.2 4.5 3.6c1.2 2.4 1.8 5.2 1.8 8.6v1.8h15.1c-.3-1.5-.7-2.7-1.4-3.7c-.3-.6-1.1-1.6-2.3-3l2.7-7.8c1.6 1.8 2.7 3.8 3.3 5.8c.6 1.8 .8 4.3 .9 7.6v1.1h21.2c-2.7-2.7-5.2-4.7-7.4-5.9c-2-1.1-3.9-1.6-5.8-1.6c-.6 0-1.1 0-1.6 .1c-.5 0-1.2 .2-2.1 .4c1.2-2.8 2.6-4.8 4.1-6.1c1.4-1.4 3.1-2 5-2Zm265.8-.8c-.6 0-1.2 .3-1.8 .9c-.5 .6-.7 1.3-.7 2.1c0 .5 .2 .9 .6 1.2c.4 .4 .9 .5 1.5 .5c.5 0 1-.1 1.6-.4c.5-.3 1.1-.8 1.8-1.5c-.5-1.1-1.1-1.8-1.5-2.2c-.5-.4-1-.6-1.5-.6Zm-499.5-1c1 0 2.6 .1 5 .3c2.2 .3 4.3 .5 6 .6c3.4 .2 6.6 .3 9.9 .3l-2 8.1c-8.4 1-14.8 3-19.2 6c-4.4 3-6.6 6.8-6.6 11.5c0 4.4 1.8 7.8 5.4 10.1c3.7 2.3 8.9 3.4 15.7 3.4c.2 0 1.8 0 4.9-.2c1.8-.2 3.3-.2 4.7-.2l.7 1.4l-12.7 7.9c-7.8 0-13.5-1.5-17.2-4.5c-3.8-3.1-5.6-7.9-5.6-14.5c0-4.5 .8-8.5 2.6-12c1.8-3.4 4.7-6.6 8.6-9.3c-2.6 0-4.9 .4-6.9 1.1c-.7 .3-2.4 1-4.9 2.2c1-8.1 4.9-12.2 11.6-12.2Zm395.8-5.2c2.9 2.1 4.9 4.9 6.1 8.2c1.1 3.1 1.6 7.2 1.6 12.3v1.6h1.3c.6 0 1.1 0 1.4 0c.7-.1 1.3-.2 1.9-.2c-1.1-1.6-1.8-3-2.2-4c-.3-1-.5-2.2-.5-3.4c0-3.3 1.3-6.1 4-8.6c2.8-2.4 5.9-3.7 9.5-3.7c2.5 0 4.8 .9 7 2.4c2 1.5 3.5 3.3 4.5 5.5l-1.4 1.1c-1.8-.6-3.1-1-4.1-1.2c-1.1-.2-2.3-.3-3.8-.3c-2.7 0-5.1 .2-7.1 .6c-2.5 .6-3.7 1.4-3.7 2.4c0 1.5 3 4 9.1 7.5l16.7-4.8l-3.7 9.3c-5.9 1.8-10.8 3.2-14.6 4.2c-3.4 .9-6.2 1.5-8.5 1.8c-1.7 .2-3.4 .4-5.1 .4h-15.6c-1.4 0-2.5-.3-3.3-1c-.9-.7-1.4-1.9-1.4-3.6c0-1 0-2 .1-3.1c.1-1.1 .3-2.3 .5-3.4l1.2-.1c.2 .8 .6 1.4 1.2 1.7c.6 .4 1.3 .5 2.2 .5H1269c-.5-3.2-1.4-5.8-2.6-7.7c-1.1-1.6-2.5-3-4.3-4.1Zm-23.1 0c2.9 2.1 4.9 4.9 6.1 8.2c1.1 3.1 1.6 7.2 1.6 12.3v10.6h-14.9c-1.4 0-2.5-.3-3.3-1c-.9-.7-1.4-1.9-1.4-3.6c0-1 0-2 .1-3.1c.1-1.1 .3-2.3 .5-3.4l1.2-.1c.2 .8 .6 1.4 1.2 1.7c.6 .4 1.3 .5 2.2 .5h11.3c-.5-3.2-1.4-5.8-2.6-7.7c-1.1-1.6-2.5-3-4.3-4.1Zm-80.5-.5l7.7 4.1l-4 7.4l-7.6-4Zm-556 0l7.6 4.1l-3.9 7.4l-7.7-4Zm188.3-5.4l7.6 4l-3.9 7.4l-7.7-4Zm-553.3-1.3c2.6 0 4.9 .8 6.7 2.3c1.9 1.5 2.8 3.4 2.8 5.9c0 1.3-.4 2.5-1.2 3.6c-.9 1.1-2.1 1.7-3.5 1.7c-1 0-2-.4-2.7-1.1c-.7-.7-1.1-1.6-1.1-2.5c0-1.5 .6-2.6 1.8-3.4c1.2-.7 1.8-1.3 1.8-1.8c0-.8-.3-1.4-1-1.8c-.7-.5-1.6-.7-2.8-.7c-1.4 0-2.6 .4-3.5 1.2c-.9 .8-1.3 1.8-1.3 2.9c0 1.1 .4 2.5 1.4 4.1c1.4 2.6 2.2 4.2 2.5 5c.9 2.3 1.4 4.8 1.4 7.4c0 1.5-.1 3.1-.3 4.9h-2c0-.4 0-.7 0-1l.2-1.7c0-1.2-.8-2.5-2.5-4c-2.7-2.4-4.2-3.8-4.5-4.1c-1.6-2-2.5-4.2-2.5-6.6c0-2.9 1-5.4 3-7.4c2-1.9 4.4-2.9 7.3-2.9Zm468.1-.2l6.1 3.3l-3.4 6.4l-4.8-2.4l-2.8 5.3l-6-3.3l3.6-6.7l4.7 2.6Zm-176.8 0l6 3.3l-3.6 6.7l-4.7-2.6l-2.6 5.2l-6.1-3.3l3.4-6.4l4.9 2.4Zm885.2-1.4c1.2 1.7 2.1 3.5 2.6 5.2c.6 2 .9 4.5 .9 7.6V317c0 4.5 .3 7.7 .9 9.5c.5 1.4 1.3 2.1 2.3 2.1h8.8c2 0 3.6-.2 4.7-.7c1.5-.6 2.5-1.7 3.1-3.2c1.3-2.8 2.9-5.1 4.8-6.8c1.7-1.6 3.2-2.4 4.4-2.4c1.1 0 2.5 1.6 4.1 5c1.8 3.6 2.6 6.9 2.6 9.9v7.1c-2.3 0-5-.4-8.1-1.3c-2.7-.8-5.1-1.7-7.2-2.8c-1.3 1.9-2.8 3.1-4.7 3.7c-.9 .3-2.1 .5-3.7 .5H1423c-2.5 0-4.4-1.1-5.5-3.2c-1.3-2.3-1.9-6.2-1.9-11.7v-9.4c0-2.1-.3-3.8-.9-4.9c-.3-.6-1-1.4-2-2.5Zm-29.6 0l2 11.6c.7 4.4 1.2 8.3 1.5 11.5c.2 2.5 .3 4.9 .3 7.2c0 2-.2 3.7-.7 5.3c-.4 1.6-1.3 3.8-2.6 6.5l-2-.8c.5-2.8 .8-5 .8-6.8c0-1.3-.1-3.3-.3-5.9c-.3-2.5-.5-5.1-.9-7.6c-.3-2.6-.8-5.6-1.6-9.1c-.2-1.2-.4-2.1-.4-2.5c0-.7 .4-1.9 1-3.5c.7-1.6 1.7-3.6 2.9-5.9Zm-415.1 0l1.9 11.6c.8 4.4 1.3 8.3 1.6 11.5c.2 2.5 .3 4.9 .3 7.2c0 2-.2 3.7-.7 5.3c-.5 1.6-1.4 3.8-2.7 6.5l-1.9-.8c.5-2.8 .8-5 .8-6.8c0-1.3-.1-3.3-.4-5.9c-.2-2.5-.5-5.1-.8-7.6c-.3-2.6-.9-5.6-1.6-9.1c-.3-1.2-.4-2.1-.4-2.5c0-.7 .3-1.9 1-3.5c.7-1.6 1.7-3.6 2.9-5.9Zm-409.8 0l2 11.6c.7 4.4 1.2 8.3 1.5 11.5c.2 2.5 .3 4.9 .3 7.2c0 2-.2 3.7-.7 5.3c-.4 1.6-1.3 3.8-2.6 6.5l-2-.8c.5-2.8 .8-5 .8-6.8c0-1.3-.1-3.3-.3-5.9c-.2-2.5-.5-5.1-.8-7.6c-.4-2.6-.9-5.6-1.7-9.1c-.2-1.2-.4-2.1-.4-2.5c0-.7 .4-1.9 1.1-3.5c.7-1.6 1.6-3.6 2.8-5.9Zm-140.2 0l1.9 11.6c.8 4.4 1.3 8.3 1.6 11.5c.2 2.5 .3 4.9 .3 7.2c0 2-.2 3.7-.7 5.3c-.5 1.6-1.4 3.8-2.7 6.5l-1.9-.8c.5-2.8 .8-5 .8-6.8c0-1.3-.2-3.3-.4-5.9c-.2-2.5-.5-5.1-.8-7.6c-.3-2.6-.9-5.6-1.6-9.1c-.3-1.2-.4-2.1-.4-2.5c0-.7 .3-1.9 1-3.5c.7-1.6 1.7-3.6 2.9-5.9Zm929.4-2.5l1.5 .7c-.1 .3-.2 .6-.2 1c0 .9 .5 1.6 1.4 2.2c1.3 .7 2.6 1.4 3.8 2.1c-.3 1.9-.5 3.2-.8 4c-.2 .8-.7 2.1-1.5 3.7l-1-.4c0 .3 .4 2.2 1 5.6c.6 3.4 1.1 6.3 1.6 8.8c.4 2.7 .7 4.5 .8 5.6v.1h17.6c0-1.9-.1-3.2-.2-4c-.2-1.3-.5-2.4-1.1-3.3c-.7 1.4-1.6 2.4-2.8 3.1c-1.2 .7-2.4 1.1-3.8 1.1c-1.7 0-3.2-.6-4.4-1.7c-1.2-1.2-1.8-2.6-1.8-4.4c0-2.6 .8-5.7 2.4-9.2c1.7-3.9 3.4-5.9 5.2-5.9c2.3 0 4.5 2 6.5 6.1c2 4 3.1 8.2 3.1 12.7v14.5h-20.7v.4c-.4 2.9-2.1 5.4-5.2 7.7c-3.5 2.6-7.5 3.9-12 3.9c-3.7 0-6.6-.9-8.7-2.8c-2.2-1.9-3.2-4.6-3.2-8c0-3.1 .4-5.9 1.2-8.3c.9-2.6 2.6-5.9 5.2-9.8l2.1 1.4c-1.8 2.6-3 4.8-3.7 6.7c-.7 1.8-1.1 3.7-1.1 5.6c0 2 .8 3.5 2.3 4.6c1.4 1.1 3.5 1.6 6.2 1.6c3.9 0 7-.7 9.4-2.2c2.4-1.5 3.6-3.5 3.6-5.9c0-.4 0-.7 0-.9c0-.3 0-.5 0-.6c0-.9-.1-1.8-.2-2.8c-.1-1.1-.5-3.2-1.1-6.4c-.9-5.2-1.9-10.4-2.8-15.6l-1.7-1.2c0-2.1 1-5.4 3.1-9.8Zm-410.4-.1l1.5 .8c0 .1 0 .5-.1 1c0 .7 .4 1.4 1.4 2.1c.8 .6 2.1 1.3 3.8 2.1c-.2 1.4-.5 2.7-.8 4.1c-.4 1.3-.8 2.5-1.3 3.5l-1.2-.4l3.6 20.3h11.8l-4-22.3l-2.1-1.4c0-1.3 .2-2.6 .6-3.9c.5-1.6 1.4-3.6 2.6-5.9l1.5 .8c0 .1-.1 .5-.2 1c0 .7 .5 1.4 1.4 2.1c.8 .6 2.1 1.3 3.9 2.1c-.2 1.4-.5 2.7-.9 4.1c-.3 1.3-.8 2.5-1.3 3.5l-1.1-.4l3.5 20.3v9H905.3c-2.6 0-4.4-1.1-5.6-3.2c-1.2-2.3-1.9-6.2-1.9-11.7v-9.4c0-2.1-.3-3.8-.9-4.9c-.2-.6-.9-1.4-1.9-2.5l3.5-8.2c1.3 1.7 2.2 3.5 2.7 5.2c.6 2 .9 4.5 .9 7.6V317c0 4.5 .3 7.7 .9 9.5c.5 1.4 1.2 2.1 2.3 2.1h8.2c1 0 2 .1 2.9 .2c2.4 .2 5.1 .5 8.2 .8c-3.3-.7-5.5-1.6-6.8-2.8c-1.3-1.2-2-3-2-5.2c0-3.4 .8-6.5 2.3-9.2c1.6-2.8 3.4-4.1 5.3-4.1c2.2 0 4.2 1.9 5.8 5.7c1.7 3.9 2.5 8.5 2.5 13.9v.7h11.8l-3.9-22.3l-2.2-1.4c0-1.3 .2-2.6 .6-3.9c.5-1.6 1.4-3.6 2.6-5.9Zm-129.2 0l1.5 .8c0 .1-.1 .5-.2 1c0 .7 .5 1.4 1.4 2.1c.8 .6 2.1 1.3 3.9 2.1c-.2 1.4-.5 2.7-.9 4.1c-.4 1.3-.8 2.5-1.3 3.5l-1.2-.4l3.6 20.3h15c-.2-1.5-.7-2.7-1.3-3.7c-.3-.6-1.1-1.6-2.3-3l2.6-7.8c1.7 1.8 2.8 3.8 3.4 5.8c.6 2.1 .9 5.1 .9 9.1v8.6H802.4v.7c0 1.4-.8 3.1-2.3 5.3c-1.5 2.2-3.3 4.1-5.4 5.8c-2.3 1.8-4.2 2.6-5.8 2.6c-2 0-4-.5-6.2-1.6c-2-.9-5-2.8-9.1-5.6l1.4-2.1c2 1.3 3.6 2.2 4.8 2.7c1.2 .4 2.5 .7 3.9 .7c1.5 0 3-.5 4.5-1.3c1.5-.9 3.6-2.5 6.2-4.8c3.6-3.2 5.5-5.7 5.5-7.5c0-.8-.4-2-1.1-3.4c-.8-1.6-1.8-3-2.9-4l1.8-8.9c1.5 1.5 2.7 3.3 3.5 5.3c.8 2 1.2 4.2 1.2 6.8v.3h11.9l-4-22.3l-2.1-1.4c0-1.3 .2-2.6 .6-3.9c.5-1.6 1.4-3.6 2.6-5.9Zm-87.9 0l1.6 .8c0 .1-.1 .5-.2 1c0 .7 .5 1.4 1.4 2.1c.8 .6 2.1 1.3 3.9 2.1c-.2 1.4-.5 2.7-.9 4.1c-.4 1.3-.8 2.5-1.3 3.5l-1.2-.4l3.6 20.3v9H671.8l-.1 .5c-.6 2.8-2.1 5.6-4.5 8.4c-3.2 3.7-6.3 5.5-9.4 5.5c-1.8 0-3.8-.6-6-1.8c-2.2-1.1-5.5-3.4-9.9-6.8l1.3-1.9c2.4 1.5 4.3 2.6 5.9 3.1c1.2 .5 2.6 .7 4.2 .7c2.1 0 4.2-.6 6.3-1.8c2.5-1.4 5-3.6 7.6-6.8c-.9 .2-1.7 .2-2.3 .2c-2.1 0-3.9-.7-5.1-2.1c-1.3-1.4-2-3.3-2-5.7c0-3.3 .8-6.5 2.3-9.5c1.6-3.3 3.5-5 5.6-5c1.8 0 3.3 1.2 4.5 3.6c1.2 2.4 1.8 5.2 1.8 8.6v1.8h19.1c-.8-1-1.7-1.9-2.5-2.7c-.6-.6-1.5-1.3-2.6-2.2c-1.3-1-2.5-1.9-3.8-2.9l-1 1.2c-1.9-1.9-3.1-3.1-3.5-3.5c-1.1-1.3-1.6-2.7-1.6-4.3c0-2.2 .1-3.8 .4-4.7c.5-1.3 1.4-2.4 2.8-3.4c1.3-.9 2.7-1.6 4.1-2.4c1.1-.5 2.6-1.2 4.5-2c.9-.3 2.8-1 5.6-2.1v7.8c-.1 0-1 .3-2.8 .8c-2.1 .7-3.8 1.3-5.1 1.9c-1.8 .7-2.8 1.3-2.8 1.6c0 .2 .8 1.1 2.4 2.6c2.1 2.1 3.9 4 5.3 5.7c2.4 2.8 4.4 5.6 5.8 8.4v.2h15c-.3-1.5-.7-2.7-1.3-3.7c-.4-.6-1.1-1.6-2.3-3l2.6-7.8c1.6 1.8 2.8 3.8 3.4 5.8c.5 1.8 .8 4.3 .9 7.6v1.1h11.9l-4-22.3l-2.1-1.4c0-1.3 .2-2.6 .6-3.9c.5-1.6 1.3-3.6 2.5-5.9Zm-176.9 0l1.5 .8c0 .1 0 .5-.1 1c0 .7 .5 1.4 1.4 2.1c.8 .6 2.1 1.3 3.9 2.1c-.2 1.4-.5 2.7-.9 4.1c-.4 1.3-.8 2.5-1.3 3.5l-1.2-.4l3.6 20.3v9H517.1v-.2l-.4-.1c-1.6-.2-3.4-.5-5.4-1.1c-2.7-.8-5.1-1.7-7.2-2.8c-1.3 1.9-2.8 3.1-4.7 3.7c-.9 .3-2.1 .5-3.7 .5h-8.8c-2.5 0-4.4-1.1-5.5-3.2c-1.3-2.3-1.9-6.2-1.9-11.7v-9.4c0-2.1-.3-3.8-.9-4.9c-.3-.6-1-1.4-2-2.5l3.6-8.2c1.2 1.7 2.1 3.5 2.6 5.2c.6 2 .9 4.5 .9 7.6V317c0 4.5 .3 7.7 .9 9.5c.5 1.4 1.3 2.1 2.3 2.1h8.8c2 0 3.6-.2 4.7-.7c1.5-.6 2.5-1.7 3.1-3.2c1.3-2.8 2.9-5.1 4.8-6.8c1.7-1.6 3.2-2.4 4.4-2.4c1.1 0 2.5 1.6 4.1 5c1.3 2.7 2.2 5.2 2.5 7.6v.5h15.1c-.3-1.5-.7-2.7-1.3-3.7c-.4-.6-1.1-1.6-2.4-3l2.7-7.8c1.6 1.8 2.7 3.8 3.3 5.8c.6 1.8 .9 4.3 .9 7.6v1.1h11.9l-3.9-22.3l-2.1-1.4c0-1.3 .2-2.6 .6-3.9c.5-1.6 1.3-3.6 2.5-5.9Zm-140.2 0l1.5 .8c0 .1-.1 .5-.2 1c0 .7 .5 1.4 1.4 2.1c.8 .6 2.1 1.3 3.9 2.1c-.2 1.4-.5 2.7-.9 4.1c-.3 1.3-.8 2.5-1.3 3.5l-1.1-.4l3.5 20.3v9h-18v-.2l-.4-.1c-1.7-.2-3.4-.5-5.4-1.1c-2.7-.8-5.1-1.7-7.2-2.8c-1.3 1.9-2.9 3.1-4.7 3.7c-.9 .3-2.1 .5-3.7 .5H343.2c-2.6 0-4.4-1.1-5.6-3.2c-1.2-2.3-1.9-6.2-1.9-11.7v-9.4c0-2.1-.3-3.8-.9-4.9c-.2-.6-.9-1.4-1.9-2.5l3.5-8.2c1.3 1.7 2.2 3.5 2.7 5.2c.6 2 .9 4.5 .9 7.6V317c0 4.5 .3 7.7 .9 9.5c.5 1.4 1.2 2.1 2.3 2.1h8.2c1 0 2 .1 2.9 .2c2.4 .2 5.1 .5 8.2 .8c-3.3-.7-5.5-1.6-6.8-2.8c-1.3-1.2-2-3-2-5.2c0-3.4 .8-6.5 2.3-9.2c1.6-2.8 3.4-4.1 5.3-4.1c2.2 0 4.2 1.9 5.8 5.7c1.7 3.9 2.5 8.5 2.5 13.9v.7h4.2c2 0 3.5-.2 4.7-.7c1.5-.6 2.5-1.7 3.1-3.2c1.2-2.8 2.8-5.1 4.8-6.8c1.7-1.6 3.2-2.4 4.4-2.4c1.1 0 2.5 1.6 4.1 5c1.3 2.7 2.1 5.2 2.5 7.6v.5h11.9l-4-22.3l-2.1-1.4c0-1.3 .2-2.6 .6-3.9c.5-1.6 1.4-3.6 2.6-5.9Zm-99.6 0l1.5 .8c0 .1 0 .5-.1 1c0 .7 .5 1.4 1.4 2.1c.8 .6 2.1 1.3 3.9 2.1c-.2 1.4-.5 2.7-.9 4.1c-.4 1.3-.8 2.5-1.3 3.5l-1.2-.4l3.6 20.3h15c-.3-1.5-.7-2.7-1.3-3.7c-.4-.6-1.1-1.6-2.4-3l2.7-7.8c1.6 1.8 2.7 3.8 3.3 5.8c.7 2.1 1 5.1 1 9.1v8.6H293.7c-.8 0-1.5-.2-2.2-.5c-1.3-.7-2.3-1.8-3.2-3.5c-1.2-2.3-2-5.5-2.3-9.5c-1.5 1.8-2.7 3.1-3.5 3.9c-1.2 1.1-2.2 1.6-3 1.6c-.4 0-1 0-1.6-.1l-4-.8c-1.7-.4-2.8-.6-3.2-.8c-.4-.1-.6-.4-.6-.8c0-.6 .8-2.5 2.3-5.6c1.6-3.2 2.7-5.1 3.3-5.8c.6-.6 1.6-1.4 3-2.4c.8-.5 2-1.3 3.5-2.2l1.8-1c-.1-.3-.2-.6-.2-.9c0-.3 0-.6 0-.9c0-.8 .1-1.9 .5-3.1c.4-1.3 1.1-2.9 2.1-4.7l3.1 20.5c.5 3.2 1.2 5.4 2 6.5c.5 .8 1.3 1.1 2.2 1.1h16l-3.9-22.3l-2.1-1.4c0-1.3 .2-2.6 .6-3.9c.5-1.6 1.3-3.6 2.5-5.9Zm614.7-.4l6.1 3.3l-3.4 6.4l-4.9-2.4l-2.7 5.3l-6-3.3l3.6-6.7l4.7 2.6Zm-562.1 0l6.1 3.3l-3.4 6.4l-4.9-2.4l-2.7 5.3l-6-3.3l3.6-6.7l4.7 2.6Zm165.2-3.2l6.1 3.2l-3.2 6.8l-6.2-3.3Zm844.5-1.1l6.1 3.4l-3.4 6.3l-4.9-2.4l-2.8 5.3l-5.9-3.3l3.6-6.7l4.6 2.6Zm-1084.6-2l5.9 3.1l-3.6 6.1l-4.7-2.6l-2.6 5.2l-6.1-3.4l3.4-5.8l4.8 2.5Zm1103.3-.2c.4 0 .7 .2 1 .5c.2 .2 .3 .6 .3 1c0 .4 0 .7-.1 .9c-.1 .3-.3 .7-.6 1.2c-1.1-.6-1.8-.8-2.2-.8c-.4 0-.8 0-1.2 .2c-.3 .2-.5 .3-.8 .6c0 .3 .6 .7 1.6 1.3c1.1 .6 1.8 .9 2.3 .9c.3 0 1.1-.2 2.4-.5c-.3 .6-.6 1.1-.9 1.4c-.2 .3-.6 .5-1.1 .6l-7.1 2.2c.4-.8 .8-1.4 1.1-1.6c.4-.3 1-.6 1.8-.9c-.6-.3-1-.7-1.3-1.1c-.3-.3-.4-.6-.4-.9c0-.3 .1-.7 .2-1c.2-.4 .4-.7 .7-1.1c1.4-1.9 2.9-2.9 4.3-2.9Z" class="g0_27"/>
<path d="M1078 340.3l7.6 4.1l-3.9 7.4l-7.7-4Zm-58.2 0l7.7 4.1l-4 7.4l-7.7-4Zm-698.8 0l7.6 4.1l-3.9 7.4l-7.7-4Zm508.8-.3l6.2 3.4l-3.5 6.3l-4.8-2.4l-2.8 5.3l-6-3.3l3.7-6.7l4.6 2.6ZM635 340l6.1 3.4l-3.4 6.3l-4.9-2.4l-2.8 5.3l-5.9-3.3l3.6-6.7l4.6 2.6ZM239.3 329.8c1.1 0 2.1 .4 2.9 1.2c.7 .8 1.1 1.8 1.1 2.9c0 1.1-.4 2.1-1.2 2.9c-.8 .8-1.8 1.2-2.9 1.2c-1.1 0-2-.4-2.8-1.2c-.8-.8-1.2-1.8-1.2-2.9c0-1.1 .4-2.1 1.2-2.9c.8-.8 1.8-1.2 2.9-1.2Zm823.6-6.5c-.7 0-1.2 .3-1.6 .8c-.4 .6-.6 1.2-.6 1.8c0 .8 .4 1.4 1.3 2c.8 .5 2 .7 3.4 .7h1.2c-.6-3.5-1.8-5.3-3.7-5.3Zm-398.6 0c-.6 0-1.2 .3-1.6 .8c-.4 .6-.6 1.2-.6 1.8c0 .8 .4 1.4 1.3 2c.9 .5 2 .7 3.4 .7h1.3c-.6-3.5-1.9-5.3-3.8-5.3Zm781-.2c-.9 0-1.6 1-2.2 3c1.1 .4 2 .8 2.6 1c1.8 .6 2.8 1 3 1c.5 0 .7-.2 .7-.5c0-.5-.5-1.3-1.4-2.5c-1.1-1.3-2-2-2.7-2Zm-248.3 0c-.8 0-1.5 1-2.1 3c1.1 .4 2 .8 2.6 1c1.7 .6 2.7 1 2.9 1c.5 0 .8-.2 .8-.5c0-.5-.5-1.3-1.5-2.5c-1-1.3-1.9-2-2.7-2Zm-687.8 0c-.9 0-1.6 1-2.2 3c1.1 .4 2 .8 2.6 1c1.8 .6 2.8 1 3 1c.5 0 .7-.2 .7-.5c0-.5-.5-1.3-1.4-2.5c-1.1-1.3-2-2-2.7-2Zm-122 0c-.8 0-1.5 1-2.1 3c1.1 .4 2 .8 2.6 1c1.7 .6 2.7 1 3 1c.4 0 .7-.2 .7-.5c0-.5-.5-1.3-1.4-2.5c-1.1-1.3-2-2-2.8-2Zm375-4.9c1.5 0 3.1 .9 4.9 2.5c1.8 1.7 3.9 4.4 6.2 7.9v9l-4.2-.1c-4 0-7.6 .4-10.7 1.1c-3.1 .6-4.6 1.4-4.6 2.3c.8 2.6 1.6 5.1 2.3 7.4c.7 2.3 1 4.4 1 6.5c0 1.5-.2 2.7-.5 3.6c-.3 .9-.8 2-1.6 3c-.3-2.8-.8-5.9-1.6-9c-.3-1.2-1-3.5-2.2-7.1c-.7-2.2-1-3.7-1-4.4c0-1 .3-2.3 .8-3.9c.5-1.2 1-2.3 1.6-3.3c.7-1.1 1.9-1.9 3.7-2.6c1.7-.6 4.4-1.1 7.9-1.5c-1.7-2.5-3.2-3.7-4.6-3.7c-.5 0-1.1 .2-1.6 .7c-.5 .4-1.3 1.4-2.4 2.9l-1.6-.8c1-3.4 2.1-6 3.6-7.8c1.4-1.8 2.9-2.7 4.6-2.7Zm159.5-.3c-.4 0-.8 .2-1.1 .5c-.4 .3-.5 .6-.5 1c0 .9 .7 1.8 2.1 2.7c1.4 .9 3.1 1.5 5 1.8c-.8-1.9-1.6-3.3-2.6-4.4c-1-1-1.9-1.6-2.9-1.6Zm-562.1 0c-.4 0-.8 .2-1.1 .5c-.4 .3-.5 .6-.5 1c0 .9 .7 1.8 2.1 2.7c1.4 .9 3.1 1.5 5 1.8c-.8-1.9-1.6-3.3-2.6-4.4c-1-1-1.9-1.6-2.9-1.6ZM471 316.2c1.5 1.5 2.7 3.3 3.5 5.3c.8 2 1.2 4.2 1.2 6.8v10c0 1.4-.8 3.1-2.3 5.3c-1.5 2.2-3.3 4.1-5.4 5.8c-2.3 1.8-4.2 2.6-5.8 2.6c-2 0-4-.5-6.2-1.6c-2-.9-5-2.8-9.1-5.6l1.4-2.1c2 1.3 3.6 2.2 4.8 2.7c1.2 .4 2.5 .7 3.9 .7c1.5 0 3-.5 4.5-1.3c1.5-.9 3.6-2.5 6.2-4.8c3.6-3.2 5.5-5.7 5.5-7.5c0-.8-.4-2-1.1-3.4c-.8-1.6-1.8-3-2.9-4Zm729.6-.7c1.1 0 2.5 1.6 4.1 5c1.7 3.6 2.6 6.9 2.6 9.9v7.1c-2.3 0-5-.4-8.1-1.3c-2.8-.8-5.1-1.7-7.2-2.8c-1.3 1.9-2.9 3.1-4.7 3.7c-.9 .3-2.2 .5-3.7 .5h-4.3l-.1 .5c-.1 2.1-.3 3.8-.8 5.1c-.6 1.9-1.6 3.3-2.9 4.4c-1.3 1.2-3.3 2.1-5.9 2.8c-2.6 .7-5.3 1.1-8 1.1c-5.4 0-9.5-1-12.3-3c-2.9-1.9-4.4-4.6-4.4-8.2c0-3.1 .5-5.8 1.4-8.4c1-2.7 3-6.3 5.9-10.8l2 1.4c-2.2 3.7-3.6 6.4-4.3 8c-.6 1.7-1 3.4-1 5.2c0 2.3 1.3 4.2 3.7 5.6c2.5 1.5 5.7 2.2 9.7 2.2c4 0 7.3-.7 10-2.3c2.7-1.5 4-3.3 4-5.5c0-1.4-.2-2.7-.7-4.1c-.4-1.3-1.4-3.4-3-6.4l2.9-8.8c1.5 2.8 2.5 4.7 2.8 5.7c.6 1.7 .9 3.7 1 6.2v.3h4.3c2 0 3.5-.2 4.7-.7c1.5-.6 2.5-1.7 3.1-3.2c1.2-2.8 2.8-5.1 4.8-6.8c1.7-1.6 3.2-2.4 4.4-2.4Zm-916.1-.4c-.7 .3-1.2 .6-1.6 .8c-1.2 .6-2.2 1.2-2.9 1.7c-.5 .5-1 .9-1.3 1.2c-.4 .5-.7 .9-.7 1.1c0 .3 .4 .6 1.2 .8c.8 .1 1.5 .2 2.2 .2c.5 0 1-.1 1.6-.4c.5-.3 1.2-.8 2.2-1.5Zm718.3-.8l1.9 1.2c-.5 .8-.9 1.6-1.3 2.4c-.3 .7-.5 1.3-.7 1.8c-.3 1-.5 2-.5 3c0 1.2 .4 2.4 1.2 3.4c.8 1 1.9 1.6 3.2 1.9c.7 .2 1.7 .4 2.9 .5c1.3 .1 2.6 .1 4 .1h23.7c-.6-1.7-1.1-2.9-1.5-3.5c-.5-.9-1.2-1.9-2.2-3.2l2.9-7.6c1.7 2.3 2.7 4.5 3.2 6.4c.5 1.8 .7 4.3 .7 7.6v9.3h-27.6c-1.3 0-2.4-.1-3.3-.1c-.9 0-1.5 0-2-.1c-.8-.1-1.7-.3-2.7-.7c-1.9-.6-3.3-1.8-4.5-3.7c-1.1-1.9-1.7-4-1.7-6.3c0-.9 0-1.9 .1-2.8c.2-1 .4-2 .8-3.1c.4-1.3 1-2.5 1.6-3.6c.6-1 1.2-2 1.8-2.9Zm-365.5-.2c1.7 1.8 2.8 3.8 3.4 5.8c.6 2.1 .9 5.1 .9 9.1v8.6H623.2v.5c-.1 2.1-.4 3.8-.8 5.1c-.6 1.9-1.6 3.3-2.9 4.4c-1.4 1.2-3.4 2.1-6 2.8c-2.6 .7-5.2 1.1-8 1.1c-5.3 0-9.4-1-12.3-3c-2.9-1.9-4.3-4.6-4.3-8.2c0-3.1 .4-5.8 1.4-8.4c1-2.7 3-6.3 5.9-10.8l2 1.4c-2.2 3.7-3.6 6.4-4.3 8c-.7 1.7-1 3.4-1 5.2c0 2.3 1.2 4.2 3.7 5.6c2.5 1.5 5.7 2.2 9.7 2.2c3.9 0 7.3-.7 10-2.3c2.6-1.5 4-3.3 4-5.5c0-1.4-.2-2.7-.7-4.1c-.5-1.3-1.5-3.4-3-6.4l2.8-8.8c1.6 2.8 2.5 4.7 2.9 5.7c.5 1.7 .9 3.7 .9 6.2v.3h15.1c-.2-1.5-.7-2.7-1.3-3.7c-.3-.6-1.1-1.6-2.3-3Zm465-.6c1.5 0 2.8 .3 4.2 1c1.3 .7 2.8 1.9 4.5 3.4c1.3 1.2 3.1 3.2 5.6 5.8c1.6 1.8 2.9 3 3.7 3.6c.9 .5 2.2 1 3.9 1.3v9h-53.9v.5c-.6 2.8-2.1 5.6-4.5 8.4c-3.2 3.7-6.4 5.5-9.5 5.5c-1.8 0-3.8-.6-5.9-1.8c-2.2-1.1-5.5-3.4-10-6.8l1.4-1.9c2.4 1.5 4.3 2.6 5.8 3.1c1.3 .5 2.7 .7 4.3 .7c2.1 0 4.2-.6 6.3-1.8c2.4-1.4 5-3.6 7.6-6.8c-.9 .2-1.7 .2-2.3 .2c-2.2 0-3.9-.7-5.2-2.1c-1.3-1.4-1.9-3.3-1.9-5.7c0-3.3 .7-6.5 2.3-9.5c1.6-3.3 3.5-5 5.6-5c1.7 0 3.2 1.2 4.5 3.6c1.2 2.4 1.8 5.2 1.8 8.6v1.8h15.1c-.3-1.5-.7-2.7-1.4-3.7c-.3-.6-1.1-1.6-2.3-3l2.7-7.8c1.6 1.8 2.7 3.8 3.3 5.8c.6 1.8 .8 4.3 .9 7.6v1.1h21.2c-2.7-2.7-5.2-4.7-7.4-5.9c-2-1.1-3.9-1.6-5.8-1.6c-.6 0-1.1 0-1.6 .1c-.5 0-1.2 .2-2.1 .4c1.2-2.8 2.6-4.8 4.1-6.1c1.4-1.4 3.1-2 5-2Zm265.8-.8c-.6 0-1.2 .3-1.8 .9c-.5 .6-.7 1.3-.7 2.1c0 .5 .2 .9 .6 1.2c.4 .4 .9 .5 1.5 .5c.5 0 1-.1 1.6-.4c.5-.3 1.1-.8 1.8-1.5c-.5-1.1-1.1-1.8-1.5-2.2c-.5-.4-1-.6-1.5-.6Zm-499.5-1c1 0 2.6 .1 5 .3c2.2 .3 4.3 .5 6 .6c3.4 .2 6.6 .3 9.9 .3l-2 8.1c-8.4 1-14.8 3-19.2 6c-4.4 3-6.6 6.8-6.6 11.5c0 4.4 1.8 7.8 5.4 10.1c3.7 2.3 8.9 3.4 15.7 3.4c.2 0 1.8 0 4.9-.2c1.8-.2 3.3-.2 4.7-.2l.7 1.4l-12.7 7.9c-7.8 0-13.5-1.5-17.2-4.5c-3.8-3.1-5.6-7.9-5.6-14.5c0-4.5 .8-8.5 2.6-12c1.8-3.4 4.7-6.6 8.6-9.3c-2.6 0-4.9 .4-6.9 1.1c-.7 .3-2.4 1-4.9 2.2c1-8.1 4.9-12.2 11.6-12.2Zm395.8-5.2c2.9 2.1 4.9 4.9 6.1 8.2c1.1 3.1 1.6 7.2 1.6 12.3v1.6h1.3c.6 0 1.1 0 1.4 0c.7-.1 1.3-.2 1.9-.2c-1.1-1.6-1.8-3-2.2-4c-.3-1-.5-2.2-.5-3.4c0-3.3 1.3-6.1 4-8.6c2.8-2.4 5.9-3.7 9.5-3.7c2.5 0 4.8 .9 7 2.4c2 1.5 3.5 3.3 4.5 5.5l-1.4 1.1c-1.8-.6-3.1-1-4.1-1.2c-1.1-.2-2.3-.3-3.8-.3c-2.7 0-5.1 .2-7.1 .6c-2.5 .6-3.7 1.4-3.7 2.4c0 1.5 3 4 9.1 7.5l16.7-4.8l-3.7 9.3c-5.9 1.8-10.8 3.2-14.6 4.2c-3.4 .9-6.2 1.5-8.5 1.8c-1.7 .2-3.4 .4-5.1 .4h-15.6c-1.4 0-2.5-.3-3.3-1c-.9-.7-1.4-1.9-1.4-3.6c0-1 0-2 .1-3.1c.1-1.1 .3-2.3 .5-3.4l1.2-.1c.2 .8 .6 1.4 1.2 1.7c.6 .4 1.3 .5 2.2 .5H1269c-.5-3.2-1.4-5.8-2.6-7.7c-1.1-1.6-2.5-3-4.3-4.1Zm-23.1 0c2.9 2.1 4.9 4.9 6.1 8.2c1.1 3.1 1.6 7.2 1.6 12.3v10.6h-14.9c-1.4 0-2.5-.3-3.3-1c-.9-.7-1.4-1.9-1.4-3.6c0-1 0-2 .1-3.1c.1-1.1 .3-2.3 .5-3.4l1.2-.1c.2 .8 .6 1.4 1.2 1.7c.6 .4 1.3 .5 2.2 .5h11.3c-.5-3.2-1.4-5.8-2.6-7.7c-1.1-1.6-2.5-3-4.3-4.1Zm-80.5-.5l7.7 4.1l-4 7.4l-7.6-4Zm-556 0l7.6 4.1l-3.9 7.4l-7.7-4Zm188.3-5.4l7.6 4l-3.9 7.4l-7.7-4Zm-553.3-1.3c2.6 0 4.9 .8 6.7 2.3c1.9 1.5 2.8 3.4 2.8 5.9c0 1.3-.4 2.5-1.2 3.6c-.9 1.1-2.1 1.7-3.5 1.7c-1 0-2-.4-2.7-1.1c-.7-.7-1.1-1.6-1.1-2.5c0-1.5 .6-2.6 1.8-3.4c1.2-.7 1.8-1.3 1.8-1.8c0-.8-.3-1.4-1-1.8c-.7-.5-1.6-.7-2.8-.7c-1.4 0-2.6 .4-3.5 1.2c-.9 .8-1.3 1.8-1.3 2.9c0 1.1 .4 2.5 1.4 4.1c1.4 2.6 2.2 4.2 2.5 5c.9 2.3 1.4 4.8 1.4 7.4c0 1.5-.1 3.1-.3 4.9h-2c0-.4 0-.7 0-1l.2-1.7c0-1.2-.8-2.5-2.5-4c-2.7-2.4-4.2-3.8-4.5-4.1c-1.6-2-2.5-4.2-2.5-6.6c0-2.9 1-5.4 3-7.4c2-1.9 4.4-2.9 7.3-2.9Zm468.1-.2l6.1 3.3l-3.4 6.4l-4.8-2.4l-2.8 5.3l-6-3.3l3.6-6.7l4.7 2.6Zm-176.8 0l6 3.3l-3.6 6.7l-4.7-2.6l-2.6 5.2l-6.1-3.3l3.4-6.4l4.9 2.4Zm885.2-1.4c1.2 1.7 2.1 3.5 2.6 5.2c.6 2 .9 4.5 .9 7.6V317c0 4.5 .3 7.7 .9 9.5c.5 1.4 1.3 2.1 2.3 2.1h8.8c2 0 3.6-.2 4.7-.7c1.5-.6 2.5-1.7 3.1-3.2c1.3-2.8 2.9-5.1 4.8-6.8c1.7-1.6 3.2-2.4 4.4-2.4c1.1 0 2.5 1.6 4.1 5c1.8 3.6 2.6 6.9 2.6 9.9v7.1c-2.3 0-5-.4-8.1-1.3c-2.7-.8-5.1-1.7-7.2-2.8c-1.3 1.9-2.8 3.1-4.7 3.7c-.9 .3-2.1 .5-3.7 .5H1423c-2.5 0-4.4-1.1-5.5-3.2c-1.3-2.3-1.9-6.2-1.9-11.7v-9.4c0-2.1-.3-3.8-.9-4.9c-.3-.6-1-1.4-2-2.5Zm-29.6 0l2 11.6c.7 4.4 1.2 8.3 1.5 11.5c.2 2.5 .3 4.9 .3 7.2c0 2-.2 3.7-.7 5.3c-.4 1.6-1.3 3.8-2.6 6.5l-2-.8c.5-2.8 .8-5 .8-6.8c0-1.3-.1-3.3-.3-5.9c-.3-2.5-.5-5.1-.9-7.6c-.3-2.6-.8-5.6-1.6-9.1c-.2-1.2-.4-2.1-.4-2.5c0-.7 .4-1.9 1-3.5c.7-1.6 1.7-3.6 2.9-5.9Zm-415.1 0l1.9 11.6c.8 4.4 1.3 8.3 1.6 11.5c.2 2.5 .3 4.9 .3 7.2c0 2-.2 3.7-.7 5.3c-.5 1.6-1.4 3.8-2.7 6.5l-1.9-.8c.5-2.8 .8-5 .8-6.8c0-1.3-.1-3.3-.4-5.9c-.2-2.5-.5-5.1-.8-7.6c-.3-2.6-.9-5.6-1.6-9.1c-.3-1.2-.4-2.1-.4-2.5c0-.7 .3-1.9 1-3.5c.7-1.6 1.7-3.6 2.9-5.9Zm-409.8 0l2 11.6c.7 4.4 1.2 8.3 1.5 11.5c.2 2.5 .3 4.9 .3 7.2c0 2-.2 3.7-.7 5.3c-.4 1.6-1.3 3.8-2.6 6.5l-2-.8c.5-2.8 .8-5 .8-6.8c0-1.3-.1-3.3-.3-5.9c-.2-2.5-.5-5.1-.8-7.6c-.4-2.6-.9-5.6-1.7-9.1c-.2-1.2-.4-2.1-.4-2.5c0-.7 .4-1.9 1.1-3.5c.7-1.6 1.6-3.6 2.8-5.9Zm-140.2 0l1.9 11.6c.8 4.4 1.3 8.3 1.6 11.5c.2 2.5 .3 4.9 .3 7.2c0 2-.2 3.7-.7 5.3c-.5 1.6-1.4 3.8-2.7 6.5l-1.9-.8c.5-2.8 .8-5 .8-6.8c0-1.3-.2-3.3-.4-5.9c-.2-2.5-.5-5.1-.8-7.6c-.3-2.6-.9-5.6-1.6-9.1c-.3-1.2-.4-2.1-.4-2.5c0-.7 .3-1.9 1-3.5c.7-1.6 1.7-3.6 2.9-5.9Zm929.4-2.5l1.5 .7c-.1 .3-.2 .6-.2 1c0 .9 .5 1.6 1.4 2.2c1.3 .7 2.6 1.4 3.8 2.1c-.3 1.9-.5 3.2-.8 4c-.2 .8-.7 2.1-1.5 3.7l-1-.4c0 .3 .4 2.2 1 5.6c.6 3.4 1.1 6.3 1.6 8.8c.4 2.7 .7 4.5 .8 5.6v.1h17.6c0-1.9-.1-3.2-.2-4c-.2-1.3-.5-2.4-1.1-3.3c-.7 1.4-1.6 2.4-2.8 3.1c-1.2 .7-2.4 1.1-3.8 1.1c-1.7 0-3.2-.6-4.4-1.7c-1.2-1.2-1.8-2.6-1.8-4.4c0-2.6 .8-5.7 2.4-9.2c1.7-3.9 3.4-5.9 5.2-5.9c2.3 0 4.5 2 6.5 6.1c2 4 3.1 8.2 3.1 12.7v14.5h-20.7v.4c-.4 2.9-2.1 5.4-5.2 7.7c-3.5 2.6-7.5 3.9-12 3.9c-3.7 0-6.6-.9-8.7-2.8c-2.2-1.9-3.2-4.6-3.2-8c0-3.1 .4-5.9 1.2-8.3c.9-2.6 2.6-5.9 5.2-9.8l2.1 1.4c-1.8 2.6-3 4.8-3.7 6.7c-.7 1.8-1.1 3.7-1.1 5.6c0 2 .8 3.5 2.3 4.6c1.4 1.1 3.5 1.6 6.2 1.6c3.9 0 7-.7 9.4-2.2c2.4-1.5 3.6-3.5 3.6-5.9c0-.4 0-.7 0-.9c0-.3 0-.5 0-.6c0-.9-.1-1.8-.2-2.8c-.1-1.1-.5-3.2-1.1-6.4c-.9-5.2-1.9-10.4-2.8-15.6l-1.7-1.2c0-2.1 1-5.4 3.1-9.8Zm-410.4-.1l1.5 .8c0 .1 0 .5-.1 1c0 .7 .4 1.4 1.4 2.1c.8 .6 2.1 1.3 3.8 2.1c-.2 1.4-.5 2.7-.8 4.1c-.4 1.3-.8 2.5-1.3 3.5l-1.2-.4l3.6 20.3h11.8l-4-22.3l-2.1-1.4c0-1.3 .2-2.6 .6-3.9c.5-1.6 1.4-3.6 2.6-5.9l1.5 .8c0 .1-.1 .5-.2 1c0 .7 .5 1.4 1.4 2.1c.8 .6 2.1 1.3 3.9 2.1c-.2 1.4-.5 2.7-.9 4.1c-.3 1.3-.8 2.5-1.3 3.5l-1.1-.4l3.5 20.3v9H905.3c-2.6 0-4.4-1.1-5.6-3.2c-1.2-2.3-1.9-6.2-1.9-11.7v-9.4c0-2.1-.3-3.8-.9-4.9c-.2-.6-.9-1.4-1.9-2.5l3.5-8.2c1.3 1.7 2.2 3.5 2.7 5.2c.6 2 .9 4.5 .9 7.6V317c0 4.5 .3 7.7 .9 9.5c.5 1.4 1.2 2.1 2.3 2.1h8.2c1 0 2 .1 2.9 .2c2.4 .2 5.1 .5 8.2 .8c-3.3-.7-5.5-1.6-6.8-2.8c-1.3-1.2-2-3-2-5.2c0-3.4 .8-6.5 2.3-9.2c1.6-2.8 3.4-4.1 5.3-4.1c2.2 0 4.2 1.9 5.8 5.7c1.7 3.9 2.5 8.5 2.5 13.9v.7h11.8l-3.9-22.3l-2.2-1.4c0-1.3 .2-2.6 .6-3.9c.5-1.6 1.4-3.6 2.6-5.9Zm-129.2 0l1.5 .8c0 .1-.1 .5-.2 1c0 .7 .5 1.4 1.4 2.1c.8 .6 2.1 1.3 3.9 2.1c-.2 1.4-.5 2.7-.9 4.1c-.4 1.3-.8 2.5-1.3 3.5l-1.2-.4l3.6 20.3h15c-.2-1.5-.7-2.7-1.3-3.7c-.3-.6-1.1-1.6-2.3-3l2.6-7.8c1.7 1.8 2.8 3.8 3.4 5.8c.6 2.1 .9 5.1 .9 9.1v8.6H802.4v.7c0 1.4-.8 3.1-2.3 5.3c-1.5 2.2-3.3 4.1-5.4 5.8c-2.3 1.8-4.2 2.6-5.8 2.6c-2 0-4-.5-6.2-1.6c-2-.9-5-2.8-9.1-5.6l1.4-2.1c2 1.3 3.6 2.2 4.8 2.7c1.2 .4 2.5 .7 3.9 .7c1.5 0 3-.5 4.5-1.3c1.5-.9 3.6-2.5 6.2-4.8c3.6-3.2 5.5-5.7 5.5-7.5c0-.8-.4-2-1.1-3.4c-.8-1.6-1.8-3-2.9-4l1.8-8.9c1.5 1.5 2.7 3.3 3.5 5.3c.8 2 1.2 4.2 1.2 6.8v.3h11.9l-4-22.3l-2.1-1.4c0-1.3 .2-2.6 .6-3.9c.5-1.6 1.4-3.6 2.6-5.9Zm-87.9 0l1.6 .8c0 .1-.1 .5-.2 1c0 .7 .5 1.4 1.4 2.1c.8 .6 2.1 1.3 3.9 2.1c-.2 1.4-.5 2.7-.9 4.1c-.4 1.3-.8 2.5-1.3 3.5l-1.2-.4l3.6 20.3v9H671.8l-.1 .5c-.6 2.8-2.1 5.6-4.5 8.4c-3.2 3.7-6.3 5.5-9.4 5.5c-1.8 0-3.8-.6-6-1.8c-2.2-1.1-5.5-3.4-9.9-6.8l1.3-1.9c2.4 1.5 4.3 2.6 5.9 3.1c1.2 .5 2.6 .7 4.2 .7c2.1 0 4.2-.6 6.3-1.8c2.5-1.4 5-3.6 7.6-6.8c-.9 .2-1.7 .2-2.3 .2c-2.1 0-3.9-.7-5.1-2.1c-1.3-1.4-2-3.3-2-5.7c0-3.3 .8-6.5 2.3-9.5c1.6-3.3 3.5-5 5.6-5c1.8 0 3.3 1.2 4.5 3.6c1.2 2.4 1.8 5.2 1.8 8.6v1.8h19.1c-.8-1-1.7-1.9-2.5-2.7c-.6-.6-1.5-1.3-2.6-2.2c-1.3-1-2.5-1.9-3.8-2.9l-1 1.2c-1.9-1.9-3.1-3.1-3.5-3.5c-1.1-1.3-1.6-2.7-1.6-4.3c0-2.2 .1-3.8 .4-4.7c.5-1.3 1.4-2.4 2.8-3.4c1.3-.9 2.7-1.6 4.1-2.4c1.1-.5 2.6-1.2 4.5-2c.9-.3 2.8-1 5.6-2.1v7.8c-.1 0-1 .3-2.8 .8c-2.1 .7-3.8 1.3-5.1 1.9c-1.8 .7-2.8 1.3-2.8 1.6c0 .2 .8 1.1 2.4 2.6c2.1 2.1 3.9 4 5.3 5.7c2.4 2.8 4.4 5.6 5.8 8.4v.2h15c-.3-1.5-.7-2.7-1.3-3.7c-.4-.6-1.1-1.6-2.3-3l2.6-7.8c1.6 1.8 2.8 3.8 3.4 5.8c.5 1.8 .8 4.3 .9 7.6v1.1h11.9l-4-22.3l-2.1-1.4c0-1.3 .2-2.6 .6-3.9c.5-1.6 1.3-3.6 2.5-5.9Zm-176.9 0l1.5 .8c0 .1 0 .5-.1 1c0 .7 .5 1.4 1.4 2.1c.8 .6 2.1 1.3 3.9 2.1c-.2 1.4-.5 2.7-.9 4.1c-.4 1.3-.8 2.5-1.3 3.5l-1.2-.4l3.6 20.3v9H517.1v-.2l-.4-.1c-1.6-.2-3.4-.5-5.4-1.1c-2.7-.8-5.1-1.7-7.2-2.8c-1.3 1.9-2.8 3.1-4.7 3.7c-.9 .3-2.1 .5-3.7 .5h-8.8c-2.5 0-4.4-1.1-5.5-3.2c-1.3-2.3-1.9-6.2-1.9-11.7v-9.4c0-2.1-.3-3.8-.9-4.9c-.3-.6-1-1.4-2-2.5l3.6-8.2c1.2 1.7 2.1 3.5 2.6 5.2c.6 2 .9 4.5 .9 7.6V317c0 4.5 .3 7.7 .9 9.5c.5 1.4 1.3 2.1 2.3 2.1h8.8c2 0 3.6-.2 4.7-.7c1.5-.6 2.5-1.7 3.1-3.2c1.3-2.8 2.9-5.1 4.8-6.8c1.7-1.6 3.2-2.4 4.4-2.4c1.1 0 2.5 1.6 4.1 5c1.3 2.7 2.2 5.2 2.5 7.6v.5h15.1c-.3-1.5-.7-2.7-1.3-3.7c-.4-.6-1.1-1.6-2.4-3l2.7-7.8c1.6 1.8 2.7 3.8 3.3 5.8c.6 1.8 .9 4.3 .9 7.6v1.1h11.9l-3.9-22.3l-2.1-1.4c0-1.3 .2-2.6 .6-3.9c.5-1.6 1.3-3.6 2.5-5.9Zm-140.2 0l1.5 .8c0 .1-.1 .5-.2 1c0 .7 .5 1.4 1.4 2.1c.8 .6 2.1 1.3 3.9 2.1c-.2 1.4-.5 2.7-.9 4.1c-.3 1.3-.8 2.5-1.3 3.5l-1.1-.4l3.5 20.3v9h-18v-.2l-.4-.1c-1.7-.2-3.4-.5-5.4-1.1c-2.7-.8-5.1-1.7-7.2-2.8c-1.3 1.9-2.9 3.1-4.7 3.7c-.9 .3-2.1 .5-3.7 .5H343.2c-2.6 0-4.4-1.1-5.6-3.2c-1.2-2.3-1.9-6.2-1.9-11.7v-9.4c0-2.1-.3-3.8-.9-4.9c-.2-.6-.9-1.4-1.9-2.5l3.5-8.2c1.3 1.7 2.2 3.5 2.7 5.2c.6 2 .9 4.5 .9 7.6V317c0 4.5 .3 7.7 .9 9.5c.5 1.4 1.2 2.1 2.3 2.1h8.2c1 0 2 .1 2.9 .2c2.4 .2 5.1 .5 8.2 .8c-3.3-.7-5.5-1.6-6.8-2.8c-1.3-1.2-2-3-2-5.2c0-3.4 .8-6.5 2.3-9.2c1.6-2.8 3.4-4.1 5.3-4.1c2.2 0 4.2 1.9 5.8 5.7c1.7 3.9 2.5 8.5 2.5 13.9v.7h4.2c2 0 3.5-.2 4.7-.7c1.5-.6 2.5-1.7 3.1-3.2c1.2-2.8 2.8-5.1 4.8-6.8c1.7-1.6 3.2-2.4 4.4-2.4c1.1 0 2.5 1.6 4.1 5c1.3 2.7 2.1 5.2 2.5 7.6v.5h11.9l-4-22.3l-2.1-1.4c0-1.3 .2-2.6 .6-3.9c.5-1.6 1.4-3.6 2.6-5.9Zm-99.6 0l1.5 .8c0 .1 0 .5-.1 1c0 .7 .5 1.4 1.4 2.1c.8 .6 2.1 1.3 3.9 2.1c-.2 1.4-.5 2.7-.9 4.1c-.4 1.3-.8 2.5-1.3 3.5l-1.2-.4l3.6 20.3h15c-.3-1.5-.7-2.7-1.3-3.7c-.4-.6-1.1-1.6-2.4-3l2.7-7.8c1.6 1.8 2.7 3.8 3.3 5.8c.7 2.1 1 5.1 1 9.1v8.6H293.7c-.8 0-1.5-.2-2.2-.5c-1.3-.7-2.3-1.8-3.2-3.5c-1.2-2.3-2-5.5-2.3-9.5c-1.5 1.8-2.7 3.1-3.5 3.9c-1.2 1.1-2.2 1.6-3 1.6c-.4 0-1 0-1.6-.1l-4-.8c-1.7-.4-2.8-.6-3.2-.8c-.4-.1-.6-.4-.6-.8c0-.6 .8-2.5 2.3-5.6c1.6-3.2 2.7-5.1 3.3-5.8c.6-.6 1.6-1.4 3-2.4c.8-.5 2-1.3 3.5-2.2l1.8-1c-.1-.3-.2-.6-.2-.9c0-.3 0-.6 0-.9c0-.8 .1-1.9 .5-3.1c.4-1.3 1.1-2.9 2.1-4.7l3.1 20.5c.5 3.2 1.2 5.4 2 6.5c.5 .8 1.3 1.1 2.2 1.1h16l-3.9-22.3l-2.1-1.4c0-1.3 .2-2.6 .6-3.9c.5-1.6 1.3-3.6 2.5-5.9Zm614.7-.4l6.1 3.3l-3.4 6.4l-4.9-2.4l-2.7 5.3l-6-3.3l3.6-6.7l4.7 2.6Zm-562.1 0l6.1 3.3l-3.4 6.4l-4.9-2.4l-2.7 5.3l-6-3.3l3.6-6.7l4.7 2.6Zm165.2-3.2l6.1 3.2l-3.2 6.8l-6.2-3.3Zm844.5-1.1l6.1 3.4l-3.4 6.3l-4.9-2.4l-2.8 5.3l-5.9-3.3l3.6-6.7l4.6 2.6Zm-1084.6-2l5.9 3.1l-3.6 6.1l-4.7-2.6l-2.6 5.2l-6.1-3.4l3.4-5.8l4.8 2.5Zm1103.3-.2c.4 0 .7 .2 1 .5c.2 .2 .3 .6 .3 1c0 .4 0 .7-.1 .9c-.1 .3-.3 .7-.6 1.2c-1.1-.6-1.8-.8-2.2-.8c-.4 0-.8 0-1.2 .2c-.3 .2-.5 .3-.8 .6c0 .3 .6 .7 1.6 1.3c1.1 .6 1.8 .9 2.3 .9c.3 0 1.1-.2 2.4-.5c-.3 .6-.6 1.1-.9 1.4c-.2 .3-.6 .5-1.1 .6l-7.1 2.2c.4-.8 .8-1.4 1.1-1.6c.4-.3 1-.6 1.8-.9c-.6-.3-1-.7-1.3-1.1c-.3-.3-.4-.6-.4-.9c0-.3 .1-.7 .2-1c.2-.4 .4-.7 .7-1.1c1.4-1.9 2.9-2.9 4.3-2.9Z" class="g1_27"/>
<image clip-path="url(#c1_27)" preserveAspectRatio="none" x="1344" y="457" width="108" height="72" href="img/2.jpg"/>
<image clip-path="url(#c2_27)" preserveAspectRatio="none" x="1347" y="550" width="102" height="71" href="img/3.jpg"/>
<image clip-path="url(#c3_27)" preserveAspectRatio="none" x="1347" y="642" width="102" height="74" href="img/4.jpg"/>
<image clip-path="url(#c4_27)" preserveAspectRatio="none" x="1353" y="745" width="96" height="80" href="img/5.jpg"/>
<image clip-path="url(#c5_27)" preserveAspectRatio="none" x="39" y="390" width="875" height="391" href="img/6.jpg"/>
<path clip-path="url(#c0_27)" d="M1170.8 748.2c0-8.5 6.9-15.4 15.4-15.4h247.2c8.6 0 15.5 6.9 15.5 15.4v61.9c0 8.5-6.9 15.4-15.5 15.4H1186.2c-8.5 0-15.4-6.9-15.4-15.4Z" class="g2_27"/>
</svg>