<svg viewBox="0 0 1466 825" version="1.1" xmlns="http://www.w3.org/2000/svg">
<defs>
<clipPath id="c0_40"><path d="M-.2 825.3V-.2H1467V825.3Z"/></clipPath>
<clipPath id="c1_40"><path d="M1343.9 529.1V456.4H1452v72.7Z"/></clipPath>
<clipPath id="c2_40"><path d="M1346.3 621.3V549.7h102.9v71.6Z"/></clipPath>
<clipPath id="c3_40"><path d="M1346.4 716.6V641.9h103v74.7Z"/></clipPath>
<clipPath id="c4_40"><path d="M1353 825V744.6h96.2V825Z"/></clipPath>
<style>
.g0_40{fill:#F00;}
.g1_40{fill:none;stroke:#000;stroke-width:1.466;stroke-linejoin:round;}
.g2_40{fill:none;stroke:#F00;stroke-width:9.166;stroke-miterlimit:8;}
</style>
</defs>
<image clip-path="url(#c0_40)" preserveAspectRatio="none" x="0" y="-7" width="1467" height="840" href="img/1.jpg"/>
<path fill-rule="evenodd" d="M659.7 348.2l3.7 2.4l-2.9 3.3l-3.1-2l-2.4 2.5l-3.7-2l2.8-3.6l3.3 2.1ZM1263 335.6l6.9 3.7l-3.6 6.7l-6.9-3.7Zm-657.8 0l6.9 3.7l-3.6 6.7l-6.9-3.7Zm178-.3l7 3.7l-3.6 6.6l-7-3.6Zm433.6-15.4c-.6 0-1.1 .2-1.5 .7c-.3 .5-.5 1-.5 1.6c0 .7 .4 1.3 1.2 1.8c.8 .4 1.8 .7 3.1 .7h1.1c-.5-3.2-1.7-4.8-3.4-4.8Zm-179.1 0c-.6 0-1.1 .2-1.5 .7c-.3 .5-.5 1-.5 1.6c0 .7 .4 1.3 1.2 1.8c.7 .4 1.8 .7 3.1 .7h1.1c-.6-3.2-1.7-4.8-3.4-4.8Zm408.5-.2c-.8 0-1.4 .9-2 2.7c1.1 .4 1.8 .7 2.4 .9c1.6 .6 2.5 .9 2.7 .9c.4 0 .7-.2 .7-.5c0-.4-.5-1.2-1.3-2.2c-1-1.2-1.8-1.8-2.5-1.8Zm-149.2 0c-.8 0-1.5 .9-2 2.7c1 .4 1.8 .7 2.3 .9c1.7 .6 2.6 .9 2.8 .9c.4 0 .6-.2 .6-.5c0-.4-.4-1.2-1.3-2.2c-.9-1.2-1.8-1.8-2.4-1.8Zm-57.2 0c-.8 0-1.5 .9-2 2.7c1 .4 1.8 .7 2.3 .9c1.7 .6 2.6 .9 2.8 .9c.4 0 .6-.2 .6-.5c0-.4-.4-1.2-1.3-2.2c-.9-1.2-1.8-1.8-2.4-1.8Zm-387.8 0c-.8 0-1.4 .9-2 2.7c1.1 .4 1.9 .7 2.4 .9c1.6 .6 2.5 .9 2.7 .9c.4 0 .7-.2 .7-.5c0-.4-.5-1.2-1.3-2.2c-1-1.2-1.8-1.8-2.5-1.8Zm-85.6-.9c-1.3 0-2.8 .4-4.4 1.2c-1.6 .9-4 2.4-7.1 4.7h7.8c6.5 0 9.8-1.1 9.8-3.1c0-.7-.7-1.3-2.2-1.9c-1.5-.6-2.8-.9-3.9-.9Zm289-3.8c-.4 0-.8 .1-1.1 .4c-.3 .2-.4 .5-.4 .9c0 .8 .6 1.7 1.9 2.5c1.3 .8 2.8 1.3 4.6 1.6c-.7-1.7-1.5-3-2.4-4c-.9-.9-1.8-1.4-2.6-1.4Zm-84.6 0c-.4 0-.7 .1-1 .4c-.3 .2-.4 .5-.4 .9c0 .8 .6 1.7 1.9 2.5c1.3 .8 2.8 1.3 4.6 1.6c-.8-1.7-1.6-3-2.4-4c-.9-.9-1.8-1.4-2.7-1.4Zm-421.7-1.7c1.1 0 2 .5 2.7 1.4c.7 .9 1 2.1 1 3.6c0 1.1-.1 2-.3 2.7c-.2 .7-.7 1.6-1.4 2.8c-.6-1.4-1-2.3-1.4-2.8c-.3-.4-.9-.6-1.6-.6c-1 0-2.5 .6-4.4 1.8c-1.9 1.3-2.8 2.3-2.8 3.1c0 .5 .4 .8 1.1 .9c.6 .2 1.4 .2 2.5 .2c.3 0 .6 0 .9 0c.3 0 .6 0 .9 0c2.2 0 3.6 .2 4.3 .7c.6 .3 .9 1.1 .9 2.2c0 2.1-.4 4.2-1.1 6.1c-1 2.5-2.5 4.3-4.4 5.3c-2.3 1.4-4.8 2.4-7.4 3.2c-2.5 .9-4.9 1.3-7.1 1.3c-6.2 0-9.3-2.8-9.3-8.3c0-2.9 .4-5.3 1.1-7.3c.8-2.3 2.4-5.3 4.9-9.2l1.4 .9c-1.5 2.5-2.6 4.7-3.3 6.6c-.8 2-1.1 3.7-1.1 5.1c0 3.8 2.1 5.6 6.3 5.6c1.6 0 3.1-.1 4.5-.4c1.5-.3 2.9-.7 4.4-1.2c.9-.3 2-.8 3.3-1.3c1.9-.9 3-1.3 3.1-1.4c.9-.5 1.3-.9 1.3-1.3c0-.2-.4-.3-1.4-.4c-1 0-1.6 0-2 0c-3.1 0-5.1-.5-6.2-1.3c-.8-.8-1.2-2.1-1.2-4c0-.9 .2-2.1 .8-3.5c.6-1.4 1.4-2.7 2.4-4.1c1.4-2.1 2.9-3.7 4.3-4.7c1.5-1.1 2.9-1.7 4.3-1.7Zm183.4-.9c-.6 .2-1.1 .5-1.4 .7c-1.1 .5-2 1.1-2.7 1.6c-.4 .4-.8 .7-1.2 1.1c-.4 .4-.6 .7-.6 1c0 .2 .4 .5 1.1 .6c.7 .2 1.4 .3 2 .3c.5 0 .9-.2 1.4-.4c.5-.3 1.2-.7 2.1-1.4Zm382.5-.8l1.7 1.1c-.5 .8-.8 1.5-1.1 2.2c-.3 .6-.6 1.2-.7 1.7c-.3 .9-.4 1.8-.4 2.7c0 1.1 .3 2.1 1 3c.8 .9 1.7 1.5 2.9 1.8c.7 .2 1.6 .3 2.7 .4c1.1 .1 2.3 .2 3.5 .2h21.6c-.6-1.6-1-2.7-1.4-3.3c-.4-.7-1.1-1.7-2-2.8l2.7-7c1.5 2.2 2.4 4.1 2.9 5.9c.4 1.6 .6 3.9 .6 6.8v8.5h-25c-1.2 0-2.2 0-3-.1c-.8 0-1.4 0-1.8 0c-.8-.1-1.6-.3-2.5-.7c-1.7-.5-3-1.7-4.1-3.4c-1-1.7-1.6-3.6-1.6-5.7c0-.8 .1-1.7 .2-2.6c.1-.8 .4-1.8 .7-2.8c.4-1.2 .9-2.2 1.4-3.2c.5-.9 1.1-1.8 1.7-2.7Zm-203.1 0l1.6 1.1c-.4 .8-.8 1.5-1.1 2.2c-.3 .6-.5 1.2-.6 1.7c-.3 .9-.5 1.8-.5 2.7c0 1.1 .4 2.1 1.1 3c.7 .9 1.7 1.5 2.8 1.8c.7 .2 1.7 .3 2.8 .4c1.1 .1 2.3 .2 3.5 .2h21.6c-.6-1.6-1.1-2.7-1.4-3.3c-.5-.7-1.1-1.7-2-2.8l2.6-7c1.5 2.2 2.5 4.1 3 5.9c.4 1.6 .6 3.9 .6 6.8v8.5h-25c-1.3 0-2.3 0-3.1-.1c-.8 0-1.3 0-1.7 0c-.8-.1-1.6-.3-2.6-.7c-1.6-.5-3-1.7-4-3.4c-1.1-1.7-1.6-3.6-1.6-5.7c0-.8 .1-1.7 .2-2.6c.1-.8 .3-1.8 .7-2.8c.4-1.2 .8-2.2 1.4-3.2c.5-.9 1.1-1.8 1.7-2.7Zm349.2-.7c1.3 0 2.6 .3 3.8 1c1.2 .6 2.6 1.6 4.1 3.1c1.2 1.1 2.9 2.8 5.1 5.2c1.5 1.6 2.6 2.7 3.4 3.2c.8 .5 1.9 .9 3.5 1.3h3.8c1.8 0 3.2-.3 4.2-.7c1.4-.6 2.3-1.5 2.8-2.9c1.2-2.5 2.6-4.6 4.4-6.2c1.6-1.5 2.9-2.2 4-2.2c1 0 2.2 1.5 3.7 4.6c1.6 3.2 2.4 6.2 2.4 8.9v6.5c-2.1 0-4.6-.4-7.4-1.2c-2.5-.7-4.6-1.5-6.5-2.5c-1.2 1.7-2.6 2.8-4.3 3.4c-.8 .2-1.9 .4-3.3 .4H1247v-.2h-.4c-1.5-.2-3.1-.6-4.9-1.1c-2.5-.7-4.6-1.5-6.5-2.5c-1.2 1.7-2.6 2.8-4.3 3.4c-.8 .2-1.9 .4-3.3 .4h-4l-.1 .5c-.5 2.5-1.9 5-4.1 7.5c-2.9 3.4-5.7 5.1-8.5 5.1c-1.7 0-3.5-.6-5.5-1.6c-1.9-1.1-4.9-3.1-9-6.2l1.3-1.8c2.1 1.4 3.9 2.4 5.3 2.9c1.1 .4 2.4 .6 3.8 .6c1.9 0 3.8-.6 5.7-1.6c2.3-1.3 4.6-3.4 6.9-6.2c-.8 .2-1.5 .2-2.1 .2c-1.9 0-3.5-.6-4.6-1.9c-1.2-1.3-1.8-3-1.8-5.2c0-3 .7-5.9 2.1-8.7c1.5-3 3.2-4.5 5.1-4.5c1.6 0 2.9 1.1 4 3.3c1.1 2.2 1.7 4.8 1.7 7.8v1.7h3.8c1.8 0 3.2-.3 4.2-.7c1.4-.6 2.3-1.5 2.8-2.9c1.2-2.5 2.6-4.6 4.4-6.2c1.6-1.5 2.9-2.2 4-2.2c1 0 2.2 1.5 3.7 4.6c1.2 2.4 2 4.7 2.2 6.8l.1 .6h19.2c-2.5-2.5-4.7-4.3-6.7-5.4c-1.8-1-3.6-1.5-5.3-1.5c-.5 0-1 .1-1.4 .1c-.5 .1-1.1 .2-1.9 .4c1.1-2.6 2.3-4.4 3.7-5.6c1.3-1.2 2.8-1.8 4.5-1.8Zm-657.8 0c1.3 0 2.6 .3 3.8 1c1.2 .6 2.6 1.6 4.1 3.1c1.2 1.1 2.9 2.8 5.1 5.2c1.5 1.6 2.6 2.7 3.4 3.2c.8 .5 1.9 .9 3.5 1.3v8.1H583.6v.7c0 1.2-.7 2.8-2.1 4.8c-1.4 2-3.1 3.7-4.9 5.2c-2.1 1.6-3.9 2.4-5.3 2.4c-1.8 0-3.7-.5-5.7-1.5c-1.7-.8-4.4-2.5-8.1-5.1l1.2-1.8c1.8 1.1 3.2 2 4.3 2.4c1.1 .4 2.3 .6 3.6 .6c1.3 0 2.7-.4 4.1-1.2c1.4-.7 3.2-2.2 5.6-4.3c3.3-2.9 4.9-5.2 4.9-6.8c0-.8-.3-1.8-.9-3.1c-.7-1.5-1.6-2.7-2.6-3.7l1.6-8c1.4 1.4 2.4 3 3.2 4.8c.7 1.8 1.1 3.8 1.1 6.1v.4h26.8c-2.5-2.5-4.7-4.3-6.7-5.4c-1.8-1-3.6-1.5-5.3-1.5c-.5 0-1 .1-1.4 .1c-.5 .1-1.1 .2-1.9 .4c1.1-2.6 2.3-4.4 3.7-5.6c1.3-1.2 2.8-1.8 4.5-1.8Zm89.6-.7c-.6 0-1.2 .3-1.7 .8c-.4 .5-.7 1.2-.7 1.9c0 .4 .2 .8 .6 1.1c.4 .3 .8 .5 1.4 .5c.5 0 .9-.1 1.4-.4c.5-.3 1-.7 1.7-1.4c-.5-.9-1-1.6-1.4-1.9c-.4-.4-.9-.6-1.3-.6Zm-163.9-2c.4 0 .7 .1 .9 .3c.3 .3 .4 .6 .4 1c0 .3-.1 .6-.1 .8c-.1 .2-.3 .6-.6 1c-1-.5-1.7-.7-2-.7c-.4 0-.7 .1-1.1 .3c-.2 .1-.5 .2-.7 .4c0 .3 .5 .7 1.5 1.2c.9 .6 1.6 .8 2 .8c.3 0 1-.1 2.2-.4c-.2 .6-.4 1.1-.7 1.4c-.3 .2-.6 .4-1.1 .5l-6.4 2c.4-.7 .8-1.2 1-1.5c.4-.2 .9-.5 1.6-.8c-.6-.4-1-.7-1.2-1c-.3-.3-.4-.6-.4-.9c0-.3 .1-.6 .3-.9c.1-.3 .3-.6 .6-1c1.3-1.7 2.6-2.5 3.8-2.5Zm829.5-3.6c2.6 1.9 4.4 4.4 5.5 7.4c1 2.9 1.5 6.6 1.5 11.2v1.5h1.1c.6 0 1 0 1.3-.1c.6 0 1.2-.1 1.7-.1c-1-1.5-1.6-2.7-2-3.7c-.3-.9-.5-1.9-.5-3.1c0-2.9 1.3-5.5 3.7-7.7c2.5-2.3 5.3-3.4 8.6-3.4c2.2 0 4.3 .8 6.3 2.2c1.9 1.4 3.2 3 4.1 4.9l-1.3 1.1c-1.5-.6-2.8-1-3.7-1.2c-.9-.1-2.1-.2-3.4-.2c-2.5 0-4.6 .2-6.4 .6c-2.3 .5-3.5 1.2-3.5 2.1c0 1.4 2.8 3.6 8.3 6.8l15.2-4.3l-3.4 8.4c-5.3 1.7-9.7 2.9-13.2 3.8c-3.1 .8-5.6 1.4-7.7 1.6c-1.6 .3-3.1 .4-4.6 .4H1352c-1.3 0-2.3-.3-3-.9c-.9-.6-1.3-1.7-1.3-3.3c0-.8 0-1.8 .1-2.8c.1-1 .2-2 .4-3.1h1.2c.1 .7 .5 1.2 1 1.5c.6 .3 1.2 .5 2 .5h10.3c-.5-2.9-1.3-5.3-2.4-7c-1-1.5-2.3-2.7-3.9-3.8Zm-20.9 0c2.6 1.9 4.4 4.4 5.5 7.4c1 2.9 1.5 6.6 1.5 11.2v9.6h-13.5c-1.3 0-2.3-.3-3-.9c-.9-.6-1.3-1.7-1.3-3.3c0-.8 0-1.8 .1-2.8c.1-1 .3-2 .4-3.1h1.2c.1 .7 .5 1.2 1 1.5c.6 .3 1.2 .5 2 .5h10.3c-.5-2.9-1.3-5.3-2.4-7c-1-1.5-2.3-2.7-3.9-3.8Zm-644.2-2c2.1 0 4 1.9 5.9 5.5c1.8 3.6 2.8 7.5 2.8 11.5v13.2H672.7c-.9 0-1.5 0-1.9 0c-.4 .1-.6 .2-.6 .4c.6 .4 1.2 .6 1.7 .7c.5 .1 .8 .3 .9 .5c.2 .2 .3 .6 .3 1c0 1.4-.4 3.1-1.2 5.1c-.8 1.9-1.6 3.2-2.4 3.6c-.7 .6-2.9 1.4-6.5 2.2c-3.7 .8-6.8 1.2-9.4 1.2c-3.7 0-6.8-.8-9.1-2.4c-2.3-1.5-3.4-3.5-3.4-6c0-2.5 .5-4.8 1.5-7c1.2-2.6 3.5-6 6.8-10.1l1.8 1.3c-2.1 2.5-3.5 4.5-4.3 6.1c-.8 1.6-1.2 3.2-1.2 4.7c0 2.1 .8 3.7 2.6 4.7c1.8 1.1 4.5 1.6 8.2 1.6c1.9 0 4.5-.4 7.9-1.1c3.4-.7 5.1-1.3 5.1-1.8c0-.2-.7-.4-2-.6c-1.3-.2-2.7-.3-4.2-.3c-2.3 0-3.5-.5-3.5-1.5c0-.5 .3-1.3 .9-2.5c.3-.8 .7-1.6 1.1-2.4c.8-1.7 2.2-3 4.2-4c2.1-1 4.3-1.5 6.6-1.5h26.7c0-1.8-.1-3-.2-3.7c-.1-1.2-.5-2.2-1-3c-.6 1.2-1.5 2.2-2.5 2.8c-1.1 .7-2.2 1-3.5 1c-1.5 0-2.9-.5-4-1.5c-1.1-1.1-1.6-2.4-1.6-4c0-2.4 .7-5.1 2.1-8.4c1.6-3.5 3.2-5.3 4.8-5.3Zm439.5-1.2l5.6 3.1l-3.1 5.8l-4.4-2.2l-2.5 4.8l-5.5-3.1l3.3-6l4.2 2.4Zm-203.1 0l5.5 3.1l-3.1 5.8l-4.4-2.2l-2.5 4.8l-5.4-3.1l3.3-6l4.2 2.4Zm-354.7-2.2l6.9 3.7l-3.5 6.7l-7-3.7Zm228.6-1.3l5.5 3l-3.1 5.8l-4.4-2.2l-2.5 4.8l-5.4-3l3.2-6.1l4.3 2.4Zm616.2-1.3c1.1 1.6 1.9 3.2 2.4 4.7c.5 1.8 .8 4.1 .8 6.9v5.9c0 4.1 .3 7 .8 8.6c.5 1.3 1.2 2 2.1 2h8c1.8 0 3.2-.3 4.3-.7c1.3-.6 2.2-1.5 2.8-2.9c1.1-2.5 2.5-4.6 4.3-6.2c1.6-1.5 2.9-2.2 4-2.2c1 0 2.3 1.5 3.8 4.6c1.5 3.2 2.3 6.2 2.3 8.9v6.5c-2.1 0-4.5-.4-7.3-1.2c-2.5-.7-4.7-1.5-6.6-2.5c-1.1 1.7-2.6 2.8-4.3 3.4c-.8 .2-1.9 .4-3.3 .4h-8c-2.3 0-4-1-5-2.9c-1.2-2.1-1.8-5.6-1.8-10.6v-8.5c0-2-.2-3.5-.7-4.5c-.3-.5-.9-1.3-1.8-2.3Zm-267 0c1.2 1.6 2 3.2 2.5 4.7c.5 1.8 .8 4.1 .8 6.9v5.9c0 4.1 .2 7 .8 8.6c.4 1.3 1.1 2 2.1 2h5.3c.6 0 1 0 1.3-.1c.6 0 1.1-.1 1.7-.1c-1-1.5-1.6-2.7-2-3.7c-.3-.9-.5-1.9-.5-3.1c0-2.9 1.3-5.5 3.7-7.7c2.5-2.3 5.3-3.4 8.6-3.4c2.2 0 4.3 .8 6.3 2.2c1.9 1.4 3.2 3 4.1 4.9l-1.3 1.1c-1.6-.6-2.8-1-3.7-1.2c-.9-.1-2.1-.2-3.4-.2c-2.5 0-4.6 .2-6.4 .6c-2.3 .5-3.5 1.2-3.5 2.1c0 1.4 2.8 3.6 8.3 6.8l15.2-4.3l-3.4 8.4c-5.3 1.7-9.7 2.9-13.2 3.8c-3.1 .8-5.6 1.4-7.7 1.6c-1.6 .3-3.1 .4-4.7 .4h-4.7c-2.3 0-4-1-5-2.9c-1.2-2.1-1.8-5.6-1.8-10.6v-8.5c0-2-.2-3.5-.8-4.5c-.2-.5-.8-1.3-1.8-2.3Zm-66.6 0l1.8 10.5c.7 4 1.1 7.5 1.4 10.5c.2 2.2 .3 4.4 .3 6.5c0 1.8-.3 3.4-.7 4.8c-.4 1.5-1.2 3.5-2.4 5.9l-1.8-.7c.5-2.5 .8-4.6 .8-6.2c0-1.2-.2-3-.4-5.3c-.1-2.4-.4-4.7-.7-7c-.3-2.3-.8-5-1.5-8.2c-.2-1.1-.3-1.9-.3-2.3c0-.6 .3-1.7 .9-3.1c.6-1.5 1.5-3.3 2.6-5.4Zm-136.5 0c1.2 1.6 2 3.2 2.4 4.7c.6 1.8 .8 4.1 .8 6.9v5.9c0 4.1 .3 7 .9 8.6c.4 1.3 1.1 2 2 2h7.5c.9 0 1.8 0 2.6 .1c2.2 .2 4.7 .5 7.5 .8c-3-.7-5.1-1.5-6.2-2.6c-1.2-1.1-1.8-2.7-1.8-4.7c0-3.1 .7-5.9 2.1-8.4c1.4-2.5 3-3.7 4.8-3.7c2 0 3.8 1.7 5.3 5.2c1.5 3.5 2.2 7.7 2.2 12.6v.7h2.2c2.1 0 3.8-.6 5.2-1.8c1.8-1.5 2.7-3.9 2.7-7l2 .3c0 .7-.1 1.4-.1 2.2c-.1 .8-.1 1.7-.1 2.7c0 1 .4 1.9 1.1 2.5c.6 .7 1.4 1.1 2.3 1.1h3.7c2.4 0 4.2-.4 5.2-1.1c1.2-.8 1.9-2.3 1.9-4.5c0-.5 .1-.9 .4-1.3c.2-.2 .6-.5 1.1-1l1.2-.9c0 .4 0 .9 0 1.6c.1 .6 .1 1 .1 1.2c0 1.1-.2 2.6-.5 4.4c.7 .3 1.6 .7 2.5 .9c.9 .3 1.8 .5 2.9 .6c0-.7-.3-1.6-.8-2.6c-.5-1.1-.7-1.8-.7-2.2c0-.5 0-.9 .2-1.2c0-.1 .2-.4 .6-.9l2.6-3.4c.5 1.2 .9 2.3 1.1 3.4c.3 1 .4 2.3 .4 3.8v11.3c-2.3 0-4.1-.2-5.6-.5c-1.5-.3-2.9-.8-4.3-1.5c-1.2 .8-2.2 1.3-3.1 1.6c-.9 .2-2.3 .4-4.1 .4h-4.9c-1.3 0-2.3-.4-3.1-1.1c-.8-.7-1.5-1.8-2.1-3.4c-1.1 1.6-2.3 2.8-3.7 3.5c-1.1 .7-2.5 1-4.1 1H955.9c-2.3 0-4-1-5-2.9c-1.1-2.1-1.7-5.6-1.7-10.6v-8.5c0-2-.3-3.5-.8-4.5c-.3-.5-.9-1.3-1.8-2.3Zm-66.6 0l1.8 10.5c.6 4 1.1 7.5 1.3 10.5c.2 2.2 .3 4.4 .3 6.5c0 1.8-.2 3.4-.6 4.8c-.4 1.5-1.2 3.5-2.4 5.9l-1.8-.7c.5-2.5 .7-4.6 .7-6.2c0-1.2-.1-3-.3-5.3c-.2-2.4-.4-4.7-.7-7c-.3-2.3-.8-5-1.5-8.2c-.2-1.1-.4-1.9-.4-2.3c0-.6 .4-1.7 1-3.1c.6-1.5 1.5-3.3 2.6-5.4Zm189.3-2.4l1.4 .7c0 .2-.1 .5-.1 1c0 .7 .4 1.3 1.2 1.9c.8 .6 1.9 1.2 3.5 1.9c-.1 1.2-.4 2.5-.8 3.7c-.3 1.2-.7 2.3-1.1 3.2l-1.1-.4l3.2 18.5v8.1h-34.2l-.1 .5c-.5 2.5-1.9 5-4.1 7.5c-2.9 3.4-5.7 5.1-8.6 5.1c-1.6 0-3.4-.6-5.4-1.6c-1.9-1.1-4.9-3.1-9-6.2l1.3-1.8c2.1 1.4 3.9 2.4 5.2 2.9c1.2 .4 2.5 .6 3.9 .6c1.9 0 3.8-.6 5.7-1.6c2.2-1.3 4.5-3.4 6.9-6.2c-.8 .2-1.5 .2-2.1 .2c-1.9 0-3.5-.6-4.7-1.9c-1.1-1.3-1.7-3-1.7-5.2c0-3 .7-5.9 2.1-8.7c1.4-3 3.1-4.5 5-4.5c1.6 0 3 1.1 4.1 3.3c1.1 2.2 1.7 4.8 1.7 7.8v1.7h3.2c.9 0 1.8 0 2.6 .1c2.2 .2 4.7 .5 7.5 .8c-3-.7-5-1.5-6.2-2.6c-1.2-1.1-1.8-2.7-1.8-4.7c0-3.1 .7-5.9 2.1-8.4c1.5-2.5 3-3.7 4.8-3.7c2 0 3.8 1.7 5.3 5.2c1.5 3.5 2.2 7.7 2.2 12.6v.7h10.8l-3.6-20.3l-2-1.2c0-1.2 .2-2.4 .6-3.6c.5-1.5 1.2-3.3 2.3-5.4Zm-203.1 0l1.4 .7c0 .2-.1 .5-.2 1c0 .7 .4 1.3 1.3 1.9c.7 .6 1.9 1.2 3.5 1.9c-.2 1.2-.4 2.5-.8 3.7c-.3 1.2-.7 2.3-1.2 3.2l-1-.4l3.2 18.5v8.1H859.2v-.2h-.4c-1.4-.2-3.1-.6-4.8-1.1c-2.5-.7-4.7-1.5-6.6-2.5c-1.1 1.7-2.6 2.8-4.2 3.4c-.9 .2-2 .4-3.4 .4H836v.7c0 1.2-.7 2.8-2.1 4.8c-1.4 2-3 3.7-4.9 5.2c-2 1.6-3.8 2.4-5.3 2.4c-1.7 0-3.6-.5-5.6-1.5c-1.7-.8-4.5-2.5-8.2-5.1l1.2-1.8c1.8 1.1 3.3 2 4.4 2.4c1.1 .4 2.2 .6 3.5 .6c1.4 0 2.8-.4 4.1-1.2c1.4-.7 3.3-2.2 5.6-4.3c3.3-2.9 5-5.2 5-6.8c0-.8-.3-1.8-1-3.1c-.7-1.5-1.6-2.7-2.6-3.7l1.7-8c1.3 1.4 2.4 3 3.1 4.8c.7 1.8 1.1 3.8 1.1 6.1v.4h3.8c1.8 0 3.2-.3 4.3-.7c1.3-.6 2.3-1.5 2.8-2.9c1.1-2.5 2.6-4.6 4.3-6.2c1.6-1.5 2.9-2.2 4-2.2c1 0 2.3 1.5 3.8 4.6c1.2 2.4 1.9 4.7 2.2 6.8v.6H872l-3.6-20.3l-1.9-1.2c0-1.2 .2-2.4 .6-3.6c.4-1.5 1.2-3.3 2.3-5.4Zm185.2-.3l6.9 3.7l-3.6 6.7l-6.9-3.6Zm-84.6 0l7 3.7l-3.6 6.7l-7-3.6Zm-217.8-2l1.4 .5c0 .2-.1 .4-.2 .8c0 .7 1 1.5 3 2.5c.6 .3 1.6 .7 2.9 1.2c-.2 1.6-.5 3-.9 4.4c-.2 .6-.6 1.7-1.2 3.1l-1.1-.3c.6 2.8 1.1 4.9 1.3 6.2c.2 1.4 .3 2.5 .3 3.6v.3c0 .6 0 1.1-.1 1.4c0 .3-.1 .8-.2 1.5c1-.7 2-1.5 3.1-2.2c1.6-1.2 3.1-2.1 4.3-2.8c1.7-.9 3-1.4 3.8-1.4c2.4 0 4.3 .6 5.7 1.9c1.6 1.3 2.4 3.3 2.4 5.9v6.2h13.5c-.2-1.4-.6-2.5-1.2-3.5c-.3-.5-1-1.4-2.1-2.6l2.4-7.1c1.5 1.6 2.5 3.4 3.1 5.3c.4 1.6 .7 3.9 .8 6.9v1h13.5c-.2-1.4-.6-2.5-1.2-3.5c-.3-.5-1-1.4-2.1-2.6l2.4-7.1c1.5 1.6 2.5 3.4 3.1 5.3c.5 1.8 .8 4.6 .8 8.2v7.8H740.8c-.7 0-1.3-.2-1.9-.5c-1.2-.6-2.2-1.6-3-3.1c-1-2.1-1.7-5-2-8.7c-1.4 1.7-2.4 2.9-3.2 3.6c-1.1 1-2 1.5-2.7 1.5c-.4 0-.9-.1-1.5-.2l-3.6-.7c-1.6-.3-2.5-.6-2.9-.7c-.3-.1-.5-.4-.5-.7c0-.6 .7-2.3 2.1-5.1c1.3-2.9 2.3-4.6 3-5.3c.5-.5 1.3-1.2 2.6-2.1c.8-.5 1.8-1.2 3.2-2l1.6-.9c-.1-.3-.1-.6-.1-.9c0-.3-.1-.5-.1-.8c0-.7 .2-1.7 .6-2.8c.3-1.2 .9-2.6 1.8-4.3l2.9 18.6c.4 2.9 1 4.9 1.8 5.9c.4 .7 1.1 1.1 1.9 1.1h5.8c.5 0 1.8-.9 4-2.5c.7-.5 1.8-1.4 3.2-2.5c0-2.5-.1-4.5-.3-6.2c-.2-1.7-.4-3.5-.8-5.3c-.1-.4-.7-2.6-1.6-6.5l-1.8-1c.5-2.1 .9-3.6 1.2-4.5c.2-.9 .8-2.3 1.7-4.3Zm-61.4-2.3l7 3.7l-3.6 6.7l-7-3.6Zm41.7-1.4l5.4 2.8l-3.3 5.5l-4.3-2.4l-2.3 4.7l-5.6-3l3.1-5.2l4.4 2.2Z" class="g0_40"/>
<path d="M659.7 348.2l3.7 2.4l-2.9 3.3l-3.1-2l-2.4 2.5l-3.7-2l2.8-3.6l3.3 2.1ZM1263 335.6l6.9 3.7l-3.6 6.7l-6.9-3.7Zm-657.8 0l6.9 3.7l-3.6 6.7l-6.9-3.7Zm178-.3l7 3.7l-3.6 6.6l-7-3.6Zm433.6-15.4c-.6 0-1.1 .2-1.5 .7c-.3 .5-.5 1-.5 1.6c0 .7 .4 1.3 1.2 1.8c.8 .4 1.8 .7 3.1 .7h1.1c-.5-3.2-1.7-4.8-3.4-4.8Zm-179.1 0c-.6 0-1.1 .2-1.5 .7c-.3 .5-.5 1-.5 1.6c0 .7 .4 1.3 1.2 1.8c.7 .4 1.8 .7 3.1 .7h1.1c-.6-3.2-1.7-4.8-3.4-4.8Zm408.5-.2c-.8 0-1.4 .9-2 2.7c1.1 .4 1.8 .7 2.4 .9c1.6 .6 2.5 .9 2.7 .9c.4 0 .7-.2 .7-.5c0-.4-.5-1.2-1.3-2.2c-1-1.2-1.8-1.8-2.5-1.8Zm-149.2 0c-.8 0-1.5 .9-2 2.7c1 .4 1.8 .7 2.3 .9c1.7 .6 2.6 .9 2.8 .9c.4 0 .6-.2 .6-.5c0-.4-.4-1.2-1.3-2.2c-.9-1.2-1.8-1.8-2.4-1.8Zm-57.2 0c-.8 0-1.5 .9-2 2.7c1 .4 1.8 .7 2.3 .9c1.7 .6 2.6 .9 2.8 .9c.4 0 .6-.2 .6-.5c0-.4-.4-1.2-1.3-2.2c-.9-1.2-1.8-1.8-2.4-1.8Zm-387.8 0c-.8 0-1.4 .9-2 2.7c1.1 .4 1.9 .7 2.4 .9c1.6 .6 2.5 .9 2.7 .9c.4 0 .7-.2 .7-.5c0-.4-.5-1.2-1.3-2.2c-1-1.2-1.8-1.8-2.5-1.8Zm-85.6-.9c-1.3 0-2.8 .4-4.4 1.2c-1.6 .9-4 2.4-7.1 4.7h7.8c6.5 0 9.8-1.1 9.8-3.1c0-.7-.7-1.3-2.2-1.9c-1.5-.6-2.8-.9-3.9-.9Zm289-3.8c-.4 0-.8 .1-1.1 .4c-.3 .2-.4 .5-.4 .9c0 .8 .6 1.7 1.9 2.5c1.3 .8 2.8 1.3 4.6 1.6c-.7-1.7-1.5-3-2.4-4c-.9-.9-1.8-1.4-2.6-1.4Zm-84.6 0c-.4 0-.7 .1-1 .4c-.3 .2-.4 .5-.4 .9c0 .8 .6 1.7 1.9 2.5c1.3 .8 2.8 1.3 4.6 1.6c-.8-1.7-1.6-3-2.4-4c-.9-.9-1.8-1.4-2.7-1.4Zm-421.7-1.7c1.1 0 2 .5 2.7 1.4c.7 .9 1 2.1 1 3.6c0 1.1-.1 2-.3 2.7c-.2 .7-.7 1.6-1.4 2.8c-.6-1.4-1-2.3-1.4-2.8c-.3-.4-.9-.6-1.6-.6c-1 0-2.5 .6-4.4 1.8c-1.9 1.3-2.8 2.3-2.8 3.1c0 .5 .4 .8 1.1 .9c.6 .2 1.4 .2 2.5 .2c.3 0 .6 0 .9 0c.3 0 .6 0 .9 0c2.2 0 3.6 .2 4.3 .7c.6 .3 .9 1.1 .9 2.2c0 2.1-.4 4.2-1.1 6.1c-1 2.5-2.5 4.3-4.4 5.3c-2.3 1.4-4.8 2.4-7.4 3.2c-2.5 .9-4.9 1.3-7.1 1.3c-6.2 0-9.3-2.8-9.3-8.3c0-2.9 .4-5.3 1.1-7.3c.8-2.3 2.4-5.3 4.9-9.2l1.4 .9c-1.5 2.5-2.6 4.7-3.3 6.6c-.8 2-1.1 3.7-1.1 5.1c0 3.8 2.1 5.6 6.3 5.6c1.6 0 3.1-.1 4.5-.4c1.5-.3 2.9-.7 4.4-1.2c.9-.3 2-.8 3.3-1.3c1.9-.9 3-1.3 3.1-1.4c.9-.5 1.3-.9 1.3-1.3c0-.2-.4-.3-1.4-.4c-1 0-1.6 0-2 0c-3.1 0-5.1-.5-6.2-1.3c-.8-.8-1.2-2.1-1.2-4c0-.9 .2-2.1 .8-3.5c.6-1.4 1.4-2.7 2.4-4.1c1.4-2.1 2.9-3.7 4.3-4.7c1.5-1.1 2.9-1.7 4.3-1.7Zm183.4-.9c-.6 .2-1.1 .5-1.4 .7c-1.1 .5-2 1.1-2.7 1.6c-.4 .4-.8 .7-1.2 1.1c-.4 .4-.6 .7-.6 1c0 .2 .4 .5 1.1 .6c.7 .2 1.4 .3 2 .3c.5 0 .9-.2 1.4-.4c.5-.3 1.2-.7 2.1-1.4Zm382.5-.8l1.7 1.1c-.5 .8-.8 1.5-1.1 2.2c-.3 .6-.6 1.2-.7 1.7c-.3 .9-.4 1.8-.4 2.7c0 1.1 .3 2.1 1 3c.8 .9 1.7 1.5 2.9 1.8c.7 .2 1.6 .3 2.7 .4c1.1 .1 2.3 .2 3.5 .2h21.6c-.6-1.6-1-2.7-1.4-3.3c-.4-.7-1.1-1.7-2-2.8l2.7-7c1.5 2.2 2.4 4.1 2.9 5.9c.4 1.6 .6 3.9 .6 6.8v8.5h-25c-1.2 0-2.2 0-3-.1c-.8 0-1.4 0-1.8 0c-.8-.1-1.6-.3-2.5-.7c-1.7-.5-3-1.7-4.1-3.4c-1-1.7-1.6-3.6-1.6-5.7c0-.8 .1-1.7 .2-2.6c.1-.8 .4-1.8 .7-2.8c.4-1.2 .9-2.2 1.4-3.2c.5-.9 1.1-1.8 1.7-2.7Zm-203.1 0l1.6 1.1c-.4 .8-.8 1.5-1.1 2.2c-.3 .6-.5 1.2-.6 1.7c-.3 .9-.5 1.8-.5 2.7c0 1.1 .4 2.1 1.1 3c.7 .9 1.7 1.5 2.8 1.8c.7 .2 1.7 .3 2.8 .4c1.1 .1 2.3 .2 3.5 .2h21.6c-.6-1.6-1.1-2.7-1.4-3.3c-.5-.7-1.1-1.7-2-2.8l2.6-7c1.5 2.2 2.5 4.1 3 5.9c.4 1.6 .6 3.9 .6 6.8v8.5h-25c-1.3 0-2.3 0-3.1-.1c-.8 0-1.3 0-1.7 0c-.8-.1-1.6-.3-2.6-.7c-1.6-.5-3-1.7-4-3.4c-1.1-1.7-1.6-3.6-1.6-5.7c0-.8 .1-1.7 .2-2.6c.1-.8 .3-1.8 .7-2.8c.4-1.2 .8-2.2 1.4-3.2c.5-.9 1.1-1.8 1.7-2.7Zm349.2-.7c1.3 0 2.6 .3 3.8 1c1.2 .6 2.6 1.6 4.1 3.1c1.2 1.1 2.9 2.8 5.1 5.2c1.5 1.6 2.6 2.7 3.4 3.2c.8 .5 1.9 .9 3.5 1.3h3.8c1.8 0 3.2-.3 4.2-.7c1.4-.6 2.3-1.5 2.8-2.9c1.2-2.5 2.6-4.6 4.4-6.2c1.6-1.5 2.9-2.2 4-2.2c1 0 2.2 1.5 3.7 4.6c1.6 3.2 2.4 6.2 2.4 8.9v6.5c-2.1 0-4.6-.4-7.4-1.2c-2.5-.7-4.6-1.5-6.5-2.5c-1.2 1.7-2.6 2.8-4.3 3.4c-.8 .2-1.9 .4-3.3 .4H1247v-.2h-.4c-1.5-.2-3.1-.6-4.9-1.1c-2.5-.7-4.6-1.5-6.5-2.5c-1.2 1.7-2.6 2.8-4.3 3.4c-.8 .2-1.9 .4-3.3 .4h-4l-.1 .5c-.5 2.5-1.9 5-4.1 7.5c-2.9 3.4-5.7 5.1-8.5 5.1c-1.7 0-3.5-.6-5.5-1.6c-1.9-1.1-4.9-3.1-9-6.2l1.3-1.8c2.1 1.4 3.9 2.4 5.3 2.9c1.1 .4 2.4 .6 3.8 .6c1.9 0 3.8-.6 5.7-1.6c2.3-1.3 4.6-3.4 6.9-6.2c-.8 .2-1.5 .2-2.1 .2c-1.9 0-3.5-.6-4.6-1.9c-1.2-1.3-1.8-3-1.8-5.2c0-3 .7-5.9 2.1-8.7c1.5-3 3.2-4.5 5.1-4.5c1.6 0 2.9 1.1 4 3.3c1.1 2.2 1.7 4.8 1.7 7.8v1.7h3.8c1.8 0 3.2-.3 4.2-.7c1.4-.6 2.3-1.5 2.8-2.9c1.2-2.5 2.6-4.6 4.4-6.2c1.6-1.5 2.9-2.2 4-2.2c1 0 2.2 1.5 3.7 4.6c1.2 2.4 2 4.7 2.2 6.8l.1 .6h19.2c-2.5-2.5-4.7-4.3-6.7-5.4c-1.8-1-3.6-1.5-5.3-1.5c-.5 0-1 .1-1.4 .1c-.5 .1-1.1 .2-1.9 .4c1.1-2.6 2.3-4.4 3.7-5.6c1.3-1.2 2.8-1.8 4.5-1.8Zm-657.8 0c1.3 0 2.6 .3 3.8 1c1.2 .6 2.6 1.6 4.1 3.1c1.2 1.1 2.9 2.8 5.1 5.2c1.5 1.6 2.6 2.7 3.4 3.2c.8 .5 1.9 .9 3.5 1.3v8.1H583.6v.7c0 1.2-.7 2.8-2.1 4.8c-1.4 2-3.1 3.7-4.9 5.2c-2.1 1.6-3.9 2.4-5.3 2.4c-1.8 0-3.7-.5-5.7-1.5c-1.7-.8-4.4-2.5-8.1-5.1l1.2-1.8c1.8 1.1 3.2 2 4.3 2.4c1.1 .4 2.3 .6 3.6 .6c1.3 0 2.7-.4 4.1-1.2c1.4-.7 3.2-2.2 5.6-4.3c3.3-2.9 4.9-5.2 4.9-6.8c0-.8-.3-1.8-.9-3.1c-.7-1.5-1.6-2.7-2.6-3.7l1.6-8c1.4 1.4 2.4 3 3.2 4.8c.7 1.8 1.1 3.8 1.1 6.1v.4h26.8c-2.5-2.5-4.7-4.3-6.7-5.4c-1.8-1-3.6-1.5-5.3-1.5c-.5 0-1 .1-1.4 .1c-.5 .1-1.1 .2-1.9 .4c1.1-2.6 2.3-4.4 3.7-5.6c1.3-1.2 2.8-1.8 4.5-1.8Zm89.6-.7c-.6 0-1.2 .3-1.7 .8c-.4 .5-.7 1.2-.7 1.9c0 .4 .2 .8 .6 1.1c.4 .3 .8 .5 1.4 .5c.5 0 .9-.1 1.4-.4c.5-.3 1-.7 1.7-1.4c-.5-.9-1-1.6-1.4-1.9c-.4-.4-.9-.6-1.3-.6Zm-163.9-2c.4 0 .7 .1 .9 .3c.3 .3 .4 .6 .4 1c0 .3-.1 .6-.1 .8c-.1 .2-.3 .6-.6 1c-1-.5-1.7-.7-2-.7c-.4 0-.7 .1-1.1 .3c-.2 .1-.5 .2-.7 .4c0 .3 .5 .7 1.5 1.2c.9 .6 1.6 .8 2 .8c.3 0 1-.1 2.2-.4c-.2 .6-.4 1.1-.7 1.4c-.3 .2-.6 .4-1.1 .5l-6.4 2c.4-.7 .8-1.2 1-1.5c.4-.2 .9-.5 1.6-.8c-.6-.4-1-.7-1.2-1c-.3-.3-.4-.6-.4-.9c0-.3 .1-.6 .3-.9c.1-.3 .3-.6 .6-1c1.3-1.7 2.6-2.5 3.8-2.5Zm829.5-3.6c2.6 1.9 4.4 4.4 5.5 7.4c1 2.9 1.5 6.6 1.5 11.2v1.5h1.1c.6 0 1 0 1.3-.1c.6 0 1.2-.1 1.7-.1c-1-1.5-1.6-2.7-2-3.7c-.3-.9-.5-1.9-.5-3.1c0-2.9 1.3-5.5 3.7-7.7c2.5-2.3 5.3-3.4 8.6-3.4c2.2 0 4.3 .8 6.3 2.2c1.9 1.4 3.2 3 4.1 4.9l-1.3 1.1c-1.5-.6-2.8-1-3.7-1.2c-.9-.1-2.1-.2-3.4-.2c-2.5 0-4.6 .2-6.4 .6c-2.3 .5-3.5 1.2-3.5 2.1c0 1.4 2.8 3.6 8.3 6.8l15.2-4.3l-3.4 8.4c-5.3 1.7-9.7 2.9-13.2 3.8c-3.1 .8-5.6 1.4-7.7 1.6c-1.6 .3-3.1 .4-4.6 .4H1352c-1.3 0-2.3-.3-3-.9c-.9-.6-1.3-1.7-1.3-3.3c0-.8 0-1.8 .1-2.8c.1-1 .2-2 .4-3.1h1.2c.1 .7 .5 1.2 1 1.5c.6 .3 1.2 .5 2 .5h10.3c-.5-2.9-1.3-5.3-2.4-7c-1-1.5-2.3-2.7-3.9-3.8Zm-20.9 0c2.6 1.9 4.4 4.4 5.5 7.4c1 2.9 1.5 6.6 1.5 11.2v9.6h-13.5c-1.3 0-2.3-.3-3-.9c-.9-.6-1.3-1.7-1.3-3.3c0-.8 0-1.8 .1-2.8c.1-1 .3-2 .4-3.1h1.2c.1 .7 .5 1.2 1 1.5c.6 .3 1.2 .5 2 .5h10.3c-.5-2.9-1.3-5.3-2.4-7c-1-1.5-2.3-2.7-3.9-3.8Zm-644.2-2c2.1 0 4 1.9 5.9 5.5c1.8 3.6 2.8 7.5 2.8 11.5v13.2H672.7c-.9 0-1.5 0-1.9 0c-.4 .1-.6 .2-.6 .4c.6 .4 1.2 .6 1.7 .7c.5 .1 .8 .3 .9 .5c.2 .2 .3 .6 .3 1c0 1.4-.4 3.1-1.2 5.1c-.8 1.9-1.6 3.2-2.4 3.6c-.7 .6-2.9 1.4-6.5 2.2c-3.7 .8-6.8 1.2-9.4 1.2c-3.7 0-6.8-.8-9.1-2.4c-2.3-1.5-3.4-3.5-3.4-6c0-2.5 .5-4.8 1.5-7c1.2-2.6 3.5-6 6.8-10.1l1.8 1.3c-2.1 2.5-3.5 4.5-4.3 6.1c-.8 1.6-1.2 3.2-1.2 4.7c0 2.1 .8 3.7 2.6 4.7c1.8 1.1 4.5 1.6 8.2 1.6c1.9 0 4.5-.4 7.9-1.1c3.4-.7 5.1-1.3 5.1-1.8c0-.2-.7-.4-2-.6c-1.3-.2-2.7-.3-4.2-.3c-2.3 0-3.5-.5-3.5-1.5c0-.5 .3-1.3 .9-2.5c.3-.8 .7-1.6 1.1-2.4c.8-1.7 2.2-3 4.2-4c2.1-1 4.3-1.5 6.6-1.5h26.7c0-1.8-.1-3-.2-3.7c-.1-1.2-.5-2.2-1-3c-.6 1.2-1.5 2.2-2.5 2.8c-1.1 .7-2.2 1-3.5 1c-1.5 0-2.9-.5-4-1.5c-1.1-1.1-1.6-2.4-1.6-4c0-2.4 .7-5.1 2.1-8.4c1.6-3.5 3.2-5.3 4.8-5.3Zm439.5-1.2l5.6 3.1l-3.1 5.8l-4.4-2.2l-2.5 4.8l-5.5-3.1l3.3-6l4.2 2.4Zm-203.1 0l5.5 3.1l-3.1 5.8l-4.4-2.2l-2.5 4.8l-5.4-3.1l3.3-6l4.2 2.4Zm-354.7-2.2l6.9 3.7l-3.5 6.7l-7-3.7Zm228.6-1.3l5.5 3l-3.1 5.8l-4.4-2.2l-2.5 4.8l-5.4-3l3.2-6.1l4.3 2.4Zm616.2-1.3c1.1 1.6 1.9 3.2 2.4 4.7c.5 1.8 .8 4.1 .8 6.9v5.9c0 4.1 .3 7 .8 8.6c.5 1.3 1.2 2 2.1 2h8c1.8 0 3.2-.3 4.3-.7c1.3-.6 2.2-1.5 2.8-2.9c1.1-2.5 2.5-4.6 4.3-6.2c1.6-1.5 2.9-2.2 4-2.2c1 0 2.3 1.5 3.8 4.6c1.5 3.2 2.3 6.2 2.3 8.9v6.5c-2.1 0-4.5-.4-7.3-1.2c-2.5-.7-4.7-1.5-6.6-2.5c-1.1 1.7-2.6 2.8-4.3 3.4c-.8 .2-1.9 .4-3.3 .4h-8c-2.3 0-4-1-5-2.9c-1.2-2.1-1.8-5.6-1.8-10.6v-8.5c0-2-.2-3.5-.7-4.5c-.3-.5-.9-1.3-1.8-2.3Zm-267 0c1.2 1.6 2 3.2 2.5 4.7c.5 1.8 .8 4.1 .8 6.9v5.9c0 4.1 .2 7 .8 8.6c.4 1.3 1.1 2 2.1 2h5.3c.6 0 1 0 1.3-.1c.6 0 1.1-.1 1.7-.1c-1-1.5-1.6-2.7-2-3.7c-.3-.9-.5-1.9-.5-3.1c0-2.9 1.3-5.5 3.7-7.7c2.5-2.3 5.3-3.4 8.6-3.4c2.2 0 4.3 .8 6.3 2.2c1.9 1.4 3.2 3 4.1 4.9l-1.3 1.1c-1.6-.6-2.8-1-3.7-1.2c-.9-.1-2.1-.2-3.4-.2c-2.5 0-4.6 .2-6.4 .6c-2.3 .5-3.5 1.2-3.5 2.1c0 1.4 2.8 3.6 8.3 6.8l15.2-4.3l-3.4 8.4c-5.3 1.7-9.7 2.9-13.2 3.8c-3.1 .8-5.6 1.4-7.7 1.6c-1.6 .3-3.1 .4-4.7 .4h-4.7c-2.3 0-4-1-5-2.9c-1.2-2.1-1.8-5.6-1.8-10.6v-8.5c0-2-.2-3.5-.8-4.5c-.2-.5-.8-1.3-1.8-2.3Zm-66.6 0l1.8 10.5c.7 4 1.1 7.5 1.4 10.5c.2 2.2 .3 4.4 .3 6.5c0 1.8-.3 3.4-.7 4.8c-.4 1.5-1.2 3.5-2.4 5.9l-1.8-.7c.5-2.5 .8-4.6 .8-6.2c0-1.2-.2-3-.4-5.3c-.1-2.4-.4-4.7-.7-7c-.3-2.3-.8-5-1.5-8.2c-.2-1.1-.3-1.9-.3-2.3c0-.6 .3-1.7 .9-3.1c.6-1.5 1.5-3.3 2.6-5.4Zm-136.5 0c1.2 1.6 2 3.2 2.4 4.7c.6 1.8 .8 4.1 .8 6.9v5.9c0 4.1 .3 7 .9 8.6c.4 1.3 1.1 2 2 2h7.5c.9 0 1.8 0 2.6 .1c2.2 .2 4.7 .5 7.5 .8c-3-.7-5.1-1.5-6.2-2.6c-1.2-1.1-1.8-2.7-1.8-4.7c0-3.1 .7-5.9 2.1-8.4c1.4-2.5 3-3.7 4.8-3.7c2 0 3.8 1.7 5.3 5.2c1.5 3.5 2.2 7.7 2.2 12.6v.7h2.2c2.1 0 3.8-.6 5.2-1.8c1.8-1.5 2.7-3.9 2.7-7l2 .3c0 .7-.1 1.4-.1 2.2c-.1 .8-.1 1.7-.1 2.7c0 1 .4 1.9 1.1 2.5c.6 .7 1.4 1.1 2.3 1.1h3.7c2.4 0 4.2-.4 5.2-1.1c1.2-.8 1.9-2.3 1.9-4.5c0-.5 .1-.9 .4-1.3c.2-.2 .6-.5 1.1-1l1.2-.9c0 .4 0 .9 0 1.6c.1 .6 .1 1 .1 1.2c0 1.1-.2 2.6-.5 4.4c.7 .3 1.6 .7 2.5 .9c.9 .3 1.8 .5 2.9 .6c0-.7-.3-1.6-.8-2.6c-.5-1.1-.7-1.8-.7-2.2c0-.5 0-.9 .2-1.2c0-.1 .2-.4 .6-.9l2.6-3.4c.5 1.2 .9 2.3 1.1 3.4c.3 1 .4 2.3 .4 3.8v11.3c-2.3 0-4.1-.2-5.6-.5c-1.5-.3-2.9-.8-4.3-1.5c-1.2 .8-2.2 1.3-3.1 1.6c-.9 .2-2.3 .4-4.1 .4h-4.9c-1.3 0-2.3-.4-3.1-1.1c-.8-.7-1.5-1.8-2.1-3.4c-1.1 1.6-2.3 2.8-3.7 3.5c-1.1 .7-2.5 1-4.1 1H955.9c-2.3 0-4-1-5-2.9c-1.1-2.1-1.7-5.6-1.7-10.6v-8.5c0-2-.3-3.5-.8-4.5c-.3-.5-.9-1.3-1.8-2.3Zm-66.6 0l1.8 10.5c.6 4 1.1 7.5 1.3 10.5c.2 2.2 .3 4.4 .3 6.5c0 1.8-.2 3.4-.6 4.8c-.4 1.5-1.2 3.5-2.4 5.9l-1.8-.7c.5-2.5 .7-4.6 .7-6.2c0-1.2-.1-3-.3-5.3c-.2-2.4-.4-4.7-.7-7c-.3-2.3-.8-5-1.5-8.2c-.2-1.1-.4-1.9-.4-2.3c0-.6 .4-1.7 1-3.1c.6-1.5 1.5-3.3 2.6-5.4Zm189.3-2.4l1.4 .7c0 .2-.1 .5-.1 1c0 .7 .4 1.3 1.2 1.9c.8 .6 1.9 1.2 3.5 1.9c-.1 1.2-.4 2.5-.8 3.7c-.3 1.2-.7 2.3-1.1 3.2l-1.1-.4l3.2 18.5v8.1h-34.2l-.1 .5c-.5 2.5-1.9 5-4.1 7.5c-2.9 3.4-5.7 5.1-8.6 5.1c-1.6 0-3.4-.6-5.4-1.6c-1.9-1.1-4.9-3.1-9-6.2l1.3-1.8c2.1 1.4 3.9 2.4 5.2 2.9c1.2 .4 2.5 .6 3.9 .6c1.9 0 3.8-.6 5.7-1.6c2.2-1.3 4.5-3.4 6.9-6.2c-.8 .2-1.5 .2-2.1 .2c-1.9 0-3.5-.6-4.7-1.9c-1.1-1.3-1.7-3-1.7-5.2c0-3 .7-5.9 2.1-8.7c1.4-3 3.1-4.5 5-4.5c1.6 0 3 1.1 4.1 3.3c1.1 2.2 1.7 4.8 1.7 7.8v1.7h3.2c.9 0 1.8 0 2.6 .1c2.2 .2 4.7 .5 7.5 .8c-3-.7-5-1.5-6.2-2.6c-1.2-1.1-1.8-2.7-1.8-4.7c0-3.1 .7-5.9 2.1-8.4c1.5-2.5 3-3.7 4.8-3.7c2 0 3.8 1.7 5.3 5.2c1.5 3.5 2.2 7.7 2.2 12.6v.7h10.8l-3.6-20.3l-2-1.2c0-1.2 .2-2.4 .6-3.6c.5-1.5 1.2-3.3 2.3-5.4Zm-203.1 0l1.4 .7c0 .2-.1 .5-.2 1c0 .7 .4 1.3 1.3 1.9c.7 .6 1.9 1.2 3.5 1.9c-.2 1.2-.4 2.5-.8 3.7c-.3 1.2-.7 2.3-1.2 3.2l-1-.4l3.2 18.5v8.1H859.2v-.2h-.4c-1.4-.2-3.1-.6-4.8-1.1c-2.5-.7-4.7-1.5-6.6-2.5c-1.1 1.7-2.6 2.8-4.2 3.4c-.9 .2-2 .4-3.4 .4H836v.7c0 1.2-.7 2.8-2.1 4.8c-1.4 2-3 3.7-4.9 5.2c-2 1.6-3.8 2.4-5.3 2.4c-1.7 0-3.6-.5-5.6-1.5c-1.7-.8-4.5-2.5-8.2-5.1l1.2-1.8c1.8 1.1 3.3 2 4.4 2.4c1.1 .4 2.2 .6 3.5 .6c1.4 0 2.8-.4 4.1-1.2c1.4-.7 3.3-2.2 5.6-4.3c3.3-2.9 5-5.2 5-6.8c0-.8-.3-1.8-1-3.1c-.7-1.5-1.6-2.7-2.6-3.7l1.7-8c1.3 1.4 2.4 3 3.1 4.8c.7 1.8 1.1 3.8 1.1 6.1v.4h3.8c1.8 0 3.2-.3 4.3-.7c1.3-.6 2.3-1.5 2.8-2.9c1.1-2.5 2.6-4.6 4.3-6.2c1.6-1.5 2.9-2.2 4-2.2c1 0 2.3 1.5 3.8 4.6c1.2 2.4 1.9 4.7 2.2 6.8v.6H872l-3.6-20.3l-1.9-1.2c0-1.2 .2-2.4 .6-3.6c.4-1.5 1.2-3.3 2.3-5.4Zm185.2-.3l6.9 3.7l-3.6 6.7l-6.9-3.6Zm-84.6 0l7 3.7l-3.6 6.7l-7-3.6Zm-217.8-2l1.4 .5c0 .2-.1 .4-.2 .8c0 .7 1 1.5 3 2.5c.6 .3 1.6 .7 2.9 1.2c-.2 1.6-.5 3-.9 4.4c-.2 .6-.6 1.7-1.2 3.1l-1.1-.3c.6 2.8 1.1 4.9 1.3 6.2c.2 1.4 .3 2.5 .3 3.6v.3c0 .6 0 1.1-.1 1.4c0 .3-.1 .8-.2 1.5c1-.7 2-1.5 3.1-2.2c1.6-1.2 3.1-2.1 4.3-2.8c1.7-.9 3-1.4 3.8-1.4c2.4 0 4.3 .6 5.7 1.9c1.6 1.3 2.4 3.3 2.4 5.9v6.2h13.5c-.2-1.4-.6-2.5-1.2-3.5c-.3-.5-1-1.4-2.1-2.6l2.4-7.1c1.5 1.6 2.5 3.4 3.1 5.3c.4 1.6 .7 3.9 .8 6.9v1h13.5c-.2-1.4-.6-2.5-1.2-3.5c-.3-.5-1-1.4-2.1-2.6l2.4-7.1c1.5 1.6 2.5 3.4 3.1 5.3c.5 1.8 .8 4.6 .8 8.2v7.8H740.8c-.7 0-1.3-.2-1.9-.5c-1.2-.6-2.2-1.6-3-3.1c-1-2.1-1.7-5-2-8.7c-1.4 1.7-2.4 2.9-3.2 3.6c-1.1 1-2 1.5-2.7 1.5c-.4 0-.9-.1-1.5-.2l-3.6-.7c-1.6-.3-2.5-.6-2.9-.7c-.3-.1-.5-.4-.5-.7c0-.6 .7-2.3 2.1-5.1c1.3-2.9 2.3-4.6 3-5.3c.5-.5 1.3-1.2 2.6-2.1c.8-.5 1.8-1.2 3.2-2l1.6-.9c-.1-.3-.1-.6-.1-.9c0-.3-.1-.5-.1-.8c0-.7 .2-1.7 .6-2.8c.3-1.2 .9-2.6 1.8-4.3l2.9 18.6c.4 2.9 1 4.9 1.8 5.9c.4 .7 1.1 1.1 1.9 1.1h5.8c.5 0 1.8-.9 4-2.5c.7-.5 1.8-1.4 3.2-2.5c0-2.5-.1-4.5-.3-6.2c-.2-1.7-.4-3.5-.8-5.3c-.1-.4-.7-2.6-1.6-6.5l-1.8-1c.5-2.1 .9-3.6 1.2-4.5c.2-.9 .8-2.3 1.7-4.3Zm-61.4-2.3l7 3.7l-3.6 6.7l-7-3.6Zm41.7-1.4l5.4 2.8l-3.3 5.5l-4.3-2.4l-2.3 4.7l-5.6-3l3.1-5.2l4.4 2.2Z" class="g1_40"/>
<path fill-rule="evenodd" d="M481.5 310.3l-5.4 16.4H487l-5.4-16.4Zm-84.7-1.2v26.2h4.1c2.2 0 4-.3 5.4-.8c1.5-.6 2.7-1.4 3.7-2.5c1-1.2 1.7-2.6 2.2-4.2c.5-1.7 .8-3.7 .8-5.9c0-1.8-.3-3.5-.7-5.1c-.4-1.5-1.1-2.9-2-4.1c-1-1.1-2.2-2-3.7-2.7c-1.5-.6-3.4-.9-5.8-.9Zm-5.5-6.2h9.9c3.5 0 6.4 .4 8.8 1.2c2.4 .8 4.4 2 6 3.6c1.7 1.6 2.9 3.6 3.8 5.9c.8 2.3 1.3 5 1.3 8.1c0 3.5-.5 6.5-1.4 9c-1 2.5-2.3 4.6-4 6.2c-1.7 1.6-3.8 2.7-6.3 3.5c-2.5 .7-5.4 1.1-8.8 1.1h-9.3c-.6 0-1.2-.2-1.6-.6c-.5-.4-.7-1-.7-1.9V305.4c0-.9 .2-1.5 .7-1.9c.4-.4 1-.6 1.6-.6Zm64.6-.1c.7 0 1.2 0 1.7 .1c.5 0 .8 .1 1.1 .2c.2 .2 .4 .3 .5 .5c.1 .1 .1 .3 .1 .5v34.7c0 .4 0 .8-.2 1.2c-.2 .3-.4 .6-.7 .9c-.2 .2-.5 .4-.9 .5c-.4 .1-.7 .2-1.1 .2H453c-.7 0-1.3-.1-1.8-.2c-.5-.2-.9-.4-1.4-.8c-.4-.4-.8-.9-1.2-1.5c-.4-.6-.9-1.4-1.3-2.4l-9.6-18.1c-.6-1-1.2-2.2-1.7-3.4c-.6-1.3-1.1-2.5-1.6-3.7h-.1c.1 1.5 .2 2.9 .2 4.3c.1 1.4 .1 2.9 .1 4.4v20.2c0 .2-.1 .4-.2 .5c-.1 .2-.3 .3-.5 .4c-.3 .2-.7 .2-1.1 .3c-.5 .1-1.1 .1-1.8 .1c-.7 0-1.3 0-1.7-.1c-.5-.1-.8-.1-1.1-.3c-.3-.1-.4-.2-.5-.4c-.1-.1-.2-.3-.2-.5V305.7c0-.9 .3-1.6 .8-2.1c.6-.4 1.3-.7 2-.7h4.3c.7 0 1.4 .1 1.9 .2c.5 .1 .9 .4 1.3 .7c.5 .3 .8 .7 1.2 1.2c.4 .5 .7 1.2 1.1 2l7.5 14.1c.5 .8 .9 1.7 1.3 2.5c.4 .8 .8 1.6 1.2 2.4c.4 .9 .8 1.7 1.2 2.5c.4 .8 .8 1.6 1.1 2.4c0-1.4-.1-2.9-.1-4.4c0-1.5 0-2.9 0-4.3V304.1c0-.2 0-.4 .1-.5c.2-.2 .4-.3 .6-.5c.3-.1 .7-.2 1.1-.2c.5-.1 1.1-.1 1.8-.1Zm25.7 0c1.2 0 2.2 0 2.9 0c.6 0 1.2 .1 1.6 .2c.4 .1 .7 .3 .8 .5c.2 .2 .3 .5 .4 .9l12 34.2c.2 .7 .4 1.3 .4 1.7c.1 .4 0 .7-.2 .9c-.2 .2-.6 .4-1.2 .4c-.5 .1-1.3 .1-2.3 .1c-1 0-1.8 0-2.3-.1c-.6 0-1.1-.1-1.3-.1c-.3-.1-.5-.3-.7-.4c-.1-.2-.2-.4-.3-.6l-2.6-7.8H474.3l-2.4 7.6c-.1 .2-.2 .5-.3 .7c-.1 .1-.3 .3-.6 .4c-.3 .1-.7 .2-1.3 .2c-.5 .1-1.2 .1-2 .1c-.9 0-1.7 0-2.2-.1c-.5-.1-.9-.2-1.1-.4c-.2-.3-.2-.6-.2-1c.1-.4 .2-1 .5-1.7l11.9-34.2c.1-.3 .2-.6 .4-.8c.2-.2 .4-.4 .8-.5c.3-.1 .8-.2 1.4-.2c.6 0 1.4 0 2.4 0Z" class="g0_40"/>
<path d="M481.5 310.3l-5.4 16.4H487l-5.4-16.4Zm-84.7-1.2v26.2h4.1c2.2 0 4-.3 5.4-.8c1.5-.6 2.7-1.4 3.7-2.5c1-1.2 1.7-2.6 2.2-4.2c.5-1.7 .8-3.7 .8-5.9c0-1.8-.3-3.5-.7-5.1c-.4-1.5-1.1-2.9-2-4.1c-1-1.1-2.2-2-3.7-2.7c-1.5-.6-3.4-.9-5.8-.9Zm-5.5-6.2h9.9c3.5 0 6.4 .4 8.8 1.2c2.4 .8 4.4 2 6 3.6c1.7 1.6 2.9 3.6 3.8 5.9c.8 2.3 1.3 5 1.3 8.1c0 3.5-.5 6.5-1.4 9c-1 2.5-2.3 4.6-4 6.2c-1.7 1.6-3.8 2.7-6.3 3.5c-2.5 .7-5.4 1.1-8.8 1.1h-9.3c-.6 0-1.2-.2-1.6-.6c-.5-.4-.7-1-.7-1.9V305.4c0-.9 .2-1.5 .7-1.9c.4-.4 1-.6 1.6-.6Zm64.6-.1c.7 0 1.2 0 1.7 .1c.5 0 .8 .1 1.1 .2c.2 .2 .4 .3 .5 .5c.1 .1 .1 .3 .1 .5v34.7c0 .4 0 .8-.2 1.2c-.2 .3-.4 .6-.7 .9c-.2 .2-.5 .4-.9 .5c-.4 .1-.7 .2-1.1 .2H453c-.7 0-1.3-.1-1.8-.2c-.5-.2-.9-.4-1.4-.8c-.4-.4-.8-.9-1.2-1.5c-.4-.6-.9-1.4-1.3-2.4l-9.6-18.1c-.6-1-1.2-2.2-1.7-3.4c-.6-1.3-1.1-2.5-1.6-3.7h-.1c.1 1.5 .2 2.9 .2 4.3c.1 1.4 .1 2.9 .1 4.4v20.2c0 .2-.1 .4-.2 .5c-.1 .2-.3 .3-.5 .4c-.3 .2-.7 .2-1.1 .3c-.5 .1-1.1 .1-1.8 .1c-.7 0-1.3 0-1.7-.1c-.5-.1-.8-.1-1.1-.3c-.3-.1-.4-.2-.5-.4c-.1-.1-.2-.3-.2-.5V305.7c0-.9 .3-1.6 .8-2.1c.6-.4 1.3-.7 2-.7h4.3c.7 0 1.4 .1 1.9 .2c.5 .1 .9 .4 1.3 .7c.5 .3 .8 .7 1.2 1.2c.4 .5 .7 1.2 1.1 2l7.5 14.1c.5 .8 .9 1.7 1.3 2.5c.4 .8 .8 1.6 1.2 2.4c.4 .9 .8 1.7 1.2 2.5c.4 .8 .8 1.6 1.1 2.4c0-1.4-.1-2.9-.1-4.4c0-1.5 0-2.9 0-4.3V304.1c0-.2 0-.4 .1-.5c.2-.2 .4-.3 .6-.5c.3-.1 .7-.2 1.1-.2c.5-.1 1.1-.1 1.8-.1Zm25.7 0c1.2 0 2.2 0 2.9 0c.6 0 1.2 .1 1.6 .2c.4 .1 .7 .3 .8 .5c.2 .2 .3 .5 .4 .9l12 34.2c.2 .7 .4 1.3 .4 1.7c.1 .4 0 .7-.2 .9c-.2 .2-.6 .4-1.2 .4c-.5 .1-1.3 .1-2.3 .1c-1 0-1.8 0-2.3-.1c-.6 0-1.1-.1-1.3-.1c-.3-.1-.5-.3-.7-.4c-.1-.2-.2-.4-.3-.6l-2.6-7.8H474.3l-2.4 7.6c-.1 .2-.2 .5-.3 .7c-.1 .1-.3 .3-.6 .4c-.3 .1-.7 .2-1.3 .2c-.5 .1-1.2 .1-2 .1c-.9 0-1.7 0-2.2-.1c-.5-.1-.9-.2-1.1-.4c-.2-.3-.2-.6-.2-1c.1-.4 .2-1 .5-1.7l11.9-34.2c.1-.3 .2-.6 .4-.8c.2-.2 .4-.4 .8-.5c.3-.1 .8-.2 1.4-.2c.6 0 1.4 0 2.4 0Z" class="g1_40"/>
<path fill-rule="evenodd" d="M357.3 335.3l7 3.7l-3.6 6.6l-7-3.6Zm-16.5 0l7 3.7l-3.6 6.6l-7-3.6Zm-97.2-.3l5.5 3l-3.1 5.8l-4.4-2.2l-2.5 4.8l-5.4-3l3.3-6.1l4.2 2.4Zm-62.4 0l5.6 3l-3.1 5.8l-4.4-2.2l-2.5 4.8l-5.5-3l3.3-6.1l4.3 2.4Zm-73.5-15.1c-.7 0-1.2 .2-1.5 .7c-.4 .5-.6 1-.6 1.6c0 .7 .4 1.3 1.2 1.8c.8 .4 1.8 .7 3.1 .7h1.2c-.6-3.2-1.7-4.8-3.4-4.8Zm157.8-.2c-.8 0-1.4 .9-1.9 2.7c1 .4 1.8 .7 2.3 .9c1.6 .6 2.5 .9 2.7 .9c.5 0 .7-.2 .7-.5c0-.4-.4-1.2-1.3-2.2c-1-1.2-1.8-1.8-2.5-1.8Zm31.5-6.3c1.3 1.4 2.4 3 3.1 4.8c.8 1.8 1.1 3.8 1.1 6.1v9.2c0 1.2-.7 2.8-2.1 4.8c-1.4 2-3 3.7-4.8 5.2c-2.1 1.6-3.9 2.4-5.4 2.4c-1.7 0-3.6-.5-5.6-1.5c-1.7-.8-4.5-2.5-8.2-5.1l1.3-1.8c1.8 1.1 3.2 2 4.3 2.4c1.1 .4 2.3 .6 3.5 .6c1.4 0 2.8-.4 4.2-1.2c1.3-.7 3.2-2.2 5.6-4.3c3.3-2.9 4.9-5.2 4.9-6.8c0-.8-.3-1.8-1-3.1c-.7-1.5-1.5-2.7-2.6-3.7Zm-218-.1c1.1 0 2.1 .5 2.7 1.4c.7 .9 1.1 2.1 1.1 3.6c0 1.1-.2 2-.4 2.7c-.2 .7-.7 1.6-1.4 2.8c-.5-1.4-1-2.3-1.3-2.8c-.4-.4-.9-.6-1.6-.6c-1.1 0-2.6 .6-4.5 1.8c-1.8 1.3-2.8 2.3-2.8 3.1c0 .5 .4 .8 1.2 .9c.5 .2 1.3 .2 2.5 .2c.3 0 .6 0 .8 0c.3 0 .6 0 .9 0c2.2 0 3.6 .2 4.3 .7c.7 .3 1 1.1 1 2.2c0 2.1-.4 4.2-1.2 6.1c-1 2.5-2.5 4.3-4.3 5.3c-2.4 1.4-4.9 2.4-7.4 3.2c-2.6 .9-5 1.3-7.2 1.3c-6.1 0-9.2-2.8-9.2-8.3c0-2.9 .3-5.3 1-7.3c.8-2.3 2.4-5.3 4.9-9.2l1.4 .9c-1.5 2.5-2.6 4.7-3.3 6.6c-.7 2-1.1 3.7-1.1 5.1c0 3.8 2.1 5.6 6.3 5.6c1.6 0 3.1-.1 4.6-.4c1.4-.3 2.9-.7 4.3-1.2c1-.3 2.1-.8 3.3-1.3c2-.9 3-1.3 3.1-1.4c.9-.5 1.4-.9 1.4-1.3c0-.2-.5-.3-1.5-.4c-.9 0-1.6 0-2 0c-3.1 0-5.1-.5-6.2-1.3c-.8-.8-1.2-2.1-1.2-4c0-.9 .3-2.1 .9-3.5c.6-1.4 1.3-2.7 2.3-4.1c1.4-2.1 2.9-3.7 4.3-4.7c1.5-1.1 2.9-1.7 4.3-1.7Zm71.9-2.4c1.3 0 2.5 .3 3.7 1c1.2 .6 2.6 1.6 4.1 3.1c1.2 1.1 2.9 2.8 5.1 5.2c1.5 1.6 2.6 2.7 3.4 3.2c.8 .5 2 .9 3.5 1.3h13.6c-.2-1.4-.6-2.5-1.2-3.5c-.3-.5-1-1.4-2.1-2.6l2.4-7.1c1.5 1.6 2.5 3.4 3 5.3c.6 1.8 .9 4.6 .9 8.2v7.8H114.4v.5c-.6 2.5-1.9 5-4.1 7.5c-2.9 3.4-5.8 5.1-8.6 5.1c-1.7 0-3.5-.6-5.4-1.6c-2-1.1-5-3.1-9-6.2l1.2-1.8c2.2 1.4 3.9 2.4 5.3 2.9c1.1 .4 2.4 .6 3.8 .6c2 0 3.9-.6 5.8-1.6c2.2-1.3 4.5-3.4 6.9-6.2c-.9 .2-1.6 .2-2.1 .2c-2 0-3.5-.6-4.7-1.9c-1.2-1.3-1.8-3-1.8-5.2c0-3 .7-5.9 2.1-8.7c1.5-3 3.2-4.5 5.1-4.5c1.6 0 2.9 1.1 4.1 3.3c1.1 2.2 1.6 4.8 1.6 7.8v1.7h21.3c-.2-1.4-.6-2.5-1.2-3.5c-.3-.5-1-1.4-2.1-2.6l2.4-7.1c1.5 1.6 2.5 3.4 3 5.3c.5 1.6 .8 3.9 .8 6.9l.1 1h19c-2.4-2.5-4.6-4.3-6.7-5.4c-1.8-1-3.6-1.5-5.3-1.5c-.5 0-1 .1-1.4 .1c-.4 .1-1.1 .2-1.9 .4c1.1-2.6 2.3-4.4 3.7-5.6c1.3-1.2 2.8-1.8 4.6-1.8Zm67.5-6.3c2.5 1.9 4.4 4.4 5.5 7.4c.9 2.9 1.4 6.6 1.4 11.2v1.5h21.3c-.2-1.4-.6-2.5-1.2-3.5c-.3-.5-1-1.4-2.1-2.6l2.4-7.1c1.5 1.6 2.5 3.4 3.1 5.3c.5 1.6 .7 3.9 .8 6.9v1h3.7c1.8 0 3.2-.3 4.3-.7c1.3-.6 2.3-1.5 2.8-2.9c1.1-2.5 2.6-4.6 4.3-6.2c1.6-1.5 3-2.2 4.1-2.2c1 0 2.2 1.5 3.7 4.6c1.6 3.2 2.4 6.2 2.4 8.9v6.5c-2.1 0-4.6-.4-7.4-1.2c-2.5-.7-4.7-1.5-6.6-2.5c-1.1 1.7-2.5 2.8-4.2 3.4c-.8 .2-2 .4-3.4 .4H211.8c-1.3 0-2.3-.3-3-.9c-.8-.6-1.3-1.7-1.3-3.3c0-.8 .1-1.8 .2-2.8c.1-1 .2-2 .4-3.1h1.1c.2 .7 .5 1.2 1.1 1.5c.5 .3 1.2 .5 2 .5h10.2c-.5-2.9-1.2-5.3-2.4-7c-.9-1.5-2.2-2.7-3.9-3.8Zm74.4-5.4l6.9 3.7l-3.6 6.7l-6.9-3.7Zm11-.1c1.2 0 3 .7 5.3 2c2.3 1.4 4.5 3.1 6.5 5c4.7 4.3 7 8.2 7 11.7c0 .6-.1 1.2-.3 1.7c-.2 .5-.5 1.2-1 2c-1.2-2.7-2.5-4.8-3.9-6.5c-1.4-1.7-3-3.1-5-4.1c0 .9-.1 1.5-.3 1.9c-.2 .4-.4 .6-.8 .6c-.6 0-1.7-.6-3.3-1.7c-1.7-1.2-2.9-2.4-3.7-3.5c-.5-.8-.9-1.9-1.2-3.4c-.3-1.5-.4-2.7-.4-3.6c0-1.4 .4-2.1 1.1-2.1Zm-171-1.2l5.6 3l-3.1 5.8l-4.4-2.2l-2.5 4.8l-5.5-3l3.3-6.1l4.3 2.4Zm194.5-3.1c1 3.4 1.7 7.8 1.9 13.3c.2 3.9 .4 7.7 .5 11.6c.4 3.3 1.1 5 2.4 5h15.7c-.2-1.4-.6-2.5-1.2-3.5c-.3-.5-1-1.4-2.1-2.6l2.4-7.1c1.5 1.6 2.5 3.4 3.1 5.3c.5 1.6 .7 3.9 .8 6.9v1h13.5c-.2-1.4-.6-2.5-1.2-3.5c-.3-.5-1-1.4-2.1-2.6l2.4-7.1c1.5 1.6 2.5 3.4 3.1 5.3c.5 1.8 .8 4.6 .8 8.2v7.8H332.1c-1.3 0-2.5-1.1-3.6-3.1c-1.2-2.2-1.8-4.7-1.8-7.5c-1.7 5.2-4.2 8.8-7.3 10.7c-3 1.9-7.7 2.9-14 2.9l-3.4-.1v-1.9c1.4-.5 2.8-1 4.2-1.5c1.4-.5 2.5-.9 3.2-1.2c4-2.1 6.8-3.6 8.2-4.5c2.6-1.6 4.4-3.4 5.5-5.2c1.4-2.1 2-4.7 2-7.8c0-1.8-.1-3.6-.4-5.4c-.3-1.7-.6-3.5-.9-5.2c0-1.4 1.2-4.1 3.5-8.2Z" class="g0_40"/>
<path d="M357.3 335.3l7 3.7l-3.6 6.6l-7-3.6Zm-16.5 0l7 3.7l-3.6 6.6l-7-3.6Zm-97.2-.3l5.5 3l-3.1 5.8l-4.4-2.2l-2.5 4.8l-5.4-3l3.3-6.1l4.2 2.4Zm-62.4 0l5.6 3l-3.1 5.8l-4.4-2.2l-2.5 4.8l-5.5-3l3.3-6.1l4.3 2.4Zm-73.5-15.1c-.7 0-1.2 .2-1.5 .7c-.4 .5-.6 1-.6 1.6c0 .7 .4 1.3 1.2 1.8c.8 .4 1.8 .7 3.1 .7h1.2c-.6-3.2-1.7-4.8-3.4-4.8Zm157.8-.2c-.8 0-1.4 .9-1.9 2.7c1 .4 1.8 .7 2.3 .9c1.6 .6 2.5 .9 2.7 .9c.5 0 .7-.2 .7-.5c0-.4-.4-1.2-1.3-2.2c-1-1.2-1.8-1.8-2.5-1.8Zm31.5-6.3c1.3 1.4 2.4 3 3.1 4.8c.8 1.8 1.1 3.8 1.1 6.1v9.2c0 1.2-.7 2.8-2.1 4.8c-1.4 2-3 3.7-4.8 5.2c-2.1 1.6-3.9 2.4-5.4 2.4c-1.7 0-3.6-.5-5.6-1.5c-1.7-.8-4.5-2.5-8.2-5.1l1.3-1.8c1.8 1.1 3.2 2 4.3 2.4c1.1 .4 2.3 .6 3.5 .6c1.4 0 2.8-.4 4.2-1.2c1.3-.7 3.2-2.2 5.6-4.3c3.3-2.9 4.9-5.2 4.9-6.8c0-.8-.3-1.8-1-3.1c-.7-1.5-1.5-2.7-2.6-3.7Zm-218-.1c1.1 0 2.1 .5 2.7 1.4c.7 .9 1.1 2.1 1.1 3.6c0 1.1-.2 2-.4 2.7c-.2 .7-.7 1.6-1.4 2.8c-.5-1.4-1-2.3-1.3-2.8c-.4-.4-.9-.6-1.6-.6c-1.1 0-2.6 .6-4.5 1.8c-1.8 1.3-2.8 2.3-2.8 3.1c0 .5 .4 .8 1.2 .9c.5 .2 1.3 .2 2.5 .2c.3 0 .6 0 .8 0c.3 0 .6 0 .9 0c2.2 0 3.6 .2 4.3 .7c.7 .3 1 1.1 1 2.2c0 2.1-.4 4.2-1.2 6.1c-1 2.5-2.5 4.3-4.3 5.3c-2.4 1.4-4.9 2.4-7.4 3.2c-2.6 .9-5 1.3-7.2 1.3c-6.1 0-9.2-2.8-9.2-8.3c0-2.9 .3-5.3 1-7.3c.8-2.3 2.4-5.3 4.9-9.2l1.4 .9c-1.5 2.5-2.6 4.7-3.3 6.6c-.7 2-1.1 3.7-1.1 5.1c0 3.8 2.1 5.6 6.3 5.6c1.6 0 3.1-.1 4.6-.4c1.4-.3 2.9-.7 4.3-1.2c1-.3 2.1-.8 3.3-1.3c2-.9 3-1.3 3.1-1.4c.9-.5 1.4-.9 1.4-1.3c0-.2-.5-.3-1.5-.4c-.9 0-1.6 0-2 0c-3.1 0-5.1-.5-6.2-1.3c-.8-.8-1.2-2.1-1.2-4c0-.9 .3-2.1 .9-3.5c.6-1.4 1.3-2.7 2.3-4.1c1.4-2.1 2.9-3.7 4.3-4.7c1.5-1.1 2.9-1.7 4.3-1.7Zm71.9-2.4c1.3 0 2.5 .3 3.7 1c1.2 .6 2.6 1.6 4.1 3.1c1.2 1.1 2.9 2.8 5.1 5.2c1.5 1.6 2.6 2.7 3.4 3.2c.8 .5 2 .9 3.5 1.3h13.6c-.2-1.4-.6-2.5-1.2-3.5c-.3-.5-1-1.4-2.1-2.6l2.4-7.1c1.5 1.6 2.5 3.4 3 5.3c.6 1.8 .9 4.6 .9 8.2v7.8H114.4v.5c-.6 2.5-1.9 5-4.1 7.5c-2.9 3.4-5.8 5.1-8.6 5.1c-1.7 0-3.5-.6-5.4-1.6c-2-1.1-5-3.1-9-6.2l1.2-1.8c2.2 1.4 3.9 2.4 5.3 2.9c1.1 .4 2.4 .6 3.8 .6c2 0 3.9-.6 5.8-1.6c2.2-1.3 4.5-3.4 6.9-6.2c-.9 .2-1.6 .2-2.1 .2c-2 0-3.5-.6-4.7-1.9c-1.2-1.3-1.8-3-1.8-5.2c0-3 .7-5.9 2.1-8.7c1.5-3 3.2-4.5 5.1-4.5c1.6 0 2.9 1.1 4.1 3.3c1.1 2.2 1.6 4.8 1.6 7.8v1.7h21.3c-.2-1.4-.6-2.5-1.2-3.5c-.3-.5-1-1.4-2.1-2.6l2.4-7.1c1.5 1.6 2.5 3.4 3 5.3c.5 1.6 .8 3.9 .8 6.9l.1 1h19c-2.4-2.5-4.6-4.3-6.7-5.4c-1.8-1-3.6-1.5-5.3-1.5c-.5 0-1 .1-1.4 .1c-.4 .1-1.1 .2-1.9 .4c1.1-2.6 2.3-4.4 3.7-5.6c1.3-1.2 2.8-1.8 4.6-1.8Zm67.5-6.3c2.5 1.9 4.4 4.4 5.5 7.4c.9 2.9 1.4 6.6 1.4 11.2v1.5h21.3c-.2-1.4-.6-2.5-1.2-3.5c-.3-.5-1-1.4-2.1-2.6l2.4-7.1c1.5 1.6 2.5 3.4 3.1 5.3c.5 1.6 .7 3.9 .8 6.9v1h3.7c1.8 0 3.2-.3 4.3-.7c1.3-.6 2.3-1.5 2.8-2.9c1.1-2.5 2.6-4.6 4.3-6.2c1.6-1.5 3-2.2 4.1-2.2c1 0 2.2 1.5 3.7 4.6c1.6 3.2 2.4 6.2 2.4 8.9v6.5c-2.1 0-4.6-.4-7.4-1.2c-2.5-.7-4.7-1.5-6.6-2.5c-1.1 1.7-2.5 2.8-4.2 3.4c-.8 .2-2 .4-3.4 .4H211.8c-1.3 0-2.3-.3-3-.9c-.8-.6-1.3-1.7-1.3-3.3c0-.8 .1-1.8 .2-2.8c.1-1 .2-2 .4-3.1h1.1c.2 .7 .5 1.2 1.1 1.5c.5 .3 1.2 .5 2 .5h10.2c-.5-2.9-1.2-5.3-2.4-7c-.9-1.5-2.2-2.7-3.9-3.8Zm74.4-5.4l6.9 3.7l-3.6 6.7l-6.9-3.7Zm11-.1c1.2 0 3 .7 5.3 2c2.3 1.4 4.5 3.1 6.5 5c4.7 4.3 7 8.2 7 11.7c0 .6-.1 1.2-.3 1.7c-.2 .5-.5 1.2-1 2c-1.2-2.7-2.5-4.8-3.9-6.5c-1.4-1.7-3-3.1-5-4.1c0 .9-.1 1.5-.3 1.9c-.2 .4-.4 .6-.8 .6c-.6 0-1.7-.6-3.3-1.7c-1.7-1.2-2.9-2.4-3.7-3.5c-.5-.8-.9-1.9-1.2-3.4c-.3-1.5-.4-2.7-.4-3.6c0-1.4 .4-2.1 1.1-2.1Zm-171-1.2l5.6 3l-3.1 5.8l-4.4-2.2l-2.5 4.8l-5.5-3l3.3-6.1l4.3 2.4Zm194.5-3.1c1 3.4 1.7 7.8 1.9 13.3c.2 3.9 .4 7.7 .5 11.6c.4 3.3 1.1 5 2.4 5h15.7c-.2-1.4-.6-2.5-1.2-3.5c-.3-.5-1-1.4-2.1-2.6l2.4-7.1c1.5 1.6 2.5 3.4 3.1 5.3c.5 1.6 .7 3.9 .8 6.9v1h13.5c-.2-1.4-.6-2.5-1.2-3.5c-.3-.5-1-1.4-2.1-2.6l2.4-7.1c1.5 1.6 2.5 3.4 3.1 5.3c.5 1.8 .8 4.6 .8 8.2v7.8H332.1c-1.3 0-2.5-1.1-3.6-3.1c-1.2-2.2-1.8-4.7-1.8-7.5c-1.7 5.2-4.2 8.8-7.3 10.7c-3 1.9-7.7 2.9-14 2.9l-3.4-.1v-1.9c1.4-.5 2.8-1 4.2-1.5c1.4-.5 2.5-.9 3.2-1.2c4-2.1 6.8-3.6 8.2-4.5c2.6-1.6 4.4-3.4 5.5-5.2c1.4-2.1 2-4.7 2-7.8c0-1.8-.1-3.6-.4-5.4c-.3-1.7-.6-3.5-.9-5.2c0-1.4 1.2-4.1 3.5-8.2Z" class="g1_40"/>
<path fill-rule="evenodd" d="M1358.4 408.3l5.6 3.1l-3.1 5.7l-4.4-2.2l-2.6 4.9l-5.4-3.1l3.3-6.1l4.2 2.4Zm-84.1 0l5.5 3.1l-3.1 5.7l-4.4-2.2l-2.5 4.9l-5.4-3.1l3.3-6.1l4.2 2.4Zm63.4-16.2c-1.3 0-2.8 .4-4.4 1.3c-1.7 .8-4 2.4-7.2 4.6h7.8c6.6 0 9.9-1 9.9-3c0-.7-.8-1.4-2.2-2c-1.5-.6-2.8-.9-3.9-.9Zm-86.1-6.4c-.7 .3-1.2 .5-1.5 .7c-1.1 .6-2 1.1-2.7 1.6c-.4 .4-.8 .8-1.1 1.1c-.4 .5-.6 .8-.6 1c0 .3 .3 .5 1 .7c.7 .1 1.4 .2 2.1 .2c.4 0 .9-.1 1.3-.4c.5-.2 1.2-.7 2.1-1.3Zm38-2.2c-.6 0-1.1 .3-1.6 .8c-.5 .6-.7 1.2-.7 1.9c0 .5 .2 .9 .5 1.2c.4 .3 .9 .4 1.4 .4c.5 0 1-.1 1.4-.4c.5-.2 1.1-.7 1.7-1.4c-.5-.9-1-1.5-1.4-1.9c-.4-.4-.8-.6-1.3-.6Zm129.4-9l5.5 3l-3.3 6.1l-4.3-2.4l-2.3 4.7l-5.6-3l3.1-5.8l4.4 2.2Zm-165.8-2l2.9 18.5c.5 3 1 5 1.8 6c.5 .7 1.1 1 2 1h17.4c-.2-1.4-.6-2.5-1.2-3.4c-.3-.5-1-1.4-2.1-2.7l2.4-7.1c1.5 1.7 2.5 3.5 3.1 5.3c.4 1.6 .7 3.9 .8 6.9v1H1296c0-1.7 0-3-.1-3.7c-.2-1.1-.5-2.1-1-2.9c-.7 1.2-1.5 2.1-2.6 2.8c-1.1 .6-2.2 1-3.4 1c-1.6 0-2.9-.6-4-1.6c-1.1-1.1-1.7-2.4-1.7-4c0-2.3 .7-5.1 2.2-8.3c1.5-3.6 3.1-5.3 4.7-5.3c2.1 0 4.1 1.8 5.9 5.4c1.9 3.7 2.8 7.5 2.8 11.6v13.1h-38.9c-.8 0-1.4-.1-2-.4c-1.2-.6-2.1-1.7-2.9-3.2c-1.1-2.1-1.8-5-2.1-8.6c-1.4 1.6-2.4 2.8-3.2 3.5c-1.1 1-2 1.5-2.7 1.5c-.4 0-.9 0-1.5-.1l-3.6-.8c-1.5-.3-2.5-.5-2.9-.7c-.3-.1-.5-.4-.5-.7c0-.5 .7-2.2 2.1-5.1c1.4-2.8 2.4-4.6 3-5.3c.5-.5 1.4-1.2 2.6-2.1c.8-.5 1.9-1.1 3.2-2l1.6-.9c0-.3-.1-.5-.1-.8c0-.3 0-.6 0-.9c0-.7 .1-1.7 .5-2.8c.3-1.1 .9-2.6 1.8-4.2Zm196.7-2.6l1.7 10.6c.7 4 1.2 7.5 1.4 10.4c.2 2.3 .3 4.4 .3 6.5c0 1.8-.2 3.4-.6 4.9c-.4 1.4-1.2 3.4-2.4 5.9l-1.8-.8c.5-2.5 .7-4.6 .7-6.2c0-1.2-.1-2.9-.3-5.3c-.2-2.3-.4-4.7-.7-6.9c-.3-2.4-.8-5.1-1.5-8.3c-.2-1.1-.4-1.8-.4-2.3c0-.6 .4-1.6 1-3.1c.6-1.5 1.4-3.3 2.6-5.4Zm-36.8-2.3l5.6 2.9l-3 6.2l-5.6-3Zm23 0l1.3 .7c0 .1 0 .4-.1 .9c0 .7 .4 1.3 1.3 1.9c.7 .6 1.9 1.2 3.5 1.9c-.2 1.3-.5 2.5-.8 3.7c-.4 1.2-.7 2.3-1.2 3.3l-1.1-.5l3.3 18.5v8.1h-16.4l-1-.1c-1-.1-1.8-.2-2.5-.4c-1.5-.3-3-.8-4.4-1.5c-1.1 .8-2.2 1.4-3.1 1.6c-.9 .3-2.2 .4-4 .4H1406c-1.3 0-2.4-.3-3.2-1c-.7-.7-1.4-1.9-2-3.5c-1.1 1.7-2.4 2.9-3.7 3.6c-1.2 .6-2.5 .9-4.2 .9h-2.1v.7c0 1.2-.7 2.8-2.1 4.8c-1.4 2-3 3.7-4.9 5.2c-2.1 1.6-3.8 2.5-5.3 2.5c-1.8 0-3.6-.6-5.6-1.5c-1.8-.9-4.5-2.6-8.2-5.2l1.2-1.8c1.8 1.2 3.2 2 4.3 2.4c1.1 .4 2.3 .6 3.6 .6c1.4 0 2.7-.4 4.1-1.1c1.4-.8 3.2-2.2 5.6-4.4c3.3-2.9 5-5.2 5-6.8c0-.7-.4-1.8-1-3.1c-.7-1.5-1.6-2.7-2.6-3.7l1.7-8c1.3 1.4 2.3 3 3.1 4.8c.7 1.8 1.1 3.9 1.1 6.2v.3h2.1c2.1 0 3.9-.6 5.3-1.8c1.8-1.5 2.7-3.8 2.7-6.9l1.9 .3c0 .6 0 1.3-.1 2.1c0 .8 0 1.8 0 2.8c0 1 .3 1.8 1 2.5c.7 .7 1.5 1 2.4 1h3.7c2.4 0 4.1-.3 5.1-1c1.3-.8 1.9-2.3 1.9-4.6c0-.4 .2-.9 .5-1.3c.1-.2 .5-.5 1.1-.9l1.1-.9c0 .3 .1 .8 .1 1.5c0 .6 0 1.1 0 1.3c0 1.1-.1 2.5-.4 4.3c.7 .4 1.5 .7 2.4 .9c.9 .3 1.9 .5 2.9 .6c0-.6-.2-1.5-.7-2.6c-.5-1.1-.8-1.8-.8-2.2c0-.5 .1-.9 .2-1.1c.1-.2 .3-.5 .7-1l2.5-3.4c.6 1.2 .9 2.4 1.2 3.4c.2 1 .3 2.3 .3 3.8V398h10.8l-3.6-20.2l-1.9-1.3c0-1.2 .2-2.3 .5-3.5c.5-1.6 1.3-3.4 2.4-5.4Zm-254.3 0l1.4 .7c0 .1-.1 .4-.2 .9c0 .7 .4 1.3 1.3 1.9c.7 .6 1.9 1.2 3.5 1.9c-.2 1.3-.4 2.5-.8 3.7c-.3 1.2-.7 2.3-1.2 3.3l-1-.5L1188 398h1.1c.6 0 1 0 1.3 0c.6-.1 1.2-.2 1.8-.2c-1-1.5-1.7-2.7-2-3.6c-.4-1-.5-2-.5-3.2c0-2.9 1.2-5.5 3.6-7.7c2.5-2.2 5.4-3.3 8.6-3.3c2.3 0 4.4 .7 6.4 2.1c1.8 1.4 3.2 3 4 5l-1.2 1c-1.6-.6-2.8-.9-3.8-1.1c-.9-.2-2-.3-3.4-.3c-2.4 0-4.6 .2-6.4 .6c-2.3 .5-3.4 1.2-3.4 2.1c0 1.4 2.7 3.7 8.3 6.8l15.1-4.3l-3.3 8.5c-5.4 1.6-9.8 2.9-13.3 3.8c-3 .7-5.6 1.3-7.7 1.6c-1.5 .2-3.1 .3-4.6 .3h-17.5c-.7 0-1.3 .1-1.8 .2c-.4 .1-.7 .3-.7 .5c0 .1 .5 .4 1.5 .7c1 .4 1.5 1 1.5 1.8c0 1.1-.2 2.4-.5 3.9c-.4 1.6-.8 3-1.4 4.2c-.4 1-1.7 2.1-3.7 3.3c-2.1 1.3-4.5 2.4-7.3 3.3c-3.1 1-6 1.5-8.8 1.5c-3.3 0-5.7-.8-7.4-2.3c-1.6-1.5-2.4-3.7-2.4-6.5c0-3.1 .4-5.9 1.1-8.2c.9-2.8 2.8-6.4 5.6-10.9l1.7 1.3c-1.9 3.1-3.2 5.7-3.9 7.6c-.6 1.8-1 3.7-1 5.5c0 1.9 .6 3.3 1.8 4.4c1.1 1 2.8 1.5 4.8 1.5c2.5 0 5.3-.3 8.2-1.1c2.6-.7 4.8-1.6 6.7-2.5c1.9-1 2.8-1.8 2.8-2.5c0-.2-.5-.3-1.6-.3c-1.2-.1-2.1-.1-3-.1c-2.1 0-3.5-.1-4.1-.2c-.6-.2-.9-.5-.9-1.1c0-1.1 .2-2.2 .6-3.4c.3-1.2 .8-2.1 1.3-2.8c1.3-1.6 2.9-2.9 4.7-4c2-1.3 3.8-1.9 5.4-1.9h14.1l-3.6-20.2l-1.9-1.3c0-1.2 .2-2.3 .6-3.5c.4-1.6 1.2-3.4 2.3-5.4Zm141.7-2.4l1.3 .6c0 .1 0 .3-.1 .7c0 .7 1 1.6 3 2.5c.6 .3 1.6 .8 2.9 1.2c-.2 1.6-.5 3.1-.9 4.4c-.3 .7-.7 1.7-1.2 3.2l-1.1-.4c.6 2.8 1 4.9 1.2 6.2c.2 1.4 .3 2.6 .3 3.6v.4c0 .5 0 1 0 1.3c0 .3-.1 .9-.3 1.6c1.1-.8 2.1-1.6 3.2-2.3c1.6-1.1 3-2.1 4.3-2.8c1.7-.9 2.9-1.3 3.8-1.3c2.3 0 4.2 .6 5.6 1.8c1.6 1.4 2.4 3.3 2.4 5.9V398h13.6c-.3-1.4-.7-2.5-1.2-3.4c-.3-.5-1-1.4-2.1-2.7l2.4-7.1c1.5 1.7 2.5 3.5 3 5.3c.6 1.9 .8 4.6 .8 8.2v7.8h-50.5V398h3.9c.5 0 1.9-.8 4.1-2.5c.7-.5 1.8-1.3 3.2-2.5c0-2.4-.1-4.5-.3-6.2c-.2-1.7-.5-3.4-.9-5.3c-.1-.4-.6-2.5-1.6-6.4l-1.7-1.1c.4-2.1 .8-3.6 1.1-4.5c.3-.9 .9-2.3 1.8-4.3Zm-35.9-2.2l6.9 3.7l-3.6 6.6l-7-3.6Z" class="g0_40"/>
<path d="M1358.4 408.3l5.6 3.1l-3.1 5.7l-4.4-2.2l-2.6 4.9l-5.4-3.1l3.3-6.1l4.2 2.4Zm-84.1 0l5.5 3.1l-3.1 5.7l-4.4-2.2l-2.5 4.9l-5.4-3.1l3.3-6.1l4.2 2.4Zm63.4-16.2c-1.3 0-2.8 .4-4.4 1.3c-1.7 .8-4 2.4-7.2 4.6h7.8c6.6 0 9.9-1 9.9-3c0-.7-.8-1.4-2.2-2c-1.5-.6-2.8-.9-3.9-.9Zm-86.1-6.4c-.7 .3-1.2 .5-1.5 .7c-1.1 .6-2 1.1-2.7 1.6c-.4 .4-.8 .8-1.1 1.1c-.4 .5-.6 .8-.6 1c0 .3 .3 .5 1 .7c.7 .1 1.4 .2 2.1 .2c.4 0 .9-.1 1.3-.4c.5-.2 1.2-.7 2.1-1.3Zm38-2.2c-.6 0-1.1 .3-1.6 .8c-.5 .6-.7 1.2-.7 1.9c0 .5 .2 .9 .5 1.2c.4 .3 .9 .4 1.4 .4c.5 0 1-.1 1.4-.4c.5-.2 1.1-.7 1.7-1.4c-.5-.9-1-1.5-1.4-1.9c-.4-.4-.8-.6-1.3-.6Zm129.4-9l5.5 3l-3.3 6.1l-4.3-2.4l-2.3 4.7l-5.6-3l3.1-5.8l4.4 2.2Zm-165.8-2l2.9 18.5c.5 3 1 5 1.8 6c.5 .7 1.1 1 2 1h17.4c-.2-1.4-.6-2.5-1.2-3.4c-.3-.5-1-1.4-2.1-2.7l2.4-7.1c1.5 1.7 2.5 3.5 3.1 5.3c.4 1.6 .7 3.9 .8 6.9v1H1296c0-1.7 0-3-.1-3.7c-.2-1.1-.5-2.1-1-2.9c-.7 1.2-1.5 2.1-2.6 2.8c-1.1 .6-2.2 1-3.4 1c-1.6 0-2.9-.6-4-1.6c-1.1-1.1-1.7-2.4-1.7-4c0-2.3 .7-5.1 2.2-8.3c1.5-3.6 3.1-5.3 4.7-5.3c2.1 0 4.1 1.8 5.9 5.4c1.9 3.7 2.8 7.5 2.8 11.6v13.1h-38.9c-.8 0-1.4-.1-2-.4c-1.2-.6-2.1-1.7-2.9-3.2c-1.1-2.1-1.8-5-2.1-8.6c-1.4 1.6-2.4 2.8-3.2 3.5c-1.1 1-2 1.5-2.7 1.5c-.4 0-.9 0-1.5-.1l-3.6-.8c-1.5-.3-2.5-.5-2.9-.7c-.3-.1-.5-.4-.5-.7c0-.5 .7-2.2 2.1-5.1c1.4-2.8 2.4-4.6 3-5.3c.5-.5 1.4-1.2 2.6-2.1c.8-.5 1.9-1.1 3.2-2l1.6-.9c0-.3-.1-.5-.1-.8c0-.3 0-.6 0-.9c0-.7 .1-1.7 .5-2.8c.3-1.1 .9-2.6 1.8-4.2Zm196.7-2.6l1.7 10.6c.7 4 1.2 7.5 1.4 10.4c.2 2.3 .3 4.4 .3 6.5c0 1.8-.2 3.4-.6 4.9c-.4 1.4-1.2 3.4-2.4 5.9l-1.8-.8c.5-2.5 .7-4.6 .7-6.2c0-1.2-.1-2.9-.3-5.3c-.2-2.3-.4-4.7-.7-6.9c-.3-2.4-.8-5.1-1.5-8.3c-.2-1.1-.4-1.8-.4-2.3c0-.6 .4-1.6 1-3.1c.6-1.5 1.4-3.3 2.6-5.4Zm-36.8-2.3l5.6 2.9l-3 6.2l-5.6-3Zm23 0l1.3 .7c0 .1 0 .4-.1 .9c0 .7 .4 1.3 1.3 1.9c.7 .6 1.9 1.2 3.5 1.9c-.2 1.3-.5 2.5-.8 3.7c-.4 1.2-.7 2.3-1.2 3.3l-1.1-.5l3.3 18.5v8.1h-16.4l-1-.1c-1-.1-1.8-.2-2.5-.4c-1.5-.3-3-.8-4.4-1.5c-1.1 .8-2.2 1.4-3.1 1.6c-.9 .3-2.2 .4-4 .4H1406c-1.3 0-2.4-.3-3.2-1c-.7-.7-1.4-1.9-2-3.5c-1.1 1.7-2.4 2.9-3.7 3.6c-1.2 .6-2.5 .9-4.2 .9h-2.1v.7c0 1.2-.7 2.8-2.1 4.8c-1.4 2-3 3.7-4.9 5.2c-2.1 1.6-3.8 2.5-5.3 2.5c-1.8 0-3.6-.6-5.6-1.5c-1.8-.9-4.5-2.6-8.2-5.2l1.2-1.8c1.8 1.2 3.2 2 4.3 2.4c1.1 .4 2.3 .6 3.6 .6c1.4 0 2.7-.4 4.1-1.1c1.4-.8 3.2-2.2 5.6-4.4c3.3-2.9 5-5.2 5-6.8c0-.7-.4-1.8-1-3.1c-.7-1.5-1.6-2.7-2.6-3.7l1.7-8c1.3 1.4 2.3 3 3.1 4.8c.7 1.8 1.1 3.9 1.1 6.2v.3h2.1c2.1 0 3.9-.6 5.3-1.8c1.8-1.5 2.7-3.8 2.7-6.9l1.9 .3c0 .6 0 1.3-.1 2.1c0 .8 0 1.8 0 2.8c0 1 .3 1.8 1 2.5c.7 .7 1.5 1 2.4 1h3.7c2.4 0 4.1-.3 5.1-1c1.3-.8 1.9-2.3 1.9-4.6c0-.4 .2-.9 .5-1.3c.1-.2 .5-.5 1.1-.9l1.1-.9c0 .3 .1 .8 .1 1.5c0 .6 0 1.1 0 1.3c0 1.1-.1 2.5-.4 4.3c.7 .4 1.5 .7 2.4 .9c.9 .3 1.9 .5 2.9 .6c0-.6-.2-1.5-.7-2.6c-.5-1.1-.8-1.8-.8-2.2c0-.5 .1-.9 .2-1.1c.1-.2 .3-.5 .7-1l2.5-3.4c.6 1.2 .9 2.4 1.2 3.4c.2 1 .3 2.3 .3 3.8V398h10.8l-3.6-20.2l-1.9-1.3c0-1.2 .2-2.3 .5-3.5c.5-1.6 1.3-3.4 2.4-5.4Zm-254.3 0l1.4 .7c0 .1-.1 .4-.2 .9c0 .7 .4 1.3 1.3 1.9c.7 .6 1.9 1.2 3.5 1.9c-.2 1.3-.4 2.5-.8 3.7c-.3 1.2-.7 2.3-1.2 3.3l-1-.5L1188 398h1.1c.6 0 1 0 1.3 0c.6-.1 1.2-.2 1.8-.2c-1-1.5-1.7-2.7-2-3.6c-.4-1-.5-2-.5-3.2c0-2.9 1.2-5.5 3.6-7.7c2.5-2.2 5.4-3.3 8.6-3.3c2.3 0 4.4 .7 6.4 2.1c1.8 1.4 3.2 3 4 5l-1.2 1c-1.6-.6-2.8-.9-3.8-1.1c-.9-.2-2-.3-3.4-.3c-2.4 0-4.6 .2-6.4 .6c-2.3 .5-3.4 1.2-3.4 2.1c0 1.4 2.7 3.7 8.3 6.8l15.1-4.3l-3.3 8.5c-5.4 1.6-9.8 2.9-13.3 3.8c-3 .7-5.6 1.3-7.7 1.6c-1.5 .2-3.1 .3-4.6 .3h-17.5c-.7 0-1.3 .1-1.8 .2c-.4 .1-.7 .3-.7 .5c0 .1 .5 .4 1.5 .7c1 .4 1.5 1 1.5 1.8c0 1.1-.2 2.4-.5 3.9c-.4 1.6-.8 3-1.4 4.2c-.4 1-1.7 2.1-3.7 3.3c-2.1 1.3-4.5 2.4-7.3 3.3c-3.1 1-6 1.5-8.8 1.5c-3.3 0-5.7-.8-7.4-2.3c-1.6-1.5-2.4-3.7-2.4-6.5c0-3.1 .4-5.9 1.1-8.2c.9-2.8 2.8-6.4 5.6-10.9l1.7 1.3c-1.9 3.1-3.2 5.7-3.9 7.6c-.6 1.8-1 3.7-1 5.5c0 1.9 .6 3.3 1.8 4.4c1.1 1 2.8 1.5 4.8 1.5c2.5 0 5.3-.3 8.2-1.1c2.6-.7 4.8-1.6 6.7-2.5c1.9-1 2.8-1.8 2.8-2.5c0-.2-.5-.3-1.6-.3c-1.2-.1-2.1-.1-3-.1c-2.1 0-3.5-.1-4.1-.2c-.6-.2-.9-.5-.9-1.1c0-1.1 .2-2.2 .6-3.4c.3-1.2 .8-2.1 1.3-2.8c1.3-1.6 2.9-2.9 4.7-4c2-1.3 3.8-1.9 5.4-1.9h14.1l-3.6-20.2l-1.9-1.3c0-1.2 .2-2.3 .6-3.5c.4-1.6 1.2-3.4 2.3-5.4Zm141.7-2.4l1.3 .6c0 .1 0 .3-.1 .7c0 .7 1 1.6 3 2.5c.6 .3 1.6 .8 2.9 1.2c-.2 1.6-.5 3.1-.9 4.4c-.3 .7-.7 1.7-1.2 3.2l-1.1-.4c.6 2.8 1 4.9 1.2 6.2c.2 1.4 .3 2.6 .3 3.6v.4c0 .5 0 1 0 1.3c0 .3-.1 .9-.3 1.6c1.1-.8 2.1-1.6 3.2-2.3c1.6-1.1 3-2.1 4.3-2.8c1.7-.9 2.9-1.3 3.8-1.3c2.3 0 4.2 .6 5.6 1.8c1.6 1.4 2.4 3.3 2.4 5.9V398h13.6c-.3-1.4-.7-2.5-1.2-3.4c-.3-.5-1-1.4-2.1-2.7l2.4-7.1c1.5 1.7 2.5 3.5 3 5.3c.6 1.9 .8 4.6 .8 8.2v7.8h-50.5V398h3.9c.5 0 1.9-.8 4.1-2.5c.7-.5 1.8-1.3 3.2-2.5c0-2.4-.1-4.5-.3-6.2c-.2-1.7-.5-3.4-.9-5.3c-.1-.4-.6-2.5-1.6-6.4l-1.7-1.1c.4-2.1 .8-3.6 1.1-4.5c.3-.9 .9-2.3 1.8-4.3Zm-35.9-2.2l6.9 3.7l-3.6 6.6l-7-3.6Z" class="g1_40"/>
<path fill-rule="evenodd" d="M1103.1 386.9c1.8 1.5 3 2.6 3.7 3.1c.9 .7 2.2 1.6 3.8 2.8c-.6 2.6-1 4.2-1.2 4.7c-.2 1.1-.5 2.7-.9 4.8c-2-1.1-3.5-1.9-4.4-2.5c-.9-.7-2.1-1.7-3.8-3.1c.6-2.4 1-4.1 1.2-4.8c.4-1.2 .9-2.9 1.6-5Zm-34.3 0c1.8 1.5 3 2.6 3.8 3.1c.8 .7 2.1 1.6 3.8 2.8c-.7 2.6-1.1 4.2-1.2 4.7c-.3 1.1-.6 2.7-1 4.8c-2-1.1-3.4-1.9-4.3-2.5c-1-.7-2.2-1.7-3.9-3.1c.6-2.4 1-4.1 1.2-4.8c.4-1.2 .9-2.9 1.6-5Zm-41-15.6c1.1 2.2 2.3 3.7 3.4 4.6c1.1 .9 2.4 1.4 3.8 1.4c1.4 0 2.6-.5 3.4-1.6c.8-1 1.2-2.5 1.2-4.4h1.5c.1 1.6 .5 2.8 1 3.4c.4 .7 1.2 1.1 2.2 1.1c1.8 0 2.9-1.5 3.3-4.5h1.3c0 .5 .1 1.2 .1 2c.1 .7 .1 1.4 .1 2c0 7.1-2 10.6-6.1 10.6c-.8 0-1.5-.1-2-.4c-.6-.2-1.2-.8-1.9-1.7c-.7 1-1.4 1.7-1.9 2.1c-.6 .4-1.4 .7-2.6 .9c.5 1.8 .9 3.4 1.1 4.6c.2 1.2 .3 2.5 .3 4c0 1.7-.1 3.3-.4 4.7c-.2 1.4-.7 3.4-1.4 6h-1.6c0-3-.1-5.3-.2-6.8c-.2-1.6-.5-3.3-1-5.2c-.6-2.6-1.4-4.8-2.2-6.6c-.9-1.8-2.3-4.2-4.4-7.1Z" class="g0_40"/>
<path d="M1103.1 386.9c1.8 1.5 3 2.6 3.7 3.1c.9 .7 2.2 1.6 3.8 2.8c-.6 2.6-1 4.2-1.2 4.7c-.2 1.1-.5 2.7-.9 4.8c-2-1.1-3.5-1.9-4.4-2.5c-.9-.7-2.1-1.7-3.8-3.1c.6-2.4 1-4.1 1.2-4.8c.4-1.2 .9-2.9 1.6-5Zm-34.3 0c1.8 1.5 3 2.6 3.8 3.1c.8 .7 2.1 1.6 3.8 2.8c-.7 2.6-1.1 4.2-1.2 4.7c-.3 1.1-.6 2.7-1 4.8c-2-1.1-3.4-1.9-4.3-2.5c-1-.7-2.2-1.7-3.9-3.1c.6-2.4 1-4.1 1.2-4.8c.4-1.2 .9-2.9 1.6-5Zm-41-15.6c1.1 2.2 2.3 3.7 3.4 4.6c1.1 .9 2.4 1.4 3.8 1.4c1.4 0 2.6-.5 3.4-1.6c.8-1 1.2-2.5 1.2-4.4h1.5c.1 1.6 .5 2.8 1 3.4c.4 .7 1.2 1.1 2.2 1.1c1.8 0 2.9-1.5 3.3-4.5h1.3c0 .5 .1 1.2 .1 2c.1 .7 .1 1.4 .1 2c0 7.1-2 10.6-6.1 10.6c-.8 0-1.5-.1-2-.4c-.6-.2-1.2-.8-1.9-1.7c-.7 1-1.4 1.7-1.9 2.1c-.6 .4-1.4 .7-2.6 .9c.5 1.8 .9 3.4 1.1 4.6c.2 1.2 .3 2.5 .3 4c0 1.7-.1 3.3-.4 4.7c-.2 1.4-.7 3.4-1.4 6h-1.6c0-3-.1-5.3-.2-6.8c-.2-1.6-.5-3.3-1-5.2c-.6-2.6-1.4-4.8-2.2-6.6c-.9-1.8-2.3-4.2-4.4-7.1Z" class="g1_40"/>
<path fill-rule="evenodd" d="M980.2 408.3l5.6 3.1l-3.1 5.7l-4.5-2.2l-2.5 4.9l-5.4-3.1l3.3-6.1l4.2 2.4Zm-80.3 0l5.6 3.1l-3.1 5.7l-4.5-2.2l-2.5 4.9l-5.4-3.1l3.3-6.1l4.2 2.4Zm-60.5 0l5.6 3.1l-3.1 5.7l-4.5-2.2l-2.5 4.9l-5.4-3.1l3.3-6.1L837 413Zm-81.1-9.2c1.1 0 1.9 .3 2.6 1.1c.7 .7 1 1.6 1 2.6c0 1-.3 1.9-1.1 2.6c-.7 .7-1.6 1.1-2.6 1.1c-1 0-1.8-.4-2.5-1.1c-.7-.7-1.1-1.6-1.1-2.6c0-1 .4-1.9 1.1-2.6c.7-.8 1.6-1.1 2.6-1.1Zm204.4-5.9c-.6 0-1.1 .2-1.5 .7c-.3 .5-.5 1-.5 1.6c0 .7 .4 1.3 1.2 1.8c.8 .5 1.8 .7 3.1 .7h1.1c-.5-3.2-1.7-4.8-3.4-4.8Zm-80.3 0c-.6 0-1.1 .2-1.5 .7c-.3 .5-.5 1-.5 1.6c0 .7 .4 1.3 1.2 1.8c.8 .5 1.8 .7 3.1 .7h1.1c-.5-3.2-1.7-4.8-3.4-4.8ZM795 391.9c-1.2 2-1.9 3.7-1.9 5c0 .6 .3 1.2 .8 1.6c.5 .5 1.2 .7 1.9 .7c1 0 2.1-.2 3.4-.7c1.3-.5 2-.8 2-1.2c0-.4-.7-1.1-2.1-2.3c-1.4-1.2-2.7-2.3-4.1-3.1Zm187.3-7.1c1.5 1.7 2.6 3.5 3.1 5.3c.5 1.6 .7 3.9 .8 6.9v1h13.5c-.2-1.4-.6-2.5-1.1-3.4c-.3-.5-1-1.4-2.1-2.7l2.3-7.1c1.5 1.7 2.6 3.5 3.1 5.3c.6 1.9 .8 4.6 .8 8.2v7.8H969.5l-.1 .5c-.5 2.6-1.9 5.1-4.1 7.6c-2.9 3.3-5.7 5-8.5 5c-1.7 0-3.5-.5-5.5-1.6c-1.9-1-4.9-3.1-9-6.2l1.3-1.7c2.1 1.4 3.9 2.3 5.3 2.8c1.1 .4 2.4 .6 3.8 .6c1.9 0 3.8-.5 5.7-1.6c2.3-1.3 4.6-3.3 6.9-6.1c-.8 .1-1.5 .1-2.1 .1c-1.9 0-3.5-.6-4.6-1.9c-1.2-1.3-1.8-3-1.8-5.2c0-3 .7-5.9 2.1-8.6c1.5-3 3.2-4.5 5.1-4.5c1.6 0 2.9 1.1 4 3.2c1.1 2.2 1.7 4.8 1.7 7.9V398h13.5c-.2-1.4-.6-2.5-1.1-3.4c-.4-.5-1-1.4-2.1-2.7Zm-187.6-1.6l3 1.7c1.2 .8 2.4 1.6 3.6 2.5c1.6 1.3 2.8 2.4 3.4 3.5c.6 1.1 .9 2.4 .9 4c0 1.2-.1 2.4-.3 3.7c-.2 1.2-.4 2.2-.7 2.9c-.6 1.6-2 2.9-4.1 4c-2.1 1.1-4 1.7-5.8 1.7c-1.5 0-2.7-.6-3.7-1.7c-.9-1-1.3-2.5-1.3-4.3c0-1.6 .2-3.2 .7-4.8c.4-1.5 1.3-3.5 2.5-5.9l-1.1-.7c.4-.9 .8-2 1.4-3.3c.6-1.3 1.1-2.4 1.5-3.3Zm27.2-5.3c2.6 2 4.4 4.4 5.5 7.5c1 2.8 1.5 6.5 1.5 11.1V398h13.5c-.2-1.4-.6-2.5-1.1-3.4c-.3-.5-1-1.4-2.1-2.7l2.3-7.1c1.5 1.7 2.6 3.5 3.1 5.3c.5 1.6 .8 3.9 .8 6.9v1h13.5c-.2-1.4-.6-2.5-1.1-3.4c-.4-.5-1-1.4-2.1-2.7l2.3-7.1c1.5 1.7 2.6 3.5 3.1 5.3c.6 1.9 .8 4.6 .8 8.2v7.8H815.4c-1.3 0-2.3-.3-3-.8c-.9-.7-1.3-1.8-1.3-3.3c0-.9 0-1.9 .1-2.9c.1-1 .2-2 .4-3l1.1-.1c.2 .7 .6 1.2 1.1 1.5c.6 .3 1.2 .5 2 .5H826c-.4-2.9-1.2-5.3-2.3-7c-1-1.5-2.3-2.7-3.9-3.8Zm-63.1-6.5c2.4 0 4.4 .7 6.1 2.1c1.6 1.3 2.5 3.1 2.5 5.3c0 1.2-.4 2.3-1.1 3.3c-.8 1-1.9 1.5-3.1 1.5c-1 0-1.9-.3-2.5-1c-.7-.6-1-1.4-1-2.2c0-1.4 .6-2.4 1.6-3.1c1.1-.7 1.7-1.2 1.7-1.7c0-.6-.3-1.2-1-1.6c-.6-.4-1.4-.6-2.5-.6c-1.3 0-2.3 .3-3.2 1.1c-.8 .7-1.2 1.6-1.2 2.6c0 1 .4 2.2 1.3 3.8c1.2 2.3 2 3.7 2.3 4.4c.8 2.1 1.2 4.4 1.2 6.8c0 1.3-.1 2.8-.3 4.4h-1.8c0-.4 0-.7 .1-.9l.1-1.5c0-1.1-.7-2.3-2.2-3.6c-2.5-2.3-3.9-3.5-4.1-3.8c-1.5-1.8-2.2-3.8-2.2-6c0-2.7 .8-4.9 2.6-6.6c1.8-1.8 4-2.7 6.7-2.7Zm97.1-.2l5.6 3l-3.1 5.8l-4.5-2.2l-2.5 4.8l-5.4-3l3.3-6.1l4.2 2.4ZM996 370l6.9 3.6l-3.6 6.7l-6.9-3.6Zm-197.3-1.8l5.4 3.1l-3.3 6.1l-4.2-2.4l-2.4 4.7l-5.5-3l3.1-5.8l4.4 2.2Zm115.2-.6l1.4 .7c0 .1 0 .4-.1 .9c0 .7 .4 1.3 1.2 1.9c.8 .6 1.9 1.2 3.6 1.9c-.2 1.3-.5 2.5-.8 3.7c-.4 1.2-.8 2.3-1.2 3.3l-1.1-.5l3.3 18.5h17.2c-.8-.9-1.5-1.8-2.3-2.4c-.6-.6-1.4-1.3-2.4-2.1c-1.1-.8-2.2-1.7-3.3-2.6l-1 1.1c-1.8-1.8-2.8-2.8-3.1-3.2c-1-1.1-1.5-2.4-1.5-3.9c0-2 .1-3.4 .4-4.3c.4-1.1 1.2-2.1 2.5-3c1.2-.8 2.4-1.5 3.7-2.2c1-.5 2.4-1.1 4.1-1.8c.8-.3 2.5-1 5.1-2v7.1c-.1 0-1 .3-2.6 .8c-1.9 .6-3.5 1.2-4.6 1.7c-1.7 .6-2.5 1.1-2.5 1.5c0 .2 .7 .9 2.1 2.3c1.9 1.9 3.6 3.6 4.9 5.1c2.1 2.6 3.9 5.2 5.2 7.7v8.3H889.2l-.1 .5c-.5 2.6-1.9 5.1-4.1 7.6c-2.9 3.3-5.7 5-8.5 5c-1.7 0-3.5-.5-5.5-1.6c-1.9-1-4.9-3.1-9-6.2l1.3-1.7c2.1 1.4 3.9 2.3 5.3 2.8c1.1 .4 2.4 .6 3.8 .6c1.9 0 3.8-.5 5.7-1.6c2.3-1.3 4.6-3.3 6.9-6.1c-.8 .1-1.5 .1-2.1 .1c-1.9 0-3.5-.6-4.6-1.9c-1.2-1.3-1.8-3-1.8-5.2c0-3 .7-5.9 2.1-8.6c1.5-3 3.2-4.5 5.1-4.5c1.6 0 2.9 1.1 4 3.2c1.1 2.2 1.7 4.8 1.7 7.9V398h13.5c-.2-1.4-.6-2.5-1.1-3.4c-.4-.5-1-1.4-2.1-2.7l2.3-7.1c1.5 1.7 2.6 3.5 3.1 5.3c.5 1.6 .7 3.9 .8 6.9v1h10.7L913 377.8l-1.9-1.3c0-1.2 .1-2.3 .5-3.5c.5-1.6 1.2-3.4 2.3-5.4Z" class="g0_40"/>
<path d="M980.2 408.3l5.6 3.1l-3.1 5.7l-4.5-2.2l-2.5 4.9l-5.4-3.1l3.3-6.1l4.2 2.4Zm-80.3 0l5.6 3.1l-3.1 5.7l-4.5-2.2l-2.5 4.9l-5.4-3.1l3.3-6.1l4.2 2.4Zm-60.5 0l5.6 3.1l-3.1 5.7l-4.5-2.2l-2.5 4.9l-5.4-3.1l3.3-6.1L837 413Zm-81.1-9.2c1.1 0 1.9 .3 2.6 1.1c.7 .7 1 1.6 1 2.6c0 1-.3 1.9-1.1 2.6c-.7 .7-1.6 1.1-2.6 1.1c-1 0-1.8-.4-2.5-1.1c-.7-.7-1.1-1.6-1.1-2.6c0-1 .4-1.9 1.1-2.6c.7-.8 1.6-1.1 2.6-1.1Zm204.4-5.9c-.6 0-1.1 .2-1.5 .7c-.3 .5-.5 1-.5 1.6c0 .7 .4 1.3 1.2 1.8c.8 .5 1.8 .7 3.1 .7h1.1c-.5-3.2-1.7-4.8-3.4-4.8Zm-80.3 0c-.6 0-1.1 .2-1.5 .7c-.3 .5-.5 1-.5 1.6c0 .7 .4 1.3 1.2 1.8c.8 .5 1.8 .7 3.1 .7h1.1c-.5-3.2-1.7-4.8-3.4-4.8ZM795 391.9c-1.2 2-1.9 3.7-1.9 5c0 .6 .3 1.2 .8 1.6c.5 .5 1.2 .7 1.9 .7c1 0 2.1-.2 3.4-.7c1.3-.5 2-.8 2-1.2c0-.4-.7-1.1-2.1-2.3c-1.4-1.2-2.7-2.3-4.1-3.1Zm187.3-7.1c1.5 1.7 2.6 3.5 3.1 5.3c.5 1.6 .7 3.9 .8 6.9v1h13.5c-.2-1.4-.6-2.5-1.1-3.4c-.3-.5-1-1.4-2.1-2.7l2.3-7.1c1.5 1.7 2.6 3.5 3.1 5.3c.6 1.9 .8 4.6 .8 8.2v7.8H969.5l-.1 .5c-.5 2.6-1.9 5.1-4.1 7.6c-2.9 3.3-5.7 5-8.5 5c-1.7 0-3.5-.5-5.5-1.6c-1.9-1-4.9-3.1-9-6.2l1.3-1.7c2.1 1.4 3.9 2.3 5.3 2.8c1.1 .4 2.4 .6 3.8 .6c1.9 0 3.8-.5 5.7-1.6c2.3-1.3 4.6-3.3 6.9-6.1c-.8 .1-1.5 .1-2.1 .1c-1.9 0-3.5-.6-4.6-1.9c-1.2-1.3-1.8-3-1.8-5.2c0-3 .7-5.9 2.1-8.6c1.5-3 3.2-4.5 5.1-4.5c1.6 0 2.9 1.1 4 3.2c1.1 2.2 1.7 4.8 1.7 7.9V398h13.5c-.2-1.4-.6-2.5-1.1-3.4c-.4-.5-1-1.4-2.1-2.7Zm-187.6-1.6l3 1.7c1.2 .8 2.4 1.6 3.6 2.5c1.6 1.3 2.8 2.4 3.4 3.5c.6 1.1 .9 2.4 .9 4c0 1.2-.1 2.4-.3 3.7c-.2 1.2-.4 2.2-.7 2.9c-.6 1.6-2 2.9-4.1 4c-2.1 1.1-4 1.7-5.8 1.7c-1.5 0-2.7-.6-3.7-1.7c-.9-1-1.3-2.5-1.3-4.3c0-1.6 .2-3.2 .7-4.8c.4-1.5 1.3-3.5 2.5-5.9l-1.1-.7c.4-.9 .8-2 1.4-3.3c.6-1.3 1.1-2.4 1.5-3.3Zm27.2-5.3c2.6 2 4.4 4.4 5.5 7.5c1 2.8 1.5 6.5 1.5 11.1V398h13.5c-.2-1.4-.6-2.5-1.1-3.4c-.3-.5-1-1.4-2.1-2.7l2.3-7.1c1.5 1.7 2.6 3.5 3.1 5.3c.5 1.6 .8 3.9 .8 6.9v1h13.5c-.2-1.4-.6-2.5-1.1-3.4c-.4-.5-1-1.4-2.1-2.7l2.3-7.1c1.5 1.7 2.6 3.5 3.1 5.3c.6 1.9 .8 4.6 .8 8.2v7.8H815.4c-1.3 0-2.3-.3-3-.8c-.9-.7-1.3-1.8-1.3-3.3c0-.9 0-1.9 .1-2.9c.1-1 .2-2 .4-3l1.1-.1c.2 .7 .6 1.2 1.1 1.5c.6 .3 1.2 .5 2 .5H826c-.4-2.9-1.2-5.3-2.3-7c-1-1.5-2.3-2.7-3.9-3.8Zm-63.1-6.5c2.4 0 4.4 .7 6.1 2.1c1.6 1.3 2.5 3.1 2.5 5.3c0 1.2-.4 2.3-1.1 3.3c-.8 1-1.9 1.5-3.1 1.5c-1 0-1.9-.3-2.5-1c-.7-.6-1-1.4-1-2.2c0-1.4 .6-2.4 1.6-3.1c1.1-.7 1.7-1.2 1.7-1.7c0-.6-.3-1.2-1-1.6c-.6-.4-1.4-.6-2.5-.6c-1.3 0-2.3 .3-3.2 1.1c-.8 .7-1.2 1.6-1.2 2.6c0 1 .4 2.2 1.3 3.8c1.2 2.3 2 3.7 2.3 4.4c.8 2.1 1.2 4.4 1.2 6.8c0 1.3-.1 2.8-.3 4.4h-1.8c0-.4 0-.7 .1-.9l.1-1.5c0-1.1-.7-2.3-2.2-3.6c-2.5-2.3-3.9-3.5-4.1-3.8c-1.5-1.8-2.2-3.8-2.2-6c0-2.7 .8-4.9 2.6-6.6c1.8-1.8 4-2.7 6.7-2.7Zm97.1-.2l5.6 3l-3.1 5.8l-4.5-2.2l-2.5 4.8l-5.4-3l3.3-6.1l4.2 2.4ZM996 370l6.9 3.6l-3.6 6.7l-6.9-3.6Zm-197.3-1.8l5.4 3.1l-3.3 6.1l-4.2-2.4l-2.4 4.7l-5.5-3l3.1-5.8l4.4 2.2Zm115.2-.6l1.4 .7c0 .1 0 .4-.1 .9c0 .7 .4 1.3 1.2 1.9c.8 .6 1.9 1.2 3.6 1.9c-.2 1.3-.5 2.5-.8 3.7c-.4 1.2-.8 2.3-1.2 3.3l-1.1-.5l3.3 18.5h17.2c-.8-.9-1.5-1.8-2.3-2.4c-.6-.6-1.4-1.3-2.4-2.1c-1.1-.8-2.2-1.7-3.3-2.6l-1 1.1c-1.8-1.8-2.8-2.8-3.1-3.2c-1-1.1-1.5-2.4-1.5-3.9c0-2 .1-3.4 .4-4.3c.4-1.1 1.2-2.1 2.5-3c1.2-.8 2.4-1.5 3.7-2.2c1-.5 2.4-1.1 4.1-1.8c.8-.3 2.5-1 5.1-2v7.1c-.1 0-1 .3-2.6 .8c-1.9 .6-3.5 1.2-4.6 1.7c-1.7 .6-2.5 1.1-2.5 1.5c0 .2 .7 .9 2.1 2.3c1.9 1.9 3.6 3.6 4.9 5.1c2.1 2.6 3.9 5.2 5.2 7.7v8.3H889.2l-.1 .5c-.5 2.6-1.9 5.1-4.1 7.6c-2.9 3.3-5.7 5-8.5 5c-1.7 0-3.5-.5-5.5-1.6c-1.9-1-4.9-3.1-9-6.2l1.3-1.7c2.1 1.4 3.9 2.3 5.3 2.8c1.1 .4 2.4 .6 3.8 .6c1.9 0 3.8-.5 5.7-1.6c2.3-1.3 4.6-3.3 6.9-6.1c-.8 .1-1.5 .1-2.1 .1c-1.9 0-3.5-.6-4.6-1.9c-1.2-1.3-1.8-3-1.8-5.2c0-3 .7-5.9 2.1-8.6c1.5-3 3.2-4.5 5.1-4.5c1.6 0 2.9 1.1 4 3.2c1.1 2.2 1.7 4.8 1.7 7.9V398h13.5c-.2-1.4-.6-2.5-1.1-3.4c-.4-.5-1-1.4-2.1-2.7l2.3-7.1c1.5 1.7 2.6 3.5 3.1 5.3c.5 1.6 .7 3.9 .8 6.9v1h10.7L913 377.8l-1.9-1.3c0-1.2 .1-2.3 .5-3.5c.5-1.6 1.2-3.4 2.3-5.4Z" class="g1_40"/>
<image clip-path="url(#c1_40)" preserveAspectRatio="none" x="1344" y="457" width="108" height="72" href="img/2.jpg"/>
<image clip-path="url(#c2_40)" preserveAspectRatio="none" x="1347" y="550" width="102" height="71" href="img/3.jpg"/>
<image clip-path="url(#c3_40)" preserveAspectRatio="none" x="1347" y="642" width="102" height="74" href="img/4.jpg"/>
<image clip-path="url(#c4_40)" preserveAspectRatio="none" x="1353" y="745" width="96" height="80" href="img/5.jpg"/>
<path clip-path="url(#c0_40)" d="M1116 748.2c0-8.5 6.9-15.4 15.4-15.4h302c8.6 0 15.5 6.9 15.5 15.4v61.9c0 8.5-6.9 15.4-15.5 15.4h-302c-8.5 0-15.4-6.9-15.4-15.4Z" class="g2_40"/>
</svg>