<svg viewBox="0 0 1466 825" version="1.1" xmlns="http://www.w3.org/2000/svg">
<defs>
<clipPath id="c0_66"><path d="M-.2 825.3V-.2H1467V825.3Z"/></clipPath>
<clipPath id="c1_66"><path d="M1343.9 529.1V456.4H1452v72.7Z"/></clipPath>
<clipPath id="c2_66"><path d="M1349.6 642.5V570.9h102.9v71.6Z"/></clipPath>
<clipPath id="c3_66"><path d="M1346.4 716.6V641.9h103v74.7Z"/></clipPath>
<clipPath id="c4_66"><path d="M1353 825V744.6h96.2V825Z"/></clipPath>
<clipPath id="c5_66"><path d="M256.9 458.3V270.6H1267V458.3Z"/></clipPath>
<style>
.g0_66{fill:#F00;}
.g1_66{fill:none;stroke:#000;stroke-width:1.466;stroke-linejoin:round;}
</style>
</defs>
<image clip-path="url(#c0_66)" preserveAspectRatio="none" x="0" y="-7" width="1467" height="840" href="img/1.jpg"/>
<path fill-rule="evenodd" d="M275.7 237.2c.8 0 1.5 .3 2 .9c.6 .6 .8 1.3 .8 2.1c0 .8-.2 1.5-.8 2.1c-.6 .6-1.3 .8-2.1 .8c-.8 0-1.5-.2-2.1-.8c-.5-.6-.8-1.3-.8-2.1c0-.8 .3-1.5 .8-2.1c.6-.6 1.3-.9 2.2-.9ZM276 215c1.9 0 3.6 .6 4.9 1.7c1.3 1 2 2.5 2 4.2c0 1-.3 1.9-.9 2.6c-.6 .9-1.5 1.3-2.5 1.3c-.8 0-1.4-.2-1.9-.8c-.6-.5-.8-1.1-.8-1.8c0-1.1 .4-1.9 1.3-2.4c.8-.6 1.3-1 1.3-1.4c0-.5-.3-1-.8-1.3c-.5-.3-1.2-.5-2-.5c-1 0-1.9 .3-2.5 .9c-.7 .5-1 1.3-1 2.1c0 .8 .3 1.8 1 3c1 1.8 1.6 3 1.8 3.6c.7 1.7 1.1 3.5 1.1 5.4c0 1.1-.1 2.2-.3 3.5h-1.5c0-.3 .1-.5 .1-.6l.1-1.3c0-.9-.6-1.9-1.8-2.9c-2-1.8-3.1-2.8-3.3-3c-1.2-1.4-1.8-3-1.8-4.8c0-2.1 .8-3.9 2.2-5.4c1.4-1.4 3.2-2.1 5.3-2.1Z" class="g0_66"/>
<path d="M275.7 237.2c.8 0 1.5 .3 2 .9c.6 .6 .8 1.3 .8 2.1c0 .8-.2 1.5-.8 2.1c-.6 .6-1.3 .8-2.1 .8c-.8 0-1.5-.2-2.1-.8c-.5-.6-.8-1.3-.8-2.1c0-.8 .3-1.5 .8-2.1c.6-.6 1.3-.9 2.2-.9ZM276 215c1.9 0 3.6 .6 4.9 1.7c1.3 1 2 2.5 2 4.2c0 1-.3 1.9-.9 2.6c-.6 .9-1.5 1.3-2.5 1.3c-.8 0-1.4-.2-1.9-.8c-.6-.5-.8-1.1-.8-1.8c0-1.1 .4-1.9 1.3-2.4c.8-.6 1.3-1 1.3-1.4c0-.5-.3-1-.8-1.3c-.5-.3-1.2-.5-2-.5c-1 0-1.9 .3-2.5 .9c-.7 .5-1 1.3-1 2.1c0 .8 .3 1.8 1 3c1 1.8 1.6 3 1.8 3.6c.7 1.7 1.1 3.5 1.1 5.4c0 1.1-.1 2.2-.3 3.5h-1.5c0-.3 .1-.5 .1-.6l.1-1.3c0-.9-.6-1.9-1.8-2.9c-2-1.8-3.1-2.8-3.3-3c-1.2-1.4-1.8-3-1.8-4.8c0-2.1 .8-3.9 2.2-5.4c1.4-1.4 3.2-2.1 5.3-2.1Z" class="g1_66"/>
<image clip-path="url(#c1_66)" preserveAspectRatio="none" x="1344" y="457" width="108" height="72" href="img/2.jpg"/>
<image clip-path="url(#c2_66)" preserveAspectRatio="none" x="1350" y="571" width="102" height="71" href="img/3.jpg"/>
<image clip-path="url(#c3_66)" preserveAspectRatio="none" x="1347" y="642" width="102" height="74" href="img/4.jpg"/>
<image clip-path="url(#c4_66)" preserveAspectRatio="none" x="1353" y="745" width="96" height="80" href="img/5.jpg"/>
<image clip-path="url(#c5_66)" preserveAspectRatio="none" x="257" y="271" width="1010" height="187" href="img/6.jpg"/>
<path d="M524.3 467l-1 2h-.1l-.9 2.4l-.8 2.4v-.1l-1.2 2.7l-1.1 2.8l-1.5 3.4v-.1l-1.8 3.3l-2 3.3l-2.2 3.2l-2.3 2.9v.2l-2.2 3.5l-2.3 3.7v.1l-2.2 4.2l-2.2 4.1l-.1 .1l-1.8 3.9l.1-.2l-2.4 3.7l-2.1 3.3l-.1 .2l-1.4 3v-.1l-1.7 2.7c-.1 .2-.2 .5-.2 .7l-.1 2.4v-.2l-.3 1.7v-.1l-.2 .8v.9c.1 .6 .5 1.1 1.1 1.3c.6 .1 1.2-.1 1.5-.6l.1-.1c.2-.3 .3-.7 .2-1.1l-.2-.7v.1l-.3-1.6V531l-.6-2.3v-.1l-1.3-3.5l-1-3v.1l-.8-3.2l-.7-3.1v.2l-.2-2.6l-.2-3.7v.3l.3-2.5v.1l.4-2l.3-2l-.2 .6l.7-1l.2-.5l.2-1.1l-.2 .6l.5-.7l.2-.5l.1-.3v-.9c0-.5-.2-.9-.5-1.2v-.1c-.5-.4-1.2-.5-1.7-.2c-.6 .3-.9 .9-.9 1.5c.1 .6 .5 1.1 1.1 1.3l1.2 .5l-.1-.1l4.5 2h-.1l3.4 1.7l-.3-.2l3.4 2.9l3.6 3.4l-.1-.1l3.8 3.9l4.4 4.4l-.1-.1l4.1 4.8l-.1-.1l3.9 5.1v-.2l3.1 5l-.1-.1l2.7 4.9l.1 .1l2.8 3.9l.1 .1l2.4 2.7l.2 .2l.4 .2c.4 .3 1.1 .3 1.5-.1c.4-.4 .5-1 .3-1.5l-1.2-2.3c-.3-.6-1-.8-1.6-.6c-.6 .3-.8 1-.6 1.6l1.1 2.4c.2 .4 .7 .7 1.2 .7c.4 0 .9-.3 1.1-.7c.2-.5 .1-1-.2-1.3l-.3-.3l.1 .1l-1.9-3V541l-2.6-3.9l.1 .1l-2.8-4.8v-.1l-3.2-4.9v-.2l-4-5l-4.1-4.8l-.1-.1l-4.4-4.4l-3.8-3.8H506l-3.6-3.4v-.1l-3.5-2.9l-.3-.1l-3.3-1.8h-.1l-4.6-2h-.1l-1.2-.5c-.7-.2-1.4 .1-1.8 .6c-.4 .6-.4 1.4 .1 1.9h.1l-.4-.9v.5V500v.3l.2-.5l-.5 .7l-.2 .6l-.3 1.1l.3-.6l-.7 1l-.2 .5l-.4 2l-.4 2v.1l-.3 2.5v.3l.3 3.7l.1 2.6l.1 .2l.6 3.2h.1l.8 3.3l.1 .1l1 2.9v.1l1.3 3.5l-.1-.1l.7 2.3v-.1l.3 1.6v.1l.2 .6l.1-.9l-.1 .1c-.2 .5 0 1.2 .4 1.6c.5 .3 1.1 .4 1.6 .2c.5-.3 .8-.9 .8-1.5l-.1-.4v.4l.2-.8v-.1l.2-1.6v-.2l.2-2.4l-.2 .7l1.7-2.7l.1-.2l1.4-3l-.1 .1l2.2-3.3l2.3-3.7l.1-.2l1.8-3.9v.1l2.3-4.1l2.1-4.3v.1l2.2-3.7l2.2-3.5l-.1 .1l2.3-3v-.1l2.1-3.3l.1-.1l2-3.4l1.7-3.4h.1l1.5-3.5l1-2.9v.1l1.2-2.7v-.1l.8-2.4h-.1l.8-2.4l.7-2.1c.1-.4-.1-.8-.5-1c-.4-.1-.8 0-1 .4Z" class="g0_66"/>
</svg>