<svg viewBox="0 0 1466 825" version="1.1" xmlns="http://www.w3.org/2000/svg">
<defs>
<clipPath id="c0_20"><path d="M-.2 825.3V-.2H1467V825.3Z"/></clipPath>
<clipPath id="c1_20"><path d="M1343.9 529.1V456.4H1452v72.7Z"/></clipPath>
<clipPath id="c2_20"><path d="M1346.3 621.3V549.7h102.9v71.6Z"/></clipPath>
<clipPath id="c3_20"><path d="M1346.4 716.6V641.9h103v74.7Z"/></clipPath>
<clipPath id="c4_20"><path d="M1353 825V744.6h96.2V825Z"/></clipPath>
<clipPath id="c5_20"><path d="M28.8 764.5V376.2H520.4V764.5Z"/></clipPath>
<style>
.g0_20{fill:#F00;}
.g1_20{fill:none;stroke:#000;stroke-width:1.466;stroke-linejoin:round;}
</style>
</defs>
<image clip-path="url(#c0_20)" preserveAspectRatio="none" x="0" y="-7" width="1467" height="840" href="img/1.jpg"/>
<path fill-rule="evenodd" d="M1333.6 343.6l4.6 2.4l-2.2 4.1l-4.6-2.3l-2.2 3.9l-4.6-2.4l2.3-4.2l4.5 2.4Zm-293.9-10l7 3.7l-3.6 6.7l-7-3.7Zm-399.3 0l7 3.7l-3.6 6.7l-7-3.7Zm-59.2 0l6.9 3.7l-3.5 6.7l-7-3.7Zm-16.5 0l6.9 3.7l-3.5 6.7l-7-3.7Zm723.3-.3l5.6 3l-3.1 5.8l-4.4-2.2l-2.6 4.9l-5.4-3.1l3.3-6.1l4.2 2.4Zm-152.1 0l5.5 3l-3.1 5.8l-4.4-2.2l-2.5 4.9l-5.4-3.1l3.2-6.1l4.3 2.4Zm-252.7 0l5.6 3l-3.1 5.8l-4.4-2.2l-2.6 4.9l-5.4-3.1l3.3-6.1l4.2 2.4Zm-369.6 0l5.6 3l-3.1 5.8l-4.4-2.2l-2.6 4.9l-5.4-3.1l3.3-6.1l4.2 2.4Zm-42.9 0l5.6 3l-3.1 5.8l-4.4-2.2l-2.6 4.9l-5.4-3.1l3.3-6.1l4.2 2.4Zm260.5-10.2c-.9 1-1.5 1.7-2 2.1c-.5 .4-1.3 1-2.5 1.9c1.5-.2 2.6-.4 3.3-.6c.6-.1 1.5-.5 2.6-1.2Zm715-5.1c-.8 0-1.4 .9-2 2.7c1.1 .4 1.8 .7 2.4 .9c1.6 .6 2.5 .9 2.7 .9c.4 0 .7-.2 .7-.4c0-.5-.5-1.2-1.3-2.3c-1-1.2-1.8-1.8-2.5-1.8Zm-625.4 0c-.7 0-1.4 .9-1.9 2.7c1 .4 1.8 .7 2.3 .9c1.6 .6 2.5 .9 2.7 .9c.5 0 .7-.2 .7-.4c0-.5-.4-1.2-1.3-2.3c-.9-1.2-1.8-1.8-2.5-1.8Zm-119.3-.9c-1.3 0-2.8 .4-4.5 1.3c-1.6 .8-4 2.3-7.1 4.6h7.8c6.5 0 9.8-1 9.8-3.1c0-.8-.7-1.6-2.1-2.1c-1.2-.5-2.5-.7-3.9-.7Zm566.9-3.8c-.4 0-.7 .1-1 .4c-.3 .2-.5 .5-.5 .9c0 .9 .7 1.7 1.9 2.5c1.3 .8 2.8 1.4 4.6 1.6c-.7-1.7-1.5-3-2.4-4c-.9-.9-1.7-1.4-2.6-1.4Zm-887.5 0c-.4 0-.8 .1-1.1 .4c-.3 .2-.4 .5-.4 .9c0 .9 .6 1.7 1.9 2.5c1.3 .8 2.8 1.4 4.6 1.6c-.7-1.7-1.5-3-2.4-4c-.9-.9-1.7-1.4-2.6-1.4Zm961.5-1.6c1.1 0 2 .4 2.7 1.3c.7 .9 1 2.1 1 3.6c0 1.1-.1 2-.3 2.7c-.2 .7-.7 1.7-1.4 2.8c-.6-1.4-1-2.3-1.4-2.7c-.3-.5-.9-.7-1.6-.7c-1 0-2.5 .6-4.4 1.9c-1.9 1.2-2.8 2.2-2.8 3c0 .5 .4 .8 1.1 1c.5 .1 1.4 .1 2.5 .1c.3 0 .6 0 .9 0c.3 0 .6 0 .9 0c2.1 0 3.6 .2 4.3 .7c.6 .4 .9 1.1 .9 2.2c0 2.1-.4 4.2-1.2 6.2c-1 2.4-2.4 4.2-4.3 5.3c-2.4 1.3-4.8 2.4-7.4 3.2c-2.5 .8-4.9 1.2-7.1 1.2c-6.2 0-9.3-2.8-9.3-8.3c0-2.8 .4-5.2 1.1-7.3c.7-2.2 2.4-5.3 4.9-9.2l1.4 .9c-1.5 2.5-2.6 4.7-3.4 6.7c-.7 1.9-1.1 3.6-1.1 5c0 3.8 2.1 5.7 6.4 5.7c1.6 0 3.1-.2 4.5-.5c1.5-.3 2.9-.6 4.4-1.2c.9-.3 2-.7 3.3-1.3c1.9-.9 3-1.3 3.1-1.4c.9-.5 1.3-.9 1.3-1.3c0-.2-.5-.3-1.4-.3c-1-.1-1.7-.1-2.1-.1c-3 0-5.1-.4-6.1-1.3c-.8-.7-1.3-2.1-1.3-4c0-.9 .3-2 .9-3.4c.6-1.4 1.4-2.8 2.3-4.2c1.5-2.1 2.9-3.7 4.4-4.7c1.4-1.1 2.9-1.6 4.3-1.6ZM824.1 311c1 0 2.2 1.6 3.7 4.6c1.6 3.3 2.4 6.2 2.4 9v6.5c-2.1 0-4.6-.4-7.4-1.3c-2.5-.7-4.7-1.5-6.6-2.5c-1.1 1.7-2.5 2.9-4.2 3.4c-.8 .3-1.9 .4-3.3 .4h-3.9v.5c-.1 1.9-.3 3.4-.7 4.6c-.6 1.7-1.5 3-2.7 4.1c-1.2 1-3 1.8-5.4 2.4c-2.3 .7-4.7 1-7.2 1c-4.9 0-8.6-.9-11.2-2.6c-2.6-1.8-3.9-4.3-3.9-7.5c0-2.8 .4-5.3 1.2-7.6c1-2.5 2.7-5.8 5.4-9.8l1.8 1.2c-2 3.4-3.3 5.8-3.9 7.3c-.6 1.5-.9 3.1-.9 4.7c0 2.1 1.1 3.8 3.4 5.1c2.2 1.3 5.1 2 8.8 2c3.6 0 6.6-.7 9-2.1c2.5-1.3 3.7-3 3.7-5c0-1.2-.2-2.5-.7-3.7c-.4-1.2-1.3-3.1-2.7-5.8l2.6-8c1.4 2.5 2.3 4.2 2.6 5.2c.5 1.5 .8 3.4 .8 5.6v.3h3.9c1.7 0 3.2-.2 4.2-.7c1.4-.5 2.3-1.5 2.8-2.9c1.1-2.5 2.6-4.6 4.4-6.2c1.5-1.4 2.9-2.2 4-2.2Zm36.4-.3c-.6 .3-1.1 .5-1.5 .7c-1.1 .6-1.9 1.1-2.6 1.6c-.5 .4-.9 .8-1.2 1.1c-.4 .4-.6 .8-.6 1c0 .3 .4 .5 1 .6c.8 .2 1.4 .3 2.1 .3c.5 0 .9-.1 1.4-.4c.5-.2 1.1-.7 2-1.4Zm-238.9 0c-.6 .3-1.1 .5-1.5 .7c-1.1 .6-1.9 1.1-2.6 1.6c-.5 .4-.9 .8-1.2 1.1c-.4 .4-.6 .8-.6 1c0 .3 .4 .5 1.1 .6c.7 .2 1.4 .3 2 .3c.5 0 .9-.1 1.4-.4c.5-.2 1.1-.7 2-1.4Zm363.2-.7l1.7 1c-.5 .8-.8 1.6-1.1 2.2c-.3 .7-.5 1.2-.7 1.7c-.3 .9-.4 1.8-.4 2.7c0 1.1 .3 2.1 1.1 3.1c.7 .9 1.7 1.5 2.8 1.7c.7 .2 1.6 .3 2.7 .4c1.1 .1 2.3 .2 3.6 .2H1016c-.5-1.6-1-2.7-1.3-3.2c-.5-.8-1.2-1.8-2.1-2.9l2.7-6.9c1.5 2.1 2.5 4 2.9 5.8c.4 1.6 .6 3.9 .6 6.9v8.4h-25c-1.2 0-2.2 0-3 0c-.8 0-1.4-.1-1.8-.1c-.7-.1-1.6-.3-2.5-.6c-1.7-.6-3-1.7-4-3.4c-1.1-1.8-1.6-3.7-1.6-5.8c0-.8 0-1.7 .1-2.5c.2-.9 .4-1.8 .7-2.8c.4-1.2 .9-2.3 1.4-3.2c.6-1 1.1-1.9 1.7-2.7Zm285.1-5.5c2.1 0 3.8 1.8 5.3 5.2c1.5 3.5 2.3 7.7 2.3 12.6v.7h13.6c-.3-1.4-.7-2.5-1.2-3.4c-.3-.6-1-1.5-2.1-2.7l2.4-7.1c1.5 1.7 2.5 3.4 3 5.3c.6 1.8 .8 4.6 .8 8.2v7.8h-38.9c-.8 0-1.4 .1-1.8 .2c-.5 .1-.7 .3-.7 .5c0 .1 .5 .4 1.5 .7c.9 .4 1.4 1 1.4 1.8c0 1.1-.1 2.4-.5 3.9c-.3 1.6-.7 3-1.3 4.2c-.5 1-1.7 2-3.7 3.3c-2.1 1.3-4.6 2.4-7.3 3.3c-3.1 1-6.1 1.4-8.9 1.4c-3.2 0-5.6-.7-7.3-2.2c-1.6-1.5-2.4-3.7-2.4-6.5c0-3.2 .3-5.9 1.1-8.2c.9-2.8 2.8-6.4 5.6-10.9l1.7 1.3c-1.9 3.1-3.2 5.7-3.9 7.6c-.7 1.8-1 3.7-1 5.5c0 1.9 .6 3.3 1.7 4.4c1.2 1 2.8 1.5 4.9 1.5c2.5 0 5.2-.4 8.1-1.1c2.6-.7 4.9-1.6 6.8-2.5c1.8-1 2.8-1.8 2.8-2.5c0-.2-.6-.3-1.7-.3c-1.1-.1-2.1-.1-3-.1c-2.1 0-3.4-.1-4-.2c-.7-.2-1-.6-1-1.1c0-1.1 .2-2.2 .6-3.4c.4-1.2 .9-2.1 1.4-2.8c1.3-1.6 2.9-2.9 4.7-4c2-1.3 3.8-1.9 5.3-1.9h6.8c.9 0 1.7 0 2.5 .1c2.2 .3 4.7 .5 7.5 .8c-2.9-.6-5-1.5-6.2-2.6c-1.2-1.1-1.8-2.7-1.8-4.7c0-3.1 .7-5.9 2.2-8.4c1.4-2.4 3-3.7 4.7-3.7Zm-887.5 0c2 0 3.8 1.8 5.3 5.2c1.5 3.5 2.3 7.7 2.3 12.6v.7h1c1.6 0 2.8-.1 3.5-.3c.6-.1 1.5-.5 2.7-1.1c-.6-1.2-1.2-2-1.6-2.5c-.5-.7-1.1-1-1.7-1c-.2 0-.4 .1-.6 .3c-.2 .1-.4 .4-.6 .8l-1.3-.2c0-3.6 .6-6.1 1.8-7.7c1.3-1.5 3.2-2.3 5.9-2.3c2.8 0 5 .5 6.5 1.6c1.6 1.1 2.4 2.6 2.4 4.5c0 1-.2 2-.6 2.9c-.4 .9-1.2 2.2-2.4 3.8c.3 .3 .7 .6 1.2 .9c.4 .2 .9 .3 1.3 .3h18c-.2-1.4-.6-2.5-1.1-3.4c-.4-.6-1-1.5-2.1-2.7l2.3-7.1c1.5 1.7 2.6 3.4 3.1 5.3c.6 1.8 .8 4.6 .8 8.2v7.8h-21c-1.5 0-2.9-.3-4.1-1c-1.2-.6-2.2-1.6-2.9-3c-1.3 1.6-3 2.7-5 3.3c-1.4 .5-2.9 .7-4.5 .7H370.2l-.1 .5c-.1 1.9-.3 3.4-.7 4.6c-.6 1.7-1.4 3-2.7 4.1c-1.2 1-3 1.8-5.3 2.4c-2.4 .7-4.8 1-7.3 1c-4.8 0-8.6-.9-11.2-2.6c-2.6-1.8-3.9-4.3-3.9-7.5c0-2.8 .4-5.3 1.3-7.6c.9-2.5 2.7-5.8 5.3-9.8l1.8 1.2c-2 3.4-3.3 5.8-3.8 7.3c-.7 1.5-1 3.1-1 4.7c0 2.1 1.2 3.8 3.4 5.1c2.2 1.3 5.2 2 8.8 2c3.6 0 6.6-.7 9-2.1c2.5-1.3 3.7-3 3.7-5c0-1.2-.2-2.5-.7-3.7c-.4-1.2-1.3-3.1-2.7-5.8l2.6-8c1.4 2.5 2.3 4.2 2.6 5.2c.5 1.5 .8 3.4 .9 5.6v.3h3.2c.9 0 1.8 0 2.6 .1c2.2 .3 4.7 .5 7.5 .8c-3-.6-5-1.5-6.2-2.6c-1.2-1.1-1.8-2.7-1.8-4.7c0-3.1 .7-5.9 2.2-8.4c1.4-2.4 3-3.7 4.7-3.7Zm405.7-2l7 3.7l-3.6 6.7l-7-3.7Zm-434.7 0l7 3.7l-3.6 6.7l-7-3.7Zm649.4-2.7l5.5 3l-3.1 5.8l-4.4-2.2l-2.5 4.8l-5.4-3l3.2-6.1l4.3 2.4Zm-379.5-2.4l2.9 18.7c.4 2.9 1 4.8 1.7 5.9c.5 .7 1.2 1 2 1h17.5c-.2-1.4-.6-2.5-1.2-3.4c-.3-.6-1-1.5-2.1-2.7l2.4-7.1c1.5 1.7 2.5 3.4 3 5.3c.6 1.8 .9 4.6 .9 8.2v7.8H629.9c-.7 0-1.4-.2-2-.4c-1.1-.6-2.1-1.7-2.9-3.2c-1-2.1-1.7-5-2.1-8.7c-1.3 1.7-2.4 2.9-3.1 3.6c-1.1 1-2 1.5-2.8 1.5c-.3 0-.8 0-1.4-.2L612 323c-1.6-.3-2.5-.5-2.9-.7c-.3-.1-.5-.4-.5-.7c0-.6 .7-2.2 2-5.1c1.4-2.8 2.4-4.6 3-5.3c.5-.5 1.4-1.2 2.7-2.1c.8-.5 1.8-1.2 3.2-2l1.6-.9c-.1-.3-.1-.6-.1-.8c-.1-.3-.1-.6-.1-.9c0-.7 .2-1.7 .5-2.8c.4-1.2 1-2.6 1.9-4.3Zm521.1 0c1.2 0 2.9 .7 5.3 2.1c2.3 1.3 4.5 3 6.5 4.9c4.6 4.3 6.9 8.2 6.9 11.8c0 .6 0 1.1-.2 1.6c-.2 .5-.5 1.2-1 2c-1.2-2.6-2.5-4.8-3.9-6.5c-1.4-1.7-3.1-3-5-4c0 .8-.1 1.4-.3 1.8c-.2 .4-.5 .6-.8 .6c-.6 0-1.7-.6-3.3-1.7c-1.7-1.2-2.9-2.4-3.7-3.5c-.5-.8-.9-1.9-1.2-3.4c-.3-1.4-.4-2.6-.4-3.6c0-1.4 .4-2.1 1.1-2.1Zm-588.9-.8v7.1c-.1 0-1 .3-2.5 .8c-2 .6-3.5 1.2-4.7 1.7c-1.6 .6-2.5 1.1-2.5 1.5c0 .1 .7 .9 2.1 2.3c2 1.9 3.6 3.6 4.9 5.1c2.1 2.6 3.9 5.1 5.3 7.7v.2h13.6c-.3-1.4-.7-2.5-1.2-3.4c-.3-.6-1-1.5-2.1-2.7l2.4-7.1c1.5 1.7 2.5 3.4 3 5.3c.5 1.6 .8 3.9 .8 6.9v1h13.6c-.3-1.4-.7-2.5-1.2-3.4c-.3-.6-1-1.5-2.1-2.7l2.4-7.1c1.5 1.7 2.5 3.4 3 5.3c.6 1.8 .8 4.6 .8 8.2v7.8h-88v.7c0 1.2-.7 2.8-2.1 4.8c-1.4 2-3 3.7-4.9 5.2c-2.1 1.6-3.8 2.4-5.3 2.4c-1.8 0-3.6-.4-5.6-1.4c-1.8-.9-4.5-2.6-8.2-5.2l1.2-1.8c1.8 1.2 3.2 2 4.3 2.4c1.1 .4 2.3 .6 3.6 .6c1.4 0 2.7-.4 4.1-1.1c1.4-.8 3.2-2.3 5.6-4.4c3.3-2.9 5-5.2 5-6.8c0-.8-.4-1.8-1-3.1c-.7-1.5-1.6-2.7-2.6-3.7l1.6-8c1.4 1.4 2.4 3 3.2 4.8c.7 1.8 1.1 3.9 1.1 6.2v.3h13.6c-.3-1.4-.7-2.5-1.2-3.4c-.3-.6-1-1.5-2.1-2.7l2.4-7.1c1.5 1.7 2.5 3.4 3 5.3c.5 1.6 .8 3.9 .8 6.9v1h13.6c-.3-1.4-.7-2.5-1.2-3.4c-.3-.6-1-1.5-2.1-2.7l2.4-7.1c1.5 1.7 2.5 3.4 3 5.3c.5 1.6 .8 3.9 .8 6.9v1h17.2c-.7-.9-1.5-1.8-2.2-2.5c-.6-.5-1.4-1.2-2.5-2c-1.1-.9-2.2-1.7-3.3-2.6l-1 1.1c-1.7-1.8-2.8-2.8-3.1-3.2c-1-1.2-1.5-2.5-1.5-3.9c0-2 .1-3.4 .4-4.3c.4-1.1 1.2-2.1 2.5-3c1.2-.8 2.4-1.6 3.7-2.2c1.1-.5 2.4-1.1 4.1-1.8c.8-.3 2.5-1 5.1-2Zm372.8-.4l5.6 3l-3.1 5.8l-4.4-2.2l-2.6 4.8l-5.4-3l3.3-6.1l4.2 2.4Zm-398.2 0l5.6 3l-3.1 5.8l-4.4-2.2l-2.6 4.8l-5.4-3l3.3-6.1l4.2 2.4Zm-107.6 0l5.6 3L425 305l-4.5-2.2l-2.5 4.8l-5.4-3l3.3-6.1l4.2 2.4Zm765.3-.5l7 3.7l-3.6 6.6l-7-3.6Zm-128.4-.8l6.9 3.7l-3.5 6.7l-7-3.6Zm360.5 0c1.1 1.6 1.9 3.2 2.4 4.7c.5 1.8 .8 4.1 .8 6.9v5.9c0 4.2 .3 7 .8 8.6c.5 1.3 1.2 2 2.1 2h8c1.8 0 3.2-.2 4.3-.7c1.3-.5 2.2-1.5 2.8-2.9c1.1-2.5 2.5-4.6 4.3-6.2c1.6-1.4 2.9-2.2 4-2.2c1 0 2.3 1.6 3.8 4.6c1.5 3.3 2.3 6.2 2.3 9v6.5c-2.1 0-4.5-.4-7.3-1.3c-2.5-.7-4.7-1.5-6.6-2.5c-1.1 1.7-2.6 2.9-4.3 3.4c-.8 .3-1.9 .4-3.3 .4h-8c-2.3 0-4-1-5-2.9c-1.2-2.1-1.8-5.6-1.8-10.6v-8.5c0-1.9-.2-3.4-.7-4.5c-.3-.5-.9-1.3-1.8-2.2Zm-26.7 0l1.8 10.6c.7 4 1.1 7.4 1.4 10.4c.2 2.3 .3 4.4 .3 6.5c0 1.8-.3 3.4-.7 4.9c-.4 1.4-1.2 3.4-2.4 5.9l-1.8-.8c.5-2.5 .8-4.6 .8-6.2c0-1.2-.2-3-.4-5.3c-.2-2.3-.4-4.7-.7-7c-.3-2.2-.8-5-1.5-8.2c-.2-1.1-.3-1.8-.3-2.3c0-.6 .3-1.6 .9-3.1c.6-1.5 1.5-3.3 2.6-5.4Zm-278.2 0c1.1 1.6 2 3.2 2.4 4.7c.6 1.8 .8 4.1 .8 6.9v5.9c0 4.2 .3 7 .9 8.6c.4 1.3 1.1 2 2 2h17.8c-.2-1.4-.6-2.5-1.2-3.4c-.3-.6-1-1.5-2.1-2.7l2.4-7.1c1.5 1.7 2.5 3.4 3.1 5.3c.5 1.8 .8 4.6 .8 8.2v7.8h-20.8c-2.3 0-4-1-5-2.9c-1.2-2.1-1.7-5.6-1.7-10.6v-8.5c0-1.9-.3-3.4-.8-4.5c-.3-.5-.9-1.3-1.8-2.2Zm-27 0l1.7 10.6c.7 4 1.2 7.4 1.4 10.4c.2 2.3 .3 4.4 .3 6.5c0 1.8-.2 3.4-.6 4.9c-.4 1.4-1.2 3.4-2.4 5.9l-1.8-.8c.5-2.5 .7-4.6 .7-6.2c0-1.2-.1-3-.3-5.3c-.2-2.3-.4-4.7-.7-7c-.3-2.2-.8-5-1.5-8.2c-.2-1.1-.4-1.8-.4-2.3c0-.6 .4-1.6 1-3.1c.6-1.5 1.4-3.3 2.6-5.4Zm-131.9 0l1.8 10.6c.7 4 1.1 7.4 1.4 10.4c.2 2.3 .3 4.4 .3 6.5c0 1.8-.2 3.4-.6 4.9c-.4 1.4-1.3 3.4-2.4 5.9l-1.8-.8c.4-2.5 .7-4.6 .7-6.2c0-1.2-.1-3-.3-5.3c-.2-2.3-.5-4.7-.8-7c-.3-2.2-.7-5-1.4-8.2c-.3-1.1-.4-1.8-.4-2.3c0-.6 .3-1.6 .9-3.1c.7-1.5 1.5-3.3 2.6-5.4Zm-207.1 0l1.8 10.6c.6 4 1.1 7.4 1.3 10.4c.2 2.3 .3 4.4 .3 6.5c0 1.8-.2 3.4-.6 4.9c-.4 1.4-1.2 3.4-2.4 5.9l-1.8-.8c.5-2.5 .7-4.6 .7-6.2c0-1.2-.1-3-.3-5.3c-.2-2.3-.4-4.7-.7-7c-.3-2.2-.8-5-1.5-8.2c-.2-1.1-.4-1.8-.4-2.3c0-.6 .4-1.6 1-3.1c.6-1.5 1.5-3.3 2.6-5.4Zm-94.7 0c1.1 1.6 1.9 3.2 2.4 4.7c.5 1.8 .8 4.1 .8 6.9v5.9c0 4.2 .3 7 .8 8.6c.5 1.3 1.2 2 2.1 2h6.4c2.3 0 4-.6 5.2-1.8c1.4-1.3 2.3-3.7 2.7-7l2 .4c0 .7-.1 1.3-.1 1.7c-.1 1.3-.1 2.3-.1 3.1c0 1.2 .3 2 .9 2.7c.6 .6 1.3 .9 2.3 .9c1 0 1.9-.2 2.7-.6c.9-.4 2.2-1.2 3.9-2.5l10.7-7.6c1.2-.9 2.2-1.5 2.8-1.9c1.5-.9 2.9-1.3 4.2-1.3c2.2 0 4 .7 5.4 2.3c1.5 1.9 2.3 4.6 2.3 8.3v11.4H680.1c-1.4 0-2.5-.4-3.4-1.1c-.8-.7-1.5-1.8-2.1-3.4c-1.3 1.8-2.5 3-3.7 3.6c-1 .6-2.4 .9-4.1 .9h-6.4c-2.3 0-4-1-5-2.9c-1.2-2.1-1.8-5.6-1.8-10.6v-8.5c0-1.9-.2-3.4-.7-4.5c-.3-.5-.9-1.3-1.8-2.2Zm-204.4 0c1.1 1.6 1.9 3.2 2.4 4.7c.5 1.8 .8 4.1 .8 6.9v5.9c0 4.2 .3 7 .8 8.6c.4 1.3 1.1 2 2.1 2h17.8c-.3-1.4-.7-2.5-1.2-3.4c-.3-.6-1-1.5-2.1-2.7l2.4-7.1c1.5 1.7 2.5 3.4 3 5.3c.6 1.8 .8 4.6 .8 8.2v7.8H456c-2.3 0-4-1-5-2.9c-1.2-2.1-1.8-5.6-1.8-10.6v-8.5c0-1.9-.2-3.4-.8-4.5c-.2-.5-.8-1.3-1.8-2.2Zm-135.6 0l1.8 10.6c.6 4 1.1 7.4 1.3 10.4c.2 2.3 .3 4.4 .3 6.5c0 1.8-.2 3.4-.6 4.9c-.4 1.4-1.2 3.4-2.4 5.9l-1.8-.8c.5-2.5 .7-4.6 .7-6.2c0-1.2-.1-3-.3-5.3c-.2-2.3-.4-4.7-.7-7c-.3-2.2-.8-5-1.5-8.2c-.2-1.1-.3-1.8-.3-2.3c0-.6 .3-1.6 .9-3.1c.6-1.5 1.5-3.3 2.6-5.4Zm419.2-.2l1.3 .4c0 1.3 .3 2.1 .9 2.6c.4 .3 2 .9 4.7 1.7c0 1.4-.1 2.8-.4 4.2c-.1 .6-.4 1.7-.8 3.3L737 306c0 2.4-.2 4.7-.8 7c-.6 2.4-1.4 4.7-2.7 6.9c1.1 2 1.7 3.1 1.9 3.5c.5 .9 .7 1.7 .7 2.4v1c0 .5-.1 2.5-.4 6.1c-2.3 1-4.3 1.7-6.1 2c-1.8 .4-4.4 .5-7.9 .5v-8.8c2-1 3.4-1.9 4.3-2.6c.8-.7 2-1.9 3.3-3.7c-2.2-2.8-3.9-4.8-4.9-6c-.8-1-1.9-2.1-3.2-3.3c-.3 .6-.6 1.1-.7 1.3c-.2 .2-.3 .3-.5 .3c-.4 0-1.3-.4-2.6-1.2c-1.2-.8-2.1-1.4-2.8-2c-.6-.6-1.1-1.7-1.4-3.2c-.3-1.6-.5-3.6-.5-6.1c0-1.1 .1-1.8 .2-2.2c.1-.4 .4-.6 .8-.6c.8 0 2.4 1.1 4.7 3.3c2.1 1.9 3.9 3.8 5.5 5.7c1.2 1.4 2.3 2.8 3.4 4.1c.9 1.3 2.3 3.3 4.2 6.3c.9-1.7 1.6-3.8 1.9-6.5c.2-1.6 .3-3.5 .3-5.7c-.7-.3-1.2-.6-1.5-1c-.2-.3-.3-.7-.3-1.3c0-1.2 .1-2.4 .3-3.6c.3-1.3 .7-2.5 1.3-3.9Zm434.3-1.6c1.1 3.4 1.7 7.8 2 13.3c.2 3.9 .4 7.8 .5 11.6c.3 3.3 1.1 5 2.3 5h21.3c-2.4-2.5-4.6-4.3-6.7-5.4c-1.8-1-3.5-1.4-5.3-1.4c-.5 0-1 0-1.4 0c-.4 .1-1 .2-1.9 .4c1.1-2.5 2.4-4.4 3.7-5.6c1.3-1.2 2.9-1.7 4.6-1.7c1.3 0 2.6 .3 3.8 .9c1.2 .6 2.5 1.7 4 3.1c1.2 1.1 2.9 2.8 5.1 5.2c1.5 1.7 2.6 2.7 3.4 3.2c.8 .5 2 1 3.6 1.3v8.1h-34.2c-1.2 0-2.4-1-3.5-3.1c-1.2-2.2-1.8-4.7-1.8-7.5c-1.7 5.2-4.2 8.8-7.3 10.8c-3.1 1.9-7.7 2.8-14 2.8l-3.4-.1v-1.9c1.4-.5 2.8-1 4.2-1.4c1.4-.5 2.5-.9 3.2-1.3c4-2 6.8-3.5 8.2-4.5c2.5-1.6 4.4-3.3 5.5-5.2c1.3-2.1 2-4.7 2-7.8c0-1.8-.1-3.6-.4-5.4c-.3-1.7-.6-3.5-.9-5.2c0-1.3 1.1-4.1 3.4-8.2Zm211.6-.5l1.4 .7c0 .1-.1 .4-.1 .9c0 .7 .4 1.3 1.2 1.9c.8 .6 1.9 1.2 3.5 1.9c-.1 1.2-.4 2.5-.8 3.7c-.3 1.2-.7 2.3-1.1 3.3l-1.1-.5l3.2 18.5v8.1h-27.7c-1.4 0-2.4-.3-3.1-.8c-.8-.7-1.2-1.8-1.2-3.3c0-.9 0-1.9 .1-2.9c.1-1 .2-2 .4-3.1h1.1c.2 .7 .6 1.2 1.1 1.5c.5 .3 1.2 .5 2 .5h10.2c-.4-2.9-1.2-5.3-2.4-7c-.9-1.5-2.2-2.7-3.9-3.8l2.2-9.3c2.6 2 4.4 4.4 5.5 7.5c1 2.8 1.5 6.5 1.5 11.1V323h10.7l-3.6-20.3l-2-1.2c0-1.2 .2-2.4 .6-3.6c.4-1.5 1.2-3.3 2.3-5.3Zm-305.2 0l1.3 .7c0 .1 0 .4-.1 .9c0 .7 .4 1.3 1.3 1.9c.7 .6 1.9 1.2 3.5 1.9c-.2 1.2-.5 2.5-.8 3.7c-.4 1.2-.7 2.3-1.2 3.3l-1.1-.5l3.3 18.5v8.1h-51.5c-2.3 0-4-1-5-2.9c-1.2-2.1-1.8-5.6-1.8-10.6v-8.5c0-1.9-.2-3.4-.7-4.5c-.3-.5-.9-1.3-1.8-2.2l3.2-7.5c1.1 1.6 1.9 3.2 2.4 4.7c.5 1.8 .8 4.1 .8 6.9v5.9c0 4.2 .3 7 .8 8.6c.5 1.3 1.2 2 2.1 2h17.8c-.2-1.4-.6-2.5-1.2-3.4c-.3-.6-1-1.5-2.1-2.7l2.4-7.1c1.5 1.7 2.5 3.4 3 5.3c.5 1.6 .8 3.9 .8 6.9l.1 1h13.5c-.2-1.4-.6-2.5-1.2-3.4c-.3-.6-1-1.5-2.1-2.7l2.4-7.1c1.5 1.7 2.5 3.4 3 5.3c.5 1.6 .8 3.9 .8 6.9l.1 1h10.6l-3.6-20.3l-1.9-1.2c0-1.2 .2-2.4 .5-3.6c.5-1.5 1.3-3.3 2.4-5.3Zm-131.9 0l1.4 .7c0 .1 0 .4-.1 .9c0 .7 .4 1.3 1.3 1.9c.7 .6 1.9 1.2 3.5 1.9c-.2 1.2-.5 2.5-.8 3.7c-.4 1.2-.8 2.3-1.2 3.3l-1.1-.5l3.3 18.5v8.1h-35c-2.3 0-4-1-5-2.9c-1.2-2.1-1.8-5.6-1.8-10.6v-8.5c0-1.9-.2-3.4-.8-4.5c-.2-.5-.8-1.3-1.8-2.2l3.3-7.5c1.1 1.6 1.9 3.2 2.4 4.7c.5 1.8 .8 4.1 .8 6.9v5.9c0 4.2 .3 7 .8 8.6c.4 1.3 1.1 2 2.1 2h17.8c-.3-1.4-.7-2.5-1.2-3.4c-.3-.6-1-1.5-2.1-2.7l2.4-7.1c1.5 1.7 2.5 3.4 3 5.3c.5 1.6 .8 3.9 .8 6.9v1H945l-3.6-20.3l-1.9-1.2c0-1.2 .2-2.4 .5-3.6c.5-1.5 1.2-3.3 2.3-5.3Zm-45.1 0l1.4 .7c0 .1 0 .4-.1 .9c0 .7 .4 1.3 1.3 1.9c.7 .6 1.9 1.2 3.5 1.9c-.2 1.2-.5 2.5-.8 3.7c-.4 1.2-.8 2.3-1.2 3.3l-1.1-.5l3.3 18.5v8.1H868.8c-.7 0-1.4-.2-2-.4c-1.1-.6-2.1-1.7-2.9-3.2c-1.1-2.1-1.8-5-2.1-8.7c-1.3 1.7-2.4 2.9-3.1 3.6c-1.1 1-2 1.5-2.8 1.5c-.4 0-.8 0-1.4-.2l-3.7-.7c-1.5-.3-2.5-.5-2.8-.7c-.4-.1-.5-.4-.5-.7c0-.6 .6-2.2 2-5.1c1.4-2.8 2.4-4.6 3-5.3c.5-.5 1.4-1.2 2.7-2.1c.7-.5 1.8-1.2 3.2-2l1.6-.9c-.1-.3-.1-.6-.2-.8c0-.3 0-.6 0-.9c0-.7 .2-1.7 .5-2.8c.4-1.2 1-2.6 1.9-4.3l2.8 18.7c.5 2.9 1.1 4.8 1.8 5.9c.5 .7 1.2 1 2 1h17.5c-.3-1.4-.7-2.5-1.2-3.4c-.3-.6-1-1.5-2.1-2.7l2.4-7.1c1.5 1.7 2.5 3.4 3 5.3c.5 1.6 .8 3.9 .8 6.9v1h10.7l-3.6-20.3l-1.9-1.2c0-1.2 .2-2.4 .5-3.6c.5-1.5 1.2-3.3 2.3-5.3Zm-596.7 0l1.4 .7c0 .1-.1 .4-.1 .9c0 .7 .4 1.3 1.2 1.9c.7 .6 1.9 1.2 3.5 1.9c-.2 1.2-.4 2.5-.8 3.7c-.3 1.2-.7 2.3-1.2 3.3l-1-.5l3.2 18.5v8.1H290.3V323h12.8l-3.6-20.3l-1.9-1.2c0-1.2 .2-2.4 .6-3.6c.4-1.5 1.2-3.3 2.3-5.3Zm79.6-.4l6.9 3.7l-3.6 6.7l-6.9-3.6Zm888.1 0l5.6 3l-3.1 5.8l-4.4-2.2l-2.6 4.8l-5.4-3l3.3-6.1l4.2 2.4Zm91.1-4l7 3.7l-3.6 6.7l-7-3.6Zm-498.8-1.7l5.3 2.8l-3.3 5.5l-4.2-2.3l-2.4 4.7l-5.5-3.1l3.1-5.2l4.4 2.2Zm-238.9 0l5.3 2.8l-3.2 5.5l-4.3-2.3l-2.4 4.7l-5.5-3.1l3.1-5.2l4.4 2.2Z" class="g0_20"/>
<path d="M1333.6 343.6l4.6 2.4l-2.2 4.1l-4.6-2.3l-2.2 3.9l-4.6-2.4l2.3-4.2l4.5 2.4Zm-293.9-10l7 3.7l-3.6 6.7l-7-3.7Zm-399.3 0l7 3.7l-3.6 6.7l-7-3.7Zm-59.2 0l6.9 3.7l-3.5 6.7l-7-3.7Zm-16.5 0l6.9 3.7l-3.5 6.7l-7-3.7Zm723.3-.3l5.6 3l-3.1 5.8l-4.4-2.2l-2.6 4.9l-5.4-3.1l3.3-6.1l4.2 2.4Zm-152.1 0l5.5 3l-3.1 5.8l-4.4-2.2l-2.5 4.9l-5.4-3.1l3.2-6.1l4.3 2.4Zm-252.7 0l5.6 3l-3.1 5.8l-4.4-2.2l-2.6 4.9l-5.4-3.1l3.3-6.1l4.2 2.4Zm-369.6 0l5.6 3l-3.1 5.8l-4.4-2.2l-2.6 4.9l-5.4-3.1l3.3-6.1l4.2 2.4Zm-42.9 0l5.6 3l-3.1 5.8l-4.4-2.2l-2.6 4.9l-5.4-3.1l3.3-6.1l4.2 2.4Zm260.5-10.2c-.9 1-1.5 1.7-2 2.1c-.5 .4-1.3 1-2.5 1.9c1.5-.2 2.6-.4 3.3-.6c.6-.1 1.5-.5 2.6-1.2Zm715-5.1c-.8 0-1.4 .9-2 2.7c1.1 .4 1.8 .7 2.4 .9c1.6 .6 2.5 .9 2.7 .9c.4 0 .7-.2 .7-.4c0-.5-.5-1.2-1.3-2.3c-1-1.2-1.8-1.8-2.5-1.8Zm-625.4 0c-.7 0-1.4 .9-1.9 2.7c1 .4 1.8 .7 2.3 .9c1.6 .6 2.5 .9 2.7 .9c.5 0 .7-.2 .7-.4c0-.5-.4-1.2-1.3-2.3c-.9-1.2-1.8-1.8-2.5-1.8Zm-119.3-.9c-1.3 0-2.8 .4-4.5 1.3c-1.6 .8-4 2.3-7.1 4.6h7.8c6.5 0 9.8-1 9.8-3.1c0-.8-.7-1.6-2.1-2.1c-1.2-.5-2.5-.7-3.9-.7Zm566.9-3.8c-.4 0-.7 .1-1 .4c-.3 .2-.5 .5-.5 .9c0 .9 .7 1.7 1.9 2.5c1.3 .8 2.8 1.4 4.6 1.6c-.7-1.7-1.5-3-2.4-4c-.9-.9-1.7-1.4-2.6-1.4Zm-887.5 0c-.4 0-.8 .1-1.1 .4c-.3 .2-.4 .5-.4 .9c0 .9 .6 1.7 1.9 2.5c1.3 .8 2.8 1.4 4.6 1.6c-.7-1.7-1.5-3-2.4-4c-.9-.9-1.7-1.4-2.6-1.4Zm961.5-1.6c1.1 0 2 .4 2.7 1.3c.7 .9 1 2.1 1 3.6c0 1.1-.1 2-.3 2.7c-.2 .7-.7 1.7-1.4 2.8c-.6-1.4-1-2.3-1.4-2.7c-.3-.5-.9-.7-1.6-.7c-1 0-2.5 .6-4.4 1.9c-1.9 1.2-2.8 2.2-2.8 3c0 .5 .4 .8 1.1 1c.5 .1 1.4 .1 2.5 .1c.3 0 .6 0 .9 0c.3 0 .6 0 .9 0c2.1 0 3.6 .2 4.3 .7c.6 .4 .9 1.1 .9 2.2c0 2.1-.4 4.2-1.2 6.2c-1 2.4-2.4 4.2-4.3 5.3c-2.4 1.3-4.8 2.4-7.4 3.2c-2.5 .8-4.9 1.2-7.1 1.2c-6.2 0-9.3-2.8-9.3-8.3c0-2.8 .4-5.2 1.1-7.3c.7-2.2 2.4-5.3 4.9-9.2l1.4 .9c-1.5 2.5-2.6 4.7-3.4 6.7c-.7 1.9-1.1 3.6-1.1 5c0 3.8 2.1 5.7 6.4 5.7c1.6 0 3.1-.2 4.5-.5c1.5-.3 2.9-.6 4.4-1.2c.9-.3 2-.7 3.3-1.3c1.9-.9 3-1.3 3.1-1.4c.9-.5 1.3-.9 1.3-1.3c0-.2-.5-.3-1.4-.3c-1-.1-1.7-.1-2.1-.1c-3 0-5.1-.4-6.1-1.3c-.8-.7-1.3-2.1-1.3-4c0-.9 .3-2 .9-3.4c.6-1.4 1.4-2.8 2.3-4.2c1.5-2.1 2.9-3.7 4.4-4.7c1.4-1.1 2.9-1.6 4.3-1.6ZM824.1 311c1 0 2.2 1.6 3.7 4.6c1.6 3.3 2.4 6.2 2.4 9v6.5c-2.1 0-4.6-.4-7.4-1.3c-2.5-.7-4.7-1.5-6.6-2.5c-1.1 1.7-2.5 2.9-4.2 3.4c-.8 .3-1.9 .4-3.3 .4h-3.9v.5c-.1 1.9-.3 3.4-.7 4.6c-.6 1.7-1.5 3-2.7 4.1c-1.2 1-3 1.8-5.4 2.4c-2.3 .7-4.7 1-7.2 1c-4.9 0-8.6-.9-11.2-2.6c-2.6-1.8-3.9-4.3-3.9-7.5c0-2.8 .4-5.3 1.2-7.6c1-2.5 2.7-5.8 5.4-9.8l1.8 1.2c-2 3.4-3.3 5.8-3.9 7.3c-.6 1.5-.9 3.1-.9 4.7c0 2.1 1.1 3.8 3.4 5.1c2.2 1.3 5.1 2 8.8 2c3.6 0 6.6-.7 9-2.1c2.5-1.3 3.7-3 3.7-5c0-1.2-.2-2.5-.7-3.7c-.4-1.2-1.3-3.1-2.7-5.8l2.6-8c1.4 2.5 2.3 4.2 2.6 5.2c.5 1.5 .8 3.4 .8 5.6v.3h3.9c1.7 0 3.2-.2 4.2-.7c1.4-.5 2.3-1.5 2.8-2.9c1.1-2.5 2.6-4.6 4.4-6.2c1.5-1.4 2.9-2.2 4-2.2Zm36.4-.3c-.6 .3-1.1 .5-1.5 .7c-1.1 .6-1.9 1.1-2.6 1.6c-.5 .4-.9 .8-1.2 1.1c-.4 .4-.6 .8-.6 1c0 .3 .4 .5 1 .6c.8 .2 1.4 .3 2.1 .3c.5 0 .9-.1 1.4-.4c.5-.2 1.1-.7 2-1.4Zm-238.9 0c-.6 .3-1.1 .5-1.5 .7c-1.1 .6-1.9 1.1-2.6 1.6c-.5 .4-.9 .8-1.2 1.1c-.4 .4-.6 .8-.6 1c0 .3 .4 .5 1.1 .6c.7 .2 1.4 .3 2 .3c.5 0 .9-.1 1.4-.4c.5-.2 1.1-.7 2-1.4Zm363.2-.7l1.7 1c-.5 .8-.8 1.6-1.1 2.2c-.3 .7-.5 1.2-.7 1.7c-.3 .9-.4 1.8-.4 2.7c0 1.1 .3 2.1 1.1 3.1c.7 .9 1.7 1.5 2.8 1.7c.7 .2 1.6 .3 2.7 .4c1.1 .1 2.3 .2 3.6 .2H1016c-.5-1.6-1-2.7-1.3-3.2c-.5-.8-1.2-1.8-2.1-2.9l2.7-6.9c1.5 2.1 2.5 4 2.9 5.8c.4 1.6 .6 3.9 .6 6.9v8.4h-25c-1.2 0-2.2 0-3 0c-.8 0-1.4-.1-1.8-.1c-.7-.1-1.6-.3-2.5-.6c-1.7-.6-3-1.7-4-3.4c-1.1-1.8-1.6-3.7-1.6-5.8c0-.8 0-1.7 .1-2.5c.2-.9 .4-1.8 .7-2.8c.4-1.2 .9-2.3 1.4-3.2c.6-1 1.1-1.9 1.7-2.7Zm285.1-5.5c2.1 0 3.8 1.8 5.3 5.2c1.5 3.5 2.3 7.7 2.3 12.6v.7h13.6c-.3-1.4-.7-2.5-1.2-3.4c-.3-.6-1-1.5-2.1-2.7l2.4-7.1c1.5 1.7 2.5 3.4 3 5.3c.6 1.8 .8 4.6 .8 8.2v7.8h-38.9c-.8 0-1.4 .1-1.8 .2c-.5 .1-.7 .3-.7 .5c0 .1 .5 .4 1.5 .7c.9 .4 1.4 1 1.4 1.8c0 1.1-.1 2.4-.5 3.9c-.3 1.6-.7 3-1.3 4.2c-.5 1-1.7 2-3.7 3.3c-2.1 1.3-4.6 2.4-7.3 3.3c-3.1 1-6.1 1.4-8.9 1.4c-3.2 0-5.6-.7-7.3-2.2c-1.6-1.5-2.4-3.7-2.4-6.5c0-3.2 .3-5.9 1.1-8.2c.9-2.8 2.8-6.4 5.6-10.9l1.7 1.3c-1.9 3.1-3.2 5.7-3.9 7.6c-.7 1.8-1 3.7-1 5.5c0 1.9 .6 3.3 1.7 4.4c1.2 1 2.8 1.5 4.9 1.5c2.5 0 5.2-.4 8.1-1.1c2.6-.7 4.9-1.6 6.8-2.5c1.8-1 2.8-1.8 2.8-2.5c0-.2-.6-.3-1.7-.3c-1.1-.1-2.1-.1-3-.1c-2.1 0-3.4-.1-4-.2c-.7-.2-1-.6-1-1.1c0-1.1 .2-2.2 .6-3.4c.4-1.2 .9-2.1 1.4-2.8c1.3-1.6 2.9-2.9 4.7-4c2-1.3 3.8-1.9 5.3-1.9h6.8c.9 0 1.7 0 2.5 .1c2.2 .3 4.7 .5 7.5 .8c-2.9-.6-5-1.5-6.2-2.6c-1.2-1.1-1.8-2.7-1.8-4.7c0-3.1 .7-5.9 2.2-8.4c1.4-2.4 3-3.7 4.7-3.7Zm-887.5 0c2 0 3.8 1.8 5.3 5.2c1.5 3.5 2.3 7.7 2.3 12.6v.7h1c1.6 0 2.8-.1 3.5-.3c.6-.1 1.5-.5 2.7-1.1c-.6-1.2-1.2-2-1.6-2.5c-.5-.7-1.1-1-1.7-1c-.2 0-.4 .1-.6 .3c-.2 .1-.4 .4-.6 .8l-1.3-.2c0-3.6 .6-6.1 1.8-7.7c1.3-1.5 3.2-2.3 5.9-2.3c2.8 0 5 .5 6.5 1.6c1.6 1.1 2.4 2.6 2.4 4.5c0 1-.2 2-.6 2.9c-.4 .9-1.2 2.2-2.4 3.8c.3 .3 .7 .6 1.2 .9c.4 .2 .9 .3 1.3 .3h18c-.2-1.4-.6-2.5-1.1-3.4c-.4-.6-1-1.5-2.1-2.7l2.3-7.1c1.5 1.7 2.6 3.4 3.1 5.3c.6 1.8 .8 4.6 .8 8.2v7.8h-21c-1.5 0-2.9-.3-4.1-1c-1.2-.6-2.2-1.6-2.9-3c-1.3 1.6-3 2.7-5 3.3c-1.4 .5-2.9 .7-4.5 .7H370.2l-.1 .5c-.1 1.9-.3 3.4-.7 4.6c-.6 1.7-1.4 3-2.7 4.1c-1.2 1-3 1.8-5.3 2.4c-2.4 .7-4.8 1-7.3 1c-4.8 0-8.6-.9-11.2-2.6c-2.6-1.8-3.9-4.3-3.9-7.5c0-2.8 .4-5.3 1.3-7.6c.9-2.5 2.7-5.8 5.3-9.8l1.8 1.2c-2 3.4-3.3 5.8-3.8 7.3c-.7 1.5-1 3.1-1 4.7c0 2.1 1.2 3.8 3.4 5.1c2.2 1.3 5.2 2 8.8 2c3.6 0 6.6-.7 9-2.1c2.5-1.3 3.7-3 3.7-5c0-1.2-.2-2.5-.7-3.7c-.4-1.2-1.3-3.1-2.7-5.8l2.6-8c1.4 2.5 2.3 4.2 2.6 5.2c.5 1.5 .8 3.4 .9 5.6v.3h3.2c.9 0 1.8 0 2.6 .1c2.2 .3 4.7 .5 7.5 .8c-3-.6-5-1.5-6.2-2.6c-1.2-1.1-1.8-2.7-1.8-4.7c0-3.1 .7-5.9 2.2-8.4c1.4-2.4 3-3.7 4.7-3.7Zm405.7-2l7 3.7l-3.6 6.7l-7-3.7Zm-434.7 0l7 3.7l-3.6 6.7l-7-3.7Zm649.4-2.7l5.5 3l-3.1 5.8l-4.4-2.2l-2.5 4.8l-5.4-3l3.2-6.1l4.3 2.4Zm-379.5-2.4l2.9 18.7c.4 2.9 1 4.8 1.7 5.9c.5 .7 1.2 1 2 1h17.5c-.2-1.4-.6-2.5-1.2-3.4c-.3-.6-1-1.5-2.1-2.7l2.4-7.1c1.5 1.7 2.5 3.4 3 5.3c.6 1.8 .9 4.6 .9 8.2v7.8H629.9c-.7 0-1.4-.2-2-.4c-1.1-.6-2.1-1.7-2.9-3.2c-1-2.1-1.7-5-2.1-8.7c-1.3 1.7-2.4 2.9-3.1 3.6c-1.1 1-2 1.5-2.8 1.5c-.3 0-.8 0-1.4-.2L612 323c-1.6-.3-2.5-.5-2.9-.7c-.3-.1-.5-.4-.5-.7c0-.6 .7-2.2 2-5.1c1.4-2.8 2.4-4.6 3-5.3c.5-.5 1.4-1.2 2.7-2.1c.8-.5 1.8-1.2 3.2-2l1.6-.9c-.1-.3-.1-.6-.1-.8c-.1-.3-.1-.6-.1-.9c0-.7 .2-1.7 .5-2.8c.4-1.2 1-2.6 1.9-4.3Zm521.1 0c1.2 0 2.9 .7 5.3 2.1c2.3 1.3 4.5 3 6.5 4.9c4.6 4.3 6.9 8.2 6.9 11.8c0 .6 0 1.1-.2 1.6c-.2 .5-.5 1.2-1 2c-1.2-2.6-2.5-4.8-3.9-6.5c-1.4-1.7-3.1-3-5-4c0 .8-.1 1.4-.3 1.8c-.2 .4-.5 .6-.8 .6c-.6 0-1.7-.6-3.3-1.7c-1.7-1.2-2.9-2.4-3.7-3.5c-.5-.8-.9-1.9-1.2-3.4c-.3-1.4-.4-2.6-.4-3.6c0-1.4 .4-2.1 1.1-2.1Zm-588.9-.8v7.1c-.1 0-1 .3-2.5 .8c-2 .6-3.5 1.2-4.7 1.7c-1.6 .6-2.5 1.1-2.5 1.5c0 .1 .7 .9 2.1 2.3c2 1.9 3.6 3.6 4.9 5.1c2.1 2.6 3.9 5.1 5.3 7.7v.2h13.6c-.3-1.4-.7-2.5-1.2-3.4c-.3-.6-1-1.5-2.1-2.7l2.4-7.1c1.5 1.7 2.5 3.4 3 5.3c.5 1.6 .8 3.9 .8 6.9v1h13.6c-.3-1.4-.7-2.5-1.2-3.4c-.3-.6-1-1.5-2.1-2.7l2.4-7.1c1.5 1.7 2.5 3.4 3 5.3c.6 1.8 .8 4.6 .8 8.2v7.8h-88v.7c0 1.2-.7 2.8-2.1 4.8c-1.4 2-3 3.7-4.9 5.2c-2.1 1.6-3.8 2.4-5.3 2.4c-1.8 0-3.6-.4-5.6-1.4c-1.8-.9-4.5-2.6-8.2-5.2l1.2-1.8c1.8 1.2 3.2 2 4.3 2.4c1.1 .4 2.3 .6 3.6 .6c1.4 0 2.7-.4 4.1-1.1c1.4-.8 3.2-2.3 5.6-4.4c3.3-2.9 5-5.2 5-6.8c0-.8-.4-1.8-1-3.1c-.7-1.5-1.6-2.7-2.6-3.7l1.6-8c1.4 1.4 2.4 3 3.2 4.8c.7 1.8 1.1 3.9 1.1 6.2v.3h13.6c-.3-1.4-.7-2.5-1.2-3.4c-.3-.6-1-1.5-2.1-2.7l2.4-7.1c1.5 1.7 2.5 3.4 3 5.3c.5 1.6 .8 3.9 .8 6.9v1h13.6c-.3-1.4-.7-2.5-1.2-3.4c-.3-.6-1-1.5-2.1-2.7l2.4-7.1c1.5 1.7 2.5 3.4 3 5.3c.5 1.6 .8 3.9 .8 6.9v1h17.2c-.7-.9-1.5-1.8-2.2-2.5c-.6-.5-1.4-1.2-2.5-2c-1.1-.9-2.2-1.7-3.3-2.6l-1 1.1c-1.7-1.8-2.8-2.8-3.1-3.2c-1-1.2-1.5-2.5-1.5-3.9c0-2 .1-3.4 .4-4.3c.4-1.1 1.2-2.1 2.5-3c1.2-.8 2.4-1.6 3.7-2.2c1.1-.5 2.4-1.1 4.1-1.8c.8-.3 2.5-1 5.1-2Zm372.8-.4l5.6 3l-3.1 5.8l-4.4-2.2l-2.6 4.8l-5.4-3l3.3-6.1l4.2 2.4Zm-398.2 0l5.6 3l-3.1 5.8l-4.4-2.2l-2.6 4.8l-5.4-3l3.3-6.1l4.2 2.4Zm-107.6 0l5.6 3L425 305l-4.5-2.2l-2.5 4.8l-5.4-3l3.3-6.1l4.2 2.4Zm765.3-.5l7 3.7l-3.6 6.6l-7-3.6Zm-128.4-.8l6.9 3.7l-3.5 6.7l-7-3.6Zm360.5 0c1.1 1.6 1.9 3.2 2.4 4.7c.5 1.8 .8 4.1 .8 6.9v5.9c0 4.2 .3 7 .8 8.6c.5 1.3 1.2 2 2.1 2h8c1.8 0 3.2-.2 4.3-.7c1.3-.5 2.2-1.5 2.8-2.9c1.1-2.5 2.5-4.6 4.3-6.2c1.6-1.4 2.9-2.2 4-2.2c1 0 2.3 1.6 3.8 4.6c1.5 3.3 2.3 6.2 2.3 9v6.5c-2.1 0-4.5-.4-7.3-1.3c-2.5-.7-4.7-1.5-6.6-2.5c-1.1 1.7-2.6 2.9-4.3 3.4c-.8 .3-1.9 .4-3.3 .4h-8c-2.3 0-4-1-5-2.9c-1.2-2.1-1.8-5.6-1.8-10.6v-8.5c0-1.9-.2-3.4-.7-4.5c-.3-.5-.9-1.3-1.8-2.2Zm-26.7 0l1.8 10.6c.7 4 1.1 7.4 1.4 10.4c.2 2.3 .3 4.4 .3 6.5c0 1.8-.3 3.4-.7 4.9c-.4 1.4-1.2 3.4-2.4 5.9l-1.8-.8c.5-2.5 .8-4.6 .8-6.2c0-1.2-.2-3-.4-5.3c-.2-2.3-.4-4.7-.7-7c-.3-2.2-.8-5-1.5-8.2c-.2-1.1-.3-1.8-.3-2.3c0-.6 .3-1.6 .9-3.1c.6-1.5 1.5-3.3 2.6-5.4Zm-278.2 0c1.1 1.6 2 3.2 2.4 4.7c.6 1.8 .8 4.1 .8 6.9v5.9c0 4.2 .3 7 .9 8.6c.4 1.3 1.1 2 2 2h17.8c-.2-1.4-.6-2.5-1.2-3.4c-.3-.6-1-1.5-2.1-2.7l2.4-7.1c1.5 1.7 2.5 3.4 3.1 5.3c.5 1.8 .8 4.6 .8 8.2v7.8h-20.8c-2.3 0-4-1-5-2.9c-1.2-2.1-1.7-5.6-1.7-10.6v-8.5c0-1.9-.3-3.4-.8-4.5c-.3-.5-.9-1.3-1.8-2.2Zm-27 0l1.7 10.6c.7 4 1.2 7.4 1.4 10.4c.2 2.3 .3 4.4 .3 6.5c0 1.8-.2 3.4-.6 4.9c-.4 1.4-1.2 3.4-2.4 5.9l-1.8-.8c.5-2.5 .7-4.6 .7-6.2c0-1.2-.1-3-.3-5.3c-.2-2.3-.4-4.7-.7-7c-.3-2.2-.8-5-1.5-8.2c-.2-1.1-.4-1.8-.4-2.3c0-.6 .4-1.6 1-3.1c.6-1.5 1.4-3.3 2.6-5.4Zm-131.9 0l1.8 10.6c.7 4 1.1 7.4 1.4 10.4c.2 2.3 .3 4.4 .3 6.5c0 1.8-.2 3.4-.6 4.9c-.4 1.4-1.3 3.4-2.4 5.9l-1.8-.8c.4-2.5 .7-4.6 .7-6.2c0-1.2-.1-3-.3-5.3c-.2-2.3-.5-4.7-.8-7c-.3-2.2-.7-5-1.4-8.2c-.3-1.1-.4-1.8-.4-2.3c0-.6 .3-1.6 .9-3.1c.7-1.5 1.5-3.3 2.6-5.4Zm-207.1 0l1.8 10.6c.6 4 1.1 7.4 1.3 10.4c.2 2.3 .3 4.4 .3 6.5c0 1.8-.2 3.4-.6 4.9c-.4 1.4-1.2 3.4-2.4 5.9l-1.8-.8c.5-2.5 .7-4.6 .7-6.2c0-1.2-.1-3-.3-5.3c-.2-2.3-.4-4.7-.7-7c-.3-2.2-.8-5-1.5-8.2c-.2-1.1-.4-1.8-.4-2.3c0-.6 .4-1.6 1-3.1c.6-1.5 1.5-3.3 2.6-5.4Zm-94.7 0c1.1 1.6 1.9 3.2 2.4 4.7c.5 1.8 .8 4.1 .8 6.9v5.9c0 4.2 .3 7 .8 8.6c.5 1.3 1.2 2 2.1 2h6.4c2.3 0 4-.6 5.2-1.8c1.4-1.3 2.3-3.7 2.7-7l2 .4c0 .7-.1 1.3-.1 1.7c-.1 1.3-.1 2.3-.1 3.1c0 1.2 .3 2 .9 2.7c.6 .6 1.3 .9 2.3 .9c1 0 1.9-.2 2.7-.6c.9-.4 2.2-1.2 3.9-2.5l10.7-7.6c1.2-.9 2.2-1.5 2.8-1.9c1.5-.9 2.9-1.3 4.2-1.3c2.2 0 4 .7 5.4 2.3c1.5 1.9 2.3 4.6 2.3 8.3v11.4H680.1c-1.4 0-2.5-.4-3.4-1.1c-.8-.7-1.5-1.8-2.1-3.4c-1.3 1.8-2.5 3-3.7 3.6c-1 .6-2.4 .9-4.1 .9h-6.4c-2.3 0-4-1-5-2.9c-1.2-2.1-1.8-5.6-1.8-10.6v-8.5c0-1.9-.2-3.4-.7-4.5c-.3-.5-.9-1.3-1.8-2.2Zm-204.4 0c1.1 1.6 1.9 3.2 2.4 4.7c.5 1.8 .8 4.1 .8 6.9v5.9c0 4.2 .3 7 .8 8.6c.4 1.3 1.1 2 2.1 2h17.8c-.3-1.4-.7-2.5-1.2-3.4c-.3-.6-1-1.5-2.1-2.7l2.4-7.1c1.5 1.7 2.5 3.4 3 5.3c.6 1.8 .8 4.6 .8 8.2v7.8H456c-2.3 0-4-1-5-2.9c-1.2-2.1-1.8-5.6-1.8-10.6v-8.5c0-1.9-.2-3.4-.8-4.5c-.2-.5-.8-1.3-1.8-2.2Zm-135.6 0l1.8 10.6c.6 4 1.1 7.4 1.3 10.4c.2 2.3 .3 4.4 .3 6.5c0 1.8-.2 3.4-.6 4.9c-.4 1.4-1.2 3.4-2.4 5.9l-1.8-.8c.5-2.5 .7-4.6 .7-6.2c0-1.2-.1-3-.3-5.3c-.2-2.3-.4-4.7-.7-7c-.3-2.2-.8-5-1.5-8.2c-.2-1.1-.3-1.8-.3-2.3c0-.6 .3-1.6 .9-3.1c.6-1.5 1.5-3.3 2.6-5.4Zm419.2-.2l1.3 .4c0 1.3 .3 2.1 .9 2.6c.4 .3 2 .9 4.7 1.7c0 1.4-.1 2.8-.4 4.2c-.1 .6-.4 1.7-.8 3.3L737 306c0 2.4-.2 4.7-.8 7c-.6 2.4-1.4 4.7-2.7 6.9c1.1 2 1.7 3.1 1.9 3.5c.5 .9 .7 1.7 .7 2.4v1c0 .5-.1 2.5-.4 6.1c-2.3 1-4.3 1.7-6.1 2c-1.8 .4-4.4 .5-7.9 .5v-8.8c2-1 3.4-1.9 4.3-2.6c.8-.7 2-1.9 3.3-3.7c-2.2-2.8-3.9-4.8-4.9-6c-.8-1-1.9-2.1-3.2-3.3c-.3 .6-.6 1.1-.7 1.3c-.2 .2-.3 .3-.5 .3c-.4 0-1.3-.4-2.6-1.2c-1.2-.8-2.1-1.4-2.8-2c-.6-.6-1.1-1.7-1.4-3.2c-.3-1.6-.5-3.6-.5-6.1c0-1.1 .1-1.8 .2-2.2c.1-.4 .4-.6 .8-.6c.8 0 2.4 1.1 4.7 3.3c2.1 1.9 3.9 3.8 5.5 5.7c1.2 1.4 2.3 2.8 3.4 4.1c.9 1.3 2.3 3.3 4.2 6.3c.9-1.7 1.6-3.8 1.9-6.5c.2-1.6 .3-3.5 .3-5.7c-.7-.3-1.2-.6-1.5-1c-.2-.3-.3-.7-.3-1.3c0-1.2 .1-2.4 .3-3.6c.3-1.3 .7-2.5 1.3-3.9Zm434.3-1.6c1.1 3.4 1.7 7.8 2 13.3c.2 3.9 .4 7.8 .5 11.6c.3 3.3 1.1 5 2.3 5h21.3c-2.4-2.5-4.6-4.3-6.7-5.4c-1.8-1-3.5-1.4-5.3-1.4c-.5 0-1 0-1.4 0c-.4 .1-1 .2-1.9 .4c1.1-2.5 2.4-4.4 3.7-5.6c1.3-1.2 2.9-1.7 4.6-1.7c1.3 0 2.6 .3 3.8 .9c1.2 .6 2.5 1.7 4 3.1c1.2 1.1 2.9 2.8 5.1 5.2c1.5 1.7 2.6 2.7 3.4 3.2c.8 .5 2 1 3.6 1.3v8.1h-34.2c-1.2 0-2.4-1-3.5-3.1c-1.2-2.2-1.8-4.7-1.8-7.5c-1.7 5.2-4.2 8.8-7.3 10.8c-3.1 1.9-7.7 2.8-14 2.8l-3.4-.1v-1.9c1.4-.5 2.8-1 4.2-1.4c1.4-.5 2.5-.9 3.2-1.3c4-2 6.8-3.5 8.2-4.5c2.5-1.6 4.4-3.3 5.5-5.2c1.3-2.1 2-4.7 2-7.8c0-1.8-.1-3.6-.4-5.4c-.3-1.7-.6-3.5-.9-5.2c0-1.3 1.1-4.1 3.4-8.2Zm211.6-.5l1.4 .7c0 .1-.1 .4-.1 .9c0 .7 .4 1.3 1.2 1.9c.8 .6 1.9 1.2 3.5 1.9c-.1 1.2-.4 2.5-.8 3.7c-.3 1.2-.7 2.3-1.1 3.3l-1.1-.5l3.2 18.5v8.1h-27.7c-1.4 0-2.4-.3-3.1-.8c-.8-.7-1.2-1.8-1.2-3.3c0-.9 0-1.9 .1-2.9c.1-1 .2-2 .4-3.1h1.1c.2 .7 .6 1.2 1.1 1.5c.5 .3 1.2 .5 2 .5h10.2c-.4-2.9-1.2-5.3-2.4-7c-.9-1.5-2.2-2.7-3.9-3.8l2.2-9.3c2.6 2 4.4 4.4 5.5 7.5c1 2.8 1.5 6.5 1.5 11.1V323h10.7l-3.6-20.3l-2-1.2c0-1.2 .2-2.4 .6-3.6c.4-1.5 1.2-3.3 2.3-5.3Zm-305.2 0l1.3 .7c0 .1 0 .4-.1 .9c0 .7 .4 1.3 1.3 1.9c.7 .6 1.9 1.2 3.5 1.9c-.2 1.2-.5 2.5-.8 3.7c-.4 1.2-.7 2.3-1.2 3.3l-1.1-.5l3.3 18.5v8.1h-51.5c-2.3 0-4-1-5-2.9c-1.2-2.1-1.8-5.6-1.8-10.6v-8.5c0-1.9-.2-3.4-.7-4.5c-.3-.5-.9-1.3-1.8-2.2l3.2-7.5c1.1 1.6 1.9 3.2 2.4 4.7c.5 1.8 .8 4.1 .8 6.9v5.9c0 4.2 .3 7 .8 8.6c.5 1.3 1.2 2 2.1 2h17.8c-.2-1.4-.6-2.5-1.2-3.4c-.3-.6-1-1.5-2.1-2.7l2.4-7.1c1.5 1.7 2.5 3.4 3 5.3c.5 1.6 .8 3.9 .8 6.9l.1 1h13.5c-.2-1.4-.6-2.5-1.2-3.4c-.3-.6-1-1.5-2.1-2.7l2.4-7.1c1.5 1.7 2.5 3.4 3 5.3c.5 1.6 .8 3.9 .8 6.9l.1 1h10.6l-3.6-20.3l-1.9-1.2c0-1.2 .2-2.4 .5-3.6c.5-1.5 1.3-3.3 2.4-5.3Zm-131.9 0l1.4 .7c0 .1 0 .4-.1 .9c0 .7 .4 1.3 1.3 1.9c.7 .6 1.9 1.2 3.5 1.9c-.2 1.2-.5 2.5-.8 3.7c-.4 1.2-.8 2.3-1.2 3.3l-1.1-.5l3.3 18.5v8.1h-35c-2.3 0-4-1-5-2.9c-1.2-2.1-1.8-5.6-1.8-10.6v-8.5c0-1.9-.2-3.4-.8-4.5c-.2-.5-.8-1.3-1.8-2.2l3.3-7.5c1.1 1.6 1.9 3.2 2.4 4.7c.5 1.8 .8 4.1 .8 6.9v5.9c0 4.2 .3 7 .8 8.6c.4 1.3 1.1 2 2.1 2h17.8c-.3-1.4-.7-2.5-1.2-3.4c-.3-.6-1-1.5-2.1-2.7l2.4-7.1c1.5 1.7 2.5 3.4 3 5.3c.5 1.6 .8 3.9 .8 6.9v1H945l-3.6-20.3l-1.9-1.2c0-1.2 .2-2.4 .5-3.6c.5-1.5 1.2-3.3 2.3-5.3Zm-45.1 0l1.4 .7c0 .1 0 .4-.1 .9c0 .7 .4 1.3 1.3 1.9c.7 .6 1.9 1.2 3.5 1.9c-.2 1.2-.5 2.5-.8 3.7c-.4 1.2-.8 2.3-1.2 3.3l-1.1-.5l3.3 18.5v8.1H868.8c-.7 0-1.4-.2-2-.4c-1.1-.6-2.1-1.7-2.9-3.2c-1.1-2.1-1.8-5-2.1-8.7c-1.3 1.7-2.4 2.9-3.1 3.6c-1.1 1-2 1.5-2.8 1.5c-.4 0-.8 0-1.4-.2l-3.7-.7c-1.5-.3-2.5-.5-2.8-.7c-.4-.1-.5-.4-.5-.7c0-.6 .6-2.2 2-5.1c1.4-2.8 2.4-4.6 3-5.3c.5-.5 1.4-1.2 2.7-2.1c.7-.5 1.8-1.2 3.2-2l1.6-.9c-.1-.3-.1-.6-.2-.8c0-.3 0-.6 0-.9c0-.7 .2-1.7 .5-2.8c.4-1.2 1-2.6 1.9-4.3l2.8 18.7c.5 2.9 1.1 4.8 1.8 5.9c.5 .7 1.2 1 2 1h17.5c-.3-1.4-.7-2.5-1.2-3.4c-.3-.6-1-1.5-2.1-2.7l2.4-7.1c1.5 1.7 2.5 3.4 3 5.3c.5 1.6 .8 3.9 .8 6.9v1h10.7l-3.6-20.3l-1.9-1.2c0-1.2 .2-2.4 .5-3.6c.5-1.5 1.2-3.3 2.3-5.3Zm-596.7 0l1.4 .7c0 .1-.1 .4-.1 .9c0 .7 .4 1.3 1.2 1.9c.7 .6 1.9 1.2 3.5 1.9c-.2 1.2-.4 2.5-.8 3.7c-.3 1.2-.7 2.3-1.2 3.3l-1-.5l3.2 18.5v8.1H290.3V323h12.8l-3.6-20.3l-1.9-1.2c0-1.2 .2-2.4 .6-3.6c.4-1.5 1.2-3.3 2.3-5.3Zm79.6-.4l6.9 3.7l-3.6 6.7l-6.9-3.6Zm888.1 0l5.6 3l-3.1 5.8l-4.4-2.2l-2.6 4.8l-5.4-3l3.3-6.1l4.2 2.4Zm91.1-4l7 3.7l-3.6 6.7l-7-3.6Zm-498.8-1.7l5.3 2.8l-3.3 5.5l-4.2-2.3l-2.4 4.7l-5.5-3.1l3.1-5.2l4.4 2.2Zm-238.9 0l5.3 2.8l-3.2 5.5l-4.3-2.3l-2.4 4.7l-5.5-3.1l3.1-5.2l4.4 2.2Z" class="g1_20"/>
<path fill-rule="evenodd" d="M274.4 333.9l7 3.7l-3.6 6.7l-7-3.7Zm-99.6-9.8c1 0 1.8 .3 2.5 1.1c.7 .7 1.1 1.6 1.1 2.6c0 1-.4 1.9-1.1 2.6c-.7 .7-1.6 1.1-2.6 1.1c-1 0-1.9-.4-2.6-1.1c-.7-.8-1-1.6-1-2.6c0-1 .3-1.9 1.1-2.6c.7-.8 1.6-1.1 2.6-1.1Zm57.9-5.9c-.6 0-1.1 .2-1.5 .7c-.4 .5-.5 1-.5 1.6c0 .7 .3 1.3 1.1 1.8c.8 .5 1.9 .7 3.2 .7h1.1c-.6-3.2-1.7-4.8-3.4-4.8Zm-24.8-6.5c1.3 1.4 2.4 3 3.1 4.8c.8 1.8 1.1 3.9 1.1 6.2v9.1c0 1.2-.7 2.8-2.1 4.8c-1.4 2-3 3.7-4.9 5.2c-2 1.6-3.8 2.4-5.3 2.4c-1.7 0-3.6-.4-5.6-1.4c-1.7-.9-4.5-2.6-8.2-5.2l1.3-1.8c1.8 1.2 3.2 2 4.3 2.4c1.1 .4 2.3 .6 3.5 .6c1.4 0 2.8-.4 4.2-1.1c1.3-.8 3.2-2.3 5.6-4.4c3.3-2.9 4.9-5.2 4.9-6.8c0-.8-.3-1.8-1-3.1c-.7-1.5-1.5-2.7-2.6-3.7Zm26-1.4c1.6 0 3 1 4.1 3.2c1.1 2.2 1.7 4.8 1.7 7.9V329c0 3.5-1.5 6.8-4.4 10.2c-2.9 3.3-5.8 5-8.6 5c-1.6 0-3.4-.5-5.4-1.6c-1.9-1.1-5-3.1-9-6.2l1.3-1.8c2.1 1.5 3.8 2.4 5.2 2.9c1.2 .4 2.4 .6 3.9 .6c1.9 0 3.8-.5 5.7-1.6c2.2-1.3 4.5-3.3 6.9-6.1c-.8 .1-1.5 .1-2.1 .1c-1.9 0-3.5-.6-4.7-1.9c-1.1-1.3-1.7-3-1.7-5.2c0-3 .7-5.9 2-8.6c1.5-3 3.2-4.5 5.1-4.5Zm19.7-7.4c2.5 2 4.4 4.4 5.4 7.5c1 2.8 1.5 6.5 1.5 11.1V323h19.1c-2.4-2.5-4.6-4.3-6.6-5.4c-1.9-1-3.6-1.4-5.4-1.4c-.5 0-.9 0-1.4 0c-.4 .1-1 .2-1.8 .4c1.1-2.5 2.3-4.4 3.6-5.6c1.4-1.2 2.9-1.7 4.6-1.7c1.3 0 2.6 .3 3.8 .9c1.2 .6 2.5 1.7 4.1 3.1c1.1 1.1 2.8 2.8 5 5.2c1.5 1.7 2.7 2.7 3.4 3.2c.8 .5 2 1 3.6 1.3v8.1H247c-1.3 0-2.3-.3-3-.8c-.8-.7-1.3-1.8-1.3-3.3c0-.9 .1-1.9 .2-2.9c.1-1 .2-2 .4-3.1h1.1c.2 .7 .5 1.2 1.1 1.5c.5 .3 1.2 .5 2 .5h10.2c-.5-2.9-1.2-5.3-2.4-7c-.9-1.5-2.2-2.7-3.9-3.8Zm-78.4-6.5c2.4 0 4.4 .7 6.1 2c1.7 1.4 2.5 3.2 2.5 5.4c0 1.2-.3 2.3-1.1 3.2c-.8 1.1-1.8 1.6-3.1 1.6c-1 0-1.8-.3-2.5-1c-.6-.6-.9-1.4-.9-2.3c0-1.3 .5-2.3 1.6-3c1.1-.7 1.6-1.2 1.6-1.7c0-.6-.3-1.2-.9-1.6c-.7-.4-1.5-.6-2.5-.6c-1.3 0-2.4 .3-3.2 1.1c-.8 .7-1.2 1.6-1.2 2.6c0 1 .4 2.2 1.2 3.7c1.3 2.4 2.1 3.8 2.3 4.5c.9 2.1 1.3 4.4 1.3 6.8c0 1.3-.1 2.8-.3 4.4h-1.8c0-.4 0-.7 0-.9l.2-1.5c0-1.1-.8-2.3-2.3-3.6c-2.5-2.3-3.8-3.5-4.1-3.8c-1.4-1.8-2.2-3.8-2.2-6c0-2.7 .9-4.9 2.7-6.7c1.8-1.7 4-2.6 6.6-2.6Zm73.3-8.2l6.9 3.7l-3.5 6.7l-7-3.6Z" class="g0_20"/>
<path d="M274.4 333.9l7 3.7l-3.6 6.7l-7-3.7Zm-99.6-9.8c1 0 1.8 .3 2.5 1.1c.7 .7 1.1 1.6 1.1 2.6c0 1-.4 1.9-1.1 2.6c-.7 .7-1.6 1.1-2.6 1.1c-1 0-1.9-.4-2.6-1.1c-.7-.8-1-1.6-1-2.6c0-1 .3-1.9 1.1-2.6c.7-.8 1.6-1.1 2.6-1.1Zm57.9-5.9c-.6 0-1.1 .2-1.5 .7c-.4 .5-.5 1-.5 1.6c0 .7 .3 1.3 1.1 1.8c.8 .5 1.9 .7 3.2 .7h1.1c-.6-3.2-1.7-4.8-3.4-4.8Zm-24.8-6.5c1.3 1.4 2.4 3 3.1 4.8c.8 1.8 1.1 3.9 1.1 6.2v9.1c0 1.2-.7 2.8-2.1 4.8c-1.4 2-3 3.7-4.9 5.2c-2 1.6-3.8 2.4-5.3 2.4c-1.7 0-3.6-.4-5.6-1.4c-1.7-.9-4.5-2.6-8.2-5.2l1.3-1.8c1.8 1.2 3.2 2 4.3 2.4c1.1 .4 2.3 .6 3.5 .6c1.4 0 2.8-.4 4.2-1.1c1.3-.8 3.2-2.3 5.6-4.4c3.3-2.9 4.9-5.2 4.9-6.8c0-.8-.3-1.8-1-3.1c-.7-1.5-1.5-2.7-2.6-3.7Zm26-1.4c1.6 0 3 1 4.1 3.2c1.1 2.2 1.7 4.8 1.7 7.9V329c0 3.5-1.5 6.8-4.4 10.2c-2.9 3.3-5.8 5-8.6 5c-1.6 0-3.4-.5-5.4-1.6c-1.9-1.1-5-3.1-9-6.2l1.3-1.8c2.1 1.5 3.8 2.4 5.2 2.9c1.2 .4 2.4 .6 3.9 .6c1.9 0 3.8-.5 5.7-1.6c2.2-1.3 4.5-3.3 6.9-6.1c-.8 .1-1.5 .1-2.1 .1c-1.9 0-3.5-.6-4.7-1.9c-1.1-1.3-1.7-3-1.7-5.2c0-3 .7-5.9 2-8.6c1.5-3 3.2-4.5 5.1-4.5Zm19.7-7.4c2.5 2 4.4 4.4 5.4 7.5c1 2.8 1.5 6.5 1.5 11.1V323h19.1c-2.4-2.5-4.6-4.3-6.6-5.4c-1.9-1-3.6-1.4-5.4-1.4c-.5 0-.9 0-1.4 0c-.4 .1-1 .2-1.8 .4c1.1-2.5 2.3-4.4 3.6-5.6c1.4-1.2 2.9-1.7 4.6-1.7c1.3 0 2.6 .3 3.8 .9c1.2 .6 2.5 1.7 4.1 3.1c1.1 1.1 2.8 2.8 5 5.2c1.5 1.7 2.7 2.7 3.4 3.2c.8 .5 2 1 3.6 1.3v8.1H247c-1.3 0-2.3-.3-3-.8c-.8-.7-1.3-1.8-1.3-3.3c0-.9 .1-1.9 .2-2.9c.1-1 .2-2 .4-3.1h1.1c.2 .7 .5 1.2 1.1 1.5c.5 .3 1.2 .5 2 .5h10.2c-.5-2.9-1.2-5.3-2.4-7c-.9-1.5-2.2-2.7-3.9-3.8Zm-78.4-6.5c2.4 0 4.4 .7 6.1 2c1.7 1.4 2.5 3.2 2.5 5.4c0 1.2-.3 2.3-1.1 3.2c-.8 1.1-1.8 1.6-3.1 1.6c-1 0-1.8-.3-2.5-1c-.6-.6-.9-1.4-.9-2.3c0-1.3 .5-2.3 1.6-3c1.1-.7 1.6-1.2 1.6-1.7c0-.6-.3-1.2-.9-1.6c-.7-.4-1.5-.6-2.5-.6c-1.3 0-2.4 .3-3.2 1.1c-.8 .7-1.2 1.6-1.2 2.6c0 1 .4 2.2 1.2 3.7c1.3 2.4 2.1 3.8 2.3 4.5c.9 2.1 1.3 4.4 1.3 6.8c0 1.3-.1 2.8-.3 4.4h-1.8c0-.4 0-.7 0-.9l.2-1.5c0-1.1-.8-2.3-2.3-3.6c-2.5-2.3-3.8-3.5-4.1-3.8c-1.4-1.8-2.2-3.8-2.2-6c0-2.7 .9-4.9 2.7-6.7c1.8-1.7 4-2.6 6.6-2.6Zm73.3-8.2l6.9 3.7l-3.5 6.7l-7-3.6Z" class="g1_20"/>
<image clip-path="url(#c1_20)" preserveAspectRatio="none" x="1344" y="457" width="108" height="72" href="img/2.jpg"/>
<image clip-path="url(#c2_20)" preserveAspectRatio="none" x="1347" y="550" width="102" height="71" href="img/3.jpg"/>
<image clip-path="url(#c3_20)" preserveAspectRatio="none" x="1347" y="642" width="102" height="74" href="img/4.jpg"/>
<image clip-path="url(#c4_20)" preserveAspectRatio="none" x="1353" y="745" width="96" height="80" href="img/5.jpg"/>
<image clip-path="url(#c5_20)" preserveAspectRatio="none" x="29" y="377" width="491" height="387" href="img/6.jpg"/>
<path d="M575.3 392.9l.1 .2c.2 .3 .5 .3 .7 .2c.3-.1 .4-.4 .3-.6v-.4c-.1-.3-.4-.5-.7-.7c-.3-.1-.6-.1-.9 .1l-.2 .1l-1.3 .8l-3.3 2.1h.1l-1.9 1l-.2 .2l-2 2l.2-.2l-2.5 1.6l-2.9 1.7v-.1l-3.7 2l.2-.1l-4 1.3l-.1 .1L549 406l-4.6 2v-.1l-4.8 1.9h.1l-5.1 1.7l-.1 .1l-5.5 2.2l-.1 .1l-5.5 2.4h-.1l-6.3 3.1l-6.5 3.1l-7 3.4v-.1l-7 3.2h.1l-7.2 2.8l-7.5 2.9l-7.2 2.8l-.1 .1l-6.9 3.2l-6.5 3.3l-6.2 3.1l.1-.1l-6 2.5h.1l-5.6 1.9l.1-.1l-4.8 1.2l-4.9 1h.1l-3.7 .5h.1l-3.4 .5l-2.6 .3h.1L423 455h.3l-1.3-.2l.4 .1l-.9-.4l.5 .4l-.8-.9l.2 .2l-.8-1l.2 .4l-.4-1.6v.1l-.4-1.8v.5l.1-1.7v.1l.3-1.7v.1l.3-1.7v-.2l.1-2v.1l.2-1.8l.1-.1l.1-1.9l-.1 .4l.5-1.3l-.1 .2l.4-.8l.2-.4l.1-.6l-.2 .5l.2-.3c.2-.3 .3-.6 .3-.9v-.2c.1-.7-.4-1.3-1-1.6c-.6-.2-1.4 0-1.8 .5c-.4 .6-.5 1.3-.1 1.9c.5 .8 1.4 1 2.1 .6c.8-.4 1.1-1.3 .7-2.1c-.2-.5-.6-.8-1-.9l-.1-.1l.3 .1h-.2l-.1-.1H421l-.3-.1h-.2c-.7 .1-1.2 .5-1.5 1.2c-.2 .6 0 1.4 .5 1.8l.2 .2l-.5-.8l.1 .5l.1 .2l.5 1.7c.1 .3 .2 .5 .4 .6l.2 .3l-.4-1v.5l.1 .2l.1 .5l-.1-.2l.1 .8v-.2v1v-.2l-.1 .8v.1l-.1 1.4V444l-.3 1.2v.3l-.1 1.4v-.1l-.1 1.6v4.4l.1 1.3l.1 .2l.2 1.3v.1l.4 1.4l.1 .3l.6 1.2v.1l.7 1.2l.1 .2l.9 1.2l.2 .2l1.1 1.2l.4 .2l1.3 .8h-.1l1.6 1.1l.5 .2l1.8 .5h.2l1.6 .3l-.3-.1l1.9 .7l.1 .1l1.7 .5v-.1l.9 .3l-.5-.2l1.4 .9l-.2-.2l.5 .6v-.1l.4 .5l.2 .2l.7 .5v-.1l.2 .3l.3 .2l.2 .1l-.4-.4l.2 .3l-.2-.4v.2c.3 .5 .8 .9 1.5 .9c.6 0 1.2-.3 1.4-.9c.3-.6 .2-1.2-.1-1.7h-.1c-.2-.3-.5-.6-.9-.6h-.2l.9 .6l-.8-1.3l.1 .3l-1.3-3.2l-.2-.2l-2-2.7c-.3-.4-.8-.4-1.2-.2c-.4 .3-.5 .8-.2 1.2l1.9 2.8l-.1-.3l.8 3.4l.3 1.4c.1 .3 .2 .6 .5 .8l.1 .1l-.2-2.1c-.4 .6-.4 1.4 0 2c.5 .6 1.3 .8 2 .5c.6-.4 1-1.1 .9-1.8l-.1-.2c0-.2-.1-.5-.3-.7l-.2-.2l-.4-.4l-.2-.1l.2 .1l-.3-.2l-.1-.1l-.7-.5l.2 .2l-.4-.5h-.1l-.5-.6l-.3-.2l-1.4-.9l-.4-.2l-.9-.3l-1.7-.5l.1 .1l-1.9-.7l-.3-.1l-1.6-.2h.1l-1.7-.5l.5 .3l-1.7-1.2h-.1l-1.3-.8l.3 .2l-1.2-1.1l.1 .1l-.9-1.2l.1 .2l-.6-1.2v.1l-.6-1.2l.1 .2l-.4-1.4l.1 .1l-.3-1.3v.1l-.1-1.3v.2v-4.2v.1l.1-1.5l.1-1.5v.3l.2-1.2l.1-.2l.1-1.5v.1l.1-.9v-1.3l-.1-.8l-.1-.2l-.1-.5v.3v-.5c0-.3-.2-.6-.5-.9l-.2-.2l.4 .6l-.6-1.8l.1 .1l-.2-.5l-.2 1.1l.2-.2l-1.6 .8h.6l.2-.1h.1l.1-.1h.1l-.3 .1h.1l-1.1-.1v.1c.8 .3 1.7 0 2.1-.8c.4-.7 .2-1.6-.6-2.1c-.5-.3-1.2-.3-1.7 0c-.5 .2-.8 .8-.8 1.4v.2l.3-1l-.2 .3l-.2 .6l-.2 .6l.2-.4l-.5 .8l-.1 .3l-.5 1.4l-.1 .4l-.1 1.9v-.2l-.3 1.9v.1l-.1 2v-.2l-.3 1.7l-.3 1.7v.1l-.1 1.7v.5l.4 1.9l.1 .1l.4 1.5l.2 .5l.8 1.1l.1 .1l.8 .9c.1 .2 .3 .3 .5 .4l.9 .5l.5 .1l1.3 .2l.3 .1l1.7-.1h.1l2.6-.3l3.4-.5l3.7-.6h.1l4.9-1h.1l4.8-1.3h.1l5.7-1.9h.1l5.9-2.6h.1l6.2-3.1l6.5-3.3l6.9-3.3l-.1 .1l7.1-2.9l7.5-2.9l7.2-2.9l7-3.3h.1l6.9-3.3l6.5-3.2l6.4-3.1h-.1l5.6-2.5H530l5.5-2.3v.1l5.1-1.8v-.1l4.8-1.8h.1l4.6-2.1l4.2-1.8h-.1l3.9-1.4h.2l3.7-2l3-1.7v-.1l2.6-1.6l.2-.2l1.9-2l-.3 .2l1.8-1.1h.1l3.2-2.2l1.3-.8l.2-.2l.1-.1l.3-.5l-.4 .5l.2-.2c.2-.1 .3-.3 .2-.6c0-.2-.2-.4-.5-.4h-.2c-.2 0-.3 .1-.4 .2c-.1 .2-.1 .4 0 .5Z" class="g0_20"/>
<path d="M425 434.5l.3 .3l-.3-.7v-.2v.7l-.1 1l.1-.2l-.4 1.2l.1-.2l-.5 1.2v.1l-.6 1.4l.4-.5l-.6 .5l-.3 .4l-.6 .9l.1-.2l-.4 .4c-.5 .6-.4 1.5 .1 2.1c.6 .5 1.5 .5 2.1 0c.6-.5 .6-1.4 .1-2.1l-.2-.2c-.4-.5-1-.7-1.6-.5c-.5 .1-1 .5-1.1 1.1l-.1 .5v.4v-.4v.3l-.2 1l.4-.8l-.3 .3v.1l-.7 .8l-.1 .4l-.6 1.5l.1-.2l-.7 1.1l-.1 .1l-.9 1.7l.1-.2l-1 1.6v-.1l-1.1 1.5h.1l-1 1.3l.2-.2l-1.5 1.2c-.3 .2-.4 .5-.5 .9l-.3 1.6v-.3l-.5 1.4l.2-.4l-.7 1.1c-.3 .4-.4 1-.2 1.4l.7 1.6l-.1-.1l.3 1l.1 .3l.5 .9l.3 .4l1.7 1.6l.1 .1l1.3 1.1h.1l1.3 .9h-.1l1.9 1.4l.2 .2l1.7 1h.2l1.8 .7h-.1l2.3 1.1l.3 .1l2.5 .6l2.5 .7h-.1l2.5 .8h.1l1.7 .6h.1l1.4 .4l.3 .1l1.3 .1h1.3l1.1-.1c.2 0 .5 0 .7-.2l1-.5l.3-.3l.6-.7l.3-.3l.6-1.3c.4-.6 .2-1.5-.5-1.9c-.6-.4-1.5-.1-1.9 .5l-.8 1.2l.5-.4l-.8 .5l.1-.1l-.9 .5l.7-.2h-1.2h.1h-1h.1l-1.3-.2l.4 .1l-1.5-.4l-1.7-.6l-2.6-.8h-.1l-2.5-.7l-2.5-.6l.3 .1l-2.4-1.1h-.1l-1.8-.7l.2 .1l-1.7-.9l.2 .1l-1.9-1.4l-1.4-.9h.1l-1.3-1l.1 .1l-1.7-1.6l.3 .4l-.5-1l.1 .3l-.3-1v-.1l-.7-1.6l-.1 1.4l.7-1l.2-.3l.5-1.4l.1-.3l.3-1.5l-.6 .8l1.6-1.2l.2-.3l1-1.3l1.1-1.5l1-1.6l.1-.1l.9-1.7v.1l.7-1.2l.1-.2l.6-1.5l-.2 .3l.6-.8l-.1 .1l.3-.3c.2-.2 .3-.5 .3-.8l.2-.9l-.1 .3v-.1l.2-.6v-.1l-.1 .2l.1-.4c.1-.8-.3-1.5-1-1.7c-.7-.2-1.5 .1-1.8 .7c-.4 .6-.2 1.4 .3 1.9l.3 .3c.3 .2 .8 .3 1.2 .3c.4-.1 .8-.3 1-.7l.3-.5l.1-.2l.5-.9l-.2 .2l.5-.6l.3-.5l.4-1.5l.3-1.3V437l.3-1.2v-1.1v.1l.1-.5v-.2c0-.3-.1-.7-.4-.9c-.2-.2-.6-.3-.9-.2l-.5 .1c-.2 0-.5 .3-.6 .5c-.1 .3 0 .6 .2 .9Z" class="g0_20"/>
<path d="M807 366.5l1.8-.6c.2-.1 .3-.2 .3-.4c.1-.2 0-.4-.2-.5c-.2-.1-.4-.1-.5 0l-.6 .5l-.2 .1l-.3 .5v.2l-.2 .7l.1-.3l-.4 .5c-.1 .2-.1 .5 0 .7l.4 .5l.4 .5l-.1-.2l.1 .3c0 .6 .6 1.1 1.3 1.1c.6 0 1.2-.5 1.2-1.2v-.4l-.1-.4l-.1-.1l.2 .7v-.9v.2l.6-3v-.1l.3-2.3l.2-2.2v.2l.5-1.9v.1l.5-1.6l-.1 .3l.7-1.1l-.2 .2l.8-.6l.3-.5l.4-.8l-.5 .5l.5-.3l-.2 .1l.5-.2l-.4 .1h.3l-.7-.2l.5 .3l-.4-.4l.4 .7l.1 .1l.5 .6l-.2-.3l.7 1.2v.1l.7 1.1l.1 .1l.8 1.1l-.1-.2l.7 1.2l.1 .2l.9 .9h.1l1 1.1h-.1l1 1.1v-.1l.9 1.3l.6 .8l-.1-.1l.5 .7l.3 .6l.2 .3l.5 .5l-.1-.1l.6 .8l-.1-1.3l-.4 .6l.1-.1l-.5 .7l-.7 .8l.4-.3l-1.4 .8l-.1 .1l-1.1 .8l.2-.1l-1.5 .9l.2-.1l-2 .7h.1l-2 .6l.2-.1l-2.3 .4h.2l-2.3 .2h.1h-2h.3l-2.1-.5l-1.8-.5l.4 .2l-1.2-.8l-1.5-1.1l.3 .3l-.9-1.2l.1 .2l-.7-1.5l.1 .2l-.6-1.8l.1 .3l-.2-1.8v.1v-2.3l-.1-2.1v.2l.2-2v-.1l.1-1.9v.2l.1-1.1V354l.1-.3c0-.7-.6-1.4-1.3-1.5c-.7-.1-1.4 .4-1.6 1.1c-.1 .7 .3 1.5 1 1.7l.1 .1c.5 .1 1 0 1.4-.3c.4-.4 .6-.9 .5-1.4c-.2-.6-.6-1-1.1-1.1h-.1l-.6-.1l-.1 .1c-.3 0-.5 .1-.7 .3H799l.2-.1v.1c-.4 .2-.6 .5-.6 .9l-.1 1.2l-.5 4.4V359l-.6 3.8v-.1l-.7 3.9l-.8 4.5l-1.1 4.6l-1.3 5.1l-1.5 5.1l.1-.3l-2.2 4.4l-2.1 4v-.1l-1.8 3l.5-.4l-1.5 .8l-.7 .4l-.2 .1l-.7 .5l.7-.2l-2.4 .2l.6 .1l-2.4-1.1l.4 .4l-2.1-3.2c-.2-.5-.8-.6-1.3-.3c-.4 .3-.6 .9-.3 1.3l2 3.3l.4 .3l2.2 1.3l.6 .2h2.4c.2 0 .4 0 .6-.1l.7-.4h-.1l.8-.3l.1-.1l1.6-.9c.2-.1 .3-.2 .4-.4l1.9-3.1l2.1-4v-.1l2.2-4.3l.1-.3l1.5-5.1l1.3-5.1l1.1-4.7v-.1l.9-4.5l.7-3.9l.5-3.8l.6-4.4l.1-1.2c.1-.6-.3-1.3-1-1.4c-.6-.2-1.3 .1-1.6 .6c-.3 .6-.1 1.4 .5 1.8l-.2-.1h.1c.2 .2 .4 .3 .7 .3l.1 .1l-.3-.1h.1c.5 .2 1.1 .1 1.5-.2c.4-.3 .6-.9 .5-1.4c-.1-.5-.5-.9-1-1.1h-.1c-.5-.2-1-.1-1.3 .2c-.4 .3-.6 .7-.6 1.2v1.9v-.2l-.1 1.2l-.1 .1v1.9v-.1l-.2 2v2.3l.1 2.3v.1l.1 1.8l.1 .3l.5 1.8l.1 .2l.8 1.5l.1 .2l.9 1.2l.3 .3l1.5 1.1h.1l1.3 .9l.4 .1l1.8 .5l2.2 .5l.3 .1h2l.1-.1l2.3-.1l.2-.1l2.2-.4h.1l1.9-.6h.2l2-.8l.1-.1l1.5-.9l.1-.1l1.1-.8l-.2 .1l1.4-.7l.4-.4l.7-.9l.6-.8l.1-.2l.3-.7c.3-.4 .2-.9-.1-1.3l-.5-.8l-.1-.2l-.6-.5l.2 .2l-.4-.7l-.4-.7l-.1-.1l-.6-.8v.1l-.9-1.3l-.1-.1l-1-1.1v-.1l-1.1-1.1l-.9-.9l.2 .2l-.7-1.1l-.1-.1l-.8-1l.1 .1l-.7-1.1h.1l-.7-1.2l-.2-.2l-.5-.6l.1 .1l-.4-.6l-.4-.3l-.4-.4c-.2-.1-.5-.2-.7-.2H814l-.5 .1l-.5 .1l-.2 .1l-.5 .3c-.3 .1-.5 .3-.6 .6l-.5 .8l.3-.4l-.7 .6l-.3 .3l-.7 1.1l-.2 .3l-.6 1.7v.1l-.5 1.9l-.1 .2l-.2 2.1l-.3 2.4v-.1l-.6 3v1.2c0 .5 .3 1 .7 1.2h.1l.4 .2h.5c.6-.1 1-.5 1.1-1.1c.1-.6-.2-1.1-.7-1.4c-.6-.2-1.2-.1-1.6 .4l-.2 .2c-.2 .3-.1 .6 .1 .8c.2 .2 .5 .2 .7 0c.3-.2 .3-.5 .1-.8l-.4-.5l-.5-.5v.7l.4-.5l.1-.2l.2-.7l-.1 .2l.3-.5l-.1 .1l.6-.5c.2-.1 .2-.4 .1-.6c-.1-.2-.4-.3-.6-.2l-1.8 .7c-.2 .1-.3 .4-.3 .6c.1 .2 .4 .3 .6 .2Z" class="g0_20"/>
<path d="M778 369.6l2-1.8l-1.6 .2l1 .5h-.1l1.2 .7h-.1l1.6 1.2l2.2 1.6h-.1l1.6 1.3l1.9 1.5v.1l1.7 1.1v-.1l1.2 .9l.7 .4c.2 .2 .4 .2 .7 .2h.3l-.9-.3l.1 .1c.5 .4 1.2 .4 1.6 .1c.5-.4 .6-1.1 .4-1.6l-.1-.2l-.1-.1c-.2-.5-.7-.8-1.3-.6c-.5 .1-.8 .6-.8 1.1v.2l.1-.6l-.1 .2c-.2 .5-.1 1.1 .3 1.5c.4 .4 1 .4 1.5 .1c.5-.3 .7-.9 .6-1.4l-.1-.2c-.2-.5-.7-.9-1.2-.9h-.3l.7 .2l-.6-.4l-1.2-.8h-.1l-1.7-1.1l.1 .1l-1.8-1.4l-1.6-1.3l-2.2-1.7h.1l-1.6-1.2l-.1-.1l-1.1-.8l-.1-.1l-1-.5c-.6-.4-1.3-.2-1.7 .3l-1.6 2.2c-.4 .5-.3 1.1 .2 1.5c.4 .3 1 .3 1.4-.1Z" class="g0_20"/>
<path d="M793.9 339.3l.3 .6l-.1-.2l.3 .9c.1 .3 .4 .5 .7 .6l.4 .1l-.5-.3l.3 .4c.4 .3 1 .3 1.4 0c.3-.4 .3-1 0-1.3c-.3-.4-.9-.4-1.3-.1l-.1 .1c-.3 .2-.4 .7-.2 1c.1 .4 .5 .7 .9 .7c.4-.1 .7-.3 .9-.7l.1-.2c.2-.5-.1-1.1-.6-1.3c-.5-.2-1.1 0-1.3 .5l-.1 .2c-.1 .3-.1 .6 .1 .9v.2c.3 .4 .8 .6 1.3 .5h.2c.3-.1 .6-.4 .8-.7c.2-.4 .2-.9-.1-1.3l.2 1v-.1c0-.2 0-.5 0-.7l-.1-.1l-.2 1.3c.3-.4 .4-1 .2-1.4c-.2-.5-.6-.8-1.1-.8l-1.4-.1l.3 .1l-4.1-1.8c-.4-.2-.9 0-1.1 .4c-.2 .5 0 1 .4 1.2l4 1.9l-.1-.1l1.1 .8l-.2-.2l-.1-.1l-.1-.4v.1c.1 .3 .2 .6 .5 .7l.1 .1l-.5-.5v-.8l-.1 .1l1.3-.9h-.1l.8 .7v-.2c-.2-.4-.7-.7-1.2-.6c-.5 .1-.8 .6-.8 1.1v.2c0 .5 .4 .9 .9 1c.6 0 1-.4 1-.9l.1-.1c0-.3-.1-.6-.3-.8l-.4-.3l-.4-.2l-.4-.2l.7 .6l-.4-.8l-.3-.4l-.5-.4c-.3-.2-.7-.1-1 .1c-.2 .2-.3 .6-.1 .9Z" class="g0_20"/>
<path d="M752.5 384.4l.3 .2l-.1-.1l.5 .8v.1l.5 .7V386l.6 1h-.1l.4 1v-.2l.1 .9v-.1l-.1 .9l.1-.2l-.3 .8l.1-.3l-.6 .8l.2-.2l-.8 .6l-1 .6h.1l-1.2 .5l-1.2 .6l.3-.1l-1.5 .3h.1l-1.2 .2h.2h-1.2l-1.2-.1l.2 .1l-1.5-.4h.2l-1.6-.6h.1l-1.7-.9l-1.9-1.1l.2 .2l-1.4-1.3v.1l-1.5-1.5l.1 .2l-1.4-1.9l-1.3-1.6l.1 .1l-1.2-2.1l-1.3-2.3l.1 .1l-1.3-2.6v.1l-1.2-2.8l-.1-.1l-1.3-2.5v.1l-.9-2.1l-.2-.3l-1.3-1.6l-1.2-1.3l-.1-.1l-1.2-1l-.1-.1l-1.2-.9l-.2-.1l-.4-.2c-.2-.1-.5-.1-.7-.1l-.6 .1c-.3 .1-.5 .2-.7 .4l-.5 .6l-.2 .4l-.2 .9l-.1 .2l.1 1c0 .4 .3 .8 .7 .8c.4 0 .8-.3 .8-.7l.1-1l-.1 .4l.5-.8l-.3 .3l.6-.3l-.6 .1l.7 .1l-.7-.3l.4 .3l-.1-.1l1.2 1v-.1l1.1 1l-.1-.1l1.1 1.3l1.3 1.6l-.1-.3l.9 2v.1l1.4 2.5v-.1l1.2 2.8v.1l1.3 2.5l.1 .1l1.3 2.2l1.2 2.1l.1 .2l1.3 1.6l1.4 1.9l.1 .1l1.6 1.4v.1l1.4 1.2l.2 .1l1.9 1.1v.1l1.8 .9l.1 .1l1.6 .6h.1l1.5 .4h.3l1.3 .1H748l1.3-.2h.1l1.4-.4l.3-.1l1.1-.6l1.2-.5l.1-.1l1.1-.7l.1-.1l.8-.7l.2-.4l.5-.8l.1-.3l.1-.9v-.3l-.1-.9l-.1-.1l-.3-.9v-.1l-.5-.9v-.1l-.7-1l-.6-.7l-.6-.8l-.3-.1l-.3-.1c-.2-.1-.4 0-.5 .2c-.1 .2 0 .4 .1 .5Z" class="g0_20"/>
<path d="M747.3 401.4l.7 3.5v-.1l.2 2.6l.5 2.9l-.1-.2l.1 2.1v-.3l-.4 1.5v.2l-.1 1.5l.8-1.1l-1.1 .4l.4-.1h-1.2l.3 .1l-1.5-.4l.3 .1l-1.8-1l.1 .1l-2.2-1.6l-2.4-1.7l.2 .4l-2.1-3.2c-.4-.5-1-.6-1.5-.3c-.6 .4-.7 1-.4 1.5l2.1 3.2l.3 .3l2.3 1.9l2.1 1.6l.2 .1l1.9 1l.3 .2l1.5 .3h.4l1.2-.1l.4-.1l1.1-.4c.4-.2 .7-.6 .7-1.1l.1-1.5v.3l.4-1.5V410l-.1-.1l-.5-2.8V407l-.5-2.5l-.1-.1l-1.1-3.4c-.1-.3-.5-.6-.9-.4c-.4 .1-.6 .4-.6 .8Z" class="g0_20"/>
<path d="M697.4 375.7l.4 .4l-.1-.2l.3 .5v.1l.7 .9l.2 .1l1.1 1.1l-.3-.4l.2 .5l-.1-.2l.1 .6l.1 .4l.5 .9l-.1-.5l-.1 1.1l.1 .5l.7 1.7l.1 .1l1 2.1l1.2 2.1l.1 .1l1.6 2v.1l1.8 2.1l1.6 1.8l-.1-.1l1.1 1.6V395l.7 1.3h.1l.4 .7l.3 .5c.3 .4 .8 .6 1.3 .5c.5-.1 .8-.5 .9-.9c.1-.5-.1-1-.5-1.3l.5 .7l-.1-.4v.2l.1-1c0-.6-.4-1.1-1-1.1c-.5 0-1 .4-1.1 .9l-.1 1.1v-.1l-.1 .4l.5-.7c-.6 .4-.7 1.1-.4 1.7c.3 .5 1.1 .7 1.6 .4c.6-.3 .8-1 .5-1.6l-.2-.5l-.4-.8l-.8-1.4l-1.1-1.6l-.1-.1l-1.6-1.8l-1.7-2.1l-1.6-2l.1 .1l-1.2-2v.1l-1.1-2l.1 .1l-.7-1.7l.1 .4l-.1-1.1l-.2-.6l-.5-1l.1 .3l-.2-.6v-.2l-.3-.5l-.2-.3l-1.2-1l.1 .1l-.7-.9l.2 .2l-.2-.5l-.1-.1l-.3-.5c-.2-.5-.6-.7-1.1-.7c-.5 0-.9 .4-1 .8c-.2 .4-.1 .9 .2 1.3Z" class="g0_20"/>
<path d="M710 382.4h-.1c-.2 .3-.3 .6-.3 1h.1l.8-1.3l1.5 .6l-.1-.1v-.1c-.2-.2-.4-.4-.7-.5v-.1h-.4c-.6-.1-1.1 .2-1.4 .7l-.5 1l.2-.3l-2.8 3l-2.1 2.1v-.1l-2.7 2.5l-.1 .1l-2.5 3.1l-3 3.2l-3.1 3.4l.1-.1l-3.5 3.3l-3.2 3l.1-.2l-3.5 2.5l-3.1 2l-2.4 1.5l.2-.1l-2.5 1.3v-.1l-1.2 .6l.2-.1l-1.3 .3h.5l-1.1-.2l.4 .1l-1.3-.7l.5 .6l-.7-2c-.3-.6-.9-.9-1.5-.7c-.6 .3-.9 .9-.7 1.5l.7 2c.1 .3 .2 .4 .4 .6l1.1 .9l.4 .2l1.1 .4c.3 .1 .5 .1 .8 0l1.3-.3h.3l1.2-.6h.1l2.5-1.3l.1-.1l2.4-1.4l3.1-2.1h.1l3.5-2.5l.1-.1l3.3-3l3.5-3.2v-.1l3.2-3.4h-.1l3-3.3h.1l2.5-3.1l-.1 .1l2.6-2.5h.1l2.1-2.1v-.1l2.9-2.9l.2-.4l.5-1l-1 .7h.1l.3-.1l-1.2-.1h.1l.1 .1h.1h-.1h.1l.2 .1c.4 .1 .8 .1 1.1-.1c.3-.2 .5-.6 .6-1c0-.4-.1-.7-.3-1c-.3-.3-.6-.5-1-.5c-.4 0-.7 .2-.9 .5Z" class="g0_20"/>
<path d="M667.9 372l-2.8-1.1c-.6-.3-1.2-.1-1.6 .3l-.9 1l-.1 .1l-1.1 1.5l.2-.2l-2.1 2l-.1 .2l-1.8 2.4l-2.1 2.6l.1-.1l-2.2 2.2l-1.7 1.9l.2-.2l-1.8 1.4h.1l-1.2 .8l-.2 .2l-.9 .9l-.2 .3l-.4 .8l-.2 .5l-.1 .9v.4l.1 1l.2 .4l.6 1.1l.2 .2l.9 1.2l.2 .1l1.4 1.3l2.1 1.7l-.1-.1l1.9 1.8l2.4 2.7v-.1l2.4 3l-.1-.2l1.5 2.9v-.1l1.2 2.7l1 2.2l-.1-.1l.5 1.8v-.1l.4 1.6v.2l.6 1.8l-.1-.6l-.2 1.3l.1-.2l-.3 1v.2l-.1 .7l1.4-1.1h-.3c-.3-.1-.6 0-.9 .2l-.2 .1h1.5l-.8-.5l.2 .2l-1.1-1.1l-.2-.2l-1.8-1.2l.1 .2l-2.2-2.1l-.1-.1l-2.3-1.8l-2.2-1.8l-2.3-2l.1 .1l-2.3-2.2h.1l-2.4-2.6v.1l-2-2.4l.1 .1l-1.5-2.1l-.9-1.4l-.6-.8l-.3-.3l-.6-.5c-.5-.4-1.1-.4-1.6-.1c-.5 .3-.8 .9-.6 1.5c.1 .6 .6 1 1.2 1.1h.1c.6 0 1.2-.3 1.4-.9c.2-.6 0-1.3-.5-1.7l-.7-.4l-.4-.2l-.6-.1l1.1 1.2v-.1c-.1-.5-.4-.9-.8-1.1l-.6-.3l-.3-.1h-.1c-.6-.2-1.3 .1-1.5 .7c-.3 .5-.1 1.2 .3 1.6l.3 .3l-.3-.4l.4 .7l-.1-.2l.4 1.1v.1l.7 1.6l.8 1.7l1.1 2.2l.9 1.8l.1 .1l1.7 2.7h-.1l1.5 2.6l-.1-.1l1.2 2.9l1.3 3.5l-.1-.3l.3 3.1h-.1l.1 3.3v-.2l-.2 2.6v-.1l-.5 2.3l.1-.1l-.5 1.7v-.2l-.6 1.4l-.6 1.2l.2-.3l-.7 .9l-.3 .4l-.4 1.2l.3-.4l-.8 .9l-.2 .2l-.5 1.1l-.2 .5l-.1 1.6l.3-.8l-1.1 1.2c-.2 .3-.3 .5-.4 .8l-.2 2.1v-.2l-.5 1.9l.3-.5l-1.1 1.3c-.3 .3-.4 .7-.4 1l.2 1.8l.1-.8l-.5 1l.1-.1l-.6 .8l-.1 .2l-.4 .9l.9-.7l-1.6 .5h-.1l-1.5 .5l.2-.1l-1.7 .3h.2h-1.9h.3l-1.8-.4c-.5-.1-1 .2-1.2 .7c-.1 .6 .2 1.1 .7 1.2l1.8 .5h.1l1.8 .3h.2l1.8-.1h.2l1.6-.4l1.6-.4c.4-.1 .7-.3 .9-.7l.4-.9l-.1 .2l.6-.8l.1-.2l.5-1c.1-.2 .2-.5 .2-.7l-.2-1.8l-.3 1l1.1-1.3l.3-.5l.5-1.9l.1-.2l.2-2.2l-.3 .8l1.1-1.2c.2-.3 .3-.6 .4-.9l.1-1.5l-.2 .5l.6-1l-.2 .2l.8-.9l.3-.4l.4-1.2l-.2 .3l.7-.9l.1-.2l.6-1.3l.6-1.4l.1-.2l.4-1.7l.1-.1l.4-2.3v-.1l.2-2.7l.1-.1l-.1-3.3v-.1l-.3-3.1l-.1-.4l-1.3-3.5v-.1l-1.2-2.9v-.1l-1.5-2.7l-1.7-2.8v.1l-.8-1.7l-1.1-2.3l-.8-1.6l-.7-1.6v.2l-.3-1.1l-.1-.2l-.4-.8l-.1-.2l-.3-.3c-.3-.4-.8-.6-1.3-.4c-.5 .1-.9 .5-1 .9c-.1 .6 0 1.1 .4 1.4l.1 .1l.2 .2l.6 .3l-.7-1.4v.1c-.1 .7 .4 1.3 1.1 1.5l.5 .1l-.4-.2l.6 .5c.6 .3 1.2 .3 1.7-.1c.5-.4 .6-1.1 .4-1.7c-.2-.5-.8-.9-1.4-.8h-.1c-.6 0-1.1 .4-1.2 1c-.2 .5 0 1.1 .5 1.5l.6 .5l-.3-.3l.6 .8l.9 1.3v.1l1.5 2.1l.1 .1l2 2.4l2.5 2.6v.1l2.3 2.2l2.3 2l2.2 1.9h.1l2.3 1.8l-.1-.1l2.2 2.1l.2 .1l1.8 1.3l-.1-.2l1.1 1.1l.3 .2l.8 .4c.5 .3 1.1 .3 1.6-.2l.2-.2l-.8 .4h.3c.6 0 1.1-.6 1.2-1.2v-.7v.2l.3-1v-.2l.2-1.2l-.1-.6l-.6-1.8v.1l-.3-1.6l-.1-.1l-.5-1.8l-.1-.2l-1-2.2l-1.2-2.7v-.1l-1.5-2.9l-.2-.2l-2.4-2.9l-.1-.1l-2.4-2.7h-.1l-1.9-1.9l-2.1-1.7h.1l-1.4-1.3l.2 .2l-1-1.3l.1 .2l-.5-1.1l.1 .5l-.1-.9v.3l.2-.9l-.2 .5l.4-.8l-.1 .3l.9-1l-.2 .2l1.1-.8l.1-.1l1.7-1.5l.2-.1l1.6-1.9l2.1-2.2l.1-.1l2-2.7h-.1l2-2.3l-.2 .1l2.2-1.9l.1-.2l1.1-1.4l-.1 .1l1-.9l-1.3 .4l3 .6c.5 .1 1.1-.3 1.3-.8c.1-.6-.2-1.2-.7-1.4Z" class="g0_20"/>
<path d="M623.5 418l.4 1.4v-.7l-.2 .6l-.1 .2l-.1 .9v.1l-.2 1v.2l.2 1.7v-.1v1.3l.2-.6l-.3 .3c-.1 .2-.1 .5-.1 .7v.8c0 .4 .2 .8 .5 1c.4 .2 .8 .2 1.1 .1h.3l-1.5-.6l.4 .6c.1 .3 .4 .5 .7 .5l.2 .1c.5 .2 1 0 1.4-.4c.3-.5 .4-1 .1-1.5l-.2-.3c-.3-.5-.9-.8-1.5-.7c-.5 .2-1 .7-1 1.3v.3l.1-.1l-.1 .4l.1-.4l-.3 .7l-.1 .5v1.8l.1-.4l-.6 1.5l.3-.4l-1.3 1.7l-.2 .1l-1.1 2l.2-.3l-2.3 2.3L616 438l-3.3 3h.1l-3.9 3.2l.1-.1l-4.3 2.9l-4.6 3l.1-.1l-5 2.6l-4.8 2.4l-.1 .1l-4.4 2.6l-4.1 2.2v.1l-3 1.8l-.1 .1l-2.5 1.8h.1l-1.3 .9h-.1l-.7 .6l.8-.3h-.5l1 .3l-.4-.3l.6 1.5l.1-.8l-.1 .3l.5-1l-.3 .3l2.1-2V463l2.2-2.5c.4-.4 .3-1.1-.1-1.4c-.4-.4-1.1-.4-1.5 0l-2.2 2.5l.1-.2l-2.3 1.9l-.2 .2l-.7 1l-.1 .2l-.3 .8c-.2 .5-.1 1.1 .2 1.5l.4 .4c.2 .3 .6 .4 1 .5h.5c.3 0 .7-.1 1-.3l.8-.6l-.1 .1l1.4-.9v-.1l2.4-1.8l-.1 .1l3-1.9l4-2.3l4.4-2.6l4.7-2.4h.1l4.9-2.7h.1l4.7-3.1l4.3-3l.1-.1l3.9-3.2l3.3-3.1l2.6-2.4v-.1l2.3-2.3l.2-.3l1.2-2l-.1 .2l1.3-1.6l.2-.4l.5-1.6v-2.2l-.1 .6l.3-.7l.2-.4v-.9c0-.5-.4-1-.9-1.2c-.5-.2-1.1-.1-1.4 .4c-.4 .4-.5 1-.2 1.5l.2 .3c.3 .5 .9 .8 1.5 .6c.6-.2 1-.7 1-1.3c-.1-.6-.5-1.2-1.1-1.3h-.2l.8 .5l-.4-.5c-.3-.6-1-.7-1.6-.4l-.2 .1c-.6 .3-.9 1-.6 1.7c.3 .6 1.1 .9 1.7 .6c.6-.3 .9-1 .6-1.7V425l.1 .4l-.1-.6l-.1 .6l.1-.3l.1-.5v-1.4l-.2-1.7v.3l.1-1l.2-.9v-.8l-.1-.5l-.8-1.2c-.2-.4-.6-.5-1-.4c-.4 .2-.6 .6-.5 1Z" class="g0_20"/>
<path d="M603.2 410l.5 .2l.3 .1h.3l-.6-.2l1 .6l-.2-.1l.8 .6l1 .8l.6 .5l.3 .2l.2 .1l-.2-.2v.1c.3 .2 .7 .2 1 .2c.3-.1 .6-.3 .8-.7c.3-.5 .2-1.1-.2-1.4v-.1c-.5-.5-1.3-.4-1.8 0c-.5 .5-.5 1.3 0 1.8h.1l-.3-.3h.1l.3-1.5l1-.2h-.3l.4 .2l-.6-.5l-1-.8l.1 .1l-.7-.7l-.1-.1l-.9-.6l-.5-.2l-.3-.1l-.5-.1c-.6-.1-1.2 .3-1.4 .9c-.1 .6 .2 1.2 .8 1.4Z" class="g0_20"/>
<path d="M588.6 430.7l-.5-.1H588l-.6-.1h-.7h.1h-.5l-.7 .1h.1l-.7-.1h.2l-.9-.1h.1l-.7-.2l.1 .1l-1.4-.5l-1.4-.6l-2-.7l-.2-.1l-2-.3l-.3-.1l-1.4 .1h-.2l-1.8 .4c-.2 0-.4 .1-.6 .3L571 430l.1-.1l-1.8 1l-.2 .1l-1.9 1.6l-.2 .4l-1.2 1.8l-.1 .5l-.4 2.3v.2l-.1 2.4l.1 .3l.6 2.6l.1 .2l1 2.3l.2 .3l1.6 1.7l1.4 1.4c.4 .4 1.1 .4 1.5 0c.4-.4 .4-1 0-1.4l-1.3-1.5l.1 .1l-1.5-1.8l.2 .3l-1-2.4l.1 .2l-.7-2.6l.1 .4l.1-2.5v.2l.4-2.3l-.2 .5l1.2-1.8l-.3 .3l1.9-1.5l-.2 .1l1.9-1l.1-.1l1.6-1.1l-.5 .2l1.8-.3h-.3h1.4h-.3l2 .3H578l1.9 .6l1.5 .6h.1l1.5 .4h.2l.7 .1l.9 .1h.1l.7 .1h.7h-.2h.4l.2 .1h.5l.5-.1l.6-.2c.2-.1 .4-.2 .6-.4l.3-.4c.2-.2 .3-.6 .2-.9c-.2-.4-.4-.6-.8-.6Z" class="g0_20"/>
<path d="M572 457.6l-.1-.1l-.4-.1l-.1-.1l.2 .1c-.5-.2-1-.1-1.3 .4l-.2 .3v.1l-.8 1.1h.1l-2.4 3.5l-.1 .1l-1.1 2.3v-.1l-1.1 1.9v.1l-1.1 1.9l-.9 1.7v.1l-.4 1.2v-.2l-.6 1.3l-.1 .2l-.2 .7v.5l.1 .9l.1 .1l.1 .3c.1 .3 .3 .6 .6 .7l.7 .3l.9 .4h.3l.9 .1h-.3l1.1 .5h.1l1.1 .3H567l1.1 .4l.1 .1l1 .3l-.2-.1l1 .6v-.1l.8 .5l-.3-.2l.6 .8l-.2-.4l.2 .9v-.3v2.1v-.1l-.2 1.3l.1-.3l-.4 .9l.1-.1l-.5 .9l.5-.5l-.7 .3l.7-.1l-1-.1c-.2 0-.5 0-.7 .1l-.7 .4l.7-.1l-.9-.2H568l-.9-.1l.3 .1l-.9-.3l.5 .3l-.6-.6c-.2-.2-.4-.3-.7-.3h-.3l.7 .4l-.2-.3c-.3-.4-.9-.5-1.3-.4c-.5 .2-.8 .7-.8 1.2v.1c0 .5 .2 .9 .6 1.1c.4 .2 .8 .2 1.2-.1c.4-.2 .6-.6 .6-1.1c-.1-.5-.4-.9-.9-1.1c-.5-.1-1 .1-1.3 .5l-.1 .2l.9-.6l-.1 .1c-.5 0-.9 .3-1.1 .8l-.2 .6l-1 2.8l-.7 1.9v.1l-.5 1.9l.1-.3l-.9 1.5l.2-.3l-1.3 1.1l.3-.2l-1.6 .7h.2l-1.9 .4h.2l-1.5 .1l-1.3 .1h.4l-1.2-.4l.3 .2l-1.1-.7l.2 .1l-1.1-.9l.1 .1l-1-1.1v.1l-.7-1.1l.1 .2l-.8-1.4l-.5-1v.1l-.4-1.1v.1l-.3-.9v-.1l-.3-.5V487l-.2-.3c-.1-.3-.4-.5-.7-.7l-.5-.2h-.4l-.9-.2h-.3l-1.2 .1l-.6 .1l-1.4 .6l.3-.1l-2.4 .6l-.3 .2l-2.2 1.2h.1l-2.5 1.3l.2-.1l-2.6 1l-.4 .3l-1.5 1.4h.1l-1.3 1l-.3 .3l-.7 1.1l-.3 .6l-.1 1.1l-.1 .3l.1 1c0 .3 0 .5 .2 .8l.8 1.2l.1 .1l.9 1.1l.5 .4l1.7 .8l.2 .1l2.1 .7l.5 .1h1.8l2.5-.2l.5-.2l2.2-1.1l.1-.1l2.2-1.6l3.1-2.1c.5-.3 .6-1 .3-1.5c-.3-.5-1-.7-1.6-.4l-3.1 2.1l-2.3 1.4h.1l-2.2 1l.5-.1l-2.5 .1h.1h-1.7l.4 .1l-2.2-.8l.2 .1l-1.7-.9l.4 .4l-.9-1.2l.1 .2l-.8-1.2l.2 .7v-1v.2l.2-1.1l-.2 .6l.8-1.2l-.2 .3l1.2-1l.1-.1l1.4-1.4l-.4 .3l2.6-1l.1-.1l2.4-1.2l.1-.1l2.1-1.2l-.3 .1l2.3-.6h.2l1.4-.6l-.5 .1h1.2l-.2-.1l1 .2l-.3-.1l.6 .2l-.8-.5l.2 .2l-.1-.2l.3 .5l-.1-.2l.3 .9v.1l.5 1.1l.1 .1l.5 1l.8 1.4l.1 .2l.8 1l.1 .1l1.1 1.2l.1 .1l1.1 .9l.1 .1l1.1 .6l.4 .2l1.2 .3h.4l1.4-.1l1.5-.1l.2-.1l1.9-.4l.2-.1l1.6-.7l.3-.2l1.3-1.1l.2-.3l1-1.5l.1-.3l.6-2l-.1 .1l.7-1.9l1-2.8l.2-.7l-1.2 .8l.1 .1c.4 0 .7-.2 1-.5l.1-.2c.3-.4 .4-1 .1-1.4c-.3-.4-.8-.6-1.3-.5c-.5 .1-.9 .6-.9 1.1c-.1 .5 .1 .9 .5 1.1c.4 .3 .9 .3 1.3 .1c.3-.2 .6-.6 .6-1.1v-.1c0-.5-.4-1-.9-1.2c-.5-.1-1 .1-1.4 .5c-.2 .5-.2 1.1 .1 1.5l.3 .2c.2 .3 .4 .4 .7 .5h.4l-.7-.3l.6 .5l.5 .3l.9 .3h.2l.9 .1h-.1l.9 .2c.3 0 .6 0 .8-.2l.7-.4l-.7 .2l1 .1c.2 0 .5 0 .7-.1l.7-.4c.2-.1 .3-.3 .4-.5l.5-.9l.1-.1l.4-1v-.2l.1-1.4l.1-.1l-.1-1.3v-1.1l-.2-.9l-.2-.3l-.6-.9l-.3-.3l-.8-.5h-.1l-1-.6l-.3-.1l-1-.3l.1 .1l-1.1-.5l-1.1-.3h.1l-1.1-.5h-.3l-.9-.2l.2 .1l-.9-.4l.1 .1l-.7-.3l.6 .7l-.1-.3l.1 .1l-.2-.8v.5l.2-.8l-.1 .2l.7-1.2l.1-.2l.4-1.2l-.1 .2l.8-1.7l1-1.9l1.1-1.9l1.1-2.4v.2l2.3-3.5l.1-.1l.6-1.2l.2-.4l-.4 .5v-.1l-.2 .1h.1l.4-.2h.1c.2-.2 .4-.5 .4-.8c0-.3-.2-.6-.4-.7Z" class="g0_20"/>
<path d="M597.6 484.4l.3 2.2v-.2l-.2 1.9v-.1l-.5 2.2v-.1l-.7 2l.2-.4l-1.5 1.6l.2-.2l-2.1 1.4l.2-.1l-2.2 .9h.3l-2.5 .4h.3l-2.5-.3h.1l-1.6-.4l.2 .2l-1.5-1.1l.2 .2l-.7-1c-.2-.3-.6-.4-.9-.2c-.3 .2-.4 .6-.2 .9l.6 1l.1 .2l1.3 1.3l.4 .2l1.6 .6h.2l2.5 .4h.2l2.5-.3l.2-.1l2.2-.8l.3-.1l2-1.4l.2-.1l1.6-1.5l.3-.4l.8-2V491l.6-2.2v-2.4l-.1-.3l-.8-2.1c-.2-.4-.6-.7-1-.5c-.4 .1-.7 .5-.6 .9Z" class="g0_20"/>
<path d="M574.3 512l-1.8 2.5l.2-.2l-1.9 1.7l-1.8 1.4l.2-.1l-2 1h.1l-1.9 .9l.3-.1l-2.1 .5h.3l-2.4-.1l.4 .1l-2.8-1.3l.2 .2l-2.2-2c-.4-.4-1-.4-1.4 0c-.4 .4-.4 1.1 0 1.4l2.2 2.1l.2 .2l2.7 1.5l.5 .2l2.5 .2h.3l2.1-.3l.3-.1l2-.9l2-1.1l.3-.1l1.8-1.6l1.8-1.8l.3-.4L576 513c.3-.5 .1-1-.3-1.3c-.5-.3-1.1-.1-1.4 .3Z" class="g0_20"/>
<path d="M537.4 463l-.8 .8l1.4-.2l-.7-.3c-.3-.1-.6-.2-1 0l-.4 .1c-.4 .1-.7 .5-.9 .9l-.2 .6l-.4 1.1v-.1l-.7 2l.2-.4l-1.6 1.8l.3-.2l-2.8 1.5l.2-.1l-3.3 .9c-.4 .1-.6 .5-.5 .9c.1 .3 .5 .6 .9 .5l3.3-.7l.1-.1l2.9-1l.3-.2l1.9-1.5l.3-.4l1-1.8V467l.5-1l.3-.6l-.6 .6l.4-.2l-.7 .2h.7c.6 0 1-.4 1.2-.9l.3-1.1c.1-.4 0-.9-.4-1.1c-.4-.2-.9-.2-1.2 .1Z" class="g0_20"/>
</svg>