<svg viewBox="0 0 1466 825" version="1.1" xmlns="http://www.w3.org/2000/svg">
<defs>
<clipPath id="c0_88"><path d="M-.2 825.3V-.2H1467V825.3Z"/></clipPath>
<clipPath id="c1_88"><path d="M1343.9 529.1V456.4H1452v72.7Z"/></clipPath>
<clipPath id="c2_88"><path d="M1346.3 621.3V549.7h102.9v71.6Z"/></clipPath>
<clipPath id="c3_88"><path d="M1346.4 716.6V641.9h103v74.7Z"/></clipPath>
<clipPath id="c4_88"><path d="M1353 825V744.6h96.2V825Z"/></clipPath>
<clipPath id="c5_88"><path d="M31.6 810.1V413.3H584.4V810.1Z"/></clipPath>
<style>
.g0_88{fill:#F00;}
.g1_88{fill:none;stroke:#000;stroke-width:1.466;stroke-linejoin:round;}
</style>
</defs>
<image clip-path="url(#c0_88)" preserveAspectRatio="none" x="0" y="-7" width="1467" height="840" href="img/1.jpg"/>
<path fill-rule="evenodd" d="M1103.7 349.8l3.8 2.4l-3 3.4l-3.1-2l-2.3 2.5l-3.8-2.1l2.8-3.6l3.3 2.1ZM991.5 336.9l6.9 3.7l-3.5 6.7l-7-3.6Zm-158.8 0l7 3.7l-3.6 6.7l-7-3.6Zm-513.9 0l7 3.7l-3.6 6.7l-7-3.6Zm-172.1 0l6.9 3.7l-3.5 6.7l-7-3.6Zm887.2-.3l5.6 3.1l-3.1 5.7l-4.4-2.2l-2.6 4.9L1024 345l3.3-6l4.2 2.3Zm26.5-15.1c-.6 0-1.1 .3-1.4 .7c-.4 .5-.6 1.1-.6 1.6c0 .8 .4 1.3 1.2 1.8c.8 .5 1.8 .7 3.1 .7h1.1c-.5-3.2-1.7-4.8-3.4-4.8Zm-390.5 0c-.6 0-1.1 .3-1.4 .7c-.4 .5-.6 1.1-.6 1.6c0 .8 .4 1.3 1.2 1.8c.8 .5 1.8 .7 3.1 .7h1.1c-.5-3.2-1.7-4.8-3.4-4.8Zm116.2-1.1c-1.3 0-2.7 .4-4.4 1.3c-1.6 .8-4 2.4-7.1 4.6h7.8c6.7 0 10-1 10-3c0-.8-.6-1.4-1.8-2c-1.2-.6-2.7-.9-4.5-.9Zm-513.8 0c-1.3 0-2.8 .4-4.5 1.3c-1.6 .8-4 2.4-7.1 4.6h7.8c6.7 0 10-1 10-3c0-.8-.6-1.4-1.8-2c-1.2-.6-2.7-.9-4.4-.9Zm995-4.5c.5 1.3 .9 2.4 1.1 3.4c.3 1 .4 2.3 .4 3.9v11.2c-2.3 0-4.1-.1-5.6-.5c-1.4-.3-2.9-.8-4.3-1.5c-1.2 .8-2.2 1.4-3.1 1.6c-.9 .3-2.3 .4-4.1 .4h-4.8c-1.4 0-2.4-.3-3.2-1c-.8-.7-1.5-1.9-2.1-3.5c-1.1 1.7-2.3 2.9-3.6 3.6c-1.2 .6-2.6 .9-4.2 .9h-6c-3.7 0-6.9 .3-9.7 .9c-2.8 .6-4.2 1.3-4.2 2.1c.8 2.4 1.5 4.7 2.1 6.7c.6 2.1 .9 4.1 .9 6c0 1.3-.2 2.4-.4 3.2c-.3 .9-.8 1.8-1.5 2.8c-.2-2.6-.7-5.4-1.5-8.3c-.2-1-.9-3.1-1.9-6.4c-.7-2-1-3.3-1-4c0-.9 .3-2.1 .8-3.5c.4-1.1 .9-2.1 1.4-3c.7-1 1.8-1.7 3.3-2.3c1.6-.6 4-1.1 7.3-1.4c-1.6-2.2-3-3.4-4.2-3.4c-.5 0-1 .2-1.5 .6c-.4 .4-1.2 1.3-2.2 2.7l-1.4-.8c.8-3 1.9-5.3 3.2-7c1.3-1.6 2.7-2.4 4.2-2.4c1.4 0 2.8 .7 4.5 2.3c1.6 1.5 3.5 3.9 5.6 7.1h2.2c2.1 0 3.8-.6 5.2-1.7c1.8-1.6 2.7-3.9 2.7-7l2 .3c0 .6-.1 1.3-.1 2.2c0 .8-.1 1.7-.1 2.7c0 1 .4 1.8 1.1 2.5c.7 .7 1.5 1 2.4 1h3.6c2.5 0 4.2-.3 5.2-1c1.3-.8 1.9-2.3 1.9-4.6c0-.4 .1-.9 .4-1.2c.2-.3 .6-.6 1.1-1l1.2-.9c0 .4 0 .9 .1 1.5c0 .7 0 1.1 0 1.3c0 1.1-.2 2.5-.5 4.3c.8 .4 1.6 .7 2.5 1c.9 .2 1.9 .4 2.9 .6c0-.7-.3-1.6-.8-2.7c-.5-1-.7-1.8-.7-2.1c0-.6 .1-1 .2-1.2c0-.1 .3-.4 .7-1Zm102.3-.7c1.4 2.4 2.4 4.4 2.8 5.9c.4 1.4 .6 3.1 .6 5.2h2.7c3.1 0 5.2-.3 6.3-1c1.2-.8 1.8-2 1.8-3.8c0-.8 .1-1.4 .2-1.8c.2-.3 .5-.7 1.1-1.1l1.4-1c0 .4 .1 .9 .1 1.5c0 .7 0 1.1 0 1.3c0 1.1-.2 2.5-.5 4.3c.9 .3 1.9 .6 2.8 .9c.9 .2 1.8 .4 2.6 .5c0-.7-.3-1.6-.7-2.6c-.6-1-.8-1.7-.8-2c0-.3 0-.5 .1-.7c.1-.2 .2-.5 .5-.9l2.8-4c.5 1.3 .9 2.4 1.2 3.4c.2 1 .3 2.3 .3 3.9v11.2c-2.2 0-3.8-.1-4.7-.3c-.9-.2-2.7-.8-5.2-1.7c-1.2 .8-2.2 1.4-3.1 1.6c-.9 .3-2.3 .4-4.1 .4H1373c0 4.6-1.5 7.9-4.4 10c-2.6 1.7-6.5 2.6-11.6 2.6c-4.9 0-8.6-.9-11.2-2.6c-2.6-1.8-3.9-4.3-3.9-7.5c0-2.8 .4-5.3 1.2-7.6c1-2.5 2.7-5.8 5.4-9.8l1.8 1.2c-2 3.4-3.3 5.8-3.9 7.3c-.6 1.6-.9 3.1-.9 4.7c0 2.1 1.1 3.8 3.4 5.1c2.2 1.4 5.2 2 8.8 2c3.6 0 6.6-.7 9-2c2.5-1.4 3.7-3.1 3.7-5.1c0-1.2-.2-2.4-.7-3.6c-.4-1.3-1.3-3.2-2.7-5.9Zm47.6-.2c1.3 1.4 2.3 3 3.1 4.8c.7 1.8 1.1 3.9 1.1 6.2v9.1c0 1.2-.7 2.8-2.1 4.8c-1.4 2-3 3.8-4.9 5.2c-2 1.7-3.8 2.5-5.3 2.5c-1.7 0-3.6-.5-5.6-1.5c-1.8-.9-4.5-2.6-8.2-5.1l1.2-1.9c1.8 1.2 3.3 2 4.3 2.4c1.2 .4 2.3 .6 3.6 .6c1.4 0 2.7-.4 4.1-1.1c1.4-.8 3.3-2.2 5.6-4.3c3.3-3 5-5.2 5-6.8c0-.8-.3-1.9-1-3.2c-.7-1.4-1.6-2.7-2.6-3.6ZM377.1 315c1.1 0 2.1 .4 2.7 1.3c.7 .9 1.1 2.1 1.1 3.6c0 1.1-.2 2-.4 2.7c-.2 .7-.7 1.7-1.4 2.8c-.5-1.4-1-2.3-1.3-2.7c-.4-.4-.9-.6-1.6-.6c-1.1 0-2.6 .6-4.5 1.8c-1.8 1.2-2.8 2.2-2.8 3.1c0 .4 .4 .7 1.2 .9c.5 .1 1.3 .2 2.5 .2c.3 0 .6 0 .9 0c.2 0 .5 0 .8-.1c2.2 0 3.6 .3 4.3 .7c.7 .4 1 1.1 1 2.2c0 2.2-.4 4.2-1.2 6.2c-1 2.5-2.5 4.2-4.3 5.3c-2.4 1.3-4.9 2.4-7.4 3.2c-2.6 .8-5 1.2-7.2 1.2c-6.1 0-9.2-2.7-9.2-8.3c0-2.8 .3-5.2 1-7.2c.8-2.3 2.4-5.4 4.9-9.2l1.4 .8c-1.5 2.5-2.6 4.7-3.3 6.7c-.7 1.9-1.1 3.6-1.1 5.1c0 3.7 2.1 5.6 6.3 5.6c1.6 0 3.1-.2 4.6-.4c1.4-.3 2.9-.7 4.3-1.2c1-.4 2.1-.8 3.3-1.4c2-.8 3-1.3 3.1-1.4c.9-.4 1.4-.9 1.4-1.2c0-.2-.5-.4-1.5-.4c-.9-.1-1.6-.1-2-.1c-3.1 0-5.1-.4-6.2-1.3c-.8-.7-1.2-2-1.2-4c0-.9 .3-2 .9-3.4c.6-1.4 1.3-2.8 2.3-4.2c1.4-2.1 2.9-3.6 4.3-4.7c1.5-1.1 2.9-1.6 4.3-1.6Zm81.2-1c-.7 .3-1.2 .5-1.5 .7c-1.1 .6-2 1.1-2.6 1.6c-.5 .4-.9 .8-1.2 1.1c-.4 .5-.6 .8-.6 1c0 .3 .3 .5 1 .7c.7 .1 1.4 .2 2.1 .2c.4 0 .9-.1 1.4-.4c.4-.2 1.1-.7 2-1.3Zm603.4-.4c1.6 0 2.9 1.1 4 3.2c1.1 2.2 1.7 4.8 1.7 7.9v7.7c0 3.4-1.4 6.8-4.3 10.1c-2.9 3.3-5.8 5-8.6 5c-1.7 0-3.5-.5-5.4-1.6c-2-1-5-3.1-9-6.2l1.2-1.7c2.1 1.4 3.9 2.4 5.3 2.8c1.1 .4 2.4 .6 3.8 .6c1.9 0 3.9-.5 5.7-1.6c2.3-1.3 4.6-3.3 7-6.1c-.9 .1-1.6 .1-2.1 .1c-2 0-3.6-.6-4.7-1.9c-1.2-1.2-1.8-3-1.8-5.2c0-3 .7-5.9 2.1-8.6c1.5-3 3.2-4.5 5.1-4.5Zm-364.4-.5c1.5 1.7 2.5 3.5 3 5.3c.6 1.9 .8 4.6 .8 8.2v7.8H676.5l-.7 3.1c-.7 1.7-1.8 3.3-3.2 5c-2.9 3.3-5.8 5-8.6 5c-1.7 0-3.5-.5-5.4-1.6c-2-1-5-3.1-9-6.2l1.2-1.7c2.1 1.4 3.9 2.4 5.3 2.8c1.1 .4 2.4 .6 3.8 .6c1.9 0 3.9-.5 5.7-1.6c2.3-1.3 4.6-3.3 7-6.1c-.9 .1-1.6 .1-2.1 .1c-2 0-3.6-.6-4.7-1.9c-1.2-1.2-1.8-3-1.8-5.2c0-3 .7-5.9 2.1-8.6c1.5-3 3.2-4.5 5.1-4.5c1.6 0 2.9 1.1 4 3.2c1.1 2.2 1.7 4.8 1.7 7.9v1.6h21.3c-.3-1.3-.7-2.5-1.2-3.4c-.3-.5-1-1.4-2.1-2.7Zm313.2-.8c2.8 0 5 .6 6.6 1.7c1.5 1 2.3 2.5 2.3 4.4c0 1-.2 2-.6 2.9c-.4 .9-1.2 2.2-2.4 3.8c.3 .4 .7 .7 1.2 .9c.5 .2 .9 .3 1.4 .3h18c-.3-1.3-.7-2.5-1.2-3.4c-.3-.5-1-1.4-2.1-2.7l2.4-7.1c1.5 1.7 2.5 3.5 3 5.3c.6 1.9 .8 4.6 .8 8.2v7.8H1019c-1.6 0-3-.3-4.2-.9c-1.2-.7-2.1-1.7-2.9-3.1c-1.3 1.6-3 2.7-5 3.4c-1.4 .4-2.9 .6-4.5 .6H977.2v.7c0 1.2-.7 2.8-2.1 4.8c-1.4 2-3 3.8-4.9 5.2c-2.1 1.7-3.8 2.5-5.3 2.5c-1.8 0-3.6-.5-5.6-1.5c-1.8-.9-4.5-2.6-8.2-5.1l1.2-1.9c1.8 1.2 3.2 2 4.3 2.4c1.1 .4 2.3 .6 3.6 .6c1.4 0 2.7-.4 4.1-1.1c1.4-.8 3.2-2.2 5.6-4.3c3.3-3 5-5.2 5-6.8c0-.8-.4-1.9-1-3.2c-.7-1.4-1.6-2.7-2.6-3.6L973 315c1.3 1.4 2.3 3 3.1 4.8c.7 1.8 1.1 3.9 1.1 6.2v.3h21.3c-.3-1.3-.7-2.5-1.2-3.4c-.3-.5-1-1.4-2.1-2.7l2.4-7.1c1.5 1.7 2.5 3.5 3 5.3c.5 1.6 .8 3.9 .8 6.9v1h1c1.7 0 2.8-.1 3.5-.2c.6-.2 1.5-.6 2.7-1.2c-.6-1.2-1.1-2-1.6-2.5c-.5-.6-1.1-.9-1.6-.9c-.3 0-.5 0-.7 .2c-.1 .1-.4 .4-.6 .8l-1.3-.2c0-3.5 .6-6.1 1.9-7.7c1.2-1.5 3.2-2.3 5.8-2.3Zm-197.2 0c2.7 0 4.9 .6 6.5 1.7c1.6 1 2.4 2.5 2.4 4.4c0 1-.2 2-.7 2.9c-.4 .9-1.2 2.2-2.3 3.8c.3 .4 .6 .7 1.1 .9c.5 .2 1 .3 1.4 .3h18c-.2-1.3-.6-2.5-1.2-3.4c-.3-.5-1-1.4-2.1-2.7l2.4-7.1c1.5 1.7 2.5 3.5 3.1 5.3c.5 1.9 .8 4.6 .8 8.2v7.8h-21c-1.6 0-3-.3-4.2-.9c-1.1-.7-2.1-1.7-2.8-3.1c-.9 1-1.8 1.8-2.9 2.4l-.1 .1v1.5H764.5c0 4.7-1.5 8-4.4 10c-2.6 1.8-6.4 2.6-11.6 2.6c-4.8 0-8.6-.9-11.2-2.6c-2.6-1.8-3.9-4.3-3.9-7.5c0-2.8 .4-5.3 1.3-7.6c.9-2.5 2.7-5.8 5.3-9.8l1.8 1.2c-2 3.4-3.2 5.8-3.9 7.3c-.5 1.6-.9 3.1-.9 4.7c0 2.1 1.2 3.8 3.4 5.1c2.2 1.4 5.2 2 8.8 2c3.6 0 6.6-.7 9-2c2.5-1.4 3.7-3.1 3.7-5.1c0-1.2-.2-2.4-.6-3.6c-.5-1.3-1.4-3.2-2.8-5.9l2.6-8c1.1 2.1 1.7 3.3 1.9 3.6c.6 1.2 1 2.4 1.2 3.4c.2 1.1 .3 2.5 .3 4.1c1.3 0 2.5-.3 3.5-1c.2-.1 1.1-.7 3-2.1l10.7-7.6c1.6-1.2 2.9-1.9 3.7-2.4c1.2-.5 2.3-.8 3.5-.8c2.2 0 4 .8 5.3 2.4c1.4 1.8 2.2 4.5 2.2 8.2v3.3h8.7c1.7 0 2.9-.1 3.5-.2c.7-.2 1.6-.6 2.7-1.2c-.6-1.2-1.1-2-1.5-2.5c-.6-.6-1.1-.9-1.7-.9c-.2 0-.4 0-.6 .2c-.2 .1-.4 .4-.7 .8l-1.3-.2c0-3.5 .6-6.1 1.9-7.7c1.2-1.5 3.2-2.3 5.9-2.3Zm-513.9 0c2.8 0 4.9 .6 6.5 1.7c1.6 1 2.4 2.5 2.4 4.4c0 1-.2 2-.7 2.9c-.4 .9-1.1 2.2-2.3 3.8c.3 .4 .7 .7 1.1 .9c.5 .2 1 .3 1.4 .3h18c-.2-1.3-.6-2.5-1.2-3.4c-.3-.5-1-1.4-2.1-2.7l2.4-7.1c1.5 1.7 2.5 3.5 3.1 5.3c.5 1.9 .8 4.6 .8 8.2v7.8h-21c-1.6 0-2.9-.3-4.1-.9c-1.2-.7-2.2-1.7-2.9-3.1c-.8 1-1.8 1.8-2.9 2.4v1.6H250.6c0 4.7-1.4 8-4.4 10c-2.5 1.8-6.4 2.6-11.6 2.6c-4.8 0-8.5-.9-11.2-2.6c-2.6-1.8-3.9-4.3-3.9-7.5c0-2.8 .4-5.3 1.3-7.6c.9-2.5 2.7-5.8 5.3-9.8l1.8 1.2c-1.9 3.4-3.2 5.8-3.8 7.3c-.6 1.6-.9 3.1-.9 4.7c0 2.1 1.1 3.8 3.3 5.1c2.3 1.4 5.2 2 8.8 2c3.6 0 6.6-.7 9.1-2c2.4-1.4 3.6-3.1 3.6-5.1c0-1.2-.2-2.4-.6-3.6c-.4-1.3-1.4-3.2-2.8-5.9l2.6-8c1.1 2.1 1.8 3.3 1.9 3.6c.6 1.2 1 2.4 1.2 3.4c.2 1.1 .3 2.5 .3 4.1c1.3 0 2.5-.3 3.6-1c.1-.1 1.1-.7 2.9-2.1l10.7-7.6c1.7-1.2 2.9-1.9 3.7-2.4c1.2-.5 2.4-.8 3.5-.8c2.3 0 4 .8 5.3 2.4c1.5 1.8 2.2 4.5 2.2 8.2v3.3h8.8c1.6 0 2.8-.1 3.4-.2c.7-.2 1.6-.6 2.7-1.2c-.6-1.2-1.1-2-1.5-2.5c-.5-.6-1.1-.9-1.7-.9c-.2 0-.4 0-.6 .2c-.2 .1-.4 .4-.6 .8l-1.3-.2c0-3.5 .6-6.1 1.8-7.7c1.3-1.5 3.2-2.3 5.9-2.3Zm615.1-4c2.2 0 4.3 .7 6.3 2.2c1.9 1.3 3.2 3 4.1 4.9l-1.3 1c-1.6-.5-2.8-.9-3.7-1.1c-1-.2-2.1-.3-3.4-.3c-2.5 0-4.6 .2-6.5 .6c-2.2 .5-3.4 1.2-3.4 2.2c0 1.3 2.8 3.6 8.3 6.8l15.2-4.4l-3.4 8.5c-5.3 1.6-9.8 2.9-13.3 3.8c-1.5 .4-2.9 .7-4.2 1l-1 .2v.7H892.8v.5c-.1 1.9-.3 3.4-.7 4.7c-.6 1.6-1.5 3-2.7 4c-1.2 1-3 1.8-5.4 2.5c-2.3 .6-4.7 .9-7.2 .9c-4.9 0-8.6-.9-11.2-2.6c-2.6-1.8-3.9-4.3-3.9-7.5c0-2.8 .4-5.3 1.2-7.6c1-2.5 2.7-5.8 5.4-9.8l1.8 1.2c-2 3.4-3.3 5.8-3.9 7.3c-.6 1.6-.9 3.1-.9 4.7c0 2.1 1.1 3.8 3.4 5.1c2.2 1.4 5.1 2 8.8 2c3.6 0 6.6-.7 9-2c2.5-1.4 3.7-3.1 3.7-5.1c0-1.2-.2-2.4-.7-3.6c-.4-1.3-1.3-3.2-2.7-5.9l2.6-8c1.4 2.5 2.3 4.3 2.6 5.2c.5 1.5 .8 3.4 .8 5.6v.3h8.9c.5 0 1 0 1.2 0c.6-.1 1.2-.1 1.8-.2c-1-1.5-1.6-2.7-2-3.6c-.3-.9-.5-2-.5-3.1c0-3 1.2-5.6 3.7-7.8c2.4-2.2 5.3-3.3 8.6-3.3Zm-296.9-1.4c2.2 0 4.2 .4 6 1.5c1.9 1 3.5 2.4 4.7 4.3c-.6 0-1.1 0-1.7 0c-.5-.1-1.1-.1-1.7-.1c-4.1 0-7.4 .3-9.9 1c-2.6 .6-3.8 1.5-3.8 2.5c0 .9 .4 1.7 1.3 2.5c1 1 2.7 2 5 3c2.7-1.2 4.8-2 6.3-2.4c1.5-.5 3.8-1.1 6.9-1.8c-.6 1.7-1 3-1.3 3.8c-.4 .9-.9 2.1-1.6 3.5c-6.1 1.5-10.8 3.5-14.4 6c-3.5 2.6-5.3 5.3-5.3 8.2c0 2.7 1.5 4.8 4.6 6.3c3.5 1.7 8.9 2.5 16.3 2.5h.8c1.1 0 2 0 2.5-.1c.6 0 1.6-.1 3-.2l.5 1.2l-11.2 7h-3.1c-5.5 0-9.7-1.2-12.5-3.5c-2.9-2.4-4.3-5.9-4.3-10.5c0-3 .4-5.6 1.2-7.8c.9-2.6 2.3-4.8 4.2-6.7c-1-1.2-1.9-2.5-2.6-4c-.8-1.5-1.2-2.7-1.2-3.6c0-1.1 .5-2.8 1.3-5.1c.9-2.2 1.7-3.8 2.5-4.8c.7-.8 1.7-1.5 3.1-2c1.4-.5 2.8-.7 4.4-.7Zm817.7-.6c2.6 1.9 4.4 4.4 5.5 7.4c1 2.8 1.5 6.5 1.5 11.2v9.5h-13.5c-1.3 0-2.3-.3-3-.8c-.9-.7-1.3-1.8-1.3-3.3c0-.9 .1-1.8 .2-2.9c0-1 .2-2 .4-3l1.1-.1c.1 .7 .5 1.2 1 1.5c.6 .4 1.2 .5 2 .5h10.3c-.5-2.9-1.3-5.2-2.4-7c-.9-1.4-2.2-2.7-3.9-3.8Zm-559.2-.5l7 3.7l-3.6 6.7l-7-3.7Zm-378.6-5.9V307c-.1 0-.9 .3-2.5 .8c-1.9 .6-3.5 1.2-4.6 1.7c-1.7 .7-2.5 1.2-2.5 1.5c0 .2 .7 .9 2.1 2.3c1.9 1.9 3.5 3.6 4.9 5.2c2.1 2.5 3.9 5.1 5.2 7.6v8.3H466.6c-.7 0-1.4-.1-2-.4c-1.1-.6-2.1-1.6-2.9-3.2c-1.1-2.1-1.8-5-2.1-8.6c-1.4 1.6-2.4 2.8-3.2 3.5c-1.1 1-2 1.5-2.7 1.5c-.4 0-.9 0-1.4-.1l-3.7-.8c-1.5-.3-2.5-.5-2.8-.6c-.4-.2-.6-.4-.6-.8c0-.5 .7-2.2 2.1-5.1c1.4-2.8 2.4-4.6 3-5.3c.5-.5 1.4-1.2 2.6-2.1c.8-.5 1.9-1.1 3.3-1.9l1.5-1c0-.2-.1-.5-.1-.8c0-.3 0-.6 0-.8c0-.8 .1-1.7 .5-2.9c.3-1.1 1-2.5 1.9-4.2l2.8 18.6c.5 2.9 1.1 4.9 1.8 5.9c.5 .7 1.1 1 2 1h28.8c-.8-.9-1.5-1.7-2.3-2.4c-.6-.6-1.4-1.3-2.4-2.1c-1.1-.8-2.2-1.7-3.4-2.6l-.9 1.1c-1.8-1.8-2.8-2.8-3.2-3.2c-1-1.1-1.5-2.4-1.5-3.9c0-2 .2-3.4 .5-4.2c.3-1.2 1.2-2.2 2.5-3.1c1.1-.8 2.4-1.5 3.7-2.2c1-.5 2.4-1.1 4.1-1.8c.8-.3 2.5-1 5-2Zm661.5-.4l5.5 3.1l-3.1 5.7l-4.4-2.2l-2.5 4.9l-5.4-3.1l3.2-6.1l4.3 2.4Zm-385-.8l6.9 3.7l-3.6 6.7l-6.9-3.7Zm-513.9 0l6.9 3.7l-3.5 6.7l-7-3.7Zm434.3-.4l6.9 3.7l-3.6 6.6l-6.9-3.6Zm-528 0l6.9 3.7l-3.6 6.6l-6.9-3.6Zm1283.5-.1l1.7 10.6c.7 4 1.2 7.5 1.4 10.4c.2 2.3 .3 4.5 .3 6.6c0 1.7-.2 3.3-.6 4.8c-.4 1.4-1.2 3.4-2.4 5.9l-1.8-.7c.5-2.6 .7-4.6 .7-6.2c0-1.2-.1-3-.3-5.4c-.2-2.3-.4-4.6-.7-6.9c-.3-2.3-.8-5.1-1.5-8.2c-.2-1.2-.4-1.9-.4-2.3c0-.7 .4-1.7 1-3.2c.6-1.5 1.4-3.3 2.6-5.4Zm-132.8 0l1.8 10.6c.7 4 1.1 7.5 1.4 10.4c.2 2.3 .3 4.5 .3 6.6c0 1.7-.2 3.3-.6 4.8c-.5 1.4-1.3 3.4-2.5 5.9l-1.7-.7c.4-2.6 .7-4.6 .7-6.2c0-1.2-.1-3-.3-5.4c-.2-2.3-.5-4.6-.8-6.9c-.3-2.3-.8-5.1-1.4-8.2c-.3-1.2-.4-1.9-.4-2.3c0-.7 .3-1.7 .9-3.2c.6-1.5 1.5-3.3 2.6-5.4Zm-130.3 0l1.8 10.6c.6 4 1.1 7.5 1.3 10.4c.2 2.3 .3 4.5 .3 6.6c0 1.7-.2 3.3-.6 4.8c-.4 1.4-1.2 3.4-2.4 5.9l-1.8-.7c.5-2.6 .7-4.6 .7-6.2c0-1.2-.1-3-.3-5.4c-.2-2.3-.4-4.6-.7-6.9c-.3-2.3-.8-5.1-1.5-8.2c-.2-1.2-.4-1.9-.4-2.3c0-.7 .4-1.7 1-3.2c.6-1.5 1.5-3.3 2.6-5.4Zm-478.1 0l1.8 10.6c.7 4 1.1 7.5 1.4 10.4c.2 2.3 .3 4.5 .3 6.6c0 1.7-.3 3.3-.7 4.8c-.4 1.4-1.2 3.4-2.4 5.9l-1.8-.7c.5-2.6 .7-4.6 .7-6.2c0-1.2-.1-3-.3-5.4c-.2-2.3-.4-4.6-.7-6.9c-.3-2.3-.8-5.1-1.5-8.2c-.2-1.2-.3-1.9-.3-2.3c0-.7 .3-1.7 .9-3.2c.6-1.5 1.5-3.3 2.6-5.4Zm-65 0l1.8 10.6c.7 4 1.1 7.5 1.4 10.4c.2 2.3 .3 4.5 .3 6.6c0 1.7-.2 3.3-.6 4.8c-.4 1.4-1.3 3.4-2.4 5.9l-1.8-.7c.4-2.6 .7-4.6 .7-6.2c0-1.2-.1-3-.3-5.4c-.2-2.3-.5-4.6-.8-6.9c-.3-2.3-.7-5.1-1.4-8.2c-.3-1.2-.4-1.9-.4-2.3c0-.7 .3-1.7 .9-3.2c.7-1.5 1.5-3.3 2.6-5.4Zm-63.4 0l1.8 10.6c.7 4 1.1 7.5 1.4 10.4c.2 2.3 .3 4.5 .3 6.6c0 1.7-.3 3.3-.7 4.8c-.4 1.4-1.2 3.4-2.4 5.9l-1.8-.7c.5-2.6 .8-4.6 .8-6.2c0-1.2-.2-3-.4-5.4c-.2-2.3-.4-4.6-.7-6.9c-.3-2.3-.8-5.1-1.5-8.2c-.2-1.2-.3-1.9-.3-2.3c0-.7 .3-1.7 .9-3.2c.6-1.5 1.5-3.3 2.6-5.4Zm-385.4 0l1.8 10.6c.7 4 1.1 7.5 1.4 10.4c.2 2.3 .3 4.5 .3 6.6c0 1.7-.2 3.3-.6 4.8c-.4 1.4-1.3 3.4-2.4 5.9l-1.8-.7c.4-2.6 .7-4.6 .7-6.2c0-1.2-.1-3-.3-5.4c-.2-2.3-.5-4.6-.8-6.9c-.3-2.3-.7-5.1-1.4-8.2c-.3-1.2-.4-1.9-.4-2.3c0-.7 .3-1.7 .9-3.2c.7-1.5 1.5-3.3 2.6-5.4Zm1108.4-2.3l1.4 .7c0 .1 0 .4-.1 1c0 .6 .4 1.2 1.2 1.9c.8 .5 1.9 1.1 3.6 1.8c-.2 1.3-.5 2.5-.8 3.7c-.4 1.2-.8 2.3-1.2 3.3l-1.1-.4l3.3 18.4v8.1h-14.3v.7c0 1.2-.7 2.8-2.1 4.8c-1.4 2-3.1 3.8-4.9 5.2c-2.1 1.7-3.9 2.5-5.3 2.5c-1.8 0-3.7-.5-5.7-1.5c-1.7-.9-4.4-2.6-8.1-5.1l1.2-1.9c1.8 1.2 3.2 2 4.3 2.4c1.1 .4 2.3 .6 3.6 .6c1.3 0 2.7-.4 4.1-1.1c1.4-.8 3.2-2.2 5.6-4.3c3.3-3 4.9-5.2 4.9-6.8c0-.8-.3-1.9-.9-3.2c-.7-1.4-1.6-2.7-2.6-3.6l1.6-8.1c1.4 1.4 2.4 3 3.2 4.8c.7 1.8 1.1 3.9 1.1 6.2v.3H1306l-3.6-20.2l-1.9-1.3c0-1.2 .1-2.3 .5-3.5c.5-1.5 1.2-3.3 2.3-5.4Zm-130.3 0l1.4 .7c0 .1-.1 .4-.2 1c0 .6 .4 1.2 1.3 1.9c.7 .5 1.9 1.1 3.5 1.8c-.2 1.3-.4 2.5-.8 3.7c-.3 1.2-.7 2.3-1.2 3.3l-1-.4l3.2 18.4v8.1h-35c-2.3 0-4-.9-5-2.8c-1.2-2.1-1.7-5.7-1.7-10.7v-8.5c0-1.9-.3-3.4-.8-4.5c-.3-.5-.9-1.2-1.8-2.2l3.2-7.5c1.1 1.6 2 3.2 2.4 4.7c.6 1.8 .8 4.2 .8 7v5.8c0 4.2 .3 7.1 .9 8.7c.4 1.3 1.1 1.9 2 1.9H1162c-.2-1.3-.6-2.5-1.2-3.4c-.3-.5-1-1.4-2.1-2.7l2.4-7.1c1.5 1.7 2.5 3.5 3.1 5.3c.4 1.6 .7 3.9 .8 6.9v1h10.6l-3.6-20.2l-1.9-1.3c0-1.2 .2-2.3 .6-3.5c.4-1.5 1.2-3.3 2.3-5.4Zm-45.1 0l1.4 .7c0 .1-.1 .4-.2 1c0 .6 .4 1.2 1.3 1.9c.7 .5 1.9 1.1 3.5 1.8c-.2 1.3-.4 2.5-.8 3.7c-.3 1.2-.7 2.3-1.2 3.3l-1-.4l3.2 18.4v8.1h-17.3c-.9 0-1.6 0-2 .1c-.3 0-.5 .1-.5 .4c.5 .3 1.1 .5 1.6 .7c.5 .1 .8 .3 1 .5c.1 .2 .2 .5 .2 1c0 1.4-.4 3.1-1.2 5c-.8 2-1.6 3.2-2.3 3.7c-.8 .6-3 1.3-6.6 2.1c-3.6 .8-6.8 1.2-9.4 1.2c-3.7 0-6.7-.8-9-2.3c-2.3-1.6-3.5-3.6-3.5-6.1c0-2.4 .5-4.7 1.5-6.9c1.3-2.7 3.5-6.1 6.9-10.1l1.7 1.2c-2 2.5-3.5 4.6-4.3 6.2c-.8 1.6-1.2 3.1-1.2 4.7c0 2.1 .9 3.7 2.6 4.7c1.8 1 4.5 1.5 8.2 1.5c1.9 0 4.5-.3 7.9-1c3.4-.7 5.1-1.3 5.1-1.8c0-.3-.7-.5-1.9-.7c-1.3-.2-2.8-.3-4.3-.3c-2.3 0-3.4-.5-3.4-1.5c0-.4 .3-1.3 .8-2.4c.4-.8 .8-1.7 1.2-2.5c.7-1.6 2.1-2.9 4.2-4c2-1 4.2-1.5 6.5-1.5h13.9l-3.6-20.2l-1.9-1.3c0-1.2 .2-2.3 .6-3.5c.4-1.5 1.2-3.3 2.3-5.4Zm-561.4 0l1.4 .7c0 .1-.1 .4-.1 1c0 .6 .4 1.2 1.2 1.9c.8 .5 1.9 1.1 3.5 1.8c-.1 1.3-.4 2.5-.8 3.7c-.3 1.2-.7 2.3-1.1 3.3l-1.1-.4l3.2 18.4v8.1H526.5v.7c0 1.2-.7 2.8-2 4.8c-1.4 2-3.1 3.8-4.9 5.2c-2.1 1.7-3.9 2.5-5.3 2.5c-1.8 0-3.7-.5-5.7-1.5c-1.7-.9-4.4-2.6-8.2-5.1l1.3-1.9c1.8 1.2 3.2 2 4.3 2.4c1.1 .4 2.3 .6 3.6 .6c1.3 0 2.7-.4 4.1-1.1c1.3-.8 3.2-2.2 5.6-4.3c3.3-3 4.9-5.2 4.9-6.8c0-.8-.3-1.9-.9-3.2c-.8-1.4-1.6-2.7-2.7-3.6l1.7-8.1c1.4 1.4 2.4 3 3.1 4.8c.8 1.8 1.1 3.9 1.1 6.2v.3h19.1c-2.4-2.5-4.6-4.3-6.6-5.3c-1.8-1-3.6-1.5-5.3-1.5c-.6 0-1 0-1.5 .1c-.4 0-1 .1-1.8 .3c1.1-2.5 2.3-4.4 3.6-5.5c1.4-1.2 2.9-1.8 4.6-1.8c1.3 0 2.6 .3 3.8 .9c1.2 .7 2.6 1.7 4.1 3.1c1.2 1.1 2.9 2.8 5 5.2c1.5 1.7 2.7 2.8 3.4 3.3c.8 .5 2 .9 3.6 1.2h10.7l-3.6-20.2l-2-1.3c0-1.2 .2-2.3 .6-3.5c.5-1.5 1.2-3.3 2.3-5.4Zm-144.6 0l1.3 .7c0 .1 0 .4-.1 1c0 .6 .4 1.2 1.3 1.9c.7 .5 1.9 1.1 3.5 1.8c-.2 1.3-.5 2.5-.8 3.7c-.4 1.2-.7 2.3-1.2 3.3l-1.1-.4l3.3 18.4v8.1H392.6c-1.3 0-2.3-.3-3-.8c-.9-.7-1.3-1.8-1.3-3.3c0-.9 .1-1.8 .2-2.9c0-1 .2-2 .4-3l1.1-.1c.1 .7 .5 1.2 1 1.5c.6 .4 1.2 .5 2 .5h10.3c-.5-2.9-1.3-5.2-2.4-7c-.9-1.4-2.2-2.7-3.9-3.8l2.1-9.2c2.6 1.9 4.4 4.4 5.5 7.4c1 2.8 1.5 6.5 1.5 11.2v1.4h18.4l-3.6-20.2l-1.9-1.3c0-1.2 .2-2.3 .5-3.5c.5-1.5 1.3-3.3 2.4-5.4Zm-240.8 0l1.4 .7c0 .1 0 .4-.1 1c0 .6 .4 1.2 1.3 1.9c.7 .5 1.9 1.1 3.5 1.8c-.2 1.3-.5 2.5-.8 3.7c-.4 1.2-.8 2.3-1.2 3.3l-1.1-.4l3.3 18.4v8.1H135.9c-2.3 0-4-.9-5-2.8c-1.2-2.1-1.8-5.7-1.8-10.7v-8.5c0-1.9-.2-3.4-.8-4.5c-.2-.5-.8-1.2-1.8-2.2l3.3-7.5c1.1 1.6 1.9 3.2 2.4 4.7c.5 1.8 .8 4.2 .8 7v5.8c0 4.2 .3 7.1 .8 8.7c.5 1.3 1.1 1.9 2.1 1.9h17.8c-.3-1.3-.7-2.5-1.2-3.4c-.3-.5-1-1.4-2.1-2.7l2.4-7.1c1.5 1.7 2.5 3.5 3 5.3c.5 1.6 .8 3.9 .8 6.9v1h13.6c-.3-1.3-.7-2.5-1.2-3.4c-.3-.5-1-1.4-2.1-2.7l2.4-7.1c1.5 1.7 2.5 3.5 3 5.3c.5 1.6 .8 3.9 .8 6.9v1h10.7l-3.6-20.2l-1.9-1.3c0-1.2 .2-2.3 .5-3.5c.5-1.5 1.2-3.3 2.3-5.4Zm277.2-6l5.3 2.7l-3.3 5.6l-4.2-2.4l-2.4 4.7l-5.6-3l3.1-5.3l4.5 2.2Zm251.4-.2c.3 0 .6 .1 .9 .3c.2 .3 .3 .6 .3 1c0 .3 0 .6-.1 .8c-.1 .3-.3 .6-.6 1.1c-1-.5-1.6-.8-2-.8c-.4 0-.7 .1-1.1 .3c-.2 .1-.4 .3-.6 .5c0 .2 .4 .6 1.4 1.2c.9 .5 1.6 .8 2 .8c.3 0 1-.2 2.2-.5c-.2 .6-.5 1-.8 1.3c-.2 .2-.5 .4-1 .6l-6.4 1.9c.4-.7 .7-1.2 1-1.4c.3-.3 .8-.5 1.6-.8c-.5-.3-.9-.7-1.2-1c-.2-.3-.4-.6-.4-.9c0-.2 .1-.5 .3-.9c.1-.3 .3-.6 .6-.9c1.3-1.8 2.6-2.6 3.9-2.6Z" class="g0_88"/>
<path d="M1103.7 349.8l3.8 2.4l-3 3.4l-3.1-2l-2.3 2.5l-3.8-2.1l2.8-3.6l3.3 2.1ZM991.5 336.9l6.9 3.7l-3.5 6.7l-7-3.6Zm-158.8 0l7 3.7l-3.6 6.7l-7-3.6Zm-513.9 0l7 3.7l-3.6 6.7l-7-3.6Zm-172.1 0l6.9 3.7l-3.5 6.7l-7-3.6Zm887.2-.3l5.6 3.1l-3.1 5.7l-4.4-2.2l-2.6 4.9L1024 345l3.3-6l4.2 2.3Zm26.5-15.1c-.6 0-1.1 .3-1.4 .7c-.4 .5-.6 1.1-.6 1.6c0 .8 .4 1.3 1.2 1.8c.8 .5 1.8 .7 3.1 .7h1.1c-.5-3.2-1.7-4.8-3.4-4.8Zm-390.5 0c-.6 0-1.1 .3-1.4 .7c-.4 .5-.6 1.1-.6 1.6c0 .8 .4 1.3 1.2 1.8c.8 .5 1.8 .7 3.1 .7h1.1c-.5-3.2-1.7-4.8-3.4-4.8Zm116.2-1.1c-1.3 0-2.7 .4-4.4 1.3c-1.6 .8-4 2.4-7.1 4.6h7.8c6.7 0 10-1 10-3c0-.8-.6-1.4-1.8-2c-1.2-.6-2.7-.9-4.5-.9Zm-513.8 0c-1.3 0-2.8 .4-4.5 1.3c-1.6 .8-4 2.4-7.1 4.6h7.8c6.7 0 10-1 10-3c0-.8-.6-1.4-1.8-2c-1.2-.6-2.7-.9-4.4-.9Zm995-4.5c.5 1.3 .9 2.4 1.1 3.4c.3 1 .4 2.3 .4 3.9v11.2c-2.3 0-4.1-.1-5.6-.5c-1.4-.3-2.9-.8-4.3-1.5c-1.2 .8-2.2 1.4-3.1 1.6c-.9 .3-2.3 .4-4.1 .4h-4.8c-1.4 0-2.4-.3-3.2-1c-.8-.7-1.5-1.9-2.1-3.5c-1.1 1.7-2.3 2.9-3.6 3.6c-1.2 .6-2.6 .9-4.2 .9h-6c-3.7 0-6.9 .3-9.7 .9c-2.8 .6-4.2 1.3-4.2 2.1c.8 2.4 1.5 4.7 2.1 6.7c.6 2.1 .9 4.1 .9 6c0 1.3-.2 2.4-.4 3.2c-.3 .9-.8 1.8-1.5 2.8c-.2-2.6-.7-5.4-1.5-8.3c-.2-1-.9-3.1-1.9-6.4c-.7-2-1-3.3-1-4c0-.9 .3-2.1 .8-3.5c.4-1.1 .9-2.1 1.4-3c.7-1 1.8-1.7 3.3-2.3c1.6-.6 4-1.1 7.3-1.4c-1.6-2.2-3-3.4-4.2-3.4c-.5 0-1 .2-1.5 .6c-.4 .4-1.2 1.3-2.2 2.7l-1.4-.8c.8-3 1.9-5.3 3.2-7c1.3-1.6 2.7-2.4 4.2-2.4c1.4 0 2.8 .7 4.5 2.3c1.6 1.5 3.5 3.9 5.6 7.1h2.2c2.1 0 3.8-.6 5.2-1.7c1.8-1.6 2.7-3.9 2.7-7l2 .3c0 .6-.1 1.3-.1 2.2c0 .8-.1 1.7-.1 2.7c0 1 .4 1.8 1.1 2.5c.7 .7 1.5 1 2.4 1h3.6c2.5 0 4.2-.3 5.2-1c1.3-.8 1.9-2.3 1.9-4.6c0-.4 .1-.9 .4-1.2c.2-.3 .6-.6 1.1-1l1.2-.9c0 .4 0 .9 .1 1.5c0 .7 0 1.1 0 1.3c0 1.1-.2 2.5-.5 4.3c.8 .4 1.6 .7 2.5 1c.9 .2 1.9 .4 2.9 .6c0-.7-.3-1.6-.8-2.7c-.5-1-.7-1.8-.7-2.1c0-.6 .1-1 .2-1.2c0-.1 .3-.4 .7-1Zm102.3-.7c1.4 2.4 2.4 4.4 2.8 5.9c.4 1.4 .6 3.1 .6 5.2h2.7c3.1 0 5.2-.3 6.3-1c1.2-.8 1.8-2 1.8-3.8c0-.8 .1-1.4 .2-1.8c.2-.3 .5-.7 1.1-1.1l1.4-1c0 .4 .1 .9 .1 1.5c0 .7 0 1.1 0 1.3c0 1.1-.2 2.5-.5 4.3c.9 .3 1.9 .6 2.8 .9c.9 .2 1.8 .4 2.6 .5c0-.7-.3-1.6-.7-2.6c-.6-1-.8-1.7-.8-2c0-.3 0-.5 .1-.7c.1-.2 .2-.5 .5-.9l2.8-4c.5 1.3 .9 2.4 1.2 3.4c.2 1 .3 2.3 .3 3.9v11.2c-2.2 0-3.8-.1-4.7-.3c-.9-.2-2.7-.8-5.2-1.7c-1.2 .8-2.2 1.4-3.1 1.6c-.9 .3-2.3 .4-4.1 .4H1373c0 4.6-1.5 7.9-4.4 10c-2.6 1.7-6.5 2.6-11.6 2.6c-4.9 0-8.6-.9-11.2-2.6c-2.6-1.8-3.9-4.3-3.9-7.5c0-2.8 .4-5.3 1.2-7.6c1-2.5 2.7-5.8 5.4-9.8l1.8 1.2c-2 3.4-3.3 5.8-3.9 7.3c-.6 1.6-.9 3.1-.9 4.7c0 2.1 1.1 3.8 3.4 5.1c2.2 1.4 5.2 2 8.8 2c3.6 0 6.6-.7 9-2c2.5-1.4 3.7-3.1 3.7-5.1c0-1.2-.2-2.4-.7-3.6c-.4-1.3-1.3-3.2-2.7-5.9Zm47.6-.2c1.3 1.4 2.3 3 3.1 4.8c.7 1.8 1.1 3.9 1.1 6.2v9.1c0 1.2-.7 2.8-2.1 4.8c-1.4 2-3 3.8-4.9 5.2c-2 1.7-3.8 2.5-5.3 2.5c-1.7 0-3.6-.5-5.6-1.5c-1.8-.9-4.5-2.6-8.2-5.1l1.2-1.9c1.8 1.2 3.3 2 4.3 2.4c1.2 .4 2.3 .6 3.6 .6c1.4 0 2.7-.4 4.1-1.1c1.4-.8 3.3-2.2 5.6-4.3c3.3-3 5-5.2 5-6.8c0-.8-.3-1.9-1-3.2c-.7-1.4-1.6-2.7-2.6-3.6ZM377.1 315c1.1 0 2.1 .4 2.7 1.3c.7 .9 1.1 2.1 1.1 3.6c0 1.1-.2 2-.4 2.7c-.2 .7-.7 1.7-1.4 2.8c-.5-1.4-1-2.3-1.3-2.7c-.4-.4-.9-.6-1.6-.6c-1.1 0-2.6 .6-4.5 1.8c-1.8 1.2-2.8 2.2-2.8 3.1c0 .4 .4 .7 1.2 .9c.5 .1 1.3 .2 2.5 .2c.3 0 .6 0 .9 0c.2 0 .5 0 .8-.1c2.2 0 3.6 .3 4.3 .7c.7 .4 1 1.1 1 2.2c0 2.2-.4 4.2-1.2 6.2c-1 2.5-2.5 4.2-4.3 5.3c-2.4 1.3-4.9 2.4-7.4 3.2c-2.6 .8-5 1.2-7.2 1.2c-6.1 0-9.2-2.7-9.2-8.3c0-2.8 .3-5.2 1-7.2c.8-2.3 2.4-5.4 4.9-9.2l1.4 .8c-1.5 2.5-2.6 4.7-3.3 6.7c-.7 1.9-1.1 3.6-1.1 5.1c0 3.7 2.1 5.6 6.3 5.6c1.6 0 3.1-.2 4.6-.4c1.4-.3 2.9-.7 4.3-1.2c1-.4 2.1-.8 3.3-1.4c2-.8 3-1.3 3.1-1.4c.9-.4 1.4-.9 1.4-1.2c0-.2-.5-.4-1.5-.4c-.9-.1-1.6-.1-2-.1c-3.1 0-5.1-.4-6.2-1.3c-.8-.7-1.2-2-1.2-4c0-.9 .3-2 .9-3.4c.6-1.4 1.3-2.8 2.3-4.2c1.4-2.1 2.9-3.6 4.3-4.7c1.5-1.1 2.9-1.6 4.3-1.6Zm81.2-1c-.7 .3-1.2 .5-1.5 .7c-1.1 .6-2 1.1-2.6 1.6c-.5 .4-.9 .8-1.2 1.1c-.4 .5-.6 .8-.6 1c0 .3 .3 .5 1 .7c.7 .1 1.4 .2 2.1 .2c.4 0 .9-.1 1.4-.4c.4-.2 1.1-.7 2-1.3Zm603.4-.4c1.6 0 2.9 1.1 4 3.2c1.1 2.2 1.7 4.8 1.7 7.9v7.7c0 3.4-1.4 6.8-4.3 10.1c-2.9 3.3-5.8 5-8.6 5c-1.7 0-3.5-.5-5.4-1.6c-2-1-5-3.1-9-6.2l1.2-1.7c2.1 1.4 3.9 2.4 5.3 2.8c1.1 .4 2.4 .6 3.8 .6c1.9 0 3.9-.5 5.7-1.6c2.3-1.3 4.6-3.3 7-6.1c-.9 .1-1.6 .1-2.1 .1c-2 0-3.6-.6-4.7-1.9c-1.2-1.2-1.8-3-1.8-5.2c0-3 .7-5.9 2.1-8.6c1.5-3 3.2-4.5 5.1-4.5Zm-364.4-.5c1.5 1.7 2.5 3.5 3 5.3c.6 1.9 .8 4.6 .8 8.2v7.8H676.5l-.7 3.1c-.7 1.7-1.8 3.3-3.2 5c-2.9 3.3-5.8 5-8.6 5c-1.7 0-3.5-.5-5.4-1.6c-2-1-5-3.1-9-6.2l1.2-1.7c2.1 1.4 3.9 2.4 5.3 2.8c1.1 .4 2.4 .6 3.8 .6c1.9 0 3.9-.5 5.7-1.6c2.3-1.3 4.6-3.3 7-6.1c-.9 .1-1.6 .1-2.1 .1c-2 0-3.6-.6-4.7-1.9c-1.2-1.2-1.8-3-1.8-5.2c0-3 .7-5.9 2.1-8.6c1.5-3 3.2-4.5 5.1-4.5c1.6 0 2.9 1.1 4 3.2c1.1 2.2 1.7 4.8 1.7 7.9v1.6h21.3c-.3-1.3-.7-2.5-1.2-3.4c-.3-.5-1-1.4-2.1-2.7Zm313.2-.8c2.8 0 5 .6 6.6 1.7c1.5 1 2.3 2.5 2.3 4.4c0 1-.2 2-.6 2.9c-.4 .9-1.2 2.2-2.4 3.8c.3 .4 .7 .7 1.2 .9c.5 .2 .9 .3 1.4 .3h18c-.3-1.3-.7-2.5-1.2-3.4c-.3-.5-1-1.4-2.1-2.7l2.4-7.1c1.5 1.7 2.5 3.5 3 5.3c.6 1.9 .8 4.6 .8 8.2v7.8H1019c-1.6 0-3-.3-4.2-.9c-1.2-.7-2.1-1.7-2.9-3.1c-1.3 1.6-3 2.7-5 3.4c-1.4 .4-2.9 .6-4.5 .6H977.2v.7c0 1.2-.7 2.8-2.1 4.8c-1.4 2-3 3.8-4.9 5.2c-2.1 1.7-3.8 2.5-5.3 2.5c-1.8 0-3.6-.5-5.6-1.5c-1.8-.9-4.5-2.6-8.2-5.1l1.2-1.9c1.8 1.2 3.2 2 4.3 2.4c1.1 .4 2.3 .6 3.6 .6c1.4 0 2.7-.4 4.1-1.1c1.4-.8 3.2-2.2 5.6-4.3c3.3-3 5-5.2 5-6.8c0-.8-.4-1.9-1-3.2c-.7-1.4-1.6-2.7-2.6-3.6L973 315c1.3 1.4 2.3 3 3.1 4.8c.7 1.8 1.1 3.9 1.1 6.2v.3h21.3c-.3-1.3-.7-2.5-1.2-3.4c-.3-.5-1-1.4-2.1-2.7l2.4-7.1c1.5 1.7 2.5 3.5 3 5.3c.5 1.6 .8 3.9 .8 6.9v1h1c1.7 0 2.8-.1 3.5-.2c.6-.2 1.5-.6 2.7-1.2c-.6-1.2-1.1-2-1.6-2.5c-.5-.6-1.1-.9-1.6-.9c-.3 0-.5 0-.7 .2c-.1 .1-.4 .4-.6 .8l-1.3-.2c0-3.5 .6-6.1 1.9-7.7c1.2-1.5 3.2-2.3 5.8-2.3Zm-197.2 0c2.7 0 4.9 .6 6.5 1.7c1.6 1 2.4 2.5 2.4 4.4c0 1-.2 2-.7 2.9c-.4 .9-1.2 2.2-2.3 3.8c.3 .4 .6 .7 1.1 .9c.5 .2 1 .3 1.4 .3h18c-.2-1.3-.6-2.5-1.2-3.4c-.3-.5-1-1.4-2.1-2.7l2.4-7.1c1.5 1.7 2.5 3.5 3.1 5.3c.5 1.9 .8 4.6 .8 8.2v7.8h-21c-1.6 0-3-.3-4.2-.9c-1.1-.7-2.1-1.7-2.8-3.1c-.9 1-1.8 1.8-2.9 2.4l-.1 .1v1.5H764.5c0 4.7-1.5 8-4.4 10c-2.6 1.8-6.4 2.6-11.6 2.6c-4.8 0-8.6-.9-11.2-2.6c-2.6-1.8-3.9-4.3-3.9-7.5c0-2.8 .4-5.3 1.3-7.6c.9-2.5 2.7-5.8 5.3-9.8l1.8 1.2c-2 3.4-3.2 5.8-3.9 7.3c-.5 1.6-.9 3.1-.9 4.7c0 2.1 1.2 3.8 3.4 5.1c2.2 1.4 5.2 2 8.8 2c3.6 0 6.6-.7 9-2c2.5-1.4 3.7-3.1 3.7-5.1c0-1.2-.2-2.4-.6-3.6c-.5-1.3-1.4-3.2-2.8-5.9l2.6-8c1.1 2.1 1.7 3.3 1.9 3.6c.6 1.2 1 2.4 1.2 3.4c.2 1.1 .3 2.5 .3 4.1c1.3 0 2.5-.3 3.5-1c.2-.1 1.1-.7 3-2.1l10.7-7.6c1.6-1.2 2.9-1.9 3.7-2.4c1.2-.5 2.3-.8 3.5-.8c2.2 0 4 .8 5.3 2.4c1.4 1.8 2.2 4.5 2.2 8.2v3.3h8.7c1.7 0 2.9-.1 3.5-.2c.7-.2 1.6-.6 2.7-1.2c-.6-1.2-1.1-2-1.5-2.5c-.6-.6-1.1-.9-1.7-.9c-.2 0-.4 0-.6 .2c-.2 .1-.4 .4-.7 .8l-1.3-.2c0-3.5 .6-6.1 1.9-7.7c1.2-1.5 3.2-2.3 5.9-2.3Zm-513.9 0c2.8 0 4.9 .6 6.5 1.7c1.6 1 2.4 2.5 2.4 4.4c0 1-.2 2-.7 2.9c-.4 .9-1.1 2.2-2.3 3.8c.3 .4 .7 .7 1.1 .9c.5 .2 1 .3 1.4 .3h18c-.2-1.3-.6-2.5-1.2-3.4c-.3-.5-1-1.4-2.1-2.7l2.4-7.1c1.5 1.7 2.5 3.5 3.1 5.3c.5 1.9 .8 4.6 .8 8.2v7.8h-21c-1.6 0-2.9-.3-4.1-.9c-1.2-.7-2.2-1.7-2.9-3.1c-.8 1-1.8 1.8-2.9 2.4v1.6H250.6c0 4.7-1.4 8-4.4 10c-2.5 1.8-6.4 2.6-11.6 2.6c-4.8 0-8.5-.9-11.2-2.6c-2.6-1.8-3.9-4.3-3.9-7.5c0-2.8 .4-5.3 1.3-7.6c.9-2.5 2.7-5.8 5.3-9.8l1.8 1.2c-1.9 3.4-3.2 5.8-3.8 7.3c-.6 1.6-.9 3.1-.9 4.7c0 2.1 1.1 3.8 3.3 5.1c2.3 1.4 5.2 2 8.8 2c3.6 0 6.6-.7 9.1-2c2.4-1.4 3.6-3.1 3.6-5.1c0-1.2-.2-2.4-.6-3.6c-.4-1.3-1.4-3.2-2.8-5.9l2.6-8c1.1 2.1 1.8 3.3 1.9 3.6c.6 1.2 1 2.4 1.2 3.4c.2 1.1 .3 2.5 .3 4.1c1.3 0 2.5-.3 3.6-1c.1-.1 1.1-.7 2.9-2.1l10.7-7.6c1.7-1.2 2.9-1.9 3.7-2.4c1.2-.5 2.4-.8 3.5-.8c2.3 0 4 .8 5.3 2.4c1.5 1.8 2.2 4.5 2.2 8.2v3.3h8.8c1.6 0 2.8-.1 3.4-.2c.7-.2 1.6-.6 2.7-1.2c-.6-1.2-1.1-2-1.5-2.5c-.5-.6-1.1-.9-1.7-.9c-.2 0-.4 0-.6 .2c-.2 .1-.4 .4-.6 .8l-1.3-.2c0-3.5 .6-6.1 1.8-7.7c1.3-1.5 3.2-2.3 5.9-2.3Zm615.1-4c2.2 0 4.3 .7 6.3 2.2c1.9 1.3 3.2 3 4.1 4.9l-1.3 1c-1.6-.5-2.8-.9-3.7-1.1c-1-.2-2.1-.3-3.4-.3c-2.5 0-4.6 .2-6.5 .6c-2.2 .5-3.4 1.2-3.4 2.2c0 1.3 2.8 3.6 8.3 6.8l15.2-4.4l-3.4 8.5c-5.3 1.6-9.8 2.9-13.3 3.8c-1.5 .4-2.9 .7-4.2 1l-1 .2v.7H892.8v.5c-.1 1.9-.3 3.4-.7 4.7c-.6 1.6-1.5 3-2.7 4c-1.2 1-3 1.8-5.4 2.5c-2.3 .6-4.7 .9-7.2 .9c-4.9 0-8.6-.9-11.2-2.6c-2.6-1.8-3.9-4.3-3.9-7.5c0-2.8 .4-5.3 1.2-7.6c1-2.5 2.7-5.8 5.4-9.8l1.8 1.2c-2 3.4-3.3 5.8-3.9 7.3c-.6 1.6-.9 3.1-.9 4.7c0 2.1 1.1 3.8 3.4 5.1c2.2 1.4 5.1 2 8.8 2c3.6 0 6.6-.7 9-2c2.5-1.4 3.7-3.1 3.7-5.1c0-1.2-.2-2.4-.7-3.6c-.4-1.3-1.3-3.2-2.7-5.9l2.6-8c1.4 2.5 2.3 4.3 2.6 5.2c.5 1.5 .8 3.4 .8 5.6v.3h8.9c.5 0 1 0 1.2 0c.6-.1 1.2-.1 1.8-.2c-1-1.5-1.6-2.7-2-3.6c-.3-.9-.5-2-.5-3.1c0-3 1.2-5.6 3.7-7.8c2.4-2.2 5.3-3.3 8.6-3.3Zm-296.9-1.4c2.2 0 4.2 .4 6 1.5c1.9 1 3.5 2.4 4.7 4.3c-.6 0-1.1 0-1.7 0c-.5-.1-1.1-.1-1.7-.1c-4.1 0-7.4 .3-9.9 1c-2.6 .6-3.8 1.5-3.8 2.5c0 .9 .4 1.7 1.3 2.5c1 1 2.7 2 5 3c2.7-1.2 4.8-2 6.3-2.4c1.5-.5 3.8-1.1 6.9-1.8c-.6 1.7-1 3-1.3 3.8c-.4 .9-.9 2.1-1.6 3.5c-6.1 1.5-10.8 3.5-14.4 6c-3.5 2.6-5.3 5.3-5.3 8.2c0 2.7 1.5 4.8 4.6 6.3c3.5 1.7 8.9 2.5 16.3 2.5h.8c1.1 0 2 0 2.5-.1c.6 0 1.6-.1 3-.2l.5 1.2l-11.2 7h-3.1c-5.5 0-9.7-1.2-12.5-3.5c-2.9-2.4-4.3-5.9-4.3-10.5c0-3 .4-5.6 1.2-7.8c.9-2.6 2.3-4.8 4.2-6.7c-1-1.2-1.9-2.5-2.6-4c-.8-1.5-1.2-2.7-1.2-3.6c0-1.1 .5-2.8 1.3-5.1c.9-2.2 1.7-3.8 2.5-4.8c.7-.8 1.7-1.5 3.1-2c1.4-.5 2.8-.7 4.4-.7Zm817.7-.6c2.6 1.9 4.4 4.4 5.5 7.4c1 2.8 1.5 6.5 1.5 11.2v9.5h-13.5c-1.3 0-2.3-.3-3-.8c-.9-.7-1.3-1.8-1.3-3.3c0-.9 .1-1.8 .2-2.9c0-1 .2-2 .4-3l1.1-.1c.1 .7 .5 1.2 1 1.5c.6 .4 1.2 .5 2 .5h10.3c-.5-2.9-1.3-5.2-2.4-7c-.9-1.4-2.2-2.7-3.9-3.8Zm-559.2-.5l7 3.7l-3.6 6.7l-7-3.7Zm-378.6-5.9V307c-.1 0-.9 .3-2.5 .8c-1.9 .6-3.5 1.2-4.6 1.7c-1.7 .7-2.5 1.2-2.5 1.5c0 .2 .7 .9 2.1 2.3c1.9 1.9 3.5 3.6 4.9 5.2c2.1 2.5 3.9 5.1 5.2 7.6v8.3H466.6c-.7 0-1.4-.1-2-.4c-1.1-.6-2.1-1.6-2.9-3.2c-1.1-2.1-1.8-5-2.1-8.6c-1.4 1.6-2.4 2.8-3.2 3.5c-1.1 1-2 1.5-2.7 1.5c-.4 0-.9 0-1.4-.1l-3.7-.8c-1.5-.3-2.5-.5-2.8-.6c-.4-.2-.6-.4-.6-.8c0-.5 .7-2.2 2.1-5.1c1.4-2.8 2.4-4.6 3-5.3c.5-.5 1.4-1.2 2.6-2.1c.8-.5 1.9-1.1 3.3-1.9l1.5-1c0-.2-.1-.5-.1-.8c0-.3 0-.6 0-.8c0-.8 .1-1.7 .5-2.9c.3-1.1 1-2.5 1.9-4.2l2.8 18.6c.5 2.9 1.1 4.9 1.8 5.9c.5 .7 1.1 1 2 1h28.8c-.8-.9-1.5-1.7-2.3-2.4c-.6-.6-1.4-1.3-2.4-2.1c-1.1-.8-2.2-1.7-3.4-2.6l-.9 1.1c-1.8-1.8-2.8-2.8-3.2-3.2c-1-1.1-1.5-2.4-1.5-3.9c0-2 .2-3.4 .5-4.2c.3-1.2 1.2-2.2 2.5-3.1c1.1-.8 2.4-1.5 3.7-2.2c1-.5 2.4-1.1 4.1-1.8c.8-.3 2.5-1 5-2Zm661.5-.4l5.5 3.1l-3.1 5.7l-4.4-2.2l-2.5 4.9l-5.4-3.1l3.2-6.1l4.3 2.4Zm-385-.8l6.9 3.7l-3.6 6.7l-6.9-3.7Zm-513.9 0l6.9 3.7l-3.5 6.7l-7-3.7Zm434.3-.4l6.9 3.7l-3.6 6.6l-6.9-3.6Zm-528 0l6.9 3.7l-3.6 6.6l-6.9-3.6Zm1283.5-.1l1.7 10.6c.7 4 1.2 7.5 1.4 10.4c.2 2.3 .3 4.5 .3 6.6c0 1.7-.2 3.3-.6 4.8c-.4 1.4-1.2 3.4-2.4 5.9l-1.8-.7c.5-2.6 .7-4.6 .7-6.2c0-1.2-.1-3-.3-5.4c-.2-2.3-.4-4.6-.7-6.9c-.3-2.3-.8-5.1-1.5-8.2c-.2-1.2-.4-1.9-.4-2.3c0-.7 .4-1.7 1-3.2c.6-1.5 1.4-3.3 2.6-5.4Zm-132.8 0l1.8 10.6c.7 4 1.1 7.5 1.4 10.4c.2 2.3 .3 4.5 .3 6.6c0 1.7-.2 3.3-.6 4.8c-.5 1.4-1.3 3.4-2.5 5.9l-1.7-.7c.4-2.6 .7-4.6 .7-6.2c0-1.2-.1-3-.3-5.4c-.2-2.3-.5-4.6-.8-6.9c-.3-2.3-.8-5.1-1.4-8.2c-.3-1.2-.4-1.9-.4-2.3c0-.7 .3-1.7 .9-3.2c.6-1.5 1.5-3.3 2.6-5.4Zm-130.3 0l1.8 10.6c.6 4 1.1 7.5 1.3 10.4c.2 2.3 .3 4.5 .3 6.6c0 1.7-.2 3.3-.6 4.8c-.4 1.4-1.2 3.4-2.4 5.9l-1.8-.7c.5-2.6 .7-4.6 .7-6.2c0-1.2-.1-3-.3-5.4c-.2-2.3-.4-4.6-.7-6.9c-.3-2.3-.8-5.1-1.5-8.2c-.2-1.2-.4-1.9-.4-2.3c0-.7 .4-1.7 1-3.2c.6-1.5 1.5-3.3 2.6-5.4Zm-478.1 0l1.8 10.6c.7 4 1.1 7.5 1.4 10.4c.2 2.3 .3 4.5 .3 6.6c0 1.7-.3 3.3-.7 4.8c-.4 1.4-1.2 3.4-2.4 5.9l-1.8-.7c.5-2.6 .7-4.6 .7-6.2c0-1.2-.1-3-.3-5.4c-.2-2.3-.4-4.6-.7-6.9c-.3-2.3-.8-5.1-1.5-8.2c-.2-1.2-.3-1.9-.3-2.3c0-.7 .3-1.7 .9-3.2c.6-1.5 1.5-3.3 2.6-5.4Zm-65 0l1.8 10.6c.7 4 1.1 7.5 1.4 10.4c.2 2.3 .3 4.5 .3 6.6c0 1.7-.2 3.3-.6 4.8c-.4 1.4-1.3 3.4-2.4 5.9l-1.8-.7c.4-2.6 .7-4.6 .7-6.2c0-1.2-.1-3-.3-5.4c-.2-2.3-.5-4.6-.8-6.9c-.3-2.3-.7-5.1-1.4-8.2c-.3-1.2-.4-1.9-.4-2.3c0-.7 .3-1.7 .9-3.2c.7-1.5 1.5-3.3 2.6-5.4Zm-63.4 0l1.8 10.6c.7 4 1.1 7.5 1.4 10.4c.2 2.3 .3 4.5 .3 6.6c0 1.7-.3 3.3-.7 4.8c-.4 1.4-1.2 3.4-2.4 5.9l-1.8-.7c.5-2.6 .8-4.6 .8-6.2c0-1.2-.2-3-.4-5.4c-.2-2.3-.4-4.6-.7-6.9c-.3-2.3-.8-5.1-1.5-8.2c-.2-1.2-.3-1.9-.3-2.3c0-.7 .3-1.7 .9-3.2c.6-1.5 1.5-3.3 2.6-5.4Zm-385.4 0l1.8 10.6c.7 4 1.1 7.5 1.4 10.4c.2 2.3 .3 4.5 .3 6.6c0 1.7-.2 3.3-.6 4.8c-.4 1.4-1.3 3.4-2.4 5.9l-1.8-.7c.4-2.6 .7-4.6 .7-6.2c0-1.2-.1-3-.3-5.4c-.2-2.3-.5-4.6-.8-6.9c-.3-2.3-.7-5.1-1.4-8.2c-.3-1.2-.4-1.9-.4-2.3c0-.7 .3-1.7 .9-3.2c.7-1.5 1.5-3.3 2.6-5.4Zm1108.4-2.3l1.4 .7c0 .1 0 .4-.1 1c0 .6 .4 1.2 1.2 1.9c.8 .5 1.9 1.1 3.6 1.8c-.2 1.3-.5 2.5-.8 3.7c-.4 1.2-.8 2.3-1.2 3.3l-1.1-.4l3.3 18.4v8.1h-14.3v.7c0 1.2-.7 2.8-2.1 4.8c-1.4 2-3.1 3.8-4.9 5.2c-2.1 1.7-3.9 2.5-5.3 2.5c-1.8 0-3.7-.5-5.7-1.5c-1.7-.9-4.4-2.6-8.1-5.1l1.2-1.9c1.8 1.2 3.2 2 4.3 2.4c1.1 .4 2.3 .6 3.6 .6c1.3 0 2.7-.4 4.1-1.1c1.4-.8 3.2-2.2 5.6-4.3c3.3-3 4.9-5.2 4.9-6.8c0-.8-.3-1.9-.9-3.2c-.7-1.4-1.6-2.7-2.6-3.6l1.6-8.1c1.4 1.4 2.4 3 3.2 4.8c.7 1.8 1.1 3.9 1.1 6.2v.3H1306l-3.6-20.2l-1.9-1.3c0-1.2 .1-2.3 .5-3.5c.5-1.5 1.2-3.3 2.3-5.4Zm-130.3 0l1.4 .7c0 .1-.1 .4-.2 1c0 .6 .4 1.2 1.3 1.9c.7 .5 1.9 1.1 3.5 1.8c-.2 1.3-.4 2.5-.8 3.7c-.3 1.2-.7 2.3-1.2 3.3l-1-.4l3.2 18.4v8.1h-35c-2.3 0-4-.9-5-2.8c-1.2-2.1-1.7-5.7-1.7-10.7v-8.5c0-1.9-.3-3.4-.8-4.5c-.3-.5-.9-1.2-1.8-2.2l3.2-7.5c1.1 1.6 2 3.2 2.4 4.7c.6 1.8 .8 4.2 .8 7v5.8c0 4.2 .3 7.1 .9 8.7c.4 1.3 1.1 1.9 2 1.9H1162c-.2-1.3-.6-2.5-1.2-3.4c-.3-.5-1-1.4-2.1-2.7l2.4-7.1c1.5 1.7 2.5 3.5 3.1 5.3c.4 1.6 .7 3.9 .8 6.9v1h10.6l-3.6-20.2l-1.9-1.3c0-1.2 .2-2.3 .6-3.5c.4-1.5 1.2-3.3 2.3-5.4Zm-45.1 0l1.4 .7c0 .1-.1 .4-.2 1c0 .6 .4 1.2 1.3 1.9c.7 .5 1.9 1.1 3.5 1.8c-.2 1.3-.4 2.5-.8 3.7c-.3 1.2-.7 2.3-1.2 3.3l-1-.4l3.2 18.4v8.1h-17.3c-.9 0-1.6 0-2 .1c-.3 0-.5 .1-.5 .4c.5 .3 1.1 .5 1.6 .7c.5 .1 .8 .3 1 .5c.1 .2 .2 .5 .2 1c0 1.4-.4 3.1-1.2 5c-.8 2-1.6 3.2-2.3 3.7c-.8 .6-3 1.3-6.6 2.1c-3.6 .8-6.8 1.2-9.4 1.2c-3.7 0-6.7-.8-9-2.3c-2.3-1.6-3.5-3.6-3.5-6.1c0-2.4 .5-4.7 1.5-6.9c1.3-2.7 3.5-6.1 6.9-10.1l1.7 1.2c-2 2.5-3.5 4.6-4.3 6.2c-.8 1.6-1.2 3.1-1.2 4.7c0 2.1 .9 3.7 2.6 4.7c1.8 1 4.5 1.5 8.2 1.5c1.9 0 4.5-.3 7.9-1c3.4-.7 5.1-1.3 5.1-1.8c0-.3-.7-.5-1.9-.7c-1.3-.2-2.8-.3-4.3-.3c-2.3 0-3.4-.5-3.4-1.5c0-.4 .3-1.3 .8-2.4c.4-.8 .8-1.7 1.2-2.5c.7-1.6 2.1-2.9 4.2-4c2-1 4.2-1.5 6.5-1.5h13.9l-3.6-20.2l-1.9-1.3c0-1.2 .2-2.3 .6-3.5c.4-1.5 1.2-3.3 2.3-5.4Zm-561.4 0l1.4 .7c0 .1-.1 .4-.1 1c0 .6 .4 1.2 1.2 1.9c.8 .5 1.9 1.1 3.5 1.8c-.1 1.3-.4 2.5-.8 3.7c-.3 1.2-.7 2.3-1.1 3.3l-1.1-.4l3.2 18.4v8.1H526.5v.7c0 1.2-.7 2.8-2 4.8c-1.4 2-3.1 3.8-4.9 5.2c-2.1 1.7-3.9 2.5-5.3 2.5c-1.8 0-3.7-.5-5.7-1.5c-1.7-.9-4.4-2.6-8.2-5.1l1.3-1.9c1.8 1.2 3.2 2 4.3 2.4c1.1 .4 2.3 .6 3.6 .6c1.3 0 2.7-.4 4.1-1.1c1.3-.8 3.2-2.2 5.6-4.3c3.3-3 4.9-5.2 4.9-6.8c0-.8-.3-1.9-.9-3.2c-.8-1.4-1.6-2.7-2.7-3.6l1.7-8.1c1.4 1.4 2.4 3 3.1 4.8c.8 1.8 1.1 3.9 1.1 6.2v.3h19.1c-2.4-2.5-4.6-4.3-6.6-5.3c-1.8-1-3.6-1.5-5.3-1.5c-.6 0-1 0-1.5 .1c-.4 0-1 .1-1.8 .3c1.1-2.5 2.3-4.4 3.6-5.5c1.4-1.2 2.9-1.8 4.6-1.8c1.3 0 2.6 .3 3.8 .9c1.2 .7 2.6 1.7 4.1 3.1c1.2 1.1 2.9 2.8 5 5.2c1.5 1.7 2.7 2.8 3.4 3.3c.8 .5 2 .9 3.6 1.2h10.7l-3.6-20.2l-2-1.3c0-1.2 .2-2.3 .6-3.5c.5-1.5 1.2-3.3 2.3-5.4Zm-144.6 0l1.3 .7c0 .1 0 .4-.1 1c0 .6 .4 1.2 1.3 1.9c.7 .5 1.9 1.1 3.5 1.8c-.2 1.3-.5 2.5-.8 3.7c-.4 1.2-.7 2.3-1.2 3.3l-1.1-.4l3.3 18.4v8.1H392.6c-1.3 0-2.3-.3-3-.8c-.9-.7-1.3-1.8-1.3-3.3c0-.9 .1-1.8 .2-2.9c0-1 .2-2 .4-3l1.1-.1c.1 .7 .5 1.2 1 1.5c.6 .4 1.2 .5 2 .5h10.3c-.5-2.9-1.3-5.2-2.4-7c-.9-1.4-2.2-2.7-3.9-3.8l2.1-9.2c2.6 1.9 4.4 4.4 5.5 7.4c1 2.8 1.5 6.5 1.5 11.2v1.4h18.4l-3.6-20.2l-1.9-1.3c0-1.2 .2-2.3 .5-3.5c.5-1.5 1.3-3.3 2.4-5.4Zm-240.8 0l1.4 .7c0 .1 0 .4-.1 1c0 .6 .4 1.2 1.3 1.9c.7 .5 1.9 1.1 3.5 1.8c-.2 1.3-.5 2.5-.8 3.7c-.4 1.2-.8 2.3-1.2 3.3l-1.1-.4l3.3 18.4v8.1H135.9c-2.3 0-4-.9-5-2.8c-1.2-2.1-1.8-5.7-1.8-10.7v-8.5c0-1.9-.2-3.4-.8-4.5c-.2-.5-.8-1.2-1.8-2.2l3.3-7.5c1.1 1.6 1.9 3.2 2.4 4.7c.5 1.8 .8 4.2 .8 7v5.8c0 4.2 .3 7.1 .8 8.7c.5 1.3 1.1 1.9 2.1 1.9h17.8c-.3-1.3-.7-2.5-1.2-3.4c-.3-.5-1-1.4-2.1-2.7l2.4-7.1c1.5 1.7 2.5 3.5 3 5.3c.5 1.6 .8 3.9 .8 6.9v1h13.6c-.3-1.3-.7-2.5-1.2-3.4c-.3-.5-1-1.4-2.1-2.7l2.4-7.1c1.5 1.7 2.5 3.5 3 5.3c.5 1.6 .8 3.9 .8 6.9v1h10.7l-3.6-20.2l-1.9-1.3c0-1.2 .2-2.3 .5-3.5c.5-1.5 1.2-3.3 2.3-5.4Zm277.2-6l5.3 2.7l-3.3 5.6l-4.2-2.4l-2.4 4.7l-5.6-3l3.1-5.3l4.5 2.2Zm251.4-.2c.3 0 .6 .1 .9 .3c.2 .3 .3 .6 .3 1c0 .3 0 .6-.1 .8c-.1 .3-.3 .6-.6 1.1c-1-.5-1.6-.8-2-.8c-.4 0-.7 .1-1.1 .3c-.2 .1-.4 .3-.6 .5c0 .2 .4 .6 1.4 1.2c.9 .5 1.6 .8 2 .8c.3 0 1-.2 2.2-.5c-.2 .6-.5 1-.8 1.3c-.2 .2-.5 .4-1 .6l-6.4 1.9c.4-.7 .7-1.2 1-1.4c.3-.3 .8-.5 1.6-.8c-.5-.3-.9-.7-1.2-1c-.2-.3-.4-.6-.4-.9c0-.2 .1-.5 .3-.9c.1-.3 .3-.6 .6-.9c1.3-1.8 2.6-2.6 3.9-2.6Z" class="g1_88"/>
<path fill-rule="evenodd" d="M53.3 313.3l1.7 1.1c-.5 .8-.8 1.5-1.1 2.1c-.3 .7-.5 1.2-.7 1.7c-.3 .9-.4 1.8-.4 2.7c0 1.2 .3 2.2 1 3.1c.8 .9 1.7 1.5 2.9 1.8c.7 .1 1.6 .3 2.7 .4c1.1 .1 2.3 .1 3.6 .1H84.5c-.6-1.6-1-2.6-1.4-3.2c-.4-.8-1.1-1.7-2-2.9l2.7-6.9c1.5 2.1 2.5 4.1 2.9 5.8c.4 1.6 .6 3.9 .6 6.9v8.4h-25c-1.2 0-2.2 0-3 0c-.8 0-1.4-.1-1.8-.1c-.8-.1-1.6-.3-2.5-.6c-1.7-.6-3-1.7-4.1-3.4c-1-1.7-1.5-3.6-1.5-5.7c0-.9 0-1.7 .1-2.6c.1-.9 .4-1.8 .7-2.8c.4-1.2 .9-2.3 1.4-3.2c.6-1 1.1-1.9 1.7-2.7Zm17.9-10.2l5.6 3l-3.1 5.8l-4.4-2.2l-2.5 4.8l-5.5-3l3.3-6.1l4.3 2.4Zm48.6-3.6l5.6 3.1l-3.1 5.7l-4.4-2.2l-2.6 4.9l-5.4-3.1l3.3-6.1l4.2 2.4Zm-28.5-1.3c1.1 1.6 1.9 3.2 2.4 4.7c.5 1.8 .8 4.2 .8 7v5.8c0 4.2 .3 7.1 .8 8.7c.5 1.3 1.1 1.9 2.1 1.9h25.5c-.3-1.3-.7-2.5-1.2-3.4c-.3-.5-1-1.4-2.1-2.7l2.4-7.1c1.5 1.7 2.5 3.5 3 5.3c.6 1.9 .8 4.6 .8 8.2v7.8H97.4c-2.3 0-4-.9-5-2.8c-1.2-2.1-1.8-5.7-1.8-10.7v-8.5c0-1.9-.2-3.4-.8-4.5c-.2-.5-.8-1.2-1.8-2.2Z" class="g0_88"/>
<path d="M53.3 313.3l1.7 1.1c-.5 .8-.8 1.5-1.1 2.1c-.3 .7-.5 1.2-.7 1.7c-.3 .9-.4 1.8-.4 2.7c0 1.2 .3 2.2 1 3.1c.8 .9 1.7 1.5 2.9 1.8c.7 .1 1.6 .3 2.7 .4c1.1 .1 2.3 .1 3.6 .1H84.5c-.6-1.6-1-2.6-1.4-3.2c-.4-.8-1.1-1.7-2-2.9l2.7-6.9c1.5 2.1 2.5 4.1 2.9 5.8c.4 1.6 .6 3.9 .6 6.9v8.4h-25c-1.2 0-2.2 0-3 0c-.8 0-1.4-.1-1.8-.1c-.8-.1-1.6-.3-2.5-.6c-1.7-.6-3-1.7-4.1-3.4c-1-1.7-1.5-3.6-1.5-5.7c0-.9 0-1.7 .1-2.6c.1-.9 .4-1.8 .7-2.8c.4-1.2 .9-2.3 1.4-3.2c.6-1 1.1-1.9 1.7-2.7Zm17.9-10.2l5.6 3l-3.1 5.8l-4.4-2.2l-2.5 4.8l-5.5-3l3.3-6.1l4.3 2.4Zm48.6-3.6l5.6 3.1l-3.1 5.7l-4.4-2.2l-2.6 4.9l-5.4-3.1l3.3-6.1l4.2 2.4Zm-28.5-1.3c1.1 1.6 1.9 3.2 2.4 4.7c.5 1.8 .8 4.2 .8 7v5.8c0 4.2 .3 7.1 .8 8.7c.5 1.3 1.1 1.9 2.1 1.9h25.5c-.3-1.3-.7-2.5-1.2-3.4c-.3-.5-1-1.4-2.1-2.7l2.4-7.1c1.5 1.7 2.5 3.5 3 5.3c.6 1.9 .8 4.6 .8 8.2v7.8H97.4c-2.3 0-4-.9-5-2.8c-1.2-2.1-1.8-5.7-1.8-10.7v-8.5c0-1.9-.2-3.4-.8-4.5c-.2-.5-.8-1.2-1.8-2.2Z" class="g1_88"/>
<path fill-rule="evenodd" d="M1442.8 406.5h8.4v8.3h-8.4Zm-17 0h8.3v8.3h-8.3Zm-17.1 0h8.4v8.3h-8.4Z" class="g0_88"/>
<path d="M1442.8 406.5h8.4v8.3h-8.4Zm-17 0h8.3v8.3h-8.3Zm-17.1 0h8.4v8.3h-8.4Z" class="g1_88"/>
<path fill-rule="evenodd" d="M1307.2 393.2c-.6 0-1.1 .2-1.5 .7c-.3 .5-.5 1-.5 1.6c0 .7 .4 1.3 1.2 1.8c.7 .5 1.8 .7 3.1 .7h1.1c-.6-3.2-1.7-4.8-3.4-4.8Zm70.8-.2c-.8 0-1.4 .9-2 2.7c1.1 .4 1.8 .7 2.4 .9c1.6 .6 2.5 .9 2.7 .9c.4 0 .7-.2 .7-.4c0-.5-.5-1.2-1.3-2.3c-1-1.2-1.8-1.8-2.5-1.8Zm-261.4-7.3c-.6 .3-1.1 .5-1.5 .7c-1.1 .6-1.9 1.1-2.6 1.6c-.5 .4-.9 .8-1.2 1.1c-.4 .5-.6 .8-.6 1c0 .3 .4 .5 1.1 .7c.7 .1 1.4 .2 2 .2c.5 0 .9-.1 1.4-.4c.5-.2 1.1-.7 2-1.3Zm210.2-.9c1.5 1.7 2.5 3.5 3.1 5.3c.5 1.9 .8 4.6 .8 8.2v7.8H1314l-.1 .5c-.5 2.6-1.9 5.1-4.1 7.6c-2.9 3.3-5.7 5-8.6 5c-1.6 0-3.4-.5-5.4-1.6c-1.9-1-4.9-3.1-9-6.2l1.3-1.7c2.1 1.4 3.9 2.3 5.2 2.8c1.2 .4 2.5 .6 3.9 .6c1.9 0 3.8-.5 5.7-1.6c2.2-1.3 4.5-3.3 6.9-6.1c-.8 .1-1.5 .1-2.1 .1c-1.9 0-3.5-.6-4.7-1.9c-1.1-1.3-1.7-3-1.7-5.2c0-3 .7-5.9 2.1-8.6c1.4-3 3.1-4.5 5.1-4.5c1.5 0 2.9 1.1 4 3.2c1.1 2.2 1.7 4.8 1.7 7.9V398h13.5c-.2-1.4-.6-2.5-1.2-3.4c-.3-.5-1-1.4-2.1-2.7Zm-58.7-6.3c2.1 0 4.2 .5 6 1.5c1.9 1 3.4 2.5 4.7 4.4c-.6 0-1.2 0-1.7-.1c-.5 0-1.1 0-1.7 0c-4.1 0-7.4 .3-10 .9c-2.5 .7-3.8 1.6-3.8 2.6c0 .9 .5 1.7 1.3 2.5c1.1 1 2.7 2 5 3c2.8-1.2 4.9-2 6.4-2.5c1.4-.4 3.7-1 6.8-1.7c-.5 1.7-1 3-1.3 3.8c-.3 .9-.9 2.1-1.5 3.5c-6.1 1.4-10.9 3.5-14.4 6c-3.5 2.6-5.3 5.3-5.3 8.2c0 2.7 1.5 4.8 4.5 6.3c3.5 1.6 9 2.5 16.4 2.5h.7c1.2 0 2 0 2.6-.1c.5 0 1.5-.1 3-.2l.5 1.2l-11.3 6.9l-3 .1c-5.5 0-9.7-1.2-12.6-3.6c-2.8-2.3-4.2-5.8-4.2-10.4c0-3 .4-5.6 1.2-7.8c.8-2.6 2.2-4.9 4.2-6.7c-1-1.2-1.9-2.5-2.7-4c-.7-1.5-1.1-2.7-1.1-3.6c0-1.2 .4-2.9 1.3-5.1c.8-2.2 1.7-3.8 2.5-4.8c.7-.8 1.7-1.5 3.1-2c1.3-.5 2.8-.8 4.4-.8Zm-119.9-6.9v7.1c-.1 0-.9 .3-2.5 .8c-2 .6-3.5 1.2-4.7 1.7c-1.6 .6-2.5 1.1-2.5 1.5c0 .2 .7 .9 2.2 2.3c1.9 1.9 3.5 3.6 4.8 5.1c2.2 2.6 3.9 5.2 5.3 7.7v8.3h-25.9c-.7 0-1.4-.1-2-.4c-1.1-.6-2.1-1.7-2.9-3.2c-1-2.1-1.7-5-2.1-8.6c-1.3 1.6-2.4 2.8-3.1 3.5c-1.1 1-2 1.5-2.8 1.5c-.3 0-.8 0-1.4-.1l-3.6-.8c-1.6-.3-2.5-.5-2.9-.7c-.3-.1-.5-.4-.5-.7c0-.5 .7-2.2 2-5.1c1.4-2.8 2.4-4.6 3-5.3c.5-.5 1.4-1.2 2.7-2.1c.8-.5 1.8-1.1 3.2-2l1.6-.9c-.1-.3-.1-.5-.1-.8c-.1-.3-.1-.6-.1-.9c0-.7 .2-1.7 .5-2.8c.4-1.1 1-2.6 1.9-4.2l2.9 18.5c.4 3 1 5 1.7 6c.5 .7 1.2 1 2 1H1146c-.7-.9-1.5-1.8-2.2-2.4c-.6-.6-1.4-1.3-2.4-2.1c-1.2-.8-2.3-1.7-3.4-2.6l-1 1.1c-1.7-1.8-2.8-2.8-3.1-3.2c-1-1.1-1.5-2.4-1.5-3.9c0-2 .1-3.4 .4-4.3c.4-1.1 1.3-2.1 2.5-3c1.2-.8 2.4-1.5 3.7-2.2c1.1-.5 2.4-1.1 4.1-1.8c.8-.3 2.5-1 5.1-2Zm175.7-1.6l7 3.6l-3.6 6.7l-7-3.6Zm27.8-.1c1.1 1.6 1.9 3.2 2.4 4.7c.5 1.8 .8 4.1 .8 6.9v5.9c0 4.2 .3 7.1 .8 8.7c.5 1.2 1.2 1.9 2.1 1.9h8c1.8 0 3.2-.2 4.3-.7c1.3-.5 2.2-1.5 2.8-2.8c1.1-2.6 2.5-4.7 4.3-6.3c1.6-1.4 2.9-2.2 4-2.2c1 0 2.3 1.6 3.8 4.6c1.5 3.3 2.3 6.3 2.3 9v6.5c-2.1 0-4.5-.4-7.3-1.2c-2.5-.8-4.7-1.6-6.6-2.6c-1.1 1.8-2.6 2.9-4.3 3.4c-.8 .3-1.9 .4-3.3 .4h-8c-2.3 0-4-.9-5-2.9c-1.2-2.1-1.8-5.6-1.8-10.6v-8.5c0-1.9-.2-3.4-.8-4.5c-.2-.5-.8-1.3-1.7-2.2Zm-120.7 0l1.7 10.6c.7 4 1.2 7.5 1.4 10.4c.2 2.3 .3 4.4 .3 6.5c0 1.8-.2 3.4-.6 4.9c-.4 1.4-1.2 3.4-2.4 5.9l-1.8-.8c.5-2.5 .7-4.6 .7-6.2c0-1.2-.1-2.9-.3-5.3c-.2-2.3-.4-4.7-.8-6.9c-.2-2.4-.7-5.1-1.4-8.3c-.2-1.1-.4-1.8-.4-2.3c0-.6 .4-1.6 1-3.1c.6-1.5 1.4-3.3 2.6-5.4Zm-13.8-2.3l1.3 .7c0 .1 0 .4-.1 .9c0 .7 .4 1.3 1.3 1.9c.7 .6 1.9 1.2 3.5 1.9c-.2 1.3-.5 2.5-.8 3.7c-.4 1.2-.7 2.3-1.2 3.3l-1.1-.5l3.3 18.5v8.1h-46.2v.7c0 1.2-.7 2.8-2.1 4.8c-1.4 2-3 3.7-4.9 5.2c-2 1.6-3.8 2.5-5.3 2.5c-1.7 0-3.6-.6-5.6-1.5c-1.8-.9-4.5-2.6-8.2-5.2l1.2-1.8c1.8 1.2 3.3 2 4.4 2.4c1 .4 2.2 .6 3.5 .6c1.4 0 2.7-.4 4.1-1.1c1.4-.8 3.3-2.2 5.6-4.4c3.3-2.9 5-5.2 5-6.8c0-.7-.3-1.8-1-3.1c-.7-1.5-1.6-2.7-2.6-3.7l1.7-8c1.3 1.4 2.4 3 3.1 4.8c.7 1.8 1.1 3.9 1.1 6.2v.3h19.1c-2.4-2.5-4.6-4.3-6.7-5.4c-1.8-.9-3.6-1.4-5.3-1.4c-.5 0-1 0-1.4 0c-.4 .1-1.1 .2-1.9 .4c1.1-2.5 2.3-4.4 3.7-5.6c1.3-1.2 2.8-1.7 4.6-1.7c1.3 0 2.5 .3 3.7 .9c1.2 .6 2.6 1.7 4.1 3.1c1.2 1.1 2.9 2.8 5.1 5.2c1.5 1.7 2.6 2.7 3.4 3.2c.8 .5 2 1 3.5 1.3h10.7l-3.6-20.2l-1.9-1.3c0-1.2 .2-2.3 .5-3.5c.5-1.6 1.3-3.4 2.4-5.4Zm-100.6-6.1l5.3 2.8l-3.2 5.6l-4.3-2.4l-2.4 4.7l-5.5-3.1l3.1-5.2l4.4 2.2Z" class="g0_88"/>
<path d="M1307.2 393.2c-.6 0-1.1 .2-1.5 .7c-.3 .5-.5 1-.5 1.6c0 .7 .4 1.3 1.2 1.8c.7 .5 1.8 .7 3.1 .7h1.1c-.6-3.2-1.7-4.8-3.4-4.8Zm70.8-.2c-.8 0-1.4 .9-2 2.7c1.1 .4 1.8 .7 2.4 .9c1.6 .6 2.5 .9 2.7 .9c.4 0 .7-.2 .7-.4c0-.5-.5-1.2-1.3-2.3c-1-1.2-1.8-1.8-2.5-1.8Zm-261.4-7.3c-.6 .3-1.1 .5-1.5 .7c-1.1 .6-1.9 1.1-2.6 1.6c-.5 .4-.9 .8-1.2 1.1c-.4 .5-.6 .8-.6 1c0 .3 .4 .5 1.1 .7c.7 .1 1.4 .2 2 .2c.5 0 .9-.1 1.4-.4c.5-.2 1.1-.7 2-1.3Zm210.2-.9c1.5 1.7 2.5 3.5 3.1 5.3c.5 1.9 .8 4.6 .8 8.2v7.8H1314l-.1 .5c-.5 2.6-1.9 5.1-4.1 7.6c-2.9 3.3-5.7 5-8.6 5c-1.6 0-3.4-.5-5.4-1.6c-1.9-1-4.9-3.1-9-6.2l1.3-1.7c2.1 1.4 3.9 2.3 5.2 2.8c1.2 .4 2.5 .6 3.9 .6c1.9 0 3.8-.5 5.7-1.6c2.2-1.3 4.5-3.3 6.9-6.1c-.8 .1-1.5 .1-2.1 .1c-1.9 0-3.5-.6-4.7-1.9c-1.1-1.3-1.7-3-1.7-5.2c0-3 .7-5.9 2.1-8.6c1.4-3 3.1-4.5 5.1-4.5c1.5 0 2.9 1.1 4 3.2c1.1 2.2 1.7 4.8 1.7 7.9V398h13.5c-.2-1.4-.6-2.5-1.2-3.4c-.3-.5-1-1.4-2.1-2.7Zm-58.7-6.3c2.1 0 4.2 .5 6 1.5c1.9 1 3.4 2.5 4.7 4.4c-.6 0-1.2 0-1.7-.1c-.5 0-1.1 0-1.7 0c-4.1 0-7.4 .3-10 .9c-2.5 .7-3.8 1.6-3.8 2.6c0 .9 .5 1.7 1.3 2.5c1.1 1 2.7 2 5 3c2.8-1.2 4.9-2 6.4-2.5c1.4-.4 3.7-1 6.8-1.7c-.5 1.7-1 3-1.3 3.8c-.3 .9-.9 2.1-1.5 3.5c-6.1 1.4-10.9 3.5-14.4 6c-3.5 2.6-5.3 5.3-5.3 8.2c0 2.7 1.5 4.8 4.5 6.3c3.5 1.6 9 2.5 16.4 2.5h.7c1.2 0 2 0 2.6-.1c.5 0 1.5-.1 3-.2l.5 1.2l-11.3 6.9l-3 .1c-5.5 0-9.7-1.2-12.6-3.6c-2.8-2.3-4.2-5.8-4.2-10.4c0-3 .4-5.6 1.2-7.8c.8-2.6 2.2-4.9 4.2-6.7c-1-1.2-1.9-2.5-2.7-4c-.7-1.5-1.1-2.7-1.1-3.6c0-1.2 .4-2.9 1.3-5.1c.8-2.2 1.7-3.8 2.5-4.8c.7-.8 1.7-1.5 3.1-2c1.3-.5 2.8-.8 4.4-.8Zm-119.9-6.9v7.1c-.1 0-.9 .3-2.5 .8c-2 .6-3.5 1.2-4.7 1.7c-1.6 .6-2.5 1.1-2.5 1.5c0 .2 .7 .9 2.2 2.3c1.9 1.9 3.5 3.6 4.8 5.1c2.2 2.6 3.9 5.2 5.3 7.7v8.3h-25.9c-.7 0-1.4-.1-2-.4c-1.1-.6-2.1-1.7-2.9-3.2c-1-2.1-1.7-5-2.1-8.6c-1.3 1.6-2.4 2.8-3.1 3.5c-1.1 1-2 1.5-2.8 1.5c-.3 0-.8 0-1.4-.1l-3.6-.8c-1.6-.3-2.5-.5-2.9-.7c-.3-.1-.5-.4-.5-.7c0-.5 .7-2.2 2-5.1c1.4-2.8 2.4-4.6 3-5.3c.5-.5 1.4-1.2 2.7-2.1c.8-.5 1.8-1.1 3.2-2l1.6-.9c-.1-.3-.1-.5-.1-.8c-.1-.3-.1-.6-.1-.9c0-.7 .2-1.7 .5-2.8c.4-1.1 1-2.6 1.9-4.2l2.9 18.5c.4 3 1 5 1.7 6c.5 .7 1.2 1 2 1H1146c-.7-.9-1.5-1.8-2.2-2.4c-.6-.6-1.4-1.3-2.4-2.1c-1.2-.8-2.3-1.7-3.4-2.6l-1 1.1c-1.7-1.8-2.8-2.8-3.1-3.2c-1-1.1-1.5-2.4-1.5-3.9c0-2 .1-3.4 .4-4.3c.4-1.1 1.3-2.1 2.5-3c1.2-.8 2.4-1.5 3.7-2.2c1.1-.5 2.4-1.1 4.1-1.8c.8-.3 2.5-1 5.1-2Zm175.7-1.6l7 3.6l-3.6 6.7l-7-3.6Zm27.8-.1c1.1 1.6 1.9 3.2 2.4 4.7c.5 1.8 .8 4.1 .8 6.9v5.9c0 4.2 .3 7.1 .8 8.7c.5 1.2 1.2 1.9 2.1 1.9h8c1.8 0 3.2-.2 4.3-.7c1.3-.5 2.2-1.5 2.8-2.8c1.1-2.6 2.5-4.7 4.3-6.3c1.6-1.4 2.9-2.2 4-2.2c1 0 2.3 1.6 3.8 4.6c1.5 3.3 2.3 6.3 2.3 9v6.5c-2.1 0-4.5-.4-7.3-1.2c-2.5-.8-4.7-1.6-6.6-2.6c-1.1 1.8-2.6 2.9-4.3 3.4c-.8 .3-1.9 .4-3.3 .4h-8c-2.3 0-4-.9-5-2.9c-1.2-2.1-1.8-5.6-1.8-10.6v-8.5c0-1.9-.2-3.4-.8-4.5c-.2-.5-.8-1.3-1.7-2.2Zm-120.7 0l1.7 10.6c.7 4 1.2 7.5 1.4 10.4c.2 2.3 .3 4.4 .3 6.5c0 1.8-.2 3.4-.6 4.9c-.4 1.4-1.2 3.4-2.4 5.9l-1.8-.8c.5-2.5 .7-4.6 .7-6.2c0-1.2-.1-2.9-.3-5.3c-.2-2.3-.4-4.7-.8-6.9c-.2-2.4-.7-5.1-1.4-8.3c-.2-1.1-.4-1.8-.4-2.3c0-.6 .4-1.6 1-3.1c.6-1.5 1.4-3.3 2.6-5.4Zm-13.8-2.3l1.3 .7c0 .1 0 .4-.1 .9c0 .7 .4 1.3 1.3 1.9c.7 .6 1.9 1.2 3.5 1.9c-.2 1.3-.5 2.5-.8 3.7c-.4 1.2-.7 2.3-1.2 3.3l-1.1-.5l3.3 18.5v8.1h-46.2v.7c0 1.2-.7 2.8-2.1 4.8c-1.4 2-3 3.7-4.9 5.2c-2 1.6-3.8 2.5-5.3 2.5c-1.7 0-3.6-.6-5.6-1.5c-1.8-.9-4.5-2.6-8.2-5.2l1.2-1.8c1.8 1.2 3.3 2 4.4 2.4c1 .4 2.2 .6 3.5 .6c1.4 0 2.7-.4 4.1-1.1c1.4-.8 3.3-2.2 5.6-4.4c3.3-2.9 5-5.2 5-6.8c0-.7-.3-1.8-1-3.1c-.7-1.5-1.6-2.7-2.6-3.7l1.7-8c1.3 1.4 2.4 3 3.1 4.8c.7 1.8 1.1 3.9 1.1 6.2v.3h19.1c-2.4-2.5-4.6-4.3-6.7-5.4c-1.8-.9-3.6-1.4-5.3-1.4c-.5 0-1 0-1.4 0c-.4 .1-1.1 .2-1.9 .4c1.1-2.5 2.3-4.4 3.7-5.6c1.3-1.2 2.8-1.7 4.6-1.7c1.3 0 2.5 .3 3.7 .9c1.2 .6 2.6 1.7 4.1 3.1c1.2 1.1 2.9 2.8 5.1 5.2c1.5 1.7 2.6 2.7 3.4 3.2c.8 .5 2 1 3.5 1.3h10.7l-3.6-20.2l-1.9-1.3c0-1.2 .2-2.3 .5-3.5c.5-1.6 1.3-3.4 2.4-5.4Zm-100.6-6.1l5.3 2.8l-3.2 5.6l-4.3-2.4l-2.4 4.7l-5.5-3.1l3.1-5.2l4.4 2.2Z" class="g1_88"/>
<path fill-rule="evenodd" d="M1067.9 370.4h5.7c3 4.3 5.3 8.8 7 13.6c1.6 4.8 2.5 9.6 2.5 14.6c0 4.1-.7 8.6-2 13.3c-1.5 5.4-3.9 10.6-7.4 15.8H1068c1.6-3.5 2.8-6.3 3.4-8.2c.7-1.8 1.3-4 1.9-6.5c.6-2.4 1-4.8 1.3-7c.3-2.2 .4-4.5 .4-6.8c0-4.7-.5-9.2-1.5-13.4c-1-4.3-2.9-9.4-5.6-15.4Z" class="g0_88"/>
<path d="M1067.9 370.4h5.7c3 4.3 5.3 8.8 7 13.6c1.6 4.8 2.5 9.6 2.5 14.6c0 4.1-.7 8.6-2 13.3c-1.5 5.4-3.9 10.6-7.4 15.8H1068c1.6-3.5 2.8-6.3 3.4-8.2c.7-1.8 1.3-4 1.9-6.5c.6-2.4 1-4.8 1.3-7c.3-2.2 .4-4.5 .4-6.8c0-4.7-.5-9.2-1.5-13.4c-1-4.3-2.9-9.4-5.6-15.4Z" class="g1_88"/>
<path fill-rule="evenodd" d="M1047.1 383.6l-5.4 16.4h10.9l-5.5-16.4Zm.1-7.5c1.2 0 2.1 0 2.8 0c.7 .1 1.3 .1 1.7 .2c.3 .1 .6 .3 .8 .5c.2 .3 .3 .5 .4 .9l11.9 34.2c.3 .7 .4 1.3 .5 1.7c.1 .4 0 .7-.2 1c-.3 .2-.7 .3-1.2 .3c-.6 .1-1.3 .1-2.3 .1c-1 0-1.8 0-2.4 0c-.5-.1-1-.1-1.3-.2c-.3-.1-.5-.2-.6-.4c-.1-.1-.2-.3-.3-.6l-2.6-7.7h-14.5l-2.4 7.5c-.1 .3-.2 .5-.3 .7c-.2 .2-.4 .3-.6 .4c-.3 .2-.8 .2-1.3 .3c-.5 0-1.2 0-2 0c-1 0-1.7 0-2.2-.1c-.5 0-.9-.2-1.1-.4c-.2-.2-.2-.5-.2-1c.1-.4 .2-.9 .5-1.6l11.9-34.3c.1-.3 .2-.6 .4-.8c.1-.2 .4-.4 .7-.5c.4-.1 .9-.1 1.5-.2c.6 0 1.4 0 2.4 0Z" class="g0_88"/>
<path d="M1047.1 383.6l-5.4 16.4h10.9l-5.5-16.4Zm.1-7.5c1.2 0 2.1 0 2.8 0c.7 .1 1.3 .1 1.7 .2c.3 .1 .6 .3 .8 .5c.2 .3 .3 .5 .4 .9l11.9 34.2c.3 .7 .4 1.3 .5 1.7c.1 .4 0 .7-.2 1c-.3 .2-.7 .3-1.2 .3c-.6 .1-1.3 .1-2.3 .1c-1 0-1.8 0-2.4 0c-.5-.1-1-.1-1.3-.2c-.3-.1-.5-.2-.6-.4c-.1-.1-.2-.3-.3-.6l-2.6-7.7h-14.5l-2.4 7.5c-.1 .3-.2 .5-.3 .7c-.2 .2-.4 .3-.6 .4c-.3 .2-.8 .2-1.3 .3c-.5 0-1.2 0-2 0c-1 0-1.7 0-2.2-.1c-.5 0-.9-.2-1.1-.4c-.2-.2-.2-.5-.2-1c.1-.4 .2-.9 .5-1.6l11.9-34.3c.1-.3 .2-.6 .4-.8c.1-.2 .4-.4 .7-.5c.4-.1 .9-.1 1.5-.2c.6 0 1.4 0 2.4 0Z" class="g1_88"/>
<path fill-rule="evenodd" d="M1021.2 370.4h5.7c-2.7 6-4.6 11.1-5.6 15.4c-1.1 4.2-1.6 8.7-1.6 13.4c0 3.2 .3 6.6 .9 10c.6 3.4 1.5 6.7 2.5 9.7c.7 2.1 1.9 5 3.7 8.8H1021c-3-4.6-5.3-9.4-6.9-14.3c-1.6-5-2.4-9.8-2.4-14.4c0-5.7 1-11.2 3-16.3c1.7-4.5 3.8-8.5 6.5-12.3Z" class="g0_88"/>
<path d="M1021.2 370.4h5.7c-2.7 6-4.6 11.1-5.6 15.4c-1.1 4.2-1.6 8.7-1.6 13.4c0 3.2 .3 6.6 .9 10c.6 3.4 1.5 6.7 2.5 9.7c.7 2.1 1.9 5 3.7 8.8H1021c-3-4.6-5.3-9.4-6.9-14.3c-1.6-5-2.4-9.8-2.4-14.4c0-5.7 1-11.2 3-16.3c1.7-4.5 3.8-8.5 6.5-12.3Z" class="g1_88"/>
<path fill-rule="evenodd" d="M980.5 399.1c1.1 0 1.9 .3 2.6 1.1c.7 .7 1 1.6 1 2.6c0 1-.3 1.9-1.1 2.6c-.7 .7-1.6 1.1-2.6 1.1c-1 0-1.8-.4-2.5-1.1c-.7-.7-1.1-1.6-1.1-2.6c0-1 .4-1.9 1.1-2.6c.7-.8 1.6-1.1 2.6-1.1Zm.5-27.7c2.4 0 4.4 .7 6.1 2.1c1.6 1.3 2.5 3.1 2.5 5.3c0 1.2-.4 2.3-1.1 3.3c-.8 1-1.9 1.5-3.1 1.5c-1 0-1.9-.3-2.5-1c-.7-.6-1-1.4-1-2.2c0-1.4 .6-2.4 1.6-3.1c1.1-.7 1.7-1.2 1.7-1.7c0-.6-.3-1.2-1-1.6c-.6-.4-1.4-.6-2.5-.6c-1.3 0-2.3 .3-3.2 1.1c-.8 .7-1.2 1.6-1.2 2.6c0 1 .4 2.2 1.3 3.8c1.2 2.3 2 3.7 2.3 4.4c.8 2.1 1.2 4.4 1.2 6.8c0 1.3-.1 2.8-.3 4.4H980c0-.4 0-.7 .1-.9l.1-1.5c0-1.1-.7-2.3-2.2-3.6c-2.5-2.3-3.9-3.5-4.1-3.8c-1.5-1.8-2.2-3.8-2.2-6c0-2.7 .8-4.9 2.6-6.6c1.8-1.8 4-2.7 6.7-2.7Z" class="g0_88"/>
<path d="M980.5 399.1c1.1 0 1.9 .3 2.6 1.1c.7 .7 1 1.6 1 2.6c0 1-.3 1.9-1.1 2.6c-.7 .7-1.6 1.1-2.6 1.1c-1 0-1.8-.4-2.5-1.1c-.7-.7-1.1-1.6-1.1-2.6c0-1 .4-1.9 1.1-2.6c.7-.8 1.6-1.1 2.6-1.1Zm.5-27.7c2.4 0 4.4 .7 6.1 2.1c1.6 1.3 2.5 3.1 2.5 5.3c0 1.2-.4 2.3-1.1 3.3c-.8 1-1.9 1.5-3.1 1.5c-1 0-1.9-.3-2.5-1c-.7-.6-1-1.4-1-2.2c0-1.4 .6-2.4 1.6-3.1c1.1-.7 1.7-1.2 1.7-1.7c0-.6-.3-1.2-1-1.6c-.6-.4-1.4-.6-2.5-.6c-1.3 0-2.3 .3-3.2 1.1c-.8 .7-1.2 1.6-1.2 2.6c0 1 .4 2.2 1.3 3.8c1.2 2.3 2 3.7 2.3 4.4c.8 2.1 1.2 4.4 1.2 6.8c0 1.3-.1 2.8-.3 4.4H980c0-.4 0-.7 .1-.9l.1-1.5c0-1.1-.7-2.3-2.2-3.6c-2.5-2.3-3.9-3.5-4.1-3.8c-1.5-1.8-2.2-3.8-2.2-6c0-2.7 .8-4.9 2.6-6.6c1.8-1.8 4-2.7 6.7-2.7Z" class="g1_88"/>
<image clip-path="url(#c1_88)" preserveAspectRatio="none" x="1344" y="457" width="108" height="72" href="img/2.jpg"/>
<image clip-path="url(#c2_88)" preserveAspectRatio="none" x="1347" y="550" width="102" height="71" href="img/3.jpg"/>
<image clip-path="url(#c3_88)" preserveAspectRatio="none" x="1347" y="642" width="102" height="74" href="img/4.jpg"/>
<image clip-path="url(#c4_88)" preserveAspectRatio="none" x="1353" y="745" width="96" height="80" href="img/5.jpg"/>
<image clip-path="url(#c5_88)" preserveAspectRatio="none" x="32" y="414" width="552" height="396" href="img/6.jpg"/>
</svg>