<svg viewBox="0 0 1466 825" version="1.1" xmlns="http://www.w3.org/2000/svg">
<defs>
<clipPath id="c0_78"><path d="M-.2 825.3V-.2H1467V825.3Z"/></clipPath>
<clipPath id="c1_78"><path d="M1343.9 529.1V456.4H1452v72.7Z"/></clipPath>
<clipPath id="c2_78"><path d="M1346.3 621.3V549.7h102.9v71.6Z"/></clipPath>
<clipPath id="c3_78"><path d="M1346.4 716.6V641.9h103v74.7Z"/></clipPath>
<clipPath id="c4_78"><path d="M1353 825V744.6h96.2V825Z"/></clipPath>
<clipPath id="c5_78"><path d="M44.2 785.1l-41-297L1018.9 348l41 297L44.2 785.1Z"/></clipPath>
<style>
.g0_78{fill:#F00;}
.g1_78{fill:none;stroke:#000;stroke-width:1.466;stroke-linejoin:round;}
</style>
</defs>
<image clip-path="url(#c0_78)" preserveAspectRatio="none" x="0" y="-7" width="1467" height="840" href="img/1.jpg"/>
<path fill-rule="evenodd" d="M1136.7 335.6l6.9 3.7L1140 346l-7-3.7Zm-46.3-.6l5.5 3l-3.1 5.8l-4.4-2.2l-2.5 4.8l-5.4-3l3.3-6.1l4.2 2.4Zm355.8-15.3c-.8 0-1.4 .9-2 2.7c1.1 .4 1.8 .7 2.4 .9c1.6 .6 2.5 .9 2.7 .9c.4 0 .7-.2 .7-.5c0-.4-.5-1.2-1.3-2.2c-1-1.2-1.8-1.8-2.5-1.8Zm-225.3 0c-.8 0-1.5 .9-2 2.7c1 .4 1.8 .7 2.4 .9c1.6 .6 2.5 .9 2.7 .9c.4 0 .6-.2 .6-.5c0-.4-.4-1.2-1.2-2.2c-1-1.2-1.8-1.8-2.5-1.8Zm3.2-7c1 0 2.3 1.5 3.7 4.6c1.6 3.2 2.4 6.2 2.4 8.9v6.5c-2.1 0-4.5-.4-7.4-1.2c-2.4-.7-4.6-1.5-6.5-2.5c-1.2 1.7-2.6 2.8-4.3 3.4c-.8 .2-1.9 .4-3.3 .4h-3.8v.5c-.2 1.8-.4 3.4-.8 4.6c-.5 1.7-1.4 3-2.6 4c-1.3 1-3.1 1.9-5.4 2.5c-2.4 .7-4.8 1-7.3 1c-4.8 0-8.5-.9-11.2-2.7c-2.6-1.7-3.9-4.2-3.9-7.5c0-2.7 .4-5.2 1.3-7.5c.9-2.5 2.7-5.8 5.3-9.9l1.8 1.3c-2 3.4-3.2 5.8-3.8 7.3c-.6 1.5-.9 3.1-.9 4.7c0 2.1 1.1 3.8 3.3 5.1c2.2 1.3 5.2 2 8.8 2c3.6 0 6.6-.7 9-2.1c2.5-1.4 3.7-3 3.7-5c0-1.3-.2-2.5-.6-3.7c-.5-1.2-1.4-3.1-2.8-5.8l2.6-8.1c1.4 2.6 2.3 4.3 2.6 5.3c.5 1.5 .8 3.3 .9 5.6v.3h3.8c1.8 0 3.2-.3 4.2-.7c1.4-.6 2.3-1.5 2.8-2.9c1.2-2.5 2.6-4.6 4.4-6.2c1.6-1.5 2.9-2.2 4-2.2Zm-209-1.1l1.6 1.1c-.4 .8-.8 1.5-1 2.2c-.3 .6-.6 1.2-.7 1.7c-.3 .9-.5 1.8-.5 2.7c0 1.1 .4 2.1 1.1 3c.8 .9 1.7 1.5 2.9 1.8c.7 .2 1.6 .3 2.7 .4c1.1 .1 2.3 .2 3.5 .2h21.6c-.6-1.6-1.1-2.7-1.4-3.3c-.4-.7-1.1-1.7-2-2.8l2.7-7c1.4 2.2 2.4 4.1 2.9 5.9c.4 1.6 .6 3.9 .6 6.8v8.5h-25c-1.2 0-2.2 0-3-.1c-.8 0-1.4 0-1.8 0c-.8-.1-1.6-.3-2.6-.7c-1.6-.5-3-1.7-4-3.4c-1-1.7-1.6-3.6-1.6-5.7c0-.8 .1-1.7 .2-2.6c.1-.8 .3-1.8 .7-2.8c.4-1.2 .8-2.2 1.4-3.2c.5-.9 1.1-1.8 1.7-2.7Zm119.7-.7c1.3 0 2.6 .3 3.8 1c1.2 .6 2.6 1.6 4.1 3.1c1.2 1.1 2.9 2.8 5 5.2c1.5 1.6 2.7 2.7 3.4 3.2c.8 .5 2 .9 3.6 1.3v8.1h-32v.7c0 1.2-.7 2.8-2 4.8c-1.4 2-3.1 3.7-4.9 5.2c-2.1 1.6-3.9 2.4-5.3 2.4c-1.8 0-3.7-.5-5.7-1.5c-1.7-.8-4.4-2.5-8.2-5.1l1.3-1.8c1.8 1.1 3.2 2 4.3 2.4c1.1 .4 2.3 .6 3.6 .6c1.3 0 2.7-.4 4.1-1.2c1.3-.7 3.2-2.2 5.6-4.3c3.3-2.9 4.9-5.2 4.9-6.8c0-.8-.3-1.8-.9-3.1c-.8-1.5-1.6-2.7-2.7-3.7l1.7-8c1.4 1.4 2.4 3 3.1 4.8c.8 1.8 1.1 3.8 1.1 6.1v.4h19.1c-2.4-2.5-4.6-4.3-6.6-5.4c-1.8-1-3.6-1.5-5.3-1.5c-.6 0-1 .1-1.5 .1c-.4 .1-1 .2-1.8 .4c1.1-2.6 2.3-4.4 3.6-5.6c1.4-1.2 2.9-1.8 4.6-1.8Zm241.5-.7c-.6 0-1.1 .3-1.6 .8c-.5 .5-.7 1.2-.7 1.9c0 .4 .2 .8 .6 1.1c.3 .3 .8 .5 1.4 .5c.4 0 .9-.1 1.4-.4c.4-.3 1-.7 1.7-1.4c-.6-.9-1-1.6-1.5-1.9c-.4-.4-.8-.6-1.3-.6Zm-94.1-5.6c2.6 1.9 4.5 4.4 5.5 7.4c1 2.9 1.5 6.6 1.5 11.2v1.5h1.1c.6 0 1 0 1.3-.1c.6 0 1.2-.1 1.8-.1c-1-1.5-1.7-2.7-2-3.7c-.4-.9-.5-1.9-.5-3.1c0-2.9 1.2-5.5 3.6-7.7c2.5-2.3 5.4-3.4 8.6-3.4c2.3 0 4.4 .8 6.4 2.2c1.8 1.4 3.2 3 4 4.9l-1.2 1.1c-1.6-.6-2.8-1-3.8-1.2c-.9-.1-2-.2-3.4-.2c-2.4 0-4.6 .2-6.4 .6c-2.3 .5-3.4 1.2-3.4 2.1c0 1.4 2.7 3.6 8.3 6.8l15.1-4.3l-3.3 8.4c-5.4 1.7-9.8 2.9-13.3 3.8c-3 .8-5.6 1.4-7.7 1.6c-1.5 .3-3.1 .4-4.6 .4h-14.1c-1.3 0-2.3-.3-3-.9c-.8-.6-1.3-1.7-1.3-3.3c0-.8 .1-1.8 .2-2.8c.1-1 .2-2 .4-3.1h1.1c.2 .7 .5 1.2 1.1 1.5c.5 .3 1.2 .5 1.9 .5h10.3c-.5-2.9-1.3-5.3-2.4-7c-.9-1.5-2.2-2.7-3.9-3.8Zm-20.9 0c2.6 1.9 4.5 4.4 5.5 7.4c1 2.9 1.5 6.6 1.5 11.2v9.6h-13.5c-1.3 0-2.3-.3-3-.9c-.8-.6-1.3-1.7-1.3-3.3c0-.8 .1-1.8 .2-2.8c.1-1 .2-2 .4-3.1h1.1c.2 .7 .5 1.2 1.1 1.5c.5 .3 1.2 .5 1.9 .5h10.3c-.5-2.9-1.3-5.3-2.4-7c-.9-1.5-2.2-2.7-3.9-3.8Zm-73.2-.5l7 3.7l-3.6 6.7l-7-3.6ZM1033 301.4l5.6 3.1l-3.1 5.8l-4.4-2.2l-2.6 4.8l-5.4-3.1l3.3-6l4.2 2.4Zm43.6-.3c.3 0 .7 .2 .9 .4c.2 .3 .3 .6 .3 1c0 .3 0 .6-.1 .8c-.1 .2-.3 .6-.6 1c-1-.5-1.6-.7-2-.7c-.4 0-.7 .1-1.1 .3c-.2 .1-.4 .2-.6 .4c0 .3 .5 .7 1.4 1.2c1 .6 1.7 .8 2.1 .8c.2 0 .9-.1 2.1-.4c-.2 .6-.4 1.1-.7 1.4c-.2 .2-.6 .4-1 .5l-6.5 2c.4-.7 .8-1.2 1.1-1.5c.3-.3 .8-.5 1.5-.8c-.5-.4-.9-.7-1.2-1c-.2-.3-.3-.6-.3-.9c0-.3 0-.6 .2-.9c.2-.3 .4-.6 .6-1c1.3-1.7 2.6-2.6 3.9-2.6Zm37.7-1.9l6.9 3.7l-3.6 6.7l-6.9-3.7Zm305.6-2.6c1.1 1.6 1.9 3.2 2.4 4.7c.5 1.8 .8 4.1 .8 6.9v5.9c0 4.1 .3 7 .8 8.6c.5 1.3 1.2 2 2.1 2h8c1.8 0 3.2-.3 4.3-.7c1.3-.6 2.2-1.5 2.8-2.9c1.1-2.5 2.5-4.6 4.3-6.2c1.6-1.5 2.9-2.2 4-2.2c1 0 2.3 1.5 3.8 4.6c1.5 3.2 2.3 6.2 2.3 8.9v6.5c-2.1 0-4.5-.4-7.3-1.2c-2.5-.7-4.7-1.5-6.6-2.5c-1.1 1.7-2.6 2.8-4.3 3.4c-.8 .2-1.9 .4-3.3 .4h-8c-2.3 0-4-1-5-2.9c-1.2-2.1-1.8-5.6-1.8-10.6v-8.5c0-2-.2-3.5-.7-4.5c-.3-.5-.9-1.3-1.8-2.3Zm-26.8 0l1.8 10.5c.6 4 1.1 7.5 1.3 10.5c.2 2.2 .3 4.4 .3 6.5c0 1.8-.2 3.4-.6 4.8c-.4 1.5-1.2 3.5-2.4 5.9l-1.8-.7c.5-2.5 .7-4.6 .7-6.2c0-1.2-.1-3-.3-5.3c-.2-2.4-.4-4.7-.7-7c-.3-2.3-.8-5-1.5-8.2c-.2-1.1-.3-1.9-.3-2.3c0-.6 .3-1.7 .9-3.1c.6-1.5 1.5-3.3 2.6-5.4Zm-340.1 0c1.2 1.6 2 3.2 2.5 4.7c.5 1.8 .7 4.1 .7 6.9v5.9c0 4.1 .3 7 .9 8.6c.4 1.3 1.1 2 2.1 2h17.7c-.2-1.4-.6-2.5-1.2-3.5c-.3-.5-1-1.4-2.1-2.6l2.4-7.1c1.5 1.6 2.5 3.4 3.1 5.3c.5 1.6 .7 3.9 .8 6.9v1h13.5c-.2-1.4-.6-2.5-1.2-3.5c-.3-.5-1-1.4-2.1-2.6l2.4-7.1c1.5 1.6 2.5 3.4 3.1 5.3c.5 1.8 .8 4.6 .8 8.2v7.8h-37.2c-2.4 0-4-1-5.1-2.9c-1.1-2.1-1.7-5.6-1.7-10.6v-8.5c0-2-.3-3.5-.8-4.5c-.3-.5-.9-1.3-1.8-2.3Zm307.9-2.3l1.3 .6c0 .3-.1 .6-.1 1c0 .8 .4 1.4 1.2 1.9c1.2 .7 2.4 1.4 3.5 2c-.2 1.7-.5 2.9-.7 3.6c-.2 .8-.7 1.9-1.4 3.3l-.9-.3c0 .3 .3 2 .9 5.1c.6 3.1 1 5.7 1.4 8c.5 2.4 .7 4.1 .8 5.1v.1h15.8c0-1.8 0-3-.1-3.7c-.2-1.2-.5-2.2-1-3c-.6 1.2-1.5 2.2-2.6 2.8c-1 .7-2.2 1-3.4 1c-1.6 0-2.9-.5-4-1.5c-1.1-1.1-1.7-2.4-1.7-4c0-2.4 .8-5.1 2.2-8.4c1.6-3.5 3.1-5.3 4.8-5.3c2 0 4 1.9 5.9 5.5c1.8 3.6 2.7 7.5 2.7 11.5v13.2h-18.6l-.2 1.5c-.6 2.1-2.1 4.1-4.5 5.9c-3.2 2.3-6.8 3.5-10.9 3.5c-3.4 0-6-.9-7.9-2.6c-2-1.7-2.9-4.1-2.9-7.2c0-2.8 .3-5.4 1.1-7.5c.8-2.4 2.4-5.4 4.7-8.9l1.9 1.2c-1.6 2.4-2.7 4.4-3.3 6.1c-.7 1.7-1 3.4-1 5.1c0 1.8 .7 3.2 2 4.2c1.3 1 3.2 1.4 5.7 1.4c3.5 0 6.3-.6 8.5-2c2.2-1.3 3.3-3.1 3.3-5.3c0-.4 0-.7 0-.9c0-.2 0-.4 0-.5c0-.8-.1-1.6-.2-2.6c-.1-.9-.5-2.8-1-5.7c-.9-4.7-1.7-9.5-2.6-14.2l-1.5-1.1c0-1.9 .9-4.9 2.8-8.9Zm16.3-4.3l5.5 3l-3.1 5.8l-4.4-2.2l-2.5 4.8l-5.4-3l3.3-6.1l4.2 2.4Zm16.8-2c.4 0 .7 .2 .9 .4c.3 .2 .4 .6 .4 1c0 .3-.1 .6-.1 .8c-.1 .2-.3 .6-.6 1c-1-.5-1.7-.7-2-.7c-.4 0-.7 .1-1.1 .2c-.2 .2-.5 .3-.7 .5c0 .3 .5 .7 1.5 1.2c.9 .6 1.6 .8 2 .8c.3 0 1-.1 2.2-.4c-.2 .5-.5 1-.8 1.3c-.2 .2-.5 .4-1 .5l-6.5 2c.4-.7 .8-1.2 1.1-1.5c.3-.3 .8-.5 1.6-.7c-.5-.4-1-.7-1.2-1c-.2-.3-.4-.6-.4-.9c0-.3 .1-.6 .3-.9c.1-.3 .3-.7 .6-1c1.3-1.7 2.6-2.6 3.8-2.6Z" class="g0_78"/>
<path d="M1136.7 335.6l6.9 3.7L1140 346l-7-3.7Zm-46.3-.6l5.5 3l-3.1 5.8l-4.4-2.2l-2.5 4.8l-5.4-3l3.3-6.1l4.2 2.4Zm355.8-15.3c-.8 0-1.4 .9-2 2.7c1.1 .4 1.8 .7 2.4 .9c1.6 .6 2.5 .9 2.7 .9c.4 0 .7-.2 .7-.5c0-.4-.5-1.2-1.3-2.2c-1-1.2-1.8-1.8-2.5-1.8Zm-225.3 0c-.8 0-1.5 .9-2 2.7c1 .4 1.8 .7 2.4 .9c1.6 .6 2.5 .9 2.7 .9c.4 0 .6-.2 .6-.5c0-.4-.4-1.2-1.2-2.2c-1-1.2-1.8-1.8-2.5-1.8Zm3.2-7c1 0 2.3 1.5 3.7 4.6c1.6 3.2 2.4 6.2 2.4 8.9v6.5c-2.1 0-4.5-.4-7.4-1.2c-2.4-.7-4.6-1.5-6.5-2.5c-1.2 1.7-2.6 2.8-4.3 3.4c-.8 .2-1.9 .4-3.3 .4h-3.8v.5c-.2 1.8-.4 3.4-.8 4.6c-.5 1.7-1.4 3-2.6 4c-1.3 1-3.1 1.9-5.4 2.5c-2.4 .7-4.8 1-7.3 1c-4.8 0-8.5-.9-11.2-2.7c-2.6-1.7-3.9-4.2-3.9-7.5c0-2.7 .4-5.2 1.3-7.5c.9-2.5 2.7-5.8 5.3-9.9l1.8 1.3c-2 3.4-3.2 5.8-3.8 7.3c-.6 1.5-.9 3.1-.9 4.7c0 2.1 1.1 3.8 3.3 5.1c2.2 1.3 5.2 2 8.8 2c3.6 0 6.6-.7 9-2.1c2.5-1.4 3.7-3 3.7-5c0-1.3-.2-2.5-.6-3.7c-.5-1.2-1.4-3.1-2.8-5.8l2.6-8.1c1.4 2.6 2.3 4.3 2.6 5.3c.5 1.5 .8 3.3 .9 5.6v.3h3.8c1.8 0 3.2-.3 4.2-.7c1.4-.6 2.3-1.5 2.8-2.9c1.2-2.5 2.6-4.6 4.4-6.2c1.6-1.5 2.9-2.2 4-2.2Zm-209-1.1l1.6 1.1c-.4 .8-.8 1.5-1 2.2c-.3 .6-.6 1.2-.7 1.7c-.3 .9-.5 1.8-.5 2.7c0 1.1 .4 2.1 1.1 3c.8 .9 1.7 1.5 2.9 1.8c.7 .2 1.6 .3 2.7 .4c1.1 .1 2.3 .2 3.5 .2h21.6c-.6-1.6-1.1-2.7-1.4-3.3c-.4-.7-1.1-1.7-2-2.8l2.7-7c1.4 2.2 2.4 4.1 2.9 5.9c.4 1.6 .6 3.9 .6 6.8v8.5h-25c-1.2 0-2.2 0-3-.1c-.8 0-1.4 0-1.8 0c-.8-.1-1.6-.3-2.6-.7c-1.6-.5-3-1.7-4-3.4c-1-1.7-1.6-3.6-1.6-5.7c0-.8 .1-1.7 .2-2.6c.1-.8 .3-1.8 .7-2.8c.4-1.2 .8-2.2 1.4-3.2c.5-.9 1.1-1.8 1.7-2.7Zm119.7-.7c1.3 0 2.6 .3 3.8 1c1.2 .6 2.6 1.6 4.1 3.1c1.2 1.1 2.9 2.8 5 5.2c1.5 1.6 2.7 2.7 3.4 3.2c.8 .5 2 .9 3.6 1.3v8.1h-32v.7c0 1.2-.7 2.8-2 4.8c-1.4 2-3.1 3.7-4.9 5.2c-2.1 1.6-3.9 2.4-5.3 2.4c-1.8 0-3.7-.5-5.7-1.5c-1.7-.8-4.4-2.5-8.2-5.1l1.3-1.8c1.8 1.1 3.2 2 4.3 2.4c1.1 .4 2.3 .6 3.6 .6c1.3 0 2.7-.4 4.1-1.2c1.3-.7 3.2-2.2 5.6-4.3c3.3-2.9 4.9-5.2 4.9-6.8c0-.8-.3-1.8-.9-3.1c-.8-1.5-1.6-2.7-2.7-3.7l1.7-8c1.4 1.4 2.4 3 3.1 4.8c.8 1.8 1.1 3.8 1.1 6.1v.4h19.1c-2.4-2.5-4.6-4.3-6.6-5.4c-1.8-1-3.6-1.5-5.3-1.5c-.6 0-1 .1-1.5 .1c-.4 .1-1 .2-1.8 .4c1.1-2.6 2.3-4.4 3.6-5.6c1.4-1.2 2.9-1.8 4.6-1.8Zm241.5-.7c-.6 0-1.1 .3-1.6 .8c-.5 .5-.7 1.2-.7 1.9c0 .4 .2 .8 .6 1.1c.3 .3 .8 .5 1.4 .5c.4 0 .9-.1 1.4-.4c.4-.3 1-.7 1.7-1.4c-.6-.9-1-1.6-1.5-1.9c-.4-.4-.8-.6-1.3-.6Zm-94.1-5.6c2.6 1.9 4.5 4.4 5.5 7.4c1 2.9 1.5 6.6 1.5 11.2v1.5h1.1c.6 0 1 0 1.3-.1c.6 0 1.2-.1 1.8-.1c-1-1.5-1.7-2.7-2-3.7c-.4-.9-.5-1.9-.5-3.1c0-2.9 1.2-5.5 3.6-7.7c2.5-2.3 5.4-3.4 8.6-3.4c2.3 0 4.4 .8 6.4 2.2c1.8 1.4 3.2 3 4 4.9l-1.2 1.1c-1.6-.6-2.8-1-3.8-1.2c-.9-.1-2-.2-3.4-.2c-2.4 0-4.6 .2-6.4 .6c-2.3 .5-3.4 1.2-3.4 2.1c0 1.4 2.7 3.6 8.3 6.8l15.1-4.3l-3.3 8.4c-5.4 1.7-9.8 2.9-13.3 3.8c-3 .8-5.6 1.4-7.7 1.6c-1.5 .3-3.1 .4-4.6 .4h-14.1c-1.3 0-2.3-.3-3-.9c-.8-.6-1.3-1.7-1.3-3.3c0-.8 .1-1.8 .2-2.8c.1-1 .2-2 .4-3.1h1.1c.2 .7 .5 1.2 1.1 1.5c.5 .3 1.2 .5 1.9 .5h10.3c-.5-2.9-1.3-5.3-2.4-7c-.9-1.5-2.2-2.7-3.9-3.8Zm-20.9 0c2.6 1.9 4.5 4.4 5.5 7.4c1 2.9 1.5 6.6 1.5 11.2v9.6h-13.5c-1.3 0-2.3-.3-3-.9c-.8-.6-1.3-1.7-1.3-3.3c0-.8 .1-1.8 .2-2.8c.1-1 .2-2 .4-3.1h1.1c.2 .7 .5 1.2 1.1 1.5c.5 .3 1.2 .5 1.9 .5h10.3c-.5-2.9-1.3-5.3-2.4-7c-.9-1.5-2.2-2.7-3.9-3.8Zm-73.2-.5l7 3.7l-3.6 6.7l-7-3.6ZM1033 301.4l5.6 3.1l-3.1 5.8l-4.4-2.2l-2.6 4.8l-5.4-3.1l3.3-6l4.2 2.4Zm43.6-.3c.3 0 .7 .2 .9 .4c.2 .3 .3 .6 .3 1c0 .3 0 .6-.1 .8c-.1 .2-.3 .6-.6 1c-1-.5-1.6-.7-2-.7c-.4 0-.7 .1-1.1 .3c-.2 .1-.4 .2-.6 .4c0 .3 .5 .7 1.4 1.2c1 .6 1.7 .8 2.1 .8c.2 0 .9-.1 2.1-.4c-.2 .6-.4 1.1-.7 1.4c-.2 .2-.6 .4-1 .5l-6.5 2c.4-.7 .8-1.2 1.1-1.5c.3-.3 .8-.5 1.5-.8c-.5-.4-.9-.7-1.2-1c-.2-.3-.3-.6-.3-.9c0-.3 0-.6 .2-.9c.2-.3 .4-.6 .6-1c1.3-1.7 2.6-2.6 3.9-2.6Zm37.7-1.9l6.9 3.7l-3.6 6.7l-6.9-3.7Zm305.6-2.6c1.1 1.6 1.9 3.2 2.4 4.7c.5 1.8 .8 4.1 .8 6.9v5.9c0 4.1 .3 7 .8 8.6c.5 1.3 1.2 2 2.1 2h8c1.8 0 3.2-.3 4.3-.7c1.3-.6 2.2-1.5 2.8-2.9c1.1-2.5 2.5-4.6 4.3-6.2c1.6-1.5 2.9-2.2 4-2.2c1 0 2.3 1.5 3.8 4.6c1.5 3.2 2.3 6.2 2.3 8.9v6.5c-2.1 0-4.5-.4-7.3-1.2c-2.5-.7-4.7-1.5-6.6-2.5c-1.1 1.7-2.6 2.8-4.3 3.4c-.8 .2-1.9 .4-3.3 .4h-8c-2.3 0-4-1-5-2.9c-1.2-2.1-1.8-5.6-1.8-10.6v-8.5c0-2-.2-3.5-.7-4.5c-.3-.5-.9-1.3-1.8-2.3Zm-26.8 0l1.8 10.5c.6 4 1.1 7.5 1.3 10.5c.2 2.2 .3 4.4 .3 6.5c0 1.8-.2 3.4-.6 4.8c-.4 1.5-1.2 3.5-2.4 5.9l-1.8-.7c.5-2.5 .7-4.6 .7-6.2c0-1.2-.1-3-.3-5.3c-.2-2.4-.4-4.7-.7-7c-.3-2.3-.8-5-1.5-8.2c-.2-1.1-.3-1.9-.3-2.3c0-.6 .3-1.7 .9-3.1c.6-1.5 1.5-3.3 2.6-5.4Zm-340.1 0c1.2 1.6 2 3.2 2.5 4.7c.5 1.8 .7 4.1 .7 6.9v5.9c0 4.1 .3 7 .9 8.6c.4 1.3 1.1 2 2.1 2h17.7c-.2-1.4-.6-2.5-1.2-3.5c-.3-.5-1-1.4-2.1-2.6l2.4-7.1c1.5 1.6 2.5 3.4 3.1 5.3c.5 1.6 .7 3.9 .8 6.9v1h13.5c-.2-1.4-.6-2.5-1.2-3.5c-.3-.5-1-1.4-2.1-2.6l2.4-7.1c1.5 1.6 2.5 3.4 3.1 5.3c.5 1.8 .8 4.6 .8 8.2v7.8h-37.2c-2.4 0-4-1-5.1-2.9c-1.1-2.1-1.7-5.6-1.7-10.6v-8.5c0-2-.3-3.5-.8-4.5c-.3-.5-.9-1.3-1.8-2.3Zm307.9-2.3l1.3 .6c0 .3-.1 .6-.1 1c0 .8 .4 1.4 1.2 1.9c1.2 .7 2.4 1.4 3.5 2c-.2 1.7-.5 2.9-.7 3.6c-.2 .8-.7 1.9-1.4 3.3l-.9-.3c0 .3 .3 2 .9 5.1c.6 3.1 1 5.7 1.4 8c.5 2.4 .7 4.1 .8 5.1v.1h15.8c0-1.8 0-3-.1-3.7c-.2-1.2-.5-2.2-1-3c-.6 1.2-1.5 2.2-2.6 2.8c-1 .7-2.2 1-3.4 1c-1.6 0-2.9-.5-4-1.5c-1.1-1.1-1.7-2.4-1.7-4c0-2.4 .8-5.1 2.2-8.4c1.6-3.5 3.1-5.3 4.8-5.3c2 0 4 1.9 5.9 5.5c1.8 3.6 2.7 7.5 2.7 11.5v13.2h-18.6l-.2 1.5c-.6 2.1-2.1 4.1-4.5 5.9c-3.2 2.3-6.8 3.5-10.9 3.5c-3.4 0-6-.9-7.9-2.6c-2-1.7-2.9-4.1-2.9-7.2c0-2.8 .3-5.4 1.1-7.5c.8-2.4 2.4-5.4 4.7-8.9l1.9 1.2c-1.6 2.4-2.7 4.4-3.3 6.1c-.7 1.7-1 3.4-1 5.1c0 1.8 .7 3.2 2 4.2c1.3 1 3.2 1.4 5.7 1.4c3.5 0 6.3-.6 8.5-2c2.2-1.3 3.3-3.1 3.3-5.3c0-.4 0-.7 0-.9c0-.2 0-.4 0-.5c0-.8-.1-1.6-.2-2.6c-.1-.9-.5-2.8-1-5.7c-.9-4.7-1.7-9.5-2.6-14.2l-1.5-1.1c0-1.9 .9-4.9 2.8-8.9Zm16.3-4.3l5.5 3l-3.1 5.8l-4.4-2.2l-2.5 4.8l-5.4-3l3.3-6.1l4.2 2.4Zm16.8-2c.4 0 .7 .2 .9 .4c.3 .2 .4 .6 .4 1c0 .3-.1 .6-.1 .8c-.1 .2-.3 .6-.6 1c-1-.5-1.7-.7-2-.7c-.4 0-.7 .1-1.1 .2c-.2 .2-.5 .3-.7 .5c0 .3 .5 .7 1.5 1.2c.9 .6 1.6 .8 2 .8c.3 0 1-.1 2.2-.4c-.2 .5-.5 1-.8 1.3c-.2 .2-.5 .4-1 .5l-6.5 2c.4-.7 .8-1.2 1.1-1.5c.3-.3 .8-.5 1.6-.7c-.5-.4-1-.7-1.2-1c-.2-.3-.4-.6-.4-.9c0-.3 .1-.6 .3-.9c.1-.3 .3-.7 .6-1c1.3-1.7 2.6-2.6 3.8-2.6Z" class="g1_78"/>
<path fill-rule="evenodd" d="M973.4 310.3L968 326.7h10.9l-5.5-16.4ZM893 308.9v11h4c1.1 0 2-.2 2.9-.4c.8-.3 1.5-.7 2.1-1.2c.5-.5 .9-1 1.2-1.7c.3-.7 .4-1.4 .4-2.3c0-1.3-.3-2.3-.8-3.2c-.6-.9-1.5-1.5-2.9-1.8c-.4-.1-.8-.2-1.3-.3c-.5 0-1.2-.1-2.1-.1Zm-24.4-3.2c.7 0 1.3 0 1.8 .1c.5 0 .9 .1 1.2 .2c.3 .1 .5 .3 .6 .4c.1 .2 .1 .4 .1 .6v5.9h5.8c.2 0 .4 0 .6 .1c.1 .1 .2 .3 .3 .5c.1 .3 .2 .6 .3 1c0 .4 0 .8 0 1.4c0 1.1-.1 1.9-.3 2.4c-.2 .4-.5 .7-.8 .7h-5.9v12.5c0 1.4 .3 2.5 .7 3.2c.5 .8 1.3 1.1 2.5 1.1c.4 0 .7 0 1.1-.1c.3-.1 .6-.1 .8-.2c.2-.1 .5-.2 .6-.3c.2 0 .3-.1 .5-.1c.1 0 .2 .1 .3 .1c.1 .1 .2 .2 .3 .5c0 .2 .1 .4 .2 .8c0 .4 0 .8 0 1.4c0 .8 0 1.5-.1 2c-.1 .4-.3 .8-.5 1c-.2 .2-.4 .3-.8 .5c-.3 .1-.7 .3-1.2 .4c-.4 .1-.9 .1-1.5 .2c-.5 .1-1.1 .1-1.6 .1c-1.5 0-2.8-.2-3.9-.6c-1.1-.3-2-.9-2.7-1.7c-.7-.8-1.3-1.8-1.6-3c-.4-1.2-.5-2.6-.5-4.2V319h-3.2c-.4 0-.7-.3-.9-.7c-.2-.5-.3-1.3-.3-2.4c0-.6 .1-1 .1-1.4c0-.4 .1-.7 .2-1c.1-.2 .2-.4 .4-.5c.1-.1 .3-.1 .5-.1h3.2V307c0-.2 0-.4 .1-.6c.2-.1 .3-.3 .6-.4c.3-.1 .7-.2 1.2-.2c.5-.1 1.1-.1 1.8-.1Zm18.8-2.8h10c1 0 1.9 .1 2.5 .1c.7 0 1.3 .1 1.8 .1c1.6 .3 3 .6 4.2 1.2c1.2 .5 2.3 1.2 3.2 2.1c.8 .8 1.5 1.9 2 3.1c.4 1.1 .6 2.5 .6 4c0 1.3-.1 2.5-.5 3.5c-.3 1.1-.8 2.1-1.4 2.9c-.6 .8-1.4 1.6-2.3 2.2c-1 .6-2 1.1-3.2 1.5c.5 .2 1.1 .6 1.6 1c.5 .4 1 .8 1.4 1.4c.5 .6 .9 1.2 1.3 2c.4 .7 .8 1.5 1.1 2.4L913 338c.3 .8 .5 1.3 .6 1.7c.1 .3 .1 .6 .1 .8c0 .2 0 .4-.1 .5c-.1 .2-.2 .3-.6 .4c-.2 .1-.7 .2-1.3 .2c-.5 .1-1.3 .1-2.3 .1c-.8 0-1.5 0-2-.1c-.5 0-.9-.1-1.2-.2c-.3-.1-.5-.2-.6-.4c-.1-.2-.2-.4-.3-.6l-3.5-8.6c-.4-1-.8-1.9-1.2-2.6c-.4-.8-.8-1.4-1.3-1.9c-.5-.5-1.1-.9-1.7-1.2c-.6-.2-1.4-.4-2.2-.4H893v14.7c0 .2-.1 .4-.2 .6c-.2 .1-.4 .3-.7 .4c-.3 .1-.7 .1-1.2 .2c-.5 .1-1.1 .1-1.9 .1c-.7 0-1.4 0-1.9-.1c-.5-.1-.9-.1-1.2-.2c-.3-.1-.5-.3-.6-.4c-.1-.2-.2-.4-.2-.6v-35c0-.9 .2-1.5 .7-1.9c.4-.4 1-.6 1.6-.6Zm60.4-.1c.7 0 1.2 0 1.7 .1c.4 0 .8 .1 1 .2c.3 .2 .5 .3 .6 .5c.1 .1 .1 .3 .1 .5v34.7c0 .4-.1 .8-.2 1.2c-.2 .3-.4 .6-.7 .9c-.2 .2-.6 .4-.9 .5c-.4 .1-.8 .2-1.1 .2h-3.4c-.7 0-1.3-.1-1.8-.2c-.5-.2-1-.4-1.4-.8c-.4-.4-.8-.9-1.2-1.5c-.4-.6-.9-1.4-1.4-2.4l-9.6-18.1c-.5-1-1.1-2.2-1.7-3.4c-.5-1.3-1.1-2.5-1.5-3.7h-.1c.1 1.5 .2 2.9 .2 4.3c0 1.4 .1 2.9 .1 4.4v20.2c0 .2-.1 .4-.2 .5c-.1 .2-.3 .3-.6 .4c-.2 .2-.6 .2-1 .3c-.5 .1-1.1 .1-1.8 .1c-.7 0-1.3 0-1.7-.1c-.5-.1-.9-.1-1.1-.3c-.3-.1-.5-.2-.5-.4c-.2-.1-.2-.3-.2-.5V305.7c0-.9 .3-1.6 .8-2.1c.6-.4 1.2-.7 2-.7h4.2c.8 0 1.4 .1 1.9 .2c.6 .1 1 .4 1.4 .7c.4 .3 .8 .7 1.2 1.2c.3 .5 .7 1.2 1.1 2l7.5 14.1c.4 .8 .9 1.7 1.3 2.5c.4 .8 .8 1.6 1.2 2.4c.4 .9 .8 1.7 1.2 2.5c.4 .8 .7 1.6 1.1 2.4c0-1.4-.1-2.9-.1-4.4c0-1.5 0-2.9 0-4.3V304.1c0-.2 0-.4 .1-.5c.1-.2 .3-.3 .6-.5c.3-.1 .7-.2 1.1-.2c.5-.1 1.1-.1 1.8-.1Zm25.7 0c1.2 0 2.1 0 2.8 0c.7 0 1.3 .1 1.7 .2c.3 .1 .6 .3 .8 .5c.2 .2 .3 .5 .4 .9l11.9 34.2c.3 .7 .4 1.3 .5 1.7c.1 .4 0 .7-.2 .9c-.3 .2-.7 .4-1.2 .4c-.6 .1-1.3 .1-2.3 .1c-1 0-1.8 0-2.4-.1c-.5 0-1-.1-1.3-.1c-.3-.1-.5-.3-.6-.4c-.1-.2-.2-.4-.3-.6l-2.6-7.8H966.2l-2.4 7.6c-.1 .2-.2 .5-.3 .7c-.2 .1-.4 .3-.6 .4c-.3 .1-.8 .2-1.3 .2c-.5 .1-1.2 .1-2 .1c-1 0-1.7 0-2.2-.1c-.5-.1-.9-.2-1.1-.4c-.2-.3-.2-.6-.2-1c.1-.4 .2-1 .5-1.7l11.9-34.2c.1-.3 .2-.6 .4-.8c.1-.2 .4-.4 .7-.5c.4-.1 .9-.2 1.5-.2c.6 0 1.4 0 2.4 0Z" class="g0_78"/>
<path d="M973.4 310.3L968 326.7h10.9l-5.5-16.4ZM893 308.9v11h4c1.1 0 2-.2 2.9-.4c.8-.3 1.5-.7 2.1-1.2c.5-.5 .9-1 1.2-1.7c.3-.7 .4-1.4 .4-2.3c0-1.3-.3-2.3-.8-3.2c-.6-.9-1.5-1.5-2.9-1.8c-.4-.1-.8-.2-1.3-.3c-.5 0-1.2-.1-2.1-.1Zm-24.4-3.2c.7 0 1.3 0 1.8 .1c.5 0 .9 .1 1.2 .2c.3 .1 .5 .3 .6 .4c.1 .2 .1 .4 .1 .6v5.9h5.8c.2 0 .4 0 .6 .1c.1 .1 .2 .3 .3 .5c.1 .3 .2 .6 .3 1c0 .4 0 .8 0 1.4c0 1.1-.1 1.9-.3 2.4c-.2 .4-.5 .7-.8 .7h-5.9v12.5c0 1.4 .3 2.5 .7 3.2c.5 .8 1.3 1.1 2.5 1.1c.4 0 .7 0 1.1-.1c.3-.1 .6-.1 .8-.2c.2-.1 .5-.2 .6-.3c.2 0 .3-.1 .5-.1c.1 0 .2 .1 .3 .1c.1 .1 .2 .2 .3 .5c0 .2 .1 .4 .2 .8c0 .4 0 .8 0 1.4c0 .8 0 1.5-.1 2c-.1 .4-.3 .8-.5 1c-.2 .2-.4 .3-.8 .5c-.3 .1-.7 .3-1.2 .4c-.4 .1-.9 .1-1.5 .2c-.5 .1-1.1 .1-1.6 .1c-1.5 0-2.8-.2-3.9-.6c-1.1-.3-2-.9-2.7-1.7c-.7-.8-1.3-1.8-1.6-3c-.4-1.2-.5-2.6-.5-4.2V319h-3.2c-.4 0-.7-.3-.9-.7c-.2-.5-.3-1.3-.3-2.4c0-.6 .1-1 .1-1.4c0-.4 .1-.7 .2-1c.1-.2 .2-.4 .4-.5c.1-.1 .3-.1 .5-.1h3.2V307c0-.2 0-.4 .1-.6c.2-.1 .3-.3 .6-.4c.3-.1 .7-.2 1.2-.2c.5-.1 1.1-.1 1.8-.1Zm18.8-2.8h10c1 0 1.9 .1 2.5 .1c.7 0 1.3 .1 1.8 .1c1.6 .3 3 .6 4.2 1.2c1.2 .5 2.3 1.2 3.2 2.1c.8 .8 1.5 1.9 2 3.1c.4 1.1 .6 2.5 .6 4c0 1.3-.1 2.5-.5 3.5c-.3 1.1-.8 2.1-1.4 2.9c-.6 .8-1.4 1.6-2.3 2.2c-1 .6-2 1.1-3.2 1.5c.5 .2 1.1 .6 1.6 1c.5 .4 1 .8 1.4 1.4c.5 .6 .9 1.2 1.3 2c.4 .7 .8 1.5 1.1 2.4L913 338c.3 .8 .5 1.3 .6 1.7c.1 .3 .1 .6 .1 .8c0 .2 0 .4-.1 .5c-.1 .2-.2 .3-.6 .4c-.2 .1-.7 .2-1.3 .2c-.5 .1-1.3 .1-2.3 .1c-.8 0-1.5 0-2-.1c-.5 0-.9-.1-1.2-.2c-.3-.1-.5-.2-.6-.4c-.1-.2-.2-.4-.3-.6l-3.5-8.6c-.4-1-.8-1.9-1.2-2.6c-.4-.8-.8-1.4-1.3-1.9c-.5-.5-1.1-.9-1.7-1.2c-.6-.2-1.4-.4-2.2-.4H893v14.7c0 .2-.1 .4-.2 .6c-.2 .1-.4 .3-.7 .4c-.3 .1-.7 .1-1.2 .2c-.5 .1-1.1 .1-1.9 .1c-.7 0-1.4 0-1.9-.1c-.5-.1-.9-.1-1.2-.2c-.3-.1-.5-.3-.6-.4c-.1-.2-.2-.4-.2-.6v-35c0-.9 .2-1.5 .7-1.9c.4-.4 1-.6 1.6-.6Zm60.4-.1c.7 0 1.2 0 1.7 .1c.4 0 .8 .1 1 .2c.3 .2 .5 .3 .6 .5c.1 .1 .1 .3 .1 .5v34.7c0 .4-.1 .8-.2 1.2c-.2 .3-.4 .6-.7 .9c-.2 .2-.6 .4-.9 .5c-.4 .1-.8 .2-1.1 .2h-3.4c-.7 0-1.3-.1-1.8-.2c-.5-.2-1-.4-1.4-.8c-.4-.4-.8-.9-1.2-1.5c-.4-.6-.9-1.4-1.4-2.4l-9.6-18.1c-.5-1-1.1-2.2-1.7-3.4c-.5-1.3-1.1-2.5-1.5-3.7h-.1c.1 1.5 .2 2.9 .2 4.3c0 1.4 .1 2.9 .1 4.4v20.2c0 .2-.1 .4-.2 .5c-.1 .2-.3 .3-.6 .4c-.2 .2-.6 .2-1 .3c-.5 .1-1.1 .1-1.8 .1c-.7 0-1.3 0-1.7-.1c-.5-.1-.9-.1-1.1-.3c-.3-.1-.5-.2-.5-.4c-.2-.1-.2-.3-.2-.5V305.7c0-.9 .3-1.6 .8-2.1c.6-.4 1.2-.7 2-.7h4.2c.8 0 1.4 .1 1.9 .2c.6 .1 1 .4 1.4 .7c.4 .3 .8 .7 1.2 1.2c.3 .5 .7 1.2 1.1 2l7.5 14.1c.4 .8 .9 1.7 1.3 2.5c.4 .8 .8 1.6 1.2 2.4c.4 .9 .8 1.7 1.2 2.5c.4 .8 .7 1.6 1.1 2.4c0-1.4-.1-2.9-.1-4.4c0-1.5 0-2.9 0-4.3V304.1c0-.2 0-.4 .1-.5c.1-.2 .3-.3 .6-.5c.3-.1 .7-.2 1.1-.2c.5-.1 1.1-.1 1.8-.1Zm25.7 0c1.2 0 2.1 0 2.8 0c.7 0 1.3 .1 1.7 .2c.3 .1 .6 .3 .8 .5c.2 .2 .3 .5 .4 .9l11.9 34.2c.3 .7 .4 1.3 .5 1.7c.1 .4 0 .7-.2 .9c-.3 .2-.7 .4-1.2 .4c-.6 .1-1.3 .1-2.3 .1c-1 0-1.8 0-2.4-.1c-.5 0-1-.1-1.3-.1c-.3-.1-.5-.3-.6-.4c-.1-.2-.2-.4-.3-.6l-2.6-7.8H966.2l-2.4 7.6c-.1 .2-.2 .5-.3 .7c-.2 .1-.4 .3-.6 .4c-.3 .1-.8 .2-1.3 .2c-.5 .1-1.2 .1-2 .1c-1 0-1.7 0-2.2-.1c-.5-.1-.9-.2-1.1-.4c-.2-.3-.2-.6-.2-1c.1-.4 .2-1 .5-1.7l11.9-34.2c.1-.3 .2-.6 .4-.8c.1-.2 .4-.4 .7-.5c.4-.1 .9-.2 1.5-.2c.6 0 1.4 0 2.4 0Z" class="g1_78"/>
<path fill-rule="evenodd" d="M721.8 335.3l7 3.7l-3.6 6.6l-7-3.6Zm-382.4 0l6.9 3.7l-3.6 6.6l-6.9-3.6Zm-16.5 0l6.9 3.7l-3.6 6.6l-6.9-3.6Zm513.6-.3l5.5 3l-3.1 5.8l-4.4-2.2l-2.5 4.8l-5.4-3l3.3-6.1l4.2 2.4Zm-403.4 0l5.6 3l-3.1 5.8l-4.4-2.2l-2.5 4.8l-5.5-3l3.3-6.1l4.3 2.4Zm-139.3 0l5.6 3l-3.1 5.8l-4.5-2.2l-2.5 4.8l-5.4-3l3.3-6.1l4.2 2.4Zm-93.2-15.3c-.8 0-1.4 .9-1.9 2.7c1 .4 1.8 .7 2.3 .9c1.6 .6 2.5 .9 2.7 .9c.5 0 .7-.2 .7-.5c0-.4-.4-1.2-1.3-2.2c-1-1.2-1.8-1.8-2.5-1.8Zm574.5-4.5c1.3 0 2.8 .8 4.4 2.3c1.7 1.5 3.6 3.9 5.7 7.2v8.1l-3.9-.1c-3.6 0-6.8 .4-9.6 1c-2.8 .6-4.2 1.3-4.2 2.1c.8 2.4 1.4 4.6 2.1 6.7c.6 2.1 .9 4.1 .9 5.9c0 1.4-.2 2.5-.4 3.3c-.3 .8-.8 1.8-1.6 2.7c-.2-2.6-.7-5.3-1.4-8.2c-.3-1-.9-3.2-1.9-6.4c-.7-2-1-3.4-1-4c0-1 .3-2.1 .8-3.5c.4-1.1 .9-2.1 1.4-3c.6-1 1.8-1.8 3.3-2.4c1.6-.6 4-1 7.3-1.4c-1.6-2.2-3-3.3-4.2-3.3c-.5 0-1 .2-1.5 .6c-.4 .4-1.2 1.3-2.2 2.6l-1.4-.7c.8-3 1.9-5.4 3.2-7c1.3-1.7 2.7-2.5 4.2-2.5ZM175.5 315c-.4 0-.7 .1-1 .4c-.3 .2-.4 .5-.4 .9c0 .8 .6 1.7 1.9 2.5c1.3 .8 2.8 1.3 4.6 1.6c-.8-1.7-1.6-3-2.4-4c-.9-.9-1.8-1.4-2.7-1.4Zm347.9-2.6c-.7 .2-1.2 .5-1.5 .7c-1.1 .5-2 1.1-2.7 1.6c-.4 .4-.8 .7-1.1 1.1c-.4 .4-.6 .7-.6 1c0 .2 .3 .5 1 .6c.7 .2 1.4 .3 2.1 .3c.4 0 .9-.2 1.3-.4c.5-.3 1.2-.7 2.1-1.4Zm146.3-2c1.4 0 2.6 .3 3.7 .9c1.1 .6 2.2 1.6 3.5 3.2l-4 6.6c-.9-1-1.8-1.8-2.6-2.3c-.8-.5-1.6-.7-2.4-.7c-.6 0-1.1 .2-1.6 .5c-.5 .3-.7 .8-.7 1.2c0 .6 .4 1.3 1.2 2c.8 .7 2.2 1.5 4.2 2.5c2.5-1.2 4.4-1.9 5.6-2.3c1.3-.3 2.9-.6 4.9-.8l-2.3 6.9c-3.1 .8-5.6 1.6-7.6 2.6c-1.9 .8-3.5 2-5.1 3.3c-1 .9-2.4 2.5-4.3 4.7l-1.8-.6c0-1.4 .3-2.7 1-4c.5-1 1.4-2.4 2.7-4.1c-1.8-1.9-3.1-3.2-3.7-4.1c-.6-.8-.9-1.7-.9-2.5c0-1.1 .8-3.1 2.3-5.8c1.6-2.8 2.9-4.7 4-5.7c1.1-1 2.4-1.5 3.9-1.5ZM453 304.6c2.6 1.9 4.4 4.4 5.5 7.4c1 2.9 1.5 6.6 1.5 11.2v1.5h1.1c.6 0 1 0 1.3-.1c.6 0 1.2-.1 1.8-.1c-1-1.5-1.7-2.7-2-3.7c-.4-.9-.6-1.9-.6-3.1c0-2.9 1.3-5.5 3.7-7.7c2.5-2.3 5.4-3.4 8.6-3.4c2.2 0 4.3 .8 6.4 2.2c1.8 1.4 3.2 3 4 4.9l-1.2 1.1c-1.6-.6-2.9-1-3.8-1.2c-.9-.1-2.1-.2-3.4-.2c-2.5 0-4.6 .2-6.4 .6c-2.3 .5-3.4 1.2-3.4 2.1c0 1.4 2.7 3.6 8.2 6.8l15.2-4.3l-3.3 8.4c-5.4 1.7-9.8 2.9-13.3 3.8c-3 .8-5.6 1.4-7.7 1.6c-1.5 .3-3.1 .4-4.6 .4H446.5c-1.3 0-2.3-.3-3-.9c-.9-.6-1.3-1.7-1.3-3.3c0-.8 .1-1.8 .2-2.8c0-1 .2-2 .3-3.1h1.2c.1 .7 .5 1.2 1 1.5c.6 .3 1.2 .5 2 .5h10.3c-.5-2.9-1.3-5.3-2.4-7c-.9-1.5-2.2-2.7-3.9-3.8Zm-45.1 0c2.6 1.9 4.4 4.4 5.5 7.4c1 2.9 1.5 6.6 1.5 11.2v1.5h21.3c-.2-1.4-.6-2.5-1.2-3.5c-.3-.5-1-1.4-2.1-2.6l2.4-7.1c1.5 1.6 2.5 3.4 3 5.3c.6 1.8 .9 4.6 .9 8.2v7.8H401.4c-1.3 0-2.3-.3-3-.9c-.9-.6-1.3-1.7-1.3-3.3c0-.8 .1-1.8 .2-2.8c0-1 .2-2 .4-3.1h1.1c.1 .7 .5 1.2 1 1.5c.6 .3 1.2 .5 2 .5h10.3c-.5-2.9-1.3-5.3-2.4-7c-.9-1.5-2.2-2.7-3.9-3.8Zm395.3-5.4l6.9 3.7l-3.6 6.7l-6.9-3.7Zm-492.9-1.3l5.6 3l-3.1 5.8l-4.5-2.2l-2.5 4.8l-5.4-3l3.3-6.1l4.2 2.4Zm398.2-1.3l6.9 3.7l-3.5 6.7l-7-3.6Zm-337.4 0l1.8 10.5c.7 4 1.1 7.5 1.4 10.5c.2 2.2 .3 4.4 .3 6.5c0 1.8-.2 3.4-.6 4.8c-.5 1.5-1.3 3.5-2.5 5.9l-1.7-.7c.4-2.5 .7-4.6 .7-6.2c0-1.2-.1-3-.3-5.3c-.2-2.4-.5-4.7-.8-7c-.3-2.3-.8-5-1.4-8.2c-.3-1.1-.4-1.9-.4-2.3c0-.6 .3-1.7 .9-3.1c.6-1.5 1.5-3.3 2.6-5.4Zm-139.3 0l1.8 10.5c.6 4 1.1 7.5 1.3 10.5c.2 2.2 .3 4.4 .3 6.5c0 1.8-.2 3.4-.6 4.8c-.4 1.5-1.2 3.5-2.4 5.9l-1.8-.7c.5-2.5 .7-4.6 .7-6.2c0-1.2-.1-3-.3-5.3c-.2-2.4-.4-4.7-.7-7c-.3-2.3-.8-5-1.5-8.2c-.2-1.1-.3-1.9-.3-2.3c0-.6 .3-1.7 .9-3.1c.6-1.5 1.5-3.3 2.6-5.4Zm587.9-2.4l1.4 .7c0 .2-.1 .5-.1 1c0 .7 .4 1.3 1.2 1.9c.7 .6 1.9 1.2 3.5 1.9c-.2 1.2-.4 2.5-.8 3.7c-.3 1.2-.7 2.3-1.2 3.2l-1-.4l3.2 18.5h13.6c-.2-1.4-.6-2.5-1.2-3.5c-.3-.5-1-1.4-2.1-2.6l2.4-7.1c1.5 1.6 2.5 3.4 3.1 5.3c.5 1.8 .8 4.6 .8 8.2v7.8H811.6v.7c0 1.2-.7 2.8-2.1 4.8c-1.4 2-3 3.7-4.9 5.2c-2 1.6-3.8 2.4-5.3 2.4c-1.7 0-3.6-.5-5.6-1.5c-1.7-.8-4.5-2.5-8.2-5.1l1.3-1.8c1.8 1.1 3.2 2 4.3 2.4c1.1 .4 2.3 .6 3.5 .6c1.4 0 2.8-.4 4.2-1.2c1.3-.7 3.2-2.2 5.6-4.3c3.3-2.9 4.9-5.2 4.9-6.8c0-.8-.3-1.8-1-3.1c-.7-1.5-1.5-2.7-2.6-3.7l1.7-8c1.3 1.4 2.4 3 3.1 4.8c.8 1.8 1.1 3.8 1.1 6.1v.4h10.7l-3.6-20.3l-1.9-1.2c0-1.2 .2-2.4 .6-3.6c.4-1.5 1.2-3.3 2.3-5.4Zm-79.9 0l1.3 .7c0 .2 0 .5-.1 1c0 .7 .4 1.3 1.3 1.9c.7 .6 1.9 1.2 3.5 1.9c-.2 1.2-.5 2.5-.8 3.7c-.4 1.2-.7 2.3-1.2 3.2l-1.1-.4l3.3 18.5v8.1H694.5c-2.3 0-4-1-5-2.9c-1.2-2.1-1.8-5.6-1.8-10.6v-8.5c0-2-.2-3.5-.7-4.5c-.3-.5-.9-1.3-1.8-2.3l3.2-7.4c1.1 1.6 1.9 3.2 2.4 4.7c.5 1.8 .8 4.1 .8 6.9v5.9c0 4.1 .3 7 .8 8.6c.5 1.3 1.2 2 2.1 2h17.8c-.2-1.4-.6-2.5-1.2-3.5c-.3-.5-1-1.4-2.1-2.6l2.4-7.1c1.5 1.6 2.5 3.4 3 5.3c.5 1.6 .8 3.9 .8 6.9l.1 1h13.5c-.2-1.4-.6-2.5-1.2-3.5c-.3-.5-1-1.4-2.1-2.6l2.4-7.1c1.5 1.6 2.5 3.4 3 5.3c.5 1.6 .8 3.9 .8 6.9l.1 1h10.6l-3.6-20.3l-1.9-1.2c0-1.2 .2-2.4 .5-3.6c.5-1.5 1.3-3.3 2.4-5.4Zm-196.2 0l1.4 .7c0 .2-.1 .5-.1 1c0 .7 .4 1.3 1.2 1.9c.7 .6 1.9 1.2 3.5 1.9c-.2 1.2-.4 2.5-.8 3.7c-.3 1.2-.7 2.3-1.2 3.2l-1-.4l3.2 18.5H552c2.1 0 3.8-.6 5.2-1.8c1.8-1.5 2.7-3.9 2.7-7l2 .3c0 .7-.1 1.4-.1 2.2c-.1 .8-.1 1.7-.1 2.7c0 1 .4 1.9 1.1 2.5c.6 .7 1.4 1.1 2.3 1.1h3.7c2.4 0 4.2-.4 5.2-1.1c1.2-.8 1.9-2.3 1.9-4.5c0-.5 .1-.9 .4-1.3c.2-.2 .6-.5 1.1-1l1.2-.9c0 .4 0 .9 0 1.6c.1 .6 .1 1 .1 1.2c0 1.1-.2 2.6-.5 4.4c.7 .3 1.6 .7 2.5 .9c.9 .3 1.8 .5 2.9 .6c0-.7-.3-1.6-.8-2.6c-.5-1.1-.7-1.8-.7-2.2c0-.5 0-.9 .2-1.2c0-.1 .2-.4 .6-.9l2.6-3.4c.5 1.2 .9 2.3 1.1 3.4c.2 1 .4 2.3 .4 3.8v3.2h10.8l-3.6-20.3l-2-1.2c0-1.2 .2-2.4 .6-3.6c.4-1.5 1.2-3.3 2.3-5.4l1.4 .7c0 .2-.1 .5-.1 1c0 .7 .4 1.3 1.2 1.9c.8 .6 1.9 1.2 3.5 1.9c-.1 1.2-.4 2.5-.8 3.7c-.3 1.2-.7 2.3-1.1 3.2l-1.1-.4l3.2 18.5h2.2c2.1 0 3.8-.6 5.2-1.8c1.8-1.5 2.7-3.9 2.7-7l2 .3c0 .7-.1 1.4-.1 2.2c-.1 .8-.1 1.7-.1 2.7c0 1 .4 1.9 1.1 2.5c.7 .7 1.5 1.1 2.4 1.1h3.6c2.5 0 4.2-.4 5.2-1.1c1.3-.8 1.9-2.3 1.9-4.5c0-.5 .1-.9 .4-1.3c.2-.2 .6-.5 1.1-1l1.2-.9c0 .4 0 .9 .1 1.6c0 .6 0 1 0 1.2c0 1.1-.2 2.6-.5 4.4c.8 .3 1.6 .7 2.5 .9c.9 .3 1.9 .5 2.9 .6c0-.7-.3-1.6-.8-2.6c-.5-1.1-.7-1.8-.7-2.2c0-.5 .1-.9 .2-1.2c0-.1 .3-.4 .7-.9l2.5-3.4c.5 1.2 .9 2.3 1.1 3.4c.3 1 .4 2.3 .4 3.8v11.3c-2.3 0-4.1-.2-5.6-.5c-1.4-.3-2.9-.8-4.3-1.5c-1.2 .8-2.2 1.3-3.1 1.6c-.9 .2-2.3 .4-4.1 .4h-4.8c-1.4 0-2.4-.4-3.2-1.1c-.8-.7-1.5-1.8-2.1-3.4c-1.1 1.6-2.3 2.8-3.6 3.5c-1.2 .7-2.6 1-4.2 1H584.9v-.1h-1c-.9-.1-1.8-.2-2.5-.4c-1.5-.3-2.9-.8-4.3-1.5c-1.2 .8-2.2 1.3-3.1 1.6c-.9 .2-2.3 .4-4.1 .4H565c-1.3 0-2.3-.4-3.1-1.1c-.8-.7-1.5-1.8-2.1-3.4c-1.1 1.6-2.3 2.8-3.7 3.5c-1.1 .7-2.5 1-4.1 1H531.7c-.8 0-1.4-.2-2-.5c-1.2-.6-2.1-1.6-2.9-3.1c-1.1-2.1-1.8-5-2.1-8.7c-1.4 1.7-2.4 2.9-3.2 3.6c-1.1 1-2 1.5-2.7 1.5c-.4 0-.9-.1-1.5-.2l-3.6-.7c-1.5-.3-2.5-.6-2.9-.7c-.3-.1-.5-.4-.5-.7c0-.6 .7-2.3 2.1-5.1c1.4-2.9 2.4-4.6 3-5.3c.5-.5 1.4-1.2 2.6-2.1c.8-.5 1.9-1.2 3.2-2l1.6-.9c0-.3-.1-.6-.1-.9c0-.3 0-.5 0-.8c0-.7 .1-1.7 .5-2.8c.3-1.2 .9-2.6 1.8-4.3l2.9 18.6c.5 2.9 1 4.9 1.8 5.9c.5 .7 1.1 1.1 2 1.1h14.5l-3.6-20.3l-1.9-1.2c0-1.2 .2-2.4 .6-3.6c.4-1.5 1.2-3.3 2.3-5.4Zm-186.3 0l1.4 .7c0 .2 0 .5-.1 1c0 .7 .4 1.3 1.2 1.9c.8 .6 1.9 1.2 3.6 1.9c-.2 1.2-.5 2.5-.8 3.7c-.4 1.2-.8 2.3-1.2 3.2l-1.1-.4l3.3 18.5v8.1H262.1c-1.3 0-2.3-.3-3-.9c-.9-.6-1.3-1.7-1.3-3.3c0-.8 0-1.8 .1-2.8c.1-1 .2-2 .4-3.1h1.1c.2 .7 .6 1.2 1.1 1.5c.6 .3 1.2 .5 2 .5h10.2c-.4-2.9-1.2-5.3-2.3-7c-1-1.5-2.3-2.7-3.9-3.8l2.1-9.3c2.6 1.9 4.4 4.4 5.5 7.4c1 2.9 1.5 6.6 1.5 11.2v1.5h21.2c-.2-1.4-.6-2.5-1.1-3.5c-.3-.5-1-1.4-2.1-2.6l2.3-7.1c1.5 1.6 2.6 3.4 3.1 5.3c.5 1.6 .7 3.9 .8 6.9v1h13.5c-.2-1.4-.6-2.5-1.1-3.5c-.4-.5-1-1.4-2.1-2.6l2.3-7.1c1.5 1.6 2.6 3.4 3.1 5.3c.5 1.6 .8 3.9 .8 6.9v1h13.5c-.2-1.4-.6-2.5-1.1-3.5c-.3-.5-1-1.4-2.1-2.6l2.3-7.1c1.5 1.6 2.6 3.4 3.1 5.3c.5 1.6 .8 3.9 .8 6.9v1h13.5c-.2-1.4-.6-2.5-1.1-3.5c-.3-.5-1-1.4-2.1-2.6l2.3-7.1c1.5 1.6 2.6 3.4 3.1 5.3c.5 1.6 .8 3.9 .8 6.9v1H360l-3.6-20.3l-1.9-1.2c0-1.2 .1-2.4 .5-3.6c.5-1.5 1.2-3.3 2.3-5.4Zm-139.3 0l1.4 .7c0 .2-.1 .5-.1 1c0 .7 .4 1.3 1.2 1.9c.7 .6 1.9 1.2 3.5 1.9c-.2 1.2-.4 2.5-.8 3.7c-.3 1.2-.7 2.3-1.2 3.2l-1-.4l3.2 18.5v8.1H207.8v-.2h-.3c-1.5-.2-3.1-.6-4.9-1.1c-2.5-.7-4.7-1.5-6.6-2.5c-1.1 1.7-2.5 2.8-4.2 3.4c-.8 .2-2 .4-3.4 .4H160.6c-2.3 0-4-1-5-2.9c-1.1-2.1-1.7-5.6-1.7-10.6v-8.5c0-2-.3-3.5-.8-4.5c-.3-.5-.9-1.3-1.8-2.3l3.2-7.4c1.2 1.6 2 3.2 2.4 4.7c.6 1.8 .8 4.1 .8 6.9v5.9c0 4.1 .3 7 .9 8.6c.4 1.3 1.1 2 2 2h7.5c.9 0 1.8 0 2.6 .1c2.2 .2 4.7 .5 7.5 .8c-3-.7-5.1-1.5-6.2-2.6c-1.2-1.1-1.8-2.7-1.8-4.7c0-3.1 .7-5.9 2.1-8.4c1.4-2.5 3-3.7 4.8-3.7c2 0 3.8 1.7 5.3 5.2c1.5 3.5 2.2 7.7 2.2 12.6v.7h3.8c1.8 0 3.2-.3 4.3-.7c1.3-.6 2.3-1.5 2.8-2.9c1.1-2.5 2.6-4.6 4.3-6.2c1.6-1.5 3-2.2 4.1-2.2c1 0 2.2 1.5 3.7 4.6c1.2 2.4 1.9 4.7 2.2 6.8v.6h10.8L217 304.4l-1.9-1.2c0-1.2 .2-2.4 .6-3.6c.4-1.5 1.2-3.3 2.3-5.4Zm-42.6-.3l5.5 3l-3.1 5.8l-4.4-2.2l-2.5 4.8l-5.4-3l3.3-6.1l4.2 2.4Zm347.9-5.7l5.4 2.8l-3.3 5.5l-4.2-2.4l-2.4 4.7l-5.6-3l3.1-5.2l4.4 2.2Z" class="g0_78"/>
<path d="M721.8 335.3l7 3.7l-3.6 6.6l-7-3.6Zm-382.4 0l6.9 3.7l-3.6 6.6l-6.9-3.6Zm-16.5 0l6.9 3.7l-3.6 6.6l-6.9-3.6Zm513.6-.3l5.5 3l-3.1 5.8l-4.4-2.2l-2.5 4.8l-5.4-3l3.3-6.1l4.2 2.4Zm-403.4 0l5.6 3l-3.1 5.8l-4.4-2.2l-2.5 4.8l-5.5-3l3.3-6.1l4.3 2.4Zm-139.3 0l5.6 3l-3.1 5.8l-4.5-2.2l-2.5 4.8l-5.4-3l3.3-6.1l4.2 2.4Zm-93.2-15.3c-.8 0-1.4 .9-1.9 2.7c1 .4 1.8 .7 2.3 .9c1.6 .6 2.5 .9 2.7 .9c.5 0 .7-.2 .7-.5c0-.4-.4-1.2-1.3-2.2c-1-1.2-1.8-1.8-2.5-1.8Zm574.5-4.5c1.3 0 2.8 .8 4.4 2.3c1.7 1.5 3.6 3.9 5.7 7.2v8.1l-3.9-.1c-3.6 0-6.8 .4-9.6 1c-2.8 .6-4.2 1.3-4.2 2.1c.8 2.4 1.4 4.6 2.1 6.7c.6 2.1 .9 4.1 .9 5.9c0 1.4-.2 2.5-.4 3.3c-.3 .8-.8 1.8-1.6 2.7c-.2-2.6-.7-5.3-1.4-8.2c-.3-1-.9-3.2-1.9-6.4c-.7-2-1-3.4-1-4c0-1 .3-2.1 .8-3.5c.4-1.1 .9-2.1 1.4-3c.6-1 1.8-1.8 3.3-2.4c1.6-.6 4-1 7.3-1.4c-1.6-2.2-3-3.3-4.2-3.3c-.5 0-1 .2-1.5 .6c-.4 .4-1.2 1.3-2.2 2.6l-1.4-.7c.8-3 1.9-5.4 3.2-7c1.3-1.7 2.7-2.5 4.2-2.5ZM175.5 315c-.4 0-.7 .1-1 .4c-.3 .2-.4 .5-.4 .9c0 .8 .6 1.7 1.9 2.5c1.3 .8 2.8 1.3 4.6 1.6c-.8-1.7-1.6-3-2.4-4c-.9-.9-1.8-1.4-2.7-1.4Zm347.9-2.6c-.7 .2-1.2 .5-1.5 .7c-1.1 .5-2 1.1-2.7 1.6c-.4 .4-.8 .7-1.1 1.1c-.4 .4-.6 .7-.6 1c0 .2 .3 .5 1 .6c.7 .2 1.4 .3 2.1 .3c.4 0 .9-.2 1.3-.4c.5-.3 1.2-.7 2.1-1.4Zm146.3-2c1.4 0 2.6 .3 3.7 .9c1.1 .6 2.2 1.6 3.5 3.2l-4 6.6c-.9-1-1.8-1.8-2.6-2.3c-.8-.5-1.6-.7-2.4-.7c-.6 0-1.1 .2-1.6 .5c-.5 .3-.7 .8-.7 1.2c0 .6 .4 1.3 1.2 2c.8 .7 2.2 1.5 4.2 2.5c2.5-1.2 4.4-1.9 5.6-2.3c1.3-.3 2.9-.6 4.9-.8l-2.3 6.9c-3.1 .8-5.6 1.6-7.6 2.6c-1.9 .8-3.5 2-5.1 3.3c-1 .9-2.4 2.5-4.3 4.7l-1.8-.6c0-1.4 .3-2.7 1-4c.5-1 1.4-2.4 2.7-4.1c-1.8-1.9-3.1-3.2-3.7-4.1c-.6-.8-.9-1.7-.9-2.5c0-1.1 .8-3.1 2.3-5.8c1.6-2.8 2.9-4.7 4-5.7c1.1-1 2.4-1.5 3.9-1.5ZM453 304.6c2.6 1.9 4.4 4.4 5.5 7.4c1 2.9 1.5 6.6 1.5 11.2v1.5h1.1c.6 0 1 0 1.3-.1c.6 0 1.2-.1 1.8-.1c-1-1.5-1.7-2.7-2-3.7c-.4-.9-.6-1.9-.6-3.1c0-2.9 1.3-5.5 3.7-7.7c2.5-2.3 5.4-3.4 8.6-3.4c2.2 0 4.3 .8 6.4 2.2c1.8 1.4 3.2 3 4 4.9l-1.2 1.1c-1.6-.6-2.9-1-3.8-1.2c-.9-.1-2.1-.2-3.4-.2c-2.5 0-4.6 .2-6.4 .6c-2.3 .5-3.4 1.2-3.4 2.1c0 1.4 2.7 3.6 8.2 6.8l15.2-4.3l-3.3 8.4c-5.4 1.7-9.8 2.9-13.3 3.8c-3 .8-5.6 1.4-7.7 1.6c-1.5 .3-3.1 .4-4.6 .4H446.5c-1.3 0-2.3-.3-3-.9c-.9-.6-1.3-1.7-1.3-3.3c0-.8 .1-1.8 .2-2.8c0-1 .2-2 .3-3.1h1.2c.1 .7 .5 1.2 1 1.5c.6 .3 1.2 .5 2 .5h10.3c-.5-2.9-1.3-5.3-2.4-7c-.9-1.5-2.2-2.7-3.9-3.8Zm-45.1 0c2.6 1.9 4.4 4.4 5.5 7.4c1 2.9 1.5 6.6 1.5 11.2v1.5h21.3c-.2-1.4-.6-2.5-1.2-3.5c-.3-.5-1-1.4-2.1-2.6l2.4-7.1c1.5 1.6 2.5 3.4 3 5.3c.6 1.8 .9 4.6 .9 8.2v7.8H401.4c-1.3 0-2.3-.3-3-.9c-.9-.6-1.3-1.7-1.3-3.3c0-.8 .1-1.8 .2-2.8c0-1 .2-2 .4-3.1h1.1c.1 .7 .5 1.2 1 1.5c.6 .3 1.2 .5 2 .5h10.3c-.5-2.9-1.3-5.3-2.4-7c-.9-1.5-2.2-2.7-3.9-3.8Zm395.3-5.4l6.9 3.7l-3.6 6.7l-6.9-3.7Zm-492.9-1.3l5.6 3l-3.1 5.8l-4.5-2.2l-2.5 4.8l-5.4-3l3.3-6.1l4.2 2.4Zm398.2-1.3l6.9 3.7l-3.5 6.7l-7-3.6Zm-337.4 0l1.8 10.5c.7 4 1.1 7.5 1.4 10.5c.2 2.2 .3 4.4 .3 6.5c0 1.8-.2 3.4-.6 4.8c-.5 1.5-1.3 3.5-2.5 5.9l-1.7-.7c.4-2.5 .7-4.6 .7-6.2c0-1.2-.1-3-.3-5.3c-.2-2.4-.5-4.7-.8-7c-.3-2.3-.8-5-1.4-8.2c-.3-1.1-.4-1.9-.4-2.3c0-.6 .3-1.7 .9-3.1c.6-1.5 1.5-3.3 2.6-5.4Zm-139.3 0l1.8 10.5c.6 4 1.1 7.5 1.3 10.5c.2 2.2 .3 4.4 .3 6.5c0 1.8-.2 3.4-.6 4.8c-.4 1.5-1.2 3.5-2.4 5.9l-1.8-.7c.5-2.5 .7-4.6 .7-6.2c0-1.2-.1-3-.3-5.3c-.2-2.4-.4-4.7-.7-7c-.3-2.3-.8-5-1.5-8.2c-.2-1.1-.3-1.9-.3-2.3c0-.6 .3-1.7 .9-3.1c.6-1.5 1.5-3.3 2.6-5.4Zm587.9-2.4l1.4 .7c0 .2-.1 .5-.1 1c0 .7 .4 1.3 1.2 1.9c.7 .6 1.9 1.2 3.5 1.9c-.2 1.2-.4 2.5-.8 3.7c-.3 1.2-.7 2.3-1.2 3.2l-1-.4l3.2 18.5h13.6c-.2-1.4-.6-2.5-1.2-3.5c-.3-.5-1-1.4-2.1-2.6l2.4-7.1c1.5 1.6 2.5 3.4 3.1 5.3c.5 1.8 .8 4.6 .8 8.2v7.8H811.6v.7c0 1.2-.7 2.8-2.1 4.8c-1.4 2-3 3.7-4.9 5.2c-2 1.6-3.8 2.4-5.3 2.4c-1.7 0-3.6-.5-5.6-1.5c-1.7-.8-4.5-2.5-8.2-5.1l1.3-1.8c1.8 1.1 3.2 2 4.3 2.4c1.1 .4 2.3 .6 3.5 .6c1.4 0 2.8-.4 4.2-1.2c1.3-.7 3.2-2.2 5.6-4.3c3.3-2.9 4.9-5.2 4.9-6.8c0-.8-.3-1.8-1-3.1c-.7-1.5-1.5-2.7-2.6-3.7l1.7-8c1.3 1.4 2.4 3 3.1 4.8c.8 1.8 1.1 3.8 1.1 6.1v.4h10.7l-3.6-20.3l-1.9-1.2c0-1.2 .2-2.4 .6-3.6c.4-1.5 1.2-3.3 2.3-5.4Zm-79.9 0l1.3 .7c0 .2 0 .5-.1 1c0 .7 .4 1.3 1.3 1.9c.7 .6 1.9 1.2 3.5 1.9c-.2 1.2-.5 2.5-.8 3.7c-.4 1.2-.7 2.3-1.2 3.2l-1.1-.4l3.3 18.5v8.1H694.5c-2.3 0-4-1-5-2.9c-1.2-2.1-1.8-5.6-1.8-10.6v-8.5c0-2-.2-3.5-.7-4.5c-.3-.5-.9-1.3-1.8-2.3l3.2-7.4c1.1 1.6 1.9 3.2 2.4 4.7c.5 1.8 .8 4.1 .8 6.9v5.9c0 4.1 .3 7 .8 8.6c.5 1.3 1.2 2 2.1 2h17.8c-.2-1.4-.6-2.5-1.2-3.5c-.3-.5-1-1.4-2.1-2.6l2.4-7.1c1.5 1.6 2.5 3.4 3 5.3c.5 1.6 .8 3.9 .8 6.9l.1 1h13.5c-.2-1.4-.6-2.5-1.2-3.5c-.3-.5-1-1.4-2.1-2.6l2.4-7.1c1.5 1.6 2.5 3.4 3 5.3c.5 1.6 .8 3.9 .8 6.9l.1 1h10.6l-3.6-20.3l-1.9-1.2c0-1.2 .2-2.4 .5-3.6c.5-1.5 1.3-3.3 2.4-5.4Zm-196.2 0l1.4 .7c0 .2-.1 .5-.1 1c0 .7 .4 1.3 1.2 1.9c.7 .6 1.9 1.2 3.5 1.9c-.2 1.2-.4 2.5-.8 3.7c-.3 1.2-.7 2.3-1.2 3.2l-1-.4l3.2 18.5H552c2.1 0 3.8-.6 5.2-1.8c1.8-1.5 2.7-3.9 2.7-7l2 .3c0 .7-.1 1.4-.1 2.2c-.1 .8-.1 1.7-.1 2.7c0 1 .4 1.9 1.1 2.5c.6 .7 1.4 1.1 2.3 1.1h3.7c2.4 0 4.2-.4 5.2-1.1c1.2-.8 1.9-2.3 1.9-4.5c0-.5 .1-.9 .4-1.3c.2-.2 .6-.5 1.1-1l1.2-.9c0 .4 0 .9 0 1.6c.1 .6 .1 1 .1 1.2c0 1.1-.2 2.6-.5 4.4c.7 .3 1.6 .7 2.5 .9c.9 .3 1.8 .5 2.9 .6c0-.7-.3-1.6-.8-2.6c-.5-1.1-.7-1.8-.7-2.2c0-.5 0-.9 .2-1.2c0-.1 .2-.4 .6-.9l2.6-3.4c.5 1.2 .9 2.3 1.1 3.4c.2 1 .4 2.3 .4 3.8v3.2h10.8l-3.6-20.3l-2-1.2c0-1.2 .2-2.4 .6-3.6c.4-1.5 1.2-3.3 2.3-5.4l1.4 .7c0 .2-.1 .5-.1 1c0 .7 .4 1.3 1.2 1.9c.8 .6 1.9 1.2 3.5 1.9c-.1 1.2-.4 2.5-.8 3.7c-.3 1.2-.7 2.3-1.1 3.2l-1.1-.4l3.2 18.5h2.2c2.1 0 3.8-.6 5.2-1.8c1.8-1.5 2.7-3.9 2.7-7l2 .3c0 .7-.1 1.4-.1 2.2c-.1 .8-.1 1.7-.1 2.7c0 1 .4 1.9 1.1 2.5c.7 .7 1.5 1.1 2.4 1.1h3.6c2.5 0 4.2-.4 5.2-1.1c1.3-.8 1.9-2.3 1.9-4.5c0-.5 .1-.9 .4-1.3c.2-.2 .6-.5 1.1-1l1.2-.9c0 .4 0 .9 .1 1.6c0 .6 0 1 0 1.2c0 1.1-.2 2.6-.5 4.4c.8 .3 1.6 .7 2.5 .9c.9 .3 1.9 .5 2.9 .6c0-.7-.3-1.6-.8-2.6c-.5-1.1-.7-1.8-.7-2.2c0-.5 .1-.9 .2-1.2c0-.1 .3-.4 .7-.9l2.5-3.4c.5 1.2 .9 2.3 1.1 3.4c.3 1 .4 2.3 .4 3.8v11.3c-2.3 0-4.1-.2-5.6-.5c-1.4-.3-2.9-.8-4.3-1.5c-1.2 .8-2.2 1.3-3.1 1.6c-.9 .2-2.3 .4-4.1 .4h-4.8c-1.4 0-2.4-.4-3.2-1.1c-.8-.7-1.5-1.8-2.1-3.4c-1.1 1.6-2.3 2.8-3.6 3.5c-1.2 .7-2.6 1-4.2 1H584.9v-.1h-1c-.9-.1-1.8-.2-2.5-.4c-1.5-.3-2.9-.8-4.3-1.5c-1.2 .8-2.2 1.3-3.1 1.6c-.9 .2-2.3 .4-4.1 .4H565c-1.3 0-2.3-.4-3.1-1.1c-.8-.7-1.5-1.8-2.1-3.4c-1.1 1.6-2.3 2.8-3.7 3.5c-1.1 .7-2.5 1-4.1 1H531.7c-.8 0-1.4-.2-2-.5c-1.2-.6-2.1-1.6-2.9-3.1c-1.1-2.1-1.8-5-2.1-8.7c-1.4 1.7-2.4 2.9-3.2 3.6c-1.1 1-2 1.5-2.7 1.5c-.4 0-.9-.1-1.5-.2l-3.6-.7c-1.5-.3-2.5-.6-2.9-.7c-.3-.1-.5-.4-.5-.7c0-.6 .7-2.3 2.1-5.1c1.4-2.9 2.4-4.6 3-5.3c.5-.5 1.4-1.2 2.6-2.1c.8-.5 1.9-1.2 3.2-2l1.6-.9c0-.3-.1-.6-.1-.9c0-.3 0-.5 0-.8c0-.7 .1-1.7 .5-2.8c.3-1.2 .9-2.6 1.8-4.3l2.9 18.6c.5 2.9 1 4.9 1.8 5.9c.5 .7 1.1 1.1 2 1.1h14.5l-3.6-20.3l-1.9-1.2c0-1.2 .2-2.4 .6-3.6c.4-1.5 1.2-3.3 2.3-5.4Zm-186.3 0l1.4 .7c0 .2 0 .5-.1 1c0 .7 .4 1.3 1.2 1.9c.8 .6 1.9 1.2 3.6 1.9c-.2 1.2-.5 2.5-.8 3.7c-.4 1.2-.8 2.3-1.2 3.2l-1.1-.4l3.3 18.5v8.1H262.1c-1.3 0-2.3-.3-3-.9c-.9-.6-1.3-1.7-1.3-3.3c0-.8 0-1.8 .1-2.8c.1-1 .2-2 .4-3.1h1.1c.2 .7 .6 1.2 1.1 1.5c.6 .3 1.2 .5 2 .5h10.2c-.4-2.9-1.2-5.3-2.3-7c-1-1.5-2.3-2.7-3.9-3.8l2.1-9.3c2.6 1.9 4.4 4.4 5.5 7.4c1 2.9 1.5 6.6 1.5 11.2v1.5h21.2c-.2-1.4-.6-2.5-1.1-3.5c-.3-.5-1-1.4-2.1-2.6l2.3-7.1c1.5 1.6 2.6 3.4 3.1 5.3c.5 1.6 .7 3.9 .8 6.9v1h13.5c-.2-1.4-.6-2.5-1.1-3.5c-.4-.5-1-1.4-2.1-2.6l2.3-7.1c1.5 1.6 2.6 3.4 3.1 5.3c.5 1.6 .8 3.9 .8 6.9v1h13.5c-.2-1.4-.6-2.5-1.1-3.5c-.3-.5-1-1.4-2.1-2.6l2.3-7.1c1.5 1.6 2.6 3.4 3.1 5.3c.5 1.6 .8 3.9 .8 6.9v1h13.5c-.2-1.4-.6-2.5-1.1-3.5c-.3-.5-1-1.4-2.1-2.6l2.3-7.1c1.5 1.6 2.6 3.4 3.1 5.3c.5 1.6 .8 3.9 .8 6.9v1H360l-3.6-20.3l-1.9-1.2c0-1.2 .1-2.4 .5-3.6c.5-1.5 1.2-3.3 2.3-5.4Zm-139.3 0l1.4 .7c0 .2-.1 .5-.1 1c0 .7 .4 1.3 1.2 1.9c.7 .6 1.9 1.2 3.5 1.9c-.2 1.2-.4 2.5-.8 3.7c-.3 1.2-.7 2.3-1.2 3.2l-1-.4l3.2 18.5v8.1H207.8v-.2h-.3c-1.5-.2-3.1-.6-4.9-1.1c-2.5-.7-4.7-1.5-6.6-2.5c-1.1 1.7-2.5 2.8-4.2 3.4c-.8 .2-2 .4-3.4 .4H160.6c-2.3 0-4-1-5-2.9c-1.1-2.1-1.7-5.6-1.7-10.6v-8.5c0-2-.3-3.5-.8-4.5c-.3-.5-.9-1.3-1.8-2.3l3.2-7.4c1.2 1.6 2 3.2 2.4 4.7c.6 1.8 .8 4.1 .8 6.9v5.9c0 4.1 .3 7 .9 8.6c.4 1.3 1.1 2 2 2h7.5c.9 0 1.8 0 2.6 .1c2.2 .2 4.7 .5 7.5 .8c-3-.7-5.1-1.5-6.2-2.6c-1.2-1.1-1.8-2.7-1.8-4.7c0-3.1 .7-5.9 2.1-8.4c1.4-2.5 3-3.7 4.8-3.7c2 0 3.8 1.7 5.3 5.2c1.5 3.5 2.2 7.7 2.2 12.6v.7h3.8c1.8 0 3.2-.3 4.3-.7c1.3-.6 2.3-1.5 2.8-2.9c1.1-2.5 2.6-4.6 4.3-6.2c1.6-1.5 3-2.2 4.1-2.2c1 0 2.2 1.5 3.7 4.6c1.2 2.4 1.9 4.7 2.2 6.8v.6h10.8L217 304.4l-1.9-1.2c0-1.2 .2-2.4 .6-3.6c.4-1.5 1.2-3.3 2.3-5.4Zm-42.6-.3l5.5 3l-3.1 5.8l-4.4-2.2l-2.5 4.8l-5.4-3l3.3-6.1l4.2 2.4Zm347.9-5.7l5.4 2.8l-3.3 5.5l-4.2-2.4l-2.4 4.7l-5.6-3l3.1-5.2l4.4 2.2Z" class="g1_78"/>
<path fill-rule="evenodd" d="M140.6 335.3l7 3.7l-3.6 6.6l-7-3.6Zm-82.1-9.6c1.1 0 1.9 .4 2.6 1.1c.7 .8 1.1 1.7 1.1 2.7c0 1-.4 1.8-1.1 2.6c-.8 .7-1.6 1.1-2.7 1.1c-.9 0-1.8-.4-2.5-1.1c-.7-.8-1.1-1.6-1.1-2.6c0-1.1 .4-1.9 1.1-2.7c.7-.7 1.6-1.1 2.6-1.1Zm41.4-13.3c-.7 .2-1.2 .5-1.5 .7c-1.1 .5-2 1.1-2.7 1.6c-.4 .4-.8 .7-1.1 1.1c-.4 .4-.6 .7-.6 1c0 .2 .3 .5 1 .6c.7 .2 1.4 .3 2.1 .3c.4 0 .9-.2 1.3-.4c.5-.3 1.2-.7 2.1-1.4ZM59 298.1c2.4 0 4.4 .7 6.1 2c1.6 1.4 2.5 3.2 2.5 5.4c0 1.2-.4 2.3-1.1 3.2c-.8 1.1-1.9 1.6-3.1 1.6c-1 0-1.8-.3-2.5-1c-.7-.6-1-1.4-1-2.3c0-1.3 .6-2.3 1.7-3c1.1-.7 1.6-1.3 1.6-1.7c0-.7-.3-1.2-1-1.6c-.6-.4-1.4-.7-2.5-.7c-1.3 0-2.3 .4-3.1 1.1c-.9 .8-1.3 1.6-1.3 2.7c0 1 .4 2.2 1.3 3.7c1.3 2.3 2 3.8 2.3 4.5c.8 2.1 1.3 4.3 1.3 6.8c0 1.3-.1 2.8-.3 4.4l-1.9-.1c0-.3 .1-.6 .1-.8l.1-1.5c0-1.2-.7-2.4-2.2-3.7c-2.5-2.2-3.9-3.5-4.1-3.7c-1.5-1.8-2.2-3.8-2.2-6c0-2.7 .9-4.9 2.6-6.7c1.8-1.7 4.1-2.6 6.7-2.6Zm68.8-3.9l1.4 .7c0 .2-.1 .5-.2 1c0 .7 .5 1.3 1.3 1.9c.7 .6 1.9 1.2 3.5 1.9c-.2 1.2-.4 2.5-.8 3.7c-.3 1.2-.7 2.3-1.2 3.2l-1-.4l3.2 18.5h13.6c-.2-1.4-.6-2.5-1.2-3.5c-.3-.5-1-1.4-2.1-2.6l2.4-7.1c1.5 1.6 2.5 3.4 3.1 5.3c.5 1.8 .8 4.6 .8 8.2v7.8H108.1c-.7 0-1.3-.2-1.9-.5c-1.2-.6-2.1-1.6-2.9-3.1c-1.1-2.1-1.8-5-2.1-8.7c-1.4 1.7-2.4 2.9-3.2 3.6c-1.1 1-2 1.5-2.7 1.5c-.4 0-.9-.1-1.5-.2l-3.6-.7c-1.5-.3-2.5-.6-2.9-.7c-.3-.1-.5-.4-.5-.7c0-.6 .7-2.3 2.1-5.1c1.4-2.9 2.4-4.6 3-5.3c.5-.5 1.4-1.2 2.6-2.1c.8-.5 1.9-1.2 3.2-2l1.6-.9c0-.3-.1-.6-.1-.9c0-.3-.1-.5-.1-.8c0-.7 .2-1.7 .6-2.8c.3-1.2 .9-2.6 1.8-4.3l2.9 18.6c.5 2.9 1 4.9 1.8 5.9c.5 .7 1.1 1.1 1.9 1.1h22.3l-3.6-20.3l-1.9-1.2c0-1.2 .2-2.4 .6-3.6c.4-1.5 1.2-3.3 2.3-5.4Zm-28-6l5.4 2.8l-3.3 5.5l-4.2-2.4l-2.4 4.7l-5.6-3l3.1-5.2l4.4 2.2Z" class="g0_78"/>
<path d="M140.6 335.3l7 3.7l-3.6 6.6l-7-3.6Zm-82.1-9.6c1.1 0 1.9 .4 2.6 1.1c.7 .8 1.1 1.7 1.1 2.7c0 1-.4 1.8-1.1 2.6c-.8 .7-1.6 1.1-2.7 1.1c-.9 0-1.8-.4-2.5-1.1c-.7-.8-1.1-1.6-1.1-2.6c0-1.1 .4-1.9 1.1-2.7c.7-.7 1.6-1.1 2.6-1.1Zm41.4-13.3c-.7 .2-1.2 .5-1.5 .7c-1.1 .5-2 1.1-2.7 1.6c-.4 .4-.8 .7-1.1 1.1c-.4 .4-.6 .7-.6 1c0 .2 .3 .5 1 .6c.7 .2 1.4 .3 2.1 .3c.4 0 .9-.2 1.3-.4c.5-.3 1.2-.7 2.1-1.4ZM59 298.1c2.4 0 4.4 .7 6.1 2c1.6 1.4 2.5 3.2 2.5 5.4c0 1.2-.4 2.3-1.1 3.2c-.8 1.1-1.9 1.6-3.1 1.6c-1 0-1.8-.3-2.5-1c-.7-.6-1-1.4-1-2.3c0-1.3 .6-2.3 1.7-3c1.1-.7 1.6-1.3 1.6-1.7c0-.7-.3-1.2-1-1.6c-.6-.4-1.4-.7-2.5-.7c-1.3 0-2.3 .4-3.1 1.1c-.9 .8-1.3 1.6-1.3 2.7c0 1 .4 2.2 1.3 3.7c1.3 2.3 2 3.8 2.3 4.5c.8 2.1 1.3 4.3 1.3 6.8c0 1.3-.1 2.8-.3 4.4l-1.9-.1c0-.3 .1-.6 .1-.8l.1-1.5c0-1.2-.7-2.4-2.2-3.7c-2.5-2.2-3.9-3.5-4.1-3.7c-1.5-1.8-2.2-3.8-2.2-6c0-2.7 .9-4.9 2.6-6.7c1.8-1.7 4.1-2.6 6.7-2.6Zm68.8-3.9l1.4 .7c0 .2-.1 .5-.2 1c0 .7 .5 1.3 1.3 1.9c.7 .6 1.9 1.2 3.5 1.9c-.2 1.2-.4 2.5-.8 3.7c-.3 1.2-.7 2.3-1.2 3.2l-1-.4l3.2 18.5h13.6c-.2-1.4-.6-2.5-1.2-3.5c-.3-.5-1-1.4-2.1-2.6l2.4-7.1c1.5 1.6 2.5 3.4 3.1 5.3c.5 1.8 .8 4.6 .8 8.2v7.8H108.1c-.7 0-1.3-.2-1.9-.5c-1.2-.6-2.1-1.6-2.9-3.1c-1.1-2.1-1.8-5-2.1-8.7c-1.4 1.7-2.4 2.9-3.2 3.6c-1.1 1-2 1.5-2.7 1.5c-.4 0-.9-.1-1.5-.2l-3.6-.7c-1.5-.3-2.5-.6-2.9-.7c-.3-.1-.5-.4-.5-.7c0-.6 .7-2.3 2.1-5.1c1.4-2.9 2.4-4.6 3-5.3c.5-.5 1.4-1.2 2.6-2.1c.8-.5 1.9-1.2 3.2-2l1.6-.9c0-.3-.1-.6-.1-.9c0-.3-.1-.5-.1-.8c0-.7 .2-1.7 .6-2.8c.3-1.2 .9-2.6 1.8-4.3l2.9 18.6c.5 2.9 1 4.9 1.8 5.9c.5 .7 1.1 1.1 1.9 1.1h22.3l-3.6-20.3l-1.9-1.2c0-1.2 .2-2.4 .6-3.6c.4-1.5 1.2-3.3 2.3-5.4Zm-28-6l5.4 2.8l-3.3 5.5l-4.2-2.4l-2.4 4.7l-5.6-3l3.1-5.2l4.4 2.2Z" class="g1_78"/>
<image clip-path="url(#c1_78)" preserveAspectRatio="none" x="1344" y="457" width="108" height="72" href="img/2.jpg"/>
<image clip-path="url(#c2_78)" preserveAspectRatio="none" x="1347" y="550" width="102" height="71" href="img/3.jpg"/>
<image clip-path="url(#c3_78)" preserveAspectRatio="none" x="1347" y="642" width="102" height="74" href="img/4.jpg"/>
<image clip-path="url(#c4_78)" preserveAspectRatio="none" x="1353" y="745" width="96" height="80" href="img/5.jpg"/>
<image clip-path="url(#c5_78)" preserveAspectRatio="none" x="4" y="348" width="1056" height="437" href="img/6.png"/>
</svg>