<svg viewBox="0 0 1466 825" version="1.1" xmlns="http://www.w3.org/2000/svg">
<defs>
<clipPath id="c0_25"><path d="M-.2 825.3V-.2H1467V825.3Z"/></clipPath>
<clipPath id="c1_25"><path d="M15.3 807V381.4H690.9V807Z"/></clipPath>
<style>
.g0_25{fill:#009;}
.g1_25{fill:none;stroke:#000;stroke-width:1.466;stroke-linejoin:round;}
.g2_25{fill:#F00;}
</style>
</defs>
<image clip-path="url(#c0_25)" preserveAspectRatio="none" x="0" y="-7" width="1467" height="840" href="img/1.jpg"/>
<path fill-rule="evenodd" d="M1376.2 434.5h16.4v-8.4h-16.4v8.4Z" class="g0_25"/>
<path d="M1376.2 434.5h16.4v-8.4h-16.4v8.4Z" class="g1_25"/>
<path fill-rule="evenodd" d="M1112.2 273.2l4.7 2.3l-2.2 4.1l-4.6-2.3l-2.2 3.9l-4.6-2.4l2.2-4.2l4.5 2.4Zm-104.9 0l4.7 2.3l-2.2 4.1l-4.6-2.3l-2.2 3.9l-4.6-2.4l2.3-4.2l4.4 2.4Zm-45.5-10.4l5.6 3.1l-3.1 5.7l-4.5-2.2l-2.5 4.9l-5.4-3.1l3.3-6.1l4.2 2.4Zm-215 0l5.5 3.1l-3.1 5.7l-4.4-2.2l-2.5 4.9l-5.4-3.1l3.2-6.1l4.3 2.4Zm-91.2 0l5.6 3.1l-3.1 5.7l-4.4-2.2l-2.5 4.9l-5.5-3.1l3.3-6.1l4.3 2.4Zm-44 0l5.6 3.1l-3.1 5.7l-4.4-2.2l-2.5 4.9l-5.5-3.1l3.3-6.1l4.3 2.4Zm332.7-15.1c-.6 0-1.1 .2-1.4 .7c-.4 .5-.6 1.1-.6 1.6c0 .7 .4 1.3 1.2 1.8c.8 .5 1.8 .7 3.1 .7h1.1c-.5-3.2-1.7-4.8-3.4-4.8Zm-306.1 0c-.7 0-1.1 .2-1.5 .7c-.4 .5-.6 1.1-.6 1.6c0 .7 .4 1.3 1.2 1.8c.8 .5 1.8 .7 3.1 .7h1.2c-.6-3.2-1.7-4.8-3.4-4.8Zm144.8-.2c-.8 0-1.4 .9-2 2.7c1.1 .4 1.9 .7 2.4 .9c1.6 .6 2.5 .9 2.7 .9c.5 0 .7-.1 .7-.4c0-.5-.5-1.2-1.3-2.3c-1-1.2-1.8-1.8-2.5-1.8Zm130.5-.9c-1.3 0-2.8 .4-4.4 1.3c-1.6 .8-4 2.4-7.1 4.6h7.8c6.5 0 9.8-1 9.8-3c0-.9-.7-1.7-2.2-2.2c-1.1-.5-2.4-.7-3.9-.7Zm-363-4.3l1 1.6c-1.2 1.1-2.1 2-2.7 2.8c-1.1 1.4-1.6 2.7-1.6 3.7c0 1.1 1 1.9 3.2 2.4c2.2 .4 3.2 1.8 3.2 4.1c0 1.1-.4 2-1.2 2.9c-.8 .8-1.8 1.2-3 1.2c-1.6 0-2.8-.7-3.8-2.1c-1.1-1.5-1.6-3.3-1.6-5.4c0-2.9 .9-5.5 2.7-7.8c.8-1.1 2.1-2.2 3.8-3.4Zm701.5-.2c.5 1.2 .9 2.4 1.2 3.4c.2 1 .3 2.3 .3 3.8v11.3c-2.2 0-4.1-.1-5.5-.5c-1.5-.3-3-.8-4.4-1.5c-1.2 .8-2.2 1.4-3.1 1.6c-.9 .3-2.2 .4-4.1 .4h-4.8c-1.3 0-2.4-.3-3.2-1c-.7-.7-1.4-1.9-2.1-3.5c-1.1 1.7-2.3 2.9-3.6 3.6c-1.2 .6-2.6 .9-4.2 .9h-6c-3.7 0-6.9 .3-9.7 .9c-2.8 .6-4.2 1.3-4.2 2.1c.8 2.4 1.5 4.6 2.1 6.7c.6 2.1 .9 4.1 .9 6c0 1.3-.1 2.4-.4 3.2c-.3 .9-.8 1.8-1.5 2.8c-.2-2.6-.7-5.4-1.5-8.3c-.2-1-.9-3.1-1.9-6.4c-.6-2-1-3.3-1-4c0-.9 .3-2.1 .8-3.5c.4-1.1 .9-2.1 1.4-3c.7-1 1.8-1.7 3.4-2.3c1.6-.6 4-1.1 7.2-1.4c-1.6-2.3-3-3.4-4.2-3.4c-.5 0-1 .2-1.4 .6c-.5 .4-1.2 1.3-2.3 2.6l-1.4-.7c.9-3 2-5.4 3.2-7c1.3-1.6 2.7-2.4 4.3-2.4c1.3 0 2.8 .7 4.4 2.2c1.6 1.6 3.5 4 5.7 7.2h2.1c2.1 0 3.9-.6 5.3-1.8c1.8-1.5 2.7-3.8 2.7-6.9l1.9 .3c0 .6-.1 1.3-.1 2.1c0 .9 0 1.8 0 2.8c0 1 .3 1.8 1 2.5c.7 .7 1.5 1 2.4 1h3.6c2.5 0 4.2-.3 5.2-1c1.3-.8 1.9-2.4 1.9-4.6c0-.5 .2-.9 .5-1.2c.1-.3 .5-.6 1.1-1l1.1-.9c0 .4 .1 .9 .1 1.5c0 .7 0 1.1 0 1.3c0 1.1-.1 2.5-.5 4.3c.8 .4 1.6 .7 2.5 1c.9 .2 1.9 .4 2.9 .5c0-.6-.2-1.5-.7-2.6c-.5-1-.8-1.8-.8-2.2c0-.5 .1-.9 .2-1.2c.1 0 .3-.4 .7-.9Zm102.2-.7c1.4 2.4 2.3 4.3 2.8 5.9c.4 1.3 .6 3.1 .6 5.2h2.7c3 0 5.1-.4 6.3-1.1c1.2-.7 1.7-1.9 1.7-3.8c0-.8 .1-1.3 .3-1.7c.1-.4 .5-.8 1-1.1l1.4-1c.1 .4 .1 .9 .1 1.5c0 .7 0 1.1 0 1.3c0 1.1-.1 2.5-.4 4.3c.9 .3 1.8 .6 2.7 .8c1 .3 1.8 .5 2.6 .6c0-.7-.2-1.6-.7-2.6c-.5-1.1-.8-1.7-.8-2.1c0-.2 .1-.4 .1-.6c.1-.3 .3-.6 .5-.9l2.8-4c.6 1.2 1 2.4 1.2 3.4c.2 1 .3 2.3 .3 3.8v11.3c-2.2 0-3.7-.1-4.6-.3c-1-.2-2.7-.8-5.3-1.7c-1.1 .8-2.1 1.4-3 1.6c-1 .3-2.3 .4-4.1 .4h-4.9c0 4.6-1.4 7.9-4.4 10c-2.5 1.7-6.4 2.6-11.6 2.6c-4.8 0-8.5-.9-11.1-2.6c-2.7-1.8-4-4.3-4-7.5c0-2.8 .4-5.3 1.3-7.6c.9-2.5 2.7-5.8 5.3-9.8l1.8 1.2c-1.9 3.4-3.2 5.8-3.8 7.3c-.6 1.5-.9 3.1-.9 4.7c0 2.1 1.1 3.8 3.3 5.1c2.3 1.3 5.2 2 8.8 2c3.6 0 6.6-.7 9.1-2c2.4-1.4 3.6-3.1 3.6-5.1c0-1.2-.2-2.4-.6-3.7c-.4-1.2-1.4-3.1-2.8-5.8Zm47.5-.2c1.3 1.4 2.4 3 3.1 4.8c.8 1.8 1.1 3.9 1.1 6.2v9.1c0 1.2-.7 2.8-2.1 4.8c-1.3 2-3 3.7-4.8 5.2c-2.1 1.6-3.9 2.5-5.3 2.5c-1.8 0-3.7-.5-5.7-1.5c-1.7-.9-4.5-2.6-8.2-5.2l1.3-1.8c1.8 1.2 3.2 2 4.3 2.4c1.1 .4 2.3 .6 3.5 .6c1.4 0 2.8-.4 4.2-1.1c1.3-.8 3.2-2.3 5.6-4.3c3.3-3 4.9-5.3 4.9-6.8c0-.8-.3-1.9-.9-3.2c-.8-1.4-1.6-2.7-2.7-3.6Zm-280.7 0c1.2 0 2.1 .4 2.7 1.3c.7 .9 1.1 2.1 1.1 3.6c0 1.1-.1 2-.4 2.7c-.2 .7-.7 1.7-1.4 2.8c-.5-1.4-1-2.3-1.3-2.7c-.4-.5-.9-.7-1.6-.7c-1.1 0-2.6 .6-4.4 1.9c-1.9 1.2-2.9 2.2-2.9 3.1c0 .4 .4 .7 1.2 .9c.5 .1 1.3 .2 2.5 .2c.3 0 .6 0 .9 0c.2 0 .5 0 .8-.1c2.2 0 3.6 .3 4.4 .7c.6 .4 .9 1.1 .9 2.2c0 2.1-.4 4.2-1.2 6.2c-1 2.4-2.5 4.2-4.3 5.3c-2.4 1.3-4.9 2.4-7.4 3.2c-2.6 .8-4.9 1.2-7.1 1.2c-6.2 0-9.3-2.8-9.3-8.3c0-2.8 .3-5.2 1-7.3c.8-2.2 2.4-5.3 4.9-9.2l1.4 .9c-1.5 2.5-2.6 4.7-3.3 6.7c-.7 1.9-1.1 3.6-1.1 5.1c0 3.7 2.1 5.6 6.4 5.6c1.5 0 3.1-.2 4.5-.5c1.4-.2 2.9-.6 4.3-1.2c1-.3 2.1-.7 3.3-1.3c2-.8 3-1.3 3.1-1.4c.9-.4 1.4-.9 1.4-1.2c0-.2-.5-.4-1.5-.4c-.9-.1-1.6-.1-2-.1c-3.1 0-5.1-.4-6.1-1.3c-.9-.7-1.3-2.1-1.3-4c0-.9 .3-2 .9-3.4c.6-1.4 1.3-2.8 2.3-4.2c1.4-2.1 2.9-3.6 4.3-4.7c1.5-1.1 2.9-1.6 4.3-1.6Zm-104.9 0c1.2 0 2.1 .4 2.8 1.3c.7 .9 1 2.1 1 3.6c0 1.1-.1 2-.3 2.7c-.3 .7-.7 1.7-1.4 2.8c-.6-1.4-1-2.3-1.4-2.7c-.4-.5-.9-.7-1.6-.7c-1.1 0-2.5 .6-4.4 1.9c-1.9 1.2-2.8 2.2-2.8 3.1c0 .4 .3 .7 1.1 .9c.5 .1 1.4 .2 2.5 .2c.3 0 .6 0 .9 0c.3 0 .6 0 .9-.1c2.1 0 3.6 .3 4.3 .7c.6 .4 .9 1.1 .9 2.2c0 2.1-.4 4.2-1.2 6.2c-1 2.4-2.4 4.2-4.3 5.3c-2.4 1.3-4.8 2.4-7.4 3.2c-2.5 .8-4.9 1.2-7.1 1.2c-6.2 0-9.3-2.8-9.3-8.3c0-2.8 .4-5.2 1.1-7.3c.7-2.2 2.4-5.3 4.9-9.2l1.3 .9c-1.4 2.5-2.5 4.7-3.3 6.7c-.7 1.9-1.1 3.6-1.1 5.1c0 3.7 2.2 5.6 6.4 5.6c1.6 0 3.1-.2 4.5-.5c1.4-.2 2.9-.6 4.4-1.2c.9-.3 2-.7 3.2-1.3c2-.8 3.1-1.3 3.2-1.4c.9-.4 1.3-.9 1.3-1.2c0-.2-.5-.4-1.4-.4c-1-.1-1.7-.1-2.1-.1c-3 0-5.1-.4-6.1-1.3c-.8-.7-1.3-2.1-1.3-4c0-.9 .3-2 .9-3.4c.6-1.4 1.4-2.8 2.3-4.2c1.5-2.1 2.9-3.6 4.4-4.7c1.4-1.1 2.9-1.6 4.2-1.6Zm-292-1c-.7 .3-1.2 .5-1.5 .7c-1.1 .6-2 1.1-2.7 1.6c-.4 .4-.8 .8-1.2 1.1c-.4 .5-.6 .8-.6 1c0 .3 .4 .5 1.1 .7c.7 .1 1.4 .2 2 .2c.5 0 .9-.1 1.4-.4c.5-.2 1.2-.7 2.1-1.3Zm-135.2 0c-.6 .3-1.1 .5-1.5 .7c-1 .6-1.9 1.1-2.6 1.6c-.5 .4-.9 .8-1.2 1.1c-.4 .5-.6 .8-.6 1c0 .3 .4 .5 1.1 .7c.7 .1 1.4 .2 2 .2c.5 0 .9-.1 1.4-.4c.5-.2 1.2-.7 2-1.3Zm375.1-.9c1.4 1.7 2.5 3.4 3 5.3c.6 1.8 .8 4.6 .8 8.2v7.8H951.1l-.1 .5c-.5 2.6-1.9 5.1-4.1 7.6c-2.9 3.3-5.7 5-8.5 5c-1.7 0-3.5-.5-5.4-1.6c-2-1-5-3.1-9.1-6.2l1.3-1.7c2.1 1.4 3.9 2.4 5.3 2.8c1.1 .4 2.4 .6 3.8 .6c1.9 0 3.8-.5 5.7-1.6c2.3-1.3 4.6-3.3 6.9-6.1c-.8 .1-1.5 .1-2 .1c-2 0-3.6-.6-4.7-1.9c-1.2-1.3-1.8-3-1.8-5.2c0-3 .7-5.9 2.1-8.6c1.5-3 3.2-4.5 5.1-4.5c1.6 0 2.9 1.1 4 3.2c1.2 2.2 1.7 4.8 1.7 7.9v1.6h13.6c-.3-1.3-.7-2.5-1.2-3.4c-.3-.5-1-1.4-2.1-2.7Zm-445.9 0c1.5 1.7 2.5 3.4 3 5.3c.6 1.8 .9 4.6 .9 8.2v7.8H501.5c-3.6 0-6.8 .3-9.6 .9c-2.8 .6-4.2 1.3-4.2 2.1c.7 2.4 1.4 4.6 2 6.7c.6 2.1 .9 4.1 .9 6c0 1.3-.1 2.4-.4 3.2c-.2 .9-.7 1.8-1.5 2.8c-.2-2.6-.7-5.4-1.4-8.3c-.3-1-.9-3.1-2-6.4c-.6-2-.9-3.3-.9-4c0-.9 .2-2.1 .7-3.5c.5-1.1 .9-2.1 1.5-3c.6-1 1.7-1.7 3.3-2.3c1.6-.6 4-1.1 7.2-1.4c-1.6-2.3-2.9-3.4-4.1-3.4c-.6 0-1 .2-1.5 .6c-.5 .4-1.2 1.3-2.2 2.6l-1.5-.7c.9-3 2-5.4 3.3-7c1.3-1.6 2.7-2.4 4.2-2.4c1.3 0 2.8 .7 4.4 2.2c1.7 1.6 3.5 4 5.7 7.2H519c-.2-1.3-.6-2.5-1.2-3.4c-.3-.5-1-1.4-2.1-2.7Zm155.6-.5c1.3 0 2.5 .3 3.7 .9c1.3 .7 2.6 1.7 4.1 3.1c1.2 1.1 2.9 2.8 5.1 5.2c1.5 1.7 2.6 2.8 3.4 3.3c.8 .4 2 .9 3.5 1.2v8.1H644.9v.5c-.6 2.6-1.9 5.1-4.1 7.6c-2.9 3.3-5.8 5-8.6 5c-1.7 0-3.5-.5-5.4-1.6c-2-1-5-3.1-9-6.2l1.2-1.7c2.2 1.4 3.9 2.4 5.3 2.8c1.1 .4 2.4 .6 3.8 .6c2 0 3.9-.5 5.8-1.6c2.2-1.3 4.5-3.3 6.9-6.1c-.8 .1-1.5 .1-2.1 .1c-2 0-3.5-.6-4.7-1.9c-1.2-1.3-1.7-3-1.7-5.2c0-3 .6-5.9 2-8.6c1.5-3 3.2-4.5 5.1-4.5c1.6 0 3 1.1 4.1 3.2c1.1 2.2 1.6 4.8 1.6 7.9v1.6h13.6c-.2-1.3-.6-2.5-1.2-3.4c-.3-.5-1-1.4-2.1-2.7l2.4-7.1c1.5 1.7 2.5 3.4 3 5.3c.5 1.6 .8 3.9 .8 6.9l.1 1h19c-2.4-2.5-4.6-4.3-6.7-5.4c-1.8-.9-3.5-1.4-5.3-1.4c-.5 0-1 0-1.4 .1c-.4 0-1.1 .1-1.9 .3c1.1-2.5 2.3-4.4 3.7-5.6c1.3-1.1 2.9-1.7 4.6-1.7Zm181.1-1.6c.8 0 2.2 .1 4.2 .3c2.1 .2 3.9 .4 5.5 .5c3.1 .2 6 .3 8.9 .3l-1.8 7.3c-1.1 0-2.1 0-3 .2c-1.1 .2-2.1 .4-3 .6c0 .4-.1 .8-.1 1.3c-.1 .5-.1 .8-.1 1.1c0 1.4 .4 2.4 1.4 2.9c.9 .5 2.6 .8 5.2 .8h6.8c2.3 0 4.1-.6 5.3-1.8c1.4-1.3 2.3-3.6 2.7-6.9l2 .3c-.1 .7-.1 1.3-.1 1.7c-.1 1.3-.2 2.4-.2 3.2c0 1.1 .3 2 .9 2.6c.6 .6 1.4 .9 2.4 .9c1 0 1.9-.2 2.7-.6c.8-.4 2.1-1.2 3.9-2.5l10.6-7.6c1.3-.9 2.2-1.5 2.9-1.9c1.4-.9 2.8-1.3 4.2-1.3c2.2 0 4 .8 5.3 2.3c1.6 1.9 2.3 4.6 2.3 8.3v11.4H892.2c-1.4 0-2.6-.3-3.4-1c-.9-.7-1.6-1.9-2.2-3.5c-1.2 1.8-2.5 3-3.6 3.6c-1.1 .6-2.5 .9-4.2 .9H872c-3.5 0-5.9-.5-7.2-1.5c-1.2-1-1.9-2.9-1.9-5.7c0-1.3 .1-2.5 .3-3.6c0-.4 .2-1.4 .5-2.9c-4.6 1.1-8.2 2.9-11 5.5c-2.9 2.6-4.3 5.7-4.3 9.1c0 4 1.7 7 5.1 9.2c3.4 2.1 8.3 3.2 14.7 3.2c1.9 0 4.6-.2 8.1-.6l.6 1l-11.3 7.3h-2.9c-5.8 0-10.3-1.5-13.5-4.4c-3.1-2.9-4.7-7.2-4.7-12.6c0-4.2 1-8 2.9-11.6c1.9-3.5 4.3-6.1 7.2-7.7H854c-1.9 0-3.4 .2-4.6 .5c-1.2 .4-3 1.2-5.4 2.4c.9-7.3 4.5-11 10.8-11Zm565.1-4.8c2.6 2 4.4 4.5 5.5 7.5c.9 2.8 1.5 6.5 1.5 11.1v9.6h-13.6c-1.3 0-2.3-.3-3-.8c-.8-.7-1.2-1.8-1.2-3.3c0-.9 0-1.9 .1-2.9c.1-1 .2-2 .4-3l1.1-.1c.2 .7 .5 1.2 1.1 1.5c.5 .3 1.2 .5 2 .5H1424c-.4-2.9-1.2-5.3-2.4-7c-.9-1.5-2.2-2.7-3.9-3.8Zm-992.4 0c2.6 2 4.4 4.5 5.5 7.5c1 2.8 1.5 6.5 1.5 11.1v1.5h19.1c-2.4-2.5-4.7-4.3-6.7-5.4c-1.8-.9-3.6-1.4-5.3-1.4c-.5 0-1 0-1.4 .1c-.5 0-1.1 .1-1.9 .3c1.1-2.5 2.3-4.4 3.6-5.6c1.4-1.1 2.9-1.7 4.6-1.7c1.3 0 2.6 .3 3.8 .9c1.2 .7 2.6 1.7 4.1 3.1c1.2 1.1 2.9 2.8 5 5.2c1.5 1.7 2.7 2.8 3.5 3.3c.8 .4 1.9 .9 3.5 1.2v8.1H421c-1.4 0-2.3-.3-3-.8c-.9-.7-1.3-1.8-1.3-3.3c0-.9 0-1.9 .1-2.9c.1-1 .2-2 .4-3l1.1-.1c.2 .7 .6 1.2 1.1 1.5c.5 .3 1.2 .5 2 .5h10.2c-.4-2.9-1.2-5.3-2.4-7c-.9-1.5-2.2-2.7-3.9-3.8Zm-20.9 0c2.6 2 4.4 4.5 5.5 7.5c1 2.8 1.5 6.5 1.5 11.1v9.6H400.1c-1.3 0-2.3-.3-3-.8c-.9-.7-1.3-1.8-1.3-3.3c0-.9 0-1.9 .1-2.9c.1-1 .2-2 .4-3l1.1-.1c.2 .7 .6 1.2 1.1 1.5c.5 .3 1.2 .5 2 .5h10.2c-.4-2.9-1.2-5.3-2.4-7c-.9-1.5-2.2-2.7-3.9-3.8Zm184-5.4l2.9 18.6c.4 2.9 1 4.9 1.8 5.9c.4 .7 1.1 1 1.9 1h17.5c-.2-1.3-.6-2.5-1.2-3.4c-.3-.5-1-1.4-2.1-2.7l2.4-7.1c1.5 1.7 2.5 3.4 3 5.3c.6 1.8 .9 4.6 .9 8.2v7.8H597.2c-.7 0-1.4-.1-1.9-.4c-1.2-.6-2.2-1.7-3-3.2c-1-2.1-1.7-5-2-8.6c-1.4 1.6-2.5 2.8-3.2 3.5c-1.1 1-2 1.5-2.8 1.5c-.3 0-.8 0-1.4-.2l-3.6-.7c-1.6-.3-2.5-.5-2.9-.6c-.3-.2-.5-.4-.5-.8c0-.5 .7-2.2 2.1-5.1c1.3-2.8 2.3-4.6 3-5.3c.4-.5 1.3-1.2 2.6-2.1c.8-.5 1.8-1.1 3.2-2l1.6-.9c-.1-.3-.1-.5-.1-.8c-.1-.3-.1-.6-.1-.8c0-.8 .2-1.8 .5-2.9c.4-1.1 1-2.6 1.9-4.2Zm-74.5-1.3l5.4 3l-3.3 6.1l-4.2-2.4l-2.4 4.8l-5.6-3.1l3.1-5.8l4.5 2.2Zm385.9-.8l6.9 3.7l-3.6 6.7l-7-3.7Zm532.4-.5l1.8 10.6c.6 4 1.1 7.5 1.4 10.4c.2 2.3 .3 4.5 .3 6.5c0 1.8-.3 3.4-.7 4.9c-.4 1.4-1.2 3.4-2.4 5.9l-1.8-.7c.5-2.6 .7-4.7 .7-6.3c0-1.2-.1-2.9-.3-5.3c-.2-2.3-.4-4.6-.7-6.9c-.3-2.3-.8-5.1-1.5-8.3c-.2-1.1-.3-1.8-.3-2.2c0-.7 .3-1.7 .9-3.2c.6-1.5 1.5-3.3 2.6-5.4Zm-132.5 0l1.7 10.6c.7 4 1.2 7.5 1.4 10.4c.2 2.3 .3 4.5 .3 6.5c0 1.8-.2 3.4-.6 4.9c-.4 1.4-1.2 3.4-2.4 5.9l-1.8-.7c.4-2.6 .7-4.7 .7-6.3c0-1.2-.1-2.9-.3-5.3c-.2-2.3-.5-4.6-.7-6.9c-.4-2.3-.8-5.1-1.5-8.3c-.3-1.1-.4-1.8-.4-2.2c0-.7 .3-1.7 1-3.2c.6-1.5 1.4-3.3 2.6-5.4Zm-130 0l1.8 10.6c.6 4 1.1 7.5 1.3 10.4c.2 2.3 .3 4.5 .3 6.5c0 1.8-.2 3.4-.6 4.9c-.4 1.4-1.2 3.4-2.4 5.9l-1.8-.7c.5-2.6 .7-4.7 .7-6.3c0-1.2-.1-2.9-.3-5.3c-.2-2.3-.4-4.6-.7-6.9c-.3-2.3-.8-5.1-1.5-8.3c-.2-1.1-.3-1.8-.3-2.2c0-.7 .3-1.7 .9-3.2c.6-1.5 1.5-3.3 2.6-5.4Zm-104.9 0l1.8 10.6c.6 4 1.1 7.5 1.4 10.4c.2 2.3 .3 4.5 .3 6.5c0 1.8-.3 3.4-.7 4.9c-.4 1.4-1.2 3.4-2.4 5.9l-1.8-.7c.5-2.6 .7-4.7 .7-6.3c0-1.2-.1-2.9-.3-5.3c-.2-2.3-.4-4.6-.7-6.9c-.3-2.3-.8-5.1-1.5-8.3c-.2-1.1-.3-1.8-.3-2.2c0-.7 .3-1.7 .9-3.2c.6-1.5 1.5-3.3 2.6-5.4Zm221.1-2.3l1.3 .7c0 .1 0 .4-.1 .9c0 .7 .4 1.3 1.3 1.9c.7 .6 1.9 1.2 3.5 1.9c-.2 1.3-.5 2.5-.8 3.7c-.4 1.2-.8 2.3-1.2 3.3l-1.1-.4l3.3 18.4v8.1H1280v.7c0 1.2-.7 2.8-2.1 4.8c-1.4 2-3 3.7-4.9 5.2c-2.1 1.6-3.8 2.5-5.3 2.5c-1.7 0-3.6-.5-5.6-1.5c-1.8-.9-4.5-2.6-8.2-5.2l1.2-1.8c1.8 1.2 3.3 2 4.4 2.4c1 .4 2.2 .6 3.5 .6c1.4 0 2.7-.4 4.1-1.1c1.4-.8 3.2-2.3 5.6-4.3c3.3-3 5-5.3 5-6.8c0-.8-.4-1.9-1-3.2c-.7-1.4-1.6-2.7-2.6-3.6l1.7-8.1c1.3 1.4 2.4 3 3.1 4.8c.7 1.8 1.1 3.9 1.1 6.2v.3h10.7l-3.6-20.2l-1.9-1.3c0-1.2 .2-2.3 .5-3.5c.5-1.5 1.3-3.3 2.4-5.4Zm-130 0l1.3 .7c0 .1 0 .4-.1 .9c0 .7 .4 1.3 1.3 1.9c.7 .6 1.9 1.2 3.5 1.9c-.2 1.3-.5 2.5-.8 3.7c-.3 1.2-.7 2.3-1.2 3.3l-1-.4l3.2 18.4v8.1h-27.8c-1.3 0-2.3-.3-3-.8c-.9-.7-1.3-1.8-1.3-3.3c0-.9 .1-1.9 .2-2.9c0-1 .2-2 .4-3l1.1-.1c.2 .7 .5 1.2 1.1 1.5c.5 .3 1.2 .5 1.9 .5h10.3c-.5-2.9-1.3-5.3-2.4-7c-.9-1.5-2.2-2.7-3.9-3.8l2.1-9.3c2.6 2 4.5 4.5 5.5 7.5c1 2.8 1.5 6.5 1.5 11.1v1.5h10.7l-3.6-20.2l-1.9-1.3c0-1.2 .2-2.3 .5-3.5c.5-1.5 1.3-3.3 2.4-5.4Zm-104.9 0l1.4 .7c0 .1-.1 .4-.1 .9c0 .7 .4 1.3 1.2 1.9c.7 .6 1.9 1.2 3.5 1.9c-.2 1.3-.4 2.5-.8 3.7c-.3 1.2-.7 2.3-1.1 3.3l-1.1-.4l3.2 18.4v8.1h-27.8c-1.3 0-2.3-.3-3-.8c-.8-.7-1.2-1.8-1.2-3.3c0-.9 0-1.9 .1-2.9c.1-1 .2-2 .4-3l1.1-.1c.2 .7 .5 1.2 1.1 1.5c.5 .3 1.2 .5 2 .5h10.2c-.4-2.9-1.2-5.3-2.4-7c-.9-1.5-2.2-2.7-3.9-3.8l2.2-9.3c2.6 2 4.4 4.5 5.5 7.5c.9 2.8 1.5 6.5 1.5 11.1v1.5h10.7l-3.6-20.2l-2-1.3c0-1.2 .2-2.3 .6-3.5c.4-1.5 1.2-3.3 2.3-5.4Zm-292.4 0l1.4 .7c0 .1-.1 .4-.2 .9c0 .7 .5 1.3 1.3 1.9c.7 .6 1.9 1.2 3.5 1.9c-.2 1.3-.4 2.5-.8 3.7c-.3 1.2-.7 2.3-1.2 3.3l-1-.4l3.2 18.4h3.8c1.8 0 3.2-.2 4.3-.6c1.3-.6 2.3-1.6 2.8-2.9c1.1-2.6 2.6-4.6 4.3-6.3c1.6-1.4 2.9-2.2 4-2.2c1 0 2.3 1.6 3.8 4.6c1.2 2.5 1.9 4.8 2.2 6.9v.5h1.2c.6 0 1 0 1.3 0c.6-.1 1.2-.2 1.8-.2c-1-1.5-1.7-2.7-2-3.6c-.3-1-.5-2-.5-3.1c0-3 1.2-5.6 3.7-7.8c2.4-2.2 5.3-3.3 8.6-3.3c2.2 0 4.3 .7 6.3 2.1c1.8 1.4 3.2 3 4 5l-1.2 1c-1.6-.6-2.8-1-3.8-1.1c-.9-.2-2-.3-3.4-.3c-2.4 0-4.6 .2-6.4 .6c-2.3 .5-3.4 1.2-3.4 2.2c0 1.3 2.8 3.6 8.3 6.7l15.1-4.3l-3.3 8.5c-5.4 1.6-9.8 2.9-13.3 3.8c-3 .7-5.6 1.3-7.7 1.6c-1.5 .2-3 .3-4.6 .3h-2.7v-.1l-.4-.1c-1.4-.2-3.1-.5-4.8-1c-2.5-.8-4.7-1.6-6.6-2.6c-1.1 1.8-2.5 2.9-4.2 3.4c-.9 .3-2 .4-3.4 .4H732.3c-.7 0-1.3-.1-1.9-.4c-1.2-.6-2.2-1.7-2.9-3.2c-1.1-2.1-1.8-5-2.1-8.6c-1.4 1.6-2.4 2.8-3.2 3.5c-1.1 1-2 1.5-2.7 1.5c-.4 0-.9 0-1.5-.2l-3.6-.7c-1.6-.3-2.5-.5-2.9-.6c-.3-.2-.5-.4-.5-.8c0-.5 .7-2.2 2.1-5.1c1.4-2.8 2.3-4.6 3-5.3c.5-.5 1.3-1.2 2.6-2.1c.8-.5 1.8-1.1 3.2-2l1.6-.9c0-.3-.1-.5-.1-.8c0-.3-.1-.6-.1-.8c0-.8 .2-1.8 .6-2.9c.3-1.1 .9-2.6 1.8-4.2l2.9 18.6c.4 2.9 1 4.9 1.8 5.9c.5 .7 1.1 1 1.9 1h17.5c-.2-1.3-.6-2.5-1.2-3.4c-.3-.5-1-1.4-2.1-2.7l2.4-7.1c1.5 1.7 2.5 3.4 3.1 5.3c.4 1.6 .7 3.9 .8 6.9v1h10.6l-3.6-20.2l-1.9-1.3c0-1.2 .2-2.3 .6-3.5c.4-1.5 1.2-3.3 2.3-5.4Zm-250.6-3.3l5.5 2.9l-3 6.2l-5.6-3Zm627.8-1.1l6.9 3.7l-3.6 6.7l-6.9-3.6Zm-104.9 0l7 3.7l-3.6 6.7l-7-3.6ZM724 216l5.4 2.8l-3.3 5.6l-4.3-2.4l-2.3 4.7l-5.6-3l3.1-5.3l4.4 2.2Zm-135.1 0l5.3 2.8l-3.2 5.6l-4.3-2.4l-2.4 4.7l-5.5-3l3.1-5.3l4.4 2.2Z" class="g2_25"/>
<path d="M1112.2 273.2l4.7 2.3l-2.2 4.1l-4.6-2.3l-2.2 3.9l-4.6-2.4l2.2-4.2l4.5 2.4Zm-104.9 0l4.7 2.3l-2.2 4.1l-4.6-2.3l-2.2 3.9l-4.6-2.4l2.3-4.2l4.4 2.4Zm-45.5-10.4l5.6 3.1l-3.1 5.7l-4.5-2.2l-2.5 4.9l-5.4-3.1l3.3-6.1l4.2 2.4Zm-215 0l5.5 3.1l-3.1 5.7l-4.4-2.2l-2.5 4.9l-5.4-3.1l3.2-6.1l4.3 2.4Zm-91.2 0l5.6 3.1l-3.1 5.7l-4.4-2.2l-2.5 4.9l-5.5-3.1l3.3-6.1l4.3 2.4Zm-44 0l5.6 3.1l-3.1 5.7l-4.4-2.2l-2.5 4.9l-5.5-3.1l3.3-6.1l4.3 2.4Zm332.7-15.1c-.6 0-1.1 .2-1.4 .7c-.4 .5-.6 1.1-.6 1.6c0 .7 .4 1.3 1.2 1.8c.8 .5 1.8 .7 3.1 .7h1.1c-.5-3.2-1.7-4.8-3.4-4.8Zm-306.1 0c-.7 0-1.1 .2-1.5 .7c-.4 .5-.6 1.1-.6 1.6c0 .7 .4 1.3 1.2 1.8c.8 .5 1.8 .7 3.1 .7h1.2c-.6-3.2-1.7-4.8-3.4-4.8Zm144.8-.2c-.8 0-1.4 .9-2 2.7c1.1 .4 1.9 .7 2.4 .9c1.6 .6 2.5 .9 2.7 .9c.5 0 .7-.1 .7-.4c0-.5-.5-1.2-1.3-2.3c-1-1.2-1.8-1.8-2.5-1.8Zm130.5-.9c-1.3 0-2.8 .4-4.4 1.3c-1.6 .8-4 2.4-7.1 4.6h7.8c6.5 0 9.8-1 9.8-3c0-.9-.7-1.7-2.2-2.2c-1.1-.5-2.4-.7-3.9-.7Zm-363-4.3l1 1.6c-1.2 1.1-2.1 2-2.7 2.8c-1.1 1.4-1.6 2.7-1.6 3.7c0 1.1 1 1.9 3.2 2.4c2.2 .4 3.2 1.8 3.2 4.1c0 1.1-.4 2-1.2 2.9c-.8 .8-1.8 1.2-3 1.2c-1.6 0-2.8-.7-3.8-2.1c-1.1-1.5-1.6-3.3-1.6-5.4c0-2.9 .9-5.5 2.7-7.8c.8-1.1 2.1-2.2 3.8-3.4Zm701.5-.2c.5 1.2 .9 2.4 1.2 3.4c.2 1 .3 2.3 .3 3.8v11.3c-2.2 0-4.1-.1-5.5-.5c-1.5-.3-3-.8-4.4-1.5c-1.2 .8-2.2 1.4-3.1 1.6c-.9 .3-2.2 .4-4.1 .4h-4.8c-1.3 0-2.4-.3-3.2-1c-.7-.7-1.4-1.9-2.1-3.5c-1.1 1.7-2.3 2.9-3.6 3.6c-1.2 .6-2.6 .9-4.2 .9h-6c-3.7 0-6.9 .3-9.7 .9c-2.8 .6-4.2 1.3-4.2 2.1c.8 2.4 1.5 4.6 2.1 6.7c.6 2.1 .9 4.1 .9 6c0 1.3-.1 2.4-.4 3.2c-.3 .9-.8 1.8-1.5 2.8c-.2-2.6-.7-5.4-1.5-8.3c-.2-1-.9-3.1-1.9-6.4c-.6-2-1-3.3-1-4c0-.9 .3-2.1 .8-3.5c.4-1.1 .9-2.1 1.4-3c.7-1 1.8-1.7 3.4-2.3c1.6-.6 4-1.1 7.2-1.4c-1.6-2.3-3-3.4-4.2-3.4c-.5 0-1 .2-1.4 .6c-.5 .4-1.2 1.3-2.3 2.6l-1.4-.7c.9-3 2-5.4 3.2-7c1.3-1.6 2.7-2.4 4.3-2.4c1.3 0 2.8 .7 4.4 2.2c1.6 1.6 3.5 4 5.7 7.2h2.1c2.1 0 3.9-.6 5.3-1.8c1.8-1.5 2.7-3.8 2.7-6.9l1.9 .3c0 .6-.1 1.3-.1 2.1c0 .9 0 1.8 0 2.8c0 1 .3 1.8 1 2.5c.7 .7 1.5 1 2.4 1h3.6c2.5 0 4.2-.3 5.2-1c1.3-.8 1.9-2.4 1.9-4.6c0-.5 .2-.9 .5-1.2c.1-.3 .5-.6 1.1-1l1.1-.9c0 .4 .1 .9 .1 1.5c0 .7 0 1.1 0 1.3c0 1.1-.1 2.5-.5 4.3c.8 .4 1.6 .7 2.5 1c.9 .2 1.9 .4 2.9 .5c0-.6-.2-1.5-.7-2.6c-.5-1-.8-1.8-.8-2.2c0-.5 .1-.9 .2-1.2c.1 0 .3-.4 .7-.9Zm102.2-.7c1.4 2.4 2.3 4.3 2.8 5.9c.4 1.3 .6 3.1 .6 5.2h2.7c3 0 5.1-.4 6.3-1.1c1.2-.7 1.7-1.9 1.7-3.8c0-.8 .1-1.3 .3-1.7c.1-.4 .5-.8 1-1.1l1.4-1c.1 .4 .1 .9 .1 1.5c0 .7 0 1.1 0 1.3c0 1.1-.1 2.5-.4 4.3c.9 .3 1.8 .6 2.7 .8c1 .3 1.8 .5 2.6 .6c0-.7-.2-1.6-.7-2.6c-.5-1.1-.8-1.7-.8-2.1c0-.2 .1-.4 .1-.6c.1-.3 .3-.6 .5-.9l2.8-4c.6 1.2 1 2.4 1.2 3.4c.2 1 .3 2.3 .3 3.8v11.3c-2.2 0-3.7-.1-4.6-.3c-1-.2-2.7-.8-5.3-1.7c-1.1 .8-2.1 1.4-3 1.6c-1 .3-2.3 .4-4.1 .4h-4.9c0 4.6-1.4 7.9-4.4 10c-2.5 1.7-6.4 2.6-11.6 2.6c-4.8 0-8.5-.9-11.1-2.6c-2.7-1.8-4-4.3-4-7.5c0-2.8 .4-5.3 1.3-7.6c.9-2.5 2.7-5.8 5.3-9.8l1.8 1.2c-1.9 3.4-3.2 5.8-3.8 7.3c-.6 1.5-.9 3.1-.9 4.7c0 2.1 1.1 3.8 3.3 5.1c2.3 1.3 5.2 2 8.8 2c3.6 0 6.6-.7 9.1-2c2.4-1.4 3.6-3.1 3.6-5.1c0-1.2-.2-2.4-.6-3.7c-.4-1.2-1.4-3.1-2.8-5.8Zm47.5-.2c1.3 1.4 2.4 3 3.1 4.8c.8 1.8 1.1 3.9 1.1 6.2v9.1c0 1.2-.7 2.8-2.1 4.8c-1.3 2-3 3.7-4.8 5.2c-2.1 1.6-3.9 2.5-5.3 2.5c-1.8 0-3.7-.5-5.7-1.5c-1.7-.9-4.5-2.6-8.2-5.2l1.3-1.8c1.8 1.2 3.2 2 4.3 2.4c1.1 .4 2.3 .6 3.5 .6c1.4 0 2.8-.4 4.2-1.1c1.3-.8 3.2-2.3 5.6-4.3c3.3-3 4.9-5.3 4.9-6.8c0-.8-.3-1.9-.9-3.2c-.8-1.4-1.6-2.7-2.7-3.6Zm-280.7 0c1.2 0 2.1 .4 2.7 1.3c.7 .9 1.1 2.1 1.1 3.6c0 1.1-.1 2-.4 2.7c-.2 .7-.7 1.7-1.4 2.8c-.5-1.4-1-2.3-1.3-2.7c-.4-.5-.9-.7-1.6-.7c-1.1 0-2.6 .6-4.4 1.9c-1.9 1.2-2.9 2.2-2.9 3.1c0 .4 .4 .7 1.2 .9c.5 .1 1.3 .2 2.5 .2c.3 0 .6 0 .9 0c.2 0 .5 0 .8-.1c2.2 0 3.6 .3 4.4 .7c.6 .4 .9 1.1 .9 2.2c0 2.1-.4 4.2-1.2 6.2c-1 2.4-2.5 4.2-4.3 5.3c-2.4 1.3-4.9 2.4-7.4 3.2c-2.6 .8-4.9 1.2-7.1 1.2c-6.2 0-9.3-2.8-9.3-8.3c0-2.8 .3-5.2 1-7.3c.8-2.2 2.4-5.3 4.9-9.2l1.4 .9c-1.5 2.5-2.6 4.7-3.3 6.7c-.7 1.9-1.1 3.6-1.1 5.1c0 3.7 2.1 5.6 6.4 5.6c1.5 0 3.1-.2 4.5-.5c1.4-.2 2.9-.6 4.3-1.2c1-.3 2.1-.7 3.3-1.3c2-.8 3-1.3 3.1-1.4c.9-.4 1.4-.9 1.4-1.2c0-.2-.5-.4-1.5-.4c-.9-.1-1.6-.1-2-.1c-3.1 0-5.1-.4-6.1-1.3c-.9-.7-1.3-2.1-1.3-4c0-.9 .3-2 .9-3.4c.6-1.4 1.3-2.8 2.3-4.2c1.4-2.1 2.9-3.6 4.3-4.7c1.5-1.1 2.9-1.6 4.3-1.6Zm-104.9 0c1.2 0 2.1 .4 2.8 1.3c.7 .9 1 2.1 1 3.6c0 1.1-.1 2-.3 2.7c-.3 .7-.7 1.7-1.4 2.8c-.6-1.4-1-2.3-1.4-2.7c-.4-.5-.9-.7-1.6-.7c-1.1 0-2.5 .6-4.4 1.9c-1.9 1.2-2.8 2.2-2.8 3.1c0 .4 .3 .7 1.1 .9c.5 .1 1.4 .2 2.5 .2c.3 0 .6 0 .9 0c.3 0 .6 0 .9-.1c2.1 0 3.6 .3 4.3 .7c.6 .4 .9 1.1 .9 2.2c0 2.1-.4 4.2-1.2 6.2c-1 2.4-2.4 4.2-4.3 5.3c-2.4 1.3-4.8 2.4-7.4 3.2c-2.5 .8-4.9 1.2-7.1 1.2c-6.2 0-9.3-2.8-9.3-8.3c0-2.8 .4-5.2 1.1-7.3c.7-2.2 2.4-5.3 4.9-9.2l1.3 .9c-1.4 2.5-2.5 4.7-3.3 6.7c-.7 1.9-1.1 3.6-1.1 5.1c0 3.7 2.2 5.6 6.4 5.6c1.6 0 3.1-.2 4.5-.5c1.4-.2 2.9-.6 4.4-1.2c.9-.3 2-.7 3.2-1.3c2-.8 3.1-1.3 3.2-1.4c.9-.4 1.3-.9 1.3-1.2c0-.2-.5-.4-1.4-.4c-1-.1-1.7-.1-2.1-.1c-3 0-5.1-.4-6.1-1.3c-.8-.7-1.3-2.1-1.3-4c0-.9 .3-2 .9-3.4c.6-1.4 1.4-2.8 2.3-4.2c1.5-2.1 2.9-3.6 4.4-4.7c1.4-1.1 2.9-1.6 4.2-1.6Zm-292-1c-.7 .3-1.2 .5-1.5 .7c-1.1 .6-2 1.1-2.7 1.6c-.4 .4-.8 .8-1.2 1.1c-.4 .5-.6 .8-.6 1c0 .3 .4 .5 1.1 .7c.7 .1 1.4 .2 2 .2c.5 0 .9-.1 1.4-.4c.5-.2 1.2-.7 2.1-1.3Zm-135.2 0c-.6 .3-1.1 .5-1.5 .7c-1 .6-1.9 1.1-2.6 1.6c-.5 .4-.9 .8-1.2 1.1c-.4 .5-.6 .8-.6 1c0 .3 .4 .5 1.1 .7c.7 .1 1.4 .2 2 .2c.5 0 .9-.1 1.4-.4c.5-.2 1.2-.7 2-1.3Zm375.1-.9c1.4 1.7 2.5 3.4 3 5.3c.6 1.8 .8 4.6 .8 8.2v7.8H951.1l-.1 .5c-.5 2.6-1.9 5.1-4.1 7.6c-2.9 3.3-5.7 5-8.5 5c-1.7 0-3.5-.5-5.4-1.6c-2-1-5-3.1-9.1-6.2l1.3-1.7c2.1 1.4 3.9 2.4 5.3 2.8c1.1 .4 2.4 .6 3.8 .6c1.9 0 3.8-.5 5.7-1.6c2.3-1.3 4.6-3.3 6.9-6.1c-.8 .1-1.5 .1-2 .1c-2 0-3.6-.6-4.7-1.9c-1.2-1.3-1.8-3-1.8-5.2c0-3 .7-5.9 2.1-8.6c1.5-3 3.2-4.5 5.1-4.5c1.6 0 2.9 1.1 4 3.2c1.2 2.2 1.7 4.8 1.7 7.9v1.6h13.6c-.3-1.3-.7-2.5-1.2-3.4c-.3-.5-1-1.4-2.1-2.7Zm-445.9 0c1.5 1.7 2.5 3.4 3 5.3c.6 1.8 .9 4.6 .9 8.2v7.8H501.5c-3.6 0-6.8 .3-9.6 .9c-2.8 .6-4.2 1.3-4.2 2.1c.7 2.4 1.4 4.6 2 6.7c.6 2.1 .9 4.1 .9 6c0 1.3-.1 2.4-.4 3.2c-.2 .9-.7 1.8-1.5 2.8c-.2-2.6-.7-5.4-1.4-8.3c-.3-1-.9-3.1-2-6.4c-.6-2-.9-3.3-.9-4c0-.9 .2-2.1 .7-3.5c.5-1.1 .9-2.1 1.5-3c.6-1 1.7-1.7 3.3-2.3c1.6-.6 4-1.1 7.2-1.4c-1.6-2.3-2.9-3.4-4.1-3.4c-.6 0-1 .2-1.5 .6c-.5 .4-1.2 1.3-2.2 2.6l-1.5-.7c.9-3 2-5.4 3.3-7c1.3-1.6 2.7-2.4 4.2-2.4c1.3 0 2.8 .7 4.4 2.2c1.7 1.6 3.5 4 5.7 7.2H519c-.2-1.3-.6-2.5-1.2-3.4c-.3-.5-1-1.4-2.1-2.7Zm155.6-.5c1.3 0 2.5 .3 3.7 .9c1.3 .7 2.6 1.7 4.1 3.1c1.2 1.1 2.9 2.8 5.1 5.2c1.5 1.7 2.6 2.8 3.4 3.3c.8 .4 2 .9 3.5 1.2v8.1H644.9v.5c-.6 2.6-1.9 5.1-4.1 7.6c-2.9 3.3-5.8 5-8.6 5c-1.7 0-3.5-.5-5.4-1.6c-2-1-5-3.1-9-6.2l1.2-1.7c2.2 1.4 3.9 2.4 5.3 2.8c1.1 .4 2.4 .6 3.8 .6c2 0 3.9-.5 5.8-1.6c2.2-1.3 4.5-3.3 6.9-6.1c-.8 .1-1.5 .1-2.1 .1c-2 0-3.5-.6-4.7-1.9c-1.2-1.3-1.7-3-1.7-5.2c0-3 .6-5.9 2-8.6c1.5-3 3.2-4.5 5.1-4.5c1.6 0 3 1.1 4.1 3.2c1.1 2.2 1.6 4.8 1.6 7.9v1.6h13.6c-.2-1.3-.6-2.5-1.2-3.4c-.3-.5-1-1.4-2.1-2.7l2.4-7.1c1.5 1.7 2.5 3.4 3 5.3c.5 1.6 .8 3.9 .8 6.9l.1 1h19c-2.4-2.5-4.6-4.3-6.7-5.4c-1.8-.9-3.5-1.4-5.3-1.4c-.5 0-1 0-1.4 .1c-.4 0-1.1 .1-1.9 .3c1.1-2.5 2.3-4.4 3.7-5.6c1.3-1.1 2.9-1.7 4.6-1.7Zm181.1-1.6c.8 0 2.2 .1 4.2 .3c2.1 .2 3.9 .4 5.5 .5c3.1 .2 6 .3 8.9 .3l-1.8 7.3c-1.1 0-2.1 0-3 .2c-1.1 .2-2.1 .4-3 .6c0 .4-.1 .8-.1 1.3c-.1 .5-.1 .8-.1 1.1c0 1.4 .4 2.4 1.4 2.9c.9 .5 2.6 .8 5.2 .8h6.8c2.3 0 4.1-.6 5.3-1.8c1.4-1.3 2.3-3.6 2.7-6.9l2 .3c-.1 .7-.1 1.3-.1 1.7c-.1 1.3-.2 2.4-.2 3.2c0 1.1 .3 2 .9 2.6c.6 .6 1.4 .9 2.4 .9c1 0 1.9-.2 2.7-.6c.8-.4 2.1-1.2 3.9-2.5l10.6-7.6c1.3-.9 2.2-1.5 2.9-1.9c1.4-.9 2.8-1.3 4.2-1.3c2.2 0 4 .8 5.3 2.3c1.6 1.9 2.3 4.6 2.3 8.3v11.4H892.2c-1.4 0-2.6-.3-3.4-1c-.9-.7-1.6-1.9-2.2-3.5c-1.2 1.8-2.5 3-3.6 3.6c-1.1 .6-2.5 .9-4.2 .9H872c-3.5 0-5.9-.5-7.2-1.5c-1.2-1-1.9-2.9-1.9-5.7c0-1.3 .1-2.5 .3-3.6c0-.4 .2-1.4 .5-2.9c-4.6 1.1-8.2 2.9-11 5.5c-2.9 2.6-4.3 5.7-4.3 9.1c0 4 1.7 7 5.1 9.2c3.4 2.1 8.3 3.2 14.7 3.2c1.9 0 4.6-.2 8.1-.6l.6 1l-11.3 7.3h-2.9c-5.8 0-10.3-1.5-13.5-4.4c-3.1-2.9-4.7-7.2-4.7-12.6c0-4.2 1-8 2.9-11.6c1.9-3.5 4.3-6.1 7.2-7.7H854c-1.9 0-3.4 .2-4.6 .5c-1.2 .4-3 1.2-5.4 2.4c.9-7.3 4.5-11 10.8-11Zm565.1-4.8c2.6 2 4.4 4.5 5.5 7.5c.9 2.8 1.5 6.5 1.5 11.1v9.6h-13.6c-1.3 0-2.3-.3-3-.8c-.8-.7-1.2-1.8-1.2-3.3c0-.9 0-1.9 .1-2.9c.1-1 .2-2 .4-3l1.1-.1c.2 .7 .5 1.2 1.1 1.5c.5 .3 1.2 .5 2 .5H1424c-.4-2.9-1.2-5.3-2.4-7c-.9-1.5-2.2-2.7-3.9-3.8Zm-992.4 0c2.6 2 4.4 4.5 5.5 7.5c1 2.8 1.5 6.5 1.5 11.1v1.5h19.1c-2.4-2.5-4.7-4.3-6.7-5.4c-1.8-.9-3.6-1.4-5.3-1.4c-.5 0-1 0-1.4 .1c-.5 0-1.1 .1-1.9 .3c1.1-2.5 2.3-4.4 3.6-5.6c1.4-1.1 2.9-1.7 4.6-1.7c1.3 0 2.6 .3 3.8 .9c1.2 .7 2.6 1.7 4.1 3.1c1.2 1.1 2.9 2.8 5 5.2c1.5 1.7 2.7 2.8 3.5 3.3c.8 .4 1.9 .9 3.5 1.2v8.1H421c-1.4 0-2.3-.3-3-.8c-.9-.7-1.3-1.8-1.3-3.3c0-.9 0-1.9 .1-2.9c.1-1 .2-2 .4-3l1.1-.1c.2 .7 .6 1.2 1.1 1.5c.5 .3 1.2 .5 2 .5h10.2c-.4-2.9-1.2-5.3-2.4-7c-.9-1.5-2.2-2.7-3.9-3.8Zm-20.9 0c2.6 2 4.4 4.5 5.5 7.5c1 2.8 1.5 6.5 1.5 11.1v9.6H400.1c-1.3 0-2.3-.3-3-.8c-.9-.7-1.3-1.8-1.3-3.3c0-.9 0-1.9 .1-2.9c.1-1 .2-2 .4-3l1.1-.1c.2 .7 .6 1.2 1.1 1.5c.5 .3 1.2 .5 2 .5h10.2c-.4-2.9-1.2-5.3-2.4-7c-.9-1.5-2.2-2.7-3.9-3.8Zm184-5.4l2.9 18.6c.4 2.9 1 4.9 1.8 5.9c.4 .7 1.1 1 1.9 1h17.5c-.2-1.3-.6-2.5-1.2-3.4c-.3-.5-1-1.4-2.1-2.7l2.4-7.1c1.5 1.7 2.5 3.4 3 5.3c.6 1.8 .9 4.6 .9 8.2v7.8H597.2c-.7 0-1.4-.1-1.9-.4c-1.2-.6-2.2-1.7-3-3.2c-1-2.1-1.7-5-2-8.6c-1.4 1.6-2.5 2.8-3.2 3.5c-1.1 1-2 1.5-2.8 1.5c-.3 0-.8 0-1.4-.2l-3.6-.7c-1.6-.3-2.5-.5-2.9-.6c-.3-.2-.5-.4-.5-.8c0-.5 .7-2.2 2.1-5.1c1.3-2.8 2.3-4.6 3-5.3c.4-.5 1.3-1.2 2.6-2.1c.8-.5 1.8-1.1 3.2-2l1.6-.9c-.1-.3-.1-.5-.1-.8c-.1-.3-.1-.6-.1-.8c0-.8 .2-1.8 .5-2.9c.4-1.1 1-2.6 1.9-4.2Zm-74.5-1.3l5.4 3l-3.3 6.1l-4.2-2.4l-2.4 4.8l-5.6-3.1l3.1-5.8l4.5 2.2Zm385.9-.8l6.9 3.7l-3.6 6.7l-7-3.7Zm532.4-.5l1.8 10.6c.6 4 1.1 7.5 1.4 10.4c.2 2.3 .3 4.5 .3 6.5c0 1.8-.3 3.4-.7 4.9c-.4 1.4-1.2 3.4-2.4 5.9l-1.8-.7c.5-2.6 .7-4.7 .7-6.3c0-1.2-.1-2.9-.3-5.3c-.2-2.3-.4-4.6-.7-6.9c-.3-2.3-.8-5.1-1.5-8.3c-.2-1.1-.3-1.8-.3-2.2c0-.7 .3-1.7 .9-3.2c.6-1.5 1.5-3.3 2.6-5.4Zm-132.5 0l1.7 10.6c.7 4 1.2 7.5 1.4 10.4c.2 2.3 .3 4.5 .3 6.5c0 1.8-.2 3.4-.6 4.9c-.4 1.4-1.2 3.4-2.4 5.9l-1.8-.7c.4-2.6 .7-4.7 .7-6.3c0-1.2-.1-2.9-.3-5.3c-.2-2.3-.5-4.6-.7-6.9c-.4-2.3-.8-5.1-1.5-8.3c-.3-1.1-.4-1.8-.4-2.2c0-.7 .3-1.7 1-3.2c.6-1.5 1.4-3.3 2.6-5.4Zm-130 0l1.8 10.6c.6 4 1.1 7.5 1.3 10.4c.2 2.3 .3 4.5 .3 6.5c0 1.8-.2 3.4-.6 4.9c-.4 1.4-1.2 3.4-2.4 5.9l-1.8-.7c.5-2.6 .7-4.7 .7-6.3c0-1.2-.1-2.9-.3-5.3c-.2-2.3-.4-4.6-.7-6.9c-.3-2.3-.8-5.1-1.5-8.3c-.2-1.1-.3-1.8-.3-2.2c0-.7 .3-1.7 .9-3.2c.6-1.5 1.5-3.3 2.6-5.4Zm-104.9 0l1.8 10.6c.6 4 1.1 7.5 1.4 10.4c.2 2.3 .3 4.5 .3 6.5c0 1.8-.3 3.4-.7 4.9c-.4 1.4-1.2 3.4-2.4 5.9l-1.8-.7c.5-2.6 .7-4.7 .7-6.3c0-1.2-.1-2.9-.3-5.3c-.2-2.3-.4-4.6-.7-6.9c-.3-2.3-.8-5.1-1.5-8.3c-.2-1.1-.3-1.8-.3-2.2c0-.7 .3-1.7 .9-3.2c.6-1.5 1.5-3.3 2.6-5.4Zm221.1-2.3l1.3 .7c0 .1 0 .4-.1 .9c0 .7 .4 1.3 1.3 1.9c.7 .6 1.9 1.2 3.5 1.9c-.2 1.3-.5 2.5-.8 3.7c-.4 1.2-.8 2.3-1.2 3.3l-1.1-.4l3.3 18.4v8.1H1280v.7c0 1.2-.7 2.8-2.1 4.8c-1.4 2-3 3.7-4.9 5.2c-2.1 1.6-3.8 2.5-5.3 2.5c-1.7 0-3.6-.5-5.6-1.5c-1.8-.9-4.5-2.6-8.2-5.2l1.2-1.8c1.8 1.2 3.3 2 4.4 2.4c1 .4 2.2 .6 3.5 .6c1.4 0 2.7-.4 4.1-1.1c1.4-.8 3.2-2.3 5.6-4.3c3.3-3 5-5.3 5-6.8c0-.8-.4-1.9-1-3.2c-.7-1.4-1.6-2.7-2.6-3.6l1.7-8.1c1.3 1.4 2.4 3 3.1 4.8c.7 1.8 1.1 3.9 1.1 6.2v.3h10.7l-3.6-20.2l-1.9-1.3c0-1.2 .2-2.3 .5-3.5c.5-1.5 1.3-3.3 2.4-5.4Zm-130 0l1.3 .7c0 .1 0 .4-.1 .9c0 .7 .4 1.3 1.3 1.9c.7 .6 1.9 1.2 3.5 1.9c-.2 1.3-.5 2.5-.8 3.7c-.3 1.2-.7 2.3-1.2 3.3l-1-.4l3.2 18.4v8.1h-27.8c-1.3 0-2.3-.3-3-.8c-.9-.7-1.3-1.8-1.3-3.3c0-.9 .1-1.9 .2-2.9c0-1 .2-2 .4-3l1.1-.1c.2 .7 .5 1.2 1.1 1.5c.5 .3 1.2 .5 1.9 .5h10.3c-.5-2.9-1.3-5.3-2.4-7c-.9-1.5-2.2-2.7-3.9-3.8l2.1-9.3c2.6 2 4.5 4.5 5.5 7.5c1 2.8 1.5 6.5 1.5 11.1v1.5h10.7l-3.6-20.2l-1.9-1.3c0-1.2 .2-2.3 .5-3.5c.5-1.5 1.3-3.3 2.4-5.4Zm-104.9 0l1.4 .7c0 .1-.1 .4-.1 .9c0 .7 .4 1.3 1.2 1.9c.7 .6 1.9 1.2 3.5 1.9c-.2 1.3-.4 2.5-.8 3.7c-.3 1.2-.7 2.3-1.1 3.3l-1.1-.4l3.2 18.4v8.1h-27.8c-1.3 0-2.3-.3-3-.8c-.8-.7-1.2-1.8-1.2-3.3c0-.9 0-1.9 .1-2.9c.1-1 .2-2 .4-3l1.1-.1c.2 .7 .5 1.2 1.1 1.5c.5 .3 1.2 .5 2 .5h10.2c-.4-2.9-1.2-5.3-2.4-7c-.9-1.5-2.2-2.7-3.9-3.8l2.2-9.3c2.6 2 4.4 4.5 5.5 7.5c.9 2.8 1.5 6.5 1.5 11.1v1.5h10.7l-3.6-20.2l-2-1.3c0-1.2 .2-2.3 .6-3.5c.4-1.5 1.2-3.3 2.3-5.4Zm-292.4 0l1.4 .7c0 .1-.1 .4-.2 .9c0 .7 .5 1.3 1.3 1.9c.7 .6 1.9 1.2 3.5 1.9c-.2 1.3-.4 2.5-.8 3.7c-.3 1.2-.7 2.3-1.2 3.3l-1-.4l3.2 18.4h3.8c1.8 0 3.2-.2 4.3-.6c1.3-.6 2.3-1.6 2.8-2.9c1.1-2.6 2.6-4.6 4.3-6.3c1.6-1.4 2.9-2.2 4-2.2c1 0 2.3 1.6 3.8 4.6c1.2 2.5 1.9 4.8 2.2 6.9v.5h1.2c.6 0 1 0 1.3 0c.6-.1 1.2-.2 1.8-.2c-1-1.5-1.7-2.7-2-3.6c-.3-1-.5-2-.5-3.1c0-3 1.2-5.6 3.7-7.8c2.4-2.2 5.3-3.3 8.6-3.3c2.2 0 4.3 .7 6.3 2.1c1.8 1.4 3.2 3 4 5l-1.2 1c-1.6-.6-2.8-1-3.8-1.1c-.9-.2-2-.3-3.4-.3c-2.4 0-4.6 .2-6.4 .6c-2.3 .5-3.4 1.2-3.4 2.2c0 1.3 2.8 3.6 8.3 6.7l15.1-4.3l-3.3 8.5c-5.4 1.6-9.8 2.9-13.3 3.8c-3 .7-5.6 1.3-7.7 1.6c-1.5 .2-3 .3-4.6 .3h-2.7v-.1l-.4-.1c-1.4-.2-3.1-.5-4.8-1c-2.5-.8-4.7-1.6-6.6-2.6c-1.1 1.8-2.5 2.9-4.2 3.4c-.9 .3-2 .4-3.4 .4H732.3c-.7 0-1.3-.1-1.9-.4c-1.2-.6-2.2-1.7-2.9-3.2c-1.1-2.1-1.8-5-2.1-8.6c-1.4 1.6-2.4 2.8-3.2 3.5c-1.1 1-2 1.5-2.7 1.5c-.4 0-.9 0-1.5-.2l-3.6-.7c-1.6-.3-2.5-.5-2.9-.6c-.3-.2-.5-.4-.5-.8c0-.5 .7-2.2 2.1-5.1c1.4-2.8 2.3-4.6 3-5.3c.5-.5 1.3-1.2 2.6-2.1c.8-.5 1.8-1.1 3.2-2l1.6-.9c0-.3-.1-.5-.1-.8c0-.3-.1-.6-.1-.8c0-.8 .2-1.8 .6-2.9c.3-1.1 .9-2.6 1.8-4.2l2.9 18.6c.4 2.9 1 4.9 1.8 5.9c.5 .7 1.1 1 1.9 1h17.5c-.2-1.3-.6-2.5-1.2-3.4c-.3-.5-1-1.4-2.1-2.7l2.4-7.1c1.5 1.7 2.5 3.4 3.1 5.3c.4 1.6 .7 3.9 .8 6.9v1h10.6l-3.6-20.2l-1.9-1.3c0-1.2 .2-2.3 .6-3.5c.4-1.5 1.2-3.3 2.3-5.4Zm-250.6-3.3l5.5 2.9l-3 6.2l-5.6-3Zm627.8-1.1l6.9 3.7l-3.6 6.7l-6.9-3.6Zm-104.9 0l7 3.7l-3.6 6.7l-7-3.6ZM724 216l5.4 2.8l-3.3 5.6l-4.3-2.4l-2.3 4.7l-5.6-3l3.1-5.3l4.4 2.2Zm-135.1 0l5.3 2.8l-3.2 5.6l-4.3-2.4l-2.4 4.7l-5.5-3l3.1-5.3l4.4 2.2Z" class="g1_25"/>
<path fill-rule="evenodd" d="M1291.6 334.5l5.6 3l-3.1 5.8l-4.4-2.2l-2.5 4.9l-5.5-3.1l3.3-6.1l4.2 2.4Zm68.4-10.2c-.9 1-1.6 1.7-2 2.1c-.5 .4-1.3 1-2.5 1.9c1.5-.2 2.6-.4 3.2-.5c.7-.2 1.6-.6 2.7-1.3Zm70.7-5.1c-.7 0-1.4 .9-1.9 2.7c1 .4 1.8 .7 2.3 .9c1.6 .6 2.5 .9 2.7 .9c.5 0 .7-.2 .7-.4c0-.5-.4-1.2-1.3-2.3c-1-1.2-1.8-1.8-2.5-1.8Zm-94-8.2c1.5 1.7 2.5 3.4 3 5.3c.6 1.8 .8 4.6 .8 8.2v7.8H1324v.7c0 1.2-.7 2.8-2.1 4.8c-1.4 2-3 3.7-4.9 5.2c-2.1 1.6-3.8 2.4-5.3 2.4c-1.7 0-3.6-.5-5.6-1.5c-1.8-.8-4.5-2.5-8.2-5.1l1.2-1.8c1.8 1.2 3.3 2 4.4 2.4c1 .4 2.2 .6 3.5 .6c1.4 0 2.7-.4 4.1-1.2c1.4-.7 3.2-2.2 5.6-4.3c3.3-2.9 5-5.2 5-6.8c0-.8-.4-1.8-1-3.1c-.7-1.5-1.6-2.7-2.6-3.7l1.7-8c1.3 1.4 2.4 3 3.1 4.8c.7 1.8 1.1 3.9 1.1 6.2v.3h13.6c-.2-1.4-.6-2.5-1.2-3.4c-.3-.6-1-1.4-2.1-2.7Zm-42.9 0c1.5 1.7 2.5 3.4 3 5.3c.6 1.8 .8 4.6 .8 8.2v7.8h-20.4c-3.6 0-6.9 .3-9.7 .9c-2.8 .6-4.2 1.3-4.2 2.1c.8 2.4 1.5 4.6 2.1 6.7c.6 2.1 .9 4.1 .9 6c0 1.3-.1 2.4-.4 3.2c-.3 .9-.7 1.8-1.5 2.8c-.2-2.7-.7-5.4-1.4-8.3c-.3-1-.9-3.1-2-6.4c-.6-2-.9-3.3-.9-4c0-.9 .2-2.1 .7-3.5c.5-1.1 .9-2.1 1.5-3c.6-1 1.7-1.8 3.3-2.3c1.6-.6 4-1.1 7.2-1.4c-1.6-2.3-3-3.4-4.1-3.4c-.6 0-1.1 .2-1.5 .6c-.5 .4-1.2 1.3-2.2 2.6l-1.5-.7c.9-3 2-5.4 3.3-7c1.2-1.6 2.6-2.5 4.2-2.5c1.3 0 2.8 .8 4.4 2.3c1.6 1.6 3.5 3.9 5.7 7.2h13.6c-.2-1.4-.6-2.5-1.2-3.4c-.3-.6-1-1.4-2.1-2.7Zm21.7-12.3l7 3.7l-3.6 6.7l-7-3.6Zm18.3-2.6l6.9 3.7l-3.5 6.7l-7-3.6Zm70.6 0c1.2 1.6 2 3.2 2.4 4.7c.6 1.8 .8 4.1 .8 6.9v5.9c0 4.2 .3 7 .9 8.7c.4 1.2 1.1 1.9 2.1 1.9h7.9c1.8 0 3.2-.2 4.3-.7c1.3-.5 2.3-1.5 2.8-2.9c1.1-2.5 2.6-4.6 4.4-6.2c1.5-1.4 2.9-2.2 4-2.2c1 0 2.2 1.6 3.7 4.6c1.6 3.3 2.4 6.2 2.4 9v6.5c-2.1 0-4.6-.4-7.4-1.3c-2.5-.7-4.7-1.5-6.6-2.5c-1.1 1.7-2.5 2.9-4.2 3.4c-.8 .3-2 .4-3.4 .4h-7.9c-2.4 0-4.1-1-5.1-2.9c-1.1-2.1-1.7-5.6-1.7-10.6v-8.5c0-1.9-.3-3.4-.8-4.5c-.3-.5-.9-1.3-1.8-2.2Zm-26.7 0l1.8 10.6c.7 4 1.2 7.5 1.4 10.4c.2 2.3 .3 4.4 .3 6.5c0 1.8-.2 3.4-.6 4.9c-.4 1.4-1.2 3.4-2.4 5.9l-1.8-.8c.4-2.5 .7-4.6 .7-6.2c0-1.2-.1-3-.3-5.3c-.2-2.4-.5-4.7-.7-7c-.4-2.3-.8-5-1.5-8.2c-.3-1.1-.4-1.8-.4-2.3c0-.6 .3-1.6 1-3.1c.6-1.5 1.4-3.3 2.5-5.4Zm-15.4-.2l1.2 .4c0 1.3 .3 2.1 .9 2.5c.5 .4 2.1 1 4.8 1.8c0 1.4-.1 2.8-.4 4.2c-.1 .6-.4 1.7-.8 3.3l-2.2-.9c0 2.4-.3 4.7-.8 7c-.6 2.4-1.5 4.6-2.7 6.9c1.1 2 1.7 3.1 1.9 3.5c.5 .9 .7 1.7 .7 2.5v.9c0 .5-.1 2.5-.5 6c-2.2 1.1-4.2 1.8-6 2.1c-1.8 .4-4.5 .5-8 .5v-8.8c2-1 3.5-1.9 4.3-2.6c.9-.7 2-1.9 3.4-3.7c-2.2-2.8-3.9-4.8-4.9-6c-.9-1-1.9-2.1-3.2-3.3c-.4 .6-.6 1.1-.7 1.3c-.2 .2-.3 .3-.5 .3c-.5 0-1.3-.4-2.7-1.2c-1.1-.8-2-1.4-2.7-2c-.6-.6-1.1-1.7-1.4-3.2c-.4-1.6-.5-3.6-.5-6.1c0-1 .1-1.8 .2-2.2c.1-.4 .4-.6 .8-.6c.8 0 2.3 1.1 4.7 3.3c2 1.9 3.8 3.8 5.4 5.7c1.3 1.4 2.4 2.8 3.4 4.1c1 1.2 2.4 3.3 4.3 6.3c.9-1.7 1.5-3.9 1.9-6.5c.2-1.6 .3-3.5 .3-5.7c-.7-.3-1.2-.6-1.5-1c-.2-.3-.4-.7-.4-1.3c0-1.2 .2-2.4 .4-3.6c.3-1.3 .7-2.6 1.3-3.9Z" class="g2_25"/>
<path d="M1291.6 334.5l5.6 3l-3.1 5.8l-4.4-2.2l-2.5 4.9l-5.5-3.1l3.3-6.1l4.2 2.4Zm68.4-10.2c-.9 1-1.6 1.7-2 2.1c-.5 .4-1.3 1-2.5 1.9c1.5-.2 2.6-.4 3.2-.5c.7-.2 1.6-.6 2.7-1.3Zm70.7-5.1c-.7 0-1.4 .9-1.9 2.7c1 .4 1.8 .7 2.3 .9c1.6 .6 2.5 .9 2.7 .9c.5 0 .7-.2 .7-.4c0-.5-.4-1.2-1.3-2.3c-1-1.2-1.8-1.8-2.5-1.8Zm-94-8.2c1.5 1.7 2.5 3.4 3 5.3c.6 1.8 .8 4.6 .8 8.2v7.8H1324v.7c0 1.2-.7 2.8-2.1 4.8c-1.4 2-3 3.7-4.9 5.2c-2.1 1.6-3.8 2.4-5.3 2.4c-1.7 0-3.6-.5-5.6-1.5c-1.8-.8-4.5-2.5-8.2-5.1l1.2-1.8c1.8 1.2 3.3 2 4.4 2.4c1 .4 2.2 .6 3.5 .6c1.4 0 2.7-.4 4.1-1.2c1.4-.7 3.2-2.2 5.6-4.3c3.3-2.9 5-5.2 5-6.8c0-.8-.4-1.8-1-3.1c-.7-1.5-1.6-2.7-2.6-3.7l1.7-8c1.3 1.4 2.4 3 3.1 4.8c.7 1.8 1.1 3.9 1.1 6.2v.3h13.6c-.2-1.4-.6-2.5-1.2-3.4c-.3-.6-1-1.4-2.1-2.7Zm-42.9 0c1.5 1.7 2.5 3.4 3 5.3c.6 1.8 .8 4.6 .8 8.2v7.8h-20.4c-3.6 0-6.9 .3-9.7 .9c-2.8 .6-4.2 1.3-4.2 2.1c.8 2.4 1.5 4.6 2.1 6.7c.6 2.1 .9 4.1 .9 6c0 1.3-.1 2.4-.4 3.2c-.3 .9-.7 1.8-1.5 2.8c-.2-2.7-.7-5.4-1.4-8.3c-.3-1-.9-3.1-2-6.4c-.6-2-.9-3.3-.9-4c0-.9 .2-2.1 .7-3.5c.5-1.1 .9-2.1 1.5-3c.6-1 1.7-1.8 3.3-2.3c1.6-.6 4-1.1 7.2-1.4c-1.6-2.3-3-3.4-4.1-3.4c-.6 0-1.1 .2-1.5 .6c-.5 .4-1.2 1.3-2.2 2.6l-1.5-.7c.9-3 2-5.4 3.3-7c1.2-1.6 2.6-2.5 4.2-2.5c1.3 0 2.8 .8 4.4 2.3c1.6 1.6 3.5 3.9 5.7 7.2h13.6c-.2-1.4-.6-2.5-1.2-3.4c-.3-.6-1-1.4-2.1-2.7Zm21.7-12.3l7 3.7l-3.6 6.7l-7-3.6Zm18.3-2.6l6.9 3.7l-3.5 6.7l-7-3.6Zm70.6 0c1.2 1.6 2 3.2 2.4 4.7c.6 1.8 .8 4.1 .8 6.9v5.9c0 4.2 .3 7 .9 8.7c.4 1.2 1.1 1.9 2.1 1.9h7.9c1.8 0 3.2-.2 4.3-.7c1.3-.5 2.3-1.5 2.8-2.9c1.1-2.5 2.6-4.6 4.4-6.2c1.5-1.4 2.9-2.2 4-2.2c1 0 2.2 1.6 3.7 4.6c1.6 3.3 2.4 6.2 2.4 9v6.5c-2.1 0-4.6-.4-7.4-1.3c-2.5-.7-4.7-1.5-6.6-2.5c-1.1 1.7-2.5 2.9-4.2 3.4c-.8 .3-2 .4-3.4 .4h-7.9c-2.4 0-4.1-1-5.1-2.9c-1.1-2.1-1.7-5.6-1.7-10.6v-8.5c0-1.9-.3-3.4-.8-4.5c-.3-.5-.9-1.3-1.8-2.2Zm-26.7 0l1.8 10.6c.7 4 1.2 7.5 1.4 10.4c.2 2.3 .3 4.4 .3 6.5c0 1.8-.2 3.4-.6 4.9c-.4 1.4-1.2 3.4-2.4 5.9l-1.8-.8c.4-2.5 .7-4.6 .7-6.2c0-1.2-.1-3-.3-5.3c-.2-2.4-.5-4.7-.7-7c-.4-2.3-.8-5-1.5-8.2c-.3-1.1-.4-1.8-.4-2.3c0-.6 .3-1.6 1-3.1c.6-1.5 1.4-3.3 2.5-5.4Zm-15.4-.2l1.2 .4c0 1.3 .3 2.1 .9 2.5c.5 .4 2.1 1 4.8 1.8c0 1.4-.1 2.8-.4 4.2c-.1 .6-.4 1.7-.8 3.3l-2.2-.9c0 2.4-.3 4.7-.8 7c-.6 2.4-1.5 4.6-2.7 6.9c1.1 2 1.7 3.1 1.9 3.5c.5 .9 .7 1.7 .7 2.5v.9c0 .5-.1 2.5-.5 6c-2.2 1.1-4.2 1.8-6 2.1c-1.8 .4-4.5 .5-8 .5v-8.8c2-1 3.5-1.9 4.3-2.6c.9-.7 2-1.9 3.4-3.7c-2.2-2.8-3.9-4.8-4.9-6c-.9-1-1.9-2.1-3.2-3.3c-.4 .6-.6 1.1-.7 1.3c-.2 .2-.3 .3-.5 .3c-.5 0-1.3-.4-2.7-1.2c-1.1-.8-2-1.4-2.7-2c-.6-.6-1.1-1.7-1.4-3.2c-.4-1.6-.5-3.6-.5-6.1c0-1 .1-1.8 .2-2.2c.1-.4 .4-.6 .8-.6c.8 0 2.3 1.1 4.7 3.3c2 1.9 3.8 3.8 5.4 5.7c1.3 1.4 2.4 2.8 3.4 4.1c1 1.2 2.4 3.3 4.3 6.3c.9-1.7 1.5-3.9 1.9-6.5c.2-1.6 .3-3.5 .3-5.7c-.7-.3-1.2-.6-1.5-1c-.2-.3-.4-.7-.4-1.3c0-1.2 .2-2.4 .4-3.6c.3-1.3 .7-2.6 1.3-3.9Z" class="g1_25"/>
<path fill-rule="evenodd" d="M1223.5 296.6h5.7c3 4.3 5.3 8.8 7 13.6c1.6 4.8 2.5 9.6 2.5 14.6c0 4.1-.7 8.6-2 13.3c-1.5 5.3-4 10.6-7.4 15.8h-5.7c1.6-3.6 2.8-6.3 3.4-8.2c.7-1.8 1.3-4 1.9-6.5c.6-2.4 1-4.8 1.3-7c.3-2.2 .4-4.5 .4-6.8c0-4.7-.5-9.2-1.5-13.4c-1-4.3-2.9-9.4-5.6-15.4Z" class="g2_25"/>
<path d="M1223.5 296.6h5.7c3 4.3 5.3 8.8 7 13.6c1.6 4.8 2.5 9.6 2.5 14.6c0 4.1-.7 8.6-2 13.3c-1.5 5.3-4 10.6-7.4 15.8h-5.7c1.6-3.6 2.8-6.3 3.4-8.2c.7-1.8 1.3-4 1.9-6.5c.6-2.4 1-4.8 1.3-7c.3-2.2 .4-4.5 .4-6.8c0-4.7-.5-9.2-1.5-13.4c-1-4.3-2.9-9.4-5.6-15.4Z" class="g1_25"/>
<path fill-rule="evenodd" d="M1167.5 302.5h19.3c.2 0 .3 0 .5 .1c.1 .1 .2 .3 .3 .5c.1 .3 .2 .6 .2 1c.1 .4 .1 .9 .1 1.5c0 .5 0 1-.1 1.4c0 .4-.1 .7-.2 .9c-.1 .3-.2 .4-.3 .5c-.2 .1-.3 .2-.5 .2H1173V318h11.7c.1 0 .3 .1 .5 .2c.1 .1 .2 .3 .3 .5c.1 .2 .2 .5 .3 .9c0 .4 0 .9 0 1.4c0 .6 0 1.1 0 1.5c-.1 .3-.2 .6-.3 .9c-.1 .2-.2 .4-.3 .5c-.2 .1-.4 .1-.5 .1H1173v10.9h13.9c.2 0 .3 0 .5 .2c.1 .1 .3 .2 .4 .5c.1 .2 .1 .5 .2 .9c0 .4 .1 .9 .1 1.5c0 .5-.1 1-.1 1.4c-.1 .4-.1 .7-.2 .9c-.1 .3-.3 .5-.4 .6c-.2 .1-.3 .1-.5 .1h-19.4c-.6 0-1.2-.2-1.6-.6c-.5-.3-.7-1-.7-1.8V304.9c0-.8 .2-1.5 .7-1.9c.4-.3 1-.5 1.6-.5Z" class="g2_25"/>
<path d="M1167.5 302.5h19.3c.2 0 .3 0 .5 .1c.1 .1 .2 .3 .3 .5c.1 .3 .2 .6 .2 1c.1 .4 .1 .9 .1 1.5c0 .5 0 1-.1 1.4c0 .4-.1 .7-.2 .9c-.1 .3-.2 .4-.3 .5c-.2 .1-.3 .2-.5 .2H1173V318h11.7c.1 0 .3 .1 .5 .2c.1 .1 .2 .3 .3 .5c.1 .2 .2 .5 .3 .9c0 .4 0 .9 0 1.4c0 .6 0 1.1 0 1.5c-.1 .3-.2 .6-.3 .9c-.1 .2-.2 .4-.3 .5c-.2 .1-.4 .1-.5 .1H1173v10.9h13.9c.2 0 .3 0 .5 .2c.1 .1 .3 .2 .4 .5c.1 .2 .1 .5 .2 .9c0 .4 .1 .9 .1 1.5c0 .5-.1 1-.1 1.4c-.1 .4-.1 .7-.2 .9c-.1 .3-.3 .5-.4 .6c-.2 .1-.3 .1-.5 .1h-19.4c-.6 0-1.2-.2-1.6-.6c-.5-.3-.7-1-.7-1.8V304.9c0-.8 .2-1.5 .7-1.9c.4-.3 1-.5 1.6-.5Z" class="g1_25"/>
<path fill-rule="evenodd" d="M1207.9 302.2c.7 0 1.3 0 1.8 0c.5 .1 .8 .1 1 .2c.3 .1 .4 .1 .5 .3c.1 .1 .1 .2 .1 .4V335h6.3c.2 0 .4 0 .5 .1c.2 .2 .3 .3 .4 .6c.1 .2 .2 .5 .3 .9c0 .4 0 .9 0 1.5c0 .5 0 1-.1 1.4c0 .4-.1 .7-.2 .9c-.1 .2-.2 .4-.4 .5c-.1 .1-.3 .1-.5 .1h-21.2c-.2 0-.3 0-.5-.1c-.1-.1-.3-.3-.4-.5c-.1-.2-.2-.5-.2-.9c-.1-.4-.1-.9-.1-1.4c0-.6 0-1.1 .1-1.5c0-.4 .1-.7 .2-.9c.1-.3 .2-.4 .4-.6c.1-.1 .3-.1 .5-.1h7.1V309.9l-6.2 3.4c-.4 .2-.8 .4-1.1 .4c-.3 .1-.5 0-.7-.2c-.1-.1-.2-.4-.3-.9c-.1-.4-.1-.9-.1-1.7c0-.5 0-.9 0-1.2c.1-.3 .1-.6 .2-.8c.1-.2 .2-.4 .3-.5c.1-.2 .3-.3 .6-.5l8.3-5.3c.1-.1 .2-.2 .3-.2c.2-.1 .4-.1 .6-.1c.3-.1 .6-.1 1-.1c.3 0 .9 0 1.5 0Z" class="g2_25"/>
<path d="M1207.9 302.2c.7 0 1.3 0 1.8 0c.5 .1 .8 .1 1 .2c.3 .1 .4 .1 .5 .3c.1 .1 .1 .2 .1 .4V335h6.3c.2 0 .4 0 .5 .1c.2 .2 .3 .3 .4 .6c.1 .2 .2 .5 .3 .9c0 .4 0 .9 0 1.5c0 .5 0 1-.1 1.4c0 .4-.1 .7-.2 .9c-.1 .2-.2 .4-.4 .5c-.1 .1-.3 .1-.5 .1h-21.2c-.2 0-.3 0-.5-.1c-.1-.1-.3-.3-.4-.5c-.1-.2-.2-.5-.2-.9c-.1-.4-.1-.9-.1-1.4c0-.6 0-1.1 .1-1.5c0-.4 .1-.7 .2-.9c.1-.3 .2-.4 .4-.6c.1-.1 .3-.1 .5-.1h7.1V309.9l-6.2 3.4c-.4 .2-.8 .4-1.1 .4c-.3 .1-.5 0-.7-.2c-.1-.1-.2-.4-.3-.9c-.1-.4-.1-.9-.1-1.7c0-.5 0-.9 0-1.2c.1-.3 .1-.6 .2-.8c.1-.2 .2-.4 .3-.5c.1-.2 .3-.3 .6-.5l8.3-5.3c.1-.1 .2-.2 .3-.2c.2-.1 .4-.1 .6-.1c.3-.1 .6-.1 1-.1c.3 0 .9 0 1.5 0Z" class="g1_25"/>
<path fill-rule="evenodd" d="M1153.1 296.6h5.7c-2.7 6-4.6 11.1-5.6 15.4c-1 4.2-1.5 8.7-1.5 13.4c0 3.2 .3 6.6 .9 10c.6 3.4 1.4 6.7 2.5 9.7c.7 2.1 1.9 5 3.6 8.8H1153c-3.1-4.6-5.4-9.4-7-14.3c-1.6-5-2.4-9.8-2.4-14.4c0-5.7 1-11.2 3-16.3c1.7-4.5 3.9-8.6 6.5-12.3Z" class="g2_25"/>
<path d="M1153.1 296.6h5.7c-2.7 6-4.6 11.1-5.6 15.4c-1 4.2-1.5 8.7-1.5 13.4c0 3.2 .3 6.6 .9 10c.6 3.4 1.4 6.7 2.5 9.7c.7 2.1 1.9 5 3.6 8.8H1153c-3.1-4.6-5.4-9.4-7-14.3c-1.6-5-2.4-9.8-2.4-14.4c0-5.7 1-11.2 3-16.3c1.7-4.5 3.9-8.6 6.5-12.3Z" class="g1_25"/>
<path fill-rule="evenodd" d="M1116.3 319.4c-.6 0-1.1 .2-1.5 .7c-.3 .5-.5 1-.5 1.6c0 .7 .4 1.3 1.1 1.8c.8 .5 1.9 .7 3.2 .7h1.1c-.6-3.2-1.7-4.8-3.4-4.8Zm1.2-7.9c1.6 0 3 1 4.1 3.2c1.1 2.2 1.7 4.8 1.7 7.8v7.7c0 3.5-1.5 6.8-4.4 10.2c-2.9 3.3-5.7 5-8.6 5c-1.6 0-3.4-.5-5.4-1.6c-1.9-1.1-4.9-3.1-9-6.2l1.3-1.8c2.1 1.5 3.9 2.4 5.2 2.9c1.2 .4 2.4 .6 3.9 .6c1.9 0 3.8-.5 5.7-1.6c2.2-1.3 4.5-3.3 6.9-6.2c-.8 .2-1.5 .2-2.1 .2c-1.9 0-3.5-.6-4.7-1.9c-1.1-1.3-1.7-3-1.7-5.2c0-3 .7-5.9 2.1-8.6c1.4-3 3.1-4.5 5-4.5Z" class="g2_25"/>
<path d="M1116.3 319.4c-.6 0-1.1 .2-1.5 .7c-.3 .5-.5 1-.5 1.6c0 .7 .4 1.3 1.1 1.8c.8 .5 1.9 .7 3.2 .7h1.1c-.6-3.2-1.7-4.8-3.4-4.8Zm1.2-7.9c1.6 0 3 1 4.1 3.2c1.1 2.2 1.7 4.8 1.7 7.8v7.7c0 3.5-1.5 6.8-4.4 10.2c-2.9 3.3-5.7 5-8.6 5c-1.6 0-3.4-.5-5.4-1.6c-1.9-1.1-4.9-3.1-9-6.2l1.3-1.8c2.1 1.5 3.9 2.4 5.2 2.9c1.2 .4 2.4 .6 3.9 .6c1.9 0 3.8-.5 5.7-1.6c2.2-1.3 4.5-3.3 6.9-6.2c-.8 .2-1.5 .2-2.1 .2c-1.9 0-3.5-.6-4.7-1.9c-1.1-1.3-1.7-3-1.7-5.2c0-3 .7-5.9 2.1-8.6c1.4-3 3.1-4.5 5-4.5Z" class="g1_25"/>
<path fill-rule="evenodd" d="M1060.3 296.6h5.7c3 4.3 5.4 8.8 7 13.6c1.7 4.8 2.5 9.6 2.5 14.6c0 4.1-.7 8.6-2 13.3c-1.5 5.3-3.9 10.6-7.3 15.8h-5.8c1.6-3.6 2.8-6.3 3.5-8.2c.6-1.8 1.3-4 1.8-6.5c.6-2.4 1.1-4.8 1.3-7c.3-2.2 .4-4.5 .4-6.8c0-4.7-.5-9.2-1.5-13.4c-1-4.3-2.9-9.4-5.6-15.4Z" class="g2_25"/>
<path d="M1060.3 296.6h5.7c3 4.3 5.4 8.8 7 13.6c1.7 4.8 2.5 9.6 2.5 14.6c0 4.1-.7 8.6-2 13.3c-1.5 5.3-3.9 10.6-7.3 15.8h-5.8c1.6-3.6 2.8-6.3 3.5-8.2c.6-1.8 1.3-4 1.8-6.5c.6-2.4 1.1-4.8 1.3-7c.3-2.2 .4-4.5 .4-6.8c0-4.7-.5-9.2-1.5-13.4c-1-4.3-2.9-9.4-5.6-15.4Z" class="g1_25"/>
<path fill-rule="evenodd" d="M1004.4 302.5h19.2c.2 0 .3 0 .5 .1c.1 .1 .2 .3 .4 .5c0 .3 .1 .6 .2 1c0 .4 0 .9 0 1.5c0 .5 0 1 0 1.4c-.1 .4-.2 .7-.2 .9c-.2 .3-.3 .4-.4 .5c-.2 .1-.3 .2-.5 .2h-13.8V318h11.7c.2 0 .3 .1 .5 .2c.1 .1 .3 .3 .4 .5c.1 .2 .1 .5 .2 .9c0 .4 .1 .9 .1 1.4c0 .6-.1 1.1-.1 1.5c-.1 .3-.1 .6-.2 .9c-.1 .2-.3 .4-.4 .5c-.2 .1-.3 .1-.5 .1h-11.7v10.9h13.9c.2 0 .4 0 .5 .2c.2 .1 .3 .2 .4 .5c.1 .2 .2 .5 .2 .9c.1 .4 .1 .9 .1 1.5c0 .5 0 1-.1 1.4c0 .4-.1 .7-.2 .9c-.1 .3-.2 .5-.4 .6c-.1 .1-.3 .1-.5 .1h-19.3c-.7 0-1.3-.2-1.7-.6c-.4-.3-.7-1-.7-1.8V304.9c0-.8 .3-1.5 .7-1.9c.4-.3 1-.5 1.7-.5Z" class="g2_25"/>
<path d="M1004.4 302.5h19.2c.2 0 .3 0 .5 .1c.1 .1 .2 .3 .4 .5c0 .3 .1 .6 .2 1c0 .4 0 .9 0 1.5c0 .5 0 1 0 1.4c-.1 .4-.2 .7-.2 .9c-.2 .3-.3 .4-.4 .5c-.2 .1-.3 .2-.5 .2h-13.8V318h11.7c.2 0 .3 .1 .5 .2c.1 .1 .3 .3 .4 .5c.1 .2 .1 .5 .2 .9c0 .4 .1 .9 .1 1.4c0 .6-.1 1.1-.1 1.5c-.1 .3-.1 .6-.2 .9c-.1 .2-.3 .4-.4 .5c-.2 .1-.3 .1-.5 .1h-11.7v10.9h13.9c.2 0 .4 0 .5 .2c.2 .1 .3 .2 .4 .5c.1 .2 .2 .5 .2 .9c.1 .4 .1 .9 .1 1.5c0 .5 0 1-.1 1.4c0 .4-.1 .7-.2 .9c-.1 .3-.2 .5-.4 .6c-.1 .1-.3 .1-.5 .1h-19.3c-.7 0-1.3-.2-1.7-.6c-.4-.3-.7-1-.7-1.8V304.9c0-.8 .3-1.5 .7-1.9c.4-.3 1-.5 1.7-.5Z" class="g1_25"/>
<path fill-rule="evenodd" d="M1042.5 301.8c2 0 3.8 .2 5.3 .7c1.5 .5 2.7 1.2 3.7 2.2c1 .9 1.8 1.9 2.2 3.2c.5 1.2 .8 2.5 .8 4c0 1.2-.1 2.5-.4 3.7c-.2 1.2-.7 2.5-1.5 3.9c-.7 1.4-1.8 2.9-3.2 4.6c-1.3 1.7-3.1 3.7-5.4 6l-4.5 4.6h15.2c.2 0 .4 0 .5 .2c.2 .1 .3 .3 .5 .5c.1 .3 .2 .6 .2 1c.1 .4 .1 .9 .1 1.4c0 .6 0 1.1 0 1.5c-.1 .4-.2 .8-.3 1c-.1 .3-.2 .5-.4 .6c-.1 .1-.3 .1-.5 .1h-22.2c-.4 0-.8 0-1.1-.1c-.3-.1-.6-.2-.8-.5c-.2-.2-.3-.5-.4-1c-.1-.4-.1-1-.1-1.7c0-.6 0-1.2 0-1.6c.1-.5 .2-.9 .4-1.3c.1-.4 .3-.7 .6-1.1c.2-.3 .6-.7 1-1.1l6.6-7.2c1.4-1.4 2.4-2.6 3.2-3.8c.9-1.1 1.5-2.1 1.9-3.1c.5-.9 .8-1.8 1-2.6c.2-.8 .2-1.5 .2-2.3c0-.6-.1-1.2-.3-1.8c-.2-.6-.5-1.1-.9-1.6c-.4-.4-.9-.7-1.5-1c-.6-.2-1.4-.4-2.2-.4c-1.2 0-2.2 .2-3.1 .5c-.9 .3-1.7 .6-2.4 1c-.7 .3-1.3 .7-1.7 1c-.5 .3-.8 .5-1.1 .5c-.2 0-.3-.1-.5-.2c-.1-.1-.2-.3-.3-.6c0-.3-.1-.7-.2-1.1c0-.5 0-1.1 0-1.7c0-.5 0-.9 0-1.2c0-.3 .1-.6 .1-.8c.1-.2 .2-.4 .3-.6c.1-.2 .3-.4 .5-.6c.2-.3 .7-.6 1.4-.9c.6-.4 1.5-.7 2.4-1.1c1-.3 2.1-.6 3.3-.9c1.1-.2 2.3-.3 3.6-.3Z" class="g2_25"/>
<path d="M1042.5 301.8c2 0 3.8 .2 5.3 .7c1.5 .5 2.7 1.2 3.7 2.2c1 .9 1.8 1.9 2.2 3.2c.5 1.2 .8 2.5 .8 4c0 1.2-.1 2.5-.4 3.7c-.2 1.2-.7 2.5-1.5 3.9c-.7 1.4-1.8 2.9-3.2 4.6c-1.3 1.7-3.1 3.7-5.4 6l-4.5 4.6h15.2c.2 0 .4 0 .5 .2c.2 .1 .3 .3 .5 .5c.1 .3 .2 .6 .2 1c.1 .4 .1 .9 .1 1.4c0 .6 0 1.1 0 1.5c-.1 .4-.2 .8-.3 1c-.1 .3-.2 .5-.4 .6c-.1 .1-.3 .1-.5 .1h-22.2c-.4 0-.8 0-1.1-.1c-.3-.1-.6-.2-.8-.5c-.2-.2-.3-.5-.4-1c-.1-.4-.1-1-.1-1.7c0-.6 0-1.2 0-1.6c.1-.5 .2-.9 .4-1.3c.1-.4 .3-.7 .6-1.1c.2-.3 .6-.7 1-1.1l6.6-7.2c1.4-1.4 2.4-2.6 3.2-3.8c.9-1.1 1.5-2.1 1.9-3.1c.5-.9 .8-1.8 1-2.6c.2-.8 .2-1.5 .2-2.3c0-.6-.1-1.2-.3-1.8c-.2-.6-.5-1.1-.9-1.6c-.4-.4-.9-.7-1.5-1c-.6-.2-1.4-.4-2.2-.4c-1.2 0-2.2 .2-3.1 .5c-.9 .3-1.7 .6-2.4 1c-.7 .3-1.3 .7-1.7 1c-.5 .3-.8 .5-1.1 .5c-.2 0-.3-.1-.5-.2c-.1-.1-.2-.3-.3-.6c0-.3-.1-.7-.2-1.1c0-.5 0-1.1 0-1.7c0-.5 0-.9 0-1.2c0-.3 .1-.6 .1-.8c.1-.2 .2-.4 .3-.6c.1-.2 .3-.4 .5-.6c.2-.3 .7-.6 1.4-.9c.6-.4 1.5-.7 2.4-1.1c1-.3 2.1-.6 3.3-.9c1.1-.2 2.3-.3 3.6-.3Z" class="g1_25"/>
<path fill-rule="evenodd" d="M989.9 296.6h5.8c-2.8 6-4.6 11.1-5.7 15.4c-1 4.2-1.5 8.7-1.5 13.4c0 3.2 .3 6.6 .9 10c.6 3.4 1.4 6.7 2.5 9.7c.7 2.1 1.9 5 3.7 8.8h-5.8c-3-4.6-5.3-9.4-6.9-14.3c-1.6-5-2.4-9.8-2.4-14.4c0-5.7 1-11.2 2.9-16.3c1.7-4.5 3.9-8.6 6.5-12.3Z" class="g2_25"/>
<path d="M989.9 296.6h5.8c-2.8 6-4.6 11.1-5.7 15.4c-1 4.2-1.5 8.7-1.5 13.4c0 3.2 .3 6.6 .9 10c.6 3.4 1.4 6.7 2.5 9.7c.7 2.1 1.9 5 3.7 8.8h-5.8c-3-4.6-5.3-9.4-6.9-14.3c-1.6-5-2.4-9.8-2.4-14.4c0-5.7 1-11.2 2.9-16.3c1.7-4.5 3.9-8.6 6.5-12.3Z" class="g1_25"/>
<path fill-rule="evenodd" d="M723 334.8l6.9 3.7l-3.5 6.7l-7-3.7Zm29.1-.3l5.5 3l-3.1 5.8l-4.4-2.2l-2.5 4.9l-5.4-3.1l3.3-6.1l4.2 2.4Zm-78.5-9.2c1 0 1.8 .3 2.5 1.1c.7 .7 1.1 1.6 1.1 2.6c0 1-.4 1.9-1.1 2.6c-.7 .7-1.6 1.1-2.6 1.1c-1 0-1.9-.4-2.6-1.1c-.7-.8-1.1-1.6-1.1-2.6c0-1 .4-1.9 1.1-2.7c.8-.7 1.6-1 2.7-1ZM754.2 311c1.5 1.7 2.5 3.4 3.1 5.3c.5 1.6 .7 3.9 .8 6.9v1h13.5c-.2-1.4-.6-2.5-1.2-3.4c-.3-.6-1-1.4-2.1-2.7l2.4-7.1c1.5 1.7 2.5 3.4 3.1 5.3c.5 1.8 .8 4.6 .8 8.2v7.8h-58c-1.2 0-2.3 0-3.1 0c-.7-.1-1.3-.1-1.7-.1c-.8-.1-1.6-.3-2.6-.7c-1.6-.5-3-1.6-4-3.3c-1-1.8-1.6-3.7-1.6-5.8c0-.8 .1-1.7 .2-2.5c.1-.9 .3-1.8 .7-2.8c.4-1.2 .8-2.3 1.4-3.2c.5-1 1.1-1.9 1.7-2.7l1.6 1c-.4 .8-.8 1.6-1.1 2.2c-.2 .7-.5 1.2-.6 1.7c-.3 .9-.5 1.8-.5 2.7c0 1.1 .4 2.1 1.1 3.1c.8 .9 1.7 1.5 2.9 1.7c.7 .2 1.6 .3 2.7 .4c1.1 .1 2.3 .2 3.5 .2h21.6c-.6-1.6-1.1-2.7-1.4-3.2c-.4-.8-1.1-1.8-2-2.9l2.7-6.9c1.5 2.1 2.4 4 2.9 5.8c.4 1.6 .6 3.9 .6 6.9v.3h13.5c-.2-1.4-.6-2.5-1.2-3.4c-.3-.6-1-1.4-2.1-2.7ZM674 297.6c2.4 0 4.4 .7 6.1 2c1.7 1.4 2.5 3.2 2.5 5.4c0 1.2-.4 2.3-1.1 3.2c-.8 1.1-1.8 1.6-3.1 1.6c-1 0-1.8-.3-2.5-1c-.6-.6-1-1.4-1-2.3c0-1.3 .6-2.3 1.7-3c1.1-.7 1.6-1.2 1.6-1.7c0-.6-.3-1.2-.9-1.6c-.7-.4-1.5-.6-2.5-.6c-1.3 0-2.4 .3-3.2 1.1c-.8 .7-1.2 1.6-1.2 2.6c0 1 .4 2.2 1.2 3.8c1.3 2.2 2.1 3.7 2.3 4.4c.9 2.1 1.3 4.4 1.3 6.8c0 1.3-.1 2.8-.3 4.4h-1.8c0-.4 0-.7 0-.9l.1-1.5c0-1.1-.7-2.3-2.2-3.7c-2.5-2.2-3.8-3.4-4.1-3.7c-1.5-1.8-2.2-3.8-2.2-6c0-2.7 .9-4.9 2.7-6.6c1.8-1.8 4-2.7 6.6-2.7Zm137.5-.2l5.5 3l-3.1 5.8l-4.4-2.2l-2.5 4.8l-5.4-3l3.3-6.1l4.2 2.4Zm-42.9 0l5.5 3l-3.1 5.8l-4.4-2.2l-2.5 4.8l-5.4-3l3.3-6.1l4.2 2.4Zm70.7-1.3l1.8 10.6c.6 4 1.1 7.5 1.4 10.4c.2 2.3 .3 4.4 .3 6.5c0 1.8-.3 3.4-.7 4.9c-.4 1.4-1.2 3.4-2.4 5.9l-1.8-.8c.5-2.5 .7-4.6 .7-6.2c0-1.2-.1-3-.3-5.3c-.2-2.4-.4-4.7-.7-7c-.3-2.3-.8-5-1.5-8.2c-.2-1.1-.3-1.8-.3-2.3c0-.6 .3-1.6 .9-3.1c.6-1.5 1.5-3.3 2.6-5.4Zm64.7-2.4l1.3 .8c0 .1 0 .4-.1 .9c0 .7 .4 1.3 1.3 1.9c.7 .6 1.9 1.2 3.5 1.9c-.2 1.3-.5 2.5-.8 3.7c-.3 1.2-.7 2.3-1.2 3.3l-1-.5l3.2 18.5h1.1c.6 0 1 0 1.3 0c.6-.1 1.2-.2 1.8-.2c-1-1.5-1.7-2.7-2-3.6c-.4-1-.5-2-.5-3.2c0-2.9 1.2-5.5 3.6-7.7c2.5-2.2 5.4-3.3 8.6-3.3c2.3 0 4.4 .7 6.4 2.1c1.8 1.4 3.2 3 4 4.9l-1.2 1.1c-1.6-.6-2.9-1-3.8-1.1c-.9-.2-2-.3-3.4-.3c-2.5 0-4.6 .2-6.4 .6c-2.3 .5-3.4 1.2-3.4 2.1c0 1.4 2.7 3.7 8.3 6.8l15.1-4.3l-3.3 8.4c-5.4 1.7-9.8 3-13.3 3.9c-3 .7-5.6 1.3-7.7 1.6c-1.5 .2-3.1 .3-4.6 .3H893.3c-.8 0-1.4 .1-1.8 .2c-.4 .1-.7 .3-.7 .5c0 .1 .5 .3 1.5 .7c1 .4 1.5 1 1.5 1.8c0 1.1-.2 2.4-.5 3.9c-.4 1.6-.8 3-1.4 4.2c-.4 .9-1.6 2-3.7 3.3c-2.1 1.3-4.5 2.4-7.3 3.3c-3.1 .9-6 1.4-8.8 1.4c-3.3 0-5.7-.7-7.3-2.2c-1.7-1.5-2.5-3.7-2.5-6.5c0-3.2 .3-5.9 1.1-8.2c.9-2.8 2.8-6.4 5.6-10.9l1.7 1.3c-1.9 3.1-3.2 5.7-3.9 7.6c-.7 1.8-1 3.7-1 5.5c0 1.9 .6 3.3 1.7 4.3c1.2 1.1 2.8 1.6 4.9 1.6c2.5 0 5.2-.4 8.1-1.1c2.7-.7 4.9-1.6 6.8-2.6c1.9-.9 2.8-1.8 2.8-2.4c0-.2-.5-.3-1.7-.3c-1.1-.1-2.1-.1-2.9-.1c-2.1 0-3.5-.1-4.1-.2c-.6-.2-.9-.6-.9-1.1c0-1.1 .2-2.3 .5-3.4c.4-1.2 .9-2.2 1.4-2.8c1.3-1.6 2.9-2.9 4.7-4c2-1.3 3.8-1.9 5.4-1.9h14.1L903 304l-1.9-1.3c0-1.2 .2-2.4 .5-3.5c.5-1.6 1.3-3.4 2.4-5.5Zm-78.5 0l1.4 .8c0 .1-.1 .4-.1 .9c0 .7 .4 1.3 1.2 1.9c.7 .6 1.9 1.2 3.5 1.9c-.2 1.3-.4 2.5-.8 3.7c-.3 1.2-.7 2.3-1.1 3.3l-1.1-.5l3.2 18.5v8.1H800.9v.7c0 1.2-.7 2.8-2.1 4.8c-1.3 2-3 3.7-4.8 5.2c-2.1 1.6-3.9 2.4-5.3 2.4c-1.8 0-3.7-.5-5.7-1.5c-1.7-.8-4.5-2.5-8.2-5.1l1.3-1.8c1.8 1.2 3.2 2 4.3 2.4c1.1 .4 2.3 .6 3.5 .6c1.4 0 2.8-.4 4.2-1.2c1.3-.7 3.2-2.2 5.6-4.3c3.3-2.9 4.9-5.2 4.9-6.8c0-.8-.3-1.8-.9-3.1c-.8-1.5-1.6-2.7-2.7-3.7l1.7-8c1.3 1.4 2.4 3 3.1 4.8c.8 1.8 1.1 3.9 1.1 6.2v.3h13.6c-.2-1.4-.6-2.5-1.2-3.4c-.3-.6-1-1.4-2.1-2.7l2.4-7.1c1.5 1.7 2.5 3.4 3.1 5.3c.5 1.6 .7 3.9 .8 6.9v1h10.7L824.6 304l-2-1.3c0-1.2 .2-2.4 .6-3.5c.4-1.6 1.2-3.4 2.3-5.5Z" class="g2_25"/>
<path d="M723 334.8l6.9 3.7l-3.5 6.7l-7-3.7Zm29.1-.3l5.5 3l-3.1 5.8l-4.4-2.2l-2.5 4.9l-5.4-3.1l3.3-6.1l4.2 2.4Zm-78.5-9.2c1 0 1.8 .3 2.5 1.1c.7 .7 1.1 1.6 1.1 2.6c0 1-.4 1.9-1.1 2.6c-.7 .7-1.6 1.1-2.6 1.1c-1 0-1.9-.4-2.6-1.1c-.7-.8-1.1-1.6-1.1-2.6c0-1 .4-1.9 1.1-2.7c.8-.7 1.6-1 2.7-1ZM754.2 311c1.5 1.7 2.5 3.4 3.1 5.3c.5 1.6 .7 3.9 .8 6.9v1h13.5c-.2-1.4-.6-2.5-1.2-3.4c-.3-.6-1-1.4-2.1-2.7l2.4-7.1c1.5 1.7 2.5 3.4 3.1 5.3c.5 1.8 .8 4.6 .8 8.2v7.8h-58c-1.2 0-2.3 0-3.1 0c-.7-.1-1.3-.1-1.7-.1c-.8-.1-1.6-.3-2.6-.7c-1.6-.5-3-1.6-4-3.3c-1-1.8-1.6-3.7-1.6-5.8c0-.8 .1-1.7 .2-2.5c.1-.9 .3-1.8 .7-2.8c.4-1.2 .8-2.3 1.4-3.2c.5-1 1.1-1.9 1.7-2.7l1.6 1c-.4 .8-.8 1.6-1.1 2.2c-.2 .7-.5 1.2-.6 1.7c-.3 .9-.5 1.8-.5 2.7c0 1.1 .4 2.1 1.1 3.1c.8 .9 1.7 1.5 2.9 1.7c.7 .2 1.6 .3 2.7 .4c1.1 .1 2.3 .2 3.5 .2h21.6c-.6-1.6-1.1-2.7-1.4-3.2c-.4-.8-1.1-1.8-2-2.9l2.7-6.9c1.5 2.1 2.4 4 2.9 5.8c.4 1.6 .6 3.9 .6 6.9v.3h13.5c-.2-1.4-.6-2.5-1.2-3.4c-.3-.6-1-1.4-2.1-2.7ZM674 297.6c2.4 0 4.4 .7 6.1 2c1.7 1.4 2.5 3.2 2.5 5.4c0 1.2-.4 2.3-1.1 3.2c-.8 1.1-1.8 1.6-3.1 1.6c-1 0-1.8-.3-2.5-1c-.6-.6-1-1.4-1-2.3c0-1.3 .6-2.3 1.7-3c1.1-.7 1.6-1.2 1.6-1.7c0-.6-.3-1.2-.9-1.6c-.7-.4-1.5-.6-2.5-.6c-1.3 0-2.4 .3-3.2 1.1c-.8 .7-1.2 1.6-1.2 2.6c0 1 .4 2.2 1.2 3.8c1.3 2.2 2.1 3.7 2.3 4.4c.9 2.1 1.3 4.4 1.3 6.8c0 1.3-.1 2.8-.3 4.4h-1.8c0-.4 0-.7 0-.9l.1-1.5c0-1.1-.7-2.3-2.2-3.7c-2.5-2.2-3.8-3.4-4.1-3.7c-1.5-1.8-2.2-3.8-2.2-6c0-2.7 .9-4.9 2.7-6.6c1.8-1.8 4-2.7 6.6-2.7Zm137.5-.2l5.5 3l-3.1 5.8l-4.4-2.2l-2.5 4.8l-5.4-3l3.3-6.1l4.2 2.4Zm-42.9 0l5.5 3l-3.1 5.8l-4.4-2.2l-2.5 4.8l-5.4-3l3.3-6.1l4.2 2.4Zm70.7-1.3l1.8 10.6c.6 4 1.1 7.5 1.4 10.4c.2 2.3 .3 4.4 .3 6.5c0 1.8-.3 3.4-.7 4.9c-.4 1.4-1.2 3.4-2.4 5.9l-1.8-.8c.5-2.5 .7-4.6 .7-6.2c0-1.2-.1-3-.3-5.3c-.2-2.4-.4-4.7-.7-7c-.3-2.3-.8-5-1.5-8.2c-.2-1.1-.3-1.8-.3-2.3c0-.6 .3-1.6 .9-3.1c.6-1.5 1.5-3.3 2.6-5.4Zm64.7-2.4l1.3 .8c0 .1 0 .4-.1 .9c0 .7 .4 1.3 1.3 1.9c.7 .6 1.9 1.2 3.5 1.9c-.2 1.3-.5 2.5-.8 3.7c-.3 1.2-.7 2.3-1.2 3.3l-1-.5l3.2 18.5h1.1c.6 0 1 0 1.3 0c.6-.1 1.2-.2 1.8-.2c-1-1.5-1.7-2.7-2-3.6c-.4-1-.5-2-.5-3.2c0-2.9 1.2-5.5 3.6-7.7c2.5-2.2 5.4-3.3 8.6-3.3c2.3 0 4.4 .7 6.4 2.1c1.8 1.4 3.2 3 4 4.9l-1.2 1.1c-1.6-.6-2.9-1-3.8-1.1c-.9-.2-2-.3-3.4-.3c-2.5 0-4.6 .2-6.4 .6c-2.3 .5-3.4 1.2-3.4 2.1c0 1.4 2.7 3.7 8.3 6.8l15.1-4.3l-3.3 8.4c-5.4 1.7-9.8 3-13.3 3.9c-3 .7-5.6 1.3-7.7 1.6c-1.5 .2-3.1 .3-4.6 .3H893.3c-.8 0-1.4 .1-1.8 .2c-.4 .1-.7 .3-.7 .5c0 .1 .5 .3 1.5 .7c1 .4 1.5 1 1.5 1.8c0 1.1-.2 2.4-.5 3.9c-.4 1.6-.8 3-1.4 4.2c-.4 .9-1.6 2-3.7 3.3c-2.1 1.3-4.5 2.4-7.3 3.3c-3.1 .9-6 1.4-8.8 1.4c-3.3 0-5.7-.7-7.3-2.2c-1.7-1.5-2.5-3.7-2.5-6.5c0-3.2 .3-5.9 1.1-8.2c.9-2.8 2.8-6.4 5.6-10.9l1.7 1.3c-1.9 3.1-3.2 5.7-3.9 7.6c-.7 1.8-1 3.7-1 5.5c0 1.9 .6 3.3 1.7 4.3c1.2 1.1 2.8 1.6 4.9 1.6c2.5 0 5.2-.4 8.1-1.1c2.7-.7 4.9-1.6 6.8-2.6c1.9-.9 2.8-1.8 2.8-2.4c0-.2-.5-.3-1.7-.3c-1.1-.1-2.1-.1-2.9-.1c-2.1 0-3.5-.1-4.1-.2c-.6-.2-.9-.6-.9-1.1c0-1.1 .2-2.3 .5-3.4c.4-1.2 .9-2.2 1.4-2.8c1.3-1.6 2.9-2.9 4.7-4c2-1.3 3.8-1.9 5.4-1.9h14.1L903 304l-1.9-1.3c0-1.2 .2-2.4 .5-3.5c.5-1.6 1.3-3.4 2.4-5.5Zm-78.5 0l1.4 .8c0 .1-.1 .4-.1 .9c0 .7 .4 1.3 1.2 1.9c.7 .6 1.9 1.2 3.5 1.9c-.2 1.3-.4 2.5-.8 3.7c-.3 1.2-.7 2.3-1.1 3.3l-1.1-.5l3.2 18.5v8.1H800.9v.7c0 1.2-.7 2.8-2.1 4.8c-1.3 2-3 3.7-4.8 5.2c-2.1 1.6-3.9 2.4-5.3 2.4c-1.8 0-3.7-.5-5.7-1.5c-1.7-.8-4.5-2.5-8.2-5.1l1.3-1.8c1.8 1.2 3.2 2 4.3 2.4c1.1 .4 2.3 .6 3.5 .6c1.4 0 2.8-.4 4.2-1.2c1.3-.7 3.2-2.2 5.6-4.3c3.3-2.9 4.9-5.2 4.9-6.8c0-.8-.3-1.8-.9-3.1c-.8-1.5-1.6-2.7-2.7-3.7l1.7-8c1.3 1.4 2.4 3 3.1 4.8c.8 1.8 1.1 3.9 1.1 6.2v.3h13.6c-.2-1.4-.6-2.5-1.2-3.4c-.3-.6-1-1.4-2.1-2.7l2.4-7.1c1.5 1.7 2.5 3.4 3.1 5.3c.5 1.6 .7 3.9 .8 6.9v1h10.7L824.6 304l-2-1.3c0-1.2 .2-2.4 .6-3.5c.4-1.6 1.2-3.4 2.3-5.5Z" class="g1_25"/>
<image clip-path="url(#c1_25)" preserveAspectRatio="none" x="16" y="382" width="675" height="425" href="img/2.jpg"/>
</svg>