<svg viewBox="0 0 909 1286" version="1.1" xmlns="http://www.w3.org/2000/svg">
<defs>
<style>
.g0_2{fill:none;stroke:#000;stroke-width:1.527;stroke-linecap:round;stroke-miterlimit:10;}
.g1_2{fill:none;stroke:#000;stroke-width:1.527;stroke-linejoin:round;}
.g2_2{fill:#000;}
</style>
</defs>
<path d="M41.2 1233.6H864V34H41.2V1233.6Z" class="g0_2"/>
<path d="M40.2 66.7H863" class="g1_2"/>
<path fill-rule="evenodd" d="M753.5 105.2h96.2V103H753.5v2.2Z" class="g2_2"/>
<path fill-rule="evenodd" d="M279.4 149.4H603.8v-2.2H279.4v2.2Z" class="g2_2"/>
<path fill-rule="evenodd" d="M707.8 193.8h87.1v-2.2H707.8v2.2Z" class="g2_2"/>
<path fill-rule="evenodd" d="M735 282.4h59.9v-2.2H735v2.2Z" class="g2_2"/>
<path fill-rule="evenodd" d="M326.4 548.2H584.2V546H326.4v2.2Z" class="g2_2"/>
<path fill-rule="evenodd" d="M743.8 637H796v-2.2H743.8V637Z" class="g2_2"/>
<path fill-rule="evenodd" d="M328.4 814.1H628.9v-2.2H328.4v2.2Z" class="g2_2"/>
<path fill-rule="evenodd" d="M735 858.5h59.9v-2.2H735v2.2Z" class="g2_2"/>
<path fill-rule="evenodd" d="M339.1 902.9h62.5v-2.2H339.1v2.2Z" class="g2_2"/>
<path fill-rule="evenodd" d="M644 947.1h49.1v-2.2H644v2.2Z" class="g2_2"/>
<path fill-rule="evenodd" d="M161.5 991.4h34v-2.2h-34v2.2Z" class="g2_2"/>
<path fill-rule="evenodd" d="M302 1035.8H461.3v-2.2H302v2.2Z" class="g2_2"/>
<path fill-rule="evenodd" d="M406.5 1080h62.4v-2.2H406.5v2.2Z" class="g2_2"/>
<path fill-rule="evenodd" d="M730.2 1124.4h65.6v-2.2H730.2v2.2Z" class="g2_2"/>
</svg>