<svg viewBox="0 0 1466 825" version="1.1" xmlns="http://www.w3.org/2000/svg">
<defs>
<clipPath id="c0_18"><path d="M-.2 825.3V-.2H1467V825.3Z"/></clipPath>
<clipPath id="c1_18"><path d="M1346.3 717.2V644.5h108v72.7Z"/></clipPath>
<clipPath id="c2_18"><path d="M1356.3 810.8V739.2h103v71.6Z"/></clipPath>
<clipPath id="c3_18"><path d="M497.4 717.2v-81h103v81Z"/></clipPath>
<clipPath id="c4_18"><path d="M504.2 818.9V738.3h96.2v80.6Z"/></clipPath>
<clipPath id="c5_18"><path d="M124 636.9v-272H1325.1v272Z"/></clipPath>
<style>
.g0_18{fill:#F00;}
.g1_18{fill:none;stroke:#000;stroke-width:1.466;stroke-linejoin:round;}
.g2_18{fill:#606;}
</style>
</defs>
<image clip-path="url(#c0_18)" preserveAspectRatio="none" x="0" y="-7" width="1467" height="840" href="img/1.jpg"/>
<path fill-rule="evenodd" d="M1345.6 339.1l4.2 2.1l-2 3.7l-4.1-2.1l-2 3.5l-4.1-2.2l2-3.7l4 2.1ZM1447 316c-.7 0-1.3 .8-1.8 2.4c.9 .4 1.7 .6 2.1 .8c1.5 .5 2.3 .8 2.5 .8c.4 0 .6-.1 .6-.4c0-.4-.4-1-1.2-2c-.8-1.1-1.6-1.6-2.2-1.6Zm-93.5-5.7c1.1 0 1.9 .4 2.5 1.2c.6 .8 .9 1.8 .9 3.2c0 1-.1 1.8-.3 2.4c-.2 .7-.6 1.5-1.2 2.6c-.5-1.3-.9-2.1-1.3-2.5c-.3-.4-.8-.6-1.4-.6c-1 0-2.3 .6-4 1.7c-1.7 1.1-2.5 2-2.5 2.8c0 .3 .3 .6 1 .8c.5 .1 1.2 .2 2.3 .2c.2 0 .5 0 .7 0c.3 0 .6-.1 .8-.1c2 0 3.3 .2 3.9 .6c.6 .4 .9 1 .9 2c0 1.9-.4 3.8-1.1 5.6c-.9 2.2-2.2 3.8-3.9 4.7c-2.1 1.2-4.3 2.2-6.6 2.9c-2.3 .8-4.5 1.1-6.5 1.1c-5.5 0-8.3-2.5-8.3-7.4c0-2.6 .3-4.8 .9-6.6c.7-2 2.2-4.8 4.4-8.3l1.3 .8c-1.3 2.3-2.3 4.3-3 6c-.7 1.8-1 3.3-1 4.6c0 3.4 1.9 5.1 5.7 5.1c1.5 0 2.8-.2 4.1-.4c1.3-.3 2.6-.7 3.9-1.1c.9-.3 1.9-.7 3-1.2c1.7-.8 2.7-1.2 2.8-1.3c.8-.4 1.2-.8 1.2-1.1c0-.2-.4-.3-1.3-.4c-.9 0-1.5 0-1.8 0c-2.8 0-4.6-.4-5.6-1.2c-.7-.6-1.1-1.8-1.1-3.6c0-.8 .3-1.8 .8-3.1c.5-1.2 1.2-2.5 2.1-3.7c1.3-1.9 2.6-3.3 3.9-4.3c1.3-1 2.6-1.4 3.8-1.4Zm69.8-15.1c1.1 1.4 1.8 2.8 2.2 4.2c.5 1.6 .7 3.7 .7 6.2v5.3c0 3.8 .3 6.4 .8 7.8c.4 1.2 1 1.8 1.9 1.8h7.1c1.6 0 2.9-.2 3.8-.6c1.3-.5 2.1-1.4 2.6-2.6c1-2.3 2.3-4.2 3.9-5.6c1.4-1.3 2.6-2 3.6-2c.9 0 2 1.4 3.4 4.1c1.4 3 2.1 5.6 2.1 8.1v5.8c-1.9 0-4.1-.3-6.6-1.1c-2.3-.6-4.2-1.4-6-2.2c-1 1.5-2.3 2.5-3.8 3c-.7 .3-1.7 .4-3 .4h-7.1c-2.1 0-3.6-.9-4.6-2.6c-1-1.9-1.5-5.1-1.5-9.6V308c0-1.8-.3-3.1-.8-4.1c-.2-.5-.7-1.1-1.6-2Zm-24.1 0l1.6 9.5c.6 3.6 1.1 6.7 1.3 9.4c.2 2 .2 4 .2 5.9c0 1.6-.1 3-.5 4.3c-.4 1.3-1.1 3.1-2.2 5.3l-1.6-.6c.4-2.3 .6-4.2 .6-5.6c0-1.1 0-2.7-.2-4.8c-.2-2.1-.4-4.2-.7-6.3c-.3-2.1-.7-4.5-1.3-7.4c-.2-1-.3-1.7-.3-2c0-.6 .2-1.5 .8-2.9c.6-1.3 1.3-2.9 2.3-4.8Zm-12.3-2.2l1.2 .7c0 .1 0 .4-.1 .9c0 .5 .4 1.1 1.1 1.7c.7 .5 1.7 1 3.2 1.6c-.2 1.2-.4 2.3-.7 3.4c-.3 1.1-.7 2.1-1.1 2.9l-1-.4l3 16.7v7.3h-25.1c-1.2 0-2.1-.3-2.7-.8c-.8-.6-1.2-1.6-1.2-3c0-.8 .1-1.6 .1-2.5c.1-.9 .2-1.8 .4-2.8h1c.2 .6 .5 1 1 1.3c.5 .3 1.1 .5 1.8 .5h9.2c-.4-2.7-1.1-4.8-2.2-6.3c-.8-1.4-2-2.5-3.5-3.4l2-8.4c2.3 1.7 3.9 4 4.9 6.7c.9 2.5 1.4 5.9 1.4 10.1v1.3h9.7l-3.3-18.3l-1.7-1.1c0-1.1 .1-2.1 .5-3.2c.4-1.4 1.1-3 2.1-4.9Zm-18.2-3.9l6.3 3.4l-3.3 6l-6.2-3.3Z" class="g0_18"/>
<path d="M1345.6 339.1l4.2 2.1l-2 3.7l-4.1-2.1l-2 3.5l-4.1-2.2l2-3.7l4 2.1ZM1447 316c-.7 0-1.3 .8-1.8 2.4c.9 .4 1.7 .6 2.1 .8c1.5 .5 2.3 .8 2.5 .8c.4 0 .6-.1 .6-.4c0-.4-.4-1-1.2-2c-.8-1.1-1.6-1.6-2.2-1.6Zm-93.5-5.7c1.1 0 1.9 .4 2.5 1.2c.6 .8 .9 1.8 .9 3.2c0 1-.1 1.8-.3 2.4c-.2 .7-.6 1.5-1.2 2.6c-.5-1.3-.9-2.1-1.3-2.5c-.3-.4-.8-.6-1.4-.6c-1 0-2.3 .6-4 1.7c-1.7 1.1-2.5 2-2.5 2.8c0 .3 .3 .6 1 .8c.5 .1 1.2 .2 2.3 .2c.2 0 .5 0 .7 0c.3 0 .6-.1 .8-.1c2 0 3.3 .2 3.9 .6c.6 .4 .9 1 .9 2c0 1.9-.4 3.8-1.1 5.6c-.9 2.2-2.2 3.8-3.9 4.7c-2.1 1.2-4.3 2.2-6.6 2.9c-2.3 .8-4.5 1.1-6.5 1.1c-5.5 0-8.3-2.5-8.3-7.4c0-2.6 .3-4.8 .9-6.6c.7-2 2.2-4.8 4.4-8.3l1.3 .8c-1.3 2.3-2.3 4.3-3 6c-.7 1.8-1 3.3-1 4.6c0 3.4 1.9 5.1 5.7 5.1c1.5 0 2.8-.2 4.1-.4c1.3-.3 2.6-.7 3.9-1.1c.9-.3 1.9-.7 3-1.2c1.7-.8 2.7-1.2 2.8-1.3c.8-.4 1.2-.8 1.2-1.1c0-.2-.4-.3-1.3-.4c-.9 0-1.5 0-1.8 0c-2.8 0-4.6-.4-5.6-1.2c-.7-.6-1.1-1.8-1.1-3.6c0-.8 .3-1.8 .8-3.1c.5-1.2 1.2-2.5 2.1-3.7c1.3-1.9 2.6-3.3 3.9-4.3c1.3-1 2.6-1.4 3.8-1.4Zm69.8-15.1c1.1 1.4 1.8 2.8 2.2 4.2c.5 1.6 .7 3.7 .7 6.2v5.3c0 3.8 .3 6.4 .8 7.8c.4 1.2 1 1.8 1.9 1.8h7.1c1.6 0 2.9-.2 3.8-.6c1.3-.5 2.1-1.4 2.6-2.6c1-2.3 2.3-4.2 3.9-5.6c1.4-1.3 2.6-2 3.6-2c.9 0 2 1.4 3.4 4.1c1.4 3 2.1 5.6 2.1 8.1v5.8c-1.9 0-4.1-.3-6.6-1.1c-2.3-.6-4.2-1.4-6-2.2c-1 1.5-2.3 2.5-3.8 3c-.7 .3-1.7 .4-3 .4h-7.1c-2.1 0-3.6-.9-4.6-2.6c-1-1.9-1.5-5.1-1.5-9.6V308c0-1.8-.3-3.1-.8-4.1c-.2-.5-.7-1.1-1.6-2Zm-24.1 0l1.6 9.5c.6 3.6 1.1 6.7 1.3 9.4c.2 2 .2 4 .2 5.9c0 1.6-.1 3-.5 4.3c-.4 1.3-1.1 3.1-2.2 5.3l-1.6-.6c.4-2.3 .6-4.2 .6-5.6c0-1.1 0-2.7-.2-4.8c-.2-2.1-.4-4.2-.7-6.3c-.3-2.1-.7-4.5-1.3-7.4c-.2-1-.3-1.7-.3-2c0-.6 .2-1.5 .8-2.9c.6-1.3 1.3-2.9 2.3-4.8Zm-12.3-2.2l1.2 .7c0 .1 0 .4-.1 .9c0 .5 .4 1.1 1.1 1.7c.7 .5 1.7 1 3.2 1.6c-.2 1.2-.4 2.3-.7 3.4c-.3 1.1-.7 2.1-1.1 2.9l-1-.4l3 16.7v7.3h-25.1c-1.2 0-2.1-.3-2.7-.8c-.8-.6-1.2-1.6-1.2-3c0-.8 .1-1.6 .1-2.5c.1-.9 .2-1.8 .4-2.8h1c.2 .6 .5 1 1 1.3c.5 .3 1.1 .5 1.8 .5h9.2c-.4-2.7-1.1-4.8-2.2-6.3c-.8-1.4-2-2.5-3.5-3.4l2-8.4c2.3 1.7 3.9 4 4.9 6.7c.9 2.5 1.4 5.9 1.4 10.1v1.3h9.7l-3.3-18.3l-1.7-1.1c0-1.1 .1-2.1 .5-3.2c.4-1.4 1.1-3 2.1-4.9Zm-18.2-3.9l6.3 3.4l-3.3 6l-6.2-3.3Z" class="g1_18"/>
<path fill-rule="evenodd" d="M1224.2 330l6.3 3.4l-3.3 6l-6.2-3.3Zm38.2-.2l5 2.7l-2.8 5.2l-4-2l-2.2 4.4l-4.9-2.8l2.9-5.5l3.9 2.2Zm38.1-9.2c-.8 .9-1.4 1.5-1.8 1.9c-.4 .3-1.1 .9-2.2 1.6c1.4-.1 2.3-.3 2.9-.4c.6-.2 1.4-.6 2.4-1.1Zm-59.1-12.7c2.5 0 4.4 .5 5.8 1.4c1.5 1 2.2 2.4 2.2 4c0 1-.2 1.8-.6 2.7c-.4 .8-1.1 1.9-2.1 3.4c.2 .3 .6 .6 1 .8c.4 .2 .8 .3 1.2 .3h16.3c-.2-1.3-.6-2.3-1.1-3.1c-.3-.5-.9-1.3-1.9-2.4l2.1-6.4c1.4 1.5 2.3 3.1 2.8 4.7c.5 1.7 .7 4.2 .7 7.5v7h-18.9c-1.4 0-2.6-.3-3.7-.9c-1.1-.6-1.9-1.5-2.6-2.8c-1.2 1.5-2.7 2.5-4.5 3.1c-1.3 .4-2.6 .6-4.1 .6h-15.8v.6c0 1.1-.6 2.5-1.9 4.3c-1.2 1.8-2.7 3.4-4.4 4.7c-1.8 1.5-3.4 2.2-4.8 2.2c-1.5 0-3.2-.4-5-1.3c-1.6-.8-4.1-2.3-7.4-4.6l1.1-1.7c1.6 1.1 2.9 1.8 3.9 2.2c1 .3 2 .5 3.2 .5c1.2 0 2.5-.3 3.7-1c1.2-.7 2.9-2 5.1-3.9c2.9-2.7 4.4-4.7 4.4-6.1c0-.8-.3-1.7-.8-2.9c-.7-1.3-1.5-2.4-2.4-3.3l1.5-7.2c1.2 1.2 2.2 2.7 2.8 4.3c.7 1.6 1 3.5 1 5.6v.3h12.3c-.2-1.3-.6-2.3-1.1-3.1c-.2-.5-.9-1.3-1.9-2.4l2.2-6.4c1.3 1.5 2.3 3.1 2.7 4.7c.5 1.5 .7 3.6 .8 6.3v.9h.8c1.5 0 2.6-.1 3.2-.3c.6-.1 1.4-.5 2.4-1c-.5-1.1-1-1.8-1.4-2.3c-.5-.5-1-.8-1.5-.8c-.2 0-.4 .1-.5 .2c-.2 .1-.4 .4-.6 .8l-1.2-.2c0-3.2 .5-5.6 1.7-6.9c1.1-1.4 2.9-2.1 5.3-2.1Zm61.2-12.9l1.2 .4c0 1.1 .2 1.9 .8 2.2c.4 .3 1.8 .9 4.3 1.6c0 1.3-.2 2.5-.4 3.8c-.1 .6-.4 1.5-.8 2.9l-1.9-.7c0 2.1-.3 4.2-.8 6.3c-.5 2.1-1.3 4.2-2.4 6.2c1 1.8 1.6 2.8 1.7 3.1c.5 .8 .7 1.6 .7 2.2v.9c0 .4-.2 2.3-.4 5.5c-2.1 .9-3.9 1.5-5.5 1.8c-1.6 .3-4 .5-7.2 .5v-8c1.8-.9 3.1-1.7 3.9-2.3c.8-.7 1.8-1.8 3.1-3.3c-2.1-2.6-3.6-4.4-4.5-5.5c-.7-.8-1.7-1.8-2.9-3c-.3 .6-.5 1-.6 1.2c-.2 .2-.3 .3-.4 .3c-.4 0-1.3-.4-2.4-1.1c-1.1-.7-1.9-1.3-2.5-1.8c-.5-.5-1-1.5-1.3-2.9c-.3-1.4-.4-3.2-.4-5.4c0-1 0-1.7 .2-2c.1-.4 .3-.6 .7-.6c.7 0 2.1 1 4.2 3c1.9 1.7 3.5 3.4 4.9 5.1c1.2 1.3 2.2 2.5 3.1 3.8c.8 1 2.1 2.9 3.9 5.6c.8-1.5 1.3-3.5 1.6-5.8c.2-1.5 .3-3.2 .3-5.2c-.7-.3-1.1-.6-1.3-.9c-.3-.2-.4-.6-.4-1.1c0-1.1 .1-2.2 .4-3.3c.2-1.1 .6-2.3 1.1-3.5Z" class="g2_18"/>
<path d="M1224.2 330l6.3 3.4l-3.3 6l-6.2-3.3Zm38.2-.2l5 2.7l-2.8 5.2l-4-2l-2.2 4.4l-4.9-2.8l2.9-5.5l3.9 2.2Zm38.1-9.2c-.8 .9-1.4 1.5-1.8 1.9c-.4 .3-1.1 .9-2.2 1.6c1.4-.1 2.3-.3 2.9-.4c.6-.2 1.4-.6 2.4-1.1Zm-59.1-12.7c2.5 0 4.4 .5 5.8 1.4c1.5 1 2.2 2.4 2.2 4c0 1-.2 1.8-.6 2.7c-.4 .8-1.1 1.9-2.1 3.4c.2 .3 .6 .6 1 .8c.4 .2 .8 .3 1.2 .3h16.3c-.2-1.3-.6-2.3-1.1-3.1c-.3-.5-.9-1.3-1.9-2.4l2.1-6.4c1.4 1.5 2.3 3.1 2.8 4.7c.5 1.7 .7 4.2 .7 7.5v7h-18.9c-1.4 0-2.6-.3-3.7-.9c-1.1-.6-1.9-1.5-2.6-2.8c-1.2 1.5-2.7 2.5-4.5 3.1c-1.3 .4-2.6 .6-4.1 .6h-15.8v.6c0 1.1-.6 2.5-1.9 4.3c-1.2 1.8-2.7 3.4-4.4 4.7c-1.8 1.5-3.4 2.2-4.8 2.2c-1.5 0-3.2-.4-5-1.3c-1.6-.8-4.1-2.3-7.4-4.6l1.1-1.7c1.6 1.1 2.9 1.8 3.9 2.2c1 .3 2 .5 3.2 .5c1.2 0 2.5-.3 3.7-1c1.2-.7 2.9-2 5.1-3.9c2.9-2.7 4.4-4.7 4.4-6.1c0-.8-.3-1.7-.8-2.9c-.7-1.3-1.5-2.4-2.4-3.3l1.5-7.2c1.2 1.2 2.2 2.7 2.8 4.3c.7 1.6 1 3.5 1 5.6v.3h12.3c-.2-1.3-.6-2.3-1.1-3.1c-.2-.5-.9-1.3-1.9-2.4l2.2-6.4c1.3 1.5 2.3 3.1 2.7 4.7c.5 1.5 .7 3.6 .8 6.3v.9h.8c1.5 0 2.6-.1 3.2-.3c.6-.1 1.4-.5 2.4-1c-.5-1.1-1-1.8-1.4-2.3c-.5-.5-1-.8-1.5-.8c-.2 0-.4 .1-.5 .2c-.2 .1-.4 .4-.6 .8l-1.2-.2c0-3.2 .5-5.6 1.7-6.9c1.1-1.4 2.9-2.1 5.3-2.1Zm61.2-12.9l1.2 .4c0 1.1 .2 1.9 .8 2.2c.4 .3 1.8 .9 4.3 1.6c0 1.3-.2 2.5-.4 3.8c-.1 .6-.4 1.5-.8 2.9l-1.9-.7c0 2.1-.3 4.2-.8 6.3c-.5 2.1-1.3 4.2-2.4 6.2c1 1.8 1.6 2.8 1.7 3.1c.5 .8 .7 1.6 .7 2.2v.9c0 .4-.2 2.3-.4 5.5c-2.1 .9-3.9 1.5-5.5 1.8c-1.6 .3-4 .5-7.2 .5v-8c1.8-.9 3.1-1.7 3.9-2.3c.8-.7 1.8-1.8 3.1-3.3c-2.1-2.6-3.6-4.4-4.5-5.5c-.7-.8-1.7-1.8-2.9-3c-.3 .6-.5 1-.6 1.2c-.2 .2-.3 .3-.4 .3c-.4 0-1.3-.4-2.4-1.1c-1.1-.7-1.9-1.3-2.5-1.8c-.5-.5-1-1.5-1.3-2.9c-.3-1.4-.4-3.2-.4-5.4c0-1 0-1.7 .2-2c.1-.4 .3-.6 .7-.6c.7 0 2.1 1 4.2 3c1.9 1.7 3.5 3.4 4.9 5.1c1.2 1.3 2.2 2.5 3.1 3.8c.8 1 2.1 2.9 3.9 5.6c.8-1.5 1.3-3.5 1.6-5.8c.2-1.5 .3-3.2 .3-5.2c-.7-.3-1.1-.6-1.3-.9c-.3-.2-.4-.6-.4-1.1c0-1.1 .1-2.2 .4-3.3c.2-1.1 .6-2.3 1.1-3.5Z" class="g1_18"/>
<path fill-rule="evenodd" d="M953.6 330.3l6.2 3.3l-3.2 6l-6.3-3.2Zm-136.1-.5l4.9 2.7l-2.7 5.2l-4-2l-2.3 4.4l-4.9-2.8l3-5.5l3.8 2.2Zm-42.3-8.4c.9 0 1.7 .4 2.3 1c.7 .7 1 1.5 1 2.4c0 .9-.4 1.7-1 2.3c-.7 .7-1.5 1-2.4 1c-.9 0-1.6-.3-2.3-1c-.6-.6-.9-1.4-.9-2.3c0-.9 .3-1.7 .9-2.4c.7-.6 1.5-1 2.4-1Zm212.2-.8c-.8 .9-1.4 1.5-1.8 1.9c-.4 .3-1.2 .9-2.2 1.6c1.3-.1 2.3-.3 2.9-.4c.6-.2 1.4-.6 2.4-1.1Zm43.7-5.6c-1.1 1.8-1.7 3.3-1.7 4.5c0 .5 .2 1 .7 1.5c.5 .4 1 .6 1.7 .6c.9 0 1.9-.2 3.1-.7c1.2-.4 1.7-.7 1.7-1c0-.4-.6-1.1-1.8-2.2c-1.3-1.1-2.5-2-3.7-2.7Zm-116-5.6c-.5 .2-1 .5-1.3 .6c-1 .5-1.8 1-2.4 1.5c-.4 .3-.8 .7-1.1 1c-.3 .4-.5 .6-.5 .8c0 .3 .3 .5 1 .6c.6 .2 1.2 .3 1.8 .3c.4 0 .8-.2 1.2-.4c.5-.2 1.1-.6 1.9-1.2Zm-118.2 0c-.6 .2-1.1 .5-1.4 .6c-.9 .5-1.7 1-2.3 1.5c-.5 .3-.8 .7-1.1 1c-.4 .4-.5 .6-.5 .8c0 .3 .3 .5 .9 .6c.6 .2 1.2 .3 1.9 .3c.4 0 .8-.2 1.2-.4c.4-.2 1-.6 1.8-1.2Zm234-2.3l2.6 1.6c1.1 .7 2.2 1.4 3.2 2.2c1.5 1.1 2.5 2.2 3.1 3.2c.5 .9 .8 2.2 .8 3.6c0 1.1-.1 2.2-.2 3.3c-.2 1.1-.4 2-.7 2.7c-.5 1.3-1.7 2.5-3.7 3.6c-1.8 .9-3.5 1.4-5.1 1.4c-1.5 0-2.6-.5-3.4-1.4c-.8-1-1.2-2.3-1.2-3.9c0-1.5 .2-2.9 .6-4.3c.4-1.4 1.2-3.2 2.3-5.4l-1-.6c.3-.8 .7-1.8 1.2-3c.6-1.2 1-2.2 1.5-3Zm131-2.9c2 0 3.9 .7 5.7 2c1.6 1.2 2.9 2.7 3.6 4.4l-1.1 1c-1.4-.6-2.5-.9-3.4-1.1c-.8-.1-1.8-.2-3-.2c-2.3 0-4.2 .2-5.8 .5c-2.1 .5-3.1 1.1-3.1 2c0 1.2 2.5 3.2 7.5 6.1l13.6-3.9l-3 7.6c-4.8 1.5-8.8 2.6-12 3.4c-2.7 .7-5 1.2-6.9 1.5c-1.4 .2-2.7 .3-4.1 .3h-.6v.4c-.1 1.7-.3 3.1-.7 4.2c-.4 1.5-1.2 2.7-2.3 3.6c-1.1 .9-2.7 1.7-4.9 2.3c-2.1 .5-4.3 .8-6.5 .8c-4.4 0-7.7-.8-10.1-2.3c-2.3-1.6-3.5-3.9-3.5-6.8c0-2.5 .4-4.8 1.1-6.8c.8-2.3 2.4-5.3 4.8-8.9l1.7 1.1c-1.8 3.1-3 5.3-3.5 6.6c-.6 1.4-.8 2.8-.8 4.2c0 1.9 1 3.4 3 4.6c2 1.2 4.6 1.8 7.9 1.8c3.2 0 5.9-.6 8.1-1.8c2.2-1.3 3.3-2.8 3.3-4.6c0-1.1-.1-2.2-.5-3.3c-.4-1.1-1.2-2.8-2.5-5.2l2.4-7.3c1.2 2.3 2 3.9 2.3 4.8c.4 1.3 .7 3 .8 5v.3h.9c.6 0 .9 0 1.2-.1c.5 0 1.1-.1 1.6-.1c-.9-1.4-1.5-2.4-1.8-3.3c-.3-.8-.5-1.8-.5-2.8c0-2.7 1.1-5 3.3-7c2.2-2 4.8-3 7.8-3Zm-27.6-2.2l6.2 3.3l-3.2 6l-6.3-3.2Zm-53.2-2.7l4.9 2.7l-3 5.5l-3.8-2.2l-2.1 4.3l-5-2.7l2.8-5.3l3.9 2Zm-164.5-1.8l2.6 16.7c.4 2.6 1 4.4 1.6 5.4c.5 .6 1 .9 1.8 .9h15.9c-.2-1.3-.6-2.3-1.1-3.1c-.3-.5-.9-1.3-1.9-2.4l2.1-6.4c1.4 1.5 2.3 3.1 2.8 4.7c.4 1.5 .7 3.6 .7 6.3v.9h17.2c-2.2-2.3-4.2-3.9-6.1-4.9c-1.6-.8-3.2-1.3-4.7-1.3c-.5 0-.9 0-1.3 .1c-.4 0-.9 .1-1.7 .3c1-2.3 2.1-3.9 3.3-5c1.2-1.1 2.6-1.6 4.1-1.6c1.2 0 2.3 .3 3.4 .8c1.1 .6 2.4 1.5 3.7 2.8c1.1 1 2.6 2.6 4.6 4.7c1.3 1.5 2.4 2.5 3.1 2.9c.7 .5 1.7 .9 3.1 1.2v7.3H922.6c-.6 0-1.2-.2-1.8-.4c-1-.5-1.9-1.5-2.6-2.9c-1-1.9-1.6-4.5-1.9-7.8c-1.2 1.5-2.2 2.6-2.8 3.2c-1 .9-1.8 1.4-2.5 1.4c-.4 0-.8-.1-1.3-.2l-3.3-.6c-1.4-.3-2.2-.5-2.6-.6c-.3-.2-.4-.4-.4-.7c0-.5 .6-2 1.8-4.6c1.3-2.5 2.2-4.1 2.7-4.7c.5-.5 1.3-1.2 2.4-1.9c.7-.5 1.7-1.1 2.9-1.8l1.4-.9c0-.2-.1-.5-.1-.7c0-.3 0-.5 0-.8c0-.6 .1-1.5 .5-2.5c.3-1 .8-2.3 1.6-3.8Zm-141-1c2.2 0 4 .6 5.5 1.8c1.5 1.3 2.3 2.9 2.3 4.9c0 1.1-.4 2.1-1 2.9c-.7 1-1.7 1.4-2.8 1.4c-.9 0-1.7-.3-2.3-.9c-.5-.6-.9-1.2-.9-2c0-1.2 .6-2.2 1.5-2.8c1-.6 1.5-1.1 1.5-1.5c0-.6-.3-1.1-.8-1.5c-.6-.3-1.4-.5-2.3-.5c-1.2 0-2.1 .3-2.9 1c-.7 .6-1.1 1.4-1.1 2.4c0 .8 .4 2 1.2 3.3c1.1 2.1 1.8 3.4 2 4.1c.8 1.8 1.2 3.9 1.2 6.1c0 1.1-.1 2.5-.3 3.9h-1.6c0-.3 0-.6 0-.8l.1-1.3c0-1.1-.6-2.1-2-3.3c-2.2-2-3.4-3.2-3.7-3.4c-1.3-1.6-2-3.4-2-5.4c0-2.4 .8-4.4 2.4-6c1.6-1.6 3.6-2.4 6-2.4Zm82.4-.2l5 2.8l-2.8 5.2l-4-2l-2.2 4.3l-4.9-2.7l2.9-5.5l3.8 2.2Zm240-1.1l6.3 3.3l-3.2 6l-6.3-3.2Zm-51.6 0c1 1.4 1.8 2.8 2.2 4.2c.5 1.6 .7 3.7 .7 6.2v5.3c0 3.8 .3 6.4 .8 7.8c.3 1.2 1 1.8 1.8 1.8h5.7c1.9 0 3.4-.6 4.7-1.6c1.6-1.4 2.4-3.5 2.4-6.3l1.8 .3c0 .5-.1 1.2-.1 1.9c0 .8-.1 1.6-.1 2.5c0 .9 .4 1.6 1 2.3c.6 .6 1.3 .9 2.1 .9h3.3c2.2 0 3.8-.3 4.7-.9c1.1-.8 1.7-2.1 1.7-4.2c0-.4 .1-.8 .4-1.1c.2-.2 .5-.5 1-.9l1-.8c.1 .3 .1 .8 .1 1.4c0 .6 0 .9 0 1.1c0 1-.1 2.3-.4 3.9c.7 .4 1.4 .6 2.2 .9c.8 .2 1.7 .4 2.6 .5c0-.6-.2-1.4-.6-2.3c-.5-1-.7-1.7-.7-2c0-.5 .1-.8 .2-1.1c0-.1 .2-.4 .6-.8l2.2-3.1c.5 1.1 .9 2.1 1.1 3.1c.2 .9 .3 2 .3 3.4v2.9h12.3c-.2-1.3-.5-2.3-1-3.1c-.3-.5-.9-1.3-1.9-2.4l2.1-6.4c1.4 1.5 2.3 3.1 2.8 4.7c.5 1.7 .7 4.2 .7 7.5v7h-16.8v-.1h-1c-.8-.1-1.5-.2-2.2-.4c-1.3-.2-2.6-.7-3.9-1.3c-1.1 .7-2 1.2-2.8 1.4c-.8 .3-2 .4-3.7 .4h-4.3c-1.2 0-2.2-.3-2.9-1c-.7-.6-1.3-1.6-1.9-3.1c-1 1.5-2.1 2.6-3.3 3.2c-1 .6-2.3 .9-3.7 .9h-5.7c-2.1 0-3.6-.9-4.5-2.6c-1-1.9-1.6-5.1-1.6-9.6V308c0-1.8-.2-3.1-.7-4.1c-.2-.5-.8-1.1-1.6-2Zm-111.4 0l6.3 3.3l-3.2 6l-6.3-3.2Zm68.4 0l1.6 9.5c.6 3.6 1 6.7 1.3 9.4c.2 2 .2 4 .2 5.9c0 1.6-.2 3-.5 4.3c-.4 1.3-1.1 3.1-2.2 5.3l-1.6-.6c.4-2.3 .6-4.2 .6-5.6c0-1.1-.1-2.7-.2-4.8c-.2-2.1-.4-4.2-.7-6.3c-.3-2.1-.7-4.5-1.3-7.4c-.2-1-.3-1.7-.3-2c0-.6 .2-1.5 .8-2.9c.5-1.3 1.3-2.9 2.3-4.8Zm-120.4 0l1.6 9.5c.6 3.6 1 6.7 1.2 9.4c.2 2 .3 4 .3 5.9c0 1.6-.2 3-.6 4.3c-.4 1.3-1.1 3.1-2.2 5.3l-1.6-.6c.5-2.3 .7-4.2 .7-5.6c0-1.1-.1-2.7-.3-4.8c-.2-2.1-.4-4.2-.7-6.3c-.2-2.1-.7-4.5-1.3-7.4c-.2-1-.3-1.7-.3-2c0-.6 .3-1.5 .8-2.9c.6-1.3 1.4-2.9 2.4-4.8Zm106.5-.2l1.1 .4c0 1.1 .3 1.9 .8 2.2c.4 .3 1.9 .9 4.3 1.6c0 1.3-.1 2.5-.4 3.8c-.1 .6-.3 1.5-.7 2.9l-1.9-.7c0 2.1-.3 4.2-.8 6.3c-.5 2.1-1.3 4.2-2.4 6.2c1 1.8 1.6 2.8 1.7 3.1c.4 .8 .6 1.6 .6 2.2v.9c0 .4-.1 2.3-.4 5.5c-2 .9-3.8 1.5-5.4 1.8c-1.6 .3-4 .5-7.2 .5v-8c1.8-.9 3.1-1.7 3.9-2.3c.8-.7 1.8-1.8 3-3.3c-2-2.6-3.5-4.4-4.4-5.5c-.8-.8-1.8-1.8-2.9-3c-.3 .6-.5 1-.7 1.2c-.1 .2-.2 .3-.4 .3c-.4 0-1.2-.4-2.4-1.1c-1-.7-1.8-1.3-2.4-1.8c-.6-.5-1-1.5-1.3-2.9c-.3-1.4-.4-3.2-.4-5.4c0-1 0-1.7 .1-2c.1-.4 .4-.6 .8-.6c.7 0 2.1 1 4.2 3c1.8 1.7 3.5 3.4 4.9 5.1c1.1 1.3 2.1 2.5 3.1 3.8c.8 1 2.1 2.9 3.8 5.6c.8-1.5 1.4-3.5 1.7-5.8c.2-1.5 .2-3.2 .2-5.2c-.6-.3-1-.6-1.3-.9c-.2-.2-.3-.6-.3-1.1c0-1.1 .1-2.2 .3-3.3c.3-1.1 .7-2.3 1.2-3.5Zm44.9-1.3l4.9 2.7l-3 5.5l-3.8-2.2l-2.1 4.3l-5-2.8l2.8-5.2l3.9 2Zm41.4-.6l5 2.6l-2.7 5.5l-5.1-2.6ZM870.6 293l1.2 .7c0 .1 0 .4-.1 .9c0 .5 .4 1.1 1.2 1.7c.6 .5 1.7 1 3.1 1.6c-.1 1.2-.4 2.3-.7 3.4c-.3 1.1-.7 2.1-1.1 2.9l-.9-.4l2.9 16.7v7.3H844.8c-2.1 0-3.6-.9-4.6-2.6c-1-1.9-1.5-5.1-1.5-9.6V308c0-1.8-.3-3.1-.8-4.1c-.2-.5-.7-1.1-1.6-2l2.9-6.7c1.1 1.4 1.8 2.8 2.2 4.2c.5 1.6 .7 3.7 .7 6.2v5.3c0 3.8 .3 6.4 .8 7.8c.4 1.2 1 1.8 1.9 1.8h15.9c-.2-1.3-.5-2.3-1.1-3.1c-.2-.5-.9-1.3-1.8-2.4l2.1-6.4c1.4 1.5 2.3 3.1 2.8 4.7c.4 1.5 .6 3.6 .7 6.3v.9H873l-3.3-18.3l-1.7-1.1c0-1.1 .2-2.1 .5-3.2c.4-1.4 1.1-3 2.1-4.9Zm-40.5 0l1.2 .7c0 .1 0 .4-.1 .9c0 .5 .4 1.1 1.1 1.7c.7 .5 1.8 1 3.2 1.6c-.2 1.2-.4 2.3-.7 3.4c-.3 1.1-.7 2.1-1.1 2.9l-.9-.4l2.9 16.7v7.3H804.3c-.6 0-1.2-.2-1.7-.4c-1.1-.5-2-1.5-2.7-2.9c-.9-1.9-1.6-4.5-1.8-7.8c-1.3 1.5-2.2 2.6-2.9 3.2c-1 .9-1.8 1.4-2.5 1.4c-.3 0-.7-.1-1.3-.2l-3.2-.6c-1.4-.3-2.3-.5-2.6-.6c-.3-.2-.5-.4-.5-.7c0-.5 .6-2 1.9-4.6c1.2-2.5 2.1-4.1 2.7-4.7c.4-.5 1.2-1.2 2.4-1.9c.6-.5 1.6-1.1 2.9-1.8l1.4-.9c-.1-.2-.1-.5-.1-.7c-.1-.3-.1-.5-.1-.8c0-.6 .2-1.5 .5-2.5c.3-1 .9-2.3 1.7-3.8l2.6 16.7c.4 2.6 .9 4.4 1.6 5.4c.4 .6 1 .9 1.7 .9h15.9c-.2-1.3-.6-2.3-1.1-3.1c-.2-.5-.9-1.3-1.9-2.4l2.2-6.4c1.3 1.5 2.3 3.1 2.7 4.7c.5 1.5 .7 3.6 .8 6.3v.9h9.6l-3.3-18.3l-1.7-1.1c0-1.1 .2-2.1 .5-3.2c.4-1.4 1.1-3 2.1-4.9Zm85-5.4l4.8 2.5l-2.9 5l-3.9-2.1l-2.1 4.2l-5-2.7l2.8-4.8l4 2Zm-118.3 0l4.9 2.5l-3 5l-3.8-2.1l-2.2 4.2l-4.9-2.7l2.7-4.8l4 2Zm179.9-.1c.3 0 .6 .1 .8 .3c.2 .2 .3 .5 .3 .9c0 .3 0 .5-.1 .7c-.1 .2-.3 .6-.5 1c-.9-.5-1.5-.7-1.8-.7c-.4 0-.7 .1-1 .2c-.2 .1-.4 .3-.6 .5c0 .2 .4 .6 1.3 1c.9 .5 1.5 .8 1.9 .8c.2 0 .8-.2 1.9-.4c-.2 .5-.4 .9-.7 1.1c-.2 .2-.5 .4-.9 .5l-5.8 1.8c.3-.6 .6-1.1 .9-1.3c.3-.3 .8-.5 1.5-.7c-.5-.3-.9-.6-1.1-.9c-.2-.3-.4-.5-.4-.8c0-.2 .1-.5 .3-.8c.1-.3 .3-.6 .5-.9c1.2-1.5 2.3-2.3 3.5-2.3Zm71.1 0c.4 0 .6 .1 .8 .3c.3 .2 .4 .5 .4 .9c0 .3-.1 .5-.2 .7c-.1 .2-.2 .5-.5 .9c-.9-.4-1.5-.6-1.8-.6c-.3 0-.6 0-1 .2c-.2 .1-.4 .3-.5 .4c0 .3 .4 .6 1.2 1.1c.9 .5 1.5 .7 1.9 .7c.2 0 .9-.1 1.9-.4c-.2 .6-.4 1-.6 1.2c-.2 .2-.5 .4-1 .5l-5.8 1.8c.4-.6 .7-1.1 1-1.3c.3-.2 .7-.5 1.4-.7c-.5-.3-.9-.6-1.1-.9c-.2-.3-.3-.6-.3-.8c0-.3 .1-.5 .2-.8c.1-.3 .3-.6 .6-.9c1.1-1.6 2.3-2.3 3.4-2.3Z" class="g0_18"/>
<path d="M953.6 330.3l6.2 3.3l-3.2 6l-6.3-3.2Zm-136.1-.5l4.9 2.7l-2.7 5.2l-4-2l-2.3 4.4l-4.9-2.8l3-5.5l3.8 2.2Zm-42.3-8.4c.9 0 1.7 .4 2.3 1c.7 .7 1 1.5 1 2.4c0 .9-.4 1.7-1 2.3c-.7 .7-1.5 1-2.4 1c-.9 0-1.6-.3-2.3-1c-.6-.6-.9-1.4-.9-2.3c0-.9 .3-1.7 .9-2.4c.7-.6 1.5-1 2.4-1Zm212.2-.8c-.8 .9-1.4 1.5-1.8 1.9c-.4 .3-1.2 .9-2.2 1.6c1.3-.1 2.3-.3 2.9-.4c.6-.2 1.4-.6 2.4-1.1Zm43.7-5.6c-1.1 1.8-1.7 3.3-1.7 4.5c0 .5 .2 1 .7 1.5c.5 .4 1 .6 1.7 .6c.9 0 1.9-.2 3.1-.7c1.2-.4 1.7-.7 1.7-1c0-.4-.6-1.1-1.8-2.2c-1.3-1.1-2.5-2-3.7-2.7Zm-116-5.6c-.5 .2-1 .5-1.3 .6c-1 .5-1.8 1-2.4 1.5c-.4 .3-.8 .7-1.1 1c-.3 .4-.5 .6-.5 .8c0 .3 .3 .5 1 .6c.6 .2 1.2 .3 1.8 .3c.4 0 .8-.2 1.2-.4c.5-.2 1.1-.6 1.9-1.2Zm-118.2 0c-.6 .2-1.1 .5-1.4 .6c-.9 .5-1.7 1-2.3 1.5c-.5 .3-.8 .7-1.1 1c-.4 .4-.5 .6-.5 .8c0 .3 .3 .5 .9 .6c.6 .2 1.2 .3 1.9 .3c.4 0 .8-.2 1.2-.4c.4-.2 1-.6 1.8-1.2Zm234-2.3l2.6 1.6c1.1 .7 2.2 1.4 3.2 2.2c1.5 1.1 2.5 2.2 3.1 3.2c.5 .9 .8 2.2 .8 3.6c0 1.1-.1 2.2-.2 3.3c-.2 1.1-.4 2-.7 2.7c-.5 1.3-1.7 2.5-3.7 3.6c-1.8 .9-3.5 1.4-5.1 1.4c-1.5 0-2.6-.5-3.4-1.4c-.8-1-1.2-2.3-1.2-3.9c0-1.5 .2-2.9 .6-4.3c.4-1.4 1.2-3.2 2.3-5.4l-1-.6c.3-.8 .7-1.8 1.2-3c.6-1.2 1-2.2 1.5-3Zm131-2.9c2 0 3.9 .7 5.7 2c1.6 1.2 2.9 2.7 3.6 4.4l-1.1 1c-1.4-.6-2.5-.9-3.4-1.1c-.8-.1-1.8-.2-3-.2c-2.3 0-4.2 .2-5.8 .5c-2.1 .5-3.1 1.1-3.1 2c0 1.2 2.5 3.2 7.5 6.1l13.6-3.9l-3 7.6c-4.8 1.5-8.8 2.6-12 3.4c-2.7 .7-5 1.2-6.9 1.5c-1.4 .2-2.7 .3-4.1 .3h-.6v.4c-.1 1.7-.3 3.1-.7 4.2c-.4 1.5-1.2 2.7-2.3 3.6c-1.1 .9-2.7 1.7-4.9 2.3c-2.1 .5-4.3 .8-6.5 .8c-4.4 0-7.7-.8-10.1-2.3c-2.3-1.6-3.5-3.9-3.5-6.8c0-2.5 .4-4.8 1.1-6.8c.8-2.3 2.4-5.3 4.8-8.9l1.7 1.1c-1.8 3.1-3 5.3-3.5 6.6c-.6 1.4-.8 2.8-.8 4.2c0 1.9 1 3.4 3 4.6c2 1.2 4.6 1.8 7.9 1.8c3.2 0 5.9-.6 8.1-1.8c2.2-1.3 3.3-2.8 3.3-4.6c0-1.1-.1-2.2-.5-3.3c-.4-1.1-1.2-2.8-2.5-5.2l2.4-7.3c1.2 2.3 2 3.9 2.3 4.8c.4 1.3 .7 3 .8 5v.3h.9c.6 0 .9 0 1.2-.1c.5 0 1.1-.1 1.6-.1c-.9-1.4-1.5-2.4-1.8-3.3c-.3-.8-.5-1.8-.5-2.8c0-2.7 1.1-5 3.3-7c2.2-2 4.8-3 7.8-3Zm-27.6-2.2l6.2 3.3l-3.2 6l-6.3-3.2Zm-53.2-2.7l4.9 2.7l-3 5.5l-3.8-2.2l-2.1 4.3l-5-2.7l2.8-5.3l3.9 2Zm-164.5-1.8l2.6 16.7c.4 2.6 1 4.4 1.6 5.4c.5 .6 1 .9 1.8 .9h15.9c-.2-1.3-.6-2.3-1.1-3.1c-.3-.5-.9-1.3-1.9-2.4l2.1-6.4c1.4 1.5 2.3 3.1 2.8 4.7c.4 1.5 .7 3.6 .7 6.3v.9h17.2c-2.2-2.3-4.2-3.9-6.1-4.9c-1.6-.8-3.2-1.3-4.7-1.3c-.5 0-.9 0-1.3 .1c-.4 0-.9 .1-1.7 .3c1-2.3 2.1-3.9 3.3-5c1.2-1.1 2.6-1.6 4.1-1.6c1.2 0 2.3 .3 3.4 .8c1.1 .6 2.4 1.5 3.7 2.8c1.1 1 2.6 2.6 4.6 4.7c1.3 1.5 2.4 2.5 3.1 2.9c.7 .5 1.7 .9 3.1 1.2v7.3H922.6c-.6 0-1.2-.2-1.8-.4c-1-.5-1.9-1.5-2.6-2.9c-1-1.9-1.6-4.5-1.9-7.8c-1.2 1.5-2.2 2.6-2.8 3.2c-1 .9-1.8 1.4-2.5 1.4c-.4 0-.8-.1-1.3-.2l-3.3-.6c-1.4-.3-2.2-.5-2.6-.6c-.3-.2-.4-.4-.4-.7c0-.5 .6-2 1.8-4.6c1.3-2.5 2.2-4.1 2.7-4.7c.5-.5 1.3-1.2 2.4-1.9c.7-.5 1.7-1.1 2.9-1.8l1.4-.9c0-.2-.1-.5-.1-.7c0-.3 0-.5 0-.8c0-.6 .1-1.5 .5-2.5c.3-1 .8-2.3 1.6-3.8Zm-141-1c2.2 0 4 .6 5.5 1.8c1.5 1.3 2.3 2.9 2.3 4.9c0 1.1-.4 2.1-1 2.9c-.7 1-1.7 1.4-2.8 1.4c-.9 0-1.7-.3-2.3-.9c-.5-.6-.9-1.2-.9-2c0-1.2 .6-2.2 1.5-2.8c1-.6 1.5-1.1 1.5-1.5c0-.6-.3-1.1-.8-1.5c-.6-.3-1.4-.5-2.3-.5c-1.2 0-2.1 .3-2.9 1c-.7 .6-1.1 1.4-1.1 2.4c0 .8 .4 2 1.2 3.3c1.1 2.1 1.8 3.4 2 4.1c.8 1.8 1.2 3.9 1.2 6.1c0 1.1-.1 2.5-.3 3.9h-1.6c0-.3 0-.6 0-.8l.1-1.3c0-1.1-.6-2.1-2-3.3c-2.2-2-3.4-3.2-3.7-3.4c-1.3-1.6-2-3.4-2-5.4c0-2.4 .8-4.4 2.4-6c1.6-1.6 3.6-2.4 6-2.4Zm82.4-.2l5 2.8l-2.8 5.2l-4-2l-2.2 4.3l-4.9-2.7l2.9-5.5l3.8 2.2Zm240-1.1l6.3 3.3l-3.2 6l-6.3-3.2Zm-51.6 0c1 1.4 1.8 2.8 2.2 4.2c.5 1.6 .7 3.7 .7 6.2v5.3c0 3.8 .3 6.4 .8 7.8c.3 1.2 1 1.8 1.8 1.8h5.7c1.9 0 3.4-.6 4.7-1.6c1.6-1.4 2.4-3.5 2.4-6.3l1.8 .3c0 .5-.1 1.2-.1 1.9c0 .8-.1 1.6-.1 2.5c0 .9 .4 1.6 1 2.3c.6 .6 1.3 .9 2.1 .9h3.3c2.2 0 3.8-.3 4.7-.9c1.1-.8 1.7-2.1 1.7-4.2c0-.4 .1-.8 .4-1.1c.2-.2 .5-.5 1-.9l1-.8c.1 .3 .1 .8 .1 1.4c0 .6 0 .9 0 1.1c0 1-.1 2.3-.4 3.9c.7 .4 1.4 .6 2.2 .9c.8 .2 1.7 .4 2.6 .5c0-.6-.2-1.4-.6-2.3c-.5-1-.7-1.7-.7-2c0-.5 .1-.8 .2-1.1c0-.1 .2-.4 .6-.8l2.2-3.1c.5 1.1 .9 2.1 1.1 3.1c.2 .9 .3 2 .3 3.4v2.9h12.3c-.2-1.3-.5-2.3-1-3.1c-.3-.5-.9-1.3-1.9-2.4l2.1-6.4c1.4 1.5 2.3 3.1 2.8 4.7c.5 1.7 .7 4.2 .7 7.5v7h-16.8v-.1h-1c-.8-.1-1.5-.2-2.2-.4c-1.3-.2-2.6-.7-3.9-1.3c-1.1 .7-2 1.2-2.8 1.4c-.8 .3-2 .4-3.7 .4h-4.3c-1.2 0-2.2-.3-2.9-1c-.7-.6-1.3-1.6-1.9-3.1c-1 1.5-2.1 2.6-3.3 3.2c-1 .6-2.3 .9-3.7 .9h-5.7c-2.1 0-3.6-.9-4.5-2.6c-1-1.9-1.6-5.1-1.6-9.6V308c0-1.8-.2-3.1-.7-4.1c-.2-.5-.8-1.1-1.6-2Zm-111.4 0l6.3 3.3l-3.2 6l-6.3-3.2Zm68.4 0l1.6 9.5c.6 3.6 1 6.7 1.3 9.4c.2 2 .2 4 .2 5.9c0 1.6-.2 3-.5 4.3c-.4 1.3-1.1 3.1-2.2 5.3l-1.6-.6c.4-2.3 .6-4.2 .6-5.6c0-1.1-.1-2.7-.2-4.8c-.2-2.1-.4-4.2-.7-6.3c-.3-2.1-.7-4.5-1.3-7.4c-.2-1-.3-1.7-.3-2c0-.6 .2-1.5 .8-2.9c.5-1.3 1.3-2.9 2.3-4.8Zm-120.4 0l1.6 9.5c.6 3.6 1 6.7 1.2 9.4c.2 2 .3 4 .3 5.9c0 1.6-.2 3-.6 4.3c-.4 1.3-1.1 3.1-2.2 5.3l-1.6-.6c.5-2.3 .7-4.2 .7-5.6c0-1.1-.1-2.7-.3-4.8c-.2-2.1-.4-4.2-.7-6.3c-.2-2.1-.7-4.5-1.3-7.4c-.2-1-.3-1.7-.3-2c0-.6 .3-1.5 .8-2.9c.6-1.3 1.4-2.9 2.4-4.8Zm106.5-.2l1.1 .4c0 1.1 .3 1.9 .8 2.2c.4 .3 1.9 .9 4.3 1.6c0 1.3-.1 2.5-.4 3.8c-.1 .6-.3 1.5-.7 2.9l-1.9-.7c0 2.1-.3 4.2-.8 6.3c-.5 2.1-1.3 4.2-2.4 6.2c1 1.8 1.6 2.8 1.7 3.1c.4 .8 .6 1.6 .6 2.2v.9c0 .4-.1 2.3-.4 5.5c-2 .9-3.8 1.5-5.4 1.8c-1.6 .3-4 .5-7.2 .5v-8c1.8-.9 3.1-1.7 3.9-2.3c.8-.7 1.8-1.8 3-3.3c-2-2.6-3.5-4.4-4.4-5.5c-.8-.8-1.8-1.8-2.9-3c-.3 .6-.5 1-.7 1.2c-.1 .2-.2 .3-.4 .3c-.4 0-1.2-.4-2.4-1.1c-1-.7-1.8-1.3-2.4-1.8c-.6-.5-1-1.5-1.3-2.9c-.3-1.4-.4-3.2-.4-5.4c0-1 0-1.7 .1-2c.1-.4 .4-.6 .8-.6c.7 0 2.1 1 4.2 3c1.8 1.7 3.5 3.4 4.9 5.1c1.1 1.3 2.1 2.5 3.1 3.8c.8 1 2.1 2.9 3.8 5.6c.8-1.5 1.4-3.5 1.7-5.8c.2-1.5 .2-3.2 .2-5.2c-.6-.3-1-.6-1.3-.9c-.2-.2-.3-.6-.3-1.1c0-1.1 .1-2.2 .3-3.3c.3-1.1 .7-2.3 1.2-3.5Zm44.9-1.3l4.9 2.7l-3 5.5l-3.8-2.2l-2.1 4.3l-5-2.8l2.8-5.2l3.9 2Zm41.4-.6l5 2.6l-2.7 5.5l-5.1-2.6ZM870.6 293l1.2 .7c0 .1 0 .4-.1 .9c0 .5 .4 1.1 1.2 1.7c.6 .5 1.7 1 3.1 1.6c-.1 1.2-.4 2.3-.7 3.4c-.3 1.1-.7 2.1-1.1 2.9l-.9-.4l2.9 16.7v7.3H844.8c-2.1 0-3.6-.9-4.6-2.6c-1-1.9-1.5-5.1-1.5-9.6V308c0-1.8-.3-3.1-.8-4.1c-.2-.5-.7-1.1-1.6-2l2.9-6.7c1.1 1.4 1.8 2.8 2.2 4.2c.5 1.6 .7 3.7 .7 6.2v5.3c0 3.8 .3 6.4 .8 7.8c.4 1.2 1 1.8 1.9 1.8h15.9c-.2-1.3-.5-2.3-1.1-3.1c-.2-.5-.9-1.3-1.8-2.4l2.1-6.4c1.4 1.5 2.3 3.1 2.8 4.7c.4 1.5 .6 3.6 .7 6.3v.9H873l-3.3-18.3l-1.7-1.1c0-1.1 .2-2.1 .5-3.2c.4-1.4 1.1-3 2.1-4.9Zm-40.5 0l1.2 .7c0 .1 0 .4-.1 .9c0 .5 .4 1.1 1.1 1.7c.7 .5 1.8 1 3.2 1.6c-.2 1.2-.4 2.3-.7 3.4c-.3 1.1-.7 2.1-1.1 2.9l-.9-.4l2.9 16.7v7.3H804.3c-.6 0-1.2-.2-1.7-.4c-1.1-.5-2-1.5-2.7-2.9c-.9-1.9-1.6-4.5-1.8-7.8c-1.3 1.5-2.2 2.6-2.9 3.2c-1 .9-1.8 1.4-2.5 1.4c-.3 0-.7-.1-1.3-.2l-3.2-.6c-1.4-.3-2.3-.5-2.6-.6c-.3-.2-.5-.4-.5-.7c0-.5 .6-2 1.9-4.6c1.2-2.5 2.1-4.1 2.7-4.7c.4-.5 1.2-1.2 2.4-1.9c.6-.5 1.6-1.1 2.9-1.8l1.4-.9c-.1-.2-.1-.5-.1-.7c-.1-.3-.1-.5-.1-.8c0-.6 .2-1.5 .5-2.5c.3-1 .9-2.3 1.7-3.8l2.6 16.7c.4 2.6 .9 4.4 1.6 5.4c.4 .6 1 .9 1.7 .9h15.9c-.2-1.3-.6-2.3-1.1-3.1c-.2-.5-.9-1.3-1.9-2.4l2.2-6.4c1.3 1.5 2.3 3.1 2.7 4.7c.5 1.5 .7 3.6 .8 6.3v.9h9.6l-3.3-18.3l-1.7-1.1c0-1.1 .2-2.1 .5-3.2c.4-1.4 1.1-3 2.1-4.9Zm85-5.4l4.8 2.5l-2.9 5l-3.9-2.1l-2.1 4.2l-5-2.7l2.8-4.8l4 2Zm-118.3 0l4.9 2.5l-3 5l-3.8-2.1l-2.2 4.2l-4.9-2.7l2.7-4.8l4 2Zm179.9-.1c.3 0 .6 .1 .8 .3c.2 .2 .3 .5 .3 .9c0 .3 0 .5-.1 .7c-.1 .2-.3 .6-.5 1c-.9-.5-1.5-.7-1.8-.7c-.4 0-.7 .1-1 .2c-.2 .1-.4 .3-.6 .5c0 .2 .4 .6 1.3 1c.9 .5 1.5 .8 1.9 .8c.2 0 .8-.2 1.9-.4c-.2 .5-.4 .9-.7 1.1c-.2 .2-.5 .4-.9 .5l-5.8 1.8c.3-.6 .6-1.1 .9-1.3c.3-.3 .8-.5 1.5-.7c-.5-.3-.9-.6-1.1-.9c-.2-.3-.4-.5-.4-.8c0-.2 .1-.5 .3-.8c.1-.3 .3-.6 .5-.9c1.2-1.5 2.3-2.3 3.5-2.3Zm71.1 0c.4 0 .6 .1 .8 .3c.3 .2 .4 .5 .4 .9c0 .3-.1 .5-.2 .7c-.1 .2-.2 .5-.5 .9c-.9-.4-1.5-.6-1.8-.6c-.3 0-.6 0-1 .2c-.2 .1-.4 .3-.5 .4c0 .3 .4 .6 1.2 1.1c.9 .5 1.5 .7 1.9 .7c.2 0 .9-.1 1.9-.4c-.2 .6-.4 1-.6 1.2c-.2 .2-.5 .4-1 .5l-5.8 1.8c.4-.6 .7-1.1 1-1.3c.3-.2 .7-.5 1.4-.7c-.5-.3-.9-.6-1.1-.9c-.2-.3-.3-.6-.3-.8c0-.3 .1-.5 .2-.8c.1-.3 .3-.6 .6-.9c1.1-1.6 2.3-2.3 3.4-2.3Z" class="g1_18"/>
<image clip-path="url(#c1_18)" preserveAspectRatio="none" x="1347" y="645" width="107" height="72" href="img/2.jpg"/>
<image clip-path="url(#c2_18)" preserveAspectRatio="none" x="1357" y="740" width="102" height="71" href="img/3.jpg"/>
<image clip-path="url(#c3_18)" preserveAspectRatio="none" x="498" y="637" width="102" height="80" href="img/4.jpg"/>
<image clip-path="url(#c4_18)" preserveAspectRatio="none" x="505" y="739" width="95" height="80" href="img/5.jpg"/>
<image clip-path="url(#c5_18)" preserveAspectRatio="none" x="124" y="365" width="1201" height="272" href="img/6.jpg"/>
<path d="M285.4 358.6l1.2 .1c.3 .1 .7-.1 .8-.5l.5-1v-.1l.5-1.4v-.2l.3-1.5v-.1l.1-1.6v.3l.6-1.4l.1-.3l.1-1.6l-.1 .2l.9-2v-.1l.6-2.6l.4-2.6l-.1 .3l1.4-2.5l.1-.3l.6-2.5v.1l.8-2.2l.6-2.1l.5-1.5l.3-1.3l-.2 .4l.5-.7l-.1 .2l.7-.6l-.1 .1l.5-.3l-.4 .1l.6-.1h.2l.5-.2l-.3 .1h.6h-.2l.6 .1h.6l-.5-.2l.5 .5l.1 .1l.4 .3l-.1-.1l.5 .5l.1 .1l.6 .4l.9 .6v.1l1 .6l.1 .1l1.1 .4v.1l1.5 .5l.1 .1l1.6 .3h-.1l1.1 .3l1.1 .2l.8 .2l-.4-.2l.5 .5l.3 .2l.8 .3l-.4-.2l.6 .5l-.2-.2l.3 .5v-.1l.2 .6l.1-.8l-.4 .7l.1-.2l-.7 .7l.1-.1l-1.1 .9l.2-.1l-2.1 .8l-.1 .1l-1.9 1.1l.2-.1l-2.1 .8h.1l-2 .4h.2l-1.6 .1h.1h-1.4h.1l-1.2-.1l-1.4-.2l.2 .1l-2.3-.9h-.1l-1.5-.4h-.2l-1.4-.2l.2 .1l-1.5-.4h-.5l-.6 .1h.4l-1.7-.4l.3 .1l-2.2-1l.2 .1l-1.8-1.2h-.1l-1.4-.8h.1l-1.1-.7h-.1l-.4-.3c-.6-.3-1.3 0-1.6 .5v.1c-.3 .5-.2 1 .2 1.4c.3 .4 .9 .5 1.4 .2c.4-.2 .7-.7 .6-1.2l-.1-.3c0-.3-.2-.6-.6-.8h-.1l.7 1.2c0-.4-.1-.8-.3-1c-.3-.3-.7-.5-1-.4h-.3c-.4 .1-.8 .4-.9 .8l-.3 .9l.1-.2l-1 2.3v-.1l-.6 1.1l-.6 1h-.1l-.4 .9h-.1l-.4 .7l.2-.2l-.4 .5l.1-.1l-.3 .4l.9-.4h-.1l.7 .3l-.3-.3l.1 .1l-.2-.2l-.1-.1l-.3-.3l-.5-.5l-.3-.2l-.2-.1l-.3-.2l-.3-.2l-.5-.1c-.6-.2-1.3 .1-1.5 .7l-.1 .3l.8-.7l-.9 .2l-.3 .1l-.9 .6l.3-.2l-1 .4l.1-.1l-1.6 .2l-.3 .1l-1.1 .6l.3-.1l-1.2 .2c-.5 .1-.9 .5-1 1l-.1 .8l1-1l-.9 .1h.2h-1h.2l-1.1-.1l.4 .1l-2.1-.9l.2 .1l-1.1-.6l.1 .1l-.9-.7v.1l-.5-.4l-.2-.1l-.5-.3l-.4-.1l-.5-.2c-.2 0-.4 0-.6 .1l-.5 .1c-.2 0-.4 .2-.6 .3l-.5 .6l-.2 .2l-.5 .8v.1l-.7 1.1l-.1 .3l-.3 1.4V345l-.4 1.3l-.3 1l-.1 .3l-.1 1.1l.3-.7l-.6 .6l.3-.2l-.8 .5l.3-.1l-.9 .3l-.2 .1l-.5 .3l.2-.1l-.3 .2h1.1c-.7-.3-1.4-.1-1.8 .5c-.3 .6-.1 1.4 .5 1.8l.3 .2c.6 .3 1.3 .1 1.7-.4c.4-.6 .4-1.3-.1-1.7l-.1-.1c-.2-.2-.5-.3-.7-.4H252h.1h-.2l1.1 .9v-.1l-.1-.1c-.1-.3-.4-.6-.7-.7l-.4-.2l-.7-.3H251l-2.1-.7l-1-.3l.2 .1l-.3-.2h-.2l-.9-.3l.2 .1l-1-.5h-.1l-.9-.3l-.2-.1l-1.3-.3l.1 .1l-.9-.3h-.3l-.8-.1h.2l-.6-.1h-1.4l-.7 .2h.3h-.9c-.2 .1-.4 .1-.6 .2l-1.1 .7l-1 .5l-.4 .4l-.9 1.2l.1-.2l-1.1 1.1l-1.2 1.2l-1.3 1.3l-.4 .5l-.6 1.6h.1l-.7 1.6l-.1 .3l-.2 1.4v.3l.2 1.6c0 .4 .5 .8 1 .8c.5-.1 .8-.5 .8-1v-1.6l-.1 .4l.5-1.3v.1l.8-1.5l.1-.1l.7-1.6l-.3 .4l1.4-1.3l1.2-1.1l1.2-1l.1-.2l.9-1.2l-.4 .4l.9-.5l1.2-.6l-.7 .2l.9-.1h.3l.7-.2l-.3 .1h.7h-.3l.6 .1h.2l.8 .1l-.3-.1l.9 .3h.1l1.3 .3l-.2-.1l.9 .3h-.1l1 .4h.2l.8 .3l-.1-.1l.3 .2h.1l1 .3l2.1 .7l.7 .2l.4 .2l-.2-.1h.1l.1 .1h.1c.2 .1 .4 .1 .6 .1l.2-.1H252h.3h-.5h.1c.7 .1 1.3-.2 1.5-.9c.2-.6-.1-1.3-.7-1.6l-.4-.1c-.5-.3-1.2-.1-1.5 .4c-.4 .5-.3 1.1 .1 1.6c.4 .5 1 .6 1.6 .3l.3-.2l.2-.1l.4-.3l-.3 .1l.8-.3l.3-.1l.7-.5l.3-.3l.5-.6c.2-.2 .3-.4 .3-.7l.2-1l-.1 .2l.4-1.1l.3-1.2l.1-.1l.3-1.4l-.2 .4l.7-1.1v.1l.5-.9l-.1 .2l.5-.5l-.6 .3l.5-.1h-.6l.5 .1l-.2-.1l.5 .3h-.1l.6 .4l.9 .6h.1l1 .6l.2 .1l2 .8l.3 .1l1.1 .1h1.3l.9-.1c.5-.1 .9-.6 1-1.1l.1-.8l-1 1l1.3-.2l.3-.2l1-.5l-.3 .1l1.6-.2h.1l1.1-.3l.3-.1l.8-.6l-.3 .2l.9-.2c.4-.1 .7-.4 .9-.8l.1-.4l-1.5 .8l.5 .1l-.3-.1l.3 .2l-.1-.1l.3 .3v-.1l.5 .5l.4 .3h-.1l.2 .2l.1 .1l.3 .2c.2 .2 .5 .3 .8 .2h.1c.3 0 .6-.1 .8-.4l.3-.3l.1-.1l.3-.4l.1-.2l.4-.7l.5-.9v.1l.6-1l.6-1.1l.1-.1l1-2.3l.1-.1l.2-.9l-1.3 .8h.1l.1 .1h.1l-1.1-1c.1 .4 .3 .7 .7 .9h.1l-.7-.8l.1 .2c.1 .5 .5 .9 1 1c.5 0 1-.3 1.2-.7v-.1c.3-.6 0-1.3-.6-1.6c-.5-.3-1.2 0-1.5 .6c-.3 .6 0 1.3 .5 1.5l.5 .3l-.2-.1l1.1 .7l1.5 .8H283l1.8 1.1l.1 .1l2.2 1l.2 .1l1.7 .4h.4l.7-.1h-.5l1.6 .3l.1 .1l1.4 .1h-.2l1.5 .3h-.1l2.3 .8l.3 .1l1.4 .1l1.3 .1h1.6l1.6-.1h.1l2-.5l.2-.1l2-.8l.2-.1l1.8-1.1l-.1 .1l2.1-.9l.2-.2l1.2-.9l.1-.1l.7-.8l.2-.2l.3-.7c.2-.3 .2-.6 .1-.9l-.3-.6l-.3-.5l-.1-.3l-.6-.6l-.4-.2l-.7-.3l.3 .2l-.5-.5l-.5-.2l-.8-.2l-1.1-.3l-1.1-.3l-1.6-.3l.2 .1l-1.4-.6l-1-.5l.1 .1l-1-.6l-.8-.6l-.6-.4h.1l-.5-.4l-.1-.1l-.4-.3h.1l-.6-.5l-.5-.2l-.6-.1l-.6-.1h-1l-.6 .2h.2l-.6 .1l-.4 .1l-.5 .3v.1l-.7 .5l-.2 .2l-.5 .7l-.2 .4l-.3 1.2v-.1l-.5 1.5l-.6 2.1l-.8 2.1v.1l-.7 2.5l.1-.2l-1.3 2.5l-.1 .3l-.5 2.6l-.5 2.6l.1-.2l-.8 2.1l-.1 .3v1.6v-.3l-.6 1.4v.3l-.2 1.6v-.1l-.2 1.5v-.1l-.5 1.4l-.4 1.1l.7-.5l-1.1 .2c-.4 0-.6 .3-.6 .7c0 .3 .3 .6 .6 .6Z" class="g0_18"/>
<path d="M282.3 358.3l.4 .7v.1l.6 1.3v-.1l.5 1.2l.3 1l.3 .8c.1 .3 .5 .6 .8 .6l.4 .1l-.8-.6l.1 .2c.2 .4 .5 .7 1 .7c.5 0 .8-.2 1-.6c.2-.5 .2-.9-.1-1.3l-.8-.9v.1l-1.4-2.1c-.3-.4-1-.5-1.4-.2c-.5 .3-.7 .9-.3 1.4l1.3 2.1h.1l.7 1c.3 .5 1 .7 1.5 .3c.5-.3 .7-1 .4-1.5l-.2-.2c-.1-.4-.5-.6-.8-.6h-.4l.9 .6l-.3-.7l-.4-1v-.1l-.5-1.1h-.1l-.6-1.3l-.3-.3l-.6-.5c-.3-.3-.7-.3-1-.1c-.3 .2-.4 .6-.3 1Z" class="g0_18"/>
<path d="M264.9 308l.5 .3c.6 .3 1.4 0 1.7-.6c.3-.6 .1-1.3-.5-1.6c-.6-.4-1.3-.2-1.7 .4l-.3 .4c-.2 .4-.2 .8-.1 1.2c.2 .4 .5 .7 1 .8l.7 .1l-.7-.4l.6 .7l-.1-.1l.6 1.1l-.1-.2l.4 1l.1 .3l.6 .9l.1 .2l.5 .4c.2 .2 .4 .3 .7 .4h.3c.5 0 1-.3 1.2-.9l.2-.6v-.5l-.1-.5v.2l.1-.8c0-.6-.5-1.2-1.1-1.2c-.6 0-1.1 .5-1.1 1l-.1 .9v.6v-.3l-.1 .6l1-.8h-.3l.8 .3l-.5-.5l.3 .3l-.6-.9l.1 .2l-.3-1l-.1-.1l-.6-1.2V308l-.5-.8c-.1-.2-.3-.4-.6-.5l-.7-.3c-.7-.2-1.4 .1-1.7 .7c-.2 .7 .1 1.4 .7 1.7c.7 .3 1.4 0 1.7-.6l.2-.5c.2-.5 .2-1-.2-1.4c-.3-.4-.8-.5-1.3-.3l-.6 .2c-.4 .1-.7 .4-.7 .8c0 .4 .2 .8 .6 1Z" class="g0_18"/>
<path d="M265.7 368.2l-.4 1l.3-.4l-1 .7l.2-.1l-2.3 1.1l-1.7 .6l.4-.1l-2.5-.2l.3 .1l-2.3-1c-.6-.2-1.2 0-1.4 .6c-.3 .5 0 1.1 .5 1.4l2.4 1h.3l2.5 .4l.5-.1l1.8-.7h.1l2.3-1.2l.2-.1l1-.8l.3-.4l.4-1c.2-.5 0-1.1-.5-1.3c-.6-.2-1.2 0-1.4 .5Z" class="g0_18"/>
<path d="M225.6 335.3l-.3-.1c-.4-.1-.8 .1-1 .3c-.2 .4-.3 .8-.1 1.1l.2 .2c.2 .4 .7 .6 1.2 .5c.5-.1 .8-.4 .9-.9l.2-.7l.1-.3v-2.5v.2l.1-1.2l-.4 .7l.8-.7l.3-.4l.3-.5l-.6 .6l.4-.2c.3-.2 .5-.5 .6-.9c.1-.3 0-.7-.2-.9l-.2-.3c-.3-.3-.6-.5-1-.5h-.5c-.5 .1-1 .5-1.1 1c0 .6 .3 1.1 .8 1.3l.3 .1l-.7-1v.2V330l-.1 .4c-.1 .3-.1 .5 0 .7l.3 .6l-.1-.2l.1 .6l.1 .8v.1l.3 1v-.3v.9l.1-.6l-.4 .8l-.1 .1l-.5 1.1l.1-.3l-.7 .9l-.1 .4l-.6 1.5l.1-.2l-.8 1.4v-.1l-1.1 1.6h.1l-1.3 1.6l.1-.1l-1.5 1.4l-.1 .1l-1.5 1.7l.2-.2l-1.5 1.2l-.1 .1l-1.3 1.5l.1-.1l-1.4 1.1l-.2 .3l-1 1.4l-.2 .3l-.8 2v.1l-.7 2.2l-.1 .2l-.3 2.5l-.2 2.3v-.1l-.4 1.7l.1-.2l-.6 1.5l.3-.5l-1 .9l.2-.1l-1.3 .8l.4-.1l-1.9 .4h.2l-2.2 .1h.2l-2.7-.2c-.6-.1-1 .3-1.1 .8c0 .5 .3 1 .9 1l2.6 .4h2.5l1.9-.3l.4-.1l1.3-.9h.2l.9-.9l.4-.4l.6-1.4V363l.4-1.8l.1-.1l.2-2.3l.3-2.5v.2l.7-2.2l-.1 .1l.9-2l-.2 .2l1.1-1.4l-.2 .2l1.4-1.1l.1-.1l1.3-1.5l-.1 .1l1.4-1.2l.2-.1l1.5-1.7l-.1 .1l1.5-1.4l.1-.2l1.3-1.6v-.1l1.1-1.6l.1-.1l.7-1.5l.1-.1l.6-1.5l-.2 .3l.7-1l.1-.2l.5-1l-.1 .1l.5-.8l.1-.6v-1.2l-.3-1v.1l-.1-.7l-.1-.7l-.1-.2l-.2-.5v.7l.2-.4v-.5c.1-.4-.2-.9-.6-1.1l-.3-.1c-.4-.2-.9-.2-1.3 .1c-.3 .4-.4 .8-.3 1.3c.2 .4 .6 .7 1 .8h.5l-1-.6l.2 .3c.4 .6 1.1 .8 1.6 .5c.6-.3 .8-1 .5-1.6c-.2-.6-.9-.8-1.5-.6l-.4 .1c-.2 .1-.4 .3-.6 .5l-.3 .5l.3-.3l-.9 .7c-.2 .2-.3 .5-.4 .8l-.2 1.2v2.7l.1-.2l-.1 .8l.2-.5l-.2 .1c-.1 .3-.1 .7 0 1c.2 .3 .5 .4 .9 .4c.3 0 .6-.2 .8-.5l.1-.3c.1-.2 .1-.3 0-.5c-.1-.2-.2-.3-.4-.4Z" class="g0_18"/>
<path d="M212.5 312.7l-.4 .6c-.2 .2-.2 .4-.2 .7v.3l.1 .2l.3 1.2l.6-1.2l-.4 .1l-.2 .1l-.5 .4l-.3 .4l-.4 .8l.7-.6l-1.3 .2c-.4 0-.6 .2-.8 .5l-.8 1.7c-.2 .4 0 1 .5 1.2c.4 .2 .9 0 1.1-.4l.9-1.7l-.8 .5h1.3c.4 0 .8-.2 .9-.5l.4-.8l-.3 .3l.6-.3l-.4 .1l.4-.1c.6-.1 .9-.7 .8-1.2L214 314v.3l.1-.3v-.2l-.1-.7c-.1-.4-.3-.7-.6-.7c-.4-.1-.7 0-.9 .3Z" class="g0_18"/>
<path d="M183.5 342.8l.3 .3l-.1-.2l.2 .4l.3 .3l1.4 1l1 .7l2 1.7l2 1.8l-.1-.2l1.2 1.6v-.1l.6 .9l-.2-.4l.3 .6l-.1-.3v.5l.1-.3l-.2 .6l.3-.5l-.6 .7l.4-.3l-1.5 .7l.1-.1l-1.7 .6l.4-.1h-2.8c-.7 .1-1.2 .6-1.2 1.2c0 .6 .5 1.2 1.2 1.2h2.8l.3-.1l1.7-.4l.2-.1l1.5-.7l.5-.3l.6-.8l.2-.5l.1-.6v-.9l-.1-.3l-.2-.6l-.2-.3l-.6-.8l-.1-.1l-1.2-1.5l-.1-.1l-2-1.8h-.1l-2-1.7v-.1l-1.1-.7v-.1l-1.4-.9l-.4-.3c-.2-.2-.6-.3-.9-.2l-.4 .1c-.3 .1-.5 .3-.6 .6c-.1 .3 0 .6 .2 .9Z" class="g0_18"/>
<path d="M166.1 361l-.1-.2l-.2 1.2l.3-.4c.3-.2 .4-.5 .3-.8l-.1-1.2v.3l.3-1.9l.2-2.2l-.1 .2l.7-2.1l.6-1.9l-.1 .2l.7-1.4l-.1 .2l.9-.9l.1-.1l.6-.7l-.3 .2l.7-.3l-.2 .1l.5-.2h-.5l.6 .2l-.6-.5l.4 .7l.7 1l-.2-.3l.4 1.6v-.1l.2 1.6v-.1V355v-.1v1.6l-.1 1.4v1.6l.1 .9l.1 .1l.3 1.2l-.1-.2l.1 .4v.1l.1 .5l-.1-.2v.5l.3-.6l-.1 .1l-.1 .1l-.3 .5l.4-.4l-.4 .2l.2-.1l-.6 .2h.5l-1.2-.3l.2 .1l-1-.4l.1 .1l-.6-.3l.4 .3l-.6-.7l.2 .5l-.1-.4l-.1-.3l-.6-1.1l.1 .1l-.5-1l-.4-1l.1 .3l-.2-.6l-.6 1.2l.3-.1c.4-.2 .7-.5 .7-1c.1-.3-.1-.7-.4-1l-.3-.3c-.4-.2-.8-.3-1.2-.1c-.4 .1-.7 .5-.7 .9h-.1l.1 .4v.2c.1 .6 .6 1 1.2 1c.6 0 1.1-.4 1.1-1c.1-.6-.3-1.2-.8-1.3l-.4-.1c-.4-.1-.9 .1-1.2 .4c-.3 .4-.4 .9-.2 1.3c.2 .4 .7 .7 1.1 .7h.2l-.6-.3l.2 .2c.5 .3 1.1 .3 1.5-.1l.1-.1l-.8 .3l.2 .1c.7 0 1.2-.6 1.2-1.2V358c.1-.3-.1-.7-.3-.9l-.1-.1H168c-.4-.4-1.1-.4-1.6 0l.6-.3h.2h-.1h.1h-.1h.1h-.1l1 1l-.1-1.2l-.2-3.4v.1l.1-2.2v.1l.4-2.2v.2l.9-2l.8-1.9l-.1 .2l1.2-1.2l1.2-1.1V343l.9-1.2l-.1 .1l.8-.5l.2-.3l.4-1l-.3 .4l.3-.2l-1-.2l.2 .2l-.1-.6l-.1 .3l-.1 .4l.2-.4l-.2 .3l.6-.4l-.7 .2l-.5 .2l-.5 .5l.1-.1l-.5 .4l.8-.2l-.4-.1h-.6l1.2 .7v-.2l.1 .5v-.3c0-.5-.3-.9-.8-1.1c-.4-.2-.9-.1-1.2 .3c-.4 .3-.5 .8-.3 1.3l.1 .1l.1 .1v.1l-.2-.4l.2 1.1l.5 2.4l.4 1.5l-.1-.2v2.1v-.2l-.1 .9v-.1l-.2 .6l-.1 .2l-.1 .8l.4-.7l-.3 .2l-.2 .4l-.1 .1c-.1 .3-.1 .7 .1 1c.1 .3 .4 .5 .8 .5h.3l-.3-.1l.4 .2l.3 .1h.6h-.1l.7 .2h.1l.7 .1h.3l.6-.1h-.1h.6h-.1l.7 .1h.6l-.4-.1l.5 .2l-.1-.1l.2 .2l-.3-.2l.2 .1c.1 .2 .3 .3 .5 .3h.2c.5 .1 .9-.1 1.2-.6c.2-.4 0-1-.3-1.3l-.1-.1l.4 1.1c.1-.6-.3-1.3-.9-1.4c-.7-.2-1.3 .2-1.5 .8l-.1 .5v-.1l-1.1 2.4l.2-.2l-1.2 1.4l.1-.1l-1.8 1.7l-.1 .2L171 360l.1-.1l-2.1 2.3l-.2 .1l-1.7 2.5l.4-.3l-2.6 1.6h.2l-2.8 1.3l.2-.1l-2.6 .8l.2-.1l-3.3 .4h.3l-2.6-.4h.2l-2.4-.7l.3 .1l-2.3-1.5l.1 .1l-2.4-2.1l.2 .3l-1.8-2.5v.1l-1.8-2.7l.2 .6l-.6-2.9l.1 .2l-.1-2.8l-.1 .6l1.1-2.8l-.2 .3l2-2.7l-.1 .1l2.9-3.4l3.4-3.7l-.1 .1l4.6-4.3c.5-.5 .5-1.3 0-1.8c-.4-.5-1.2-.5-1.7 0l-4.6 4.1l-.1 .1l-3.5 3.7h-.1l-3 3.3v.1l-2.1 2.6l-.2 .4l-1.1 2.9l-.1 .5l.1 2.8v.2l.6 2.9l.2 .6l1.8 2.7l.1 .1l1.8 2.4l.3 .2l2.4 2.1l.2 .1l2.3 1.5l.4 .2l2.4 .7l.3 .1l2.6 .3h.4l3.3-.3l.2-.1l2.7-.8l.2-.1l2.8-1.4l.2-.1l2.5-1.7l.4-.4l1.7-2.5l-.2 .2l2.1-2.3l.1-.2l1.7-2.4l-.1 .2l1.7-1.7l.2-.1l1.1-1.5l.2-.2l1.1-2.5l.1-.3l.1-.5l-.3 .6l-1.1 .3h.1c.4 .1 .9 0 1.1-.4c.3-.4 .3-.8 .1-1.2c-.2-.4-.7-.6-1.1-.5h-.2l1 .3l-.1-.1l-.3-.2l-.3-.2H178l-.5-.2h-.8h.2l-.7-.1h-.9l-.7 .1h.3l-.8-.1h.1l-.7-.1h-.1l-.6-.1l.3 .1l-.4-.2h-.2l-.4-.1c-.5-.1-1 .2-1.1 .7c-.2 .6 .1 1.1 .6 1.3c.5 .2 1 0 1.3-.4v-.1l-.2 .3l.3-.3c.2-.1 .3-.4 .3-.6l.1-.8v.2l.2-.7v-.1l.2-.9v-2.5l-.4-1.5l-.5-2.4v.2l.1-1.1l-.2 .6v-.1c.2-.2 .2-.5 .2-.8l-.1-.2c-.1-.6-.6-.9-1.2-.9c-.6 .1-1.1 .6-1.1 1.2v.3l.2 .5l.1 .2c.3 .5 .9 .8 1.5 .5l.1-.1l-.6 .1l.4 .1c.3 0 .6 0 .8-.2l.6-.4l.1-.2l.5-.5l-.4 .3l.6-.3c.2-.1 .4-.3 .5-.5l.2-.4l.1-.5l-.1-.4l-.1-.3l-.3-.5l-.2-.2c-.3-.2-.7-.1-1 .1l-.2 .2l-.2 .3l-.3 1l.2-.3l-.8 .7l-.1 .1l-.8 1.2l.1-.1l-1.2 1.2l-1.2 1.2l-.1 .2l-.7 1.9l-1 1.9v.1l-.6 2v.1l-.5 2.2v.1l-.1 3.5v-.2l-.3 1.3c0 .3 .1 .7 .3 1c.3 .3 .6 .4 1 .4h.1h-.1h.1h-.1h.1l-.2-.1v.1l-.6-.4v.1l-.1-.1h.1v.1h.1l-.4-.8v.2c0 .6 .6 1.2 1.3 1.2c.6-.1 1.2-.6 1.1-1.3c0-.6-.5-1.2-1.2-1.1h-.2c-.4 0-.7 .1-.9 .3l-.1 .1l1.5-.2l-.2-.1c-.2-.2-.4-.2-.7-.2h-.2c-.6 0-1.1 .4-1.2 1c0 .6 .4 1.2 .9 1.3l.4 .1c.4 .1 .8 0 1.1-.3c.3-.3 .4-.7 .3-1.1v-.2c-.1-.6-.5-1-1-1c-.6-.1-1.1 .2-1.3 .7c-.2 .5 0 1.1 .4 1.4l.4 .3c.5 .3 1.1 .2 1.5-.2c.4-.4 .4-1 .1-1.5c-.4-.5-1-.6-1.5-.3l-.3 .2c-.5 .2-.7 .7-.6 1.3l.2 .5v.3l.5 .9l.5 1v.1l.6 1.1l-.1-.4l.1 .4l.2 .5l.6 .7l.4 .3l.5 .3h.1l1 .3l.2 .1l1.2 .2h.5l.6-.2l.3-.1l.4-.3l.4-.4l.2-.5v.1l.1-.2l.1-.5v-.7l-.1-.5v.1v-.4l-.1-.2l-.3-1.1v.1l-.1-.9v.2v-2.9l.1-1.5v-.1l-.1-1.8l-.2-1.6v-.1l-.4-1.7l-.1-.3l-.6-1v.1l-.4-.7c-.1-.2-.3-.3-.5-.4l-.6-.2h-.5l-.6 .1l-.2 .1l-.7 .3l-.3 .3l-.6 .7l-.9 1l-.2 .2l-.7 1.4v.2l-.6 1.9l-.7 2.1v.1l-.2 2.2v-.1l-.4 1.8V361l.3-.7l-.3 .3c-.3 .4-.3 .9 0 1.3c.3 .4 .8 .5 1.3 .3l.1-.1c.4-.2 .6-.7 .4-1.1Z" class="g0_18"/>
<path d="M669.3 522.5l2.8 4.4v-.8l-.2 .2c-.2 .4-.2 .9 .1 1.2c.3 .3 .8 .4 1.2 .2c.4-.1 .6-.6 .6-1l-.5 1.1l.1-.1l.1-.1l.2-.2c.3-.2 .5-.7 .4-1.1c-.1-.4-.3-.8-.7-1h-.1l-.4-.1h-.4c-.6 .1-1 .6-1.1 1.2v.6l-.3 2.6v-.1l-.4 1.9l.1-.3l-.7 1.7H670l-.9 2.2l.2-.2l-1.1 1.5l-1.2 1.6l-1.6 2.2l.2-.2l-2.1 1.9l-.1 .1l-2.7 2.7l-2.7 3v-.1l-3.4 3.3h-.1l-3.3 3.5l.2-.1l-3.8 2.9l.1-.1l-4 2.8l.2-.1l-4.6 2.3l-4.4 2.5l-.1 .1l-4.5 2.9h.1l-4.6 2.7l-4.4 2.8l.2-.1l-5 2.2h.2l-5.4 1.6l-5.7 1.8l.2-.1l-6.5 1.1l-6.6 1.2h.1l-7.5 1.1l-7.6 1l-8.4 1.5l-8.6 1.7h-.1l-9.5 2.1l-9.9 2.2h-.1l-10.1 2.6l-10.2 2.8l-10.2 2.6l-10.3 2.3l-10 2.2l-10 1.9l-9.7 2h-.1l-9.2 2.1h.1l-9.3 1.4h.1l-8.7 1.3h.1l-8.3 .6h.1l-8.4-.2h.1l-7.6-.4h.1l-7.4-.7l-6.5-.9h-.1l-5.8-.5h.1l-5.9-.9H394l-5.7-.6h.1l-5.7-.7l-5.7-.7h-.1l-5.2-.4l-5.1-.5h-.1l-4.6-.2h.1l-4.4-.4h-.1l-3.8-.3l-3.7-.2h.1l-2.9-.4h-2.7l-.1-.1h-2.9h.1l-.8-.1h.2l-.7-.1l-.3-.1l.4 .2l-.3-.2l.8 1.3v-.1c-.1-.4-.3-.8-.6-1.1l-.1-.1c-.7-.5-1.6-.4-2.2 .3c-.6 .6-.5 1.6 .1 2.2c.7 .6 1.7 .5 2.3-.1l.6-.6l-.3 .2l2.7-1.7l1.7-1l2-1.2l1.9-1.3l1.6-1.1h.2l1.4-1.2l1.1-.9h-.1l1.2-.8l.1-.1l1-.8l.2-.1l.7-.9v.1l.6-.6c.2-.2 .3-.4 .4-.7l.1-.6v-.1h.1l-.2 .5l.1-.2c.2-.4 .2-.9 0-1.4c-.1-.2-.3-.4-.5-.6l-.2-.1c-.3-.1-.5-.2-.8-.2l-.4 .1c-.3 0-.6 .1-.8 .2l-2.8 2l-1.5 1.1l-1.7 1.1v.1l-1.7 1.2l-1.6 1.1l.3-.1l-1.9 .7l-1.8 .8h.1l-1.7 .6h.1l-1.6 .6l-1.2 .4l-.3 .1l-.6 .3l.3-.1l-.4 .1c-.7 .3-1.2 .9-1.2 1.7v.1c0 .7 .5 1.4 1.3 1.6l.4 .1h-.2l3.1 1.2h-.1l2.8 1.3h-.1l3 1.6l-.2-.1l3.2 2.3v-.1l3.2 2.5l-.2-.2l2.8 3.1c.6 .6 1.6 .7 2.2 .1c.7-.6 .7-1.5 .2-2.2l-2.8-3.1l-.2-.2l-3.2-2.6h-.1l-3.1-2.3l-.2-.1l-3-1.6l-.1-.1l-2.8-1.3l-.1-.1l-3-1.2l.1 .1l-.4-.3l.9 1.6v-.1l-1.1 1.6l.4-.2l.3-.1l.6-.3l-.3 .1l1.2-.5h.1l1.5-.5l.1-.1l1.6-.7h.1l1.7-.8l1.8-.8l.3-.2l1.6-1.2h.1l1.6-1.2l1.7-1.2h-.1l1.6-1.1l2.7-2l-.7 .3l.5-.1l.5-.1l.2-.1v-.1l-1.4 .1v.1l-.7-1.9v.2c-.2 .2-.2 .5-.2 .8h.1v-.5l-.2 .6l.5-.7l-.6 .5l-.1 .1l-.8 .8l.1-.1l-1 .9l.1-.1l-1.2 .8l-.1 .1l-1.1 .9l-1.5 1.1l.2-.1l-1.7 1.1l-1.9 1.2h.1l-2 1.1l-1.7 1.1l-2.8 1.7h.1l-.7 .4c-.4 .2-.8 .6-.8 1.1c-.2 .4 0 .9 .3 1.3v.1l-.3-1.2v.1c-.1 .6 .2 1.2 .8 1.5l.3 .2l.3 .1l.3 .1h.1l.8 .2h.1l.9 .1h.1l1.3 .1H347h-.1l2.9 .3l3.7 .3h-.1l3.9 .3l4.4 .4h.1l4.5 .2l5.1 .4l5.3 .5l-.1-.1l5.7 .7l5.7 .7l5.7 .6l5.8 .9h.1l5.8 .5l6.5 .8h.1l7.4 .7l7.6 .4h.1l8.4 .1h.1l8.3-.6h.1l8.7-1.3l9.2-1.5h.1l9.3-2.1l9.7-2h-.1l10.1-1.9l10-2.1l10.4-2.4l10.2-2.6l10.3-2.7l10.1-2.6h-.1l9.9-2.2l9.6-2h-.1l8.7-1.8l8.3-1.4h-.1l7.6-1h.1l7.4-1.1h.1l6.5-1.2l6.5-1.1h.2l5.7-1.9l5.3-1.6h.2l5-2.3l.2-.1l4.4-2.8h-.1l4.6-2.7l.1-.1l4.4-2.9h-.1l4.4-2.5h-.1l4.5-2.3l.2-.1l4-2.8h.1l3.7-2.9l.1-.2l3.3-3.5v.1l3.4-3.3l.1-.1l2.7-3v.1l2.6-2.8h-.1l2.2-1.9l.2-.2l1.5-2.2l-.1 .1l1.3-1.7v-.1l1.1-1.5l.1-.3l.8-2.2v.1l.8-1.6l.1-.3l.4-1.9v-.1l.3-2.7v-.6c.1-.7-.4-1.3-1.1-1.4c-.7 0-1.3 .4-1.4 1.1c0 .7 .4 1.3 1.1 1.4l.1 .1h.3l.4-.2h.1l-1.6-.5l.1 .2l.3-1.4l-.1 .1c-.4 .2-.6 .8-.4 1.2c.2 .5 .6 .8 1.1 .7c.5-.1 .9-.4 1-.9v-.1c0-.2 0-.4-.2-.6l-.1-.2l-.1-.1l-3-4.2c-.2-.2-.6-.3-.9-.1c-.2 .2-.3 .5-.2 .8Z" class="g0_18"/>
<path d="M1269.8 407.6l.1 .1l.2 .1l.2 .1h.1l.4 .1h.1l.5 .1h.6l-.4-.1l.6 .4l-.1-.1l.5 .4l.2 .1l.7 .3l-.1-.1l.8 .7l.3 .1l.9 .3l.2 .1l1.2 .2l-.3-.1l1.1 .5h.3l1.4 .3l1.9 .3l2.2 .3h.1l2.6 .2h3l2.7-.4l3.4-.6l.3-.1l2.5-1l-.2 .1l4-.8l4-.6h-.1l3.8-.2h-.1h4.9l3.6-.2h-.1l3.7-.1l3.3-.2l2.9-.2h-.2l2.4 .2h-.1l1.7 .1v.1h1l-.5-.1l.7 .4c.5 .2 1 .2 1.4-.1l.2-.1l-.1 .1v-.1c.6-.2 .8-.9 .6-1.4c-.2-.6-.8-.9-1.4-.8l-.8 .2l.2-.1l-2.9-.1c-.3 0-.6 .3-.7 .7c0 .3 .3 .7 .7 .7l2.8 .2l-.5-.2l.5 .6c.4 .4 .9 .5 1.3 .3c.5-.1 .8-.5 .8-1c.1-.5-.1-.9-.6-1.2c-.3-.2-.7-.2-1-.1h-.2l1.1 .2l-.8-.5l-.5-.2h-1.1l-1.6-.2l-2.4-.2h-.2l-2.8 .2l-3.4 .2h.1l-3.6 .1h-.1l-3.5 .2h-4.9l-3.8 .3h-.1l-4 .6h-.1l-4 .8l-.2 .1l-2.6 1h.3l-3.4 .6l-2.7 .4h.2l-2.8 .1h.1l-2.6-.1h.1l-2.2-.3l-1.9-.2l-1.4-.2h.2l-1.2-.3l-.2-.1l-1.2-.1h.2l-1-.2l.3 .1l-1-.6l-.2-.1l-.8-.2h.1l-.5-.2l-.6-.3l-.3-.1l-.6 .1h.1l-.5-.1h.1h-.8l-.2 .1l-.2 .1l-.1 .1c-.2 .2-.2 .5 0 .6Z" class="g0_18"/>
<path d="M1278.2 399.5l4.5 3.2l.3 .1l1 .1h.2l1.2-.3l1.4-.1h-.2h.7l.6 .1l-.4-.3l.1 .1l-.2-.3l.1 .2c.1 .5 .6 .8 1.1 .7c.5-.1 .8-.6 .7-1.1c-.1-.5-.5-.8-1-.8h.1h-.1h.1l-.6 .1l-.9 .5h.1l-2.6 1.1h.1l-1.4 .5l-1 .4h-.2l-.9 .6l-.3 .3l-.7 .9l-.1 .2l-.4 .8l-.4 .8v.3l-.2 .7v.7l.1 .3l.1 .5l.1 .1l.1 .3l.3 .3l.5 .5l-.2-.3l.3 .5l.2 .3l.6 .4l.1 .1l1 .6l.3 .1l.8 .2l-.1-.1l1.4 .4h-.2l1.6 .8l1.3 .6l-.2-.1l1.2 .8l1 .7l.4 .1l.5 .1h.1l.5 .1c.3 0 .5 0 .7-.1l.6-.3l.2-.1l.5-.4l.3-.3l.4-.7v-.1l.4-.8c.1-.4 0-.8-.4-1c-.4-.2-.8-.1-1 .2l-.5 .8l-.5 .6l.5-.3l-.7 .2l.1-.1l-.6 .2h.4l-.5-.1l-.5-.2l.3 .2l-1-.6h.1l-1.2-.8l-.2-.1l-1.2-.5l-1.6-.9h-.2l-1.3-.4h-.1l-.8-.2l.3 .1l-1-.5l.2 .1l-.6-.4l.3 .2l-.3-.4l-.3-.3l-.5-.4l.2 .3l-.1-.3l.1 .2l-.2-.5l.1 .4v-.5l-.1 .2l.2-.7l-.1 .2l.4-.8l.3-.8l-.1 .2l.7-1l-.3 .3l.9-.5h-.1l1-.4l1.3-.6h.1l2.5-1.2l.9-.5l-.3 .1h-.1h.1h-.1c.4 0 .7-.2 .9-.5c.2-.4 .2-.8-.1-1.1c-.3-.3-.7-.4-1-.2l-.2 .1l.3-.1h-.1l-.7-.1h-.8l-1.4 .1l-1.2 .2h.1h-1l.4 .1l-4.7-2.9c-.2-.2-.6-.1-.8 .2c-.1 .2-.1 .6 .2 .7Z" class="g0_18"/>
<path d="M1423.5 405.5l.3 .2c.2 .1 .5 .2 .8 .1l1-.3c.2 0 .4-.2 .5-.3l.6-.9v.1l.6-.7h-.1l1-1l.2-.4l.3-1.5v.1l.4-1.2v.1l.7-1.5v.1l.8-1.4l-.1 .2l1-1.1l-.1 .1l1.2-.8l.9-.6l-.2 .1l.8-.4l-.1 .1l.5-.1l.2-.1l.3-.1h-.4h.1l-.3-.2l.2 .3v-.2l-.1 .5l-.1 .8l-.2 1.2v-.1l-.3 1.1l-.4 1.1l-.6 1.6l.1-.1l-.8 1.5v.1l-.9 1.6h.1l-1.1 1.6l.1-.1l-1.1 1v.1l-.8 1l.2-.2l-1.2 .8l.2-.1l-1.8 .7l.1-.1l-2.3 .6h.1l-2.8 .3l-3.1 .1l-3.4 .1l-3.8 .3l-4.3 .3l-4.3 .5l-3.9 .5l-3.4 .5l-2.9 .6h-.1l-2.5 .7l-2.1 .5h.2l-2 .2h-.1l-1.3 .3l.2-.1h-1.1l.4 .1l-.7-.3l-.3-.1h-.1l.7 .4l-.6-.8l.1 .4l-.2-.7v-.1l-.3-.8l.1 .2l-.2-1l-.1 .5l.3-.8v-.1l.3-.9v-1.2l-.1-.6l-.8-1.7l.1 .3l-.1-1.1l-.1-.1l-.1-.4v-.1l-.1-.4c-.2-.4-.5-.7-1-.8c-.4 0-.8 .2-1.1 .6c-.2 .3-.2 .8 0 1.2l.4 .6l.1-1.4l-.4 .5l.6-.4l-.7 .2l-.4 .2l-.9 .7l-.9 .6l-.3 .2l-.8 1.1l.1-.1l-1 1l-.1 .1l-1 1.2l.1-.1l-1.1 1.2h.1l-1.2 1.1h-.1l-1 1.1l-1 1l-.2 .2l-.7 1.3l-.1 .4l-.1 1.3v1l.1 .6l.3 .6l.1 .1l.3 .5l.4 .4l.6 .3l.3 .1l.9 .1l1 .1h1.2l.4-.1l.7-.3l-.6 .1l.5 .1l-.6-.5l.2 .5l-.1-.4v.2l.2-.5l-.4 .6l.2-.3l-.6 .5l.2-.1l-1.3 .4l-.1 .1l-1.6 .8l.1-.1l-1.6 .6l-1.7 .6h.1l-1.2 .3l.1-.1l-1 .2h.2h-.7c-.4-.1-.8 .1-1 .5c-.2 .3-.3 .7-.1 1.1l.1 .3c.2 .5 .7 .8 1.2 .7c.5 0 .9-.3 1-.8c.2-.5 0-1-.4-1.3l-.4-.3l.2 .2l-1-1.2l.1 .1l-1.1-1.6l-.1-.1l-1.8-2.2l.1 .1l-1.1-1.8v.1l-.7-1.3l-.9-1.2l-.1-.1l-1-1.1l-.1-.1l-1-.9l-.9-.8l-.3-.2l-.7-.4h-.2l-.5-.2l.1 .1l-.6-.3c-.3 0-.6 0-.8 .1l-.6 .2h.1l-.7 .2l.1-.1l-1 .2l-.4 .1l-1.2 .6h.2l-1.1 .4l-.5 .2l-.8 .9l.2-.2l-1.1 .7l-.4 .3l-.6 .8l-.1 .3l-.4 1.1l.5-.6l-1.1 .5c-.3 .2-.5 .4-.6 .6l-.3 1l-.2 .7l.3-.6l-.3 .3c-.3 .2-.4 .5-.4 .9c0 .3 .1 .6 .4 .8l.9 .7l.2 .1l1.3 .5l.2 .1l1.7 .4l2.1 .6l.3 .1l2.4-.1l.1-.1l2-.5c.5-.1 .8-.6 .7-1c-.2-.5-.6-.8-1.1-.7l-2 .5l.3-.1l-2.4-.1l.3 .1l-2.1-.7h-.1l-1.7-.5h.1l-1.3-.5l.3 .1l-.9-.6c-.4-.3-1.1-.3-1.4 .1c-.4 .4-.4 1.1-.1 1.5c.4 .4 1 .5 1.5 .1l.4-.2c.1-.1 .3-.3 .4-.5l.2-.7v.1l.3-1l-.5 .6l1.1-.5c.2-.1 .4-.4 .5-.6l.5-1.1l-.2 .2l.7-.8l-.4 .3l1.1-.6l.3-.2l.8-.9l-.4 .3l1.1-.4l.2-.1l1.2-.6l-.4 .1l1-.1l.1-.1l.8-.1l.1-.1l.7-.3l-.9 .1l.7 .2l.5 .1h-.2l.7 .3l-.3-.2l.9 .9h.1l.9 .9l1 1.1l-.1-.2l.8 1.2v-.1l.7 1.2v.1l1.1 1.8l.1 .1l1.8 2.2l-.1-.1l1.1 1.6l.1 .1l1 1.2l.2 .2l.5 .3c.4 .3 1 .3 1.4-.1c.4-.4 .5-1 .2-1.4l-.2-.4c-.3-.5-.8-.7-1.4-.5c-.5 .2-.8 .8-.7 1.3c.1 .6 .6 1 1.2 1l.7-.1h.2l1-.2l1.3-.3l.1-.1l1.6-.6l1.6-.6l.1-.1l1.6-.8h-.1l1.3-.5l.2-.1l.7-.5l.2-.2l.4-.6l.2-.6v-.2l-.1-.5l-.3-.5c-.1-.2-.4-.4-.6-.5l-.6-.1h-.6l-.7 .3l.4-.1h-1.1l.1 .1l-1-.1h.1l-.9-.1l.3 .1l-.6-.4l.4 .4l-.4-.6l.1 .1l-.4-.7l.1 .6l.1-1.1l.1-1.3l-.1 .5l.7-1.2l-.2 .2l1.1-1l1-1.1l1.2-1.2h.1l1-1.2l1-1.2l-.1 .1l1.1-1v-.1l.9-1l-.3 .2l1-.6l.1-.1l.9-.6l-.4 .2l.7-.2c.3 0 .5-.2 .6-.3l.4-.4c.4-.4 .4-1 .2-1.4l-.4-.6c-.3-.5-1-.7-1.5-.5c-.5 .3-.8 .9-.6 1.4l.1 .4v-.1l.1 .4v-.1l.1 1.1l.1 .4l.9 1.7l-.1-.5l-.1 .9l.1-.2l-.3 1l-.2 .8v.4l.2 1v.3l.3 .8v-.1l.2 .7l.2 .4l.6 .7c.3 .4 .7 .5 1.1 .4h.1h-.5l.7 .2l.4 .1h1.3l1.3-.3h-.1l2-.2h.1l2.1-.6l2.5-.7h-.1l2.9-.5l3.4-.6l3.8-.4l4.3-.5l4.3-.3h-.1l3.8-.3l3.4-.1l3.1-.1h.1l2.8-.4h.2l2.2-.6h.1l1.9-.7l.2-.2l1.1-.8l.2-.2l.8-1l-.1 .1l1-1.1l.1-.1l1.1-1.7l.1-.1l.8-1.7l.7-1.6l.1-.1l.4-1.6l.4-1.2V398l.2-1.1v-.1l.1-1.1v-1.5l-.1-.2l-.1-.4l-.2-.2l-.1-.1l-.4-.1h-1l-.9 .2l-.1 .1l-.9 .5h-.1l-1.3 .9l-.1 .1l-1 1l-.1 .2l-.8 1.3v.1l-.8 1.4v.1l-.5 1.2v.2l-.4 1.4l.3-.4l-1 .9v.1l-.7 .6l-.1 .1l-.6 .7l.5-.3l-1 .3l-.5 .2l-.2 .3c-.2 .1-.2 .3-.2 .6c0 .2 .1 .4 .3 .5Z" class="g0_18"/>
<path d="M1400.3 389l.3-.1c.3-.1 .6-.4 .6-.7c.1-.4 0-.7-.3-1l-.2-.2c-.2-.1-.4-.2-.6-.2h-.1c-.2-.1-.5 0-.7 .1l-.4 .2l-.1 .1l-.5 .3l.2-.1l-.6 .3h-.1l-.7 .4l.3-.1l-.6 .1h.2h-1.5l-.7 .1l-.1 .1l-.9 .2l-.8 .2l-.4 .1l-1.1 .7l-.9 .7l-.3 .3l-.8 1.1v.1l-.8 1.4c-.3 .3-.2 .7 .2 1c.3 .2 .7 .1 1-.2l1-1.3l-.1 .2l1.1-.9l-.2 .1l1-.5l.1-.1l1-.6l-.3 .2l.8-.2l.9-.2l.6-.1l.7-.1h-.1l.7-.1h.2l.6-.2l.3-.1l.7-.4l-.1 .1l.6-.3l.1-.1l.5-.3l-.1 .1l.4-.2l-.3 .1h.1l-.3-.1l.2 .1c.6 .1 1.1-.2 1.2-.8c.1-.5-.2-1-.7-1.2c-.5-.2-1 .1-1.2 .6l-.1 .3c-.2 .3-.1 .7 .2 .9c.2 .3 .6 .4 .9 .2Z" class="g0_18"/>
<path d="M1392.6 441.4l-1.4 .7l-.1 .1l-1.5 1.1l.2-.1l-2.1 1.1l.3-.1l-2.5 .6l-2.5 .6h.2l-2.4 .2l.5 .1l-2.4-1.2l.2 .1l-1.9-1.5c-.4-.3-.9-.2-1.1 .1c-.3 .4-.3 .9 .1 1.2l1.8 1.5l.1 .1l2.2 1.4l.6 .1h2.4l.2-.1l2.4-.4h.1l2.5-.6l.3-.2l2-1.2l.2-.1l1.3-1.2l1.1-1c.3-.3 .3-.7 .1-1c-.2-.3-.6-.4-.9-.3Z" class="g0_18"/>
<path d="M1356.1 391l-1.9-.2c-.3-.1-.5 0-.7 .1c-.2 .2-.3 .4-.4 .7l-.1 1.6v-.1l-.7 2.5l-.9 2.7l.1-.2l-1.7 2.2l.1-.1l-1.9 2.1l.4-.2l-2.8 .9l.1-.1l-3 .4h.4l-3.8-1.2c-.4-.1-.8 .1-1 .5c-.1 .5 .2 .9 .6 1l3.7 1.2l.3 .1l3-.2l.1-.1l3-.8l.4-.3l1.8-2l.1-.1l1.7-2.2l.1-.2l1-2.8v-.1l.7-2.5v-.2l.2-1.7l-.9 .9h1.9c.4-.1 .8-.4 .8-.8c0-.3-.3-.7-.7-.8Z" class="g0_18"/>
<path d="M1118.2 360.4h-.6c-.2 0-.4 .1-.5 .2c-.1 .2-.1 .4 .1 .6c.1 .1 .3 .2 .5 .2l.5-.1c.3 0 .4-.3 .4-.5c0-.2-.2-.4-.4-.4Z" class="g0_18"/>
<path d="M1115.9 360.1l-2.4-.6c-.4-.1-.8 .1-.9 .5c-.1 .4 0 .8 .4 1l.3 .1l.1 .1l.5 .2c.3 .1 .6 .1 .9-.1c.2-.2 .3-.5 .3-.8l-.1-.3c0-.5-.4-.8-.9-.7c-.4 0-.7 .4-.7 .8c0 .5 .3 .8 .7 .9h1l1.5 .1h-.1l1.8 .3h-.1l3.1 1l-.1-.1l2.5 1l3.1 1.2l2.5 .9h.1l4.1 1.3h.1l4.3 1l.1 .1l4.3 .7l-.1-.1l5.2 1.4h.1l3.5 .5l3.6 .4l3.1 .4l2.8 .3h-.1l2.1 .5l1.5 .4h-.1l1.2 .5l-.2-.1l.6 .5l-.1-.1l.6 .5l-.2-.2l.5 .9v.1l.5 .6h-.1l.4 .6l-.1-.3l.1 .4l.3 .4l.2 .2l-.3-.4l.1 .2l.1 .3c.2 .3 .4 .4 .7 .4c.3 .1 .6-.1 .7-.3l.2-.3l-.1 .2l.3-.3l.1-.1l.2-.2l.2-.4l.1-.4v-.7l-.1-.5l-.1-.1l-.3-.8l.1 .1l-.2-.6l-.1-.2l-.3-.6l.1 .3l-.1-.5c-.1-.5-.5-.8-.9-.8c-.5 0-.9 .4-1 .8c0 .5 .3 .9 .7 1.1h.1c.3 .1 .7 0 .9-.2c.3-.1 .4-.5 .4-.8v-.2c0-.5-.3-.9-.7-1c-.5-.1-.9 0-1.2 .4c-.2 .4-.2 .9 .1 1.2l.1 .2c.3 .4 .9 .5 1.3 .2c.5-.2 .7-.8 .5-1.3v-.1v.8v-.1l-1.2 .7l.4 .1l-.3-.1l.5 .2h-.1l1.4 .8l-.5-.8l.1 .4v-.2v.6l.1-.5l-.3 .5v.1l-.3 .8l.1-.2l-.4 .7l.2-.3l-.9 .7l-.7 .6l.4-.2l-1.1 .2l-1.5 .4c-.4 .1-.8 .6-.7 1.1c.1 .5 .6 .8 1.1 .7l1.5-.3h-.2h1.2c.2 0 .4-.1 .6-.2l.7-.6l.9-.7l.3-.3l.4-.7l.1-.2l.3-.8l-.1 .2l.3-.5l.1-.5v-.8l-.1-.4c0-.3-.2-.6-.5-.8l-1.4-.8h-.1l-.6-.2l-.3-.1l-.3-.1c-.4 0-.8 .2-1 .5c-.2 .3-.3 .7-.2 1v.1l.2 .2v.1c.3 .4 .8 .5 1.2 .4c.5-.1 .8-.6 .8-1c0-.5-.3-.9-.8-1.1h-.1c-.4-.1-.8 0-1.1 .3c-.2 .2-.3 .6-.2 1l.1 .2c.1 .6 .7 .9 1.2 .7c.5-.2 .8-.7 .7-1.2c-.2-.6-.7-.9-1.3-.7h-.1c-.2 .1-.4 .3-.6 .5c-.1 .2-.1 .5 0 .7l.1 .5l.1 .3l.4 .5l-.1-.2l.1 .6h.1l.3 .8l-.1-.1l.2 .5v-.2v.3v-.1l-.1 .4l.2-.4l-.2 .3l.1-.1l-.3 .2l-.1 .1l-.2 .3c-.3 .3-.2 .8 .1 1.1c.2 .3 .7 .3 1 .1c.3-.2 .5-.6 .3-1v-.1v.2v-.2l-.2-.5l-.2-.2l.2 .4l-.1-.4l-.1-.3l-.4-.6l-.5-.6l.1 .1l-.4-.9l-.2-.2l-.5-.6h-.1l-.7-.5l-.2-.1l-1.1-.5h-.1l-1.5-.5l-2.2-.5h-.1l-2.8-.3l-3.1-.4l-3.6-.4l-3.5-.5h.1l-5.1-1.3h-.1l-4.4-.7h.1l-4.3-1.1v.1l-4.1-1.3l-2.5-.9l-3-1.2h-.1l-2.5-.9v-.1l-3.1-.9h-.1l-1.8-.3l-.1-.1h-1.5l-.9-.1c-.3-.1-.5 0-.7 .2c-.2 .2-.3 .5-.2 .7v.3c.1 .5 .4 .8 .8 .8c.5 0 .8-.3 .9-.7c.1-.4-.2-.9-.6-1l-.5-.2h-.1l-.4-.1c-.3-.1-.6 0-.8 .3c-.2 .2-.2 .5-.1 .8c.1 .3 .4 .5 .7 .5h2.5c.3 0 .5-.2 .5-.5c.1-.2-.1-.5-.4-.5Z" class="g0_18"/>
<path d="M1108.9 358.8l.4-.7l.1-.2l.4-1.2h.1l.4-1.3v.1l.4-.9l-.1 .2l.6-.5l.1-.1l.2-.3l.1-.1l.2-.4v-.2l.1-.6v-.2l-.1-.7v-.1l-.2-.5v.1v-.5l-.1-.2l-.1-.3l.1 .3v-.1l-.1 .1l.1-.1c0-.4-.2-.8-.5-1.1c-.4-.2-.8-.2-1.2 .1c-.3 .2-.5 .6-.4 1l.2 .7l-.1-.2l-.1 2l.1-.2l-.5 1.7v-.2l-.7 1.8v-.1l-1 1.8l-1.1 2l-1.1 2v-.1l-1.2 1.6v.1l-1.3 1.8l-1 1.4l.1-.1l-1 1l-1 1l.1-.1l-.7 .4l.3-.1l-.7 .2h.3h-1.4h.1h-.8l-1.6-.2l-1.7-.1l.4 .1l-1.2-.6h-.2l-1.7-.4l.3 .1l-1.1-.6h.1l-1.2-.7l-.2-.1l-1.3-.4l.4 .2l-.9-.7l-.2-.2l-.7-.3l.1 .1l-.7-.5h.1l-.4-.3l-.2-.2l-.4-.2l-.1-.1l-.4-.2l-.6-.1h-.3h.3l-.5-.1h-.6l-.4 .1l-.6 .1h-.1l-.6 .2l-.4 .2l-.6 .5l.4-.2l-.9 .3h-.1l-1.3 .6l.1-.1l-1.5 .5h.3l-2.6 .2l-.5 .2l-1.5 1l.1-.1l-1.1 .6l-.2 .2l-1.1 .8c-.4 .3-.5 .7-.5 1.1l.2 1.4l.3-.9l-.6 .6l-.3 .5l-.3 1.1l.1-.2l-.2 .5c-.2 .3-.2 .6 0 .9l.1 .4l.2 .2l.4 .6l.2 .2l.7 .4l.1 .1l1 .5l.2 .1l.5 .2l.4 .1c.4 .2 .8 .1 1.1-.2l.1-.1l-.7 .3h.6h-.1h.2h-.2h.2l-.8-.9v.2c.1 .6 .6 .9 1.2 .9c.5 0 1-.5 1-1c0-.6-.4-1.1-.9-1.2h-.4h.2h-.1h.1h-.7l-.2 .1l-1 .3h.3h-2.3h.1h-.7c-.3 0-.7 .2-.9 .5l-.1 .1l.8-.5l-.3 .1l.7 .2l-.7-.5l.1 .1l-.9-.8l-1-.9l-.9-.8v.1l-.5-.6l-.1-.1l-.6-.4h.1l-.6-.4v-.1l-.7-.5l.1 .1l-.6-.5l-.1-.1l-.5-.3l-.3-.2l-.3-.1l.6 .6l-.1-.2c-.2-.5-.7-.8-1.2-.7h-.1c-.6 0-1.1 .4-1.2 1v.2l.7-.9l.2-.1l-.4 .1l-.2 .1l-1.2 .5l-1.5 .7l-.8 .3l-.1 .1l-.7 .4l.1-.1l-1.8 .9l-.4 .3l-1 1.1l.2-.2l-1 .8l-.4 .5l-.3 .6c-.1 .5 0 1 .4 1.3l.5 .4h-.1l.2 .2c.2 .1 .4 .2 .6 .3l1.3 .2h.1l1.4 .1h.1l2-.1h.1l2.2-.3l.2-.1l1.8-.6l.1-.1l1.7-.7l.2-.1l1.3-.9v-.1l1.2-.9c.3-.3 .4-.8 .1-1.1c-.2-.3-.7-.4-1-.2l-1.3 .9l.2-.1l-1.5 .6h.1l-1.8 .6l-1.8 .6h.2l-2.2 .3h.1l-2 .1h.1l-1.4-.1h.2l-1.3-.2l.6 .3l-.2-.2h-.1l-.4-.5l.2 1.4l.3-.6l-.4 .4l1.1-.7l.2-.2l1-1.1l-.4 .3l1.8-.8l.1-.1l.7-.4l-.1 .1l.8-.4l1.5-.7l1.2-.5l-.3 .1l.4-.1l-.7-.1v.1c.4 .1 .7 .1 1.1 0c.3-.2 .5-.5 .6-.8l.1-.2l-1.3 .9h.1l-1.1-.7l.2 .3c.1 .3 .4 .5 .7 .6l.3 .1l-.3-.1l.6 .3h-.1l.6 .5l.7 .5l-.1-.1l.5 .4l.1 .1l.6 .4l-.1-.1l.5 .5l.1 .1l1 .7h-.1l1 .9h.1l.9 .8h.1l.7 .5l.6 .2l.3 .1c.5 0 1-.3 1.2-.7l.1-.1l-1.1 .6h.7l2.3-.1l.3-.1l1-.3l.2-.1l.2-.1l-.3 .1h.1h-.1h.1h-.2h.4c.3-.1 .6-.2 .7-.5c.2-.3 .3-.6 .2-.9l-.1-.2c-.1-.4-.5-.7-.9-.8h-.6h.1h-.6c-.3 0-.6 .1-.8 .4l-.1 .1l1.1-.3l-.5-.1h.1l-.6-.2l.2 .1l-1-.6l.1 .1l-.7-.5l.3 .3l-.5-.6l.2 .2l-.2-.3l-.1 .9l.3-.5l.1-.2l.3-1.1l-.2 .5l.6-.6c.3-.3 .4-.6 .4-1l-.2-1.4l-.4 1l1.1-.8l-.2 .1l1.2-.5l.1-.1l1.5-1l-.6 .2l2.6-.3h.2l1.5-.5h.1l1.3-.6l-.1 .1l.9-.3l.4-.2l.6-.5l-.4 .2l.6-.1h-.1l.6-.2h.4l-.5-.1l.4 .2h.7l-.5-.1l.4 .2h-.1l.5 .2l-.2-.1l.4 .3l.1 .1l.7 .5l.1 .1l.8 .4l-.2-.1l.9 .7l.3 .2l1.2 .5l-.2-.1l1.3 .7l1 .5l.3 .2l1.8 .3h-.3l1.2 .5l.4 .1l1.7 .1l1.7 .1h.9l1.4-.1l.3-.1l.7-.2l.3-.2l.7-.5l.1-.1l1-.9l1-1.1l.1-.1l1-1.5l1.3-1.8l1.2-1.7l.1-.1l1.1-2l1.1-2.1l1-1.7v-.1l.8-1.7v-.2l.5-1.6V353l.1-2v-.8c0-.6-.5-1-1-1c-.5 0-1 .3-1.1 .9c-.1 .5 .3 1 .8 1.1l.1 .1l-.7-.9v.1l.1 .3l.1 .4l-.1-.2l.1 .5l.1 .1l.2 .5l.1 .6v-.1l.1 .6v.2l.2 .4l-.1-.2v.4l.2-.4l-.6 .4l-.1 .1l-.5 .8h-.1l-.7 1.1l-.8 1.1l-.1 .3l-.2 .8c-.2 .4 0 .8 .4 1c.4 .1 .8 0 1-.4Z" class="g0_18"/>
<path d="M1093.7 343.1l-.7-.2l-.6 .1l-.6 .2l-1 .2l-.2 .1l-1.1 .5h.2l-1.2 .3l-.8 .1l-.1 .1l-.6 .2l.5-.1h-.2c-.6-.1-1.2 .2-1.4 .7v.1c-.1 .2-.1 .5 0 .7l.2 1v-.3l-.2 2.4c0 .4 .3 .8 .8 .8c.4 .1 .8-.2 .9-.7l.2-2.4l-.1 .3l.4-.8c.2-.3 .2-.6 .1-1v-.1c-.3-.5-.9-.8-1.5-.7c-.6 .2-1 .8-.8 1.4c.2 .7 .7 1.1 1.4 .9h.2l.3-.1l.7-.3h-.2l.8-.2h-.1l1.3-.4h.1l1.1-.6l-.2 .1l1-.2h.1l.7-.3l.7-.2c.4-.1 .6-.4 .6-.8c0-.4-.3-.8-.7-.8Z" class="g0_18"/>
<path d="M1086.1 387.1v.3v-.1l-.1 .4l.2-.3l-.2 .2l-.1 .1l-.2 .2l.2-.2l-.3 .2l.7-.1l-.4-.1h-.4l-.6 .1h.1l-.7 .1h-.1l-.8 .2h.1h-1.1l-1.4 .2c-.5 0-.9 .5-.8 1c0 .5 .4 .9 .9 .8l1.4-.1h-.1l1.1 .1h.2l.8-.2h.1l.8-.1l.1-.1l.6-.2l-.2 .1l.4-.1c.2-.1 .4-.2 .5-.4l.2-.3v-.1l.1-.3v.1l.1-.3l.1-.2l.1-.5v-.3c0-.3-.2-.5-.4-.6h-.2c-.1-.1-.3-.1-.4 0c-.2 .1-.3 .3-.3 .5Z" class="g0_18"/>
<path d="M1039.1 360.9l-.8 .5h.1l-1 .4c-.2 .1-.4 .3-.5 .5l-.8 1.6l.1-.3L1035 365l.1-.1l-1.7 1.4v.1l-1.3 1.3l.4-.3l-1.7 .5h.2l-1.8 .1c-.5 0-.9 .5-.8 .9c0 .5 .4 .9 .9 .9l1.8-.1h.1l1.8-.4l.5-.2l1.3-1.3l-.1 .1l1.7-1.4l.1-.1l1.2-1.3l.2-.3l.9-1.5l-.3 .3l.8-.7l.2-.2l.6-.9c.2-.2 .1-.6-.1-.8c-.2-.3-.6-.3-.9-.1Z" class="g0_18"/>
<path d="M1107 353l.6 .2l.7 .3c.2 .1 .4 0 .5-.2c.1-.2 0-.4-.2-.5l-.7-.3l-.6-.2c-.2-.1-.4 0-.5 .2c-.1 .2 0 .4 .2 .5Z" class="g0_18"/>
<path d="M1108.4 353.8l.3 .2l.2 .1l1.5 .4c.3 .1 .5 .1 .8-.1l.6-.5l-.2 .1l.9-.4l-.2 .1l1-.3l.3-.1l.4-.3c.2-.2 .3-.4 .4-.6v-.1c0-.4-.2-.8-.6-1h-.2h.1l-.6-.3c-.4-.1-.9 0-1.1 .3c-.3 .4-.2 .9 .1 1.2l.1 .1l.3 .3l.3 .2l.5 .2h.2c.3 .1 .7 .1 1-.2c.2-.2 .3-.6 .2-.9v-.1l-.3-.5l-.2-.1l-.2-.2l.3 .3l-.1-.1l-.2-.2v-.1c-.3-.2-.7-.2-1-.1c-.3 .2-.5 .5-.5 .8c0 .4 .2 .7 .5 .8l.2 .2l.3 .1l.4 .1l-.2-.1l2 .9l.3 .1l.5 .1c.3 0 .6-.2 .8-.4c.2-.3 .2-.6 .1-.9c-.2-.3-.5-.5-.8-.5l-.9-.1c-.3 0-.6 .1-.8 .3c-.1 .2-.2 .5-.2 .7v.1l.2-.7l-.1 .1l.8-.3h-.4l-1.4 .4c-.2 .1-.5 .3-.6 .6c0 .3 .1 .6 .3 .8c.2 .2 .5 .3 .8 .2l1.4-.4h-.5l.4 .1l.4-.2l.1-.1l.4-.5v-.1l-1 .8l1 .1c.3 0 .6-.2 .8-.4c.1-.3 .2-.6 .1-.9c-.2-.3-.5-.5-.8-.5l-.5-.1l.4 .1l-2-.9l-.3-.1l-.4-.1l.3 .1l-.2-.1c-.3-.2-.8-.2-1.1 .1c-.3 .4-.3 .9-.1 1.2v.1l-.1-.3v.1l.1 .2l.2 .2l.1 .2l-.2-.9v.1c-.1 .5 .2 1 .7 1.1c.5 .2 1.1-.1 1.2-.6c.2-.5-.1-1.1-.6-1.2l-.1-.1h-.1l-.5-.1l.3 .1l-.3-.2l-.4-.2h-.1c-.5-.1-.9 .2-1.1 .6c-.1 .5 .2 1 .6 1.1l.6 .3h.4l-.7-.7v.1l.3-.8l-.4 .3l.2-.2l-.9 .3l-.2 .1l-.8 .4l-.2 .2l-.6 .5l.7-.2l-1.6-.3h-.5c-.3 0-.5 .2-.6 .4c0 .3 .1 .6 .3 .7Z" class="g0_18"/>
<path d="M1423.8 519.3l.5 .1c.5 .2 .9-.1 1.1-.5c.1-.4-.1-.9-.5-1l-.4-.2c-.4-.1-.8 0-1.1 .3c-.2 .3-.2 .8 0 1.1c.3 .3 .7 .4 1.1 .3l.8-.3h-.5l.4 .1v.1h.4l-.6-.5l.1 .4l.1-.9l-.2 .3l-.2 .4v.1l.1-.2l-.2 .4l-.2 .5l.6-.5l-1.4 .5l-1.7 .5l-2.5 .6l-2.1 .4h.1l-1.9 .2h-.1l-2.3 .3h.1h-2.9l-1.1-.1h.2l-.5-.1c-.5 0-.9 .2-1.2 .5c-.3 .4-.3 .9 0 1.3c.2 .4 .7 .6 1.1 .6l.4-.1c.6-.1 1.1-.6 1.1-1.2c0-.6-.4-1.1-1-1.2l-.6-.1c-.5-.1-1 .2-1.3 .6c-.2 .4-.2 .9 .1 1.4c.3 .4 .8 .6 1.3 .4l.6-.1c.3-.1 .5-.2 .7-.4l.2-.3l-.3 .3l.3-.2l-.4 .1l1.5-.2c.3-.1 .5-.2 .7-.4l.5-.6l-.2 .2l.7-.5l-.2 .1l1-.4h-.2l1.1-.2h-.2h1.3h-.1h1.3h-.4l.9 .3l.8 .3l-.8-.7l.2 .5v-.5l-.1 .9l.1-.4l-.7 1.3l-.9 1.7l.1-.1l-1.5 2.1l-1.7 2.2l.1-.1l-1.9 2.3h.1l-2.1 2.2l-1.8 1.8l-1.6 1.7l.3-.3l-1.8 1l-1.2 .6l.2-.1l-1.2 .3h.1l-1.3 .1l.8 .2l-1-.7c-.5-.3-1.2-.2-1.5 .3c-.4 .5-.2 1.2 .3 1.5l.9 .7c.2 .1 .4 .2 .7 .2h1.3l.2-.1l1.2-.2l.3-.1l1.3-.7l1.8-.9l.3-.2l1.6-1.7l1.7-1.8h.1l2-2.3l.1-.1l1.8-2.2l.1-.1l1.6-2.2h-.1l1.5-2.1l.1-.2l.9-1.7l.7-1.3l.1-.3l.1-.8V521l-.2-.6c-.1-.3-.3-.6-.6-.7l-.7-.3l-.9-.3l-.4-.1l-1.2-.1h-1.5l-1.2 .2l-.2 .1l-1 .4l-.2 .1l-.8 .5l-.2 .2l-.5 .5l.7-.3l-1.4 .2l-.5 .1l-.3 .2l-.4 .3l-.2 .3l.6-.4l-.7 .1c-.5 .2-.9 .7-.9 1.3c.1 .6 .5 1.1 1.1 1.2h.7c.4 .1 .9-.2 1.1-.6c.3-.4 .2-1-.1-1.3c-.3-.4-.8-.6-1.3-.4l-.4 .1c-.6 .2-.9 .8-.8 1.4c.2 .6 .8 1 1.4 .9l.5-.1h-.2h1.1l1.4-.1h1.7l2.3-.4v.1l1.9-.3h.1l2.1-.4h.1l2.5-.6l.1-.1l1.7-.5l1.4-.6c.3-.1 .5-.3 .5-.6l.2-.5l.1-.4V519l-.1 .6l.2-.3c.1-.2 .2-.5 .1-.7l-.1-.4c-.1-.3-.3-.5-.6-.5l-.3-.2l-.4-.1c-.2-.1-.4-.1-.6 0l-.9 .3c-.4 .2-.6 .6-.5 1c0 .4 .4 .7 .8 .8h.5c.3 0 .6-.2 .7-.5c.2-.3 .1-.6-.1-.9c-.2-.2-.5-.3-.9-.2l-.5 .1c-.2 .1-.4 .4-.4 .6c0 .3 .2 .6 .4 .7Z" class="g0_18"/>
<path d="M1419.5 497.4l-.3 .3l-.6 .7v-.1l-.9 .9l.4-.2l-1.6 .6l-1.7 .7l.4-.1l-2.2 .1h.2l-2.4-.3h-2.3h.2l-2.1-.4h-.1l-1.9-.2l-.1-.1h-2c-.5 0-1 .4-1 .9c0 .6 .4 1 .9 1.1l2 .1h-.2l1.9 .5l2.1 .5h.2l2.2 .1l2.3 .2h.2l2.1-.1l.4-.1l1.7-.6h.1l1.6-.7l.4-.2l.9-.9V500l.6-.6l.3-.3c.4-.4 .4-1.2-.1-1.7c-.4-.4-1.2-.4-1.6 0Z" class="g0_18"/>
<path d="M1382.6 500.5l-.4 .9l-.1 .3v1.1l.5 1.6v-.1l.3 1.6l.1 .3l1.4 2.2l1.4 2.5v-.2l.8 2.3l.1 .2l1.3 2.2l1 1.9v-.1l.7 1.4v.1l.9 1.4l.8 1.3l.6 1.2v-.1l.5 1l.5 .7c.2 .4 .8 .6 1.3 .3c.4-.2 .6-.8 .4-1.3l-.4-.7l.1 .2l-.3-1l-.1-.2l-.6-1.2l-.8-1.4l-.9-1.4l-.7-1.3l-1.1-1.9l-1.4-2.2l.1 .2l-1-2.3l-.1-.1l-1.5-2.5l-1.5-2.2l.2 .3l-.4-1.6l-.1-.1l-.6-1.5v.1l-.2-.9v.3l.2-.9c0-.3-.1-.5-.4-.6c-.2-.1-.5 0-.6 .2Z" class="g0_18"/>
<path d="M1380 485.8c-.5 0-.8 .3-1 .7l-.1 .2l.5-.7l-.1 .1h-.1l-.2 .2l-.3 .3l-.1 .3l-.2 .5l-.1 .1l-.5 2v.4l.2 1.1v-.1l.2 1.1v-.2l-.2 1.3c0 .4 .3 .9 .7 1c.5 0 .9-.3 1-.7l.2-1.4v-.2l-.1-1.1v-.1l-.2-1.1v.5l.5-2l-.1 .1l.3-.6l-.2 .3l.3-.3l-1.2 .2l.5 .1h.2l-1-.7l.1 .1c.2 .5 .5 .7 1 .7c.4 0 .7-.2 .9-.5c.2-.3 .2-.7 0-1.1c-.2-.3-.5-.5-.9-.5Z" class="g0_18"/>
<path d="M1356.3 520.6l.2 .3c.2 .3 .4 .4 .7 .4h.4c.2 0 .4-.1 .6-.2l.5-.6l-.1 .1l.9-.6v-.1l1.1-1l-.2 .1l1.6-1h.1l1.3-1l.1-.1l1-.9l-.3 .2l1.3-.5c.4-.2 .6-.5 .6-.9v-.4l-.6 .9l.2-.1h-.8l.2 .1c.4 .2 .8 .1 1.1-.2c.3-.3 .4-.7 .3-1.1c-.1-.4-.5-.6-.9-.7h-.5c-.3 0-.6 .1-.8 .3l-.3 .3l-.2 .5l-.3 .7l.2-.4l-.8 1l-.1 .2l-.7 1.2l.2-.3l-1 1l.3-.2l-1.6 .6l-.2 .1l-1.1 .7l.4-.2l-1.7 .4h-.2l-1.2 .5h.1l-1.3 .3h.2h-1.8l-1.1 .4l.2-.1l-1 .2h-.1l-.8 .2h.3h-1.4h.2l-.3-.1c-.3 0-.7 0-1 .2l-.1 .1c-.4 .3-.5 .8-.4 1.3l.1 .3l.1-.9l-.2 .4h-.1l-.3 .6l-.1 .5v2l.2 1.2v.2l.6 1.6l-.1-.1l.2 1.2l.1 .1l.3 1.5l.1 .2l.7 1.9l.1 .1l.7 1.6v.1l1.1 2v-.1l.8 1.5l.1 .2l.9 1.2l1 1.2l.1 .1l.7 .7v.1l.8 .7l.2 .2l.3 .2l-.4-.5l.1 .3c.3 .4 .8 .6 1.2 .5c.5-.2 .8-.7 .7-1.2l-.1-.2l-.1-.3l-.1-.3l-.2-.2l-.7-.8v-.1l-.7-.7l-.9-1.2h-.1l-.9-1.2l.1 .2l-.8-1.4v-.1l-1.1-2v.1l-.7-1.5h.1l-.8-2v.2l-.4-1.5l-.2-1.2v-.2l-.6-1.6v.2l-.1-1.1v.1v-1.9l-.1 .6l.3-.5h-.1l.3-.3c.2-.3 .3-.6 .2-.9l-.1-.4l-.5 1.3l.1-.1l-.9 .1l.4 .1h2l.8-.2h-.2l1-.1l.2-.1l1.1-.3h-.3h1.5l.2-.1l1.4-.3l.1-.1l1.3-.5h-.2l1.6-.3l.4-.2l1.1-.8l-.2 .1l1.5-.6l.3-.2l1.1-.9l.2-.3l.7-1.3l-.1 .2l.8-1l.2-.3l.2-.8l-.3 .5l.3-.3l-.8 .3h.5c.5 0 1-.3 1.1-.8c.1-.5-.1-1-.6-1.2l-.2-.1c-.3-.1-.7-.1-.9 .1l-.2 .1c-.3 .2-.5 .5-.5 .9v.4l.6-1l-1.2 .6l-.4 .2l-.9 .9v-.1l-1.3 1h.1l-1.6 1l-.2 .1l-1 1.1l.1-.1l-.9 .7l-.1 .2l-.4 .5l.3-.2l-.3 .2l.6-.1l-.4-.1c-.2-.1-.5-.1-.7 .1c-.2 .2-.2 .5-.1 .8Z" class="g0_18"/>
<path d="M1336.2 540.9l.1 .6c0 .4 .2 .8 .6 .9c.4 .1 .8 0 1.1-.3c.2-.3 .3-.7 .1-1.1v-.1c-.3-.5-.9-.7-1.4-.5c-.5 .2-.8 .8-.6 1.3c.2 .5 .8 .8 1.3 .6h.3c.5-.2 .8-.7 .7-1.2l-.1-.2v-.1l.1 .1l-.6 1.1l.4-.1l.1-.1l1.2-.8l.1-.2l2.4-2.2l.1-.3l.4-.6l-.7 .5l.8-.2c.3 0 .5-.3 .7-.5l.1-.4l-1 .6h.5l-.3-.1l.5 .4l-.3-1.3l-.3 .5l.2-.3l-.8 .8l-.1 .1l-1.1 1.3h-.1l-1.2 1.6l-1.3 1.8l-.1 .2l-.9 1.9v-.1l-1.2 2v-.1l-1.4 1.6h.1l-1 1.1l-.2 .2l-.8 1.3l.8-.5l-.6 .1h.7l-.5-.2l.4 .3l-.6-.7l.2 .3l-.7-1.1h.1l-.8-1.5l-.4-1.1v.1l-.4-1.2v.1l-.2-1.1v.3v-.2c0-.5-.3-1-.9-1.2c-.5-.1-1 .1-1.3 .6c-.3 .5-.2 1.1 .2 1.4l.1 .2l.2 .1l.1 .1c.5 .4 1.1 .3 1.6-.1c.4-.3 .5-1 .2-1.5c-.3-.5-.9-.7-1.5-.5l-.1 .1c-.3 .1-.6 .4-.7 .7l-.1 .4v-.1l-.9 2.4v.1l-.6 1.8l.1-.2l-.9 1.7l.2-.4l-1.5 1.5l.2-.2l-1.6 1.1h-.1l-1.3 1l.3-.2l-1.5 .7v-.1l-1.2 .4h.2l-1.2 .2l.7 .1l-1.4-.4l.2 .1l-.9-.5l.4 .3l-.7-.9l-.7-.9l.1 .3l-.6-1.5l-.2-.3l-.5-.6l.2 .1l-.7-1.1l.1 .1l-.7-1.7l-.1-.1l-.6-1.2v-.1l-1.2-2.3l-.1-.2l-.9-1.5l-.2-.2l-1.4-1.4l-.1-.1l-1.4-1.2h-.1l-1.5-1.1l-1.5-1h.1l-1.2-.8V536l-1.5-1l.3 .3l-.4-.4l-.1-.2l-1.3-1l.2 .1l-.6-.7l-.1 1.2l.7-.6c.4-.2 .4-.7 .1-1.1c-.2-.3-.7-.4-1.1-.2l-.8 .5c-.3 .3-.4 .7-.3 1.1l.3 .8l.2 .4l1.2 1.1l-.3-.4l.2 .5c.1 .2 .2 .4 .4 .6l1.4 1l1.1 .9v.1l1.5 1.1l1.5 1.1l-.2-.1l1.4 1.2l-.1-.1l1.4 1.5l-.2-.3l.9 1.5v-.1l1.2 2.4l.6 1.3v-.1l.7 1.7v.1l.6 1.1l.2 .2l.4 .7l-.1-.3l.7 1.6l.2 .3l.7 .8l.8 1l.5 .3l.9 .5l.3 .1l1.4 .3c.2 .1 .4 .1 .6 0l1.2-.2l.1-.1l1.2-.4l.1-.1l1.5-.6l.3-.2l1.3-1h-.1l1.5-1l.2-.1l1.5-1.5l.2-.3l.9-1.7l.1-.2l.5-1.8v.1l.9-2.4v-.1l.2-.4c.2-.6-.1-1.2-.7-1.4c-.6-.3-1.3 0-1.5 .7c-.3 .6 0 1.2 .6 1.5h.1c.6 .2 1.2 0 1.5-.6c.3-.5 .2-1.1-.3-1.5l-.2-.1l.1 .1l-.1-.1c-.4-.4-.9-.5-1.3-.3c-.5 .2-.8 .6-.8 1.1v.2l.1 .2l.2 1.1v.1l.4 1.2v.2l.5 1v.1l.8 1.6v.1l.7 1.1l.2 .2l.6 .6l.4 .3l.6 .2c.2 .1 .5 .1 .7 0l.5-.1c.3-.1 .5-.3 .7-.6l.7-1.3l-.1 .2l1-1.1v-.1l1.4-1.7l.1-.1l1.2-2l.1-.2l.8-1.9l-.1 .2l1.3-1.9l1.2-1.5h-.1l1.1-1.3l-.1 .1l.9-.8l.1-.2l.3-.5c.3-.4 .1-1-.3-1.2l-.5-.4l-.3-.1l-.6-.2c-.4-.1-.8 .1-1.1 .5l-.1 .4l.6-.5l-.7 .1c-.3 .1-.6 .3-.7 .5l-.4 .6l.2-.2l-2.3 2.3l.1-.1l-1.2 .8l.1-.1l-.3 .2c-.3 .2-.5 .4-.5 .7v-.1v.1l-.1 .2l.7-.8h-.2c-.4 .2-.7 .6-.7 1c-.1 .4 .2 .8 .6 1l.1 .1c.5 .2 1.1 0 1.3-.5c.2-.4 .1-1-.3-1.3l-.6-.3c-.2-.1-.5-.1-.7 0c-.2 .1-.3 .3-.3 .6Z" class="g0_18"/>
<path d="M1327.9 525.5l-.3 .7l-.1 .3v.5l.3-.7l-.2 .2c-.1 .2-.2 .5-.3 .7v1V528l-.1 1.3l.2-.5l-.7 .9h.1l-.8 1.1l.7-.5l-1.4 .3l.2-.1H1324l-1.3 .1h.3l-1.1-.1h-1h.3l-.9-.3l.5 .4l-1.6-1.9c-.3-.3-.9-.4-1.3-.1c-.4 .3-.5 .9-.2 1.3l1.5 1.9l.3 .3l.8 .5l.4 .1l.8 .2h.1l1.1 .1h.2l1.3-.1h-.1h1.6l1.4-.3c.3-.1 .6-.2 .7-.5l.8-1.1l.7-1l.1-.5l.1-1.2v-1.1v.4v-.2c.2-.3 .1-.6 0-.8l-.1-.4v.2l-.1-.7c0-.4-.3-.6-.6-.6c-.4-.1-.7 .1-.8 .4Z" class="g0_18"/>
<path d="M1307.9 518.2l-.2 .3c-.1 .1-.2 .4-.1 .6v.6v-.3l-.2 .8v.1l-.1 1.2v-.1l-.2 .8l.1-.1l-.2 .6v-.1v.1l.3-.4l-.1 .1c-.4 .2-.5 .6-.5 1v.2c.1 .7 .6 1.2 1.3 1.1c.7 0 1.2-.6 1.2-1.2c0-.7-.6-1.3-1.3-1.2l1 .5v-.1c-.2-.3-.5-.4-.8-.5l-.5-.1l-2.3-.5H1304l-1.3 .1l-.6 .2l-.8 .6l.3-.1l-1.2 .5h-.1l-1.5 .8h-.1l-1.3 .9l.5-.2l-1.9 .3h-.2l-1.6 .5h.2l-1.5 .2h.3l-1.3-.2c-.5 0-.9 .3-1 .8c-.1 .5 .3 1 .8 1.1l1.2 .2h2l1.5-.5h-.2l2-.2l.4-.2l1.3-.9l-.1 .1l1.5-.8l-.1 .1l1.2-.6l.2-.1l.8-.6l-.6 .2h1.3h-.2l1 .1h-.1l2.3 .5h-.1l.5 .2l-.8-.8v.1c.2 .5 .7 .8 1.2 .8c.6 0 1.1-.3 1.3-.9c.1-.5-.1-1.1-.6-1.4l-.2-.1c-.5-.3-1.2-.2-1.5 .4c-.4 .5-.2 1.2 .3 1.5c.5 .4 1.2 .2 1.6-.3l.1-.1l.1-.4l.1-.2l-.1 .1l.2-.5v-.1l.2-.9v-.1l.1-1.1v.1l.2-.8V519l-.2 .5l.2-.2c.2-.5 0-1.1-.4-1.4c-.5-.3-1.1-.1-1.4 .3Z" class="g0_18"/>
<path d="M1278.1 560.5l.7 .3c.3 .1 .5 0 .7-.1l1.1-.8l.2-.3l.8-1.3l.2-.4l.2-2v.3l.5-1.2l-.1 .1l.4-.5v-.1l.2-.5l.2-.5l.1-2.6v.1l.4-2.4l-.4 .7l1.3-1.2l.2-.4l.5-.9l-.1 .1l.4-.6l-.6 .5l.9-.3c.3-.1 .5-.4 .7-.7l.2-.5l-1.2 .8h.3l-.5-.1l.3 .1c.6 .4 1.4 .1 1.7-.5c.3-.6 .1-1.3-.5-1.7l-.3-.1c-.5-.3-1.2-.2-1.6 .3c-.3 .6-.2 1.3 .2 1.7l.2 .1l.3 .2l.3 .1l-.8-.8l.3 .7l.1 .3l.7 .9l-.3-.7v.8l.1 1.2l.2-.7l-.3 .4l-.5 .8l.3-.3l-.9 .7l-.2 .2l-.5 .8l.5-.5l-1.3 .5l-.5 .4l-.7 .8l.7-.4l-1.2 .2h.3l-1.8-.2c-.3 0-.6 .1-.8 .2l-.8 .5l.8-.2l-1.2-.1c-.3 0-.5 .1-.7 .2l-.4 .2l.2-.1l-.5 .3l-.5 .3l-.3 .4l.1-.1l-.4 .4l-.3 .5l-.3 .8l-.1 .3l-.1 1.1l.1-.3l-.4 1v.1l-.3 1.2v.1l-.2 1l.2-.5l-.5 .8l.2-.2l-.7 .7l-.7 .6l.4-.2l-1 .4l-.3 .2l-.8 .7l.3-.2l-1 .4h.2l-1.1 .3h-.2l-1 .5l.2-.1l-1.1 .3h.3h-1.4h.1h-1.4l.5 .1l-1.1-.4l-1.3-.4l.3 .1l-.6-.4l-.6-.4l.3 .2l-.7-.7l.1 .2l-.4-.8l.2 .8l.1-1.3l.2-1.4l-.2 .5l1-1.9h.1l1.1-2.4l1.2-2.8c.3-.5 0-1.1-.4-1.4c-.5-.2-1.1 0-1.4 .5l-1.3 2.8v-.1l-1.3 2.3l.1-.1l-1.2 1.7l-.2 .5l-.3 1.4l-.2 1.3c-.1 .3 0 .6 .1 .9l.4 .8l.2 .3l.6 .7l.3 .3l.7 .5l.7 .4l.3 .1l1.3 .4l1 .4h3.2l.3-.1l1.1-.3l.2-.1l1-.5l-.1 .1l1-.3l.2-.1l1-.5l.3-.1l.8-.8l-.3 .3l1-.5l.3-.3l.7-.6l.7-.7l.2-.2l.5-.8l.1-.5l.2-1v.1l.3-1.2l-.1 .1l.4-1l.1-.2l.1-1.1l-.1 .3l.3-.8l-.3 .5l.4-.4l.1-.1l.3-.3l-.4 .3l.5-.2l.1-.1l.3-.2l-.7 .2h1.2c.3 .1 .5 0 .8-.2l.7-.5l-.8 .3l1.8 .1h.3l1.2-.2c.3-.1 .6-.2 .8-.4l.7-.9l-.4 .3l1.3-.5c.2-.1 .4-.3 .5-.5l.5-.7l-.2 .2l.9-.7l.2-.3l.5-.8l.3-.5c.1-.2 .1-.4 .1-.6v-1.9c0-.3-.1-.5-.3-.8l-.6-.8l.2 .3l-.2-.6c-.2-.4-.4-.6-.7-.8h-.3l.5 .3l-.1-.2c-.3-.3-.8-.5-1.3-.4c-.4 .2-.8 .5-.9 1c-.1 .4 .1 .9 .5 1.2l.2 .2c.4 .3 .9 .4 1.3 .2c.4-.2 .7-.6 .8-1c0-.5-.2-.9-.6-1.2l-.3-.2l-.4-.2l-.3-.1c-.6-.2-1.2 .1-1.5 .6l-.3 .4l.8-.5l-.9 .3c-.3 .1-.5 .2-.7 .5l-.4 .6l-.1 .2l-.5 1l.3-.3l-1.2 1.2c-.2 .2-.3 .4-.3 .7l-.3 2.4v.1l-.1 2.7l.1-.3l-.2 .6v-.1l-.2 .6l-.5 1.2v.3l-.2 2l.1-.3l-.6 1.4l.1-.3l-.9 1l.5-.2l-.8 .1c-.2 0-.5 .2-.5 .5c0 .3 .1 .5 .4 .6Z" class="g0_18"/>
<path d="M1276.7 535.4v.1l.2 .4l.4 .6l-.2-.8l-.1 .7c0 .3 0 .5 .1 .7l.5 1.1h.1l.7 1.4l.1 .2l.5 .7l.5 .3l.8 .4c.3 .1 .6 .2 .9 0l1.2-.4c.6-.2 .9-.9 .7-1.5c-.2-.6-.9-.9-1.5-.7l-1.2 .4l1.1 .2l-.7-.5l.3 .3l-.4-.7v.1l-.7-1.4v.1l-.5-1.1l.1 .6v-.7c.1-.4-.1-.7-.3-1l-.5-.5c-.3-.3-.7-.5-1.1-.4h-.1c-.3 .1-.6 .3-.8 .5c-.1 .3-.2 .6-.1 .9Z" class="g0_18"/>
<path d="M1164.6 620.2l-2.3 1.3h.7c-.3-.2-.6-.2-.8 0c-.2 .1-.3 .4-.2 .7v.1c.2 .4 .5 .6 .9 .6c.4 0 .7-.2 .9-.5c.1-.3 .1-.5 0-.8v-.1v.3v-.3v.2v-.1c0-.5-.3-1-.9-1.2h-.1l-.1-.1h-.1l.4 .1l.2 .2l-.1-.1c-.2-.2-.5-.3-.9-.3l-.1-.1h-.1l-.6 .2l-.4 .2h-.1l-.2 .3l-.3 .4l-.2 .4l.3-.3l-1.7 1.4l.3-.2l-.6 .3l-.4 .3l-.6 .5l.1-.1l-.7 .6l.2-.1l-.9 .5l.4-.2l-1.1 .3l-.1 .1l-1 .3l-.1 .1l-1.1 .5l.4-.1l-1.5 .2l-.4 .2l-1.3 .6l-1.7 .8h.1l-1.9 .7l-.2 .1l-1.9 1.2l-2.1 1.3l.2-.1l-2.6 1.1h-.1l-1.7 .9l-1.7 .8l.1-.1l-3.3 1.3L1130 636l-3.1 1.1h-.1l-2.7 1.2l.2-.1l-3.1 .9l-3.1 .8v.1l-3.2 .9h.3l-3.7 .5l-.2 .1l-3.2 1l.3-.1l-3.5 .6h-.1l-3.2 .8l-3.4 .9l-3.2 .9l-3.5 .9h.1l-3.5 .6l-.1 .1l-3.3 .9h.1l-3.6 .7l-3.6 .8l-.3 .1l-3.6 1.5l.2-.1l-4 .9l-4 1h.1l-4.5 .7h.2l-5 .2l-5 .4l-5 .3h-.2l-4.8 .8l.2-.1l-4.9 .3h.1h-5.3l-5.2 .2h.1l-5.4-.1h-5.7l-5.3 .7l-5.6 .5h.1l-5.8 .5h-.2l-5.7 1H993l-5.8 1.2l.1-.1l-6 1h-.1l-6.3 1.2h.1l-6.1 .9l-6.3 .7h-.1l-6.1 .9l-5.8 .7l-6.6 .8l-6.3 .8l-6.5 .8h.1l-7 .5h-.1l-6.1 .7h.1l-6.7 .1l-6.5 .2h-.1l-6.1 .3l-6.1-.1h-.1l-6 .2l-6.1 .1l-5.9 .1l-6.2 .4h.1l-5.9 .1h-.1l-5.6 .5h.2h-12h.1l-5.9-.1l-5.9-.2l-6-.2l-6-.3l-5.8-.3h.1l-6.3-.6l-5.7-.4h.1l-6.4-.7v-.1l-6.5-.5l-6.2-.6l-6.2-.5l-6.1-.4l-6.4-.6h-.1l-6.3-.4h.1l-6.6-.7l-6.3-.7l-5.7-.7l-5.7-.7l-5.8-.7h.1l-5.8-1v.1l-5.6-1l-5.9-1.1h.1l-6-1.3l-5.8-1.4l-6.2-1.4h.1l-6.1-1.6h-.1l-5.7-1.2h-.1l-5.9-1h.1l-5.2-1l-5.3-1.2l.1 .1l-5.4-1.6h.1l-5.4-1.8v.1l-5.3-1.9l.1 .1L646 641l.1 .1l-4.6-2.2l.1 .1l-4.5-2.4l-4.4-2.3l-5-2.7l-4.3-2.3l-4.1-2.3v.1l-4.1-2.5l-4.1-2.4v.1l-4.1-2.6v-.1l-4.3-2.7l.1 .1l-4.4-2.9l-4.1-2.7l-4-2.5v-.1l-4.2-2.5h.1l-3.5-2.4h-.1l-4.3-2.6v-.1l-3.9-2.3h.1l-3.7-2.4l-4.4-2.8l.1 .1l-2.9-2.2l-.1-.1l-3.9-2.7v-.1l-4.1-2.6l-3.9-2.5l-4.6-2.8h.1l-3.7-2.5h.1l-3.7-2.7h.1l-3.2-2.6h.1l-3-2.6h.1l-2.6-2.6l-2.2-2.4l-2.3-2.4l-2.1-2.1v-.1l-2.1-2l.1 .1l-2-2.1l.1 .1l-1.3-1.7l-.1-.2l-2.1-2.1h-.1l-2.1-2l-2-1.6v-.1l-2.4-1.9h.1l-1.6-1.5l.1 .1l-1.2-1.3l-1.1-1.1v-.1l-.8-.9h-.1l-.8-.8l-.1-.1l-1-.8l.1 .1l-1-.9l-.1-.1l-.8-.7l.4 .6l-.3-.6h.1l-.3-.4l.2 .5V539c-.2-.8-1.1-1.5-2-1.4c-.9 .1-1.6 .9-1.6 1.8v.1c0 .8 .6 1.5 1.4 1.7c.9 .2 1.7-.2 2-1c.4-.8 .1-1.7-.5-2.1l-.2-.2c-.8-.5-1.9-.4-2.5 .4c-.6 .8-.4 1.9 .4 2.5l.1 .1c.6 .4 1.3 .5 1.9 .2c.6-.3 1-1 1-1.6v-.1c0-.7-.4-1.3-1-1.6c-.6-.3-1.3-.2-1.9 .2c-.5 .4-.8 1.1-.6 1.7v.3l.2 .4l.2 .4v.1l.3 .5c.1 .2 .3 .4 .4 .6l.9 .7l-.1-.1l1 .9l.1 .1l.9 .8l-.1-.1l.8 .7l.9 .9h-.1l1.1 1.1l1.2 1.3l.1 .1l1.5 1.5l.1 .1l2.5 2h-.1l2 1.6h-.1l2.1 1.9l-.1-.1l2.1 2.1l-.1-.1l1.3 1.7l.1 .1l2 2.1l.1 .1l2 2v-.1l2.1 2.2l2.2 2.3l2.3 2.4l2.5 2.7l.1 .1l3 2.7h.1l3.1 2.6l.1 .1l3.7 2.7v.1l3.7 2.5h.1l4.5 2.9l3.9 2.4l4.1 2.7l-.1-.1l3.9 2.8l2.9 2.2l.1 .1l4.4 2.7l3.6 2.5h.1l3.9 2.4l4.3 2.5h-.1l3.5 2.4l.1 .1l4.2 2.5h-.1l4 2.5l4.1 2.7l4.3 2.9h.1l4.3 2.7h-.1l4.2 2.6v.1l4.2 2.3l4.1 2.5l4.1 2.2h.1l4.3 2.4l5 2.6l4.4 2.3L640 642v.1l4.6 2.1h.1l4.5 1.8l.1 .1l5.3 1.8l5.4 1.8l5.5 1.5l.1 .1l5.3 1.1l5.2 1.1l5.9 1v-.1l5.7 1.2h-.1l6.1 1.6l6.2 1.4l5.8 1.4l6.1 1.4l5.9 1.1l5.6 .9h.1l5.8 .9l5.7 .8l5.8 .7h-.1l5.8 .7l6.4 .7l6.5 .6l.1 .1l6.3 .4h-.1l6.6 .6l6 .4l6.2 .5l6.2 .6l6.5 .6H797l6.4 .7l5.8 .5h-.1l6.3 .5l5.8 .3l6 .3h.1l5.9 .3h.1l5.9 .2h18l5.6-.4h-.1l5.9-.2l6.2-.4h-.1l5.9-.1h-.1l6.1-.1h.1l6-.2h6.2l6.2-.3H905l6.6-.1l6.7-.2h.2l6.1-.7h-.1l7-.5h.1l6.5-.7v-.1l6.3-.8l6.6-.8l5.9-.8l6.1-.9h-.1l6.4-.7h.1l6.1-.9v-.1l6.3-1.1l6-1l5.9-1.2h-.1l5.8-.9h-.2l5.8-.5l5.6-.5h.1l5.3-.7h-.2h5.4l5.4 .2h.1l5.2-.2h-.1h5.4l4.9-.2h.2l4.7-.8h-.2l5.1-.2l5-.4l5-.2h.2l4.4-.8h.2l4-1l4-.9l.3-.1l3.6-1.5l-.3 .1l3.6-.8l3.6-.8h.1l3.3-.9h-.2l3.6-.6h.1l3.5-1h-.1l3.3-.9l3.3-.9l3.2-.7h-.2l3.5-.6h.2l3.2-1h-.3l3.7-.5l.2-.1l3.2-1l-.1 .1l3.1-.9l3.1-.9l.3-.1l2.6-1.1h-.1l3.1-1.1h.1l3.6-1.5l3.3-1.3l.1-.1l1.7-.8l1.7-.8l2.6-1.2l.2-.1l2.1-1.3h-.1l1.9-1.2l-.2 .1l1.9-.7h.1l1.7-.9l1.3-.6l-.4 .1l1.5-.3l.4-.1l1-.5h-.1l1-.3h-.2l1.1-.3l.4-.2l.9-.5l.2-.2l.7-.6l.6-.6l-.4 .3l.6-.3l.3-.2l1.7-1.5l.3-.3l.2-.4v.1l.2-.4l-.1 .1h.1l-1.7 .4l.6 .1h.2c.4 0 .7-.1 .9-.3l.1-.1l-.2 .1l-.4 .1h.3l.1-.1h.1l-.7 .1h.4l-.4-.1l.1 .1c.3 .1 .6 .1 .8-.1c.4-.2 .6-.6 .5-1c0-.4-.4-.7-.8-.8c-.4 0-.8 .3-1 .7v.1c-.1 .2 0 .5 .2 .7c.2 .1 .5 .1 .8 0v-.1l-.1 .1l2.2-1.5c.3-.1 .4-.4 .2-.7c-.1-.2-.4-.3-.7-.1Z" class="g0_18"/>
<path d="M495 557.4h-.6l-.2 .1h-.5h.3h-.1c-.5 0-1 .3-1.1 .8c-.1 .5 .3 1 .8 1.1h.2h-.1l.4 .1l.3 .1c.4 .1 .8 0 1.1-.3c.2-.2 .3-.6 .1-1c-.1-.3-.5-.6-.9-.6h-.1l.2 .1l-.5-.2l.4 .2l-.3-.2c-.5-.4-1.2-.3-1.6 .3c-.4 .4-.4 1.2 .1 1.6c.5 .4 1.2 .4 1.7-.1v-.1l-.8 .4h.6c.4-.1 .7-.2 1-.5c.2-.3 .3-.7 .2-1.1v-.2l-.1-.3l-.2-.6l.1 .2l-.3-1.1l-.1-.1l-.6-1.6l.1 .7l.2-1.8v.3l.5-1.6l-.1 .2l.6-1.4c.1-.3 .2-.6 .2-.9l-.3-2v.1l-.1-2.1v-.2l-.5-2.3v.4l.3-2.4l-.2 .5l1-1.8l.1-.3l.6-2.1l-.2 .4l1.3-2c.2-.2 .2-.5 .2-.9v-4.5l-.3 .9l.6-1c.2-.2 .2-.5 .3-.7v-.8l-1.6 1.5h.3l-.9-.3l.8 .6l-.7-1.6v.2c-.1 .6 .2 1.2 .7 1.5c.5 .4 1.2 .4 1.7 .1c.6-.4 .9-1 .8-1.6v-.2c0-.4-.2-.8-.6-1.1l-.1-.1l.3 .4v-.1h-.1v-.1c-.1-.2-.3-.3-.5-.5h-.1l.4 .3l-.1-.1l-.3-.2v-.1l-.2-.1c-.6-.3-1.3-.3-1.8 .1c-.5 .3-.8 1-.7 1.6c.1 .7 .6 1.2 1.2 1.4h.1l-.7-.4l1.3 1.2l.1 .1l4.1 3.1h.1l2.6 1.8h.1l2.7 1.6h.1l3.2 1.6h.1l3.3 1.5h.1l3.1 1.3l.2 .1l2.4 .7l.5 .1H522c.9 0 1.7-.7 1.7-1.6c0-.9-.8-1.6-1.7-1.7h-1.4l.6 .1l-2.4-.8l-3.1-1.3l-3.4-1.5h.1l-3.2-1.5h.1l-2.7-1.5l.1 .1l-2.6-1.8v.1l-4.1-3l.2 .1l-1.4-1.2l-.1-.1v-.1c-.7-.5-1.6-.4-2.2 .1c-.6 .5-.7 1.4-.3 2.1l.1 .2h.1l.2 .3l.1 .1l.5 .3h.1l-.3-.2v.1h.1l.2 .2l-.7-1v.3c.3 .8 1.1 1.3 1.9 1.1c.9-.2 1.4-1 1.3-1.8v-.2c-.1-.4-.3-.8-.7-1.1l-.7-.5c-.3-.2-.6-.2-1-.2h-.3c-.8 0-1.5 .6-1.6 1.5v.7l.2-.7l-.6 1c-.1 .2-.2 .5-.2 .8V533l.1 2.3l.2-.9l-1.2 2l-.2 .4l-.6 2.1l.1-.2l-1 1.8l-.2 .6l-.2 2.4v.4l.5 2.4v-.2l.1 2.1l.3 2.1l.1-.8l-.6 1.4l-.1 .2l-.5 1.6l-.1 .3l-.1 1.9c0 .2 0 .4 .1 .7l.6 1.5V557l.4 1.1l.1 .2l.3 .5l.1 .1l.1 .2c.4 .6 1.2 .7 1.8 .4c.6-.4 .8-1.1 .5-1.8c-.3-.6-1-.9-1.6-.7l-.6 .2c-.4 .2-.7 .5-.8 1c-.1 .4 0 .8 .3 1.1v.1c.2 .2 .5 .3 .8 .3l.3 .1h.7l.4-.2h.2c.4-.2 .6-.6 .5-1c-.1-.5-.4-.8-.8-.8l-.3-.1h.1l-.4-.1h-.1l-.3-.1c-.4 0-.7 .1-.9 .4c-.2 .3-.2 .7 0 1c.1 .4 .5 .5 .9 .5l.1-.1h.2l.5-.2h.1l.6-.3c.3-.2 .4-.5 .3-.8c-.1-.4-.3-.6-.7-.6Z" class="g0_18"/>
<path d="M875 359.8l-.1 .1c-.3 .2-.4 .7-.2 1.1c.2 .3 .6 .5 1 .3c.4-.1 .6-.5 .5-1v-.1c-.1-.4-.4-.6-.8-.7c-.3 0-.7 .2-.9 .5c-.1 .3-.1 .7 .2 1l.2 .2l.2 .2l.3 .1l.1 .1l1 .5l2.4 1l.4 .1h1.6h-.2l2.3 .5l.3 .1h2.2l2.6 .1h-.2l3.1 .7h.1l2.7 .4l-.3-.1l3.3 1.3l3.2 1.2l3.3 1.3h-.1l3.2 1.5h.1l3.3 1.1h-.1l2.9 1.1h-.1l2.6 1.2l2.5 1.2l-.2-.1l2.2 1.6l.2 .1l2.4 1.3l-.1-.1l1.9 1.5h.1l2.5 1.6l1.6 1l-.1-.1l1.1 .8l-.1-.1l.6 .4l.5 .4v.1l1.9 1.3v-.1l1.1 .8l1 .8l.5 .4c.2 .2 .5 .3 .8 .3h.1l-.6-.2l.2 .1c.5 .3 1 .3 1.4 0c.4-.3 .6-.8 .5-1.3c-.1-.5-.6-.9-1.1-.9h-.3l1 .6v-.1l.1 .3v-.1c-.1-.2-.3-.5-.5-.6l.4 .6l-.1-.6v.2l-.3-2.7v.1l.1-1.3v-.1l-.2-1.5v-.1l-.2-1.5l-.1-1.2v.1l-.1-1.4v.1l-.1-1.2l-.1 .6l.3-.5V374l.2-.2l.1-.5v-.2c0-.5-.3-.9-.8-.9c-.5 0-.9 .3-.9 .8c0 .5 .3 .9 .8 .9l.3 .1c.5 0 .9-.4 .9-.9c.1-.4-.2-.9-.7-.9c-.5-.1-1 .2-1 .7l-.1 .1c0 .2 .1 .5 .2 .7c.2 .2 .5 .3 .7 .3l.3 .1l-.9-.6l.3 .6V374l.2 .7l-.1-.3l.1 .8l.1 1.1l.1 1.2l.3 1.3l.3 1.8v.1l.4 1.5l-.1-.1l.1 1.4l.3 1.7l.1 1.2l.2 1.3v.1l.2 1v.1l.1 .6v-.6v.2l-.1 .2v.2c-.1 .6 .3 1.2 .9 1.3c.5 .2 1.2-.2 1.4-.7c.1-.6-.1-1.2-.7-1.5l.4 .3l-.4-.3l-.1-.1l.7 1c0-.5-.4-.9-.9-1.1l-.7-.3l-2.8-.8l.1 .1l-2-.9l.3 .1l-2.7-1.7l-.2-.1l-2.3-1h.2l-2.9-1.7l-2.8-1.8l.1 .1l-2-1.5c-.5-.4-1.1-.3-1.5 .2c-.3 .4-.3 1.1 .2 1.4l1.9 1.6l.1 .1l2.7 1.9l2.7 1.9l.2 .1l2.3 1.1h-.2l2.7 1.7l.2 .1l2 .8l.1 .1l2.8 .8h.1l.7 .2h.2c.3 .1 .5 0 .7-.1h.1l.4-.3l-.4 .3v-.1c.5-.2 .8-.7 .7-1.2v-.1v.4v-.1v.1v-.2l.1-.5l-.2-.7v.1l-.1-1.1l-.2-1.3l-.2-1.2l-.2-1.7v.1l-.2-1.4v-.2l-.4-1.6v.1l-.3-1.8l-.3-1.3v.1l-.2-1.2l-.2-1.1l-.1-.7V374l-.3-.6v-.1l-.2-.6c-.2-.3-.5-.5-.9-.5h-.3l1 .8l-.1-.1c0-.5-.4-.8-.9-.7h-.3c-.5 0-.8 .4-.8 .9v.2l.1-.5l-.1 .2l-.4 .5l-.2 .5l-.1 1.2v1.4l.1 1.3l.1 1.5l.2 1.5l-.1-.2v1.4l.2 2.8v.1l.1 .6l.4-1.1c-.2 .1-.3 .4-.4 .6l-.1 .1c-.1 .5 .1 1.1 .6 1.4l.1 .1c.2 .1 .4 .2 .7 .2l.1-.1h.2c.5 0 1-.4 1.1-.9c.1-.5-.1-1-.5-1.3l-.3-.2c-.2-.1-.4-.2-.7-.2h-.1l.7 .3l-.5-.4l-1.1-.8h.1l-1.1-.8l-.1-.1l-1.9-1.3l.1 .1l-.6-.4l-.5-.4l-1-.8h-.1l-1.7-1h.1l-2.5-1.5h.1l-2-1.5l-.2-.1l-2.4-1.3l.1 .1l-2.3-1.5l-.2-.1l-2.5-1.2l-2.5-1.1h-.1l-2.8-1.2h-.1l-3.3-1.1h.1l-3.1-1.4h-.1l-3.3-1.3l-3.2-1.2l-3.3-1.3l-.3-.1l-2.6-.3h.1l-3.1-.7l-.2-.1h-2.7l-2.2-.1l.2 .1l-2.4-.6h-1.8l.3 .1l-2.3-.9h-.1l-1.1-.4H876l-.3-.1l.5 .3l-.2-.2c-.2-.3-.5-.4-.8-.4c-.3 .1-.5 .3-.7 .6c-.1 .3-.1 .6 .1 .8l.1 .2c.2 .2 .6 .4 .9 .3c.3-.1 .6-.3 .6-.7c.1-.3 0-.6-.3-.8l-.1-.1c-.2-.1-.6-.1-.8 0Z" class="g0_18"/>
<path d="M858.5 341.1l-3.9 2c-.3 .2-.4 .4-.4 .7v.1v-.1l-.1 .3v.8l-.1 1.6l.1-.3l-.3 .5l-.2 .6v-.2l-.4 .6l.1-.1l-.6 .6l.2-.2l-1.3 .7h-.1l-1.2 .8l-1.4 .8l-1.7 1l-.2 .1l-1.3 .9l.2-.1L844 353l-2.1 .9h.2l-2.1 .6h.1L838 355h.1l-2.1 .4l-.1 .1l-1.9 .6l-.1 .1L832 357l.5-.1l-2.7-.1l-2.3 .1h.3l-2-.5l.3 .1l-2.4-1.2h-.1l-.6-.3l-.8-.3H822l-.5-.1h.2h-.1l.1 .1l-.3-.2l.4 .3l-.2-.3l-.6-.8l-.2-.2l-.2-.1l.4 .3l-.3-.3l-.3-.4l-.4-.2c-.2-.2-.4-.2-.6-.2h-.9l-.5 .2l-.2 .1l-1.2 .6l-1.3 .7l-.2 .1l-1.4 1.1l-1.6 1.1l-1.4 .9l-.2 .2l-1.2 1.2l-.1 .3l-.5 .9v-.1l-.4 .9l-.2 .3l-.1 .8l.3-.6l-.3 .4l-.4 .3l-.3 .4v.2c-.2 .5 0 1.1 .6 1.3c.5 .2 1.1 0 1.3-.6c.2-.5 0-1.1-.6-1.3l-.2-.1c-.3-.1-.7 0-1 .2c-.3 .2-.4 .6-.3 1c.1 .4 .3 .7 .7 .8h.3H808l.4 .1v.1l.5 .1h-.1l1.7 .7c.4 .2 .9 .1 1.2-.3l.1-.2c.3-.3 .3-.8 0-1.1v-.2c-.3-.3-.7-.5-1.1-.4c-.5 .1-.8 .4-.9 .8v.1c0 .5 .3 1.1 .9 1.2c.5 .1 1.1-.3 1.2-.8c.1-.6-.2-1.1-.7-1.3h-.1h.1h-.1h.1h-.1c-.3-.1-.6-.1-.9 0c-.3 .2-.5 .4-.6 .7l-.1 .5l.1-.2l-.9 1.7l-.1 .1l-.3 .8l.6-.7l-.7 .3h.1l-.8 .3l-.5 .3l-.3 .3l.1-.1l-.3 .2l.5-.2l-.5 .1h.2h-1.6h.2l-1.3-.3l-1.2-.3l.4 .2l-1.4-.9l-.1-.1l-1.4-.8l.3 .2l-1.1-.9l.1 .1l-1-1l-.7-.7l.2 .3l-.9-1.4l-.8-1.3l-.8-1.2l-.1-.1l-.5-.6c-.3-.3-.6-.4-.9-.4h-.4l.8 .3l-.2-.2c-.3-.2-.5-.3-.8-.3h-.2h.1l-.8-.1h-.4l-.8 .1l-.3 .1l-1.5 .6l-.2 .1l-1.6 .9l-.2 .2l-1.5 1.2l-1.4 1.4l.1-.1l-1.5 1.1l-.1 .1l-1.2 1.3l-.9 1.2l.1-.2l-1 .9c-.2 .2-.4 .4-.4 .7l-.2 1.1v-.1l-.2 .9c-.1 .3-.1 .6 0 .8l.4 .8l.3 .4l.9 .7l.4 .2l1.5 .5h.2l2.1 .3h.3l2.1-.2h.1l2.7-.4l.3-.1l2.8-1.3l.2-.1l2.7-1.8h.1l2.9-2.4c.4-.3 .5-.9 .2-1.3c-.3-.4-.9-.4-1.3-.2l-3 2.3h.1l-2.8 1.5h.1l-2.9 1.2l.3-.1l-2.8 .5h.1l-2.1 .1h.2l-2.1-.2h.2l-1.6-.5l.4 .3l-.8-.8l.3 .4l-.3-.7v.8l.3-.9v-.1l.2-1.1l-.4 .6l1.1-.9l.1-.1l.9-1.2v.1l1.1-1.2l-.1 .1l1.5-1.1v-.1l1.5-1.3h-.1l1.4-1.2l-.1 .1l1.6-.9l-.2 .1l1.6-.6h-.3l.9-.1h-.4l.9 .2h.4l-.8-.3l.2 .2c.3 .1 .5 .2 .8 .2h.4l-1-.4l.5 .6l-.1-.1l.9 1.2l.8 1.2l.8 1.4l.2 .2l.7 .7v-.1l1 1l1.1 1l.2 .1l1.4 .7h-.2l1.4 .9l.4 .2l1.3 .3l1.4 .3h1.8l.3-.1l.6-.1l.4-.3l.3-.2v-.1l.4-.3l-.4 .3l.8-.3l.1-.1l.7-.3c.3-.2 .5-.4 .6-.7l.2-.7v.1l.9-1.7l.1-.2l.1-.5l-.7 .8l.1-.1l-.1 .1l.1-.1l-.1 .1l.1-.1c.5-.1 .8-.6 .7-1.1v-.1c-.1-.4-.4-.7-.8-.8c-.4-.1-.8 .1-1.1 .4c-.2 .4-.2 .8 0 1.2l.1 .1v-1.1l-.1 .1l1.3-.4l-1.7-.7l-.2-.1l-.4-.1l-.4-.1h.1l-.3-.1c-.4-.2-1 0-1.2 .5c-.3 .5-.1 1.1 .3 1.3l.2 .1c.5 .3 1.1 .2 1.4-.3l.1-.1l-.2 .2l.4-.3l.3-.3c.2-.2 .4-.4 .4-.6l.2-.8l-.1 .3l.5-.8V361l.5-.9l-.2 .3l1.2-1.3l-.2 .2l1.4-.9l1.6-1.1l1.5-1.1l-.1 .1l1.3-.8v.1l1.1-.6l-.1 .1l.5-.2l-.3 .1h.5l-.6-.2l.3 .2l-.4-.4l.2 .4l.4 .3l.2 .1l-.4-.3l.6 .8l.2 .3l.4 .3l.3 .1l.3 .2h.2l.5 .1l-.2-.1l.9 .3l.6 .2h-.2l2.4 1.2l.2 .1l2 .4l.2 .1l2.3-.1l2.7 .1l.4-.1l1.9-.9l-.1 .1l1.9-.7h-.2l2.1-.4l2.1-.6l2.1-.6h.1l2.1-1l1.8-.8l.2-.1l1.4-1l-.1 .1l1.7-1.1l1.4-.9l1.2-.7h-.1l1.4-.7l.2-.2l.6-.6l.1-.1l.4-.6l.1-.2l.2-.6l.2-.5l.1-.3l.1-1.7v-.6v.1v-.6l-.4 .7l3.6-2.6c.2-.1 .3-.4 .1-.7c-.1-.2-.4-.3-.6-.1Z" class="g0_18"/>
<path d="M830.6 337.6l2.8 3.2c.4 .5 1.1 .6 1.6 .3c.5-.3 .8-.9 .6-1.5v-.3l-.2-.3l-.2-.3l-.1-.1l-.3-.2c-.3-.4-.8-.5-1.3-.3c-.4 .2-.7 .7-.7 1.2v.3c.1 .5 .5 1 1.1 1.1c.6 .1 1.2-.3 1.3-.9c.2-.5-.1-1.1-.6-1.4l-.1-.1l-.3-.1h-.3l.6 .2l-.7-.5l-.2-.1l-1.2-.8l.1 .1l-1.2-.8c-.3-.2-.8-.3-1.2-.1l-.5 .1c-.5 .2-.8 .6-.9 1l-.1 .6l1.2-1h-.6c-.5 .1-.9 .4-1.1 .8l-.4 .8l.6-.6l-1 .4l-.2 .2l-1.1 .9l-.3 .5l-.6 1.4l.2-.3l-1.2 1.6l-.2 .2l-.7 1.7l.1-.2l-1 1.7l-.1 .1l-.8 1.7c-.2 .5 0 1.1 .5 1.3c.5 .2 1 0 1.3-.4l.8-1.7l-.1 .1l1.2-1.5l.2-.2l.8-1.6l-.2 .2l1.2-1.5l.2-.3l.6-1.4l-.3 .4l1-.8l-.3 .2l1-.4c.3-.1 .5-.3 .6-.6l.5-.7l-1.2 .6h.6c.6 .1 1.1-.3 1.3-.8l.2-.6l-.9 .8l.5-.1l-1.1-.2l1.1 .8h.1l1.2 .7h-.1l.8 .5c.2 .2 .6 .3 1 .2h.3l.3-.2h.1c.5-.3 .8-.9 .6-1.4v-.3c-.2-.5-.6-.8-1.1-.9c-.5 0-1 .3-1.2 .7c-.2 .5-.1 1 .2 1.4l.3 .2l-.3-.5l.1 .3l-.1-.3v.2c0 .6 .5 1.1 1 1.2c.6 .1 1.2-.1 1.4-.7c.3-.5 .2-1.1-.2-1.5l-3.2-2.9c-.4-.3-1.1-.3-1.5 .1c-.4 .4-.4 1 0 1.4Z" class="g0_18"/>
<path d="M826.3 372.4l.5 1.1l.4 .7l-.1-.4l-.1 .9l.4-.7l-1 .8l-.1 .1l-.7 .7l.4-.2l-1.8 .6h.1l-1.7 .4h.1l-1.6 .2h.1l-1.9 .1l.2 .1l-1.7-.3h.1l-1.7-.3l-1.1-.3l.4 .2l-.7-.6c-.4-.3-1-.2-1.3 .1c-.3 .4-.3 1 .1 1.3l.6 .7l.3 .2l1 .4h.2l1.7 .4l.1 .1l1.7 .2h.2l1.9-.2h.1l1.6-.3l.1-.1l1.7-.5h.1l1.7-.7l.3-.3l.7-.8l-.1 .2l.9-.8c.3-.2 .4-.4 .4-.7l-.1-.9l-.2-.5l-.6-.6h.1l-.8-.9c-.1-.2-.4-.2-.7-.1c-.2 .2-.3 .5-.2 .7Z" class="g0_18"/>
<path d="M791 345.2l-1.1 .5l-.4 .3l-1 1.1v.1l-1.2 1.5l.1-.2l-1.8 1.6l-1.9 1.5l.3-.1l-2.7 1h.1l-2.9 1l.1-.1l-2.4 .5l-2.3 .3h.3l-1.6-.2l.3 .1l-1-.5c-.3-.2-.8-.1-1 .3c-.3 .4-.2 .8 .2 1.1l.9 .6l.2 .1l1.5 .5h.4l2.4-.2l2.5-.4h.2l2.9-1l2.7-1.1l.3-.2l1.9-1.6v.1l1.8-1.6l.2-.2l1.2-1.5l.9-1.2l-.1 .1l.9-.8c.3-.3 .3-.7 .1-1.1c-.2-.3-.7-.5-1-.3Z" class="g0_18"/>
<path d="M854.3 337.1l-2.1 2.7c-.2 .1-.2 .3-.1 .5c0 .2 .1 .3 .3 .4l.6 .2l.2 .1h.7l1.2 .1l1.3 .1l1.3 .1h-.1l1.4 .3h.1l1.3 .1h-.2l1.2 .4h.1l1.1 .2h.1l.5 .1l-.2-.1l.2 .1c.4 .1 .9 0 1.2-.4c.2-.3 .3-.8 0-1.2l-.1-.2l-.1-.2l-.4-.4c-.2-.2-.5-.3-.8-.3c-.3 0-.6 .1-.8 .3l-.3 .4l-.2 .3l-.4 .8l.1-.1l-.8 1.4l-.9 1.9l.3-.3l-1.4 1.3v-.1l-1.5 1.3l.1-.1l-1.4 1l-1.4 .8l-.9 .6c-.5 .2-.6 .8-.4 1.3c.3 .4 .9 .6 1.3 .4l1-.5h-.1l1.6-.7l.1-.1l1.4-.9l.2-.1l1.5-1.2v-.1l1.4-1.3l.2-.4l.9-1.8l.7-1.4v-.1l.4-.7l-.2 .2l.3-.3c.4-.5 .4-1.1 0-1.5c-.5-.4-1.1-.4-1.5 0c-.4 .4-.5 1-.1 1.5l.4 .3l-.2-.1l.2 .2c.2 .4 .7 .6 1.2 .5c.5-.2 .8-.6 .8-1.1c0-.5-.4-.9-.9-1h-.2l-.1-.1h-.6h.1l-1-.1h.1l-1.3-.3l-.2-.1h-1.2l-1.4-.2h-1.5l-1.3 .1h-1.9l.2 .1l-.7-.2c-.3 0-.6 .2-.6 .4c-.1 .3 0 .6 .3 .8c.2 .1 .5 0 .7-.2l2-2.8c.2-.2 .1-.5-.1-.7c-.2-.1-.5-.1-.7 .1Z" class="g0_18"/>
<path d="M866.1 561.3l1.7 .8c.3 .1 .6 0 .9-.2c.2-.2 .4-.5 .3-.8c-.1-.4-.3-.6-.7-.7h-.1c-.3-.1-.7 0-.9 .3c-.2 .3-.3 .7-.1 1c.2 .4 .6 .5 1 .4h.2c.4-.1 .6-.3 .7-.7c.1-.3 0-.7-.3-.9l-.3-.2h-.1l.2 .1l-.5-.1l-.6 .2l-.9 .7l-.1 .1l-2.1 2.1l-.1 .1l-1 1l.3-.2l-1.8 1l-.1 .1l-1.6 1l.2-.1l-1.9 .8h.1l-2.2 .6l-1.9 .6l-1.7 .5h.1l-1.3 .2h.2h-1l.4 .1l-.6-.3l.2 .1l-.7-.4c-.5-.2-1.2 0-1.5 .5c-.3 .5-.1 1.2 .4 1.5c.5 .3 1.2 .1 1.5-.4l.2-.2l-1 .5h.7l.7-.2c.4-.1 .6-.4 .7-.7l.3-.8l-.2 .3l.9-1v-.1l.8-1.3l-.3 .3l1.1-.9l-.2 .2l1.3-.6h-.2l1.1-.3l-.3 .1h1.1l1 .1l-.6-.3l.6 .5l-.1-.1l.4 .5l-.3-.7l.1 1v-.1l-.1 1.4v-.2l-.5 2l-.7 2.4l-.9 2.8l-1 2.6l-1 2.5l.1-.2l-1.2 2.1v-.1l-1.1 1.4l-1 1.3l.4-.3l-1.2 .6h-.1l-.8 .5l1-.1l-.8-.3l.5 .6l-.3-1.1c-.2-.4-.6-.6-1-.5c-.5 .1-.7 .6-.6 1l.2 1.1l.3 .4l.6 .6c.3 .2 .7 .3 1.1 .1l.9-.3l1.1-.6l.5-.3l1-1.3l1.1-1.4l.1-.1l1.3-2.1l.1-.2l.9-2.5h.1l.9-2.7l.9-2.8v-.1l.7-2.4l.6-2v-.3l.1-1.4v-1.1c0-.3-.1-.5-.3-.7l-.5-.5l-.1-.2l-.7-.5c-.2-.1-.4-.2-.6-.2h-1l-1.1-.1l-.4 .1l-1.1 .3h-.1l-1.3 .6l-.3 .1l-1.1 .9l-.2 .3l-.8 1.3l.1-.1l-.8 1l-.2 .4l-.3 .8l.7-.8l-.6 .3l.3-.1h-.4c-.4 0-.8 .2-1 .5l-.1 .3c-.1 .2-.2 .5-.1 .8c.1 .3 .3 .6 .6 .7l.6 .4h.2l.6 .2l.3 .1H852l1.2-.3h.1l1.7-.5l1.9-.6l2.2-.6l.1-.1l1.9-.8l.2-.1l1.6-1h-.1l1.9-1l.3-.2l.9-1.2v.1l2-2.2l.8-.8c.2-.2 .3-.4 .4-.6v-.1l-.5 .8v-.1l-.2 .1h.1l-1-.3l.1 .1c.2 .3 .7 .4 1.1 .2c.4-.2 .6-.6 .4-1.1c-.1-.4-.5-.6-1-.6l-.2 .1c-.4 0-.6 .2-.7 .6c-.2 .3-.1 .6 .1 .9c.3 .2 .6 .3 .9 .2h.1c.4-.1 .7-.5 .7-.9c0-.4-.3-.7-.7-.8l-1.8-.3c-.3 0-.6 .2-.7 .5c-.1 .3 0 .6 .3 .7Z" class="g0_18"/>
<path d="M866 548.2l.2 .5c.1 .4 .4 .7 .9 .8c.4 .1 .8 0 1.1-.2l.1-.1c.3-.3 .5-.7 .5-1.1c-.1-.5-.3-.8-.6-1.1l-.7-.5c-.6-.4-1.4-.3-1.9 .3c-.5 .6-.4 1.4 .2 1.9c.5 .5 1.4 .5 1.9 0l.1-.2c.4-.3 .5-.8 .4-1.3c-.2-.5-.5-.8-1-1c-.5-.1-1 .1-1.3 .4l-.3 .3c-.2 .2-.3 .4-.4 .6l-.2 .9l.4-.7l-.8 .7l.4-.2l-1.4 .6l.5-.1l-1.9 .1h.1l-2.2-.2h-.2l-2.2 .1l-2.1 .2h.4l-2.2-.6l-2.2-.6c-.7-.2-1.4 .2-1.6 .9c-.2 .7 .2 1.4 .9 1.6l2.1 .6l.2 .1l2.2 .4h.2l2.2 .1H860h-.1l2.2 .1h.2l1.9-.1l.5-.1l1.4-.7l.4-.2l.7-.8c.2-.1 .3-.3 .4-.6l.2-.8l-.5 .7l.3-.2c.6-.4 .8-1.2 .4-1.8c-.3-.6-1-.9-1.7-.6l-.1 .1c-.5 .1-.8 .6-.9 1.1c-.1 .5 .2 1 .6 1.3l.6 .5l.5 .2h.1c.7 .2 1.3-.2 1.5-.9c.2-.6-.2-1.3-.9-1.5l-.5-.1c-.3-.1-.7-.1-.9 .2c-.3 .2-.4 .6-.3 1Z" class="g0_18"/>
<path d="M833.2 544.6v.3v-.2v1.9l.1 .3l.5 1.6l.7 2.1v.1l1.2 2.6l1.4 2.8l1.2 2.5h.1l1.1 2l.1 .1l1.1 1.6l1 1.2l-.1-.1l.6 .8l.2 .2l.8 .7l.2 .2l.8 .3c.5 .2 1.2 0 1.4-.5c.3-.6 0-1.2-.5-1.5l-.7-.3l.3 .2l-.6-.8l.1 .2l-.5-.8l-.1-.2l-.9-1.1l-1.2-1.6l.1 .1l-1.1-1.9l-1.3-2.4l-1.4-2.8v.1l-1.1-2.5v.1l-.7-2.1l-.5-1.6v.1l-.3-1.2v.1v-.5l-.3-.5l-.2-.3c-.2-.3-.6-.4-1-.2c-.4 .1-.6 .5-.5 .9Z" class="g0_18"/>
<path d="M825.3 533.8l1.1 .6c.4 .3 1 .2 1.3-.1c.4-.3 .6-.8 .4-1.3c-.1-.5-.6-.8-1.1-.8h-.1c-.4 0-.8 .2-1 .5c-.2 .4-.3 .8-.1 1.2l.3 .5c.1 .2 .3 .4 .6 .5l.7 .3c.4 .1 .9 0 1.2-.3c.3-.3 .5-.7 .4-1.1c-.1-.5-.5-.8-.9-.9l-.6-.1c-.5-.1-.9 0-1.2 .3c-.2 .4-.3 .8-.1 1.2c.2 .4 .6 .7 1 .7h.5l-.9-.6l.3 .6c.2 .4 .7 .7 1.1 .5c.5-.1 .8-.6 .7-1.1l-.2-.7c-.1-.2-.3-.5-.5-.6l-.5-.2c-.3-.2-.8-.2-1.1 0c-.3 .2-.5 .6-.5 1c0 .4 .3 .8 .6 .9l.6 .3c.4 .2 .8 .2 1.2-.1c.4-.2 .5-.6 .5-1.1c-.1-.4-.3-.8-.7-.9l-.7-.3l.6 .6l-.2-.5c-.3-.5-.9-.8-1.5-.6c-.5 .2-.9 .8-.8 1.4c.1 .6 .6 1 1.2 1h.1c.6 0 1-.4 1.2-.9c.1-.6-.1-1.1-.6-1.4l-1.1-.6c-.5-.4-1.3-.2-1.6 .4c-.4 .6-.2 1.3 .4 1.7Z" class="g0_18"/>
<path d="M825.7 565.7l-.5-.1c-.5-.1-1 .2-1.3 .6c-.2 .5-.1 1 .3 1.4c.4 .3 1 .3 1.4 .1v-.1c.5-.3 .6-.9 .4-1.3c-.2-.5-.8-.8-1.3-.7l-.1 .1l.8 .1l-.8-.4l.4 .3l.2 .5V566l-.2 .5l.3-.4l-.3 .3l.6-.5l.3-.4l.4-.8v-.1l.2-.8v.1l.3-.7l-.5 .5l.6-.3l.2-.1l.2-.3c.4-.3 .5-.8 .4-1.2c-.1-.5-.5-.8-1-.9h-.8c-.4 .1-.7 .3-.8 .7c-.2 .3-.2 .7 0 1v.1v-.2v.2l.6-1.4c-.3 .1-.5 .4-.6 .7l-.2 .4l-.3 .9v.4l.2 2.5v.4l.5 1l-.1-.6l-.2 1v-.1l-.2 1l.6-.8l-.9 .4l-.4 .4l-.6 .6l.2-.1l-1 .9l.2-.2l-1 .6l-1.5 .8l-1.7 .9l.6-.1l-2 .1H817l-1.9 .7l-.2 .1l-1.6 .8l.6-.1h-1.7l-.6 .2l-1.2 .7l-.4 .2l-.6 .7l.6-.4l-.8 .3c-.4 .1-.7 .4-.8 .9l-.2 .9l.1 .6l.2 .8v-.3v.8c0 .3 .2 .6 .4 .8l.7 .8h.1l1.2 1.1l.1 .1l1.5 1h.1l1.7 .8l2.1 1.1h.2l2.2 .7l2.3 .8l1.7 .5h.6l.4-.1h-.4l.7 .1c.4 .1 .8-.1 1.1-.5c.2-.4 .2-.8-.1-1.1c-.3-.4-.7-.5-1.1-.4l-.3 .1c-.5 .1-.8 .6-.7 1.1c0 .5 .5 .8 1 .8h.3c.5 0 .9-.3 1-.8c.1-.5-.1-.9-.6-1.2l-.6-.3l-.5-.1h-.4l.3 .1l-1.7-.6l-2.2-.7l-2.3-.7l.2 .1l-2.2-1.1l-1.7-.7h.2l-1.5-.9l.2 .2l-1.2-1.1h.1l-.8-.8l.3 .8v-.8l-.1-.3l-.2-.8v.6l.2-.9l-.9 .9l.8-.2c.2-.1 .4-.2 .6-.4l.6-.7l-.3 .3l1.2-.7l-.6 .1l1.7 .1l.6-.2l1.6-.9l-.2 .1l1.9-.6h-.4h2l.5-.2l1.7-.9l1.5-.8v-.1l1-.6l.3-.1l.9-.9l.1-.1l.6-.7l-.4 .3l.9-.5c.3-.2 .5-.5 .6-.8l.2-1l.2-1c0-.2 0-.5-.1-.7l-.4-1l.1 .4l-.2-2.5l-.1 .3l.3-.9l.1-.4c.2-.6-.2-1.2-.7-1.4c-.6-.1-1.2 .1-1.4 .7c-.2 .5 0 1.2 .6 1.4c.4 .2 .8 .2 1.1-.1c.4-.2 .5-.6 .5-1V562l-.2 .7l.1-.1l-1.3 .6h.1v.1h.4c.5 .1 1.1-.2 1.3-.7c.2-.5 0-1.1-.4-1.4c-.5-.4-1.1-.3-1.5 0l-.3 .2h.1l-.6 .3c-.2 .2-.4 .4-.4 .7l-.3 .7v.1l-.2 .9V564l-.2 .8l.3-.5l-.5 .5l-.2 .3l-.2 .4l-.1 .5v.2l.1-.5c-.3 .5-.2 1.1 .3 1.4l.7 .5l.3 .2h.1c.5 .1 1.1-.1 1.3-.6c.2-.5 .1-1.1-.4-1.4c-.4-.3-.9-.3-1.3 0c-.4 .2-.6 .7-.4 1.2c.1 .4 .4 .8 .9 .8l.5 .1c.6 .1 1.1-.3 1.2-.9c.2-.6-.2-1.2-.8-1.3Z" class="g0_18"/>
<path d="M800.9 556.1l.1 .1l-.2-.4v.2c.1 .4 .4 .8 .8 .9h.9c.3 0 .6-.2 .8-.5l.1-.2l.1-.4v-.5l-.6 1.2v-.1l.2-.1l-.4 .2l.5-.1h.1l1.8-.5l.3-.1l.5-.3l-.2 .1l.7-.2c.4-.2 .7-.6 .7-1.2V554c-.1-.6-.6-1-1.2-1c-.6 .1-1 .6-1 1.2c0 .6 .6 1 1.2 1h.4l.3-.1l-.8-.2l.3 .3c.4 .3 .9 .3 1.3 .1c.4-.3 .5-.8 .4-1.2c-.2-.5-.6-.8-1-.8h-.1l.4 .1l-.4-.1h.1l-.2-.1l.1 .1l-.9-.5l-.2-.1l-.6-.2c-.5-.1-1.1 .1-1.3 .6c-.2 .6 0 1.2 .5 1.4l.4 .2c.6 .3 1.2 .1 1.5-.4c.3-.5 .1-1.2-.4-1.5c-.5-.3-1.1-.1-1.5 .4l-.1 .2l-.2 .3c-.2 .2-.2 .5-.2 .8l.2 .8V555l-.1 1.2l.3-.7l-1 1.1l-.3 .5l-.3 1.2l.2-.4l-.9 1.3l.1-.2l-1 1l-.3 .4l-.5 1.2l.1-.2l-.6 1.1l-.1 .1l-.5 1l.3-.4l-.7 .6l.3-.2l-.8 .4l.3-.1l-.7 .2h.3l-.8-.1h-.1l-.4 .1h.1h-.6l.7 .2l-.4-.3l.1 .2l-.4-.5l-.3-.3l.3 .7v-.3c-.1-.5-.5-.9-.9-1h-.3l.3 .1c-.6-.3-1.1-.2-1.5 .2v.1l.7-.4l-.5 .2h-.1l.6-.2h-.1c-.3 0-.7 .2-.9 .6l-.4 .6l.1-.1l-1.6 2.2h-.1l-.6 .9l-.1 .2l-.5 .9l-.1 .4l-.1 .6v.6l.1 .5l.3 .5l.2 .3l.3 .2l.2 .1l.3 .1l.1 .1l.2 .1l-.3-.3l.5 .6l.4 .3l.3 .1l-.6-.5l.3 .6l.3 .4l.2 .1l.2 .2l.1 .1l-.5-.6l.2 .3c.1 .3 .3 .6 .6 .7h.1c.4 .1 .8 0 1-.2c.3-.2 .5-.6 .4-1l-.1-.4c0-.4-.3-.7-.8-.8c-.4-.1-.8 0-1.1 .4l1.4-.3l-.6-.2c-.5-.3-1.1-.1-1.4 .4l-.5 .8l.3-.3l-.8 .5l.3-.1l-1.2 .4l-.4 .2l-1.2 1.1l.3-.1l-1.3 .6h.1l-1.5 .7l-.3 .2l-1 .9l-.1 .1l-.8 1l.2-.2l-1 .7l-.4 .4l-.3 .7l.2-.3l-.3 .4c-.2 .1-.3 .4-.3 .6v.2c-.1 .6 .4 1.2 1 1.3c.7 0 1.2-.4 1.3-1.1c.1-.6-.4-1.2-1-1.2l-.1-.1l.9 .7l-.1-.1l.1 .4v-.1v.1v-.1v.1v-.4l-.2-.7l-.2-.3l-2-2.9l.1 .1l-1.2-2l.1 .2l-.9-2.2l-.1-.1l-1-1.9l-1-1.9v.2l-.8-1.9l-.1-.1l-.9-1.6l-.9-1.6l-.7-1.1l-.1-.1l-.8-1l-.2-.2l-.7-.5l-.1-.1l-.7-.4l-.2-.1l-.6-.1l-.1-.1l-.5-.1h.1l-.5-.2l.1 .1l-.3-.2l-.3-.1h-.2c-.4 0-.8 .2-1 .5c-.1 .4-.1 .8 .2 1.2c.3 .2 .8 .3 1.1 .1l.8-.4c.5-.2 .6-.7 .5-1.1c-.2-.5-.7-.7-1.2-.5l-.8 .3l-.4 .2l-.1 .1c-.4 .5-.4 1.2 0 1.7l.3 .2l.3 .3l.4 .2l.2 .1l.5 .2h-.1l.5 .2h-.1l.7 .4l-.1-.1l.6 .5l-.2-.3l.8 1l-.1-.2l.6 1.1v-.1l.9 1.6l.9 1.6v-.2l.8 1.9l.1 .1l1 1.9V571l1 1.9l-.1-.1l1 2.2l.1 .1L780 577l.1 .1l2 2.9l-.2-.2l.3 .6c.2 .5 .7 .8 1.2 .8h-.1h.1h-.1h.1H783h.1c.2 .1 .4 .1 .7 .1h.1c.6-.1 1-.7 1-1.3v-.2l-.3 .9l.3-.4l.2-.2l.3-.7l-.4 .4l1-.7l.2-.2l.8-.9l-.1 .1l1.1-1l-.4 .2l1.5-.6l.1-.1l1.3-.7l.2-.1l1.2-1.1l-.4 .2l1.2-.4l.2-.2l.8-.5l.3-.4l.5-.8l-1.4 .5l.5 .2c.3 .1 .6 .1 .9 0c.3-.1 .5-.4 .6-.7v-.1c.1-.4 0-.9-.4-1.2c-.4-.2-.9-.2-1.2 0c-.4 .3-.6 .8-.5 1.2l.1 .4c.2 .5 .6 .8 1.1 .8c.6-.1 1-.5 1-1c.1-.5-.2-.9-.7-1.1h-.1l.6 .6l-.1-.4c-.1-.2-.3-.4-.5-.5l-.2-.1l.2 .1l-.2-.2l.3 .4l-.3-.6c-.2-.3-.4-.5-.6-.6l-.3-.1l.5 .3l-.5-.5l-.4-.3l-.2-.1h.1l-.3-.2v.1l-.2-.2c-.4-.3-1.1-.2-1.4 .3c-.4 .4-.4 1 .1 1.4c.4 .4 1 .4 1.4 0h.1c.3-.3 .4-.8 .2-1.3l-.2-.5l.1 .5v-.4v.2l.1-.6l-.1 .3l.5-.9l-.1 .1l.6-.9l1.7-2.2v-.1l.4-.6l-1.1 .6h.1l-.6-.2h.1l.5 .2c.3 0 .7-.1 1-.3l-1.3 .1v.1l.4 .1h.2l-1-1v.3c.1 .2 .2 .5 .4 .7l.3 .3l.4 .4l.2 .1l.4 .3c.2 .1 .4 .2 .7 .2h.7l.5-.1l-.2 .1l.8-.1h.3l.7-.2l.2-.1l.7-.4l.3-.1l.6-.6l.3-.3l.5-1.1l-.1 .1l.7-1.1v-.2l.5-1.1l-.2 .3l1-1l.1-.1l.9-1.3l.2-.4l.3-1.3l-.3 .6l1-1.1c.2-.2 .3-.4 .3-.7l.1-1.2l-.1-.3l-.1-.8l-.2 .9l.2-.3l.1-.2c.2-.3 .3-.6 .2-.9c-.1-.3-.3-.6-.6-.7l-.4-.2c-.4-.2-.8-.2-1.1 .1c-.4 .2-.5 .7-.5 1.1c.1 .4 .4 .7 .8 .8l.6 .2l-.2-.1l.9 .4l.3 .1l.1 .1h-.1l.4 .1h.4c.4 0 .8-.2 1-.6c.1-.4 0-.9-.3-1.2l-.4-.3c-.2-.2-.5-.3-.8-.3l-.3 .1h.2l-.3-.1c-.6 0-1.1 .4-1.2 1v.2l.8-.9l-.7 .2l-.2 .1l-.5 .3l.2-.1l-1.8 .5h-.1l-.4 .1c-.4 .2-.7 .5-.7 .9c-.1 .4 .1 .8 .4 1l.2 .1v.1h.2l-.7-.9v.2l.5-.9l-.2 .1l.6-.1l-.3-.1l.1 .1l-.1-.1l.5 .4l-.1-.2c-.2-.2-.5-.4-.8-.4c-.3 0-.6 .2-.8 .4l-.1 .1c-.2 .3-.2 .7 0 1Z" class="g0_18"/>
<path d="M791.4 545.5l-.5 1l.1-.2l-.9 1l-1 1.3l-1 1.3l.2-.1l-1.3 1.1l-.1 .1l-1.3 1.4v-.1l-1.3 1.2l.2-.2l-1.6 .8c-.5 .2-.7 .8-.5 1.4c.3 .5 .9 .7 1.4 .5l1.6-.7l.2-.2L787 554l.2-.1l1.3-1.4l-.1 .1l1.3-1.1l.2-.2l1-1.3l1-1.2l.8-1l.2-.6l.2-1.1c0-.5-.2-.9-.7-1c-.4-.1-.8 .1-1 .4Z" class="g0_18"/>
<path d="M766.6 574.1l-1.5 1.8l-.1 .1l-1 1.4l-.1 .3l-.5 1.4l-.1 .6l.1 1l.2 .4l.6 1.1l.3 .3l1.1 .9l-.5-1v.2l1-1.1l-.3 .1h.5l-.2-.1l.1 .1l-1.2-.5l.6 .5l-.3-.4l-.4-.5l-1.3-.7l-1.8-1l.2 .1l-1.9-1.4l-2.2-1.6l.4 .4l-1-1.9l-.9-1.8l-.1-.1l-.8-1.2l.1 .3l-.5-1.4l-.1-.3l-.8-1.2h-.1l-.7-1l.1 .2L753 567l-.1-.1l-.6-.9l-.1-.1l-.4-.5l-.1-.1l-.6-.6l-.1-.1l-.7-.5v.1l-.5-.4l-.5-.2l-.1-.1c-.7-.2-1.5 .2-1.6 .9c-.2 .7 .2 1.4 .9 1.6l.1 .1c.6 .1 1.2-.1 1.5-.6c.3-.6 .2-1.2-.3-1.6c-.4-.5-1.1-.5-1.6-.2v.1c-.4 .2-.6 .7-.6 1.2l.3 1.3l.1 .4l2.2 3.5v-.1l1.2 2.7v-.1l1.1 2.8v-.1l1 3.1v-.1l.9 2.9l-.1-.2l.5 3.1l.2 3.2v-.2l-.3 3.3l-.6 3.6l.1-.2l-1.3 3.3l.1-.1l-1.4 3.1l.1-.2l-1.7 2.5l.2-.3l-2.3 1.9l.2-.2l-1.9 1l.3-.1l-1.9 .7l.4-.1h-1.9h.1l-1.1-.1l.5 .2l-1.4-.7l.3 .2l-1.3-1.1l.3 .4l-.8-1.5l.1 .2l-.7-1.9l.1 .4l-.2-2.6v.2l.3-2.7l-.1 .3l1.2-3.6c.2-.6-.2-1.2-.7-1.4c-.6-.2-1.3 .1-1.5 .7l-1.2 3.5v.2l-.4 2.7l-.1 .2l.1 2.6l.1 .4l.6 1.9l.1 .2l.7 1.5l.4 .4l1.3 1.1l.2 .2l1.4 .6l.5 .2h3.2l.4-.1l1.8-.7l.2-.1l1.8-1.1l.2-.1l2.3-1.9l.2-.2l1.7-2.4l.1-.2l1.4-3.2V598l1.2-3.3l.1-.2l.5-3.7l.4-3.4v-.2l-.3-3.2v-.1l-.5-3.1v-.2l-.9-2.8v-.1l-1.1-3.1l-1.1-2.7v-.1l-1.3-2.7V569l-2.2-3.5l.1 .6l.1-1.2c0-.7-.4-1.2-1-1.3c-.6-.2-1.2 .1-1.5 .7c-.2 .6 0 1.2 .5 1.6c.4 .3 1 .3 1.4 0c.4-.2 .7-.7 .7-1.2c-.1-.5-.4-.9-.9-1.1h-.1c-.5-.2-1-.1-1.3 .2c-.4 .3-.6 .8-.4 1.3c.1 .5 .4 .8 .9 .9l.2 .1l-.5-.2l.5 .4h.1l.7 .4h-.1l.6 .5l-.1-.1l.5 .5l-.1-.1l.6 .8l-.1-.2l.6 1.1l.2 .2l.8 .9l-.1-.1l.8 1.2l-.1-.3l.5 1.5l.1 .2l.8 1.2v-.2l.9 1.9h-.1l1 1.9l.3 .4l2.2 1.6l-.1-.1l1.8 1.5l.2 .2l1.8 1h-.1l1.3 .7l-.4-.3l.3 .4c.1 .2 .3 .3 .6 .4l1.2 .4l.4 .1h.7l.3-.2c.5-.1 .7-.6 .7-1.1v-.2c0-.3-.1-.6-.4-.8l-1.1-.9l.3 .4l-.6-1.1l.2 .5l-.1-1l-.1 .4l.6-1.4l-.1 .2l.9-1.5l1.1-2.1c.2-.4 .1-.9-.3-1.2c-.4-.3-.9-.2-1.2 .2Z" class="g0_18"/>
<path d="M754.4 547.2l3.2 1.3l-.9-1.2v.5l.1 .4c0 .5 .4 1 .9 1.2c.5 .2 1 .2 1.5-.2c.4-.3 .6-.8 .5-1.3v-.3c0-.3-.2-.7-.5-.9v-.1l.3 .4l-.1-.1c-.1-.2-.3-.4-.5-.5h-.1c-.4-.2-.8-.3-1.2-.1h-.1l.5-.1h-.8l-2.4 .2c-.5 0-.9 .3-1.2 .7l-.5 1.1c-.1 .2-.2 .5-.1 .8l.3 1.4v.3l.8 1.8l.1 .2l2.1 2.5c.3 .4 .9 .4 1.3 .1c.4-.3 .5-.9 .1-1.3l-1.9-2.5l.2 .3l-.5-1.8l.1 .2l-.1-1.5l-.2 .8l.7-1l-1.1 .6h2.4h-.1h.8l-.5-.1h.1h-.1h.1h-.2h.1l-.4-.3h.1l-.4-1.1v.3c-.1 .5 .2 1.1 .7 1.4c.4 .3 1.1 .3 1.5 0c.5-.3 .8-.8 .7-1.4v-.4c0-.2-.1-.4-.2-.6l-.3-.4c-.2-.3-.5-.5-.8-.6l-3.4-.7c-.5-.1-1.1 .2-1.2 .7c-.2 .6 .1 1.1 .6 1.3Z" class="g0_18"/>
<path d="M901.4 621.9l-.1 .4l-.1 .8v-.2l-.7 2.4l.1-.2l-.8 2l.1-.2l-1.1 1.6v-.1l-1.6 2.1v-.1l-2 2.2l.2-.1l-2.5 2L890 637l.1-.1l-3.5 2.6h.1l-3.6 2.5v-.1l-4 2.4v-.1l-4.2 2.2h.1l-4.5 1.9h.1l-3.4 1.3l-3.3 1.3l.1-.1l-6.4 1.8l-7.8 1.8h.1l-7.3 1.4h.1l-6.5 .7l-6.6 .9v-.1l-6.4 .5l-6.3 .5h.2l-6.6-.1h.1l-6.2-.3l-6.2-.4l-6-.6l-5.8-.7h-.1l-5.9-.3h.1l-5.6-.8l-5.9-.7l-5.9-.6h.1l-5.8-1.1l-5.7-1.1l.1 .1l-5.4-1.2h.1l-4.9-1.5v.1l-4.8-1.6h.1l-4.6-1.9l.2 .1l-4.1-2.1l.3 .1l-4.2-3.1l-3.7-3.1l.1 .1l-3.3-3.7v.1l-3.7-4l-2.9-3.4h.1l-2.9-3.7l.1 .1l-2.6-4l-2.6-4.1l.1 .1l-2.2-4.4l-2.1-4.6l.1 .2l-1.7-5.4l.1 .2l-1.1-4.8v.2l-.6-5v.2v-4.5l.2-3.6v.1l.2-3.7l.2-3.3v-.1l-.1-3.1v-2.9l-.3-3v-.1l-.3-2.3l-.5-2.8v-.1l-.5-2.7v.1l-.4-2.3l-.4-2.1v-.1l-.3-1.3v.1l-.1-.8v-.3l-.1-.3l-.2-.5c-.4-.6-1.1-.8-1.8-.5c-.3 .1-.6 .4-.8 .8l.2-.3h-.1c-.2 .4-.3 .8-.2 1.2l.1 .3v-.2l.1 .9v.2l.3 1.4v-.1l.4 2.1l.3 2.2v.1l.6 2.7v-.1l.4 2.9l.4 2.3v-.1l.3 3l-.1-.1v2.8l.1 3v-.1l-.2 3.4v-.1l-.2 3.7l-.1 3.6v4.8l.6 4.9v.2l1.1 4.7v.1l1.6 5.3l.1 .2l2.1 4.6v.1l2.2 4.4l.1 .1l2.5 4.2l2.7 4v.1l2.9 3.7v.1l2.9 3.5h.1l3.6 4l3.4 3.7l.1 .1l3.8 3.1v.1l4.2 3.2l.2 .1l4 2.1l.2 .1l4.5 1.8l.1 .1l4.8 1.6h.1l4.9 1.5h.1l5.4 1.2h.1l5.6 1l5.9 1.1h.1l5.8 .7l5.9 .7l5.6 .7h.1l5.9 .4H786l5.9 .7l6 .6l.1 .1l6.2 .4h.1l6.1 .2h.1l6.5 .2h.2l6.3-.5l6.4-.5h.1l6.6-.9l6.5-.7l.1-.1l7.3-1.4l7.9-1.9l6.4-1.8l.2-.1l3.3-1.3l3.3-1.3h.1l4.5-2v-.1l4.2-2.2h.1l4.1-2.4l.1-.1l3.6-2.5l3.4-2.6h.1l2.9-2.5l2.4-2.1l.1-.1l2-2.3l1.7-2v-.2l1.1-1.7l.1-.2l.8-1.9v-.2l.6-2.4v-.2l.1-.8l-.1-.6c-.2-.4-.6-.7-1.1-.7c-.4 0-.8 .3-1 .7Z" class="g0_18"/>
<path d="M672.4 564.7l-.2 .3c-.3 .3-.3 .8-.1 1.2c.2 .4 .6 .6 1.1 .6c.4 0 .8-.3 .9-.7l.6-1.1l1.4-2.7l1.1-2.2h-.1l1.4-2.4v-.1l1.4-3l1.5-3l1.4-2.8v.1l1.6-2.7l.1-.2l1-2.4l-.1 .2l1.3-2.1v-.1l1.2-1.9l.1-.1l.8-1.9l-.2 .2l1-1.3l.2-.4l.4-1.1l.3-.8v-.2l.1-.6v-.2c.1-.7-.5-1.3-1.2-1.4c-.8 0-1.4 .6-1.4 1.3c0 .7 .5 1.3 1.3 1.4c.7 0 1.3-.5 1.4-1.2c.1-.6-.4-1.3-1-1.4c-.7-.2-1.4 .2-1.6 .8v.1l1.7-.9h-.3h.1h-.2l-.1-.1c-.5 0-1 .2-1.3 .6c-.3 .4-.3 1-.1 1.4l.2 .4l-.1-.1l.5 1.3l1.4 3.2l.8 1.9l.8 2.1l1 2.5l1 2.7v.1l1.1 3.1l1.4 3.4l1.4 3v.1l1.3 2.5l.2 .4l1.4 1.4c.2 .2 .5 .3 .7 .4l1.2 .2c.3 0 .5 0 .7-.1l2.2-1c.5-.2 .8-.7 .7-1.2l-1.2-4.8c-.1-.5-.7-.9-1.2-.8c-.6 .2-.9 .7-.8 1.3l1.1 4.8l.7-1.2l-2.4 .9l1 .1l-1-.6l.2 .2l-1.3-1.5l.2 .3l-1.3-2.5l-1.3-3v.1l-1.3-3.3L696 547l-1-2.7v-.1l-1-2.5l-.8-2.1v-.1l-.9-1.9l-1.3-3.1v.1l-.5-1.3l.1 .3l-.1-.5c-.1-.7-.8-1.3-1.5-1.2c-.8 .1-1.3 .8-1.2 1.6c.1 .7 .7 1.3 1.5 1.2h.3h-.1h.1l.2-.1c.3-.1 .6-.4 .8-.7c.1-.3 .2-.7 0-1v-.1c-.2-.5-.7-.9-1.3-.9c-.8 .1-1.3 .7-1.3 1.4v.1v-.3l-.1 .5l.1-.2l-.3 .8l-.4 1.2l.2-.4l-1 1.4l-.2 .3l-.7 1.8l.1-.1l-1.2 1.9l-1.4 2.1l-.1 .2l-1 2.4l.1-.2l-1.6 2.8l-1.4 2.9l-1.5 2.9v.1l-1.5 3h.1l-1.3 2.4l-1.1 2.3l-1.3 2.8v.1l-.4 1.1l1-.7h-.3c-.2 0-.3 .1-.4 .2Z" class="g0_18"/>
<path d="M912.2 686.8l-1.1 2.2c-.1 .2-.2 .4-.1 .7c.1 .2 .2 .4 .4 .5l.5 .2l.2 .1l.5 .1c.6 .1 1.1-.2 1.3-.7c.2-.5-.1-1.1-.6-1.3c-.5-.2-1.1 0-1.4 .5c-.3 .5-.1 1.2 .4 1.5c.5 .3 1.2 .1 1.5-.4c.3-.5 .2-1.1-.3-1.5l-.4-.2l-.1-.1l-.3-.2l-.4-.1l-.8-.2h.1h-.1l.8 .8c-.2-.5-.6-.9-1.2-.9c-.5-.1-1 .3-1.2 .8v.1c-.1 .3-.1 .7 .1 1l.2 .3l-.2-.6v.6v-.2l-.4 2.1l.9-1l-1.3 .4c-.5 .1-.8 .5-.9 .9l-.1 .4l-.1 .2v.3c-.1 .6 .4 1.2 1.1 1.4c.7 .1 1.3-.3 1.5-1c.1-.7-.2-1.3-.9-1.6l-.3-.1c-.6-.2-1.4 .1-1.6 .8c-.3 .7 0 1.4 .7 1.7l.8 .3c.3 .1 .6 .2 .8 .1l.5-.1l.1-.1l1-.4l-.1 .1l2.4-.7v-.1l2.7-1l4.3-1.5l5.2-1.8l.1-.1l5.3-2.5l6.1-2.7l.1-.1l6.2-3.4H944l4.1-2.2l4.1-2.3l-.1 .1l8.1-3.3l9-3.5c.3-.1 .5-.5 .4-.9c-.1-.3-.5-.5-.8-.4l-9.3 2.8h-.1l-8.2 3.1l-.1 .1l-4.2 1.9l-4.2 2.1l-6.2 3.4h.1l-6.1 2.6v.1l-5.4 2.5h.2l-5.1 1.8l-4.4 1.6l-2.7 1.1l.1-.1l-2.3 .8h-.1l-1 .4h.1l-.4 .1h.8l-.7-.3c-.5-.1-1 0-1.4 .3c-.3 .3-.5 .9-.4 1.3c.1 .5 .5 .9 1 1h.3c.4 .1 .9 0 1.2-.2c.3-.3 .4-.7 .4-1.1v-.3v.3v-.4l-.8 1l1.3-.4c.4-.1 .8-.5 .9-.9l.3-2.2v-1.4c-.1-.4-.5-.8-.9-1h-.1l.9 1.4l-.8 .9h.1H911l.9 .1l-.3-.1l.4 .2h-.1l.4 .2c.4 .3 1 .3 1.3-.1c.4-.3 .5-.9 .2-1.3c-.2-.4-.6-.6-1-.6h-.5h.1h-.6c-.4 0-.8 .4-.8 .8c-.1 .4 .2 .9 .6 1c.5 .1 .9-.2 1-.6l.9-2.3c.1-.4-.1-.7-.4-.9c-.3-.1-.7 0-.9 .3Z" class="g0_18"/>
<path d="M940.2 747.7v.1l.1 .3v.1c.1 .2 .4 .4 .7 .4c.3-.1 .6-.3 .6-.6l.1-.2l-.1-.5l-.3-.4v-.1c-.2-.1-.5-.2-.8-.2l-.1 .1l-.5 .2l-1.1 .9l-.1 .2l-2.1 2.7l.1-.1l-2 1.8l-.1 .1l-1.8 2.2l-.1 .1l-2.2 3.2l-2.6 3.7l-.1 .1l-2.1 3.8v-.1l-2.5 3.7l.1-.1l-2.6 3.1v-.1l-2.4 2.7l.2-.2l-2.8 2.1l-.1 .1l-2.2 2v.1l-1.6 1.7l.1-.1l-1.5 1.2c-.3 .2-.4 .4-.5 .7l-.2 .9l.1-.2l-.1 .2l-.1 .4l-.1 .1v.2l.5-.8h-.1h1.4h-.1l.4 .4l-.1-.2l.1 .4l-.1-1.3v.1l-.1-3.5l-.1-2.2v-.2l-.4-2.3v.4l.3-2.1l.2-1.9l-.1 .3l.5-1.3l-.1 .1l.7-1.5l.1-.4l.1-1.3v.3l.2-.6l-1.2 .8h.2l-1.1-1l.1 .2v-.1v.8c0 .6 .4 1 .9 1.1c.5 .2 1 0 1.3-.4c.4-.4 .4-1 .1-1.4l-.1-.1c-.1-.2-.4-.4-.6-.5l-.3-.1l.7 .7l-.3-.7l-.3-.4v-.1c-.5-.5-1.3-.5-1.8 0c-.5 .4-.5 1.2-.1 1.7l.2 .3c.2 .2 .4 .3 .6 .4l.8 .2l-.3-.1l1 .6l.4 .1l1.5 .3l-.2-.1l1.5 .6l-.1-.1l1.5 .8l-.3-.2l1.5 1.5v.1l1.8 1.5h-.1l1.9 1.6h-.1l1.8 2.1l-.1-.1l1.9 2.6v.1l2 2.8v.1l2.2 2.7l2.1 2.8l.2 .1l2.1 1.9l-.1-.1l1.4 1.8l1 1.2c.4 .5 1.1 .6 1.6 .2c.5-.4 .6-1.1 .2-1.6l-.9-1.3v.1l-1.4-1.9l-.2-.2l-2.1-1.9l.2 .2l-2.1-2.8l-2.3-2.8l.1 .1l-2-2.9v.1l-1.8-2.7l-.1-.1l-1.9-2.2h-.1l-1.8-1.7v-.1l-1.8-1.5l.1 .1l-1.4-1.5l-.3-.2l-1.5-.9h-.2l-1.5-.6l-.2-.1l-1.5-.3l.4 .1l-1-.5l-.3-.1l-.7-.3l.6 .5l-.2-.3c-.3-.4-.8-.5-1.3-.5c-.4 .1-.8 .5-.9 .9c-.2 .5-.1 .9 .2 1.3l.1 .1l-.2-.4l.3 .7c.2 .4 .5 .6 .9 .7l.3 .1l-.4-.2l.1 .1c.4 .3 .9 .3 1.3 0c.4-.3 .6-.7 .6-1.2l-.1-.9l-.2-.4v-.1c-.3-.4-.7-.7-1.2-.6h-.2c-.5 0-.9 .4-1 .8l-.2 .5l-.1 .3l-.1 1.4l.2-.5l-.7 1.5l-.1 .1l-.4 1.4l-.1 .2l-.2 1.9l-.2 2v.3l.4 2.3l-.1-.2l.1 2.2l.1 3.5v.1l.2 1.3l.1 .4l.1 .2l.1 .1v.1l.3 .3l-.1-.1l.1 .1c.2 .2 .6 .3 .9 .2c.4-.1 .7-.3 .8-.6l.1-.1v-.1l.1-.1l.1-.2l.1-.3l.2-.9l-.4 .7l1.6-1.3l.1-.1l1.6-1.7h-.1l2.2-2l-.1 .1l2.8-2.1l.2-.2l2.3-2.7l2.6-3.1l.1-.1l2.5-3.7v-.1l2.1-3.8l-.1 .1l2.6-3.7l2.2-3.3l1.8-2.2l-.1 .1l1.9-1.8l.1-.1l2.1-2.8l-.2 .2l1.1-1l-.2 .1h.1l.2-.1l.3-.5l-1 .6l.2 .1c.3 0 .6-.1 .8-.4v-.1c.1-.3 .1-.6-.1-.9c-.2-.2-.5-.3-.8-.2l-.1 .1c-.3 0-.5 .3-.4 .6Z" class="g0_18"/>
</svg>