<svg viewBox="0 0 1466 825" version="1.1" xmlns="http://www.w3.org/2000/svg">
<defs>
<clipPath id="c0_44"><path d="M-.2 825.3V-.2H1467V825.3Z"/></clipPath>
<clipPath id="c1_44"><path d="M1343.9 529.1V456.4H1452v72.7Z"/></clipPath>
<clipPath id="c2_44"><path d="M1346.3 621.3V549.7h102.9v71.6Z"/></clipPath>
<clipPath id="c3_44"><path d="M1346.4 716.6V641.9h103v74.7Z"/></clipPath>
<clipPath id="c4_44"><path d="M1353 825V744.6h96.2V825Z"/></clipPath>
<clipPath id="c5_44"><path d="M20.4 814V469.2H616.7V814Z"/></clipPath>
<style>
.g0_44{fill:#F00;}
.g1_44{fill:none;stroke:#000;stroke-width:1.466;stroke-linejoin:round;}
</style>
</defs>
<image clip-path="url(#c0_44)" preserveAspectRatio="none" x="0" y="-7" width="1467" height="840" href="img/1.jpg"/>
<path fill-rule="evenodd" d="M951 349.8l3.8 2.4l-3 3.4l-3.1-2l-2.4 2.5l-3.7-2.1l2.8-3.6l3.3 2.1Zm194.1-12.9l7 3.7l-3.6 6.7l-7-3.6Zm-12.5-.3l5.5 3.1l-3.1 5.7l-4.4-2.2l-2.5 4.9l-5.4-3.1l3.2-6l4.3 2.3Zm-394.1-5.4l6.9 3.7l-3.6 6.7l-6.9-3.7Zm432.5-9.9c-.8 0-1.4 .9-2 2.7c1.1 .4 1.9 .7 2.4 .9c1.6 .6 2.5 .9 2.7 .9c.4 0 .7-.1 .7-.4c0-.4-.5-1.2-1.3-2.3c-1-1.2-1.8-1.8-2.5-1.8Zm123.2-.9c-1.3 0-2.7 .4-4.4 1.3c-1.6 .8-4 2.4-7.1 4.6h7.8c6.6 0 9.8-1 9.8-3c0-.7-.7-1.4-2.2-2c-1.4-.6-2.7-.9-3.9-.9Zm-182.5 0c-1.3 0-2.7 .4-4.4 1.3c-1.6 .8-4 2.4-7.1 4.6h7.8c6.7 0 10-1 10-3c0-.8-.6-1.4-1.8-2c-1.2-.6-2.7-.9-4.5-.9Zm257.9-5.2c1.4 2.4 2.4 4.4 2.8 5.9c.4 1.4 .6 3.1 .6 5.2h2.7c3.1 0 5.2-.3 6.3-1c1.2-.8 1.8-2 1.8-3.8c0-.8 .1-1.4 .2-1.8c.2-.3 .5-.7 1.1-1.1l1.4-1c0 .4 .1 .9 .1 1.5c0 .7 0 1.1 0 1.3c0 1.1-.2 2.5-.5 4.3c.9 .3 1.9 .6 2.8 .9c.9 .2 1.8 .4 2.6 .5c0-.7-.3-1.6-.7-2.6c-.6-1-.8-1.7-.8-2c0-.3 0-.5 .1-.7c.1-.2 .2-.5 .5-.9l2.8-4c.5 1.3 .9 2.4 1.2 3.4c.2 1 .3 2.3 .3 3.9v11.2c-2.2 0-3.8-.1-4.7-.3c-.9-.2-2.7-.8-5.2-1.7c-1.2 .8-2.2 1.4-3.1 1.6c-.9 .3-2.3 .4-4.1 .4H1373c0 4.6-1.5 7.9-4.4 10c-2.6 1.7-6.5 2.6-11.6 2.6c-4.9 0-8.6-.9-11.2-2.6c-2.6-1.8-3.9-4.3-3.9-7.5c0-2.8 .4-5.3 1.2-7.6c1-2.5 2.7-5.8 5.4-9.8l1.8 1.2c-2 3.4-3.3 5.8-3.9 7.3c-.6 1.6-.9 3.1-.9 4.7c0 2.1 1.1 3.8 3.4 5.1c2.2 1.4 5.2 2 8.8 2c3.6 0 6.6-.7 9-2c2.5-1.4 3.7-3.1 3.7-5.1c0-1.2-.2-2.4-.7-3.6c-.4-1.3-1.3-3.2-2.7-5.9Zm47.6-.2c1.3 1.4 2.3 3 3.1 4.8c.7 1.8 1.1 3.9 1.1 6.2v9.1c0 1.2-.7 2.8-2.1 4.8c-1.4 2-3 3.8-4.9 5.2c-2 1.7-3.8 2.5-5.3 2.5c-1.7 0-3.6-.5-5.6-1.5c-1.8-.9-4.5-2.6-8.2-5.1l1.2-1.9c1.8 1.2 3.3 2 4.3 2.4c1.2 .4 2.3 .6 3.6 .6c1.4 0 2.7-.4 4.1-1.1c1.4-.8 3.3-2.2 5.6-4.3c3.3-3 5-5.2 5-6.8c0-.8-.3-1.9-1-3.2c-.7-1.4-1.6-2.7-2.6-3.6Zm-506.4-1.9c1.5 1.7 2.6 3.5 3.1 5.3c.6 1.9 .8 4.6 .8 8.2v7.8H894.3c-3.7 0-6.9 .3-9.7 .9c-2.8 .6-4.2 1.3-4.2 2.1c.8 2.4 1.5 4.7 2.1 6.7c.6 2.1 .9 4.1 .9 6c0 1.3-.1 2.4-.4 3.2c-.3 .9-.8 1.8-1.5 2.8c-.2-2.6-.7-5.4-1.5-8.3c-.2-1-.9-3.1-1.9-6.4c-.7-2-1-3.3-1-4c0-.9 .3-2.1 .8-3.5c.4-1.1 .9-2.1 1.4-3c.7-1 1.8-1.7 3.4-2.3c1.5-.6 3.9-1.1 7.2-1.4c-1.6-2.2-3-3.4-4.2-3.4c-.5 0-1 .2-1.4 .6c-.5 .4-1.2 1.3-2.3 2.7l-1.4-.8c.9-3 2-5.3 3.2-7c1.3-1.6 2.7-2.4 4.3-2.4c1.3 0 2.8 .7 4.4 2.3c1.6 1.5 3.5 3.9 5.7 7.1h13.5c-.2-1.3-.6-2.5-1.1-3.4c-.4-.5-1-1.4-2.1-2.7Zm403-1.3c-.6 0-1.1 .3-1.6 .9c-.5 .5-.7 1.1-.7 1.8c0 .5 .2 .9 .5 1.2c.4 .3 .9 .4 1.4 .4c.5 0 1-.1 1.4-.4c.5-.2 1.1-.7 1.7-1.3c-.5-1-1-1.6-1.4-2c-.4-.4-.8-.6-1.3-.6ZM737.4 311c.7 0 2.1 .1 4.2 .3c2 .2 3.9 .4 5.5 .5c3 .2 6 .4 8.9 .4l-1.8 7.2c-1.2 0-2.2 0-3 .2c-1.2 .2-2.1 .4-3 .6c-.1 .4-.2 .8-.2 1.3c-.1 .5-.1 .8-.1 1.1c0 1.4 .5 2.4 1.4 2.9c.9 .5 2.7 .8 5.2 .8h18.3c-.2-1.3-.6-2.5-1.2-3.4c-.3-.5-1-1.4-2.1-2.7l2.4-7.1c1.5 1.7 2.5 3.5 3 5.3c.5 1.6 .8 3.9 .8 6.9l.1 1h13.5c-.2-1.3-.6-2.5-1.2-3.4c-.3-.5-1-1.4-2.1-2.7l2.4-7.1c1.5 1.7 2.5 3.5 3 5.3c.5 1.6 .8 3.9 .8 6.9l.1 1h13.5c-.2-1.3-.6-2.5-1.2-3.4c-.3-.5-1-1.4-2.1-2.7l2.4-7.1c1.5 1.7 2.5 3.5 3 5.3c.5 1.6 .8 3.9 .8 6.9l.1 1h2.1c2 0 3.8-.6 5.2-1.7c1.8-1.6 2.7-3.9 2.7-7l2 .3c-.1 .6-.1 1.3-.2 2.2c0 .8 0 1.7 0 2.7c0 1 .3 1.8 1 2.5c.7 .7 1.5 1 2.4 1h3.7c2.4 0 4.1-.3 5.2-1c1.2-.8 1.8-2.3 1.8-4.6c0-.4 .2-.9 .5-1.2c.2-.3 .5-.6 1.1-1l1.1-.9c.1 .4 .1 .9 .1 1.5c0 .7 0 1.1 0 1.3c0 1.1-.1 2.5-.4 4.3c.7 .4 1.5 .7 2.4 1c.9 .2 1.9 .4 2.9 .6c0-.7-.2-1.6-.7-2.7c-.5-1-.8-1.8-.8-2.1c0-.6 .1-1 .2-1.2c.1-.1 .3-.4 .7-1l2.5-3.4c.6 1.3 1 2.4 1.2 3.4c.2 1 .3 2.3 .3 3.9v11.2c-2.2 0-4-.1-5.5-.5c-1.5-.3-2.9-.8-4.4-1.5c-1.1 .8-2.1 1.4-3.1 1.6c-.9 .3-2.2 .4-4 .4h-4.9c-1.3 0-2.4-.3-3.1-1c-.8-.7-1.5-1.9-2.1-3.5c-1.1 1.7-2.3 2.9-3.7 3.6c-1.2 .6-2.5 .9-4.1 .9H754.5c-3.5 0-5.8-.5-7.1-1.5c-1.3-1-1.9-2.9-1.9-5.7c0-1.3 .1-2.5 .2-3.6c.1-.4 .2-1.4 .5-2.9c-4.5 1.1-8.2 2.9-11 5.5c-2.8 2.7-4.3 5.7-4.3 9.1c0 4 1.7 7 5.1 9.2c3.4 2.1 8.4 3.2 14.8 3.2c1.9 0 4.6-.2 8.1-.5l.5 .9l-11.3 7.3h-2.9c-5.8 0-10.3-1.4-13.4-4.4c-3.2-2.9-4.7-7.1-4.7-12.6c0-4.2 .9-8 2.8-11.6c1.9-3.5 4.3-6.1 7.3-7.7h-.7c-1.8 0-3.3 .2-4.5 .6c-1.2 .3-3.1 1.1-5.5 2.4c.9-7.4 4.5-11.1 10.9-11.1Zm502.2-4.1c2.2 0 4.2 .4 6.1 1.5c1.8 1 3.4 2.4 4.7 4.3c-.6 0-1.2 0-1.7 0c-.6-.1-1.1-.1-1.7-.1c-4.1 0-7.5 .3-10 1c-2.5 .6-3.8 1.5-3.8 2.5c0 .9 .4 1.7 1.3 2.5c1 1 2.7 2 5 3c2.8-1.2 4.9-2 6.3-2.4c1.5-.5 3.8-1.1 6.9-1.8c-.5 1.7-1 3-1.3 3.8c-.3 .9-.9 2.1-1.6 3.5c-6 1.5-10.8 3.5-14.3 6c-3.6 2.6-5.3 5.3-5.3 8.2c0 2.7 1.5 4.8 4.5 6.3c3.5 1.7 9 2.5 16.4 2.5h.7c1.2 0 2 0 2.6-.1c.5 0 1.5-.1 2.9-.2l.6 1.2l-11.3 7h-3c-5.6 0-9.8-1.2-12.6-3.5c-2.8-2.4-4.2-5.9-4.2-10.5c0-3 .4-5.6 1.1-7.8c.9-2.6 2.3-4.8 4.2-6.7c-1-1.2-1.8-2.5-2.6-4c-.7-1.5-1.1-2.7-1.1-3.6c0-1.1 .4-2.8 1.3-5.1c.8-2.2 1.7-3.8 2.5-4.8c.7-.8 1.7-1.5 3.1-2c1.3-.5 2.8-.7 4.3-.7Zm195.7-.6c2.6 1.9 4.4 4.4 5.5 7.4c1 2.8 1.5 6.5 1.5 11.2v9.5h-13.5c-1.3 0-2.3-.3-3-.8c-.9-.7-1.3-1.8-1.3-3.3c0-.9 .1-1.8 .2-2.9c0-1 .2-2 .4-3l1.1-.1c.1 .7 .5 1.2 1 1.5c.6 .4 1.2 .5 2 .5h10.3c-.5-2.9-1.3-5.2-2.4-7c-.9-1.4-2.2-2.7-3.9-3.8Zm-429.1-6.8l5.6 3.1l-3.1 5.7l-4.4-2.2l-2.5 4.9l-5.5-3.1l3.3-6.1l4.3 2.4Zm-97.4 0l5.5 3.1l-3.3 6l-4.3-2.3l-2.3 4.7l-5.6-3.1l3.1-5.8l4.4 2.2Zm-106.1 0l5.6 3.1l-3.1 5.7l-4.4-2.2l-2.5 4.9l-5.5-3.1l3.3-6.1l4.3 2.4Zm-33 0l5.6 3.1l-3.1 5.7l-4.4-2.2l-2.5 4.9l-5.5-3.1l3.3-6.1l4.3 2.4Zm329.9-.8l6.9 3.7l-3.6 6.7l-6.9-3.7Zm-314.1-.4l6.9 3.7l-3.5 6.6l-7-3.6Zm664.4-.1l1.7 10.6c.7 4 1.2 7.5 1.4 10.4c.2 2.3 .3 4.5 .3 6.6c0 1.7-.2 3.3-.6 4.8c-.4 1.4-1.2 3.4-2.4 5.9l-1.8-.7c.5-2.6 .7-4.6 .7-6.2c0-1.2-.1-3-.3-5.4c-.2-2.3-.4-4.6-.7-6.9c-.3-2.3-.8-5.1-1.5-8.2c-.2-1.2-.4-1.9-.4-2.3c0-.7 .4-1.7 1-3.2c.6-1.5 1.4-3.3 2.6-5.4Zm-247.7 0l1.8 10.6c.6 4 1.1 7.5 1.3 10.4c.2 2.3 .3 4.5 .3 6.6c0 1.7-.2 3.3-.6 4.8c-.4 1.4-1.2 3.4-2.4 5.9l-1.8-.7c.5-2.6 .7-4.6 .7-6.2c0-1.2-.1-3-.3-5.4c-.2-2.3-.4-4.6-.7-6.9c-.3-2.3-.8-5.1-1.5-8.2c-.2-1.2-.4-1.9-.4-2.3c0-.7 .4-1.7 1-3.2c.6-1.5 1.5-3.3 2.6-5.4Zm-168.1 0l1.7 10.6c.7 4 1.2 7.5 1.4 10.4c.2 2.3 .3 4.5 .3 6.6c0 1.7-.2 3.3-.6 4.8c-.4 1.4-1.2 3.4-2.4 5.9l-1.8-.7c.5-2.6 .7-4.6 .7-6.2c0-1.2-.1-3-.3-5.4c-.2-2.3-.4-4.6-.8-6.9c-.2-2.3-.7-5.1-1.4-8.2c-.2-1.2-.4-1.9-.4-2.3c0-.7 .4-1.7 1-3.2c.6-1.5 1.4-3.3 2.6-5.4Zm-180.6 0l1.8 10.6c.6 4 1.1 7.5 1.3 10.4c.2 2.3 .3 4.5 .3 6.6c0 1.7-.2 3.3-.6 4.8c-.4 1.4-1.2 3.4-2.4 5.9l-1.8-.7c.5-2.6 .7-4.6 .7-6.2c0-1.2-.1-3-.3-5.4c-.2-2.3-.4-4.6-.7-6.9c-.3-2.3-.8-5.1-1.5-8.2c-.2-1.2-.4-1.9-.4-2.3c0-.7 .4-1.7 1-3.2c.6-1.5 1.5-3.3 2.6-5.4Zm334.9-2.3l1.4 .7c0 .1-.1 .4-.2 1c0 .6 .4 1.2 1.3 1.9c.7 .5 1.9 1.1 3.5 1.8c-.2 1.3-.4 2.5-.8 3.7c-.3 1.2-.7 2.3-1.2 3.3l-1-.4l3.2 18.4v8.1h-16.4v-.1l-.4-.1c-1.4-.2-3.1-.5-4.8-1c-2.5-.7-4.7-1.6-6.6-2.6c-1.1 1.8-2.6 2.9-4.3 3.4c-.8 .3-1.9 .4-3.3 .4h-68.7c0 4.7-1.5 8-4.4 10c-2.6 1.8-6.4 2.6-11.6 2.6c-4.8 0-8.6-.9-11.2-2.6c-2.6-1.8-3.9-4.3-3.9-7.5c0-2.8 .4-5.3 1.3-7.6c.9-2.5 2.7-5.8 5.3-9.8l1.8 1.2c-2 3.4-3.2 5.8-3.9 7.3c-.5 1.6-.9 3.1-.9 4.7c0 2.1 1.2 3.8 3.4 5.1c2.2 1.4 5.2 2 8.8 2c3.6 0 6.6-.7 9-2c2.5-1.4 3.7-3.1 3.7-5.1c0-1.2-.2-2.4-.6-3.6c-.5-1.3-1.4-3.2-2.8-5.9l2.6-8c1.1 2.1 1.7 3.3 1.9 3.6c.6 1.2 1 2.4 1.2 3.4c.2 1.1 .3 2.5 .3 4.1c1.3 0 2.5-.3 3.5-1c.2-.1 1.1-.7 3-2.1l10.7-7.6c1.6-1.2 2.9-1.9 3.7-2.4c1.2-.5 2.3-.8 3.5-.8c2.2 0 4 .8 5.3 2.4c1.4 1.8 2.2 4.5 2.2 8.2v3.3h13.6c-.2-1.3-.6-2.5-1.2-3.4c-.3-.5-1-1.4-2.1-2.7l2.4-7.1c1.5 1.7 2.5 3.5 3.1 5.3c.4 1.6 .7 3.9 .8 6.9v1h13.5c-.2-1.3-.6-2.5-1.2-3.4c-.3-.5-1-1.4-2.1-2.7l2.4-7.1c1.5 1.7 2.5 3.5 3.1 5.3c.4 1.6 .7 3.9 .8 6.9v1h3.7c1.8 0 3.2-.2 4.3-.6c1.3-.6 2.3-1.6 2.8-2.9c1.1-2.6 2.6-4.6 4.3-6.3c1.6-1.4 2.9-2.1 4-2.1c1 0 2.3 1.5 3.8 4.6c1.2 2.4 1.9 4.7 2.2 6.8v.5H1191l-3.6-20.2l-1.9-1.3c0-1.2 .2-2.3 .6-3.5c.4-1.5 1.2-3.3 2.3-5.4Zm-168.1 0l1.3 .7c0 .1 0 .4-.1 1c0 .6 .4 1.2 1.3 1.9c.7 .5 1.9 1.1 3.5 1.8c-.2 1.3-.5 2.5-.8 3.7c-.4 1.2-.7 2.3-1.2 3.3l-1.1-.4l3.3 18.4v8.1h-35c-2.3 0-4-.9-5-2.8c-1.2-2.1-1.8-5.7-1.8-10.7v-8.5c0-1.9-.2-3.4-.8-4.5c-.2-.5-.8-1.2-1.7-2.2l3.2-7.5c1.1 1.6 1.9 3.2 2.4 4.7c.5 1.8 .8 4.2 .8 7v5.8c0 4.2 .3 7.1 .8 8.7c.5 1.3 1.2 1.9 2.1 1.9h17.8c-.2-1.3-.6-2.5-1.2-3.4c-.3-.5-1-1.4-2.1-2.7l2.4-7.1c1.5 1.7 2.5 3.5 3 5.3c.5 1.6 .8 3.9 .8 6.9l.1 1h10.6l-3.6-20.2l-1.9-1.3c0-1.2 .2-2.3 .5-3.5c.5-1.5 1.3-3.3 2.4-5.4Zm-45.1 0l1.3 .7c0 .1 0 .4-.1 1c0 .6 .4 1.2 1.3 1.9c.7 .5 1.9 1.1 3.5 1.8c-.2 1.3-.5 2.5-.8 3.7c-.4 1.2-.7 2.3-1.2 3.3l-1.1-.4l3.3 18.4v8.1H964c-.8 0-1.5 0-1.9 .1c-.4 0-.6 .1-.6 .4c.6 .3 1.2 .5 1.7 .7c.5 .1 .8 .3 1 .5c.1 .2 .2 .5 .2 1c0 1.4-.4 3.1-1.2 5c-.8 2-1.6 3.2-2.4 3.7c-.7 .6-2.9 1.3-6.5 2.1c-3.6 .8-6.8 1.2-9.4 1.2c-3.7 0-6.8-.8-9-2.3c-2.4-1.6-3.5-3.6-3.5-6.1c0-2.4 .5-4.7 1.5-6.9c1.2-2.7 3.5-6.1 6.8-10.1l1.8 1.2c-2.1 2.5-3.5 4.6-4.3 6.2c-.8 1.6-1.2 3.1-1.2 4.7c0 2.1 .9 3.7 2.6 4.7c1.8 1 4.5 1.5 8.2 1.5c1.9 0 4.5-.3 7.9-1c3.4-.7 5.1-1.3 5.1-1.8c0-.3-.7-.5-2-.7c-1.3-.2-2.7-.3-4.2-.3c-2.3 0-3.4-.5-3.4-1.5c0-.4 .2-1.3 .8-2.4c.4-.8 .7-1.7 1.1-2.5c.8-1.6 2.2-2.9 4.3-4c2-1 4.2-1.5 6.5-1.5h13.9l-3.6-20.2l-1.9-1.3c0-1.2 .2-2.3 .5-3.5c.5-1.5 1.3-3.3 2.4-5.4Zm304.8-2.4l1.4 .6c0 .1-.1 .4-.1 .8c0 .7 .9 1.5 2.9 2.4c.7 .4 1.6 .8 3 1.3c-.2 1.5-.6 3-1 4.3c-.2 .7-.6 1.7-1.2 3.2l-1.1-.4c.7 2.8 1.1 4.9 1.3 6.3c.2 1.3 .3 2.5 .3 3.5v.4c0 .6 0 1-.1 1.3c0 .4-.1 .9-.2 1.6c1-.8 2.1-1.5 3.1-2.3c1.6-1.1 3.1-2 4.3-2.7c1.7-1 3-1.4 3.9-1.4c2.3 0 4.2 .6 5.6 1.8c1.6 1.4 2.4 3.4 2.4 5.9v6.2h15.7c0-1.7 0-2.9-.1-3.7c-.2-1.1-.5-2.1-1-2.9c-.7 1.2-1.5 2.1-2.6 2.8c-1.1 .7-2.2 1-3.4 1c-1.6 0-2.9-.5-4-1.6c-1.1-1.1-1.7-2.4-1.7-4c0-2.3 .7-5.1 2.2-8.3c1.5-3.5 3.1-5.3 4.7-5.3c2.1 0 4.1 1.8 5.9 5.4c1.9 3.7 2.8 7.5 2.8 11.6v13.1h-54.7c-2.3 0-4-.9-5-2.8c-1.1-2.1-1.7-5.7-1.7-10.7v-8.5c0-1.9-.3-3.4-.8-4.5c-.3-.5-.9-1.2-1.8-2.2l3.2-7.5c1.2 1.6 2 3.2 2.4 4.7c.6 1.8 .8 4.2 .8 7v5.8c0 4.2 .3 7.1 .9 8.7c.4 1.3 1.1 1.9 2 1.9h6.1c.5 0 1.8-.8 4-2.5c.7-.5 1.8-1.3 3.2-2.5c0-2.4-.1-4.5-.3-6.2c-.1-1.6-.4-3.4-.8-5.2c-.1-.5-.7-2.6-1.6-6.5l-1.8-1.1c.5-2.1 .9-3.6 1.2-4.5c.3-.9 .8-2.3 1.7-4.3Zm-377.1-.9l5.6 2.9l-3 6.2l-5.6-3Zm411.8-.9l5.5 3l-3.1 5.8l-4.4-2.2l-2.5 4.8l-5.4-3l3.3-6.1l4.2 2.4Z" class="g0_44"/>
<path d="M951 349.8l3.8 2.4l-3 3.4l-3.1-2l-2.4 2.5l-3.7-2.1l2.8-3.6l3.3 2.1Zm194.1-12.9l7 3.7l-3.6 6.7l-7-3.6Zm-12.5-.3l5.5 3.1l-3.1 5.7l-4.4-2.2l-2.5 4.9l-5.4-3.1l3.2-6l4.3 2.3Zm-394.1-5.4l6.9 3.7l-3.6 6.7l-6.9-3.7Zm432.5-9.9c-.8 0-1.4 .9-2 2.7c1.1 .4 1.9 .7 2.4 .9c1.6 .6 2.5 .9 2.7 .9c.4 0 .7-.1 .7-.4c0-.4-.5-1.2-1.3-2.3c-1-1.2-1.8-1.8-2.5-1.8Zm123.2-.9c-1.3 0-2.7 .4-4.4 1.3c-1.6 .8-4 2.4-7.1 4.6h7.8c6.6 0 9.8-1 9.8-3c0-.7-.7-1.4-2.2-2c-1.4-.6-2.7-.9-3.9-.9Zm-182.5 0c-1.3 0-2.7 .4-4.4 1.3c-1.6 .8-4 2.4-7.1 4.6h7.8c6.7 0 10-1 10-3c0-.8-.6-1.4-1.8-2c-1.2-.6-2.7-.9-4.5-.9Zm257.9-5.2c1.4 2.4 2.4 4.4 2.8 5.9c.4 1.4 .6 3.1 .6 5.2h2.7c3.1 0 5.2-.3 6.3-1c1.2-.8 1.8-2 1.8-3.8c0-.8 .1-1.4 .2-1.8c.2-.3 .5-.7 1.1-1.1l1.4-1c0 .4 .1 .9 .1 1.5c0 .7 0 1.1 0 1.3c0 1.1-.2 2.5-.5 4.3c.9 .3 1.9 .6 2.8 .9c.9 .2 1.8 .4 2.6 .5c0-.7-.3-1.6-.7-2.6c-.6-1-.8-1.7-.8-2c0-.3 0-.5 .1-.7c.1-.2 .2-.5 .5-.9l2.8-4c.5 1.3 .9 2.4 1.2 3.4c.2 1 .3 2.3 .3 3.9v11.2c-2.2 0-3.8-.1-4.7-.3c-.9-.2-2.7-.8-5.2-1.7c-1.2 .8-2.2 1.4-3.1 1.6c-.9 .3-2.3 .4-4.1 .4H1373c0 4.6-1.5 7.9-4.4 10c-2.6 1.7-6.5 2.6-11.6 2.6c-4.9 0-8.6-.9-11.2-2.6c-2.6-1.8-3.9-4.3-3.9-7.5c0-2.8 .4-5.3 1.2-7.6c1-2.5 2.7-5.8 5.4-9.8l1.8 1.2c-2 3.4-3.3 5.8-3.9 7.3c-.6 1.6-.9 3.1-.9 4.7c0 2.1 1.1 3.8 3.4 5.1c2.2 1.4 5.2 2 8.8 2c3.6 0 6.6-.7 9-2c2.5-1.4 3.7-3.1 3.7-5.1c0-1.2-.2-2.4-.7-3.6c-.4-1.3-1.3-3.2-2.7-5.9Zm47.6-.2c1.3 1.4 2.3 3 3.1 4.8c.7 1.8 1.1 3.9 1.1 6.2v9.1c0 1.2-.7 2.8-2.1 4.8c-1.4 2-3 3.8-4.9 5.2c-2 1.7-3.8 2.5-5.3 2.5c-1.7 0-3.6-.5-5.6-1.5c-1.8-.9-4.5-2.6-8.2-5.1l1.2-1.9c1.8 1.2 3.3 2 4.3 2.4c1.2 .4 2.3 .6 3.6 .6c1.4 0 2.7-.4 4.1-1.1c1.4-.8 3.3-2.2 5.6-4.3c3.3-3 5-5.2 5-6.8c0-.8-.3-1.9-1-3.2c-.7-1.4-1.6-2.7-2.6-3.6Zm-506.4-1.9c1.5 1.7 2.6 3.5 3.1 5.3c.6 1.9 .8 4.6 .8 8.2v7.8H894.3c-3.7 0-6.9 .3-9.7 .9c-2.8 .6-4.2 1.3-4.2 2.1c.8 2.4 1.5 4.7 2.1 6.7c.6 2.1 .9 4.1 .9 6c0 1.3-.1 2.4-.4 3.2c-.3 .9-.8 1.8-1.5 2.8c-.2-2.6-.7-5.4-1.5-8.3c-.2-1-.9-3.1-1.9-6.4c-.7-2-1-3.3-1-4c0-.9 .3-2.1 .8-3.5c.4-1.1 .9-2.1 1.4-3c.7-1 1.8-1.7 3.4-2.3c1.5-.6 3.9-1.1 7.2-1.4c-1.6-2.2-3-3.4-4.2-3.4c-.5 0-1 .2-1.4 .6c-.5 .4-1.2 1.3-2.3 2.7l-1.4-.8c.9-3 2-5.3 3.2-7c1.3-1.6 2.7-2.4 4.3-2.4c1.3 0 2.8 .7 4.4 2.3c1.6 1.5 3.5 3.9 5.7 7.1h13.5c-.2-1.3-.6-2.5-1.1-3.4c-.4-.5-1-1.4-2.1-2.7Zm403-1.3c-.6 0-1.1 .3-1.6 .9c-.5 .5-.7 1.1-.7 1.8c0 .5 .2 .9 .5 1.2c.4 .3 .9 .4 1.4 .4c.5 0 1-.1 1.4-.4c.5-.2 1.1-.7 1.7-1.3c-.5-1-1-1.6-1.4-2c-.4-.4-.8-.6-1.3-.6ZM737.4 311c.7 0 2.1 .1 4.2 .3c2 .2 3.9 .4 5.5 .5c3 .2 6 .4 8.9 .4l-1.8 7.2c-1.2 0-2.2 0-3 .2c-1.2 .2-2.1 .4-3 .6c-.1 .4-.2 .8-.2 1.3c-.1 .5-.1 .8-.1 1.1c0 1.4 .5 2.4 1.4 2.9c.9 .5 2.7 .8 5.2 .8h18.3c-.2-1.3-.6-2.5-1.2-3.4c-.3-.5-1-1.4-2.1-2.7l2.4-7.1c1.5 1.7 2.5 3.5 3 5.3c.5 1.6 .8 3.9 .8 6.9l.1 1h13.5c-.2-1.3-.6-2.5-1.2-3.4c-.3-.5-1-1.4-2.1-2.7l2.4-7.1c1.5 1.7 2.5 3.5 3 5.3c.5 1.6 .8 3.9 .8 6.9l.1 1h13.5c-.2-1.3-.6-2.5-1.2-3.4c-.3-.5-1-1.4-2.1-2.7l2.4-7.1c1.5 1.7 2.5 3.5 3 5.3c.5 1.6 .8 3.9 .8 6.9l.1 1h2.1c2 0 3.8-.6 5.2-1.7c1.8-1.6 2.7-3.9 2.7-7l2 .3c-.1 .6-.1 1.3-.2 2.2c0 .8 0 1.7 0 2.7c0 1 .3 1.8 1 2.5c.7 .7 1.5 1 2.4 1h3.7c2.4 0 4.1-.3 5.2-1c1.2-.8 1.8-2.3 1.8-4.6c0-.4 .2-.9 .5-1.2c.2-.3 .5-.6 1.1-1l1.1-.9c.1 .4 .1 .9 .1 1.5c0 .7 0 1.1 0 1.3c0 1.1-.1 2.5-.4 4.3c.7 .4 1.5 .7 2.4 1c.9 .2 1.9 .4 2.9 .6c0-.7-.2-1.6-.7-2.7c-.5-1-.8-1.8-.8-2.1c0-.6 .1-1 .2-1.2c.1-.1 .3-.4 .7-1l2.5-3.4c.6 1.3 1 2.4 1.2 3.4c.2 1 .3 2.3 .3 3.9v11.2c-2.2 0-4-.1-5.5-.5c-1.5-.3-2.9-.8-4.4-1.5c-1.1 .8-2.1 1.4-3.1 1.6c-.9 .3-2.2 .4-4 .4h-4.9c-1.3 0-2.4-.3-3.1-1c-.8-.7-1.5-1.9-2.1-3.5c-1.1 1.7-2.3 2.9-3.7 3.6c-1.2 .6-2.5 .9-4.1 .9H754.5c-3.5 0-5.8-.5-7.1-1.5c-1.3-1-1.9-2.9-1.9-5.7c0-1.3 .1-2.5 .2-3.6c.1-.4 .2-1.4 .5-2.9c-4.5 1.1-8.2 2.9-11 5.5c-2.8 2.7-4.3 5.7-4.3 9.1c0 4 1.7 7 5.1 9.2c3.4 2.1 8.4 3.2 14.8 3.2c1.9 0 4.6-.2 8.1-.5l.5 .9l-11.3 7.3h-2.9c-5.8 0-10.3-1.4-13.4-4.4c-3.2-2.9-4.7-7.1-4.7-12.6c0-4.2 .9-8 2.8-11.6c1.9-3.5 4.3-6.1 7.3-7.7h-.7c-1.8 0-3.3 .2-4.5 .6c-1.2 .3-3.1 1.1-5.5 2.4c.9-7.4 4.5-11.1 10.9-11.1Zm502.2-4.1c2.2 0 4.2 .4 6.1 1.5c1.8 1 3.4 2.4 4.7 4.3c-.6 0-1.2 0-1.7 0c-.6-.1-1.1-.1-1.7-.1c-4.1 0-7.5 .3-10 1c-2.5 .6-3.8 1.5-3.8 2.5c0 .9 .4 1.7 1.3 2.5c1 1 2.7 2 5 3c2.8-1.2 4.9-2 6.3-2.4c1.5-.5 3.8-1.1 6.9-1.8c-.5 1.7-1 3-1.3 3.8c-.3 .9-.9 2.1-1.6 3.5c-6 1.5-10.8 3.5-14.3 6c-3.6 2.6-5.3 5.3-5.3 8.2c0 2.7 1.5 4.8 4.5 6.3c3.5 1.7 9 2.5 16.4 2.5h.7c1.2 0 2 0 2.6-.1c.5 0 1.5-.1 2.9-.2l.6 1.2l-11.3 7h-3c-5.6 0-9.8-1.2-12.6-3.5c-2.8-2.4-4.2-5.9-4.2-10.5c0-3 .4-5.6 1.1-7.8c.9-2.6 2.3-4.8 4.2-6.7c-1-1.2-1.8-2.5-2.6-4c-.7-1.5-1.1-2.7-1.1-3.6c0-1.1 .4-2.8 1.3-5.1c.8-2.2 1.7-3.8 2.5-4.8c.7-.8 1.7-1.5 3.1-2c1.3-.5 2.8-.7 4.3-.7Zm195.7-.6c2.6 1.9 4.4 4.4 5.5 7.4c1 2.8 1.5 6.5 1.5 11.2v9.5h-13.5c-1.3 0-2.3-.3-3-.8c-.9-.7-1.3-1.8-1.3-3.3c0-.9 .1-1.8 .2-2.9c0-1 .2-2 .4-3l1.1-.1c.1 .7 .5 1.2 1 1.5c.6 .4 1.2 .5 2 .5h10.3c-.5-2.9-1.3-5.2-2.4-7c-.9-1.4-2.2-2.7-3.9-3.8Zm-429.1-6.8l5.6 3.1l-3.1 5.7l-4.4-2.2l-2.5 4.9l-5.5-3.1l3.3-6.1l4.3 2.4Zm-97.4 0l5.5 3.1l-3.3 6l-4.3-2.3l-2.3 4.7l-5.6-3.1l3.1-5.8l4.4 2.2Zm-106.1 0l5.6 3.1l-3.1 5.7l-4.4-2.2l-2.5 4.9l-5.5-3.1l3.3-6.1l4.3 2.4Zm-33 0l5.6 3.1l-3.1 5.7l-4.4-2.2l-2.5 4.9l-5.5-3.1l3.3-6.1l4.3 2.4Zm329.9-.8l6.9 3.7l-3.6 6.7l-6.9-3.7Zm-314.1-.4l6.9 3.7l-3.5 6.6l-7-3.6Zm664.4-.1l1.7 10.6c.7 4 1.2 7.5 1.4 10.4c.2 2.3 .3 4.5 .3 6.6c0 1.7-.2 3.3-.6 4.8c-.4 1.4-1.2 3.4-2.4 5.9l-1.8-.7c.5-2.6 .7-4.6 .7-6.2c0-1.2-.1-3-.3-5.4c-.2-2.3-.4-4.6-.7-6.9c-.3-2.3-.8-5.1-1.5-8.2c-.2-1.2-.4-1.9-.4-2.3c0-.7 .4-1.7 1-3.2c.6-1.5 1.4-3.3 2.6-5.4Zm-247.7 0l1.8 10.6c.6 4 1.1 7.5 1.3 10.4c.2 2.3 .3 4.5 .3 6.6c0 1.7-.2 3.3-.6 4.8c-.4 1.4-1.2 3.4-2.4 5.9l-1.8-.7c.5-2.6 .7-4.6 .7-6.2c0-1.2-.1-3-.3-5.4c-.2-2.3-.4-4.6-.7-6.9c-.3-2.3-.8-5.1-1.5-8.2c-.2-1.2-.4-1.9-.4-2.3c0-.7 .4-1.7 1-3.2c.6-1.5 1.5-3.3 2.6-5.4Zm-168.1 0l1.7 10.6c.7 4 1.2 7.5 1.4 10.4c.2 2.3 .3 4.5 .3 6.6c0 1.7-.2 3.3-.6 4.8c-.4 1.4-1.2 3.4-2.4 5.9l-1.8-.7c.5-2.6 .7-4.6 .7-6.2c0-1.2-.1-3-.3-5.4c-.2-2.3-.4-4.6-.8-6.9c-.2-2.3-.7-5.1-1.4-8.2c-.2-1.2-.4-1.9-.4-2.3c0-.7 .4-1.7 1-3.2c.6-1.5 1.4-3.3 2.6-5.4Zm-180.6 0l1.8 10.6c.6 4 1.1 7.5 1.3 10.4c.2 2.3 .3 4.5 .3 6.6c0 1.7-.2 3.3-.6 4.8c-.4 1.4-1.2 3.4-2.4 5.9l-1.8-.7c.5-2.6 .7-4.6 .7-6.2c0-1.2-.1-3-.3-5.4c-.2-2.3-.4-4.6-.7-6.9c-.3-2.3-.8-5.1-1.5-8.2c-.2-1.2-.4-1.9-.4-2.3c0-.7 .4-1.7 1-3.2c.6-1.5 1.5-3.3 2.6-5.4Zm334.9-2.3l1.4 .7c0 .1-.1 .4-.2 1c0 .6 .4 1.2 1.3 1.9c.7 .5 1.9 1.1 3.5 1.8c-.2 1.3-.4 2.5-.8 3.7c-.3 1.2-.7 2.3-1.2 3.3l-1-.4l3.2 18.4v8.1h-16.4v-.1l-.4-.1c-1.4-.2-3.1-.5-4.8-1c-2.5-.7-4.7-1.6-6.6-2.6c-1.1 1.8-2.6 2.9-4.3 3.4c-.8 .3-1.9 .4-3.3 .4h-68.7c0 4.7-1.5 8-4.4 10c-2.6 1.8-6.4 2.6-11.6 2.6c-4.8 0-8.6-.9-11.2-2.6c-2.6-1.8-3.9-4.3-3.9-7.5c0-2.8 .4-5.3 1.3-7.6c.9-2.5 2.7-5.8 5.3-9.8l1.8 1.2c-2 3.4-3.2 5.8-3.9 7.3c-.5 1.6-.9 3.1-.9 4.7c0 2.1 1.2 3.8 3.4 5.1c2.2 1.4 5.2 2 8.8 2c3.6 0 6.6-.7 9-2c2.5-1.4 3.7-3.1 3.7-5.1c0-1.2-.2-2.4-.6-3.6c-.5-1.3-1.4-3.2-2.8-5.9l2.6-8c1.1 2.1 1.7 3.3 1.9 3.6c.6 1.2 1 2.4 1.2 3.4c.2 1.1 .3 2.5 .3 4.1c1.3 0 2.5-.3 3.5-1c.2-.1 1.1-.7 3-2.1l10.7-7.6c1.6-1.2 2.9-1.9 3.7-2.4c1.2-.5 2.3-.8 3.5-.8c2.2 0 4 .8 5.3 2.4c1.4 1.8 2.2 4.5 2.2 8.2v3.3h13.6c-.2-1.3-.6-2.5-1.2-3.4c-.3-.5-1-1.4-2.1-2.7l2.4-7.1c1.5 1.7 2.5 3.5 3.1 5.3c.4 1.6 .7 3.9 .8 6.9v1h13.5c-.2-1.3-.6-2.5-1.2-3.4c-.3-.5-1-1.4-2.1-2.7l2.4-7.1c1.5 1.7 2.5 3.5 3.1 5.3c.4 1.6 .7 3.9 .8 6.9v1h3.7c1.8 0 3.2-.2 4.3-.6c1.3-.6 2.3-1.6 2.8-2.9c1.1-2.6 2.6-4.6 4.3-6.3c1.6-1.4 2.9-2.1 4-2.1c1 0 2.3 1.5 3.8 4.6c1.2 2.4 1.9 4.7 2.2 6.8v.5H1191l-3.6-20.2l-1.9-1.3c0-1.2 .2-2.3 .6-3.5c.4-1.5 1.2-3.3 2.3-5.4Zm-168.1 0l1.3 .7c0 .1 0 .4-.1 1c0 .6 .4 1.2 1.3 1.9c.7 .5 1.9 1.1 3.5 1.8c-.2 1.3-.5 2.5-.8 3.7c-.4 1.2-.7 2.3-1.2 3.3l-1.1-.4l3.3 18.4v8.1h-35c-2.3 0-4-.9-5-2.8c-1.2-2.1-1.8-5.7-1.8-10.7v-8.5c0-1.9-.2-3.4-.8-4.5c-.2-.5-.8-1.2-1.7-2.2l3.2-7.5c1.1 1.6 1.9 3.2 2.4 4.7c.5 1.8 .8 4.2 .8 7v5.8c0 4.2 .3 7.1 .8 8.7c.5 1.3 1.2 1.9 2.1 1.9h17.8c-.2-1.3-.6-2.5-1.2-3.4c-.3-.5-1-1.4-2.1-2.7l2.4-7.1c1.5 1.7 2.5 3.5 3 5.3c.5 1.6 .8 3.9 .8 6.9l.1 1h10.6l-3.6-20.2l-1.9-1.3c0-1.2 .2-2.3 .5-3.5c.5-1.5 1.3-3.3 2.4-5.4Zm-45.1 0l1.3 .7c0 .1 0 .4-.1 1c0 .6 .4 1.2 1.3 1.9c.7 .5 1.9 1.1 3.5 1.8c-.2 1.3-.5 2.5-.8 3.7c-.4 1.2-.7 2.3-1.2 3.3l-1.1-.4l3.3 18.4v8.1H964c-.8 0-1.5 0-1.9 .1c-.4 0-.6 .1-.6 .4c.6 .3 1.2 .5 1.7 .7c.5 .1 .8 .3 1 .5c.1 .2 .2 .5 .2 1c0 1.4-.4 3.1-1.2 5c-.8 2-1.6 3.2-2.4 3.7c-.7 .6-2.9 1.3-6.5 2.1c-3.6 .8-6.8 1.2-9.4 1.2c-3.7 0-6.8-.8-9-2.3c-2.4-1.6-3.5-3.6-3.5-6.1c0-2.4 .5-4.7 1.5-6.9c1.2-2.7 3.5-6.1 6.8-10.1l1.8 1.2c-2.1 2.5-3.5 4.6-4.3 6.2c-.8 1.6-1.2 3.1-1.2 4.7c0 2.1 .9 3.7 2.6 4.7c1.8 1 4.5 1.5 8.2 1.5c1.9 0 4.5-.3 7.9-1c3.4-.7 5.1-1.3 5.1-1.8c0-.3-.7-.5-2-.7c-1.3-.2-2.7-.3-4.2-.3c-2.3 0-3.4-.5-3.4-1.5c0-.4 .2-1.3 .8-2.4c.4-.8 .7-1.7 1.1-2.5c.8-1.6 2.2-2.9 4.3-4c2-1 4.2-1.5 6.5-1.5h13.9l-3.6-20.2l-1.9-1.3c0-1.2 .2-2.3 .5-3.5c.5-1.5 1.3-3.3 2.4-5.4Zm304.8-2.4l1.4 .6c0 .1-.1 .4-.1 .8c0 .7 .9 1.5 2.9 2.4c.7 .4 1.6 .8 3 1.3c-.2 1.5-.6 3-1 4.3c-.2 .7-.6 1.7-1.2 3.2l-1.1-.4c.7 2.8 1.1 4.9 1.3 6.3c.2 1.3 .3 2.5 .3 3.5v.4c0 .6 0 1-.1 1.3c0 .4-.1 .9-.2 1.6c1-.8 2.1-1.5 3.1-2.3c1.6-1.1 3.1-2 4.3-2.7c1.7-1 3-1.4 3.9-1.4c2.3 0 4.2 .6 5.6 1.8c1.6 1.4 2.4 3.4 2.4 5.9v6.2h15.7c0-1.7 0-2.9-.1-3.7c-.2-1.1-.5-2.1-1-2.9c-.7 1.2-1.5 2.1-2.6 2.8c-1.1 .7-2.2 1-3.4 1c-1.6 0-2.9-.5-4-1.6c-1.1-1.1-1.7-2.4-1.7-4c0-2.3 .7-5.1 2.2-8.3c1.5-3.5 3.1-5.3 4.7-5.3c2.1 0 4.1 1.8 5.9 5.4c1.9 3.7 2.8 7.5 2.8 11.6v13.1h-54.7c-2.3 0-4-.9-5-2.8c-1.1-2.1-1.7-5.7-1.7-10.7v-8.5c0-1.9-.3-3.4-.8-4.5c-.3-.5-.9-1.2-1.8-2.2l3.2-7.5c1.2 1.6 2 3.2 2.4 4.7c.6 1.8 .8 4.2 .8 7v5.8c0 4.2 .3 7.1 .9 8.7c.4 1.3 1.1 1.9 2 1.9h6.1c.5 0 1.8-.8 4-2.5c.7-.5 1.8-1.3 3.2-2.5c0-2.4-.1-4.5-.3-6.2c-.1-1.6-.4-3.4-.8-5.2c-.1-.5-.7-2.6-1.6-6.5l-1.8-1.1c.5-2.1 .9-3.6 1.2-4.5c.3-.9 .8-2.3 1.7-4.3Zm-377.1-.9l5.6 2.9l-3 6.2l-5.6-3Zm411.8-.9l5.5 3l-3.1 5.8l-4.4-2.2l-2.5 4.8l-5.4-3l3.3-6.1l4.2 2.4Z" class="g1_44"/>
<path fill-rule="evenodd" d="M695 334.8h8.4v8.4H695Zm-17 0h8.3v8.4H678Zm-17.1 0h8.4v8.4h-8.4Z" class="g0_44"/>
<path d="M695 334.8h8.4v8.4H695Zm-17 0h8.3v8.4H678Zm-17.1 0h8.4v8.4h-8.4Z" class="g1_44"/>
<path fill-rule="evenodd" d="M473 439.8l3.8 2.4l-2.9 3.4l-3.2-2l-2.3 2.5l-3.8-2.1l2.8-3.6l3.3 2.1Zm568.7-2.8l4.6 2.4l-2.2 4l-4.6-2.3l-2.2 3.9l-4.6-2.4l2.3-4.1l4.5 2.3ZM613.1 426.9l6.9 3.7l-3.5 6.7l-7-3.6Zm732.5-.3l5.5 3.1l-3.1 5.8l-4.4-2.2l-2.5 4.8l-5.4-3.1l3.3-6l4.2 2.4Zm-349.4 0l5.5 3.1l-3.1 5.8l-4.4-2.2l-2.5 4.8l-5.4-3.1l3.2-6l4.3 2.4Zm-395.7 0l5.6 3.1l-3.1 5.8l-4.4-2.2l-2.6 4.8l-5.4-3.1l3.3-6l4.2 2.4Zm643.8-1.6c.3 1.7 1.3 3.2 2.8 4.5c1.5 1.3 3.1 1.9 4.9 1.9c.5 0 .9-.2 .9-.6c0-1.1-.7-2.2-2-3.2c-1.5-1.2-3.7-2.1-6.6-2.6ZM209.8 417.4c1 0 1.9 .4 2.6 1.1c.7 .7 1 1.6 1 2.6c0 1-.4 1.9-1.1 2.6c-.7 .8-1.6 1.1-2.6 1.1c-1 0-1.8-.3-2.5-1.1c-.8-.7-1.1-1.6-1.1-2.6c0-1 .3-1.9 1.1-2.6c.7-.7 1.6-1.1 2.6-1.1Zm967.8-5.9c-.6 0-1.1 .3-1.5 .8c-.4 .4-.5 1-.5 1.6c0 .7 .3 1.3 1.1 1.7c.8 .5 1.9 .7 3.2 .7h1.1c-.6-3.2-1.7-4.8-3.4-4.8Zm268.6-.1c-.8 0-1.4 .8-2 2.6c1.1 .4 1.8 .7 2.4 .9c1.6 .6 2.5 .9 2.7 .9c.4 0 .7-.1 .7-.4c0-.4-.5-1.2-1.3-2.3c-1-1.1-1.8-1.7-2.5-1.7Zm-245.7 0c-.8 0-1.4 .8-1.9 2.6c1 .4 1.8 .7 2.3 .9c1.6 .6 2.5 .9 2.7 .9c.5 0 .7-.1 .7-.4c0-.4-.4-1.2-1.3-2.3c-1-1.1-1.8-1.7-2.5-1.7Zm-458.7 0c-.8 0-1.4 .8-1.9 2.6c1 .4 1.8 .7 2.3 .9c1.6 .6 2.5 .9 2.7 .9c.5 0 .7-.1 .7-.4c0-.4-.4-1.2-1.3-2.3c-1-1.1-1.8-1.7-2.5-1.7Zm-102.8 0c-.8 0-1.5 .8-2 2.6c1 .4 1.8 .7 2.4 .9c1.6 .6 2.5 .9 2.7 .9c.4 0 .6-.1 .6-.4c0-.4-.4-1.2-1.2-2.3c-1-1.1-1.8-1.7-2.5-1.7Zm-59.3-1c-1.3 0-2.8 .5-4.4 1.3c-1.7 .8-4 2.4-7.2 4.6H576c6.6 0 10-1 10-3c0-.8-.6-1.4-1.9-2c-1.2-.6-2.7-.9-4.4-.9Zm-155.3 0c-.1 1-.2 1.7-.4 2.2c-.2 .5-.6 1.3-1.2 2.5c2.6 1.4 4.5 2.1 5.6 2.1c.3 0 .5-.2 .5-.5c0-.6-.4-1.5-1.3-2.7c-.9-1.2-1.9-2.4-3.2-3.6Zm351.9-.2c-1.2 2-1.9 3.7-1.9 5c0 .7 .3 1.2 .8 1.7c.5 .4 1.2 .7 1.9 .7c1 0 2.1-.3 3.4-.7c1.3-.5 2-.9 2-1.3c0-.3-.7-1.1-2.1-2.3c-1.4-1.2-2.7-2.2-4.1-3.1Zm-402 0c-1.3 2-1.9 3.7-1.9 5c0 .7 .2 1.2 .8 1.7c.5 .4 1.1 .7 1.9 .7c1 0 2.1-.3 3.4-.7c1.3-.5 1.9-.9 1.9-1.3c0-.3-.7-1.1-2-2.3c-1.4-1.2-2.8-2.2-4.1-3.1Zm-128.3 0c-1.3 2-2 3.7-2 5c0 .7 .3 1.2 .8 1.7c.6 .4 1.2 .7 1.9 .7c1 0 2.2-.3 3.5-.7c1.3-.5 1.9-.9 1.9-1.3c0-.3-.7-1.1-2.1-2.3c-1.4-1.2-2.7-2.2-4-3.1Zm173-2.3c-.9 0-1.6 .4-2.3 1c-.5 .6-.7 1.2-.7 1.7c0 .8 .9 1.6 2.7 2.5c.4-.2 .8-.4 1-.5c.7-.5 1-.9 1-1.4c0-1-.2-1.8-.5-2.4c-.2-.6-.7-.9-1.2-.9Zm830.9-.1c-.5 0-1.2 .5-1.8 1.7c-.7 1.1-1.6 2.8-2.5 5.2c2.3-.7 3.8-1.4 4.7-2c.9-.6 1.3-1.2 1.3-1.9c0-.5-.2-1.1-.6-1.9c-.3-.8-.7-1.1-1.1-1.1Zm-937.4-1.2c-.4 0-.7 .2-1 .4c-.3 .3-.5 .6-.5 .9c0 .9 .7 1.7 1.9 2.5c1.3 .8 2.8 1.4 4.6 1.7c-.7-1.7-1.5-3.1-2.4-4c-.9-1-1.7-1.5-2.6-1.5Zm841.1-1.4c1.4 2.5 2.2 4.3 2.5 5.2c.6 1.8 .9 3.9 .9 6.6v6c0 2.7-.2 4.9-.8 6.6c-.5 1.6-1.4 3-2.6 4c-1.2 1-3 1.8-5.4 2.5c-2.3 .6-4.7 1-7.3 1c-4.8 0-8.5-.9-11.1-2.7c-2.6-1.7-3.9-4.3-3.9-7.5c0-2.7 .4-5.3 1.2-7.6c.9-2.5 2.7-5.8 5.4-9.8l1.8 1.3c-2 3.3-3.3 5.7-3.9 7.3c-.6 1.5-.9 3-.9 4.6c0 2.1 1.1 3.8 3.4 5.2c2.2 1.3 5.1 1.9 8.8 1.9c3.5 0 6.5-.6 9-2c2.4-1.4 3.7-3.1 3.7-5.1c0-1.2-.3-2.4-.7-3.6c-.4-1.2-1.3-3.2-2.7-5.8ZM811.4 405c1.4 1.4 2.4 3 3.2 4.8c.7 1.8 1.1 3.9 1.1 6.2v9.1c0 1.2-.7 2.8-2.1 4.8c-1.4 2-3.1 3.8-4.9 5.2c-2.1 1.7-3.9 2.5-5.3 2.5c-1.8 0-3.7-.5-5.7-1.5c-1.7-.9-4.4-2.6-8.1-5.1l1.2-1.9c1.8 1.2 3.2 2 4.3 2.4c1.1 .4 2.3 .7 3.6 .7c1.3 0 2.7-.4 4.1-1.2c1.4-.8 3.2-2.2 5.6-4.3c3.3-3 4.9-5.2 4.9-6.8c0-.8-.3-1.9-.9-3.2c-.7-1.4-1.6-2.6-2.6-3.6Zm239.1 0c1.1 0 2 .5 2.7 1.3c.7 .9 1 2.1 1 3.6c0 1.1-.1 2-.3 2.7c-.2 .8-.7 1.7-1.4 2.9c-.5-1.4-1-2.4-1.3-2.8c-.4-.4-.9-.6-1.6-.6c-1.1 0-2.6 .6-4.5 1.8c-1.8 1.2-2.8 2.3-2.8 3.1c0 .4 .4 .7 1.1 .9c.6 .1 1.4 .2 2.5 .2c.4 0 .6 0 .9 0c.3 0 .6 0 .9 0c2.2 0 3.6 .2 4.3 .6c.6 .4 1 1.1 1 2.2c0 2.2-.4 4.2-1.2 6.2c-1 2.5-2.5 4.3-4.4 5.3c-2.3 1.3-4.8 2.4-7.3 3.2c-2.6 .8-5 1.2-7.2 1.2c-6.2 0-9.2-2.7-9.2-8.3c0-2.8 .3-5.2 1-7.2c.8-2.3 2.4-5.4 4.9-9.2l1.4 .9c-1.5 2.4-2.6 4.7-3.3 6.6c-.8 1.9-1.1 3.6-1.1 5.1c0 3.7 2.1 5.6 6.3 5.6c1.6 0 3.1-.1 4.6-.4c1.4-.3 2.8-.7 4.3-1.2c1-.4 2.1-.8 3.3-1.3c1.9-.9 3-1.4 3.1-1.4c.9-.5 1.4-.9 1.4-1.3c0-.2-.5-.3-1.5-.4c-1-.1-1.6-.1-2-.1c-3.1 0-5.1-.4-6.2-1.3c-.8-.7-1.2-2-1.2-4c0-.9 .3-2 .9-3.4c.5-1.4 1.3-2.8 2.3-4.1c1.4-2.1 2.9-3.7 4.3-4.8c1.5-1.1 2.9-1.6 4.3-1.6Zm-305.4-.6c1 0 2.2 1.5 3.7 4.6c1.6 3.2 2.4 6.2 2.4 8.9v6.5c-2.1 0-4.6-.4-7.4-1.2c-2.5-.7-4.7-1.6-6.6-2.5c-1.1 1.7-2.5 2.8-4.2 3.3c-.8 .3-2 .4-3.4 .4h-3.8v.5c-.1 1.9-.3 3.4-.8 4.7c-.5 1.6-1.4 3-2.6 4c-1.2 1-3 1.8-5.4 2.5c-2.3 .6-4.7 1-7.3 1c-4.8 0-8.5-.9-11.1-2.7c-2.6-1.7-3.9-4.3-3.9-7.5c0-2.7 .4-5.3 1.2-7.6c.9-2.5 2.7-5.8 5.4-9.8l1.8 1.3c-2 3.3-3.3 5.7-3.9 7.3c-.6 1.5-.9 3-.9 4.6c0 2.1 1.1 3.8 3.4 5.2c2.2 1.3 5.1 1.9 8.8 1.9c3.5 0 6.5-.6 9-2c2.4-1.4 3.7-3.1 3.7-5.1c0-1.2-.3-2.4-.7-3.6c-.4-1.2-1.3-3.2-2.7-5.8l2.6-8.1c1.4 2.5 2.2 4.3 2.5 5.2c.6 1.5 .9 3.4 .9 5.6v.3h3.8c1.8 0 3.2-.2 4.3-.6c1.3-.6 2.3-1.6 2.8-2.9c1.1-2.5 2.6-4.6 4.3-6.2c1.6-1.5 3-2.2 4.1-2.2Zm433.7-.8c1.6 0 3 1.1 4.1 3.2c1.1 2.2 1.7 4.8 1.7 7.9v1.6h3.7c1.8 0 3.2-.2 4.3-.6c1.3-.6 2.3-1.6 2.8-2.9c1.1-2.5 2.6-4.6 4.3-6.2c1.6-1.5 3-2.2 4.1-2.2c1 0 2.2 1.5 3.7 4.6c1.6 3.2 2.4 6.2 2.4 8.9v6.5c-2.1 0-4.6-.4-7.4-1.2c-2.5-.7-4.7-1.6-6.6-2.5c-1.1 1.7-2.5 2.8-4.2 3.3c-.8 .3-2 .4-3.4 .4h-4.2l-.6 3.1c-.8 1.7-1.8 3.3-3.3 5c-2.9 3.4-5.8 5-8.6 5c-1.6 0-3.4-.5-5.4-1.5c-1.9-1.1-5-3.2-9-6.3l1.3-1.7c2.1 1.4 3.8 2.4 5.2 2.8c1.2 .4 2.4 .6 3.9 .6c1.9 0 3.8-.5 5.7-1.6c2.2-1.2 4.5-3.3 6.9-6.1c-.8 .1-1.5 .2-2.1 .2c-1.9 0-3.5-.7-4.7-1.9c-1.1-1.3-1.7-3.1-1.7-5.3c0-3 .7-5.8 2-8.6c1.5-3 3.2-4.5 5.1-4.5Zm168.9-.5c1.5 1.7 2.5 3.5 3.1 5.3c.5 1.7 .7 3.9 .8 6.9v1h13.5c-.2-1.3-.6-2.5-1.2-3.4c-.3-.5-1-1.4-2.1-2.7l2.4-7.1c1.5 1.7 2.5 3.5 3.1 5.3c.5 1.9 .8 4.6 .8 8.3v7.7H1335v.7c0 1.2-.7 2.8-2 4.8c-1.4 2-3.1 3.8-4.9 5.2c-2.1 1.7-3.9 2.5-5.3 2.5c-1.8 0-3.7-.5-5.7-1.5c-1.7-.9-4.4-2.6-8.2-5.1l1.3-1.9c1.8 1.2 3.2 2 4.3 2.4c1.1 .4 2.3 .7 3.6 .7c1.3 0 2.7-.4 4.1-1.2c1.3-.8 3.2-2.2 5.6-4.3c3.3-3 4.9-5.2 4.9-6.8c0-.8-.3-1.9-.9-3.2c-.8-1.4-1.6-2.6-2.7-3.6l1.7-8.1c1.4 1.4 2.4 3 3.1 4.8c.8 1.8 1.1 3.9 1.1 6.2v.3h13.6c-.2-1.3-.6-2.5-1.2-3.4c-.3-.5-1-1.4-2.1-2.7Zm-349.4 0c1.5 1.7 2.5 3.5 3.1 5.3c.5 1.9 .8 4.6 .8 8.3v7.7H985.6v.7c0 1.2-.7 2.8-2.1 4.8c-1.4 2-3 3.8-4.9 5.2c-2 1.7-3.8 2.5-5.3 2.5c-1.7 0-3.6-.5-5.6-1.5c-1.7-.9-4.5-2.6-8.2-5.1l1.2-1.9c1.8 1.2 3.3 2 4.4 2.4c1.1 .4 2.2 .7 3.5 .7c1.4 0 2.8-.4 4.1-1.2c1.4-.8 3.3-2.2 5.6-4.3c3.3-3 5-5.2 5-6.8c0-.8-.3-1.9-1-3.2c-.7-1.4-1.6-2.6-2.6-3.6l1.7-8.1c1.3 1.4 2.4 3 3.1 4.8c.7 1.8 1.1 3.9 1.1 6.2v.3h13.6c-.2-1.3-.6-2.5-1.2-3.4c-.3-.5-1-1.4-2.1-2.7Zm-133.7-1.2c-.5 0-1.1 .2-1.6 .8c-.4 .5-.7 1.1-.7 1.9c0 .4 .2 .8 .6 1.1c.3 .3 .8 .5 1.4 .5c.4 0 .9-.2 1.4-.4c.4-.3 1-.8 1.7-1.4c-.6-1-1-1.6-1.4-2c-.4-.3-.9-.5-1.4-.5Zm-366.1 0c-.6 0-1.1 .2-1.6 .8c-.5 .5-.7 1.1-.7 1.9c0 .4 .2 .8 .6 1.1c.3 .3 .8 .5 1.4 .5c.4 0 .9-.2 1.4-.4c.4-.3 1-.8 1.7-1.4c-.6-1-1-1.6-1.5-2c-.4-.3-.8-.5-1.3-.5Zm277.5-.4l3 1.7c1.2 .8 2.4 1.7 3.6 2.5c1.6 1.3 2.8 2.4 3.4 3.5c.6 1.1 .9 2.4 .9 4.1c0 1.2-.1 2.4-.3 3.6c-.2 1.2-.4 2.2-.7 3c-.6 1.5-2 2.8-4.1 4c-2.1 1.1-4 1.6-5.8 1.6c-1.5 0-2.7-.5-3.7-1.6c-.9-1.1-1.3-2.5-1.3-4.3c0-1.6 .2-3.3 .7-4.8c.4-1.6 1.3-3.6 2.5-6l-1.1-.7c.4-.9 .8-2 1.4-3.3c.6-1.3 1.1-2.4 1.5-3.3Zm-402 0l2.9 1.7c1.3 .8 2.5 1.7 3.7 2.5c1.6 1.3 2.7 2.4 3.3 3.5c.6 1.1 .9 2.4 .9 4.1c0 1.2-.1 2.4-.2 3.6c-.2 1.2-.5 2.2-.8 3c-.5 1.5-1.9 2.8-4.1 4c-2 1.1-3.9 1.6-5.7 1.6c-1.6 0-2.8-.5-3.7-1.6c-.9-1.1-1.4-2.5-1.4-4.3c0-1.6 .3-3.3 .7-4.8c.5-1.6 1.3-3.6 2.5-6l-1-.7c.3-.9 .8-2 1.3-3.3c.6-1.3 1.1-2.4 1.6-3.3Zm-128.3 0l2.9 1.7c1.3 .8 2.5 1.7 3.6 2.5c1.6 1.3 2.8 2.4 3.4 3.5c.6 1.1 .9 2.4 .9 4.1c0 1.2-.1 2.4-.3 3.6c-.2 1.2-.4 2.2-.7 3c-.6 1.5-1.9 2.8-4.1 4c-2.1 1.1-4 1.6-5.7 1.6c-1.6 0-2.8-.5-3.7-1.6c-.9-1.1-1.4-2.5-1.4-4.3c0-1.6 .2-3.3 .7-4.8c.5-1.6 1.3-3.6 2.5-6l-1.1-.7c.4-.9 .8-2 1.4-3.3c.6-1.3 1.1-2.4 1.6-3.3Zm706.5-5.2c2.6 1.9 4.5 4.4 5.5 7.4c1 2.8 1.5 6.5 1.5 11.2v9.5H945.7c-1.3 0-2.3-.2-3-.8c-.8-.7-1.3-1.8-1.3-3.3c0-.9 .1-1.8 .2-2.8c.1-1 .2-2.1 .4-3.1l1.1-.1c.2 .7 .5 1.2 1.1 1.6c.5 .3 1.2 .4 1.9 .4h10.3c-.5-2.9-1.3-5.2-2.4-7c-.9-1.4-2.2-2.7-3.9-3.7Zm-34.1 0c2.6 1.9 4.5 4.4 5.5 7.4c1 2.8 1.5 6.5 1.5 11.2v9.5H911.6c-1.3 0-2.3-.2-3-.8c-.8-.7-1.3-1.8-1.3-3.3c0-.9 .1-1.8 .2-2.8c.1-1 .2-2.1 .4-3.1l1.1-.1c.2 .7 .5 1.2 1.1 1.6c.5 .3 1.2 .4 1.9 .4h10.3c-.5-2.9-1.3-5.2-2.4-7c-.9-1.4-2.2-2.7-3.9-3.7Zm222.2-.5l6.9 3.7l-3.5 6.7l-7-3.6Zm-431.2 0l6.9 3.7l-3.5 6.7l-7-3.6Zm-292.2-.9c3 2.1 5.7 4.6 8.2 7.6c2.3 2.8 4.1 5.6 5.4 8.4c1.3 2.7 1.9 5.2 1.9 7.2c0 1.4-.3 3-.8 4.8c-.7 2.1-1.6 3.1-2.5 3.1c-.8 0-2.2-.4-4.2-1.2c-2.2-.9-4.5-2.1-6.9-3.6c-1.3 1.2-2.9 2-4.8 2.6c-1.5 .4-3 .6-4.5 .6H394.6c-1.3 0-2.3-.2-3-.8c-.8-.7-1.3-1.8-1.3-3.3c0-.9 .1-1.8 .2-2.8c.1-1 .2-2.1 .4-3.1l1.1-.1c.2 .7 .5 1.2 1.1 1.6c.5 .3 1.2 .4 1.9 .4h10.3c-.5-2.9-1.3-5.2-2.4-7c-.9-1.4-2.2-2.7-3.9-3.7l2.1-9.3c2.6 1.9 4.5 4.4 5.5 7.4c1 2.8 1.5 6.5 1.5 11.2v1.4h.6c.6 0 1.2-.1 1.9-.2c.7-.2 1.2-.4 1.6-.7v-1.1c0-2.4 .3-4.5 1-6.3c.8-2 1.9-3.4 3.4-4.3l-1.5-1.1c.3-1.6 .5-2.9 .7-3.8c.2-.9 .6-2.2 1.1-3.9Zm448.3-.6c2.1 0 4 1.8 5.9 5.5c1.8 3.6 2.8 7.4 2.8 11.5v13.1H855.3v.7c0 1.2-.7 2.8-2.1 4.8c-1.4 2-3.1 3.8-4.9 5.2c-2.1 1.7-3.9 2.5-5.3 2.5c-1.8 0-3.7-.5-5.7-1.5c-1.7-.9-4.4-2.6-8.1-5.1l1.2-1.9c1.8 1.2 3.2 2 4.3 2.4c1.1 .4 2.3 .7 3.6 .7c1.3 0 2.7-.4 4.1-1.2c1.4-.8 3.2-2.2 5.6-4.3c3.3-3 4.9-5.2 4.9-6.8c0-.8-.3-1.9-.9-3.2c-.7-1.4-1.6-2.6-2.6-3.6L851 405c1.4 1.4 2.4 3 3.2 4.8c.7 1.8 1.1 3.9 1.1 6.2v.3H871c0-1.7 0-2.9-.1-3.7c-.2-1.1-.5-2.1-1-2.9c-.6 1.2-1.5 2.2-2.6 2.8c-1 .7-2.2 1-3.4 1c-1.6 0-2.9-.5-4-1.6c-1.1-1-1.6-2.3-1.6-4c0-2.3 .7-5.1 2.1-8.3c1.6-3.5 3.2-5.3 4.8-5.3Zm-366.1 0c2 0 4 1.8 5.9 5.5c1.8 3.6 2.7 7.4 2.7 11.5v13.1H486.1c-.9 0-1.5 .1-1.9 .1c-.4 0-.6 .2-.6 .4c.6 .3 1.1 .6 1.6 .7c.5 .1 .9 .3 1 .5c.2 .2 .3 .5 .3 1c0 1.4-.5 3.1-1.2 5c-.9 2-1.7 3.2-2.4 3.7c-.8 .6-2.9 1.3-6.6 2.1c-3.6 .8-6.7 1.2-9.3 1.2c-3.8 0-6.8-.7-9.1-2.3c-2.3-1.5-3.5-3.6-3.5-6.1c0-2.4 .5-4.7 1.6-6.9c1.2-2.7 3.5-6 6.8-10.1l1.8 1.2c-2.1 2.5-3.6 4.6-4.4 6.2c-.8 1.6-1.2 3.1-1.2 4.7c0 2.1 .9 3.7 2.7 4.7c1.7 1 4.4 1.5 8.1 1.5c1.9 0 4.6-.3 8-1c3.3-.7 5-1.3 5-1.8c0-.3-.6-.5-1.9-.7c-1.3-.2-2.7-.3-4.3-.3c-2.2 0-3.4-.5-3.4-1.5c0-.4 .3-1.2 .8-2.4c.4-.8 .8-1.6 1.2-2.5c.7-1.6 2.1-2.9 4.2-4c2.1-1 4.2-1.5 6.5-1.5h19c0-1.7 0-2.9-.1-3.7c-.2-1.1-.5-2.1-1-2.9c-.6 1.2-1.5 2.2-2.6 2.8c-1 .7-2.2 1-3.4 1c-1.6 0-2.9-.5-4-1.6c-1.1-1-1.7-2.3-1.7-4c0-2.3 .8-5.1 2.2-8.3c1.6-3.5 3.1-5.3 4.8-5.3Zm478.1-3.4l6.9 3.7l-3.6 6.6l-7-3.6Zm-170 0l6.9 3.7l-3.5 6.6l-7-3.6Zm-597-1.2c2.4 0 4.5 .7 6.1 2.1c1.7 1.3 2.5 3.1 2.5 5.3c0 1.3-.3 2.4-1 3.3c-.9 1-1.9 1.6-3.2 1.6c-1 0-1.8-.4-2.5-1c-.6-.7-.9-1.4-.9-2.3c0-1.4 .5-2.4 1.6-3.1c1.1-.6 1.7-1.2 1.7-1.6c0-.7-.4-1.3-1-1.7c-.6-.4-1.5-.6-2.5-.6c-1.3 0-2.4 .4-3.2 1.1c-.8 .7-1.2 1.6-1.2 2.7c0 .9 .4 2.2 1.2 3.7c1.3 2.3 2.1 3.8 2.4 4.5c.8 2 1.2 4.3 1.2 6.7c0 1.3-.1 2.8-.3 4.4h-1.8c0-.3 0-.6 0-.8l.2-1.6c0-1.1-.8-2.3-2.2-3.6c-2.5-2.2-3.9-3.5-4.2-3.8c-1.4-1.7-2.2-3.7-2.2-5.9c0-2.7 .9-4.9 2.7-6.7c1.8-1.8 4-2.7 6.6-2.7Zm1182.7-.2l5.5 3.1l-3.1 5.8l-4.4-2.2l-2.5 4.8l-5.4-3.1l3.3-6l4.2 2.3Zm-30.7 0l5.4 3.1l-3.2 6.1l-4.3-2.4l-2.4 4.7l-5.5-3.1l3.1-5.8l4.4 2.3Zm-1066.4 0l5.6 3.1l-3.1 5.8l-4.4-2.2l-2.6 4.8l-5.4-3.1l3.3-6l4.2 2.3Zm271.7-.8l7 3.7l-3.6 6.7l-7-3.6Zm804.5-.4c1.2 1.5 2 3.1 2.5 4.7c.5 1.8 .7 4.1 .7 6.9v5.8c0 4.2 .3 7.1 .9 8.7c.4 1.3 1.1 1.9 2.1 1.9h17.7c-.2-1.3-.6-2.5-1.2-3.4c-.3-.5-1-1.4-2.1-2.7l2.4-7.1c1.5 1.7 2.5 3.5 3.1 5.3c.5 1.9 .8 4.6 .8 8.3v7.7h-20.7c-2.4 0-4-.9-5.1-2.8c-1.1-2.1-1.7-5.7-1.7-10.7v-8.5c0-1.9-.3-3.4-.8-4.5c-.3-.5-.9-1.2-1.8-2.2Zm47.9 0c1.1 1.5 1.9 3.1 2.4 4.7c.5 1.8 .8 4.1 .8 6.9v5.8c0 4.2 .3 7.1 .8 8.7c.5 1.3 1.2 1.9 2.1 1.9h8c1.8 0 3.2-.2 4.3-.6c1.3-.6 2.2-1.6 2.8-2.9c1.1-2.5 2.5-4.6 4.3-6.2c1.6-1.5 2.9-2.2 4-2.2c1 0 2.3 1.5 3.8 4.6c1.5 3.2 2.3 6.2 2.3 8.9v6.5c-2.1 0-4.5-.4-7.3-1.2c-2.5-.7-4.7-1.6-6.6-2.5c-1.1 1.7-2.6 2.8-4.3 3.3c-.8 .3-1.9 .4-3.3 .4h-8c-2.3 0-4-.9-5-2.8c-1.2-2.1-1.8-5.7-1.8-10.7v-8.5c0-1.9-.2-3.4-.7-4.5c-.3-.5-.9-1.2-1.8-2.2Zm-134.3 0l1.8 10.5c.6 4 1.1 7.5 1.3 10.4c.2 2.3 .3 4.5 .3 6.6c0 1.7-.2 3.3-.6 4.8c-.4 1.5-1.2 3.4-2.4 5.9l-1.8-.7c.5-2.6 .7-4.6 .7-6.2c0-1.2-.1-3-.3-5.4c-.2-2.3-.4-4.6-.7-6.9c-.3-2.3-.8-5.1-1.5-8.2c-.2-1.1-.3-1.9-.3-2.3c0-.6 .3-1.7 .9-3.2c.6-1.5 1.5-3.2 2.6-5.3Zm-184.3 0l1.8 10.5c.7 4 1.1 7.5 1.4 10.4c.2 2.3 .3 4.5 .3 6.6c0 1.7-.2 3.3-.6 4.8c-.4 1.5-1.3 3.4-2.4 5.9l-1.8-.7c.4-2.6 .7-4.6 .7-6.2c0-1.2-.1-3-.3-5.4c-.2-2.3-.5-4.6-.8-6.9c-.3-2.3-.7-5.1-1.4-8.2c-.3-1.1-.4-1.9-.4-2.3c0-.6 .3-1.7 .9-3.2c.7-1.5 1.5-3.2 2.6-5.3Zm-168.6 0l1.8 10.5c.6 4 1.1 7.5 1.3 10.4c.2 2.3 .3 4.5 .3 6.6c0 1.7-.2 3.3-.6 4.8c-.4 1.5-1.2 3.4-2.4 5.9l-1.8-.7c.5-2.6 .7-4.6 .7-6.2c0-1.2-.1-3-.3-5.4c-.2-2.3-.4-4.6-.7-6.9c-.3-2.3-.8-5.1-1.5-8.2c-.2-1.1-.4-1.9-.4-2.3c0-.6 .4-1.7 1-3.2c.6-1.5 1.5-3.2 2.6-5.3Zm-51.4 0l1.8 10.5c.7 4 1.1 7.5 1.4 10.4c.2 2.3 .3 4.5 .3 6.6c0 1.7-.2 3.3-.6 4.8c-.4 1.5-1.3 3.4-2.4 5.9l-1.8-.7c.4-2.6 .7-4.6 .7-6.2c0-1.2-.1-3-.3-5.4c-.2-2.3-.5-4.6-.8-6.9c-.3-2.3-.7-5.1-1.4-8.2c-.3-1.1-.4-1.9-.4-2.3c0-.6 .3-1.7 .9-3.2c.7-1.5 1.5-3.2 2.6-5.3Zm-58.1 0l1.8 10.5c.7 4 1.1 7.5 1.4 10.4c.2 2.3 .3 4.5 .3 6.6c0 1.7-.2 3.3-.6 4.8c-.5 1.5-1.3 3.4-2.5 5.9l-1.7-.7c.4-2.6 .7-4.6 .7-6.2c0-1.2-.1-3-.3-5.4c-.2-2.3-.5-4.6-.8-6.9c-.3-2.3-.8-5.1-1.4-8.2c-.3-1.1-.4-1.9-.4-2.3c0-.6 .3-1.7 .9-3.2c.6-1.5 1.5-3.2 2.6-5.3Zm-153.1 0l1.8 10.5c.7 4 1.1 7.5 1.4 10.4c.2 2.3 .3 4.5 .3 6.6c0 1.7-.2 3.3-.6 4.8c-.4 1.5-1.3 3.4-2.4 5.9l-1.8-.7c.4-2.6 .7-4.6 .7-6.2c0-1.2-.1-3-.3-5.4c-.2-2.3-.5-4.6-.8-6.9c-.3-2.3-.7-5.1-1.4-8.2c-.3-1.1-.4-1.9-.4-2.3c0-.6 .3-1.7 .9-3.2c.7-1.5 1.5-3.2 2.6-5.3Zm-326.7 0l1.8 10.5c.7 4 1.1 7.5 1.4 10.4c.2 2.3 .3 4.5 .3 6.6c0 1.7-.2 3.3-.6 4.8c-.4 1.5-1.3 3.4-2.4 5.9l-1.8-.7c.4-2.6 .7-4.6 .7-6.2c0-1.2-.1-3-.3-5.4c-.2-2.3-.5-4.6-.8-6.9c-.3-2.3-.7-5.1-1.4-8.2c-.3-1.1-.4-1.9-.4-2.3c0-.6 .3-1.7 .9-3.2c.7-1.5 1.5-3.2 2.6-5.3Zm-93.8-1.7l5.4 3l-3.3 6.1l-4.2-2.4l-2.4 4.7l-5.5-3l3.1-5.8l4.4 2.2Zm1022.2-.7l1.4 .7c0 .1-.1 .4-.1 1c0 .6 .4 1.2 1.2 1.9c.7 .5 1.9 1.2 3.5 1.8c-.2 1.3-.4 2.5-.8 3.8c-.3 1.2-.7 2.2-1.2 3.2l-1-.4l3.2 18.4v8.1h-20.3c-.5 0-1 0-1.4 0c-.5 .1-1.2 .1-2.1 .2c.7 .4 1.4 .8 2.1 1.2c.7 .5 1 1.2 1 2c0 .8-.1 1.6-.3 2.5c-.1 .5-.4 1.4-.9 2.6c-.8 2.5-1.6 4.2-2.3 5.1c-.7 .9-1.6 1.3-2.7 1.3c-2.8 0-5.2-1.4-7.2-4.4c-2-2.9-3-6.4-3-10.5h-4.7v.7c0 1.2-.7 2.8-2.1 4.8c-1.4 2-3 3.8-4.9 5.2c-2 1.7-3.8 2.5-5.3 2.5c-1.7 0-3.6-.5-5.6-1.5c-1.7-.9-4.5-2.6-8.2-5.1l1.3-1.9c1.8 1.2 3.2 2 4.3 2.4c1.1 .4 2.3 .7 3.5 .7c1.4 0 2.8-.4 4.2-1.2c1.3-.8 3.2-2.2 5.6-4.3c3.3-3 4.9-5.2 4.9-6.8c0-.8-.3-1.9-1-3.2c-.7-1.4-1.5-2.6-2.6-3.6l1.7-8.1c1.3 1.4 2.4 3 3.1 4.8c.8 1.8 1.1 3.9 1.1 6.2v.3h.6c1.1 0 2.2-.1 3.3-.3c1.3-.2 2.1-.4 2.6-.5c2.2-6 4.2-10.3 5.9-13c1.4-2.3 2.8-3.5 4.1-3.5c1 0 1.9 1 2.6 3c.6 1.7 .9 3.4 .9 5.1c0 2.3-.4 4.2-1.3 5.9c-1 1.7-2.5 3.1-4.5 3.9c1.5-.2 2.8-.4 4-.5c1.2 0 2.3-.1 3.3-.1h16.7l-3.6-20.2l-1.9-1.3c0-1.1 .2-2.3 .6-3.5c.4-1.5 1.2-3.3 2.3-5.4Zm-184.3 0l1.4 .7c0 .1 0 .4-.1 1c0 .6 .4 1.2 1.3 1.9c.7 .5 1.9 1.2 3.5 1.8c-.2 1.3-.5 2.5-.8 3.8c-.4 1.2-.8 2.2-1.2 3.2l-1.1-.4l3.3 18.4v8.1H1066c-1.3 0-2.3-.2-3-.8c-.9-.7-1.3-1.8-1.3-3.3c0-.9 0-1.8 .1-2.8c.1-1 .2-2.1 .4-3.1l1.2-.1c.1 .7 .5 1.2 1 1.6c.6 .3 1.2 .4 2 .4h10.3c-.5-2.9-1.3-5.2-2.4-7c-1-1.4-2.3-2.7-3.9-3.7l2.1-9.3c2.6 1.9 4.4 4.4 5.5 7.4c1 2.8 1.5 6.5 1.5 11.2v1.4h10.7l-3.6-20.2l-1.9-1.3c0-1.1 .2-2.3 .5-3.5c.5-1.5 1.2-3.3 2.3-5.4Zm-431.2 0l1.4 .7c0 .1 0 .4-.1 1c0 .6 .4 1.2 1.3 1.9c.7 .5 1.9 1.2 3.5 1.8c-.2 1.3-.5 2.5-.8 3.8c-.4 1.2-.8 2.2-1.2 3.2l-1.1-.4l3.3 18.4v8.1H646.2v-.1l-.4-.1c-1.5-.2-3.1-.5-4.9-1c-2.4-.7-4.6-1.6-6.5-2.5c-1.2 1.7-2.6 2.8-4.3 3.3c-.8 .3-1.9 .4-3.3 .4H558.1c0 4.7-1.5 8-4.4 10c-2.6 1.8-6.4 2.7-11.6 2.7c-4.9 0-8.6-.9-11.2-2.7c-2.6-1.7-3.9-4.3-3.9-7.5c0-2.7 .4-5.3 1.2-7.6c.9-2.5 2.7-5.8 5.4-9.8l1.8 1.3c-2 3.3-3.3 5.7-3.9 7.3c-.6 1.5-.9 3-.9 4.6c0 2.1 1.1 3.8 3.4 5.2c2.2 1.3 5.1 1.9 8.8 1.9c3.5 0 6.6-.6 9-2c2.4-1.4 3.7-3.1 3.7-5.1c0-1.2-.2-2.4-.7-3.6c-.4-1.2-1.3-3.2-2.7-5.8l2.6-8.1c1.1 2.1 1.7 3.3 1.8 3.6c.6 1.3 1 2.4 1.2 3.4c.3 1.1 .4 2.5 .4 4.1c1.3 0 2.5-.3 3.5-1c.1 0 1.1-.7 3-2l10.6-7.7c1.7-1.1 3-1.9 3.8-2.4c1.1-.5 2.3-.8 3.5-.8c2.2 0 4 .8 5.2 2.4c1.5 1.8 2.2 4.5 2.2 8.2v3.3h13.7c-.3-1.3-.7-2.5-1.2-3.4c-.3-.5-1-1.4-2.1-2.7l2.4-7.1c1.5 1.7 2.5 3.5 3 5.3c.5 1.7 .8 3.9 .8 6.9v1h13.6c-.3-1.3-.7-2.5-1.2-3.4c-.3-.5-1-1.4-2.1-2.7l2.4-7.1c1.5 1.7 2.5 3.5 3 5.3c.5 1.7 .8 3.9 .8 6.9v1h3.8c1.8 0 3.2-.2 4.2-.6c1.4-.6 2.3-1.6 2.8-2.9c1.2-2.5 2.6-4.6 4.4-6.2c1.6-1.5 2.9-2.2 4-2.2c1 0 2.3 1.5 3.7 4.6c1.2 2.4 2 4.7 2.3 6.8v.5H659l-3.6-20.2l-1.9-1.3c0-1.1 .2-2.3 .5-3.5c.5-1.5 1.2-3.3 2.3-5.4Zm-326.7 0l1.4 .7c0 .1 0 .4-.1 1c0 .6 .4 1.2 1.3 1.9c.7 .5 1.9 1.2 3.5 1.8c-.2 1.3-.5 2.5-.8 3.8c-.4 1.2-.8 2.2-1.2 3.2l-1.1-.4l3.3 18.4v8.1H285.3v.7c0 1.2-.7 2.8-2.1 4.8c-1.4 2-3 3.8-4.9 5.2c-2.1 1.7-3.8 2.5-5.3 2.5c-1.8 0-3.6-.5-5.6-1.5c-1.8-.9-4.5-2.6-8.2-5.1l1.2-1.9c1.8 1.2 3.2 2 4.3 2.4c1.1 .4 2.3 .7 3.6 .7c1.4 0 2.7-.4 4.1-1.2c1.4-.8 3.2-2.2 5.6-4.3c3.3-3 5-5.2 5-6.8c0-.8-.4-1.9-1-3.2c-.7-1.4-1.6-2.6-2.6-3.6l1.7-8.1c1.3 1.4 2.3 3 3.1 4.8c.7 1.8 1.1 3.9 1.1 6.2v.3h13.6c-.3-1.3-.7-2.5-1.2-3.4c-.3-.5-1-1.4-2.1-2.7l2.4-7.1c1.5 1.7 2.5 3.5 3 5.3c.5 1.7 .8 3.9 .8 6.9v1h3.3c.9 0 1.7 .1 2.5 .2c2.2 .2 4.7 .5 7.5 .8c-2.9-.7-5-1.6-6.2-2.6c-1.2-1.1-1.8-2.7-1.8-4.8c0-3.1 .7-5.8 2.2-8.3c1.4-2.5 3-3.7 4.7-3.7c2.1 0 3.8 1.7 5.3 5.2c1.5 3.4 2.3 7.6 2.3 12.5v.7h10.7l-3.6-20.2l-1.9-1.3c0-1.1 .2-2.3 .5-3.5c.5-1.5 1.2-3.3 2.3-5.4Zm-17.9-.3l6.9 3.7l-3.5 6.7l-7-3.7Zm1044.6-3l5.5 2.9l-2.9 6.2l-5.6-3Zm-288.9-1l7 3.7l-3.6 6.7l-7-3.7Zm-671.3 0l6.9 3.7l-3.5 6.7l-7-3.7Zm466.5-.3l6.9 3.7l-3.6 6.7L859 388Zm-366.1 0l6.9 3.7l-3.6 6.7l-6.9-3.7Zm877.1-1.6c.4 0 .7 .1 .9 .4c.2 .2 .4 .5 .4 .9c0 .3-.1 .6-.2 .9c-.1 .2-.2 .5-.5 1c-1-.5-1.7-.8-2.1-.8c-.3 0-.7 .1-1 .3c-.3 .1-.5 .3-.7 .5c0 .2 .5 .6 1.5 1.2c.9 .5 1.6 .8 2 .8c.3 0 1-.2 2.2-.5c-.2 .6-.5 1.1-.8 1.4c-.2 .2-.5 .4-1 .5l-6.4 2c.3-.7 .7-1.2 1-1.5c.3-.2 .8-.5 1.6-.8c-.6-.3-1-.6-1.2-1c-.3-.3-.4-.6-.4-.9c0-.2 .1-.5 .2-.8c.2-.4 .4-.7 .7-1c1.3-1.7 2.5-2.6 3.8-2.6Z" class="g0_44"/>
<path d="M473 439.8l3.8 2.4l-2.9 3.4l-3.2-2l-2.3 2.5l-3.8-2.1l2.8-3.6l3.3 2.1Zm568.7-2.8l4.6 2.4l-2.2 4l-4.6-2.3l-2.2 3.9l-4.6-2.4l2.3-4.1l4.5 2.3ZM613.1 426.9l6.9 3.7l-3.5 6.7l-7-3.6Zm732.5-.3l5.5 3.1l-3.1 5.8l-4.4-2.2l-2.5 4.8l-5.4-3.1l3.3-6l4.2 2.4Zm-349.4 0l5.5 3.1l-3.1 5.8l-4.4-2.2l-2.5 4.8l-5.4-3.1l3.2-6l4.3 2.4Zm-395.7 0l5.6 3.1l-3.1 5.8l-4.4-2.2l-2.6 4.8l-5.4-3.1l3.3-6l4.2 2.4Zm643.8-1.6c.3 1.7 1.3 3.2 2.8 4.5c1.5 1.3 3.1 1.9 4.9 1.9c.5 0 .9-.2 .9-.6c0-1.1-.7-2.2-2-3.2c-1.5-1.2-3.7-2.1-6.6-2.6ZM209.8 417.4c1 0 1.9 .4 2.6 1.1c.7 .7 1 1.6 1 2.6c0 1-.4 1.9-1.1 2.6c-.7 .8-1.6 1.1-2.6 1.1c-1 0-1.8-.3-2.5-1.1c-.8-.7-1.1-1.6-1.1-2.6c0-1 .3-1.9 1.1-2.6c.7-.7 1.6-1.1 2.6-1.1Zm967.8-5.9c-.6 0-1.1 .3-1.5 .8c-.4 .4-.5 1-.5 1.6c0 .7 .3 1.3 1.1 1.7c.8 .5 1.9 .7 3.2 .7h1.1c-.6-3.2-1.7-4.8-3.4-4.8Zm268.6-.1c-.8 0-1.4 .8-2 2.6c1.1 .4 1.8 .7 2.4 .9c1.6 .6 2.5 .9 2.7 .9c.4 0 .7-.1 .7-.4c0-.4-.5-1.2-1.3-2.3c-1-1.1-1.8-1.7-2.5-1.7Zm-245.7 0c-.8 0-1.4 .8-1.9 2.6c1 .4 1.8 .7 2.3 .9c1.6 .6 2.5 .9 2.7 .9c.5 0 .7-.1 .7-.4c0-.4-.4-1.2-1.3-2.3c-1-1.1-1.8-1.7-2.5-1.7Zm-458.7 0c-.8 0-1.4 .8-1.9 2.6c1 .4 1.8 .7 2.3 .9c1.6 .6 2.5 .9 2.7 .9c.5 0 .7-.1 .7-.4c0-.4-.4-1.2-1.3-2.3c-1-1.1-1.8-1.7-2.5-1.7Zm-102.8 0c-.8 0-1.5 .8-2 2.6c1 .4 1.8 .7 2.4 .9c1.6 .6 2.5 .9 2.7 .9c.4 0 .6-.1 .6-.4c0-.4-.4-1.2-1.2-2.3c-1-1.1-1.8-1.7-2.5-1.7Zm-59.3-1c-1.3 0-2.8 .5-4.4 1.3c-1.7 .8-4 2.4-7.2 4.6H576c6.6 0 10-1 10-3c0-.8-.6-1.4-1.9-2c-1.2-.6-2.7-.9-4.4-.9Zm-155.3 0c-.1 1-.2 1.7-.4 2.2c-.2 .5-.6 1.3-1.2 2.5c2.6 1.4 4.5 2.1 5.6 2.1c.3 0 .5-.2 .5-.5c0-.6-.4-1.5-1.3-2.7c-.9-1.2-1.9-2.4-3.2-3.6Zm351.9-.2c-1.2 2-1.9 3.7-1.9 5c0 .7 .3 1.2 .8 1.7c.5 .4 1.2 .7 1.9 .7c1 0 2.1-.3 3.4-.7c1.3-.5 2-.9 2-1.3c0-.3-.7-1.1-2.1-2.3c-1.4-1.2-2.7-2.2-4.1-3.1Zm-402 0c-1.3 2-1.9 3.7-1.9 5c0 .7 .2 1.2 .8 1.7c.5 .4 1.1 .7 1.9 .7c1 0 2.1-.3 3.4-.7c1.3-.5 1.9-.9 1.9-1.3c0-.3-.7-1.1-2-2.3c-1.4-1.2-2.8-2.2-4.1-3.1Zm-128.3 0c-1.3 2-2 3.7-2 5c0 .7 .3 1.2 .8 1.7c.6 .4 1.2 .7 1.9 .7c1 0 2.2-.3 3.5-.7c1.3-.5 1.9-.9 1.9-1.3c0-.3-.7-1.1-2.1-2.3c-1.4-1.2-2.7-2.2-4-3.1Zm173-2.3c-.9 0-1.6 .4-2.3 1c-.5 .6-.7 1.2-.7 1.7c0 .8 .9 1.6 2.7 2.5c.4-.2 .8-.4 1-.5c.7-.5 1-.9 1-1.4c0-1-.2-1.8-.5-2.4c-.2-.6-.7-.9-1.2-.9Zm830.9-.1c-.5 0-1.2 .5-1.8 1.7c-.7 1.1-1.6 2.8-2.5 5.2c2.3-.7 3.8-1.4 4.7-2c.9-.6 1.3-1.2 1.3-1.9c0-.5-.2-1.1-.6-1.9c-.3-.8-.7-1.1-1.1-1.1Zm-937.4-1.2c-.4 0-.7 .2-1 .4c-.3 .3-.5 .6-.5 .9c0 .9 .7 1.7 1.9 2.5c1.3 .8 2.8 1.4 4.6 1.7c-.7-1.7-1.5-3.1-2.4-4c-.9-1-1.7-1.5-2.6-1.5Zm841.1-1.4c1.4 2.5 2.2 4.3 2.5 5.2c.6 1.8 .9 3.9 .9 6.6v6c0 2.7-.2 4.9-.8 6.6c-.5 1.6-1.4 3-2.6 4c-1.2 1-3 1.8-5.4 2.5c-2.3 .6-4.7 1-7.3 1c-4.8 0-8.5-.9-11.1-2.7c-2.6-1.7-3.9-4.3-3.9-7.5c0-2.7 .4-5.3 1.2-7.6c.9-2.5 2.7-5.8 5.4-9.8l1.8 1.3c-2 3.3-3.3 5.7-3.9 7.3c-.6 1.5-.9 3-.9 4.6c0 2.1 1.1 3.8 3.4 5.2c2.2 1.3 5.1 1.9 8.8 1.9c3.5 0 6.5-.6 9-2c2.4-1.4 3.7-3.1 3.7-5.1c0-1.2-.3-2.4-.7-3.6c-.4-1.2-1.3-3.2-2.7-5.8ZM811.4 405c1.4 1.4 2.4 3 3.2 4.8c.7 1.8 1.1 3.9 1.1 6.2v9.1c0 1.2-.7 2.8-2.1 4.8c-1.4 2-3.1 3.8-4.9 5.2c-2.1 1.7-3.9 2.5-5.3 2.5c-1.8 0-3.7-.5-5.7-1.5c-1.7-.9-4.4-2.6-8.1-5.1l1.2-1.9c1.8 1.2 3.2 2 4.3 2.4c1.1 .4 2.3 .7 3.6 .7c1.3 0 2.7-.4 4.1-1.2c1.4-.8 3.2-2.2 5.6-4.3c3.3-3 4.9-5.2 4.9-6.8c0-.8-.3-1.9-.9-3.2c-.7-1.4-1.6-2.6-2.6-3.6Zm239.1 0c1.1 0 2 .5 2.7 1.3c.7 .9 1 2.1 1 3.6c0 1.1-.1 2-.3 2.7c-.2 .8-.7 1.7-1.4 2.9c-.5-1.4-1-2.4-1.3-2.8c-.4-.4-.9-.6-1.6-.6c-1.1 0-2.6 .6-4.5 1.8c-1.8 1.2-2.8 2.3-2.8 3.1c0 .4 .4 .7 1.1 .9c.6 .1 1.4 .2 2.5 .2c.4 0 .6 0 .9 0c.3 0 .6 0 .9 0c2.2 0 3.6 .2 4.3 .6c.6 .4 1 1.1 1 2.2c0 2.2-.4 4.2-1.2 6.2c-1 2.5-2.5 4.3-4.4 5.3c-2.3 1.3-4.8 2.4-7.3 3.2c-2.6 .8-5 1.2-7.2 1.2c-6.2 0-9.2-2.7-9.2-8.3c0-2.8 .3-5.2 1-7.2c.8-2.3 2.4-5.4 4.9-9.2l1.4 .9c-1.5 2.4-2.6 4.7-3.3 6.6c-.8 1.9-1.1 3.6-1.1 5.1c0 3.7 2.1 5.6 6.3 5.6c1.6 0 3.1-.1 4.6-.4c1.4-.3 2.8-.7 4.3-1.2c1-.4 2.1-.8 3.3-1.3c1.9-.9 3-1.4 3.1-1.4c.9-.5 1.4-.9 1.4-1.3c0-.2-.5-.3-1.5-.4c-1-.1-1.6-.1-2-.1c-3.1 0-5.1-.4-6.2-1.3c-.8-.7-1.2-2-1.2-4c0-.9 .3-2 .9-3.4c.5-1.4 1.3-2.8 2.3-4.1c1.4-2.1 2.9-3.7 4.3-4.8c1.5-1.1 2.9-1.6 4.3-1.6Zm-305.4-.6c1 0 2.2 1.5 3.7 4.6c1.6 3.2 2.4 6.2 2.4 8.9v6.5c-2.1 0-4.6-.4-7.4-1.2c-2.5-.7-4.7-1.6-6.6-2.5c-1.1 1.7-2.5 2.8-4.2 3.3c-.8 .3-2 .4-3.4 .4h-3.8v.5c-.1 1.9-.3 3.4-.8 4.7c-.5 1.6-1.4 3-2.6 4c-1.2 1-3 1.8-5.4 2.5c-2.3 .6-4.7 1-7.3 1c-4.8 0-8.5-.9-11.1-2.7c-2.6-1.7-3.9-4.3-3.9-7.5c0-2.7 .4-5.3 1.2-7.6c.9-2.5 2.7-5.8 5.4-9.8l1.8 1.3c-2 3.3-3.3 5.7-3.9 7.3c-.6 1.5-.9 3-.9 4.6c0 2.1 1.1 3.8 3.4 5.2c2.2 1.3 5.1 1.9 8.8 1.9c3.5 0 6.5-.6 9-2c2.4-1.4 3.7-3.1 3.7-5.1c0-1.2-.3-2.4-.7-3.6c-.4-1.2-1.3-3.2-2.7-5.8l2.6-8.1c1.4 2.5 2.2 4.3 2.5 5.2c.6 1.5 .9 3.4 .9 5.6v.3h3.8c1.8 0 3.2-.2 4.3-.6c1.3-.6 2.3-1.6 2.8-2.9c1.1-2.5 2.6-4.6 4.3-6.2c1.6-1.5 3-2.2 4.1-2.2Zm433.7-.8c1.6 0 3 1.1 4.1 3.2c1.1 2.2 1.7 4.8 1.7 7.9v1.6h3.7c1.8 0 3.2-.2 4.3-.6c1.3-.6 2.3-1.6 2.8-2.9c1.1-2.5 2.6-4.6 4.3-6.2c1.6-1.5 3-2.2 4.1-2.2c1 0 2.2 1.5 3.7 4.6c1.6 3.2 2.4 6.2 2.4 8.9v6.5c-2.1 0-4.6-.4-7.4-1.2c-2.5-.7-4.7-1.6-6.6-2.5c-1.1 1.7-2.5 2.8-4.2 3.3c-.8 .3-2 .4-3.4 .4h-4.2l-.6 3.1c-.8 1.7-1.8 3.3-3.3 5c-2.9 3.4-5.8 5-8.6 5c-1.6 0-3.4-.5-5.4-1.5c-1.9-1.1-5-3.2-9-6.3l1.3-1.7c2.1 1.4 3.8 2.4 5.2 2.8c1.2 .4 2.4 .6 3.9 .6c1.9 0 3.8-.5 5.7-1.6c2.2-1.2 4.5-3.3 6.9-6.1c-.8 .1-1.5 .2-2.1 .2c-1.9 0-3.5-.7-4.7-1.9c-1.1-1.3-1.7-3.1-1.7-5.3c0-3 .7-5.8 2-8.6c1.5-3 3.2-4.5 5.1-4.5Zm168.9-.5c1.5 1.7 2.5 3.5 3.1 5.3c.5 1.7 .7 3.9 .8 6.9v1h13.5c-.2-1.3-.6-2.5-1.2-3.4c-.3-.5-1-1.4-2.1-2.7l2.4-7.1c1.5 1.7 2.5 3.5 3.1 5.3c.5 1.9 .8 4.6 .8 8.3v7.7H1335v.7c0 1.2-.7 2.8-2 4.8c-1.4 2-3.1 3.8-4.9 5.2c-2.1 1.7-3.9 2.5-5.3 2.5c-1.8 0-3.7-.5-5.7-1.5c-1.7-.9-4.4-2.6-8.2-5.1l1.3-1.9c1.8 1.2 3.2 2 4.3 2.4c1.1 .4 2.3 .7 3.6 .7c1.3 0 2.7-.4 4.1-1.2c1.3-.8 3.2-2.2 5.6-4.3c3.3-3 4.9-5.2 4.9-6.8c0-.8-.3-1.9-.9-3.2c-.8-1.4-1.6-2.6-2.7-3.6l1.7-8.1c1.4 1.4 2.4 3 3.1 4.8c.8 1.8 1.1 3.9 1.1 6.2v.3h13.6c-.2-1.3-.6-2.5-1.2-3.4c-.3-.5-1-1.4-2.1-2.7Zm-349.4 0c1.5 1.7 2.5 3.5 3.1 5.3c.5 1.9 .8 4.6 .8 8.3v7.7H985.6v.7c0 1.2-.7 2.8-2.1 4.8c-1.4 2-3 3.8-4.9 5.2c-2 1.7-3.8 2.5-5.3 2.5c-1.7 0-3.6-.5-5.6-1.5c-1.7-.9-4.5-2.6-8.2-5.1l1.2-1.9c1.8 1.2 3.3 2 4.4 2.4c1.1 .4 2.2 .7 3.5 .7c1.4 0 2.8-.4 4.1-1.2c1.4-.8 3.3-2.2 5.6-4.3c3.3-3 5-5.2 5-6.8c0-.8-.3-1.9-1-3.2c-.7-1.4-1.6-2.6-2.6-3.6l1.7-8.1c1.3 1.4 2.4 3 3.1 4.8c.7 1.8 1.1 3.9 1.1 6.2v.3h13.6c-.2-1.3-.6-2.5-1.2-3.4c-.3-.5-1-1.4-2.1-2.7Zm-133.7-1.2c-.5 0-1.1 .2-1.6 .8c-.4 .5-.7 1.1-.7 1.9c0 .4 .2 .8 .6 1.1c.3 .3 .8 .5 1.4 .5c.4 0 .9-.2 1.4-.4c.4-.3 1-.8 1.7-1.4c-.6-1-1-1.6-1.4-2c-.4-.3-.9-.5-1.4-.5Zm-366.1 0c-.6 0-1.1 .2-1.6 .8c-.5 .5-.7 1.1-.7 1.9c0 .4 .2 .8 .6 1.1c.3 .3 .8 .5 1.4 .5c.4 0 .9-.2 1.4-.4c.4-.3 1-.8 1.7-1.4c-.6-1-1-1.6-1.5-2c-.4-.3-.8-.5-1.3-.5Zm277.5-.4l3 1.7c1.2 .8 2.4 1.7 3.6 2.5c1.6 1.3 2.8 2.4 3.4 3.5c.6 1.1 .9 2.4 .9 4.1c0 1.2-.1 2.4-.3 3.6c-.2 1.2-.4 2.2-.7 3c-.6 1.5-2 2.8-4.1 4c-2.1 1.1-4 1.6-5.8 1.6c-1.5 0-2.7-.5-3.7-1.6c-.9-1.1-1.3-2.5-1.3-4.3c0-1.6 .2-3.3 .7-4.8c.4-1.6 1.3-3.6 2.5-6l-1.1-.7c.4-.9 .8-2 1.4-3.3c.6-1.3 1.1-2.4 1.5-3.3Zm-402 0l2.9 1.7c1.3 .8 2.5 1.7 3.7 2.5c1.6 1.3 2.7 2.4 3.3 3.5c.6 1.1 .9 2.4 .9 4.1c0 1.2-.1 2.4-.2 3.6c-.2 1.2-.5 2.2-.8 3c-.5 1.5-1.9 2.8-4.1 4c-2 1.1-3.9 1.6-5.7 1.6c-1.6 0-2.8-.5-3.7-1.6c-.9-1.1-1.4-2.5-1.4-4.3c0-1.6 .3-3.3 .7-4.8c.5-1.6 1.3-3.6 2.5-6l-1-.7c.3-.9 .8-2 1.3-3.3c.6-1.3 1.1-2.4 1.6-3.3Zm-128.3 0l2.9 1.7c1.3 .8 2.5 1.7 3.6 2.5c1.6 1.3 2.8 2.4 3.4 3.5c.6 1.1 .9 2.4 .9 4.1c0 1.2-.1 2.4-.3 3.6c-.2 1.2-.4 2.2-.7 3c-.6 1.5-1.9 2.8-4.1 4c-2.1 1.1-4 1.6-5.7 1.6c-1.6 0-2.8-.5-3.7-1.6c-.9-1.1-1.4-2.5-1.4-4.3c0-1.6 .2-3.3 .7-4.8c.5-1.6 1.3-3.6 2.5-6l-1.1-.7c.4-.9 .8-2 1.4-3.3c.6-1.3 1.1-2.4 1.6-3.3Zm706.5-5.2c2.6 1.9 4.5 4.4 5.5 7.4c1 2.8 1.5 6.5 1.5 11.2v9.5H945.7c-1.3 0-2.3-.2-3-.8c-.8-.7-1.3-1.8-1.3-3.3c0-.9 .1-1.8 .2-2.8c.1-1 .2-2.1 .4-3.1l1.1-.1c.2 .7 .5 1.2 1.1 1.6c.5 .3 1.2 .4 1.9 .4h10.3c-.5-2.9-1.3-5.2-2.4-7c-.9-1.4-2.2-2.7-3.9-3.7Zm-34.1 0c2.6 1.9 4.5 4.4 5.5 7.4c1 2.8 1.5 6.5 1.5 11.2v9.5H911.6c-1.3 0-2.3-.2-3-.8c-.8-.7-1.3-1.8-1.3-3.3c0-.9 .1-1.8 .2-2.8c.1-1 .2-2.1 .4-3.1l1.1-.1c.2 .7 .5 1.2 1.1 1.6c.5 .3 1.2 .4 1.9 .4h10.3c-.5-2.9-1.3-5.2-2.4-7c-.9-1.4-2.2-2.7-3.9-3.7Zm222.2-.5l6.9 3.7l-3.5 6.7l-7-3.6Zm-431.2 0l6.9 3.7l-3.5 6.7l-7-3.6Zm-292.2-.9c3 2.1 5.7 4.6 8.2 7.6c2.3 2.8 4.1 5.6 5.4 8.4c1.3 2.7 1.9 5.2 1.9 7.2c0 1.4-.3 3-.8 4.8c-.7 2.1-1.6 3.1-2.5 3.1c-.8 0-2.2-.4-4.2-1.2c-2.2-.9-4.5-2.1-6.9-3.6c-1.3 1.2-2.9 2-4.8 2.6c-1.5 .4-3 .6-4.5 .6H394.6c-1.3 0-2.3-.2-3-.8c-.8-.7-1.3-1.8-1.3-3.3c0-.9 .1-1.8 .2-2.8c.1-1 .2-2.1 .4-3.1l1.1-.1c.2 .7 .5 1.2 1.1 1.6c.5 .3 1.2 .4 1.9 .4h10.3c-.5-2.9-1.3-5.2-2.4-7c-.9-1.4-2.2-2.7-3.9-3.7l2.1-9.3c2.6 1.9 4.5 4.4 5.5 7.4c1 2.8 1.5 6.5 1.5 11.2v1.4h.6c.6 0 1.2-.1 1.9-.2c.7-.2 1.2-.4 1.6-.7v-1.1c0-2.4 .3-4.5 1-6.3c.8-2 1.9-3.4 3.4-4.3l-1.5-1.1c.3-1.6 .5-2.9 .7-3.8c.2-.9 .6-2.2 1.1-3.9Zm448.3-.6c2.1 0 4 1.8 5.9 5.5c1.8 3.6 2.8 7.4 2.8 11.5v13.1H855.3v.7c0 1.2-.7 2.8-2.1 4.8c-1.4 2-3.1 3.8-4.9 5.2c-2.1 1.7-3.9 2.5-5.3 2.5c-1.8 0-3.7-.5-5.7-1.5c-1.7-.9-4.4-2.6-8.1-5.1l1.2-1.9c1.8 1.2 3.2 2 4.3 2.4c1.1 .4 2.3 .7 3.6 .7c1.3 0 2.7-.4 4.1-1.2c1.4-.8 3.2-2.2 5.6-4.3c3.3-3 4.9-5.2 4.9-6.8c0-.8-.3-1.9-.9-3.2c-.7-1.4-1.6-2.6-2.6-3.6L851 405c1.4 1.4 2.4 3 3.2 4.8c.7 1.8 1.1 3.9 1.1 6.2v.3H871c0-1.7 0-2.9-.1-3.7c-.2-1.1-.5-2.1-1-2.9c-.6 1.2-1.5 2.2-2.6 2.8c-1 .7-2.2 1-3.4 1c-1.6 0-2.9-.5-4-1.6c-1.1-1-1.6-2.3-1.6-4c0-2.3 .7-5.1 2.1-8.3c1.6-3.5 3.2-5.3 4.8-5.3Zm-366.1 0c2 0 4 1.8 5.9 5.5c1.8 3.6 2.7 7.4 2.7 11.5v13.1H486.1c-.9 0-1.5 .1-1.9 .1c-.4 0-.6 .2-.6 .4c.6 .3 1.1 .6 1.6 .7c.5 .1 .9 .3 1 .5c.2 .2 .3 .5 .3 1c0 1.4-.5 3.1-1.2 5c-.9 2-1.7 3.2-2.4 3.7c-.8 .6-2.9 1.3-6.6 2.1c-3.6 .8-6.7 1.2-9.3 1.2c-3.8 0-6.8-.7-9.1-2.3c-2.3-1.5-3.5-3.6-3.5-6.1c0-2.4 .5-4.7 1.6-6.9c1.2-2.7 3.5-6 6.8-10.1l1.8 1.2c-2.1 2.5-3.6 4.6-4.4 6.2c-.8 1.6-1.2 3.1-1.2 4.7c0 2.1 .9 3.7 2.7 4.7c1.7 1 4.4 1.5 8.1 1.5c1.9 0 4.6-.3 8-1c3.3-.7 5-1.3 5-1.8c0-.3-.6-.5-1.9-.7c-1.3-.2-2.7-.3-4.3-.3c-2.2 0-3.4-.5-3.4-1.5c0-.4 .3-1.2 .8-2.4c.4-.8 .8-1.6 1.2-2.5c.7-1.6 2.1-2.9 4.2-4c2.1-1 4.2-1.5 6.5-1.5h19c0-1.7 0-2.9-.1-3.7c-.2-1.1-.5-2.1-1-2.9c-.6 1.2-1.5 2.2-2.6 2.8c-1 .7-2.2 1-3.4 1c-1.6 0-2.9-.5-4-1.6c-1.1-1-1.7-2.3-1.7-4c0-2.3 .8-5.1 2.2-8.3c1.6-3.5 3.1-5.3 4.8-5.3Zm478.1-3.4l6.9 3.7l-3.6 6.6l-7-3.6Zm-170 0l6.9 3.7l-3.5 6.6l-7-3.6Zm-597-1.2c2.4 0 4.5 .7 6.1 2.1c1.7 1.3 2.5 3.1 2.5 5.3c0 1.3-.3 2.4-1 3.3c-.9 1-1.9 1.6-3.2 1.6c-1 0-1.8-.4-2.5-1c-.6-.7-.9-1.4-.9-2.3c0-1.4 .5-2.4 1.6-3.1c1.1-.6 1.7-1.2 1.7-1.6c0-.7-.4-1.3-1-1.7c-.6-.4-1.5-.6-2.5-.6c-1.3 0-2.4 .4-3.2 1.1c-.8 .7-1.2 1.6-1.2 2.7c0 .9 .4 2.2 1.2 3.7c1.3 2.3 2.1 3.8 2.4 4.5c.8 2 1.2 4.3 1.2 6.7c0 1.3-.1 2.8-.3 4.4h-1.8c0-.3 0-.6 0-.8l.2-1.6c0-1.1-.8-2.3-2.2-3.6c-2.5-2.2-3.9-3.5-4.2-3.8c-1.4-1.7-2.2-3.7-2.2-5.9c0-2.7 .9-4.9 2.7-6.7c1.8-1.8 4-2.7 6.6-2.7Zm1182.7-.2l5.5 3.1l-3.1 5.8l-4.4-2.2l-2.5 4.8l-5.4-3.1l3.3-6l4.2 2.3Zm-30.7 0l5.4 3.1l-3.2 6.1l-4.3-2.4l-2.4 4.7l-5.5-3.1l3.1-5.8l4.4 2.3Zm-1066.4 0l5.6 3.1l-3.1 5.8l-4.4-2.2l-2.6 4.8l-5.4-3.1l3.3-6l4.2 2.3Zm271.7-.8l7 3.7l-3.6 6.7l-7-3.6Zm804.5-.4c1.2 1.5 2 3.1 2.5 4.7c.5 1.8 .7 4.1 .7 6.9v5.8c0 4.2 .3 7.1 .9 8.7c.4 1.3 1.1 1.9 2.1 1.9h17.7c-.2-1.3-.6-2.5-1.2-3.4c-.3-.5-1-1.4-2.1-2.7l2.4-7.1c1.5 1.7 2.5 3.5 3.1 5.3c.5 1.9 .8 4.6 .8 8.3v7.7h-20.7c-2.4 0-4-.9-5.1-2.8c-1.1-2.1-1.7-5.7-1.7-10.7v-8.5c0-1.9-.3-3.4-.8-4.5c-.3-.5-.9-1.2-1.8-2.2Zm47.9 0c1.1 1.5 1.9 3.1 2.4 4.7c.5 1.8 .8 4.1 .8 6.9v5.8c0 4.2 .3 7.1 .8 8.7c.5 1.3 1.2 1.9 2.1 1.9h8c1.8 0 3.2-.2 4.3-.6c1.3-.6 2.2-1.6 2.8-2.9c1.1-2.5 2.5-4.6 4.3-6.2c1.6-1.5 2.9-2.2 4-2.2c1 0 2.3 1.5 3.8 4.6c1.5 3.2 2.3 6.2 2.3 8.9v6.5c-2.1 0-4.5-.4-7.3-1.2c-2.5-.7-4.7-1.6-6.6-2.5c-1.1 1.7-2.6 2.8-4.3 3.3c-.8 .3-1.9 .4-3.3 .4h-8c-2.3 0-4-.9-5-2.8c-1.2-2.1-1.8-5.7-1.8-10.7v-8.5c0-1.9-.2-3.4-.7-4.5c-.3-.5-.9-1.2-1.8-2.2Zm-134.3 0l1.8 10.5c.6 4 1.1 7.5 1.3 10.4c.2 2.3 .3 4.5 .3 6.6c0 1.7-.2 3.3-.6 4.8c-.4 1.5-1.2 3.4-2.4 5.9l-1.8-.7c.5-2.6 .7-4.6 .7-6.2c0-1.2-.1-3-.3-5.4c-.2-2.3-.4-4.6-.7-6.9c-.3-2.3-.8-5.1-1.5-8.2c-.2-1.1-.3-1.9-.3-2.3c0-.6 .3-1.7 .9-3.2c.6-1.5 1.5-3.2 2.6-5.3Zm-184.3 0l1.8 10.5c.7 4 1.1 7.5 1.4 10.4c.2 2.3 .3 4.5 .3 6.6c0 1.7-.2 3.3-.6 4.8c-.4 1.5-1.3 3.4-2.4 5.9l-1.8-.7c.4-2.6 .7-4.6 .7-6.2c0-1.2-.1-3-.3-5.4c-.2-2.3-.5-4.6-.8-6.9c-.3-2.3-.7-5.1-1.4-8.2c-.3-1.1-.4-1.9-.4-2.3c0-.6 .3-1.7 .9-3.2c.7-1.5 1.5-3.2 2.6-5.3Zm-168.6 0l1.8 10.5c.6 4 1.1 7.5 1.3 10.4c.2 2.3 .3 4.5 .3 6.6c0 1.7-.2 3.3-.6 4.8c-.4 1.5-1.2 3.4-2.4 5.9l-1.8-.7c.5-2.6 .7-4.6 .7-6.2c0-1.2-.1-3-.3-5.4c-.2-2.3-.4-4.6-.7-6.9c-.3-2.3-.8-5.1-1.5-8.2c-.2-1.1-.4-1.9-.4-2.3c0-.6 .4-1.7 1-3.2c.6-1.5 1.5-3.2 2.6-5.3Zm-51.4 0l1.8 10.5c.7 4 1.1 7.5 1.4 10.4c.2 2.3 .3 4.5 .3 6.6c0 1.7-.2 3.3-.6 4.8c-.4 1.5-1.3 3.4-2.4 5.9l-1.8-.7c.4-2.6 .7-4.6 .7-6.2c0-1.2-.1-3-.3-5.4c-.2-2.3-.5-4.6-.8-6.9c-.3-2.3-.7-5.1-1.4-8.2c-.3-1.1-.4-1.9-.4-2.3c0-.6 .3-1.7 .9-3.2c.7-1.5 1.5-3.2 2.6-5.3Zm-58.1 0l1.8 10.5c.7 4 1.1 7.5 1.4 10.4c.2 2.3 .3 4.5 .3 6.6c0 1.7-.2 3.3-.6 4.8c-.5 1.5-1.3 3.4-2.5 5.9l-1.7-.7c.4-2.6 .7-4.6 .7-6.2c0-1.2-.1-3-.3-5.4c-.2-2.3-.5-4.6-.8-6.9c-.3-2.3-.8-5.1-1.4-8.2c-.3-1.1-.4-1.9-.4-2.3c0-.6 .3-1.7 .9-3.2c.6-1.5 1.5-3.2 2.6-5.3Zm-153.1 0l1.8 10.5c.7 4 1.1 7.5 1.4 10.4c.2 2.3 .3 4.5 .3 6.6c0 1.7-.2 3.3-.6 4.8c-.4 1.5-1.3 3.4-2.4 5.9l-1.8-.7c.4-2.6 .7-4.6 .7-6.2c0-1.2-.1-3-.3-5.4c-.2-2.3-.5-4.6-.8-6.9c-.3-2.3-.7-5.1-1.4-8.2c-.3-1.1-.4-1.9-.4-2.3c0-.6 .3-1.7 .9-3.2c.7-1.5 1.5-3.2 2.6-5.3Zm-326.7 0l1.8 10.5c.7 4 1.1 7.5 1.4 10.4c.2 2.3 .3 4.5 .3 6.6c0 1.7-.2 3.3-.6 4.8c-.4 1.5-1.3 3.4-2.4 5.9l-1.8-.7c.4-2.6 .7-4.6 .7-6.2c0-1.2-.1-3-.3-5.4c-.2-2.3-.5-4.6-.8-6.9c-.3-2.3-.7-5.1-1.4-8.2c-.3-1.1-.4-1.9-.4-2.3c0-.6 .3-1.7 .9-3.2c.7-1.5 1.5-3.2 2.6-5.3Zm-93.8-1.7l5.4 3l-3.3 6.1l-4.2-2.4l-2.4 4.7l-5.5-3l3.1-5.8l4.4 2.2Zm1022.2-.7l1.4 .7c0 .1-.1 .4-.1 1c0 .6 .4 1.2 1.2 1.9c.7 .5 1.9 1.2 3.5 1.8c-.2 1.3-.4 2.5-.8 3.8c-.3 1.2-.7 2.2-1.2 3.2l-1-.4l3.2 18.4v8.1h-20.3c-.5 0-1 0-1.4 0c-.5 .1-1.2 .1-2.1 .2c.7 .4 1.4 .8 2.1 1.2c.7 .5 1 1.2 1 2c0 .8-.1 1.6-.3 2.5c-.1 .5-.4 1.4-.9 2.6c-.8 2.5-1.6 4.2-2.3 5.1c-.7 .9-1.6 1.3-2.7 1.3c-2.8 0-5.2-1.4-7.2-4.4c-2-2.9-3-6.4-3-10.5h-4.7v.7c0 1.2-.7 2.8-2.1 4.8c-1.4 2-3 3.8-4.9 5.2c-2 1.7-3.8 2.5-5.3 2.5c-1.7 0-3.6-.5-5.6-1.5c-1.7-.9-4.5-2.6-8.2-5.1l1.3-1.9c1.8 1.2 3.2 2 4.3 2.4c1.1 .4 2.3 .7 3.5 .7c1.4 0 2.8-.4 4.2-1.2c1.3-.8 3.2-2.2 5.6-4.3c3.3-3 4.9-5.2 4.9-6.8c0-.8-.3-1.9-1-3.2c-.7-1.4-1.5-2.6-2.6-3.6l1.7-8.1c1.3 1.4 2.4 3 3.1 4.8c.8 1.8 1.1 3.9 1.1 6.2v.3h.6c1.1 0 2.2-.1 3.3-.3c1.3-.2 2.1-.4 2.6-.5c2.2-6 4.2-10.3 5.9-13c1.4-2.3 2.8-3.5 4.1-3.5c1 0 1.9 1 2.6 3c.6 1.7 .9 3.4 .9 5.1c0 2.3-.4 4.2-1.3 5.9c-1 1.7-2.5 3.1-4.5 3.9c1.5-.2 2.8-.4 4-.5c1.2 0 2.3-.1 3.3-.1h16.7l-3.6-20.2l-1.9-1.3c0-1.1 .2-2.3 .6-3.5c.4-1.5 1.2-3.3 2.3-5.4Zm-184.3 0l1.4 .7c0 .1 0 .4-.1 1c0 .6 .4 1.2 1.3 1.9c.7 .5 1.9 1.2 3.5 1.8c-.2 1.3-.5 2.5-.8 3.8c-.4 1.2-.8 2.2-1.2 3.2l-1.1-.4l3.3 18.4v8.1H1066c-1.3 0-2.3-.2-3-.8c-.9-.7-1.3-1.8-1.3-3.3c0-.9 0-1.8 .1-2.8c.1-1 .2-2.1 .4-3.1l1.2-.1c.1 .7 .5 1.2 1 1.6c.6 .3 1.2 .4 2 .4h10.3c-.5-2.9-1.3-5.2-2.4-7c-1-1.4-2.3-2.7-3.9-3.7l2.1-9.3c2.6 1.9 4.4 4.4 5.5 7.4c1 2.8 1.5 6.5 1.5 11.2v1.4h10.7l-3.6-20.2l-1.9-1.3c0-1.1 .2-2.3 .5-3.5c.5-1.5 1.2-3.3 2.3-5.4Zm-431.2 0l1.4 .7c0 .1 0 .4-.1 1c0 .6 .4 1.2 1.3 1.9c.7 .5 1.9 1.2 3.5 1.8c-.2 1.3-.5 2.5-.8 3.8c-.4 1.2-.8 2.2-1.2 3.2l-1.1-.4l3.3 18.4v8.1H646.2v-.1l-.4-.1c-1.5-.2-3.1-.5-4.9-1c-2.4-.7-4.6-1.6-6.5-2.5c-1.2 1.7-2.6 2.8-4.3 3.3c-.8 .3-1.9 .4-3.3 .4H558.1c0 4.7-1.5 8-4.4 10c-2.6 1.8-6.4 2.7-11.6 2.7c-4.9 0-8.6-.9-11.2-2.7c-2.6-1.7-3.9-4.3-3.9-7.5c0-2.7 .4-5.3 1.2-7.6c.9-2.5 2.7-5.8 5.4-9.8l1.8 1.3c-2 3.3-3.3 5.7-3.9 7.3c-.6 1.5-.9 3-.9 4.6c0 2.1 1.1 3.8 3.4 5.2c2.2 1.3 5.1 1.9 8.8 1.9c3.5 0 6.6-.6 9-2c2.4-1.4 3.7-3.1 3.7-5.1c0-1.2-.2-2.4-.7-3.6c-.4-1.2-1.3-3.2-2.7-5.8l2.6-8.1c1.1 2.1 1.7 3.3 1.8 3.6c.6 1.3 1 2.4 1.2 3.4c.3 1.1 .4 2.5 .4 4.1c1.3 0 2.5-.3 3.5-1c.1 0 1.1-.7 3-2l10.6-7.7c1.7-1.1 3-1.9 3.8-2.4c1.1-.5 2.3-.8 3.5-.8c2.2 0 4 .8 5.2 2.4c1.5 1.8 2.2 4.5 2.2 8.2v3.3h13.7c-.3-1.3-.7-2.5-1.2-3.4c-.3-.5-1-1.4-2.1-2.7l2.4-7.1c1.5 1.7 2.5 3.5 3 5.3c.5 1.7 .8 3.9 .8 6.9v1h13.6c-.3-1.3-.7-2.5-1.2-3.4c-.3-.5-1-1.4-2.1-2.7l2.4-7.1c1.5 1.7 2.5 3.5 3 5.3c.5 1.7 .8 3.9 .8 6.9v1h3.8c1.8 0 3.2-.2 4.2-.6c1.4-.6 2.3-1.6 2.8-2.9c1.2-2.5 2.6-4.6 4.4-6.2c1.6-1.5 2.9-2.2 4-2.2c1 0 2.3 1.5 3.7 4.6c1.2 2.4 2 4.7 2.3 6.8v.5H659l-3.6-20.2l-1.9-1.3c0-1.1 .2-2.3 .5-3.5c.5-1.5 1.2-3.3 2.3-5.4Zm-326.7 0l1.4 .7c0 .1 0 .4-.1 1c0 .6 .4 1.2 1.3 1.9c.7 .5 1.9 1.2 3.5 1.8c-.2 1.3-.5 2.5-.8 3.8c-.4 1.2-.8 2.2-1.2 3.2l-1.1-.4l3.3 18.4v8.1H285.3v.7c0 1.2-.7 2.8-2.1 4.8c-1.4 2-3 3.8-4.9 5.2c-2.1 1.7-3.8 2.5-5.3 2.5c-1.8 0-3.6-.5-5.6-1.5c-1.8-.9-4.5-2.6-8.2-5.1l1.2-1.9c1.8 1.2 3.2 2 4.3 2.4c1.1 .4 2.3 .7 3.6 .7c1.4 0 2.7-.4 4.1-1.2c1.4-.8 3.2-2.2 5.6-4.3c3.3-3 5-5.2 5-6.8c0-.8-.4-1.9-1-3.2c-.7-1.4-1.6-2.6-2.6-3.6l1.7-8.1c1.3 1.4 2.3 3 3.1 4.8c.7 1.8 1.1 3.9 1.1 6.2v.3h13.6c-.3-1.3-.7-2.5-1.2-3.4c-.3-.5-1-1.4-2.1-2.7l2.4-7.1c1.5 1.7 2.5 3.5 3 5.3c.5 1.7 .8 3.9 .8 6.9v1h3.3c.9 0 1.7 .1 2.5 .2c2.2 .2 4.7 .5 7.5 .8c-2.9-.7-5-1.6-6.2-2.6c-1.2-1.1-1.8-2.7-1.8-4.8c0-3.1 .7-5.8 2.2-8.3c1.4-2.5 3-3.7 4.7-3.7c2.1 0 3.8 1.7 5.3 5.2c1.5 3.4 2.3 7.6 2.3 12.5v.7h10.7l-3.6-20.2l-1.9-1.3c0-1.1 .2-2.3 .5-3.5c.5-1.5 1.2-3.3 2.3-5.4Zm-17.9-.3l6.9 3.7l-3.5 6.7l-7-3.7Zm1044.6-3l5.5 2.9l-2.9 6.2l-5.6-3Zm-288.9-1l7 3.7l-3.6 6.7l-7-3.7Zm-671.3 0l6.9 3.7l-3.5 6.7l-7-3.7Zm466.5-.3l6.9 3.7l-3.6 6.7L859 388Zm-366.1 0l6.9 3.7l-3.6 6.7l-6.9-3.7Zm877.1-1.6c.4 0 .7 .1 .9 .4c.2 .2 .4 .5 .4 .9c0 .3-.1 .6-.2 .9c-.1 .2-.2 .5-.5 1c-1-.5-1.7-.8-2.1-.8c-.3 0-.7 .1-1 .3c-.3 .1-.5 .3-.7 .5c0 .2 .5 .6 1.5 1.2c.9 .5 1.6 .8 2 .8c.3 0 1-.2 2.2-.5c-.2 .6-.5 1.1-.8 1.4c-.2 .2-.5 .4-1 .5l-6.4 2c.3-.7 .7-1.2 1-1.5c.3-.2 .8-.5 1.6-.8c-.6-.3-1-.6-1.2-1c-.3-.3-.4-.6-.4-.9c0-.2 .1-.5 .2-.8c.2-.4 .4-.7 .7-1c1.3-1.7 2.5-2.6 3.8-2.6Z" class="g1_44"/>
<image clip-path="url(#c1_44)" preserveAspectRatio="none" x="1344" y="457" width="108" height="72" href="img/2.jpg"/>
<image clip-path="url(#c2_44)" preserveAspectRatio="none" x="1347" y="550" width="102" height="71" href="img/3.jpg"/>
<image clip-path="url(#c3_44)" preserveAspectRatio="none" x="1347" y="642" width="102" height="74" href="img/4.jpg"/>
<image clip-path="url(#c4_44)" preserveAspectRatio="none" x="1353" y="745" width="96" height="80" href="img/5.jpg"/>
<image clip-path="url(#c5_44)" preserveAspectRatio="none" x="21" y="470" width="595" height="344" href="img/6.jpg"/>
<path d="M569.1 579.4v.1h.4l.5-.1l.5-.1l2.2-1.6l.3-.2l1.3-1.7l.1-.1l1.9-2.7v-.1l2.2-3.2l-.2 .2l3.4-3.2l3.5-3.2l-.1 .1l3.9-2.9l4.1-3.2l3.9-3.4l4-3.5l3.9-3.4h-.1l4.1-2.9l3.7-2.6l-.1 .1l4.2-2.2h.1l4.5-2.4l4.2-2.2h.1l4.4-2.8l4-2.6l-.1 .1l3.9-2l4.3-2l-.3 .1l3.7-.9l3.3-.9l2.3-.6l1.7-.4h.1l.9-.3l-.3 .1h.7l-.2-.1l.2 .1l-.8-.5l.1 .2l-.2-.5l.1 .2l-.1-.3v.2l.7-1.1l-.5 .2v.1l-.9 .5h-.1l-1.2 1l.1-.1l-1.8 1.1c-.4 .2-.6 .8-.3 1.2c.2 .5 .8 .6 1.2 .4l1.8-.9l1.4-.7l.8-.4v.1l.5-.2c.5-.2 .9-.6 .9-1.2v-.2l-.1-.3v-.2l-.2-.5l-.2-.1c-.2-.3-.4-.5-.8-.5l-.2-.1h-.9l-.4 .1l-.9 .2l-1.7 .5l-2.3 .5l-3.3 1v-.1l-3.7 1H641l-4.3 2.1l-3.9 2l-.1 .1l-4 2.6l-4.3 2.8v-.1l-4.2 2.2l-4.5 2.4l-4.3 2.2l-.1 .1l-3.7 2.6v.1l-4.1 2.9l-.1 .1l-3.9 3.4l-4 3.5l-3.9 3.4h.1l-4.1 3.1l-3.9 2.9l-.1 .1l-3.5 3.2l-3.3 3.2l-.2 .2l-2.1 3.2l-1.9 2.8l-1.3 1.7l.2-.2l-2.2 1.6l.4-.1l-.5 .1h-.1c-.4 .1-.7 .5-.7 .9c0 .5 .3 .8 .7 .9Z" class="g0_44"/>
<path d="M568.4 566c-.3-.5-.9-.8-1.4-.7c-.6 .1-1 .6-1 1.2v.9h.1l-.1-.2l.1 .4l.1 .7v-.1l.3 2.2v-.1l.2 1.4l-.1-.1v1.5V573l-.1 1.6v4.9l.2 1.3v.1l.3 1.1l.1 .2l.4 1c.1 .2 .3 .4 .5 .5l.9 .5l.2 .1l1 .4l.3 .1l1.5 .2h1.6l.3-.1l1.8-.4h-.1l2.5-.6h.2l2.7-1h.1l2.9-1.1l.2-.1l2.7-1.4l.4-.3l2-2.3l-.2 .2l2-1.4c.5-.3 .6-1 .3-1.4c-.3-.5-.9-.7-1.4-.4l-2.1 1.3l-.2 .1l-2.2 2.2l.3-.2l-2.8 1.3l.1-.1l-2.9 1.2l-2.8 1l.2-.1L575 582h-.1l-1.7 .4h.3H572h.1l-1.4-.1l.3 .1l-1-.4l.2 .1l-.8-.6l.4 .5l-.5-.9l.1 .2l-.2-1v.1l-.2-1.3l.1 .2l-.1-1.5l.1-1.5v-1.5l.1-1.7v-1.7l-.2-1.3V570l-.3-2.2l-.2-.7v.1v-.3l-.1 .5h.1v-.9l-.1 .7v-.1c.2-.3 .2-.7 0-1.1Z" class="g0_44"/>
<path d="M740 503.3l.1-.1l.2-.3l.2-.4l.1-.5l-.2-1.2l-.2-1.3l-.4-2.2l-.5-2.2v.1l-.3-2.4h.1L739 490v-.1l-.2-2.4v.1l-.1-2.2v-.1l-.1-1.8v-.2l-.3-1.3l.1 .2v-1.5l-.1-1.5v.2l.1-.9v.2l.2-.8l-.1 .3l.2-.4l.1-.2l.1-.3l.1-.5v-.5l-.2-.5l-.2-.5l-.1-.1c-.3-.6-.9-.9-1.5-.6c-.6 .2-.9 .9-.7 1.5c.2 .6 .8 1 1.4 .8h.1l.4-.1h-.5l.9 .1h.3l1.5-.2h-.2h4.7l-.4-.1l1.4 .6l-.2-.1l1 .6v-.1l1 .7l-.2-.2l.8 1l-.1-.1l.7 .9l-.1-.2l.4 1v-.1l.3 .9v-.2l.2 1.2v-.2v3.3l-.1 .9v1.3l.1 .2l.1 .4l-.1-.2l.1 .5v.2l.2 .6c.1 .4 .4 .7 .8 .9h.2l-.9-.9l.2 .5v.2l.2 .6l-.1-.5v.4l.1-.3l-.2 .6l.5-.7l-.6 .4l-.1 .1l-.8 .8l.3-.2l-1.6 .8l-1.6 .9l.2-.1l-2.2 .8h.1l-2.4 .7l.1-.1L740 495l-2.5 .5h.2l-2.1 .1h-.1l-1.7 .2h.2l-1.6-.2h.1l-1.6-.3l-1.4-.2l-1.5-.2l.3 .1l-1.4-.6h-.4l-.7-.1l1 .5l-.3-.3l-.2-.3l-.7-.5l.5 1V494l-.2 .8l.7-1.1l.2-.5l.1-1.3v.2l.5-1.9l-.1 .2l.9-1.6l.1-.3l.4-2.1l-.4 .7l1.2-1.1l-.3 .3l1.7-.8l.2-.1l1.1-.8l-.6 .3l.8-.1c.4 0 .7-.2 .9-.4l.4-.5l.2-.1l.2-.4l-1 .6h.1c.3 0 .5-.1 .7-.3l.3-.2l-1.7-.2l.3 .4l-.2-.5l.2 .9v-.2l.2 1.6v-.2l.1 2.1v-.2l-.3 2.3l-.5 3v-.1l-.7 2.7l.1-.1l-1.1 3l.1-.1l-1.2 2.7h.1l-1.2 2.6h-.1l-1.2 3.1l.1-.2l-1.4 2.4l-.1 .1l-1.1 2.4l.2-.3l-1.5 1.9l.4-.4l-1.8 1v.1l-1.6 1l.4-.2l-2 .3h.1l-1.7 .2h.3l-1.3-.3c-.6-.2-1.1 .2-1.3 .8c-.1 .5 .2 1.1 .8 1.3l1.2 .4h.3l1.7 .1h.2l2.1-.2l.5-.2l1.7-1l-.1 .1l1.8-1l.4-.4l1.5-1.8l.2-.3l1-2.3v.1l1.4-2.4l.1-.2l1.2-3.1v.1l1.2-2.6v-.1l1.1-2.7l.1-.1l1-2.9v-.1l.7-2.8v-.1l.5-3l.3-2.4v-.2l-.1-2.1v-.1l-.2-1.6l-.1-.1l-.3-.9l-.2-.5l-.4-.4c-.4-.5-1.1-.6-1.7-.2l-.3 .2l.8-.2h-.1c-.5 0-.9 .2-1.1 .6l-.3 .4l.1-.2l-.4 .4l.9-.4l-.8 .1c-.3 0-.5 .1-.7 .2l-1.1 .8l.2-.2l-1.7 .8l-.4 .2l-1.2 1.1c-.2 .2-.4 .4-.4 .7l-.4 2l.1-.3l-.9 1.7l-.1 .2l-.5 1.8v.2l-.2 1.3l.2-.5l-.7 1c-.1 .2-.2 .5-.2 .7v.7c0 .4 .2 .8 .5 1.1l.7 .5l-.2-.3l.2 .4c.2 .3 .6 .5 1 .5h.7l-.4-.1l1.3 .6h.3l1.5 .2l1.4 .3l1.6 .2l.1 .1l1.6 .1h.2l1.8-.2l2-.1h.2l2.5-.6h.1l2.2-.6l2.3-.6l.1-.1l2.2-.8l.2-.1l1.6-.8h-.1l1.6-.8l.3-.2l.8-.8l-.2 .1l.6-.4c.3-.2 .5-.4 .5-.7l.1-.6l.1-.3v-.4l-.1-.4l-.2-.6v.2l-.1-.6c-.1-.4-.5-.7-.9-.9h-.2l.9 .9l-.1-.5v.1V488l-.1-.2l-.1-.3l.1 .2l-.1-1.2v.1l.1-.9v-3.4l-.1-.3l-.2-1.2l-.1-.1l-.3-.9l-.5-1l-.1-.3l-.7-.9l-.8-1l-.3-.2l-1-.7h-.1l-1-.7h-.2l-1.3-.5l-.4-.1l-1.6-.1l-1.6 .1h.1H740l-1.4 .2h.3l-.8-.1h-.8h.5h-.1c-.4-.1-.9 .1-1.2 .4c-.3 .4-.4 .9-.2 1.4l.1 .1l.3 .5l-.2-.6v.3l.1-.2l-.1 .4l.1-.3l-.1 .2l-.2 .4l-.1 .3l-.2 .7v.2l-.1 .8v1.7v-.1v1.7l.3 1.4v-.2l.2 1.9l.1 2.2l.2 2.4V490l.1 2.9v.1l.3 2.5v.1l.5 2.2h-.1l.5 2.1l.2 1.3l.2 1.1l.2 .4l.2 .3l.1 .2l.2 .1c.2 .2 .6 .2 .9 0Z" class="g0_44"/>
<path d="M709.6 475.2l-1.3-1.5c-.3-.4-.7-.5-1.1-.3c-.4 .1-.7 .5-.7 .9v.9l.2 .9l-.1-.1l.1 1.5v-.2l-.3 1.9V479l-.7 2v-.1l-1.2 2.1l.1-.1l-1.5 2.2l.1-.1l-1.9 2l-1.8 2.2l.1-.1l-2.1 1.9h.1l-2.3 1.8l-2.1 1.6l.2-.1l-2 1.1h-.1l-1.9 1.1l.3-.1l-1.5 .6l-1.5 .5l.2-.1l-1.4 .2h.2h-.9h.1l-.9-.2l.6 .2l-.9-.7l.3 .5l-.3-.9l.1 .3l-.1-1.1v.2l.2-1.5v-.1l.2-1.8V490l-.2-2.3v.4l.4-1.7l-.1 .2l.6-1.5l-.9 .8l1.2-.3l1.3-.4h-.8l1.1 .4h.2l1.3 .2l-.5-.2l1 .9l.9 .7l-.2-.2l.7 .9l-.1-.1l.7 1.5l-.1-.2l.3 1V490l.3 1.7v-.2l-.1 1.1l.1-.4l-.4 1.1l-.1 .1l-.3 1l.2-.3l-.6 .7l.4-.3l-.9 .4h.1l-1.2 .5l.4-.1l-1.1 .1l-.2 .1l-1.2 .4l.4-.1l-1.6 .1h.3l-1.3-.2l.3 .1l-1.2-.5l-1.5-.6l-.1-.1l-.8-.2l-.4-.1h-.7l-.5 .1l-1.4 .5l-.2 .1l-1.1 .7l-.1 .1l-1.6 1.1l-1.9 1.4l-.2 .2l-1.5 1.7l-1.5 1.6l-1.2 1.4v.1l-.9 1.1l.5-.4l-.4 .2l-.1 .1l-.4 .2c-.6 .3-.8 1.1-.5 1.7c.3 .6 1.1 .9 1.7 .6c.6-.2 1-1 .8-1.6l-.1-.2l-.4-1v-.1l-.5-1.3v-.1l-.8-1.7v-.1l-1.3-2.3l.1 .2l-.7-2.3v.1l-.6-2.7l-.9-3.3l.1 .1l-.6-3.7v-.2l-1.2-3.8l.1 .1l-.9-3.1l.1 .2l-.4-2.8l-.1-.3l-.7-2.1v.3l-.1-1.5l-.1-.3l-.4-1.4l-.1-.1l-.5-1.2c-.3-.7-1-1-1.7-.8c-.7 .2-1.1 .9-.9 1.6c.1 .7 .8 1.2 1.5 1.1h.4l.2-.1l.3-.1l-1.4-.4l.2 .2l.7 .6l-.3-.4l.2 .4l.1 .1l.5 .8l.2 .2l1.3 1.3l1.5 1.8l-.1-.2l1.4 2.6v-.2l1.1 3.1v-.4l.2 3.6v-.2l-.1 3.9v-.2l-.8 3.6v-.2l-1.2 3.3l-1 3.1l.1-.2l-1.6 2.6l-.2 .2l-1.1 3v-.1l-1.4 2.8l.3-.3l-1.9 1.9h.1l-1.7 1.5l.7-.3l-1.7 .2l-.2 .1l-1.5 .4l1.1 .1l-1-.5h.1l-1.1-.7l.4 .4l-1.1-1.8l.1 .2l-.7-1.7l-.4-.9l-.4-.8l-.1-.1l-1.5-3.1l.1 .3l-.8-3v-.1l-.8-2.3h.1l-.3-.9l-.1-.4l-.7-.9l-.3-.4l-1.1-.8l-.4-.2l-1.6-.5h-.2l-1.5-.4h-.5l-1.2 .2l-1.7 .2c-.3 0-.5 .1-.7 .3l-.9 .8l.1-.1l-1 .7l-.2 .2l-.9 .9l-.3 .4l-.5 1.1l.1-.2l-.6 .7l-.1 .3l-.3 .6c-.1 .4-.1 .8 .1 1.2l.3 .6c.1 .2 .2 .4 .4 .5l.7 .4c.2 .1 .4 .2 .7 .2h1.2l1.5 .1h.2l2-.4l3.4-.5h.1l3.8-.9l4.2-1.2c.6-.1 .9-.7 .8-1.3c-.2-.5-.7-.9-1.3-.7l-4.3 1h.1l-3.8 .7h.1l-3.4 .4l-2.1 .3h.3H634l-1.3-.1l.7 .3l-.6-.5l.4 .5l-.3-.6v1.1l.3-.6l-.1 .2l.6-.8l.1-.2l.5-1l-.2 .3l.9-.9l-.1 .2l1.1-.8l.1-.1l.8-.7l-.8 .3l1.7-.2h.1l1.2-.1l-.5-.1l1.5 .4H640l1.7 .5l-.4-.2l1.1 .8l-.4-.4l.6 .9l-.2-.3l.3 .9l.8 2.3h-.1l.9 3l.1 .2l1.5 3.1l.3 .9h.1l.3 .8l.8 1.7v.2l1.1 1.8l.5 .4l1.1 .7l.1 .1l1 .5c.3 .2 .7 .2 1 .1l1.5-.5l-.2 .1l1.7-.3c.2 0 .5-.2 .7-.3l1.6-1.6l.1-.1l1.9-2l.2-.3l1.3-2.7l.1-.1l1.2-3.1l-.1 .2l1.5-2.6l.2-.2l1-3.2l1.2-3.2l.1-.1l.8-3.6v-.3l.1-3.9v-.1l-.2-3.6l-.1-.3l-1.2-3.1l-.1-.2l-1.5-2.6l-.1-.2l-1.5-1.8h-.1l-1.4-1.4l.2 .2l-.5-.8l.1 .3l-.2-.5l-.2-.4l-.6-.6l.3 .4l-.1-.2c-.3-.6-1-.9-1.6-.7H658h.2l-.4 .1c-.4 0-.8 .3-1.1 .6c-.2 .4-.2 .9 0 1.3l.5 1.2l-.1-.1l.5 1.3l-.1-.2l.2 1.5l.1 .4l.7 2.1v-.3l.3 2.7l.1 .2l.8 3.1v.1l1.2 3.7l-.1-.2l.5 3.7l.1 .1l.8 3.4l.6 2.6l.1 .1l.7 2.3l.1 .3L665 502l-.1-.1l.8 1.7l.5 1.3v-.1l.4 1v.2l.1 .2c.2 .3 .5 .6 .8 .7c.4 .1 .8 0 1.1-.2l.4-.2h-.2l.5-.2l.4-.4l.8-1.1v.1l1.2-1.4h-.1l1.5-1.6l1.6-1.7l-.2 .2l1.9-1.4l1.5-1.1h-.1l1.1-.6l-.2 .1l1.4-.5l-.4 .1h.7l-.4-.1l.8 .3l-.1-.1l1.5 .6l1.2 .5l.3 .1l1.3 .2h.3l1.5-.1l.4-.1l1.1-.4l-.2 .1l1.1-.2l.3-.1l1.1-.5v-.1l.9-.4l.4-.4l.6-.7l.2-.4l.3-1.1v.1l.4-1l.1-.5l.1-1.1l-.1-.3l-.3-1.7v-.1l-.2-1l-.1-.2l-.8-1.6l-.1-.2l-.7-.9l-.2-.2l-.9-.7h.1l-1-.9c-.2-.1-.4-.2-.6-.3l-1.3-.3l.1 .1l-1-.4c-.3-.1-.5-.1-.8 0l-1.2 .3l-1.2 .3c-.4 .1-.7 .4-.9 .8l-.5 1.4l-.1 .2l-.3 1.7l-.1 .3l.2 2.2V490v2.4v-.1l-.2 1.8V494l-.2 1.6v.3l.1 1.1l.1 .3l.3 1c.1 .2 .2 .4 .4 .5l.9 .7l.6 .3l.9 .2h1.3l1.4-.2h.3l1.5-.6v.1l1.5-.6l.2-.1l1.9-1.1h-.1l2-1l.2-.2l2.1-1.6l2.3-1.9h.1l2-2l.1-.1l1.8-2.2l1.8-2l.1-.1l1.4-2.2l.1-.1l1.1-2.2l.1-.2l.6-2l.1-.2l.2-1.9l.1-.1v-1.6l-.1-1v.2v-.8c0-.4-.4-.9-.8-1c-.5-.1-1 .1-1.2 .6c-.2 .4-.1 .9 .3 1.2l1.5 1.3c.4 .3 .8 .3 1.1 0c.4-.3 .4-.8 .1-1.2Z" class="g0_44"/>
<path d="M693 511.8l-2 2.4l-.1 .1l-1.8 2.7l.1-.1l-1.6 2.1l-.1 .2l-1.1 2.1l.2-.3l-1.6 1.6l.5-.3l-2.7 .7l.3-.1h-2.6c-.6 0-1.1 .5-1.1 1.1c0 .5 .5 1 1 1l2.7 .1h.2l2.7-.6c.2 0 .4-.1 .6-.3l1.6-1.5l.3-.3l1.1-2l-.1 .1l1.7-2.1l.1-.1l1.6-2.8l-.1 .1l1.7-2.7c.3-.4 .1-1-.2-1.2c-.4-.3-1-.3-1.3 .1Z" class="g0_44"/>
<path d="M638.4 468.3l-2.8 .4h-.2l-2.7 .8c-.2 .1-.4 .3-.6 .5l-1.1 1.4l-1.2 1.5l-.1 .1l-1.1 1.8l.1-.1l-1.1 1.4l.3-.3l-1.7 .9h.2l-1.9 .6l.3-.1h-2.4h.1l-1.7-.1c-.4 0-.7 .3-.8 .7c0 .4 .3 .8 .7 .8l1.6 .3h.1l2.3 .2l.3-.1l1.9-.4l.2-.1l1.8-.8l.4-.3l1.1-1.4l.1-.1l1.1-1.6l-.1 .1l1.3-1.4l1.3-1.4l-.6 .3l2.6-.9l2.7-.8c.5-.2 .7-.7 .6-1.1c-.1-.5-.5-.9-1-.8Z" class="g0_44"/>
<path d="M605.8 499.3l-.5 .7l1.1-.4l-.4-.1c-.4-.1-.9 .1-1.1 .5c-.3 .4-.2 .9 0 1.2l.1 .2l.3 .2l.6 .4c.2 .1 .4 .1 .6 .1h.5l-.5-.1l.5 .3c.3 .1 .7 .1 1-.1l.4-.2c.3-.2 .4-.4 .5-.7l.4-1.3h-.1l.6-1.8l.1-.2l.5-3.2v.1l.8-3.6l.8-3.7l-.1 .1l1-3.1v.1l1.1-2.6l.7-1.8l-.1 .1l.6-1v.1l.5-.9l-.8 .6l.5-.1h-.7l.4 .1H615l.4 .2l-.3-.3l.5 .5l-.3-.6l.1 .8l.2 .4l.6 1l-.1-.5l.2 1.4v-.3l-.1 1.9l-.2 2.4v-.3l-.6 1.9v.1l-.6 2.5v-.1l-.4 1.8l-.4 1.4v.3l-.1 1.5v-.3l-.2 .9v-.2l-.3 .8l-.4 .6l.1-.1l-.5 .7l-.2 .4l-.2 .6l.1-.2l-.3 .6l.3-.4l-.5 .5l-.6 .5l.4-.2l-.9 .4h-.2l-.9 .6l-.2 .1l-.8 .7l-.7 .7h-.1l-.5 .6l.5-.4l-.5 .2c-.2 .1-.4 .2-.6 .4l-.2 .3l-.2 .3l-.3 .7l-.1 .2l-.1 .7v-.1l-.2 .9l1-1l-.8 .2c-.3 .1-.5 .2-.7 .4l-.8 .8l-.1 .1l-.9 1.2l.1-.2l-1.1 1.1l-.1 .1l-1 1.3l.4-.4l-1.1 .7l.2-.1l-1 .4c-.3 .1-.5 .3-.7 .6l-.4 .8l-.1 .3l-.3 1.2v.2l-.1 .9v.2l.1 1.1l.2-.8l-.4 .8l-.2 .2l-.2 .8l.1-.3l-.6 .8h.1l-.7 .8l-.5 .6l.2-.1l-.9 .7V519l-.9 .7l.4-.2l-1.4 .2h.1l-1.4 .1c-.4 .1-.7 .4-.7 .8c0 .4 .3 .7 .8 .7l1.3 .1h1.4l.4-.1l1-.5h.1l1-.6l.2-.2l.6-.5l.1-.1l.7-.8h.1l.6-.8l.2-.3l.3-.7l-.1 .2l.5-.8c.2-.2 .2-.5 .2-.8l-.1-1.1v.2l.1-.9v.2l.3-1.2l-.2 .3l.5-.8l-.7 .6l1-.4l.2-.1l1-.6l.4-.3l1-1.2l-.1 .1l1.1-1l.1-.2l.9-1.2l-.1 .2l.8-.9l-.7 .4l.9-.2c.5-.1 .8-.5 1-.9l.2-.9v-.1l.1-.7l-.1 .3l.3-.6l-.2 .3l.3-.3l-.6 .4l.5-.1l.5-.4l.5-.5l.7-.6l.7-.7l-.1 .2l.9-.6l-.2 .1l.9-.4l.4-.3l.6-.5l.5-.6l.3-.3l.2-.6l.1-.2l.2-.6l-.2 .4l.5-.7v-.1l.4-.7v-.1l.4-.8l.1-.2l.3-.9v-.3l.1-1.5v.3l.3-1.5h.1l.4-1.8l.5-2.4v.1l.6-2l.1-.3l.1-2.3v-.1l.1-1.9v-.2l-.2-1.4l-.2-.4l-.7-1l.2 .4l-.2-.8c0-.2-.1-.4-.3-.6l-.5-.5l-.2-.2l-.5-.3H616l-.4-.2c-.2-.1-.4-.2-.7-.2l-.5 .1c-.4 .1-.7 .3-.9 .6l-.6 .8v.1l-.6 1l-.1 .2l-.7 1.8l-1.1 2.6v.1l-1 3.1l-.1 .1l-.7 3.7v.1l-.7 3.6v.1l-.4 3.2v-.2l-.4 1.9v.1l-.3 1.4l.4-.7l-.4 .4l1.1-.2l-.5-.2l-.4-.1h-.5l.6 .2l-.6-.4l.3 .3l-.1-.2c-.2-.4-.8-.6-1.3-.4c-.6 .2-.8 .8-.6 1.3c.1 .5 .7 .9 1.2 .7h.4c.4-.1 .7-.5 .7-.9l.2-.9c0-.3-.2-.7-.5-.8c-.4-.2-.7 0-1 .3Z" class="g0_44"/>
<path d="M623.3 505.2l-.9-.2c-.3-.1-.5-.1-.8 .1c-.2 .1-.4 .3-.4 .6l-.2 .7l.5-.6l-.7 .3l-.4 .5l-.2 .5c-.2 .3-.2 .6 0 .9l.4 1l-.1-.5v.4c0 .3 .2 .6 .4 .8l.4 .3c.4 .3 1 .2 1.4-.1c.3-.4 .4-.9 .1-1.3l-.2-.4l.1 .6l-.7 .9l.7-.1c.5-.1 .8-.6 .7-1.1c-.1-.5-.6-.9-1.1-.8l-.7 .1h.1c-.4 0-.7 .2-.8 .5c-.2 .3-.2 .7-.1 1l.2 .3c.2 .4 .6 .6 1.1 .6c.4-.1 .7-.4 .8-.8c.2-.4 0-.8-.3-1.1l-.4-.3l.4 .9v-.4l-.1-.5l-.5-.9v.9l.3-.5l-.4 .4l.6-.4c.3-.2 .5-.4 .5-.8l.1-.7l-.9 .9l1-.1c.3-.1 .6-.4 .7-.7c0-.4-.2-.8-.6-.9Z" class="g0_44"/>
<path d="M581.6 466.1l-.3-.3c-.3-.3-.7-.3-1.1-.1c-.4 .2-.5 .6-.4 1l.2 .8v.2l.4 .6v.1l.8 1.3v-.2l.6 1.5h-.1l.5 1.4l.4 1.4l.1 .1l.8 1.7l.7 1.4l.1 .2l1.2 1.8h.1l1.3 1.8v.1l1.5 1.8l1.7 2v.1l1.6 1.8l-.1-.1l1.2 1.8v-.1l.9 2.2c.3 .5 .8 .7 1.3 .5c.5-.2 .7-.8 .5-1.3l-.9-2.2l-.1-.1l-1.1-1.9l-.1-.2l-1.5-1.8l-1.7-2.1l-1.6-1.8h.1l-1.4-1.7L586 476l.1 .1l-.8-1.4l-.9-1.7l.1 .2l-.5-1.4l-.5-1.4l-.6-1.6l-.1-.1l-.8-1.3l.1 .1l-.3-.7v.1l-.2-.7c-.2-.5-.7-.7-1.2-.6c-.4 .1-.7 .6-.6 1.1c0 .4 .5 .8 1 .7h.4c.2-.1 .5-.3 .6-.5c.1-.3 0-.6-.2-.8Z" class="g0_44"/>
<path d="M577 497.3l-2.3 1.7c-.3 .3-.4 .8-.2 1.2c.3 .4 .8 .5 1.2 .3l.1-.1c.5-.3 .6-.9 .3-1.3l-.1-.2l.1 .8l.1-.3l-.4 .6l.7-.4c.2-.1 .3-.3 .4-.5l.2-.6l.1-.1l.2-.8v.1l.2-.8l-.2 .4l.6-.7l.2-.3l.3-.7l-.1 .2l.4-.6h-.1l.3-.3v-.1l.2-.2l-1 .5h.9H579l.4 .1l-.5-.2l.5 .4l.4 .3l-.3-.5l.1 .5l.3 .9v-.4l-.2 1.2v.1l-.1 1.4l.1-.3l-.8 1.9l-.1 .1l-.6 2.1v.1l-.8 2.5l.3-.4l-2 2.4l-2.2 2.6l.1-.1l-2.5 2.3l.2-.2l-3.1 1.8l-2.7 1.6l.2-.1l-2.9 1.1h.2l-2.8 .7h.3l-2.6 .1h-2.4h.3l-1.9-.4l.3 .1l-1.5-.8l.4 .3l-1.1-1.2l.1 .3l-.9-1.8l.1 .2l-.7-1.7l.1 .2l-.5-2.1v.2l-.2-2.5l-.1-2.1l-.1-2.7v.1v-2.4l-.1 .1l.3-2c.1-.5-.3-1-.8-1c-.5-.1-1 .2-1.1 .7l-.3 2v.1l-.2 2.4l-.1 2.7v.1l.1 2.1v.1l.2 2.5v.2l.5 2v.2l.6 1.6l.1 .2l1 1.7l.1 .3l1.1 1.2l.4 .3l1.5 .7l.3 .1l1.8 .5H558l2.6-.2h.3l2.7-.8h.1l2.9-1.1l.2-.1l2.6-1.6l3.1-1.8l.2-.2l2.5-2.3l.1-.1l2.2-2.6l2-2.4l.2-.5l.6-2.5l.7-2.1l-.1 .1l.8-2l.1-.3l.1-1.5v.1l.1-1.3V496l-.3-.9l-.1-.5l-.3-.5l-.4-.4h-.1l-.5-.5l-.4-.2l-.4-.1l-.2-.1l-.9-.1c-.4 0-.8 .2-1 .5l-.2 .2l-.3 .4l-.1 .1l-.4 .7l-.1 .2l-.2 .8l.2-.4l-.5 .8l-.2 .4l-.2 .7v.1l-.2 .8l.1-.2l-.2 .6l.4-.5l-.7 .4c-.2 .1-.4 .3-.5 .5l-.1 .3c-.1 .3 0 .7 .2 1l.2 .1l-.2-.2c.2 .3 .4 .5 .7 .6c.3 0 .6 0 .8-.3l2-1.9c.3-.3 .3-.7 .1-1c-.3-.2-.7-.3-1-.1Z" class="g0_44"/>
<path d="M566.8 475.9l-.3 .2c-.3 .2-.4 .4-.5 .6l-.1 .3l-.3 .9c-.1 .2-.1 .4-.1 .7l.2 1l.1 .1l.1 .5l.1 .1l.3 .8c.1 .3 .3 .6 .6 .8l.6 .3c.5 .2 1.1 .2 1.5-.1c.4-.3 .6-.9 .6-1.4c-.1-.5-.5-.9-1-1.1l-.6-.2l.6 .4l-.6-.7l.2 .4l-.1-.6v.2l-.2-1v.4l.1-.9v-.4l-.2 .5l.3-.3c.3-.4 .3-.9-.1-1.3c-.3-.3-.8-.4-1.2-.2Z" class="g0_44"/>
<path d="M704.7 521.6l4.9-1.4l.3-.3l.6-.7l.1-.3l.4-1.1v.1l.4-1.1l-.2 .3l.5-.5l-.2 .1l.4-.2h-1.4l.4 .2h-.1l1 .8l-.1-.1l2.6 2.7l-.1-.1l1.4 1.8l-.1-.1l1.8 2.9l-.1-.2l1.5 3.9v-.1l1.5 4.6v-.1l1.1 5.1l1.1 5.8l1.3 5.8l1.4 5.7l1.5 5.3l1.1 4.2l1.1 3.7l.5 2.5v.1l.8 2.5l.1 .2l.7 1.4l.7 1.2l.1 .1l.5 .6l.4 .4h.1c.4 .2 .9 .2 1.3 0l.3-.1l.4-.3l.3-.4l.2-.3l.4-.9l.1-.1l.5-1.3l.1-.2l.5-1.9v-.1l.3-2.5l.3-2.7l.3-2.1l.4-2.2v.1l.7-1.9l.5-1.9l.6-1.7v.1l.4-1.1v.1l.5-.9l-.4 .4l.3-.1c.4-.2 .6-.6 .6-1.1l-.1-.4c0-.4-.2-.8-.6-1c-.3-.2-.8-.2-1.1 .1c-.4 .2-.6 .6-.6 1l.1 .4v-.5l-.3 1.1l-.1 .1l-.4 1.9v-.1l-.7 2.6v-.1l-1.3 3.2l-1.2 3.3l-1.3 3.7v.1l-1.1 3.8l-1 3.2v-.1l-1 2.8l-.6 1.9v-.1l-.6 1.4v.1l-.4 1l.3-.5l-.5 .6l.6-.5l-.5 .3l.5-.2l-.6 .1l.7 .1l-1.3-.5H728l-1.5-.4l.1 .1l-1.7-.6l-2-.8h.1l-2-.8l.3 .1l-1.8-1.1l.2 .1l-1.8-1.5l.1 .1l-1.4-1.3l.3 .3l-.6-1v.2l-.5-1.3l-.1-.1l-.2-.5l.1 .3l-.2-.6v.4l.1-.7c0-.6-.3-1-.8-1.1c-.5-.1-1 .2-1.2 .7l-.2 .7l-.1 .6l-.1 .5l.1 .5v.3l.4 1.3l.1 .2l.6 1.1l.2 .4l1.3 1.3l.1 .1l1.6 1.5l.2 .2l1.8 1.2l.2 .1l1.9 .9h.1l2 .8h.1l1.8 .6l.2 .1l1.5 .3h-.1l1.3 .4c.3 .1 .5 .1 .8 .1l.6-.2l.5-.2l.5-.3c.2-.1 .4-.2 .5-.4l.4-.6l.2-.4l.3-1v.1l.6-1.5v-.1l.6-1.9l.9-2.8v-.1l.8-3.2l1.1-3.7l1.2-3.8l1.1-3.3l-.1 .1l1.3-3.2l.1-.1l.6-2.6v-.1l.5-1.9l-.1 .1l.4-1.1V554l-.1-.4c-.1-.6-.7-1-1.3-.9c-.6 .1-1.1 .7-.9 1.3v.5l.4-1.1l-.2 .2l-.3 .3l-.5 .9l-.1 .2l-.4 1.1v.1l-.6 1.6v.1l-.6 1.9l.1-.1l-.7 1.9l-.1 .2l-.4 2.2l-.4 2.1v.1l-.3 2.7l-.4 2.4v-.1l-.6 1.9l.1-.2l-.6 1.3v-.1l-.5 .9l.3-.3l-.4 .3l.5-.2l-.3 .1l1.2 .2l-.1-.1l.2 .2l-.4-.6v.1l-.7-1.1l.1 .1l-.7-1.3l.1 .2l-.7-2.5v.1l-.6-2.5v-.1l-1.1-3.8v.1l-1.1-4.2l-1.5-5.3v.1l-1.5-5.7l-1.4-5.8l.1 .1l-1.2-5.8l-1.2-5.1v-.1l-1.6-4.6v-.1l-1.6-3.8l-.1-.2l-1.7-2.9l-.1-.1l-1.5-1.8v-.1l-2.6-2.7l-.1-.1l-.9-.7h-.1l-.3-.3c-.3-.2-.7-.3-1.1-.1c-.3 .1-.6 .4-.7 .7l-.1 .4l.2-.3l-.4 .4l-.2 .3l-.4 1.1v.1l-.3 1.1v-.1l-.3 .9l.5-.5l-4.7 1.8c-.3 .1-.5 .4-.4 .7c.1 .4 .4 .5 .7 .4Z" class="g0_44"/>
<path d="M794.8 585.4l4.2-1.1l-1.1-.7l.1 1v.1l.4 1.3l.6 2.3h-.1l.6 2.6l.7 3.3l1 3.3v.1l1 3l.1 .2l1.6 3.4l-.1-.3l.5 2.1l-.1-.1l.3 2v.3l.8 2.2l-.1-.2l.3 1.6l.2 .5l1 1.5l.2 .2l.6 .5l.1 .1l.7 .5l1.1 .7c.4 .3 1 .2 1.3-.3c.3-.4 .2-1-.2-1.3l-.9-.8l.2 .2l-.5-.7l-.1-.1l-.5-.6l.1 .2l-.9-1.5l.2 .5l-.3-1.6v-.2l-.8-2.2v.3l-.2-2.1v-.1l-.5-2.1l-.1-.3l-1.7-3.4v.2l-1-3.1l-1.1-3.2h.1l-.8-3.3l-.6-2.5l-.6-2.3v-.1l-.5-1.3V584l-.5-.9c-.2-.4-.6-.6-1.1-.5l-4 1.5c-.4 .1-.6 .5-.4 .9c.1 .3 .4 .5 .8 .4Z" class="g0_44"/>
<path d="M820.2 594l-.3-.6c-.3-.3-.6-.5-1-.4c-.4 0-.8 .2-1 .5l-.2 .2l.3-.3l-1.3 1l-3.4 2.5l.2-.1l-2.8 1.5l-.1 .1l-2.8 1.8l-3.2 2h.1l-3.2 1.9l-3 2l-3.2 2.3v.1l-2.7 2.2l.1-.1l-2.9 1.8h.1l-2.5 1.5l.3-.1l-2.6 .7h.2l-2.4 .2h.1l-2-.1l.1 .1l-2-.4l.2 .1l-1.5-.4l-.1-.1l-.9-.1l.4 .1l-.7-.4l.5 .5l-.6-1l.1 .2l-.5-1l.1 .2l-.4-1.7l-.3-1.5v.2l-.1-1.3v.2l.2-1l.1-.5v-1c-.1-.6-.6-1-1.1-1l-.3-.1l-.3 .1h-.5l-.4 .1l-.2 .1l-.8 .3h-.2l-1.1 .6h-.1l-1.1 .7h.1l-1.6 .8l-.3 .2l-1.4 1.3l-.3 .3l-.7 1.3l-.9 1.5l-.1 .1l-.7 1.4v.2l-.5 1.5l.1-.2l-.8 1.5v.1l-.7 1.7l-.1 .5V621v-.4l-.4 1.6l-.4 1.6l.1-.3l-.5 1.2l.2-.3l-.8 .9l-.3 .5l-.2 1.2v.1l-.3 1.2l-.2 1.2l.1-.2l-.6 1.1l.3-.3l-.9 .9l.2-.2l-1.1 .7l-1.2 .6l.3-.1l-.9 .3h.7l-1.2-.4l-1-.4l.6 .5l-.9-1.7c-.2-.5-.8-.7-1.3-.4c-.5 .2-.7 .8-.4 1.3l.7 1.7l.5 .5l.9 .5l1.1 .6c.3 .1 .5 .2 .8 .1l1-.1l.3-.2l1.2-.5l.1-.1l1.1-.6l.3-.2l1-1l.2-.4l.5-1.2l.1-.2l.3-1.3l.2-1.3v.1l.3-1.2l-.3 .6l.8-.9l.2-.4l.5-1.1l.1-.3l.3-1.5v.1l.4-1.6l.1-.3v-2.2l-.1 .5l.7-1.7l-.1 .1l.8-1.5l.1-.3l.5-1.4l-.1 .1l.7-1.4l-.1 .1l.9-1.5l.8-1.3l-.3 .3l1.4-1.3l-.3 .2l1.6-.8l.1-.1l1.1-.7l-.1 .1l1.1-.5h-.1l.9-.3l-.1 .1l.3-.1l.5-.1h-.2h.3l-1.1-.4l.1 .1l-.4-.8l.1 .4v-.2l-.1 .5l-.2 1.1v.2l.1 1.3v.1l.3 1.6v.1l.4 1.7l.1 .2l.4 1v.1l.6 1l.4 .4l.7 .4l.4 .2l.8 .2l1.4 .4h.2l2 .3l.2 .1h2.2l2.5-.2l.2-.1l2.6-.7l.3-.2l2.5-1.5l2.9-1.8l.1-.1l2.7-2.3l-.1 .1l3.2-2.2l3-2h-.1l3.1-1.9h.1l3.1-2l2.8-1.8l2.7-1.5l.2-.1l3.4-2.5l1.3-1l.4-.5l.1-.2l-.2 .3l.3-.6c0-.2 0-.3 0-.5Z" class="g0_44"/>
<path d="M770.5 585.5l-.8 .8l-1.2 1.1l-.1 .2l-1.8 2.4l.3-.2l-2.6 2.1l-.2 .1l-2.1 2.5l.1-.1l-2.2 2.4l.3-.3l-2.4 1.5l-.2 .2l-1.4 1.3l.4-.3l-2 .8l.3-.1l-1.6 .2c-.5 0-1 .6-.9 1.2c0 .6 .5 1 1.1 1l1.6-.1h.2l2.1-.5l.5-.3l1.5-1.2l-.2 .1l2.4-1.5l.3-.2l2.1-2.4h.1l2-2.4l-.1 .1l2.6-2.1l.2-.2l1.7-2.5l-.1 .2l1.1-1.1l.1-.1l.7-.7c.5-.6 .5-1.4 0-1.8c-.5-.6-1.3-.6-1.8-.1Z" class="g0_44"/>
<path d="M734.5 624.8l-.1 .8l.6-.7h-.2l-.1 .1h-.2c-.6 .2-.9 .9-.7 1.5c.2 .6 .8 .9 1.4 .8c.6-.2 1-.8 .9-1.4v-.1c-.2-.6-.7-1-1.4-.9c-.6 .1-1 .7-.9 1.3c.1 .6 .6 1.1 1.2 1h.3c.5 0 1-.5 1-1.1V626l-.1 .5l-.1 .2l.3-.4l.2-.5l.2-1.3l-.2 .4l1.9-3.5l.1-.2l.7-2.3l.8-2.3l.6-1.9l-.4 .6l1-.8c.1-.2 .3-.3 .4-.5l.3-1.1l-1.5 .8l.8 .3l-.3-.2l1 .7l-.4-.7l.2 1.2l.6 2.3V617l-.1 2.5v-.2l-.6 2.5l-.6 2.8l.1-.1l-.8 2.8l.1-.2l-1.3 2.4l-1.2 2.4l.1-.1l-1.3 2l-.1 .1l-1.1 2l-.1 .1l-.6 1.3l.1-.2l-.5 .7c-.3 .5-.2 1.1 .3 1.5c.4 .3 1 .2 1.4-.2l.5-.7h.1l.8-1.2l.1-.1l1.1-2v.1l1.3-2l.1-.2l1.2-2.4l1.2-2.4l.1-.3l.7-2.8V625l.6-2.8l-.1 .1l.6-2.6v-.2l.1-2.4l-.1-.3l-.5-2.3v.1l-.2-1.2c0-.3-.2-.6-.4-.7l-.9-.8l-.3-.1l-.8-.4c-.3-.2-.6-.2-.9-.1c-.4 .1-.6 .3-.8 .6l-.4 1l.4-.5l-1.1 .8c-.2 .2-.3 .4-.4 .6l-.7 1.9v.1l-.7 2.3l-.7 2.3l.1-.2l-1.8 3.5l-.2 .5v1.3l.1-.4l-.2 .4c-.2 .4-.1 .7 0 1l-.1-.5v.1c0 .6 .5 1.1 1.1 1.1c.6 0 1.2-.4 1.2-1.1c0-.6-.4-1.1-1-1.2H735c-.6 0-1.1 .4-1.2 .9v.1c-.1 .5 .1 1.1 .6 1.3c.6 .2 1.1 .1 1.5-.4l.1-.2c.2-.2 .3-.5 .2-.8v-.2l-.1-.2l-.3-.7c-.1-.3-.4-.5-.7-.5c-.3 .1-.5 .3-.6 .6Z" class="g0_44"/>
<path d="M719.6 629.7l-.5-.4l.2 .2l-.9-1.2l.2 .3l-.5-1.2v.1l-.5-1.6l.1 .4l.1-1.5l-.1 .3l.4-1.3v.1l.5-1.3l-.2 .2l.9-1.3l-.2 .2l.9-1.1h.1l.8-1l-.2 .2l1-.7h-.1l.8-.5l.5-.3l-.7 .2h.6l-.9-.3l.5 .4l-.3-.3l.4 .7l-.1-.1l.6 1.2l.1 .2l.9 1.4l-.2-.4l.3 1.6v-.3v1.3v-.2l-.3 1.3l.2-.5l-.6 1.1l-.1 .1l-.6 1.2l.1-.1l-.7 1l.1-.1l-1 1.3l.5-.4l-1.7 .9l.3-.2l-1.8 .5l-.3 .1l-1.5 .8l.5-.2l-1.7 .2h.1l-1.1 .1h-.2l-.7 .1l-.6 .2l1.1 .2l-.3-.2c-.4-.3-.9-.4-1.4-.2c-.4 .2-.7 .6-.8 1.1l-.1 .4v.8l-.1 .9l-.1 1.3v-.2l-.2 1.1l.1-.3l-.5 1.2l.2-.3l-.8 .9l.2-.2l-1.1 .9l.1-.1l-1.5 .9l.3-.1l-1.3 .5h.2l-1.4 .3h.5l-2-.3l.4 .1l-1.9-1.2l.1 .1l-1.8-1.2l.2 .1l-1.3-1.2l.3 .5l-.4-1.1l-.2-.7l-.2-.6l-.1-.3l-.3-.5c-.4-.6-1.1-.8-1.7-.6c-.6 .2-1 .8-.9 1.5c0 .6 .6 1.1 1.2 1.2h.1c.4 0 .9-.2 1.2-.5c.3-.4 .4-.9 .2-1.3v-.1c-.2-.8-1-1.2-1.7-1c-.8 .2-1.2 1-1 1.7v.2l.9-1.7v.1c-.5 .1-.8 .6-.9 1.1l-.2 1.2v-.1l-.7 3.5l-.4 2.3l.1-.1l-.6 2.3v-.1l-.7 2h.1l-.9 2.3l.1-.2l-1.2 2.1l-1.4 2.5l.1-.1l-2 2.7l.2-.3l-2.7 2.3l.1-.1l-2.9 2.1l.3-.2l-3.7 1.3h.1l-3.5 .9l.2-.1l-3.2 .2h.1l-2.9 .1l.4 .1l-2.1-.4l.4 .1l-1.5-.8l.2 .2l-1.6-1.5l.2 .3l-1-1.5l.2 .3l-.6-1.8l-.1-.2l-.8-1.9l.1 .6v-1.7l-.1-.4l-.5-1.9l.1 .4V649l-.1 .3l.5-1.6l-.1 .3l1.2-1.8l-.2 .2l2.1-2l-.2 .1l2.3-1.5c.6-.4 .7-1.1 .4-1.7c-.4-.5-1.1-.7-1.6-.3l-2.4 1.4l-.2 .2l-2.2 1.9l-.2 .2l-1.3 1.8l-.2 .4l-.5 1.6l-.1 .4v2.2l.5 1.9v-.5l-.1 1.7c0 .2 0 .5 .1 .7l.9 1.9l-.1-.2l.6 1.9l.2 .4l1 1.5l.2 .3l1.7 1.5l.3 .2l1.5 .8l.5 .1l2 .4h.4l2.8-.1l3.2-.2l.3-.1l3.5-.9h.1l3.8-1.3l.3-.2l3-2.1v-.1l2.7-2.2l.2-.3l2-2.7l.1-.1l1.4-2.6h.1l1.1-2.1l.1-.2l.8-2.2v-.1l.7-2.1l.1-.1l.5-2.2v-.1l.4-2.4v.1l.7-3.5v-.1l.2-1.2c.1-.7-.3-1.4-1-1.5c-.8-.2-1.5 .3-1.7 .9c-.2 .7 .2 1.5 .9 1.7c.5 .2 1 .1 1.4-.2c.4-.4 .6-.9 .5-1.4l-.1-.1c-.1-.6-.5-.9-1-1.1c-.5-.1-1 0-1.4 .4c-.3 .4-.4 .9-.3 1.4l.1 .2c.2 .6 .9 1 1.6 .8c.7-.1 1.2-.8 1.1-1.5c-.2-.8-.8-1.2-1.5-1.2h-.1c-.4 .1-.9 .3-1.1 .8c-.2 .4-.2 .9 .1 1.3l.3 .5l-.2-.2l.3 .6v.1l.2 .6l.4 1.1c.1 .2 .2 .4 .4 .6l1.3 1.2l.2 .2l1.7 1.1l.1 .1l1.9 1.1l.5 .2l2.1 .4l.5-.1l1.4-.3l.2-.1l1.2-.4l.3-.1l1.4-1h.1l1.2-.9l.2-.3l.8-.9l.2-.4l.5-1.1v-.3l.2-1.1l.1-.1l.1-1.3v.1l.1-1l-.1 .1l.1-.6l.1-.4c.2-.7-.2-1.4-.9-1.6c-.6-.2-1.3 0-1.6 .7c-.3 .5-.2 1.3 .4 1.7l.3 .2c.3 .2 .7 .3 1.1 .3l.6-.2l.6-.1h-.2h1.2l1.7-.3l.5-.1l1.4-.7l-.3 .1l1.9-.5l.3-.1l1.6-.9l.5-.4l.9-1.2l.2-.2l.6-1.1V628l.6-1.2l-.1 .1l.6-1.1l.2-.4l.2-1.3v-1.5l-.1-.2l-.3-1.6l-.2-.4l-.9-1.4l.1 .2l-.5-1.2h-.1l-.3-.8l-.3-.3l-.5-.5c-.2-.2-.4-.4-.7-.4h-.6c-.2 0-.4 0-.6 .1l-.6 .3l-.8 .5l-1 .7l-.3 .3l-.9 1l-.9 1l-.1 .2l-.8 1.3l-.1 .2l-.6 1.4l-.4 1.3l-.1 .3l-.1 1.6l.1 .5l.4 1.6l.1 .2l.5 1.2l.4 .5l1 .9c.3 .2 .6 .4 1 .3h.6c.4-.1 .8-.4 .9-.7c.1-.4 0-.8-.3-1Z" class="g0_44"/>
<path d="M730.1 647.5l-.2 1.3l.3-.6l-.4 .4l-.3 .2l-.4 .7l.7-.5l-.5 .1l.3-.1l-.5 .1l.9 .4l-.5-.6c-.3-.5-1-.6-1.4-.3c-.5 .3-.6 1-.4 1.5l.4 .6c.2 .2 .4 .4 .6 .5l.5 .2h1c.5 0 .9-.4 1.1-.8l.3-.7v-.2l.1-.6v-.4l-.2-1.2c-.1-.4-.4-.6-.7-.6c-.4 0-.7 .3-.7 .6Z" class="g0_44"/>
<path d="M715.9 661.4l-1.9 2.4l.2-.2l-2.3 2l.1-.1l-2.5 1.6h.1l-2.5 1.3l-2.4 1.3l.3-.1l-2.9 .7l-2.5 .7h.4l-2.3-.2l.5 .2l-2.5-1.6c-.5-.3-1.1-.1-1.4 .3c-.3 .5-.2 1.1 .2 1.4l2.4 1.8l.6 .2l2.3 .2h.3l2.6-.4l2.9-.6l.3-.1l2.5-1.2l.1-.1l2.5-1.4l.1-.1l2.4-1.7l.2-.1l2.1-2.1l.3-.4l1.4-2.7c.2-.4 .1-.9-.3-1.2c-.4-.3-1-.2-1.3 .2Z" class="g0_44"/>
<path d="M680.7 622.7l-.4-.4l-.2-.1l-.9-.5l-.3-.2c-.4-.2-.8-.2-1.3-.1l-.4 .1c-.5 .2-.8 .6-.9 1.1c-.2 .6 0 1.1 .4 1.5l-.1-.2l.1 .2c.2 .2 .4 .4 .6 .5l.4 .1c.2 .1 .5 .1 .8 0l.4-.1h-.7l.5 .2c.5 .1 1.1-.2 1.3-.7c.2-.6 0-1.2-.6-1.4l-.4-.2l-.1-.1l-.4-.1l.6 .4l-.2-.3l.3 .9V623l-.5 1.1h.1l-.6 .3l.4-.1h-.9l.3 .1h.4l1.1 .1l.4-.1l.5-.2c.3-.1 .6-.3 .6-.6c.1-.3 0-.7-.3-.9Z" class="g0_44"/>
<path d="M817.9 641l-.7 .7l-.2 .2l-.7 1.1l-.2 .4l-.3 1.5V647l.8 2l1 2.7l.1 .1l1.6 3.5v-.2l1 3.1l.1 .3l2.2 3.5l-.1-.2l1.4 3.1l.8 2l.1 .1l1.2 2.2l1.2 1.8l.1 .1l1.6 1.7c.3 .4 .8 .4 1.2 .1c.4-.3 .4-.9 .1-1.3l-1.5-1.7l.2 .2l-.8-2H828l-1-2.2v.1l-.7-2.1l-1.4-3.1l-.1-.2l-2.1-3.5l.1 .2l-1-3l-.1-.2l-1.6-3.5v.1l-1-2.6l-.8-2l.1 .4v-1.4v.2l.1-1.5v.3l.4-1.2l.4-1c.2-.3 0-.8-.3-1c-.3-.2-.8-.2-1.1 .1Z" class="g0_44"/>
<path d="M835.5 646.3l-.7 1.1l-.6 1.1l-1.7 2.8l-1.9 3.2v-.1l-2.5 3.6l.1-.1l-2.9 3.4l.2-.2l-3.9 3.1h.1l-3.9 3l.2-.1l-4.5 2.8v.1l-4.3 3h.1l-4 2.4h.1l-4.1 2.3l-3.7 2h.1l-3.7 1.7h-.1L791 683l.1-.1l-2.7 1.3l-.1 .1l-1.8 .9h.1l-1.3 .7l.2-.1l-1.2 .4l-.2 .1l-.5 .3l.7-.2h-.8c-.2 0-.5 .1-.7 .2l-.5 .3c-.3 .3-.5 .6-.6 1v.3c-.1 .7 .3 1.4 1.1 1.6c.7 .1 1.5-.4 1.6-1.1c.2-.8-.3-1.5-1-1.7h-.3l.6 .3l-.2-.2l.1 .1l-.5-.6l.1 .1l-.6-.8l.1 .2l-.3-.7v.1l-.3-.6l-.3-.3l-.4-.4l-.5-.4l-.6-.2h-.2l-.9-.2h-.5l-1.1 .2l-.4 .2l-.9 .6l-.2 .1l-1.1 .8l-.1 .1l-1.1 1l-.2 .2l-.9 1.3l-.9 1.4l-.1 .2l-.7 1.6v.1l-.6 1.8v-.1l-.6 1.6l-.6 1.6l.1-.2l-1 1.5l-.1 .3l-.8 1.8l.1-.1l-1.2 2v.1l-1 1.9v.1l-.9 1.9l.3-.4l-1.6 1.6l-1.2 1.4l-1.3 1.3l.1-.1l-1.5 1.2l-.1 .1l-1.1 1.1l.1-.1l-1 .9l.3-.2l-1.3 .6l.4-.1l-1.2 .2h.3l-1.3-.1l.5 .2l-1.2-1.1c-.4-.3-1-.3-1.3 .1c-.4 .3-.4 .9 0 1.3l1.2 1.1l.4 .3l1.2 .4h2l1.4-.6l.3-.1l1-.8l.1-.1l1.1-1.1l-.1 .1l1.5-1.3l.1-.1l1.3-1.3l1.3-1.4l-.1 .1l1.6-1.6l.2-.4l.9-1.9l1-1.9l1.1-2l.1-.2l.7-1.9l-.1 .3l1-1.6l.1-.2l.7-1.6l.6-1.6l.6-1.8v.1l.7-1.7l-.2 .3l.9-1.4l.9-1.2l-.2 .2l1.2-1h-.1l1.1-.8l-.2 .1l1-.5l-.4 .1l1-.2h-.5l.9 .2l-.3-.1l.6 .3l-.5-.4l.5 .5l-.3-.4l.3 .6l.4 .6l.1 .2l.5 .8h.1l.5 .7l.2 .1l.2 .2c.2 .2 .5 .3 .7 .3l.2 .1c.4 0 .8-.1 1.1-.3c.3-.2 .5-.6 .5-.9l.1-.3l-.6 .9l.4-.3l-.8 .3h.8c.2 0 .5-.1 .7-.2l.5-.3l-.3 .1l1.2-.4l.1-.1l1.3-.6h.1l1.7-1v.1l2.7-1.3l.1-.1l2.8-1.5h-.1l3.8-1.7h.1l3.6-2h.1l4-2.4h.1l4-2.5h.1l4.2-3.1l-.1 .1l4.4-2.8l.2-.1l3.7-3.1h.1l3.8-3.1l.1-.2l2.9-3.4l.1-.1l2.5-3.6v-.1l1.9-3.2l1.6-2.9l.6-1.1l.1-.1l.6-1.1c.2-.6 0-1.3-.6-1.6c-.5-.3-1.2-.1-1.5 .5Z" class="g0_44"/>
<path d="M769.1 663.7l-.2 .5l.2-.3l-.4 .4l.3-.3l-.8 .6l-.3 .3l-.8 1l.3-.3l-1.3 .9l-.1 .1l-1.6 1.4l.1-.1l-1.7 1.4v-.1l-2.3 1.5l.2-.1l-2.6 1.2l.2-.1l-2.9 .9l-.1 .1l-2.5 1l.2-.1l-2.2 .2h.3l-3.2-.6c-.3-.1-.6 .1-.7 .4c-.1 .3 .1 .6 .4 .8l2.9 1.2l.4 .1l2.2-.1h.3l2.7-.7H756l3-.6l.2-.1l2.6-1.1l.2-.1l2.3-1.4l.1-.1l1.8-1.3l.1-.1l1.6-1.4l-.1 .1l1.3-.9l.3-.3l.8-1.1l-.2 .1l.7-.7c.3-.3 .4-.7 .3-1.1l-.1-.5l-.1-.4l-.4-.4c-.1-.3-.4-.4-.7-.4c-.3 .1-.6 .3-.6 .6Z" class="g0_44"/>
<path d="M730.9 662.2l-.7 1.5v.1l-.5 1.8v2.7l.4 2.5l.1 .1l1 3.1l1.1 3.2l.1 .1l1.7 3.5v.1l1.7 3.3l.2 .2l2.4 2.9l-.1-.2l1.5 2.5l.1 .1l1.9 2.5c.5 .5 1.3 .6 1.9 .2c.6-.5 .7-1.3 .2-1.9L742 688l.1 .2l-1.5-2.5l-.1-.2l-2.5-2.8l.2 .2l-1.8-3.3v.1l-1.8-3.5l.1 .1l-1.2-3.1h.1l-1.1-3.1v.2l-.4-2.4v.1l-.1-2.1v.2l.2-1.9l.2-1.6c0-.4-.2-.8-.6-.9c-.4-.1-.8 .1-.9 .5Z" class="g0_44"/>
<path d="M743.9 694.5l1.1 2.4c.3 .7 1.1 .9 1.7 .6c.6-.3 .9-1 .6-1.7l-1.1-2.4c-.2-.4-.6-.7-1.1-.7c-.4 0-.9 .2-1.1 .5c-.3 .4-.3 .9-.1 1.3Z" class="g0_44"/>
<path d="M718.7 709.5l.8 .5l-.2-.1l.5 .5l-.1-.2l.1 .3c.2 .2 .4 .3 .6 .4l.7 .3H721l.6 .3h.1l1.9 .8l.1 .1l2 .5v.1l1.7 .4h-.1l1.1 .2l.2 .1h.4c.7 0 1.3-.5 1.4-1.2c0-.7-.5-1.3-1.2-1.3c-.7-.1-1.3 .4-1.4 1.1v.4l.3-.8l-.6 .7h.1l-1.2 1.2l.1-.1l-1.4 1.3l.1-.2l-2.4 1.7l.1-.1l-2.4 1.2l.2-.1l-2.5 .5c-.5 .1-.8 .6-.7 1.1c0 .5 .5 .8 1 .7l2.5-.4h.2l2.6-.8l.2-.1l2.6-1.4l.2-.2l1.4-1.2l.2-.1l1.1-1.2l.1-.1l.5-.7c.2-.3 .3-.6 .3-.9v-.4c-.1-.6-.7-1.2-1.4-1.1h-.4h.4l-1.1-.2l-1.6-.4l-1.9-.5h.1l-1.9-.8l.1 .1l-.6-.3l-.2-.1l-.8-.2l.3 .1l-.3-.2l-.1-.1l-.7-.2l-.3-.1l-.9-.1c-.3 0-.6 .2-.7 .5c-.1 .3 0 .7 .3 .8Z" class="g0_44"/>
<path d="M706.9 705.8l-.3 .9l.2-.4l-.7 .7l-.1 .1l-1.2 1.6l-.1 .1l-.9 1.9l.1-.2l-1.2 1.7l-.2 .4l-.7 2.6l-.8 3l.1-.3l-1.5 2.6l-1.5 2.7l.1-.2l-1.8 2l.3-.2l-2 1.4l.2-.2l-1.7 .8l.3-.1l-1.7 .2l.4 .1l-1.6-.3h.1l-1.3-.3l.5 .2l-.8-.6l.2 .2l-.6-.6l.4 .6l-.1-.7v.2v-1l-.1 .1l.1-1.3v.1l.2-1.5l-.1 .4l.5-1.1l-.1 .2l.6-.9l-.2 .2l.9-.7l-.4 .2l1.1-.3l.3-.2l.9-.6l-.2 .1l.8-.3l-.8 .1l.9 .1l.8 .2l-.8-.6l.6 1v.1l.6 .8l-.1-.3l.4 1.3l.5 1.6l-.1-.4v1.2l-.1 1.5l.1-.3l-.5 1.5l.1-.3l-.8 1.3l-.1 .2l-.8 1.8l.1-.1l-1 1.8v.1l-1 2.2l-1 2.3l-.1 .2l-.8 2.6h-.1l-.6 2.6v-.1l-.8 2.4c-.1 .5 .1 1.1 .7 1.3c.5 .1 1.1-.2 1.3-.7l.8-2.3l.8-2.5l1-2.5l-.1 .1l1.2-2.3v-.1l1-2.1v.1l1-1.9v-.1l.8-1.8l-.1 .2l.8-1.3l.1-.3l.6-1.5v-.4l.1-1.5V723l-.1-.3l-.4-1.7l-.5-1.3l-.2-.3l-.6-.9h.1l-.7-1c-.2-.2-.5-.4-.8-.5l-.8-.2l-.8-.2c-.3 0-.6 0-.8 .1l-.8 .4l-.2 .1l-.9 .6l.2-.1l-1 .4l-.4 .2l-.9 .7l-.2 .3l-.6 .9l-.1 .2l-.5 1.1l-.1 .3l-.2 1.5l-.1 1.3v1.2l.1 .7c0 .3 .1 .5 .3 .7l.4 .6l.2 .2l.8 .6l.5 .3l1.3 .3l1.6 .3h.5l1.7-.2l.3-.1l1.7-.7l.3-.2l1.9-1.3l.3-.2l1.8-2.1l.1-.2l1.5-2.7l1.5-2.7l.1-.3l.8-3l.7-2.5l-.2 .4l1.2-1.7l.1-.3l.9-1.9l-.1 .1l.9-1.7l-.1 .2l.6-.8l.2-.5l.2-.9c0-.5-.3-.9-.7-1c-.4-.1-.9 .2-1 .6Z" class="g0_44"/>
<path d="M714.2 738.1l-.6 4.4l.1-.3l-1.3 2.9l.1-.2l-1.4 1.9l-.1 .1l-.7 1.2V748l-.6 .8v-.1l-.4 .6c-.3 .5-.3 1.1 .1 1.4c.4 .4 1 .4 1.4 0l.5-.5l-.1 .1l.8-.6l.2-.2l.9-1.1l.1-.1l1.3-1.9l.2-.3l1.1-3.1v-.4l.1-4.3c0-.5-.3-.9-.8-.9c-.4-.1-.8 .3-.9 .7Z" class="g0_44"/>
<path d="M659.1 698.3l-.3 .5l.1-.1l-.2 .2c-.4 .4-.3 1.2 .1 1.6c.5 .4 1.2 .4 1.6-.1c.5-.5 .4-1.2 0-1.6l-.4-.3l.4 1.2v-.2c.1-.4 0-.8-.3-1.1l-.3-.4c-.4-.4-.9-.5-1.4-.3c-.5 .2-.8 .6-.8 1.2c0 .5 .4 .9 .9 1.1l.4 .1l-.2-.1l1.3 .7l-.1-.1l1.6 1.1l2.2 1.5l-.1-.1l2.1 1.8l-.1-.1l2 2.2l2.2 2.5l-.1-.2l2 3.4l2.1 3.9l-.1-.2l1.5 4.3l1.7 4.7v-.3l.7 4.9v-.1v4.4l.1-.3l-.9 4.4l.1-.3l-2 4l.2-.2l-2.4 3.2V745l-2.7 2.8l.2-.2l-2.6 1.9l.3-.2l-3 1.2l.4-.1l-2.8 .2h.3l-2.3-.3l.5 .2l-2-1l.4 .3l-1.6-1.7l.4 .5l-.8-2.9l-.8-3.9l.1 .2l-.1-4.6v.2l.7-4.5l.8-4.9c.1-.6-.3-1.1-.9-1.2c-.6-.1-1.1 .3-1.2 .8l-.9 5v-.1l-.9 4.5l-.1 .2L654 742v.3l.7 3.9l.1 .1l.7 3c.1 .2 .2 .4 .4 .6l1.5 1.7l.4 .3l2 1l.4 .1l2.3 .3h.3l2.8-.2l.3-.1l2.9-1.2l.3-.1l2.6-1.9l.2-.2l2.8-2.8l.1-.1l2.4-3.2l.1-.3l2-4l.1-.3l.8-4.4v-4.9l-.8-4.9l-.1-.2l-1.8-4.7v.1l-1.4-4.3l-.1-.2l-2.2-3.9v-.1l-2.1-3.3l-.1-.2l-2.2-2.5h-.1l-2-2.2l-.1-.1l-2.1-1.7l-.1-.1l-2.2-1.5l-1.5-1.1l-.2-.1l-1.3-.7l-.1-.1l-.3-.1c-.5-.3-1.1-.1-1.5 .3c-.4 .4-.4 1.1 0 1.5l.3 .5l-.2-.5v.2c.1 .3 .4 .6 .7 .8l.4 .2c.5 .2 1.1 0 1.4-.4c.3-.4 .3-1-.1-1.4l-.1-.2l.2 .3l-.2-.5c0-.3-.3-.5-.5-.5c-.3-.1-.6 .1-.7 .3Z" class="g0_44"/>
</svg>