<svg viewBox="0 0 1466 825" version="1.1" xmlns="http://www.w3.org/2000/svg">
<defs>
<clipPath id="c0_91"><path d="M-.2 825.3V-.2H1467V825.3Z"/></clipPath>
<clipPath id="c1_91"><path d="M1343.9 529.1V456.4H1452v72.7Z"/></clipPath>
<clipPath id="c2_91"><path d="M1346.3 621.3V549.7h102.9v71.6Z"/></clipPath>
<clipPath id="c3_91"><path d="M1346.4 716.6V641.9h103v74.7Z"/></clipPath>
<clipPath id="c4_91"><path d="M1353 825V744.6h96.2V825Z"/></clipPath>
<clipPath id="c5_91"><path d="M5.2 716.6V383.4H946.7V716.6Z"/></clipPath>
<style>
.g0_91{fill:#F00;}
.g1_91{fill:none;stroke:#000;stroke-width:1.466;stroke-linejoin:round;}
</style>
</defs>
<image clip-path="url(#c0_91)" preserveAspectRatio="none" x="0" y="-7" width="1467" height="840" href="img/1.jpg"/>
<path fill-rule="evenodd" d="M637.9 348.2l3.7 2.4l-2.9 3.3l-3.2-2l-2.3 2.5l-3.8-2l2.9-3.6l3.2 2.1Zm-256.3 0l3.7 2.4l-2.9 3.3l-3.2-2l-2.3 2.5l-3.8-2l2.9-3.6l3.2 2.1Zm569-12.6l6.9 3.7l-3.6 6.7l-6.9-3.7Zm485.7-.6l5.6 3l-3.1 5.8l-4.4-2.2l-2.5 4.8l-5.5-3l3.3-6.1l4.3 2.4Zm-66.5 0l5.5 3l-3.1 5.8l-4.4-2.2l-2.5 4.8l-5.4-3l3.3-6.1l4.2 2.4ZM334.3 325.7c1 0 1.8 .4 2.5 1.1c.7 .8 1.1 1.7 1.1 2.7c0 1-.4 1.8-1.1 2.6c-.7 .7-1.6 1.1-2.6 1.1c-1 0-1.9-.4-2.6-1.1c-.7-.8-1-1.6-1-2.6c0-1.1 .3-1.9 1.1-2.7c.7-.7 1.6-1.1 2.6-1.1Zm653.7-.9c-.8 1-1.5 1.7-2 2.1c-.4 .4-1.3 1-2.4 1.8c1.5-.1 2.6-.3 3.2-.5c.6-.2 1.5-.6 2.7-1.2Zm229.4-4.9c-.6 0-1.1 .2-1.5 .7c-.4 .5-.6 1-.6 1.6c0 .7 .4 1.3 1.2 1.8c.8 .4 1.8 .7 3.1 .7h1.2c-.6-3.2-1.7-4.8-3.4-4.8Zm-408.3-.2c-.8 0-1.4 .9-2 2.7c1.1 .4 1.9 .7 2.4 .9c1.6 .6 2.5 .9 2.7 .9c.4 0 .7-.2 .7-.5c0-.4-.5-1.2-1.3-2.2c-1-1.2-1.8-1.8-2.5-1.8Zm-26.2-.9c-1.3 0-2.8 .4-4.5 1.2c-1.6 .9-4 2.4-7.1 4.7h7.8c6.5 0 9.8-1.1 9.8-3.1c0-.9-.7-1.6-2.1-2.2c-1.2-.4-2.5-.6-3.9-.6Zm-85-.2c-1.3 2-1.9 3.6-1.9 5c0 .6 .2 1.1 .8 1.6c.5 .5 1.1 .7 1.9 .7c.9 0 2.1-.3 3.4-.7c1.3-.5 1.9-.9 1.9-1.2c0-.4-.7-1.2-2.1-2.4c-1.3-1.2-2.7-2.2-4-3ZM875 315.2c1.4 0 2.8 .8 4.5 2.3c1.6 1.5 3.5 3.9 5.6 7.2v8.1l-3.8-.1c-3.7 0-6.9 .4-9.7 1c-2.8 .6-4.2 1.3-4.2 2.1c.8 2.4 1.5 4.6 2.1 6.7c.6 2.1 .9 4.1 .9 5.9c0 1.4-.2 2.5-.4 3.3c-.3 .8-.8 1.8-1.5 2.7c-.2-2.6-.7-5.3-1.5-8.2c-.2-1-.9-3.2-1.9-6.4c-.7-2-1-3.4-1-4c0-1 .3-2.1 .8-3.5c.4-1.1 .9-2.1 1.4-3c.7-1 1.8-1.8 3.3-2.4c1.6-.6 4-1 7.3-1.4c-1.6-2.2-3-3.3-4.2-3.3c-.5 0-1 .2-1.5 .6c-.4 .4-1.2 1.3-2.2 2.6l-1.4-.7c.9-3 1.9-5.4 3.2-7c1.3-1.7 2.7-2.5 4.2-2.5Zm239.2-.2c-.4 0-.7 .1-1 .4c-.3 .2-.5 .5-.5 .9c0 .8 .7 1.7 2 2.5c1.2 .8 2.7 1.3 4.5 1.6c-.7-1.7-1.5-3-2.4-4c-.8-.9-1.7-1.4-2.6-1.4Zm104.4-3.1c1.6 0 3 1.1 4.1 3.3c1.1 2.2 1.6 4.8 1.6 7.8v7.7c0 3.4-1.4 6.8-4.3 10.1c-2.9 3.4-5.8 5.1-8.6 5.1c-1.6 0-3.4-.6-5.4-1.6c-2-1.1-5-3.1-9-6.2l1.2-1.8c2.2 1.4 3.9 2.4 5.3 2.9c1.1 .4 2.4 .6 3.9 .6c1.9 0 3.8-.6 5.7-1.6c2.2-1.3 4.5-3.4 6.9-6.2c-.8 .2-1.5 .2-2.1 .2c-2 0-3.5-.6-4.7-1.9c-1.2-1.3-1.7-3-1.7-5.2c0-3 .7-5.9 2-8.7c1.5-3 3.2-4.5 5.1-4.5Zm-55.8-.3l1.7 1.1c-.4 .8-.8 1.5-1.1 2.2c-.3 .6-.5 1.2-.7 1.7c-.3 .9-.4 1.8-.4 2.7c0 1.1 .4 2.1 1.1 3c.7 .9 1.7 1.5 2.8 1.8c.7 .2 1.6 .3 2.7 .4c1.2 .1 2.3 .2 3.6 .2h21.6c-.6-1.6-1.1-2.7-1.4-3.3c-.5-.7-1.1-1.7-2.1-2.8l2.7-7c1.5 2.2 2.5 4.1 3 5.9c.3 1.6 .5 3.9 .5 6.8v8.5h-25c-1.2 0-2.2 0-3-.1c-.8 0-1.4 0-1.8 0c-.7-.1-1.6-.3-2.5-.7c-1.6-.5-3-1.7-4-3.4c-1.1-1.7-1.6-3.6-1.6-5.7c0-.8 .1-1.7 .2-2.6c.1-.8 .3-1.8 .6-2.8c.4-1.2 .9-2.2 1.5-3.2c.5-.9 1.1-1.8 1.6-2.7Zm275.7-.1c1.5 1.6 2.5 3.4 3 5.3c.6 1.8 .9 4.6 .9 8.2v7.8h-16.6v.5c-.1 1.8-.4 3.4-.8 4.6c-.5 1.7-1.4 3-2.6 4c-1.2 1-3 1.9-5.4 2.5c-2.4 .7-4.8 1-7.3 1c-4.8 0-8.5-.9-11.1-2.7c-2.7-1.7-4-4.2-4-7.5c0-2.7 .4-5.2 1.3-7.5c.9-2.5 2.7-5.8 5.3-9.9l1.8 1.3c-1.9 3.4-3.2 5.8-3.8 7.3c-.6 1.5-.9 3.1-.9 4.7c0 2.1 1.1 3.8 3.3 5.1c2.3 1.3 5.2 2 8.8 2c3.6 0 6.6-.7 9.1-2.1c2.4-1.4 3.6-3 3.6-5c0-1.3-.2-2.5-.6-3.7c-.4-1.2-1.4-3.1-2.8-5.8l2.7-8.1c1.4 2.6 2.2 4.3 2.5 5.3c.5 1.5 .8 3.3 .9 5.6v.3h13.6c-.2-1.4-.6-2.5-1.2-3.5c-.3-.5-1-1.4-2.1-2.6Zm-775.2-1.3c-.6 0-1.1 .3-1.6 .8c-.4 .5-.7 1.2-.7 1.9c0 .4 .2 .8 .6 1.1c.3 .3 .8 .5 1.4 .5c.4 0 .9-.1 1.4-.4c.4-.3 1-.7 1.7-1.4c-.6-.9-1-1.6-1.4-1.9c-.4-.4-.9-.6-1.4-.6Zm34.3-.4l2.9 1.8c1.3 .8 2.5 1.6 3.6 2.5c1.7 1.2 2.8 2.4 3.4 3.4c.6 1.1 .9 2.5 .9 4.1c0 1.2-.1 2.4-.3 3.6c-.1 1.2-.4 2.2-.7 3c-.5 1.5-1.9 2.9-4.1 4c-2 1.1-3.9 1.6-5.7 1.6c-1.6 0-2.8-.5-3.7-1.6c-.9-1.1-1.4-2.5-1.4-4.3c0-1.6 .2-3.2 .7-4.8c.5-1.5 1.3-3.5 2.5-5.9l-1.1-.7c.4-1 .8-2.1 1.4-3.4c.6-1.3 1.1-2.4 1.6-3.3Zm540.6-5.2c2.6 1.9 4.5 4.4 5.5 7.4c1 2.9 1.5 6.6 1.5 11.2v1.5h19.1c-2.4-2.5-4.6-4.3-6.7-5.4c-1.8-1-3.5-1.5-5.3-1.5c-.5 0-1 .1-1.4 .1c-.4 .1-1 .2-1.8 .4c1-2.6 2.3-4.4 3.6-5.6c1.3-1.2 2.9-1.8 4.6-1.8c1.3 0 2.6 .3 3.8 1c1.2 .6 2.5 1.6 4 3.1c1.2 1.1 2.9 2.8 5.1 5.2c1.5 1.6 2.6 2.7 3.4 3.2c.8 .5 2 .9 3.6 1.3v8.1h-45.5c-1.3 0-2.3-.3-3-.9c-.8-.6-1.3-1.7-1.3-3.3c0-.8 .1-1.8 .2-2.8c.1-1 .2-2 .4-3.1h1.1c.2 .7 .5 1.2 1.1 1.5c.5 .3 1.2 .5 1.9 .5h10.3c-.5-2.9-1.3-5.3-2.4-7c-.9-1.5-2.2-2.7-3.9-3.8Zm-513.5 0c2.6 1.9 4.4 4.4 5.5 7.4c1 2.9 1.5 6.6 1.5 11.2v9.6H718.2c-1.3 0-2.3-.3-3-.9c-.9-.6-1.3-1.7-1.3-3.3c0-.8 .1-1.8 .2-2.8c0-1 .2-2 .4-3.1h1.1c.1 .7 .5 1.2 1 1.5c.6 .3 1.2 .5 2 .5h10.3c-.5-2.9-1.3-5.3-2.4-7c-.9-1.5-2.2-2.7-3.9-3.8Zm684.4-.5l6.9 3.7l-3.6 6.7l-7-3.6Zm-745.2-1.5c2.1 0 4 1.9 5.9 5.5c1.8 3.6 2.8 7.5 2.8 11.5v13.2H650.9c-.9 0-1.5 0-1.9 0c-.4 .1-.6 .2-.6 .4c.6 .4 1.1 .6 1.6 .7c.5 .1 .9 .3 1 .5c.2 .2 .3 .6 .3 1c0 1.4-.4 3.1-1.2 5.1c-.8 1.9-1.6 3.2-2.4 3.6c-.7 .6-2.9 1.4-6.6 2.2c-3.6 .8-6.7 1.2-9.3 1.2c-3.8 0-6.8-.8-9.1-2.4c-2.3-1.5-3.4-3.5-3.4-6c0-2.5 .5-4.8 1.5-7c1.2-2.6 3.5-6 6.8-10.1l1.8 1.3c-2.1 2.5-3.5 4.5-4.3 6.1c-.8 1.6-1.2 3.2-1.2 4.7c0 2.1 .8 3.7 2.6 4.7c1.7 1.1 4.5 1.6 8.1 1.6c1.9 0 4.6-.4 8-1.1c3.3-.7 5-1.3 5-1.8c0-.2-.6-.4-1.9-.6c-1.3-.2-2.7-.3-4.3-.3c-2.2 0-3.4-.5-3.4-1.5c0-.5 .3-1.3 .8-2.5c.4-.8 .8-1.6 1.2-2.4c.7-1.7 2.1-3 4.2-4c2.1-1 4.3-1.5 6.5-1.5h19c0-1.8 0-3-.1-3.7c-.2-1.2-.5-2.2-1-3c-.6 1.2-1.5 2.2-2.6 2.8c-1 .7-2.2 1-3.4 1c-1.6 0-2.9-.5-4-1.5c-1.1-1.1-1.6-2.4-1.6-4c0-2.4 .7-5.1 2.1-8.4c1.6-3.5 3.2-5.3 4.8-5.3Zm516.9-1l5.5 3.1l-3.3 6l-4.2-2.3l-2.4 4.7l-5.6-3.1l3.1-5.8l4.4 2.3Zm-615.7-.5l5.4 3.1l-3.3 6.1l-4.2-2.4l-2.4 4.7l-5.6-3l3.1-5.8l4.5 2.2Zm791.5-2.8v7.1c-.1 0-.9 .2-2.5 .8c-1.9 .6-3.5 1.1-4.6 1.6c-1.7 .7-2.5 1.2-2.5 1.5c0 .2 .7 1 2.1 2.4c1.9 1.8 3.5 3.5 4.9 5.1c2.1 2.6 3.9 5.1 5.2 7.7v.2h13.6c-.2-1.4-.6-2.5-1.2-3.5c-.3-.5-1-1.4-2.1-2.6l2.4-7.1c1.5 1.6 2.5 3.4 3.1 5.3c.5 1.8 .8 4.6 .8 8.2v7.8h-55.1v.7c0 1.2-.7 2.8-2 4.8c-1.4 2-3.1 3.7-4.9 5.2c-2.1 1.6-3.9 2.4-5.3 2.4c-1.8 0-3.7-.5-5.7-1.5c-1.7-.8-4.4-2.5-8.2-5.1l1.3-1.8c1.8 1.1 3.2 2 4.3 2.4c1.1 .4 2.3 .6 3.6 .6c1.3 0 2.7-.4 4.1-1.2c1.3-.7 3.2-2.2 5.6-4.3c3.3-2.9 4.9-5.2 4.9-6.8c0-.8-.3-1.8-.9-3.1c-.8-1.5-1.6-2.7-2.7-3.7l1.7-8c1.4 1.4 2.4 3 3.1 4.8c.8 1.8 1.1 3.8 1.1 6.1v.4h13.6c-.2-1.4-.6-2.5-1.2-3.5c-.3-.5-1-1.4-2.1-2.6l2.4-7.1c1.5 1.6 2.5 3.4 3.1 5.3c.5 1.6 .7 3.9 .8 6.9v1h17.2c-.8-1-1.5-1.8-2.3-2.5c-.6-.5-1.4-1.2-2.4-2c-1.1-.9-2.2-1.7-3.4-2.6l-.9 1c-1.8-1.7-2.8-2.8-3.2-3.1c-1-1.2-1.5-2.5-1.5-4c0-2 .2-3.4 .5-4.2c.3-1.1 1.2-2.2 2.5-3.1c1.1-.8 2.4-1.5 3.7-2.1c1-.5 2.4-1.2 4.1-1.8c.8-.4 2.5-1 5-2Zm-1021.9-.2c2.4 0 4.4 .7 6.1 2c1.7 1.4 2.5 3.2 2.5 5.4c0 1.2-.3 2.3-1.1 3.2c-.8 1.1-1.8 1.6-3.1 1.6c-1 0-1.8-.3-2.5-1c-.6-.6-.9-1.4-.9-2.3c0-1.3 .5-2.3 1.6-3c1.1-.7 1.6-1.3 1.6-1.7c0-.7-.3-1.2-.9-1.6c-.7-.4-1.5-.7-2.5-.7c-1.3 0-2.4 .4-3.2 1.1c-.8 .8-1.2 1.6-1.2 2.7c0 1 .4 2.2 1.2 3.7c1.3 2.3 2.1 3.8 2.3 4.5c.9 2.1 1.3 4.3 1.3 6.8c0 1.3-.1 2.8-.3 4.4l-1.8-.1c0-.3 0-.6 0-.8l.2-1.5c0-1.2-.8-2.4-2.3-3.7c-2.5-2.2-3.8-3.5-4.1-3.7c-1.5-1.8-2.2-3.8-2.2-6c0-2.7 .9-4.9 2.7-6.7c1.8-1.7 4-2.6 6.6-2.6Zm996.7-.2l5.4 3l-3.2 6.1l-4.3-2.4l-2.4 4.7l-5.5-3l3.1-5.8l4.4 2.2Zm-197.6 0l5.6 3l-3.1 5.8l-4.4-2.2l-2.5 4.8l-5.5-3l3.3-6.1l4.3 2.4Zm-697 0l5.6 3l-3.1 5.8l-4.5-2.2l-2.5 4.8l-5.4-3l3.3-6.1l4.2 2.4Zm334.5-.8l6.9 3.7l-3.5 6.6l-7-3.6Zm678.6-.5l1.8 10.5c.7 4 1.1 7.5 1.4 10.5c.2 2.2 .3 4.4 .3 6.5c0 1.8-.2 3.4-.7 4.8c-.4 1.5-1.2 3.5-2.4 5.9l-1.8-.7c.5-2.5 .8-4.6 .8-6.2c0-1.2-.1-3-.3-5.3c-.2-2.4-.5-4.7-.8-7c-.3-2.3-.8-5-1.4-8.2c-.3-1.1-.4-1.9-.4-2.3c0-.6 .3-1.7 .9-3.1c.6-1.5 1.5-3.3 2.6-5.4Zm-356.7 0c1.1 1.6 1.9 3.2 2.4 4.7c.5 1.8 .8 4.1 .8 6.9v5.9c0 4.1 .3 7 .8 8.6c.5 1.3 1.2 2 2.1 2h7.5c.9 0 1.7 0 2.6 .1c2.1 .2 4.6 .5 7.4 .8c-2.9-.7-5-1.5-6.2-2.6c-1.2-1.1-1.8-2.7-1.8-4.7c0-3.1 .8-5.9 2.2-8.4c1.4-2.5 3-3.7 4.8-3.7c2 0 3.7 1.7 5.2 5.2c1.5 3.5 2.3 7.7 2.3 12.6v.7h13.6c-.2-1.4-.6-2.5-1.2-3.5c-.3-.5-1-1.4-2.1-2.6l2.4-7.1c1.5 1.6 2.5 3.4 3 5.3c.6 1.8 .9 4.6 .9 8.2v7.8h-40.6c-2.3 0-4-1-5-2.9c-1.2-2.1-1.8-5.6-1.8-10.6v-8.5c0-2-.2-3.5-.8-4.5c-.2-.5-.8-1.3-1.7-2.3Zm-87.4 0l1.8 10.5c.7 4 1.1 7.5 1.4 10.5c.2 2.2 .3 4.4 .3 6.5c0 1.8-.2 3.4-.6 4.8c-.5 1.5-1.3 3.5-2.5 5.9l-1.7-.7c.4-2.5 .7-4.6 .7-6.2c0-1.2-.1-3-.3-5.3c-.2-2.4-.5-4.7-.8-7c-.3-2.3-.8-5-1.4-8.2c-.3-1.1-.4-1.9-.4-2.3c0-.6 .3-1.7 .9-3.1c.6-1.5 1.5-3.3 2.6-5.4Zm-116.7 0c1.2 1.6 2 3.2 2.5 4.7c.5 1.8 .7 4.1 .7 6.9v5.9c0 4.1 .3 7 .9 8.6c.4 1.3 1.1 2 2.1 2h6.3c2.1 0 3.8-.6 5.2-1.8c1.8-1.5 2.7-3.9 2.7-7l2 .3c0 .7-.1 1.4-.1 2.2c0 .8-.1 1.7-.1 2.7c0 1 .4 1.9 1.1 2.5c.7 .7 1.5 1.1 2.4 1.1h3.6c2.5 0 4.2-.4 5.2-1.1c1.3-.8 1.9-2.3 1.9-4.5c0-.5 .1-.9 .4-1.3c.2-.2 .6-.5 1.1-1l1.2-.9c0 .4 0 .9 .1 1.6c0 .6 0 1 0 1.2c0 1.1-.2 2.6-.5 4.4c.8 .3 1.6 .7 2.5 .9c.9 .3 1.9 .5 2.9 .6c0-.7-.3-1.6-.8-2.6c-.5-1.1-.7-1.8-.7-2.2c0-.5 .1-.9 .2-1.2c0-.1 .3-.4 .7-.9l2.5-3.4c.5 1.2 .9 2.3 1.1 3.4c.3 1 .4 2.3 .4 3.8v3.2h19.2c-2.5-2.5-4.7-4.3-6.7-5.4c-1.8-1-3.6-1.5-5.3-1.5c-.5 0-1 .1-1.4 .1c-.5 .1-1.1 .2-1.9 .4c1.1-2.6 2.3-4.4 3.7-5.6c1.3-1.2 2.8-1.8 4.5-1.8c1.3 0 2.6 .3 3.8 1c1.2 .6 2.6 1.6 4.1 3.1c1.2 1.1 2.9 2.8 5.1 5.2c1.5 1.6 2.6 2.7 3.4 3.2c.8 .5 1.9 .9 3.5 1.3v8.1h-34v-.1h-1.1c-.9-.1-1.7-.2-2.5-.4c-1.4-.3-2.9-.8-4.3-1.5c-1.2 .8-2.2 1.3-3.1 1.6c-.9 .2-2.3 .4-4.1 .4h-4.8c-1.4 0-2.4-.4-3.2-1.1c-.8-.7-1.5-1.8-2.1-3.4c-1.1 1.6-2.3 2.8-3.6 3.5c-1.2 .7-2.6 1-4.2 1h-6.3c-2.4 0-4-1-5.1-2.9c-1.1-2.1-1.7-5.6-1.7-10.6v-8.5c0-2-.3-3.5-.8-4.5c-.3-.5-.9-1.3-1.8-2.3Zm-48.8 0l1.8 10.5c.6 4 1.1 7.5 1.3 10.5c.2 2.2 .3 4.4 .3 6.5c0 1.8-.2 3.4-.6 4.8c-.4 1.5-1.2 3.5-2.4 5.9l-1.8-.7c.5-2.5 .7-4.6 .7-6.2c0-1.2-.1-3-.3-5.3c-.2-2.4-.4-4.7-.7-7c-.3-2.3-.8-5-1.5-8.2c-.2-1.1-.4-1.9-.4-2.3c0-.6 .4-1.7 1-3.1c.6-1.5 1.5-3.3 2.6-5.4Zm-244.4 0l1.8 10.5c.6 4 1.1 7.5 1.3 10.5c.2 2.2 .3 4.4 .3 6.5c0 1.8-.2 3.4-.6 4.8c-.4 1.5-1.2 3.5-2.4 5.9l-1.8-.7c.5-2.5 .7-4.6 .7-6.2c0-1.2-.1-3-.3-5.3c-.2-2.4-.4-4.7-.7-7c-.3-2.3-.8-5-1.5-8.2c-.2-1.1-.3-1.9-.3-2.3c0-.6 .3-1.7 .9-3.1c.6-1.5 1.5-3.3 2.6-5.4Zm-131.3 0l1.8 10.5c.7 4 1.1 7.5 1.4 10.5c.2 2.2 .3 4.4 .3 6.5c0 1.8-.2 3.4-.6 4.8c-.5 1.5-1.3 3.5-2.5 5.9l-1.7-.7c.4-2.5 .7-4.6 .7-6.2c0-1.2-.1-3-.3-5.3c-.2-2.4-.5-4.7-.8-7c-.3-2.3-.8-5-1.4-8.2c-.3-1.1-.4-1.9-.4-2.3c0-.6 .3-1.7 .9-3.1c.6-1.5 1.5-3.3 2.6-5.4Zm525.8-.2l1.2 .4c0 1.3 .3 2.1 .9 2.5c.5 .4 2.1 1 4.8 1.8c0 1.4-.2 2.8-.4 4.2c-.1 .6-.4 1.7-.9 3.2l-2.1-.8c0 2.3-.3 4.7-.8 7c-.6 2.3-1.5 4.6-2.7 6.9c1.1 2 1.7 3.1 1.9 3.5c.4 .9 .7 1.7 .7 2.4v1c0 .4-.2 2.5-.5 6c-2.3 1.1-4.3 1.8-6 2.1c-1.8 .3-4.5 .5-8 .5v-8.8c2-1.1 3.4-1.9 4.3-2.6c.9-.7 2-2 3.4-3.7c-2.3-2.8-3.9-4.9-5-6c-.8-1-1.9-2.1-3.2-3.4c-.3 .7-.5 1.1-.7 1.3c-.1 .3-.3 .4-.4 .4c-.5 0-1.4-.4-2.7-1.3c-1.2-.7-2.1-1.3-2.7-1.9c-.6-.6-1.1-1.7-1.4-3.3c-.4-1.5-.5-3.6-.5-6c0-1.1 0-1.8 .2-2.2c.1-.4 .4-.7 .8-.7c.7 0 2.3 1.2 4.7 3.4c2 1.9 3.8 3.8 5.4 5.7c1.3 1.4 2.4 2.7 3.4 4.1c.9 1.2 2.4 3.3 4.3 6.3c.9-1.7 1.5-3.9 1.8-6.5c.2-1.6 .3-3.5 .3-5.7c-.7-.3-1.2-.7-1.4-1c-.3-.3-.4-.8-.4-1.3c0-1.2 .1-2.4 .4-3.6c.2-1.3 .7-2.6 1.3-3.9Zm-288.9-1.5l5.4 3.1l-3.3 6l-4.2-2.4l-2.4 4.8l-5.5-3.1l3.1-5.8l4.4 2.3Zm473.4-.2l5.6 2.9l-3 6.2l-5.6-3Zm-124.8-.4l1.4 .6c-.1 .3-.1 .6-.1 1c0 .8 .4 1.4 1.2 1.9c1.2 .7 2.3 1.4 3.4 2c-.2 1.7-.4 2.9-.6 3.6c-.3 .8-.7 1.9-1.4 3.3l-.9-.3c0 .3 .3 2 .9 5.1c.5 3.1 1 5.7 1.4 8c.4 2.4 .7 4.1 .8 5.1v.1h1.1c.6 0 1 0 1.3-.1c.6 0 1.2-.1 1.8-.1c-1-1.5-1.7-2.7-2-3.7c-.4-.9-.6-1.9-.6-3.1c0-2.9 1.3-5.5 3.7-7.7c2.5-2.3 5.4-3.4 8.6-3.4c2.2 0 4.3 .8 6.4 2.2c1.8 1.4 3.1 3 4 4.9l-1.2 1.1c-1.6-.6-2.9-1-3.8-1.2c-.9-.1-2.1-.2-3.4-.2c-2.5 0-4.6 .2-6.4 .6c-2.3 .5-3.4 1.2-3.4 2.1c0 1.4 2.7 3.6 8.2 6.8l15.2-4.3l-3.3 8.4c-5.4 1.7-9.8 2.9-13.3 3.8c-3 .8-5.6 1.4-7.7 1.6c-1.5 .3-3.1 .4-4.6 .4h-.7l-.2 1.5c-.6 2.1-2.1 4.1-4.4 5.9c-3.2 2.3-6.9 3.5-10.9 3.5c-3.4 0-6.1-.9-8-2.6c-1.9-1.7-2.9-4.1-2.9-7.2c0-2.8 .4-5.4 1.1-7.5c.8-2.4 2.4-5.4 4.8-8.9l1.8 1.2c-1.5 2.4-2.6 4.4-3.3 6.1c-.6 1.7-1 3.4-1 5.1c0 1.8 .7 3.2 2 4.2c1.4 1 3.3 1.4 5.7 1.4c3.5 0 6.4-.6 8.5-2c2.2-1.3 3.3-3.1 3.3-5.3c0-.4 0-.7 0-.9c0-.2 0-.4 0-.5c0-.8 0-1.6-.2-2.6c-.1-.9-.4-2.8-1-5.7c-.8-4.7-1.7-9.5-2.5-14.2l-1.5-1.1c0-1.9 .9-4.9 2.7-8.9Zm-490.9 0l5.5 2.8l-3 6.2l-5.6-3Zm267.3-.1l1.4 .7c0 .2-.1 .5-.2 1c0 .7 .4 1.3 1.3 1.9c.7 .6 1.9 1.2 3.5 1.9c-.2 1.2-.4 2.5-.8 3.7c-.3 1.2-.7 2.3-1.2 3.2l-1-.4l3.2 18.5v8.1H816.3v-.2h-.4c-1.4-.2-3.1-.6-4.8-1.1c-2.5-.7-4.7-1.5-6.6-2.5c-1.1 1.7-2.6 2.8-4.3 3.4c-.8 .2-1.9 .4-3.3 .4H761.5c-1.4 0-2.5-.4-3.4-1.1c-.8-.7-1.5-1.8-2.1-3.4c-1.3 1.7-2.5 2.9-3.7 3.6c-1 .6-2.4 .8-4.1 .8l-2.2 .1h-4.2c-2.3 0-4-1-5-2.9c-1.2-2.1-1.8-5.6-1.8-10.6v-8.5c0-2-.2-3.5-.7-4.5c-.3-.5-.9-1.3-1.8-2.3l3.2-7.4c1.1 1.6 1.9 3.2 2.4 4.7c.5 1.8 .8 4.1 .8 6.9v5.9c0 4.1 .3 7 .8 8.6c.5 1.3 1.2 2 2.1 2h2.1l4.3-.1c2.3 0 4-.5 5.2-1.7c1.4-1.3 2.3-3.7 2.7-7l2 .3c0 .7-.1 1.3-.1 1.8c-.1 1.3-.1 2.3-.1 3.1c0 1.2 .3 2 .9 2.6c.6 .7 1.3 1 2.3 1c1 0 1.9-.2 2.7-.6c.9-.4 2.2-1.2 3.9-2.5l10.7-7.6c1.2-.9 2.2-1.6 2.8-2c1.5-.8 2.9-1.3 4.2-1.3c2.2 0 4 .8 5.4 2.4c1.5 1.8 2.3 4.6 2.3 8.3v3.3h3.8c1.8 0 3.2-.3 4.3-.7c1.3-.6 2.3-1.5 2.8-2.9c1.1-2.5 2.6-4.6 4.3-6.2c1.6-1.5 2.9-2.2 4-2.2c1 0 2.3 1.5 3.8 4.6c1.2 2.4 1.9 4.7 2.2 6.8v.6h10.8l-3.6-20.3l-1.9-1.2c0-1.2 .2-2.4 .6-3.6c.4-1.5 1.2-3.3 2.3-5.4Zm-244.4 0l1.4 .7c0 .2-.1 .5-.1 1c0 .7 .4 1.3 1.2 1.9c.7 .6 1.9 1.2 3.5 1.9c-.2 1.2-.4 2.5-.8 3.7c-.3 1.2-.7 2.3-1.2 3.2l-1-.4l3.2 18.5v8.1H571.9v-.1h-1c-.9-.1-1.8-.2-2.5-.4c-1.5-.3-2.9-.8-4.4-1.5c-1.1 .8-2.1 1.3-3 1.6c-.9 .2-2.3 .4-4.1 .4H552c-1.3 0-2.4-.4-3.1-1.1c-.8-.7-1.5-1.8-2.1-3.4c-1.1 1.6-2.3 2.8-3.7 3.5c-1.1 .7-2.5 1-4.1 1H514.7l-.2 1.5c-.6 2.1-2 4.1-4.4 5.9c-3.2 2.3-6.8 3.5-10.9 3.5c-3.4 0-6.1-.9-8-2.6c-1.9-1.7-2.9-4.1-2.9-7.2c0-2.8 .4-5.4 1.1-7.5c.8-2.4 2.4-5.4 4.8-8.9l1.8 1.2c-1.5 2.4-2.6 4.4-3.3 6.1c-.6 1.7-1 3.4-1 5.1c0 1.8 .7 3.2 2 4.2c1.4 1 3.3 1.4 5.7 1.4c3.5 0 6.4-.6 8.6-2c2.1-1.3 3.2-3.1 3.2-5.3c0-.4 0-.7 0-.9c0-.2 0-.4 0-.5c0-.8 0-1.6-.2-2.6c-.1-.9-.4-2.8-1-5.7c-.8-4.7-1.7-9.5-2.5-14.2l-1.5-1.1c0-1.9 .9-4.9 2.7-8.9l1.4 .6c-.1 .3-.1 .6-.1 1c0 .8 .4 1.4 1.2 1.9c1.2 .7 2.4 1.4 3.4 2c-.2 1.7-.4 2.9-.6 3.6c-.2 .8-.7 1.9-1.4 3.3l-.9-.3c0 .3 .3 2 .9 5.1c.5 3.1 1 5.7 1.4 8c.4 2.4 .7 4.1 .8 5.1v.1h17.3c-.8-1-1.6-1.8-2.3-2.5c-.6-.5-1.4-1.2-2.4-2c-1.2-.9-2.3-1.7-3.4-2.6l-1 1c-1.7-1.7-2.8-2.8-3.1-3.1c-1-1.2-1.5-2.5-1.5-4c0-2 .1-3.4 .4-4.2c.4-1.1 1.3-2.2 2.6-3.1c1.1-.8 2.3-1.5 3.7-2.1c1-.5 2.4-1.2 4.1-1.8c.8-.4 2.4-1 5-2v7.1c-.1 0-.9 .2-2.5 .8c-1.9 .6-3.5 1.1-4.6 1.6c-1.7 .7-2.6 1.2-2.6 1.5c0 .2 .7 1 2.2 2.4c1.9 1.8 3.5 3.5 4.8 5.1c2.2 2.6 4 5.1 5.3 7.7v.2H539c2.1 0 3.8-.6 5.2-1.8c1.8-1.5 2.7-3.9 2.7-7l2 .3c-.1 .7-.1 1.4-.2 2.2c0 .8 0 1.7 0 2.7c0 1 .3 1.9 1 2.5c.7 .7 1.5 1.1 2.4 1.1h3.7c2.4 0 4.1-.4 5.2-1.1c1.2-.8 1.8-2.3 1.8-4.5c0-.5 .2-.9 .5-1.3c.2-.2 .5-.5 1.1-1l1.1-.9c.1 .4 .1 .9 .1 1.6c0 .6 .1 1 .1 1.2c0 1.1-.2 2.6-.5 4.4c.7 .3 1.5 .7 2.4 .9c1 .3 1.9 .5 2.9 .6c0-.7-.2-1.6-.7-2.6c-.5-1.1-.7-1.8-.7-2.2c0-.5 0-.9 .2-1.2c0-.1 .2-.4 .6-.9l2.6-3.4c.5 1.2 .9 2.3 1.1 3.4c.2 1 .3 2.3 .3 3.8v3.2h10.8l-3.6-20.3l-1.9-1.2c0-1.2 .2-2.4 .6-3.6c.4-1.5 1.2-3.3 2.3-5.4Zm-131.3 0l1.4 .7c0 .2 0 .5-.1 1c0 .7 .4 1.3 1.2 1.9c.8 .6 1.9 1.2 3.6 1.9c-.2 1.2-.5 2.5-.8 3.7c-.4 1.2-.8 2.3-1.2 3.2l-1.1-.4l3.3 18.5v8.1h-35c-2.3 0-4-1-5-2.9c-1.2-2.1-1.8-5.6-1.8-10.6v-8.5c0-2-.2-3.5-.8-4.5c-.2-.5-.8-1.3-1.8-2.3l3.2-7.4c1.2 1.6 2 3.2 2.5 4.7c.5 1.8 .8 4.1 .8 6.9v5.9c0 4.1 .2 7 .8 8.6c.4 1.3 1.1 2 2.1 2h17.7c-.2-1.4-.6-2.5-1.1-3.5c-.3-.5-1-1.4-2.1-2.6l2.3-7.1c1.5 1.6 2.6 3.4 3.1 5.3c.5 1.6 .7 3.9 .8 6.9v1h10.7l-3.6-20.3l-1.9-1.2c0-1.2 .1-2.4 .5-3.6c.5-1.5 1.2-3.3 2.3-5.4Zm-45.1 0l1.4 .7c0 .2 0 .5-.1 1c0 .7 .4 1.3 1.2 1.9c.8 .6 1.9 1.2 3.6 1.9c-.2 1.2-.5 2.5-.8 3.7c-.4 1.2-.8 2.3-1.2 3.2l-1.1-.4l3.3 18.5v8.1H394.6c-.9 0-1.5 0-1.9 0c-.4 .1-.6 .2-.6 .4c.6 .4 1.1 .6 1.6 .7c.5 .1 .9 .3 1 .5c.2 .2 .3 .6 .3 1c0 1.4-.4 3.1-1.2 5.1c-.8 1.9-1.6 3.2-2.4 3.6c-.7 .6-2.9 1.4-6.6 2.2c-3.6 .8-6.7 1.2-9.3 1.2c-3.8 0-6.8-.8-9.1-2.4c-2.3-1.5-3.4-3.5-3.4-6c0-2.5 .5-4.8 1.5-7c1.2-2.6 3.5-6 6.8-10.1l1.8 1.3c-2.1 2.5-3.5 4.5-4.3 6.1c-.9 1.6-1.2 3.2-1.2 4.7c0 2.1 .8 3.7 2.6 4.7c1.7 1.1 4.5 1.6 8.1 1.6c1.9 0 4.6-.4 8-1.1c3.3-.7 5-1.3 5-1.8c0-.2-.6-.4-1.9-.6c-1.3-.2-2.7-.3-4.3-.3c-2.2 0-3.4-.5-3.4-1.5c0-.5 .3-1.3 .8-2.5c.4-.8 .8-1.6 1.2-2.4c.7-1.7 2.1-3 4.2-4c2.1-1 4.3-1.5 6.5-1.5h14l-3.6-20.3l-1.9-1.2c0-1.2 .1-2.4 .5-3.6c.5-1.5 1.2-3.3 2.3-5.4Zm707.7-.3l7 3.7l-3.6 6.7l-7-3.6Zm212.1-2.9l5.5 2.8l-2.9 6.2l-5.6-2.9Zm-664.2-1.4l6.9 3.7l-3.6 6.7l-6.9-3.6Zm314.9-1.5c.3 0 .6 .1 .9 .3c.2 .3 .3 .6 .3 1c0 .3 0 .6-.1 .8c-.1 .2-.3 .6-.6 1.1c-1-.5-1.7-.8-2-.8c-.4 0-.7 .1-1.1 .3c-.2 .1-.4 .2-.6 .5c0 .2 .4 .6 1.4 1.1c.9 .6 1.6 .8 2 .8c.3 0 1-.1 2.2-.4c-.2 .6-.5 1-.8 1.3c-.2 .2-.5 .4-1 .5l-6.4 2c.4-.7 .7-1.2 1-1.5c.3-.2 .8-.5 1.6-.7c-.5-.3-.9-.7-1.2-1c-.2-.3-.4-.6-.4-.9c0-.3 .1-.6 .3-.9c.1-.3 .3-.6 .6-1c1.3-1.7 2.6-2.5 3.9-2.5Zm474.7-.1c.4 0 .6 .2 .9 .4c.2 .2 .3 .6 .3 1c0 .3 0 .6-.1 .8c-.1 .2-.3 .6-.6 1c-1-.5-1.6-.7-2-.7c-.3 0-.7 .1-1.1 .2c-.2 .2-.4 .3-.6 .5c0 .3 .5 .7 1.4 1.2c1 .6 1.6 .8 2.1 .8c.2 0 .9-.1 2.1-.4c-.2 .5-.5 1-.8 1.3c-.2 .2-.5 .4-1 .5l-6.4 2c.4-.7 .7-1.2 1-1.5c.3-.3 .9-.5 1.6-.7c-.5-.4-.9-.7-1.2-1c-.2-.3-.3-.6-.3-.9c0-.3 0-.6 .2-.9c.2-.3 .4-.7 .6-1c1.3-1.7 2.6-2.6 3.9-2.6Z" class="g0_91"/>
<path d="M637.9 348.2l3.7 2.4l-2.9 3.3l-3.2-2l-2.3 2.5l-3.8-2l2.9-3.6l3.2 2.1Zm-256.3 0l3.7 2.4l-2.9 3.3l-3.2-2l-2.3 2.5l-3.8-2l2.9-3.6l3.2 2.1Zm569-12.6l6.9 3.7l-3.6 6.7l-6.9-3.7Zm485.7-.6l5.6 3l-3.1 5.8l-4.4-2.2l-2.5 4.8l-5.5-3l3.3-6.1l4.3 2.4Zm-66.5 0l5.5 3l-3.1 5.8l-4.4-2.2l-2.5 4.8l-5.4-3l3.3-6.1l4.2 2.4ZM334.3 325.7c1 0 1.8 .4 2.5 1.1c.7 .8 1.1 1.7 1.1 2.7c0 1-.4 1.8-1.1 2.6c-.7 .7-1.6 1.1-2.6 1.1c-1 0-1.9-.4-2.6-1.1c-.7-.8-1-1.6-1-2.6c0-1.1 .3-1.9 1.1-2.7c.7-.7 1.6-1.1 2.6-1.1Zm653.7-.9c-.8 1-1.5 1.7-2 2.1c-.4 .4-1.3 1-2.4 1.8c1.5-.1 2.6-.3 3.2-.5c.6-.2 1.5-.6 2.7-1.2Zm229.4-4.9c-.6 0-1.1 .2-1.5 .7c-.4 .5-.6 1-.6 1.6c0 .7 .4 1.3 1.2 1.8c.8 .4 1.8 .7 3.1 .7h1.2c-.6-3.2-1.7-4.8-3.4-4.8Zm-408.3-.2c-.8 0-1.4 .9-2 2.7c1.1 .4 1.9 .7 2.4 .9c1.6 .6 2.5 .9 2.7 .9c.4 0 .7-.2 .7-.5c0-.4-.5-1.2-1.3-2.2c-1-1.2-1.8-1.8-2.5-1.8Zm-26.2-.9c-1.3 0-2.8 .4-4.5 1.2c-1.6 .9-4 2.4-7.1 4.7h7.8c6.5 0 9.8-1.1 9.8-3.1c0-.9-.7-1.6-2.1-2.2c-1.2-.4-2.5-.6-3.9-.6Zm-85-.2c-1.3 2-1.9 3.6-1.9 5c0 .6 .2 1.1 .8 1.6c.5 .5 1.1 .7 1.9 .7c.9 0 2.1-.3 3.4-.7c1.3-.5 1.9-.9 1.9-1.2c0-.4-.7-1.2-2.1-2.4c-1.3-1.2-2.7-2.2-4-3ZM875 315.2c1.4 0 2.8 .8 4.5 2.3c1.6 1.5 3.5 3.9 5.6 7.2v8.1l-3.8-.1c-3.7 0-6.9 .4-9.7 1c-2.8 .6-4.2 1.3-4.2 2.1c.8 2.4 1.5 4.6 2.1 6.7c.6 2.1 .9 4.1 .9 5.9c0 1.4-.2 2.5-.4 3.3c-.3 .8-.8 1.8-1.5 2.7c-.2-2.6-.7-5.3-1.5-8.2c-.2-1-.9-3.2-1.9-6.4c-.7-2-1-3.4-1-4c0-1 .3-2.1 .8-3.5c.4-1.1 .9-2.1 1.4-3c.7-1 1.8-1.8 3.3-2.4c1.6-.6 4-1 7.3-1.4c-1.6-2.2-3-3.3-4.2-3.3c-.5 0-1 .2-1.5 .6c-.4 .4-1.2 1.3-2.2 2.6l-1.4-.7c.9-3 1.9-5.4 3.2-7c1.3-1.7 2.7-2.5 4.2-2.5Zm239.2-.2c-.4 0-.7 .1-1 .4c-.3 .2-.5 .5-.5 .9c0 .8 .7 1.7 2 2.5c1.2 .8 2.7 1.3 4.5 1.6c-.7-1.7-1.5-3-2.4-4c-.8-.9-1.7-1.4-2.6-1.4Zm104.4-3.1c1.6 0 3 1.1 4.1 3.3c1.1 2.2 1.6 4.8 1.6 7.8v7.7c0 3.4-1.4 6.8-4.3 10.1c-2.9 3.4-5.8 5.1-8.6 5.1c-1.6 0-3.4-.6-5.4-1.6c-2-1.1-5-3.1-9-6.2l1.2-1.8c2.2 1.4 3.9 2.4 5.3 2.9c1.1 .4 2.4 .6 3.9 .6c1.9 0 3.8-.6 5.7-1.6c2.2-1.3 4.5-3.4 6.9-6.2c-.8 .2-1.5 .2-2.1 .2c-2 0-3.5-.6-4.7-1.9c-1.2-1.3-1.7-3-1.7-5.2c0-3 .7-5.9 2-8.7c1.5-3 3.2-4.5 5.1-4.5Zm-55.8-.3l1.7 1.1c-.4 .8-.8 1.5-1.1 2.2c-.3 .6-.5 1.2-.7 1.7c-.3 .9-.4 1.8-.4 2.7c0 1.1 .4 2.1 1.1 3c.7 .9 1.7 1.5 2.8 1.8c.7 .2 1.6 .3 2.7 .4c1.2 .1 2.3 .2 3.6 .2h21.6c-.6-1.6-1.1-2.7-1.4-3.3c-.5-.7-1.1-1.7-2.1-2.8l2.7-7c1.5 2.2 2.5 4.1 3 5.9c.3 1.6 .5 3.9 .5 6.8v8.5h-25c-1.2 0-2.2 0-3-.1c-.8 0-1.4 0-1.8 0c-.7-.1-1.6-.3-2.5-.7c-1.6-.5-3-1.7-4-3.4c-1.1-1.7-1.6-3.6-1.6-5.7c0-.8 .1-1.7 .2-2.6c.1-.8 .3-1.8 .6-2.8c.4-1.2 .9-2.2 1.5-3.2c.5-.9 1.1-1.8 1.6-2.7Zm275.7-.1c1.5 1.6 2.5 3.4 3 5.3c.6 1.8 .9 4.6 .9 8.2v7.8h-16.6v.5c-.1 1.8-.4 3.4-.8 4.6c-.5 1.7-1.4 3-2.6 4c-1.2 1-3 1.9-5.4 2.5c-2.4 .7-4.8 1-7.3 1c-4.8 0-8.5-.9-11.1-2.7c-2.7-1.7-4-4.2-4-7.5c0-2.7 .4-5.2 1.3-7.5c.9-2.5 2.7-5.8 5.3-9.9l1.8 1.3c-1.9 3.4-3.2 5.8-3.8 7.3c-.6 1.5-.9 3.1-.9 4.7c0 2.1 1.1 3.8 3.3 5.1c2.3 1.3 5.2 2 8.8 2c3.6 0 6.6-.7 9.1-2.1c2.4-1.4 3.6-3 3.6-5c0-1.3-.2-2.5-.6-3.7c-.4-1.2-1.4-3.1-2.8-5.8l2.7-8.1c1.4 2.6 2.2 4.3 2.5 5.3c.5 1.5 .8 3.3 .9 5.6v.3h13.6c-.2-1.4-.6-2.5-1.2-3.5c-.3-.5-1-1.4-2.1-2.6Zm-775.2-1.3c-.6 0-1.1 .3-1.6 .8c-.4 .5-.7 1.2-.7 1.9c0 .4 .2 .8 .6 1.1c.3 .3 .8 .5 1.4 .5c.4 0 .9-.1 1.4-.4c.4-.3 1-.7 1.7-1.4c-.6-.9-1-1.6-1.4-1.9c-.4-.4-.9-.6-1.4-.6Zm34.3-.4l2.9 1.8c1.3 .8 2.5 1.6 3.6 2.5c1.7 1.2 2.8 2.4 3.4 3.4c.6 1.1 .9 2.5 .9 4.1c0 1.2-.1 2.4-.3 3.6c-.1 1.2-.4 2.2-.7 3c-.5 1.5-1.9 2.9-4.1 4c-2 1.1-3.9 1.6-5.7 1.6c-1.6 0-2.8-.5-3.7-1.6c-.9-1.1-1.4-2.5-1.4-4.3c0-1.6 .2-3.2 .7-4.8c.5-1.5 1.3-3.5 2.5-5.9l-1.1-.7c.4-1 .8-2.1 1.4-3.4c.6-1.3 1.1-2.4 1.6-3.3Zm540.6-5.2c2.6 1.9 4.5 4.4 5.5 7.4c1 2.9 1.5 6.6 1.5 11.2v1.5h19.1c-2.4-2.5-4.6-4.3-6.7-5.4c-1.8-1-3.5-1.5-5.3-1.5c-.5 0-1 .1-1.4 .1c-.4 .1-1 .2-1.8 .4c1-2.6 2.3-4.4 3.6-5.6c1.3-1.2 2.9-1.8 4.6-1.8c1.3 0 2.6 .3 3.8 1c1.2 .6 2.5 1.6 4 3.1c1.2 1.1 2.9 2.8 5.1 5.2c1.5 1.6 2.6 2.7 3.4 3.2c.8 .5 2 .9 3.6 1.3v8.1h-45.5c-1.3 0-2.3-.3-3-.9c-.8-.6-1.3-1.7-1.3-3.3c0-.8 .1-1.8 .2-2.8c.1-1 .2-2 .4-3.1h1.1c.2 .7 .5 1.2 1.1 1.5c.5 .3 1.2 .5 1.9 .5h10.3c-.5-2.9-1.3-5.3-2.4-7c-.9-1.5-2.2-2.7-3.9-3.8Zm-513.5 0c2.6 1.9 4.4 4.4 5.5 7.4c1 2.9 1.5 6.6 1.5 11.2v9.6H718.2c-1.3 0-2.3-.3-3-.9c-.9-.6-1.3-1.7-1.3-3.3c0-.8 .1-1.8 .2-2.8c0-1 .2-2 .4-3.1h1.1c.1 .7 .5 1.2 1 1.5c.6 .3 1.2 .5 2 .5h10.3c-.5-2.9-1.3-5.3-2.4-7c-.9-1.5-2.2-2.7-3.9-3.8Zm684.4-.5l6.9 3.7l-3.6 6.7l-7-3.6Zm-745.2-1.5c2.1 0 4 1.9 5.9 5.5c1.8 3.6 2.8 7.5 2.8 11.5v13.2H650.9c-.9 0-1.5 0-1.9 0c-.4 .1-.6 .2-.6 .4c.6 .4 1.1 .6 1.6 .7c.5 .1 .9 .3 1 .5c.2 .2 .3 .6 .3 1c0 1.4-.4 3.1-1.2 5.1c-.8 1.9-1.6 3.2-2.4 3.6c-.7 .6-2.9 1.4-6.6 2.2c-3.6 .8-6.7 1.2-9.3 1.2c-3.8 0-6.8-.8-9.1-2.4c-2.3-1.5-3.4-3.5-3.4-6c0-2.5 .5-4.8 1.5-7c1.2-2.6 3.5-6 6.8-10.1l1.8 1.3c-2.1 2.5-3.5 4.5-4.3 6.1c-.8 1.6-1.2 3.2-1.2 4.7c0 2.1 .8 3.7 2.6 4.7c1.7 1.1 4.5 1.6 8.1 1.6c1.9 0 4.6-.4 8-1.1c3.3-.7 5-1.3 5-1.8c0-.2-.6-.4-1.9-.6c-1.3-.2-2.7-.3-4.3-.3c-2.2 0-3.4-.5-3.4-1.5c0-.5 .3-1.3 .8-2.5c.4-.8 .8-1.6 1.2-2.4c.7-1.7 2.1-3 4.2-4c2.1-1 4.3-1.5 6.5-1.5h19c0-1.8 0-3-.1-3.7c-.2-1.2-.5-2.2-1-3c-.6 1.2-1.5 2.2-2.6 2.8c-1 .7-2.2 1-3.4 1c-1.6 0-2.9-.5-4-1.5c-1.1-1.1-1.6-2.4-1.6-4c0-2.4 .7-5.1 2.1-8.4c1.6-3.5 3.2-5.3 4.8-5.3Zm516.9-1l5.5 3.1l-3.3 6l-4.2-2.3l-2.4 4.7l-5.6-3.1l3.1-5.8l4.4 2.3Zm-615.7-.5l5.4 3.1l-3.3 6.1l-4.2-2.4l-2.4 4.7l-5.6-3l3.1-5.8l4.5 2.2Zm791.5-2.8v7.1c-.1 0-.9 .2-2.5 .8c-1.9 .6-3.5 1.1-4.6 1.6c-1.7 .7-2.5 1.2-2.5 1.5c0 .2 .7 1 2.1 2.4c1.9 1.8 3.5 3.5 4.9 5.1c2.1 2.6 3.9 5.1 5.2 7.7v.2h13.6c-.2-1.4-.6-2.5-1.2-3.5c-.3-.5-1-1.4-2.1-2.6l2.4-7.1c1.5 1.6 2.5 3.4 3.1 5.3c.5 1.8 .8 4.6 .8 8.2v7.8h-55.1v.7c0 1.2-.7 2.8-2 4.8c-1.4 2-3.1 3.7-4.9 5.2c-2.1 1.6-3.9 2.4-5.3 2.4c-1.8 0-3.7-.5-5.7-1.5c-1.7-.8-4.4-2.5-8.2-5.1l1.3-1.8c1.8 1.1 3.2 2 4.3 2.4c1.1 .4 2.3 .6 3.6 .6c1.3 0 2.7-.4 4.1-1.2c1.3-.7 3.2-2.2 5.6-4.3c3.3-2.9 4.9-5.2 4.9-6.8c0-.8-.3-1.8-.9-3.1c-.8-1.5-1.6-2.7-2.7-3.7l1.7-8c1.4 1.4 2.4 3 3.1 4.8c.8 1.8 1.1 3.8 1.1 6.1v.4h13.6c-.2-1.4-.6-2.5-1.2-3.5c-.3-.5-1-1.4-2.1-2.6l2.4-7.1c1.5 1.6 2.5 3.4 3.1 5.3c.5 1.6 .7 3.9 .8 6.9v1h17.2c-.8-1-1.5-1.8-2.3-2.5c-.6-.5-1.4-1.2-2.4-2c-1.1-.9-2.2-1.7-3.4-2.6l-.9 1c-1.8-1.7-2.8-2.8-3.2-3.1c-1-1.2-1.5-2.5-1.5-4c0-2 .2-3.4 .5-4.2c.3-1.1 1.2-2.2 2.5-3.1c1.1-.8 2.4-1.5 3.7-2.1c1-.5 2.4-1.2 4.1-1.8c.8-.4 2.5-1 5-2Zm-1021.9-.2c2.4 0 4.4 .7 6.1 2c1.7 1.4 2.5 3.2 2.5 5.4c0 1.2-.3 2.3-1.1 3.2c-.8 1.1-1.8 1.6-3.1 1.6c-1 0-1.8-.3-2.5-1c-.6-.6-.9-1.4-.9-2.3c0-1.3 .5-2.3 1.6-3c1.1-.7 1.6-1.3 1.6-1.7c0-.7-.3-1.2-.9-1.6c-.7-.4-1.5-.7-2.5-.7c-1.3 0-2.4 .4-3.2 1.1c-.8 .8-1.2 1.6-1.2 2.7c0 1 .4 2.2 1.2 3.7c1.3 2.3 2.1 3.8 2.3 4.5c.9 2.1 1.3 4.3 1.3 6.8c0 1.3-.1 2.8-.3 4.4l-1.8-.1c0-.3 0-.6 0-.8l.2-1.5c0-1.2-.8-2.4-2.3-3.7c-2.5-2.2-3.8-3.5-4.1-3.7c-1.5-1.8-2.2-3.8-2.2-6c0-2.7 .9-4.9 2.7-6.7c1.8-1.7 4-2.6 6.6-2.6Zm996.7-.2l5.4 3l-3.2 6.1l-4.3-2.4l-2.4 4.7l-5.5-3l3.1-5.8l4.4 2.2Zm-197.6 0l5.6 3l-3.1 5.8l-4.4-2.2l-2.5 4.8l-5.5-3l3.3-6.1l4.3 2.4Zm-697 0l5.6 3l-3.1 5.8l-4.5-2.2l-2.5 4.8l-5.4-3l3.3-6.1l4.2 2.4Zm334.5-.8l6.9 3.7l-3.5 6.6l-7-3.6Zm678.6-.5l1.8 10.5c.7 4 1.1 7.5 1.4 10.5c.2 2.2 .3 4.4 .3 6.5c0 1.8-.2 3.4-.7 4.8c-.4 1.5-1.2 3.5-2.4 5.9l-1.8-.7c.5-2.5 .8-4.6 .8-6.2c0-1.2-.1-3-.3-5.3c-.2-2.4-.5-4.7-.8-7c-.3-2.3-.8-5-1.4-8.2c-.3-1.1-.4-1.9-.4-2.3c0-.6 .3-1.7 .9-3.1c.6-1.5 1.5-3.3 2.6-5.4Zm-356.7 0c1.1 1.6 1.9 3.2 2.4 4.7c.5 1.8 .8 4.1 .8 6.9v5.9c0 4.1 .3 7 .8 8.6c.5 1.3 1.2 2 2.1 2h7.5c.9 0 1.7 0 2.6 .1c2.1 .2 4.6 .5 7.4 .8c-2.9-.7-5-1.5-6.2-2.6c-1.2-1.1-1.8-2.7-1.8-4.7c0-3.1 .8-5.9 2.2-8.4c1.4-2.5 3-3.7 4.8-3.7c2 0 3.7 1.7 5.2 5.2c1.5 3.5 2.3 7.7 2.3 12.6v.7h13.6c-.2-1.4-.6-2.5-1.2-3.5c-.3-.5-1-1.4-2.1-2.6l2.4-7.1c1.5 1.6 2.5 3.4 3 5.3c.6 1.8 .9 4.6 .9 8.2v7.8h-40.6c-2.3 0-4-1-5-2.9c-1.2-2.1-1.8-5.6-1.8-10.6v-8.5c0-2-.2-3.5-.8-4.5c-.2-.5-.8-1.3-1.7-2.3Zm-87.4 0l1.8 10.5c.7 4 1.1 7.5 1.4 10.5c.2 2.2 .3 4.4 .3 6.5c0 1.8-.2 3.4-.6 4.8c-.5 1.5-1.3 3.5-2.5 5.9l-1.7-.7c.4-2.5 .7-4.6 .7-6.2c0-1.2-.1-3-.3-5.3c-.2-2.4-.5-4.7-.8-7c-.3-2.3-.8-5-1.4-8.2c-.3-1.1-.4-1.9-.4-2.3c0-.6 .3-1.7 .9-3.1c.6-1.5 1.5-3.3 2.6-5.4Zm-116.7 0c1.2 1.6 2 3.2 2.5 4.7c.5 1.8 .7 4.1 .7 6.9v5.9c0 4.1 .3 7 .9 8.6c.4 1.3 1.1 2 2.1 2h6.3c2.1 0 3.8-.6 5.2-1.8c1.8-1.5 2.7-3.9 2.7-7l2 .3c0 .7-.1 1.4-.1 2.2c0 .8-.1 1.7-.1 2.7c0 1 .4 1.9 1.1 2.5c.7 .7 1.5 1.1 2.4 1.1h3.6c2.5 0 4.2-.4 5.2-1.1c1.3-.8 1.9-2.3 1.9-4.5c0-.5 .1-.9 .4-1.3c.2-.2 .6-.5 1.1-1l1.2-.9c0 .4 0 .9 .1 1.6c0 .6 0 1 0 1.2c0 1.1-.2 2.6-.5 4.4c.8 .3 1.6 .7 2.5 .9c.9 .3 1.9 .5 2.9 .6c0-.7-.3-1.6-.8-2.6c-.5-1.1-.7-1.8-.7-2.2c0-.5 .1-.9 .2-1.2c0-.1 .3-.4 .7-.9l2.5-3.4c.5 1.2 .9 2.3 1.1 3.4c.3 1 .4 2.3 .4 3.8v3.2h19.2c-2.5-2.5-4.7-4.3-6.7-5.4c-1.8-1-3.6-1.5-5.3-1.5c-.5 0-1 .1-1.4 .1c-.5 .1-1.1 .2-1.9 .4c1.1-2.6 2.3-4.4 3.7-5.6c1.3-1.2 2.8-1.8 4.5-1.8c1.3 0 2.6 .3 3.8 1c1.2 .6 2.6 1.6 4.1 3.1c1.2 1.1 2.9 2.8 5.1 5.2c1.5 1.6 2.6 2.7 3.4 3.2c.8 .5 1.9 .9 3.5 1.3v8.1h-34v-.1h-1.1c-.9-.1-1.7-.2-2.5-.4c-1.4-.3-2.9-.8-4.3-1.5c-1.2 .8-2.2 1.3-3.1 1.6c-.9 .2-2.3 .4-4.1 .4h-4.8c-1.4 0-2.4-.4-3.2-1.1c-.8-.7-1.5-1.8-2.1-3.4c-1.1 1.6-2.3 2.8-3.6 3.5c-1.2 .7-2.6 1-4.2 1h-6.3c-2.4 0-4-1-5.1-2.9c-1.1-2.1-1.7-5.6-1.7-10.6v-8.5c0-2-.3-3.5-.8-4.5c-.3-.5-.9-1.3-1.8-2.3Zm-48.8 0l1.8 10.5c.6 4 1.1 7.5 1.3 10.5c.2 2.2 .3 4.4 .3 6.5c0 1.8-.2 3.4-.6 4.8c-.4 1.5-1.2 3.5-2.4 5.9l-1.8-.7c.5-2.5 .7-4.6 .7-6.2c0-1.2-.1-3-.3-5.3c-.2-2.4-.4-4.7-.7-7c-.3-2.3-.8-5-1.5-8.2c-.2-1.1-.4-1.9-.4-2.3c0-.6 .4-1.7 1-3.1c.6-1.5 1.5-3.3 2.6-5.4Zm-244.4 0l1.8 10.5c.6 4 1.1 7.5 1.3 10.5c.2 2.2 .3 4.4 .3 6.5c0 1.8-.2 3.4-.6 4.8c-.4 1.5-1.2 3.5-2.4 5.9l-1.8-.7c.5-2.5 .7-4.6 .7-6.2c0-1.2-.1-3-.3-5.3c-.2-2.4-.4-4.7-.7-7c-.3-2.3-.8-5-1.5-8.2c-.2-1.1-.3-1.9-.3-2.3c0-.6 .3-1.7 .9-3.1c.6-1.5 1.5-3.3 2.6-5.4Zm-131.3 0l1.8 10.5c.7 4 1.1 7.5 1.4 10.5c.2 2.2 .3 4.4 .3 6.5c0 1.8-.2 3.4-.6 4.8c-.5 1.5-1.3 3.5-2.5 5.9l-1.7-.7c.4-2.5 .7-4.6 .7-6.2c0-1.2-.1-3-.3-5.3c-.2-2.4-.5-4.7-.8-7c-.3-2.3-.8-5-1.4-8.2c-.3-1.1-.4-1.9-.4-2.3c0-.6 .3-1.7 .9-3.1c.6-1.5 1.5-3.3 2.6-5.4Zm525.8-.2l1.2 .4c0 1.3 .3 2.1 .9 2.5c.5 .4 2.1 1 4.8 1.8c0 1.4-.2 2.8-.4 4.2c-.1 .6-.4 1.7-.9 3.2l-2.1-.8c0 2.3-.3 4.7-.8 7c-.6 2.3-1.5 4.6-2.7 6.9c1.1 2 1.7 3.1 1.9 3.5c.4 .9 .7 1.7 .7 2.4v1c0 .4-.2 2.5-.5 6c-2.3 1.1-4.3 1.8-6 2.1c-1.8 .3-4.5 .5-8 .5v-8.8c2-1.1 3.4-1.9 4.3-2.6c.9-.7 2-2 3.4-3.7c-2.3-2.8-3.9-4.9-5-6c-.8-1-1.9-2.1-3.2-3.4c-.3 .7-.5 1.1-.7 1.3c-.1 .3-.3 .4-.4 .4c-.5 0-1.4-.4-2.7-1.3c-1.2-.7-2.1-1.3-2.7-1.9c-.6-.6-1.1-1.7-1.4-3.3c-.4-1.5-.5-3.6-.5-6c0-1.1 0-1.8 .2-2.2c.1-.4 .4-.7 .8-.7c.7 0 2.3 1.2 4.7 3.4c2 1.9 3.8 3.8 5.4 5.7c1.3 1.4 2.4 2.7 3.4 4.1c.9 1.2 2.4 3.3 4.3 6.3c.9-1.7 1.5-3.9 1.8-6.5c.2-1.6 .3-3.5 .3-5.7c-.7-.3-1.2-.7-1.4-1c-.3-.3-.4-.8-.4-1.3c0-1.2 .1-2.4 .4-3.6c.2-1.3 .7-2.6 1.3-3.9Zm-288.9-1.5l5.4 3.1l-3.3 6l-4.2-2.4l-2.4 4.8l-5.5-3.1l3.1-5.8l4.4 2.3Zm473.4-.2l5.6 2.9l-3 6.2l-5.6-3Zm-124.8-.4l1.4 .6c-.1 .3-.1 .6-.1 1c0 .8 .4 1.4 1.2 1.9c1.2 .7 2.3 1.4 3.4 2c-.2 1.7-.4 2.9-.6 3.6c-.3 .8-.7 1.9-1.4 3.3l-.9-.3c0 .3 .3 2 .9 5.1c.5 3.1 1 5.7 1.4 8c.4 2.4 .7 4.1 .8 5.1v.1h1.1c.6 0 1 0 1.3-.1c.6 0 1.2-.1 1.8-.1c-1-1.5-1.7-2.7-2-3.7c-.4-.9-.6-1.9-.6-3.1c0-2.9 1.3-5.5 3.7-7.7c2.5-2.3 5.4-3.4 8.6-3.4c2.2 0 4.3 .8 6.4 2.2c1.8 1.4 3.1 3 4 4.9l-1.2 1.1c-1.6-.6-2.9-1-3.8-1.2c-.9-.1-2.1-.2-3.4-.2c-2.5 0-4.6 .2-6.4 .6c-2.3 .5-3.4 1.2-3.4 2.1c0 1.4 2.7 3.6 8.2 6.8l15.2-4.3l-3.3 8.4c-5.4 1.7-9.8 2.9-13.3 3.8c-3 .8-5.6 1.4-7.7 1.6c-1.5 .3-3.1 .4-4.6 .4h-.7l-.2 1.5c-.6 2.1-2.1 4.1-4.4 5.9c-3.2 2.3-6.9 3.5-10.9 3.5c-3.4 0-6.1-.9-8-2.6c-1.9-1.7-2.9-4.1-2.9-7.2c0-2.8 .4-5.4 1.1-7.5c.8-2.4 2.4-5.4 4.8-8.9l1.8 1.2c-1.5 2.4-2.6 4.4-3.3 6.1c-.6 1.7-1 3.4-1 5.1c0 1.8 .7 3.2 2 4.2c1.4 1 3.3 1.4 5.7 1.4c3.5 0 6.4-.6 8.5-2c2.2-1.3 3.3-3.1 3.3-5.3c0-.4 0-.7 0-.9c0-.2 0-.4 0-.5c0-.8 0-1.6-.2-2.6c-.1-.9-.4-2.8-1-5.7c-.8-4.7-1.7-9.5-2.5-14.2l-1.5-1.1c0-1.9 .9-4.9 2.7-8.9Zm-490.9 0l5.5 2.8l-3 6.2l-5.6-3Zm267.3-.1l1.4 .7c0 .2-.1 .5-.2 1c0 .7 .4 1.3 1.3 1.9c.7 .6 1.9 1.2 3.5 1.9c-.2 1.2-.4 2.5-.8 3.7c-.3 1.2-.7 2.3-1.2 3.2l-1-.4l3.2 18.5v8.1H816.3v-.2h-.4c-1.4-.2-3.1-.6-4.8-1.1c-2.5-.7-4.7-1.5-6.6-2.5c-1.1 1.7-2.6 2.8-4.3 3.4c-.8 .2-1.9 .4-3.3 .4H761.5c-1.4 0-2.5-.4-3.4-1.1c-.8-.7-1.5-1.8-2.1-3.4c-1.3 1.7-2.5 2.9-3.7 3.6c-1 .6-2.4 .8-4.1 .8l-2.2 .1h-4.2c-2.3 0-4-1-5-2.9c-1.2-2.1-1.8-5.6-1.8-10.6v-8.5c0-2-.2-3.5-.7-4.5c-.3-.5-.9-1.3-1.8-2.3l3.2-7.4c1.1 1.6 1.9 3.2 2.4 4.7c.5 1.8 .8 4.1 .8 6.9v5.9c0 4.1 .3 7 .8 8.6c.5 1.3 1.2 2 2.1 2h2.1l4.3-.1c2.3 0 4-.5 5.2-1.7c1.4-1.3 2.3-3.7 2.7-7l2 .3c0 .7-.1 1.3-.1 1.8c-.1 1.3-.1 2.3-.1 3.1c0 1.2 .3 2 .9 2.6c.6 .7 1.3 1 2.3 1c1 0 1.9-.2 2.7-.6c.9-.4 2.2-1.2 3.9-2.5l10.7-7.6c1.2-.9 2.2-1.6 2.8-2c1.5-.8 2.9-1.3 4.2-1.3c2.2 0 4 .8 5.4 2.4c1.5 1.8 2.3 4.6 2.3 8.3v3.3h3.8c1.8 0 3.2-.3 4.3-.7c1.3-.6 2.3-1.5 2.8-2.9c1.1-2.5 2.6-4.6 4.3-6.2c1.6-1.5 2.9-2.2 4-2.2c1 0 2.3 1.5 3.8 4.6c1.2 2.4 1.9 4.7 2.2 6.8v.6h10.8l-3.6-20.3l-1.9-1.2c0-1.2 .2-2.4 .6-3.6c.4-1.5 1.2-3.3 2.3-5.4Zm-244.4 0l1.4 .7c0 .2-.1 .5-.1 1c0 .7 .4 1.3 1.2 1.9c.7 .6 1.9 1.2 3.5 1.9c-.2 1.2-.4 2.5-.8 3.7c-.3 1.2-.7 2.3-1.2 3.2l-1-.4l3.2 18.5v8.1H571.9v-.1h-1c-.9-.1-1.8-.2-2.5-.4c-1.5-.3-2.9-.8-4.4-1.5c-1.1 .8-2.1 1.3-3 1.6c-.9 .2-2.3 .4-4.1 .4H552c-1.3 0-2.4-.4-3.1-1.1c-.8-.7-1.5-1.8-2.1-3.4c-1.1 1.6-2.3 2.8-3.7 3.5c-1.1 .7-2.5 1-4.1 1H514.7l-.2 1.5c-.6 2.1-2 4.1-4.4 5.9c-3.2 2.3-6.8 3.5-10.9 3.5c-3.4 0-6.1-.9-8-2.6c-1.9-1.7-2.9-4.1-2.9-7.2c0-2.8 .4-5.4 1.1-7.5c.8-2.4 2.4-5.4 4.8-8.9l1.8 1.2c-1.5 2.4-2.6 4.4-3.3 6.1c-.6 1.7-1 3.4-1 5.1c0 1.8 .7 3.2 2 4.2c1.4 1 3.3 1.4 5.7 1.4c3.5 0 6.4-.6 8.6-2c2.1-1.3 3.2-3.1 3.2-5.3c0-.4 0-.7 0-.9c0-.2 0-.4 0-.5c0-.8 0-1.6-.2-2.6c-.1-.9-.4-2.8-1-5.7c-.8-4.7-1.7-9.5-2.5-14.2l-1.5-1.1c0-1.9 .9-4.9 2.7-8.9l1.4 .6c-.1 .3-.1 .6-.1 1c0 .8 .4 1.4 1.2 1.9c1.2 .7 2.4 1.4 3.4 2c-.2 1.7-.4 2.9-.6 3.6c-.2 .8-.7 1.9-1.4 3.3l-.9-.3c0 .3 .3 2 .9 5.1c.5 3.1 1 5.7 1.4 8c.4 2.4 .7 4.1 .8 5.1v.1h17.3c-.8-1-1.6-1.8-2.3-2.5c-.6-.5-1.4-1.2-2.4-2c-1.2-.9-2.3-1.7-3.4-2.6l-1 1c-1.7-1.7-2.8-2.8-3.1-3.1c-1-1.2-1.5-2.5-1.5-4c0-2 .1-3.4 .4-4.2c.4-1.1 1.3-2.2 2.6-3.1c1.1-.8 2.3-1.5 3.7-2.1c1-.5 2.4-1.2 4.1-1.8c.8-.4 2.4-1 5-2v7.1c-.1 0-.9 .2-2.5 .8c-1.9 .6-3.5 1.1-4.6 1.6c-1.7 .7-2.6 1.2-2.6 1.5c0 .2 .7 1 2.2 2.4c1.9 1.8 3.5 3.5 4.8 5.1c2.2 2.6 4 5.1 5.3 7.7v.2H539c2.1 0 3.8-.6 5.2-1.8c1.8-1.5 2.7-3.9 2.7-7l2 .3c-.1 .7-.1 1.4-.2 2.2c0 .8 0 1.7 0 2.7c0 1 .3 1.9 1 2.5c.7 .7 1.5 1.1 2.4 1.1h3.7c2.4 0 4.1-.4 5.2-1.1c1.2-.8 1.8-2.3 1.8-4.5c0-.5 .2-.9 .5-1.3c.2-.2 .5-.5 1.1-1l1.1-.9c.1 .4 .1 .9 .1 1.6c0 .6 .1 1 .1 1.2c0 1.1-.2 2.6-.5 4.4c.7 .3 1.5 .7 2.4 .9c1 .3 1.9 .5 2.9 .6c0-.7-.2-1.6-.7-2.6c-.5-1.1-.7-1.8-.7-2.2c0-.5 0-.9 .2-1.2c0-.1 .2-.4 .6-.9l2.6-3.4c.5 1.2 .9 2.3 1.1 3.4c.2 1 .3 2.3 .3 3.8v3.2h10.8l-3.6-20.3l-1.9-1.2c0-1.2 .2-2.4 .6-3.6c.4-1.5 1.2-3.3 2.3-5.4Zm-131.3 0l1.4 .7c0 .2 0 .5-.1 1c0 .7 .4 1.3 1.2 1.9c.8 .6 1.9 1.2 3.6 1.9c-.2 1.2-.5 2.5-.8 3.7c-.4 1.2-.8 2.3-1.2 3.2l-1.1-.4l3.3 18.5v8.1h-35c-2.3 0-4-1-5-2.9c-1.2-2.1-1.8-5.6-1.8-10.6v-8.5c0-2-.2-3.5-.8-4.5c-.2-.5-.8-1.3-1.8-2.3l3.2-7.4c1.2 1.6 2 3.2 2.5 4.7c.5 1.8 .8 4.1 .8 6.9v5.9c0 4.1 .2 7 .8 8.6c.4 1.3 1.1 2 2.1 2h17.7c-.2-1.4-.6-2.5-1.1-3.5c-.3-.5-1-1.4-2.1-2.6l2.3-7.1c1.5 1.6 2.6 3.4 3.1 5.3c.5 1.6 .7 3.9 .8 6.9v1h10.7l-3.6-20.3l-1.9-1.2c0-1.2 .1-2.4 .5-3.6c.5-1.5 1.2-3.3 2.3-5.4Zm-45.1 0l1.4 .7c0 .2 0 .5-.1 1c0 .7 .4 1.3 1.2 1.9c.8 .6 1.9 1.2 3.6 1.9c-.2 1.2-.5 2.5-.8 3.7c-.4 1.2-.8 2.3-1.2 3.2l-1.1-.4l3.3 18.5v8.1H394.6c-.9 0-1.5 0-1.9 0c-.4 .1-.6 .2-.6 .4c.6 .4 1.1 .6 1.6 .7c.5 .1 .9 .3 1 .5c.2 .2 .3 .6 .3 1c0 1.4-.4 3.1-1.2 5.1c-.8 1.9-1.6 3.2-2.4 3.6c-.7 .6-2.9 1.4-6.6 2.2c-3.6 .8-6.7 1.2-9.3 1.2c-3.8 0-6.8-.8-9.1-2.4c-2.3-1.5-3.4-3.5-3.4-6c0-2.5 .5-4.8 1.5-7c1.2-2.6 3.5-6 6.8-10.1l1.8 1.3c-2.1 2.5-3.5 4.5-4.3 6.1c-.9 1.6-1.2 3.2-1.2 4.7c0 2.1 .8 3.7 2.6 4.7c1.7 1.1 4.5 1.6 8.1 1.6c1.9 0 4.6-.4 8-1.1c3.3-.7 5-1.3 5-1.8c0-.2-.6-.4-1.9-.6c-1.3-.2-2.7-.3-4.3-.3c-2.2 0-3.4-.5-3.4-1.5c0-.5 .3-1.3 .8-2.5c.4-.8 .8-1.6 1.2-2.4c.7-1.7 2.1-3 4.2-4c2.1-1 4.3-1.5 6.5-1.5h14l-3.6-20.3l-1.9-1.2c0-1.2 .1-2.4 .5-3.6c.5-1.5 1.2-3.3 2.3-5.4Zm707.7-.3l7 3.7l-3.6 6.7l-7-3.6Zm212.1-2.9l5.5 2.8l-2.9 6.2l-5.6-2.9Zm-664.2-1.4l6.9 3.7l-3.6 6.7l-6.9-3.6Zm314.9-1.5c.3 0 .6 .1 .9 .3c.2 .3 .3 .6 .3 1c0 .3 0 .6-.1 .8c-.1 .2-.3 .6-.6 1.1c-1-.5-1.7-.8-2-.8c-.4 0-.7 .1-1.1 .3c-.2 .1-.4 .2-.6 .5c0 .2 .4 .6 1.4 1.1c.9 .6 1.6 .8 2 .8c.3 0 1-.1 2.2-.4c-.2 .6-.5 1-.8 1.3c-.2 .2-.5 .4-1 .5l-6.4 2c.4-.7 .7-1.2 1-1.5c.3-.2 .8-.5 1.6-.7c-.5-.3-.9-.7-1.2-1c-.2-.3-.4-.6-.4-.9c0-.3 .1-.6 .3-.9c.1-.3 .3-.6 .6-1c1.3-1.7 2.6-2.5 3.9-2.5Zm474.7-.1c.4 0 .6 .2 .9 .4c.2 .2 .3 .6 .3 1c0 .3 0 .6-.1 .8c-.1 .2-.3 .6-.6 1c-1-.5-1.6-.7-2-.7c-.3 0-.7 .1-1.1 .2c-.2 .2-.4 .3-.6 .5c0 .3 .5 .7 1.4 1.2c1 .6 1.6 .8 2.1 .8c.2 0 .9-.1 2.1-.4c-.2 .5-.5 1-.8 1.3c-.2 .2-.5 .4-1 .5l-6.4 2c.4-.7 .7-1.2 1-1.5c.3-.3 .9-.5 1.6-.7c-.5-.4-.9-.7-1.2-1c-.2-.3-.3-.6-.3-.9c0-.3 0-.6 .2-.9c.2-.3 .4-.7 .6-1c1.3-1.7 2.6-2.6 3.9-2.6Z" class="g1_91"/>
<image clip-path="url(#c1_91)" preserveAspectRatio="none" x="1344" y="457" width="108" height="72" href="img/2.jpg"/>
<image clip-path="url(#c2_91)" preserveAspectRatio="none" x="1347" y="550" width="102" height="71" href="img/3.jpg"/>
<image clip-path="url(#c3_91)" preserveAspectRatio="none" x="1347" y="642" width="102" height="74" href="img/4.jpg"/>
<image clip-path="url(#c4_91)" preserveAspectRatio="none" x="1353" y="745" width="96" height="80" href="img/5.jpg"/>
<image clip-path="url(#c5_91)" preserveAspectRatio="none" x="5" y="384" width="941" height="332" href="img/6.jpg"/>
<path d="M835 642v.1l.9-.4h-.1c-.5 0-.9 .3-1.1 .7l-.1 .1l.2-.2l-.4 .4h.1l-1.7 1.8v.1l-1.1 1.3l.3-.3l-1.4 1l-.3 .4l-1.3 2.4l.1-.2l-1.6 2.2v.1l-1.6 2.4v.1l-1.3 2.8l.1-.3l-1.9 2.5l-1.9 2.3l.1-.1l-2 1.8l.3-.2l-2.3 1.4l.2-.1l-2.1 .9l.2-.1l-2.1 .5l.3-.1l-2.5 .1h-1.9l.7 .2l-1.6-1l-1.9-1.1l.5 .6l-.9-2l-1.1-2.5v.2l-.8-2.6v.3l-.1-2.6l-.1-.1l-.3-2.4v.1l-.3-2v-.2l-.4-1.2v.3v-.8l-.1-.5l-.2-.3c-.1-.3-.4-.6-.7-.7l-.2-.1c-.4-.2-.8-.2-1.2 0l-.1 .1h.1l-.6 .2c-.3 .2-.6 .4-.7 .8l-.5 1.2v.3l-.2 1.8v-.2l-.8 2.6v.2l-.7 3.1l-.8 3.6l-.9 3.8l-.1 .1l-.7 5l-.8 5.3l-.8 5.5v-.1l-.9 5.3l-.9 4.7v-.1l-1 4.5l-.6 3.8l-.7 3.5v-.1l-.5 2.4l.1-.3l-.9 1.5l.5-.5l-1.1 .8l.6-.2l-1.6-.2c-.6 0-1 .3-1.1 .8c-.1 .5 .2 1 .7 1.1l1.7 .4l.5-.1l1.3-.3c.3-.1 .5-.3 .7-.5l.9-1.4l.2-.4l.7-2.3l.1-.2l.7-3.4l.6-3.9v.1l.9-4.5h.1l.9-4.7l.9-5.3l.8-5.5l.8-5.3l.7-5v.1l.9-3.7v-.1l.8-3.6l.6-3.2v.1l.8-2.6l.1-.2l.2-1.9l-.1 .3l.5-1.2l-.7 .8l.5-.3l.3-.1l.1-.1l-1.2 .2l.3 .1l-.8-.6l.1 .3l-.1-.6v.9l.1 .3l.4 1.2l-.1-.3l.3 2l.3 2.4v-.1l.2 2.6v.3l.9 2.6v.2l1.2 2.4l.9 2c.1 .3 .3 .5 .5 .7l1.9 1.1l1.5 .9c.3 .2 .5 .2 .8 .2h4.4l.3-.1l2.1-.5l.2-.1l2.1-.8l.2-.1l2.2-1.4l.3-.2l1.9-1.8l.1-.1l1.9-2.3v-.1l2-2.4l.1-.3l1.3-2.8l-.1 .2l1.6-2.4l1.5-2.2v-.1l1.3-2.3l-.4 .4l1.4-1l.2-.3l1-1.3v.1l1.6-1.9h.1l.3-.5l.2-.2v-.1l-1.1 .7h.1c.5 0 .9-.3 1.1-.8c.2-.5 0-1-.3-1.3l-.1-.1c-.4-.4-1.1-.4-1.6 0Z" class="g0_91"/>
<path d="M776.9 652.9l-1.1 3.1l-.1 .5l.1 1.4l.1 .5l.7 1.4l.2 .3l1.5 1.8v.1l1.8 1.8l.2 .2l2.5 1.8h.1L785 667l.2 .1l2.5 .8h.1l2.4 .6l.3 .1h4.6l2.1-.4c.6-.1 1-.6 .9-1.2c-.1-.5-.6-.9-1.1-.9l-2.2 .3h.2l-2.4-.3l-2-.1h.3l-2.4-.7l-2.4-.7l.2 .1l-2-1.2h.1l-2.6-1.7l.2 .2l-1.7-1.9l.1 .1l-1.5-1.8l.2 .3l-.7-1.5l.1 .4l-.3-1.4v.4l.6-3.2c.1-.5-.2-1-.7-1.1c-.5-.2-1 .1-1.2 .6Z" class="g0_91"/>
<path d="M811.8 608.1l-2.1 2.1l-2.2 2.3l-2.2 2.3l-.1 .1l-1.9 2.5l-1.9 2.4v-.1l-1.8 2.1l.1-.1l-1.7 1.7l-1.9 1.6l-1.5 1.3l-1.7 1.4l.1-.1l-1.7 1.3c-.5 .4-.6 1.2-.2 1.7c.4 .6 1.1 .7 1.7 .3l1.7-1.1l1.8-1.2l.1-.1l1.6-1.3l1.9-1.6l.1-.1l1.8-1.7l.1-.1l1.7-2.1h.1l1.9-2.4l1.9-2.5l-.1 .1l2.1-2.4l.2-.1l1.7-2.6l1.7-2.5c.3-.3 .2-.8-.1-1.1c-.4-.3-.9-.3-1.2 0Z" class="g0_91"/>
<path d="M768.9 682.9l-1.7 5.9l-1.7 5.3l-.8 3.2l-.1 .1l-.3 1.6l-.4 1.6l-1.6 5.6l-1.5 5.3l.1-.1l-1.5 4.1l.2-.3l-1.4 2l.1-.2l-1.1 1.2l.6-.3l-1.3 .3l1.1 .4l-1.5-1.8c-.3-.4-.9-.4-1.3-.1c-.4 .3-.5 .9-.2 1.3l1.4 1.8c.1 .3 .4 .4 .7 .5l1.3 .1c.3 0 .6-.1 .9-.2l1.3-1l.3-.3L762 717l.2-.4l1.6-4.2v-.1l1.5-5.3v.1l1.6-5.7v-.1l.4-1.6v-.1l.3-1.6l.7-3.2v.1l1.4-5.4v-.1l1.1-6.1c.1-.5-.2-1-.8-1.1c-.5-.1-1 .2-1.1 .7Z" class="g0_91"/>
<path d="M756.9 653.6l.1 .1c.4 .5 1 .7 1.6 .4c.5-.1 .9-.7 .9-1.3c0-.6-.4-1.1-1-1.3v-.1c-.5-.2-1.1 0-1.5 .4c-.4 .3-.5 .9-.3 1.4v.1c.2 .5 .6 .8 1.2 .9c.5 .1 1-.1 1.3-.6c.3-.4 .4-1 .1-1.5V652c-.3-.5-.8-.8-1.4-.8c-.5 0-1 .4-1.3 .9c-.2 .5-.1 1.1 .3 1.5Z" class="g0_91"/>
<path d="M742.5 685.3l-2.1 3.2l-.1 .1l-1.5 2.9v.2l-1.1 3.2l-.1 .3l-.3 3v-.1l-.4 2.7l.1-.1l-.4 2v-.1l-.4 1.5l.5-.7l-1 .8l.4-.2l-1.2 .5l.5-.1h-1.6h.3l-2-.4l.3 .2l-2.3-1.1h.1l-2-1l.3 .3l-2-1.9l.1 .1l-1.5-1.8l.1 .3L724 697l.1 .1l-1.1-2.4l.1 .2l-.6-2v-.1l-.9-2l.1 .2l-.3-1.6l-.1-.2l-.5-1.4l.1 .3l-.3-1.6v-.1l-.5-2.1l.1 .3v-3.2c0-.6-.5-1.2-1.1-1.2c-.7 0-1.2 .5-1.3 1.1l-.1 3.2v.3l.3 2.1v-.1l.2 1.7l.1 .2l.4 1.4v-.2l.2 1.7l.1 .2l.8 2l-.1-.1l.6 2v.2l1.1 2.4l.1 .1l1.1 2.1l.2 .3l1.6 1.8l.1 .1l2 1.9l.4 .2l2 1l2.3 1.1l.3 .1l2.1 .3l.2 .1h1.6l.6-.1l1.2-.5l.5-.3l1-.8c.2-.2 .3-.5 .4-.8l.4-1.5v-.1l.4-2v-.1l.4-2.7l.3-3l-.1 .4l1.1-3.3l-.1 .2l1.4-2.9l1.6-3.6c.2-.5 0-1.1-.5-1.4c-.5-.3-1.1-.1-1.5 .4Z" class="g0_91"/>
<path d="M728.9 653.5l-1.7 1.8l-.1 .2l-1.3 1.9c-.3 .5-.4 1.1-.1 1.6c.3 .5 .8 .8 1.4 .8h.6c.8 0 1.5-.7 1.5-1.5c0-.9-.7-1.6-1.5-1.6h-.6c-.8 0-1.4 .5-1.5 1.3c-.2 .7 .2 1.5 1 1.7c.7 .3 1.5 0 1.8-.6l1.2-2V657l1.2-2.1c.3-.5 .1-1.2-.3-1.5c-.5-.4-1.2-.3-1.6 .1Z" class="g0_91"/>
<path d="M677.6 730.9h-.4h.2h-.5l.7 .4l-.2-.2c-.3-.5-.8-.6-1.3-.4c-.5 .2-.8 .7-.7 1.2c.1 .6 .6 .9 1.1 .9h.2c.3 0 .6-.1 .9-.3c.2-.3 .3-.6 .2-.9v-.1l-.2 .8l.3-.4l.1-.1l.4-.8l.1-.1l.3-.8l-.1 .1l.5-.8l.1-.3l.2-.7l.1-.2v-.5v.1l.1-.3v-.4l-.1-.4c0-.6-.6-1-1.2-1c-.6 .1-1.1 .6-1.1 1.2c.1 .6 .6 1.1 1.2 1.1h.2c.5 0 .9-.3 1.1-.8v-.1l-.2 .4l.1-.2c.3-.3 .4-.8 .2-1.2V726l-.1-.1c-.2-.3-.5-.5-.9-.5c-.4 0-.8 .2-1 .6c-.2 .4-.1 .8 .1 1.1l.2 .3l-.2-.3l.5 1.1l.1 .3l1.9 2.6l-.2-.7v1.5v-.1l-.2 1.6v-.1l-.3 1.7v-.2l-.4 1.4c-.1 .2-.1 .4 0 .6l.3 1.6v-.3v1l-.1 .7l.1-.4l-.3 .7v.1l-.1 .4l-.1 .2l-.2 .7l.6-.9l-.7 .5c-.3 .2-.6 .5-.6 .9l-.2 .7l.6-.8l-1 .7h-.1l-.9 .8l-.3 .4l-.8 1.3l.6-.6l-1.7 .9l-.1 .1l-2.1 1.2L670 748l.2-.1l-3.5 1.3l-.1 .1l-3.7 1.8l-4.3 2l-4.4 1.8l-.1 .1l-4.4 2.2l-4.4 2.3l-3.6 1.9l-3.8 1.9h.1l-3.4 1.5l.1-.1l-3.1 1.1h.2l-2.7 .7l.1-.1l-2.2 .5h.3h-1.4h.1l-1.2-.1l.3 .1l-1.2-.4l.2 .1l-1.2-.7l.3 .3l-1.1-1.1l.3 .5l-.3-.8l-.3-.8l.1 .3l-.3-1.8v.4l.2-1.6l.1-.2V759l-.7 1.1l.5-.2l-.7 .1h.4h-.5l.4 .1l-.4-.2l.4 .3l-.5-.9v.2l.8-1.5l-.8 .4c-.2 .1-.3 .2-.5 .4l-.8 1l-1 1.4l-.1 .1l-1.1 1.6l-.1 .1l-1.2 1.9v.1l-.8 1.6l.2-.4l-1.3 1.3l.2-.2l-1.4 1l.3-.2l-1.4 .5l.2-.1l-1.6 .2h.2h-1.4h.3l-1.3-.1l.8 .3l-.9-.7l.4 .4l-.8-1.3l.1 .2l-.7-1.7l.1 .2l-.4-2.2v.2l-.1-2.6l-.1-.1l-.3-2.4l.1 .1v-5l-.1-.3l-.4-1.9l-.1-.1l-.4-1.5c-.1-.3-.2-.5-.4-.6l-.9-1l-.4-.3l-1-.5l-.3-.1l-1-.3l-.5-.1h-1.3l-1.7 .3l-.2 .1l-1.9 .5l-.1 .1l-2.5 .9l-.2 .1l-2.3 1.3l-.3 .3l-1.8 1.7l-.1 .1l-1.8 2.2l-.2 .3l-1.2 2.6v.1l-1 2.5l-.1 .2l-.6 2.5l-.1 .3l-.1 2.2v.4l.4 1.9l.1 .2l.6 1.6l.3 .5l1.1 1.1l.1 .1l1 .8l.5 .3l1.4 .4l.3 .1h1.9l1.9-.3l.2-.1l2.3-.7l.4-.3l1.9-1.5l.2-.2l1.9-2v-.1l2.2-2.8c.4-.5 .3-1.2-.2-1.6c-.5-.4-1.2-.4-1.6 .1l-2.3 2.8l.1-.1l-2 1.9l.1-.1l-2 1.4l.4-.2l-2.3 .7h.2l-1.8 .3h.3l-1.6-.1h.3l-1.4-.4l.6 .3l-1-.8h.1l-1-1l.3 .4l-.6-1.6v.3l-.3-1.9v.4l.1-2.3v.3l.6-2.5l-.1 .2l1.1-2.4l1.2-2.6l-.2 .3l1.7-2.2l-.1 .1l1.8-1.7l-.3 .2l2.3-1.3l-.2 .1l2.5-.9h-.2l2-.5h-.1l1.7-.3h-.3h1l-.5-.1l1.1 .3h-.2l1.1 .5l-.4-.3l1 .9l-.4-.6l.5 1.6l-.1-.1l.5 1.9V754v5.2l.3 2.5v-.1l.1 2.5v.2l.5 2.3l.1 .3l.6 1.7l.1 .1l.8 1.3l.3 .4l.8 .7c.2 .2 .5 .3 .7 .3l1.2 .2h1.8l1.6-.2l.3-.1l1.4-.4l.4-.2l1.4-1l.2-.1l1.3-1.4l.3-.3l.8-1.6l-.1 .1l1.2-1.9l1.1-1.6l1-1.4h.1l.7-1l-.5 .4l.8-.4c.5-.3 .9-.9 .7-1.5l-.1-.3c0-.3-.2-.5-.5-.7l-.3-.3l-.4-.1l-.3-.2l-.5-.1H621c-.2 0-.4 .1-.6 .2l-.5 .3c-.4 .2-.7 .7-.7 1.2v.8v-.1V761v-.1l-.3 1.6v.5l.4 1.8l.1 .3l.3 .7l.3 .7l.3 .5l1 1l.3 .2l1.2 .7l.2 .1l1.3 .4l.3 .1l1.2 .1h1.8l2.2-.5l2.6-.6l.2-.1l3-1l.1-.1l3.4-1.4l.1-.1l3.8-1.9l3.6-1.9l4.4-2.3l4.4-2.2l-.1 .1l4.4-1.8h.1l4.4-2.1l3.7-1.8l-.1 .1l3.4-1.3l.2-.1l2.4-1.4l2.1-1.2l-.1 .1l1.8-1c.2-.1 .4-.3 .6-.6l.7-1.3l-.3 .4l.9-.9l-.1 .1l.9-.7c.3-.2 .5-.6 .5-.9l.1-.8l-.5 .9l.7-.5c.3-.2 .5-.5 .5-.9l.1-.7v.1l.1-.4v.1l.2-.6l.1-.4v-1.9l-.1-.3l-.4-1.6v.7l.4-1.4l.1-.1l.3-1.7v-.1l.1-1.6l.1-1.5c0-.3-.1-.5-.3-.7l-1.9-2.6l.1 .2l-.4-1.1l-.1-.1l-.2-.3c-.2-.3-.5-.5-.9-.5c-.4 0-.8 .2-1 .5v.2l.2-.4l-.1 .2l-.4 .4v.2l1.1-.8h-.2c-.3 0-.6 .1-.9 .4c-.2 .2-.3 .6-.3 .9l.1 .4v-.5l-.1 .4v.7v-.2l-.2 .7l.1-.2l-.5 .8v.2l-.3 .8V730l-.4 .7l.1-.1l-.3 .3c-.1 .2-.2 .4-.2 .6v.1l1.1-1h-.2c-.5 0-.9 .3-1.1 .8c-.1 .4 .1 1 .5 1.2l.2 .2c.2 .2 .5 .2 .8 .2l.5-.1c.3 0 .6-.2 .7-.4l.3-.4c.1-.2 .1-.6 0-.8c-.2-.3-.5-.4-.8-.4Z" class="g0_91"/>
<path d="M609.4 721.6l.5 4.3l.3-1l-.7 .9l-.1 .1l-.3 .4c-.2 .3-.3 .7-.3 1.1l.1 .4v.3l.1 .2c.1 .6 .6 1 1.1 1.1l.4 .1l.6 .1l.5-.1c.6-.1 1.1-.6 1.2-1.2l.1-.6v-.3l-.1-.4l-.1-.3l-.5-1.3c-.2-.6-.8-.8-1.4-.6c-.5 .2-.8 .8-.6 1.3l.4 1.4l.1-.9l-.2 .4l-.3 .4l1.4-.7h-.5l.5 .1l-.4-.2l.8 1.2v-.2l-.1-.5l-.1 .6l.2-.5v.1l.5-1.1c.1-.3 .1-.6 0-.9l-1.1-4.1c-.2-.5-.7-.8-1.2-.7c-.5 .1-.9 .6-.8 1.1Z" class="g0_91"/>
<path d="M588.8 731.8l-1.5 1.2l-.2 .1l-1.7 1.8l.1-.1l-3.6 3h.1l-3.4 2.6h.1l-3.2 2.4l.4-.2l-3.2 1.3l.2-.1l-2.6 .8l1.4 .3l-2.7-2.3l-.1-.1l-4.9-3.3c-.4-.3-.8-.2-1.1 .1c-.3 .4-.3 .8 0 1.1l4.3 4.2l2.6 2.4c.3 .3 .8 .4 1.2 .3l2.6-.5l.2-.1l3.2-1.1l.5-.3l3.1-2.4l3.3-2.7l.1-.1l3.4-3.3l.1-.1l1.6-1.8l-.1 .1l1.4-1.3c.4-.5 .5-1.2 .1-1.7c-.5-.5-1.2-.6-1.7-.2Z" class="g0_91"/>
</svg>