<svg viewBox="0 0 1466 825" version="1.1" xmlns="http://www.w3.org/2000/svg">
<defs>
<clipPath id="c0_107"><path d="M-.2 825.3V-.2H1467V825.3Z"/></clipPath>
<clipPath id="c1_107"><path d="M18.6 825.3V434H1443.5V825.3Z"/></clipPath>
<style>
.g0_107{fill:#F00;}
.g1_107{fill:none;stroke:#000;stroke-width:1.466;stroke-linejoin:round;}
.g2_107{fill:none;stroke:#F00;stroke-width:9.166;stroke-miterlimit:8;}
</style>
</defs>
<image clip-path="url(#c0_107)" preserveAspectRatio="none" x="0" y="-7" width="1467" height="840" href="img/1.jpg"/>
<path fill-rule="evenodd" d="M1055.6 339.1l4.2 2.1l-2 3.7l-4.2-2.1l-1.9 3.5l-4.2-2.2l2.1-3.7l4 2.1Zm114.4-9.3l5 2.7l-2.8 5.2l-4-2l-2.2 4.4l-4.9-2.8l2.9-5.5l3.9 2.2Zm-155.6 0l4.9 2.7l-2.7 5.2l-4-2l-2.3 4.4l-4.9-2.8l3-5.5l3.8 2.2Zm-718-8.4c.9 0 1.6 .4 2.3 1c.6 .7 .9 1.5 .9 2.4c0 .9-.3 1.7-1 2.3c-.6 .7-1.4 1-2.3 1c-.9 0-1.7-.3-2.3-1c-.7-.6-1-1.4-1-2.3c0-.9 .3-1.7 1-2.4c.6-.6 1.4-1 2.4-1Zm1077-5.3c-.6 0-1 .3-1.4 .7c-.3 .4-.5 .9-.5 1.4c0 .7 .4 1.2 1.1 1.6c.7 .5 1.6 .7 2.8 .7h1c-.5-2.9-1.5-4.4-3-4.4Zm-879.3 0c-.6 0-1 .3-1.3 .7c-.4 .4-.5 .9-.5 1.4c0 .7 .3 1.2 1 1.6c.7 .5 1.7 .7 2.8 .7h1.1c-.6-2.9-1.6-4.4-3.1-4.4ZM1447 316c-.7 0-1.3 .8-1.8 2.4c.9 .4 1.7 .6 2.1 .8c1.5 .5 2.3 .8 2.5 .8c.4 0 .6-.1 .6-.4c0-.4-.4-1-1.2-2c-.8-1.1-1.6-1.6-2.2-1.6Zm-705.3 0c-.7 0-1.3 .8-1.8 2.4c1 .4 1.7 .6 2.2 .8c1.4 .5 2.2 .8 2.4 .8c.4 0 .6-.1 .6-.4c0-.4-.4-1-1.2-2c-.8-1.1-1.6-1.6-2.2-1.6Zm-227 0c-.7 0-1.2 .8-1.7 2.4c.9 .4 1.6 .6 2.1 .8c1.4 .5 2.3 .8 2.4 .8c.4 0 .6-.1 .6-.4c0-.4-.4-1-1.1-2c-.9-1.1-1.6-1.6-2.3-1.6Zm831-.8c-1.2 0-2.5 .3-4 1.1c-1.5 .7-3.6 2.2-6.4 4.2h7c5.9 0 8.9-.9 8.9-2.8c0-.8-.7-1.4-2-1.9c-1-.5-2.2-.6-3.5-.6Zm-108.4 0c-1.1 0-2.5 .3-3.9 1.1c-1.5 .7-3.7 2.2-6.5 4.2h7.1c5.9 0 8.8-.9 8.8-2.8c0-.8-.6-1.4-1.9-1.9c-1.1-.5-2.2-.6-3.6-.6Zm-300 0c-1.1 0-2.5 .3-4 1.1c-1.4 .7-3.6 2.2-6.4 4.2H934c5.9 0 8.8-.9 8.8-2.8c0-.6-.6-1.2-2-1.7c-1.3-.6-2.5-.8-3.5-.8Zm-272.9-3.5c-.4 0-.7 .1-1 .4c-.3 .2-.4 .5-.4 .8c0 .8 .6 1.5 1.7 2.3c1.2 .7 2.6 1.2 4.2 1.4c-.7-1.5-1.4-2.7-2.2-3.6c-.8-.8-1.6-1.3-2.3-1.3Zm-256 0c-.3 0-.7 .1-.9 .4c-.3 .2-.4 .5-.4 .8c0 .8 .6 1.5 1.7 2.3c1.2 .7 2.5 1.2 4.1 1.4c-.6-1.5-1.3-2.7-2.1-3.6c-.8-.8-1.6-1.3-2.4-1.3Zm-17.8 0c-.3 0-.6 .1-.9 .4c-.3 .2-.4 .5-.4 .8c0 .8 .6 1.5 1.7 2.3c1.2 .7 2.6 1.2 4.1 1.4c-.6-1.5-1.3-2.7-2.1-3.6c-.8-.8-1.6-1.3-2.4-1.3Zm672.9-1.4c1 0 1.9 .4 2.5 1.2c.6 .8 .9 1.8 .9 3.2c0 1-.1 1.8-.3 2.4c-.2 .7-.6 1.5-1.3 2.6c-.5-1.3-.9-2.1-1.2-2.5c-.3-.4-.8-.6-1.4-.6c-1 0-2.3 .6-4 1.7c-1.7 1.1-2.5 2-2.5 2.8c0 .3 .3 .6 1 .8c.5 .1 1.2 .2 2.2 .2c.3 0 .6 0 .8 0c.3 0 .5-.1 .8-.1c2 0 3.3 .2 3.9 .6c.6 .4 .8 1 .8 2c0 1.9-.3 3.8-1 5.6c-.9 2.2-2.2 3.8-3.9 4.7c-2.2 1.2-4.4 2.2-6.7 2.9c-2.3 .8-4.4 1.1-6.4 1.1c-5.6 0-8.4-2.5-8.4-7.4c0-2.6 .4-4.8 1-6.6c.7-2 2.1-4.8 4.4-8.3l1.2 .8c-1.3 2.3-2.3 4.3-2.9 6c-.7 1.8-1 3.3-1 4.6c0 3.4 1.9 5.1 5.7 5.1c1.4 0 2.8-.2 4.1-.4c1.3-.3 2.6-.7 3.9-1.1c.9-.3 1.8-.7 2.9-1.2c1.8-.8 2.8-1.2 2.9-1.3c.8-.4 1.2-.8 1.2-1.1c0-.2-.5-.3-1.3-.4c-.9 0-1.5 0-1.9 0c-2.7 0-4.6-.4-5.5-1.2c-.7-.6-1.1-1.8-1.1-3.6c0-.8 .2-1.8 .8-3.1c.5-1.2 1.2-2.5 2-3.7c1.4-1.9 2.7-3.3 4-4.3c1.3-1 2.5-1.4 3.8-1.4Zm-713.5 0c1 0 1.8 .4 2.4 1.2c.7 .8 1 1.8 1 3.2c0 1-.1 1.8-.3 2.4c-.2 .7-.7 1.5-1.3 2.6c-.5-1.3-.9-2.1-1.2-2.5c-.4-.4-.8-.6-1.5-.6c-.9 0-2.2 .6-3.9 1.7c-1.7 1.1-2.6 2-2.6 2.8c0 .3 .4 .6 1 .8c.5 .1 1.3 .2 2.3 .2c.3 0 .5 0 .8 0c.2 0 .5-.1 .8-.1c1.9 0 3.2 .2 3.9 .6c.5 .4 .8 1 .8 2c0 1.9-.4 3.8-1.1 5.6c-.9 2.2-2.2 3.8-3.9 4.7c-2.1 1.2-4.3 2.2-6.6 2.9c-2.3 .8-4.5 1.1-6.4 1.1c-5.6 0-8.4-2.5-8.4-7.4c0-2.6 .3-4.8 .9-6.6c.7-2 2.2-4.8 4.5-8.3l1.2 .8c-1.3 2.3-2.3 4.3-3 6c-.6 1.8-1 3.3-1 4.6c0 3.4 2 5.1 5.8 5.1c1.4 0 2.8-.2 4-.4c1.3-.3 2.6-.7 4-1.1c.8-.3 1.8-.7 2.9-1.2c1.8-.8 2.7-1.2 2.8-1.3c.8-.4 1.2-.8 1.2-1.1c0-.2-.4-.3-1.3-.4c-.8 0-1.4 0-1.8 0c-2.8 0-4.6-.4-5.5-1.2c-.8-.6-1.2-1.8-1.2-3.6c0-.8 .3-1.8 .8-3.1c.6-1.2 1.3-2.5 2.1-3.7c1.3-1.9 2.6-3.3 3.9-4.3c1.3-1 2.6-1.4 3.9-1.4Zm366.2-.9c-.6 .2-1 .5-1.3 .6c-1 .5-1.8 1-2.4 1.5c-.4 .3-.8 .7-1.1 1c-.3 .4-.5 .6-.5 .8c0 .3 .3 .5 .9 .6c.7 .2 1.3 .3 1.9 .3c.4 0 .8-.2 1.2-.4c.5-.2 1.1-.6 1.8-1.2Zm-127.9-.7l1.5 1c-.4 .7-.8 1.4-1 2c-.3 .5-.5 1.1-.6 1.5c-.3 .8-.4 1.6-.4 2.4c0 1 .3 1.9 .9 2.8c.7 .8 1.6 1.3 2.6 1.6c.7 .1 1.5 .2 2.5 .3c1 .1 2 .2 3.2 .2h19.4c-.5-1.5-1-2.4-1.3-2.9c-.4-.7-1-1.6-1.8-2.6l2.4-6.3c1.4 1.9 2.3 3.7 2.7 5.3c.3 1.4 .5 3.5 .5 6.2v7.6H596.4c-1.1 0-2 0-2.7-.1c-.8 0-1.3 0-1.7 0c-.6-.1-1.4-.3-2.2-.6c-1.5-.5-2.7-1.5-3.7-3.1c-.9-1.5-1.4-3.2-1.4-5.1c0-.8 .1-1.5 .2-2.3c.1-.8 .3-1.7 .6-2.6c.3-1 .8-2 1.2-2.8c.5-.9 1-1.7 1.6-2.5ZM955 307.4c-.5 0-1 .3-1.4 .8c-.5 .5-.7 1-.7 1.7c0 .4 .2 .7 .5 1c.3 .3 .8 .4 1.3 .4c.4 0 .8-.1 1.2-.4c.5-.2 1-.6 1.6-1.2c-.5-.8-.9-1.4-1.3-1.8c-.4-.3-.8-.5-1.2-.5Zm-274.1 0c-.5 0-1 .3-1.4 .8c-.4 .5-.7 1-.7 1.7c0 .4 .2 .7 .5 1c.4 .3 .8 .4 1.3 .4c.4 0 .8-.1 1.2-.4c.5-.2 1-.6 1.6-1.2c-.5-.8-.9-1.4-1.3-1.8c-.3-.3-.7-.5-1.2-.5Zm618.3-1c2 0 3.7 .6 5 1.7c1.3 1.1 1.9 2.5 1.9 4.3c0 1-.2 2-.8 3c-.6 1-1.4 1.8-2.4 2.3c.9 1 2 1.8 3.3 2.3c.9 .3 1.7 .5 2.4 .5h2l3.8-.1c2.1 0 3.7-.5 4.8-1.5c1.2-1.2 2-3.3 2.4-6.3l1.8 .3c0 .6-.1 1.1-.1 1.5c-.1 1.2-.1 2.2-.1 2.9c0 1 .3 1.8 .8 2.3c.5 .6 1.3 .9 2.1 .9c.9 0 1.7-.2 2.5-.6c.7-.3 1.9-1.1 3.5-2.2l9.6-6.9c1.1-.8 1.9-1.3 2.5-1.7c1.3-.8 2.6-1.2 3.8-1.2c2 0 3.6 .7 4.8 2.1c1.4 1.7 2.1 4.2 2.1 7.5v10.3h-28.4c-1.3 0-2.3-.4-3.1-1c-.7-.6-1.4-1.7-1.9-3.1c-1.2 1.6-2.3 2.7-3.3 3.3c-.9 .5-2.2 .7-3.8 .7l-2 .1h-3.8c-2.5 0-4.5-.5-6.1-1.5c-1.7-1.1-3.3-3.1-4.6-6c-2 1.4-3.6 2.9-4.7 4.6c-1.1 1.7-1.6 3.4-1.6 5.2c0 3.2 1.4 5.5 4.2 7c2.8 1.6 7.2 2.4 13.2 2.4c1 0 1.9-.1 3-.1c1 0 2 0 2.8-.1l.2 1.2l-9.9 6c-5.8 0-10-1.1-12.6-3.2c-2.7-2.2-4-5.7-4-10.4c0-3.2 .6-6.2 1.9-8.8c1.2-2.6 3.2-5.1 5.9-7.5c-.2-1.3-.7-2-1.4-2c-.3 0-.6 .1-.7 .3c-.2 .3-.4 .5-.6 .7l-1.3-.3c0-2.5 .5-4.5 1.6-6.1c1.3-1.9 3-2.8 5.3-2.8Zm-829.9-4c2.3 1.7 3.9 4 4.9 6.7c.9 2.5 1.3 5.9 1.3 10.1v8.6H463.4c-1.2 0-2.1-.3-2.7-.8c-.8-.6-1.2-1.6-1.2-3c0-.8 0-1.6 .1-2.5c.1-.9 .2-1.8 .4-2.8h1c.1 .6 .5 1 1 1.3c.5 .3 1.1 .5 1.7 .5H473c-.4-2.7-1.1-4.8-2.2-6.3c-.8-1.4-2-2.5-3.5-3.4Zm212.1-1.8c1.9 0 3.7 1.7 5.3 4.9c1.7 3.3 2.5 6.8 2.5 10.4v11.9H654.6v.6c0 1.1-.6 2.5-1.8 4.3c-1.3 1.8-2.8 3.4-4.4 4.7c-1.9 1.5-3.5 2.2-4.8 2.2c-1.6 0-3.3-.4-5.1-1.3c-1.6-.8-4-2.3-7.4-4.6l1.1-1.7c1.7 1.1 3 1.8 3.9 2.2c1 .3 2.1 .5 3.2 .5c1.3 0 2.5-.3 3.7-1c1.3-.7 3-2 5.1-3.9c3-2.7 4.4-4.7 4.4-6.1c0-.8-.2-1.7-.8-2.9c-.7-1.3-1.4-2.4-2.4-3.3l1.5-7.2c1.3 1.2 2.2 2.7 2.8 4.3c.7 1.6 1 3.5 1 5.6v.3h3c.9 0 1.6 0 2.4 .1c1.9 .2 4.2 .4 6.7 .7c-2.7-.6-4.5-1.4-5.6-2.3c-1.1-1-1.6-2.4-1.6-4.3c0-2.8 .7-5.3 1.9-7.5c1.3-2.2 2.8-3.4 4.3-3.4c1.9 0 3.4 1.6 4.8 4.7c1.3 3.2 2 6.9 2 11.4v.6h14.2c0-1.6 0-2.7-.1-3.4c-.2-1-.5-1.9-.9-2.6c-.6 1.1-1.4 1.9-2.3 2.5c-1 .6-2 .9-3.1 .9c-1.4 0-2.7-.5-3.6-1.4c-1-1-1.5-2.1-1.5-3.6c0-2.1 .6-4.6 1.9-7.5c1.4-3.2 2.9-4.8 4.3-4.8Zm-77-1l5 2.7l-2.8 5.2l-4-2l-2.2 4.4l-4.9-2.8l3-5.5l3.8 2.2Zm113.3-2.1l2.6 16.7c.4 2.6 .9 4.4 1.6 5.4c.4 .6 1 .9 1.8 .9h7c1.6 0 2.9-.2 3.9-.6c1.2-.5 2-1.4 2.5-2.6c1-2.3 2.3-4.2 3.9-5.6c1.4-1.3 2.6-2 3.6-2c.9 0 2 1.4 3.4 4.1c1.4 3 2.1 5.6 2.1 8.1v5.8c-1.9 0-4.1-.3-6.6-1.1c-2.3-.6-4.2-1.4-5.9-2.2c-1.1 1.5-2.4 2.5-3.9 3c-.7 .3-1.7 .4-3 .4h-7c-.7 0-1.3-.2-1.8-.4c-1-.5-1.9-1.5-2.6-2.9c-1-1.9-1.6-4.5-1.9-7.8c-1.2 1.5-2.2 2.6-2.9 3.2c-.9 .9-1.8 1.4-2.4 1.4c-.4 0-.8-.1-1.3-.2l-3.3-.6c-1.4-.3-2.2-.5-2.6-.6c-.3-.2-.5-.4-.5-.7c0-.5 .7-2 1.9-4.6c1.3-2.5 2.2-4.1 2.7-4.7c.5-.5 1.3-1.2 2.4-1.9c.7-.5 1.6-1.1 2.9-1.8l1.4-.9c0-.2-.1-.5-.1-.7c0-.3 0-.5 0-.8c0-.6 .1-1.5 .4-2.5c.3-1 .9-2.3 1.7-3.8Zm34.9-.1c1 0 2.6 .6 4.7 1.9c2.1 1.2 4.1 2.7 5.9 4.4c4.2 3.9 6.2 7.4 6.2 10.6c0 .6-.1 1-.2 1.5c-.2 .5-.5 1.1-.9 1.8c-1-2.4-2.2-4.3-3.5-5.9c-1.3-1.5-2.8-2.7-4.5-3.6c0 .8-.1 1.3-.3 1.7c-.1 .3-.4 .5-.7 .5c-.6 0-1.5-.5-3-1.5c-1.5-1.1-2.6-2.2-3.3-3.2c-.5-.7-.9-1.7-1.1-3c-.2-1.3-.4-2.4-.4-3.3c0-1.3 .4-1.9 1.1-1.9Zm-455.8-.9c2.1 0 3.9 .6 5.4 1.8c1.5 1.3 2.3 2.9 2.3 4.9c0 1.1-.3 2.1-1 2.9c-.7 1-1.7 1.4-2.8 1.4c-.9 0-1.6-.3-2.2-.9c-.6-.6-.9-1.2-.9-2c0-1.2 .5-2.2 1.5-2.8c1-.6 1.4-1.1 1.4-1.5c0-.6-.2-1.1-.8-1.5c-.6-.3-1.3-.5-2.3-.5c-1.1 0-2.1 .3-2.8 1c-.8 .6-1.1 1.4-1.1 2.4c0 .8 .3 2 1.1 3.3c1.1 2.1 1.8 3.4 2.1 4.1c.7 1.8 1.1 3.9 1.1 6.1c0 1.1-.1 2.5-.3 3.9h-1.6c0-.3 0-.6 0-.8l.2-1.3c0-1.1-.7-2.1-2-3.3c-2.3-2-3.5-3.2-3.7-3.4c-1.4-1.6-2-3.4-2-5.4c0-2.4 .8-4.4 2.4-6c1.6-1.6 3.6-2.4 6-2.4Zm1038.5-.9l6.2 3.3l-3.2 6l-6.3-3.2Zm-399.2 0l6.3 3.3l-3.3 6l-6.2-3.2Zm487.2-.4c1.1 1.4 1.8 2.8 2.2 4.2c.5 1.6 .7 3.7 .7 6.2v5.3c0 3.8 .3 6.4 .8 7.8c.4 1.2 1 1.8 1.9 1.8h7.1c1.6 0 2.9-.2 3.8-.6c1.3-.5 2.1-1.4 2.6-2.6c1-2.3 2.3-4.2 3.9-5.6c1.4-1.3 2.6-2 3.6-2c.9 0 2 1.4 3.4 4.1c1.4 3 2.1 5.6 2.1 8.1v5.8c-1.9 0-4.1-.3-6.6-1.1c-2.3-.6-4.2-1.4-6-2.2c-1 1.5-2.3 2.5-3.8 3c-.7 .3-1.7 .4-3 .4h-7.1c-2.1 0-3.6-.9-4.6-2.6c-1-1.9-1.5-5.1-1.5-9.6V308c0-1.8-.3-3.1-.8-4.1c-.2-.5-.7-1.1-1.6-2Zm-24.1 0l1.6 9.5c.6 3.6 1.1 6.7 1.3 9.4c.2 2 .2 4 .2 5.9c0 1.6-.1 3-.5 4.3c-.4 1.3-1.1 3.1-2.2 5.3l-1.6-.6c.4-2.3 .6-4.2 .6-5.6c0-1.1 0-2.7-.2-4.8c-.2-2.1-.4-4.2-.7-6.3c-.3-2.1-.7-4.5-1.3-7.4c-.2-1-.3-1.7-.3-2c0-.6 .2-1.5 .8-2.9c.6-1.3 1.3-2.9 2.3-4.8Zm-133.1 0l1.6 9.5c.6 3.6 1.1 6.7 1.3 9.4c.2 2 .2 4 .2 5.9c0 1.6-.1 3-.5 4.3c-.4 1.3-1.1 3.1-2.2 5.3l-1.6-.6c.4-2.3 .6-4.2 .6-5.6c0-1.1 0-2.7-.2-4.8c-.2-2.1-.4-4.2-.7-6.3c-.3-2.1-.7-4.5-1.3-7.4c-.2-1-.3-1.7-.3-2c0-.6 .2-1.5 .8-2.9c.6-1.3 1.3-2.9 2.3-4.8Zm-156.9 0l1.6 9.5c.6 3.6 1 6.7 1.3 9.4c.1 2 .2 4 .2 5.9c0 1.6-.2 3-.6 4.3c-.3 1.3-1.1 3.1-2.1 5.3l-1.6-.6c.4-2.3 .6-4.2 .6-5.6c0-1.1-.1-2.7-.3-4.8c-.1-2.1-.4-4.2-.6-6.3c-.3-2.1-.7-4.5-1.3-7.4c-.3-1-.4-1.7-.4-2c0-.6 .3-1.5 .9-2.9c.5-1.3 1.3-2.9 2.3-4.8Zm-142.4 0c1.1 1.4 1.8 2.8 2.2 4.2c.5 1.6 .7 3.7 .7 6.2v5.3c0 3.8 .3 6.4 .8 7.8c.4 1.2 1 1.8 1.9 1.8h20.9c-2.2-2.3-4.2-3.9-6-4.9c-1.7-.8-3.3-1.3-4.8-1.3c-.5 0-.9 0-1.3 .1c-.4 0-.9 .1-1.7 .3c1-2.3 2.1-3.9 3.3-5c1.2-1.1 2.6-1.6 4.1-1.6c1.2 0 2.4 .3 3.5 .8c1.1 .6 2.3 1.5 3.6 2.8c1.1 1 2.6 2.6 4.6 4.7c1.3 1.5 2.4 2.5 3.1 2.9c.7 .5 1.7 .9 3.1 1.2h12.3c-.2-1.3-.6-2.3-1.1-3.1c-.2-.5-.9-1.3-1.9-2.4l2.2-6.4c1.3 1.5 2.3 3.1 2.7 4.7c.5 1.7 .8 4.2 .8 7.5v7H972.4c-2.1 0-3.6-.9-4.6-2.6c-1-1.9-1.5-5.1-1.5-9.6V308c0-1.8-.3-3.1-.8-4.1c-.2-.5-.7-1.1-1.6-2Zm-341.1 0l1.7 9.5c.6 3.6 1 6.7 1.2 9.4c.2 2 .3 4 .3 5.9c0 1.6-.2 3-.6 4.3c-.4 1.3-1.1 3.1-2.2 5.3l-1.6-.6c.5-2.3 .7-4.2 .7-5.6c0-1.1-.1-2.7-.3-4.8c-.2-2.1-.4-4.2-.7-6.3c-.2-2.1-.7-4.5-1.3-7.4c-.2-1-.3-1.7-.3-2c0-.6 .3-1.5 .8-2.9c.6-1.3 1.4-2.9 2.3-4.8Zm-63 0l1.6 9.5c.6 3.6 1 6.7 1.2 9.4c.2 2 .3 4 .3 5.9c0 1.6-.2 3-.6 4.3c-.3 1.3-1.1 3.1-2.1 5.3l-1.6-.6c.4-2.3 .6-4.2 .6-5.6c0-1.1-.1-2.7-.3-4.8c-.1-2.1-.4-4.2-.6-6.3c-.3-2.1-.8-4.5-1.4-7.4c-.2-1-.3-1.7-.3-2c0-.6 .3-1.5 .9-2.9c.5-1.3 1.3-2.9 2.3-4.8Zm-126.5 0l1.6 9.5c.6 3.6 1 6.7 1.2 9.4c.2 2 .3 4 .3 5.9c0 1.6-.2 3-.6 4.3c-.3 1.3-1.1 3.1-2.1 5.3L435 329c.4-2.3 .6-4.2 .6-5.6c0-1.1-.1-2.7-.3-4.8c-.1-2.1-.4-4.2-.6-6.3c-.3-2.1-.7-4.5-1.4-7.4c-.2-1-.3-1.7-.3-2c0-.6 .3-1.5 .9-2.9c.5-1.3 1.3-2.9 2.3-4.8Zm337.5-1.7c.9 3.1 1.5 7.1 1.7 12c.2 3.5 .3 7 .5 10.5c.3 3 1 4.5 2.1 4.5h3.9c1.8 0 3.4-.6 4.7-1.6c1.6-1.4 2.4-3.5 2.4-6.3l1.8 .3c-.1 .5-.1 1.2-.1 1.9c-.1 .8-.1 1.6-.1 2.5c0 .9 .3 1.6 1 2.3c.6 .6 1.3 .9 2.1 .9H797c2.2 0 3.8-.3 4.7-.9c1.1-.8 1.7-2.1 1.7-4.2c0-.4 .1-.8 .4-1.1c.1-.2 .5-.5 1-.9l1-.8c0 .3 .1 .8 .1 1.4c0 .6 0 .9 0 1.1c0 1-.1 2.3-.4 3.9c.6 .4 1.4 .6 2.2 .9c.8 .2 1.7 .4 2.6 .5c0-.6-.2-1.4-.7-2.3c-.4-1-.6-1.7-.6-2c0-.5 0-.8 .1-1.1c.1-.1 .3-.4 .6-.8l2.3-3.1c.5 1.1 .9 2.1 1.1 3.1c.2 .9 .3 2 .3 3.4v10.2c-2 0-3.7-.2-5-.5c-1.4-.2-2.7-.7-3.9-1.3c-1.1 .7-2 1.2-2.8 1.4c-.9 .3-2.1 .4-3.7 .4h-4.4c-1.2 0-2.1-.3-2.8-1c-.7-.6-1.4-1.6-1.9-3.1c-1 1.5-2.1 2.6-3.3 3.2c-1 .6-2.3 .9-3.7 .9H778c-1.1 0-2.2-.9-3.2-2.8c-1.1-2-1.6-4.2-1.6-6.8c-1.6 4.7-3.8 8-6.6 9.7c-2.8 1.7-6.9 2.6-12.6 2.6l-3.1-.1v-1.7c1.3-.4 2.6-.9 3.8-1.3c1.3-.5 2.2-.8 2.9-1.2c3.6-1.8 6.1-3.2 7.4-4c2.3-1.5 3.9-3 4.9-4.7c1.2-1.9 1.8-4.2 1.8-7c0-1.7-.1-3.3-.4-4.9c-.2-1.5-.5-3.1-.8-4.7c0-1.2 1.1-3.6 3.2-7.4Zm613.2-.5l1.2 .7c0 .1 0 .4-.1 .9c0 .5 .4 1.1 1.1 1.7c.7 .5 1.7 1 3.2 1.6c-.2 1.2-.4 2.3-.7 3.4c-.3 1.1-.7 2.1-1.1 2.9l-1-.4l3 16.7v7.3h-13.3l-.5 2.7c-.7 1.5-1.7 3-3 4.6c-2.6 3-5.2 4.5-7.7 4.5c-1.5 0-3.1-.5-4.9-1.5c-1.7-.9-4.4-2.8-8.1-5.6l1.1-1.5c2 1.3 3.5 2.1 4.8 2.5c1 .4 2.2 .6 3.4 .6c1.8 0 3.5-.5 5.2-1.5c2-1.1 4.1-3 6.2-5.5c-.7 .1-1.4 .2-1.8 .2c-1.8 0-3.2-.6-4.3-1.8c-1-1.1-1.6-2.7-1.6-4.7c0-2.7 .7-5.3 1.9-7.7c1.3-2.7 2.9-4.1 4.6-4.1c1.4 0 2.6 1 3.6 2.9c1 2 1.5 4.3 1.5 7.1v1.5h9.7l-3.3-18.3l-1.7-1.1c0-1.1 .1-2.1 .5-3.2c.4-1.4 1.1-3 2.1-4.9Zm-133.1 0l1.2 .7c0 .1 0 .4-.1 .9c0 .5 .4 1.1 1.1 1.7c.7 .5 1.7 1 3.2 1.6c-.2 1.2-.4 2.3-.7 3.4c-.3 1.1-.7 2.1-1.1 2.9l-1-.4l3 16.7v7.3h-41.3c-1.2 0-2.3-.4-3-1c-.8-.6-1.4-1.7-2-3.1c-1.1 1.6-2.2 2.7-3.3 3.3c-.9 .5-2.2 .7-3.7 .7l-2 .1h-47.9c-3.1 0-5.3-.5-6.4-1.4c-1.2-.9-1.7-2.6-1.7-5.2c0-1.1 0-2.2 .2-3.2c0-.4 .2-1.2 .4-2.6c-4.1 1-7.4 2.6-9.9 5c-2.5 2.4-3.8 5.1-3.8 8.1c0 3.6 1.5 6.4 4.6 8.3c3 2 7.5 2.9 13.2 2.9c1.8 0 4.2-.1 7.3-.5l.5 .9l-10.2 6.6h-2.5c-5.3 0-9.3-1.3-12.2-4c-2.8-2.6-4.2-6.4-4.2-11.4c0-3.7 .8-7.2 2.5-10.4c1.8-3.2 3.9-5.5 6.6-6.9h-.6c-1.7 0-3 .2-4.1 .5c-1.1 .3-2.7 1-4.9 2.1c.8-6.6 4-10 9.8-10c.6 0 1.9 .1 3.7 .3c1.9 .2 3.6 .4 5 .5c2.7 .2 5.4 .3 8 .3l-1.6 6.5c-1.1 0-2 .1-2.7 .2c-1 .2-1.9 .4-2.7 .6c-.1 .3-.1 .7-.2 1.1c0 .4 0 .8 0 1c0 1.3 .4 2.2 1.2 2.6c.9 .5 2.4 .8 4.7 .8h16.6c-.2-1.3-.6-2.3-1.1-3.1c-.3-.5-.9-1.3-1.9-2.4l2.1-6.4c1.4 1.5 2.3 3.1 2.8 4.7c.4 1.5 .7 3.6 .7 6.3v.9h17.2c-2.2-2.3-4.2-3.9-6.1-4.9c-1.6-.8-3.2-1.3-4.7-1.3c-.5 0-.9 0-1.3 .1c-.4 0-.9 .1-1.7 .3c1-2.3 2.1-3.9 3.3-5c1.2-1.1 2.6-1.6 4.1-1.6c1.2 0 2.4 .3 3.4 .8c1.1 .6 2.4 1.5 3.7 2.8c1.1 1 2.6 2.6 4.6 4.7c1.3 1.5 2.4 2.5 3.1 2.9c.3 .3 .7 .5 1.3 .7l1.8 .5l2-.1c2.1 0 3.6-.5 4.7-1.5c1.3-1.2 2.1-3.3 2.4-6.3l1.9 .3c-.1 .6-.1 1.1-.2 1.5c0 1.2-.1 2.2-.1 2.9c0 1 .3 1.8 .9 2.3c.5 .6 1.2 .9 2.1 .9c.8 0 1.7-.2 2.4-.6c.8-.3 1.9-1.1 3.5-2.2l9.6-6.9c1.2-.8 2-1.3 2.6-1.7c1.3-.8 2.5-1.2 3.8-1.2c2 0 3.6 .7 4.8 2.1c1.4 1.7 2.1 4.2 2.1 7.5v3h9.6l-3.3-18.3l-1.7-1.1c0-1.1 .1-2.1 .5-3.2c.4-1.4 1.1-3 2.1-4.9Zm-157 0l1.3 .7c0 .1-.1 .4-.1 .9c0 .5 .3 1.1 1.1 1.7c.6 .5 1.7 1 3.1 1.6c-.1 1.2-.4 2.3-.7 3.4c-.3 1.1-.6 2.1-1 2.9l-1-.4l2.9 16.7v7.3h-25c-1.2 0-2.1-.3-2.8-.8c-.7-.6-1.1-1.6-1.1-3c0-.8 0-1.6 .1-2.5c.1-.9 .2-1.8 .4-2.8h1c.1 .6 .4 1 .9 1.3c.5 .3 1.1 .5 1.8 .5h9.3c-.4-2.7-1.2-4.8-2.2-6.3c-.8-1.4-2-2.5-3.5-3.4l1.9-8.4c2.4 1.7 4 4 5 6.7c.9 2.5 1.3 5.9 1.3 10.1v1.3h9.7l-3.2-18.3l-1.7-1.1c0-1.1 .1-2.1 .4-3.2c.4-1.4 1.1-3 2.1-4.9Zm-230.1 0l1.3 .7c0 .1-.1 .4-.1 .9c0 .5 .4 1.1 1.1 1.7c.7 .5 1.7 1 3.2 1.6c-.2 1.2-.4 2.3-.7 3.4c-.4 1.1-.7 2.1-1.1 2.9l-1-.4l3 16.7h.9c.5 0 .9 0 1.2-.1c.5 0 1-.1 1.6-.1c-.9-1.4-1.5-2.4-1.8-3.3c-.4-.8-.5-1.8-.5-2.8c0-2.7 1.1-5 3.3-7c2.2-2 4.8-3 7.8-3c2 0 3.9 .7 5.7 2c1.6 1.2 2.8 2.7 3.6 4.4l-1.1 1c-1.4-.6-2.6-.9-3.4-1.1c-.8-.1-1.8-.2-3.1-.2c-2.2 0-4.1 .2-5.7 .5c-2.1 .5-3.1 1.1-3.1 2c0 1.2 2.5 3.2 7.4 6.1l13.7-3.9l-3 7.6c-4.8 1.5-8.8 2.6-12 3.4c-2.7 .7-5 1.2-6.9 1.5c-1.4 .2-2.8 .3-4.2 .3H857.2c-.6 0-1.2 0-1.6 .1c-.4 .1-.6 .3-.6 .5c0 .1 .5 .3 1.4 .7c.8 .3 1.3 .8 1.3 1.5c0 1-.2 2.2-.5 3.6c-.3 1.4-.7 2.6-1.2 3.7c-.4 .9-1.5 1.9-3.3 3c-1.9 1.2-4.1 2.2-6.6 3c-2.8 .9-5.5 1.3-8 1.3c-2.9 0-5.1-.7-6.6-2c-1.5-1.4-2.2-3.3-2.2-5.9c0-2.8 .3-5.3 1-7.3c.8-2.6 2.5-5.8 5.1-9.9l1.5 1.1c-1.7 2.9-2.9 5.2-3.5 6.9c-.6 1.7-.9 3.4-.9 5c0 1.7 .5 3 1.6 3.9c1 1 2.5 1.4 4.3 1.4c2.3 0 4.8-.3 7.4-1c2.3-.6 4.4-1.4 6-2.3c1.7-.9 2.6-1.6 2.6-2.2c0-.2-.5-.3-1.5-.3c-1 0-1.9 0-2.7 0c-1.9 0-3.1-.1-3.7-.3c-.5-.1-.8-.4-.8-1c0-.9 .2-1.9 .5-3c.4-1.1 .8-1.9 1.3-2.5c1.1-1.4 2.5-2.6 4.1-3.6c1.8-1.2 3.5-1.7 4.9-1.7h12.6l-3.2-18.3l-1.7-1.1c0-1.1 .1-2.1 .4-3.2c.5-1.4 1.2-3 2.1-4.9Zm-316.4 0l1.2 .7c0 .1 0 .4-.1 .9c0 .5 .4 1.1 1.2 1.7c.6 .5 1.7 1 3.1 1.6c-.1 1.2-.4 2.3-.7 3.4c-.3 1.1-.6 2.1-1 2.9l-1-.4l2.9 16.7v7.3H539.1c-1.4 0-2.7-.3-3.8-.9c-1-.6-1.9-1.5-2.6-2.8c-1.1 1.5-2.6 2.5-4.5 3.1c-1.2 .4-2.6 .6-4 .6h-2.8v-.2h-.5c-1.3-.2-2.8-.5-4.4-1c-2.2-.6-4.2-1.4-5.9-2.2c-1 1.5-2.3 2.5-3.8 3c-.8 .3-1.8 .4-3 .4H500l-.6 2.7c-.7 1.5-1.6 3-2.9 4.6c-2.7 3-5.2 4.5-7.8 4.5c-1.5 0-3.1-.5-4.9-1.5c-1.7-.9-4.4-2.8-8.1-5.6l1.1-1.5c2 1.3 3.6 2.1 4.8 2.5c1 .4 2.2 .6 3.5 .6c1.7 0 3.4-.5 5.1-1.5c2-1.1 4.1-3 6.3-5.5c-.8 .1-1.4 .2-1.9 .2c-1.8 0-3.2-.6-4.2-1.8c-1.1-1.1-1.6-2.7-1.6-4.7c0-2.7 .6-5.3 1.8-7.7c1.4-2.7 2.9-4.1 4.6-4.1c1.4 0 2.7 1 3.7 2.9c1 2 1.5 4.3 1.5 7.1v1.5h3.4c1.6 0 2.8-.2 3.8-.6c1.2-.5 2.1-1.4 2.5-2.6c1-2.3 2.3-4.2 3.9-5.6c1.5-1.3 2.6-2 3.6-2c1 0 2.1 1.4 3.4 4.1c1.1 2.2 1.7 4.3 2 6.2v.5h1.2c1.5 0 2.5-.1 3.1-.3c.6-.1 1.4-.5 2.4-1c-.5-1.1-1-1.8-1.4-2.3c-.5-.5-.9-.8-1.5-.8c-.2 0-.3 .1-.5 .2c-.2 .1-.4 .4-.6 .8l-1.2-.2c0-3.2 .6-5.6 1.7-6.9c1.1-1.4 2.9-2.1 5.3-2.1c2.5 0 4.4 .5 5.9 1.4c1.4 1 2.1 2.4 2.1 4c0 1-.2 1.8-.6 2.7c-.3 .8-1 1.9-2.1 3.4c.3 .3 .6 .6 1 .8c.5 .2 .9 .3 1.3 .3h13.6l-3.2-18.3l-1.8-1.1c0-1.1 .2-2.1 .5-3.2c.4-1.4 1.1-3 2.1-4.9Zm-126.5 0l1.2 .7c0 .1 0 .4-.1 .9c0 .5 .4 1.1 1.2 1.7c.6 .5 1.7 1 3.1 1.6c-.1 1.2-.4 2.3-.7 3.4c-.3 1.1-.6 2.1-1 2.9l-1-.4l2.9 16.7v7.3H380.9v.6c0 1.1-.6 2.5-1.9 4.3c-1.2 1.8-2.7 3.4-4.4 4.7c-1.8 1.5-3.4 2.2-4.7 2.2c-1.6 0-3.3-.4-5.1-1.3c-1.6-.8-4-2.3-7.4-4.6l1.1-1.7c1.6 1.1 2.9 1.8 3.9 2.2c1 .3 2.1 .5 3.2 .5c1.2 0 2.5-.3 3.7-1c1.3-.7 2.9-2 5.1-3.9c2.9-2.7 4.4-4.7 4.4-6.1c0-.8-.2-1.7-.8-2.9c-.7-1.3-1.5-2.4-2.4-3.3l1.5-7.2c1.2 1.2 2.2 2.7 2.8 4.3c.7 1.6 1 3.5 1 5.6v.3h3c.8 0 1.6 0 2.4 .1c1.9 .2 4.2 .4 6.7 .7c-2.7-.6-4.5-1.4-5.6-2.3c-1.1-1-1.6-2.4-1.6-4.3c0-2.8 .6-5.3 1.9-7.5c1.3-2.2 2.7-3.4 4.3-3.4c1.8 0 3.4 1.6 4.8 4.7c1.3 3.2 2 6.9 2 11.4v.6h2.9c.8 0 1.6 0 2.3 .1c2 .2 4.3 .4 6.8 .7c-2.7-.6-4.5-1.4-5.6-2.3c-1.1-1-1.6-2.4-1.6-4.3c0-2.8 .6-5.3 1.9-7.5c1.3-2.2 2.7-3.4 4.3-3.4c1.8 0 3.4 1.6 4.7 4.7c1.4 3.2 2.1 6.9 2.1 11.4v.6h9.6l-3.3-18.3l-1.7-1.1c0-1.1 .2-2.1 .5-3.2c.4-1.4 1.1-3 2.1-4.9Zm-16.1-.2l6.3 3.3l-3.3 6l-6.3-3.3Zm256.5-.1l5 2.8l-2.8 5.2l-4-2l-2.2 4.3l-4.9-2.7l2.9-5.5L662 297Zm-273.7 0l5 2.8l-2.8 5.2l-4-2l-2.2 4.3l-4.9-2.7l2.9-5.5l3.8 2.2Zm534-1.7l1.2 .4c0 .1 0 .4-.1 .7c0 .7 .9 1.4 2.7 2.3c.6 .2 1.5 .6 2.7 1.1c-.2 1.4-.5 2.7-.9 3.9c-.2 .6-.6 1.5-1.1 2.8l-1-.3c.6 2.6 1 4.4 1.2 5.6c.1 1.2 .3 2.3 .3 3.3v.3c0 .5-.1 .9-.1 1.2c0 .3-.1 .7-.2 1.4c.9-.7 1.9-1.4 2.8-2.1c1.5-1 2.8-1.8 3.9-2.4c1.5-.9 2.6-1.3 3.4-1.3c2.1 0 3.8 .6 5.1 1.7c1.4 1.2 2.2 3 2.2 5.3v5.6h14.2c0-1.6-.1-2.7-.1-3.4c-.2-1-.5-1.9-.9-2.6c-.6 1.1-1.4 1.9-2.3 2.5c-1 .6-2 .9-3.1 .9c-1.5 0-2.7-.5-3.7-1.4c-.9-1-1.4-2.1-1.4-3.6c0-2.1 .6-4.6 1.9-7.5c1.4-3.2 2.8-4.8 4.3-4.8c1.9 0 3.6 1.7 5.3 4.9c1.7 3.3 2.5 6.8 2.5 10.4v11.9H915.9v-7.3h3.6c.4 0 1.6-.8 3.6-2.3c.6-.5 1.6-1.2 2.9-2.2c0-2.2-.1-4.1-.3-5.6c-.1-1.5-.4-3.1-.8-4.8c-.1-.4-.5-2.3-1.4-5.8l-1.6-1c.4-1.8 .8-3.2 1-4c.3-.8 .8-2.1 1.6-3.8Zm154.2-1.9l6.2 3.4l-3.2 6l-6.3-3.3Zm-125.5-.2l6.2 3.3l-3.2 6.1l-6.3-3.3Zm-274.1 0l6.2 3.3l-3.2 6.1l-6.3-3.3Zm37.1-1.3l4.8 2.5l-3 5l-3.8-2.1l-2.1 4.2l-5-2.7l2.8-4.8l4 2Z" class="g0_107"/>
<path d="M1055.6 339.1l4.2 2.1l-2 3.7l-4.2-2.1l-1.9 3.5l-4.2-2.2l2.1-3.7l4 2.1Zm114.4-9.3l5 2.7l-2.8 5.2l-4-2l-2.2 4.4l-4.9-2.8l2.9-5.5l3.9 2.2Zm-155.6 0l4.9 2.7l-2.7 5.2l-4-2l-2.3 4.4l-4.9-2.8l3-5.5l3.8 2.2Zm-718-8.4c.9 0 1.6 .4 2.3 1c.6 .7 .9 1.5 .9 2.4c0 .9-.3 1.7-1 2.3c-.6 .7-1.4 1-2.3 1c-.9 0-1.7-.3-2.3-1c-.7-.6-1-1.4-1-2.3c0-.9 .3-1.7 1-2.4c.6-.6 1.4-1 2.4-1Zm1077-5.3c-.6 0-1 .3-1.4 .7c-.3 .4-.5 .9-.5 1.4c0 .7 .4 1.2 1.1 1.6c.7 .5 1.6 .7 2.8 .7h1c-.5-2.9-1.5-4.4-3-4.4Zm-879.3 0c-.6 0-1 .3-1.3 .7c-.4 .4-.5 .9-.5 1.4c0 .7 .3 1.2 1 1.6c.7 .5 1.7 .7 2.8 .7h1.1c-.6-2.9-1.6-4.4-3.1-4.4ZM1447 316c-.7 0-1.3 .8-1.8 2.4c.9 .4 1.7 .6 2.1 .8c1.5 .5 2.3 .8 2.5 .8c.4 0 .6-.1 .6-.4c0-.4-.4-1-1.2-2c-.8-1.1-1.6-1.6-2.2-1.6Zm-705.3 0c-.7 0-1.3 .8-1.8 2.4c1 .4 1.7 .6 2.2 .8c1.4 .5 2.2 .8 2.4 .8c.4 0 .6-.1 .6-.4c0-.4-.4-1-1.2-2c-.8-1.1-1.6-1.6-2.2-1.6Zm-227 0c-.7 0-1.2 .8-1.7 2.4c.9 .4 1.6 .6 2.1 .8c1.4 .5 2.3 .8 2.4 .8c.4 0 .6-.1 .6-.4c0-.4-.4-1-1.1-2c-.9-1.1-1.6-1.6-2.3-1.6Zm831-.8c-1.2 0-2.5 .3-4 1.1c-1.5 .7-3.6 2.2-6.4 4.2h7c5.9 0 8.9-.9 8.9-2.8c0-.8-.7-1.4-2-1.9c-1-.5-2.2-.6-3.5-.6Zm-108.4 0c-1.1 0-2.5 .3-3.9 1.1c-1.5 .7-3.7 2.2-6.5 4.2h7.1c5.9 0 8.8-.9 8.8-2.8c0-.8-.6-1.4-1.9-1.9c-1.1-.5-2.2-.6-3.6-.6Zm-300 0c-1.1 0-2.5 .3-4 1.1c-1.4 .7-3.6 2.2-6.4 4.2H934c5.9 0 8.8-.9 8.8-2.8c0-.6-.6-1.2-2-1.7c-1.3-.6-2.5-.8-3.5-.8Zm-272.9-3.5c-.4 0-.7 .1-1 .4c-.3 .2-.4 .5-.4 .8c0 .8 .6 1.5 1.7 2.3c1.2 .7 2.6 1.2 4.2 1.4c-.7-1.5-1.4-2.7-2.2-3.6c-.8-.8-1.6-1.3-2.3-1.3Zm-256 0c-.3 0-.7 .1-.9 .4c-.3 .2-.4 .5-.4 .8c0 .8 .6 1.5 1.7 2.3c1.2 .7 2.5 1.2 4.1 1.4c-.6-1.5-1.3-2.7-2.1-3.6c-.8-.8-1.6-1.3-2.4-1.3Zm-17.8 0c-.3 0-.6 .1-.9 .4c-.3 .2-.4 .5-.4 .8c0 .8 .6 1.5 1.7 2.3c1.2 .7 2.6 1.2 4.1 1.4c-.6-1.5-1.3-2.7-2.1-3.6c-.8-.8-1.6-1.3-2.4-1.3Zm672.9-1.4c1 0 1.9 .4 2.5 1.2c.6 .8 .9 1.8 .9 3.2c0 1-.1 1.8-.3 2.4c-.2 .7-.6 1.5-1.3 2.6c-.5-1.3-.9-2.1-1.2-2.5c-.3-.4-.8-.6-1.4-.6c-1 0-2.3 .6-4 1.7c-1.7 1.1-2.5 2-2.5 2.8c0 .3 .3 .6 1 .8c.5 .1 1.2 .2 2.2 .2c.3 0 .6 0 .8 0c.3 0 .5-.1 .8-.1c2 0 3.3 .2 3.9 .6c.6 .4 .8 1 .8 2c0 1.9-.3 3.8-1 5.6c-.9 2.2-2.2 3.8-3.9 4.7c-2.2 1.2-4.4 2.2-6.7 2.9c-2.3 .8-4.4 1.1-6.4 1.1c-5.6 0-8.4-2.5-8.4-7.4c0-2.6 .4-4.8 1-6.6c.7-2 2.1-4.8 4.4-8.3l1.2 .8c-1.3 2.3-2.3 4.3-2.9 6c-.7 1.8-1 3.3-1 4.6c0 3.4 1.9 5.1 5.7 5.1c1.4 0 2.8-.2 4.1-.4c1.3-.3 2.6-.7 3.9-1.1c.9-.3 1.8-.7 2.9-1.2c1.8-.8 2.8-1.2 2.9-1.3c.8-.4 1.2-.8 1.2-1.1c0-.2-.5-.3-1.3-.4c-.9 0-1.5 0-1.9 0c-2.7 0-4.6-.4-5.5-1.2c-.7-.6-1.1-1.8-1.1-3.6c0-.8 .2-1.8 .8-3.1c.5-1.2 1.2-2.5 2-3.7c1.4-1.9 2.7-3.3 4-4.3c1.3-1 2.5-1.4 3.8-1.4Zm-713.5 0c1 0 1.8 .4 2.4 1.2c.7 .8 1 1.8 1 3.2c0 1-.1 1.8-.3 2.4c-.2 .7-.7 1.5-1.3 2.6c-.5-1.3-.9-2.1-1.2-2.5c-.4-.4-.8-.6-1.5-.6c-.9 0-2.2 .6-3.9 1.7c-1.7 1.1-2.6 2-2.6 2.8c0 .3 .4 .6 1 .8c.5 .1 1.3 .2 2.3 .2c.3 0 .5 0 .8 0c.2 0 .5-.1 .8-.1c1.9 0 3.2 .2 3.9 .6c.5 .4 .8 1 .8 2c0 1.9-.4 3.8-1.1 5.6c-.9 2.2-2.2 3.8-3.9 4.7c-2.1 1.2-4.3 2.2-6.6 2.9c-2.3 .8-4.5 1.1-6.4 1.1c-5.6 0-8.4-2.5-8.4-7.4c0-2.6 .3-4.8 .9-6.6c.7-2 2.2-4.8 4.5-8.3l1.2 .8c-1.3 2.3-2.3 4.3-3 6c-.6 1.8-1 3.3-1 4.6c0 3.4 2 5.1 5.8 5.1c1.4 0 2.8-.2 4-.4c1.3-.3 2.6-.7 4-1.1c.8-.3 1.8-.7 2.9-1.2c1.8-.8 2.7-1.2 2.8-1.3c.8-.4 1.2-.8 1.2-1.1c0-.2-.4-.3-1.3-.4c-.8 0-1.4 0-1.8 0c-2.8 0-4.6-.4-5.5-1.2c-.8-.6-1.2-1.8-1.2-3.6c0-.8 .3-1.8 .8-3.1c.6-1.2 1.3-2.5 2.1-3.7c1.3-1.9 2.6-3.3 3.9-4.3c1.3-1 2.6-1.4 3.9-1.4Zm366.2-.9c-.6 .2-1 .5-1.3 .6c-1 .5-1.8 1-2.4 1.5c-.4 .3-.8 .7-1.1 1c-.3 .4-.5 .6-.5 .8c0 .3 .3 .5 .9 .6c.7 .2 1.3 .3 1.9 .3c.4 0 .8-.2 1.2-.4c.5-.2 1.1-.6 1.8-1.2Zm-127.9-.7l1.5 1c-.4 .7-.8 1.4-1 2c-.3 .5-.5 1.1-.6 1.5c-.3 .8-.4 1.6-.4 2.4c0 1 .3 1.9 .9 2.8c.7 .8 1.6 1.3 2.6 1.6c.7 .1 1.5 .2 2.5 .3c1 .1 2 .2 3.2 .2h19.4c-.5-1.5-1-2.4-1.3-2.9c-.4-.7-1-1.6-1.8-2.6l2.4-6.3c1.4 1.9 2.3 3.7 2.7 5.3c.3 1.4 .5 3.5 .5 6.2v7.6H596.4c-1.1 0-2 0-2.7-.1c-.8 0-1.3 0-1.7 0c-.6-.1-1.4-.3-2.2-.6c-1.5-.5-2.7-1.5-3.7-3.1c-.9-1.5-1.4-3.2-1.4-5.1c0-.8 .1-1.5 .2-2.3c.1-.8 .3-1.7 .6-2.6c.3-1 .8-2 1.2-2.8c.5-.9 1-1.7 1.6-2.5ZM955 307.4c-.5 0-1 .3-1.4 .8c-.5 .5-.7 1-.7 1.7c0 .4 .2 .7 .5 1c.3 .3 .8 .4 1.3 .4c.4 0 .8-.1 1.2-.4c.5-.2 1-.6 1.6-1.2c-.5-.8-.9-1.4-1.3-1.8c-.4-.3-.8-.5-1.2-.5Zm-274.1 0c-.5 0-1 .3-1.4 .8c-.4 .5-.7 1-.7 1.7c0 .4 .2 .7 .5 1c.4 .3 .8 .4 1.3 .4c.4 0 .8-.1 1.2-.4c.5-.2 1-.6 1.6-1.2c-.5-.8-.9-1.4-1.3-1.8c-.3-.3-.7-.5-1.2-.5Zm618.3-1c2 0 3.7 .6 5 1.7c1.3 1.1 1.9 2.5 1.9 4.3c0 1-.2 2-.8 3c-.6 1-1.4 1.8-2.4 2.3c.9 1 2 1.8 3.3 2.3c.9 .3 1.7 .5 2.4 .5h2l3.8-.1c2.1 0 3.7-.5 4.8-1.5c1.2-1.2 2-3.3 2.4-6.3l1.8 .3c0 .6-.1 1.1-.1 1.5c-.1 1.2-.1 2.2-.1 2.9c0 1 .3 1.8 .8 2.3c.5 .6 1.3 .9 2.1 .9c.9 0 1.7-.2 2.5-.6c.7-.3 1.9-1.1 3.5-2.2l9.6-6.9c1.1-.8 1.9-1.3 2.5-1.7c1.3-.8 2.6-1.2 3.8-1.2c2 0 3.6 .7 4.8 2.1c1.4 1.7 2.1 4.2 2.1 7.5v10.3h-28.4c-1.3 0-2.3-.4-3.1-1c-.7-.6-1.4-1.7-1.9-3.1c-1.2 1.6-2.3 2.7-3.3 3.3c-.9 .5-2.2 .7-3.8 .7l-2 .1h-3.8c-2.5 0-4.5-.5-6.1-1.5c-1.7-1.1-3.3-3.1-4.6-6c-2 1.4-3.6 2.9-4.7 4.6c-1.1 1.7-1.6 3.4-1.6 5.2c0 3.2 1.4 5.5 4.2 7c2.8 1.6 7.2 2.4 13.2 2.4c1 0 1.9-.1 3-.1c1 0 2 0 2.8-.1l.2 1.2l-9.9 6c-5.8 0-10-1.1-12.6-3.2c-2.7-2.2-4-5.7-4-10.4c0-3.2 .6-6.2 1.9-8.8c1.2-2.6 3.2-5.1 5.9-7.5c-.2-1.3-.7-2-1.4-2c-.3 0-.6 .1-.7 .3c-.2 .3-.4 .5-.6 .7l-1.3-.3c0-2.5 .5-4.5 1.6-6.1c1.3-1.9 3-2.8 5.3-2.8Zm-829.9-4c2.3 1.7 3.9 4 4.9 6.7c.9 2.5 1.3 5.9 1.3 10.1v8.6H463.4c-1.2 0-2.1-.3-2.7-.8c-.8-.6-1.2-1.6-1.2-3c0-.8 0-1.6 .1-2.5c.1-.9 .2-1.8 .4-2.8h1c.1 .6 .5 1 1 1.3c.5 .3 1.1 .5 1.7 .5H473c-.4-2.7-1.1-4.8-2.2-6.3c-.8-1.4-2-2.5-3.5-3.4Zm212.1-1.8c1.9 0 3.7 1.7 5.3 4.9c1.7 3.3 2.5 6.8 2.5 10.4v11.9H654.6v.6c0 1.1-.6 2.5-1.8 4.3c-1.3 1.8-2.8 3.4-4.4 4.7c-1.9 1.5-3.5 2.2-4.8 2.2c-1.6 0-3.3-.4-5.1-1.3c-1.6-.8-4-2.3-7.4-4.6l1.1-1.7c1.7 1.1 3 1.8 3.9 2.2c1 .3 2.1 .5 3.2 .5c1.3 0 2.5-.3 3.7-1c1.3-.7 3-2 5.1-3.9c3-2.7 4.4-4.7 4.4-6.1c0-.8-.2-1.7-.8-2.9c-.7-1.3-1.4-2.4-2.4-3.3l1.5-7.2c1.3 1.2 2.2 2.7 2.8 4.3c.7 1.6 1 3.5 1 5.6v.3h3c.9 0 1.6 0 2.4 .1c1.9 .2 4.2 .4 6.7 .7c-2.7-.6-4.5-1.4-5.6-2.3c-1.1-1-1.6-2.4-1.6-4.3c0-2.8 .7-5.3 1.9-7.5c1.3-2.2 2.8-3.4 4.3-3.4c1.9 0 3.4 1.6 4.8 4.7c1.3 3.2 2 6.9 2 11.4v.6h14.2c0-1.6 0-2.7-.1-3.4c-.2-1-.5-1.9-.9-2.6c-.6 1.1-1.4 1.9-2.3 2.5c-1 .6-2 .9-3.1 .9c-1.4 0-2.7-.5-3.6-1.4c-1-1-1.5-2.1-1.5-3.6c0-2.1 .6-4.6 1.9-7.5c1.4-3.2 2.9-4.8 4.3-4.8Zm-77-1l5 2.7l-2.8 5.2l-4-2l-2.2 4.4l-4.9-2.8l3-5.5l3.8 2.2Zm113.3-2.1l2.6 16.7c.4 2.6 .9 4.4 1.6 5.4c.4 .6 1 .9 1.8 .9h7c1.6 0 2.9-.2 3.9-.6c1.2-.5 2-1.4 2.5-2.6c1-2.3 2.3-4.2 3.9-5.6c1.4-1.3 2.6-2 3.6-2c.9 0 2 1.4 3.4 4.1c1.4 3 2.1 5.6 2.1 8.1v5.8c-1.9 0-4.1-.3-6.6-1.1c-2.3-.6-4.2-1.4-5.9-2.2c-1.1 1.5-2.4 2.5-3.9 3c-.7 .3-1.7 .4-3 .4h-7c-.7 0-1.3-.2-1.8-.4c-1-.5-1.9-1.5-2.6-2.9c-1-1.9-1.6-4.5-1.9-7.8c-1.2 1.5-2.2 2.6-2.9 3.2c-.9 .9-1.8 1.4-2.4 1.4c-.4 0-.8-.1-1.3-.2l-3.3-.6c-1.4-.3-2.2-.5-2.6-.6c-.3-.2-.5-.4-.5-.7c0-.5 .7-2 1.9-4.6c1.3-2.5 2.2-4.1 2.7-4.7c.5-.5 1.3-1.2 2.4-1.9c.7-.5 1.6-1.1 2.9-1.8l1.4-.9c0-.2-.1-.5-.1-.7c0-.3 0-.5 0-.8c0-.6 .1-1.5 .4-2.5c.3-1 .9-2.3 1.7-3.8Zm34.9-.1c1 0 2.6 .6 4.7 1.9c2.1 1.2 4.1 2.7 5.9 4.4c4.2 3.9 6.2 7.4 6.2 10.6c0 .6-.1 1-.2 1.5c-.2 .5-.5 1.1-.9 1.8c-1-2.4-2.2-4.3-3.5-5.9c-1.3-1.5-2.8-2.7-4.5-3.6c0 .8-.1 1.3-.3 1.7c-.1 .3-.4 .5-.7 .5c-.6 0-1.5-.5-3-1.5c-1.5-1.1-2.6-2.2-3.3-3.2c-.5-.7-.9-1.7-1.1-3c-.2-1.3-.4-2.4-.4-3.3c0-1.3 .4-1.9 1.1-1.9Zm-455.8-.9c2.1 0 3.9 .6 5.4 1.8c1.5 1.3 2.3 2.9 2.3 4.9c0 1.1-.3 2.1-1 2.9c-.7 1-1.7 1.4-2.8 1.4c-.9 0-1.6-.3-2.2-.9c-.6-.6-.9-1.2-.9-2c0-1.2 .5-2.2 1.5-2.8c1-.6 1.4-1.1 1.4-1.5c0-.6-.2-1.1-.8-1.5c-.6-.3-1.3-.5-2.3-.5c-1.1 0-2.1 .3-2.8 1c-.8 .6-1.1 1.4-1.1 2.4c0 .8 .3 2 1.1 3.3c1.1 2.1 1.8 3.4 2.1 4.1c.7 1.8 1.1 3.9 1.1 6.1c0 1.1-.1 2.5-.3 3.9h-1.6c0-.3 0-.6 0-.8l.2-1.3c0-1.1-.7-2.1-2-3.3c-2.3-2-3.5-3.2-3.7-3.4c-1.4-1.6-2-3.4-2-5.4c0-2.4 .8-4.4 2.4-6c1.6-1.6 3.6-2.4 6-2.4Zm1038.5-.9l6.2 3.3l-3.2 6l-6.3-3.2Zm-399.2 0l6.3 3.3l-3.3 6l-6.2-3.2Zm487.2-.4c1.1 1.4 1.8 2.8 2.2 4.2c.5 1.6 .7 3.7 .7 6.2v5.3c0 3.8 .3 6.4 .8 7.8c.4 1.2 1 1.8 1.9 1.8h7.1c1.6 0 2.9-.2 3.8-.6c1.3-.5 2.1-1.4 2.6-2.6c1-2.3 2.3-4.2 3.9-5.6c1.4-1.3 2.6-2 3.6-2c.9 0 2 1.4 3.4 4.1c1.4 3 2.1 5.6 2.1 8.1v5.8c-1.9 0-4.1-.3-6.6-1.1c-2.3-.6-4.2-1.4-6-2.2c-1 1.5-2.3 2.5-3.8 3c-.7 .3-1.7 .4-3 .4h-7.1c-2.1 0-3.6-.9-4.6-2.6c-1-1.9-1.5-5.1-1.5-9.6V308c0-1.8-.3-3.1-.8-4.1c-.2-.5-.7-1.1-1.6-2Zm-24.1 0l1.6 9.5c.6 3.6 1.1 6.7 1.3 9.4c.2 2 .2 4 .2 5.9c0 1.6-.1 3-.5 4.3c-.4 1.3-1.1 3.1-2.2 5.3l-1.6-.6c.4-2.3 .6-4.2 .6-5.6c0-1.1 0-2.7-.2-4.8c-.2-2.1-.4-4.2-.7-6.3c-.3-2.1-.7-4.5-1.3-7.4c-.2-1-.3-1.7-.3-2c0-.6 .2-1.5 .8-2.9c.6-1.3 1.3-2.9 2.3-4.8Zm-133.1 0l1.6 9.5c.6 3.6 1.1 6.7 1.3 9.4c.2 2 .2 4 .2 5.9c0 1.6-.1 3-.5 4.3c-.4 1.3-1.1 3.1-2.2 5.3l-1.6-.6c.4-2.3 .6-4.2 .6-5.6c0-1.1 0-2.7-.2-4.8c-.2-2.1-.4-4.2-.7-6.3c-.3-2.1-.7-4.5-1.3-7.4c-.2-1-.3-1.7-.3-2c0-.6 .2-1.5 .8-2.9c.6-1.3 1.3-2.9 2.3-4.8Zm-156.9 0l1.6 9.5c.6 3.6 1 6.7 1.3 9.4c.1 2 .2 4 .2 5.9c0 1.6-.2 3-.6 4.3c-.3 1.3-1.1 3.1-2.1 5.3l-1.6-.6c.4-2.3 .6-4.2 .6-5.6c0-1.1-.1-2.7-.3-4.8c-.1-2.1-.4-4.2-.6-6.3c-.3-2.1-.7-4.5-1.3-7.4c-.3-1-.4-1.7-.4-2c0-.6 .3-1.5 .9-2.9c.5-1.3 1.3-2.9 2.3-4.8Zm-142.4 0c1.1 1.4 1.8 2.8 2.2 4.2c.5 1.6 .7 3.7 .7 6.2v5.3c0 3.8 .3 6.4 .8 7.8c.4 1.2 1 1.8 1.9 1.8h20.9c-2.2-2.3-4.2-3.9-6-4.9c-1.7-.8-3.3-1.3-4.8-1.3c-.5 0-.9 0-1.3 .1c-.4 0-.9 .1-1.7 .3c1-2.3 2.1-3.9 3.3-5c1.2-1.1 2.6-1.6 4.1-1.6c1.2 0 2.4 .3 3.5 .8c1.1 .6 2.3 1.5 3.6 2.8c1.1 1 2.6 2.6 4.6 4.7c1.3 1.5 2.4 2.5 3.1 2.9c.7 .5 1.7 .9 3.1 1.2h12.3c-.2-1.3-.6-2.3-1.1-3.1c-.2-.5-.9-1.3-1.9-2.4l2.2-6.4c1.3 1.5 2.3 3.1 2.7 4.7c.5 1.7 .8 4.2 .8 7.5v7H972.4c-2.1 0-3.6-.9-4.6-2.6c-1-1.9-1.5-5.1-1.5-9.6V308c0-1.8-.3-3.1-.8-4.1c-.2-.5-.7-1.1-1.6-2Zm-341.1 0l1.7 9.5c.6 3.6 1 6.7 1.2 9.4c.2 2 .3 4 .3 5.9c0 1.6-.2 3-.6 4.3c-.4 1.3-1.1 3.1-2.2 5.3l-1.6-.6c.5-2.3 .7-4.2 .7-5.6c0-1.1-.1-2.7-.3-4.8c-.2-2.1-.4-4.2-.7-6.3c-.2-2.1-.7-4.5-1.3-7.4c-.2-1-.3-1.7-.3-2c0-.6 .3-1.5 .8-2.9c.6-1.3 1.4-2.9 2.3-4.8Zm-63 0l1.6 9.5c.6 3.6 1 6.7 1.2 9.4c.2 2 .3 4 .3 5.9c0 1.6-.2 3-.6 4.3c-.3 1.3-1.1 3.1-2.1 5.3l-1.6-.6c.4-2.3 .6-4.2 .6-5.6c0-1.1-.1-2.7-.3-4.8c-.1-2.1-.4-4.2-.6-6.3c-.3-2.1-.8-4.5-1.4-7.4c-.2-1-.3-1.7-.3-2c0-.6 .3-1.5 .9-2.9c.5-1.3 1.3-2.9 2.3-4.8Zm-126.5 0l1.6 9.5c.6 3.6 1 6.7 1.2 9.4c.2 2 .3 4 .3 5.9c0 1.6-.2 3-.6 4.3c-.3 1.3-1.1 3.1-2.1 5.3L435 329c.4-2.3 .6-4.2 .6-5.6c0-1.1-.1-2.7-.3-4.8c-.1-2.1-.4-4.2-.6-6.3c-.3-2.1-.7-4.5-1.4-7.4c-.2-1-.3-1.7-.3-2c0-.6 .3-1.5 .9-2.9c.5-1.3 1.3-2.9 2.3-4.8Zm337.5-1.7c.9 3.1 1.5 7.1 1.7 12c.2 3.5 .3 7 .5 10.5c.3 3 1 4.5 2.1 4.5h3.9c1.8 0 3.4-.6 4.7-1.6c1.6-1.4 2.4-3.5 2.4-6.3l1.8 .3c-.1 .5-.1 1.2-.1 1.9c-.1 .8-.1 1.6-.1 2.5c0 .9 .3 1.6 1 2.3c.6 .6 1.3 .9 2.1 .9H797c2.2 0 3.8-.3 4.7-.9c1.1-.8 1.7-2.1 1.7-4.2c0-.4 .1-.8 .4-1.1c.1-.2 .5-.5 1-.9l1-.8c0 .3 .1 .8 .1 1.4c0 .6 0 .9 0 1.1c0 1-.1 2.3-.4 3.9c.6 .4 1.4 .6 2.2 .9c.8 .2 1.7 .4 2.6 .5c0-.6-.2-1.4-.7-2.3c-.4-1-.6-1.7-.6-2c0-.5 0-.8 .1-1.1c.1-.1 .3-.4 .6-.8l2.3-3.1c.5 1.1 .9 2.1 1.1 3.1c.2 .9 .3 2 .3 3.4v10.2c-2 0-3.7-.2-5-.5c-1.4-.2-2.7-.7-3.9-1.3c-1.1 .7-2 1.2-2.8 1.4c-.9 .3-2.1 .4-3.7 .4h-4.4c-1.2 0-2.1-.3-2.8-1c-.7-.6-1.4-1.6-1.9-3.1c-1 1.5-2.1 2.6-3.3 3.2c-1 .6-2.3 .9-3.7 .9H778c-1.1 0-2.2-.9-3.2-2.8c-1.1-2-1.6-4.2-1.6-6.8c-1.6 4.7-3.8 8-6.6 9.7c-2.8 1.7-6.9 2.6-12.6 2.6l-3.1-.1v-1.7c1.3-.4 2.6-.9 3.8-1.3c1.3-.5 2.2-.8 2.9-1.2c3.6-1.8 6.1-3.2 7.4-4c2.3-1.5 3.9-3 4.9-4.7c1.2-1.9 1.8-4.2 1.8-7c0-1.7-.1-3.3-.4-4.9c-.2-1.5-.5-3.1-.8-4.7c0-1.2 1.1-3.6 3.2-7.4Zm613.2-.5l1.2 .7c0 .1 0 .4-.1 .9c0 .5 .4 1.1 1.1 1.7c.7 .5 1.7 1 3.2 1.6c-.2 1.2-.4 2.3-.7 3.4c-.3 1.1-.7 2.1-1.1 2.9l-1-.4l3 16.7v7.3h-13.3l-.5 2.7c-.7 1.5-1.7 3-3 4.6c-2.6 3-5.2 4.5-7.7 4.5c-1.5 0-3.1-.5-4.9-1.5c-1.7-.9-4.4-2.8-8.1-5.6l1.1-1.5c2 1.3 3.5 2.1 4.8 2.5c1 .4 2.2 .6 3.4 .6c1.8 0 3.5-.5 5.2-1.5c2-1.1 4.1-3 6.2-5.5c-.7 .1-1.4 .2-1.8 .2c-1.8 0-3.2-.6-4.3-1.8c-1-1.1-1.6-2.7-1.6-4.7c0-2.7 .7-5.3 1.9-7.7c1.3-2.7 2.9-4.1 4.6-4.1c1.4 0 2.6 1 3.6 2.9c1 2 1.5 4.3 1.5 7.1v1.5h9.7l-3.3-18.3l-1.7-1.1c0-1.1 .1-2.1 .5-3.2c.4-1.4 1.1-3 2.1-4.9Zm-133.1 0l1.2 .7c0 .1 0 .4-.1 .9c0 .5 .4 1.1 1.1 1.7c.7 .5 1.7 1 3.2 1.6c-.2 1.2-.4 2.3-.7 3.4c-.3 1.1-.7 2.1-1.1 2.9l-1-.4l3 16.7v7.3h-41.3c-1.2 0-2.3-.4-3-1c-.8-.6-1.4-1.7-2-3.1c-1.1 1.6-2.2 2.7-3.3 3.3c-.9 .5-2.2 .7-3.7 .7l-2 .1h-47.9c-3.1 0-5.3-.5-6.4-1.4c-1.2-.9-1.7-2.6-1.7-5.2c0-1.1 0-2.2 .2-3.2c0-.4 .2-1.2 .4-2.6c-4.1 1-7.4 2.6-9.9 5c-2.5 2.4-3.8 5.1-3.8 8.1c0 3.6 1.5 6.4 4.6 8.3c3 2 7.5 2.9 13.2 2.9c1.8 0 4.2-.1 7.3-.5l.5 .9l-10.2 6.6h-2.5c-5.3 0-9.3-1.3-12.2-4c-2.8-2.6-4.2-6.4-4.2-11.4c0-3.7 .8-7.2 2.5-10.4c1.8-3.2 3.9-5.5 6.6-6.9h-.6c-1.7 0-3 .2-4.1 .5c-1.1 .3-2.7 1-4.9 2.1c.8-6.6 4-10 9.8-10c.6 0 1.9 .1 3.7 .3c1.9 .2 3.6 .4 5 .5c2.7 .2 5.4 .3 8 .3l-1.6 6.5c-1.1 0-2 .1-2.7 .2c-1 .2-1.9 .4-2.7 .6c-.1 .3-.1 .7-.2 1.1c0 .4 0 .8 0 1c0 1.3 .4 2.2 1.2 2.6c.9 .5 2.4 .8 4.7 .8h16.6c-.2-1.3-.6-2.3-1.1-3.1c-.3-.5-.9-1.3-1.9-2.4l2.1-6.4c1.4 1.5 2.3 3.1 2.8 4.7c.4 1.5 .7 3.6 .7 6.3v.9h17.2c-2.2-2.3-4.2-3.9-6.1-4.9c-1.6-.8-3.2-1.3-4.7-1.3c-.5 0-.9 0-1.3 .1c-.4 0-.9 .1-1.7 .3c1-2.3 2.1-3.9 3.3-5c1.2-1.1 2.6-1.6 4.1-1.6c1.2 0 2.4 .3 3.4 .8c1.1 .6 2.4 1.5 3.7 2.8c1.1 1 2.6 2.6 4.6 4.7c1.3 1.5 2.4 2.5 3.1 2.9c.3 .3 .7 .5 1.3 .7l1.8 .5l2-.1c2.1 0 3.6-.5 4.7-1.5c1.3-1.2 2.1-3.3 2.4-6.3l1.9 .3c-.1 .6-.1 1.1-.2 1.5c0 1.2-.1 2.2-.1 2.9c0 1 .3 1.8 .9 2.3c.5 .6 1.2 .9 2.1 .9c.8 0 1.7-.2 2.4-.6c.8-.3 1.9-1.1 3.5-2.2l9.6-6.9c1.2-.8 2-1.3 2.6-1.7c1.3-.8 2.5-1.2 3.8-1.2c2 0 3.6 .7 4.8 2.1c1.4 1.7 2.1 4.2 2.1 7.5v3h9.6l-3.3-18.3l-1.7-1.1c0-1.1 .1-2.1 .5-3.2c.4-1.4 1.1-3 2.1-4.9Zm-157 0l1.3 .7c0 .1-.1 .4-.1 .9c0 .5 .3 1.1 1.1 1.7c.6 .5 1.7 1 3.1 1.6c-.1 1.2-.4 2.3-.7 3.4c-.3 1.1-.6 2.1-1 2.9l-1-.4l2.9 16.7v7.3h-25c-1.2 0-2.1-.3-2.8-.8c-.7-.6-1.1-1.6-1.1-3c0-.8 0-1.6 .1-2.5c.1-.9 .2-1.8 .4-2.8h1c.1 .6 .4 1 .9 1.3c.5 .3 1.1 .5 1.8 .5h9.3c-.4-2.7-1.2-4.8-2.2-6.3c-.8-1.4-2-2.5-3.5-3.4l1.9-8.4c2.4 1.7 4 4 5 6.7c.9 2.5 1.3 5.9 1.3 10.1v1.3h9.7l-3.2-18.3l-1.7-1.1c0-1.1 .1-2.1 .4-3.2c.4-1.4 1.1-3 2.1-4.9Zm-230.1 0l1.3 .7c0 .1-.1 .4-.1 .9c0 .5 .4 1.1 1.1 1.7c.7 .5 1.7 1 3.2 1.6c-.2 1.2-.4 2.3-.7 3.4c-.4 1.1-.7 2.1-1.1 2.9l-1-.4l3 16.7h.9c.5 0 .9 0 1.2-.1c.5 0 1-.1 1.6-.1c-.9-1.4-1.5-2.4-1.8-3.3c-.4-.8-.5-1.8-.5-2.8c0-2.7 1.1-5 3.3-7c2.2-2 4.8-3 7.8-3c2 0 3.9 .7 5.7 2c1.6 1.2 2.8 2.7 3.6 4.4l-1.1 1c-1.4-.6-2.6-.9-3.4-1.1c-.8-.1-1.8-.2-3.1-.2c-2.2 0-4.1 .2-5.7 .5c-2.1 .5-3.1 1.1-3.1 2c0 1.2 2.5 3.2 7.4 6.1l13.7-3.9l-3 7.6c-4.8 1.5-8.8 2.6-12 3.4c-2.7 .7-5 1.2-6.9 1.5c-1.4 .2-2.8 .3-4.2 .3H857.2c-.6 0-1.2 0-1.6 .1c-.4 .1-.6 .3-.6 .5c0 .1 .5 .3 1.4 .7c.8 .3 1.3 .8 1.3 1.5c0 1-.2 2.2-.5 3.6c-.3 1.4-.7 2.6-1.2 3.7c-.4 .9-1.5 1.9-3.3 3c-1.9 1.2-4.1 2.2-6.6 3c-2.8 .9-5.5 1.3-8 1.3c-2.9 0-5.1-.7-6.6-2c-1.5-1.4-2.2-3.3-2.2-5.9c0-2.8 .3-5.3 1-7.3c.8-2.6 2.5-5.8 5.1-9.9l1.5 1.1c-1.7 2.9-2.9 5.2-3.5 6.9c-.6 1.7-.9 3.4-.9 5c0 1.7 .5 3 1.6 3.9c1 1 2.5 1.4 4.3 1.4c2.3 0 4.8-.3 7.4-1c2.3-.6 4.4-1.4 6-2.3c1.7-.9 2.6-1.6 2.6-2.2c0-.2-.5-.3-1.5-.3c-1 0-1.9 0-2.7 0c-1.9 0-3.1-.1-3.7-.3c-.5-.1-.8-.4-.8-1c0-.9 .2-1.9 .5-3c.4-1.1 .8-1.9 1.3-2.5c1.1-1.4 2.5-2.6 4.1-3.6c1.8-1.2 3.5-1.7 4.9-1.7h12.6l-3.2-18.3l-1.7-1.1c0-1.1 .1-2.1 .4-3.2c.5-1.4 1.2-3 2.1-4.9Zm-316.4 0l1.2 .7c0 .1 0 .4-.1 .9c0 .5 .4 1.1 1.2 1.7c.6 .5 1.7 1 3.1 1.6c-.1 1.2-.4 2.3-.7 3.4c-.3 1.1-.6 2.1-1 2.9l-1-.4l2.9 16.7v7.3H539.1c-1.4 0-2.7-.3-3.8-.9c-1-.6-1.9-1.5-2.6-2.8c-1.1 1.5-2.6 2.5-4.5 3.1c-1.2 .4-2.6 .6-4 .6h-2.8v-.2h-.5c-1.3-.2-2.8-.5-4.4-1c-2.2-.6-4.2-1.4-5.9-2.2c-1 1.5-2.3 2.5-3.8 3c-.8 .3-1.8 .4-3 .4H500l-.6 2.7c-.7 1.5-1.6 3-2.9 4.6c-2.7 3-5.2 4.5-7.8 4.5c-1.5 0-3.1-.5-4.9-1.5c-1.7-.9-4.4-2.8-8.1-5.6l1.1-1.5c2 1.3 3.6 2.1 4.8 2.5c1 .4 2.2 .6 3.5 .6c1.7 0 3.4-.5 5.1-1.5c2-1.1 4.1-3 6.3-5.5c-.8 .1-1.4 .2-1.9 .2c-1.8 0-3.2-.6-4.2-1.8c-1.1-1.1-1.6-2.7-1.6-4.7c0-2.7 .6-5.3 1.8-7.7c1.4-2.7 2.9-4.1 4.6-4.1c1.4 0 2.7 1 3.7 2.9c1 2 1.5 4.3 1.5 7.1v1.5h3.4c1.6 0 2.8-.2 3.8-.6c1.2-.5 2.1-1.4 2.5-2.6c1-2.3 2.3-4.2 3.9-5.6c1.5-1.3 2.6-2 3.6-2c1 0 2.1 1.4 3.4 4.1c1.1 2.2 1.7 4.3 2 6.2v.5h1.2c1.5 0 2.5-.1 3.1-.3c.6-.1 1.4-.5 2.4-1c-.5-1.1-1-1.8-1.4-2.3c-.5-.5-.9-.8-1.5-.8c-.2 0-.3 .1-.5 .2c-.2 .1-.4 .4-.6 .8l-1.2-.2c0-3.2 .6-5.6 1.7-6.9c1.1-1.4 2.9-2.1 5.3-2.1c2.5 0 4.4 .5 5.9 1.4c1.4 1 2.1 2.4 2.1 4c0 1-.2 1.8-.6 2.7c-.3 .8-1 1.9-2.1 3.4c.3 .3 .6 .6 1 .8c.5 .2 .9 .3 1.3 .3h13.6l-3.2-18.3l-1.8-1.1c0-1.1 .2-2.1 .5-3.2c.4-1.4 1.1-3 2.1-4.9Zm-126.5 0l1.2 .7c0 .1 0 .4-.1 .9c0 .5 .4 1.1 1.2 1.7c.6 .5 1.7 1 3.1 1.6c-.1 1.2-.4 2.3-.7 3.4c-.3 1.1-.6 2.1-1 2.9l-1-.4l2.9 16.7v7.3H380.9v.6c0 1.1-.6 2.5-1.9 4.3c-1.2 1.8-2.7 3.4-4.4 4.7c-1.8 1.5-3.4 2.2-4.7 2.2c-1.6 0-3.3-.4-5.1-1.3c-1.6-.8-4-2.3-7.4-4.6l1.1-1.7c1.6 1.1 2.9 1.8 3.9 2.2c1 .3 2.1 .5 3.2 .5c1.2 0 2.5-.3 3.7-1c1.3-.7 2.9-2 5.1-3.9c2.9-2.7 4.4-4.7 4.4-6.1c0-.8-.2-1.7-.8-2.9c-.7-1.3-1.5-2.4-2.4-3.3l1.5-7.2c1.2 1.2 2.2 2.7 2.8 4.3c.7 1.6 1 3.5 1 5.6v.3h3c.8 0 1.6 0 2.4 .1c1.9 .2 4.2 .4 6.7 .7c-2.7-.6-4.5-1.4-5.6-2.3c-1.1-1-1.6-2.4-1.6-4.3c0-2.8 .6-5.3 1.9-7.5c1.3-2.2 2.7-3.4 4.3-3.4c1.8 0 3.4 1.6 4.8 4.7c1.3 3.2 2 6.9 2 11.4v.6h2.9c.8 0 1.6 0 2.3 .1c2 .2 4.3 .4 6.8 .7c-2.7-.6-4.5-1.4-5.6-2.3c-1.1-1-1.6-2.4-1.6-4.3c0-2.8 .6-5.3 1.9-7.5c1.3-2.2 2.7-3.4 4.3-3.4c1.8 0 3.4 1.6 4.7 4.7c1.4 3.2 2.1 6.9 2.1 11.4v.6h9.6l-3.3-18.3l-1.7-1.1c0-1.1 .2-2.1 .5-3.2c.4-1.4 1.1-3 2.1-4.9Zm-16.1-.2l6.3 3.3l-3.3 6l-6.3-3.3Zm256.5-.1l5 2.8l-2.8 5.2l-4-2l-2.2 4.3l-4.9-2.7l2.9-5.5L662 297Zm-273.7 0l5 2.8l-2.8 5.2l-4-2l-2.2 4.3l-4.9-2.7l2.9-5.5l3.8 2.2Zm534-1.7l1.2 .4c0 .1 0 .4-.1 .7c0 .7 .9 1.4 2.7 2.3c.6 .2 1.5 .6 2.7 1.1c-.2 1.4-.5 2.7-.9 3.9c-.2 .6-.6 1.5-1.1 2.8l-1-.3c.6 2.6 1 4.4 1.2 5.6c.1 1.2 .3 2.3 .3 3.3v.3c0 .5-.1 .9-.1 1.2c0 .3-.1 .7-.2 1.4c.9-.7 1.9-1.4 2.8-2.1c1.5-1 2.8-1.8 3.9-2.4c1.5-.9 2.6-1.3 3.4-1.3c2.1 0 3.8 .6 5.1 1.7c1.4 1.2 2.2 3 2.2 5.3v5.6h14.2c0-1.6-.1-2.7-.1-3.4c-.2-1-.5-1.9-.9-2.6c-.6 1.1-1.4 1.9-2.3 2.5c-1 .6-2 .9-3.1 .9c-1.5 0-2.7-.5-3.7-1.4c-.9-1-1.4-2.1-1.4-3.6c0-2.1 .6-4.6 1.9-7.5c1.4-3.2 2.8-4.8 4.3-4.8c1.9 0 3.6 1.7 5.3 4.9c1.7 3.3 2.5 6.8 2.5 10.4v11.9H915.9v-7.3h3.6c.4 0 1.6-.8 3.6-2.3c.6-.5 1.6-1.2 2.9-2.2c0-2.2-.1-4.1-.3-5.6c-.1-1.5-.4-3.1-.8-4.8c-.1-.4-.5-2.3-1.4-5.8l-1.6-1c.4-1.8 .8-3.2 1-4c.3-.8 .8-2.1 1.6-3.8Zm154.2-1.9l6.2 3.4l-3.2 6l-6.3-3.3Zm-125.5-.2l6.2 3.3l-3.2 6.1l-6.3-3.3Zm-274.1 0l6.2 3.3l-3.2 6.1l-6.3-3.3Zm37.1-1.3l4.8 2.5l-3 5l-3.8-2.1l-2.1 4.2l-5-2.7l2.8-4.8l4 2Z" class="g1_107"/>
<image clip-path="url(#c1_107)" preserveAspectRatio="none" x="19" y="434" width="1424" height="391" href="img/2.jpg"/>
<path clip-path="url(#c0_107)" d="M402.4 506.3c0-35.2 28.6-63.7 63.8-63.7H755.6c35.2 0 63.7 28.5 63.7 63.7v255c0 35.2-28.5 63.7-63.7 63.7H466.2c-35.2 0-63.8-28.5-63.8-63.7Z" class="g2_107"/>
</svg>