<svg viewBox="0 0 1466 825" version="1.1" xmlns="http://www.w3.org/2000/svg">
<defs>
<clipPath id="c0_67"><path d="M-.2 825.3V-.2H1467V825.3Z"/></clipPath>
<clipPath id="c1_67"><path d="M1343.9 529.1V456.4H1452v72.7Z"/></clipPath>
<clipPath id="c2_67"><path d="M1349.6 642.5V570.9h102.9v71.6Z"/></clipPath>
<clipPath id="c3_67"><path d="M1346.4 716.6V641.9h103v74.7Z"/></clipPath>
<clipPath id="c4_67"><path d="M1353 825V744.6h96.2V825Z"/></clipPath>
<clipPath id="c5_67"><path d="M256.9 458.3V270.6H1267V458.3Z"/></clipPath>
<style>
.g0_67{fill:#F00;}
.g1_67{fill:none;stroke:#000;stroke-width:1.466;stroke-linejoin:round;}
</style>
</defs>
<image clip-path="url(#c0_67)" preserveAspectRatio="none" x="0" y="-7" width="1467" height="840" href="img/1.jpg"/>
<path fill-rule="evenodd" d="M275.7 237.2c.8 0 1.5 .3 2 .9c.6 .6 .8 1.3 .8 2.1c0 .8-.2 1.5-.8 2.1c-.6 .6-1.3 .8-2.1 .8c-.8 0-1.5-.2-2.1-.8c-.5-.6-.8-1.3-.8-2.1c0-.8 .3-1.5 .8-2.1c.6-.6 1.3-.9 2.2-.9ZM276 215c1.9 0 3.6 .6 4.9 1.7c1.3 1 2 2.5 2 4.2c0 1-.3 1.9-.9 2.6c-.6 .9-1.5 1.3-2.5 1.3c-.8 0-1.4-.2-1.9-.8c-.6-.5-.8-1.1-.8-1.8c0-1.1 .4-1.9 1.3-2.4c.8-.6 1.3-1 1.3-1.4c0-.5-.3-1-.8-1.3c-.5-.3-1.2-.5-2-.5c-1 0-1.9 .3-2.5 .9c-.7 .5-1 1.3-1 2.1c0 .8 .3 1.8 1 3c1 1.8 1.6 3 1.8 3.6c.7 1.7 1.1 3.5 1.1 5.4c0 1.1-.1 2.2-.3 3.5h-1.5c0-.3 .1-.5 .1-.6l.1-1.3c0-.9-.6-1.9-1.8-2.9c-2-1.8-3.1-2.8-3.3-3c-1.2-1.4-1.8-3-1.8-4.8c0-2.1 .8-3.9 2.2-5.4c1.4-1.4 3.2-2.1 5.3-2.1Z" class="g0_67"/>
<path d="M275.7 237.2c.8 0 1.5 .3 2 .9c.6 .6 .8 1.3 .8 2.1c0 .8-.2 1.5-.8 2.1c-.6 .6-1.3 .8-2.1 .8c-.8 0-1.5-.2-2.1-.8c-.5-.6-.8-1.3-.8-2.1c0-.8 .3-1.5 .8-2.1c.6-.6 1.3-.9 2.2-.9ZM276 215c1.9 0 3.6 .6 4.9 1.7c1.3 1 2 2.5 2 4.2c0 1-.3 1.9-.9 2.6c-.6 .9-1.5 1.3-2.5 1.3c-.8 0-1.4-.2-1.9-.8c-.6-.5-.8-1.1-.8-1.8c0-1.1 .4-1.9 1.3-2.4c.8-.6 1.3-1 1.3-1.4c0-.5-.3-1-.8-1.3c-.5-.3-1.2-.5-2-.5c-1 0-1.9 .3-2.5 .9c-.7 .5-1 1.3-1 2.1c0 .8 .3 1.8 1 3c1 1.8 1.6 3 1.8 3.6c.7 1.7 1.1 3.5 1.1 5.4c0 1.1-.1 2.2-.3 3.5h-1.5c0-.3 .1-.5 .1-.6l.1-1.3c0-.9-.6-1.9-1.8-2.9c-2-1.8-3.1-2.8-3.3-3c-1.2-1.4-1.8-3-1.8-4.8c0-2.1 .8-3.9 2.2-5.4c1.4-1.4 3.2-2.1 5.3-2.1Z" class="g1_67"/>
<image clip-path="url(#c1_67)" preserveAspectRatio="none" x="1344" y="457" width="108" height="72" href="img/2.jpg"/>
<image clip-path="url(#c2_67)" preserveAspectRatio="none" x="1350" y="571" width="102" height="71" href="img/3.jpg"/>
<image clip-path="url(#c3_67)" preserveAspectRatio="none" x="1347" y="642" width="102" height="74" href="img/4.jpg"/>
<image clip-path="url(#c4_67)" preserveAspectRatio="none" x="1353" y="745" width="96" height="80" href="img/5.jpg"/>
<image clip-path="url(#c5_67)" preserveAspectRatio="none" x="257" y="271" width="1010" height="187" href="img/6.jpg"/>
</svg>