<svg viewBox="0 0 1466 825" version="1.1" xmlns="http://www.w3.org/2000/svg">
<defs>
<clipPath id="c0_55"><path d="M-.2 825.3V-.2H1467V825.3Z"/></clipPath>
<clipPath id="c1_55"><path d="M1343.9 529.1V456.4H1452v72.7Z"/></clipPath>
<clipPath id="c2_55"><path d="M1346.3 621.3V549.7h102.9v71.6Z"/></clipPath>
<clipPath id="c3_55"><path d="M1346.4 716.6V641.9h103v74.7Z"/></clipPath>
<clipPath id="c4_55"><path d="M1353 825V744.6h96.2V825Z"/></clipPath>
<clipPath id="c5_55"><path d="M-.2 825.3V436.2h708V825.3Z"/></clipPath>
<style>
.g0_55{fill:#F00;}
.g1_55{fill:none;stroke:#000;stroke-width:1.466;stroke-linejoin:round;}
</style>
</defs>
<image clip-path="url(#c0_55)" preserveAspectRatio="none" x="0" y="-7" width="1467" height="840" href="img/1.jpg"/>
<path fill-rule="evenodd" d="M348.2 390.9c1.2 0 2.2 .5 3.1 1.4c.8 .9 1.2 1.9 1.2 3.1c0 1.2-.4 2.3-1.3 3.2c-.8 .8-1.9 1.3-3.1 1.3c-1.2 0-2.2-.5-3.1-1.4c-.8-.8-1.3-1.9-1.3-3.1c0-1.2 .5-2.3 1.3-3.1c.9-.9 2-1.4 3.2-1.4Zm.5-33.2c2.9 0 5.3 .8 7.3 2.5c2.1 1.6 3.1 3.7 3.1 6.4c0 1.5-.5 2.8-1.3 3.9c-1 1.3-2.3 1.9-3.8 1.9c-1.2 0-2.2-.4-3-1.2c-.8-.8-1.2-1.7-1.2-2.7c0-1.7 .7-2.9 2-3.7c1.3-.8 2-1.5 2-2c0-.8-.4-1.5-1.2-2c-.7-.5-1.7-.7-3-.7c-1.5 0-2.8 .4-3.8 1.3c-1 .9-1.5 1.9-1.5 3.2c0 1.2 .5 2.7 1.5 4.5c1.6 2.7 2.5 4.5 2.8 5.3c1 2.5 1.5 5.3 1.5 8.2c0 1.5-.1 3.3-.3 5.3l-2.2-.1c0-.4 0-.7 0-1l.2-1.8c0-1.4-.9-2.8-2.6-4.4c-3.1-2.7-4.7-4.2-5-4.5c-1.8-2.1-2.7-4.5-2.7-7.2c0-3.2 1.1-5.9 3.3-8c2.1-2.1 4.8-3.2 7.9-3.2Z" class="g0_55"/>
<path d="M348.2 390.9c1.2 0 2.2 .5 3.1 1.4c.8 .9 1.2 1.9 1.2 3.1c0 1.2-.4 2.3-1.3 3.2c-.8 .8-1.9 1.3-3.1 1.3c-1.2 0-2.2-.5-3.1-1.4c-.8-.8-1.3-1.9-1.3-3.1c0-1.2 .5-2.3 1.3-3.1c.9-.9 2-1.4 3.2-1.4Zm.5-33.2c2.9 0 5.3 .8 7.3 2.5c2.1 1.6 3.1 3.7 3.1 6.4c0 1.5-.5 2.8-1.3 3.9c-1 1.3-2.3 1.9-3.8 1.9c-1.2 0-2.2-.4-3-1.2c-.8-.8-1.2-1.7-1.2-2.7c0-1.7 .7-2.9 2-3.7c1.3-.8 2-1.5 2-2c0-.8-.4-1.5-1.2-2c-.7-.5-1.7-.7-3-.7c-1.5 0-2.8 .4-3.8 1.3c-1 .9-1.5 1.9-1.5 3.2c0 1.2 .5 2.7 1.5 4.5c1.6 2.7 2.5 4.5 2.8 5.3c1 2.5 1.5 5.3 1.5 8.2c0 1.5-.1 3.3-.3 5.3l-2.2-.1c0-.4 0-.7 0-1l.2-1.8c0-1.4-.9-2.8-2.6-4.4c-3.1-2.7-4.7-4.2-5-4.5c-1.8-2.1-2.7-4.5-2.7-7.2c0-3.2 1.1-5.9 3.3-8c2.1-2.1 4.8-3.2 7.9-3.2Z" class="g1_55"/>
<image clip-path="url(#c1_55)" preserveAspectRatio="none" x="1344" y="457" width="108" height="72" href="img/2.jpg"/>
<image clip-path="url(#c2_55)" preserveAspectRatio="none" x="1347" y="550" width="102" height="71" href="img/3.jpg"/>
<image clip-path="url(#c3_55)" preserveAspectRatio="none" x="1347" y="642" width="102" height="74" href="img/4.jpg"/>
<image clip-path="url(#c4_55)" preserveAspectRatio="none" x="1353" y="745" width="96" height="80" href="img/5.jpg"/>
<image clip-path="url(#c5_55)" preserveAspectRatio="none" x="0" y="437" width="707" height="393" href="img/6.jpg"/>
</svg>