<svg viewBox="0 0 1466 825" version="1.1" xmlns="http://www.w3.org/2000/svg">
<defs>
<clipPath id="c0_58"><path d="M-.2 825.3V-.2H1467V825.3Z"/></clipPath>
<clipPath id="c1_58"><path d="M1343.9 529.1V456.4H1452v72.7Z"/></clipPath>
<clipPath id="c2_58"><path d="M1346.3 621.3V549.7h102.9v71.6Z"/></clipPath>
<clipPath id="c3_58"><path d="M1346.4 716.6V641.9h103v74.7Z"/></clipPath>
<clipPath id="c4_58"><path d="M1353 825V744.6h96.2V825Z"/></clipPath>
<clipPath id="c5_58"><path d="M6.5 825V407.4h707V825Z"/></clipPath>
<style>
.g0_58{fill:#F00;}
.g1_58{fill:none;stroke:#000;stroke-width:1.466;stroke-linejoin:round;}
</style>
</defs>
<image clip-path="url(#c0_58)" preserveAspectRatio="none" x="0" y="-7" width="1467" height="840" href="img/1.jpg"/>
<path fill-rule="evenodd" d="M1223.4 260.6l3.3 2.2l-2.6 3l-2.8-1.8l-2.1 2.3l-3.4-1.9l2.5-3.2l3 1.8Zm-112.8 0l3.4 2.2l-2.6 3l-2.9-1.8l-2.1 2.3l-3.4-1.9l2.6-3.2l2.9 1.8ZM1286.4 249l6.2 3.3l-3.2 6l-6.3-3.2Zm-862.6 0l6.2 3.3l-3.2 6l-6.3-3.2Zm-183 0l6.3 3.3l-3.3 6l-6.2-3.2Zm1034.3-.3l4.9 2.8l-2.7 5.2l-4-2L1271 259l-4.9-2.7l3-5.5l3.8 2.2Zm-202.8 0l5 2.8l-2.8 5.2l-4-2l-2.2 4.3l-4.9-2.7l2.9-5.5l3.8 2.2Zm-298.1 0l5 2.8l-2.8 5.2l-4-2l-2.2 4.3l-4.9-2.7l2.9-5.5L772 253Zm-139.7 0l5 2.8l-2.8 5.2l-4-2l-2.2 4.3l-4.9-2.7l2.9-5.5l3.8 2.2Zm-39.6 0l5 2.8l-2.8 5.2l-4-2l-2.2 4.3l-4.9-2.7l2.9-5.5l3.8 2.2Zm-207.2 0l5 2.8l-2.8 5.2l-4-2l-2.2 4.3l-4.9-2.7l3-5.5l3.8 2.2Zm668.9-13.6c-.6 0-1 .2-1.4 .7c-.3 .4-.5 .9-.5 1.4c0 .6 .4 1.2 1.1 1.6c.7 .4 1.6 .6 2.8 .6h1c-.5-2.8-1.5-4.3-3-4.3Zm-437.8 0c-.6 0-1 .2-1.4 .7c-.3 .4-.5 .9-.5 1.4c0 .6 .4 1.2 1.1 1.6c.7 .4 1.6 .6 2.8 .6h1c-.5-2.8-1.5-4.3-3-4.3Zm-207.2 0c-.6 0-1 .2-1.3 .7c-.4 .4-.5 .9-.5 1.4c0 .6 .3 1.2 1 1.6c.7 .4 1.7 .6 2.8 .6h1.1c-.6-2.8-1.6-4.3-3.1-4.3Zm395.2-.1c-.7 0-1.3 .8-1.8 2.4c.9 .3 1.7 .6 2.1 .8c1.5 .5 2.3 .8 2.5 .8c.4 0 .6-.1 .6-.4c0-.4-.4-1.1-1.2-2c-.8-1.1-1.6-1.6-2.2-1.6Zm222.1-.9c-1.2 0-2.5 .4-4 1.2c-1.5 .7-3.6 2.1-6.4 4.1h7c5.9 0 8.9-.9 8.9-2.7c0-.8-.7-1.5-2-2c-1-.4-2.2-.6-3.5-.6Zm-659.8 0c-1.2 0-2.5 .4-4 1.2c-1.5 .7-3.6 2.1-6.4 4.1h7c5.9 0 8.8-.9 8.8-2.7c0-.8-.6-1.5-1.9-2c-1-.4-2.2-.6-3.5-.6Zm1018.6-4c.5 1.1 .8 2.1 1 3c.2 1 .3 2.1 .3 3.5v10.1c-2 0-3.6-.1-5-.4c-1.3-.3-2.6-.7-3.9-1.4c-1 .8-2 1.3-2.8 1.5c-.8 .2-2 .3-3.6 .3h-4.4c-1.2 0-2.2-.3-2.9-.9c-.7-.6-1.3-1.7-1.8-3.1c-1 1.5-2.1 2.6-3.3 3.2c-1.1 .6-2.3 .8-3.8 .8h-5.4c-3.3 0-6.2 .3-8.7 .8c-2.5 .6-3.8 1.2-3.8 2c.7 2.1 1.3 4.1 1.9 6c.5 1.9 .8 3.7 .8 5.3c0 1.3-.1 2.2-.4 3c-.2 .8-.7 1.6-1.3 2.5c-.2-2.4-.7-4.9-1.3-7.5c-.3-.9-.9-2.8-1.8-5.8c-.6-1.8-.8-2.9-.8-3.5c0-.9 .2-1.9 .7-3.2c.3-1 .8-1.9 1.2-2.7c.6-.9 1.6-1.6 3-2.1c1.5-.5 3.6-1 6.5-1.3c-1.4-2-2.6-3-3.7-3c-.5 0-.9 .2-1.3 .5c-.4 .4-1.1 1.2-2 2.4l-1.3-.6c.7-2.8 1.7-4.9 2.9-6.4c1.1-1.4 2.4-2.2 3.8-2.2c1.2 0 2.5 .7 4 2.1c1.4 1.4 3.2 3.5 5.1 6.4h1.9c1.9 0 3.5-.5 4.7-1.6c1.7-1.3 2.5-3.4 2.5-6.2l1.7 .2c0 .6 0 1.3-.1 2c0 .7 0 1.5 0 2.4c0 1 .3 1.7 .9 2.3c.7 .6 1.4 .9 2.2 .9h3.3c2.2 0 3.7-.3 4.7-.9c1.1-.7 1.6-2.1 1.6-4.1c0-.4 .2-.8 .4-1.1c.2-.2 .5-.5 1-.9l1.1-.8c0 .3 0 .8 0 1.4c.1 .5 .1 .9 .1 1.1c0 1-.2 2.3-.5 3.9c.7 .3 1.4 .6 2.3 .9c.8 .2 1.7 .4 2.6 .5c0-.6-.3-1.4-.7-2.4c-.4-.9-.7-1.6-.7-1.9c0-.5 .1-.9 .2-1.1c.1-.1 .3-.4 .6-.8Zm-820.4-1.8c-.5 .3-1 .5-1.3 .7c-1 .5-1.8 1-2.4 1.4c-.4 .4-.8 .7-1 1c-.4 .4-.6 .7-.6 .9c0 .3 .3 .5 1 .6c.6 .1 1.2 .2 1.8 .2c.4 0 .8-.1 1.3-.3c.4-.2 1-.6 1.8-1.2Zm146.9-.6l1.5 1c-.4 .7-.7 1.3-1 1.9c-.2 .6-.4 1.1-.6 1.5c-.2 .9-.4 1.7-.4 2.5c0 1 .4 1.9 1 2.7c.7 .9 1.5 1.4 2.6 1.6c.6 .2 1.4 .3 2.4 .4c1 .1 2.1 .1 3.2 .1h19.4c-.5-1.4-.9-2.3-1.2-2.9c-.4-.7-1-1.5-1.8-2.6l2.4-6.2c1.3 1.9 2.2 3.7 2.6 5.3c.4 1.4 .6 3.5 .6 6.1v7.6H722.3c-1.1 0-2 0-2.7 0c-.7 0-1.2 0-1.6-.1c-.7 0-1.4-.2-2.3-.5c-1.5-.5-2.7-1.5-3.6-3.1c-1-1.5-1.4-3.2-1.4-5.2c0-.7 0-1.5 .1-2.3c.1-.7 .3-1.6 .6-2.5c.4-1.1 .8-2 1.3-2.9c.5-.8 1-1.6 1.5-2.4Zm-428.8 0l1.5 1c-.4 .7-.7 1.3-1 1.9c-.2 .6-.5 1.1-.6 1.5c-.3 .9-.4 1.7-.4 2.5c0 1 .3 1.9 1 2.7c.6 .9 1.5 1.4 2.6 1.6c.6 .2 1.4 .3 2.4 .4c1 .1 2.1 .1 3.2 .1h19.4c-.5-1.4-.9-2.3-1.2-2.9c-.4-.7-1-1.5-1.9-2.6l2.5-6.2c1.3 1.9 2.2 3.7 2.6 5.3c.4 1.4 .5 3.5 .5 6.1v7.6H293.5c-1.1 0-2 0-2.7 0c-.7 0-1.3 0-1.6-.1c-.7 0-1.5-.2-2.3-.5c-1.5-.5-2.7-1.5-3.6-3.1c-1-1.5-1.5-3.2-1.5-5.2c0-.7 .1-1.5 .2-2.3c.1-.7 .3-1.6 .6-2.5c.4-1.1 .8-2 1.3-2.9c.5-.8 1-1.6 1.5-2.4Zm-101 0l1.5 1c-.4 .7-.7 1.3-1 1.9c-.3 .6-.5 1.1-.6 1.5c-.3 .9-.4 1.7-.4 2.5c0 1 .3 1.9 1 2.7c.6 .9 1.5 1.4 2.5 1.6c.7 .2 1.5 .3 2.5 .4c1 .1 2.1 .1 3.2 .1h19.4c-.5-1.4-.9-2.3-1.2-2.9c-.4-.7-1-1.5-1.9-2.6l2.4-6.2c1.4 1.9 2.3 3.7 2.7 5.3c.3 1.4 .5 3.5 .5 6.1v7.6H192.5c-1.1 0-2 0-2.7 0c-.7 0-1.3 0-1.6-.1c-.7 0-1.5-.2-2.3-.5c-1.5-.5-2.7-1.5-3.7-3.1c-.9-1.5-1.4-3.2-1.4-5.2c0-.7 .1-1.5 .2-2.3c.1-.7 .3-1.6 .6-2.5c.3-1.1 .8-2 1.3-2.9c.4-.8 1-1.6 1.5-2.4Zm1064.9-.2c1.4 1.6 2.3 3.1 2.8 4.8c.4 1.7 .7 4.2 .7 7.4v7h-17.7c-.8 0-1.4 .1-1.7 .1c-.4 0-.5 .2-.5 .3c.5 .4 1 .6 1.4 .7c.5 .1 .8 .2 .9 .4c.2 .2 .3 .5 .3 .9c0 1.3-.4 2.8-1.1 4.6c-.8 1.7-1.5 2.8-2.2 3.3c-.6 .5-2.6 1.2-5.9 1.9c-3.2 .7-6 1.1-8.4 1.1c-3.4 0-6.1-.7-8.2-2.1c-2.1-1.4-3.1-3.2-3.1-5.5c0-2.2 .5-4.3 1.4-6.2c1.1-2.4 3.1-5.5 6.1-9.1l1.6 1.1c-1.8 2.2-3.1 4.1-3.9 5.5c-.7 1.5-1.1 2.9-1.1 4.2c0 2 .8 3.4 2.4 4.3c1.6 .9 4 1.4 7.4 1.4c1.7 0 4.1-.3 7.1-1c3.1-.6 4.6-1.1 4.6-1.6c0-.2-.6-.4-1.8-.6c-1.1-.2-2.4-.2-3.8-.2c-2.1 0-3.1-.5-3.1-1.4c0-.4 .3-1.1 .8-2.2c.3-.7 .6-1.5 1-2.2c.7-1.5 1.9-2.7 3.8-3.6c1.9-.9 3.8-1.4 5.9-1.4h15.1c-.2-1.2-.5-2.2-1.1-3.1c-.2-.4-.9-1.2-1.8-2.4Zm-175.1 0c1.4 1.6 2.3 3.1 2.8 4.8c.5 1.7 .7 4.2 .7 7.4v7h-15.3l-.5 2.8c-.7 1.5-1.7 3-3 4.5c-2.6 3-5.2 4.5-7.7 4.5c-1.5 0-3.1-.4-4.9-1.4c-1.7-.9-4.4-2.8-8.1-5.6l1.1-1.6c2 1.3 3.5 2.2 4.8 2.6c1 .4 2.2 .5 3.4 .5c1.8 0 3.5-.4 5.2-1.4c2-1.2 4.1-3 6.2-5.5c-.7 .1-1.4 .1-1.8 .1c-1.8 0-3.2-.5-4.3-1.7c-1-1.2-1.6-2.7-1.6-4.7c0-2.7 .7-5.3 1.9-7.8c1.3-2.7 2.9-4 4.6-4c1.4 0 2.6 .9 3.6 2.9c1 1.9 1.5 4.3 1.5 7.1v1.4H1075c-.2-1.2-.5-2.2-1-3.1c-.3-.4-.9-1.2-1.9-2.4Zm-644.9 0c1.3 1.6 2.2 3.1 2.7 4.8c.5 1.7 .7 4.2 .7 7.4v7H417.5l-.6 2.8c-.7 1.5-1.6 3-2.9 4.5c-2.6 3-5.2 4.5-7.8 4.5c-1.5 0-3.1-.4-4.9-1.4c-1.7-.9-4.4-2.8-8.1-5.6l1.1-1.6c2 1.3 3.6 2.2 4.8 2.6c1 .4 2.2 .5 3.5 .5c1.7 0 3.4-.4 5.1-1.4c2-1.2 4.1-3 6.3-5.5c-.8 .1-1.4 .1-1.9 .1c-1.8 0-3.2-.5-4.2-1.7c-1.1-1.2-1.6-2.7-1.6-4.7c0-2.7 .6-5.3 1.8-7.8c1.4-2.7 2.9-4 4.6-4c1.4 0 2.7 .9 3.7 2.9c1 1.9 1.5 4.3 1.5 7.1v1.4h12.2c-.2-1.2-.6-2.2-1.1-3.1c-.3-.4-.9-1.2-1.9-2.4ZM969 225.6c.6 0 1.9 .1 3.8 .3c1.8 .2 3.5 .4 4.9 .5c2.8 .2 5.4 .3 8 .3l-1.6 6.5c-1 0-1.9 0-2.7 .2c-1 .2-1.9 .4-2.7 .5c-.1 .4-.1 .8-.1 1.2c-.1 .4-.1 .7-.1 1c0 1.3 .4 2.1 1.2 2.6c.9 .5 2.4 .7 4.7 .7h13.2c2.1 0 3.7-.5 4.8-1.6c1.2-1.2 2-3.3 2.4-6.2l1.8 .2c0 .7-.1 1.2-.1 1.6c-.1 1.2-.1 2.1-.1 2.8c0 1.1 .3 1.8 .8 2.4c.5 .6 1.3 .8 2.1 .8c.9 0 1.7-.1 2.5-.5c.7-.4 1.9-1.1 3.5-2.2l9.6-6.9c1.1-.8 2-1.4 2.5-1.7c1.3-.8 2.6-1.2 3.8-1.2c2 0 3.6 .7 4.8 2.1c1.4 1.7 2.1 4.1 2.1 7.5v10.2h-28.4c-1.3 0-2.3-.3-3.1-.9c-.7-.7-1.4-1.7-1.9-3.1c-.7 1-1.4 1.8-2.1 2.4v1.6H984.5c-3.2 0-5.3-.4-6.5-1.3c-1.1-.9-1.7-2.7-1.7-5.2c0-1.1 .1-2.2 .2-3.2c.1-.4 .2-1.2 .4-2.6c-4.1 1-7.3 2.6-9.8 4.9c-2.6 2.4-3.9 5.2-3.9 8.2c0 3.6 1.5 6.4 4.6 8.3c3.1 1.9 7.5 2.9 13.3 2.9c1.7 0 4.1-.2 7.3-.5l.5 .9l-10.3 6.5l-2.5 .1c-5.3 0-9.3-1.3-12.1-4c-2.9-2.7-4.3-6.5-4.3-11.4c0-3.7 .8-7.2 2.6-10.4c1.7-3.2 3.9-5.5 6.5-6.9h-.6c-1.6 0-3 .1-4.1 .4c-1.1 .4-2.7 1.1-4.9 2.2c.8-6.7 4.1-10 9.8-10Zm-80.8-4.2c2.3 1.7 3.9 3.9 4.9 6.7c.9 2.5 1.4 5.8 1.4 10v1.3h24.2c-2.2-2.2-4.2-3.8-6.1-4.8c-1.6-.9-3.2-1.3-4.7-1.3c-.5 0-.9 0-1.3 .1c-.4 0-.9 .1-1.7 .3c1-2.3 2.1-4 3.3-5c1.2-1.1 2.6-1.6 4.1-1.6c1.2 0 2.3 .2 3.4 .8c1.1 .6 2.4 1.5 3.7 2.8c1.1 1 2.6 2.5 4.6 4.7c1.3 1.5 2.4 2.5 3.1 2.9c.7 .5 1.7 .8 3.1 1.1v7.3H882.3c-1.2 0-2.1-.2-2.7-.7c-.8-.6-1.2-1.6-1.2-3c0-.8 .1-1.6 .1-2.5c.1-1 .2-1.9 .4-2.8l1-.1c.2 .7 .5 1.1 1 1.4c.5 .3 1.1 .4 1.8 .4h9.2c-.4-2.6-1.1-4.7-2.2-6.3c-.8-1.3-2-2.4-3.5-3.4Zm-354.8 0c2.3 1.7 4 3.9 5 6.7c.9 2.5 1.3 5.8 1.3 10v8.6H527.5c-1.2 0-2.1-.2-2.7-.7c-.7-.6-1.1-1.6-1.1-3c0-.8 0-1.6 .1-2.5c.1-1 .2-1.9 .3-2.8l1.1-.1c.1 .7 .4 1.1 .9 1.4c.5 .3 1.1 .4 1.8 .4h9.3c-.5-2.6-1.2-4.7-2.2-6.3c-.8-1.3-2-2.4-3.5-3.4Zm197-2.9l5 2.8l-2.8 5.2l-4-2l-2.2 4.3l-4.9-2.7l2.9-5.5l3.8 2.2Zm-428.8 0l4.9 2.8l-2.7 5.2l-4-2l-2.3 4.3l-4.9-2.7l3-5.5l3.8 2.2Zm-101.1 0l5 2.8l-2.7 5.2l-4-2l-2.3 4.3l-4.9-2.7l3-5.5l3.8 2.2Zm368.4-2.1l2.5 16.8c.4 2.6 1 4.4 1.6 5.3c.5 .6 1.1 .9 1.8 .9h22.8c-.2-1.2-.5-2.2-1-3.1c-.3-.4-.9-1.2-1.9-2.4l2.1-6.4c1.4 1.6 2.3 3.1 2.8 4.8c.5 1.7 .7 4.2 .7 7.4v7H574.8c-.6 0-1.2-.1-1.8-.4c-1-.5-1.9-1.4-2.6-2.8c-1-1.9-1.6-4.5-1.9-7.8c-1.2 1.5-2.1 2.6-2.8 3.2c-1 .9-1.8 1.4-2.5 1.4c-.3 0-.8-.1-1.3-.2l-3.3-.6c-1.4-.3-2.2-.5-2.5-.6c-.4-.2-.5-.4-.5-.7c0-.5 .6-2 1.8-4.6c1.3-2.6 2.2-4.2 2.7-4.8c.5-.5 1.3-1.1 2.4-1.8c.7-.5 1.7-1.1 2.9-1.9l1.5-.8c-.1-.2-.1-.5-.2-.8c0-.2 0-.5 0-.7c0-.7 .2-1.5 .5-2.6c.3-1 .8-2.3 1.7-3.8Zm591.4-1.1l5 2.7l-2.8 5.2l-4-1.9l-2.2 4.3l-4.9-2.7l2.9-5.5l3.8 2.1Zm-668.4-.5l6.2 3.3l-3.2 6.1l-6.3-3.3Zm526.6-.2l6.2 3.3l-3.2 6l-6.3-3.3Zm-659.8 0l6.2 3.3l-3.2 6l-6.3-3.3Zm888-.4l6.3 3.3l-3.3 6l-6.2-3.3Zm-988.2 0l6.3 3.3l-3.2 6l-6.3-3.3Zm1174.1-.1l1.6 9.6c.6 3.6 1 6.7 1.3 9.3c.1 2.1 .2 4.1 .2 5.9c0 1.6-.2 3.1-.6 4.4c-.3 1.3-1.1 3.1-2.1 5.3l-1.6-.7c.4-2.2 .6-4.1 .6-5.5c0-1.1-.1-2.7-.3-4.8c-.1-2.2-.4-4.2-.6-6.3c-.3-2.1-.7-4.5-1.3-7.4c-.3-1-.4-1.7-.4-2.1c0-.5 .3-1.5 .9-2.8c.5-1.4 1.3-3 2.3-4.9Zm-117.7 0l1.6 9.6c.6 3.6 1 6.7 1.3 9.3c.1 2.1 .2 4.1 .2 5.9c0 1.6-.2 3.1-.6 4.4c-.3 1.3-1.1 3.1-2.1 5.3l-1.6-.7c.4-2.2 .6-4.1 .6-5.5c0-1.1-.1-2.7-.3-4.8c-.1-2.2-.4-4.2-.6-6.3c-.3-2.1-.7-4.5-1.3-7.4c-.3-1-.4-1.7-.4-2.1c0-.5 .3-1.5 .9-2.8c.5-1.4 1.3-3 2.3-4.9Zm-129.6 0l1.6 9.6c.6 3.6 1 6.7 1.2 9.3c.2 2.1 .3 4.1 .3 5.9c0 1.6-.2 3.1-.6 4.4c-.3 1.3-1.1 3.1-2.1 5.3l-1.6-.7c.4-2.2 .6-4.1 .6-5.5c0-1.1-.1-2.7-.3-4.8c-.1-2.2-.4-4.2-.6-6.3c-.3-2.1-.8-4.5-1.4-7.4c-.2-1-.3-1.7-.3-2.1c0-.5 .3-1.5 .9-2.8c.5-1.4 1.3-3 2.3-4.9Zm-248.2 0l1.6 9.6c.6 3.6 1 6.7 1.2 9.3c.2 2.1 .3 4.1 .3 5.9c0 1.6-.2 3.1-.5 4.4c-.4 1.3-1.1 3.1-2.2 5.3l-1.6-.7c.4-2.2 .6-4.1 .6-5.5c0-1.1-.1-2.7-.2-4.8c-.2-2.2-.5-4.2-.7-6.3c-.3-2.1-.7-4.5-1.3-7.4c-.2-1-.4-1.7-.4-2.1c0-.5 .3-1.5 .9-2.8c.5-1.4 1.3-3 2.3-4.9Zm-82.4 0l1.7 9.6c.5 3.6 1 6.7 1.2 9.3c.2 2.1 .2 4.1 .2 5.9c0 1.6-.1 3.1-.5 4.4c-.4 1.3-1.1 3.1-2.2 5.3l-1.6-.7c.4-2.2 .7-4.1 .7-5.5c0-1.1-.1-2.7-.3-4.8c-.2-2.2-.4-4.2-.7-6.3c-.3-2.1-.7-4.5-1.3-7.4c-.2-1-.3-1.7-.3-2.1c0-.5 .2-1.5 .8-2.8c.6-1.4 1.3-3 2.3-4.9Zm-166.4 0l1.6 9.6c.6 3.6 1 6.7 1.2 9.3c.2 2.1 .3 4.1 .3 5.9c0 1.6-.2 3.1-.6 4.4c-.4 1.3-1.1 3.1-2.2 5.3l-1.6-.7c.5-2.2 .7-4.1 .7-5.5c0-1.1-.1-2.7-.3-4.8c-.2-2.2-.4-4.2-.7-6.3c-.2-2.1-.7-4.5-1.3-7.4c-.2-1-.3-1.7-.3-2.1c0-.5 .3-1.5 .8-2.8c.6-1.4 1.4-3 2.4-4.9Zm-172.6 0l1.7 9.6c.6 3.6 1 6.7 1.2 9.3c.2 2.1 .3 4.1 .3 5.9c0 1.6-.2 3.1-.6 4.4c-.4 1.3-1.1 3.1-2.2 5.3l-1.6-.7c.5-2.2 .7-4.1 .7-5.5c0-1.1-.1-2.7-.3-4.8c-.2-2.2-.4-4.2-.7-6.3c-.2-2.1-.7-4.5-1.3-7.4c-.2-1-.3-1.7-.3-2.1c0-.5 .3-1.5 .8-2.8c.6-1.4 1.4-3 2.3-4.9Zm-196 0c1 1.5 1.7 2.9 2.1 4.3c.5 1.6 .8 3.7 .8 6.2v5.3c0 3.7 .2 6.3 .7 7.8c.4 1.2 1 1.7 1.9 1.7h12.6c2.1 0 3.7-.5 4.8-1.6c1.2-1.2 2-3.3 2.4-6.2l1.8 .2c-.1 .7-.1 1.2-.1 1.6c-.1 1.2-.1 2.1-.1 2.8c0 1.1 .3 1.8 .8 2.4c.5 .6 1.2 .8 2.1 .8c.9 0 1.7-.1 2.4-.5c.8-.4 1.9-1.1 3.5-2.2l9.7-6.9c1.1-.8 1.9-1.4 2.5-1.7c1.3-.8 2.6-1.2 3.8-1.2c2 0 3.6 .7 4.8 2.1c1.4 1.7 2.1 4.1 2.1 7.5v2.9h12.2c-.2-1.2-.6-2.2-1.1-3.1c-.3-.4-.9-1.2-1.9-2.4l2.2-6.4c1.3 1.6 2.2 3.1 2.7 4.8c.5 1.7 .7 4.2 .7 7.4v7H349.9c-1.3 0-2.3-.3-3.1-.9c-.7-.7-1.4-1.7-1.9-3.1c-.8 1-1.4 1.8-2.1 2.4h-.1v1.6H325.2c-2.1 0-3.6-.8-4.5-2.5c-1.1-1.9-1.6-5.1-1.6-9.6v-7.7c0-1.7-.2-3.1-.7-4c-.3-.5-.8-1.2-1.6-2Zm-101 0c1 1.5 1.7 2.9 2.1 4.3c.5 1.6 .7 3.7 .7 6.2v5.3c0 3.7 .3 6.3 .8 7.8c.4 1.2 1 1.7 1.9 1.7h22.9c-.2-1.2-.6-2.2-1.1-3.1c-.2-.4-.9-1.2-1.9-2.4l2.2-6.4c1.3 1.6 2.3 3.1 2.7 4.8c.5 1.5 .7 3.5 .8 6.2v.9H262c-.2-1.2-.6-2.2-1.1-3.1c-.3-.4-.9-1.2-1.9-2.4l2.1-6.4c1.4 1.6 2.3 3.1 2.8 4.8c.5 1.7 .7 4.2 .7 7.4v7H224.2c-2.1 0-3.6-.8-4.6-2.5c-1-1.9-1.5-5.1-1.5-9.6v-7.7c0-1.7-.3-3.1-.7-4c-.3-.5-.8-1.2-1.6-2Zm249-2l1.3 .6c-.1 .2-.1 .5-.1 .8c0 .7 .3 1.3 1.1 1.8c1.1 .6 2.1 1.2 3.1 1.7c-.2 1.5-.4 2.6-.6 3.3c-.2 .7-.6 1.7-1.3 3l-.8-.3c0 .2 .3 1.8 .8 4.5c.5 2.8 .9 5.2 1.3 7.3c.4 2.1 .6 3.7 .7 4.6h24.2c-2.2-2.2-4.2-3.8-6.1-4.8c-1.6-.9-3.2-1.3-4.7-1.3c-.5 0-.9 0-1.3 .1c-.4 0-.9 .1-1.7 .3c1-2.3 2.1-4 3.3-5c1.2-1.1 2.6-1.6 4.1-1.6c1.2 0 2.4 .2 3.4 .8c1.1 .6 2.4 1.5 3.7 2.8c1.1 1 2.6 2.5 4.6 4.7c1.3 1.5 2.4 2.5 3.1 2.9c.7 .5 1.7 .8 3.1 1.1v7.3H473.2l-.2 1.4c-.6 1.9-1.9 3.7-4 5.3c-2.9 2.1-6.2 3.2-9.9 3.2c-3 0-5.4-.8-7.1-2.3c-1.8-1.6-2.6-3.7-2.6-6.5c0-2.6 .3-4.9 .9-6.8c.8-2.2 2.2-4.9 4.3-8l1.7 1.1c-1.4 2.1-2.4 3.9-3 5.4c-.6 1.6-.9 3.1-.9 4.6c0 1.7 .6 2.9 1.9 3.8c1.2 .9 2.9 1.3 5.1 1.3c3.1 0 5.7-.6 7.6-1.8c2-1.2 3-2.8 3-4.8c0-.3 0-.6 0-.8c0-.2 0-.3 0-.4c0-.7-.1-1.5-.2-2.3c-.1-.9-.4-2.6-.9-5.2c-.7-4.3-1.5-8.6-2.3-12.8l-1.3-1c0-1.7 .8-4.4 2.4-8Zm952.5-.1l1.3 .7c0 .1-.1 .3-.1 .8c0 .6 .3 1.2 1.1 1.7c.6 .5 1.7 1.1 3.1 1.7c-.1 1.1-.4 2.3-.7 3.4c-.3 1.1-.6 2-1 2.9l-1-.4l2.9 16.6v7.3h-12.9v.7c0 1-.6 2.5-1.9 4.3c-1.2 1.8-2.7 3.4-4.4 4.7c-1.8 1.4-3.4 2.2-4.8 2.2c-1.5 0-3.2-.5-5-1.4c-1.6-.7-4.1-2.3-7.4-4.6l1.1-1.6c1.6 1 2.9 1.8 3.9 2.1c1 .4 2 .6 3.2 .6c1.2 0 2.5-.3 3.7-1.1c1.2-.7 2.9-2 5.1-3.8c2.9-2.7 4.4-4.7 4.4-6.2c0-.7-.3-1.6-.8-2.8c-.7-1.3-1.5-2.4-2.4-3.3l1.5-7.2c1.2 1.2 2.2 2.6 2.8 4.3c.7 1.6 1 3.5 1 5.5v.3h9.7l-3.2-18.2l-1.7-1.1c0-1.1 .1-2.1 .4-3.2c.4-1.4 1.1-3 2.1-4.9Zm-117.7 0l1.3 .7c0 .1-.1 .3-.1 .8c0 .6 .3 1.2 1.1 1.7c.6 .5 1.7 1.1 3.1 1.7c-.1 1.1-.4 2.3-.7 3.4c-.3 1.1-.6 2-1 2.9l-1-.4l2.9 16.6v7.3h-46.2c-2.1 0-3.7-.8-4.6-2.5c-1-1.9-1.5-5.1-1.5-9.6v-7.7c0-1.7-.3-3.1-.8-4c-.2-.5-.7-1.2-1.6-2l2.9-6.8c1.1 1.5 1.8 2.9 2.2 4.3c.5 1.6 .7 3.7 .7 6.2v5.3c0 3.7 .3 6.3 .8 7.8c.4 1.2 1 1.7 1.9 1.7h15.9c-.2-1.2-.6-2.2-1.1-3.1c-.2-.4-.9-1.2-1.9-2.4l2.2-6.4c1.3 1.6 2.3 3.1 2.7 4.8c.5 1.5 .7 3.5 .8 6.2v.9h12.2c-.2-1.2-.6-2.2-1.1-3.1c-.3-.4-.9-1.2-1.9-2.4l2.1-6.4c1.4 1.6 2.3 3.1 2.8 4.8c.4 1.5 .7 3.5 .7 6.2v.9h9.6l-3.2-18.2l-1.7-1.1c0-1.1 .1-2.1 .4-3.2c.4-1.4 1.1-3 2.1-4.9Zm-129.6 0l1.2 .7c0 .1 0 .3-.1 .8c0 .6 .4 1.2 1.2 1.7c.6 .5 1.7 1.1 3.1 1.7c-.1 1.1-.4 2.3-.7 3.4c-.3 1.1-.6 2-1 2.9l-1-.4l2.9 16.6v7.3h-31.4c-2.1 0-3.6-.8-4.6-2.5c-1-1.9-1.5-5.1-1.5-9.6v-7.7c0-1.7-.3-3.1-.7-4c-.3-.5-.8-1.2-1.6-2l2.9-6.8c1 1.5 1.7 2.9 2.1 4.3c.5 1.6 .7 3.7 .7 6.2v5.3c0 3.7 .3 6.3 .8 7.8c.4 1.2 1 1.7 1.9 1.7H1163c-.2-1.2-.5-2.2-1-3.1c-.3-.4-.9-1.2-1.9-2.4l2.1-6.4c1.4 1.6 2.3 3.1 2.8 4.8c.4 1.5 .6 3.5 .7 6.2v.9h9.6l-3.3-18.2l-1.7-1.1c0-1.1 .2-2.1 .5-3.2c.4-1.4 1.1-3 2.1-4.9Zm-40.5 0l1.2 .7c0 .1 0 .3-.1 .8c0 .6 .4 1.2 1.1 1.7c.7 .5 1.8 1.1 3.2 1.7c-.1 1.1-.4 2.3-.7 3.4c-.3 1.1-.7 2-1.1 2.9l-.9-.4l2.9 16.6v7.3h-15.6c-.8 0-1.4 .1-1.8 .1c-.3 0-.5 .2-.5 .3c.5 .4 1 .6 1.5 .7c.4 .1 .7 .2 .9 .4c.1 .2 .2 .5 .2 .9c0 1.3-.4 2.8-1.1 4.6c-.7 1.7-1.4 2.8-2.1 3.3c-.7 .5-2.6 1.2-5.9 1.9c-3.3 .7-6.1 1.1-8.5 1.1c-3.3 0-6-.7-8.1-2.1c-2.1-1.4-3.1-3.2-3.1-5.5c0-2.2 .4-4.3 1.3-6.2c1.1-2.4 3.2-5.5 6.2-9.1l1.6 1.1c-1.9 2.2-3.2 4.1-3.9 5.5c-.8 1.5-1.1 2.9-1.1 4.2c0 2 .8 3.4 2.4 4.3c1.6 .9 4 1.4 7.3 1.4c1.7 0 4.1-.3 7.2-1c3-.6 4.5-1.1 4.5-1.6c0-.2-.6-.4-1.7-.6c-1.2-.2-2.5-.2-3.9-.2c-2 0-3-.5-3-1.4c0-.4 .2-1.1 .7-2.2c.3-.7 .7-1.5 1-2.2c.7-1.5 2-2.7 3.8-3.6c1.9-.9 3.9-1.4 5.9-1.4h12.6l-3.3-18.2l-1.7-1.1c0-1.1 .2-2.1 .5-3.2c.4-1.4 1.1-3 2.1-4.9Zm-345.6 0l1.2 .7c0 .1 0 .3-.1 .8c0 .6 .4 1.2 1.2 1.7c.6 .5 1.7 1.1 3.1 1.7c-.1 1.1-.4 2.3-.7 3.4c-.3 1.1-.6 2-1 2.9l-1-.4l2.9 16.6h3.4c1.6 0 2.9-.2 3.8-.5c1.3-.6 2.1-1.4 2.6-2.7c1-2.2 2.3-4.1 3.9-5.6c1.4-1.3 2.6-1.9 3.6-1.9c.9 0 2 1.4 3.4 4.1c1 2.2 1.7 4.3 2 6.2v.4h1.1c1.5 0 2.6 0 3.1-.2c.7-.1 1.5-.5 2.5-1c-.6-1.1-1-1.8-1.4-2.3c-.5-.6-1-.8-1.5-.8c-.2 0-.4 0-.6 .2c-.1 .1-.3 .3-.5 .7l-1.2-.1c0-3.3 .5-5.6 1.6-7c1.2-1.4 2.9-2.1 5.3-2.1c2.5 0 4.5 .5 5.9 1.5c1.5 1 2.2 2.3 2.2 4c0 .9-.2 1.8-.6 2.6c-.4 .9-1.1 2-2.1 3.4c.2 .4 .6 .6 1 .8c.4 .2 .8 .3 1.2 .3h13.7l-3.3-18.2l-1.7-1.1c0-1.1 .1-2.1 .5-3.2c.4-1.4 1.1-3 2.1-4.9l1.2 .7c0 .1 0 .3-.1 .8c0 .6 .4 1.2 1.1 1.7c.7 .5 1.7 1.1 3.2 1.7c-.2 1.1-.4 2.3-.7 3.4c-.3 1.1-.7 2-1.1 2.9l-1-.4l3 16.6v7.3H831.1c-1.4 0-2.6-.2-3.7-.8c-1.1-.6-1.9-1.5-2.6-2.8c-1.2 1.5-2.7 2.5-4.6 3.1c-1.2 .3-2.5 .5-4 .5h-2.8v-.1h-.5c-1.3-.2-2.7-.5-4.3-1c-2.3-.6-4.2-1.4-6-2.3c-1 1.6-2.3 2.6-3.8 3.1c-.7 .2-1.7 .3-3 .3H754c-2.1 0-3.6-.8-4.5-2.5c-1.1-1.9-1.6-5.1-1.6-9.6v-7.7c0-1.7-.2-3.1-.7-4c-.2-.5-.8-1.2-1.6-2l2.9-6.8c1 1.5 1.7 2.9 2.2 4.3c.4 1.6 .7 3.7 .7 6.2v5.3c0 3.7 .2 6.3 .7 7.8c.4 1.2 1 1.7 1.9 1.7h22.9c-.2-1.2-.5-2.2-1-3.1c-.3-.4-.9-1.2-1.9-2.4l2.1-6.4c1.4 1.6 2.3 3.1 2.8 4.8c.4 1.5 .6 3.5 .7 6.2v.9h9.6L786 221.2l-1.8-1.1c0-1.1 .2-2.1 .5-3.2c.4-1.4 1.1-3 2.1-4.9Zm-110.9 0l1.2 .7c0 .1 0 .3-.1 .8c0 .6 .4 1.2 1.2 1.7c.6 .5 1.7 1.1 3.1 1.7c-.1 1.1-.4 2.3-.7 3.4c-.3 1.1-.7 2-1.1 2.9l-.9-.4l2.9 16.6v7.3H624.6l-.5 2.8c-.7 1.5-1.7 3-3 4.5c-2.6 3-5.2 4.5-7.7 4.5c-1.5 0-3.1-.4-4.9-1.4c-1.7-.9-4.4-2.8-8.1-5.6l1.1-1.6c2 1.3 3.5 2.2 4.8 2.6c1 .4 2.2 .5 3.4 .5c1.8 0 3.5-.4 5.2-1.4c2-1.2 4.1-3 6.2-5.5c-.7 .1-1.4 .1-1.8 .1c-1.8 0-3.2-.5-4.3-1.7c-1-1.2-1.6-2.7-1.6-4.7c0-2.7 .7-5.3 1.9-7.8c1.3-2.7 2.9-4 4.6-4c1.4 0 2.6 .9 3.6 2.9c1 1.9 1.5 4.3 1.5 7.1v1.4h12.2c-.2-1.2-.5-2.2-1-3.1c-.3-.4-.9-1.2-1.9-2.4l2.1-6.4c1.4 1.6 2.3 3.1 2.8 4.8c.4 1.5 .6 3.5 .7 6.2v.9h17.2c-2.2-2.2-4.2-3.8-6.1-4.8c-1.6-.9-3.2-1.3-4.7-1.3c-.5 0-.9 0-1.3 .1c-.4 0-1 .1-1.7 .3c1-2.3 2.1-4 3.3-5c1.2-1.1 2.6-1.6 4.1-1.6c1.2 0 2.3 .2 3.4 .8c1.1 .6 2.3 1.5 3.7 2.8c1.1 1 2.6 2.5 4.6 4.7c1.3 1.5 2.3 2.5 3 2.9c.7 .5 1.8 .8 3.2 1.1h9.7L675 221.2l-1.7-1.1c0-1.1 .2-2.1 .5-3.2c.4-1.4 1.1-3 2.1-4.9Zm-108.6-5.4l4.8 2.5l-2.9 5l-3.8-2.2l-2.2 4.3l-5-2.8l2.8-4.7l4 2Zm370.7-.2c.3 0 .6 .1 .8 .4c.2 .2 .3 .5 .3 .8c0 .3-.1 .6-.1 .8c-.1 .2-.3 .5-.5 .9c-.9-.4-1.5-.7-1.8-.7c-.4 0-.7 .1-1 .3c-.2 .1-.4 .2-.6 .4c0 .2 .4 .6 1.3 1.1c.8 .5 1.5 .7 1.8 .7c.3 0 .9-.1 2-.4c-.2 .5-.5 .9-.7 1.2c-.2 .2-.5 .3-.9 .5l-5.8 1.7c.3-.6 .6-1.1 .9-1.3c.3-.2 .8-.5 1.5-.7c-.6-.3-.9-.6-1.1-.9c-.3-.2-.4-.5-.4-.8c0-.2 .1-.5 .2-.8c.2-.2 .4-.5 .6-.8c1.2-1.6 2.3-2.4 3.5-2.4Z" class="g0_58"/>
<path d="M1223.4 260.6l3.3 2.2l-2.6 3l-2.8-1.8l-2.1 2.3l-3.4-1.9l2.5-3.2l3 1.8Zm-112.8 0l3.4 2.2l-2.6 3l-2.9-1.8l-2.1 2.3l-3.4-1.9l2.6-3.2l2.9 1.8ZM1286.4 249l6.2 3.3l-3.2 6l-6.3-3.2Zm-862.6 0l6.2 3.3l-3.2 6l-6.3-3.2Zm-183 0l6.3 3.3l-3.3 6l-6.2-3.2Zm1034.3-.3l4.9 2.8l-2.7 5.2l-4-2L1271 259l-4.9-2.7l3-5.5l3.8 2.2Zm-202.8 0l5 2.8l-2.8 5.2l-4-2l-2.2 4.3l-4.9-2.7l2.9-5.5l3.8 2.2Zm-298.1 0l5 2.8l-2.8 5.2l-4-2l-2.2 4.3l-4.9-2.7l2.9-5.5L772 253Zm-139.7 0l5 2.8l-2.8 5.2l-4-2l-2.2 4.3l-4.9-2.7l2.9-5.5l3.8 2.2Zm-39.6 0l5 2.8l-2.8 5.2l-4-2l-2.2 4.3l-4.9-2.7l2.9-5.5l3.8 2.2Zm-207.2 0l5 2.8l-2.8 5.2l-4-2l-2.2 4.3l-4.9-2.7l3-5.5l3.8 2.2Zm668.9-13.6c-.6 0-1 .2-1.4 .7c-.3 .4-.5 .9-.5 1.4c0 .6 .4 1.2 1.1 1.6c.7 .4 1.6 .6 2.8 .6h1c-.5-2.8-1.5-4.3-3-4.3Zm-437.8 0c-.6 0-1 .2-1.4 .7c-.3 .4-.5 .9-.5 1.4c0 .6 .4 1.2 1.1 1.6c.7 .4 1.6 .6 2.8 .6h1c-.5-2.8-1.5-4.3-3-4.3Zm-207.2 0c-.6 0-1 .2-1.3 .7c-.4 .4-.5 .9-.5 1.4c0 .6 .3 1.2 1 1.6c.7 .4 1.7 .6 2.8 .6h1.1c-.6-2.8-1.6-4.3-3.1-4.3Zm395.2-.1c-.7 0-1.3 .8-1.8 2.4c.9 .3 1.7 .6 2.1 .8c1.5 .5 2.3 .8 2.5 .8c.4 0 .6-.1 .6-.4c0-.4-.4-1.1-1.2-2c-.8-1.1-1.6-1.6-2.2-1.6Zm222.1-.9c-1.2 0-2.5 .4-4 1.2c-1.5 .7-3.6 2.1-6.4 4.1h7c5.9 0 8.9-.9 8.9-2.7c0-.8-.7-1.5-2-2c-1-.4-2.2-.6-3.5-.6Zm-659.8 0c-1.2 0-2.5 .4-4 1.2c-1.5 .7-3.6 2.1-6.4 4.1h7c5.9 0 8.8-.9 8.8-2.7c0-.8-.6-1.5-1.9-2c-1-.4-2.2-.6-3.5-.6Zm1018.6-4c.5 1.1 .8 2.1 1 3c.2 1 .3 2.1 .3 3.5v10.1c-2 0-3.6-.1-5-.4c-1.3-.3-2.6-.7-3.9-1.4c-1 .8-2 1.3-2.8 1.5c-.8 .2-2 .3-3.6 .3h-4.4c-1.2 0-2.2-.3-2.9-.9c-.7-.6-1.3-1.7-1.8-3.1c-1 1.5-2.1 2.6-3.3 3.2c-1.1 .6-2.3 .8-3.8 .8h-5.4c-3.3 0-6.2 .3-8.7 .8c-2.5 .6-3.8 1.2-3.8 2c.7 2.1 1.3 4.1 1.9 6c.5 1.9 .8 3.7 .8 5.3c0 1.3-.1 2.2-.4 3c-.2 .8-.7 1.6-1.3 2.5c-.2-2.4-.7-4.9-1.3-7.5c-.3-.9-.9-2.8-1.8-5.8c-.6-1.8-.8-2.9-.8-3.5c0-.9 .2-1.9 .7-3.2c.3-1 .8-1.9 1.2-2.7c.6-.9 1.6-1.6 3-2.1c1.5-.5 3.6-1 6.5-1.3c-1.4-2-2.6-3-3.7-3c-.5 0-.9 .2-1.3 .5c-.4 .4-1.1 1.2-2 2.4l-1.3-.6c.7-2.8 1.7-4.9 2.9-6.4c1.1-1.4 2.4-2.2 3.8-2.2c1.2 0 2.5 .7 4 2.1c1.4 1.4 3.2 3.5 5.1 6.4h1.9c1.9 0 3.5-.5 4.7-1.6c1.7-1.3 2.5-3.4 2.5-6.2l1.7 .2c0 .6 0 1.3-.1 2c0 .7 0 1.5 0 2.4c0 1 .3 1.7 .9 2.3c.7 .6 1.4 .9 2.2 .9h3.3c2.2 0 3.7-.3 4.7-.9c1.1-.7 1.6-2.1 1.6-4.1c0-.4 .2-.8 .4-1.1c.2-.2 .5-.5 1-.9l1.1-.8c0 .3 0 .8 0 1.4c.1 .5 .1 .9 .1 1.1c0 1-.2 2.3-.5 3.9c.7 .3 1.4 .6 2.3 .9c.8 .2 1.7 .4 2.6 .5c0-.6-.3-1.4-.7-2.4c-.4-.9-.7-1.6-.7-1.9c0-.5 .1-.9 .2-1.1c.1-.1 .3-.4 .6-.8Zm-820.4-1.8c-.5 .3-1 .5-1.3 .7c-1 .5-1.8 1-2.4 1.4c-.4 .4-.8 .7-1 1c-.4 .4-.6 .7-.6 .9c0 .3 .3 .5 1 .6c.6 .1 1.2 .2 1.8 .2c.4 0 .8-.1 1.3-.3c.4-.2 1-.6 1.8-1.2Zm146.9-.6l1.5 1c-.4 .7-.7 1.3-1 1.9c-.2 .6-.4 1.1-.6 1.5c-.2 .9-.4 1.7-.4 2.5c0 1 .4 1.9 1 2.7c.7 .9 1.5 1.4 2.6 1.6c.6 .2 1.4 .3 2.4 .4c1 .1 2.1 .1 3.2 .1h19.4c-.5-1.4-.9-2.3-1.2-2.9c-.4-.7-1-1.5-1.8-2.6l2.4-6.2c1.3 1.9 2.2 3.7 2.6 5.3c.4 1.4 .6 3.5 .6 6.1v7.6H722.3c-1.1 0-2 0-2.7 0c-.7 0-1.2 0-1.6-.1c-.7 0-1.4-.2-2.3-.5c-1.5-.5-2.7-1.5-3.6-3.1c-1-1.5-1.4-3.2-1.4-5.2c0-.7 0-1.5 .1-2.3c.1-.7 .3-1.6 .6-2.5c.4-1.1 .8-2 1.3-2.9c.5-.8 1-1.6 1.5-2.4Zm-428.8 0l1.5 1c-.4 .7-.7 1.3-1 1.9c-.2 .6-.5 1.1-.6 1.5c-.3 .9-.4 1.7-.4 2.5c0 1 .3 1.9 1 2.7c.6 .9 1.5 1.4 2.6 1.6c.6 .2 1.4 .3 2.4 .4c1 .1 2.1 .1 3.2 .1h19.4c-.5-1.4-.9-2.3-1.2-2.9c-.4-.7-1-1.5-1.9-2.6l2.5-6.2c1.3 1.9 2.2 3.7 2.6 5.3c.4 1.4 .5 3.5 .5 6.1v7.6H293.5c-1.1 0-2 0-2.7 0c-.7 0-1.3 0-1.6-.1c-.7 0-1.5-.2-2.3-.5c-1.5-.5-2.7-1.5-3.6-3.1c-1-1.5-1.5-3.2-1.5-5.2c0-.7 .1-1.5 .2-2.3c.1-.7 .3-1.6 .6-2.5c.4-1.1 .8-2 1.3-2.9c.5-.8 1-1.6 1.5-2.4Zm-101 0l1.5 1c-.4 .7-.7 1.3-1 1.9c-.3 .6-.5 1.1-.6 1.5c-.3 .9-.4 1.7-.4 2.5c0 1 .3 1.9 1 2.7c.6 .9 1.5 1.4 2.5 1.6c.7 .2 1.5 .3 2.5 .4c1 .1 2.1 .1 3.2 .1h19.4c-.5-1.4-.9-2.3-1.2-2.9c-.4-.7-1-1.5-1.9-2.6l2.4-6.2c1.4 1.9 2.3 3.7 2.7 5.3c.3 1.4 .5 3.5 .5 6.1v7.6H192.5c-1.1 0-2 0-2.7 0c-.7 0-1.3 0-1.6-.1c-.7 0-1.5-.2-2.3-.5c-1.5-.5-2.7-1.5-3.7-3.1c-.9-1.5-1.4-3.2-1.4-5.2c0-.7 .1-1.5 .2-2.3c.1-.7 .3-1.6 .6-2.5c.3-1.1 .8-2 1.3-2.9c.4-.8 1-1.6 1.5-2.4Zm1064.9-.2c1.4 1.6 2.3 3.1 2.8 4.8c.4 1.7 .7 4.2 .7 7.4v7h-17.7c-.8 0-1.4 .1-1.7 .1c-.4 0-.5 .2-.5 .3c.5 .4 1 .6 1.4 .7c.5 .1 .8 .2 .9 .4c.2 .2 .3 .5 .3 .9c0 1.3-.4 2.8-1.1 4.6c-.8 1.7-1.5 2.8-2.2 3.3c-.6 .5-2.6 1.2-5.9 1.9c-3.2 .7-6 1.1-8.4 1.1c-3.4 0-6.1-.7-8.2-2.1c-2.1-1.4-3.1-3.2-3.1-5.5c0-2.2 .5-4.3 1.4-6.2c1.1-2.4 3.1-5.5 6.1-9.1l1.6 1.1c-1.8 2.2-3.1 4.1-3.9 5.5c-.7 1.5-1.1 2.9-1.1 4.2c0 2 .8 3.4 2.4 4.3c1.6 .9 4 1.4 7.4 1.4c1.7 0 4.1-.3 7.1-1c3.1-.6 4.6-1.1 4.6-1.6c0-.2-.6-.4-1.8-.6c-1.1-.2-2.4-.2-3.8-.2c-2.1 0-3.1-.5-3.1-1.4c0-.4 .3-1.1 .8-2.2c.3-.7 .6-1.5 1-2.2c.7-1.5 1.9-2.7 3.8-3.6c1.9-.9 3.8-1.4 5.9-1.4h15.1c-.2-1.2-.5-2.2-1.1-3.1c-.2-.4-.9-1.2-1.8-2.4Zm-175.1 0c1.4 1.6 2.3 3.1 2.8 4.8c.5 1.7 .7 4.2 .7 7.4v7h-15.3l-.5 2.8c-.7 1.5-1.7 3-3 4.5c-2.6 3-5.2 4.5-7.7 4.5c-1.5 0-3.1-.4-4.9-1.4c-1.7-.9-4.4-2.8-8.1-5.6l1.1-1.6c2 1.3 3.5 2.2 4.8 2.6c1 .4 2.2 .5 3.4 .5c1.8 0 3.5-.4 5.2-1.4c2-1.2 4.1-3 6.2-5.5c-.7 .1-1.4 .1-1.8 .1c-1.8 0-3.2-.5-4.3-1.7c-1-1.2-1.6-2.7-1.6-4.7c0-2.7 .7-5.3 1.9-7.8c1.3-2.7 2.9-4 4.6-4c1.4 0 2.6 .9 3.6 2.9c1 1.9 1.5 4.3 1.5 7.1v1.4H1075c-.2-1.2-.5-2.2-1-3.1c-.3-.4-.9-1.2-1.9-2.4Zm-644.9 0c1.3 1.6 2.2 3.1 2.7 4.8c.5 1.7 .7 4.2 .7 7.4v7H417.5l-.6 2.8c-.7 1.5-1.6 3-2.9 4.5c-2.6 3-5.2 4.5-7.8 4.5c-1.5 0-3.1-.4-4.9-1.4c-1.7-.9-4.4-2.8-8.1-5.6l1.1-1.6c2 1.3 3.6 2.2 4.8 2.6c1 .4 2.2 .5 3.5 .5c1.7 0 3.4-.4 5.1-1.4c2-1.2 4.1-3 6.3-5.5c-.8 .1-1.4 .1-1.9 .1c-1.8 0-3.2-.5-4.2-1.7c-1.1-1.2-1.6-2.7-1.6-4.7c0-2.7 .6-5.3 1.8-7.8c1.4-2.7 2.9-4 4.6-4c1.4 0 2.7 .9 3.7 2.9c1 1.9 1.5 4.3 1.5 7.1v1.4h12.2c-.2-1.2-.6-2.2-1.1-3.1c-.3-.4-.9-1.2-1.9-2.4ZM969 225.6c.6 0 1.9 .1 3.8 .3c1.8 .2 3.5 .4 4.9 .5c2.8 .2 5.4 .3 8 .3l-1.6 6.5c-1 0-1.9 0-2.7 .2c-1 .2-1.9 .4-2.7 .5c-.1 .4-.1 .8-.1 1.2c-.1 .4-.1 .7-.1 1c0 1.3 .4 2.1 1.2 2.6c.9 .5 2.4 .7 4.7 .7h13.2c2.1 0 3.7-.5 4.8-1.6c1.2-1.2 2-3.3 2.4-6.2l1.8 .2c0 .7-.1 1.2-.1 1.6c-.1 1.2-.1 2.1-.1 2.8c0 1.1 .3 1.8 .8 2.4c.5 .6 1.3 .8 2.1 .8c.9 0 1.7-.1 2.5-.5c.7-.4 1.9-1.1 3.5-2.2l9.6-6.9c1.1-.8 2-1.4 2.5-1.7c1.3-.8 2.6-1.2 3.8-1.2c2 0 3.6 .7 4.8 2.1c1.4 1.7 2.1 4.1 2.1 7.5v10.2h-28.4c-1.3 0-2.3-.3-3.1-.9c-.7-.7-1.4-1.7-1.9-3.1c-.7 1-1.4 1.8-2.1 2.4v1.6H984.5c-3.2 0-5.3-.4-6.5-1.3c-1.1-.9-1.7-2.7-1.7-5.2c0-1.1 .1-2.2 .2-3.2c.1-.4 .2-1.2 .4-2.6c-4.1 1-7.3 2.6-9.8 4.9c-2.6 2.4-3.9 5.2-3.9 8.2c0 3.6 1.5 6.4 4.6 8.3c3.1 1.9 7.5 2.9 13.3 2.9c1.7 0 4.1-.2 7.3-.5l.5 .9l-10.3 6.5l-2.5 .1c-5.3 0-9.3-1.3-12.1-4c-2.9-2.7-4.3-6.5-4.3-11.4c0-3.7 .8-7.2 2.6-10.4c1.7-3.2 3.9-5.5 6.5-6.9h-.6c-1.6 0-3 .1-4.1 .4c-1.1 .4-2.7 1.1-4.9 2.2c.8-6.7 4.1-10 9.8-10Zm-80.8-4.2c2.3 1.7 3.9 3.9 4.9 6.7c.9 2.5 1.4 5.8 1.4 10v1.3h24.2c-2.2-2.2-4.2-3.8-6.1-4.8c-1.6-.9-3.2-1.3-4.7-1.3c-.5 0-.9 0-1.3 .1c-.4 0-.9 .1-1.7 .3c1-2.3 2.1-4 3.3-5c1.2-1.1 2.6-1.6 4.1-1.6c1.2 0 2.3 .2 3.4 .8c1.1 .6 2.4 1.5 3.7 2.8c1.1 1 2.6 2.5 4.6 4.7c1.3 1.5 2.4 2.5 3.1 2.9c.7 .5 1.7 .8 3.1 1.1v7.3H882.3c-1.2 0-2.1-.2-2.7-.7c-.8-.6-1.2-1.6-1.2-3c0-.8 .1-1.6 .1-2.5c.1-1 .2-1.9 .4-2.8l1-.1c.2 .7 .5 1.1 1 1.4c.5 .3 1.1 .4 1.8 .4h9.2c-.4-2.6-1.1-4.7-2.2-6.3c-.8-1.3-2-2.4-3.5-3.4Zm-354.8 0c2.3 1.7 4 3.9 5 6.7c.9 2.5 1.3 5.8 1.3 10v8.6H527.5c-1.2 0-2.1-.2-2.7-.7c-.7-.6-1.1-1.6-1.1-3c0-.8 0-1.6 .1-2.5c.1-1 .2-1.9 .3-2.8l1.1-.1c.1 .7 .4 1.1 .9 1.4c.5 .3 1.1 .4 1.8 .4h9.3c-.5-2.6-1.2-4.7-2.2-6.3c-.8-1.3-2-2.4-3.5-3.4Zm197-2.9l5 2.8l-2.8 5.2l-4-2l-2.2 4.3l-4.9-2.7l2.9-5.5l3.8 2.2Zm-428.8 0l4.9 2.8l-2.7 5.2l-4-2l-2.3 4.3l-4.9-2.7l3-5.5l3.8 2.2Zm-101.1 0l5 2.8l-2.7 5.2l-4-2l-2.3 4.3l-4.9-2.7l3-5.5l3.8 2.2Zm368.4-2.1l2.5 16.8c.4 2.6 1 4.4 1.6 5.3c.5 .6 1.1 .9 1.8 .9h22.8c-.2-1.2-.5-2.2-1-3.1c-.3-.4-.9-1.2-1.9-2.4l2.1-6.4c1.4 1.6 2.3 3.1 2.8 4.8c.5 1.7 .7 4.2 .7 7.4v7H574.8c-.6 0-1.2-.1-1.8-.4c-1-.5-1.9-1.4-2.6-2.8c-1-1.9-1.6-4.5-1.9-7.8c-1.2 1.5-2.1 2.6-2.8 3.2c-1 .9-1.8 1.4-2.5 1.4c-.3 0-.8-.1-1.3-.2l-3.3-.6c-1.4-.3-2.2-.5-2.5-.6c-.4-.2-.5-.4-.5-.7c0-.5 .6-2 1.8-4.6c1.3-2.6 2.2-4.2 2.7-4.8c.5-.5 1.3-1.1 2.4-1.8c.7-.5 1.7-1.1 2.9-1.9l1.5-.8c-.1-.2-.1-.5-.2-.8c0-.2 0-.5 0-.7c0-.7 .2-1.5 .5-2.6c.3-1 .8-2.3 1.7-3.8Zm591.4-1.1l5 2.7l-2.8 5.2l-4-1.9l-2.2 4.3l-4.9-2.7l2.9-5.5l3.8 2.1Zm-668.4-.5l6.2 3.3l-3.2 6.1l-6.3-3.3Zm526.6-.2l6.2 3.3l-3.2 6l-6.3-3.3Zm-659.8 0l6.2 3.3l-3.2 6l-6.3-3.3Zm888-.4l6.3 3.3l-3.3 6l-6.2-3.3Zm-988.2 0l6.3 3.3l-3.2 6l-6.3-3.3Zm1174.1-.1l1.6 9.6c.6 3.6 1 6.7 1.3 9.3c.1 2.1 .2 4.1 .2 5.9c0 1.6-.2 3.1-.6 4.4c-.3 1.3-1.1 3.1-2.1 5.3l-1.6-.7c.4-2.2 .6-4.1 .6-5.5c0-1.1-.1-2.7-.3-4.8c-.1-2.2-.4-4.2-.6-6.3c-.3-2.1-.7-4.5-1.3-7.4c-.3-1-.4-1.7-.4-2.1c0-.5 .3-1.5 .9-2.8c.5-1.4 1.3-3 2.3-4.9Zm-117.7 0l1.6 9.6c.6 3.6 1 6.7 1.3 9.3c.1 2.1 .2 4.1 .2 5.9c0 1.6-.2 3.1-.6 4.4c-.3 1.3-1.1 3.1-2.1 5.3l-1.6-.7c.4-2.2 .6-4.1 .6-5.5c0-1.1-.1-2.7-.3-4.8c-.1-2.2-.4-4.2-.6-6.3c-.3-2.1-.7-4.5-1.3-7.4c-.3-1-.4-1.7-.4-2.1c0-.5 .3-1.5 .9-2.8c.5-1.4 1.3-3 2.3-4.9Zm-129.6 0l1.6 9.6c.6 3.6 1 6.7 1.2 9.3c.2 2.1 .3 4.1 .3 5.9c0 1.6-.2 3.1-.6 4.4c-.3 1.3-1.1 3.1-2.1 5.3l-1.6-.7c.4-2.2 .6-4.1 .6-5.5c0-1.1-.1-2.7-.3-4.8c-.1-2.2-.4-4.2-.6-6.3c-.3-2.1-.8-4.5-1.4-7.4c-.2-1-.3-1.7-.3-2.1c0-.5 .3-1.5 .9-2.8c.5-1.4 1.3-3 2.3-4.9Zm-248.2 0l1.6 9.6c.6 3.6 1 6.7 1.2 9.3c.2 2.1 .3 4.1 .3 5.9c0 1.6-.2 3.1-.5 4.4c-.4 1.3-1.1 3.1-2.2 5.3l-1.6-.7c.4-2.2 .6-4.1 .6-5.5c0-1.1-.1-2.7-.2-4.8c-.2-2.2-.5-4.2-.7-6.3c-.3-2.1-.7-4.5-1.3-7.4c-.2-1-.4-1.7-.4-2.1c0-.5 .3-1.5 .9-2.8c.5-1.4 1.3-3 2.3-4.9Zm-82.4 0l1.7 9.6c.5 3.6 1 6.7 1.2 9.3c.2 2.1 .2 4.1 .2 5.9c0 1.6-.1 3.1-.5 4.4c-.4 1.3-1.1 3.1-2.2 5.3l-1.6-.7c.4-2.2 .7-4.1 .7-5.5c0-1.1-.1-2.7-.3-4.8c-.2-2.2-.4-4.2-.7-6.3c-.3-2.1-.7-4.5-1.3-7.4c-.2-1-.3-1.7-.3-2.1c0-.5 .2-1.5 .8-2.8c.6-1.4 1.3-3 2.3-4.9Zm-166.4 0l1.6 9.6c.6 3.6 1 6.7 1.2 9.3c.2 2.1 .3 4.1 .3 5.9c0 1.6-.2 3.1-.6 4.4c-.4 1.3-1.1 3.1-2.2 5.3l-1.6-.7c.5-2.2 .7-4.1 .7-5.5c0-1.1-.1-2.7-.3-4.8c-.2-2.2-.4-4.2-.7-6.3c-.2-2.1-.7-4.5-1.3-7.4c-.2-1-.3-1.7-.3-2.1c0-.5 .3-1.5 .8-2.8c.6-1.4 1.4-3 2.4-4.9Zm-172.6 0l1.7 9.6c.6 3.6 1 6.7 1.2 9.3c.2 2.1 .3 4.1 .3 5.9c0 1.6-.2 3.1-.6 4.4c-.4 1.3-1.1 3.1-2.2 5.3l-1.6-.7c.5-2.2 .7-4.1 .7-5.5c0-1.1-.1-2.7-.3-4.8c-.2-2.2-.4-4.2-.7-6.3c-.2-2.1-.7-4.5-1.3-7.4c-.2-1-.3-1.7-.3-2.1c0-.5 .3-1.5 .8-2.8c.6-1.4 1.4-3 2.3-4.9Zm-196 0c1 1.5 1.7 2.9 2.1 4.3c.5 1.6 .8 3.7 .8 6.2v5.3c0 3.7 .2 6.3 .7 7.8c.4 1.2 1 1.7 1.9 1.7h12.6c2.1 0 3.7-.5 4.8-1.6c1.2-1.2 2-3.3 2.4-6.2l1.8 .2c-.1 .7-.1 1.2-.1 1.6c-.1 1.2-.1 2.1-.1 2.8c0 1.1 .3 1.8 .8 2.4c.5 .6 1.2 .8 2.1 .8c.9 0 1.7-.1 2.4-.5c.8-.4 1.9-1.1 3.5-2.2l9.7-6.9c1.1-.8 1.9-1.4 2.5-1.7c1.3-.8 2.6-1.2 3.8-1.2c2 0 3.6 .7 4.8 2.1c1.4 1.7 2.1 4.1 2.1 7.5v2.9h12.2c-.2-1.2-.6-2.2-1.1-3.1c-.3-.4-.9-1.2-1.9-2.4l2.2-6.4c1.3 1.6 2.2 3.1 2.7 4.8c.5 1.7 .7 4.2 .7 7.4v7H349.9c-1.3 0-2.3-.3-3.1-.9c-.7-.7-1.4-1.7-1.9-3.1c-.8 1-1.4 1.8-2.1 2.4h-.1v1.6H325.2c-2.1 0-3.6-.8-4.5-2.5c-1.1-1.9-1.6-5.1-1.6-9.6v-7.7c0-1.7-.2-3.1-.7-4c-.3-.5-.8-1.2-1.6-2Zm-101 0c1 1.5 1.7 2.9 2.1 4.3c.5 1.6 .7 3.7 .7 6.2v5.3c0 3.7 .3 6.3 .8 7.8c.4 1.2 1 1.7 1.9 1.7h22.9c-.2-1.2-.6-2.2-1.1-3.1c-.2-.4-.9-1.2-1.9-2.4l2.2-6.4c1.3 1.6 2.3 3.1 2.7 4.8c.5 1.5 .7 3.5 .8 6.2v.9H262c-.2-1.2-.6-2.2-1.1-3.1c-.3-.4-.9-1.2-1.9-2.4l2.1-6.4c1.4 1.6 2.3 3.1 2.8 4.8c.5 1.7 .7 4.2 .7 7.4v7H224.2c-2.1 0-3.6-.8-4.6-2.5c-1-1.9-1.5-5.1-1.5-9.6v-7.7c0-1.7-.3-3.1-.7-4c-.3-.5-.8-1.2-1.6-2Zm249-2l1.3 .6c-.1 .2-.1 .5-.1 .8c0 .7 .3 1.3 1.1 1.8c1.1 .6 2.1 1.2 3.1 1.7c-.2 1.5-.4 2.6-.6 3.3c-.2 .7-.6 1.7-1.3 3l-.8-.3c0 .2 .3 1.8 .8 4.5c.5 2.8 .9 5.2 1.3 7.3c.4 2.1 .6 3.7 .7 4.6h24.2c-2.2-2.2-4.2-3.8-6.1-4.8c-1.6-.9-3.2-1.3-4.7-1.3c-.5 0-.9 0-1.3 .1c-.4 0-.9 .1-1.7 .3c1-2.3 2.1-4 3.3-5c1.2-1.1 2.6-1.6 4.1-1.6c1.2 0 2.4 .2 3.4 .8c1.1 .6 2.4 1.5 3.7 2.8c1.1 1 2.6 2.5 4.6 4.7c1.3 1.5 2.4 2.5 3.1 2.9c.7 .5 1.7 .8 3.1 1.1v7.3H473.2l-.2 1.4c-.6 1.9-1.9 3.7-4 5.3c-2.9 2.1-6.2 3.2-9.9 3.2c-3 0-5.4-.8-7.1-2.3c-1.8-1.6-2.6-3.7-2.6-6.5c0-2.6 .3-4.9 .9-6.8c.8-2.2 2.2-4.9 4.3-8l1.7 1.1c-1.4 2.1-2.4 3.9-3 5.4c-.6 1.6-.9 3.1-.9 4.6c0 1.7 .6 2.9 1.9 3.8c1.2 .9 2.9 1.3 5.1 1.3c3.1 0 5.7-.6 7.6-1.8c2-1.2 3-2.8 3-4.8c0-.3 0-.6 0-.8c0-.2 0-.3 0-.4c0-.7-.1-1.5-.2-2.3c-.1-.9-.4-2.6-.9-5.2c-.7-4.3-1.5-8.6-2.3-12.8l-1.3-1c0-1.7 .8-4.4 2.4-8Zm952.5-.1l1.3 .7c0 .1-.1 .3-.1 .8c0 .6 .3 1.2 1.1 1.7c.6 .5 1.7 1.1 3.1 1.7c-.1 1.1-.4 2.3-.7 3.4c-.3 1.1-.6 2-1 2.9l-1-.4l2.9 16.6v7.3h-12.9v.7c0 1-.6 2.5-1.9 4.3c-1.2 1.8-2.7 3.4-4.4 4.7c-1.8 1.4-3.4 2.2-4.8 2.2c-1.5 0-3.2-.5-5-1.4c-1.6-.7-4.1-2.3-7.4-4.6l1.1-1.6c1.6 1 2.9 1.8 3.9 2.1c1 .4 2 .6 3.2 .6c1.2 0 2.5-.3 3.7-1.1c1.2-.7 2.9-2 5.1-3.8c2.9-2.7 4.4-4.7 4.4-6.2c0-.7-.3-1.6-.8-2.8c-.7-1.3-1.5-2.4-2.4-3.3l1.5-7.2c1.2 1.2 2.2 2.6 2.8 4.3c.7 1.6 1 3.5 1 5.5v.3h9.7l-3.2-18.2l-1.7-1.1c0-1.1 .1-2.1 .4-3.2c.4-1.4 1.1-3 2.1-4.9Zm-117.7 0l1.3 .7c0 .1-.1 .3-.1 .8c0 .6 .3 1.2 1.1 1.7c.6 .5 1.7 1.1 3.1 1.7c-.1 1.1-.4 2.3-.7 3.4c-.3 1.1-.6 2-1 2.9l-1-.4l2.9 16.6v7.3h-46.2c-2.1 0-3.7-.8-4.6-2.5c-1-1.9-1.5-5.1-1.5-9.6v-7.7c0-1.7-.3-3.1-.8-4c-.2-.5-.7-1.2-1.6-2l2.9-6.8c1.1 1.5 1.8 2.9 2.2 4.3c.5 1.6 .7 3.7 .7 6.2v5.3c0 3.7 .3 6.3 .8 7.8c.4 1.2 1 1.7 1.9 1.7h15.9c-.2-1.2-.6-2.2-1.1-3.1c-.2-.4-.9-1.2-1.9-2.4l2.2-6.4c1.3 1.6 2.3 3.1 2.7 4.8c.5 1.5 .7 3.5 .8 6.2v.9h12.2c-.2-1.2-.6-2.2-1.1-3.1c-.3-.4-.9-1.2-1.9-2.4l2.1-6.4c1.4 1.6 2.3 3.1 2.8 4.8c.4 1.5 .7 3.5 .7 6.2v.9h9.6l-3.2-18.2l-1.7-1.1c0-1.1 .1-2.1 .4-3.2c.4-1.4 1.1-3 2.1-4.9Zm-129.6 0l1.2 .7c0 .1 0 .3-.1 .8c0 .6 .4 1.2 1.2 1.7c.6 .5 1.7 1.1 3.1 1.7c-.1 1.1-.4 2.3-.7 3.4c-.3 1.1-.6 2-1 2.9l-1-.4l2.9 16.6v7.3h-31.4c-2.1 0-3.6-.8-4.6-2.5c-1-1.9-1.5-5.1-1.5-9.6v-7.7c0-1.7-.3-3.1-.7-4c-.3-.5-.8-1.2-1.6-2l2.9-6.8c1 1.5 1.7 2.9 2.1 4.3c.5 1.6 .7 3.7 .7 6.2v5.3c0 3.7 .3 6.3 .8 7.8c.4 1.2 1 1.7 1.9 1.7H1163c-.2-1.2-.5-2.2-1-3.1c-.3-.4-.9-1.2-1.9-2.4l2.1-6.4c1.4 1.6 2.3 3.1 2.8 4.8c.4 1.5 .6 3.5 .7 6.2v.9h9.6l-3.3-18.2l-1.7-1.1c0-1.1 .2-2.1 .5-3.2c.4-1.4 1.1-3 2.1-4.9Zm-40.5 0l1.2 .7c0 .1 0 .3-.1 .8c0 .6 .4 1.2 1.1 1.7c.7 .5 1.8 1.1 3.2 1.7c-.1 1.1-.4 2.3-.7 3.4c-.3 1.1-.7 2-1.1 2.9l-.9-.4l2.9 16.6v7.3h-15.6c-.8 0-1.4 .1-1.8 .1c-.3 0-.5 .2-.5 .3c.5 .4 1 .6 1.5 .7c.4 .1 .7 .2 .9 .4c.1 .2 .2 .5 .2 .9c0 1.3-.4 2.8-1.1 4.6c-.7 1.7-1.4 2.8-2.1 3.3c-.7 .5-2.6 1.2-5.9 1.9c-3.3 .7-6.1 1.1-8.5 1.1c-3.3 0-6-.7-8.1-2.1c-2.1-1.4-3.1-3.2-3.1-5.5c0-2.2 .4-4.3 1.3-6.2c1.1-2.4 3.2-5.5 6.2-9.1l1.6 1.1c-1.9 2.2-3.2 4.1-3.9 5.5c-.8 1.5-1.1 2.9-1.1 4.2c0 2 .8 3.4 2.4 4.3c1.6 .9 4 1.4 7.3 1.4c1.7 0 4.1-.3 7.2-1c3-.6 4.5-1.1 4.5-1.6c0-.2-.6-.4-1.7-.6c-1.2-.2-2.5-.2-3.9-.2c-2 0-3-.5-3-1.4c0-.4 .2-1.1 .7-2.2c.3-.7 .7-1.5 1-2.2c.7-1.5 2-2.7 3.8-3.6c1.9-.9 3.9-1.4 5.9-1.4h12.6l-3.3-18.2l-1.7-1.1c0-1.1 .2-2.1 .5-3.2c.4-1.4 1.1-3 2.1-4.9Zm-345.6 0l1.2 .7c0 .1 0 .3-.1 .8c0 .6 .4 1.2 1.2 1.7c.6 .5 1.7 1.1 3.1 1.7c-.1 1.1-.4 2.3-.7 3.4c-.3 1.1-.6 2-1 2.9l-1-.4l2.9 16.6h3.4c1.6 0 2.9-.2 3.8-.5c1.3-.6 2.1-1.4 2.6-2.7c1-2.2 2.3-4.1 3.9-5.6c1.4-1.3 2.6-1.9 3.6-1.9c.9 0 2 1.4 3.4 4.1c1 2.2 1.7 4.3 2 6.2v.4h1.1c1.5 0 2.6 0 3.1-.2c.7-.1 1.5-.5 2.5-1c-.6-1.1-1-1.8-1.4-2.3c-.5-.6-1-.8-1.5-.8c-.2 0-.4 0-.6 .2c-.1 .1-.3 .3-.5 .7l-1.2-.1c0-3.3 .5-5.6 1.6-7c1.2-1.4 2.9-2.1 5.3-2.1c2.5 0 4.5 .5 5.9 1.5c1.5 1 2.2 2.3 2.2 4c0 .9-.2 1.8-.6 2.6c-.4 .9-1.1 2-2.1 3.4c.2 .4 .6 .6 1 .8c.4 .2 .8 .3 1.2 .3h13.7l-3.3-18.2l-1.7-1.1c0-1.1 .1-2.1 .5-3.2c.4-1.4 1.1-3 2.1-4.9l1.2 .7c0 .1 0 .3-.1 .8c0 .6 .4 1.2 1.1 1.7c.7 .5 1.7 1.1 3.2 1.7c-.2 1.1-.4 2.3-.7 3.4c-.3 1.1-.7 2-1.1 2.9l-1-.4l3 16.6v7.3H831.1c-1.4 0-2.6-.2-3.7-.8c-1.1-.6-1.9-1.5-2.6-2.8c-1.2 1.5-2.7 2.5-4.6 3.1c-1.2 .3-2.5 .5-4 .5h-2.8v-.1h-.5c-1.3-.2-2.7-.5-4.3-1c-2.3-.6-4.2-1.4-6-2.3c-1 1.6-2.3 2.6-3.8 3.1c-.7 .2-1.7 .3-3 .3H754c-2.1 0-3.6-.8-4.5-2.5c-1.1-1.9-1.6-5.1-1.6-9.6v-7.7c0-1.7-.2-3.1-.7-4c-.2-.5-.8-1.2-1.6-2l2.9-6.8c1 1.5 1.7 2.9 2.2 4.3c.4 1.6 .7 3.7 .7 6.2v5.3c0 3.7 .2 6.3 .7 7.8c.4 1.2 1 1.7 1.9 1.7h22.9c-.2-1.2-.5-2.2-1-3.1c-.3-.4-.9-1.2-1.9-2.4l2.1-6.4c1.4 1.6 2.3 3.1 2.8 4.8c.4 1.5 .6 3.5 .7 6.2v.9h9.6L786 221.2l-1.8-1.1c0-1.1 .2-2.1 .5-3.2c.4-1.4 1.1-3 2.1-4.9Zm-110.9 0l1.2 .7c0 .1 0 .3-.1 .8c0 .6 .4 1.2 1.2 1.7c.6 .5 1.7 1.1 3.1 1.7c-.1 1.1-.4 2.3-.7 3.4c-.3 1.1-.7 2-1.1 2.9l-.9-.4l2.9 16.6v7.3H624.6l-.5 2.8c-.7 1.5-1.7 3-3 4.5c-2.6 3-5.2 4.5-7.7 4.5c-1.5 0-3.1-.4-4.9-1.4c-1.7-.9-4.4-2.8-8.1-5.6l1.1-1.6c2 1.3 3.5 2.2 4.8 2.6c1 .4 2.2 .5 3.4 .5c1.8 0 3.5-.4 5.2-1.4c2-1.2 4.1-3 6.2-5.5c-.7 .1-1.4 .1-1.8 .1c-1.8 0-3.2-.5-4.3-1.7c-1-1.2-1.6-2.7-1.6-4.7c0-2.7 .7-5.3 1.9-7.8c1.3-2.7 2.9-4 4.6-4c1.4 0 2.6 .9 3.6 2.9c1 1.9 1.5 4.3 1.5 7.1v1.4h12.2c-.2-1.2-.5-2.2-1-3.1c-.3-.4-.9-1.2-1.9-2.4l2.1-6.4c1.4 1.6 2.3 3.1 2.8 4.8c.4 1.5 .6 3.5 .7 6.2v.9h17.2c-2.2-2.2-4.2-3.8-6.1-4.8c-1.6-.9-3.2-1.3-4.7-1.3c-.5 0-.9 0-1.3 .1c-.4 0-1 .1-1.7 .3c1-2.3 2.1-4 3.3-5c1.2-1.1 2.6-1.6 4.1-1.6c1.2 0 2.3 .2 3.4 .8c1.1 .6 2.3 1.5 3.7 2.8c1.1 1 2.6 2.5 4.6 4.7c1.3 1.5 2.3 2.5 3 2.9c.7 .5 1.8 .8 3.2 1.1h9.7L675 221.2l-1.7-1.1c0-1.1 .2-2.1 .5-3.2c.4-1.4 1.1-3 2.1-4.9Zm-108.6-5.4l4.8 2.5l-2.9 5l-3.8-2.2l-2.2 4.3l-5-2.8l2.8-4.7l4 2Zm370.7-.2c.3 0 .6 .1 .8 .4c.2 .2 .3 .5 .3 .8c0 .3-.1 .6-.1 .8c-.1 .2-.3 .5-.5 .9c-.9-.4-1.5-.7-1.8-.7c-.4 0-.7 .1-1 .3c-.2 .1-.4 .2-.6 .4c0 .2 .4 .6 1.3 1.1c.8 .5 1.5 .7 1.8 .7c.3 0 .9-.1 2-.4c-.2 .5-.5 .9-.7 1.2c-.2 .2-.5 .3-.9 .5l-5.8 1.7c.3-.6 .6-1.1 .9-1.3c.3-.2 .8-.5 1.5-.7c-.6-.3-.9-.6-1.1-.9c-.3-.2-.4-.5-.4-.8c0-.2 .1-.5 .2-.8c.2-.2 .4-.5 .6-.8c1.2-1.6 2.3-2.4 3.5-2.4Z" class="g1_58"/>
<path fill-rule="evenodd" d="M129.9 249l6.3 3.3l-3.3 6l-6.3-3.2ZM59.5 228.3c-.6 .3-1 .5-1.3 .7c-1 .5-1.8 1-2.4 1.4c-.4 .4-.8 .7-1.1 1c-.3 .4-.5 .7-.5 .9c0 .3 .3 .5 .9 .6c.7 .1 1.3 .2 1.9 .2c.4 0 .8-.1 1.2-.3c.5-.2 1.1-.6 1.8-1.2Zm98.9-14.2l1.7 9.6c.5 3.6 1 6.7 1.2 9.3c.2 2.1 .2 4.1 .2 5.9c0 1.6-.1 3.1-.5 4.4c-.4 1.3-1.1 3.1-2.2 5.3l-1.6-.7c.4-2.2 .7-4.1 .7-5.5c0-1.1-.1-2.7-.3-4.8c-.2-2.2-.4-4.2-.7-6.3c-.3-2.1-.7-4.5-1.3-7.4c-.2-1-.3-1.7-.3-2.1c0-.5 .2-1.5 .8-2.8c.6-1.4 1.3-3 2.3-4.9ZM77.9 212l1.2 .7c0 .1 0 .3-.1 .8c0 .6 .4 1.2 1.1 1.7c.7 .5 1.7 1.1 3.2 1.7c-.2 1.1-.4 2.3-.7 3.4c-.3 1.1-.7 2-1.1 2.9l-1-.4l3 16.6h8.8c1.9 0 3.5-.5 4.7-1.6c1.7-1.3 2.5-3.4 2.5-6.2l1.8 .2c-.1 .6-.1 1.3-.1 2c-.1 .7-.1 1.5-.1 2.4c0 1 .3 1.7 .9 2.3c.7 .6 1.4 .9 2.2 .9h3.3c2.2 0 3.7-.3 4.7-.9c1.1-.7 1.7-2.1 1.7-4.1c0-.4 .1-.8 .4-1.1c.1-.2 .4-.5 1-.9l1-.8c0 .3 0 .8 .1 1.4c0 .5 0 .9 0 1.1c0 1-.2 2.3-.4 3.9c.6 .3 1.4 .6 2.2 .9c.8 .2 1.7 .4 2.6 .5c0-.6-.2-1.4-.7-2.4c-.4-.9-.7-1.6-.7-1.9c0-.5 .1-.9 .2-1.1c.1-.1 .3-.4 .6-.8l2.3-3.1c.5 1.1 .8 2.1 1 3c.2 1 .3 2.1 .3 3.5v2.8h12.4c-.2-1.2-.6-2.2-1.1-3.1c-.3-.4-.9-1.2-1.9-2.4l2.2-6.4c1.3 1.6 2.2 3.1 2.7 4.8c.5 1.5 .7 3.5 .8 6.2v.9h9.6l-3.3-18.2l-1.7-1.1c0-1.1 .1-2.1 .5-3.2c.4-1.4 1.1-3 2.1-4.9l1.2 .7c0 .1 0 .3-.1 .8c0 .6 .4 1.2 1.1 1.7c.7 .5 1.7 1.1 3.2 1.7c-.2 1.1-.4 2.3-.7 3.4c-.3 1.1-.7 2-1.1 2.9l-1-.4l3 16.6v7.3H122.1l-1-.1c-.8 0-1.6-.1-2.2-.3c-1.4-.3-2.7-.7-4-1.4c-1 .8-1.9 1.3-2.8 1.5c-.8 .2-2 .3-3.6 .3h-4.4c-1.2 0-2.1-.3-2.8-.9c-.7-.6-1.4-1.7-1.9-3.1c-.6 .9-1.3 1.7-2 2.3l-.1 .1v1.6H67c-.7 0-1.3-.1-1.8-.4c-1-.5-1.9-1.4-2.6-2.8c-1-1.9-1.6-4.5-1.9-7.8c-1.2 1.5-2.2 2.6-2.9 3.2c-.9 .9-1.8 1.4-2.4 1.4c-.4 0-.8-.1-1.3-.2l-3.3-.6c-1.4-.3-2.2-.5-2.6-.6c-.3-.2-.5-.4-.5-.7c0-.5 .7-2 1.9-4.6c1.3-2.6 2.2-4.2 2.7-4.8c.5-.5 1.3-1.1 2.4-1.8c.7-.5 1.7-1.1 2.9-1.9l1.4-.8c0-.2-.1-.5-.1-.8c0-.2 0-.5 0-.7c0-.7 .1-1.5 .4-2.6c.3-1 .9-2.3 1.7-3.8l2.6 16.8c.4 2.6 .9 4.4 1.6 5.3c.4 .6 1 .9 1.8 .9H80.3L77 221.2l-1.7-1.1c0-1.1 .1-2.1 .5-3.2c.4-1.4 1.1-3 2.1-4.9Zm-18.4-5.4l4.8 2.5l-3 5l-3.8-2.2l-2.1 4.3l-5-2.8l2.8-4.7l3.9 2Z" class="g0_58"/>
<path d="M129.9 249l6.3 3.3l-3.3 6l-6.3-3.2ZM59.5 228.3c-.6 .3-1 .5-1.3 .7c-1 .5-1.8 1-2.4 1.4c-.4 .4-.8 .7-1.1 1c-.3 .4-.5 .7-.5 .9c0 .3 .3 .5 .9 .6c.7 .1 1.3 .2 1.9 .2c.4 0 .8-.1 1.2-.3c.5-.2 1.1-.6 1.8-1.2Zm98.9-14.2l1.7 9.6c.5 3.6 1 6.7 1.2 9.3c.2 2.1 .2 4.1 .2 5.9c0 1.6-.1 3.1-.5 4.4c-.4 1.3-1.1 3.1-2.2 5.3l-1.6-.7c.4-2.2 .7-4.1 .7-5.5c0-1.1-.1-2.7-.3-4.8c-.2-2.2-.4-4.2-.7-6.3c-.3-2.1-.7-4.5-1.3-7.4c-.2-1-.3-1.7-.3-2.1c0-.5 .2-1.5 .8-2.8c.6-1.4 1.3-3 2.3-4.9ZM77.9 212l1.2 .7c0 .1 0 .3-.1 .8c0 .6 .4 1.2 1.1 1.7c.7 .5 1.7 1.1 3.2 1.7c-.2 1.1-.4 2.3-.7 3.4c-.3 1.1-.7 2-1.1 2.9l-1-.4l3 16.6h8.8c1.9 0 3.5-.5 4.7-1.6c1.7-1.3 2.5-3.4 2.5-6.2l1.8 .2c-.1 .6-.1 1.3-.1 2c-.1 .7-.1 1.5-.1 2.4c0 1 .3 1.7 .9 2.3c.7 .6 1.4 .9 2.2 .9h3.3c2.2 0 3.7-.3 4.7-.9c1.1-.7 1.7-2.1 1.7-4.1c0-.4 .1-.8 .4-1.1c.1-.2 .4-.5 1-.9l1-.8c0 .3 0 .8 .1 1.4c0 .5 0 .9 0 1.1c0 1-.2 2.3-.4 3.9c.6 .3 1.4 .6 2.2 .9c.8 .2 1.7 .4 2.6 .5c0-.6-.2-1.4-.7-2.4c-.4-.9-.7-1.6-.7-1.9c0-.5 .1-.9 .2-1.1c.1-.1 .3-.4 .6-.8l2.3-3.1c.5 1.1 .8 2.1 1 3c.2 1 .3 2.1 .3 3.5v2.8h12.4c-.2-1.2-.6-2.2-1.1-3.1c-.3-.4-.9-1.2-1.9-2.4l2.2-6.4c1.3 1.6 2.2 3.1 2.7 4.8c.5 1.5 .7 3.5 .8 6.2v.9h9.6l-3.3-18.2l-1.7-1.1c0-1.1 .1-2.1 .5-3.2c.4-1.4 1.1-3 2.1-4.9l1.2 .7c0 .1 0 .3-.1 .8c0 .6 .4 1.2 1.1 1.7c.7 .5 1.7 1.1 3.2 1.7c-.2 1.1-.4 2.3-.7 3.4c-.3 1.1-.7 2-1.1 2.9l-1-.4l3 16.6v7.3H122.1l-1-.1c-.8 0-1.6-.1-2.2-.3c-1.4-.3-2.7-.7-4-1.4c-1 .8-1.9 1.3-2.8 1.5c-.8 .2-2 .3-3.6 .3h-4.4c-1.2 0-2.1-.3-2.8-.9c-.7-.6-1.4-1.7-1.9-3.1c-.6 .9-1.3 1.7-2 2.3l-.1 .1v1.6H67c-.7 0-1.3-.1-1.8-.4c-1-.5-1.9-1.4-2.6-2.8c-1-1.9-1.6-4.5-1.9-7.8c-1.2 1.5-2.2 2.6-2.9 3.2c-.9 .9-1.8 1.4-2.4 1.4c-.4 0-.8-.1-1.3-.2l-3.3-.6c-1.4-.3-2.2-.5-2.6-.6c-.3-.2-.5-.4-.5-.7c0-.5 .7-2 1.9-4.6c1.3-2.6 2.2-4.2 2.7-4.8c.5-.5 1.3-1.1 2.4-1.8c.7-.5 1.7-1.1 2.9-1.9l1.4-.8c0-.2-.1-.5-.1-.8c0-.2 0-.5 0-.7c0-.7 .1-1.5 .4-2.6c.3-1 .9-2.3 1.7-3.8l2.6 16.8c.4 2.6 .9 4.4 1.6 5.3c.4 .6 1 .9 1.8 .9H80.3L77 221.2l-1.7-1.1c0-1.1 .1-2.1 .5-3.2c.4-1.4 1.1-3 2.1-4.9Zm-18.4-5.4l4.8 2.5l-3 5l-3.8-2.2l-2.1 4.3l-5-2.8l2.8-4.7l3.9 2Z" class="g1_58"/>
<path fill-rule="evenodd" d="M1421.2 280.6h5.1c2.7 3.8 4.8 7.9 6.3 12.2c1.5 4.3 2.2 8.7 2.2 13.2c0 3.7-.6 7.7-1.7 12c-1.4 4.8-3.6 9.5-6.7 14.2h-5.2c1.5-3.2 2.6-5.7 3.2-7.3c.6-1.7 1.1-3.7 1.7-5.9c.5-2.2 .9-4.4 1.1-6.4c.3-2 .4-4 .4-6.1c0-4.2-.5-8.3-1.4-12.1c-.9-3.8-2.6-8.4-5-13.8Z" class="g0_58"/>
<path d="M1421.2 280.6h5.1c2.7 3.8 4.8 7.9 6.3 12.2c1.5 4.3 2.2 8.7 2.2 13.2c0 3.7-.6 7.7-1.7 12c-1.4 4.8-3.6 9.5-6.7 14.2h-5.2c1.5-3.2 2.6-5.7 3.2-7.3c.6-1.7 1.1-3.7 1.7-5.9c.5-2.2 .9-4.4 1.1-6.4c.3-2 .4-4 .4-6.1c0-4.2-.5-8.3-1.4-12.1c-.9-3.8-2.6-8.4-5-13.8Z" class="g1_58"/>
<path fill-rule="evenodd" d="M1098.8 315.3l6.2 3.3l-3.2 6l-6.3-3.3ZM962.2 315l6.3 3.3l-3.2 6l-6.3-3.2Zm225-.3l5 2.8l-2.8 5.2l-3.9-2l-2.3 4.3l-4.9-2.7l3-5.5l3.8 2.2Zm-168.4 0l4.9 2.8l-2.7 5.2l-4-2l-2.3 4.3l-4.9-2.7l3-5.5l3.8 2.2Zm326.1-13.6c-.5 0-.9 .2-1.3 .7c-.3 .4-.5 .9-.5 1.4c0 .6 .4 1.2 1.1 1.6c.7 .4 1.6 .6 2.8 .6h1c-.5-2.8-1.5-4.3-3.1-4.3Zm-25.6-5.9c1 0 1.8 .4 2.4 1.2c.6 .8 .9 1.9 .9 3.3c0 1 0 1.8-.2 2.4c-.2 .6-.7 1.5-1.3 2.6c-.5-1.3-.9-2.1-1.2-2.5c-.4-.4-.8-.6-1.5-.6c-.9 0-2.3 .5-4 1.6c-1.7 1.1-2.5 2.1-2.5 2.8c0 .4 .3 .7 1 .9c.5 .1 1.2 .1 2.3 .1c.2 0 .5 0 .8 0c.2 0 .5 0 .8 0c1.9 0 3.2 .2 3.9 .6c.5 .3 .8 1 .8 2c0 1.9-.4 3.8-1.1 5.5c-.9 2.3-2.2 3.9-3.9 4.8c-2.1 1.2-4.3 2.2-6.6 2.9c-2.3 .8-4.5 1.1-6.5 1.1c-5.5 0-8.3-2.5-8.3-7.5c0-2.5 .3-4.7 .9-6.5c.7-2.1 2.2-4.8 4.5-8.3l1.2 .8c-1.3 2.2-2.3 4.2-3 6c-.7 1.7-1 3.3-1 4.5c0 3.4 1.9 5.1 5.7 5.1c1.5 0 2.8-.1 4.1-.4c1.3-.2 2.6-.6 3.9-1c.9-.3 1.9-.7 3-1.2c1.8-.8 2.7-1.2 2.8-1.3c.8-.4 1.2-.8 1.2-1.2c0-.1-.4-.2-1.3-.3c-.8 0-1.5 0-1.8 0c-2.8 0-4.6-.4-5.6-1.2c-.7-.7-1.1-1.9-1.1-3.6c0-.8 .3-1.9 .8-3.1c.5-1.3 1.2-2.5 2.1-3.7c1.3-1.9 2.6-3.4 3.9-4.3c1.3-1 2.6-1.5 3.9-1.5Zm-321.1-.9c-.6 .3-1.1 .5-1.4 .7c-.9 .5-1.7 1-2.3 1.4c-.5 .4-.8 .7-1.1 1c-.4 .4-.5 .7-.5 .9c0 .3 .3 .5 .9 .6c.6 .1 1.2 .2 1.9 .2c.4 0 .8-.1 1.2-.3c.4-.2 1-.6 1.8-1.2Zm-62.9 0c-.6 .3-1 .5-1.4 .7c-.9 .5-1.7 1-2.3 1.4c-.4 .4-.8 .7-1.1 1c-.3 .4-.5 .7-.5 .9c0 .3 .3 .5 .9 .6c.6 .1 1.3 .2 1.9 .2c.4 0 .8-.1 1.2-.3c.4-.2 1-.6 1.8-1.2Zm451.3-1.2c1.2 0 2.3 .2 3.4 .8c1.1 .6 2.3 1.5 3.7 2.8c1.1 1 2.6 2.5 4.6 4.7c1.3 1.5 2.3 2.5 3 2.9c.7 .5 1.8 .8 3.2 1.1h12.3c-.2-1.2-.6-2.2-1.1-3.1c-.3-.4-.9-1.2-1.9-2.4l2.2-6.4c1.3 1.6 2.2 3.1 2.7 4.8c.5 1.7 .7 4.2 .7 7.4v7H1351v.5c-.5 2.3-1.7 4.6-3.7 6.8c-2.6 3-5.2 4.5-7.7 4.5c-1.5 0-3.1-.4-4.9-1.4c-1.8-.9-4.5-2.8-8.1-5.6l1.1-1.6c1.9 1.3 3.5 2.2 4.8 2.6c1 .4 2.1 .5 3.4 .5c1.8 0 3.5-.4 5.2-1.4c2-1.2 4.1-3 6.2-5.5c-.7 .1-1.4 .1-1.9 .1c-1.7 0-3.2-.5-4.2-1.7c-1-1.2-1.6-2.7-1.6-4.7c0-2.7 .6-5.3 1.9-7.8c1.3-2.7 2.9-4 4.6-4c1.4 0 2.6 .9 3.6 2.9c1 1.9 1.5 4.3 1.5 7.1v1.4h21.9c-.2-1.2-.5-2.2-1-3.1c-.3-.4-.9-1.2-1.9-2.4l2.1-6.4c1.4 1.6 2.3 3.1 2.8 4.8c.4 1.5 .6 3.5 .7 6.2v.9H1393c-2.2-2.2-4.2-3.8-6.1-4.8c-1.6-.9-3.2-1.3-4.7-1.3c-.5 0-.9 0-1.3 .1c-.4 0-1 .1-1.7 .3c1-2.3 2.1-4 3.3-5c1.2-1.1 2.6-1.6 4.1-1.6ZM999.7 282.4l2.6 16.8c.4 2.6 .9 4.4 1.6 5.3c.4 .6 1 .9 1.7 .9h15.9c-.2-1.2-.6-2.2-1.1-3.1c-.2-.4-.9-1.2-1.9-2.4l2.2-6.4c1.3 1.6 2.3 3.1 2.7 4.8c.5 1.7 .8 4.2 .8 7.4v7h-18.6c-.6 0-1.2-.1-1.7-.4c-1.1-.5-2-1.4-2.7-2.8c-.9-1.9-1.6-4.5-1.8-7.8c-1.3 1.5-2.2 2.6-2.9 3.2c-1 .9-1.8 1.4-2.5 1.4c-.3 0-.7-.1-1.3-.2l-3.2-.6c-1.4-.3-2.3-.5-2.6-.6c-.3-.2-.5-.4-.5-.7c0-.5 .6-2 1.9-4.6c1.2-2.6 2.1-4.2 2.7-4.8c.4-.5 1.2-1.1 2.4-1.8c.6-.5 1.6-1.1 2.9-1.9l1.4-.8c-.1-.2-.1-.5-.1-.8c-.1-.2-.1-.5-.1-.7c0-.7 .2-1.5 .5-2.6c.3-1 .9-2.3 1.7-3.8Zm-62.9 0l2.6 16.8c.4 2.6 .9 4.4 1.6 5.3c.4 .6 1 .9 1.8 .9h25.7c-.2-1.2-.5-2.2-1.1-3.1c-.2-.4-.9-1.2-1.8-2.4l2.1-6.4c1.4 1.6 2.3 3.1 2.8 4.8c.4 1.7 .7 4.2 .7 7.4v7H942.8c-.7 0-1.3-.1-1.8-.4c-1.1-.5-1.9-1.4-2.6-2.8c-1-1.9-1.6-4.5-1.9-7.8c-1.2 1.5-2.2 2.6-2.9 3.2c-1 .9-1.8 1.4-2.4 1.4c-.4 0-.8-.1-1.3-.2l-3.3-.6c-1.4-.3-2.3-.5-2.6-.6c-.3-.2-.5-.4-.5-.7c0-.5 .7-2 1.9-4.6c1.2-2.6 2.1-4.2 2.7-4.8c.4-.5 1.2-1.1 2.4-1.8c.7-.5 1.6-1.1 2.9-1.9l1.4-.8c0-.2-.1-.5-.1-.8c0-.2-.1-.5-.1-.7c0-.7 .2-1.5 .5-2.6c.3-1 .9-2.3 1.7-3.8Zm258.2 0c1 0 2.6 .6 4.7 1.8c2.1 1.3 4 2.8 5.9 4.5c4.1 3.8 6.2 7.4 6.2 10.6c0 .5-.1 1-.2 1.5c-.2 .4-.5 1-.9 1.8c-1.1-2.4-2.2-4.4-3.5-5.9c-1.3-1.5-2.8-2.7-4.5-3.6c0 .7-.1 1.3-.3 1.6c-.2 .4-.4 .6-.7 .6c-.6 0-1.6-.5-3-1.6c-1.5-1.1-2.6-2.1-3.3-3.1c-.5-.7-.9-1.7-1.1-3.1c-.2-1.3-.4-2.4-.4-3.2c0-1.3 .4-1.9 1.1-1.9Zm219-1.1l5 2.7l-2.8 5.2l-4-1.9l-2.2 4.3l-4.9-2.7l3-5.5l3.8 2.1Zm-43.6 0l5 2.7l-2.8 5.2l-4-1.9l-2.2 4.3l-4.9-2.7l2.9-5.5l3.8 2.1Zm-136.4-.5l6.3 3.3l-3.2 6.1l-6.3-3.3Zm36.7-.7l1.6 9.6c.6 3.6 1 6.7 1.3 9.3c.2 2.1 .2 4 .2 5.9c0 1.6-.2 3.1-.5 4.4c-.4 1.3-1.1 3.1-2.2 5.3l-1.6-.7c.4-2.2 .6-4.1 .6-5.5c0-1.1-.1-2.7-.2-4.8c-.2-2.2-.4-4.2-.7-6.3c-.3-2.1-.7-4.5-1.3-7.4c-.2-1-.3-1.7-.3-2.1c0-.5 .2-1.5 .8-2.8c.5-1.4 1.3-3 2.3-4.9Zm-112.1 0c1 1.5 1.8 2.9 2.2 4.3c.5 1.6 .7 3.7 .7 6.2v5.3c0 3.7 .3 6.3 .8 7.8c.3 1.2 1 1.7 1.8 1.7H1190c-.2-1.2-.6-2.2-1.1-3.1c-.3-.4-.9-1.2-1.9-2.4l2.2-6.4c1.3 1.6 2.2 3.1 2.7 4.8c.5 1.7 .8 4.2 .8 7.4v7h-28.6c-2.1 0-3.6-.8-4.5-2.5c-1-1.9-1.6-5.1-1.6-9.6v-7.7c0-1.7-.2-3.1-.7-4c-.2-.5-.8-1.2-1.6-2Zm-23.9 0l1.6 9.6c.6 3.6 1 6.7 1.2 9.3c.2 2.1 .3 4 .3 5.9c0 1.6-.2 3.1-.6 4.4c-.3 1.3-1.1 3.1-2.1 5.3l-1.6-.7c.4-2.2 .6-4.1 .6-5.5c0-1.1-.1-2.7-.3-4.8c-.1-2.2-.4-4.2-.6-6.3c-.3-2.1-.8-4.5-1.4-7.4c-.2-1-.3-1.7-.3-2.1c0-.5 .3-1.5 .9-2.8c.5-1.4 1.3-3 2.3-4.9Zm123.6-2.1l1.3 .7c0 .1-.1 .3-.1 .8c0 .6 .4 1.2 1.1 1.7c.7 .5 1.7 1.1 3.2 1.7c-.2 1.1-.4 2.3-.7 3.4c-.4 1.1-.7 2-1.1 2.9l-1-.4l3 16.6v7.3h-43.6c-1.1 0-2.2-.9-3.2-2.7c-1.1-2-1.6-4.2-1.6-6.8c-1.6 4.7-3.8 7.9-6.6 9.7c-2.8 1.7-7 2.6-12.6 2.6l-3.1-.1v-1.7c1.3-.5 2.6-.9 3.8-1.3c1.3-.5 2.2-.9 2.8-1.2c3.7-1.8 6.2-3.2 7.5-4c2.2-1.5 3.9-3.1 4.9-4.7c1.2-1.9 1.8-4.2 1.8-7c0-1.7-.1-3.3-.4-4.9c-.2-1.6-.5-3.1-.8-4.7c0-1.2 1.1-3.7 3.2-7.4c.9 3.1 1.5 7.1 1.7 12c.2 3.5 .3 7 .5 10.5c.3 3 1 4.4 2.1 4.4h19.1c-2.2-2.2-4.2-3.8-6-4.8c-1.7-.9-3.2-1.3-4.8-1.3c-.5 0-.9 0-1.3 .1c-.4 0-.9 .1-1.6 .3c.9-2.3 2-4 3.2-5c1.2-1.1 2.6-1.6 4.2-1.6c1.1 0 2.3 .2 3.4 .8c1.1 .6 2.3 1.5 3.6 2.8c1.1 1 2.6 2.5 4.6 4.7c1.4 1.5 2.4 2.5 3.1 2.9c.7 .5 1.8 .8 3.2 1.1h9.6l-3.2-18.2l-1.7-1.1c0-1.1 .1-2.1 .4-3.2c.5-1.4 1.2-3 2.1-4.9Zm-136 0l1.2 .7c0 .1 0 .3-.1 .8c0 .6 .4 1.2 1.2 1.7c.6 .5 1.7 1.1 3.1 1.7c-.1 1.1-.4 2.3-.7 3.4c-.3 1.1-.6 2-1 2.9l-1-.4l2.9 16.6v7.3h-43.5l-1-.1c-.8 0-1.6-.1-2.2-.3c-1.4-.3-2.7-.7-3.9-1.4c-1.1 .8-2 1.3-2.8 1.5c-.9 .2-2.1 .3-3.7 .3h-4.4c-1.2 0-2.1-.3-2.8-.9c-.7-.6-1.4-1.7-1.9-3.1c-1 1.5-2.1 2.6-3.3 3.2c-.3 .1-.5 .3-.8 .4l-.8 .2v.2h-26c-1.2 0-2.1-.2-2.7-.7c-.8-.6-1.2-1.6-1.2-3c0-.8 .1-1.6 .1-2.5c.1-1 .2-1.9 .4-2.8l1-.1c.2 .7 .5 1.1 1 1.4c.5 .3 1.1 .4 1.8 .4h9.2c-.4-2.6-1.1-4.7-2.2-6.3c-.8-1.3-2-2.4-3.5-3.4l2-8.3c2.3 1.7 3.9 3.9 4.9 6.7c.9 2.5 1.4 5.8 1.4 10v1.3h11.7c1.8 0 3.4-.5 4.7-1.6c1.6-1.3 2.4-3.4 2.4-6.2l1.8 .2c-.1 .6-.1 1.3-.1 2c-.1 .7-.1 1.5-.1 2.4c0 1 .3 1.7 1 2.3c.6 .6 1.3 .9 2.1 .9h3.3c2.2 0 3.8-.3 4.7-.9c1.1-.7 1.7-2.1 1.7-4.1c0-.4 .1-.8 .4-1.1c.1-.2 .5-.5 1-.9l1-.8c0 .3 .1 .8 .1 1.4c0 .5 0 .9 0 1.1c0 1-.1 2.3-.4 3.9c.6 .3 1.4 .6 2.2 .9c.8 .2 1.7 .3 2.6 .5c0-.6-.2-1.4-.7-2.4c-.4-.9-.6-1.6-.6-1.9c0-.5 0-.9 .1-1.1c.1-.1 .3-.4 .6-.8l2.3-3.1c.5 1.1 .9 2.1 1.1 3c.2 1 .3 2.1 .3 3.5v2.8h17.3c-2.2-2.2-4.2-3.8-6.1-4.8c-1.6-.9-3.2-1.3-4.7-1.3c-.5 0-.9 0-1.3 .1c-.4 0-.9 .1-1.7 .3c1-2.3 2.1-4 3.3-5c1.2-1.1 2.6-1.6 4.1-1.6c1.2 0 2.4 .2 3.4 .8c1.1 .6 2.4 1.5 3.7 2.8c1.1 1 2.6 2.5 4.6 4.7c1.3 1.5 2.4 2.5 3.1 2.9c.7 .5 1.7 .8 3.1 1.1h9.7l-3.3-18.2l-1.7-1.1c0-1.1 .2-2.1 .5-3.2c.4-1.4 1.1-3 2.1-4.9ZM873 278l1.2 .7c0 .1 0 .3-.1 .8c0 .6 .4 1.2 1.1 1.7c.7 .5 1.8 1.1 3.2 1.7c-.2 1.1-.4 2.3-.7 3.4c-.3 1.1-.7 2-1.1 2.9l-.9-.4l2.9 16.6h1c.5 0 .9 0 1.1 0c.6-.1 1.1-.1 1.6-.2c-.9-1.3-1.5-2.4-1.8-3.2c-.3-.8-.5-1.8-.5-2.8c0-2.7 1.1-5 3.4-7c2.2-2 4.7-3 7.7-3c2 0 3.9 .6 5.7 1.9c1.7 1.3 2.9 2.7 3.6 4.5l-1.1 .9c-1.4-.5-2.5-.8-3.3-1c-.9-.2-1.9-.2-3.1-.2c-2.3 0-4.2 .1-5.8 .5c-2.1 .4-3.1 1.1-3.1 1.9c0 1.3 2.5 3.3 7.5 6.1l13.6-3.9l-3 7.7c-4.8 1.4-8.8 2.6-11.9 3.4c-2.8 .7-5.1 1.2-7 1.4c-1.4 .2-2.7 .3-4.1 .3H853.6c-.7 0-1.2 .1-1.6 .2c-.4 .1-.6 .3-.6 .5c0 .1 .4 .3 1.3 .6c.9 .4 1.3 .9 1.3 1.6c0 1-.2 2.2-.4 3.6c-.3 1.4-.7 2.6-1.3 3.7c-.4 .9-1.5 1.9-3.3 3c-1.9 1.2-4.1 2.1-6.6 2.9c-2.8 .9-5.4 1.4-8 1.4c-2.9 0-5-.7-6.5-2c-1.5-1.4-2.3-3.3-2.3-5.9c0-2.9 .4-5.3 1.1-7.4c.8-2.5 2.5-5.8 5-9.8l1.5 1.1c-1.7 2.9-2.8 5.2-3.4 6.9c-.7 1.7-1 3.3-1 5c0 1.6 .5 2.9 1.6 3.9c1 .9 2.5 1.4 4.4 1.4c2.2 0 4.7-.4 7.3-1c2.4-.7 4.4-1.4 6.1-2.3c1.7-.9 2.5-1.6 2.5-2.2c0-.2-.5-.3-1.5-.3c-1-.1-1.9-.1-2.7-.1c-1.9 0-3.1 0-3.7-.2c-.5-.1-.8-.5-.8-1c0-1 .2-2 .5-3c.4-1.1 .8-2 1.3-2.5c1.2-1.5 2.6-2.7 4.2-3.7c1.8-1.1 3.4-1.7 4.8-1.7h22.6l-3.3-18.2l-1.7-1.1c0-1.1 .2-2.1 .5-3.2c.4-1.4 1.1-3 2.1-4.9Zm125.1-5.4l4.9 2.5l-3 5l-3.8-2.2l-2.2 4.3l-4.9-2.8l2.7-4.7l4 2Z" class="g0_58"/>
<path d="M1098.8 315.3l6.2 3.3l-3.2 6l-6.3-3.3ZM962.2 315l6.3 3.3l-3.2 6l-6.3-3.2Zm225-.3l5 2.8l-2.8 5.2l-3.9-2l-2.3 4.3l-4.9-2.7l3-5.5l3.8 2.2Zm-168.4 0l4.9 2.8l-2.7 5.2l-4-2l-2.3 4.3l-4.9-2.7l3-5.5l3.8 2.2Zm326.1-13.6c-.5 0-.9 .2-1.3 .7c-.3 .4-.5 .9-.5 1.4c0 .6 .4 1.2 1.1 1.6c.7 .4 1.6 .6 2.8 .6h1c-.5-2.8-1.5-4.3-3.1-4.3Zm-25.6-5.9c1 0 1.8 .4 2.4 1.2c.6 .8 .9 1.9 .9 3.3c0 1 0 1.8-.2 2.4c-.2 .6-.7 1.5-1.3 2.6c-.5-1.3-.9-2.1-1.2-2.5c-.4-.4-.8-.6-1.5-.6c-.9 0-2.3 .5-4 1.6c-1.7 1.1-2.5 2.1-2.5 2.8c0 .4 .3 .7 1 .9c.5 .1 1.2 .1 2.3 .1c.2 0 .5 0 .8 0c.2 0 .5 0 .8 0c1.9 0 3.2 .2 3.9 .6c.5 .3 .8 1 .8 2c0 1.9-.4 3.8-1.1 5.5c-.9 2.3-2.2 3.9-3.9 4.8c-2.1 1.2-4.3 2.2-6.6 2.9c-2.3 .8-4.5 1.1-6.5 1.1c-5.5 0-8.3-2.5-8.3-7.5c0-2.5 .3-4.7 .9-6.5c.7-2.1 2.2-4.8 4.5-8.3l1.2 .8c-1.3 2.2-2.3 4.2-3 6c-.7 1.7-1 3.3-1 4.5c0 3.4 1.9 5.1 5.7 5.1c1.5 0 2.8-.1 4.1-.4c1.3-.2 2.6-.6 3.9-1c.9-.3 1.9-.7 3-1.2c1.8-.8 2.7-1.2 2.8-1.3c.8-.4 1.2-.8 1.2-1.2c0-.1-.4-.2-1.3-.3c-.8 0-1.5 0-1.8 0c-2.8 0-4.6-.4-5.6-1.2c-.7-.7-1.1-1.9-1.1-3.6c0-.8 .3-1.9 .8-3.1c.5-1.3 1.2-2.5 2.1-3.7c1.3-1.9 2.6-3.4 3.9-4.3c1.3-1 2.6-1.5 3.9-1.5Zm-321.1-.9c-.6 .3-1.1 .5-1.4 .7c-.9 .5-1.7 1-2.3 1.4c-.5 .4-.8 .7-1.1 1c-.4 .4-.5 .7-.5 .9c0 .3 .3 .5 .9 .6c.6 .1 1.2 .2 1.9 .2c.4 0 .8-.1 1.2-.3c.4-.2 1-.6 1.8-1.2Zm-62.9 0c-.6 .3-1 .5-1.4 .7c-.9 .5-1.7 1-2.3 1.4c-.4 .4-.8 .7-1.1 1c-.3 .4-.5 .7-.5 .9c0 .3 .3 .5 .9 .6c.6 .1 1.3 .2 1.9 .2c.4 0 .8-.1 1.2-.3c.4-.2 1-.6 1.8-1.2Zm451.3-1.2c1.2 0 2.3 .2 3.4 .8c1.1 .6 2.3 1.5 3.7 2.8c1.1 1 2.6 2.5 4.6 4.7c1.3 1.5 2.3 2.5 3 2.9c.7 .5 1.8 .8 3.2 1.1h12.3c-.2-1.2-.6-2.2-1.1-3.1c-.3-.4-.9-1.2-1.9-2.4l2.2-6.4c1.3 1.6 2.2 3.1 2.7 4.8c.5 1.7 .7 4.2 .7 7.4v7H1351v.5c-.5 2.3-1.7 4.6-3.7 6.8c-2.6 3-5.2 4.5-7.7 4.5c-1.5 0-3.1-.4-4.9-1.4c-1.8-.9-4.5-2.8-8.1-5.6l1.1-1.6c1.9 1.3 3.5 2.2 4.8 2.6c1 .4 2.1 .5 3.4 .5c1.8 0 3.5-.4 5.2-1.4c2-1.2 4.1-3 6.2-5.5c-.7 .1-1.4 .1-1.9 .1c-1.7 0-3.2-.5-4.2-1.7c-1-1.2-1.6-2.7-1.6-4.7c0-2.7 .6-5.3 1.9-7.8c1.3-2.7 2.9-4 4.6-4c1.4 0 2.6 .9 3.6 2.9c1 1.9 1.5 4.3 1.5 7.1v1.4h21.9c-.2-1.2-.5-2.2-1-3.1c-.3-.4-.9-1.2-1.9-2.4l2.1-6.4c1.4 1.6 2.3 3.1 2.8 4.8c.4 1.5 .6 3.5 .7 6.2v.9H1393c-2.2-2.2-4.2-3.8-6.1-4.8c-1.6-.9-3.2-1.3-4.7-1.3c-.5 0-.9 0-1.3 .1c-.4 0-1 .1-1.7 .3c1-2.3 2.1-4 3.3-5c1.2-1.1 2.6-1.6 4.1-1.6ZM999.7 282.4l2.6 16.8c.4 2.6 .9 4.4 1.6 5.3c.4 .6 1 .9 1.7 .9h15.9c-.2-1.2-.6-2.2-1.1-3.1c-.2-.4-.9-1.2-1.9-2.4l2.2-6.4c1.3 1.6 2.3 3.1 2.7 4.8c.5 1.7 .8 4.2 .8 7.4v7h-18.6c-.6 0-1.2-.1-1.7-.4c-1.1-.5-2-1.4-2.7-2.8c-.9-1.9-1.6-4.5-1.8-7.8c-1.3 1.5-2.2 2.6-2.9 3.2c-1 .9-1.8 1.4-2.5 1.4c-.3 0-.7-.1-1.3-.2l-3.2-.6c-1.4-.3-2.3-.5-2.6-.6c-.3-.2-.5-.4-.5-.7c0-.5 .6-2 1.9-4.6c1.2-2.6 2.1-4.2 2.7-4.8c.4-.5 1.2-1.1 2.4-1.8c.6-.5 1.6-1.1 2.9-1.9l1.4-.8c-.1-.2-.1-.5-.1-.8c-.1-.2-.1-.5-.1-.7c0-.7 .2-1.5 .5-2.6c.3-1 .9-2.3 1.7-3.8Zm-62.9 0l2.6 16.8c.4 2.6 .9 4.4 1.6 5.3c.4 .6 1 .9 1.8 .9h25.7c-.2-1.2-.5-2.2-1.1-3.1c-.2-.4-.9-1.2-1.8-2.4l2.1-6.4c1.4 1.6 2.3 3.1 2.8 4.8c.4 1.7 .7 4.2 .7 7.4v7H942.8c-.7 0-1.3-.1-1.8-.4c-1.1-.5-1.9-1.4-2.6-2.8c-1-1.9-1.6-4.5-1.9-7.8c-1.2 1.5-2.2 2.6-2.9 3.2c-1 .9-1.8 1.4-2.4 1.4c-.4 0-.8-.1-1.3-.2l-3.3-.6c-1.4-.3-2.3-.5-2.6-.6c-.3-.2-.5-.4-.5-.7c0-.5 .7-2 1.9-4.6c1.2-2.6 2.1-4.2 2.7-4.8c.4-.5 1.2-1.1 2.4-1.8c.7-.5 1.6-1.1 2.9-1.9l1.4-.8c0-.2-.1-.5-.1-.8c0-.2-.1-.5-.1-.7c0-.7 .2-1.5 .5-2.6c.3-1 .9-2.3 1.7-3.8Zm258.2 0c1 0 2.6 .6 4.7 1.8c2.1 1.3 4 2.8 5.9 4.5c4.1 3.8 6.2 7.4 6.2 10.6c0 .5-.1 1-.2 1.5c-.2 .4-.5 1-.9 1.8c-1.1-2.4-2.2-4.4-3.5-5.9c-1.3-1.5-2.8-2.7-4.5-3.6c0 .7-.1 1.3-.3 1.6c-.2 .4-.4 .6-.7 .6c-.6 0-1.6-.5-3-1.6c-1.5-1.1-2.6-2.1-3.3-3.1c-.5-.7-.9-1.7-1.1-3.1c-.2-1.3-.4-2.4-.4-3.2c0-1.3 .4-1.9 1.1-1.9Zm219-1.1l5 2.7l-2.8 5.2l-4-1.9l-2.2 4.3l-4.9-2.7l3-5.5l3.8 2.1Zm-43.6 0l5 2.7l-2.8 5.2l-4-1.9l-2.2 4.3l-4.9-2.7l2.9-5.5l3.8 2.1Zm-136.4-.5l6.3 3.3l-3.2 6.1l-6.3-3.3Zm36.7-.7l1.6 9.6c.6 3.6 1 6.7 1.3 9.3c.2 2.1 .2 4 .2 5.9c0 1.6-.2 3.1-.5 4.4c-.4 1.3-1.1 3.1-2.2 5.3l-1.6-.7c.4-2.2 .6-4.1 .6-5.5c0-1.1-.1-2.7-.2-4.8c-.2-2.2-.4-4.2-.7-6.3c-.3-2.1-.7-4.5-1.3-7.4c-.2-1-.3-1.7-.3-2.1c0-.5 .2-1.5 .8-2.8c.5-1.4 1.3-3 2.3-4.9Zm-112.1 0c1 1.5 1.8 2.9 2.2 4.3c.5 1.6 .7 3.7 .7 6.2v5.3c0 3.7 .3 6.3 .8 7.8c.3 1.2 1 1.7 1.8 1.7H1190c-.2-1.2-.6-2.2-1.1-3.1c-.3-.4-.9-1.2-1.9-2.4l2.2-6.4c1.3 1.6 2.2 3.1 2.7 4.8c.5 1.7 .8 4.2 .8 7.4v7h-28.6c-2.1 0-3.6-.8-4.5-2.5c-1-1.9-1.6-5.1-1.6-9.6v-7.7c0-1.7-.2-3.1-.7-4c-.2-.5-.8-1.2-1.6-2Zm-23.9 0l1.6 9.6c.6 3.6 1 6.7 1.2 9.3c.2 2.1 .3 4 .3 5.9c0 1.6-.2 3.1-.6 4.4c-.3 1.3-1.1 3.1-2.1 5.3l-1.6-.7c.4-2.2 .6-4.1 .6-5.5c0-1.1-.1-2.7-.3-4.8c-.1-2.2-.4-4.2-.6-6.3c-.3-2.1-.8-4.5-1.4-7.4c-.2-1-.3-1.7-.3-2.1c0-.5 .3-1.5 .9-2.8c.5-1.4 1.3-3 2.3-4.9Zm123.6-2.1l1.3 .7c0 .1-.1 .3-.1 .8c0 .6 .4 1.2 1.1 1.7c.7 .5 1.7 1.1 3.2 1.7c-.2 1.1-.4 2.3-.7 3.4c-.4 1.1-.7 2-1.1 2.9l-1-.4l3 16.6v7.3h-43.6c-1.1 0-2.2-.9-3.2-2.7c-1.1-2-1.6-4.2-1.6-6.8c-1.6 4.7-3.8 7.9-6.6 9.7c-2.8 1.7-7 2.6-12.6 2.6l-3.1-.1v-1.7c1.3-.5 2.6-.9 3.8-1.3c1.3-.5 2.2-.9 2.8-1.2c3.7-1.8 6.2-3.2 7.5-4c2.2-1.5 3.9-3.1 4.9-4.7c1.2-1.9 1.8-4.2 1.8-7c0-1.7-.1-3.3-.4-4.9c-.2-1.6-.5-3.1-.8-4.7c0-1.2 1.1-3.7 3.2-7.4c.9 3.1 1.5 7.1 1.7 12c.2 3.5 .3 7 .5 10.5c.3 3 1 4.4 2.1 4.4h19.1c-2.2-2.2-4.2-3.8-6-4.8c-1.7-.9-3.2-1.3-4.8-1.3c-.5 0-.9 0-1.3 .1c-.4 0-.9 .1-1.6 .3c.9-2.3 2-4 3.2-5c1.2-1.1 2.6-1.6 4.2-1.6c1.1 0 2.3 .2 3.4 .8c1.1 .6 2.3 1.5 3.6 2.8c1.1 1 2.6 2.5 4.6 4.7c1.4 1.5 2.4 2.5 3.1 2.9c.7 .5 1.8 .8 3.2 1.1h9.6l-3.2-18.2l-1.7-1.1c0-1.1 .1-2.1 .4-3.2c.5-1.4 1.2-3 2.1-4.9Zm-136 0l1.2 .7c0 .1 0 .3-.1 .8c0 .6 .4 1.2 1.2 1.7c.6 .5 1.7 1.1 3.1 1.7c-.1 1.1-.4 2.3-.7 3.4c-.3 1.1-.6 2-1 2.9l-1-.4l2.9 16.6v7.3h-43.5l-1-.1c-.8 0-1.6-.1-2.2-.3c-1.4-.3-2.7-.7-3.9-1.4c-1.1 .8-2 1.3-2.8 1.5c-.9 .2-2.1 .3-3.7 .3h-4.4c-1.2 0-2.1-.3-2.8-.9c-.7-.6-1.4-1.7-1.9-3.1c-1 1.5-2.1 2.6-3.3 3.2c-.3 .1-.5 .3-.8 .4l-.8 .2v.2h-26c-1.2 0-2.1-.2-2.7-.7c-.8-.6-1.2-1.6-1.2-3c0-.8 .1-1.6 .1-2.5c.1-1 .2-1.9 .4-2.8l1-.1c.2 .7 .5 1.1 1 1.4c.5 .3 1.1 .4 1.8 .4h9.2c-.4-2.6-1.1-4.7-2.2-6.3c-.8-1.3-2-2.4-3.5-3.4l2-8.3c2.3 1.7 3.9 3.9 4.9 6.7c.9 2.5 1.4 5.8 1.4 10v1.3h11.7c1.8 0 3.4-.5 4.7-1.6c1.6-1.3 2.4-3.4 2.4-6.2l1.8 .2c-.1 .6-.1 1.3-.1 2c-.1 .7-.1 1.5-.1 2.4c0 1 .3 1.7 1 2.3c.6 .6 1.3 .9 2.1 .9h3.3c2.2 0 3.8-.3 4.7-.9c1.1-.7 1.7-2.1 1.7-4.1c0-.4 .1-.8 .4-1.1c.1-.2 .5-.5 1-.9l1-.8c0 .3 .1 .8 .1 1.4c0 .5 0 .9 0 1.1c0 1-.1 2.3-.4 3.9c.6 .3 1.4 .6 2.2 .9c.8 .2 1.7 .3 2.6 .5c0-.6-.2-1.4-.7-2.4c-.4-.9-.6-1.6-.6-1.9c0-.5 0-.9 .1-1.1c.1-.1 .3-.4 .6-.8l2.3-3.1c.5 1.1 .9 2.1 1.1 3c.2 1 .3 2.1 .3 3.5v2.8h17.3c-2.2-2.2-4.2-3.8-6.1-4.8c-1.6-.9-3.2-1.3-4.7-1.3c-.5 0-.9 0-1.3 .1c-.4 0-.9 .1-1.7 .3c1-2.3 2.1-4 3.3-5c1.2-1.1 2.6-1.6 4.1-1.6c1.2 0 2.4 .2 3.4 .8c1.1 .6 2.4 1.5 3.7 2.8c1.1 1 2.6 2.5 4.6 4.7c1.3 1.5 2.4 2.5 3.1 2.9c.7 .5 1.7 .8 3.1 1.1h9.7l-3.3-18.2l-1.7-1.1c0-1.1 .2-2.1 .5-3.2c.4-1.4 1.1-3 2.1-4.9ZM873 278l1.2 .7c0 .1 0 .3-.1 .8c0 .6 .4 1.2 1.1 1.7c.7 .5 1.8 1.1 3.2 1.7c-.2 1.1-.4 2.3-.7 3.4c-.3 1.1-.7 2-1.1 2.9l-.9-.4l2.9 16.6h1c.5 0 .9 0 1.1 0c.6-.1 1.1-.1 1.6-.2c-.9-1.3-1.5-2.4-1.8-3.2c-.3-.8-.5-1.8-.5-2.8c0-2.7 1.1-5 3.4-7c2.2-2 4.7-3 7.7-3c2 0 3.9 .6 5.7 1.9c1.7 1.3 2.9 2.7 3.6 4.5l-1.1 .9c-1.4-.5-2.5-.8-3.3-1c-.9-.2-1.9-.2-3.1-.2c-2.3 0-4.2 .1-5.8 .5c-2.1 .4-3.1 1.1-3.1 1.9c0 1.3 2.5 3.3 7.5 6.1l13.6-3.9l-3 7.7c-4.8 1.4-8.8 2.6-11.9 3.4c-2.8 .7-5.1 1.2-7 1.4c-1.4 .2-2.7 .3-4.1 .3H853.6c-.7 0-1.2 .1-1.6 .2c-.4 .1-.6 .3-.6 .5c0 .1 .4 .3 1.3 .6c.9 .4 1.3 .9 1.3 1.6c0 1-.2 2.2-.4 3.6c-.3 1.4-.7 2.6-1.3 3.7c-.4 .9-1.5 1.9-3.3 3c-1.9 1.2-4.1 2.1-6.6 2.9c-2.8 .9-5.4 1.4-8 1.4c-2.9 0-5-.7-6.5-2c-1.5-1.4-2.3-3.3-2.3-5.9c0-2.9 .4-5.3 1.1-7.4c.8-2.5 2.5-5.8 5-9.8l1.5 1.1c-1.7 2.9-2.8 5.2-3.4 6.9c-.7 1.7-1 3.3-1 5c0 1.6 .5 2.9 1.6 3.9c1 .9 2.5 1.4 4.4 1.4c2.2 0 4.7-.4 7.3-1c2.4-.7 4.4-1.4 6.1-2.3c1.7-.9 2.5-1.6 2.5-2.2c0-.2-.5-.3-1.5-.3c-1-.1-1.9-.1-2.7-.1c-1.9 0-3.1 0-3.7-.2c-.5-.1-.8-.5-.8-1c0-1 .2-2 .5-3c.4-1.1 .8-2 1.3-2.5c1.2-1.5 2.6-2.7 4.2-3.7c1.8-1.1 3.4-1.7 4.8-1.7h22.6l-3.3-18.2l-1.7-1.1c0-1.1 .2-2.1 .5-3.2c.4-1.4 1.1-3 2.1-4.9Zm125.1-5.4l4.9 2.5l-3 5l-3.8-2.2l-2.2 4.3l-4.9-2.8l2.7-4.7l4 2Z" class="g1_58"/>
<path fill-rule="evenodd" d="M798.4 281.6l-1 6.6c-1 .2-2 .6-2.8 1c-.8 .4-1.2 .8-1.2 1.2c0 .3 .4 .7 1.3 1.1c.8 .5 1.9 .9 3.2 1.3c.9 .4 1.5 .6 1.8 .8c.3 .2 .5 .4 .5 .7c0 .5-.6 1.4-1.9 2.6c-1.2 1.2-2.2 2.3-3.1 3.5c-.9 1.1-1.4 1.9-1.4 2.3c0 .6 1.4 1.2 4 1.7c.9 .1 2.2 .3 3.9 .5l-2.2 7.8c-4-.7-6.3-1.1-7-1.3c-2.5-.7-3.8-1.9-3.8-3.5c0-1.3 .3-2.5 .8-3.5c.7-1.1 2.1-2.9 4.3-5.2c-1.3-.4-2.4-.7-3.1-1c-2-.9-3.1-1.9-3.1-2.9c0-1.6 1-3.6 3-6.1c2-2.5 4.6-5.1 7.8-7.6Zm-37.3-.5c1.5 2 2.6 3.5 3.3 4.5c.7 1.2 1.4 2.8 2 4.6c.7 1.9 1.2 3.8 1.6 5.8c.3 2 .5 4.1 .5 6.2c0 2.4-.4 5.9-1.1 10.4h-1.6c0-3.1-.2-5.5-.5-7.1c-.2-1.7-.8-3.6-1.6-5.9c-.6-1.9-1.4-3.5-2.2-4.9c-.7-1.4-2-3.2-3.7-5.4Z" class="g0_58"/>
<path d="M798.4 281.6l-1 6.6c-1 .2-2 .6-2.8 1c-.8 .4-1.2 .8-1.2 1.2c0 .3 .4 .7 1.3 1.1c.8 .5 1.9 .9 3.2 1.3c.9 .4 1.5 .6 1.8 .8c.3 .2 .5 .4 .5 .7c0 .5-.6 1.4-1.9 2.6c-1.2 1.2-2.2 2.3-3.1 3.5c-.9 1.1-1.4 1.9-1.4 2.3c0 .6 1.4 1.2 4 1.7c.9 .1 2.2 .3 3.9 .5l-2.2 7.8c-4-.7-6.3-1.1-7-1.3c-2.5-.7-3.8-1.9-3.8-3.5c0-1.3 .3-2.5 .8-3.5c.7-1.1 2.1-2.9 4.3-5.2c-1.3-.4-2.4-.7-3.1-1c-2-.9-3.1-1.9-3.1-2.9c0-1.6 1-3.6 3-6.1c2-2.5 4.6-5.1 7.8-7.6Zm-37.3-.5c1.5 2 2.6 3.5 3.3 4.5c.7 1.2 1.4 2.8 2 4.6c.7 1.9 1.2 3.8 1.6 5.8c.3 2 .5 4.1 .5 6.2c0 2.4-.4 5.9-1.1 10.4h-1.6c0-3.1-.2-5.5-.5-7.1c-.2-1.7-.8-3.6-1.6-5.9c-.6-1.9-1.4-3.5-2.2-4.9c-.7-1.4-2-3.2-3.7-5.4Z" class="g1_58"/>
<path fill-rule="evenodd" d="M683.5 301.1c-.6 0-1 .2-1.3 .7c-.4 .4-.6 .9-.6 1.4c0 .6 .4 1.2 1.1 1.6c.7 .4 1.7 .6 2.8 .6h1c-.5-2.8-1.5-4.3-3-4.3Zm-47.7 0c-.5 0-1 .2-1.3 .7c-.4 .4-.5 .9-.5 1.4c0 .6 .3 1.2 1.1 1.6c.7 .4 1.6 .6 2.7 .6h1.1c-.5-2.8-1.5-4.3-3.1-4.3Zm-68 0c-.6 0-1 .2-1.3 .7c-.4 .4-.5 .9-.5 1.4c0 .6 .3 1.2 1 1.6c.7 .4 1.7 .6 2.8 .6h1.1c-.5-2.8-1.6-4.3-3.1-4.3Zm88.7-.1c-.7 0-1.3 .8-1.8 2.4c.9 .3 1.6 .6 2.1 .8c1.5 .5 2.3 .8 2.5 .8c.3 0 .5-.1 .5-.4c0-.4-.3-1.1-1.1-2c-.9-1.1-1.6-1.6-2.2-1.6Zm-116.3-4.1c1.2 0 2.5 .7 4 2.1c1.4 1.4 3.2 3.5 5.1 6.4v7.3h-3.5c-3.3 0-6.2 .3-8.7 .8c-2.5 .6-3.8 1.2-3.8 2c.7 2.1 1.3 4.1 1.9 6c.5 1.9 .8 3.7 .8 5.3c0 1.3-.1 2.2-.4 3c-.2 .7-.7 1.6-1.3 2.5c-.2-2.4-.7-4.9-1.3-7.5c-.3-.9-.9-2.8-1.8-5.8c-.6-1.8-.8-2.9-.8-3.5c0-.9 .2-1.9 .7-3.2c.3-1 .7-1.9 1.2-2.7c.6-.9 1.6-1.6 3-2.1c1.5-.5 3.6-1 6.5-1.3c-1.4-2-2.6-3-3.7-3c-.5 0-.9 .2-1.3 .5c-.4 .4-1.1 1.2-2 2.4l-1.3-.6c.7-2.8 1.7-4.9 2.9-6.4c1.1-1.4 2.4-2.2 3.8-2.2ZM684.6 294c1.4 0 2.7 .9 3.7 2.9c1 1.9 1.5 4.3 1.5 7.1v6.9c0 3.1-1.3 6.1-3.9 9.1c-2.7 3-5.2 4.5-7.8 4.5c-1.5 0-3.1-.4-4.9-1.4c-1.7-.9-4.4-2.8-8.1-5.6l1.1-1.6c2 1.3 3.6 2.2 4.8 2.6c1 .4 2.2 .5 3.5 .5c1.7 0 3.4-.4 5.1-1.4c2-1.2 4.1-3 6.3-5.5c-.8 .1-1.4 .1-1.9 .1c-1.8 0-3.2-.5-4.3-1.7c-1-1.2-1.5-2.7-1.5-4.7c0-2.7 .6-5.3 1.8-7.8c1.4-2.7 2.9-4 4.6-4Zm-47.7 0c1.5 0 2.7 .9 3.7 2.9c1 1.9 1.5 4.3 1.5 7.1v1.4h3.4c1.6 0 2.9-.2 3.8-.5c1.2-.6 2.1-1.4 2.5-2.7c1.1-2.2 2.4-4.1 4-5.6c1.4-1.3 2.6-1.9 3.6-1.9c.9 0 2 1.4 3.3 4.1c1.5 2.9 2.2 5.6 2.2 8.1v5.8c-1.9 0-4.1-.3-6.7-1.1c-2.2-.6-4.2-1.4-5.9-2.3c-1 1.6-2.3 2.6-3.8 3.1c-.8 .2-1.8 .3-3 .3h-3.6l-.1 .5c-.4 2.3-1.7 4.6-3.6 6.8c-2.6 3-5.2 4.5-7.8 4.5c-1.4 0-3.1-.4-4.8-1.4c-1.8-.9-4.5-2.8-8.1-5.6l1.1-1.6c1.9 1.3 3.5 2.2 4.7 2.6c1 .4 2.2 .5 3.5 .5c1.7 0 3.4-.4 5.2-1.4c2-1.2 4-3 6.2-5.5c-.8 .1-1.4 .1-1.9 .1c-1.8 0-3.2-.5-4.2-1.7c-1.1-1.2-1.6-2.7-1.6-4.7c0-2.7 .6-5.3 1.8-7.8c1.4-2.7 2.9-4 4.6-4Zm-68 0c1.5 0 2.7 .9 3.7 2.9c1 1.9 1.5 4.3 1.5 7.1v1.4h11.6c1.9 0 3.4-.5 4.7-1.6c1.6-1.3 2.4-3.4 2.4-6.2l1.8 .2c0 .6-.1 1.3-.1 2c0 .7-.1 1.5-.1 2.4c0 1 .4 1.7 1 2.3c.6 .6 1.3 .9 2.1 .9h3.3c2.2 0 3.8-.3 4.7-.9c1.1-.7 1.7-2.1 1.7-4.1c0-.4 .1-.8 .4-1.1c.2-.2 .5-.5 1-.9l1-.8c.1 .3 .1 .8 .1 1.4c0 .5 0 .9 0 1.1c0 1-.1 2.3-.4 3.9c.7 .3 1.4 .6 2.2 .9c.8 .2 1.7 .3 2.6 .5c0-.6-.2-1.4-.6-2.4c-.5-.9-.7-1.6-.7-1.9c0-.5 .1-.9 .2-1.1c0-.1 .2-.4 .6-.8l2.2-3.1c.5 1.1 .9 2.1 1.1 3c.2 1 .3 2.1 .3 3.5v10.1c-2 0-3.7-.1-5-.4c-1.3-.3-2.6-.7-3.9-1.4c-1.1 .8-2 1.3-2.8 1.5c-.8 .2-2 .3-3.7 .3h-4.3c-1.2 0-2.2-.3-2.9-.9c-.7-.6-1.3-1.7-1.9-3.1c-1 1.5-2.1 2.6-3.3 3.2c-.2 .1-.5 .3-.8 .4l-.7 .2v.2h-14l-.1 .5c-.5 2.3-1.7 4.6-3.6 6.8c-2.7 3-5.2 4.5-7.8 4.5c-1.5 0-3.1-.4-4.9-1.4c-1.7-.9-4.4-2.8-8.1-5.6l1.1-1.6c2 1.3 3.6 2.2 4.8 2.6c1 .4 2.2 .5 3.5 .5c1.7 0 3.4-.4 5.1-1.4c2-1.2 4.1-3 6.3-5.5c-.8 .1-1.4 .1-1.9 .1c-1.8 0-3.2-.5-4.2-1.7c-1.1-1.2-1.6-2.7-1.6-4.7c0-2.7 .6-5.3 1.8-7.8c1.4-2.7 2.9-4 4.6-4ZM731 281.7v6.4c-.1 0-.8 .2-2.2 .7c-1.8 .5-3.2 1-4.2 1.5c-1.5 .6-2.3 1-2.3 1.3c0 .2 .6 .9 1.9 2.1c1.8 1.7 3.2 3.3 4.4 4.6c2 2.4 3.5 4.7 4.7 6.9v7.5H713.5v.7c0 1-.6 2.5-1.9 4.3c-1.2 1.8-2.7 3.4-4.4 4.7c-1.9 1.4-3.4 2.2-4.8 2.2c-1.5 0-3.2-.5-5-1.4c-1.6-.7-4.1-2.3-7.4-4.6l1.1-1.6c1.6 1 2.9 1.8 3.9 2.1c1 .4 2 .6 3.2 .6c1.2 0 2.5-.3 3.7-1.1c1.2-.7 2.9-2 5-3.8c3-2.7 4.5-4.7 4.5-6.2c0-.7-.3-1.6-.9-2.8c-.6-1.3-1.4-2.4-2.3-3.3l1.5-7.2c1.2 1.2 2.1 2.6 2.8 4.3c.7 1.6 1 3.5 1 5.5v.3h15.6c-.7-.8-1.4-1.5-2.1-2.2c-.5-.5-1.2-1.1-2.1-1.8c-1.1-.8-2.1-1.6-3.1-2.4l-.8 1c-1.6-1.6-2.6-2.5-2.9-2.9c-.9-1-1.3-2.2-1.3-3.5c0-1.8 .1-3.1 .4-3.8c.3-1 1.1-2 2.2-2.8c1.1-.7 2.2-1.3 3.4-1.9c.9-.5 2.1-1 3.7-1.7c.7-.2 2.2-.8 4.5-1.7Z" class="g0_58"/>
<path d="M683.5 301.1c-.6 0-1 .2-1.3 .7c-.4 .4-.6 .9-.6 1.4c0 .6 .4 1.2 1.1 1.6c.7 .4 1.7 .6 2.8 .6h1c-.5-2.8-1.5-4.3-3-4.3Zm-47.7 0c-.5 0-1 .2-1.3 .7c-.4 .4-.5 .9-.5 1.4c0 .6 .3 1.2 1.1 1.6c.7 .4 1.6 .6 2.7 .6h1.1c-.5-2.8-1.5-4.3-3.1-4.3Zm-68 0c-.6 0-1 .2-1.3 .7c-.4 .4-.5 .9-.5 1.4c0 .6 .3 1.2 1 1.6c.7 .4 1.7 .6 2.8 .6h1.1c-.5-2.8-1.6-4.3-3.1-4.3Zm88.7-.1c-.7 0-1.3 .8-1.8 2.4c.9 .3 1.6 .6 2.1 .8c1.5 .5 2.3 .8 2.5 .8c.3 0 .5-.1 .5-.4c0-.4-.3-1.1-1.1-2c-.9-1.1-1.6-1.6-2.2-1.6Zm-116.3-4.1c1.2 0 2.5 .7 4 2.1c1.4 1.4 3.2 3.5 5.1 6.4v7.3h-3.5c-3.3 0-6.2 .3-8.7 .8c-2.5 .6-3.8 1.2-3.8 2c.7 2.1 1.3 4.1 1.9 6c.5 1.9 .8 3.7 .8 5.3c0 1.3-.1 2.2-.4 3c-.2 .7-.7 1.6-1.3 2.5c-.2-2.4-.7-4.9-1.3-7.5c-.3-.9-.9-2.8-1.8-5.8c-.6-1.8-.8-2.9-.8-3.5c0-.9 .2-1.9 .7-3.2c.3-1 .7-1.9 1.2-2.7c.6-.9 1.6-1.6 3-2.1c1.5-.5 3.6-1 6.5-1.3c-1.4-2-2.6-3-3.7-3c-.5 0-.9 .2-1.3 .5c-.4 .4-1.1 1.2-2 2.4l-1.3-.6c.7-2.8 1.7-4.9 2.9-6.4c1.1-1.4 2.4-2.2 3.8-2.2ZM684.6 294c1.4 0 2.7 .9 3.7 2.9c1 1.9 1.5 4.3 1.5 7.1v6.9c0 3.1-1.3 6.1-3.9 9.1c-2.7 3-5.2 4.5-7.8 4.5c-1.5 0-3.1-.4-4.9-1.4c-1.7-.9-4.4-2.8-8.1-5.6l1.1-1.6c2 1.3 3.6 2.2 4.8 2.6c1 .4 2.2 .5 3.5 .5c1.7 0 3.4-.4 5.1-1.4c2-1.2 4.1-3 6.3-5.5c-.8 .1-1.4 .1-1.9 .1c-1.8 0-3.2-.5-4.3-1.7c-1-1.2-1.5-2.7-1.5-4.7c0-2.7 .6-5.3 1.8-7.8c1.4-2.7 2.9-4 4.6-4Zm-47.7 0c1.5 0 2.7 .9 3.7 2.9c1 1.9 1.5 4.3 1.5 7.1v1.4h3.4c1.6 0 2.9-.2 3.8-.5c1.2-.6 2.1-1.4 2.5-2.7c1.1-2.2 2.4-4.1 4-5.6c1.4-1.3 2.6-1.9 3.6-1.9c.9 0 2 1.4 3.3 4.1c1.5 2.9 2.2 5.6 2.2 8.1v5.8c-1.9 0-4.1-.3-6.7-1.1c-2.2-.6-4.2-1.4-5.9-2.3c-1 1.6-2.3 2.6-3.8 3.1c-.8 .2-1.8 .3-3 .3h-3.6l-.1 .5c-.4 2.3-1.7 4.6-3.6 6.8c-2.6 3-5.2 4.5-7.8 4.5c-1.4 0-3.1-.4-4.8-1.4c-1.8-.9-4.5-2.8-8.1-5.6l1.1-1.6c1.9 1.3 3.5 2.2 4.7 2.6c1 .4 2.2 .5 3.5 .5c1.7 0 3.4-.4 5.2-1.4c2-1.2 4-3 6.2-5.5c-.8 .1-1.4 .1-1.9 .1c-1.8 0-3.2-.5-4.2-1.7c-1.1-1.2-1.6-2.7-1.6-4.7c0-2.7 .6-5.3 1.8-7.8c1.4-2.7 2.9-4 4.6-4Zm-68 0c1.5 0 2.7 .9 3.7 2.9c1 1.9 1.5 4.3 1.5 7.1v1.4h11.6c1.9 0 3.4-.5 4.7-1.6c1.6-1.3 2.4-3.4 2.4-6.2l1.8 .2c0 .6-.1 1.3-.1 2c0 .7-.1 1.5-.1 2.4c0 1 .4 1.7 1 2.3c.6 .6 1.3 .9 2.1 .9h3.3c2.2 0 3.8-.3 4.7-.9c1.1-.7 1.7-2.1 1.7-4.1c0-.4 .1-.8 .4-1.1c.2-.2 .5-.5 1-.9l1-.8c.1 .3 .1 .8 .1 1.4c0 .5 0 .9 0 1.1c0 1-.1 2.3-.4 3.9c.7 .3 1.4 .6 2.2 .9c.8 .2 1.7 .3 2.6 .5c0-.6-.2-1.4-.6-2.4c-.5-.9-.7-1.6-.7-1.9c0-.5 .1-.9 .2-1.1c0-.1 .2-.4 .6-.8l2.2-3.1c.5 1.1 .9 2.1 1.1 3c.2 1 .3 2.1 .3 3.5v10.1c-2 0-3.7-.1-5-.4c-1.3-.3-2.6-.7-3.9-1.4c-1.1 .8-2 1.3-2.8 1.5c-.8 .2-2 .3-3.7 .3h-4.3c-1.2 0-2.2-.3-2.9-.9c-.7-.6-1.3-1.7-1.9-3.1c-1 1.5-2.1 2.6-3.3 3.2c-.2 .1-.5 .3-.8 .4l-.7 .2v.2h-14l-.1 .5c-.5 2.3-1.7 4.6-3.6 6.8c-2.7 3-5.2 4.5-7.8 4.5c-1.5 0-3.1-.4-4.9-1.4c-1.7-.9-4.4-2.8-8.1-5.6l1.1-1.6c2 1.3 3.6 2.2 4.8 2.6c1 .4 2.2 .5 3.5 .5c1.7 0 3.4-.4 5.1-1.4c2-1.2 4.1-3 6.3-5.5c-.8 .1-1.4 .1-1.9 .1c-1.8 0-3.2-.5-4.2-1.7c-1.1-1.2-1.6-2.7-1.6-4.7c0-2.7 .6-5.3 1.8-7.8c1.4-2.7 2.9-4 4.6-4ZM731 281.7v6.4c-.1 0-.8 .2-2.2 .7c-1.8 .5-3.2 1-4.2 1.5c-1.5 .6-2.3 1-2.3 1.3c0 .2 .6 .9 1.9 2.1c1.8 1.7 3.2 3.3 4.4 4.6c2 2.4 3.5 4.7 4.7 6.9v7.5H713.5v.7c0 1-.6 2.5-1.9 4.3c-1.2 1.8-2.7 3.4-4.4 4.7c-1.9 1.4-3.4 2.2-4.8 2.2c-1.5 0-3.2-.5-5-1.4c-1.6-.7-4.1-2.3-7.4-4.6l1.1-1.6c1.6 1 2.9 1.8 3.9 2.1c1 .4 2 .6 3.2 .6c1.2 0 2.5-.3 3.7-1.1c1.2-.7 2.9-2 5-3.8c3-2.7 4.5-4.7 4.5-6.2c0-.7-.3-1.6-.9-2.8c-.6-1.3-1.4-2.4-2.3-3.3l1.5-7.2c1.2 1.2 2.1 2.6 2.8 4.3c.7 1.6 1 3.5 1 5.5v.3h15.6c-.7-.8-1.4-1.5-2.1-2.2c-.5-.5-1.2-1.1-2.1-1.8c-1.1-.8-2.1-1.6-3.1-2.4l-.8 1c-1.6-1.6-2.6-2.5-2.9-2.9c-.9-1-1.3-2.2-1.3-3.5c0-1.8 .1-3.1 .4-3.8c.3-1 1.1-2 2.2-2.8c1.1-.7 2.2-1.3 3.4-1.9c.9-.5 2.1-1 3.7-1.7c.7-.2 2.2-.8 4.5-1.7Z" class="g1_58"/>
<path fill-rule="evenodd" d="M522.5 280.6h5.2c-2.5 5.4-4.2 10-5.1 13.8c-.9 3.8-1.4 7.9-1.4 12.1c0 3 .3 6 .9 9c.5 3.1 1.2 6 2.2 8.8c.6 1.8 1.7 4.5 3.3 7.9h-5.2c-2.7-4.2-4.8-8.4-6.2-12.9c-1.5-4.5-2.2-8.8-2.2-13c0-5.1 .9-10 2.7-14.6c1.5-4 3.5-7.7 5.8-11.1Z" class="g0_58"/>
<path d="M522.5 280.6h5.2c-2.5 5.4-4.2 10-5.1 13.8c-.9 3.8-1.4 7.9-1.4 12.1c0 3 .3 6 .9 9c.5 3.1 1.2 6 2.2 8.8c.6 1.8 1.7 4.5 3.3 7.9h-5.2c-2.7-4.2-4.8-8.4-6.2-12.9c-1.5-4.5-2.2-8.8-2.2-13c0-5.1 .9-10 2.7-14.6c1.5-4 3.5-7.7 5.8-11.1Z" class="g1_58"/>
<path fill-rule="evenodd" d="M166.2 309.8l6.3 3.4l-3.2 6l-6.3-3.3ZM446 295.3c1.3 1.2 2.2 2.6 2.9 4.3c.6 1.6 1 3.5 1 5.5v8.3c0 1-.7 2.5-1.9 4.3c-1.3 1.8-2.7 3.4-4.4 4.7c-1.9 1.4-3.5 2.2-4.8 2.2c-1.6 0-3.3-.5-5.1-1.4c-1.6-.7-4-2.3-7.4-4.6l1.2-1.6c1.6 1 2.9 1.8 3.9 2.1c.9 .4 2 .6 3.1 .6c1.3 0 2.5-.3 3.8-1.1c1.2-.7 2.9-2 5-3.8c3-2.7 4.5-4.7 4.5-6.2c0-.7-.3-1.6-.9-2.8c-.6-1.3-1.4-2.4-2.4-3.3Zm-74.5-1c-.5 .3-1 .5-1.3 .7c-1 .5-1.8 1-2.4 1.4c-.4 .4-.8 .7-1 1c-.4 .4-.6 .7-.6 .9c0 .3 .3 .5 1 .6c.6 .1 1.2 .2 1.8 .2c.4 0 .8-.1 1.3-.3c.4-.2 1-.6 1.8-1.2Zm-30.4-.8c1.3 1.6 2.2 3.1 2.7 4.8c.5 1.7 .8 4.2 .8 7.4v7H316.4c-3.2 0-6.1 .3-8.7 .8c-2.5 .6-3.7 1.2-3.7 2c.7 2.1 1.3 4.1 1.8 6c.6 1.9 .8 3.7 .8 5.3c0 1.3-.1 2.2-.3 3c-.3 .7-.7 1.6-1.4 2.5c-.2-2.4-.6-4.9-1.3-7.5c-.2-.9-.8-2.8-1.7-5.8c-.6-1.8-.9-2.9-.9-3.5c0-.9 .2-1.9 .7-3.2c.4-1 .8-1.9 1.3-2.7c.6-.9 1.6-1.6 3-2.1c1.4-.5 3.6-1 6.5-1.3c-1.4-2-2.7-3-3.8-3c-.4 0-.9 .2-1.3 .5c-.4 .4-1.1 1.2-2 2.4l-1.3-.6c.8-2.8 1.8-4.9 2.9-6.4c1.2-1.4 2.5-2.2 3.8-2.2c1.2 0 2.6 .7 4 2.1c1.5 1.4 3.2 3.5 5.1 6.4h22c-.2-1.2-.6-2.2-1.1-3.1c-.3-.4-.9-1.2-1.9-2.4Zm-175.9-1.9c.7 0 2 .1 3.8 .3c1.9 .2 3.5 .4 5 .5c2.7 .2 5.4 .3 8 .3l-1.6 6.5c-1.1 0-2 0-2.7 .2c-1 .2-1.9 .4-2.7 .5c-.1 .4-.1 .8-.2 1.2c0 .4-.1 .7-.1 1c0 1.3 .5 2.1 1.3 2.6c.9 .5 2.4 .7 4.7 .7h16.5c-.2-1.2-.5-2.2-1-3.1c-.3-.4-.9-1.2-1.9-2.4l2.1-6.4c1.4 1.6 2.3 3.1 2.8 4.8c.4 1.5 .6 3.5 .7 6.2v.9h12.2c-.2-1.2-.6-2.2-1.1-3.1c-.3-.4-.9-1.2-1.9-2.4l2.2-6.4c1.3 1.6 2.2 3.1 2.7 4.8c.5 1.5 .7 3.5 .8 6.2v.9h12.1c-.2-1.2-.5-2.2-1-3.1c-.3-.4-.9-1.2-1.9-2.4l2.1-6.4c1.4 1.6 2.3 3.1 2.8 4.8c.4 1.5 .6 3.5 .7 6.2v.9h11.8c1.9 0 3.4-.5 4.7-1.6c1.6-1.3 2.4-3.4 2.4-6.2l1.8 .2c0 .6-.1 1.3-.1 2c0 .7-.1 1.5-.1 2.4c0 1 .4 1.7 1 2.3c.6 .6 1.3 .9 2.1 .9h3.3c2.2 0 3.8-.3 4.7-.9c1.1-.7 1.7-2.1 1.7-4.1c0-.4 .1-.8 .4-1.1c.2-.2 .5-.5 1-.9l1-.8c.1 .3 .1 .8 .1 1.4c0 .5 0 .9 0 1.1c0 1-.1 2.3-.4 3.9c.7 .3 1.4 .6 2.2 .9c.8 .2 1.7 .3 2.6 .5c0-.6-.2-1.4-.6-2.4c-.5-.9-.7-1.6-.7-1.9c0-.5 .1-.9 .2-1.1c0-.1 .2-.4 .6-.8l2.2-3.1c.5 1.1 .9 2.1 1.1 3c.2 1 .3 2.1 .3 3.5v10.1c-2 0-3.7-.1-5-.4c-1.3-.3-2.6-.7-3.9-1.4c-1.1 .8-2 1.3-2.8 1.5c-.8 .2-2 .3-3.7 .3h-4.3c-1.2 0-2.2-.3-2.9-.9c-.7-.6-1.3-1.7-1.9-3.1c-1 1.5-2.1 2.6-3.3 3.2c-.5 .3-1.1 .5-1.7 .6v.2H180.7c-3.1 0-5.3-.4-6.4-1.3c-1.2-.9-1.8-2.7-1.8-5.2c0-1.1 .1-2.2 .3-3.2c0-.4 .2-1.2 .4-2.6c-4.1 1-7.4 2.6-9.9 4.9c-2.6 2.4-3.8 5.2-3.8 8.2c0 3.6 1.5 6.4 4.6 8.3c3 1.9 7.5 2.9 13.2 2.9c1.7 0 4.2-.2 7.3-.5l.5 .9l-10.2 6.5l-2.6 .1c-5.2 0-9.3-1.3-12.1-4c-2.8-2.7-4.2-6.5-4.2-11.4c0-3.7 .8-7.2 2.5-10.4c1.7-3.2 3.9-5.5 6.6-6.9h-.6c-1.7 0-3 .1-4.1 .4c-1.1 .4-2.7 1.1-4.9 2.2c.8-6.7 4-10 9.7-10Zm297.3-4.2c2.3 1.7 3.9 3.9 4.9 6.7c.9 2.5 1.4 5.8 1.4 10v8.6H456.6c-1.2 0-2.1-.2-2.7-.7c-.8-.6-1.2-1.6-1.2-3c0-.8 .1-1.6 .1-2.5c.1-1 .2-1.9 .4-2.8l1-.1c.2 .7 .5 1.1 1 1.4c.5 .3 1.1 .4 1.8 .4h9.2c-.4-2.6-1.1-4.7-2.2-6.3c-.8-1.3-2-2.4-3.5-3.4Zm-89.4-5l2.5 16.8c.4 2.6 1 4.4 1.6 5.3c.5 .6 1.1 .9 1.8 .9h15.5c1.9 0 3.4-.5 4.7-1.6c1.6-1.3 2.4-3.4 2.4-6.2l1.8 .2c0 .6-.1 1.3-.1 2c0 .7-.1 1.5-.1 2.4c0 1 .3 1.7 1 2.3c.6 .6 1.3 .9 2.1 .9h3.3c2.2 0 3.8-.3 4.7-.9c1.1-.7 1.7-2.1 1.7-4.1c0-.4 .1-.8 .4-1.1c.1-.2 .5-.5 1-.9l1-.8c0 .3 .1 .8 .1 1.4c0 .5 0 .9 0 1.1c0 1-.1 2.3-.4 3.9c.6 .3 1.4 .6 2.2 .9c.8 .2 1.7 .3 2.6 .5c0-.6-.2-1.4-.7-2.4c-.4-.9-.6-1.6-.6-1.9c0-.5 0-.9 .2-1.1c0-.1 .2-.4 .6-.8l2.2-3.1c.5 1.1 .9 2.1 1.1 3c.2 1 .3 2.1 .3 3.5v10.1c-2 0-3.7-.1-5-.4c-1.3-.3-2.6-.7-3.9-1.4c-1.1 .8-2 1.3-2.8 1.5c-.8 .2-2.1 .3-3.7 .3h-4.4c-1.2 0-2.1-.3-2.8-.9c-.7-.6-1.3-1.7-1.9-3.1c-1 1.5-2.1 2.6-3.3 3.2c-.5 .3-1.1 .5-1.7 .6v.2H379c-.6 0-1.2-.1-1.8-.4c-1-.5-1.9-1.4-2.6-2.8c-1-1.9-1.6-4.5-1.9-7.8c-1.2 1.5-2.1 2.6-2.8 3.2c-1 .9-1.8 1.4-2.5 1.4c-.3 0-.8-.1-1.3-.2l-3.3-.6c-1.4-.3-2.2-.5-2.5-.6c-.4-.2-.5-.4-.5-.7c0-.5 .6-2 1.8-4.6c1.3-2.6 2.2-4.2 2.7-4.8c.5-.5 1.3-1.1 2.4-1.8c.7-.5 1.7-1.1 2.9-1.9l1.5-.8c-.1-.2-.1-.5-.2-.8c0-.2 0-.5 0-.7c0-.7 .2-1.5 .5-2.6c.3-1 .8-2.3 1.7-3.8Zm-33.9-1.1l4.9 2.7l-2.9 5.5l-3.8-2.1l-2.2 4.2l-5-2.7l2.8-5.2l4 1.9Zm-115 0l5 2.7l-2.8 5.2l-4-1.9l-2.2 4.3l-4.9-2.7l2.9-5.5l3.8 2.1Zm-29.7 0l5 2.7l-2.8 5.2l-4-1.9l-2.2 4.3l-4.9-2.7l2.9-5.5l3.8 2.1Zm14.2-1.1l6.2 3.3l-3.2 6l-6.3-3.3Zm266.9-.1l1.6 9.6c.6 3.6 1 6.7 1.3 9.3c.1 2.1 .2 4 .2 5.9c0 1.6-.2 3.1-.6 4.4c-.3 1.3-1.1 3.1-2.1 5.3l-1.6-.7c.4-2.2 .6-4.1 .6-5.5c0-1.1-.1-2.7-.3-4.8c-.1-2.2-.4-4.2-.6-6.3c-.3-2.1-.7-4.5-1.3-7.4c-.3-1-.4-1.7-.4-2.1c0-.5 .3-1.5 .9-2.8c.5-1.4 1.3-3 2.3-4.9Zm-195.8 0l1.6 9.6c.6 3.6 1 6.7 1.3 9.3c.1 2.1 .2 4 .2 5.9c0 1.6-.2 3.1-.6 4.4c-.3 1.3-1.1 3.1-2.1 5.3l-1.6-.7c.4-2.2 .6-4.1 .6-5.5c0-1.1-.1-2.7-.3-4.8c-.1-2.2-.4-4.2-.6-6.3c-.3-2.1-.7-4.5-1.3-7.4c-.3-1-.4-1.7-.4-2.1c0-.5 .3-1.5 .9-2.8c.5-1.4 1.3-3 2.3-4.9Zm54.1-5l5 2.6l-2.7 5.5l-5-2.6Z" class="g0_58"/>
<path d="M166.2 309.8l6.3 3.4l-3.2 6l-6.3-3.3ZM446 295.3c1.3 1.2 2.2 2.6 2.9 4.3c.6 1.6 1 3.5 1 5.5v8.3c0 1-.7 2.5-1.9 4.3c-1.3 1.8-2.7 3.4-4.4 4.7c-1.9 1.4-3.5 2.2-4.8 2.2c-1.6 0-3.3-.5-5.1-1.4c-1.6-.7-4-2.3-7.4-4.6l1.2-1.6c1.6 1 2.9 1.8 3.9 2.1c.9 .4 2 .6 3.1 .6c1.3 0 2.5-.3 3.8-1.1c1.2-.7 2.9-2 5-3.8c3-2.7 4.5-4.7 4.5-6.2c0-.7-.3-1.6-.9-2.8c-.6-1.3-1.4-2.4-2.4-3.3Zm-74.5-1c-.5 .3-1 .5-1.3 .7c-1 .5-1.8 1-2.4 1.4c-.4 .4-.8 .7-1 1c-.4 .4-.6 .7-.6 .9c0 .3 .3 .5 1 .6c.6 .1 1.2 .2 1.8 .2c.4 0 .8-.1 1.3-.3c.4-.2 1-.6 1.8-1.2Zm-30.4-.8c1.3 1.6 2.2 3.1 2.7 4.8c.5 1.7 .8 4.2 .8 7.4v7H316.4c-3.2 0-6.1 .3-8.7 .8c-2.5 .6-3.7 1.2-3.7 2c.7 2.1 1.3 4.1 1.8 6c.6 1.9 .8 3.7 .8 5.3c0 1.3-.1 2.2-.3 3c-.3 .7-.7 1.6-1.4 2.5c-.2-2.4-.6-4.9-1.3-7.5c-.2-.9-.8-2.8-1.7-5.8c-.6-1.8-.9-2.9-.9-3.5c0-.9 .2-1.9 .7-3.2c.4-1 .8-1.9 1.3-2.7c.6-.9 1.6-1.6 3-2.1c1.4-.5 3.6-1 6.5-1.3c-1.4-2-2.7-3-3.8-3c-.4 0-.9 .2-1.3 .5c-.4 .4-1.1 1.2-2 2.4l-1.3-.6c.8-2.8 1.8-4.9 2.9-6.4c1.2-1.4 2.5-2.2 3.8-2.2c1.2 0 2.6 .7 4 2.1c1.5 1.4 3.2 3.5 5.1 6.4h22c-.2-1.2-.6-2.2-1.1-3.1c-.3-.4-.9-1.2-1.9-2.4Zm-175.9-1.9c.7 0 2 .1 3.8 .3c1.9 .2 3.5 .4 5 .5c2.7 .2 5.4 .3 8 .3l-1.6 6.5c-1.1 0-2 0-2.7 .2c-1 .2-1.9 .4-2.7 .5c-.1 .4-.1 .8-.2 1.2c0 .4-.1 .7-.1 1c0 1.3 .5 2.1 1.3 2.6c.9 .5 2.4 .7 4.7 .7h16.5c-.2-1.2-.5-2.2-1-3.1c-.3-.4-.9-1.2-1.9-2.4l2.1-6.4c1.4 1.6 2.3 3.1 2.8 4.8c.4 1.5 .6 3.5 .7 6.2v.9h12.2c-.2-1.2-.6-2.2-1.1-3.1c-.3-.4-.9-1.2-1.9-2.4l2.2-6.4c1.3 1.6 2.2 3.1 2.7 4.8c.5 1.5 .7 3.5 .8 6.2v.9h12.1c-.2-1.2-.5-2.2-1-3.1c-.3-.4-.9-1.2-1.9-2.4l2.1-6.4c1.4 1.6 2.3 3.1 2.8 4.8c.4 1.5 .6 3.5 .7 6.2v.9h11.8c1.9 0 3.4-.5 4.7-1.6c1.6-1.3 2.4-3.4 2.4-6.2l1.8 .2c0 .6-.1 1.3-.1 2c0 .7-.1 1.5-.1 2.4c0 1 .4 1.7 1 2.3c.6 .6 1.3 .9 2.1 .9h3.3c2.2 0 3.8-.3 4.7-.9c1.1-.7 1.7-2.1 1.7-4.1c0-.4 .1-.8 .4-1.1c.2-.2 .5-.5 1-.9l1-.8c.1 .3 .1 .8 .1 1.4c0 .5 0 .9 0 1.1c0 1-.1 2.3-.4 3.9c.7 .3 1.4 .6 2.2 .9c.8 .2 1.7 .3 2.6 .5c0-.6-.2-1.4-.6-2.4c-.5-.9-.7-1.6-.7-1.9c0-.5 .1-.9 .2-1.1c0-.1 .2-.4 .6-.8l2.2-3.1c.5 1.1 .9 2.1 1.1 3c.2 1 .3 2.1 .3 3.5v10.1c-2 0-3.7-.1-5-.4c-1.3-.3-2.6-.7-3.9-1.4c-1.1 .8-2 1.3-2.8 1.5c-.8 .2-2 .3-3.7 .3h-4.3c-1.2 0-2.2-.3-2.9-.9c-.7-.6-1.3-1.7-1.9-3.1c-1 1.5-2.1 2.6-3.3 3.2c-.5 .3-1.1 .5-1.7 .6v.2H180.7c-3.1 0-5.3-.4-6.4-1.3c-1.2-.9-1.8-2.7-1.8-5.2c0-1.1 .1-2.2 .3-3.2c0-.4 .2-1.2 .4-2.6c-4.1 1-7.4 2.6-9.9 4.9c-2.6 2.4-3.8 5.2-3.8 8.2c0 3.6 1.5 6.4 4.6 8.3c3 1.9 7.5 2.9 13.2 2.9c1.7 0 4.2-.2 7.3-.5l.5 .9l-10.2 6.5l-2.6 .1c-5.2 0-9.3-1.3-12.1-4c-2.8-2.7-4.2-6.5-4.2-11.4c0-3.7 .8-7.2 2.5-10.4c1.7-3.2 3.9-5.5 6.6-6.9h-.6c-1.7 0-3 .1-4.1 .4c-1.1 .4-2.7 1.1-4.9 2.2c.8-6.7 4-10 9.7-10Zm297.3-4.2c2.3 1.7 3.9 3.9 4.9 6.7c.9 2.5 1.4 5.8 1.4 10v8.6H456.6c-1.2 0-2.1-.2-2.7-.7c-.8-.6-1.2-1.6-1.2-3c0-.8 .1-1.6 .1-2.5c.1-1 .2-1.9 .4-2.8l1-.1c.2 .7 .5 1.1 1 1.4c.5 .3 1.1 .4 1.8 .4h9.2c-.4-2.6-1.1-4.7-2.2-6.3c-.8-1.3-2-2.4-3.5-3.4Zm-89.4-5l2.5 16.8c.4 2.6 1 4.4 1.6 5.3c.5 .6 1.1 .9 1.8 .9h15.5c1.9 0 3.4-.5 4.7-1.6c1.6-1.3 2.4-3.4 2.4-6.2l1.8 .2c0 .6-.1 1.3-.1 2c0 .7-.1 1.5-.1 2.4c0 1 .3 1.7 1 2.3c.6 .6 1.3 .9 2.1 .9h3.3c2.2 0 3.8-.3 4.7-.9c1.1-.7 1.7-2.1 1.7-4.1c0-.4 .1-.8 .4-1.1c.1-.2 .5-.5 1-.9l1-.8c0 .3 .1 .8 .1 1.4c0 .5 0 .9 0 1.1c0 1-.1 2.3-.4 3.9c.6 .3 1.4 .6 2.2 .9c.8 .2 1.7 .3 2.6 .5c0-.6-.2-1.4-.7-2.4c-.4-.9-.6-1.6-.6-1.9c0-.5 0-.9 .2-1.1c0-.1 .2-.4 .6-.8l2.2-3.1c.5 1.1 .9 2.1 1.1 3c.2 1 .3 2.1 .3 3.5v10.1c-2 0-3.7-.1-5-.4c-1.3-.3-2.6-.7-3.9-1.4c-1.1 .8-2 1.3-2.8 1.5c-.8 .2-2.1 .3-3.7 .3h-4.4c-1.2 0-2.1-.3-2.8-.9c-.7-.6-1.3-1.7-1.9-3.1c-1 1.5-2.1 2.6-3.3 3.2c-.5 .3-1.1 .5-1.7 .6v.2H379c-.6 0-1.2-.1-1.8-.4c-1-.5-1.9-1.4-2.6-2.8c-1-1.9-1.6-4.5-1.9-7.8c-1.2 1.5-2.1 2.6-2.8 3.2c-1 .9-1.8 1.4-2.5 1.4c-.3 0-.8-.1-1.3-.2l-3.3-.6c-1.4-.3-2.2-.5-2.5-.6c-.4-.2-.5-.4-.5-.7c0-.5 .6-2 1.8-4.6c1.3-2.6 2.2-4.2 2.7-4.8c.5-.5 1.3-1.1 2.4-1.8c.7-.5 1.7-1.1 2.9-1.9l1.5-.8c-.1-.2-.1-.5-.2-.8c0-.2 0-.5 0-.7c0-.7 .2-1.5 .5-2.6c.3-1 .8-2.3 1.7-3.8Zm-33.9-1.1l4.9 2.7l-2.9 5.5l-3.8-2.1l-2.2 4.2l-5-2.7l2.8-5.2l4 1.9Zm-115 0l5 2.7l-2.8 5.2l-4-1.9l-2.2 4.3l-4.9-2.7l2.9-5.5l3.8 2.1Zm-29.7 0l5 2.7l-2.8 5.2l-4-1.9l-2.2 4.3l-4.9-2.7l2.9-5.5l3.8 2.1Zm14.2-1.1l6.2 3.3l-3.2 6l-6.3-3.3Zm266.9-.1l1.6 9.6c.6 3.6 1 6.7 1.3 9.3c.1 2.1 .2 4 .2 5.9c0 1.6-.2 3.1-.6 4.4c-.3 1.3-1.1 3.1-2.1 5.3l-1.6-.7c.4-2.2 .6-4.1 .6-5.5c0-1.1-.1-2.7-.3-4.8c-.1-2.2-.4-4.2-.6-6.3c-.3-2.1-.7-4.5-1.3-7.4c-.3-1-.4-1.7-.4-2.1c0-.5 .3-1.5 .9-2.8c.5-1.4 1.3-3 2.3-4.9Zm-195.8 0l1.6 9.6c.6 3.6 1 6.7 1.3 9.3c.1 2.1 .2 4 .2 5.9c0 1.6-.2 3.1-.6 4.4c-.3 1.3-1.1 3.1-2.1 5.3l-1.6-.7c.4-2.2 .6-4.1 .6-5.5c0-1.1-.1-2.7-.3-4.8c-.1-2.2-.4-4.2-.6-6.3c-.3-2.1-.7-4.5-1.3-7.4c-.3-1-.4-1.7-.4-2.1c0-.5 .3-1.5 .9-2.8c.5-1.4 1.3-3 2.3-4.9Zm54.1-5l5 2.6l-2.7 5.5l-5-2.6Z" class="g1_58"/>
<path fill-rule="evenodd" d="M127.7 313.1h7.5v7.5h-7.5Zm-15.2 0H120v7.5h-7.5Z" class="g0_58"/>
<path d="M127.7 313.1h7.5v7.5h-7.5Zm-15.2 0H120v7.5h-7.5Z" class="g1_58"/>
<path fill-rule="evenodd" d="M84.8 301c-.7 0-1.3 .8-1.8 2.4c1 .3 1.7 .6 2.2 .8c1.4 .5 2.2 .8 2.4 .8c.4 0 .6-.1 .6-.4c0-.4-.4-1.1-1.1-2c-.9-1.1-1.7-1.6-2.3-1.6ZM51.3 280.1c1 1.5 1.7 2.9 2.1 4.3c.5 1.6 .8 3.7 .8 6.2v5.3c0 3.7 .2 6.3 .7 7.8c.4 1.2 1 1.7 1.9 1.7h17c1.6 0 2.9-.2 3.9-.5c1.2-.6 2-1.4 2.5-2.7c1-2.2 2.3-4.1 3.9-5.6c1.4-1.3 2.6-1.9 3.6-1.9c.9 0 2.1 1.4 3.4 4.1c1.4 2.9 2.1 5.6 2.1 8.1v5.8c-1.9 0-4.1-.3-6.6-1.1c-2.2-.6-4.2-1.4-5.9-2.3c-1.1 1.6-2.3 2.6-3.9 3.1c-.5 .2-1.2 .3-2.1 .3H56.8c-2.1 0-3.6-.8-4.5-2.5c-1.1-1.9-1.6-5.1-1.6-9.6v-7.7c0-1.7-.2-3.1-.7-4c-.3-.5-.8-1.2-1.6-2Z" class="g0_58"/>
<path d="M84.8 301c-.7 0-1.3 .8-1.8 2.4c1 .3 1.7 .6 2.2 .8c1.4 .5 2.2 .8 2.4 .8c.4 0 .6-.1 .6-.4c0-.4-.4-1.1-1.1-2c-.9-1.1-1.7-1.6-2.3-1.6ZM51.3 280.1c1 1.5 1.7 2.9 2.1 4.3c.5 1.6 .8 3.7 .8 6.2v5.3c0 3.7 .2 6.3 .7 7.8c.4 1.2 1 1.7 1.9 1.7h17c1.6 0 2.9-.2 3.9-.5c1.2-.6 2-1.4 2.5-2.7c1-2.2 2.3-4.1 3.9-5.6c1.4-1.3 2.6-1.9 3.6-1.9c.9 0 2.1 1.4 3.4 4.1c1.4 2.9 2.1 5.6 2.1 8.1v5.8c-1.9 0-4.1-.3-6.6-1.1c-2.2-.6-4.2-1.4-5.9-2.3c-1.1 1.6-2.3 2.6-3.9 3.1c-.5 .2-1.2 .3-2.1 .3H56.8c-2.1 0-3.6-.8-4.5-2.5c-1.1-1.9-1.6-5.1-1.6-9.6v-7.7c0-1.7-.2-3.1-.7-4c-.3-.5-.8-1.2-1.6-2Z" class="g1_58"/>
<path fill-rule="evenodd" d="M1371.7 379.1l5 2.7l-2.8 5.2l-4-2l-2.2 4.4l-4.9-2.8l2.9-5.4l3.8 2.1Zm-133.3 0l5 2.7l-2.8 5.2l-4-2l-2.2 4.4l-4.9-2.8l2.9-5.4l3.8 2.1Zm153-13.8c-.7 0-1.2 .8-1.7 2.4c.9 .4 1.6 .6 2.1 .8c1.4 .6 2.3 .8 2.4 .8c.4 0 .6-.1 .6-.3c0-.4-.4-1.1-1.1-2.1c-.9-1.1-1.6-1.6-2.3-1.6Zm-120.4 0c-.7 0-1.3 .8-1.8 2.4c.9 .4 1.7 .6 2.1 .8c1.5 .6 2.3 .8 2.5 .8c.4 0 .6-.1 .6-.3c0-.4-.4-1.1-1.2-2.1c-.8-1.1-1.6-1.6-2.2-1.6Zm143.6-.9c-.1 .9-.2 1.5-.3 2c-.2 .4-.5 1.2-1.1 2.2c2.3 1.3 4 2 5 2c.3 0 .5-.2 .5-.5c0-.5-.4-1.3-1.2-2.4c-.8-1.1-1.7-2.2-2.9-3.3Zm-4.8-2.2c-.8 0-1.5 .3-2.1 .9c-.4 .5-.7 1-.7 1.5c0 .8 .8 1.5 2.5 2.3c.4-.2 .7-.4 .9-.5c.6-.4 .9-.8 .9-1.3c0-.9-.2-1.6-.4-2.1c-.3-.5-.7-.8-1.1-.8Zm-58.7-3.5c-.6 .3-1 .5-1.4 .6c-.9 .6-1.7 1-2.3 1.5c-.4 .4-.8 .7-1.1 1c-.3 .4-.5 .7-.5 .9c0 .2 .3 .4 .9 .6c.6 .1 1.3 .2 1.9 .2c.4 0 .8-.1 1.2-.4c.4-.2 1-.6 1.8-1.2Zm-133.3 0c-.6 .3-1 .5-1.3 .6c-1 .6-1.8 1-2.4 1.5c-.4 .4-.8 .7-1.1 1c-.3 .4-.5 .7-.5 .9c0 .2 .3 .4 .9 .6c.7 .1 1.3 .2 1.9 .2c.4 0 .8-.1 1.2-.4c.5-.2 1.1-.6 1.8-1.2Zm134.8-11.9l2.6 16.7c.4 2.7 .9 4.4 1.6 5.4c.4 .6 1 .9 1.8 .9h15.8c-.2-1.2-.5-2.3-1.1-3.1c-.2-.5-.9-1.3-1.8-2.4l2.1-6.4c1.4 1.5 2.3 3.1 2.8 4.8c.4 1.4 .6 3.5 .7 6.2v.9h3.4c1.6 0 2.8-.2 3.8-.6c1.2-.5 2.1-1.4 2.5-2.6c1-2.3 2.3-4.2 3.9-5.6c1.5-1.3 2.6-2 3.6-2c1 0 2.1 1.4 3.4 4.2c1.1 2.1 1.7 4.2 2 6.1l.1 .5h.7c.5 0 1.1-.1 1.7-.3c.6-.1 1.1-.3 1.4-.5v-1c0-2.2 .4-4.1 .9-5.7c.7-1.8 1.7-3.1 3.1-3.9l-1.3-1c.2-1.4 .4-2.6 .6-3.4c.2-.8 .5-2 1-3.5c2.7 1.9 5.1 4.1 7.4 6.8c2 2.5 3.6 5 4.8 7.6c1.2 2.5 1.7 4.6 1.7 6.5c0 1.3-.2 2.7-.7 4.3c-.7 1.9-1.4 2.8-2.3 2.8c-.7 0-2-.3-3.7-1.1c-2-.8-4.1-1.9-6.2-3.2c-1.3 1-2.7 1.8-4.4 2.3c-1.3 .4-2.7 .6-4 .6h-2.4V377l-.5-.1c-1.3-.2-2.8-.5-4.4-.9c-2.2-.7-4.2-1.4-5.9-2.3c-1 1.5-2.3 2.6-3.8 3c-.8 .3-1.8 .4-3 .4h-21.9c-.7 0-1.3-.1-1.8-.4c-1-.5-1.9-1.5-2.6-2.9c-1-1.9-1.6-4.5-1.9-7.7c-1.2 1.5-2.2 2.5-2.9 3.1c-1 1-1.8 1.4-2.4 1.4c-.4 0-.8 0-1.3-.1l-3.3-.7c-1.4-.3-2.3-.5-2.6-.6c-.3-.1-.5-.3-.5-.7c0-.5 .7-2 1.9-4.6c1.2-2.5 2.1-4.1 2.7-4.7c.4-.5 1.2-1.1 2.4-1.9c.7-.5 1.6-1.1 2.9-1.8l1.4-.8c0-.3-.1-.5-.1-.8c0-.3-.1-.5-.1-.7c0-.7 .2-1.6 .5-2.6c.3-1 .9-2.3 1.7-3.8Zm80.1-2.3l1.6 9.5c.6 3.6 1 6.7 1.2 9.4c.2 2 .3 4 .3 5.9c0 1.6-.2 3-.6 4.3c-.4 1.4-1.1 3.1-2.2 5.4l-1.6-.7c.4-2.3 .7-4.1 .7-5.6c0-1.1-.1-2.7-.3-4.8c-.2-2.1-.4-4.2-.7-6.3c-.2-2-.7-4.5-1.3-7.4c-.2-1-.3-1.6-.3-2c0-.6 .3-1.5 .8-2.9c.6-1.3 1.4-2.9 2.4-4.8Zm-113.8 0l1.6 9.5c.6 3.6 1.1 6.7 1.3 9.4c.2 2 .2 4 .2 5.9c0 1.6-.1 3-.5 4.3c-.4 1.4-1.1 3.1-2.2 5.4l-1.6-.7c.4-2.3 .6-4.1 .6-5.6c0-1.1 0-2.7-.2-4.8c-.2-2.1-.4-4.2-.7-6.3c-.3-2-.7-4.5-1.3-7.4c-.2-1-.3-1.6-.3-2c0-.6 .2-1.5 .8-2.9c.6-1.3 1.3-2.9 2.3-4.8Zm-67.9-2.1l1.2 .6c0 .1 0 .4-.1 .9c0 .6 .4 1.1 1.2 1.7c.6 .5 1.7 1.1 3.1 1.6c-.1 1.2-.4 2.3-.7 3.4c-.3 1.1-.6 2.1-1 2.9l-1-.3l2.9 16.6h3.4c1.6 0 2.9-.2 3.8-.6c1.3-.5 2.1-1.4 2.6-2.6c1-2.3 2.3-4.2 3.9-5.6c1.4-1.3 2.6-2 3.6-2c.9 0 2 1.4 3.4 4.2c1 2.1 1.7 4.2 2 6.1v.5h1.1c1.5 0 2.6-.1 3.1-.2c.7-.2 1.5-.5 2.5-1.1c-.6-1-1-1.8-1.4-2.3c-.5-.5-1-.8-1.5-.8c-.2 0-.4 .1-.6 .2c-.1 .1-.3 .4-.5 .8l-1.2-.2c0-3.2 .5-5.5 1.6-6.9c1.2-1.4 2.9-2.1 5.3-2.1c2.5 0 4.5 .5 5.9 1.5c1.5 .9 2.2 2.3 2.2 4c0 .9-.2 1.8-.6 2.6c-.4 .8-1.1 1.9-2.1 3.4c.2 .3 .6 .6 1 .8c.4 .2 .8 .3 1.2 .3H1309l-3.3-18.2l-1.7-1.2c0-1 .1-2.1 .5-3.2c.4-1.3 1.1-3 2.1-4.8l1.2 .6c0 .1 0 .4-.1 .9c0 .6 .4 1.1 1.1 1.7c.7 .5 1.7 1.1 3.2 1.6c-.2 1.2-.4 2.3-.7 3.4c-.3 1.1-.7 2.1-1.1 2.9l-1-.3l3 16.6v7.3h-16.9c-1.4 0-2.6-.3-3.7-.9c-1.1-.5-1.9-1.5-2.6-2.7c-1.2 1.4-2.7 2.4-4.6 3c-1.2 .4-2.5 .6-4 .6h-2.8V377l-.5-.1c-1.3-.2-2.7-.5-4.3-.9c-2.3-.7-4.2-1.4-6-2.3c-1 1.5-2.3 2.6-3.8 3c-.7 .3-1.7 .4-3 .4h-34.7c-.7 0-1.3-.1-1.8-.4c-1-.5-1.9-1.5-2.6-2.9c-1-1.9-1.6-4.5-1.9-7.7c-1.2 1.5-2.2 2.5-2.9 3.1c-.9 1-1.8 1.4-2.4 1.4c-.4 0-.8 0-1.3-.1l-3.3-.7c-1.4-.3-2.2-.5-2.6-.6c-.3-.1-.5-.3-.5-.7c0-.5 .7-2 1.9-4.6c1.3-2.5 2.2-4.1 2.7-4.7c.5-.5 1.3-1.1 2.4-1.9c.7-.5 1.6-1.1 2.9-1.8l1.4-.8c0-.3-.1-.5-.1-.8c0-.3 0-.5 0-.7c0-.7 .1-1.6 .4-2.6c.3-1 .9-2.3 1.7-3.8l2.6 16.7c.4 2.7 .9 4.4 1.6 5.4c.4 .6 1 .9 1.8 .9h15.8c-.2-1.2-.5-2.3-1-3.1c-.3-.5-.9-1.3-1.9-2.4l2.1-6.4c1.4 1.5 2.3 3.1 2.8 4.8c.4 1.4 .6 3.5 .7 6.2v.9h9.6l-3.2-18.2l-1.8-1.2c0-1 .2-2.1 .5-3.2c.4-1.3 1.1-3 2.1-4.8Zm100.1-5.5l4.8 2.5l-3 5l-3.8-2.1l-2.1 4.2l-5-2.7l2.8-4.7l3.9 1.9Zm-133.3 0l4.8 2.5l-3 5l-3.8-2.1l-2.1 4.2l-5-2.7l2.8-4.7l4 1.9Zm215.7-.1c.4 0 .6 .1 .8 .3c.2 .2 .3 .5 .3 .9c0 .3 0 .5-.1 .7c-.1 .2-.2 .5-.5 1c-.9-.5-1.5-.7-1.8-.7c-.3 0-.6 .1-1 .2c-.2 .1-.4 .3-.6 .5c0 .2 .5 .6 1.3 1c.9 .5 1.5 .8 1.9 .8c.2 0 .9-.2 1.9-.5c-.2 .6-.4 1-.7 1.2c-.2 .2-.5 .4-.9 .5l-5.8 1.8c.4-.7 .7-1.1 1-1.3c.2-.3 .7-.5 1.4-.7c-.5-.3-.9-.6-1.1-.9c-.2-.3-.3-.6-.3-.8c0-.2 0-.5 .2-.8c.1-.3 .3-.6 .6-.9c1.1-1.5 2.3-2.3 3.4-2.3Z" class="g0_58"/>
<path d="M1371.7 379.1l5 2.7l-2.8 5.2l-4-2l-2.2 4.4l-4.9-2.8l2.9-5.4l3.8 2.1Zm-133.3 0l5 2.7l-2.8 5.2l-4-2l-2.2 4.4l-4.9-2.8l2.9-5.4l3.8 2.1Zm153-13.8c-.7 0-1.2 .8-1.7 2.4c.9 .4 1.6 .6 2.1 .8c1.4 .6 2.3 .8 2.4 .8c.4 0 .6-.1 .6-.3c0-.4-.4-1.1-1.1-2.1c-.9-1.1-1.6-1.6-2.3-1.6Zm-120.4 0c-.7 0-1.3 .8-1.8 2.4c.9 .4 1.7 .6 2.1 .8c1.5 .6 2.3 .8 2.5 .8c.4 0 .6-.1 .6-.3c0-.4-.4-1.1-1.2-2.1c-.8-1.1-1.6-1.6-2.2-1.6Zm143.6-.9c-.1 .9-.2 1.5-.3 2c-.2 .4-.5 1.2-1.1 2.2c2.3 1.3 4 2 5 2c.3 0 .5-.2 .5-.5c0-.5-.4-1.3-1.2-2.4c-.8-1.1-1.7-2.2-2.9-3.3Zm-4.8-2.2c-.8 0-1.5 .3-2.1 .9c-.4 .5-.7 1-.7 1.5c0 .8 .8 1.5 2.5 2.3c.4-.2 .7-.4 .9-.5c.6-.4 .9-.8 .9-1.3c0-.9-.2-1.6-.4-2.1c-.3-.5-.7-.8-1.1-.8Zm-58.7-3.5c-.6 .3-1 .5-1.4 .6c-.9 .6-1.7 1-2.3 1.5c-.4 .4-.8 .7-1.1 1c-.3 .4-.5 .7-.5 .9c0 .2 .3 .4 .9 .6c.6 .1 1.3 .2 1.9 .2c.4 0 .8-.1 1.2-.4c.4-.2 1-.6 1.8-1.2Zm-133.3 0c-.6 .3-1 .5-1.3 .6c-1 .6-1.8 1-2.4 1.5c-.4 .4-.8 .7-1.1 1c-.3 .4-.5 .7-.5 .9c0 .2 .3 .4 .9 .6c.7 .1 1.3 .2 1.9 .2c.4 0 .8-.1 1.2-.4c.5-.2 1.1-.6 1.8-1.2Zm134.8-11.9l2.6 16.7c.4 2.7 .9 4.4 1.6 5.4c.4 .6 1 .9 1.8 .9h15.8c-.2-1.2-.5-2.3-1.1-3.1c-.2-.5-.9-1.3-1.8-2.4l2.1-6.4c1.4 1.5 2.3 3.1 2.8 4.8c.4 1.4 .6 3.5 .7 6.2v.9h3.4c1.6 0 2.8-.2 3.8-.6c1.2-.5 2.1-1.4 2.5-2.6c1-2.3 2.3-4.2 3.9-5.6c1.5-1.3 2.6-2 3.6-2c1 0 2.1 1.4 3.4 4.2c1.1 2.1 1.7 4.2 2 6.1l.1 .5h.7c.5 0 1.1-.1 1.7-.3c.6-.1 1.1-.3 1.4-.5v-1c0-2.2 .4-4.1 .9-5.7c.7-1.8 1.7-3.1 3.1-3.9l-1.3-1c.2-1.4 .4-2.6 .6-3.4c.2-.8 .5-2 1-3.5c2.7 1.9 5.1 4.1 7.4 6.8c2 2.5 3.6 5 4.8 7.6c1.2 2.5 1.7 4.6 1.7 6.5c0 1.3-.2 2.7-.7 4.3c-.7 1.9-1.4 2.8-2.3 2.8c-.7 0-2-.3-3.7-1.1c-2-.8-4.1-1.9-6.2-3.2c-1.3 1-2.7 1.8-4.4 2.3c-1.3 .4-2.7 .6-4 .6h-2.4V377l-.5-.1c-1.3-.2-2.8-.5-4.4-.9c-2.2-.7-4.2-1.4-5.9-2.3c-1 1.5-2.3 2.6-3.8 3c-.8 .3-1.8 .4-3 .4h-21.9c-.7 0-1.3-.1-1.8-.4c-1-.5-1.9-1.5-2.6-2.9c-1-1.9-1.6-4.5-1.9-7.7c-1.2 1.5-2.2 2.5-2.9 3.1c-1 1-1.8 1.4-2.4 1.4c-.4 0-.8 0-1.3-.1l-3.3-.7c-1.4-.3-2.3-.5-2.6-.6c-.3-.1-.5-.3-.5-.7c0-.5 .7-2 1.9-4.6c1.2-2.5 2.1-4.1 2.7-4.7c.4-.5 1.2-1.1 2.4-1.9c.7-.5 1.6-1.1 2.9-1.8l1.4-.8c0-.3-.1-.5-.1-.8c0-.3-.1-.5-.1-.7c0-.7 .2-1.6 .5-2.6c.3-1 .9-2.3 1.7-3.8Zm80.1-2.3l1.6 9.5c.6 3.6 1 6.7 1.2 9.4c.2 2 .3 4 .3 5.9c0 1.6-.2 3-.6 4.3c-.4 1.4-1.1 3.1-2.2 5.4l-1.6-.7c.4-2.3 .7-4.1 .7-5.6c0-1.1-.1-2.7-.3-4.8c-.2-2.1-.4-4.2-.7-6.3c-.2-2-.7-4.5-1.3-7.4c-.2-1-.3-1.6-.3-2c0-.6 .3-1.5 .8-2.9c.6-1.3 1.4-2.9 2.4-4.8Zm-113.8 0l1.6 9.5c.6 3.6 1.1 6.7 1.3 9.4c.2 2 .2 4 .2 5.9c0 1.6-.1 3-.5 4.3c-.4 1.4-1.1 3.1-2.2 5.4l-1.6-.7c.4-2.3 .6-4.1 .6-5.6c0-1.1 0-2.7-.2-4.8c-.2-2.1-.4-4.2-.7-6.3c-.3-2-.7-4.5-1.3-7.4c-.2-1-.3-1.6-.3-2c0-.6 .2-1.5 .8-2.9c.6-1.3 1.3-2.9 2.3-4.8Zm-67.9-2.1l1.2 .6c0 .1 0 .4-.1 .9c0 .6 .4 1.1 1.2 1.7c.6 .5 1.7 1.1 3.1 1.6c-.1 1.2-.4 2.3-.7 3.4c-.3 1.1-.6 2.1-1 2.9l-1-.3l2.9 16.6h3.4c1.6 0 2.9-.2 3.8-.6c1.3-.5 2.1-1.4 2.6-2.6c1-2.3 2.3-4.2 3.9-5.6c1.4-1.3 2.6-2 3.6-2c.9 0 2 1.4 3.4 4.2c1 2.1 1.7 4.2 2 6.1v.5h1.1c1.5 0 2.6-.1 3.1-.2c.7-.2 1.5-.5 2.5-1.1c-.6-1-1-1.8-1.4-2.3c-.5-.5-1-.8-1.5-.8c-.2 0-.4 .1-.6 .2c-.1 .1-.3 .4-.5 .8l-1.2-.2c0-3.2 .5-5.5 1.6-6.9c1.2-1.4 2.9-2.1 5.3-2.1c2.5 0 4.5 .5 5.9 1.5c1.5 .9 2.2 2.3 2.2 4c0 .9-.2 1.8-.6 2.6c-.4 .8-1.1 1.9-2.1 3.4c.2 .3 .6 .6 1 .8c.4 .2 .8 .3 1.2 .3H1309l-3.3-18.2l-1.7-1.2c0-1 .1-2.1 .5-3.2c.4-1.3 1.1-3 2.1-4.8l1.2 .6c0 .1 0 .4-.1 .9c0 .6 .4 1.1 1.1 1.7c.7 .5 1.7 1.1 3.2 1.6c-.2 1.2-.4 2.3-.7 3.4c-.3 1.1-.7 2.1-1.1 2.9l-1-.3l3 16.6v7.3h-16.9c-1.4 0-2.6-.3-3.7-.9c-1.1-.5-1.9-1.5-2.6-2.7c-1.2 1.4-2.7 2.4-4.6 3c-1.2 .4-2.5 .6-4 .6h-2.8V377l-.5-.1c-1.3-.2-2.7-.5-4.3-.9c-2.3-.7-4.2-1.4-6-2.3c-1 1.5-2.3 2.6-3.8 3c-.7 .3-1.7 .4-3 .4h-34.7c-.7 0-1.3-.1-1.8-.4c-1-.5-1.9-1.5-2.6-2.9c-1-1.9-1.6-4.5-1.9-7.7c-1.2 1.5-2.2 2.5-2.9 3.1c-.9 1-1.8 1.4-2.4 1.4c-.4 0-.8 0-1.3-.1l-3.3-.7c-1.4-.3-2.2-.5-2.6-.6c-.3-.1-.5-.3-.5-.7c0-.5 .7-2 1.9-4.6c1.3-2.5 2.2-4.1 2.7-4.7c.5-.5 1.3-1.1 2.4-1.9c.7-.5 1.6-1.1 2.9-1.8l1.4-.8c0-.3-.1-.5-.1-.8c0-.3 0-.5 0-.7c0-.7 .1-1.6 .4-2.6c.3-1 .9-2.3 1.7-3.8l2.6 16.7c.4 2.7 .9 4.4 1.6 5.4c.4 .6 1 .9 1.8 .9h15.8c-.2-1.2-.5-2.3-1-3.1c-.3-.5-.9-1.3-1.9-2.4l2.1-6.4c1.4 1.5 2.3 3.1 2.8 4.8c.4 1.4 .6 3.5 .7 6.2v.9h9.6l-3.2-18.2l-1.8-1.2c0-1 .2-2.1 .5-3.2c.4-1.3 1.1-3 2.1-4.8Zm100.1-5.5l4.8 2.5l-3 5l-3.8-2.1l-2.1 4.2l-5-2.7l2.8-4.7l3.9 1.9Zm-133.3 0l4.8 2.5l-3 5l-3.8-2.1l-2.1 4.2l-5-2.7l2.8-4.7l4 1.9Zm215.7-.1c.4 0 .6 .1 .8 .3c.2 .2 .3 .5 .3 .9c0 .3 0 .5-.1 .7c-.1 .2-.2 .5-.5 1c-.9-.5-1.5-.7-1.8-.7c-.3 0-.6 .1-1 .2c-.2 .1-.4 .3-.6 .5c0 .2 .5 .6 1.3 1c.9 .5 1.5 .8 1.9 .8c.2 0 .9-.2 1.9-.5c-.2 .6-.4 1-.7 1.2c-.2 .2-.5 .4-.9 .5l-5.8 1.8c.4-.7 .7-1.1 1-1.3c.2-.3 .7-.5 1.4-.7c-.5-.3-.9-.6-1.1-.9c-.2-.3-.3-.6-.3-.8c0-.2 0-.5 .2-.8c.1-.3 .3-.6 .6-.9c1.1-1.5 2.3-2.3 3.4-2.3Z" class="g1_58"/>
<path fill-rule="evenodd" d="M1173.9 344.9h5.1c2.7 3.9 4.8 8 6.3 12.3c1.5 4.3 2.2 8.7 2.2 13.1c0 3.7-.6 7.7-1.7 12c-1.4 4.8-3.6 9.6-6.7 14.2h-5.2c1.5-3.2 2.5-5.6 3.1-7.3c.7-1.7 1.2-3.7 1.7-5.9c.6-2.2 .9-4.3 1.2-6.3c.2-2 .4-4 .4-6.1c0-4.3-.5-8.3-1.4-12.1c-.9-3.8-2.6-8.4-5-13.9Z" class="g0_58"/>
<path d="M1173.9 344.9h5.1c2.7 3.9 4.8 8 6.3 12.3c1.5 4.3 2.2 8.7 2.2 13.1c0 3.7-.6 7.7-1.7 12c-1.4 4.8-3.6 9.6-6.7 14.2h-5.2c1.5-3.2 2.5-5.6 3.1-7.3c.7-1.7 1.2-3.7 1.7-5.9c.6-2.2 .9-4.3 1.2-6.3c.2-2 .4-4 .4-6.1c0-4.3-.5-8.3-1.4-12.1c-.9-3.8-2.6-8.4-5-13.9Z" class="g1_58"/>
<path fill-rule="evenodd" d="M1155.3 379.3l6.2 3.4l-3.2 6l-6.3-3.3ZM1141.4 358l1.5 1c-.4 .7-.7 1.4-1 2c-.3 .6-.5 1.1-.6 1.5c-.3 .8-.4 1.6-.4 2.4c0 1 .3 2 1 2.8c.6 .8 1.5 1.3 2.5 1.6c.7 .1 1.5 .3 2.5 .3c1 .1 2 .2 3.2 .2h19.4c-.5-1.4-.9-2.4-1.2-2.9c-.4-.7-1-1.6-1.9-2.6l2.4-6.3c1.4 2 2.3 3.7 2.7 5.3c.3 1.4 .5 3.5 .5 6.2v7.6h-22.5c-1.1 0-2 0-2.7 0c-.7-.1-1.3-.1-1.6-.1c-.7-.1-1.5-.3-2.3-.6c-1.5-.5-2.7-1.5-3.7-3c-.9-1.6-1.4-3.3-1.4-5.2c0-.8 .1-1.5 .2-2.3c.1-.8 .3-1.6 .6-2.5c.3-1.1 .8-2.1 1.3-2.9c.4-.9 1-1.7 1.5-2.5Z" class="g0_58"/>
<path d="M1155.3 379.3l6.2 3.4l-3.2 6l-6.3-3.3ZM1141.4 358l1.5 1c-.4 .7-.7 1.4-1 2c-.3 .6-.5 1.1-.6 1.5c-.3 .8-.4 1.6-.4 2.4c0 1 .3 2 1 2.8c.6 .8 1.5 1.3 2.5 1.6c.7 .1 1.5 .3 2.5 .3c1 .1 2 .2 3.2 .2h19.4c-.5-1.4-.9-2.4-1.2-2.9c-.4-.7-1-1.6-1.9-2.6l2.4-6.3c1.4 2 2.3 3.7 2.7 5.3c.3 1.4 .5 3.5 .5 6.2v7.6h-22.5c-1.1 0-2 0-2.7 0c-.7-.1-1.3-.1-1.6-.1c-.7-.1-1.5-.3-2.3-.6c-1.5-.5-2.7-1.5-3.7-3c-.9-1.6-1.4-3.3-1.4-5.2c0-.8 .1-1.5 .2-2.3c.1-.8 .3-1.6 .6-2.5c.3-1.1 .8-2.1 1.3-2.9c.4-.9 1-1.7 1.5-2.5Z" class="g1_58"/>
<path fill-rule="evenodd" d="M1129.3 344.9h5.2c-2.4 5.5-4.1 10.1-5.1 13.9c-.9 3.8-1.3 7.8-1.3 12.1c0 2.9 .2 5.9 .8 9c.5 3.1 1.3 6 2.2 8.8c.6 1.8 1.7 4.4 3.3 7.8h-5.2c-2.7-4.1-4.8-8.4-6.2-12.9c-1.4-4.4-2.2-8.7-2.2-12.9c0-5.2 .9-10.1 2.7-14.7c1.5-4 3.5-7.7 5.8-11.1Z" class="g0_58"/>
<path d="M1129.3 344.9h5.2c-2.4 5.5-4.1 10.1-5.1 13.9c-.9 3.8-1.3 7.8-1.3 12.1c0 2.9 .2 5.9 .8 9c.5 3.1 1.3 6 2.2 8.8c.6 1.8 1.7 4.4 3.3 7.8h-5.2c-2.7-4.1-4.8-8.4-6.2-12.9c-1.4-4.4-2.2-8.7-2.2-12.9c0-5.2 .9-10.1 2.7-14.7c1.5-4 3.5-7.7 5.8-11.1Z" class="g1_58"/>
<path fill-rule="evenodd" d="M1092.9 370.7c.9 0 1.7 .4 2.3 1c.7 .7 1 1.5 1 2.4c0 .9-.3 1.7-1 2.4c-.7 .6-1.4 .9-2.4 .9c-.9 0-1.6-.3-2.3-1c-.6-.6-.9-1.4-.9-2.3c0-.9 .3-1.7 1-2.4c.6-.6 1.4-1 2.3-1Zm.4-24.9c2.2 0 4 .6 5.5 1.9c1.5 1.2 2.3 2.8 2.3 4.8c0 1.1-.4 2.1-1 2.9c-.7 1-1.7 1.4-2.8 1.4c-.9 0-1.7-.2-2.2-.8c-.6-.6-.9-1.3-.9-2.1c0-1.2 .5-2.1 1.4-2.8c1-.6 1.5-1.1 1.5-1.5c0-.6-.3-1.1-.8-1.4c-.6-.4-1.4-.6-2.3-.6c-1.1 0-2.1 .3-2.8 1c-.8 .6-1.2 1.4-1.2 2.4c0 .9 .4 2 1.2 3.3c1.1 2.1 1.8 3.5 2.1 4.1c.7 1.8 1.1 3.9 1.1 6.1c0 1.1-.1 2.5-.3 3.9h-1.6c0-.3 0-.6 0-.7l.1-1.4c0-1-.6-2.1-1.9-3.3c-2.3-2-3.5-3.1-3.7-3.4c-1.4-1.6-2.1-3.4-2.1-5.4c0-2.4 .8-4.4 2.4-6c1.7-1.6 3.7-2.4 6-2.4Z" class="g0_58"/>
<path d="M1092.9 370.7c.9 0 1.7 .4 2.3 1c.7 .7 1 1.5 1 2.4c0 .9-.3 1.7-1 2.4c-.7 .6-1.4 .9-2.4 .9c-.9 0-1.6-.3-2.3-1c-.6-.6-.9-1.4-.9-2.3c0-.9 .3-1.7 1-2.4c.6-.6 1.4-1 2.3-1Zm.4-24.9c2.2 0 4 .6 5.5 1.9c1.5 1.2 2.3 2.8 2.3 4.8c0 1.1-.4 2.1-1 2.9c-.7 1-1.7 1.4-2.8 1.4c-.9 0-1.7-.2-2.2-.8c-.6-.6-.9-1.3-.9-2.1c0-1.2 .5-2.1 1.4-2.8c1-.6 1.5-1.1 1.5-1.5c0-.6-.3-1.1-.8-1.4c-.6-.4-1.4-.6-2.3-.6c-1.1 0-2.1 .3-2.8 1c-.8 .6-1.2 1.4-1.2 2.4c0 .9 .4 2 1.2 3.3c1.1 2.1 1.8 3.5 2.1 4.1c.7 1.8 1.1 3.9 1.1 6.1c0 1.1-.1 2.5-.3 3.9h-1.6c0-.3 0-.6 0-.7l.1-1.4c0-1-.6-2.1-1.9-3.3c-2.3-2-3.5-3.1-3.7-3.4c-1.4-1.6-2.1-3.4-2.1-5.4c0-2.4 .8-4.4 2.4-6c1.7-1.6 3.7-2.4 6-2.4Z" class="g1_58"/>
<image clip-path="url(#c1_58)" preserveAspectRatio="none" x="1344" y="457" width="108" height="72" href="img/2.jpg"/>
<image clip-path="url(#c2_58)" preserveAspectRatio="none" x="1347" y="550" width="102" height="71" href="img/3.jpg"/>
<image clip-path="url(#c3_58)" preserveAspectRatio="none" x="1347" y="642" width="102" height="74" href="img/4.jpg"/>
<image clip-path="url(#c4_58)" preserveAspectRatio="none" x="1353" y="745" width="96" height="80" href="img/5.jpg"/>
<image clip-path="url(#c5_58)" preserveAspectRatio="none" x="7" y="408" width="706" height="417" href="img/6.jpg"/>
</svg>