<svg viewBox="0 0 1466 825" version="1.1" xmlns="http://www.w3.org/2000/svg">
<defs>
<clipPath id="c0_8"><path d="M-.2 825.3V-.2H1467V825.3Z"/></clipPath>
<clipPath id="c1_8"><path d="M1343.9 529.1V456.4H1452v72.7Z"/></clipPath>
<clipPath id="c2_8"><path d="M1346.3 621.3V549.7h102.9v71.6Z"/></clipPath>
<clipPath id="c3_8"><path d="M1346.4 716.6V641.9h103v74.7Z"/></clipPath>
<clipPath id="c4_8"><path d="M1353 825V744.6h96.2V825Z"/></clipPath>
<clipPath id="c5_8"><path d="M.4 825.3V412.7H559.7V825.3Z"/></clipPath>
<style>
.g0_8{fill:#F00;}
.g1_8{fill:none;stroke:#000;stroke-width:1.466;stroke-linejoin:round;}
</style>
</defs>
<image clip-path="url(#c0_8)" preserveAspectRatio="none" x="0" y="-7" width="1467" height="840" href="img/1.jpg"/>
<path fill-rule="evenodd" d="M1025 357.6l5.5 2.9l-2.6 4.9l-5.5-2.8l-2.7 4.7l-5.5-2.9l2.7-5l5.4 2.8Zm181.7-11.7l8.4 4.5l-4.3 8l-8.4-4.4Zm-825.9-.3l8.4 4.4l-4.3 8l-8.4-4.3Zm589.4-.4l6.7 3.7l-3.7 6.9l-5.3-2.6l-3 5.8l-6.6-3.7l4-7.3l5.1 2.9ZM291.7 334.1c1.3 0 2.3 .5 3.1 1.3c.9 .9 1.3 2 1.3 3.2c0 1.2-.5 2.2-1.3 3.1c-.9 .9-2 1.3-3.2 1.3c-1.2 0-2.2-.4-3-1.3c-.9-.9-1.3-1.9-1.3-3.1c0-1.3 .4-2.3 1.3-3.2c.8-.8 1.9-1.3 3.1-1.3Zm1152.6-7.2c-.9 0-1.7 1-2.4 3.2c1.3 .4 2.2 .8 2.8 1c2 .8 3.1 1.1 3.3 1.1c.5 0 .8-.2 .8-.5c0-.5-.5-1.4-1.6-2.7c-1.1-1.4-2.1-2.1-2.9-2.1Zm-706.8 0c-.9 0-1.7 1-2.3 3.2c1.2 .4 2.2 .8 2.8 1c1.9 .8 3 1.1 3.2 1.1c.6 0 .8-.2 .8-.5c0-.5-.5-1.4-1.5-2.7c-1.1-1.4-2.1-2.1-3-2.1Zm-143.5 0c-.9 0-1.7 1-2.4 3.2c1.3 .4 2.2 .8 2.8 1c2 .8 3.1 1.1 3.3 1.1c.5 0 .8-.2 .8-.5c0-.5-.5-1.4-1.6-2.7c-1.1-1.4-2.1-2.1-2.9-2.1Zm-140.8 0c-.9 0-1.7 1-2.4 3.2c1.3 .4 2.2 .8 2.8 1c2 .8 3.1 1.1 3.3 1.1c.5 0 .8-.2 .8-.5c0-.5-.5-1.4-1.6-2.7c-1.1-1.4-2.1-2.1-2.9-2.1Zm906-1.2c-1.6 0-3.4 .5-5.4 1.6c-1.9 1-4.8 2.8-8.5 5.5h9.4c7.8 0 11.7-1.2 11.7-3.6c0-1.1-.8-2-2.5-2.6c-1.4-.6-3-.9-4.7-.9Zm-831.7-.2c-1.5 2.4-2.3 4.4-2.3 6c0 .8 .3 1.4 1 2c.6 .5 1.4 .8 2.2 .8c1.2 0 2.6-.3 4.2-.8c1.5-.6 2.3-1.1 2.3-1.5c0-.5-.8-1.4-2.5-2.8c-1.7-1.5-3.3-2.7-4.9-3.7ZM423 321.2c-.5 0-.9 .1-1.2 .5c-.4 .3-.6 .6-.6 1.1c0 1 .8 2 2.3 3c1.6 .9 3.4 1.6 5.5 1.9c-.8-2.1-1.8-3.6-2.8-4.8c-1.1-1.1-2.1-1.7-3.2-1.7Zm612.5-2c1.4 0 2.5 .5 3.3 1.6c.8 1.1 1.2 2.5 1.2 4.3c0 1.3-.1 2.4-.4 3.3c-.2 .9-.8 2-1.6 3.4c-.7-1.7-1.2-2.8-1.7-3.3c-.4-.5-1.1-.8-1.9-.8c-1.3 0-3.1 .7-5.3 2.2c-2.3 1.5-3.4 2.7-3.4 3.7c0 .5 .5 .9 1.4 1.1c.6 .2 1.6 .2 3 .2c.3 0 .7 0 1 0c.4 0 .7 0 1.1 0c2.6 0 4.3 .3 5.2 .8c.7 .4 1.1 1.3 1.1 2.6c0 2.6-.5 5.1-1.4 7.5c-1.2 2.9-3 5.1-5.2 6.3c-2.9 1.6-5.8 2.9-8.9 3.9c-3.1 1-5.9 1.5-8.6 1.5c-7.4 0-11.1-3.4-11.1-10c0-3.4 .4-6.3 1.2-8.7c1-2.8 2.9-6.4 6-11.1l1.6 1.1c-1.8 3-3.1 5.6-4 8c-.9 2.3-1.3 4.3-1.3 6c0 4.6 2.5 6.8 7.6 6.8c1.9 0 3.8-.2 5.5-.5c1.7-.3 3.4-.8 5.2-1.5c1.1-.4 2.5-.9 3.9-1.5c2.4-1.1 3.7-1.6 3.8-1.7c1.1-.6 1.6-1.1 1.6-1.6c0-.2-.6-.3-1.7-.4c-1.2-.1-2-.1-2.5-.1c-3.7 0-6.1-.5-7.4-1.6c-1-.8-1.5-2.4-1.5-4.7c0-1.1 .4-2.5 1.1-4.2c.7-1.6 1.6-3.3 2.8-4.9c1.7-2.6 3.5-4.5 5.2-5.7c1.7-1.3 3.4-2 5.1-2Zm-294.1-.7c1.2 0 2.7 1.8 4.5 5.5c1.9 3.9 2.8 7.5 2.8 10.7v7.8c-2.5 0-5.4-.5-8.8-1.4c-3-.9-5.6-1.9-7.9-3.1c-1.4 2.1-3.1 3.5-5.1 4.1c-1 .3-2.3 .5-4 .5h-4.6v.6c-.1 2.2-.4 4-.9 5.5c-.6 2-1.7 3.6-3.2 4.9c-1.4 1.2-3.6 2.2-6.4 3c-2.8 .7-5.8 1.1-8.8 1.1c-5.8 0-10.2-1-13.4-3.2c-3.1-2.1-4.7-5.1-4.7-9c0-3.3 .5-6.3 1.5-9.1c1.1-3 3.3-6.9 6.5-11.8l2.1 1.5c-2.3 4.1-3.9 7-4.6 8.8c-.7 1.8-1.1 3.7-1.1 5.6c0 2.5 1.3 4.6 4 6.2c2.7 1.6 6.2 2.4 10.6 2.4c4.3 0 7.9-.9 10.9-2.5c2.9-1.7 4.4-3.7 4.4-6.1c0-1.5-.3-2.9-.8-4.4c-.5-1.4-1.6-3.8-3.3-7l3.1-9.6c1.7 3 2.7 5.1 3.1 6.2c.6 1.9 1 4.1 1.1 6.8v.3h4.5c2.1 0 3.8-.2 5.1-.8c1.6-.6 2.8-1.8 3.4-3.4c1.3-3.1 3.1-5.6 5.2-7.5c1.9-1.8 3.5-2.6 4.8-2.6Zm43.5-.5c-.8 .4-1.4 .7-1.8 .9c-1.3 .7-2.4 1.3-3.2 1.9c-.5 .5-1 1-1.4 1.4c-.5 .5-.7 .9-.7 1.1c0 .4 .4 .6 1.2 .8c.9 .2 1.7 .3 2.5 .3c.5 0 1.1-.1 1.7-.4c.5-.3 1.3-.9 2.4-1.7ZM341 318c-.7 .4-1.3 .7-1.8 .9c-1.3 .7-2.3 1.3-3.1 1.9c-.6 .5-1.1 1-1.5 1.4c-.4 .5-.7 .9-.7 1.1c0 .4 .5 .6 1.3 .8c.8 .2 1.6 .3 2.5 .3c.5 0 1-.1 1.6-.4c.6-.3 1.4-.9 2.4-1.7Zm611.8-1c1.8 2 3 4.1 3.7 6.3c.6 2 .9 4.7 1 8.3v1.2h16.4c-.3-1.6-.8-3-1.5-4.1c-.3-.6-1.1-1.7-2.5-3.2l2.9-8.5c1.8 2 3 4.1 3.7 6.3c.6 2.3 1 5.6 1 9.9v9.4H935.1v-.1h-2.2c-4.3 0-8.2 .4-11.6 1.1c-3.3 .8-5 1.6-5 2.6c.9 2.9 1.7 5.5 2.5 8c.7 2.6 1.1 4.9 1.1 7.2c0 1.6-.2 2.9-.5 3.9c-.3 1-.9 2.1-1.8 3.3c-.3-3.2-.9-6.5-1.8-9.9c-.3-1.2-1.1-3.8-2.3-7.7c-.8-2.4-1.2-4-1.2-4.8c0-1.1 .4-2.5 1-4.2c.5-1.4 1.1-2.6 1.7-3.6c.8-1.2 2.1-2.2 4-2.9c1.9-.6 4.8-1.2 8.7-1.6c-1.9-2.7-3.6-4.1-5-4.1c-.7 0-1.3 .3-1.8 .8c-.5 .5-1.4 1.5-2.7 3.1l-1.7-.8c1.1-3.7 2.4-6.5 3.9-8.5c1.5-1.9 3.2-2.9 5.1-2.9c1.6 0 3.3 .9 5.3 2.7c2 1.9 4.2 4.7 6.8 8.6h16.3c-.3-1.6-.7-3-1.4-4.1c-.4-.6-1.2-1.7-2.5-3.2Zm-66.7 0c1.8 2 3 4.1 3.7 6.3c.6 2.3 .9 5.6 .9 9.9v9.4H870.8v.8c0 1.5-.8 3.4-2.5 5.8c-1.6 2.4-3.6 4.5-5.8 6.2c-2.5 2-4.6 3-6.4 3c-2.1 0-4.4-.6-6.8-1.8c-2.1-1.1-5.4-3.1-9.8-6.2l1.5-2.2c2.1 1.4 3.9 2.4 5.2 2.9c1.3 .5 2.7 .7 4.2 .7c1.7 0 3.3-.4 5-1.4c1.6-.9 3.9-2.6 6.7-5.2c4-3.5 6-6.2 6-8.1c0-1-.4-2.2-1.2-3.8c-.8-1.7-1.9-3.2-3.1-4.4l2-9.6c1.6 1.6 2.8 3.6 3.7 5.7c.9 2.2 1.3 4.7 1.3 7.4v.4h16.4c-.3-1.6-.8-3-1.5-4.1c-.3-.6-1.2-1.7-2.5-3.2Zm254.4-1.3c1.7 0 3.2 .3 4.5 1.1c1.3 .7 2.7 2 4.2 3.8l-4.8 8c-1.1-1.3-2.2-2.2-3.2-2.8c-.9-.6-1.9-.9-2.8-.9c-.7 0-1.4 .2-1.9 .6c-.6 .5-.9 .9-.9 1.5c0 .8 .5 1.5 1.5 2.4c1 .8 2.6 1.8 5 3c3-1.4 5.3-2.3 6.8-2.7c1.5-.5 3.4-.8 5.9-1l-2.9 8.2c-3.7 1-6.7 2-9.1 3.1c-2.2 1.1-4.2 2.5-6 4.1c-1.2 1.1-3 2.9-5.3 5.6l-2.2-.8c0-1.6 .5-3.2 1.3-4.8c.6-1.2 1.7-2.8 3.3-4.9c-2.3-2.2-3.8-3.8-4.5-4.9c-.7-1-1.1-2-1.1-3c0-1.3 1-3.7 2.8-7c1.8-3.3 3.4-5.6 4.7-6.8c1.4-1.2 2.9-1.8 4.7-1.8ZM527.2 315l3.5 2.1c1.5 .9 3 1.9 4.3 3c2 1.5 3.3 2.9 4.1 4.2c.7 1.3 1.1 2.9 1.1 4.8c0 1.5-.1 2.9-.3 4.4c-.3 1.4-.6 2.7-.9 3.6c-.7 1.8-2.3 3.4-5 4.8c-2.4 1.3-4.7 1.9-6.8 1.9c-1.9 0-3.4-.6-4.5-1.9c-1.1-1.3-1.6-3-1.6-5.2c0-1.9 .3-3.8 .8-5.7c.6-1.9 1.6-4.3 3-7.2l-1.3-.8c.5-1.1 1-2.5 1.7-4c.7-1.6 1.3-2.9 1.9-4Zm171.1-6.8l8.3 4.4l-4.3 8.1l-8.4-4.4Zm481.6-6l8.3 4.5l-4.3 8l-8.4-4.4Zm-319.2 0l8.3 4.5l-4.3 8l-8.4-4.4Zm-73.8-.1l3.4 22.4c.6 3.5 1.3 5.9 2.2 7.1c.5 .8 1.3 1.2 2.3 1.2h6.1c.7 0 1.2 0 1.5 0c.7-.1 1.4-.2 2.1-.2c-1.2-1.8-2-3.3-2.4-4.4c-.4-1.1-.6-2.3-.6-3.7c0-3.6 1.5-6.7 4.4-9.3c3-2.7 6.4-4 10.4-4c2.6 0 5.2 .8 7.6 2.6c2.2 1.6 3.8 3.6 4.8 5.9l-1.5 1.3c-1.8-.7-3.3-1.2-4.5-1.4c-1.1-.2-2.4-.3-4.1-.3c-2.9 0-5.5 .2-7.7 .7c-2.7 .6-4.1 1.4-4.1 2.5c0 1.7 3.3 4.4 10 8.2l18.2-5.2l-4 10.2c-6.5 1.9-11.8 3.5-16 4.5c-3.6 1-6.7 1.6-9.2 2c-1.9 .2-3.7 .4-5.6 .4h-5.4c-.8 0-1.6-.2-2.3-.6c-1.4-.7-2.6-1.9-3.5-3.8c-1.3-2.5-2.2-6-2.5-10.4c-1.7 2-2.9 3.5-3.8 4.3c-1.4 1.2-2.5 1.8-3.3 1.8c-.5 0-1.1 0-1.8-.2l-4.3-.8c-1.9-.4-3-.7-3.5-.9c-.4-.1-.6-.4-.6-.9c0-.6 .8-2.6 2.5-6.1c1.6-3.4 2.8-5.5 3.6-6.3c.6-.7 1.6-1.5 3.2-2.5c.9-.7 2.2-1.4 3.8-2.4l1.9-1.1c0-.4-.1-.7-.1-1c-.1-.4-.1-.7-.1-1c0-.9 .2-2.1 .6-3.5c.5-1.3 1.2-3 2.3-5.1Zm-494.6-1.2c2.8 0 5.3 .8 7.3 2.4c2 1.7 3 3.8 3 6.5c0 1.4-.4 2.8-1.3 3.9c-1 1.2-2.2 1.9-3.8 1.9c-1.2 0-2.1-.4-2.9-1.2c-.8-.8-1.2-1.7-1.2-2.8c0-1.6 .6-2.8 2-3.6c1.3-.8 1.9-1.5 1.9-2c0-.8-.4-1.5-1.1-2c-.8-.5-1.8-.8-3-.8c-1.6 0-2.9 .5-3.8 1.4c-1 .8-1.5 1.9-1.5 3.2c0 1.1 .5 2.6 1.5 4.4c1.5 2.8 2.4 4.6 2.8 5.4c1 2.5 1.5 5.2 1.5 8.1c0 1.6-.2 3.4-.4 5.3h-2.2c0-.4 0-.8 .1-1l.1-1.9c0-1.3-.8-2.8-2.6-4.3c-3-2.7-4.7-4.2-4.9-4.5c-1.8-2.2-2.7-4.6-2.7-7.2c0-3.2 1-5.9 3.2-8c2.1-2.1 4.8-3.2 8-3.2Zm657.9-.3l6.7 3.7l-3.7 6.9l-5.3-2.6l-3 5.8l-6.5-3.7l3.9-7.3l5.1 2.9Zm-332.2 0l6.5 3.7l-3.9 7.3l-5.1-2.9l-2.9 5.7l-6.6-3.7l3.7-6.9l5.3 2.6Zm264.6-1.5l8.4 4.5l-4.3 8l-8.4-4.4Zm530 0c1.4 1.9 2.4 3.8 2.9 5.6c.7 2.2 1 5 1 8.4v7c0 5 .3 8.5 1 10.4c.5 1.5 1.3 2.3 2.5 2.3h9.6c2.2 0 3.9-.2 5.2-.8c1.6-.6 2.7-1.8 3.3-3.4c1.4-3.1 3.1-5.6 5.3-7.5c1.8-1.8 3.4-2.6 4.8-2.6c1.2 0 2.7 1.8 4.5 5.5c1.8 3.9 2.8 7.5 2.8 10.7v7.8c-2.5 0-5.5-.5-8.9-1.4c-2.9-.9-5.6-1.9-7.8-3.1c-1.4 2.1-3.1 3.5-5.1 4.1c-1 .3-2.4 .5-4.1 .5H1420c-2.8 0-4.8-1.2-6.1-3.5c-1.3-2.5-2-6.8-2-12.8V316.1c0-2.3-.4-4.1-1-5.4c-.3-.6-1-1.5-2.2-2.7Zm-31.9 0l2.1 12.7c.8 4.8 1.4 9 1.7 12.5c.2 2.7 .3 5.3 .3 7.8c0 2.2-.2 4.1-.7 5.9c-.5 1.7-1.5 4.1-2.9 7l-2.2-.8c.6-3.1 .9-5.6 .9-7.5c0-1.4-.1-3.6-.4-6.4c-.2-2.8-.5-5.6-.9-8.3c-.3-2.8-.9-6.1-1.7-9.9c-.3-1.4-.4-2.3-.4-2.8c0-.7 .3-2 1.1-3.7c.7-1.8 1.8-4 3.1-6.5Zm-126 0l2.1 12.7c.8 4.8 1.3 9 1.7 12.5c.2 2.7 .3 5.3 .3 7.8c0 2.2-.2 4.1-.7 5.9c-.5 1.7-1.5 4.1-2.9 7l-2.2-.8c.6-3.1 .9-5.6 .9-7.5c0-1.4-.1-3.6-.4-6.4c-.2-2.8-.5-5.6-.9-8.3c-.3-2.8-.9-6.1-1.7-9.9c-.3-1.4-.5-2.3-.5-2.8c0-.7 .4-2 1.1-3.7c.8-1.8 1.8-4 3.2-6.5Zm-158.1 0l2.2 12.7c.8 4.8 1.3 9 1.6 12.5c.3 2.7 .4 5.3 .4 7.8c0 2.2-.3 4.1-.8 5.9c-.5 1.7-1.4 4.1-2.9 7l-2.1-.8c.6-3.1 .8-5.6 .8-7.5c0-1.4-.1-3.6-.3-6.4c-.3-2.8-.6-5.6-.9-8.3c-.4-2.8-1-6.1-1.8-9.9c-.3-1.4-.4-2.3-.4-2.8c0-.7 .4-2 1.1-3.7c.8-1.8 1.8-4 3.1-6.5Zm-445.1 0l2.1 12.7c.8 4.8 1.4 9 1.7 12.5c.2 2.7 .3 5.3 .3 7.8c0 2.2-.2 4.1-.7 5.9c-.5 1.7-1.5 4.1-2.9 7l-2.1-.8c.5-3.1 .8-5.6 .8-7.5c0-1.4-.1-3.6-.4-6.4c-.2-2.8-.5-5.6-.8-8.3c-.4-2.8-1-6.1-1.8-9.9c-.3-1.4-.4-2.3-.4-2.8c0-.7 .3-2 1.1-3.7c.7-1.8 1.8-4 3.1-6.5Zm-160.8 0l2.2 12.7c.8 4.8 1.3 9 1.6 12.5c.2 2.7 .4 5.3 .4 7.8c0 2.2-.3 4.1-.8 5.9c-.5 1.7-1.5 4.1-2.9 7l-2.1-.8c.5-3.1 .8-5.6 .8-7.5c0-1.4-.1-3.6-.3-6.4c-.3-2.8-.6-5.6-.9-8.3c-.4-2.8-1-6.1-1.8-9.9c-.3-1.4-.4-2.3-.4-2.8c0-.7 .4-2 1.1-3.7c.7-1.8 1.8-4 3.1-6.5Zm41.2-2l6.5 3.6l-3.9 7.3l-5.1-2.8l-2.9 5.6l-6.6-3.6l3.7-7l5.3 2.7Zm775.7-.8l1.7 .8c-.1 .4-.2 .7-.2 1.2c0 .9 .5 1.7 1.5 2.3c1.4 .8 2.8 1.6 4.1 2.3c-.3 2.1-.5 3.5-.8 4.4c-.3 .9-.8 2.2-1.6 4l-1.1-.4c0 .3 .3 2.4 1 6.1c.7 3.7 1.3 6.9 1.7 9.6c.6 2.9 .9 4.9 1 6.1v.1h2.6c2.7 0 4.9-.7 6.3-2.1c1.7-1.6 2.7-4.4 3.2-8.4l2.4 .4c0 .9-.1 1.5-.1 2.1c-.1 1.5-.1 2.8-.1 3.8c0 1.3 .3 2.4 1 3.1c.7 .8 1.7 1.1 2.9 1.1c1.1 0 2.2-.2 3.2-.7c1-.5 2.6-1.5 4.7-3l12.8-9.1c1.5-1.1 2.6-1.9 3.4-2.3c1.7-1.1 3.4-1.6 5-1.6c2.7 0 4.9 .9 6.4 2.8c1.9 2.2 2.8 5.5 2.8 10v13.7h-37.9c-1.7 0-3-.5-4-1.3c-1.1-.9-1.9-2.2-2.6-4.1c-1.6 2.1-3 3.5-4.4 4.3c-1.3 .7-2.9 1-5 1h-2.6v.5c-.5 3.1-2.3 6-5.7 8.5c-3.8 2.8-8.2 4.2-13 4.2c-4.1 0-7.3-1-9.6-3.1c-2.3-2.1-3.5-4.9-3.5-8.6c0-3.5 .4-6.5 1.3-9.1c1-2.9 2.9-6.5 5.7-10.7l2.3 1.5c-1.9 2.8-3.2 5.2-4 7.3c-.8 2-1.2 4.1-1.2 6.1c0 2.2 .8 3.8 2.4 5c1.6 1.2 3.9 1.8 6.8 1.8c4.2 0 7.7-.8 10.3-2.4c2.6-1.7 3.9-3.8 3.9-6.4c0-.5 0-.8 0-1.1c0-.3 0-.5 0-.6c0-.9-.1-1.9-.2-3.1c-.2-1.1-.6-3.4-1.2-6.9c-1-5.7-2.1-11.4-3.1-17l-1.8-1.3c0-2.4 1.1-5.9 3.3-10.8Zm-69.6 0l1.7 .8c0 .2-.1 .6-.2 1.2c0 .8 .5 1.5 1.5 2.3c.9 .6 2.3 1.4 4.3 2.2c-.2 1.5-.6 3-1 4.5c-.4 1.4-.9 2.7-1.4 3.9l-1.3-.5l3.9 22.1v9.8H1190v.8c0 1.5-.8 3.4-2.5 5.8c-1.7 2.4-3.6 4.5-5.9 6.2c-2.4 2-4.6 3-6.3 3c-2.1 0-4.4-.6-6.8-1.8c-2.1-1.1-5.4-3.1-9.8-6.2l1.5-2.2c2.1 1.4 3.8 2.4 5.2 2.9c1.3 .5 2.7 .7 4.2 .7c1.7 0 3.3-.4 5-1.4c1.6-.9 3.9-2.6 6.7-5.2c3.9-3.5 5.9-6.2 5.9-8.1c0-1-.3-2.2-1.1-3.8c-.9-1.7-1.9-3.2-3.2-4.4l2-9.6c1.7 1.6 2.9 3.6 3.8 5.7c.9 2.2 1.3 4.7 1.3 7.4v.4h23c-2.9-3-5.6-5.1-8.1-6.4c-2.1-1.2-4.2-1.8-6.3-1.8c-.6 0-1.2 .1-1.7 .1c-.5 .1-1.3 .2-2.3 .4c1.3-3 2.8-5.2 4.4-6.6c1.6-1.5 3.5-2.2 5.5-2.2c1.6 0 3.1 .4 4.6 1.2c1.4 .7 3.1 2 4.9 3.7c1.4 1.3 3.4 3.4 6.1 6.2c1.8 2 3.1 3.3 4.1 3.9c.9 .6 2.3 1.1 4.2 1.5h12.8l-4.3-24.3l-2.3-1.5c0-1.4 .2-2.8 .6-4.3c.6-1.8 1.5-3.9 2.8-6.4Zm-158 0l1.7 .8c0 .2-.1 .6-.2 1.2c0 .8 .5 1.5 1.5 2.3c.9 .6 2.3 1.4 4.2 2.2c-.2 1.5-.5 3-.9 4.5c-.4 1.4-.9 2.7-1.4 3.9l-1.3-.5l3.9 22.1v9.8h-33.4c-1.6 0-2.8-.4-3.6-1c-1-.8-1.6-2.2-1.6-4c0-1.1 .1-2.2 .2-3.4c.1-1.2 .3-2.5 .5-3.7l1.3-.1c.2 .9 .7 1.5 1.3 1.8c.7 .4 1.5 .6 2.4 .6h12.3c-.5-3.5-1.5-6.3-2.8-8.4c-1.2-1.7-2.7-3.2-4.7-4.5l2.5-11.2c3.1 2.3 5.3 5.3 6.6 9c1.2 3.3 1.8 7.8 1.8 13.4v1.7h12.9l-4.3-24.3l-2.3-1.5c0-1.4 .2-2.8 .6-4.3c.6-1.8 1.5-3.9 2.8-6.4Zm-445.1 0l1.6 .8c0 .2 0 .6-.1 1.2c0 .8 .5 1.5 1.5 2.3c.9 .6 2.3 1.4 4.2 2.2c-.2 1.5-.5 3-1 4.5c-.4 1.4-.8 2.7-1.4 3.9l-1.2-.5l3.9 22.1v9.8H602.7v-.2l-.5-.1c-1.8-.2-3.7-.6-5.9-1.2c-2.9-.9-5.6-1.9-7.8-3.1c-1.4 2.1-3.1 3.5-5.1 4.1c-1 .3-2.4 .5-4.1 .5h-4.5v.8c0 1.5-.9 3.4-2.5 5.8c-1.7 2.4-3.7 4.5-5.9 6.2c-2.5 2-4.6 3-6.4 3c-2.1 0-4.3-.6-6.8-1.8c-2.1-1.1-5.3-3.1-9.8-6.2l1.5-2.2c2.2 1.4 3.9 2.4 5.2 2.9c1.3 .5 2.7 .7 4.3 .7c1.6 0 3.2-.4 4.9-1.4c1.6-.9 3.9-2.6 6.7-5.2c4-3.5 6-6.2 6-8.1c0-1-.4-2.2-1.2-3.8c-.8-1.7-1.9-3.2-3.1-4.4l2-9.6c1.6 1.6 2.9 3.6 3.7 5.7c.9 2.2 1.4 4.7 1.4 7.4v.4h4.5c2.2 0 3.9-.2 5.2-.8c1.6-.6 2.7-1.8 3.3-3.4c1.4-3.1 3.1-5.6 5.3-7.5c1.8-1.8 3.4-2.6 4.8-2.6c1.2 0 2.7 1.8 4.5 5.5c1.4 2.9 2.2 5.6 2.6 8.2v.6h16.5c-.2-1.6-.7-3-1.4-4.1c-.4-.6-1.2-1.7-2.5-3.2l2.8-8.5c1.8 2 3.1 4.1 3.7 6.3c.6 2 .9 4.7 1 8.3v1.2h13l-4.4-24.3l-2.3-1.5c0-1.4 .2-2.8 .7-4.3c.5-1.8 1.5-3.9 2.8-6.4Zm-160.8 0l1.6 .8c0 .2 0 .6-.1 1.2c0 .8 .5 1.5 1.5 2.3c.9 .6 2.3 1.4 4.2 2.2c-.2 1.5-.5 3-.9 4.5c-.4 1.4-.9 2.7-1.4 3.9l-1.3-.5l3.9 22.1v9.8H461.9v-.2l-.5-.1c-1.8-.2-3.7-.6-5.9-1.2c-2.9-.9-5.6-1.9-7.8-3.1c-1.4 2.1-3.1 3.5-5.1 4.1c-1 .3-2.4 .5-4.1 .5H405.1c-2.8 0-4.9-1.2-6.1-3.5c-1.4-2.5-2.1-6.8-2.1-12.8V316.1c0-2.3-.3-4.1-.9-5.4c-.4-.6-1.1-1.5-2.2-2.7l3.9-8.9c1.4 1.9 2.3 3.8 2.9 5.6c.6 2.2 .9 5 .9 8.4v7c0 5 .4 8.5 1.1 10.4c.5 1.5 1.3 2.3 2.5 2.3h9c1.1 0 2.1 .1 3.1 .2c2.6 .3 5.6 .6 9 .9c-3.6-.8-6.1-1.8-7.5-3.1c-1.4-1.3-2.1-3.2-2.1-5.7c0-3.7 .8-7 2.5-10c1.7-3 3.7-4.4 5.8-4.4c2.4 0 4.5 2.1 6.3 6.2c1.8 4.2 2.7 9.2 2.7 15.1v.8h4.6c2.2 0 3.9-.2 5.2-.8c1.6-.6 2.7-1.8 3.3-3.4c1.4-3.1 3.1-5.6 5.3-7.5c1.8-1.8 3.4-2.6 4.8-2.6c1.2 0 2.7 1.8 4.5 5.5c1.4 2.9 2.2 5.6 2.6 8.2v.6h13.1l-4.4-24.3l-2.3-1.5c0-1.4 .3-2.8 .7-4.3c.5-1.8 1.5-3.9 2.8-6.4Zm-108.7 0l1.6 .8c0 .2 0 .6-.1 1.2c0 .8 .5 1.5 1.5 2.3c.9 .6 2.3 1.4 4.2 2.2c-.2 1.5-.5 3-1 4.5c-.4 1.4-.8 2.7-1.4 3.9l-1.2-.5l3.9 22.1h16.3c-.2-1.6-.7-3-1.4-4.1c-.4-.6-1.2-1.7-2.5-3.2l2.8-8.5c1.9 2 3.1 4.1 3.7 6.3c.7 2.3 1 5.6 1 9.9v9.4H351c-.9 0-1.7-.2-2.4-.6c-1.4-.7-2.5-1.9-3.5-3.8c-1.3-2.5-2.1-6-2.5-10.4c-1.6 2-2.9 3.5-3.8 4.3c-1.3 1.2-2.4 1.8-3.3 1.8c-.4 0-1 0-1.7-.2l-4.4-.8c-1.8-.4-3-.7-3.4-.9c-.4-.1-.7-.4-.7-.9c0-.6 .9-2.6 2.5-6.1c1.7-3.4 2.9-5.5 3.6-6.3c.6-.7 1.7-1.5 3.2-2.5c.9-.7 2.2-1.4 3.9-2.4l1.9-1.1c-.1-.4-.1-.7-.2-1c0-.4 0-.7 0-1c0-.9 .2-2.1 .6-3.5c.4-1.3 1.2-3 2.2-5.1l3.5 22.4c.5 3.5 1.2 5.9 2.1 7.1c.6 .8 1.4 1.2 2.4 1.2h17.6l-4.4-24.3l-2.3-1.5c0-1.4 .2-2.8 .7-4.3c.5-1.8 1.5-3.9 2.8-6.4Zm57.4-.5l6.7 3.7l-3.8 6.9l-5.3-2.6l-3 5.8l-6.5-3.7l3.9-7.3l5.1 2.9Zm188.1-3.4l6.7 3.4l-3.6 7.4l-6.7-3.5Zm444.9-1.3l8.4 4.4l-4.3 8l-8.4-4.3ZM341 289l6.4 3.4l-3.9 6.6l-5.1-2.8l-2.9 5.6l-6.6-3.6l3.7-6.3l5.3 2.6Zm1040.8-.2c.5 0 .9 .2 1.1 .5c.3 .3 .4 .7 .4 1.1c0 .4 0 .7-.1 1c-.1 .3-.4 .7-.7 1.2c-1.2-.5-2-.8-2.4-.8c-.5 0-.9 .1-1.3 .3c-.3 .1-.6 .3-.8 .5c0 .4 .6 .8 1.7 1.5c1.2 .6 2 .9 2.5 .9c.3 0 1.2-.1 2.6-.5c-.3 .7-.6 1.2-1 1.6c-.2 .2-.6 .5-1.2 .6l-7.7 2.4c.5-.9 .9-1.5 1.2-1.8c.4-.3 1-.6 2-.8c-.7-.5-1.2-.9-1.5-1.3c-.3-.3-.4-.7-.4-1c0-.4 .1-.7 .3-1.1c.2-.4 .4-.8 .7-1.2c1.6-2 3.1-3.1 4.6-3.1Z" class="g0_8"/>
<path d="M1025 357.6l5.5 2.9l-2.6 4.9l-5.5-2.8l-2.7 4.7l-5.5-2.9l2.7-5l5.4 2.8Zm181.7-11.7l8.4 4.5l-4.3 8l-8.4-4.4Zm-825.9-.3l8.4 4.4l-4.3 8l-8.4-4.3Zm589.4-.4l6.7 3.7l-3.7 6.9l-5.3-2.6l-3 5.8l-6.6-3.7l4-7.3l5.1 2.9ZM291.7 334.1c1.3 0 2.3 .5 3.1 1.3c.9 .9 1.3 2 1.3 3.2c0 1.2-.5 2.2-1.3 3.1c-.9 .9-2 1.3-3.2 1.3c-1.2 0-2.2-.4-3-1.3c-.9-.9-1.3-1.9-1.3-3.1c0-1.3 .4-2.3 1.3-3.2c.8-.8 1.9-1.3 3.1-1.3Zm1152.6-7.2c-.9 0-1.7 1-2.4 3.2c1.3 .4 2.2 .8 2.8 1c2 .8 3.1 1.1 3.3 1.1c.5 0 .8-.2 .8-.5c0-.5-.5-1.4-1.6-2.7c-1.1-1.4-2.1-2.1-2.9-2.1Zm-706.8 0c-.9 0-1.7 1-2.3 3.2c1.2 .4 2.2 .8 2.8 1c1.9 .8 3 1.1 3.2 1.1c.6 0 .8-.2 .8-.5c0-.5-.5-1.4-1.5-2.7c-1.1-1.4-2.1-2.1-3-2.1Zm-143.5 0c-.9 0-1.7 1-2.4 3.2c1.3 .4 2.2 .8 2.8 1c2 .8 3.1 1.1 3.3 1.1c.5 0 .8-.2 .8-.5c0-.5-.5-1.4-1.6-2.7c-1.1-1.4-2.1-2.1-2.9-2.1Zm-140.8 0c-.9 0-1.7 1-2.4 3.2c1.3 .4 2.2 .8 2.8 1c2 .8 3.1 1.1 3.3 1.1c.5 0 .8-.2 .8-.5c0-.5-.5-1.4-1.6-2.7c-1.1-1.4-2.1-2.1-2.9-2.1Zm906-1.2c-1.6 0-3.4 .5-5.4 1.6c-1.9 1-4.8 2.8-8.5 5.5h9.4c7.8 0 11.7-1.2 11.7-3.6c0-1.1-.8-2-2.5-2.6c-1.4-.6-3-.9-4.7-.9Zm-831.7-.2c-1.5 2.4-2.3 4.4-2.3 6c0 .8 .3 1.4 1 2c.6 .5 1.4 .8 2.2 .8c1.2 0 2.6-.3 4.2-.8c1.5-.6 2.3-1.1 2.3-1.5c0-.5-.8-1.4-2.5-2.8c-1.7-1.5-3.3-2.7-4.9-3.7ZM423 321.2c-.5 0-.9 .1-1.2 .5c-.4 .3-.6 .6-.6 1.1c0 1 .8 2 2.3 3c1.6 .9 3.4 1.6 5.5 1.9c-.8-2.1-1.8-3.6-2.8-4.8c-1.1-1.1-2.1-1.7-3.2-1.7Zm612.5-2c1.4 0 2.5 .5 3.3 1.6c.8 1.1 1.2 2.5 1.2 4.3c0 1.3-.1 2.4-.4 3.3c-.2 .9-.8 2-1.6 3.4c-.7-1.7-1.2-2.8-1.7-3.3c-.4-.5-1.1-.8-1.9-.8c-1.3 0-3.1 .7-5.3 2.2c-2.3 1.5-3.4 2.7-3.4 3.7c0 .5 .5 .9 1.4 1.1c.6 .2 1.6 .2 3 .2c.3 0 .7 0 1 0c.4 0 .7 0 1.1 0c2.6 0 4.3 .3 5.2 .8c.7 .4 1.1 1.3 1.1 2.6c0 2.6-.5 5.1-1.4 7.5c-1.2 2.9-3 5.1-5.2 6.3c-2.9 1.6-5.8 2.9-8.9 3.9c-3.1 1-5.9 1.5-8.6 1.5c-7.4 0-11.1-3.4-11.1-10c0-3.4 .4-6.3 1.2-8.7c1-2.8 2.9-6.4 6-11.1l1.6 1.1c-1.8 3-3.1 5.6-4 8c-.9 2.3-1.3 4.3-1.3 6c0 4.6 2.5 6.8 7.6 6.8c1.9 0 3.8-.2 5.5-.5c1.7-.3 3.4-.8 5.2-1.5c1.1-.4 2.5-.9 3.9-1.5c2.4-1.1 3.7-1.6 3.8-1.7c1.1-.6 1.6-1.1 1.6-1.6c0-.2-.6-.3-1.7-.4c-1.2-.1-2-.1-2.5-.1c-3.7 0-6.1-.5-7.4-1.6c-1-.8-1.5-2.4-1.5-4.7c0-1.1 .4-2.5 1.1-4.2c.7-1.6 1.6-3.3 2.8-4.9c1.7-2.6 3.5-4.5 5.2-5.7c1.7-1.3 3.4-2 5.1-2Zm-294.1-.7c1.2 0 2.7 1.8 4.5 5.5c1.9 3.9 2.8 7.5 2.8 10.7v7.8c-2.5 0-5.4-.5-8.8-1.4c-3-.9-5.6-1.9-7.9-3.1c-1.4 2.1-3.1 3.5-5.1 4.1c-1 .3-2.3 .5-4 .5h-4.6v.6c-.1 2.2-.4 4-.9 5.5c-.6 2-1.7 3.6-3.2 4.9c-1.4 1.2-3.6 2.2-6.4 3c-2.8 .7-5.8 1.1-8.8 1.1c-5.8 0-10.2-1-13.4-3.2c-3.1-2.1-4.7-5.1-4.7-9c0-3.3 .5-6.3 1.5-9.1c1.1-3 3.3-6.9 6.5-11.8l2.1 1.5c-2.3 4.1-3.9 7-4.6 8.8c-.7 1.8-1.1 3.7-1.1 5.6c0 2.5 1.3 4.6 4 6.2c2.7 1.6 6.2 2.4 10.6 2.4c4.3 0 7.9-.9 10.9-2.5c2.9-1.7 4.4-3.7 4.4-6.1c0-1.5-.3-2.9-.8-4.4c-.5-1.4-1.6-3.8-3.3-7l3.1-9.6c1.7 3 2.7 5.1 3.1 6.2c.6 1.9 1 4.1 1.1 6.8v.3h4.5c2.1 0 3.8-.2 5.1-.8c1.6-.6 2.8-1.8 3.4-3.4c1.3-3.1 3.1-5.6 5.2-7.5c1.9-1.8 3.5-2.6 4.8-2.6Zm43.5-.5c-.8 .4-1.4 .7-1.8 .9c-1.3 .7-2.4 1.3-3.2 1.9c-.5 .5-1 1-1.4 1.4c-.5 .5-.7 .9-.7 1.1c0 .4 .4 .6 1.2 .8c.9 .2 1.7 .3 2.5 .3c.5 0 1.1-.1 1.7-.4c.5-.3 1.3-.9 2.4-1.7ZM341 318c-.7 .4-1.3 .7-1.8 .9c-1.3 .7-2.3 1.3-3.1 1.9c-.6 .5-1.1 1-1.5 1.4c-.4 .5-.7 .9-.7 1.1c0 .4 .5 .6 1.3 .8c.8 .2 1.6 .3 2.5 .3c.5 0 1-.1 1.6-.4c.6-.3 1.4-.9 2.4-1.7Zm611.8-1c1.8 2 3 4.1 3.7 6.3c.6 2 .9 4.7 1 8.3v1.2h16.4c-.3-1.6-.8-3-1.5-4.1c-.3-.6-1.1-1.7-2.5-3.2l2.9-8.5c1.8 2 3 4.1 3.7 6.3c.6 2.3 1 5.6 1 9.9v9.4H935.1v-.1h-2.2c-4.3 0-8.2 .4-11.6 1.1c-3.3 .8-5 1.6-5 2.6c.9 2.9 1.7 5.5 2.5 8c.7 2.6 1.1 4.9 1.1 7.2c0 1.6-.2 2.9-.5 3.9c-.3 1-.9 2.1-1.8 3.3c-.3-3.2-.9-6.5-1.8-9.9c-.3-1.2-1.1-3.8-2.3-7.7c-.8-2.4-1.2-4-1.2-4.8c0-1.1 .4-2.5 1-4.2c.5-1.4 1.1-2.6 1.7-3.6c.8-1.2 2.1-2.2 4-2.9c1.9-.6 4.8-1.2 8.7-1.6c-1.9-2.7-3.6-4.1-5-4.1c-.7 0-1.3 .3-1.8 .8c-.5 .5-1.4 1.5-2.7 3.1l-1.7-.8c1.1-3.7 2.4-6.5 3.9-8.5c1.5-1.9 3.2-2.9 5.1-2.9c1.6 0 3.3 .9 5.3 2.7c2 1.9 4.2 4.7 6.8 8.6h16.3c-.3-1.6-.7-3-1.4-4.1c-.4-.6-1.2-1.7-2.5-3.2Zm-66.7 0c1.8 2 3 4.1 3.7 6.3c.6 2.3 .9 5.6 .9 9.9v9.4H870.8v.8c0 1.5-.8 3.4-2.5 5.8c-1.6 2.4-3.6 4.5-5.8 6.2c-2.5 2-4.6 3-6.4 3c-2.1 0-4.4-.6-6.8-1.8c-2.1-1.1-5.4-3.1-9.8-6.2l1.5-2.2c2.1 1.4 3.9 2.4 5.2 2.9c1.3 .5 2.7 .7 4.2 .7c1.7 0 3.3-.4 5-1.4c1.6-.9 3.9-2.6 6.7-5.2c4-3.5 6-6.2 6-8.1c0-1-.4-2.2-1.2-3.8c-.8-1.7-1.9-3.2-3.1-4.4l2-9.6c1.6 1.6 2.8 3.6 3.7 5.7c.9 2.2 1.3 4.7 1.3 7.4v.4h16.4c-.3-1.6-.8-3-1.5-4.1c-.3-.6-1.2-1.7-2.5-3.2Zm254.4-1.3c1.7 0 3.2 .3 4.5 1.1c1.3 .7 2.7 2 4.2 3.8l-4.8 8c-1.1-1.3-2.2-2.2-3.2-2.8c-.9-.6-1.9-.9-2.8-.9c-.7 0-1.4 .2-1.9 .6c-.6 .5-.9 .9-.9 1.5c0 .8 .5 1.5 1.5 2.4c1 .8 2.6 1.8 5 3c3-1.4 5.3-2.3 6.8-2.7c1.5-.5 3.4-.8 5.9-1l-2.9 8.2c-3.7 1-6.7 2-9.1 3.1c-2.2 1.1-4.2 2.5-6 4.1c-1.2 1.1-3 2.9-5.3 5.6l-2.2-.8c0-1.6 .5-3.2 1.3-4.8c.6-1.2 1.7-2.8 3.3-4.9c-2.3-2.2-3.8-3.8-4.5-4.9c-.7-1-1.1-2-1.1-3c0-1.3 1-3.7 2.8-7c1.8-3.3 3.4-5.6 4.7-6.8c1.4-1.2 2.9-1.8 4.7-1.8ZM527.2 315l3.5 2.1c1.5 .9 3 1.9 4.3 3c2 1.5 3.3 2.9 4.1 4.2c.7 1.3 1.1 2.9 1.1 4.8c0 1.5-.1 2.9-.3 4.4c-.3 1.4-.6 2.7-.9 3.6c-.7 1.8-2.3 3.4-5 4.8c-2.4 1.3-4.7 1.9-6.8 1.9c-1.9 0-3.4-.6-4.5-1.9c-1.1-1.3-1.6-3-1.6-5.2c0-1.9 .3-3.8 .8-5.7c.6-1.9 1.6-4.3 3-7.2l-1.3-.8c.5-1.1 1-2.5 1.7-4c.7-1.6 1.3-2.9 1.9-4Zm171.1-6.8l8.3 4.4l-4.3 8.1l-8.4-4.4Zm481.6-6l8.3 4.5l-4.3 8l-8.4-4.4Zm-319.2 0l8.3 4.5l-4.3 8l-8.4-4.4Zm-73.8-.1l3.4 22.4c.6 3.5 1.3 5.9 2.2 7.1c.5 .8 1.3 1.2 2.3 1.2h6.1c.7 0 1.2 0 1.5 0c.7-.1 1.4-.2 2.1-.2c-1.2-1.8-2-3.3-2.4-4.4c-.4-1.1-.6-2.3-.6-3.7c0-3.6 1.5-6.7 4.4-9.3c3-2.7 6.4-4 10.4-4c2.6 0 5.2 .8 7.6 2.6c2.2 1.6 3.8 3.6 4.8 5.9l-1.5 1.3c-1.8-.7-3.3-1.2-4.5-1.4c-1.1-.2-2.4-.3-4.1-.3c-2.9 0-5.5 .2-7.7 .7c-2.7 .6-4.1 1.4-4.1 2.5c0 1.7 3.3 4.4 10 8.2l18.2-5.2l-4 10.2c-6.5 1.9-11.8 3.5-16 4.5c-3.6 1-6.7 1.6-9.2 2c-1.9 .2-3.7 .4-5.6 .4h-5.4c-.8 0-1.6-.2-2.3-.6c-1.4-.7-2.6-1.9-3.5-3.8c-1.3-2.5-2.2-6-2.5-10.4c-1.7 2-2.9 3.5-3.8 4.3c-1.4 1.2-2.5 1.8-3.3 1.8c-.5 0-1.1 0-1.8-.2l-4.3-.8c-1.9-.4-3-.7-3.5-.9c-.4-.1-.6-.4-.6-.9c0-.6 .8-2.6 2.5-6.1c1.6-3.4 2.8-5.5 3.6-6.3c.6-.7 1.6-1.5 3.2-2.5c.9-.7 2.2-1.4 3.8-2.4l1.9-1.1c0-.4-.1-.7-.1-1c-.1-.4-.1-.7-.1-1c0-.9 .2-2.1 .6-3.5c.5-1.3 1.2-3 2.3-5.1Zm-494.6-1.2c2.8 0 5.3 .8 7.3 2.4c2 1.7 3 3.8 3 6.5c0 1.4-.4 2.8-1.3 3.9c-1 1.2-2.2 1.9-3.8 1.9c-1.2 0-2.1-.4-2.9-1.2c-.8-.8-1.2-1.7-1.2-2.8c0-1.6 .6-2.8 2-3.6c1.3-.8 1.9-1.5 1.9-2c0-.8-.4-1.5-1.1-2c-.8-.5-1.8-.8-3-.8c-1.6 0-2.9 .5-3.8 1.4c-1 .8-1.5 1.9-1.5 3.2c0 1.1 .5 2.6 1.5 4.4c1.5 2.8 2.4 4.6 2.8 5.4c1 2.5 1.5 5.2 1.5 8.1c0 1.6-.2 3.4-.4 5.3h-2.2c0-.4 0-.8 .1-1l.1-1.9c0-1.3-.8-2.8-2.6-4.3c-3-2.7-4.7-4.2-4.9-4.5c-1.8-2.2-2.7-4.6-2.7-7.2c0-3.2 1-5.9 3.2-8c2.1-2.1 4.8-3.2 8-3.2Zm657.9-.3l6.7 3.7l-3.7 6.9l-5.3-2.6l-3 5.8l-6.5-3.7l3.9-7.3l5.1 2.9Zm-332.2 0l6.5 3.7l-3.9 7.3l-5.1-2.9l-2.9 5.7l-6.6-3.7l3.7-6.9l5.3 2.6Zm264.6-1.5l8.4 4.5l-4.3 8l-8.4-4.4Zm530 0c1.4 1.9 2.4 3.8 2.9 5.6c.7 2.2 1 5 1 8.4v7c0 5 .3 8.5 1 10.4c.5 1.5 1.3 2.3 2.5 2.3h9.6c2.2 0 3.9-.2 5.2-.8c1.6-.6 2.7-1.8 3.3-3.4c1.4-3.1 3.1-5.6 5.3-7.5c1.8-1.8 3.4-2.6 4.8-2.6c1.2 0 2.7 1.8 4.5 5.5c1.8 3.9 2.8 7.5 2.8 10.7v7.8c-2.5 0-5.5-.5-8.9-1.4c-2.9-.9-5.6-1.9-7.8-3.1c-1.4 2.1-3.1 3.5-5.1 4.1c-1 .3-2.4 .5-4.1 .5H1420c-2.8 0-4.8-1.2-6.1-3.5c-1.3-2.5-2-6.8-2-12.8V316.1c0-2.3-.4-4.1-1-5.4c-.3-.6-1-1.5-2.2-2.7Zm-31.9 0l2.1 12.7c.8 4.8 1.4 9 1.7 12.5c.2 2.7 .3 5.3 .3 7.8c0 2.2-.2 4.1-.7 5.9c-.5 1.7-1.5 4.1-2.9 7l-2.2-.8c.6-3.1 .9-5.6 .9-7.5c0-1.4-.1-3.6-.4-6.4c-.2-2.8-.5-5.6-.9-8.3c-.3-2.8-.9-6.1-1.7-9.9c-.3-1.4-.4-2.3-.4-2.8c0-.7 .3-2 1.1-3.7c.7-1.8 1.8-4 3.1-6.5Zm-126 0l2.1 12.7c.8 4.8 1.3 9 1.7 12.5c.2 2.7 .3 5.3 .3 7.8c0 2.2-.2 4.1-.7 5.9c-.5 1.7-1.5 4.1-2.9 7l-2.2-.8c.6-3.1 .9-5.6 .9-7.5c0-1.4-.1-3.6-.4-6.4c-.2-2.8-.5-5.6-.9-8.3c-.3-2.8-.9-6.1-1.7-9.9c-.3-1.4-.5-2.3-.5-2.8c0-.7 .4-2 1.1-3.7c.8-1.8 1.8-4 3.2-6.5Zm-158.1 0l2.2 12.7c.8 4.8 1.3 9 1.6 12.5c.3 2.7 .4 5.3 .4 7.8c0 2.2-.3 4.1-.8 5.9c-.5 1.7-1.4 4.1-2.9 7l-2.1-.8c.6-3.1 .8-5.6 .8-7.5c0-1.4-.1-3.6-.3-6.4c-.3-2.8-.6-5.6-.9-8.3c-.4-2.8-1-6.1-1.8-9.9c-.3-1.4-.4-2.3-.4-2.8c0-.7 .4-2 1.1-3.7c.8-1.8 1.8-4 3.1-6.5Zm-445.1 0l2.1 12.7c.8 4.8 1.4 9 1.7 12.5c.2 2.7 .3 5.3 .3 7.8c0 2.2-.2 4.1-.7 5.9c-.5 1.7-1.5 4.1-2.9 7l-2.1-.8c.5-3.1 .8-5.6 .8-7.5c0-1.4-.1-3.6-.4-6.4c-.2-2.8-.5-5.6-.8-8.3c-.4-2.8-1-6.1-1.8-9.9c-.3-1.4-.4-2.3-.4-2.8c0-.7 .3-2 1.1-3.7c.7-1.8 1.8-4 3.1-6.5Zm-160.8 0l2.2 12.7c.8 4.8 1.3 9 1.6 12.5c.2 2.7 .4 5.3 .4 7.8c0 2.2-.3 4.1-.8 5.9c-.5 1.7-1.5 4.1-2.9 7l-2.1-.8c.5-3.1 .8-5.6 .8-7.5c0-1.4-.1-3.6-.3-6.4c-.3-2.8-.6-5.6-.9-8.3c-.4-2.8-1-6.1-1.8-9.9c-.3-1.4-.4-2.3-.4-2.8c0-.7 .4-2 1.1-3.7c.7-1.8 1.8-4 3.1-6.5Zm41.2-2l6.5 3.6l-3.9 7.3l-5.1-2.8l-2.9 5.6l-6.6-3.6l3.7-7l5.3 2.7Zm775.7-.8l1.7 .8c-.1 .4-.2 .7-.2 1.2c0 .9 .5 1.7 1.5 2.3c1.4 .8 2.8 1.6 4.1 2.3c-.3 2.1-.5 3.5-.8 4.4c-.3 .9-.8 2.2-1.6 4l-1.1-.4c0 .3 .3 2.4 1 6.1c.7 3.7 1.3 6.9 1.7 9.6c.6 2.9 .9 4.9 1 6.1v.1h2.6c2.7 0 4.9-.7 6.3-2.1c1.7-1.6 2.7-4.4 3.2-8.4l2.4 .4c0 .9-.1 1.5-.1 2.1c-.1 1.5-.1 2.8-.1 3.8c0 1.3 .3 2.4 1 3.1c.7 .8 1.7 1.1 2.9 1.1c1.1 0 2.2-.2 3.2-.7c1-.5 2.6-1.5 4.7-3l12.8-9.1c1.5-1.1 2.6-1.9 3.4-2.3c1.7-1.1 3.4-1.6 5-1.6c2.7 0 4.9 .9 6.4 2.8c1.9 2.2 2.8 5.5 2.8 10v13.7h-37.9c-1.7 0-3-.5-4-1.3c-1.1-.9-1.9-2.2-2.6-4.1c-1.6 2.1-3 3.5-4.4 4.3c-1.3 .7-2.9 1-5 1h-2.6v.5c-.5 3.1-2.3 6-5.7 8.5c-3.8 2.8-8.2 4.2-13 4.2c-4.1 0-7.3-1-9.6-3.1c-2.3-2.1-3.5-4.9-3.5-8.6c0-3.5 .4-6.5 1.3-9.1c1-2.9 2.9-6.5 5.7-10.7l2.3 1.5c-1.9 2.8-3.2 5.2-4 7.3c-.8 2-1.2 4.1-1.2 6.1c0 2.2 .8 3.8 2.4 5c1.6 1.2 3.9 1.8 6.8 1.8c4.2 0 7.7-.8 10.3-2.4c2.6-1.7 3.9-3.8 3.9-6.4c0-.5 0-.8 0-1.1c0-.3 0-.5 0-.6c0-.9-.1-1.9-.2-3.1c-.2-1.1-.6-3.4-1.2-6.9c-1-5.7-2.1-11.4-3.1-17l-1.8-1.3c0-2.4 1.1-5.9 3.3-10.8Zm-69.6 0l1.7 .8c0 .2-.1 .6-.2 1.2c0 .8 .5 1.5 1.5 2.3c.9 .6 2.3 1.4 4.3 2.2c-.2 1.5-.6 3-1 4.5c-.4 1.4-.9 2.7-1.4 3.9l-1.3-.5l3.9 22.1v9.8H1190v.8c0 1.5-.8 3.4-2.5 5.8c-1.7 2.4-3.6 4.5-5.9 6.2c-2.4 2-4.6 3-6.3 3c-2.1 0-4.4-.6-6.8-1.8c-2.1-1.1-5.4-3.1-9.8-6.2l1.5-2.2c2.1 1.4 3.8 2.4 5.2 2.9c1.3 .5 2.7 .7 4.2 .7c1.7 0 3.3-.4 5-1.4c1.6-.9 3.9-2.6 6.7-5.2c3.9-3.5 5.9-6.2 5.9-8.1c0-1-.3-2.2-1.1-3.8c-.9-1.7-1.9-3.2-3.2-4.4l2-9.6c1.7 1.6 2.9 3.6 3.8 5.7c.9 2.2 1.3 4.7 1.3 7.4v.4h23c-2.9-3-5.6-5.1-8.1-6.4c-2.1-1.2-4.2-1.8-6.3-1.8c-.6 0-1.2 .1-1.7 .1c-.5 .1-1.3 .2-2.3 .4c1.3-3 2.8-5.2 4.4-6.6c1.6-1.5 3.5-2.2 5.5-2.2c1.6 0 3.1 .4 4.6 1.2c1.4 .7 3.1 2 4.9 3.7c1.4 1.3 3.4 3.4 6.1 6.2c1.8 2 3.1 3.3 4.1 3.9c.9 .6 2.3 1.1 4.2 1.5h12.8l-4.3-24.3l-2.3-1.5c0-1.4 .2-2.8 .6-4.3c.6-1.8 1.5-3.9 2.8-6.4Zm-158 0l1.7 .8c0 .2-.1 .6-.2 1.2c0 .8 .5 1.5 1.5 2.3c.9 .6 2.3 1.4 4.2 2.2c-.2 1.5-.5 3-.9 4.5c-.4 1.4-.9 2.7-1.4 3.9l-1.3-.5l3.9 22.1v9.8h-33.4c-1.6 0-2.8-.4-3.6-1c-1-.8-1.6-2.2-1.6-4c0-1.1 .1-2.2 .2-3.4c.1-1.2 .3-2.5 .5-3.7l1.3-.1c.2 .9 .7 1.5 1.3 1.8c.7 .4 1.5 .6 2.4 .6h12.3c-.5-3.5-1.5-6.3-2.8-8.4c-1.2-1.7-2.7-3.2-4.7-4.5l2.5-11.2c3.1 2.3 5.3 5.3 6.6 9c1.2 3.3 1.8 7.8 1.8 13.4v1.7h12.9l-4.3-24.3l-2.3-1.5c0-1.4 .2-2.8 .6-4.3c.6-1.8 1.5-3.9 2.8-6.4Zm-445.1 0l1.6 .8c0 .2 0 .6-.1 1.2c0 .8 .5 1.5 1.5 2.3c.9 .6 2.3 1.4 4.2 2.2c-.2 1.5-.5 3-1 4.5c-.4 1.4-.8 2.7-1.4 3.9l-1.2-.5l3.9 22.1v9.8H602.7v-.2l-.5-.1c-1.8-.2-3.7-.6-5.9-1.2c-2.9-.9-5.6-1.9-7.8-3.1c-1.4 2.1-3.1 3.5-5.1 4.1c-1 .3-2.4 .5-4.1 .5h-4.5v.8c0 1.5-.9 3.4-2.5 5.8c-1.7 2.4-3.7 4.5-5.9 6.2c-2.5 2-4.6 3-6.4 3c-2.1 0-4.3-.6-6.8-1.8c-2.1-1.1-5.3-3.1-9.8-6.2l1.5-2.2c2.2 1.4 3.9 2.4 5.2 2.9c1.3 .5 2.7 .7 4.3 .7c1.6 0 3.2-.4 4.9-1.4c1.6-.9 3.9-2.6 6.7-5.2c4-3.5 6-6.2 6-8.1c0-1-.4-2.2-1.2-3.8c-.8-1.7-1.9-3.2-3.1-4.4l2-9.6c1.6 1.6 2.9 3.6 3.7 5.7c.9 2.2 1.4 4.7 1.4 7.4v.4h4.5c2.2 0 3.9-.2 5.2-.8c1.6-.6 2.7-1.8 3.3-3.4c1.4-3.1 3.1-5.6 5.3-7.5c1.8-1.8 3.4-2.6 4.8-2.6c1.2 0 2.7 1.8 4.5 5.5c1.4 2.9 2.2 5.6 2.6 8.2v.6h16.5c-.2-1.6-.7-3-1.4-4.1c-.4-.6-1.2-1.7-2.5-3.2l2.8-8.5c1.8 2 3.1 4.1 3.7 6.3c.6 2 .9 4.7 1 8.3v1.2h13l-4.4-24.3l-2.3-1.5c0-1.4 .2-2.8 .7-4.3c.5-1.8 1.5-3.9 2.8-6.4Zm-160.8 0l1.6 .8c0 .2 0 .6-.1 1.2c0 .8 .5 1.5 1.5 2.3c.9 .6 2.3 1.4 4.2 2.2c-.2 1.5-.5 3-.9 4.5c-.4 1.4-.9 2.7-1.4 3.9l-1.3-.5l3.9 22.1v9.8H461.9v-.2l-.5-.1c-1.8-.2-3.7-.6-5.9-1.2c-2.9-.9-5.6-1.9-7.8-3.1c-1.4 2.1-3.1 3.5-5.1 4.1c-1 .3-2.4 .5-4.1 .5H405.1c-2.8 0-4.9-1.2-6.1-3.5c-1.4-2.5-2.1-6.8-2.1-12.8V316.1c0-2.3-.3-4.1-.9-5.4c-.4-.6-1.1-1.5-2.2-2.7l3.9-8.9c1.4 1.9 2.3 3.8 2.9 5.6c.6 2.2 .9 5 .9 8.4v7c0 5 .4 8.5 1.1 10.4c.5 1.5 1.3 2.3 2.5 2.3h9c1.1 0 2.1 .1 3.1 .2c2.6 .3 5.6 .6 9 .9c-3.6-.8-6.1-1.8-7.5-3.1c-1.4-1.3-2.1-3.2-2.1-5.7c0-3.7 .8-7 2.5-10c1.7-3 3.7-4.4 5.8-4.4c2.4 0 4.5 2.1 6.3 6.2c1.8 4.2 2.7 9.2 2.7 15.1v.8h4.6c2.2 0 3.9-.2 5.2-.8c1.6-.6 2.7-1.8 3.3-3.4c1.4-3.1 3.1-5.6 5.3-7.5c1.8-1.8 3.4-2.6 4.8-2.6c1.2 0 2.7 1.8 4.5 5.5c1.4 2.9 2.2 5.6 2.6 8.2v.6h13.1l-4.4-24.3l-2.3-1.5c0-1.4 .3-2.8 .7-4.3c.5-1.8 1.5-3.9 2.8-6.4Zm-108.7 0l1.6 .8c0 .2 0 .6-.1 1.2c0 .8 .5 1.5 1.5 2.3c.9 .6 2.3 1.4 4.2 2.2c-.2 1.5-.5 3-1 4.5c-.4 1.4-.8 2.7-1.4 3.9l-1.2-.5l3.9 22.1h16.3c-.2-1.6-.7-3-1.4-4.1c-.4-.6-1.2-1.7-2.5-3.2l2.8-8.5c1.9 2 3.1 4.1 3.7 6.3c.7 2.3 1 5.6 1 9.9v9.4H351c-.9 0-1.7-.2-2.4-.6c-1.4-.7-2.5-1.9-3.5-3.8c-1.3-2.5-2.1-6-2.5-10.4c-1.6 2-2.9 3.5-3.8 4.3c-1.3 1.2-2.4 1.8-3.3 1.8c-.4 0-1 0-1.7-.2l-4.4-.8c-1.8-.4-3-.7-3.4-.9c-.4-.1-.7-.4-.7-.9c0-.6 .9-2.6 2.5-6.1c1.7-3.4 2.9-5.5 3.6-6.3c.6-.7 1.7-1.5 3.2-2.5c.9-.7 2.2-1.4 3.9-2.4l1.9-1.1c-.1-.4-.1-.7-.2-1c0-.4 0-.7 0-1c0-.9 .2-2.1 .6-3.5c.4-1.3 1.2-3 2.2-5.1l3.5 22.4c.5 3.5 1.2 5.9 2.1 7.1c.6 .8 1.4 1.2 2.4 1.2h17.6l-4.4-24.3l-2.3-1.5c0-1.4 .2-2.8 .7-4.3c.5-1.8 1.5-3.9 2.8-6.4Zm57.4-.5l6.7 3.7l-3.8 6.9l-5.3-2.6l-3 5.8l-6.5-3.7l3.9-7.3l5.1 2.9Zm188.1-3.4l6.7 3.4l-3.6 7.4l-6.7-3.5Zm444.9-1.3l8.4 4.4l-4.3 8l-8.4-4.3ZM341 289l6.4 3.4l-3.9 6.6l-5.1-2.8l-2.9 5.6l-6.6-3.6l3.7-6.3l5.3 2.6Zm1040.8-.2c.5 0 .9 .2 1.1 .5c.3 .3 .4 .7 .4 1.1c0 .4 0 .7-.1 1c-.1 .3-.4 .7-.7 1.2c-1.2-.5-2-.8-2.4-.8c-.5 0-.9 .1-1.3 .3c-.3 .1-.6 .3-.8 .5c0 .4 .6 .8 1.7 1.5c1.2 .6 2 .9 2.5 .9c.3 0 1.2-.1 2.6-.5c-.3 .7-.6 1.2-1 1.6c-.2 .2-.6 .5-1.2 .6l-7.7 2.4c.5-.9 .9-1.5 1.2-1.8c.4-.3 1-.6 2-.8c-.7-.5-1.2-.9-1.5-1.3c-.3-.3-.4-.7-.4-1c0-.4 .1-.7 .3-1.1c.2-.4 .4-.8 .7-1.2c1.6-2 3.1-3.1 4.6-3.1Z" class="g1_8"/>
<image clip-path="url(#c1_8)" preserveAspectRatio="none" x="1344" y="457" width="108" height="72" href="img/2.jpg"/>
<image clip-path="url(#c2_8)" preserveAspectRatio="none" x="1347" y="550" width="102" height="71" href="img/3.jpg"/>
<image clip-path="url(#c3_8)" preserveAspectRatio="none" x="1347" y="642" width="102" height="74" href="img/4.jpg"/>
<image clip-path="url(#c4_8)" preserveAspectRatio="none" x="1353" y="745" width="96" height="80" href="img/5.jpg"/>
<image clip-path="url(#c5_8)" preserveAspectRatio="none" x="1" y="413" width="558" height="412" href="img/6.jpg"/>
</svg>