<svg viewBox="0 0 1466 825" version="1.1" xmlns="http://www.w3.org/2000/svg">
<defs>
<clipPath id="c0_63"><path d="M-.2 825.3V-.2H1467V825.3Z"/></clipPath>
<clipPath id="c1_63"><path d="M1343.9 529.1V456.4H1452v72.7Z"/></clipPath>
<clipPath id="c2_63"><path d="M1346.3 621.3V549.7h102.9v71.6Z"/></clipPath>
<clipPath id="c3_63"><path d="M1346.4 716.6V641.9h103v74.7Z"/></clipPath>
<clipPath id="c4_63"><path d="M1353 825V744.6h96.2V825Z"/></clipPath>
<style>
.g0_63{fill:#F00;}
.g1_63{fill:none;stroke:#000;stroke-width:1.466;stroke-linejoin:round;}
</style>
</defs>
<image clip-path="url(#c0_63)" preserveAspectRatio="none" x="0" y="-7" width="1467" height="840" href="img/1.jpg"/>
<path fill-rule="evenodd" d="M636.6 362c1 0 1.9 .3 2.5 1.1c.7 .7 1.1 1.6 1.1 2.6c0 1-.4 1.9-1.1 2.6c-.7 .7-1.6 1.1-2.6 1.1c-1 0-1.8-.4-2.6-1.1c-.7-.7-1-1.6-1-2.6c0-1 .3-1.9 1.1-2.6c.7-.8 1.6-1.1 2.6-1.1Zm.4-27.7c2.4 0 4.4 .7 6.1 2.1c1.7 1.3 2.5 3.1 2.5 5.3c0 1.2-.3 2.3-1.1 3.3c-.8 1-1.8 1.5-3.1 1.5c-1 0-1.8-.3-2.5-.9c-.6-.7-.9-1.5-.9-2.3c0-1.4 .5-2.4 1.6-3.1c1.1-.7 1.6-1.2 1.6-1.7c0-.6-.3-1.2-.9-1.6c-.7-.4-1.5-.6-2.5-.6c-1.3 0-2.4 .3-3.2 1.1c-.8 .7-1.2 1.6-1.2 2.6c0 1 .4 2.3 1.2 3.8c1.3 2.3 2.1 3.8 2.3 4.4c.9 2.1 1.3 4.4 1.3 6.8c0 1.3-.1 2.8-.3 4.4h-1.8c0-.4 0-.6 0-.8l.2-1.6c0-1.1-.8-2.3-2.3-3.6c-2.4-2.3-3.8-3.5-4.1-3.8c-1.4-1.8-2.2-3.8-2.2-6c0-2.6 .9-4.9 2.7-6.6c1.8-1.8 4-2.7 6.6-2.7Z" class="g0_63"/>
<path d="M636.6 362c1 0 1.9 .3 2.5 1.1c.7 .7 1.1 1.6 1.1 2.6c0 1-.4 1.9-1.1 2.6c-.7 .7-1.6 1.1-2.6 1.1c-1 0-1.8-.4-2.6-1.1c-.7-.7-1-1.6-1-2.6c0-1 .3-1.9 1.1-2.6c.7-.8 1.6-1.1 2.6-1.1Zm.4-27.7c2.4 0 4.4 .7 6.1 2.1c1.7 1.3 2.5 3.1 2.5 5.3c0 1.2-.3 2.3-1.1 3.3c-.8 1-1.8 1.5-3.1 1.5c-1 0-1.8-.3-2.5-.9c-.6-.7-.9-1.5-.9-2.3c0-1.4 .5-2.4 1.6-3.1c1.1-.7 1.6-1.2 1.6-1.7c0-.6-.3-1.2-.9-1.6c-.7-.4-1.5-.6-2.5-.6c-1.3 0-2.4 .3-3.2 1.1c-.8 .7-1.2 1.6-1.2 2.6c0 1 .4 2.3 1.2 3.8c1.3 2.3 2.1 3.8 2.3 4.4c.9 2.1 1.3 4.4 1.3 6.8c0 1.3-.1 2.8-.3 4.4h-1.8c0-.4 0-.6 0-.8l.2-1.6c0-1.1-.8-2.3-2.3-3.6c-2.4-2.3-3.8-3.5-4.1-3.8c-1.4-1.8-2.2-3.8-2.2-6c0-2.6 .9-4.9 2.7-6.6c1.8-1.8 4-2.7 6.6-2.7Z" class="g1_63"/>
<image clip-path="url(#c1_63)" preserveAspectRatio="none" x="1344" y="457" width="108" height="72" href="img/2.jpg"/>
<image clip-path="url(#c2_63)" preserveAspectRatio="none" x="1347" y="550" width="102" height="71" href="img/3.jpg"/>
<image clip-path="url(#c3_63)" preserveAspectRatio="none" x="1347" y="642" width="102" height="74" href="img/4.jpg"/>
<image clip-path="url(#c4_63)" preserveAspectRatio="none" x="1353" y="745" width="96" height="80" href="img/5.jpg"/>
</svg>