<svg viewBox="0 0 1466 825" version="1.1" xmlns="http://www.w3.org/2000/svg">
<defs>
<clipPath id="c0_43"><path d="M-.2 825.3V-.2H1467V825.3Z"/></clipPath>
<clipPath id="c1_43"><path d="M1343.9 529.1V456.4H1452v72.7Z"/></clipPath>
<clipPath id="c2_43"><path d="M1346.3 621.3V549.7h102.9v71.6Z"/></clipPath>
<clipPath id="c3_43"><path d="M1346.4 716.6V641.9h103v74.7Z"/></clipPath>
<clipPath id="c4_43"><path d="M1353 825V744.6h96.2V825Z"/></clipPath>
<clipPath id="c5_43"><path d="M6.1 825V467.7H653.9V825Z"/></clipPath>
<style>
.g0_43{fill:#F00;}
.g1_43{fill:none;stroke:#000;stroke-width:1.466;stroke-linejoin:round;}
</style>
</defs>
<image clip-path="url(#c0_43)" preserveAspectRatio="none" x="0" y="-7" width="1467" height="840" href="img/1.jpg"/>
<path fill-rule="evenodd" d="M256.6 420.5c.8 0 1.5 .3 2.1 .9c.5 .6 .8 1.3 .8 2.1c0 .8-.3 1.5-.9 2.1c-.6 .6-1.3 .9-2.1 .9c-.8 0-1.5-.3-2-.9c-.6-.6-.9-1.3-.9-2.1c0-.8 .3-1.5 .9-2.1c.6-.6 1.3-.9 2.1-.9Zm.3-22.1c2 0 3.6 .5 4.9 1.6c1.4 1.1 2 2.5 2 4.3c0 1-.3 1.8-.8 2.6c-.7 .8-1.5 1.2-2.5 1.2c-.8 0-1.5-.2-2-.7c-.6-.6-.8-1.2-.8-1.9c0-1.1 .4-1.9 1.3-2.4c.9-.6 1.3-1 1.3-1.4c0-.5-.2-.9-.7-1.3c-.6-.3-1.2-.5-2-.5c-1.1 0-1.9 .3-2.6 .9c-.7 .6-1 1.3-1 2.1c0 .8 .3 1.8 1 3c1 1.9 1.7 3.1 1.9 3.6c.7 1.7 1 3.5 1 5.4c0 1.1-.1 2.3-.3 3.6l-1.4-.1c0-.2 0-.5 0-.6l.1-1.3c0-.9-.6-1.8-1.7-2.9c-2-1.8-3.1-2.8-3.3-3c-1.2-1.4-1.8-3-1.8-4.8c0-2.1 .7-3.9 2.1-5.3c1.4-1.4 3.2-2.1 5.3-2.1Z" class="g0_43"/>
<path d="M256.6 420.5c.8 0 1.5 .3 2.1 .9c.5 .6 .8 1.3 .8 2.1c0 .8-.3 1.5-.9 2.1c-.6 .6-1.3 .9-2.1 .9c-.8 0-1.5-.3-2-.9c-.6-.6-.9-1.3-.9-2.1c0-.8 .3-1.5 .9-2.1c.6-.6 1.3-.9 2.1-.9Zm.3-22.1c2 0 3.6 .5 4.9 1.6c1.4 1.1 2 2.5 2 4.3c0 1-.3 1.8-.8 2.6c-.7 .8-1.5 1.2-2.5 1.2c-.8 0-1.5-.2-2-.7c-.6-.6-.8-1.2-.8-1.9c0-1.1 .4-1.9 1.3-2.4c.9-.6 1.3-1 1.3-1.4c0-.5-.2-.9-.7-1.3c-.6-.3-1.2-.5-2-.5c-1.1 0-1.9 .3-2.6 .9c-.7 .6-1 1.3-1 2.1c0 .8 .3 1.8 1 3c1 1.9 1.7 3.1 1.9 3.6c.7 1.7 1 3.5 1 5.4c0 1.1-.1 2.3-.3 3.6l-1.4-.1c0-.2 0-.5 0-.6l.1-1.3c0-.9-.6-1.8-1.7-2.9c-2-1.8-3.1-2.8-3.3-3c-1.2-1.4-1.8-3-1.8-4.8c0-2.1 .7-3.9 2.1-5.3c1.4-1.4 3.2-2.1 5.3-2.1Z" class="g1_43"/>
<image clip-path="url(#c1_43)" preserveAspectRatio="none" x="1344" y="457" width="108" height="72" href="img/2.jpg"/>
<image clip-path="url(#c2_43)" preserveAspectRatio="none" x="1347" y="550" width="102" height="71" href="img/3.jpg"/>
<image clip-path="url(#c3_43)" preserveAspectRatio="none" x="1347" y="642" width="102" height="74" href="img/4.jpg"/>
<image clip-path="url(#c4_43)" preserveAspectRatio="none" x="1353" y="745" width="96" height="80" href="img/5.jpg"/>
<image clip-path="url(#c5_43)" preserveAspectRatio="none" x="6" y="468" width="648" height="357" href="img/6.jpg"/>
</svg>