<svg viewBox="0 0 1466 825" version="1.1" xmlns="http://www.w3.org/2000/svg">
<defs>
<clipPath id="c0_69"><path d="M-.2 825.3V-.2H1467V825.3Z"/></clipPath>
<clipPath id="c1_69"><path d="M1343.9 529.1V456.4H1452v72.7Z"/></clipPath>
<clipPath id="c2_69"><path d="M1346.3 621.3V549.7h102.9v71.6Z"/></clipPath>
<clipPath id="c3_69"><path d="M1346.4 716.6V641.9h103v74.7Z"/></clipPath>
<clipPath id="c4_69"><path d="M1353 825V744.6h96.2V825Z"/></clipPath>
<clipPath id="c5_69"><path d="M18.9 766.3V529.7H1043.7V766.3Z"/></clipPath>
<style>
.g0_69{fill:#F00;}
.g1_69{fill:none;stroke:#000;stroke-width:1.466;stroke-linejoin:round;}
.g2_69{fill:none;stroke:#F00;stroke-width:9.166;stroke-miterlimit:8;}
</style>
</defs>
<image clip-path="url(#c0_69)" preserveAspectRatio="none" x="0" y="-7" width="1467" height="840" href="img/1.jpg"/>
<path fill-rule="evenodd" d="M737.2 349.8l3.8 2.4l-2.9 3.4l-3.2-2l-2.3 2.5l-3.8-2.1l2.8-3.6l3.3 2.1Zm-225.1 0l3.8 2.4l-3 3.4l-3.1-2l-2.4 2.5l-3.7-2.1l2.8-3.6l3.3 2.1ZM458 337.2l6.9 3.7l-3.6 6.7l-7-3.6Zm561.1-.6l5.5 3.1l-3.1 5.7l-4.4-2.2l-2.5 4.9l-5.4-3.1l3.3-6l4.2 2.3Zm-706.4 0l5.5 3.1l-3.1 5.7l-4.4-2.2l-2.5 4.9l-5.4-3.1l3.3-6l4.2 2.3Zm-16.5 0l5.5 3.1l-3.1 5.7l-4.4-2.2l-2.5 4.9l-5.4-3.1l3.3-6l4.2 2.3Zm1150-15.3c-.8 0-1.4 .9-2 2.7c1.1 .4 1.8 .7 2.4 .9c1.6 .6 2.5 .9 2.7 .9c.4 0 .7-.1 .7-.4c0-.4-.5-1.2-1.3-2.3c-1-1.2-1.8-1.8-2.5-1.8Zm-553.1 0c-.8 0-1.5 .9-2 2.7c1 .4 1.8 .7 2.4 .9c1.6 .6 2.5 .9 2.7 .9c.4 0 .6-.1 .6-.4c0-.4-.4-1.2-1.2-2.3c-1-1.2-1.8-1.8-2.5-1.8Zm333.3-.9c-1.3 0-2.8 .4-4.4 1.3c-1.7 .8-4 2.4-7.2 4.6h7.9c6.5 0 9.8-1 9.8-3c0-.7-.7-1.4-2.2-2c-1.5-.6-2.8-.9-3.9-.9Zm-138.7 0c-1.3 0-2.7 .4-4.4 1.3c-1.6 .8-4 2.4-7.1 4.6h7.8c6.5 0 9.8-1 9.8-3c0-.9-.7-1.6-2.1-2.2c-1.2-.5-2.5-.7-4-.7Zm-429.9 0c-1.3 0-2.8 .4-4.4 1.3c-1.6 .8-4 2.4-7.1 4.6h7.8c6.5 0 9.8-1 9.8-3c0-.9-.7-1.6-2.1-2.2c-1.2-.5-2.5-.7-4-.7Zm-505.6 0c-1.3 0-2.8 .4-4.4 1.3c-1.7 .8-4.1 2.4-7.2 4.6h7.8c6.6 0 9.8-1 9.8-3c0-.9-.7-1.6-2.1-2.2c-1.2-.5-2.5-.7-3.9-.7Zm1095.1-3.8c-.4 0-.7 .2-1 .4c-.3 .3-.5 .6-.5 .9c0 .9 .7 1.7 2 2.5c1.2 .8 2.7 1.4 4.5 1.7c-.7-1.8-1.5-3.1-2.4-4c-.8-1-1.7-1.5-2.6-1.5Zm-970.7 0c-.4 0-.8 .2-1.1 .4c-.3 .3-.4 .6-.4 .9c0 .9 .6 1.7 1.9 2.5c1.3 .8 2.8 1.4 4.6 1.7c-.7-1.8-1.5-3.1-2.4-4c-.9-1-1.8-1.5-2.6-1.5ZM996.4 314c-.7 .3-1.2 .5-1.5 .7c-1.1 .6-2 1.1-2.7 1.6c-.4 .4-.8 .8-1.1 1.1c-.4 .5-.6 .8-.6 1c0 .3 .3 .5 1 .7c.7 .1 1.4 .2 2.1 .2c.4 0 .9-.1 1.3-.4c.5-.2 1.2-.7 2.1-1.3Zm-157.3 0c-.7 .3-1.2 .5-1.5 .7c-1.1 .6-2 1.1-2.7 1.6c-.4 .4-.8 .8-1.1 1.1c-.4 .5-.6 .8-.6 1c0 .3 .3 .5 1 .7c.7 .1 1.4 .2 2.1 .2c.4 0 .9-.1 1.3-.4c.5-.2 1.2-.7 2.1-1.3Zm-597 0c-.6 .3-1.1 .5-1.5 .7c-1.1 .6-1.9 1.1-2.6 1.6c-.5 .4-.9 .8-1.2 1.1c-.4 .5-.6 .8-.6 1c0 .3 .4 .5 1.1 .7c.7 .1 1.4 .2 2 .2c.5 0 .9-.1 1.4-.4c.5-.2 1.1-.7 2-1.3Zm214-1.4c1.3 0 2.6 .3 3.8 .9c1.2 .7 2.6 1.7 4.1 3.1c1.2 1.1 2.9 2.8 5 5.2c1.5 1.7 2.7 2.8 3.4 3.3c.8 .5 2 .9 3.6 1.2v8.1H432.5v.7c0 1.2-.7 2.8-2.1 4.8c-1.4 2-3 3.8-4.9 5.2c-2 1.7-3.8 2.5-5.3 2.5c-1.7 0-3.6-.5-5.6-1.5c-1.8-.9-4.5-2.6-8.2-5.1l1.2-1.9c1.8 1.2 3.3 2 4.4 2.4c1 .4 2.2 .6 3.5 .6c1.4 0 2.7-.4 4.1-1.1c1.4-.8 3.3-2.2 5.6-4.3c3.3-3 5-5.2 5-6.8c0-.8-.3-1.9-1-3.2c-.7-1.4-1.6-2.7-2.6-3.6l1.7-8.1c1.3 1.4 2.4 3 3.1 4.8c.7 1.8 1.1 3.9 1.1 6.2v.3h30.6c-2.4-2.5-4.6-4.3-6.6-5.3c-1.8-1-3.6-1.5-5.3-1.5c-.6 0-1 0-1.5 .1c-.4 0-1 .1-1.8 .3c1.1-2.5 2.3-4.4 3.6-5.5c1.4-1.2 2.9-1.8 4.6-1.8Zm-64.7-.6c1.4 0 2.6 .3 3.7 .9c1.1 .6 2.2 1.7 3.5 3.2l-4 6.7c-.9-1.1-1.8-1.9-2.6-2.3c-.8-.5-1.6-.8-2.4-.8c-.6 0-1.1 .2-1.6 .6c-.5 .3-.7 .7-.7 1.2c0 .6 .4 1.3 1.2 1.9c.8 .7 2.2 1.6 4.2 2.6c2.5-1.2 4.4-2 5.6-2.3c1.3-.4 2.9-.6 4.9-.8l-2.3 6.8c-3.1 .8-5.6 1.7-7.6 2.6c-1.9 .9-3.5 2-5.1 3.4c-1 .9-2.4 2.4-4.3 4.7l-1.8-.7c0-1.3 .3-2.6 1-4c.5-1 1.4-2.4 2.7-4.1c-1.8-1.8-3.1-3.2-3.7-4c-.6-.9-.9-1.7-.9-2.6c0-1.1 .8-3 2.3-5.8c1.6-2.7 2.9-4.6 4-5.6c1.1-1.1 2.4-1.6 3.9-1.6Zm157.7-.2c-.6 0-1.1 .3-1.6 .9c-.5 .5-.7 1.1-.7 1.8c0 .5 .2 .9 .6 1.2c.3 .3 .8 .4 1.4 .4c.4 0 .9-.1 1.4-.4c.4-.2 1-.7 1.7-1.3c-.6-1-1-1.6-1.5-2c-.4-.4-.8-.6-1.3-.6Zm38.5-.8c.7 0 2.1 .1 4.2 .3c2 .2 3.9 .4 5.5 .5c3 .2 6 .4 8.9 .4l-1.8 7.2c-1.2 0-2.2 0-3 .2c-1.1 .2-2.1 .4-3 .6c-.1 .4-.1 .8-.2 1.3c0 .5-.1 .8-.1 1.1c0 1.4 .5 2.4 1.4 2.9c1 .5 2.7 .8 5.2 .8h18.4c2.3 0 4.1-.6 5.3-1.7c1.4-1.4 2.3-3.7 2.6-7l2.1 .3c-.1 .7-.1 1.3-.1 1.7c-.1 1.3-.1 2.4-.1 3.2c0 1.1 .2 2 .8 2.6c.6 .6 1.4 .9 2.4 .9c1 0 1.9-.2 2.7-.6c.8-.4 2.1-1.2 3.9-2.5l10.7-7.6c1.2-.9 2.2-1.5 2.8-1.9c1.4-.9 2.8-1.3 4.2-1.3c2.2 0 4 .8 5.3 2.4c1.6 1.8 2.4 4.5 2.4 8.2v3.3h13.6c-.3-1.3-.7-2.5-1.2-3.4c-.3-.5-1-1.4-2.1-2.7l2.4-7.1c1.5 1.7 2.5 3.5 3 5.3c.5 1.6 .8 3.9 .8 6.9v1h13.6c-.3-1.3-.7-2.5-1.2-3.4c-.3-.5-1-1.4-2.1-2.7l2.4-7.1c1.5 1.7 2.5 3.5 3 5.3c.6 1.9 .8 4.6 .8 8.2v7.8H636.5c-1.4 0-2.6-.3-3.4-1c-.8-.7-1.6-1.9-2.2-3.5c-1.2 1.8-2.4 3-3.6 3.6c-.5 .3-1.1 .5-1.8 .7l-.8 .1v.1H604.8c-3.5 0-5.9-.5-7.2-1.5c-1.3-1-1.9-2.9-1.9-5.7c0-1.3 .1-2.5 .2-3.6c.1-.4 .3-1.4 .5-2.9c-4.5 1.1-8.2 2.9-11 5.5c-2.8 2.7-4.3 5.7-4.3 9.1c0 4 1.7 7 5.2 9.2c3.4 2.1 8.3 3.2 14.7 3.2c1.9 0 4.6-.2 8.1-.5l.5 .9l-11.3 7.3h-2.8c-5.9 0-10.4-1.4-13.5-4.4c-3.2-2.9-4.7-7.1-4.7-12.6c0-4.2 .9-8 2.8-11.6c1.9-3.5 4.3-6.1 7.3-7.7h-.7c-1.8 0-3.3 .2-4.5 .6c-1.2 .3-3.1 1.1-5.5 2.4c.9-7.4 4.5-11.1 10.9-11.1Zm748.2-4.7c2.6 1.9 4.4 4.4 5.5 7.4c1 2.8 1.5 6.5 1.5 11.2v1.4h12.6c.6 0 1 0 1.3 0c.6-.1 1.2-.1 1.8-.2c-1-1.5-1.7-2.7-2-3.6c-.4-.9-.6-2-.6-3.1c0-3 1.3-5.6 3.7-7.8c2.5-2.2 5.4-3.3 8.6-3.3c2.2 0 4.3 .7 6.4 2.2c1.8 1.3 3.1 3 4 4.9l-1.2 1c-1.6-.5-2.9-.9-3.8-1.1c-.9-.2-2.1-.3-3.4-.3c-2.5 0-4.6 .2-6.4 .6c-2.3 .5-3.4 1.2-3.4 2.2c0 1.3 2.7 3.6 8.2 6.8l15.2-4.4l-3.3 8.5c-5.4 1.6-9.8 2.9-13.3 3.8c-3 .8-5.6 1.3-7.7 1.6c-.4 .1-.8 .1-1.2 .1l-.2 .1v.1h-28.8c-1.4 0-2.4-.3-3.1-.8c-.8-.7-1.2-1.8-1.2-3.3c0-.9 0-1.8 .1-2.9c.1-1 .2-2 .4-3l1.1-.1c.2 .7 .6 1.2 1.1 1.5c.5 .4 1.2 .5 2 .5h10.2c-.4-2.9-1.2-5.2-2.4-7c-.9-1.4-2.2-2.7-3.9-3.8Zm-20.9 0c2.6 1.9 4.4 4.4 5.5 7.4c1 2.8 1.5 6.5 1.5 11.2v9.5h-13.5c-1.4 0-2.4-.3-3.1-.8c-.8-.7-1.2-1.8-1.2-3.3c0-.9 0-1.8 .1-2.9c.1-1 .2-2 .4-3l1.1-.1c.2 .7 .6 1.2 1.1 1.5c.5 .4 1.2 .5 2 .5H1319c-.4-2.9-1.2-5.2-2.4-7c-.9-1.4-2.2-2.7-3.9-3.8Zm-765.2-2c2 0 4 1.8 5.9 5.4c1.8 3.7 2.7 7.5 2.7 11.6v13.1H525.1c-.8 0-1.5 0-1.9 .1c-.4 0-.6 .1-.6 .4c.6 .3 1.2 .5 1.7 .7c.5 .1 .8 .3 1 .5c.1 .2 .2 .5 .2 1c0 1.4-.4 3.1-1.2 5c-.8 2-1.6 3.2-2.4 3.7c-.7 .6-2.9 1.3-6.5 2.1c-3.6 .8-6.8 1.2-9.4 1.2c-3.7 0-6.8-.8-9-2.3c-2.4-1.6-3.5-3.6-3.5-6.1c0-2.4 .5-4.7 1.5-6.9c1.2-2.7 3.5-6.1 6.8-10.1l1.8 1.2c-2.1 2.5-3.5 4.6-4.3 6.2c-.8 1.6-1.2 3.1-1.2 4.7c0 2.1 .9 3.7 2.6 4.7c1.8 1 4.5 1.5 8.2 1.5c1.9 0 4.5-.3 7.9-1c3.4-.7 5.1-1.3 5.1-1.8c0-.3-.7-.5-2-.7c-1.3-.2-2.7-.3-4.2-.3c-2.3 0-3.4-.5-3.4-1.5c0-.4 .2-1.3 .8-2.4c.4-.8 .7-1.7 1.1-2.5c.8-1.6 2.2-2.9 4.3-4c2-1 4.2-1.5 6.5-1.5h30.5c0-1.7 0-2.9-.1-3.7c-.2-1.1-.5-2.1-1-2.9c-.6 1.2-1.5 2.1-2.6 2.8c-1 .7-2.2 1-3.4 1c-1.6 0-2.9-.5-4-1.6c-1.1-1.1-1.7-2.4-1.7-4c0-2.3 .8-5.1 2.2-8.3c1.6-3.5 3.1-5.3 4.8-5.3ZM424 300.9l7 3.6l-3.6 6.7l-7-3.6Zm351.4-1.4l5.6 3.1l-3.1 5.7l-4.4-2.2l-2.6 4.9l-5.4-3.1l3.3-6.1l4.2 2.4Zm-80.3 0l5.6 3.1l-3.1 5.7l-4.4-2.2l-2.6 4.9l-5.4-3.1l3.3-6.1l4.2 2.4Zm-16.5 0l5.6 3.1l-3.1 5.7l-4.4-2.2l-2.6 4.9l-5.4-3.1l3.3-6.1l4.2 2.4Zm397.6-.8l6.9 3.7l-3.6 6.7l-6.9-3.7Zm-429.9 0l6.9 3.7l-3.6 6.7l-7-3.7Zm-505.7 0l7 3.7l-3.6 6.7l-7-3.7Zm1267.7-.5c1.2 1.6 2 3.2 2.5 4.7c.5 1.8 .7 4.2 .7 7v5.8c0 4.2 .3 7.1 .9 8.7c.4 1.3 1.1 1.9 2.1 1.9H1434c1.8 0 3.2-.2 4.3-.6c1.3-.6 2.2-1.6 2.8-2.9c1.1-2.6 2.5-4.6 4.3-6.3c1.6-1.4 2.9-2.1 4-2.1c1 0 2.3 1.5 3.8 4.6c1.5 3.2 2.3 6.2 2.3 8.9v6.5c-2.1 0-4.5-.4-7.3-1.2c-2.5-.7-4.7-1.6-6.6-2.6c-1.1 1.8-2.6 2.9-4.3 3.4c-.8 .3-1.9 .4-3.3 .4h-19.5c-2.4 0-4-.9-5.1-2.8c-1.1-2.1-1.7-5.7-1.7-10.7v-8.5c0-1.9-.3-3.4-.8-4.5c-.3-.5-.9-1.2-1.8-2.2Zm-130 0l1.7 10.6c.7 4 1.2 7.5 1.4 10.4c.2 2.3 .3 4.5 .3 6.6c0 1.7-.2 3.3-.6 4.8c-.4 1.4-1.2 3.4-2.4 5.9l-1.8-.7c.5-2.6 .7-4.6 .7-6.2c0-1.2-.1-3-.3-5.4c-.2-2.3-.4-4.6-.7-6.9c-.3-2.3-.8-5.1-1.5-8.2c-.2-1.2-.4-1.9-.4-2.3c0-.7 .4-1.7 1-3.2c.6-1.5 1.4-3.3 2.6-5.4Zm-136.4 0l1.7 10.6c.7 4 1.2 7.5 1.4 10.4c.2 2.3 .3 4.5 .3 6.6c0 1.7-.2 3.3-.6 4.8c-.4 1.4-1.2 3.4-2.4 5.9l-1.8-.7c.5-2.6 .7-4.6 .7-6.2c0-1.2-.1-3-.3-5.4c-.2-2.3-.4-4.6-.7-6.9c-.3-2.3-.8-5.1-1.5-8.2c-.2-1.2-.4-1.9-.4-2.3c0-.7 .4-1.7 1-3.2c.6-1.5 1.4-3.3 2.6-5.4Zm-181.4 0l1.8 10.6c.7 4 1.1 7.5 1.4 10.4c.2 2.3 .3 4.5 .3 6.6c0 1.7-.2 3.3-.6 4.8c-.4 1.4-1.3 3.4-2.4 5.9l-1.8-.7c.4-2.6 .7-4.6 .7-6.2c0-1.2-.1-3-.3-5.4c-.2-2.3-.5-4.6-.8-6.9c-.3-2.3-.7-5.1-1.4-8.2c-.3-1.2-.4-1.9-.4-2.3c0-.7 .3-1.7 .9-3.2c.7-1.5 1.5-3.3 2.6-5.4Zm-157.3 0l1.8 10.6c.7 4 1.1 7.5 1.4 10.4c.2 2.3 .3 4.5 .3 6.6c0 1.7-.2 3.3-.6 4.8c-.4 1.4-1.3 3.4-2.4 5.9l-1.8-.7c.4-2.6 .7-4.6 .7-6.2c0-1.2-.1-3-.3-5.4c-.2-2.3-.5-4.6-.8-6.9c-.3-2.3-.7-5.1-1.4-8.2c-.3-1.2-.4-1.9-.4-2.3c0-.7 .3-1.7 .9-3.2c.7-1.5 1.5-3.3 2.6-5.4Zm-448.4 0l1.8 10.6c.7 4 1.1 7.5 1.4 10.4c.2 2.3 .3 4.5 .3 6.6c0 1.7-.2 3.3-.7 4.8c-.4 1.4-1.2 3.4-2.4 5.9l-1.8-.7c.5-2.6 .8-4.6 .8-6.2c0-1.2-.2-3-.4-5.4c-.2-2.3-.4-4.6-.7-6.9c-.3-2.3-.8-5.1-1.5-8.2c-.2-1.2-.3-1.9-.3-2.3c0-.7 .3-1.7 .9-3.2c.6-1.5 1.5-3.3 2.6-5.4Zm-148.5 0l1.8 10.6c.7 4 1.1 7.5 1.4 10.4c.2 2.3 .3 4.5 .3 6.6c0 1.7-.2 3.3-.7 4.8c-.4 1.4-1.2 3.4-2.4 5.9l-1.8-.7c.5-2.6 .8-4.6 .8-6.2c0-1.2-.2-3-.4-5.4c-.2-2.3-.4-4.6-.7-6.9c-.3-2.3-.8-5.1-1.5-8.2c-.2-1.2-.3-1.9-.3-2.3c0-.7 .3-1.7 .9-3.2c.6-1.5 1.5-3.3 2.6-5.4Zm826.8-2.3l1.4 .7c0 .1-.1 .4-.1 1c0 .6 .4 1.2 1.2 1.9c.7 .5 1.9 1.1 3.5 1.8c-.2 1.3-.4 2.5-.8 3.7c-.3 1.2-.7 2.3-1.2 3.3l-1-.4l3.2 18.4H1053c2.3 0 4.1-.6 5.3-1.7c1.4-1.4 2.3-3.7 2.7-7l2 .3c-.1 .7-.1 1.3-.1 1.7c-.1 1.3-.1 2.4-.1 3.2c0 1.1 .3 2 .9 2.6c.5 .6 1.3 .9 2.3 .9c1 0 1.9-.2 2.7-.6c.8-.4 2.1-1.2 3.9-2.5l10.7-7.6c1.2-.9 2.2-1.5 2.8-1.9c1.4-.9 2.9-1.3 4.2-1.3c2.2 0 4 .8 5.3 2.4c1.6 1.8 2.4 4.5 2.4 8.2v3.3h1c1.7 0 2.8-.1 3.5-.2c.7-.2 1.6-.6 2.7-1.2c-.6-1.2-1.1-2-1.5-2.5c-.6-.6-1.1-.9-1.7-.9c-.2 0-.4 0-.6 .2c-.2 .1-.4 .4-.7 .8l-1.3-.2c0-3.5 .6-6.1 1.9-7.7c1.2-1.5 3.2-2.3 5.9-2.3c2.7 0 4.9 .6 6.5 1.7c1.6 1 2.3 2.5 2.3 4.4c0 1-.2 2-.6 2.9c-.4 .9-1.2 2.2-2.3 3.8c.3 .4 .6 .7 1.1 .9c.5 .2 .9 .3 1.4 .3h15.1l-3.6-20.2l-1.9-1.3c0-1.2 .2-2.3 .5-3.5c.5-1.5 1.3-3.3 2.4-5.4l1.3 .7c0 .1 0 .4-.1 1c0 .6 .4 1.2 1.3 1.9c.7 .5 1.9 1.1 3.5 1.8c-.2 1.3-.5 2.5-.8 3.7c-.4 1.2-.7 2.3-1.2 3.3l-1.1-.4l3.3 18.4v8.1h-18.7c-1.6 0-3-.3-4.2-.9c-1.2-.7-2.1-1.7-2.9-3.1c-1.3 1.6-2.9 2.7-5 3.4c-1.4 .4-2.9 .6-4.5 .6h-32.6c-1.4 0-2.5-.3-3.4-1c-.8-.7-1.5-1.9-2.1-3.5c-1.3 1.8-2.5 3-3.7 3.6c-.5 .3-1.1 .5-1.8 .7l-.7 .1v.1h-50c-.8 0-1.4-.1-2-.4c-1.2-.6-2.1-1.6-2.9-3.2c-1.1-2.1-1.8-5-2.1-8.6c-1.4 1.6-2.4 2.8-3.2 3.5c-1.1 1-2 1.5-2.7 1.5c-.4 0-.9 0-1.5-.1l-3.6-.8c-1.5-.3-2.5-.5-2.9-.6c-.3-.2-.5-.4-.5-.8c0-.5 .7-2.2 2.1-5.1c1.4-2.8 2.4-4.6 3-5.3c.5-.5 1.4-1.2 2.6-2.1c.8-.5 1.9-1.1 3.2-1.9l1.6-1c0-.2-.1-.5-.1-.8c0-.3 0-.6 0-.8c0-.8 .1-1.7 .5-2.9c.3-1.1 .9-2.5 1.8-4.2l2.9 18.6c.5 2.9 1 4.9 1.8 5.9c.5 .7 1.1 1 2 1h17.4c-.2-1.3-.6-2.5-1.2-3.4c-.3-.5-1-1.4-2.1-2.7l2.4-7.1c1.5 1.7 2.5 3.5 3.1 5.3c.5 1.6 .7 3.9 .8 6.9v1h10.6l-3.6-20.2l-1.9-1.3c0-1.2 .2-2.3 .6-3.5c.4-1.5 1.2-3.3 2.3-5.4Zm-86.4 0l1.4 .7c0 .1 0 .4-.1 1c0 .6 .4 1.2 1.3 1.9c.7 .5 1.9 1.1 3.5 1.8c-.2 1.3-.5 2.5-.8 3.7c-.4 1.2-.8 2.3-1.2 3.3l-1.1-.4l3.3 18.4v8.1H912.5c-2.3 0-4-.9-5-2.8c-1.2-2.1-1.8-5.7-1.8-10.7v-8.5c0-1.9-.2-3.4-.8-4.5c-.2-.5-.8-1.2-1.8-2.2l3.3-7.5c1.1 1.6 1.9 3.2 2.4 4.7c.5 1.8 .8 4.2 .8 7v5.8c0 4.2 .3 7.1 .8 8.7c.4 1.3 1.1 1.9 2.1 1.9h21.4c-.7-.9-1.5-1.7-2.2-2.4c-.6-.6-1.4-1.3-2.5-2.1c-1.1-.8-2.2-1.7-3.3-2.6l-1 1.1c-1.7-1.8-2.8-2.8-3.1-3.2c-1-1.1-1.5-2.4-1.5-3.9c0-2 .1-3.4 .4-4.2c.4-1.2 1.2-2.2 2.5-3.1c1.2-.8 2.4-1.5 3.7-2.2c1.1-.5 2.4-1.1 4.1-1.8c.8-.3 2.5-1 5.1-2V307c-.1 0-1 .3-2.5 .8c-2 .6-3.5 1.2-4.7 1.7c-1.6 .7-2.5 1.2-2.5 1.5c0 .2 .7 .9 2.1 2.3c2 1.9 3.6 3.6 4.9 5.2c2.1 2.5 3.9 5.1 5.3 7.6v.2h10.7l-3.6-20.2l-1.9-1.3c0-1.2 .2-2.3 .5-3.5c.5-1.5 1.2-3.3 2.3-5.4Zm-75.9 0l1.4 .7c0 .1 0 .4-.1 1c0 .6 .4 1.2 1.3 1.9c.7 .5 1.9 1.1 3.5 1.8c-.2 1.3-.5 2.5-.8 3.7c-.4 1.2-.8 2.3-1.2 3.3l-1.1-.4l3.3 18.4h3.8c1.8 0 3.2-.2 4.2-.6c1.4-.6 2.3-1.6 2.8-2.9c1.2-2.6 2.6-4.6 4.4-6.3c1.6-1.4 2.9-2.1 4-2.1c1 0 2.3 1.5 3.7 4.6c1.6 3.2 2.4 6.2 2.4 8.9v6.5c-2.1 0-4.5-.4-7.4-1.2c-2.4-.7-4.6-1.6-6.5-2.6c-1.2 1.8-2.6 2.9-4.3 3.4c-.8 .3-1.9 .4-3.3 .4H847.4c-.8 0-1.4-.1-2-.4c-1.2-.6-2.1-1.6-2.9-3.2c-1.1-2.1-1.8-5-2.1-8.6c-1.4 1.6-2.4 2.8-3.2 3.5c-1.1 1-2 1.5-2.7 1.5c-.4 0-.9 0-1.5-.1l-3.6-.8c-1.5-.3-2.5-.5-2.9-.6c-.3-.2-.5-.4-.5-.8c0-.5 .7-2.2 2.1-5.1c1.4-2.8 2.4-4.6 3-5.3c.5-.5 1.4-1.2 2.6-2.1c.8-.5 1.9-1.1 3.2-1.9l1.6-1c0-.2-.1-.5-.1-.8c0-.3 0-.6 0-.8c0-.8 .1-1.7 .5-2.9c.3-1.1 .9-2.5 1.8-4.2l2.9 18.6c.5 2.9 1 4.9 1.8 5.9c.5 .7 1.1 1 2 1h26.1l-3.6-20.2l-1.9-1.3c0-1.2 .2-2.3 .5-3.5c.5-1.5 1.2-3.3 2.3-5.4Zm-81.4 0l1.4 .7c0 .1 0 .4-.1 1c0 .6 .4 1.2 1.3 1.9c.7 .5 1.9 1.1 3.5 1.8c-.2 1.3-.5 2.5-.8 3.7c-.4 1.2-.8 2.3-1.2 3.3l-1.1-.4l3.3 18.4v8.1H750.3c-.9 0-1.6 0-1.9 .1c-.4 0-.6 .1-.6 .4c.6 .3 1.1 .5 1.6 .7c.5 .1 .8 .3 1 .5c.2 .2 .2 .5 .2 1c0 1.4-.4 3.1-1.2 5c-.8 2-1.6 3.2-2.3 3.7c-.8 .6-3 1.3-6.6 2.1c-3.6 .8-6.7 1.2-9.4 1.2c-3.7 0-6.7-.8-9-2.3c-2.3-1.6-3.5-3.6-3.5-6.1c0-2.4 .5-4.7 1.5-6.9c1.3-2.7 3.5-6.1 6.9-10.1l1.8 1.2c-2.1 2.5-3.6 4.6-4.4 6.2c-.8 1.6-1.2 3.1-1.2 4.7c0 2.1 .9 3.7 2.6 4.7c1.8 1 4.5 1.5 8.2 1.5c1.9 0 4.6-.3 7.9-1c3.4-.7 5.1-1.3 5.1-1.8c0-.3-.7-.5-1.9-.7c-1.3-.2-2.8-.3-4.3-.3c-2.3 0-3.4-.5-3.4-1.5c0-.4 .3-1.3 .8-2.4c.4-.8 .8-1.7 1.2-2.5c.7-1.6 2.1-2.9 4.2-4c2.1-1 4.2-1.5 6.5-1.5h28.4c-.3-1.3-.7-2.5-1.2-3.4c-.3-.5-1-1.4-2.1-2.7l2.4-7.1c1.5 1.7 2.5 3.5 3 5.3c.5 1.6 .8 3.9 .8 6.9v1h10.7l-3.6-20.2l-1.9-1.3c0-1.2 .2-2.3 .5-3.5c.5-1.5 1.2-3.3 2.3-5.4Zm-462.7 0l1.4 .7c0 .1-.1 .4-.1 1c0 .6 .4 1.2 1.2 1.9c.8 .5 1.9 1.1 3.5 1.8c-.1 1.3-.4 2.5-.8 3.7c-.3 1.2-.7 2.3-1.1 3.3l-1.1-.4l3.2 18.4h10.8l-3.6-20.2l-2-1.3c0-1.2 .2-2.3 .6-3.5c.5-1.5 1.2-3.3 2.3-5.4l1.4 .7c0 .1-.1 .4-.1 1c0 .6 .4 1.2 1.2 1.9c.8 .5 1.9 1.1 3.5 1.8c-.1 1.3-.4 2.5-.8 3.7c-.3 1.2-.7 2.3-1.1 3.3l-1.1-.4l3.2 18.4v8.1H250.4c-.7 0-1.4-.1-2-.4c-1.1-.6-2.1-1.6-2.9-3.2c-1-2.1-1.7-5-2.1-8.6c-1.3 1.6-2.4 2.8-3.1 3.5c-1.1 1-2 1.5-2.8 1.5c-.3 0-.8 0-1.4-.1l-3.6-.8c-1.6-.3-2.5-.5-2.9-.6c-.3-.2-.5-.4-.5-.8c0-.5 .7-2.2 2-5.1c1.4-2.8 2.4-4.6 3-5.3c.5-.5 1.4-1.2 2.7-2.1c.8-.5 1.8-1.1 3.2-1.9l1.6-1c-.1-.2-.1-.5-.1-.8c-.1-.3-.1-.6-.1-.8c0-.8 .2-1.7 .5-2.9c.4-1.1 1-2.5 1.9-4.2l2.9 18.6c.4 2.9 1 4.9 1.7 5.9c.5 .7 1.2 1 2 1h20c.5 .1 .9 .1 1.3 .1c2.2 .3 4.7 .5 7.5 .8c-3-.6-5-1.5-6.2-2.6c-1.2-1-1.8-2.6-1.8-4.7c0-3.1 .7-5.9 2.1-8.3c1.5-2.5 3-3.7 4.8-3.7c2 0 3.8 1.7 5.3 5.2c1.5 3.4 2.2 7.6 2.2 12.5v.7h13.6c-.2-1.3-.6-2.5-1.2-3.4c-.3-.5-1-1.4-2.1-2.7l2.4-7.1c1.5 1.7 2.5 3.5 3.1 5.3c.5 1.6 .7 3.9 .8 6.9v1h13.5c-.2-1.3-.6-2.5-1.2-3.4c-.3-.5-1-1.4-2.1-2.7l2.4-7.1c1.5 1.7 2.5 3.5 3.1 5.3c.5 1.6 .7 3.9 .8 6.9v1h10.7l-3.6-20.2l-2-1.3c0-1.2 .2-2.3 .6-3.5c.5-1.5 1.2-3.3 2.3-5.4Zm-134.2 0l1.4 .7c0 .1-.1 .4-.1 1c0 .6 .4 1.2 1.2 1.9c.8 .5 1.9 1.1 3.5 1.8c-.1 1.3-.4 2.5-.8 3.7c-.3 1.2-.7 2.3-1.1 3.3l-1.1-.4l3.2 18.4v8.1H180c-1.6 0-2.9-.3-4.1-.9c-1.2-.7-2.2-1.7-2.9-3.1c-1.3 1.6-3 2.7-5.1 3.4c-1.3 .4-2.8 .6-4.4 .6H130.8c-1.4 0-2.5-.3-3.3-1c-.9-.7-1.6-1.9-2.2-3.5c-1.3 1.8-2.5 3-3.6 3.6c-.6 .3-1.2 .5-1.9 .7l-.7 .1v.1H101.7v-8.1h15.8c2.3 0 4-.6 5.2-1.7c1.4-1.4 2.3-3.7 2.7-7l2 .3c0 .7-.1 1.3-.1 1.7c0 1.3-.1 2.4-.1 3.2c0 1.1 .3 2 .9 2.6c.6 .6 1.4 .9 2.4 .9c.9 0 1.8-.2 2.7-.6c.8-.4 2.1-1.2 3.8-2.5l10.7-7.6c1.3-.9 2.2-1.5 2.9-1.9c1.4-.9 2.8-1.3 4.1-1.3c2.3 0 4.1 .8 5.4 2.4c1.5 1.8 2.3 4.5 2.3 8.2v3.3h1.1c1.6 0 2.8-.1 3.5-.2c.6-.2 1.5-.6 2.6-1.2c-.6-1.2-1.1-2-1.5-2.5c-.5-.6-1.1-.9-1.7-.9c-.2 0-.4 0-.6 .2c-.2 .1-.4 .4-.6 .8l-1.3-.2c0-3.5 .6-6.1 1.8-7.7c1.3-1.5 3.2-2.3 5.9-2.3c2.8 0 4.9 .6 6.5 1.7c1.6 1 2.4 2.5 2.4 4.4c0 1-.2 2-.6 2.9c-.4 .9-1.2 2.2-2.4 3.8c.3 .4 .7 .7 1.1 .9c.5 .2 1 .3 1.4 .3h15.2l-3.6-20.2l-2-1.3c0-1.2 .2-2.3 .6-3.5c.5-1.5 1.2-3.3 2.3-5.4Zm83.3-.3l6.9 3.7l-3.6 6.7l-6.9-3.7Zm971.3-.1l5.6 3.1l-3.1 5.7l-4.4-2.2l-2.5 4.9l-5.5-3.1l3.3-6.1l4.3 2.4Zm-34.9-2l1.3 .6c0 .1 0 .4-.1 .8c0 .7 1 1.5 3 2.4c.6 .4 1.6 .8 2.9 1.3c-.2 1.5-.5 3-.9 4.3c-.3 .7-.7 1.7-1.2 3.2l-1.1-.4c.6 2.8 1 4.9 1.2 6.3c.2 1.3 .4 2.5 .4 3.5v.4c0 .6-.1 1-.1 1.3c0 .4-.1 .9-.3 1.6c1.1-.8 2.1-1.5 3.2-2.3c1.6-1.1 3-2 4.3-2.7c1.7-1 3-1.4 3.8-1.4c2.4 0 4.2 .6 5.7 1.8c1.5 1.4 2.3 3.4 2.3 5.9v6.2h3.3c.9 0 1.7 0 2.5 .1c2.2 .3 4.7 .5 7.5 .8c-2.9-.6-5-1.5-6.2-2.6c-1.2-1-1.8-2.6-1.8-4.7c0-3.1 .8-5.9 2.2-8.3c1.4-2.5 3-3.7 4.8-3.7c2 0 3.7 1.7 5.2 5.2c1.5 3.4 2.3 7.6 2.3 12.5v.7h10.7l-3.6-20.2l-1.9-1.3c0-1.2 .2-2.3 .5-3.5c.5-1.5 1.3-3.3 2.4-5.4l1.3 .7c0 .1 0 .4-.1 1c0 .6 .4 1.2 1.3 1.9c.7 .5 1.9 1.1 3.5 1.8c-.2 1.3-.5 2.5-.8 3.7c-.4 1.2-.7 2.3-1.2 3.3l-1.1-.4l3.3 18.4v8.1H1189c-2.9 0-5.1-.5-6.9-1.7c-1.9-1.2-3.6-3.4-5.1-6.5c-2.2 1.4-4 3.1-5.2 5c-1.2 1.9-1.8 3.8-1.8 5.8c0 3.5 1.6 6.1 4.7 7.8c3.1 1.7 8 2.6 14.7 2.6c1 0 2.1 0 3.3 0c1.1-.1 2.2-.1 3.1-.1l.2 1.3l-11 6.7c-6.4 0-11.1-1.3-14-3.7c-2.9-2.4-4.4-6.2-4.4-11.4c0-3.6 .7-6.9 2.1-9.8c1.4-3 3.6-5.7 6.6-8.3c-.3-1.5-.8-2.3-1.6-2.3c-.4 0-.6 .1-.8 .3c-.2 .3-.5 .6-.7 .8l-1.4-.3c0-2.7 .6-5 1.8-6.8c1.4-2.1 3.4-3.1 5.9-3.1c2.2 0 4 .6 5.5 1.9c1.4 1.2 2.2 2.8 2.2 4.7c0 1.2-.3 2.3-.9 3.4c-.7 1.1-1.6 2-2.7 2.5c1 1.2 2.2 2 3.6 2.6c1 .3 1.9 .5 2.8 .5h17.6c.4 0 1.8-.8 4-2.5c.7-.5 1.8-1.3 3.2-2.5c0-2.4-.1-4.5-.3-6.2c-.2-1.6-.5-3.4-.9-5.2c-.1-.5-.6-2.6-1.6-6.5l-1.7-1.1c.5-2.1 .8-3.6 1.1-4.5c.3-.9 .9-2.3 1.8-4.3Zm-665.1-2.2L554 295l-3.6 6.7l-6.9-3.7Zm449.2-1.4l5.4 2.7l-3.3 5.6l-4.2-2.4l-2.4 4.7l-5.6-3l3.1-5.3l4.4 2.2Zm-157.3 0l5.4 2.7l-3.3 5.6l-4.2-2.4l-2.4 4.7l-5.6-3l3.1-5.3l4.4 2.2Zm-596.9 0l5.3 2.7l-3.2 5.6l-4.3-2.4l-2.4 4.7l-5.5-3l3.1-5.3l4.4 2.2Z" class="g0_69"/>
<path d="M737.2 349.8l3.8 2.4l-2.9 3.4l-3.2-2l-2.3 2.5l-3.8-2.1l2.8-3.6l3.3 2.1Zm-225.1 0l3.8 2.4l-3 3.4l-3.1-2l-2.4 2.5l-3.7-2.1l2.8-3.6l3.3 2.1ZM458 337.2l6.9 3.7l-3.6 6.7l-7-3.6Zm561.1-.6l5.5 3.1l-3.1 5.7l-4.4-2.2l-2.5 4.9l-5.4-3.1l3.3-6l4.2 2.3Zm-706.4 0l5.5 3.1l-3.1 5.7l-4.4-2.2l-2.5 4.9l-5.4-3.1l3.3-6l4.2 2.3Zm-16.5 0l5.5 3.1l-3.1 5.7l-4.4-2.2l-2.5 4.9l-5.4-3.1l3.3-6l4.2 2.3Zm1150-15.3c-.8 0-1.4 .9-2 2.7c1.1 .4 1.8 .7 2.4 .9c1.6 .6 2.5 .9 2.7 .9c.4 0 .7-.1 .7-.4c0-.4-.5-1.2-1.3-2.3c-1-1.2-1.8-1.8-2.5-1.8Zm-553.1 0c-.8 0-1.5 .9-2 2.7c1 .4 1.8 .7 2.4 .9c1.6 .6 2.5 .9 2.7 .9c.4 0 .6-.1 .6-.4c0-.4-.4-1.2-1.2-2.3c-1-1.2-1.8-1.8-2.5-1.8Zm333.3-.9c-1.3 0-2.8 .4-4.4 1.3c-1.7 .8-4 2.4-7.2 4.6h7.9c6.5 0 9.8-1 9.8-3c0-.7-.7-1.4-2.2-2c-1.5-.6-2.8-.9-3.9-.9Zm-138.7 0c-1.3 0-2.7 .4-4.4 1.3c-1.6 .8-4 2.4-7.1 4.6h7.8c6.5 0 9.8-1 9.8-3c0-.9-.7-1.6-2.1-2.2c-1.2-.5-2.5-.7-4-.7Zm-429.9 0c-1.3 0-2.8 .4-4.4 1.3c-1.6 .8-4 2.4-7.1 4.6h7.8c6.5 0 9.8-1 9.8-3c0-.9-.7-1.6-2.1-2.2c-1.2-.5-2.5-.7-4-.7Zm-505.6 0c-1.3 0-2.8 .4-4.4 1.3c-1.7 .8-4.1 2.4-7.2 4.6h7.8c6.6 0 9.8-1 9.8-3c0-.9-.7-1.6-2.1-2.2c-1.2-.5-2.5-.7-3.9-.7Zm1095.1-3.8c-.4 0-.7 .2-1 .4c-.3 .3-.5 .6-.5 .9c0 .9 .7 1.7 2 2.5c1.2 .8 2.7 1.4 4.5 1.7c-.7-1.8-1.5-3.1-2.4-4c-.8-1-1.7-1.5-2.6-1.5Zm-970.7 0c-.4 0-.8 .2-1.1 .4c-.3 .3-.4 .6-.4 .9c0 .9 .6 1.7 1.9 2.5c1.3 .8 2.8 1.4 4.6 1.7c-.7-1.8-1.5-3.1-2.4-4c-.9-1-1.8-1.5-2.6-1.5ZM996.4 314c-.7 .3-1.2 .5-1.5 .7c-1.1 .6-2 1.1-2.7 1.6c-.4 .4-.8 .8-1.1 1.1c-.4 .5-.6 .8-.6 1c0 .3 .3 .5 1 .7c.7 .1 1.4 .2 2.1 .2c.4 0 .9-.1 1.3-.4c.5-.2 1.2-.7 2.1-1.3Zm-157.3 0c-.7 .3-1.2 .5-1.5 .7c-1.1 .6-2 1.1-2.7 1.6c-.4 .4-.8 .8-1.1 1.1c-.4 .5-.6 .8-.6 1c0 .3 .3 .5 1 .7c.7 .1 1.4 .2 2.1 .2c.4 0 .9-.1 1.3-.4c.5-.2 1.2-.7 2.1-1.3Zm-597 0c-.6 .3-1.1 .5-1.5 .7c-1.1 .6-1.9 1.1-2.6 1.6c-.5 .4-.9 .8-1.2 1.1c-.4 .5-.6 .8-.6 1c0 .3 .4 .5 1.1 .7c.7 .1 1.4 .2 2 .2c.5 0 .9-.1 1.4-.4c.5-.2 1.1-.7 2-1.3Zm214-1.4c1.3 0 2.6 .3 3.8 .9c1.2 .7 2.6 1.7 4.1 3.1c1.2 1.1 2.9 2.8 5 5.2c1.5 1.7 2.7 2.8 3.4 3.3c.8 .5 2 .9 3.6 1.2v8.1H432.5v.7c0 1.2-.7 2.8-2.1 4.8c-1.4 2-3 3.8-4.9 5.2c-2 1.7-3.8 2.5-5.3 2.5c-1.7 0-3.6-.5-5.6-1.5c-1.8-.9-4.5-2.6-8.2-5.1l1.2-1.9c1.8 1.2 3.3 2 4.4 2.4c1 .4 2.2 .6 3.5 .6c1.4 0 2.7-.4 4.1-1.1c1.4-.8 3.3-2.2 5.6-4.3c3.3-3 5-5.2 5-6.8c0-.8-.3-1.9-1-3.2c-.7-1.4-1.6-2.7-2.6-3.6l1.7-8.1c1.3 1.4 2.4 3 3.1 4.8c.7 1.8 1.1 3.9 1.1 6.2v.3h30.6c-2.4-2.5-4.6-4.3-6.6-5.3c-1.8-1-3.6-1.5-5.3-1.5c-.6 0-1 0-1.5 .1c-.4 0-1 .1-1.8 .3c1.1-2.5 2.3-4.4 3.6-5.5c1.4-1.2 2.9-1.8 4.6-1.8Zm-64.7-.6c1.4 0 2.6 .3 3.7 .9c1.1 .6 2.2 1.7 3.5 3.2l-4 6.7c-.9-1.1-1.8-1.9-2.6-2.3c-.8-.5-1.6-.8-2.4-.8c-.6 0-1.1 .2-1.6 .6c-.5 .3-.7 .7-.7 1.2c0 .6 .4 1.3 1.2 1.9c.8 .7 2.2 1.6 4.2 2.6c2.5-1.2 4.4-2 5.6-2.3c1.3-.4 2.9-.6 4.9-.8l-2.3 6.8c-3.1 .8-5.6 1.7-7.6 2.6c-1.9 .9-3.5 2-5.1 3.4c-1 .9-2.4 2.4-4.3 4.7l-1.8-.7c0-1.3 .3-2.6 1-4c.5-1 1.4-2.4 2.7-4.1c-1.8-1.8-3.1-3.2-3.7-4c-.6-.9-.9-1.7-.9-2.6c0-1.1 .8-3 2.3-5.8c1.6-2.7 2.9-4.6 4-5.6c1.1-1.1 2.4-1.6 3.9-1.6Zm157.7-.2c-.6 0-1.1 .3-1.6 .9c-.5 .5-.7 1.1-.7 1.8c0 .5 .2 .9 .6 1.2c.3 .3 .8 .4 1.4 .4c.4 0 .9-.1 1.4-.4c.4-.2 1-.7 1.7-1.3c-.6-1-1-1.6-1.5-2c-.4-.4-.8-.6-1.3-.6Zm38.5-.8c.7 0 2.1 .1 4.2 .3c2 .2 3.9 .4 5.5 .5c3 .2 6 .4 8.9 .4l-1.8 7.2c-1.2 0-2.2 0-3 .2c-1.1 .2-2.1 .4-3 .6c-.1 .4-.1 .8-.2 1.3c0 .5-.1 .8-.1 1.1c0 1.4 .5 2.4 1.4 2.9c1 .5 2.7 .8 5.2 .8h18.4c2.3 0 4.1-.6 5.3-1.7c1.4-1.4 2.3-3.7 2.6-7l2.1 .3c-.1 .7-.1 1.3-.1 1.7c-.1 1.3-.1 2.4-.1 3.2c0 1.1 .2 2 .8 2.6c.6 .6 1.4 .9 2.4 .9c1 0 1.9-.2 2.7-.6c.8-.4 2.1-1.2 3.9-2.5l10.7-7.6c1.2-.9 2.2-1.5 2.8-1.9c1.4-.9 2.8-1.3 4.2-1.3c2.2 0 4 .8 5.3 2.4c1.6 1.8 2.4 4.5 2.4 8.2v3.3h13.6c-.3-1.3-.7-2.5-1.2-3.4c-.3-.5-1-1.4-2.1-2.7l2.4-7.1c1.5 1.7 2.5 3.5 3 5.3c.5 1.6 .8 3.9 .8 6.9v1h13.6c-.3-1.3-.7-2.5-1.2-3.4c-.3-.5-1-1.4-2.1-2.7l2.4-7.1c1.5 1.7 2.5 3.5 3 5.3c.6 1.9 .8 4.6 .8 8.2v7.8H636.5c-1.4 0-2.6-.3-3.4-1c-.8-.7-1.6-1.9-2.2-3.5c-1.2 1.8-2.4 3-3.6 3.6c-.5 .3-1.1 .5-1.8 .7l-.8 .1v.1H604.8c-3.5 0-5.9-.5-7.2-1.5c-1.3-1-1.9-2.9-1.9-5.7c0-1.3 .1-2.5 .2-3.6c.1-.4 .3-1.4 .5-2.9c-4.5 1.1-8.2 2.9-11 5.5c-2.8 2.7-4.3 5.7-4.3 9.1c0 4 1.7 7 5.2 9.2c3.4 2.1 8.3 3.2 14.7 3.2c1.9 0 4.6-.2 8.1-.5l.5 .9l-11.3 7.3h-2.8c-5.9 0-10.4-1.4-13.5-4.4c-3.2-2.9-4.7-7.1-4.7-12.6c0-4.2 .9-8 2.8-11.6c1.9-3.5 4.3-6.1 7.3-7.7h-.7c-1.8 0-3.3 .2-4.5 .6c-1.2 .3-3.1 1.1-5.5 2.4c.9-7.4 4.5-11.1 10.9-11.1Zm748.2-4.7c2.6 1.9 4.4 4.4 5.5 7.4c1 2.8 1.5 6.5 1.5 11.2v1.4h12.6c.6 0 1 0 1.3 0c.6-.1 1.2-.1 1.8-.2c-1-1.5-1.7-2.7-2-3.6c-.4-.9-.6-2-.6-3.1c0-3 1.3-5.6 3.7-7.8c2.5-2.2 5.4-3.3 8.6-3.3c2.2 0 4.3 .7 6.4 2.2c1.8 1.3 3.1 3 4 4.9l-1.2 1c-1.6-.5-2.9-.9-3.8-1.1c-.9-.2-2.1-.3-3.4-.3c-2.5 0-4.6 .2-6.4 .6c-2.3 .5-3.4 1.2-3.4 2.2c0 1.3 2.7 3.6 8.2 6.8l15.2-4.4l-3.3 8.5c-5.4 1.6-9.8 2.9-13.3 3.8c-3 .8-5.6 1.3-7.7 1.6c-.4 .1-.8 .1-1.2 .1l-.2 .1v.1h-28.8c-1.4 0-2.4-.3-3.1-.8c-.8-.7-1.2-1.8-1.2-3.3c0-.9 0-1.8 .1-2.9c.1-1 .2-2 .4-3l1.1-.1c.2 .7 .6 1.2 1.1 1.5c.5 .4 1.2 .5 2 .5h10.2c-.4-2.9-1.2-5.2-2.4-7c-.9-1.4-2.2-2.7-3.9-3.8Zm-20.9 0c2.6 1.9 4.4 4.4 5.5 7.4c1 2.8 1.5 6.5 1.5 11.2v9.5h-13.5c-1.4 0-2.4-.3-3.1-.8c-.8-.7-1.2-1.8-1.2-3.3c0-.9 0-1.8 .1-2.9c.1-1 .2-2 .4-3l1.1-.1c.2 .7 .6 1.2 1.1 1.5c.5 .4 1.2 .5 2 .5H1319c-.4-2.9-1.2-5.2-2.4-7c-.9-1.4-2.2-2.7-3.9-3.8Zm-765.2-2c2 0 4 1.8 5.9 5.4c1.8 3.7 2.7 7.5 2.7 11.6v13.1H525.1c-.8 0-1.5 0-1.9 .1c-.4 0-.6 .1-.6 .4c.6 .3 1.2 .5 1.7 .7c.5 .1 .8 .3 1 .5c.1 .2 .2 .5 .2 1c0 1.4-.4 3.1-1.2 5c-.8 2-1.6 3.2-2.4 3.7c-.7 .6-2.9 1.3-6.5 2.1c-3.6 .8-6.8 1.2-9.4 1.2c-3.7 0-6.8-.8-9-2.3c-2.4-1.6-3.5-3.6-3.5-6.1c0-2.4 .5-4.7 1.5-6.9c1.2-2.7 3.5-6.1 6.8-10.1l1.8 1.2c-2.1 2.5-3.5 4.6-4.3 6.2c-.8 1.6-1.2 3.1-1.2 4.7c0 2.1 .9 3.7 2.6 4.7c1.8 1 4.5 1.5 8.2 1.5c1.9 0 4.5-.3 7.9-1c3.4-.7 5.1-1.3 5.1-1.8c0-.3-.7-.5-2-.7c-1.3-.2-2.7-.3-4.2-.3c-2.3 0-3.4-.5-3.4-1.5c0-.4 .2-1.3 .8-2.4c.4-.8 .7-1.7 1.1-2.5c.8-1.6 2.2-2.9 4.3-4c2-1 4.2-1.5 6.5-1.5h30.5c0-1.7 0-2.9-.1-3.7c-.2-1.1-.5-2.1-1-2.9c-.6 1.2-1.5 2.1-2.6 2.8c-1 .7-2.2 1-3.4 1c-1.6 0-2.9-.5-4-1.6c-1.1-1.1-1.7-2.4-1.7-4c0-2.3 .8-5.1 2.2-8.3c1.6-3.5 3.1-5.3 4.8-5.3ZM424 300.9l7 3.6l-3.6 6.7l-7-3.6Zm351.4-1.4l5.6 3.1l-3.1 5.7l-4.4-2.2l-2.6 4.9l-5.4-3.1l3.3-6.1l4.2 2.4Zm-80.3 0l5.6 3.1l-3.1 5.7l-4.4-2.2l-2.6 4.9l-5.4-3.1l3.3-6.1l4.2 2.4Zm-16.5 0l5.6 3.1l-3.1 5.7l-4.4-2.2l-2.6 4.9l-5.4-3.1l3.3-6.1l4.2 2.4Zm397.6-.8l6.9 3.7l-3.6 6.7l-6.9-3.7Zm-429.9 0l6.9 3.7l-3.6 6.7l-7-3.7Zm-505.7 0l7 3.7l-3.6 6.7l-7-3.7Zm1267.7-.5c1.2 1.6 2 3.2 2.5 4.7c.5 1.8 .7 4.2 .7 7v5.8c0 4.2 .3 7.1 .9 8.7c.4 1.3 1.1 1.9 2.1 1.9H1434c1.8 0 3.2-.2 4.3-.6c1.3-.6 2.2-1.6 2.8-2.9c1.1-2.6 2.5-4.6 4.3-6.3c1.6-1.4 2.9-2.1 4-2.1c1 0 2.3 1.5 3.8 4.6c1.5 3.2 2.3 6.2 2.3 8.9v6.5c-2.1 0-4.5-.4-7.3-1.2c-2.5-.7-4.7-1.6-6.6-2.6c-1.1 1.8-2.6 2.9-4.3 3.4c-.8 .3-1.9 .4-3.3 .4h-19.5c-2.4 0-4-.9-5.1-2.8c-1.1-2.1-1.7-5.7-1.7-10.7v-8.5c0-1.9-.3-3.4-.8-4.5c-.3-.5-.9-1.2-1.8-2.2Zm-130 0l1.7 10.6c.7 4 1.2 7.5 1.4 10.4c.2 2.3 .3 4.5 .3 6.6c0 1.7-.2 3.3-.6 4.8c-.4 1.4-1.2 3.4-2.4 5.9l-1.8-.7c.5-2.6 .7-4.6 .7-6.2c0-1.2-.1-3-.3-5.4c-.2-2.3-.4-4.6-.7-6.9c-.3-2.3-.8-5.1-1.5-8.2c-.2-1.2-.4-1.9-.4-2.3c0-.7 .4-1.7 1-3.2c.6-1.5 1.4-3.3 2.6-5.4Zm-136.4 0l1.7 10.6c.7 4 1.2 7.5 1.4 10.4c.2 2.3 .3 4.5 .3 6.6c0 1.7-.2 3.3-.6 4.8c-.4 1.4-1.2 3.4-2.4 5.9l-1.8-.7c.5-2.6 .7-4.6 .7-6.2c0-1.2-.1-3-.3-5.4c-.2-2.3-.4-4.6-.7-6.9c-.3-2.3-.8-5.1-1.5-8.2c-.2-1.2-.4-1.9-.4-2.3c0-.7 .4-1.7 1-3.2c.6-1.5 1.4-3.3 2.6-5.4Zm-181.4 0l1.8 10.6c.7 4 1.1 7.5 1.4 10.4c.2 2.3 .3 4.5 .3 6.6c0 1.7-.2 3.3-.6 4.8c-.4 1.4-1.3 3.4-2.4 5.9l-1.8-.7c.4-2.6 .7-4.6 .7-6.2c0-1.2-.1-3-.3-5.4c-.2-2.3-.5-4.6-.8-6.9c-.3-2.3-.7-5.1-1.4-8.2c-.3-1.2-.4-1.9-.4-2.3c0-.7 .3-1.7 .9-3.2c.7-1.5 1.5-3.3 2.6-5.4Zm-157.3 0l1.8 10.6c.7 4 1.1 7.5 1.4 10.4c.2 2.3 .3 4.5 .3 6.6c0 1.7-.2 3.3-.6 4.8c-.4 1.4-1.3 3.4-2.4 5.9l-1.8-.7c.4-2.6 .7-4.6 .7-6.2c0-1.2-.1-3-.3-5.4c-.2-2.3-.5-4.6-.8-6.9c-.3-2.3-.7-5.1-1.4-8.2c-.3-1.2-.4-1.9-.4-2.3c0-.7 .3-1.7 .9-3.2c.7-1.5 1.5-3.3 2.6-5.4Zm-448.4 0l1.8 10.6c.7 4 1.1 7.5 1.4 10.4c.2 2.3 .3 4.5 .3 6.6c0 1.7-.2 3.3-.7 4.8c-.4 1.4-1.2 3.4-2.4 5.9l-1.8-.7c.5-2.6 .8-4.6 .8-6.2c0-1.2-.2-3-.4-5.4c-.2-2.3-.4-4.6-.7-6.9c-.3-2.3-.8-5.1-1.5-8.2c-.2-1.2-.3-1.9-.3-2.3c0-.7 .3-1.7 .9-3.2c.6-1.5 1.5-3.3 2.6-5.4Zm-148.5 0l1.8 10.6c.7 4 1.1 7.5 1.4 10.4c.2 2.3 .3 4.5 .3 6.6c0 1.7-.2 3.3-.7 4.8c-.4 1.4-1.2 3.4-2.4 5.9l-1.8-.7c.5-2.6 .8-4.6 .8-6.2c0-1.2-.2-3-.4-5.4c-.2-2.3-.4-4.6-.7-6.9c-.3-2.3-.8-5.1-1.5-8.2c-.2-1.2-.3-1.9-.3-2.3c0-.7 .3-1.7 .9-3.2c.6-1.5 1.5-3.3 2.6-5.4Zm826.8-2.3l1.4 .7c0 .1-.1 .4-.1 1c0 .6 .4 1.2 1.2 1.9c.7 .5 1.9 1.1 3.5 1.8c-.2 1.3-.4 2.5-.8 3.7c-.3 1.2-.7 2.3-1.2 3.3l-1-.4l3.2 18.4H1053c2.3 0 4.1-.6 5.3-1.7c1.4-1.4 2.3-3.7 2.7-7l2 .3c-.1 .7-.1 1.3-.1 1.7c-.1 1.3-.1 2.4-.1 3.2c0 1.1 .3 2 .9 2.6c.5 .6 1.3 .9 2.3 .9c1 0 1.9-.2 2.7-.6c.8-.4 2.1-1.2 3.9-2.5l10.7-7.6c1.2-.9 2.2-1.5 2.8-1.9c1.4-.9 2.9-1.3 4.2-1.3c2.2 0 4 .8 5.3 2.4c1.6 1.8 2.4 4.5 2.4 8.2v3.3h1c1.7 0 2.8-.1 3.5-.2c.7-.2 1.6-.6 2.7-1.2c-.6-1.2-1.1-2-1.5-2.5c-.6-.6-1.1-.9-1.7-.9c-.2 0-.4 0-.6 .2c-.2 .1-.4 .4-.7 .8l-1.3-.2c0-3.5 .6-6.1 1.9-7.7c1.2-1.5 3.2-2.3 5.9-2.3c2.7 0 4.9 .6 6.5 1.7c1.6 1 2.3 2.5 2.3 4.4c0 1-.2 2-.6 2.9c-.4 .9-1.2 2.2-2.3 3.8c.3 .4 .6 .7 1.1 .9c.5 .2 .9 .3 1.4 .3h15.1l-3.6-20.2l-1.9-1.3c0-1.2 .2-2.3 .5-3.5c.5-1.5 1.3-3.3 2.4-5.4l1.3 .7c0 .1 0 .4-.1 1c0 .6 .4 1.2 1.3 1.9c.7 .5 1.9 1.1 3.5 1.8c-.2 1.3-.5 2.5-.8 3.7c-.4 1.2-.7 2.3-1.2 3.3l-1.1-.4l3.3 18.4v8.1h-18.7c-1.6 0-3-.3-4.2-.9c-1.2-.7-2.1-1.7-2.9-3.1c-1.3 1.6-2.9 2.7-5 3.4c-1.4 .4-2.9 .6-4.5 .6h-32.6c-1.4 0-2.5-.3-3.4-1c-.8-.7-1.5-1.9-2.1-3.5c-1.3 1.8-2.5 3-3.7 3.6c-.5 .3-1.1 .5-1.8 .7l-.7 .1v.1h-50c-.8 0-1.4-.1-2-.4c-1.2-.6-2.1-1.6-2.9-3.2c-1.1-2.1-1.8-5-2.1-8.6c-1.4 1.6-2.4 2.8-3.2 3.5c-1.1 1-2 1.5-2.7 1.5c-.4 0-.9 0-1.5-.1l-3.6-.8c-1.5-.3-2.5-.5-2.9-.6c-.3-.2-.5-.4-.5-.8c0-.5 .7-2.2 2.1-5.1c1.4-2.8 2.4-4.6 3-5.3c.5-.5 1.4-1.2 2.6-2.1c.8-.5 1.9-1.1 3.2-1.9l1.6-1c0-.2-.1-.5-.1-.8c0-.3 0-.6 0-.8c0-.8 .1-1.7 .5-2.9c.3-1.1 .9-2.5 1.8-4.2l2.9 18.6c.5 2.9 1 4.9 1.8 5.9c.5 .7 1.1 1 2 1h17.4c-.2-1.3-.6-2.5-1.2-3.4c-.3-.5-1-1.4-2.1-2.7l2.4-7.1c1.5 1.7 2.5 3.5 3.1 5.3c.5 1.6 .7 3.9 .8 6.9v1h10.6l-3.6-20.2l-1.9-1.3c0-1.2 .2-2.3 .6-3.5c.4-1.5 1.2-3.3 2.3-5.4Zm-86.4 0l1.4 .7c0 .1 0 .4-.1 1c0 .6 .4 1.2 1.3 1.9c.7 .5 1.9 1.1 3.5 1.8c-.2 1.3-.5 2.5-.8 3.7c-.4 1.2-.8 2.3-1.2 3.3l-1.1-.4l3.3 18.4v8.1H912.5c-2.3 0-4-.9-5-2.8c-1.2-2.1-1.8-5.7-1.8-10.7v-8.5c0-1.9-.2-3.4-.8-4.5c-.2-.5-.8-1.2-1.8-2.2l3.3-7.5c1.1 1.6 1.9 3.2 2.4 4.7c.5 1.8 .8 4.2 .8 7v5.8c0 4.2 .3 7.1 .8 8.7c.4 1.3 1.1 1.9 2.1 1.9h21.4c-.7-.9-1.5-1.7-2.2-2.4c-.6-.6-1.4-1.3-2.5-2.1c-1.1-.8-2.2-1.7-3.3-2.6l-1 1.1c-1.7-1.8-2.8-2.8-3.1-3.2c-1-1.1-1.5-2.4-1.5-3.9c0-2 .1-3.4 .4-4.2c.4-1.2 1.2-2.2 2.5-3.1c1.2-.8 2.4-1.5 3.7-2.2c1.1-.5 2.4-1.1 4.1-1.8c.8-.3 2.5-1 5.1-2V307c-.1 0-1 .3-2.5 .8c-2 .6-3.5 1.2-4.7 1.7c-1.6 .7-2.5 1.2-2.5 1.5c0 .2 .7 .9 2.1 2.3c2 1.9 3.6 3.6 4.9 5.2c2.1 2.5 3.9 5.1 5.3 7.6v.2h10.7l-3.6-20.2l-1.9-1.3c0-1.2 .2-2.3 .5-3.5c.5-1.5 1.2-3.3 2.3-5.4Zm-75.9 0l1.4 .7c0 .1 0 .4-.1 1c0 .6 .4 1.2 1.3 1.9c.7 .5 1.9 1.1 3.5 1.8c-.2 1.3-.5 2.5-.8 3.7c-.4 1.2-.8 2.3-1.2 3.3l-1.1-.4l3.3 18.4h3.8c1.8 0 3.2-.2 4.2-.6c1.4-.6 2.3-1.6 2.8-2.9c1.2-2.6 2.6-4.6 4.4-6.3c1.6-1.4 2.9-2.1 4-2.1c1 0 2.3 1.5 3.7 4.6c1.6 3.2 2.4 6.2 2.4 8.9v6.5c-2.1 0-4.5-.4-7.4-1.2c-2.4-.7-4.6-1.6-6.5-2.6c-1.2 1.8-2.6 2.9-4.3 3.4c-.8 .3-1.9 .4-3.3 .4H847.4c-.8 0-1.4-.1-2-.4c-1.2-.6-2.1-1.6-2.9-3.2c-1.1-2.1-1.8-5-2.1-8.6c-1.4 1.6-2.4 2.8-3.2 3.5c-1.1 1-2 1.5-2.7 1.5c-.4 0-.9 0-1.5-.1l-3.6-.8c-1.5-.3-2.5-.5-2.9-.6c-.3-.2-.5-.4-.5-.8c0-.5 .7-2.2 2.1-5.1c1.4-2.8 2.4-4.6 3-5.3c.5-.5 1.4-1.2 2.6-2.1c.8-.5 1.9-1.1 3.2-1.9l1.6-1c0-.2-.1-.5-.1-.8c0-.3 0-.6 0-.8c0-.8 .1-1.7 .5-2.9c.3-1.1 .9-2.5 1.8-4.2l2.9 18.6c.5 2.9 1 4.9 1.8 5.9c.5 .7 1.1 1 2 1h26.1l-3.6-20.2l-1.9-1.3c0-1.2 .2-2.3 .5-3.5c.5-1.5 1.2-3.3 2.3-5.4Zm-81.4 0l1.4 .7c0 .1 0 .4-.1 1c0 .6 .4 1.2 1.3 1.9c.7 .5 1.9 1.1 3.5 1.8c-.2 1.3-.5 2.5-.8 3.7c-.4 1.2-.8 2.3-1.2 3.3l-1.1-.4l3.3 18.4v8.1H750.3c-.9 0-1.6 0-1.9 .1c-.4 0-.6 .1-.6 .4c.6 .3 1.1 .5 1.6 .7c.5 .1 .8 .3 1 .5c.2 .2 .2 .5 .2 1c0 1.4-.4 3.1-1.2 5c-.8 2-1.6 3.2-2.3 3.7c-.8 .6-3 1.3-6.6 2.1c-3.6 .8-6.7 1.2-9.4 1.2c-3.7 0-6.7-.8-9-2.3c-2.3-1.6-3.5-3.6-3.5-6.1c0-2.4 .5-4.7 1.5-6.9c1.3-2.7 3.5-6.1 6.9-10.1l1.8 1.2c-2.1 2.5-3.6 4.6-4.4 6.2c-.8 1.6-1.2 3.1-1.2 4.7c0 2.1 .9 3.7 2.6 4.7c1.8 1 4.5 1.5 8.2 1.5c1.9 0 4.6-.3 7.9-1c3.4-.7 5.1-1.3 5.1-1.8c0-.3-.7-.5-1.9-.7c-1.3-.2-2.8-.3-4.3-.3c-2.3 0-3.4-.5-3.4-1.5c0-.4 .3-1.3 .8-2.4c.4-.8 .8-1.7 1.2-2.5c.7-1.6 2.1-2.9 4.2-4c2.1-1 4.2-1.5 6.5-1.5h28.4c-.3-1.3-.7-2.5-1.2-3.4c-.3-.5-1-1.4-2.1-2.7l2.4-7.1c1.5 1.7 2.5 3.5 3 5.3c.5 1.6 .8 3.9 .8 6.9v1h10.7l-3.6-20.2l-1.9-1.3c0-1.2 .2-2.3 .5-3.5c.5-1.5 1.2-3.3 2.3-5.4Zm-462.7 0l1.4 .7c0 .1-.1 .4-.1 1c0 .6 .4 1.2 1.2 1.9c.8 .5 1.9 1.1 3.5 1.8c-.1 1.3-.4 2.5-.8 3.7c-.3 1.2-.7 2.3-1.1 3.3l-1.1-.4l3.2 18.4h10.8l-3.6-20.2l-2-1.3c0-1.2 .2-2.3 .6-3.5c.5-1.5 1.2-3.3 2.3-5.4l1.4 .7c0 .1-.1 .4-.1 1c0 .6 .4 1.2 1.2 1.9c.8 .5 1.9 1.1 3.5 1.8c-.1 1.3-.4 2.5-.8 3.7c-.3 1.2-.7 2.3-1.1 3.3l-1.1-.4l3.2 18.4v8.1H250.4c-.7 0-1.4-.1-2-.4c-1.1-.6-2.1-1.6-2.9-3.2c-1-2.1-1.7-5-2.1-8.6c-1.3 1.6-2.4 2.8-3.1 3.5c-1.1 1-2 1.5-2.8 1.5c-.3 0-.8 0-1.4-.1l-3.6-.8c-1.6-.3-2.5-.5-2.9-.6c-.3-.2-.5-.4-.5-.8c0-.5 .7-2.2 2-5.1c1.4-2.8 2.4-4.6 3-5.3c.5-.5 1.4-1.2 2.7-2.1c.8-.5 1.8-1.1 3.2-1.9l1.6-1c-.1-.2-.1-.5-.1-.8c-.1-.3-.1-.6-.1-.8c0-.8 .2-1.7 .5-2.9c.4-1.1 1-2.5 1.9-4.2l2.9 18.6c.4 2.9 1 4.9 1.7 5.9c.5 .7 1.2 1 2 1h20c.5 .1 .9 .1 1.3 .1c2.2 .3 4.7 .5 7.5 .8c-3-.6-5-1.5-6.2-2.6c-1.2-1-1.8-2.6-1.8-4.7c0-3.1 .7-5.9 2.1-8.3c1.5-2.5 3-3.7 4.8-3.7c2 0 3.8 1.7 5.3 5.2c1.5 3.4 2.2 7.6 2.2 12.5v.7h13.6c-.2-1.3-.6-2.5-1.2-3.4c-.3-.5-1-1.4-2.1-2.7l2.4-7.1c1.5 1.7 2.5 3.5 3.1 5.3c.5 1.6 .7 3.9 .8 6.9v1h13.5c-.2-1.3-.6-2.5-1.2-3.4c-.3-.5-1-1.4-2.1-2.7l2.4-7.1c1.5 1.7 2.5 3.5 3.1 5.3c.5 1.6 .7 3.9 .8 6.9v1h10.7l-3.6-20.2l-2-1.3c0-1.2 .2-2.3 .6-3.5c.5-1.5 1.2-3.3 2.3-5.4Zm-134.2 0l1.4 .7c0 .1-.1 .4-.1 1c0 .6 .4 1.2 1.2 1.9c.8 .5 1.9 1.1 3.5 1.8c-.1 1.3-.4 2.5-.8 3.7c-.3 1.2-.7 2.3-1.1 3.3l-1.1-.4l3.2 18.4v8.1H180c-1.6 0-2.9-.3-4.1-.9c-1.2-.7-2.2-1.7-2.9-3.1c-1.3 1.6-3 2.7-5.1 3.4c-1.3 .4-2.8 .6-4.4 .6H130.8c-1.4 0-2.5-.3-3.3-1c-.9-.7-1.6-1.9-2.2-3.5c-1.3 1.8-2.5 3-3.6 3.6c-.6 .3-1.2 .5-1.9 .7l-.7 .1v.1H101.7v-8.1h15.8c2.3 0 4-.6 5.2-1.7c1.4-1.4 2.3-3.7 2.7-7l2 .3c0 .7-.1 1.3-.1 1.7c0 1.3-.1 2.4-.1 3.2c0 1.1 .3 2 .9 2.6c.6 .6 1.4 .9 2.4 .9c.9 0 1.8-.2 2.7-.6c.8-.4 2.1-1.2 3.8-2.5l10.7-7.6c1.3-.9 2.2-1.5 2.9-1.9c1.4-.9 2.8-1.3 4.1-1.3c2.3 0 4.1 .8 5.4 2.4c1.5 1.8 2.3 4.5 2.3 8.2v3.3h1.1c1.6 0 2.8-.1 3.5-.2c.6-.2 1.5-.6 2.6-1.2c-.6-1.2-1.1-2-1.5-2.5c-.5-.6-1.1-.9-1.7-.9c-.2 0-.4 0-.6 .2c-.2 .1-.4 .4-.6 .8l-1.3-.2c0-3.5 .6-6.1 1.8-7.7c1.3-1.5 3.2-2.3 5.9-2.3c2.8 0 4.9 .6 6.5 1.7c1.6 1 2.4 2.5 2.4 4.4c0 1-.2 2-.6 2.9c-.4 .9-1.2 2.2-2.4 3.8c.3 .4 .7 .7 1.1 .9c.5 .2 1 .3 1.4 .3h15.2l-3.6-20.2l-2-1.3c0-1.2 .2-2.3 .6-3.5c.5-1.5 1.2-3.3 2.3-5.4Zm83.3-.3l6.9 3.7l-3.6 6.7l-6.9-3.7Zm971.3-.1l5.6 3.1l-3.1 5.7l-4.4-2.2l-2.5 4.9l-5.5-3.1l3.3-6.1l4.3 2.4Zm-34.9-2l1.3 .6c0 .1 0 .4-.1 .8c0 .7 1 1.5 3 2.4c.6 .4 1.6 .8 2.9 1.3c-.2 1.5-.5 3-.9 4.3c-.3 .7-.7 1.7-1.2 3.2l-1.1-.4c.6 2.8 1 4.9 1.2 6.3c.2 1.3 .4 2.5 .4 3.5v.4c0 .6-.1 1-.1 1.3c0 .4-.1 .9-.3 1.6c1.1-.8 2.1-1.5 3.2-2.3c1.6-1.1 3-2 4.3-2.7c1.7-1 3-1.4 3.8-1.4c2.4 0 4.2 .6 5.7 1.8c1.5 1.4 2.3 3.4 2.3 5.9v6.2h3.3c.9 0 1.7 0 2.5 .1c2.2 .3 4.7 .5 7.5 .8c-2.9-.6-5-1.5-6.2-2.6c-1.2-1-1.8-2.6-1.8-4.7c0-3.1 .8-5.9 2.2-8.3c1.4-2.5 3-3.7 4.8-3.7c2 0 3.7 1.7 5.2 5.2c1.5 3.4 2.3 7.6 2.3 12.5v.7h10.7l-3.6-20.2l-1.9-1.3c0-1.2 .2-2.3 .5-3.5c.5-1.5 1.3-3.3 2.4-5.4l1.3 .7c0 .1 0 .4-.1 1c0 .6 .4 1.2 1.3 1.9c.7 .5 1.9 1.1 3.5 1.8c-.2 1.3-.5 2.5-.8 3.7c-.4 1.2-.7 2.3-1.2 3.3l-1.1-.4l3.3 18.4v8.1H1189c-2.9 0-5.1-.5-6.9-1.7c-1.9-1.2-3.6-3.4-5.1-6.5c-2.2 1.4-4 3.1-5.2 5c-1.2 1.9-1.8 3.8-1.8 5.8c0 3.5 1.6 6.1 4.7 7.8c3.1 1.7 8 2.6 14.7 2.6c1 0 2.1 0 3.3 0c1.1-.1 2.2-.1 3.1-.1l.2 1.3l-11 6.7c-6.4 0-11.1-1.3-14-3.7c-2.9-2.4-4.4-6.2-4.4-11.4c0-3.6 .7-6.9 2.1-9.8c1.4-3 3.6-5.7 6.6-8.3c-.3-1.5-.8-2.3-1.6-2.3c-.4 0-.6 .1-.8 .3c-.2 .3-.5 .6-.7 .8l-1.4-.3c0-2.7 .6-5 1.8-6.8c1.4-2.1 3.4-3.1 5.9-3.1c2.2 0 4 .6 5.5 1.9c1.4 1.2 2.2 2.8 2.2 4.7c0 1.2-.3 2.3-.9 3.4c-.7 1.1-1.6 2-2.7 2.5c1 1.2 2.2 2 3.6 2.6c1 .3 1.9 .5 2.8 .5h17.6c.4 0 1.8-.8 4-2.5c.7-.5 1.8-1.3 3.2-2.5c0-2.4-.1-4.5-.3-6.2c-.2-1.6-.5-3.4-.9-5.2c-.1-.5-.6-2.6-1.6-6.5l-1.7-1.1c.5-2.1 .8-3.6 1.1-4.5c.3-.9 .9-2.3 1.8-4.3Zm-665.1-2.2L554 295l-3.6 6.7l-6.9-3.7Zm449.2-1.4l5.4 2.7l-3.3 5.6l-4.2-2.4l-2.4 4.7l-5.6-3l3.1-5.3l4.4 2.2Zm-157.3 0l5.4 2.7l-3.3 5.6l-4.2-2.4l-2.4 4.7l-5.6-3l3.1-5.3l4.4 2.2Zm-596.9 0l5.3 2.7l-3.2 5.6l-4.3-2.4l-2.4 4.7l-5.5-3l3.1-5.3l4.4 2.2Z" class="g1_69"/>
<path fill-rule="evenodd" d="M83.5 336.6l5.6 3.1L86 345.4l-4.4-2.2L79 348.1L73.6 345l3.3-6l4.2 2.3ZM60.8 314c-.6 .3-1.1 .5-1.5 .7c-1.1 .6-1.9 1.1-2.6 1.6c-.5 .4-.9 .8-1.2 1.1c-.4 .5-.6 .8-.6 1c0 .3 .4 .5 1.1 .7c.7 .1 1.3 .2 2 .2c.4 0 .9-.1 1.4-.4c.5-.2 1.1-.7 2-1.3Zm36.7-18.1l1.4 .7c0 .1 0 .4-.1 1c0 .6 .4 1.2 1.2 1.9c.8 .5 2 1.1 3.6 1.8c-.2 1.3-.5 2.5-.8 3.7c-.4 1.2-.8 2.3-1.2 3.3l-1.1-.4l3.3 18.4v8.1H69.1c-.7 0-1.4-.1-2-.4c-1.1-.6-2.1-1.6-2.9-3.2c-1.1-2.1-1.8-5-2.1-8.6c-1.3 1.6-2.4 2.8-3.1 3.5c-1.1 1-2 1.5-2.8 1.5c-.4 0-.8 0-1.4-.1l-3.6-.8c-1.6-.3-2.5-.5-2.9-.6c-.4-.2-.5-.4-.5-.8c0-.5 .6-2.2 2-5.1c1.4-2.8 2.4-4.6 3-5.3c.5-.5 1.4-1.2 2.7-2.1c.7-.5 1.8-1.1 3.2-1.9l1.6-1c-.1-.2-.1-.5-.2-.8c0-.3 0-.6 0-.8c0-.8 .2-1.7 .5-2.9c.4-1.1 1-2.5 1.9-4.2l2.8 18.6c.5 2.9 1.1 4.9 1.8 5.9c.5 .7 1.2 1 2 1H86.6c-.3-1.3-.7-2.5-1.2-3.4c-.3-.5-1-1.4-2.1-2.7l2.4-7.1c1.5 1.7 2.5 3.5 3 5.3c.5 1.6 .8 3.9 .8 6.9v1h10.7l-3.6-20.2l-1.9-1.3c0-1.2 .2-2.3 .5-3.5c.5-1.5 1.3-3.3 2.3-5.4Zm-36.7-6l5.3 2.7l-3.3 5.6l-4.2-2.4l-2.4 4.7l-5.5-3l3.1-5.3l4.4 2.2Z" class="g0_69"/>
<path d="M83.5 336.6l5.6 3.1L86 345.4l-4.4-2.2L79 348.1L73.6 345l3.3-6l4.2 2.3ZM60.8 314c-.6 .3-1.1 .5-1.5 .7c-1.1 .6-1.9 1.1-2.6 1.6c-.5 .4-.9 .8-1.2 1.1c-.4 .5-.6 .8-.6 1c0 .3 .4 .5 1.1 .7c.7 .1 1.3 .2 2 .2c.4 0 .9-.1 1.4-.4c.5-.2 1.1-.7 2-1.3Zm36.7-18.1l1.4 .7c0 .1 0 .4-.1 1c0 .6 .4 1.2 1.2 1.9c.8 .5 2 1.1 3.6 1.8c-.2 1.3-.5 2.5-.8 3.7c-.4 1.2-.8 2.3-1.2 3.3l-1.1-.4l3.3 18.4v8.1H69.1c-.7 0-1.4-.1-2-.4c-1.1-.6-2.1-1.6-2.9-3.2c-1.1-2.1-1.8-5-2.1-8.6c-1.3 1.6-2.4 2.8-3.1 3.5c-1.1 1-2 1.5-2.8 1.5c-.4 0-.8 0-1.4-.1l-3.6-.8c-1.6-.3-2.5-.5-2.9-.6c-.4-.2-.5-.4-.5-.8c0-.5 .6-2.2 2-5.1c1.4-2.8 2.4-4.6 3-5.3c.5-.5 1.4-1.2 2.7-2.1c.7-.5 1.8-1.1 3.2-1.9l1.6-1c-.1-.2-.1-.5-.2-.8c0-.3 0-.6 0-.8c0-.8 .2-1.7 .5-2.9c.4-1.1 1-2.5 1.9-4.2l2.8 18.6c.5 2.9 1.1 4.9 1.8 5.9c.5 .7 1.2 1 2 1H86.6c-.3-1.3-.7-2.5-1.2-3.4c-.3-.5-1-1.4-2.1-2.7l2.4-7.1c1.5 1.7 2.5 3.5 3 5.3c.5 1.6 .8 3.9 .8 6.9v1h10.7l-3.6-20.2l-1.9-1.3c0-1.2 .2-2.3 .5-3.5c.5-1.5 1.3-3.3 2.3-5.4Zm-36.7-6l5.3 2.7l-3.3 5.6l-4.2-2.4l-2.4 4.7l-5.5-3l3.1-5.3l4.4 2.2Z" class="g1_69"/>
<path fill-rule="evenodd" d="M1366.8 421.5l3.8 2.4l-3 3.3l-3.1-1.9l-2.4 2.5l-3.7-2.1l2.8-3.6l3.3 2.1Zm-47.3-22.4c1 0 1.9 .3 2.6 1.1c.7 .7 1 1.6 1 2.6c0 1-.3 1.9-1.1 2.6c-.7 .7-1.6 1.1-2.6 1.1c-1 0-1.8-.4-2.5-1.1c-.8-.7-1.1-1.6-1.1-2.6c0-1 .3-1.9 1.1-2.6c.7-.8 1.6-1.1 2.6-1.1Zm.5-27.7c2.4 0 4.4 .7 6 2.1c1.7 1.3 2.5 3.1 2.5 5.3c0 1.2-.3 2.3-1 3.3c-.8 1-1.9 1.5-3.2 1.5c-1 0-1.8-.3-2.4-1c-.7-.6-1-1.4-1-2.2c0-1.4 .5-2.4 1.6-3.1c1.1-.7 1.7-1.2 1.7-1.7c0-.6-.3-1.2-1-1.6c-.6-.4-1.5-.6-2.5-.6c-1.3 0-2.4 .3-3.2 1.1c-.8 .7-1.2 1.6-1.2 2.6c0 1 .4 2.2 1.2 3.8c1.3 2.3 2.1 3.7 2.4 4.4c.8 2.1 1.2 4.4 1.2 6.8c0 1.3-.1 2.8-.3 4.4H1319c0-.4 0-.7 0-.9l.2-1.5c0-1.1-.7-2.3-2.2-3.6c-2.5-2.3-3.9-3.5-4.1-3.8c-1.5-1.8-2.3-3.8-2.3-6c0-2.7 .9-4.9 2.7-6.6c1.8-1.8 4-2.7 6.7-2.7Zm102-.2l5.6 3l-3.1 5.8l-4.4-2.2l-2.5 4.8l-5.5-3l3.3-6.1l4.3 2.4Zm27.9-1.3l1.7 10.6c.7 4 1.2 7.5 1.4 10.4c.2 2.3 .3 4.4 .3 6.5c0 1.8-.2 3.4-.6 4.9c-.4 1.4-1.2 3.4-2.4 5.9l-1.8-.8c.5-2.5 .7-4.6 .7-6.2c0-1.2-.1-2.9-.3-5.3c-.2-2.3-.4-4.7-.7-6.9c-.3-2.4-.8-5.1-1.5-8.3c-.2-1.1-.4-1.8-.4-2.3c0-.6 .4-1.6 1-3.1c.6-1.5 1.4-3.3 2.6-5.4Zm-13.8-2.3l1.3 .7c0 .1 0 .4-.1 .9c0 .7 .4 1.3 1.3 1.9c.7 .6 1.9 1.2 3.5 1.9c-.2 1.3-.5 2.5-.8 3.7c-.4 1.2-.7 2.3-1.2 3.3l-1.1-.5l3.3 18.5v8.1h-35c-2.3 0-4-.9-5-2.9c-1.2-2.1-1.8-5.6-1.8-10.6v-8.5c0-1.9-.2-3.4-.7-4.5c-.3-.5-.9-1.3-1.8-2.2l3.2-7.5c1.1 1.6 1.9 3.2 2.4 4.7c.5 1.8 .8 4.1 .8 6.9v5.9c0 4.2 .3 7.1 .8 8.7c.5 1.2 1.2 1.9 2.1 1.9h17.8c-.2-1.4-.6-2.5-1.2-3.4c-.3-.5-1-1.4-2.1-2.7l2.4-7.1c1.5 1.7 2.5 3.5 3 5.3c.5 1.6 .8 3.9 .8 6.9l.1 1h10.6l-3.6-20.2l-1.9-1.3c0-1.2 .2-2.3 .5-3.5c.5-1.6 1.3-3.4 2.4-5.4Zm-45.1 0l1.3 .7c0 .1 0 .4-.1 .9c0 .7 .4 1.3 1.3 1.9c.7 .6 1.9 1.2 3.5 1.9c-.2 1.3-.5 2.5-.8 3.7c-.4 1.2-.7 2.3-1.2 3.3l-1.1-.5l3.3 18.5v8.1h-17.4c-.8 0-1.5 0-1.9 .1c-.4 0-.6 .1-.6 .4c.6 .3 1.2 .5 1.7 .7c.5 .1 .8 .3 1 .5c.1 .2 .2 .5 .2 1c0 1.4-.4 3.1-1.2 5c-.8 2-1.6 3.2-2.4 3.7c-.7 .6-2.9 1.3-6.5 2.1c-3.6 .8-6.8 1.2-9.4 1.2c-3.7 0-6.8-.8-9-2.3c-2.4-1.6-3.5-3.6-3.5-6.1c0-2.4 .5-4.7 1.5-6.9c1.2-2.7 3.5-6.1 6.8-10.2l1.8 1.3c-2.1 2.5-3.5 4.6-4.3 6.2c-.8 1.6-1.2 3.1-1.2 4.6c0 2.2 .9 3.8 2.6 4.8c1.8 1 4.5 1.5 8.2 1.5c1.9 0 4.5-.3 7.9-1c3.4-.7 5.1-1.3 5.1-1.8c0-.3-.7-.5-2-.7c-1.3-.2-2.7-.3-4.2-.3c-2.3 0-3.4-.5-3.4-1.5c0-.5 .2-1.3 .8-2.4c.4-.9 .7-1.7 1.1-2.5c.8-1.6 2.2-3 4.3-4c2-1 4.2-1.5 6.5-1.5h13.9l-3.6-20.2l-1.9-1.3c0-1.2 .2-2.3 .5-3.5c.5-1.6 1.3-3.4 2.4-5.4Z" class="g0_69"/>
<path d="M1366.8 421.5l3.8 2.4l-3 3.3l-3.1-1.9l-2.4 2.5l-3.7-2.1l2.8-3.6l3.3 2.1Zm-47.3-22.4c1 0 1.9 .3 2.6 1.1c.7 .7 1 1.6 1 2.6c0 1-.3 1.9-1.1 2.6c-.7 .7-1.6 1.1-2.6 1.1c-1 0-1.8-.4-2.5-1.1c-.8-.7-1.1-1.6-1.1-2.6c0-1 .3-1.9 1.1-2.6c.7-.8 1.6-1.1 2.6-1.1Zm.5-27.7c2.4 0 4.4 .7 6 2.1c1.7 1.3 2.5 3.1 2.5 5.3c0 1.2-.3 2.3-1 3.3c-.8 1-1.9 1.5-3.2 1.5c-1 0-1.8-.3-2.4-1c-.7-.6-1-1.4-1-2.2c0-1.4 .5-2.4 1.6-3.1c1.1-.7 1.7-1.2 1.7-1.7c0-.6-.3-1.2-1-1.6c-.6-.4-1.5-.6-2.5-.6c-1.3 0-2.4 .3-3.2 1.1c-.8 .7-1.2 1.6-1.2 2.6c0 1 .4 2.2 1.2 3.8c1.3 2.3 2.1 3.7 2.4 4.4c.8 2.1 1.2 4.4 1.2 6.8c0 1.3-.1 2.8-.3 4.4H1319c0-.4 0-.7 0-.9l.2-1.5c0-1.1-.7-2.3-2.2-3.6c-2.5-2.3-3.9-3.5-4.1-3.8c-1.5-1.8-2.3-3.8-2.3-6c0-2.7 .9-4.9 2.7-6.6c1.8-1.8 4-2.7 6.7-2.7Zm102-.2l5.6 3l-3.1 5.8l-4.4-2.2l-2.5 4.8l-5.5-3l3.3-6.1l4.3 2.4Zm27.9-1.3l1.7 10.6c.7 4 1.2 7.5 1.4 10.4c.2 2.3 .3 4.4 .3 6.5c0 1.8-.2 3.4-.6 4.9c-.4 1.4-1.2 3.4-2.4 5.9l-1.8-.8c.5-2.5 .7-4.6 .7-6.2c0-1.2-.1-2.9-.3-5.3c-.2-2.3-.4-4.7-.7-6.9c-.3-2.4-.8-5.1-1.5-8.3c-.2-1.1-.4-1.8-.4-2.3c0-.6 .4-1.6 1-3.1c.6-1.5 1.4-3.3 2.6-5.4Zm-13.8-2.3l1.3 .7c0 .1 0 .4-.1 .9c0 .7 .4 1.3 1.3 1.9c.7 .6 1.9 1.2 3.5 1.9c-.2 1.3-.5 2.5-.8 3.7c-.4 1.2-.7 2.3-1.2 3.3l-1.1-.5l3.3 18.5v8.1h-35c-2.3 0-4-.9-5-2.9c-1.2-2.1-1.8-5.6-1.8-10.6v-8.5c0-1.9-.2-3.4-.7-4.5c-.3-.5-.9-1.3-1.8-2.2l3.2-7.5c1.1 1.6 1.9 3.2 2.4 4.7c.5 1.8 .8 4.1 .8 6.9v5.9c0 4.2 .3 7.1 .8 8.7c.5 1.2 1.2 1.9 2.1 1.9h17.8c-.2-1.4-.6-2.5-1.2-3.4c-.3-.5-1-1.4-2.1-2.7l2.4-7.1c1.5 1.7 2.5 3.5 3 5.3c.5 1.6 .8 3.9 .8 6.9l.1 1h10.6l-3.6-20.2l-1.9-1.3c0-1.2 .2-2.3 .5-3.5c.5-1.6 1.3-3.4 2.4-5.4Zm-45.1 0l1.3 .7c0 .1 0 .4-.1 .9c0 .7 .4 1.3 1.3 1.9c.7 .6 1.9 1.2 3.5 1.9c-.2 1.3-.5 2.5-.8 3.7c-.4 1.2-.7 2.3-1.2 3.3l-1.1-.5l3.3 18.5v8.1h-17.4c-.8 0-1.5 0-1.9 .1c-.4 0-.6 .1-.6 .4c.6 .3 1.2 .5 1.7 .7c.5 .1 .8 .3 1 .5c.1 .2 .2 .5 .2 1c0 1.4-.4 3.1-1.2 5c-.8 2-1.6 3.2-2.4 3.7c-.7 .6-2.9 1.3-6.5 2.1c-3.6 .8-6.8 1.2-9.4 1.2c-3.7 0-6.8-.8-9-2.3c-2.4-1.6-3.5-3.6-3.5-6.1c0-2.4 .5-4.7 1.5-6.9c1.2-2.7 3.5-6.1 6.8-10.2l1.8 1.3c-2.1 2.5-3.5 4.6-4.3 6.2c-.8 1.6-1.2 3.1-1.2 4.6c0 2.2 .9 3.8 2.6 4.8c1.8 1 4.5 1.5 8.2 1.5c1.9 0 4.5-.3 7.9-1c3.4-.7 5.1-1.3 5.1-1.8c0-.3-.7-.5-2-.7c-1.3-.2-2.7-.3-4.2-.3c-2.3 0-3.4-.5-3.4-1.5c0-.5 .2-1.3 .8-2.4c.4-.9 .7-1.7 1.1-2.5c.8-1.6 2.2-3 4.3-4c2-1 4.2-1.5 6.5-1.5h13.9l-3.6-20.2l-1.9-1.3c0-1.2 .2-2.3 .5-3.5c.5-1.6 1.3-3.4 2.4-5.4Z" class="g1_69"/>
<image clip-path="url(#c1_69)" preserveAspectRatio="none" x="1344" y="457" width="108" height="72" href="img/2.jpg"/>
<image clip-path="url(#c2_69)" preserveAspectRatio="none" x="1347" y="550" width="102" height="71" href="img/3.jpg"/>
<image clip-path="url(#c3_69)" preserveAspectRatio="none" x="1347" y="642" width="102" height="74" href="img/4.jpg"/>
<image clip-path="url(#c4_69)" preserveAspectRatio="none" x="1353" y="745" width="96" height="80" href="img/5.jpg"/>
<image clip-path="url(#c5_69)" preserveAspectRatio="none" x="19" y="530" width="1024" height="236" href="img/6.jpg"/>
<path d="M1240.4 552.6c0-8.5 7-15.4 15.5-15.4h195.3c8.5 0 15.5 6.9 15.5 15.4v61.9c0 8.5-7 15.4-15.5 15.4H1255.9c-8.5 0-15.5-6.9-15.5-15.4Z" class="g2_69"/>
</svg>