<svg viewBox="0 0 1466 825" version="1.1" xmlns="http://www.w3.org/2000/svg">
<defs>
<clipPath id="c0_15"><path d="M-.2 825.3V-.2H1467V825.3Z"/></clipPath>
<clipPath id="c1_15"><path d="M1343.9 529.1V456.4H1452v72.7Z"/></clipPath>
<clipPath id="c2_15"><path d="M1346.3 621.3V549.7h102.9v71.6Z"/></clipPath>
<clipPath id="c3_15"><path d="M1346.4 716.6V641.9h103v74.7Z"/></clipPath>
<clipPath id="c4_15"><path d="M1353 825V744.6h96.2V825Z"/></clipPath>
<style>
.g0_15{fill:#F00;}
.g1_15{fill:none;stroke:#000;stroke-width:1.466;stroke-linejoin:round;}
</style>
</defs>
<image clip-path="url(#c0_15)" preserveAspectRatio="none" x="0" y="-7" width="1467" height="840" href="img/1.jpg"/>
<path fill-rule="evenodd" d="M1403.6 257.2l6.3 3.3l-3.2 6l-6.3-3.2Zm-293.4-.3l6.2 3.3l-3.2 6.1l-6.3-3.3Zm-313.5 0l6.2 3.3l-3.2 6.1l-6.3-3.3Zm-14.9 0l6.3 3.3l-3.3 6.1l-6.2-3.3Zm604-.3l5 2.8l-2.8 5.2l-4-2l-2.3 4.3l-4.9-2.7l3-5.5l3.8 2.2Zm-536.3 0l5 2.8l-2.8 5.2l-4-2l-2.2 4.3l-4.9-2.7l2.9-5.5l3.9 2.2Zm-93.8 0l5 2.8l-2.8 5.2l-4-2l-2.3 4.3l-4.9-2.7l3-5.5l3.8 2.2ZM1253.3 243c-.6 0-1 .3-1.4 .7c-.3 .4-.5 .9-.5 1.4c0 .7 .4 1.2 1.1 1.6c.7 .4 1.6 .6 2.8 .6h1c-.5-2.8-1.5-4.3-3-4.3ZM656 243c-.6 0-1 .3-1.4 .7c-.3 .4-.5 .9-.5 1.4c0 .7 .4 1.2 1.1 1.6c.7 .4 1.6 .6 2.8 .6h1c-.5-2.8-1.5-4.3-3-4.3Zm666.3-.1c-.7 0-1.3 .8-1.8 2.4c1 .3 1.7 .6 2.1 .8c1.5 .5 2.3 .8 2.5 .8c.4 0 .6-.1 .6-.4c0-.4-.4-1.1-1.2-2c-.8-1.1-1.6-1.6-2.2-1.6Zm-738.7 0c-.6 0-1.2 .8-1.7 2.4c.9 .3 1.6 .6 2.1 .8c1.4 .5 2.3 .8 2.4 .8c.4 0 .6-.1 .6-.4c0-.4-.3-1.1-1.1-2c-.9-1.1-1.6-1.6-2.3-1.6Zm50.8-5.6c1.2 2.3 2 3.9 2.3 4.7c.5 1.6 .8 3.6 .8 6v5.3c0 2.5-.3 4.5-.8 6c-.4 1.5-1.2 2.7-2.3 3.6c-1.1 .9-2.7 1.7-4.8 2.2c-2.2 .6-4.4 .9-6.6 .9c-4.4 0-7.7-.8-10.1-2.4c-2.3-1.5-3.5-3.8-3.5-6.7c0-2.5 .4-4.8 1.1-6.8c.8-2.3 2.4-5.3 4.9-8.9l1.6 1.1c-1.8 3.1-3 5.2-3.5 6.6c-.6 1.4-.8 2.8-.8 4.2c0 1.9 1 3.4 3 4.6c2 1.2 4.6 1.8 7.9 1.8c3.2 0 6-.6 8.2-1.8c2.2-1.3 3.3-2.8 3.3-4.6c0-1.1-.2-2.2-.6-3.3c-.4-1.1-1.2-2.8-2.5-5.2Zm-47.9-.7c1 0 2.1 1.4 3.4 4.1c1.4 2.9 2.1 5.6 2.1 8.1v5.8c-1.8 0-4-.3-6.6-1.1c-2.2-.6-4.2-1.4-5.9-2.3c-1 1.6-2.3 2.6-3.8 3.1c-.8 .2-1.8 .3-3 .3h-3.4l-.1 .5c-.1 1.7-.3 3.1-.7 4.2c-.4 1.5-1.2 2.7-2.3 3.6c-1.1 .9-2.7 1.7-4.8 2.2c-2.2 .6-4.4 .9-6.6 .9c-4.4 0-7.7-.8-10.1-2.4c-2.3-1.5-3.5-3.8-3.5-6.7c0-2.5 .4-4.8 1.1-6.8c.8-2.3 2.4-5.3 4.9-8.9l1.6 1.1c-1.8 3.1-3 5.2-3.5 6.6c-.6 1.4-.8 2.8-.8 4.2c0 1.9 1 3.4 3 4.6c2 1.2 4.6 1.8 7.9 1.8c3.2 0 6-.6 8.2-1.8c2.2-1.3 3.3-2.8 3.3-4.6c0-1.1-.2-2.2-.6-3.3c-.4-1.1-1.2-2.8-2.5-5.2l2.4-7.3c1.2 2.3 2 3.9 2.3 4.7c.4 1.4 .7 3.1 .8 5.1v.2h3.4c1.6 0 2.9-.2 3.8-.5c1.2-.5 2.1-1.4 2.5-2.6c1.1-2.3 2.3-4.2 4-5.7c1.4-1.3 2.6-1.9 3.5-1.9Zm344.5-.3c-.5 .2-1 .4-1.3 .6c-1 .5-1.8 1-2.4 1.4c-.4 .4-.7 .7-1 1c-.4 .4-.6 .7-.6 .9c0 .3 .3 .5 1 .6c.6 .2 1.2 .2 1.8 .2c.4 0 .8-.1 1.3-.3c.4-.2 1-.6 1.8-1.2Zm339.9-.9c1.4 1.6 2.3 3.2 2.8 4.8c.4 1.5 .6 3.6 .7 6.3v.8h1.9c1.9 0 3.4-.5 4.7-1.5c1.6-1.4 2.4-3.5 2.4-6.3l1.8 .3c0 .5-.1 1.2-.1 1.9c0 .7-.1 1.6-.1 2.5c0 .9 .4 1.6 1 2.2c.6 .6 1.3 .9 2.1 .9h3.3c2.2 0 3.8-.3 4.7-.9c1.1-.7 1.7-2.1 1.7-4.1c0-.4 .1-.8 .4-1.1c.2-.2 .5-.5 1-.9l1-.8c0 .3 .1 .8 .1 1.4c0 .6 0 .9 0 1.1c0 1-.1 2.3-.4 3.9c.7 .3 1.4 .6 2.2 .9c.9 .2 1.7 .4 2.6 .5c0-.6-.2-1.4-.6-2.4c-.5-.9-.7-1.6-.7-1.9c0-.5 0-.8 .2-1.1c0-.1 .2-.4 .6-.8l2.2-3.1c.5 1.1 .9 2.1 1.1 3.1c.2 .9 .3 2 .3 3.4v2.8h3.5c1.6 0 2.9-.2 3.9-.5c1.2-.5 2-1.4 2.5-2.6c1-2.3 2.3-4.2 3.9-5.7c1.4-1.3 2.6-1.9 3.6-1.9c.9 0 2 1.4 3.4 4.1c1.4 2.9 2.1 5.6 2.1 8.1v5.8c-1.9 0-4.1-.3-6.6-1.1c-2.3-.6-4.2-1.4-5.9-2.3c-1.1 1.6-2.4 2.6-3.9 3.1c-.7 .2-1.7 .3-3 .3H1306l-1-.1c-.8 0-1.5-.1-2.2-.3c-1.3-.3-2.6-.7-3.9-1.3c-1.1 .7-2 1.2-2.8 1.4c-.8 .2-2 .3-3.7 .3h-4.3c-1.3 0-2.2-.3-2.9-.9c-.7-.6-1.3-1.6-1.9-3.1c-1 1.5-2.1 2.6-3.3 3.2c-1 .6-2.3 .8-3.7 .8h-17.2l-.5 2.8c-.7 1.5-1.7 3-3 4.5c-2.6 3-5.2 4.5-7.7 4.5c-1.5 0-3.1-.4-4.9-1.4c-1.8-.9-4.5-2.8-8.1-5.6l1.1-1.6c1.9 1.3 3.5 2.2 4.8 2.6c1 .4 2.1 .6 3.4 .6c1.8 0 3.5-.5 5.2-1.5c2-1.1 4.1-3 6.2-5.5c-.7 .1-1.4 .1-1.9 .1c-1.7 0-3.1-.5-4.2-1.7c-1-1.1-1.6-2.7-1.6-4.7c0-2.7 .7-5.3 1.9-7.8c1.3-2.7 2.9-4 4.6-4c1.4 0 2.6 1 3.6 2.9c1 2 1.5 4.3 1.5 7.1v1.4h12.2c-.2-1.2-.5-2.2-1-3c-.3-.5-.9-1.3-1.9-2.5ZM1402 235c1.2 0 2.3 .3 3.4 .8c1.1 .6 2.3 1.5 3.7 2.8c1.1 1 2.6 2.6 4.5 4.7c1.4 1.5 2.4 2.5 3.1 2.9c.7 .5 1.8 .8 3.2 1.1v7.3h-43.6v.5c-.1 1.7-.4 3.1-.7 4.2c-.5 1.5-1.3 2.7-2.4 3.6c-1.1 .9-2.7 1.7-4.8 2.2c-2.1 .6-4.3 .9-6.6 .9c-4.3 0-7.7-.8-10.1-2.4c-2.3-1.5-3.5-3.8-3.5-6.7c0-2.5 .4-4.8 1.1-6.8c.9-2.3 2.5-5.3 4.9-8.9l1.6 1.1c-1.8 3.1-2.9 5.2-3.5 6.6c-.5 1.4-.8 2.8-.8 4.2c0 1.9 1 3.4 3 4.6c2 1.2 4.7 1.8 8 1.8c3.2 0 5.9-.6 8.1-1.8c2.2-1.3 3.3-2.8 3.3-4.6c0-1.1-.2-2.2-.6-3.3c-.4-1.1-1.2-2.8-2.5-5.2l2.4-7.3c1.3 2.3 2 3.9 2.3 4.7c.5 1.4 .7 3.1 .8 5.1v.2h12.2c-.2-1.2-.5-2.2-1.1-3c-.2-.5-.9-1.3-1.9-2.5l2.2-6.4c1.3 1.6 2.3 3.2 2.7 4.8c.5 1.5 .7 3.6 .8 6.3v.8h17.1c-2.1-2.2-4.1-3.8-6-4.8c-1.6-.9-3.2-1.3-4.8-1.3c-.4 0-.9 0-1.2 .1c-.4 0-1 .1-1.7 .3c1-2.3 2-3.9 3.3-5c1.2-1.1 2.5-1.6 4.1-1.6Zm-338.8-.5c1.2 0 2.4 .3 3.3 .8c1 .5 2 1.5 3.2 2.9l-3.6 6c-.9-1-1.7-1.7-2.4-2.1c-.7-.5-1.4-.7-2.1-.7c-.5 0-1 .2-1.5 .5c-.4 .3-.6 .7-.6 1.1c0 .5 .3 1.1 1.1 1.8c.7 .6 2 1.3 3.8 2.3c2.2-1.1 3.9-1.8 5-2.1c1.2-.3 2.6-.6 4.5-.7l-2.2 6.1c-2.8 .7-5 1.5-6.8 2.3c-1.7 .8-3.2 1.9-4.5 3.1c-.9 .8-2.3 2.2-4 4.2l-1.6-.6c0-1.2 .3-2.4 .9-3.6c.5-.9 1.3-2.1 2.5-3.6c-1.7-1.7-2.8-3-3.3-3.7c-.6-.8-.9-1.5-.9-2.3c0-1 .7-2.7 2.1-5.2c1.4-2.5 2.6-4.2 3.6-5.1c1-1 2.1-1.4 3.5-1.4Zm113.9-3.4c2 0 3.9 .6 5.7 2c1.6 1.2 2.8 2.7 3.6 4.4l-1.1 1c-1.4-.6-2.5-.9-3.4-1.1c-.8-.2-1.8-.2-3.1-.2c-2.2 0-4.1 .2-5.7 .5c-2.1 .5-3.1 1.1-3.1 1.9c0 1.3 2.5 3.3 7.5 6.2l13.6-4l-3 7.7c-4.8 1.5-8.8 2.6-12 3.4c-2.7 .7-5 1.2-6.9 1.5c-1.4 .2-2.8 .2-4.2 .2h-.5v.5c-.1 1.7-.3 3.1-.7 4.2c-.4 1.5-1.2 2.7-2.3 3.6c-1.1 .9-2.8 1.7-4.9 2.2c-2.1 .6-4.3 .9-6.5 .9c-4.4 0-7.7-.8-10.1-2.4c-2.4-1.5-3.5-3.8-3.5-6.7c0-2.5 .4-4.8 1.1-6.8c.8-2.3 2.4-5.3 4.8-8.9l1.6 1.1c-1.7 3.1-2.9 5.2-3.4 6.6c-.6 1.4-.8 2.8-.8 4.2c0 1.9 1 3.4 3 4.6c2 1.2 4.6 1.8 7.9 1.8c3.2 0 5.9-.6 8.2-1.8c2.2-1.3 3.2-2.8 3.2-4.6c0-1.1-.1-2.2-.5-3.3c-.4-1.1-1.2-2.8-2.5-5.2l2.3-7.3c1.3 2.3 2.1 3.9 2.4 4.7c.4 1.4 .7 3.1 .7 5.1v.2h1c.5 0 .9 0 1.2 0c.5 0 1-.1 1.6-.1c-.9-1.4-1.5-2.5-1.8-3.3c-.3-.8-.5-1.8-.5-2.8c0-2.7 1.1-5 3.3-7c2.2-2 4.8-3 7.8-3Zm-309.7-1.8c2.3 1.7 4 3.9 5 6.7c.9 2.5 1.3 5.9 1.3 10v1.3h1.1c.5 0 .9 0 1.1 0c.6 0 1.1-.1 1.6-.1c-.9-1.4-1.5-2.5-1.8-3.3c-.3-.8-.5-1.8-.5-2.8c0-2.7 1.1-5 3.4-7c2.2-2 4.8-3 7.7-3c2 0 3.9 .6 5.7 2c1.7 1.2 2.9 2.7 3.7 4.4l-1.2 1c-1.4-.6-2.5-.9-3.3-1.1c-.9-.2-1.9-.2-3.1-.2c-2.2 0-4.2 .2-5.8 .5c-2.1 .5-3.1 1.1-3.1 1.9c0 1.3 2.5 3.3 7.5 6.2l13.6-4l-3 7.7c-4.8 1.5-8.8 2.6-11.9 3.4c-2.8 .7-5.1 1.2-7 1.5c-1.3 .2-2.7 .2-4.1 .2H861.5c-1.1 0-2-.2-2.7-.7c-.7-.6-1.1-1.6-1.1-3c0-.8 0-1.6 .1-2.5c.1-.9 .2-1.9 .4-2.8l1-.1c.1 .7 .4 1.1 .9 1.4c.5 .3 1.1 .4 1.8 .4h9.3c-.5-2.6-1.2-4.7-2.2-6.3c-.8-1.3-2-2.4-3.5-3.3Zm-33.7 0c2.3 1.7 4 3.9 4.9 6.7c.9 2.5 1.4 5.9 1.4 10v1.3h12.3c-.2-1.2-.6-2.2-1.1-3c-.3-.5-.9-1.3-1.9-2.5l2.1-6.4c1.4 1.6 2.3 3.2 2.8 4.8c.5 1.7 .7 4.2 .7 7.5v6.9H827.8c-1.2 0-2.1-.2-2.7-.7c-.8-.6-1.2-1.6-1.2-3c0-.8 .1-1.6 .2-2.5c0-.9 .2-1.9 .3-2.8l1-.1c.2 .7 .5 1.1 1 1.4c.5 .3 1.1 .4 1.8 .4h9.2c-.4-2.6-1.1-4.7-2.1-6.3c-.9-1.3-2-2.4-3.5-3.3Zm-93.9 0c2.3 1.7 4 3.9 5 6.7c.9 2.5 1.3 5.9 1.3 10v1.3h12.3c-.2-1.2-.6-2.2-1.1-3c-.3-.5-.9-1.3-1.9-2.5l2.2-6.4c1.3 1.6 2.2 3.2 2.7 4.8c.5 1.5 .7 3.6 .8 6.3v.8h12.1c-.2-1.2-.5-2.2-1-3c-.3-.5-.9-1.3-1.9-2.5l2.1-6.4c1.4 1.6 2.3 3.2 2.8 4.8c.4 1.5 .7 3.6 .7 6.3v.8h12.2c-.2-1.2-.6-2.2-1.1-3c-.3-.5-.9-1.3-1.9-2.5l2.2-6.4c1.3 1.6 2.2 3.2 2.7 4.8c.5 1.5 .7 3.6 .8 6.3v.8h12.1c-.2-1.2-.5-2.2-1-3c-.3-.5-.9-1.3-1.9-2.5l2.1-6.4c1.4 1.6 2.3 3.2 2.8 4.8c.5 1.7 .7 4.2 .7 7.5v6.9H733.9c-1.1 0-2-.2-2.7-.7c-.7-.6-1.1-1.6-1.1-3c0-.8 0-1.6 .1-2.5c.1-.9 .2-1.9 .4-2.8l1-.1c.1 .7 .4 1.1 .9 1.4c.5 .3 1.1 .4 1.8 .4h9.3c-.5-2.6-1.2-4.7-2.2-6.3c-.8-1.3-2-2.4-3.5-3.3Zm621.4-.4l6.3 3.3l-3.2 6l-6.3-3.3Zm-211.7 0l6.2 3.3l-3.2 6l-6.3-3.3Zm-527.1 0l6.3 3.3l-3.3 6l-6.3-3.3Zm-68.2 0l6.2 3.3l-3.2 6l-6.3-3.3Zm717.2-2.7c.3 0 .6 .1 .8 .3c.2 .2 .3 .5 .3 .9c0 .3 0 .5-.1 .7c-.1 .2-.2 .5-.5 .9c-.9-.4-1.5-.6-1.8-.6c-.3 0-.7 0-1 .2c-.2 .1-.4 .3-.6 .4c0 .3 .5 .6 1.3 1.1c.9 .5 1.5 .7 1.9 .7c.2 0 .8-.1 1.9-.4c-.2 .6-.4 1-.6 1.3c-.2 .2-.5 .4-1 .5l-5.8 1.7c.4-.6 .7-1 1-1.3c.2-.2 .7-.5 1.4-.7c-.5-.3-.9-.6-1.1-.9c-.2-.3-.3-.6-.3-.8c0-.3 0-.5 .2-.8c.1-.3 .3-.6 .5-.9c1.2-1.6 2.4-2.3 3.5-2.3Zm-591.7-2.6V230c-.1 0-.9 .2-2.3 .7c-1.8 .5-3.1 1-4.2 1.5c-1.5 .6-2.2 1-2.2 1.4c0 .1 .6 .8 1.9 2c1.7 1.7 3.2 3.3 4.3 4.7c2 2.3 3.6 4.6 4.8 6.9v.1h12.2c-.2-1.2-.5-2.2-1-3c-.3-.5-.9-1.3-1.9-2.5l2.1-6.4c1.4 1.6 2.3 3.2 2.8 4.8c.4 1.5 .6 3.6 .7 6.3v.8h12.2c-.2-1.2-.6-2.2-1.1-3c-.3-.5-.9-1.3-1.9-2.5l2.2-6.4c1.3 1.6 2.2 3.2 2.7 4.8c.5 1.7 .8 4.2 .8 7.5v6.9h-50l-.5 2.8c-.7 1.5-1.7 3-3 4.5c-2.6 3-5.2 4.5-7.7 4.5c-1.5 0-3.1-.4-4.9-1.4c-1.8-.9-4.5-2.8-8.1-5.6l1.1-1.6c1.9 1.3 3.5 2.2 4.8 2.6c1 .4 2.1 .6 3.4 .6c1.8 0 3.5-.5 5.2-1.5c2-1.1 4.1-3 6.2-5.5c-.7 .1-1.4 .1-1.9 .1c-1.7 0-3.1-.5-4.2-1.7c-1-1.1-1.6-2.7-1.6-4.7c0-2.7 .7-5.3 1.9-7.8c1.3-2.7 2.9-4 4.6-4c1.4 0 2.6 1 3.6 2.9c1 2 1.5 4.3 1.5 7.1v1.4h15.5c-.7-.8-1.4-1.5-2-2.2c-.6-.5-1.3-1.1-2.2-1.8c-1-.8-2-1.6-3-2.3l-.9 .9c-1.6-1.5-2.5-2.5-2.8-2.8c-.9-1.1-1.4-2.2-1.4-3.6c0-1.8 .1-3 .4-3.8c.4-1 1.1-1.9 2.3-2.7c1-.8 2.1-1.4 3.3-2c.9-.5 2.2-1 3.7-1.6c.7-.3 2.2-.9 4.6-1.8Zm90.8-.4l5 2.7l-2.8 5.3l-4-2l-2.2 4.3l-4.9-2.7l2.9-5.5l3.9 2.2Zm-64.2 0l5 2.7l-2.8 5.3l-3.9-2l-2.3 4.3l-4.9-2.7l3-5.5l3.8 2.2Zm-14.8 0l5 2.7l-2.8 5.3l-4-2l-2.2 4.3l-4.9-2.7l2.9-5.5l3.8 2.2Zm406.7-1.1l6.2 3.3l-3.2 6l-6.3-3.3Zm-18.1-.1c1 1.5 1.8 2.9 2.2 4.3c.5 1.6 .7 3.7 .7 6.2v5.3c0 3.8 .3 6.4 .8 7.8c.4 1.2 1 1.7 1.8 1.7h16c-.2-1.2-.6-2.2-1.1-3c-.3-.5-.9-1.3-1.9-2.5l2.2-6.4c1.3 1.6 2.2 3.2 2.7 4.8c.5 1.5 .7 3.6 .8 6.3v.8h12.1c-.2-1.2-.5-2.2-1-3c-.3-.5-.9-1.3-1.9-2.5l2.1-6.4c1.4 1.6 2.3 3.2 2.8 4.8c.5 1.7 .7 4.2 .7 7.5v6.9h-33.5c-2.1 0-3.6-.8-4.5-2.5c-1-1.9-1.6-5.1-1.6-9.6v-7.7c0-1.7-.2-3.1-.7-4c-.2-.5-.8-1.2-1.6-2Zm149.2-2l1.2 .6c-.1 .2-.1 .5-.1 .8c0 .8 .4 1.3 1.1 1.8c1.1 .6 2.1 1.2 3.1 1.7c-.2 1.6-.4 2.7-.6 3.3c-.2 .7-.6 1.7-1.2 3l-.8-.3c0 .3 .2 1.8 .7 4.6c.5 2.8 1 5.2 1.3 7.2c.5 2.9 .8 4.6 .8 5.3v6c0 2.7-1.4 5.2-4.3 7.3c-2.9 2.2-6.1 3.2-9.8 3.2c-3.1 0-5.5-.8-7.2-2.3c-1.7-1.6-2.6-3.7-2.6-6.5c0-2.6 .3-4.9 1-6.8c.7-2.2 2.1-4.9 4.3-8l1.6 1.1c-1.4 2.1-2.3 3.9-2.9 5.5c-.6 1.5-.9 3-.9 4.6c0 1.6 .6 2.8 1.8 3.7c1.2 .9 2.9 1.4 5.1 1.4c3.2 0 5.7-.7 7.7-1.9c1.9-1.2 2.9-2.8 2.9-4.8c0-.3 0-.6 0-.8c0-.2 0-.3 0-.4c0-.7 0-1.5-.1-2.3c-.1-.9-.5-2.6-.9-5.2c-.8-4.3-1.6-8.5-2.3-12.8l-1.4-1c0-1.7 .8-4.4 2.5-8Zm-279.9-.1l1.2 .7c0 .1 0 .4-.1 .8c0 .6 .4 1.2 1.2 1.7c.6 .6 1.7 1.1 3.1 1.7c-.1 1.2-.4 2.3-.7 3.4c-.3 1.1-.6 2-1 2.9l-1-.4l2.9 16.6h1.9c1.9 0 3.5-.5 4.7-1.5c1.6-1.4 2.5-3.5 2.5-6.3l1.7 .3c0 .5 0 1.2-.1 1.9c0 .7 0 1.6 0 2.5c0 .9 .3 1.6 .9 2.2c.6 .6 1.4 .9 2.2 .9h3.3c2.1 0 3.7-.3 4.6-.9c1.2-.7 1.7-2.1 1.7-4.1c0-.4 .2-.8 .4-1.1c.2-.2 .5-.5 1-.9l1-.8c.1 .3 .1 .8 .1 1.4c0 .6 .1 .9 .1 1.1c0 1-.2 2.3-.5 3.9c.7 .3 1.4 .6 2.3 .9c.8 .2 1.6 .4 2.6 .5c0-.6-.3-1.4-.7-2.4c-.5-.9-.7-1.6-.7-1.9c0-.5 .1-.8 .2-1.1c0-.1 .2-.4 .6-.8l2.3-3.1c.5 1.1 .8 2.1 1 3.1c.2 .9 .3 2 .3 3.4v2.8h9.8l-3.3-18.2l-1.7-1.1c0-1.1 .2-2.1 .5-3.2c.4-1.4 1.1-3 2.1-4.9l1.2 .7c0 .1 0 .4-.1 .8c0 .6 .4 1.2 1.1 1.7c.7 .6 1.8 1.1 3.2 1.7c-.2 1.2-.4 2.3-.7 3.4c-.3 1.1-.7 2-1.1 2.9l-.9-.4l2.9 16.6h1.9c1.9 0 3.4-.5 4.7-1.5c1.6-1.4 2.4-3.5 2.4-6.3l1.8 .3c0 .5 0 1.2-.1 1.9c0 .7 0 1.6 0 2.5c0 .9 .3 1.6 .9 2.2c.6 .6 1.3 .9 2.1 .9h3.3c2.2 0 3.8-.3 4.7-.9c1.2-.7 1.7-2.1 1.7-4.1c0-.4 .1-.8 .4-1.1c.2-.2 .5-.5 1-.9l1-.8c.1 .3 .1 .8 .1 1.4c0 .6 0 .9 0 1.1c0 1-.1 2.3-.4 3.9c.7 .3 1.4 .6 2.2 .9c.9 .2 1.7 .4 2.6 .5c0-.6-.2-1.4-.6-2.4c-.5-.9-.7-1.6-.7-1.9c0-.5 .1-.8 .2-1.1c0-.1 .2-.4 .6-.8l2.3-3.1c.4 1.1 .8 2.1 1 3.1c.2 .9 .3 2 .3 3.4v10.1c-2 0-3.7-.1-5-.4c-1.3-.3-2.6-.7-3.9-1.3c-1.1 .7-2 1.2-2.8 1.4c-.8 .2-2 .3-3.7 .3h-4.3c-1.2 0-2.2-.3-2.9-.9c-.7-.6-1.3-1.6-1.9-3.1c-.9 1.5-2 2.6-3.3 3.2c-1 .6-2.2 .8-3.7 .8H986.6l-.9-.1c-.9 0-1.6-.1-2.3-.3c-1.3-.3-2.6-.7-3.9-1.3c-1 .7-2 1.2-2.8 1.4c-.8 .2-2 .3-3.6 .3h-4.4c-1.2 0-2.2-.3-2.9-.9c-.7-.6-1.3-1.6-1.8-3.1c-1 1.5-2.1 2.6-3.3 3.2c-1.1 .6-2.3 .8-3.8 .8H938.5c-.6 0-1.2-.1-1.8-.3c-1-.6-1.9-1.5-2.6-2.9c-.9-1.9-1.6-4.5-1.9-7.8c-1.2 1.5-2.1 2.6-2.8 3.2c-1 .9-1.8 1.4-2.5 1.4c-.3 0-.8-.1-1.3-.2l-3.3-.6c-1.3-.3-2.2-.5-2.5-.6c-.4-.2-.5-.4-.5-.7c0-.5 .6-2 1.9-4.6c1.2-2.6 2.1-4.1 2.6-4.8c.5-.4 1.3-1.1 2.4-1.8c.7-.5 1.7-1.1 2.9-1.8l1.5-.9c-.1-.2-.1-.5-.2-.7c0-.3 0-.5 0-.8c0-.6 .2-1.5 .5-2.5c.3-1.1 .8-2.3 1.7-3.9l2.5 16.8c.4 2.6 1 4.4 1.6 5.3c.5 .6 1.1 .9 1.8 .9h13.3l-3.3-18.2l-1.7-1.1c0-1.1 .2-2.1 .5-3.2c.4-1.4 1.1-3 2.1-4.9ZM931 214.5l4.8 2.5l-2.9 5l-3.8-2.2l-2.2 4.3l-5-2.7l2.8-4.8l4 2Z" class="g0_15"/>
<path d="M1403.6 257.2l6.3 3.3l-3.2 6l-6.3-3.2Zm-293.4-.3l6.2 3.3l-3.2 6.1l-6.3-3.3Zm-313.5 0l6.2 3.3l-3.2 6.1l-6.3-3.3Zm-14.9 0l6.3 3.3l-3.3 6.1l-6.2-3.3Zm604-.3l5 2.8l-2.8 5.2l-4-2l-2.3 4.3l-4.9-2.7l3-5.5l3.8 2.2Zm-536.3 0l5 2.8l-2.8 5.2l-4-2l-2.2 4.3l-4.9-2.7l2.9-5.5l3.9 2.2Zm-93.8 0l5 2.8l-2.8 5.2l-4-2l-2.3 4.3l-4.9-2.7l3-5.5l3.8 2.2ZM1253.3 243c-.6 0-1 .3-1.4 .7c-.3 .4-.5 .9-.5 1.4c0 .7 .4 1.2 1.1 1.6c.7 .4 1.6 .6 2.8 .6h1c-.5-2.8-1.5-4.3-3-4.3ZM656 243c-.6 0-1 .3-1.4 .7c-.3 .4-.5 .9-.5 1.4c0 .7 .4 1.2 1.1 1.6c.7 .4 1.6 .6 2.8 .6h1c-.5-2.8-1.5-4.3-3-4.3Zm666.3-.1c-.7 0-1.3 .8-1.8 2.4c1 .3 1.7 .6 2.1 .8c1.5 .5 2.3 .8 2.5 .8c.4 0 .6-.1 .6-.4c0-.4-.4-1.1-1.2-2c-.8-1.1-1.6-1.6-2.2-1.6Zm-738.7 0c-.6 0-1.2 .8-1.7 2.4c.9 .3 1.6 .6 2.1 .8c1.4 .5 2.3 .8 2.4 .8c.4 0 .6-.1 .6-.4c0-.4-.3-1.1-1.1-2c-.9-1.1-1.6-1.6-2.3-1.6Zm50.8-5.6c1.2 2.3 2 3.9 2.3 4.7c.5 1.6 .8 3.6 .8 6v5.3c0 2.5-.3 4.5-.8 6c-.4 1.5-1.2 2.7-2.3 3.6c-1.1 .9-2.7 1.7-4.8 2.2c-2.2 .6-4.4 .9-6.6 .9c-4.4 0-7.7-.8-10.1-2.4c-2.3-1.5-3.5-3.8-3.5-6.7c0-2.5 .4-4.8 1.1-6.8c.8-2.3 2.4-5.3 4.9-8.9l1.6 1.1c-1.8 3.1-3 5.2-3.5 6.6c-.6 1.4-.8 2.8-.8 4.2c0 1.9 1 3.4 3 4.6c2 1.2 4.6 1.8 7.9 1.8c3.2 0 6-.6 8.2-1.8c2.2-1.3 3.3-2.8 3.3-4.6c0-1.1-.2-2.2-.6-3.3c-.4-1.1-1.2-2.8-2.5-5.2Zm-47.9-.7c1 0 2.1 1.4 3.4 4.1c1.4 2.9 2.1 5.6 2.1 8.1v5.8c-1.8 0-4-.3-6.6-1.1c-2.2-.6-4.2-1.4-5.9-2.3c-1 1.6-2.3 2.6-3.8 3.1c-.8 .2-1.8 .3-3 .3h-3.4l-.1 .5c-.1 1.7-.3 3.1-.7 4.2c-.4 1.5-1.2 2.7-2.3 3.6c-1.1 .9-2.7 1.7-4.8 2.2c-2.2 .6-4.4 .9-6.6 .9c-4.4 0-7.7-.8-10.1-2.4c-2.3-1.5-3.5-3.8-3.5-6.7c0-2.5 .4-4.8 1.1-6.8c.8-2.3 2.4-5.3 4.9-8.9l1.6 1.1c-1.8 3.1-3 5.2-3.5 6.6c-.6 1.4-.8 2.8-.8 4.2c0 1.9 1 3.4 3 4.6c2 1.2 4.6 1.8 7.9 1.8c3.2 0 6-.6 8.2-1.8c2.2-1.3 3.3-2.8 3.3-4.6c0-1.1-.2-2.2-.6-3.3c-.4-1.1-1.2-2.8-2.5-5.2l2.4-7.3c1.2 2.3 2 3.9 2.3 4.7c.4 1.4 .7 3.1 .8 5.1v.2h3.4c1.6 0 2.9-.2 3.8-.5c1.2-.5 2.1-1.4 2.5-2.6c1.1-2.3 2.3-4.2 4-5.7c1.4-1.3 2.6-1.9 3.5-1.9Zm344.5-.3c-.5 .2-1 .4-1.3 .6c-1 .5-1.8 1-2.4 1.4c-.4 .4-.7 .7-1 1c-.4 .4-.6 .7-.6 .9c0 .3 .3 .5 1 .6c.6 .2 1.2 .2 1.8 .2c.4 0 .8-.1 1.3-.3c.4-.2 1-.6 1.8-1.2Zm339.9-.9c1.4 1.6 2.3 3.2 2.8 4.8c.4 1.5 .6 3.6 .7 6.3v.8h1.9c1.9 0 3.4-.5 4.7-1.5c1.6-1.4 2.4-3.5 2.4-6.3l1.8 .3c0 .5-.1 1.2-.1 1.9c0 .7-.1 1.6-.1 2.5c0 .9 .4 1.6 1 2.2c.6 .6 1.3 .9 2.1 .9h3.3c2.2 0 3.8-.3 4.7-.9c1.1-.7 1.7-2.1 1.7-4.1c0-.4 .1-.8 .4-1.1c.2-.2 .5-.5 1-.9l1-.8c0 .3 .1 .8 .1 1.4c0 .6 0 .9 0 1.1c0 1-.1 2.3-.4 3.9c.7 .3 1.4 .6 2.2 .9c.9 .2 1.7 .4 2.6 .5c0-.6-.2-1.4-.6-2.4c-.5-.9-.7-1.6-.7-1.9c0-.5 0-.8 .2-1.1c0-.1 .2-.4 .6-.8l2.2-3.1c.5 1.1 .9 2.1 1.1 3.1c.2 .9 .3 2 .3 3.4v2.8h3.5c1.6 0 2.9-.2 3.9-.5c1.2-.5 2-1.4 2.5-2.6c1-2.3 2.3-4.2 3.9-5.7c1.4-1.3 2.6-1.9 3.6-1.9c.9 0 2 1.4 3.4 4.1c1.4 2.9 2.1 5.6 2.1 8.1v5.8c-1.9 0-4.1-.3-6.6-1.1c-2.3-.6-4.2-1.4-5.9-2.3c-1.1 1.6-2.4 2.6-3.9 3.1c-.7 .2-1.7 .3-3 .3H1306l-1-.1c-.8 0-1.5-.1-2.2-.3c-1.3-.3-2.6-.7-3.9-1.3c-1.1 .7-2 1.2-2.8 1.4c-.8 .2-2 .3-3.7 .3h-4.3c-1.3 0-2.2-.3-2.9-.9c-.7-.6-1.3-1.6-1.9-3.1c-1 1.5-2.1 2.6-3.3 3.2c-1 .6-2.3 .8-3.7 .8h-17.2l-.5 2.8c-.7 1.5-1.7 3-3 4.5c-2.6 3-5.2 4.5-7.7 4.5c-1.5 0-3.1-.4-4.9-1.4c-1.8-.9-4.5-2.8-8.1-5.6l1.1-1.6c1.9 1.3 3.5 2.2 4.8 2.6c1 .4 2.1 .6 3.4 .6c1.8 0 3.5-.5 5.2-1.5c2-1.1 4.1-3 6.2-5.5c-.7 .1-1.4 .1-1.9 .1c-1.7 0-3.1-.5-4.2-1.7c-1-1.1-1.6-2.7-1.6-4.7c0-2.7 .7-5.3 1.9-7.8c1.3-2.7 2.9-4 4.6-4c1.4 0 2.6 1 3.6 2.9c1 2 1.5 4.3 1.5 7.1v1.4h12.2c-.2-1.2-.5-2.2-1-3c-.3-.5-.9-1.3-1.9-2.5ZM1402 235c1.2 0 2.3 .3 3.4 .8c1.1 .6 2.3 1.5 3.7 2.8c1.1 1 2.6 2.6 4.5 4.7c1.4 1.5 2.4 2.5 3.1 2.9c.7 .5 1.8 .8 3.2 1.1v7.3h-43.6v.5c-.1 1.7-.4 3.1-.7 4.2c-.5 1.5-1.3 2.7-2.4 3.6c-1.1 .9-2.7 1.7-4.8 2.2c-2.1 .6-4.3 .9-6.6 .9c-4.3 0-7.7-.8-10.1-2.4c-2.3-1.5-3.5-3.8-3.5-6.7c0-2.5 .4-4.8 1.1-6.8c.9-2.3 2.5-5.3 4.9-8.9l1.6 1.1c-1.8 3.1-2.9 5.2-3.5 6.6c-.5 1.4-.8 2.8-.8 4.2c0 1.9 1 3.4 3 4.6c2 1.2 4.7 1.8 8 1.8c3.2 0 5.9-.6 8.1-1.8c2.2-1.3 3.3-2.8 3.3-4.6c0-1.1-.2-2.2-.6-3.3c-.4-1.1-1.2-2.8-2.5-5.2l2.4-7.3c1.3 2.3 2 3.9 2.3 4.7c.5 1.4 .7 3.1 .8 5.1v.2h12.2c-.2-1.2-.5-2.2-1.1-3c-.2-.5-.9-1.3-1.9-2.5l2.2-6.4c1.3 1.6 2.3 3.2 2.7 4.8c.5 1.5 .7 3.6 .8 6.3v.8h17.1c-2.1-2.2-4.1-3.8-6-4.8c-1.6-.9-3.2-1.3-4.8-1.3c-.4 0-.9 0-1.2 .1c-.4 0-1 .1-1.7 .3c1-2.3 2-3.9 3.3-5c1.2-1.1 2.5-1.6 4.1-1.6Zm-338.8-.5c1.2 0 2.4 .3 3.3 .8c1 .5 2 1.5 3.2 2.9l-3.6 6c-.9-1-1.7-1.7-2.4-2.1c-.7-.5-1.4-.7-2.1-.7c-.5 0-1 .2-1.5 .5c-.4 .3-.6 .7-.6 1.1c0 .5 .3 1.1 1.1 1.8c.7 .6 2 1.3 3.8 2.3c2.2-1.1 3.9-1.8 5-2.1c1.2-.3 2.6-.6 4.5-.7l-2.2 6.1c-2.8 .7-5 1.5-6.8 2.3c-1.7 .8-3.2 1.9-4.5 3.1c-.9 .8-2.3 2.2-4 4.2l-1.6-.6c0-1.2 .3-2.4 .9-3.6c.5-.9 1.3-2.1 2.5-3.6c-1.7-1.7-2.8-3-3.3-3.7c-.6-.8-.9-1.5-.9-2.3c0-1 .7-2.7 2.1-5.2c1.4-2.5 2.6-4.2 3.6-5.1c1-1 2.1-1.4 3.5-1.4Zm113.9-3.4c2 0 3.9 .6 5.7 2c1.6 1.2 2.8 2.7 3.6 4.4l-1.1 1c-1.4-.6-2.5-.9-3.4-1.1c-.8-.2-1.8-.2-3.1-.2c-2.2 0-4.1 .2-5.7 .5c-2.1 .5-3.1 1.1-3.1 1.9c0 1.3 2.5 3.3 7.5 6.2l13.6-4l-3 7.7c-4.8 1.5-8.8 2.6-12 3.4c-2.7 .7-5 1.2-6.9 1.5c-1.4 .2-2.8 .2-4.2 .2h-.5v.5c-.1 1.7-.3 3.1-.7 4.2c-.4 1.5-1.2 2.7-2.3 3.6c-1.1 .9-2.8 1.7-4.9 2.2c-2.1 .6-4.3 .9-6.5 .9c-4.4 0-7.7-.8-10.1-2.4c-2.4-1.5-3.5-3.8-3.5-6.7c0-2.5 .4-4.8 1.1-6.8c.8-2.3 2.4-5.3 4.8-8.9l1.6 1.1c-1.7 3.1-2.9 5.2-3.4 6.6c-.6 1.4-.8 2.8-.8 4.2c0 1.9 1 3.4 3 4.6c2 1.2 4.6 1.8 7.9 1.8c3.2 0 5.9-.6 8.2-1.8c2.2-1.3 3.2-2.8 3.2-4.6c0-1.1-.1-2.2-.5-3.3c-.4-1.1-1.2-2.8-2.5-5.2l2.3-7.3c1.3 2.3 2.1 3.9 2.4 4.7c.4 1.4 .7 3.1 .7 5.1v.2h1c.5 0 .9 0 1.2 0c.5 0 1-.1 1.6-.1c-.9-1.4-1.5-2.5-1.8-3.3c-.3-.8-.5-1.8-.5-2.8c0-2.7 1.1-5 3.3-7c2.2-2 4.8-3 7.8-3Zm-309.7-1.8c2.3 1.7 4 3.9 5 6.7c.9 2.5 1.3 5.9 1.3 10v1.3h1.1c.5 0 .9 0 1.1 0c.6 0 1.1-.1 1.6-.1c-.9-1.4-1.5-2.5-1.8-3.3c-.3-.8-.5-1.8-.5-2.8c0-2.7 1.1-5 3.4-7c2.2-2 4.8-3 7.7-3c2 0 3.9 .6 5.7 2c1.7 1.2 2.9 2.7 3.7 4.4l-1.2 1c-1.4-.6-2.5-.9-3.3-1.1c-.9-.2-1.9-.2-3.1-.2c-2.2 0-4.2 .2-5.8 .5c-2.1 .5-3.1 1.1-3.1 1.9c0 1.3 2.5 3.3 7.5 6.2l13.6-4l-3 7.7c-4.8 1.5-8.8 2.6-11.9 3.4c-2.8 .7-5.1 1.2-7 1.5c-1.3 .2-2.7 .2-4.1 .2H861.5c-1.1 0-2-.2-2.7-.7c-.7-.6-1.1-1.6-1.1-3c0-.8 0-1.6 .1-2.5c.1-.9 .2-1.9 .4-2.8l1-.1c.1 .7 .4 1.1 .9 1.4c.5 .3 1.1 .4 1.8 .4h9.3c-.5-2.6-1.2-4.7-2.2-6.3c-.8-1.3-2-2.4-3.5-3.3Zm-33.7 0c2.3 1.7 4 3.9 4.9 6.7c.9 2.5 1.4 5.9 1.4 10v1.3h12.3c-.2-1.2-.6-2.2-1.1-3c-.3-.5-.9-1.3-1.9-2.5l2.1-6.4c1.4 1.6 2.3 3.2 2.8 4.8c.5 1.7 .7 4.2 .7 7.5v6.9H827.8c-1.2 0-2.1-.2-2.7-.7c-.8-.6-1.2-1.6-1.2-3c0-.8 .1-1.6 .2-2.5c0-.9 .2-1.9 .3-2.8l1-.1c.2 .7 .5 1.1 1 1.4c.5 .3 1.1 .4 1.8 .4h9.2c-.4-2.6-1.1-4.7-2.1-6.3c-.9-1.3-2-2.4-3.5-3.3Zm-93.9 0c2.3 1.7 4 3.9 5 6.7c.9 2.5 1.3 5.9 1.3 10v1.3h12.3c-.2-1.2-.6-2.2-1.1-3c-.3-.5-.9-1.3-1.9-2.5l2.2-6.4c1.3 1.6 2.2 3.2 2.7 4.8c.5 1.5 .7 3.6 .8 6.3v.8h12.1c-.2-1.2-.5-2.2-1-3c-.3-.5-.9-1.3-1.9-2.5l2.1-6.4c1.4 1.6 2.3 3.2 2.8 4.8c.4 1.5 .7 3.6 .7 6.3v.8h12.2c-.2-1.2-.6-2.2-1.1-3c-.3-.5-.9-1.3-1.9-2.5l2.2-6.4c1.3 1.6 2.2 3.2 2.7 4.8c.5 1.5 .7 3.6 .8 6.3v.8h12.1c-.2-1.2-.5-2.2-1-3c-.3-.5-.9-1.3-1.9-2.5l2.1-6.4c1.4 1.6 2.3 3.2 2.8 4.8c.5 1.7 .7 4.2 .7 7.5v6.9H733.9c-1.1 0-2-.2-2.7-.7c-.7-.6-1.1-1.6-1.1-3c0-.8 0-1.6 .1-2.5c.1-.9 .2-1.9 .4-2.8l1-.1c.1 .7 .4 1.1 .9 1.4c.5 .3 1.1 .4 1.8 .4h9.3c-.5-2.6-1.2-4.7-2.2-6.3c-.8-1.3-2-2.4-3.5-3.3Zm621.4-.4l6.3 3.3l-3.2 6l-6.3-3.3Zm-211.7 0l6.2 3.3l-3.2 6l-6.3-3.3Zm-527.1 0l6.3 3.3l-3.3 6l-6.3-3.3Zm-68.2 0l6.2 3.3l-3.2 6l-6.3-3.3Zm717.2-2.7c.3 0 .6 .1 .8 .3c.2 .2 .3 .5 .3 .9c0 .3 0 .5-.1 .7c-.1 .2-.2 .5-.5 .9c-.9-.4-1.5-.6-1.8-.6c-.3 0-.7 0-1 .2c-.2 .1-.4 .3-.6 .4c0 .3 .5 .6 1.3 1.1c.9 .5 1.5 .7 1.9 .7c.2 0 .8-.1 1.9-.4c-.2 .6-.4 1-.6 1.3c-.2 .2-.5 .4-1 .5l-5.8 1.7c.4-.6 .7-1 1-1.3c.2-.2 .7-.5 1.4-.7c-.5-.3-.9-.6-1.1-.9c-.2-.3-.3-.6-.3-.8c0-.3 0-.5 .2-.8c.1-.3 .3-.6 .5-.9c1.2-1.6 2.4-2.3 3.5-2.3Zm-591.7-2.6V230c-.1 0-.9 .2-2.3 .7c-1.8 .5-3.1 1-4.2 1.5c-1.5 .6-2.2 1-2.2 1.4c0 .1 .6 .8 1.9 2c1.7 1.7 3.2 3.3 4.3 4.7c2 2.3 3.6 4.6 4.8 6.9v.1h12.2c-.2-1.2-.5-2.2-1-3c-.3-.5-.9-1.3-1.9-2.5l2.1-6.4c1.4 1.6 2.3 3.2 2.8 4.8c.4 1.5 .6 3.6 .7 6.3v.8h12.2c-.2-1.2-.6-2.2-1.1-3c-.3-.5-.9-1.3-1.9-2.5l2.2-6.4c1.3 1.6 2.2 3.2 2.7 4.8c.5 1.7 .8 4.2 .8 7.5v6.9h-50l-.5 2.8c-.7 1.5-1.7 3-3 4.5c-2.6 3-5.2 4.5-7.7 4.5c-1.5 0-3.1-.4-4.9-1.4c-1.8-.9-4.5-2.8-8.1-5.6l1.1-1.6c1.9 1.3 3.5 2.2 4.8 2.6c1 .4 2.1 .6 3.4 .6c1.8 0 3.5-.5 5.2-1.5c2-1.1 4.1-3 6.2-5.5c-.7 .1-1.4 .1-1.9 .1c-1.7 0-3.1-.5-4.2-1.7c-1-1.1-1.6-2.7-1.6-4.7c0-2.7 .7-5.3 1.9-7.8c1.3-2.7 2.9-4 4.6-4c1.4 0 2.6 1 3.6 2.9c1 2 1.5 4.3 1.5 7.1v1.4h15.5c-.7-.8-1.4-1.5-2-2.2c-.6-.5-1.3-1.1-2.2-1.8c-1-.8-2-1.6-3-2.3l-.9 .9c-1.6-1.5-2.5-2.5-2.8-2.8c-.9-1.1-1.4-2.2-1.4-3.6c0-1.8 .1-3 .4-3.8c.4-1 1.1-1.9 2.3-2.7c1-.8 2.1-1.4 3.3-2c.9-.5 2.2-1 3.7-1.6c.7-.3 2.2-.9 4.6-1.8Zm90.8-.4l5 2.7l-2.8 5.3l-4-2l-2.2 4.3l-4.9-2.7l2.9-5.5l3.9 2.2Zm-64.2 0l5 2.7l-2.8 5.3l-3.9-2l-2.3 4.3l-4.9-2.7l3-5.5l3.8 2.2Zm-14.8 0l5 2.7l-2.8 5.3l-4-2l-2.2 4.3l-4.9-2.7l2.9-5.5l3.8 2.2Zm406.7-1.1l6.2 3.3l-3.2 6l-6.3-3.3Zm-18.1-.1c1 1.5 1.8 2.9 2.2 4.3c.5 1.6 .7 3.7 .7 6.2v5.3c0 3.8 .3 6.4 .8 7.8c.4 1.2 1 1.7 1.8 1.7h16c-.2-1.2-.6-2.2-1.1-3c-.3-.5-.9-1.3-1.9-2.5l2.2-6.4c1.3 1.6 2.2 3.2 2.7 4.8c.5 1.5 .7 3.6 .8 6.3v.8h12.1c-.2-1.2-.5-2.2-1-3c-.3-.5-.9-1.3-1.9-2.5l2.1-6.4c1.4 1.6 2.3 3.2 2.8 4.8c.5 1.7 .7 4.2 .7 7.5v6.9h-33.5c-2.1 0-3.6-.8-4.5-2.5c-1-1.9-1.6-5.1-1.6-9.6v-7.7c0-1.7-.2-3.1-.7-4c-.2-.5-.8-1.2-1.6-2Zm149.2-2l1.2 .6c-.1 .2-.1 .5-.1 .8c0 .8 .4 1.3 1.1 1.8c1.1 .6 2.1 1.2 3.1 1.7c-.2 1.6-.4 2.7-.6 3.3c-.2 .7-.6 1.7-1.2 3l-.8-.3c0 .3 .2 1.8 .7 4.6c.5 2.8 1 5.2 1.3 7.2c.5 2.9 .8 4.6 .8 5.3v6c0 2.7-1.4 5.2-4.3 7.3c-2.9 2.2-6.1 3.2-9.8 3.2c-3.1 0-5.5-.8-7.2-2.3c-1.7-1.6-2.6-3.7-2.6-6.5c0-2.6 .3-4.9 1-6.8c.7-2.2 2.1-4.9 4.3-8l1.6 1.1c-1.4 2.1-2.3 3.9-2.9 5.5c-.6 1.5-.9 3-.9 4.6c0 1.6 .6 2.8 1.8 3.7c1.2 .9 2.9 1.4 5.1 1.4c3.2 0 5.7-.7 7.7-1.9c1.9-1.2 2.9-2.8 2.9-4.8c0-.3 0-.6 0-.8c0-.2 0-.3 0-.4c0-.7 0-1.5-.1-2.3c-.1-.9-.5-2.6-.9-5.2c-.8-4.3-1.6-8.5-2.3-12.8l-1.4-1c0-1.7 .8-4.4 2.5-8Zm-279.9-.1l1.2 .7c0 .1 0 .4-.1 .8c0 .6 .4 1.2 1.2 1.7c.6 .6 1.7 1.1 3.1 1.7c-.1 1.2-.4 2.3-.7 3.4c-.3 1.1-.6 2-1 2.9l-1-.4l2.9 16.6h1.9c1.9 0 3.5-.5 4.7-1.5c1.6-1.4 2.5-3.5 2.5-6.3l1.7 .3c0 .5 0 1.2-.1 1.9c0 .7 0 1.6 0 2.5c0 .9 .3 1.6 .9 2.2c.6 .6 1.4 .9 2.2 .9h3.3c2.1 0 3.7-.3 4.6-.9c1.2-.7 1.7-2.1 1.7-4.1c0-.4 .2-.8 .4-1.1c.2-.2 .5-.5 1-.9l1-.8c.1 .3 .1 .8 .1 1.4c0 .6 .1 .9 .1 1.1c0 1-.2 2.3-.5 3.9c.7 .3 1.4 .6 2.3 .9c.8 .2 1.6 .4 2.6 .5c0-.6-.3-1.4-.7-2.4c-.5-.9-.7-1.6-.7-1.9c0-.5 .1-.8 .2-1.1c0-.1 .2-.4 .6-.8l2.3-3.1c.5 1.1 .8 2.1 1 3.1c.2 .9 .3 2 .3 3.4v2.8h9.8l-3.3-18.2l-1.7-1.1c0-1.1 .2-2.1 .5-3.2c.4-1.4 1.1-3 2.1-4.9l1.2 .7c0 .1 0 .4-.1 .8c0 .6 .4 1.2 1.1 1.7c.7 .6 1.8 1.1 3.2 1.7c-.2 1.2-.4 2.3-.7 3.4c-.3 1.1-.7 2-1.1 2.9l-.9-.4l2.9 16.6h1.9c1.9 0 3.4-.5 4.7-1.5c1.6-1.4 2.4-3.5 2.4-6.3l1.8 .3c0 .5 0 1.2-.1 1.9c0 .7 0 1.6 0 2.5c0 .9 .3 1.6 .9 2.2c.6 .6 1.3 .9 2.1 .9h3.3c2.2 0 3.8-.3 4.7-.9c1.2-.7 1.7-2.1 1.7-4.1c0-.4 .1-.8 .4-1.1c.2-.2 .5-.5 1-.9l1-.8c.1 .3 .1 .8 .1 1.4c0 .6 0 .9 0 1.1c0 1-.1 2.3-.4 3.9c.7 .3 1.4 .6 2.2 .9c.9 .2 1.7 .4 2.6 .5c0-.6-.2-1.4-.6-2.4c-.5-.9-.7-1.6-.7-1.9c0-.5 .1-.8 .2-1.1c0-.1 .2-.4 .6-.8l2.3-3.1c.4 1.1 .8 2.1 1 3.1c.2 .9 .3 2 .3 3.4v10.1c-2 0-3.7-.1-5-.4c-1.3-.3-2.6-.7-3.9-1.3c-1.1 .7-2 1.2-2.8 1.4c-.8 .2-2 .3-3.7 .3h-4.3c-1.2 0-2.2-.3-2.9-.9c-.7-.6-1.3-1.6-1.9-3.1c-.9 1.5-2 2.6-3.3 3.2c-1 .6-2.2 .8-3.7 .8H986.6l-.9-.1c-.9 0-1.6-.1-2.3-.3c-1.3-.3-2.6-.7-3.9-1.3c-1 .7-2 1.2-2.8 1.4c-.8 .2-2 .3-3.6 .3h-4.4c-1.2 0-2.2-.3-2.9-.9c-.7-.6-1.3-1.6-1.8-3.1c-1 1.5-2.1 2.6-3.3 3.2c-1.1 .6-2.3 .8-3.8 .8H938.5c-.6 0-1.2-.1-1.8-.3c-1-.6-1.9-1.5-2.6-2.9c-.9-1.9-1.6-4.5-1.9-7.8c-1.2 1.5-2.1 2.6-2.8 3.2c-1 .9-1.8 1.4-2.5 1.4c-.3 0-.8-.1-1.3-.2l-3.3-.6c-1.3-.3-2.2-.5-2.5-.6c-.4-.2-.5-.4-.5-.7c0-.5 .6-2 1.9-4.6c1.2-2.6 2.1-4.1 2.6-4.8c.5-.4 1.3-1.1 2.4-1.8c.7-.5 1.7-1.1 2.9-1.8l1.5-.9c-.1-.2-.1-.5-.2-.7c0-.3 0-.5 0-.8c0-.6 .2-1.5 .5-2.5c.3-1.1 .8-2.3 1.7-3.9l2.5 16.8c.4 2.6 1 4.4 1.6 5.3c.5 .6 1.1 .9 1.8 .9h13.3l-3.3-18.2l-1.7-1.1c0-1.1 .2-2.1 .5-3.2c.4-1.4 1.1-3 2.1-4.9ZM931 214.5l4.8 2.5l-2.9 5l-3.8-2.2l-2.2 4.3l-5-2.7l2.8-4.8l4 2Z" class="g1_15"/>
<path fill-rule="evenodd" d="M506.2 235.6c-.8 0-1.5 .2-2.1 .7c-.5 .5-.8 1.2-.8 2c0 1.1 .6 1.9 1.7 2.5c1.2 .6 2.7 .9 4.7 .9c1.5 0 2.6-.1 3.5-.3c.8-.3 1.2-.6 1.2-1c0-.8-.8-1.6-2.4-2.4c-1.8-1-3-1.7-3.7-2c-.7-.3-1.4-.4-2.1-.4Zm2.5-7.9c1.1 0 2.3 .4 3.7 1.1c1.3 .8 2.5 1.7 3.4 2.9c1.5 1.7 2.2 3.7 2.2 6c0 1.5-.3 3-1 4.5c-.4 1.1-.8 2-1.2 2.8c-.4 .8-.8 1.3-1 1.6c-.8 .8-2 1.6-3.7 2.2c-1.8 .7-3.3 1-4.7 1c-2 0-3.6-.5-4.9-1.6c-1.3-1-1.9-2.3-1.9-3.9c0-1.3 .3-2.8 .8-4.6c.5-1.7 1.2-3.8 2.2-6.1c.9-2.1 1.9-3.6 2.8-4.5c1-1 2.1-1.4 3.3-1.4Zm-39.2-4.4c1 1.9 2.1 3.3 3.1 4.2c1 .8 2.1 1.2 3.3 1.2c1.4 0 2.4-.5 3.1-1.4c.8-1 1.1-2.3 1.1-4h1.3c.2 1.5 .5 2.5 .9 3.1c.5 .6 1.1 .9 2 .9c1.7 0 2.7-1.3 3-4h1.2c0 .5 .1 1.1 .1 1.8c.1 .7 .1 1.3 .1 1.8c0 6.4-1.8 9.6-5.5 9.6c-.8 0-1.4-.1-1.9-.4c-.4-.2-1-.7-1.6-1.5c-.7 .9-1.3 1.5-1.8 1.9c-.4 .3-1.2 .5-2.3 .7c.5 1.7 .8 3.1 1 4.2c.2 1.1 .3 2.3 .3 3.6c0 1.5-.1 3-.4 4.3c-.2 1.2-.6 3-1.3 5.3h-1.4c0-2.7-.1-4.7-.2-6.1c-.1-1.4-.4-2.9-.9-4.6c-.5-2.4-1.2-4.4-2-6c-.8-1.6-2.1-3.8-3.9-6.4Z" class="g0_15"/>
<path d="M506.2 235.6c-.8 0-1.5 .2-2.1 .7c-.5 .5-.8 1.2-.8 2c0 1.1 .6 1.9 1.7 2.5c1.2 .6 2.7 .9 4.7 .9c1.5 0 2.6-.1 3.5-.3c.8-.3 1.2-.6 1.2-1c0-.8-.8-1.6-2.4-2.4c-1.8-1-3-1.7-3.7-2c-.7-.3-1.4-.4-2.1-.4Zm2.5-7.9c1.1 0 2.3 .4 3.7 1.1c1.3 .8 2.5 1.7 3.4 2.9c1.5 1.7 2.2 3.7 2.2 6c0 1.5-.3 3-1 4.5c-.4 1.1-.8 2-1.2 2.8c-.4 .8-.8 1.3-1 1.6c-.8 .8-2 1.6-3.7 2.2c-1.8 .7-3.3 1-4.7 1c-2 0-3.6-.5-4.9-1.6c-1.3-1-1.9-2.3-1.9-3.9c0-1.3 .3-2.8 .8-4.6c.5-1.7 1.2-3.8 2.2-6.1c.9-2.1 1.9-3.6 2.8-4.5c1-1 2.1-1.4 3.3-1.4Zm-39.2-4.4c1 1.9 2.1 3.3 3.1 4.2c1 .8 2.1 1.2 3.3 1.2c1.4 0 2.4-.5 3.1-1.4c.8-1 1.1-2.3 1.1-4h1.3c.2 1.5 .5 2.5 .9 3.1c.5 .6 1.1 .9 2 .9c1.7 0 2.7-1.3 3-4h1.2c0 .5 .1 1.1 .1 1.8c.1 .7 .1 1.3 .1 1.8c0 6.4-1.8 9.6-5.5 9.6c-.8 0-1.4-.1-1.9-.4c-.4-.2-1-.7-1.6-1.5c-.7 .9-1.3 1.5-1.8 1.9c-.4 .3-1.2 .5-2.3 .7c.5 1.7 .8 3.1 1 4.2c.2 1.1 .3 2.3 .3 3.6c0 1.5-.1 3-.4 4.3c-.2 1.2-.6 3-1.3 5.3h-1.4c0-2.7-.1-4.7-.2-6.1c-.1-1.4-.4-2.9-.9-4.6c-.5-2.4-1.2-4.4-2-6c-.8-1.6-2.1-3.8-3.9-6.4Z" class="g1_15"/>
<path fill-rule="evenodd" d="M284.1 256.6l5 2.8l-2.8 5.2l-4-2l-2.2 4.3l-4.9-2.7l2.9-5.5l3.9 2.2Zm-29.7 0l5 2.8l-2.8 5.2l-4-2l-2.2 4.3l-4.9-2.7l2.9-5.5l3.9 2.2Zm155.1-13.7c-.7 0-1.3 .8-1.8 2.4c.9 .3 1.6 .6 2.1 .8c1.5 .5 2.3 .8 2.5 .8c.4 0 .6-.1 .6-.4c0-.4-.4-1.1-1.2-2c-.8-1.1-1.6-1.6-2.2-1.6Zm-105.6 0c-.7 0-1.3 .8-1.8 2.4c.9 .3 1.6 .6 2.1 .8c1.5 .5 2.3 .8 2.5 .8c.4 0 .6-.1 .6-.4c0-.4-.4-1.1-1.2-2c-.8-1.1-1.6-1.6-2.2-1.6Zm82-.9c-1.2 0-2.5 .4-4 1.2c-1.4 .7-3.6 2.1-6.4 4.1h7c5.9 0 8.9-.9 8.9-2.7c0-.8-.7-1.5-1.9-1.9c-1.1-.5-2.3-.7-3.6-.7Zm-10.4-19.5l6.3 3.3l-3.3 6l-6.2-3.2Zm-106.9-.4l6.2 3.3l-3.2 6l-6.3-3.3Zm74.9-.1c1 1.5 1.7 2.9 2.1 4.3c.5 1.6 .8 3.7 .8 6.2v5.3c0 3.8 .2 6.4 .7 7.8c.4 1.2 1.1 1.7 1.9 1.7h5.7c2.1 0 3.6-.5 4.7-1.5c1.2-1.2 2.1-3.3 2.4-6.3l1.8 .3c0 .6 0 1.1-.1 1.5c0 1.2-.1 2.1-.1 2.9c0 1 .3 1.8 .8 2.3c.6 .6 1.3 .8 2.1 .8c.9 0 1.7-.1 2.5-.5c.7-.3 1.9-1.1 3.5-2.2l9.6-6.9c1.1-.8 2-1.4 2.6-1.7c1.3-.8 2.5-1.2 3.7-1.2c2 0 3.6 .7 4.9 2.1c1.3 1.7 2 4.2 2 7.5v2.9h3.4c1.6 0 2.9-.2 3.8-.5c1.2-.5 2.1-1.4 2.6-2.6c1-2.3 2.3-4.2 3.9-5.7c1.4-1.3 2.6-1.9 3.6-1.9c.9 0 2 1.4 3.4 4.1c1 2.2 1.7 4.3 2 6.2v.4h17.4c-2.2-2.2-4.2-3.8-6-4.8c-1.7-.9-3.3-1.3-4.8-1.3c-.5 0-.9 0-1.3 .1c-.4 0-.9 .1-1.7 .3c1-2.3 2.1-3.9 3.3-5c1.2-1.1 2.6-1.6 4.1-1.6c1.2 0 2.4 .3 3.5 .8c1.1 .6 2.3 1.5 3.6 2.8c1.1 1 2.6 2.6 4.6 4.7c1.3 1.5 2.4 2.5 3.1 2.9c.7 .5 1.7 .8 3.2 1.1v7.3H416.1v-.1h-.5c-1.3-.2-2.8-.5-4.4-1c-2.2-.6-4.2-1.4-5.8-2.3c-1.1 1.6-2.4 2.6-3.9 3.1c-.7 .2-1.7 .3-3 .3H366.7c-1.3 0-2.3-.3-3-.9c-.8-.6-1.5-1.7-2-3.1c-1.1 1.6-2.2 2.7-3.3 3.3c-.9 .5-2.2 .7-3.7 .7H349c-2.1 0-3.6-.8-4.5-2.5c-1.1-1.9-1.6-5.1-1.6-9.6v-7.7c0-1.7-.2-3.1-.7-4c-.3-.5-.8-1.2-1.6-2Zm-24.3 0l1.7 9.6c.5 3.6 1 6.7 1.2 9.4c.2 2 .3 4 .3 5.8c0 1.6-.2 3.1-.6 4.4c-.4 1.3-1.1 3.1-2.2 5.3l-1.6-.6c.5-2.3 .7-4.2 .7-5.6c0-1.1-.1-2.7-.3-4.8c-.2-2.1-.4-4.2-.7-6.3c-.2-2.1-.7-4.5-1.3-7.4c-.2-1-.3-1.7-.3-2.1c0-.5 .3-1.5 .8-2.8c.6-1.3 1.4-2.9 2.3-4.9Zm-83.5 0c1 1.5 1.7 2.9 2.1 4.3c.5 1.6 .8 3.7 .8 6.2v5.3c0 3.8 .2 6.4 .7 7.8c.4 1.2 1.1 1.7 1.9 1.7h16c-.2-1.2-.6-2.2-1.1-3c-.3-.5-.9-1.3-1.9-2.5l2.1-6.4c1.4 1.6 2.3 3.2 2.8 4.8c.4 1.5 .7 3.6 .7 6.3v.8H272c-.2-1.2-.5-2.2-1.1-3c-.2-.5-.9-1.3-1.9-2.5l2.2-6.4c1.3 1.6 2.3 3.2 2.7 4.8c.5 1.5 .7 3.6 .8 6.3v.8h12.2c-.2-1.2-.6-2.2-1.1-3c-.3-.5-.9-1.3-1.9-2.5l2.1-6.4c1.4 1.6 2.3 3.2 2.8 4.8c.4 1.5 .7 3.6 .7 6.3v.8h3.4c1.6 0 2.9-.2 3.8-.5c1.2-.5 2.1-1.4 2.6-2.6c1-2.3 2.3-4.2 3.9-5.7c1.4-1.3 2.6-1.9 3.6-1.9c.9 0 2 1.4 3.4 4.1c1.4 2.9 2.1 5.6 2.1 8.1v5.8c-1.9 0-4.1-.3-6.7-1.1c-2.2-.6-4.2-1.4-5.9-2.3c-1 1.6-2.3 2.6-3.8 3.1c-.7 .2-1.7 .3-3 .3H241.2c-2.1 0-3.6-.8-4.5-2.5c-1.1-1.9-1.6-5.1-1.6-9.6v-7.7c0-1.7-.2-3.1-.7-4c-.3-.5-.8-1.2-1.6-2Zm84.4-7.7c.4 0 .6 .2 .8 .4c.2 .2 .3 .5 .3 .9c0 .2 0 .5-.1 .7c-.1 .2-.2 .5-.5 .9c-.9-.4-1.5-.7-1.8-.7c-.3 0-.7 .1-1 .3c-.2 .1-.4 .2-.6 .4c0 .2 .5 .6 1.3 1.1c.9 .5 1.5 .7 1.9 .7c.2 0 .9-.1 1.9-.4c-.2 .5-.4 .9-.7 1.2c-.2 .2-.5 .4-.9 .5l-5.8 1.7c.4-.6 .7-1 .9-1.3c.3-.2 .8-.4 1.5-.6c-.5-.4-.9-.6-1.1-.9c-.2-.3-.3-.6-.3-.8c0-.3 0-.6 .2-.8c.1-.3 .3-.6 .5-.9c1.2-1.6 2.4-2.4 3.5-2.4Z" class="g0_15"/>
<path d="M284.1 256.6l5 2.8l-2.8 5.2l-4-2l-2.2 4.3l-4.9-2.7l2.9-5.5l3.9 2.2Zm-29.7 0l5 2.8l-2.8 5.2l-4-2l-2.2 4.3l-4.9-2.7l2.9-5.5l3.9 2.2Zm155.1-13.7c-.7 0-1.3 .8-1.8 2.4c.9 .3 1.6 .6 2.1 .8c1.5 .5 2.3 .8 2.5 .8c.4 0 .6-.1 .6-.4c0-.4-.4-1.1-1.2-2c-.8-1.1-1.6-1.6-2.2-1.6Zm-105.6 0c-.7 0-1.3 .8-1.8 2.4c.9 .3 1.6 .6 2.1 .8c1.5 .5 2.3 .8 2.5 .8c.4 0 .6-.1 .6-.4c0-.4-.4-1.1-1.2-2c-.8-1.1-1.6-1.6-2.2-1.6Zm82-.9c-1.2 0-2.5 .4-4 1.2c-1.4 .7-3.6 2.1-6.4 4.1h7c5.9 0 8.9-.9 8.9-2.7c0-.8-.7-1.5-1.9-1.9c-1.1-.5-2.3-.7-3.6-.7Zm-10.4-19.5l6.3 3.3l-3.3 6l-6.2-3.2Zm-106.9-.4l6.2 3.3l-3.2 6l-6.3-3.3Zm74.9-.1c1 1.5 1.7 2.9 2.1 4.3c.5 1.6 .8 3.7 .8 6.2v5.3c0 3.8 .2 6.4 .7 7.8c.4 1.2 1.1 1.7 1.9 1.7h5.7c2.1 0 3.6-.5 4.7-1.5c1.2-1.2 2.1-3.3 2.4-6.3l1.8 .3c0 .6 0 1.1-.1 1.5c0 1.2-.1 2.1-.1 2.9c0 1 .3 1.8 .8 2.3c.6 .6 1.3 .8 2.1 .8c.9 0 1.7-.1 2.5-.5c.7-.3 1.9-1.1 3.5-2.2l9.6-6.9c1.1-.8 2-1.4 2.6-1.7c1.3-.8 2.5-1.2 3.7-1.2c2 0 3.6 .7 4.9 2.1c1.3 1.7 2 4.2 2 7.5v2.9h3.4c1.6 0 2.9-.2 3.8-.5c1.2-.5 2.1-1.4 2.6-2.6c1-2.3 2.3-4.2 3.9-5.7c1.4-1.3 2.6-1.9 3.6-1.9c.9 0 2 1.4 3.4 4.1c1 2.2 1.7 4.3 2 6.2v.4h17.4c-2.2-2.2-4.2-3.8-6-4.8c-1.7-.9-3.3-1.3-4.8-1.3c-.5 0-.9 0-1.3 .1c-.4 0-.9 .1-1.7 .3c1-2.3 2.1-3.9 3.3-5c1.2-1.1 2.6-1.6 4.1-1.6c1.2 0 2.4 .3 3.5 .8c1.1 .6 2.3 1.5 3.6 2.8c1.1 1 2.6 2.6 4.6 4.7c1.3 1.5 2.4 2.5 3.1 2.9c.7 .5 1.7 .8 3.2 1.1v7.3H416.1v-.1h-.5c-1.3-.2-2.8-.5-4.4-1c-2.2-.6-4.2-1.4-5.8-2.3c-1.1 1.6-2.4 2.6-3.9 3.1c-.7 .2-1.7 .3-3 .3H366.7c-1.3 0-2.3-.3-3-.9c-.8-.6-1.5-1.7-2-3.1c-1.1 1.6-2.2 2.7-3.3 3.3c-.9 .5-2.2 .7-3.7 .7H349c-2.1 0-3.6-.8-4.5-2.5c-1.1-1.9-1.6-5.1-1.6-9.6v-7.7c0-1.7-.2-3.1-.7-4c-.3-.5-.8-1.2-1.6-2Zm-24.3 0l1.7 9.6c.5 3.6 1 6.7 1.2 9.4c.2 2 .3 4 .3 5.8c0 1.6-.2 3.1-.6 4.4c-.4 1.3-1.1 3.1-2.2 5.3l-1.6-.6c.5-2.3 .7-4.2 .7-5.6c0-1.1-.1-2.7-.3-4.8c-.2-2.1-.4-4.2-.7-6.3c-.2-2.1-.7-4.5-1.3-7.4c-.2-1-.3-1.7-.3-2.1c0-.5 .3-1.5 .8-2.8c.6-1.3 1.4-2.9 2.3-4.9Zm-83.5 0c1 1.5 1.7 2.9 2.1 4.3c.5 1.6 .8 3.7 .8 6.2v5.3c0 3.8 .2 6.4 .7 7.8c.4 1.2 1.1 1.7 1.9 1.7h16c-.2-1.2-.6-2.2-1.1-3c-.3-.5-.9-1.3-1.9-2.5l2.1-6.4c1.4 1.6 2.3 3.2 2.8 4.8c.4 1.5 .7 3.6 .7 6.3v.8H272c-.2-1.2-.5-2.2-1.1-3c-.2-.5-.9-1.3-1.9-2.5l2.2-6.4c1.3 1.6 2.3 3.2 2.7 4.8c.5 1.5 .7 3.6 .8 6.3v.8h12.2c-.2-1.2-.6-2.2-1.1-3c-.3-.5-.9-1.3-1.9-2.5l2.1-6.4c1.4 1.6 2.3 3.2 2.8 4.8c.4 1.5 .7 3.6 .7 6.3v.8h3.4c1.6 0 2.9-.2 3.8-.5c1.2-.5 2.1-1.4 2.6-2.6c1-2.3 2.3-4.2 3.9-5.7c1.4-1.3 2.6-1.9 3.6-1.9c.9 0 2 1.4 3.4 4.1c1.4 2.9 2.1 5.6 2.1 8.1v5.8c-1.9 0-4.1-.3-6.7-1.1c-2.2-.6-4.2-1.4-5.9-2.3c-1 1.6-2.3 2.6-3.8 3.1c-.7 .2-1.7 .3-3 .3H241.2c-2.1 0-3.6-.8-4.5-2.5c-1.1-1.9-1.6-5.1-1.6-9.6v-7.7c0-1.7-.2-3.1-.7-4c-.3-.5-.8-1.2-1.6-2Zm84.4-7.7c.4 0 .6 .2 .8 .4c.2 .2 .3 .5 .3 .9c0 .2 0 .5-.1 .7c-.1 .2-.2 .5-.5 .9c-.9-.4-1.5-.7-1.8-.7c-.3 0-.7 .1-1 .3c-.2 .1-.4 .2-.6 .4c0 .2 .5 .6 1.3 1.1c.9 .5 1.5 .7 1.9 .7c.2 0 .9-.1 1.9-.4c-.2 .5-.4 .9-.7 1.2c-.2 .2-.5 .4-.9 .5l-5.8 1.7c.4-.6 .7-1 .9-1.3c.3-.2 .8-.4 1.5-.6c-.5-.4-.9-.6-1.1-.9c-.2-.3-.3-.6-.3-.8c0-.3 0-.6 .2-.8c.1-.3 .3-.6 .5-.9c1.2-1.6 2.4-2.4 3.5-2.4Z" class="g1_15"/>
<path fill-rule="evenodd" d="M205.2 255h7.6v7.5h-7.6ZM190 255h7.6v7.5H190Zm-15.2 0h7.5v7.5h-7.5Z" class="g0_15"/>
<path d="M205.2 255h7.6v7.5h-7.6ZM190 255h7.6v7.5H190Zm-15.2 0h7.5v7.5h-7.5Z" class="g1_15"/>
<path fill-rule="evenodd" d="M147.1 242.9c-.7 0-1.3 .8-1.7 2.4c.9 .3 1.6 .6 2.1 .8c1.4 .5 2.2 .8 2.4 .8c.4 0 .6-.1 .6-.4c0-.4-.4-1.1-1.1-2c-.9-1.1-1.6-1.6-2.3-1.6ZM61.3 229.3c2.3 1.7 4 3.9 5 6.7c.8 2.5 1.3 5.9 1.3 10v1.3h8c.5 0 .9 0 1.2 0c.5 0 1-.1 1.6-.1c-.9-1.4-1.5-2.5-1.8-3.3c-.4-.8-.5-1.8-.5-2.8c0-2.7 1.1-5 3.3-7c2.2-2 4.8-3 7.8-3c1.9 0 3.8 .6 5.7 2c1.6 1.2 2.8 2.7 3.6 4.4l-1.1 1c-1.4-.6-2.6-.9-3.4-1.1c-.8-.2-1.9-.2-3.1-.2c-2.2 0-4.1 .2-5.7 .5c-2.1 .5-3.1 1.1-3.1 1.9c0 1.3 2.5 3.3 7.4 6.2l13.7-4l-3 7.7c-4.8 1.5-8.8 2.6-12 3.4c-1.4 .4-2.6 .6-3.8 .9l-.9 .2v.6H55.4c-1.2 0-2.1-.2-2.7-.7c-.8-.6-1.1-1.6-1.1-3c0-.8 0-1.6 .1-2.5c.1-.9 .2-1.9 .3-2.8l1.1-.1c.1 .7 .4 1.1 .9 1.4c.5 .3 1.1 .4 1.8 .4H65c-.4-2.6-1.1-4.7-2.1-6.3c-.8-1.3-2-2.4-3.5-3.3Zm-18.9 0c2.4 1.7 4 3.9 5 6.7c.9 2.5 1.3 5.9 1.3 10v8.6H36.5c-1.1 0-2-.2-2.7-.7c-.7-.6-1.1-1.6-1.1-3c0-.8 0-1.6 .1-2.5c.1-.9 .2-1.9 .4-2.8l1-.1c.1 .7 .4 1.1 .9 1.4c.5 .3 1.1 .4 1.8 .4h9.3c-.5-2.6-1.2-4.7-2.2-6.3c-.8-1.3-2-2.4-3.5-3.3Zm81.1-7.3c1 1.5 1.7 2.9 2.1 4.3c.5 1.6 .8 3.7 .8 6.2v5.3c0 3.8 .2 6.4 .7 7.8c.4 1.2 1 1.7 1.9 1.7h7.1c1.7 0 2.9-.2 3.9-.5c1.2-.5 2-1.4 2.5-2.6c1-2.3 2.3-4.2 3.9-5.7c1.4-1.3 2.6-1.9 3.6-1.9c.9 0 2.1 1.4 3.4 4.1c1.4 2.9 2.1 5.6 2.1 8.1v5.8c-1.9 0-4.1-.3-6.6-1.1c-2.2-.6-4.2-1.4-5.9-2.3c-1 1.6-2.3 2.6-3.8 3.1c-.8 .2-1.8 .3-3.1 .3H129c-2.1 0-3.6-.8-4.5-2.5c-1.1-1.9-1.6-5.1-1.6-9.6v-7.7c0-1.7-.2-3.1-.7-4c-.2-.5-.8-1.2-1.6-2Z" class="g0_15"/>
<path d="M147.1 242.9c-.7 0-1.3 .8-1.7 2.4c.9 .3 1.6 .6 2.1 .8c1.4 .5 2.2 .8 2.4 .8c.4 0 .6-.1 .6-.4c0-.4-.4-1.1-1.1-2c-.9-1.1-1.6-1.6-2.3-1.6ZM61.3 229.3c2.3 1.7 4 3.9 5 6.7c.8 2.5 1.3 5.9 1.3 10v1.3h8c.5 0 .9 0 1.2 0c.5 0 1-.1 1.6-.1c-.9-1.4-1.5-2.5-1.8-3.3c-.4-.8-.5-1.8-.5-2.8c0-2.7 1.1-5 3.3-7c2.2-2 4.8-3 7.8-3c1.9 0 3.8 .6 5.7 2c1.6 1.2 2.8 2.7 3.6 4.4l-1.1 1c-1.4-.6-2.6-.9-3.4-1.1c-.8-.2-1.9-.2-3.1-.2c-2.2 0-4.1 .2-5.7 .5c-2.1 .5-3.1 1.1-3.1 1.9c0 1.3 2.5 3.3 7.4 6.2l13.7-4l-3 7.7c-4.8 1.5-8.8 2.6-12 3.4c-1.4 .4-2.6 .6-3.8 .9l-.9 .2v.6H55.4c-1.2 0-2.1-.2-2.7-.7c-.8-.6-1.1-1.6-1.1-3c0-.8 0-1.6 .1-2.5c.1-.9 .2-1.9 .3-2.8l1.1-.1c.1 .7 .4 1.1 .9 1.4c.5 .3 1.1 .4 1.8 .4H65c-.4-2.6-1.1-4.7-2.1-6.3c-.8-1.3-2-2.4-3.5-3.3Zm-18.9 0c2.4 1.7 4 3.9 5 6.7c.9 2.5 1.3 5.9 1.3 10v8.6H36.5c-1.1 0-2-.2-2.7-.7c-.7-.6-1.1-1.6-1.1-3c0-.8 0-1.6 .1-2.5c.1-.9 .2-1.9 .4-2.8l1-.1c.1 .7 .4 1.1 .9 1.4c.5 .3 1.1 .4 1.8 .4h9.3c-.5-2.6-1.2-4.7-2.2-6.3c-.8-1.3-2-2.4-3.5-3.3Zm81.1-7.3c1 1.5 1.7 2.9 2.1 4.3c.5 1.6 .8 3.7 .8 6.2v5.3c0 3.8 .2 6.4 .7 7.8c.4 1.2 1 1.7 1.9 1.7h7.1c1.7 0 2.9-.2 3.9-.5c1.2-.5 2-1.4 2.5-2.6c1-2.3 2.3-4.2 3.9-5.7c1.4-1.3 2.6-1.9 3.6-1.9c.9 0 2.1 1.4 3.4 4.1c1.4 2.9 2.1 5.6 2.1 8.1v5.8c-1.9 0-4.1-.3-6.6-1.1c-2.2-.6-4.2-1.4-5.9-2.3c-1 1.6-2.3 2.6-3.8 3.1c-.8 .2-1.8 .3-3.1 .3H129c-2.1 0-3.6-.8-4.5-2.5c-1.1-1.9-1.6-5.1-1.6-9.6v-7.7c0-1.7-.2-3.1-.7-4c-.2-.5-.8-1.2-1.6-2Z" class="g1_15"/>
<path fill-rule="evenodd" d="M833.4 332.9l3.4 2.1l-2.7 3.1l-2.8-1.8l-2.1 2.2l-3.4-1.9l2.5-3.2l3 1.9Zm-205 0l3.4 2.1l-2.6 3.1l-2.9-1.8l-2.1 2.2l-3.4-1.9l2.6-3.2l2.9 1.9Zm638-11.9l5 2.7l-2.8 5.2l-4-1.9l-2.2 4.3l-4.9-2.7l2.9-5.5l3.9 2.1Zm-72.2 0l5 2.7l-2.8 5.2l-4-1.9l-2.2 4.3l-4.9-2.7l2.9-5.5l3.8 2.1Zm-54.5 0l5 2.7l-2.8 5.2L1138 327l-2.3 4.3l-4.9-2.7l3-5.5l3.8 2.1Zm-608.6 0l5 2.7l-2.8 5.2l-4-1.9l-2.3 4.3l-4.9-2.7l3-5.5l3.8 2.1Zm-41.8-1.5c.2 1.5 1.1 2.9 2.4 4.1c1.4 1.1 2.9 1.7 4.4 1.7c.6 0 .8-.2 .8-.6c0-1-.5-1.9-1.7-2.8c-1.4-1.1-3.3-1.9-5.9-2.4Zm-45.8-6.8c1 0 1.7 .3 2.4 1c.6 .6 .9 1.4 .9 2.3c0 .9-.3 1.7-1 2.4c-.6 .6-1.4 1-2.4 1c-.8 0-1.6-.4-2.3-1c-.6-.7-.9-1.5-.9-2.4c0-.9 .3-1.7 1-2.3c.6-.7 1.4-1 2.3-1Zm943.4-5.3c-.5 0-1 .2-1.3 .6c-.4 .5-.5 .9-.5 1.5c0 .6 .3 1.1 1 1.6c.7 .4 1.7 .6 2.8 .6h1.1c-.5-2.9-1.6-4.3-3.1-4.3Zm-136.2 0c-.6 0-1 .2-1.3 .6c-.4 .5-.5 .9-.5 1.5c0 .6 .3 1.1 1 1.6c.7 .4 1.7 .6 2.8 .6h1.1c-.5-2.9-1.6-4.3-3.1-4.3Zm-72.2 0c-.6 0-1 .2-1.4 .6c-.3 .5-.5 .9-.5 1.5c0 .6 .4 1.1 1.1 1.6c.7 .4 1.6 .6 2.8 .6h1c-.5-2.9-1.5-4.3-3-4.3Zm-623.6 0c-.5 0-1 .2-1.3 .6c-.3 .5-.5 .9-.5 1.5c0 .6 .4 1.1 1.1 1.6c.7 .4 1.6 .6 2.8 .6h1c-.5-2.9-1.5-4.3-3.1-4.3Zm459.8-.2c-.7 0-1.3 .8-1.8 2.4c.9 .4 1.6 .7 2.1 .8c1.5 .6 2.3 .8 2.5 .8c.4 0 .5-.1 .5-.3c0-.4-.3-1.1-1.1-2.1c-.9-1-1.6-1.6-2.2-1.6ZM494.3 304c-.5 0-1.1 .5-1.7 1.5c-.6 1-1.3 2.6-2.2 4.8c2-.7 3.5-1.4 4.2-1.9c.8-.5 1.2-1 1.2-1.7c0-.4-.2-1-.5-1.7c-.3-.7-.7-1-1-1Zm441.4-1c-.4 0-.7 .1-1 .3c-.2 .3-.4 .5-.4 .8c0 .8 .6 1.6 1.8 2.3c1.1 .7 2.5 1.2 4.1 1.5c-.7-1.6-1.4-2.8-2.2-3.6c-.8-.9-1.5-1.3-2.3-1.3Zm-185.2-1.5c1.3 1.3 2.2 2.7 2.9 4.3c.6 1.7 1 3.5 1 5.6v8.2c0 1.1-.7 2.6-1.9 4.4c-1.3 1.8-2.7 3.3-4.4 4.6c-1.9 1.5-3.5 2.2-4.8 2.2c-1.6 0-3.3-.4-5.1-1.3c-1.6-.8-4-2.3-7.4-4.6l1.2-1.7c1.6 1.1 2.9 1.8 3.9 2.2c.9 .4 2 .6 3.1 .6c1.3 0 2.5-.4 3.7-1.1c1.3-.7 3-2 5.1-3.9c3-2.6 4.5-4.7 4.5-6.1c0-.7-.3-1.7-.9-2.8c-.7-1.4-1.4-2.5-2.4-3.3Zm164.4-.9c-.6 .3-1 .5-1.3 .6c-1 .6-1.8 1.1-2.4 1.5c-.4 .4-.8 .7-1.1 1c-.3 .4-.5 .7-.5 .9c0 .2 .3 .4 .9 .6c.7 .1 1.3 .2 1.9 .2c.4 0 .8-.1 1.2-.3c.5-.3 1.1-.7 1.9-1.3Zm153.9-.6l1.5 .9c-.4 .7-.8 1.4-1 2c-.3 .6-.5 1.1-.6 1.5c-.3 .8-.4 1.6-.4 2.4c0 1.1 .3 2 .9 2.8c.7 .8 1.6 1.4 2.6 1.6c.6 .1 1.4 .3 2.5 .4c.9 .1 2 .1 3.1 .1h19.5c-.6-1.4-1-2.4-1.3-2.9c-.4-.7-1-1.6-1.8-2.6l2.4-6.2c1.4 1.9 2.2 3.6 2.7 5.2c.3 1.5 .5 3.5 .5 6.2V319h-22.5c-1.1 0-2 0-2.7 0c-.8 0-1.3-.1-1.7-.1c-.6-.1-1.4-.3-2.2-.6c-1.5-.5-2.7-1.5-3.7-3c-.9-1.6-1.4-3.3-1.4-5.2c0-.7 .1-1.5 .2-2.3c.1-.8 .3-1.6 .6-2.5c.3-1.1 .7-2.1 1.2-2.9c.5-.9 1-1.7 1.6-2.4Zm335.8-.2c1.3 1.5 2.2 3.1 2.7 4.8c.5 1.6 .8 4.1 .8 7.4v7h-15.3l-.6 2.8c-.6 1.5-1.6 3-2.9 4.5c-2.6 3-5.2 4.5-7.8 4.5c-1.5 0-3.1-.5-4.8-1.4c-1.8-1-4.5-2.9-8.2-5.6l1.2-1.6c1.9 1.3 3.5 2.1 4.7 2.6c1 .3 2.2 .5 3.5 .5c1.7 0 3.4-.5 5.1-1.4c2-1.2 4.1-3 6.3-5.6c-.8 .1-1.4 .2-1.9 .2c-1.8 0-3.2-.6-4.2-1.7c-1.1-1.2-1.6-2.8-1.6-4.8c0-2.6 .6-5.2 1.8-7.7c1.4-2.7 2.9-4.1 4.6-4.1c1.5 0 2.7 1 3.7 3c1 1.9 1.5 4.3 1.5 7v1.5h12.2c-.2-1.2-.6-2.2-1.1-3.1c-.3-.4-.9-1.3-1.9-2.4Zm-753.2-1.1c-.6 0-1 .2-1.5 .7c-.4 .5-.6 1.1-.6 1.7c0 .4 .2 .7 .5 1c.3 .3 .7 .4 1.3 .4c.4 0 .8-.1 1.2-.3c.4-.3 .9-.7 1.6-1.3c-.5-.8-1-1.4-1.3-1.7c-.4-.4-.8-.5-1.2-.5Zm688.4-4.5c1.9 0 3.7 .4 5.4 1.3c1.7 .9 3.1 2.2 4.2 3.9c-.5 0-1 0-1.5 0c-.5 0-1 0-1.5-.1c-3.7 0-6.7 .3-9 .9c-2.3 .6-3.5 1.4-3.5 2.3c0 .8 .4 1.5 1.2 2.3c1 .9 2.5 1.8 4.5 2.7c2.5-1.1 4.4-1.8 5.7-2.3c1.4-.4 3.4-.9 6.2-1.5c-.5 1.5-.9 2.7-1.1 3.4c-.4 .8-.8 1.9-1.5 3.2c-5.4 1.3-9.7 3.1-12.9 5.4c-3.2 2.3-4.8 4.8-4.8 7.4c0 2.4 1.4 4.3 4.1 5.6c3.2 1.5 8.1 2.3 14.8 2.3h.6c1.1 0 1.8-.1 2.3-.1c.5 0 1.4-.1 2.7-.2l.5 1.1l-10.2 6.3h-2.7c-5 0-8.8-1.1-11.3-3.2c-2.6-2.2-3.8-5.3-3.8-9.4c0-2.7 .3-5 1-7.1c.8-2.3 2-4.3 3.8-6c-.9-1.1-1.7-2.2-2.4-3.6c-.7-1.3-1-2.4-1-3.2c0-1.1 .4-2.6 1.2-4.6c.7-2 1.5-3.5 2.2-4.3c.6-.8 1.6-1.4 2.8-1.9c1.2-.4 2.5-.6 4-.6Zm-215.9-.6c2.3 1.8 4 4 4.9 6.7c.9 2.6 1.4 5.9 1.4 10.1v1.3h12.3c-.2-1.2-.6-2.2-1.1-3.1c-.3-.4-.9-1.3-1.9-2.4l2.2-6.4c1.3 1.5 2.2 3.1 2.7 4.8c.4 1.4 .7 3.5 .7 6.2v.9h12.2c-.2-1.2-.5-2.2-1-3.1c-.3-.4-.9-1.3-1.9-2.4l2.1-6.4c1.4 1.5 2.3 3.1 2.8 4.8c.5 1.6 .7 4.1 .7 7.4v7h-42c-1.1 0-2.1-.2-2.7-.7c-.8-.7-1.1-1.7-1.1-3c0-.8 0-1.7 .1-2.6c.1-.9 .2-1.8 .4-2.7l1-.1c.1 .6 .4 1.1 .9 1.4c.5 .3 1.1 .4 1.8 .4h9.2c-.4-2.6-1.1-4.7-2.1-6.3c-.8-1.3-2-2.4-3.5-3.4Zm-472-1.7c1.9 0 3.6 1.6 5.3 4.9c1.7 3.2 2.5 6.7 2.5 10.4V319H640.2c-.8 0-1.4 0-1.7 .1c-.4 0-.6 .1-.6 .3c.5 .3 1 .5 1.5 .6c.4 .2 .8 .3 .9 .5c.1 .2 .2 .5 .2 .9c0 1.3-.4 2.8-1.1 4.6c-.7 1.7-1.4 2.8-2.1 3.2c-.7 .6-2.6 1.2-5.9 2c-3.3 .7-6.1 1-8.5 1c-3.3 0-6-.7-8.1-2c-2.1-1.5-3.1-3.3-3.1-5.5c0-2.2 .4-4.3 1.3-6.3c1.1-2.4 3.2-5.4 6.2-9.1l1.6 1.1c-1.9 2.3-3.2 4.2-3.9 5.6c-.7 1.4-1.1 2.8-1.1 4.2c0 1.9 .8 3.4 2.4 4.3c1.6 .9 4 1.4 7.3 1.4c1.7 0 4.1-.4 7.2-1c3-.6 4.5-1.2 4.5-1.6c0-.2-.5-.4-1.7-.6c-1.2-.2-2.5-.3-3.9-.3c-2 0-3-.4-3-1.3c0-.4 .2-1.2 .7-2.2c.3-.8 .7-1.5 1.1-2.2c.6-1.5 1.9-2.7 3.7-3.6c1.9-.9 3.9-1.4 5.9-1.4h17.2c0-1.6-.1-2.7-.2-3.3c-.1-1.1-.4-1.9-.9-2.7c-.5 1.1-1.3 2-2.3 2.6c-.9 .6-2 .8-3.1 .8c-1.4 0-2.6-.4-3.6-1.4c-1-.9-1.5-2.1-1.5-3.6c0-2.1 .7-4.6 2-7.5c1.4-3.2 2.8-4.7 4.3-4.7Zm433-1.1l5 2.7l-2.8 5.2l-4-2l-2.2 4.4l-4.9-2.7l2.9-5.5l3.9 2.1Zm-388.6 0l5 2.7l-2.8 5.2l-4-2l-2.3 4.4l-4.9-2.7l3-5.5l3.8 2.1Zm96.4-.3l4.9 2.8l-3 5.4l-3.8-2.1l-2.1 4.2l-5-2.7l2.8-5.2l3.9 2Zm-64.5-2.6v6.4c0 0-.8 .3-2.2 .7c-1.8 .6-3.2 1.1-4.2 1.5c-1.5 .6-2.3 1.1-2.3 1.4c0 .2 .7 .9 1.9 2.1c1.8 1.7 3.2 3.2 4.4 4.6c2 2.3 3.6 4.6 4.8 6.9V319H688.2c-1.1 0-2 0-2.7 0c-.7 0-1.3-.1-1.6-.1c-.7-.1-1.5-.3-2.3-.6c-1.5-.5-2.7-1.5-3.6-3c-1-1.6-1.5-3.3-1.5-5.2c0-.7 .1-1.5 .2-2.3c.1-.8 .3-1.6 .6-2.5c.3-1.1 .8-2.1 1.3-2.9c.5-.9 1-1.7 1.5-2.4l1.5 .9c-.4 .7-.7 1.4-1 2c-.2 .6-.4 1.1-.6 1.5c-.3 .8-.4 1.6-.4 2.4c0 1.1 .3 2 1 2.8c.7 .8 1.5 1.4 2.5 1.6c.7 .1 1.5 .3 2.5 .4c1 .1 2.1 .1 3.2 .1h19.4c-.5-1.4-.9-2.4-1.2-2.9c-.4-.7-1-1.6-1.9-2.6l2.5-6.2c1.3 1.9 2.2 3.6 2.6 5.2c.3 1.5 .5 3.5 .5 6.2v.3h15.6c-.7-.8-1.4-1.6-2-2.2c-.6-.5-1.3-1.1-2.2-1.8c-1-.8-2-1.6-3.1-2.4l-.8 1c-1.6-1.6-2.5-2.6-2.8-2.9c-.9-1-1.4-2.2-1.4-3.5c0-1.8 .1-3.1 .4-3.8c.3-1.1 1.1-2 2.3-2.8c1-.7 2.1-1.4 3.3-2c.9-.4 2.2-1 3.7-1.6c.7-.3 2.2-.9 4.5-1.8Zm-149.6 0v6.4c0 0-.8 .3-2.2 .7c-1.8 .6-3.2 1.1-4.2 1.5c-1.5 .6-2.3 1.1-2.3 1.4c0 .2 .7 .9 1.9 2.1c1.8 1.7 3.2 3.2 4.4 4.6c2 2.3 3.6 4.6 4.8 6.9v.2h12.2c-.2-1.2-.5-2.2-1.1-3.1c-.2-.4-.9-1.3-1.9-2.4l2.2-6.4c1.3 1.5 2.3 3.1 2.7 4.8c.6 1.6 .8 4.1 .8 7.4v7H560.8l-.6 2.8c-.6 1.5-1.6 3-2.9 4.5c-2.6 3-5.2 4.5-7.7 4.5c-1.5 0-3.1-.5-4.9-1.4c-1.8-1-4.5-2.9-8.1-5.6l1.1-1.6c1.9 1.3 3.5 2.1 4.8 2.6c1 .3 2.1 .5 3.4 .5c1.7 0 3.5-.5 5.2-1.4c2-1.2 4-3 6.2-5.6c-.7 .1-1.4 .2-1.9 .2c-1.7 0-3.2-.6-4.2-1.7c-1.1-1.2-1.6-2.8-1.6-4.8c0-2.6 .6-5.2 1.9-7.7c1.3-2.7 2.9-4.1 4.6-4.1c1.4 0 2.6 1 3.6 3c1 1.9 1.5 4.3 1.5 7v1.5h15.5c-.7-.8-1.4-1.6-2-2.2c-.6-.5-1.3-1.1-2.2-1.8c-1-.8-2-1.6-3.1-2.4l-.8 1c-1.6-1.6-2.5-2.6-2.8-2.9c-.9-1-1.4-2.2-1.4-3.5c0-1.8 .1-3.1 .4-3.8c.3-1.1 1.1-2 2.3-2.8c1-.7 2.1-1.4 3.3-2c.9-.4 2.2-1 3.7-1.6c.7-.3 2.2-.9 4.5-1.8Zm-134.7-.2c2.2 0 4 .7 5.5 1.9c1.5 1.2 2.3 2.8 2.3 4.8c0 1.1-.3 2.1-1 2.9c-.7 1-1.7 1.5-2.8 1.5c-.9 0-1.7-.3-2.2-.9c-.6-.6-.9-1.3-.9-2.1c0-1.2 .5-2.1 1.4-2.7c1-.7 1.5-1.1 1.5-1.5c0-.6-.3-1.1-.8-1.5c-.6-.4-1.4-.6-2.3-.6c-1.1 0-2.1 .4-2.8 1c-.8 .6-1.2 1.5-1.2 2.4c0 .9 .4 2 1.2 3.4c1.1 2 1.8 3.4 2.1 4c.7 1.9 1.1 3.9 1.1 6.1c0 1.2-.1 2.5-.3 4l-1.6-.1c0-.3 0-.5 0-.7l.2-1.4c0-1-.7-2.1-2-3.3c-2.3-2-3.5-3.1-3.7-3.4c-1.4-1.6-2.1-3.4-2.1-5.4c0-2.4 .8-4.4 2.5-6c1.6-1.6 3.6-2.4 5.9-2.4Zm710.7-.1l5 2.7l-2.8 5.2l-4-2l-2.2 4.4l-4.9-2.8l2.9-5.4l3.8 2.1Zm-188.5 0l5 2.7l-2.8 5.2l-4-2l-2.2 4.4l-4.9-2.8l2.9-5.4l3.9 2.1Zm-108.7 0l5 2.7l-2.8 5.2l-4-2l-2.2 4.4l-4.9-2.8l2.9-5.4l3.8 2.1Zm-266.9 0l5 2.7l-2.8 5.2l-4-2l-2.3 4.4l-4.9-2.8l3-5.4l3.8 2.1Zm392.7-.5l6.3 3.3l-3.3 6l-6.3-3.2Zm418.8-.7l6.2 3.4l-3.2 6l-6.3-3.3Zm-121.4 0l6.2 3.4l-3.2 6l-6.3-3.3Zm-765.1 0l6.3 3.4l-3.2 6l-6.3-3.3Zm899.3 0l1.7 9.5c.5 3.6 1 6.8 1.2 9.4c.2 2 .3 4 .3 5.9c0 1.6-.2 3-.6 4.3c-.4 1.4-1.1 3.1-2.2 5.4l-1.6-.7c.5-2.3 .7-4.1 .7-5.6c0-1.1-.1-2.7-.3-4.8c-.2-2.1-.4-4.2-.7-6.2c-.2-2.1-.7-4.6-1.3-7.5c-.2-.9-.3-1.6-.3-2c0-.6 .3-1.5 .8-2.8c.6-1.4 1.4-3 2.3-4.9Zm-51.5 0l1.6 9.5c.6 3.6 1 6.8 1.2 9.4c.2 2 .3 4 .3 5.9c0 1.6-.2 3-.6 4.3c-.3 1.4-1.1 3.1-2.2 5.4l-1.6-.7c.5-2.3 .7-4.1 .7-5.6c0-1.1-.1-2.7-.3-4.8c-.2-2.1-.4-4.2-.6-6.2c-.3-2.1-.8-4.6-1.4-7.5c-.2-.9-.3-1.6-.3-2c0-.6 .3-1.5 .8-2.8c.6-1.4 1.4-3 2.4-4.9Zm-57 0l1.6 9.5c.6 3.6 1 6.8 1.2 9.4c.2 2 .3 4 .3 5.9c0 1.6-.2 3-.6 4.3c-.4 1.4-1.1 3.1-2.2 5.4l-1.6-.7c.5-2.3 .7-4.1 .7-5.6c0-1.1-.1-2.7-.3-4.8c-.2-2.1-.4-4.2-.7-6.2c-.2-2.1-.7-4.6-1.3-7.5c-.2-.9-.3-1.6-.3-2c0-.6 .3-1.5 .8-2.8c.6-1.4 1.4-3 2.4-4.9Zm-200.1 0l1.7 9.5c.5 3.6 1 6.8 1.2 9.4c.2 2 .3 4 .3 5.9c0 1.6-.2 3-.6 4.3c-.4 1.4-1.1 3.1-2.2 5.4l-1.6-.7c.4-2.3 .7-4.1 .7-5.6c0-1.1-.1-2.7-.3-4.8c-.2-2.1-.4-4.2-.7-6.2c-.3-2.1-.7-4.6-1.3-7.5c-.2-.9-.3-1.6-.3-2c0-.6 .3-1.5 .8-2.8c.6-1.4 1.3-3 2.3-4.9Zm-63.4 0l1.6 9.5c.6 3.6 1 6.8 1.3 9.4c.1 2 .2 4 .2 5.9c0 1.6-.2 3-.5 4.3c-.4 1.4-1.1 3.1-2.2 5.4l-1.6-.7c.4-2.3 .6-4.1 .6-5.6c0-1.1-.1-2.7-.2-4.8c-.2-2.1-.5-4.2-.7-6.2c-.3-2.1-.7-4.6-1.3-7.5c-.3-.9-.4-1.6-.4-2c0-.6 .3-1.5 .9-2.8c.5-1.4 1.3-3 2.3-4.9Zm-160.4 0l1.6 9.5c.6 3.6 1 6.8 1.2 9.4c.2 2 .3 4 .3 5.9c0 1.6-.2 3-.6 4.3c-.3 1.4-1 3.1-2.1 5.4l-1.6-.7c.4-2.3 .6-4.1 .6-5.6c0-1.1-.1-2.7-.3-4.8c-.1-2.1-.4-4.2-.6-6.2c-.3-2.1-.7-4.6-1.4-7.5c-.2-.9-.3-1.6-.3-2c0-.6 .3-1.5 .9-2.8c.5-1.4 1.3-3 2.3-4.9Zm-124.4 0c1 1.4 1.7 2.9 2.2 4.2c.5 1.7 .7 3.8 .7 6.3v5.3c0 3.7 .2 6.3 .7 7.8c.4 1.1 1.1 1.7 1.9 1.7h5.7c1.9 0 3.4-.5 4.7-1.6c1.6-1.4 2.4-3.5 2.4-6.3l1.8 .3c0 .6-.1 1.2-.1 2c0 .7-.1 1.5-.1 2.4c0 .9 .3 1.7 1 2.3c.6 .6 1.3 .9 2.1 .9h3.3c2.2 0 3.8-.3 4.7-.9c1.1-.8 1.7-2.1 1.7-4.1c0-.5 .1-.8 .4-1.2c.2-.2 .5-.5 1-.9l1-.8c0 .4 .1 .8 .1 1.4c0 .6 0 1 0 1.1c0 1-.1 2.3-.4 4c.7 .3 1.4 .6 2.2 .8c.8 .2 1.7 .4 2.6 .6c0-.7-.2-1.5-.6-2.4c-.5-1-.7-1.6-.7-2c0-.4 0-.8 .2-1.1c0 0 .2-.3 .6-.8l2.2-3.1c.5 1.2 .9 2.2 1.1 3.1c.2 .9 .3 2.1 .3 3.5V319c-2 0-3.7-.1-5-.4c-1.3-.3-2.6-.8-3.9-1.4c-1.1 .7-2 1.2-2.8 1.4c-.8 .3-2 .4-3.7 .4H781c-1.3 0-2.2-.3-2.9-.9c-.7-.7-1.3-1.7-1.9-3.1c-1 1.4-2.1 2.5-3.3 3.2c-1 .5-2.3 .8-3.7 .8h-5.7c-2.1 0-3.6-.9-4.5-2.6c-1.1-1.9-1.6-5.1-1.6-9.6v-7.6c0-1.8-.2-3.1-.7-4.1c-.2-.4-.8-1.1-1.6-2Zm-285.3 0c1.1 1.4 1.8 2.9 2.2 4.2c.5 1.7 .7 3.8 .7 6.3v5.3c0 3.7 .3 6.3 .8 7.8c.4 1.1 1 1.7 1.9 1.7h4.2c1 0 1.9-.1 3-.3c1.1-.2 1.9-.4 2.3-.5c2-5.4 3.7-9.3 5.3-11.7c1.3-2.1 2.6-3.1 3.7-3.1c.9 0 1.7 .9 2.3 2.7c.6 1.5 .9 3 .9 4.5c0 2.1-.4 3.9-1.2 5.4c-.9 1.6-2.3 2.8-4.1 3.5c1.4-.2 2.5-.4 3.6-.4c1.1-.1 2.1-.1 3-.1H519c-.2-1.2-.6-2.2-1.1-3.1c-.3-.4-.9-1.3-1.9-2.4l2.1-6.4c1.4 1.5 2.3 3.1 2.8 4.8c.4 1.4 .7 3.5 .7 6.2v.9h12.2c-.2-1.2-.5-2.2-1.1-3.1c-.2-.4-.9-1.3-1.9-2.4l2.2-6.4c1.3 1.5 2.3 3.1 2.7 4.8c.6 1.6 .8 4.1 .8 7.4v7H501.3c-.4 0-.8 0-1.3 0c-.4 0-1 .1-1.9 .1c.7 .4 1.3 .8 2 1.1c.6 .5 .9 1.1 .9 1.8c0 .7-.1 1.5-.3 2.3c-.1 .4-.4 1.2-.8 2.4c-.8 2.2-1.4 3.7-2.1 4.5c-.6 .8-1.5 1.2-2.5 1.2c-2.5 0-4.6-1.3-6.4-3.9c-1.8-2.7-2.7-5.8-2.7-9.5h-7.9c-2.1 0-3.7-.9-4.6-2.6c-1-1.9-1.5-5.1-1.5-9.6v-7.6c0-1.8-.3-3.1-.8-4.1c-.2-.4-.7-1.1-1.6-2Zm314.7-2.1l5 2.6l-2.7 5.6l-5.1-2.7Zm506.5 0l1.2 .6c0 .1 0 .4-.1 .9c0 .6 .4 1.1 1.1 1.7c.7 .5 1.8 1.1 3.2 1.7c-.2 1.1-.4 2.2-.7 3.3c-.3 1.1-.7 2.1-1.1 3l-.9-.4l2.9 16.6V319h-42.9l-.6 2.8c-.7 1.5-1.6 3-2.9 4.5c-2.7 3-5.2 4.5-7.8 4.5c-1.5 0-3.1-.5-4.9-1.4c-1.7-1-4.4-2.9-8.1-5.6l1.2-1.6c1.9 1.3 3.5 2.1 4.7 2.6c1 .3 2.2 .5 3.5 .5c1.7 0 3.4-.5 5.1-1.4c2-1.2 4.1-3 6.3-5.6c-.8 .1-1.4 .2-1.9 .2c-1.8 0-3.2-.6-4.3-1.7c-1-1.2-1.5-2.8-1.5-4.8c0-2.6 .6-5.2 1.8-7.7c1.4-2.7 2.9-4.1 4.6-4.1c1.5 0 2.7 1 3.7 3c1 1.9 1.5 4.3 1.5 7v1.5h12.2c-.2-1.2-.6-2.2-1.1-3.1c-.3-.4-.9-1.3-1.9-2.4l2.1-6.4c1.4 1.5 2.3 3.1 2.8 4.8c.4 1.4 .7 3.5 .7 6.2v.9H1284c-.2-1.2-.5-2.2-1.1-3.1c-.2-.4-.9-1.3-1.9-2.4l2.2-6.4c1.3 1.5 2.3 3.1 2.7 4.8c.5 1.4 .7 3.5 .8 6.2v.9h9.6l-3.3-18.2l-1.7-1.2c0-1 .2-2.1 .5-3.2c.4-1.3 1.1-2.9 2.1-4.8Zm-87.1 0l1.2 .6c0 .1 0 .4-.1 .9c0 .6 .4 1.1 1.2 1.7c.6 .5 1.7 1.1 3.1 1.7c-.1 1.1-.4 2.2-.7 3.3c-.3 1.1-.7 2.1-1 3l-1-.4l2.9 16.6h15.5c-.7-.8-1.4-1.6-2-2.2c-.6-.5-1.3-1.1-2.2-1.8c-1-.8-2-1.6-3.1-2.4l-.8 1c-1.6-1.6-2.5-2.6-2.8-2.9c-.9-1-1.4-2.2-1.4-3.5c0-1.8 .1-3.1 .4-3.8c.3-1.1 1.1-2 2.3-2.8c1-.7 2.1-1.4 3.3-2c.9-.4 2.2-1 3.7-1.6c.7-.3 2.2-.9 4.5-1.8v6.4c0 0-.8 .3-2.2 .7c-1.8 .6-3.2 1.1-4.2 1.5c-1.5 .6-2.3 1.1-2.3 1.4c0 .2 .7 .9 1.9 2.1c1.8 1.7 3.2 3.2 4.4 4.6c2 2.3 3.6 4.6 4.8 6.9V319h-47.9l-.5 2.8c-.7 1.5-1.7 3-3 4.5c-2.6 3-5.2 4.5-7.7 4.5c-1.5 0-3.1-.5-4.9-1.4c-1.8-1-4.5-2.9-8.1-5.6l1.1-1.6c1.9 1.3 3.5 2.1 4.8 2.6c1 .3 2.1 .5 3.4 .5c1.8 0 3.5-.5 5.2-1.4c2-1.2 4.1-3 6.2-5.6c-.7 .1-1.4 .2-1.9 .2c-1.7 0-3.1-.6-4.2-1.7c-1-1.2-1.6-2.8-1.6-4.8c0-2.6 .7-5.2 1.9-7.7c1.3-2.7 2.9-4.1 4.6-4.1c1.4 0 2.6 1 3.6 3c1 1.9 1.5 4.3 1.5 7v1.5h12.2c-.2-1.2-.5-2.2-1-3.1c-.3-.4-.9-1.3-1.9-2.4l2.1-6.4c1.4 1.5 2.3 3.1 2.8 4.8c.4 1.4 .6 3.5 .7 6.2v.9h9.6l-3.3-18.2l-1.7-1.2c0-1 .2-2.1 .5-3.2c.4-1.3 1.1-2.9 2.1-4.8Zm-255.7 0l1.2 .6c0 .1-.1 .4-.1 .9c0 .6 .4 1.1 1.1 1.7c.7 .5 1.7 1.1 3.2 1.7c-.2 1.1-.4 2.2-.7 3.3c-.3 1.1-.7 2.1-1.1 3l-1-.4l3 16.6h12.2c-.2-1.2-.6-2.2-1.1-3.1c-.3-.4-.9-1.3-1.9-2.4l2.1-6.4c1.4 1.5 2.3 3.1 2.8 4.8c.4 1.4 .7 3.5 .7 6.2v.9h17.2c-2.2-2.2-4.2-3.9-6-4.8c-1.7-.9-3.3-1.3-4.8-1.3c-.5 0-.9 0-1.3 0c-.4 .1-.9 .2-1.7 .3c1-2.2 2.1-3.9 3.3-5c1.2-1 2.6-1.6 4.1-1.6c1.2 0 2.4 .3 3.4 .9c1.1 .6 2.4 1.5 3.7 2.7c1.1 1.1 2.6 2.6 4.6 4.7c1.3 1.5 2.4 2.5 3.1 3c.7 .4 1.7 .8 3.2 1.1h3.4c1.6 0 2.9-.2 3.8-.6c1.2-.5 2.1-1.4 2.5-2.6c1.1-2.3 2.4-4.1 4-5.6c1.4-1.3 2.6-2 3.6-2c.9 0 2 1.4 3.4 4.2c1 2.2 1.7 4.2 1.9 6.1l.1 .5h9.8l-3.2-18.2l-1.7-1.2c0-1 .1-2.1 .4-3.2c.4-1.3 1.1-2.9 2.1-4.8l1.3 .6c0 .1-.1 .4-.1 .9c0 .6 .3 1.1 1.1 1.7c.7 .5 1.7 1.1 3.2 1.7c-.2 1.1-.4 2.2-.8 3.3c-.3 1.1-.6 2.1-1 3l-1-.4l2.9 16.6V319h-14.7v-.1l-.5-.1c-1.3-.2-2.8-.5-4.4-.9c-2.2-.7-4.2-1.4-5.9-2.3c-1 1.6-2.3 2.6-3.8 3c-.7 .3-1.8 .4-3 .4H922.4c-.7 0-1.3-.1-1.8-.4c-1-.5-1.9-1.5-2.6-2.8c-1-1.9-1.6-4.5-1.9-7.8c-1.2 1.5-2.2 2.5-2.8 3.2c-1 .9-1.9 1.3-2.5 1.3c-.4 0-.8 0-1.3-.1l-3.3-.7c-1.4-.3-2.2-.5-2.6-.6c-.3-.1-.4-.3-.4-.7c0-.4 .6-2 1.8-4.5c1.3-2.6 2.2-4.2 2.7-4.8c.5-.5 1.3-1.1 2.4-1.9c.7-.5 1.7-1.1 2.9-1.8l1.4-.8c0-.3-.1-.5-.1-.8c0-.3 0-.5 0-.7c0-.7 .1-1.6 .4-2.6c.4-1 .9-2.3 1.7-3.8l2.6 16.7c.4 2.7 1 4.4 1.6 5.4c.4 .6 1 .9 1.8 .9h6.5c.9 0 1.7 0 2.4 .1c1.9 .2 4.2 .5 6.7 .7c-2.6-.6-4.5-1.3-5.6-2.3c-1-1-1.6-2.4-1.6-4.3c0-2.7 .7-5.2 1.9-7.5c1.3-2.2 2.8-3.3 4.4-3.3c1.8 0 3.3 1.5 4.7 4.7c1.3 3.1 2 6.9 2 11.3v.6h9.6l-3.2-18.2l-1.7-1.2c0-1 .1-2.1 .5-3.2c.4-1.3 1.1-2.9 2.1-4.8Zm-81.1 0l1.3 .6c0 .1-.1 .4-.2 .9c0 .6 .4 1.1 1.2 1.7c.6 .5 1.7 1.1 3.1 1.7c-.1 1.1-.3 2.2-.7 3.3c-.3 1.1-.6 2.1-1 3l-1-.4l2.9 16.6V319H845.2c-.9 0-1.4 0-1.8 .1c-.3 0-.5 .1-.5 .3c.5 .3 1 .5 1.5 .6c.4 .2 .7 .3 .9 .5c.1 .2 .2 .5 .2 .9c0 1.3-.4 2.8-1.1 4.6c-.7 1.7-1.4 2.8-2.2 3.2c-.6 .6-2.6 1.2-5.8 2c-3.3 .7-6.1 1-8.5 1c-3.4 0-6.1-.7-8.2-2c-2-1.5-3.1-3.3-3.1-5.5c0-2.2 .5-4.3 1.4-6.3c1.1-2.4 3.2-5.4 6.1-9.1l1.7 1.1c-1.9 2.3-3.2 4.2-3.9 5.6c-.8 1.4-1.1 2.8-1.1 4.2c0 1.9 .8 3.4 2.3 4.3c1.6 .9 4.1 1.4 7.4 1.4c1.7 0 4.1-.4 7.1-1c3.1-.6 4.6-1.2 4.6-1.6c0-.2-.6-.4-1.8-.6c-1.1-.2-2.4-.3-3.8-.3c-2 0-3-.4-3-1.3c0-.4 .2-1.2 .7-2.2c.3-.8 .7-1.5 1-2.2c.7-1.5 2-2.7 3.8-3.6c1.9-.9 3.9-1.4 5.9-1.4h15.1c-.2-1.2-.5-2.2-1-3.1c-.3-.4-.9-1.3-1.9-2.4l2.1-6.4c1.4 1.5 2.3 3.1 2.8 4.8c.4 1.4 .7 3.5 .7 6.2v.9h9.6l-3.2-18.2l-1.8-1.2c0-1 .2-2.1 .5-3.2c.4-1.3 1.1-2.9 2.1-4.8Zm64.9-.3l6.3 3.3l-3.2 6.1l-6.3-3.3Zm-285.4-3.9l6.3 3.4l-3.2 6l-6.3-3.3Zm265.4-1.3l4.8 2.6l-3 5l-3.8-2.2l-2.1 4.2l-5-2.7l2.8-4.7l4 2Zm500.8-.1c.4 0 .6 .1 .8 .3c.2 .2 .3 .5 .3 .9c0 .3 0 .5-.1 .7c-.1 .3-.2 .6-.5 1c-.9-.5-1.5-.7-1.8-.7c-.3 0-.7 .1-1 .2c-.2 .1-.4 .3-.6 .5c0 .2 .5 .6 1.3 1c.9 .5 1.5 .8 1.9 .8c.2 0 .9-.2 1.9-.4c-.2 .5-.4 .9-.7 1.2c-.2 .1-.5 .3-.9 .4l-5.8 1.8c.4-.6 .7-1.1 .9-1.3c.3-.3 .8-.5 1.5-.7c-.5-.3-.9-.6-1.1-.9c-.2-.3-.3-.5-.3-.8c0-.2 0-.5 .2-.8c.1-.3 .3-.6 .5-.9c1.2-1.5 2.4-2.3 3.5-2.3Z" class="g0_15"/>
<path d="M833.4 332.9l3.4 2.1l-2.7 3.1l-2.8-1.8l-2.1 2.2l-3.4-1.9l2.5-3.2l3 1.9Zm-205 0l3.4 2.1l-2.6 3.1l-2.9-1.8l-2.1 2.2l-3.4-1.9l2.6-3.2l2.9 1.9Zm638-11.9l5 2.7l-2.8 5.2l-4-1.9l-2.2 4.3l-4.9-2.7l2.9-5.5l3.9 2.1Zm-72.2 0l5 2.7l-2.8 5.2l-4-1.9l-2.2 4.3l-4.9-2.7l2.9-5.5l3.8 2.1Zm-54.5 0l5 2.7l-2.8 5.2L1138 327l-2.3 4.3l-4.9-2.7l3-5.5l3.8 2.1Zm-608.6 0l5 2.7l-2.8 5.2l-4-1.9l-2.3 4.3l-4.9-2.7l3-5.5l3.8 2.1Zm-41.8-1.5c.2 1.5 1.1 2.9 2.4 4.1c1.4 1.1 2.9 1.7 4.4 1.7c.6 0 .8-.2 .8-.6c0-1-.5-1.9-1.7-2.8c-1.4-1.1-3.3-1.9-5.9-2.4Zm-45.8-6.8c1 0 1.7 .3 2.4 1c.6 .6 .9 1.4 .9 2.3c0 .9-.3 1.7-1 2.4c-.6 .6-1.4 1-2.4 1c-.8 0-1.6-.4-2.3-1c-.6-.7-.9-1.5-.9-2.4c0-.9 .3-1.7 1-2.3c.6-.7 1.4-1 2.3-1Zm943.4-5.3c-.5 0-1 .2-1.3 .6c-.4 .5-.5 .9-.5 1.5c0 .6 .3 1.1 1 1.6c.7 .4 1.7 .6 2.8 .6h1.1c-.5-2.9-1.6-4.3-3.1-4.3Zm-136.2 0c-.6 0-1 .2-1.3 .6c-.4 .5-.5 .9-.5 1.5c0 .6 .3 1.1 1 1.6c.7 .4 1.7 .6 2.8 .6h1.1c-.5-2.9-1.6-4.3-3.1-4.3Zm-72.2 0c-.6 0-1 .2-1.4 .6c-.3 .5-.5 .9-.5 1.5c0 .6 .4 1.1 1.1 1.6c.7 .4 1.6 .6 2.8 .6h1c-.5-2.9-1.5-4.3-3-4.3Zm-623.6 0c-.5 0-1 .2-1.3 .6c-.3 .5-.5 .9-.5 1.5c0 .6 .4 1.1 1.1 1.6c.7 .4 1.6 .6 2.8 .6h1c-.5-2.9-1.5-4.3-3.1-4.3Zm459.8-.2c-.7 0-1.3 .8-1.8 2.4c.9 .4 1.6 .7 2.1 .8c1.5 .6 2.3 .8 2.5 .8c.4 0 .5-.1 .5-.3c0-.4-.3-1.1-1.1-2.1c-.9-1-1.6-1.6-2.2-1.6ZM494.3 304c-.5 0-1.1 .5-1.7 1.5c-.6 1-1.3 2.6-2.2 4.8c2-.7 3.5-1.4 4.2-1.9c.8-.5 1.2-1 1.2-1.7c0-.4-.2-1-.5-1.7c-.3-.7-.7-1-1-1Zm441.4-1c-.4 0-.7 .1-1 .3c-.2 .3-.4 .5-.4 .8c0 .8 .6 1.6 1.8 2.3c1.1 .7 2.5 1.2 4.1 1.5c-.7-1.6-1.4-2.8-2.2-3.6c-.8-.9-1.5-1.3-2.3-1.3Zm-185.2-1.5c1.3 1.3 2.2 2.7 2.9 4.3c.6 1.7 1 3.5 1 5.6v8.2c0 1.1-.7 2.6-1.9 4.4c-1.3 1.8-2.7 3.3-4.4 4.6c-1.9 1.5-3.5 2.2-4.8 2.2c-1.6 0-3.3-.4-5.1-1.3c-1.6-.8-4-2.3-7.4-4.6l1.2-1.7c1.6 1.1 2.9 1.8 3.9 2.2c.9 .4 2 .6 3.1 .6c1.3 0 2.5-.4 3.7-1.1c1.3-.7 3-2 5.1-3.9c3-2.6 4.5-4.7 4.5-6.1c0-.7-.3-1.7-.9-2.8c-.7-1.4-1.4-2.5-2.4-3.3Zm164.4-.9c-.6 .3-1 .5-1.3 .6c-1 .6-1.8 1.1-2.4 1.5c-.4 .4-.8 .7-1.1 1c-.3 .4-.5 .7-.5 .9c0 .2 .3 .4 .9 .6c.7 .1 1.3 .2 1.9 .2c.4 0 .8-.1 1.2-.3c.5-.3 1.1-.7 1.9-1.3Zm153.9-.6l1.5 .9c-.4 .7-.8 1.4-1 2c-.3 .6-.5 1.1-.6 1.5c-.3 .8-.4 1.6-.4 2.4c0 1.1 .3 2 .9 2.8c.7 .8 1.6 1.4 2.6 1.6c.6 .1 1.4 .3 2.5 .4c.9 .1 2 .1 3.1 .1h19.5c-.6-1.4-1-2.4-1.3-2.9c-.4-.7-1-1.6-1.8-2.6l2.4-6.2c1.4 1.9 2.2 3.6 2.7 5.2c.3 1.5 .5 3.5 .5 6.2V319h-22.5c-1.1 0-2 0-2.7 0c-.8 0-1.3-.1-1.7-.1c-.6-.1-1.4-.3-2.2-.6c-1.5-.5-2.7-1.5-3.7-3c-.9-1.6-1.4-3.3-1.4-5.2c0-.7 .1-1.5 .2-2.3c.1-.8 .3-1.6 .6-2.5c.3-1.1 .7-2.1 1.2-2.9c.5-.9 1-1.7 1.6-2.4Zm335.8-.2c1.3 1.5 2.2 3.1 2.7 4.8c.5 1.6 .8 4.1 .8 7.4v7h-15.3l-.6 2.8c-.6 1.5-1.6 3-2.9 4.5c-2.6 3-5.2 4.5-7.8 4.5c-1.5 0-3.1-.5-4.8-1.4c-1.8-1-4.5-2.9-8.2-5.6l1.2-1.6c1.9 1.3 3.5 2.1 4.7 2.6c1 .3 2.2 .5 3.5 .5c1.7 0 3.4-.5 5.1-1.4c2-1.2 4.1-3 6.3-5.6c-.8 .1-1.4 .2-1.9 .2c-1.8 0-3.2-.6-4.2-1.7c-1.1-1.2-1.6-2.8-1.6-4.8c0-2.6 .6-5.2 1.8-7.7c1.4-2.7 2.9-4.1 4.6-4.1c1.5 0 2.7 1 3.7 3c1 1.9 1.5 4.3 1.5 7v1.5h12.2c-.2-1.2-.6-2.2-1.1-3.1c-.3-.4-.9-1.3-1.9-2.4Zm-753.2-1.1c-.6 0-1 .2-1.5 .7c-.4 .5-.6 1.1-.6 1.7c0 .4 .2 .7 .5 1c.3 .3 .7 .4 1.3 .4c.4 0 .8-.1 1.2-.3c.4-.3 .9-.7 1.6-1.3c-.5-.8-1-1.4-1.3-1.7c-.4-.4-.8-.5-1.2-.5Zm688.4-4.5c1.9 0 3.7 .4 5.4 1.3c1.7 .9 3.1 2.2 4.2 3.9c-.5 0-1 0-1.5 0c-.5 0-1 0-1.5-.1c-3.7 0-6.7 .3-9 .9c-2.3 .6-3.5 1.4-3.5 2.3c0 .8 .4 1.5 1.2 2.3c1 .9 2.5 1.8 4.5 2.7c2.5-1.1 4.4-1.8 5.7-2.3c1.4-.4 3.4-.9 6.2-1.5c-.5 1.5-.9 2.7-1.1 3.4c-.4 .8-.8 1.9-1.5 3.2c-5.4 1.3-9.7 3.1-12.9 5.4c-3.2 2.3-4.8 4.8-4.8 7.4c0 2.4 1.4 4.3 4.1 5.6c3.2 1.5 8.1 2.3 14.8 2.3h.6c1.1 0 1.8-.1 2.3-.1c.5 0 1.4-.1 2.7-.2l.5 1.1l-10.2 6.3h-2.7c-5 0-8.8-1.1-11.3-3.2c-2.6-2.2-3.8-5.3-3.8-9.4c0-2.7 .3-5 1-7.1c.8-2.3 2-4.3 3.8-6c-.9-1.1-1.7-2.2-2.4-3.6c-.7-1.3-1-2.4-1-3.2c0-1.1 .4-2.6 1.2-4.6c.7-2 1.5-3.5 2.2-4.3c.6-.8 1.6-1.4 2.8-1.9c1.2-.4 2.5-.6 4-.6Zm-215.9-.6c2.3 1.8 4 4 4.9 6.7c.9 2.6 1.4 5.9 1.4 10.1v1.3h12.3c-.2-1.2-.6-2.2-1.1-3.1c-.3-.4-.9-1.3-1.9-2.4l2.2-6.4c1.3 1.5 2.2 3.1 2.7 4.8c.4 1.4 .7 3.5 .7 6.2v.9h12.2c-.2-1.2-.5-2.2-1-3.1c-.3-.4-.9-1.3-1.9-2.4l2.1-6.4c1.4 1.5 2.3 3.1 2.8 4.8c.5 1.6 .7 4.1 .7 7.4v7h-42c-1.1 0-2.1-.2-2.7-.7c-.8-.7-1.1-1.7-1.1-3c0-.8 0-1.7 .1-2.6c.1-.9 .2-1.8 .4-2.7l1-.1c.1 .6 .4 1.1 .9 1.4c.5 .3 1.1 .4 1.8 .4h9.2c-.4-2.6-1.1-4.7-2.1-6.3c-.8-1.3-2-2.4-3.5-3.4Zm-472-1.7c1.9 0 3.6 1.6 5.3 4.9c1.7 3.2 2.5 6.7 2.5 10.4V319H640.2c-.8 0-1.4 0-1.7 .1c-.4 0-.6 .1-.6 .3c.5 .3 1 .5 1.5 .6c.4 .2 .8 .3 .9 .5c.1 .2 .2 .5 .2 .9c0 1.3-.4 2.8-1.1 4.6c-.7 1.7-1.4 2.8-2.1 3.2c-.7 .6-2.6 1.2-5.9 2c-3.3 .7-6.1 1-8.5 1c-3.3 0-6-.7-8.1-2c-2.1-1.5-3.1-3.3-3.1-5.5c0-2.2 .4-4.3 1.3-6.3c1.1-2.4 3.2-5.4 6.2-9.1l1.6 1.1c-1.9 2.3-3.2 4.2-3.9 5.6c-.7 1.4-1.1 2.8-1.1 4.2c0 1.9 .8 3.4 2.4 4.3c1.6 .9 4 1.4 7.3 1.4c1.7 0 4.1-.4 7.2-1c3-.6 4.5-1.2 4.5-1.6c0-.2-.5-.4-1.7-.6c-1.2-.2-2.5-.3-3.9-.3c-2 0-3-.4-3-1.3c0-.4 .2-1.2 .7-2.2c.3-.8 .7-1.5 1.1-2.2c.6-1.5 1.9-2.7 3.7-3.6c1.9-.9 3.9-1.4 5.9-1.4h17.2c0-1.6-.1-2.7-.2-3.3c-.1-1.1-.4-1.9-.9-2.7c-.5 1.1-1.3 2-2.3 2.6c-.9 .6-2 .8-3.1 .8c-1.4 0-2.6-.4-3.6-1.4c-1-.9-1.5-2.1-1.5-3.6c0-2.1 .7-4.6 2-7.5c1.4-3.2 2.8-4.7 4.3-4.7Zm433-1.1l5 2.7l-2.8 5.2l-4-2l-2.2 4.4l-4.9-2.7l2.9-5.5l3.9 2.1Zm-388.6 0l5 2.7l-2.8 5.2l-4-2l-2.3 4.4l-4.9-2.7l3-5.5l3.8 2.1Zm96.4-.3l4.9 2.8l-3 5.4l-3.8-2.1l-2.1 4.2l-5-2.7l2.8-5.2l3.9 2Zm-64.5-2.6v6.4c0 0-.8 .3-2.2 .7c-1.8 .6-3.2 1.1-4.2 1.5c-1.5 .6-2.3 1.1-2.3 1.4c0 .2 .7 .9 1.9 2.1c1.8 1.7 3.2 3.2 4.4 4.6c2 2.3 3.6 4.6 4.8 6.9V319H688.2c-1.1 0-2 0-2.7 0c-.7 0-1.3-.1-1.6-.1c-.7-.1-1.5-.3-2.3-.6c-1.5-.5-2.7-1.5-3.6-3c-1-1.6-1.5-3.3-1.5-5.2c0-.7 .1-1.5 .2-2.3c.1-.8 .3-1.6 .6-2.5c.3-1.1 .8-2.1 1.3-2.9c.5-.9 1-1.7 1.5-2.4l1.5 .9c-.4 .7-.7 1.4-1 2c-.2 .6-.4 1.1-.6 1.5c-.3 .8-.4 1.6-.4 2.4c0 1.1 .3 2 1 2.8c.7 .8 1.5 1.4 2.5 1.6c.7 .1 1.5 .3 2.5 .4c1 .1 2.1 .1 3.2 .1h19.4c-.5-1.4-.9-2.4-1.2-2.9c-.4-.7-1-1.6-1.9-2.6l2.5-6.2c1.3 1.9 2.2 3.6 2.6 5.2c.3 1.5 .5 3.5 .5 6.2v.3h15.6c-.7-.8-1.4-1.6-2-2.2c-.6-.5-1.3-1.1-2.2-1.8c-1-.8-2-1.6-3.1-2.4l-.8 1c-1.6-1.6-2.5-2.6-2.8-2.9c-.9-1-1.4-2.2-1.4-3.5c0-1.8 .1-3.1 .4-3.8c.3-1.1 1.1-2 2.3-2.8c1-.7 2.1-1.4 3.3-2c.9-.4 2.2-1 3.7-1.6c.7-.3 2.2-.9 4.5-1.8Zm-149.6 0v6.4c0 0-.8 .3-2.2 .7c-1.8 .6-3.2 1.1-4.2 1.5c-1.5 .6-2.3 1.1-2.3 1.4c0 .2 .7 .9 1.9 2.1c1.8 1.7 3.2 3.2 4.4 4.6c2 2.3 3.6 4.6 4.8 6.9v.2h12.2c-.2-1.2-.5-2.2-1.1-3.1c-.2-.4-.9-1.3-1.9-2.4l2.2-6.4c1.3 1.5 2.3 3.1 2.7 4.8c.6 1.6 .8 4.1 .8 7.4v7H560.8l-.6 2.8c-.6 1.5-1.6 3-2.9 4.5c-2.6 3-5.2 4.5-7.7 4.5c-1.5 0-3.1-.5-4.9-1.4c-1.8-1-4.5-2.9-8.1-5.6l1.1-1.6c1.9 1.3 3.5 2.1 4.8 2.6c1 .3 2.1 .5 3.4 .5c1.7 0 3.5-.5 5.2-1.4c2-1.2 4-3 6.2-5.6c-.7 .1-1.4 .2-1.9 .2c-1.7 0-3.2-.6-4.2-1.7c-1.1-1.2-1.6-2.8-1.6-4.8c0-2.6 .6-5.2 1.9-7.7c1.3-2.7 2.9-4.1 4.6-4.1c1.4 0 2.6 1 3.6 3c1 1.9 1.5 4.3 1.5 7v1.5h15.5c-.7-.8-1.4-1.6-2-2.2c-.6-.5-1.3-1.1-2.2-1.8c-1-.8-2-1.6-3.1-2.4l-.8 1c-1.6-1.6-2.5-2.6-2.8-2.9c-.9-1-1.4-2.2-1.4-3.5c0-1.8 .1-3.1 .4-3.8c.3-1.1 1.1-2 2.3-2.8c1-.7 2.1-1.4 3.3-2c.9-.4 2.2-1 3.7-1.6c.7-.3 2.2-.9 4.5-1.8Zm-134.7-.2c2.2 0 4 .7 5.5 1.9c1.5 1.2 2.3 2.8 2.3 4.8c0 1.1-.3 2.1-1 2.9c-.7 1-1.7 1.5-2.8 1.5c-.9 0-1.7-.3-2.2-.9c-.6-.6-.9-1.3-.9-2.1c0-1.2 .5-2.1 1.4-2.7c1-.7 1.5-1.1 1.5-1.5c0-.6-.3-1.1-.8-1.5c-.6-.4-1.4-.6-2.3-.6c-1.1 0-2.1 .4-2.8 1c-.8 .6-1.2 1.5-1.2 2.4c0 .9 .4 2 1.2 3.4c1.1 2 1.8 3.4 2.1 4c.7 1.9 1.1 3.9 1.1 6.1c0 1.2-.1 2.5-.3 4l-1.6-.1c0-.3 0-.5 0-.7l.2-1.4c0-1-.7-2.1-2-3.3c-2.3-2-3.5-3.1-3.7-3.4c-1.4-1.6-2.1-3.4-2.1-5.4c0-2.4 .8-4.4 2.5-6c1.6-1.6 3.6-2.4 5.9-2.4Zm710.7-.1l5 2.7l-2.8 5.2l-4-2l-2.2 4.4l-4.9-2.8l2.9-5.4l3.8 2.1Zm-188.5 0l5 2.7l-2.8 5.2l-4-2l-2.2 4.4l-4.9-2.8l2.9-5.4l3.9 2.1Zm-108.7 0l5 2.7l-2.8 5.2l-4-2l-2.2 4.4l-4.9-2.8l2.9-5.4l3.8 2.1Zm-266.9 0l5 2.7l-2.8 5.2l-4-2l-2.3 4.4l-4.9-2.8l3-5.4l3.8 2.1Zm392.7-.5l6.3 3.3l-3.3 6l-6.3-3.2Zm418.8-.7l6.2 3.4l-3.2 6l-6.3-3.3Zm-121.4 0l6.2 3.4l-3.2 6l-6.3-3.3Zm-765.1 0l6.3 3.4l-3.2 6l-6.3-3.3Zm899.3 0l1.7 9.5c.5 3.6 1 6.8 1.2 9.4c.2 2 .3 4 .3 5.9c0 1.6-.2 3-.6 4.3c-.4 1.4-1.1 3.1-2.2 5.4l-1.6-.7c.5-2.3 .7-4.1 .7-5.6c0-1.1-.1-2.7-.3-4.8c-.2-2.1-.4-4.2-.7-6.2c-.2-2.1-.7-4.6-1.3-7.5c-.2-.9-.3-1.6-.3-2c0-.6 .3-1.5 .8-2.8c.6-1.4 1.4-3 2.3-4.9Zm-51.5 0l1.6 9.5c.6 3.6 1 6.8 1.2 9.4c.2 2 .3 4 .3 5.9c0 1.6-.2 3-.6 4.3c-.3 1.4-1.1 3.1-2.2 5.4l-1.6-.7c.5-2.3 .7-4.1 .7-5.6c0-1.1-.1-2.7-.3-4.8c-.2-2.1-.4-4.2-.6-6.2c-.3-2.1-.8-4.6-1.4-7.5c-.2-.9-.3-1.6-.3-2c0-.6 .3-1.5 .8-2.8c.6-1.4 1.4-3 2.4-4.9Zm-57 0l1.6 9.5c.6 3.6 1 6.8 1.2 9.4c.2 2 .3 4 .3 5.9c0 1.6-.2 3-.6 4.3c-.4 1.4-1.1 3.1-2.2 5.4l-1.6-.7c.5-2.3 .7-4.1 .7-5.6c0-1.1-.1-2.7-.3-4.8c-.2-2.1-.4-4.2-.7-6.2c-.2-2.1-.7-4.6-1.3-7.5c-.2-.9-.3-1.6-.3-2c0-.6 .3-1.5 .8-2.8c.6-1.4 1.4-3 2.4-4.9Zm-200.1 0l1.7 9.5c.5 3.6 1 6.8 1.2 9.4c.2 2 .3 4 .3 5.9c0 1.6-.2 3-.6 4.3c-.4 1.4-1.1 3.1-2.2 5.4l-1.6-.7c.4-2.3 .7-4.1 .7-5.6c0-1.1-.1-2.7-.3-4.8c-.2-2.1-.4-4.2-.7-6.2c-.3-2.1-.7-4.6-1.3-7.5c-.2-.9-.3-1.6-.3-2c0-.6 .3-1.5 .8-2.8c.6-1.4 1.3-3 2.3-4.9Zm-63.4 0l1.6 9.5c.6 3.6 1 6.8 1.3 9.4c.1 2 .2 4 .2 5.9c0 1.6-.2 3-.5 4.3c-.4 1.4-1.1 3.1-2.2 5.4l-1.6-.7c.4-2.3 .6-4.1 .6-5.6c0-1.1-.1-2.7-.2-4.8c-.2-2.1-.5-4.2-.7-6.2c-.3-2.1-.7-4.6-1.3-7.5c-.3-.9-.4-1.6-.4-2c0-.6 .3-1.5 .9-2.8c.5-1.4 1.3-3 2.3-4.9Zm-160.4 0l1.6 9.5c.6 3.6 1 6.8 1.2 9.4c.2 2 .3 4 .3 5.9c0 1.6-.2 3-.6 4.3c-.3 1.4-1 3.1-2.1 5.4l-1.6-.7c.4-2.3 .6-4.1 .6-5.6c0-1.1-.1-2.7-.3-4.8c-.1-2.1-.4-4.2-.6-6.2c-.3-2.1-.7-4.6-1.4-7.5c-.2-.9-.3-1.6-.3-2c0-.6 .3-1.5 .9-2.8c.5-1.4 1.3-3 2.3-4.9Zm-124.4 0c1 1.4 1.7 2.9 2.2 4.2c.5 1.7 .7 3.8 .7 6.3v5.3c0 3.7 .2 6.3 .7 7.8c.4 1.1 1.1 1.7 1.9 1.7h5.7c1.9 0 3.4-.5 4.7-1.6c1.6-1.4 2.4-3.5 2.4-6.3l1.8 .3c0 .6-.1 1.2-.1 2c0 .7-.1 1.5-.1 2.4c0 .9 .3 1.7 1 2.3c.6 .6 1.3 .9 2.1 .9h3.3c2.2 0 3.8-.3 4.7-.9c1.1-.8 1.7-2.1 1.7-4.1c0-.5 .1-.8 .4-1.2c.2-.2 .5-.5 1-.9l1-.8c0 .4 .1 .8 .1 1.4c0 .6 0 1 0 1.1c0 1-.1 2.3-.4 4c.7 .3 1.4 .6 2.2 .8c.8 .2 1.7 .4 2.6 .6c0-.7-.2-1.5-.6-2.4c-.5-1-.7-1.6-.7-2c0-.4 0-.8 .2-1.1c0 0 .2-.3 .6-.8l2.2-3.1c.5 1.2 .9 2.2 1.1 3.1c.2 .9 .3 2.1 .3 3.5V319c-2 0-3.7-.1-5-.4c-1.3-.3-2.6-.8-3.9-1.4c-1.1 .7-2 1.2-2.8 1.4c-.8 .3-2 .4-3.7 .4H781c-1.3 0-2.2-.3-2.9-.9c-.7-.7-1.3-1.7-1.9-3.1c-1 1.4-2.1 2.5-3.3 3.2c-1 .5-2.3 .8-3.7 .8h-5.7c-2.1 0-3.6-.9-4.5-2.6c-1.1-1.9-1.6-5.1-1.6-9.6v-7.6c0-1.8-.2-3.1-.7-4.1c-.2-.4-.8-1.1-1.6-2Zm-285.3 0c1.1 1.4 1.8 2.9 2.2 4.2c.5 1.7 .7 3.8 .7 6.3v5.3c0 3.7 .3 6.3 .8 7.8c.4 1.1 1 1.7 1.9 1.7h4.2c1 0 1.9-.1 3-.3c1.1-.2 1.9-.4 2.3-.5c2-5.4 3.7-9.3 5.3-11.7c1.3-2.1 2.6-3.1 3.7-3.1c.9 0 1.7 .9 2.3 2.7c.6 1.5 .9 3 .9 4.5c0 2.1-.4 3.9-1.2 5.4c-.9 1.6-2.3 2.8-4.1 3.5c1.4-.2 2.5-.4 3.6-.4c1.1-.1 2.1-.1 3-.1H519c-.2-1.2-.6-2.2-1.1-3.1c-.3-.4-.9-1.3-1.9-2.4l2.1-6.4c1.4 1.5 2.3 3.1 2.8 4.8c.4 1.4 .7 3.5 .7 6.2v.9h12.2c-.2-1.2-.5-2.2-1.1-3.1c-.2-.4-.9-1.3-1.9-2.4l2.2-6.4c1.3 1.5 2.3 3.1 2.7 4.8c.6 1.6 .8 4.1 .8 7.4v7H501.3c-.4 0-.8 0-1.3 0c-.4 0-1 .1-1.9 .1c.7 .4 1.3 .8 2 1.1c.6 .5 .9 1.1 .9 1.8c0 .7-.1 1.5-.3 2.3c-.1 .4-.4 1.2-.8 2.4c-.8 2.2-1.4 3.7-2.1 4.5c-.6 .8-1.5 1.2-2.5 1.2c-2.5 0-4.6-1.3-6.4-3.9c-1.8-2.7-2.7-5.8-2.7-9.5h-7.9c-2.1 0-3.7-.9-4.6-2.6c-1-1.9-1.5-5.1-1.5-9.6v-7.6c0-1.8-.3-3.1-.8-4.1c-.2-.4-.7-1.1-1.6-2Zm314.7-2.1l5 2.6l-2.7 5.6l-5.1-2.7Zm506.5 0l1.2 .6c0 .1 0 .4-.1 .9c0 .6 .4 1.1 1.1 1.7c.7 .5 1.8 1.1 3.2 1.7c-.2 1.1-.4 2.2-.7 3.3c-.3 1.1-.7 2.1-1.1 3l-.9-.4l2.9 16.6V319h-42.9l-.6 2.8c-.7 1.5-1.6 3-2.9 4.5c-2.7 3-5.2 4.5-7.8 4.5c-1.5 0-3.1-.5-4.9-1.4c-1.7-1-4.4-2.9-8.1-5.6l1.2-1.6c1.9 1.3 3.5 2.1 4.7 2.6c1 .3 2.2 .5 3.5 .5c1.7 0 3.4-.5 5.1-1.4c2-1.2 4.1-3 6.3-5.6c-.8 .1-1.4 .2-1.9 .2c-1.8 0-3.2-.6-4.3-1.7c-1-1.2-1.5-2.8-1.5-4.8c0-2.6 .6-5.2 1.8-7.7c1.4-2.7 2.9-4.1 4.6-4.1c1.5 0 2.7 1 3.7 3c1 1.9 1.5 4.3 1.5 7v1.5h12.2c-.2-1.2-.6-2.2-1.1-3.1c-.3-.4-.9-1.3-1.9-2.4l2.1-6.4c1.4 1.5 2.3 3.1 2.8 4.8c.4 1.4 .7 3.5 .7 6.2v.9H1284c-.2-1.2-.5-2.2-1.1-3.1c-.2-.4-.9-1.3-1.9-2.4l2.2-6.4c1.3 1.5 2.3 3.1 2.7 4.8c.5 1.4 .7 3.5 .8 6.2v.9h9.6l-3.3-18.2l-1.7-1.2c0-1 .2-2.1 .5-3.2c.4-1.3 1.1-2.9 2.1-4.8Zm-87.1 0l1.2 .6c0 .1 0 .4-.1 .9c0 .6 .4 1.1 1.2 1.7c.6 .5 1.7 1.1 3.1 1.7c-.1 1.1-.4 2.2-.7 3.3c-.3 1.1-.7 2.1-1 3l-1-.4l2.9 16.6h15.5c-.7-.8-1.4-1.6-2-2.2c-.6-.5-1.3-1.1-2.2-1.8c-1-.8-2-1.6-3.1-2.4l-.8 1c-1.6-1.6-2.5-2.6-2.8-2.9c-.9-1-1.4-2.2-1.4-3.5c0-1.8 .1-3.1 .4-3.8c.3-1.1 1.1-2 2.3-2.8c1-.7 2.1-1.4 3.3-2c.9-.4 2.2-1 3.7-1.6c.7-.3 2.2-.9 4.5-1.8v6.4c0 0-.8 .3-2.2 .7c-1.8 .6-3.2 1.1-4.2 1.5c-1.5 .6-2.3 1.1-2.3 1.4c0 .2 .7 .9 1.9 2.1c1.8 1.7 3.2 3.2 4.4 4.6c2 2.3 3.6 4.6 4.8 6.9V319h-47.9l-.5 2.8c-.7 1.5-1.7 3-3 4.5c-2.6 3-5.2 4.5-7.7 4.5c-1.5 0-3.1-.5-4.9-1.4c-1.8-1-4.5-2.9-8.1-5.6l1.1-1.6c1.9 1.3 3.5 2.1 4.8 2.6c1 .3 2.1 .5 3.4 .5c1.8 0 3.5-.5 5.2-1.4c2-1.2 4.1-3 6.2-5.6c-.7 .1-1.4 .2-1.9 .2c-1.7 0-3.1-.6-4.2-1.7c-1-1.2-1.6-2.8-1.6-4.8c0-2.6 .7-5.2 1.9-7.7c1.3-2.7 2.9-4.1 4.6-4.1c1.4 0 2.6 1 3.6 3c1 1.9 1.5 4.3 1.5 7v1.5h12.2c-.2-1.2-.5-2.2-1-3.1c-.3-.4-.9-1.3-1.9-2.4l2.1-6.4c1.4 1.5 2.3 3.1 2.8 4.8c.4 1.4 .6 3.5 .7 6.2v.9h9.6l-3.3-18.2l-1.7-1.2c0-1 .2-2.1 .5-3.2c.4-1.3 1.1-2.9 2.1-4.8Zm-255.7 0l1.2 .6c0 .1-.1 .4-.1 .9c0 .6 .4 1.1 1.1 1.7c.7 .5 1.7 1.1 3.2 1.7c-.2 1.1-.4 2.2-.7 3.3c-.3 1.1-.7 2.1-1.1 3l-1-.4l3 16.6h12.2c-.2-1.2-.6-2.2-1.1-3.1c-.3-.4-.9-1.3-1.9-2.4l2.1-6.4c1.4 1.5 2.3 3.1 2.8 4.8c.4 1.4 .7 3.5 .7 6.2v.9h17.2c-2.2-2.2-4.2-3.9-6-4.8c-1.7-.9-3.3-1.3-4.8-1.3c-.5 0-.9 0-1.3 0c-.4 .1-.9 .2-1.7 .3c1-2.2 2.1-3.9 3.3-5c1.2-1 2.6-1.6 4.1-1.6c1.2 0 2.4 .3 3.4 .9c1.1 .6 2.4 1.5 3.7 2.7c1.1 1.1 2.6 2.6 4.6 4.7c1.3 1.5 2.4 2.5 3.1 3c.7 .4 1.7 .8 3.2 1.1h3.4c1.6 0 2.9-.2 3.8-.6c1.2-.5 2.1-1.4 2.5-2.6c1.1-2.3 2.4-4.1 4-5.6c1.4-1.3 2.6-2 3.6-2c.9 0 2 1.4 3.4 4.2c1 2.2 1.7 4.2 1.9 6.1l.1 .5h9.8l-3.2-18.2l-1.7-1.2c0-1 .1-2.1 .4-3.2c.4-1.3 1.1-2.9 2.1-4.8l1.3 .6c0 .1-.1 .4-.1 .9c0 .6 .3 1.1 1.1 1.7c.7 .5 1.7 1.1 3.2 1.7c-.2 1.1-.4 2.2-.8 3.3c-.3 1.1-.6 2.1-1 3l-1-.4l2.9 16.6V319h-14.7v-.1l-.5-.1c-1.3-.2-2.8-.5-4.4-.9c-2.2-.7-4.2-1.4-5.9-2.3c-1 1.6-2.3 2.6-3.8 3c-.7 .3-1.8 .4-3 .4H922.4c-.7 0-1.3-.1-1.8-.4c-1-.5-1.9-1.5-2.6-2.8c-1-1.9-1.6-4.5-1.9-7.8c-1.2 1.5-2.2 2.5-2.8 3.2c-1 .9-1.9 1.3-2.5 1.3c-.4 0-.8 0-1.3-.1l-3.3-.7c-1.4-.3-2.2-.5-2.6-.6c-.3-.1-.4-.3-.4-.7c0-.4 .6-2 1.8-4.5c1.3-2.6 2.2-4.2 2.7-4.8c.5-.5 1.3-1.1 2.4-1.9c.7-.5 1.7-1.1 2.9-1.8l1.4-.8c0-.3-.1-.5-.1-.8c0-.3 0-.5 0-.7c0-.7 .1-1.6 .4-2.6c.4-1 .9-2.3 1.7-3.8l2.6 16.7c.4 2.7 1 4.4 1.6 5.4c.4 .6 1 .9 1.8 .9h6.5c.9 0 1.7 0 2.4 .1c1.9 .2 4.2 .5 6.7 .7c-2.6-.6-4.5-1.3-5.6-2.3c-1-1-1.6-2.4-1.6-4.3c0-2.7 .7-5.2 1.9-7.5c1.3-2.2 2.8-3.3 4.4-3.3c1.8 0 3.3 1.5 4.7 4.7c1.3 3.1 2 6.9 2 11.3v.6h9.6l-3.2-18.2l-1.7-1.2c0-1 .1-2.1 .5-3.2c.4-1.3 1.1-2.9 2.1-4.8Zm-81.1 0l1.3 .6c0 .1-.1 .4-.2 .9c0 .6 .4 1.1 1.2 1.7c.6 .5 1.7 1.1 3.1 1.7c-.1 1.1-.3 2.2-.7 3.3c-.3 1.1-.6 2.1-1 3l-1-.4l2.9 16.6V319H845.2c-.9 0-1.4 0-1.8 .1c-.3 0-.5 .1-.5 .3c.5 .3 1 .5 1.5 .6c.4 .2 .7 .3 .9 .5c.1 .2 .2 .5 .2 .9c0 1.3-.4 2.8-1.1 4.6c-.7 1.7-1.4 2.8-2.2 3.2c-.6 .6-2.6 1.2-5.8 2c-3.3 .7-6.1 1-8.5 1c-3.4 0-6.1-.7-8.2-2c-2-1.5-3.1-3.3-3.1-5.5c0-2.2 .5-4.3 1.4-6.3c1.1-2.4 3.2-5.4 6.1-9.1l1.7 1.1c-1.9 2.3-3.2 4.2-3.9 5.6c-.8 1.4-1.1 2.8-1.1 4.2c0 1.9 .8 3.4 2.3 4.3c1.6 .9 4.1 1.4 7.4 1.4c1.7 0 4.1-.4 7.1-1c3.1-.6 4.6-1.2 4.6-1.6c0-.2-.6-.4-1.8-.6c-1.1-.2-2.4-.3-3.8-.3c-2 0-3-.4-3-1.3c0-.4 .2-1.2 .7-2.2c.3-.8 .7-1.5 1-2.2c.7-1.5 2-2.7 3.8-3.6c1.9-.9 3.9-1.4 5.9-1.4h15.1c-.2-1.2-.5-2.2-1-3.1c-.3-.4-.9-1.3-1.9-2.4l2.1-6.4c1.4 1.5 2.3 3.1 2.8 4.8c.4 1.4 .7 3.5 .7 6.2v.9h9.6l-3.2-18.2l-1.8-1.2c0-1 .2-2.1 .5-3.2c.4-1.3 1.1-2.9 2.1-4.8Zm64.9-.3l6.3 3.3l-3.2 6.1l-6.3-3.3Zm-285.4-3.9l6.3 3.4l-3.2 6l-6.3-3.3Zm265.4-1.3l4.8 2.6l-3 5l-3.8-2.2l-2.1 4.2l-5-2.7l2.8-4.7l4 2Zm500.8-.1c.4 0 .6 .1 .8 .3c.2 .2 .3 .5 .3 .9c0 .3 0 .5-.1 .7c-.1 .3-.2 .6-.5 1c-.9-.5-1.5-.7-1.8-.7c-.3 0-.7 .1-1 .2c-.2 .1-.4 .3-.6 .5c0 .2 .5 .6 1.3 1c.9 .5 1.5 .8 1.9 .8c.2 0 .9-.2 1.9-.4c-.2 .5-.4 .9-.7 1.2c-.2 .1-.5 .3-.9 .4l-5.8 1.8c.4-.6 .7-1.1 .9-1.3c.3-.3 .8-.5 1.5-.7c-.5-.3-.9-.6-1.1-.9c-.2-.3-.3-.5-.3-.8c0-.2 0-.5 .2-.8c.1-.3 .3-.6 .5-.9c1.2-1.5 2.4-2.3 3.5-2.3Z" class="g1_15"/>
<image clip-path="url(#c1_15)" preserveAspectRatio="none" x="1344" y="457" width="108" height="72" href="img/2.jpg"/>
<image clip-path="url(#c2_15)" preserveAspectRatio="none" x="1347" y="550" width="102" height="71" href="img/3.jpg"/>
<image clip-path="url(#c3_15)" preserveAspectRatio="none" x="1347" y="642" width="102" height="74" href="img/4.jpg"/>
<image clip-path="url(#c4_15)" preserveAspectRatio="none" x="1353" y="745" width="96" height="80" href="img/5.jpg"/>
</svg>