<svg viewBox="0 0 1466 825" version="1.1" xmlns="http://www.w3.org/2000/svg">
<defs>
<clipPath id="c0_47"><path d="M-.2 825.3V-.2H1467V825.3Z"/></clipPath>
<clipPath id="c1_47"><path d="M1343.9 529.1V456.4H1452v72.7Z"/></clipPath>
<clipPath id="c2_47"><path d="M1346.3 621.3V549.7h102.9v71.6Z"/></clipPath>
<clipPath id="c3_47"><path d="M1346.4 716.6V641.9h103v74.7Z"/></clipPath>
<clipPath id="c4_47"><path d="M1353 825V744.6h96.2V825Z"/></clipPath>
<style>
.g0_47{fill:#F00;}
.g1_47{fill:none;stroke:#000;stroke-width:1.466;stroke-linejoin:round;}
</style>
</defs>
<image clip-path="url(#c0_47)" preserveAspectRatio="none" x="0" y="-7" width="1467" height="840" href="img/1.jpg"/>
<path fill-rule="evenodd" d="M1107.1 343.3l3.4 2.2l-2.6 3l-2.9-1.8l-2.1 2.2l-3.3-1.8l2.5-3.3l2.9 1.9Zm-322.1 0l3.4 2.2l-2.6 3l-2.9-1.8l-2.1 2.2l-3.4-1.8l2.6-3.3l2.9 1.9Zm661.6-11.6l6.3 3.3l-3.3 6l-6.2-3.3Zm-147 0l6.2 3.3l-3.2 6l-6.3-3.3Zm-452.5 0l6.3 3.3l-3.3 6l-6.2-3.3Zm-11.3-.3l5 2.8l-2.8 5.2l-4-2l-2.2 4.3l-4.9-2.7l2.9-5.5l3.8 2.2Zm113.4-14.6c-1.2 0-2.5 .4-4 1.1c-1.5 .8-3.6 2.2-6.4 4.2h7c6.1 0 9.1-.9 9.1-2.7c0-.7-.6-1.3-1.7-1.8c-1.1-.5-2.4-.8-4-.8Zm-73.6 0c-1.2 0-2.6 .4-4 1.1c-1.5 .8-3.7 2.2-6.5 4.2h7.1c5.9 0 8.8-.9 8.8-2.7c0-.6-.6-1.2-1.9-1.8c-1.4-.5-2.5-.8-3.5-.8Zm171.1-3.2c1.2 0 2.6 .7 4 2.1c1.5 1.3 3.2 3.5 5.1 6.4v7.3h-3.5c-3.2 0-6.1 .3-8.7 .8c-2.5 .6-3.7 1.2-3.7 1.9c.7 2.2 1.3 4.2 1.8 6.1c.6 1.9 .8 3.6 .8 5.3c0 1.2-.1 2.2-.3 3c-.3 .7-.7 1.5-1.4 2.4c-.2-2.3-.6-4.8-1.3-7.4c-.2-.9-.8-2.8-1.7-5.8c-.6-1.8-.9-3-.9-3.6c0-.8 .2-1.9 .7-3.1c.4-1 .8-1.9 1.3-2.7c.6-.9 1.6-1.6 3-2.1c1.4-.6 3.6-1 6.5-1.3c-1.4-2-2.7-3-3.8-3c-.4 0-.9 .2-1.3 .5c-.4 .4-1.1 1.2-2 2.4l-1.3-.7c.8-2.7 1.8-4.8 2.9-6.3c1.2-1.5 2.5-2.2 3.8-2.2Zm235.8-2.6c-.5 .3-1 .5-1.3 .7c-1 .5-1.8 1-2.4 1.4c-.4 .4-.8 .7-1.1 1c-.3 .4-.5 .7-.5 .9c0 .3 .3 .4 1 .6c.6 .1 1.2 .2 1.8 .2c.4 0 .8-.1 1.2-.3c.5-.3 1.1-.7 1.9-1.3Zm-330.8-1.4c2 0 3.6 .7 4.7 2.1c1.4 1.6 2 4.1 2 7.4v3h17.3c-2.2-2.2-4.2-3.8-6-4.8c-1.7-.9-3.3-1.3-4.8-1.3c-.5 0-.9 0-1.3 0c-.4 .1-.9 .2-1.7 .3c1-2.2 2.1-3.9 3.3-5c1.2-1 2.6-1.6 4.1-1.6c1.2 0 2.4 .3 3.5 .9c1.1 .6 2.3 1.5 3.6 2.8c1.1 1 2.6 2.5 4.6 4.7c1.3 1.5 2.4 2.4 3.1 2.9c.7 .4 1.7 .8 3.2 1.1h1.9c1.9 0 3.5-.5 4.7-1.6c1.6-1.3 2.5-3.4 2.5-6.3l1.7 .3c0 .6 0 1.2-.1 2c0 .7 0 1.5 0 2.4c0 .9 .3 1.7 .9 2.3c.6 .6 1.4 .9 2.2 .9h3.3c2.1 0 3.7-.3 4.6-.9c1.2-.7 1.7-2.1 1.7-4.1c0-.4 .2-.8 .4-1.2c.2-.2 .5-.5 1-.8l1-.9c.1 .4 .1 .8 .1 1.4c0 .6 .1 1 .1 1.2c0 1-.2 2.3-.5 3.9c.7 .3 1.4 .6 2.2 .8c.9 .3 1.7 .4 2.7 .6c0-.6-.3-1.4-.7-2.4c-.5-1-.7-1.6-.7-2c0-.4 .1-.8 .2-1c0-.1 .2-.4 .6-.9l2.3-3c.5 1.1 .8 2.1 1 3c.2 .9 .3 2.1 .3 3.5v10.1c-2 0-3.7-.1-5-.4c-1.3-.3-2.6-.8-3.9-1.4c-1 .8-2 1.2-2.8 1.5c-.8 .2-2 .3-3.6 .3H1001c-1.2 0-2.2-.3-2.9-.9c-.7-.6-1.3-1.7-1.9-3.1c-.9 1.5-2 2.5-3.3 3.2c-1 .5-2.2 .8-3.7 .8H929.7c0 4.2-1.3 7.2-4 9c-2.2 1.6-5.7 2.4-10.4 2.4c-4.4 0-7.7-.8-10.1-2.4c-2.3-1.6-3.5-3.8-3.5-6.8c0-2.4 .4-4.7 1.1-6.8c.8-2.2 2.5-5.2 4.9-8.8l1.6 1.1c-1.8 3-3 5.2-3.5 6.6c-.5 1.3-.8 2.7-.8 4.2c0 1.9 1 3.4 3 4.6c2 1.2 4.7 1.8 7.9 1.8c3.3 0 6-.6 8.2-1.9c2.2-1.2 3.3-2.7 3.3-4.5c0-1.1-.2-2.2-.6-3.3c-.4-1.1-1.2-2.8-2.5-5.2l2.4-7.3c1 1.9 1.5 3 1.6 3.3c.6 1.1 .9 2.1 1.1 3c.2 1 .3 2.2 .3 3.7c1.2 0 2.3-.3 3.2-.9c.1 0 1-.7 2.7-1.8l9.6-6.9c1.5-1.1 2.6-1.8 3.4-2.2c1-.5 2-.7 3.1-.7Zm178.4-.5c-.5 0-1 .2-1.5 .7c-.4 .5-.6 1.1-.6 1.7c0 .4 .2 .8 .5 1c.3 .3 .8 .5 1.3 .5c.4 0 .8-.2 1.2-.4c.4-.2 1-.7 1.6-1.3c-.5-.8-.9-1.4-1.3-1.7c-.4-.3-.8-.5-1.2-.5Zm-61.7-5.1c2.3 1.8 4 4 4.9 6.7c.9 2.6 1.4 5.9 1.4 10.1v8.6h-12.2c-1.2 0-2.1-.2-2.7-.7c-.8-.6-1.2-1.6-1.2-3c0-.8 .1-1.6 .2-2.6c0-.9 .2-1.8 .3-2.7l1-.1c.2 .6 .5 1.1 1 1.4c.5 .3 1.1 .4 1.8 .4h9.2c-.4-2.6-1.1-4.7-2.1-6.3c-.9-1.3-2-2.4-3.6-3.4Zm62.2-1.7c1.8 0 3.6 1.6 5.3 4.9c1.7 3.3 2.5 6.7 2.5 10.4v11.8h-19.5c-.8 0-1.4 0-1.7 .1c-.4 0-.6 .1-.6 .3c.6 .3 1 .5 1.5 .7c.5 .1 .8 .2 .9 .4c.1 .2 .2 .5 .2 .9c0 1.3-.3 2.8-1.1 4.6c-.7 1.7-1.4 2.8-2.1 3.3c-.7 .5-2.6 1.1-5.9 1.9c-3.3 .7-6.1 1.1-8.4 1.1c-3.4 0-6.1-.7-8.2-2.1c-2.1-1.4-3.1-3.3-3.1-5.5c0-2.2 .4-4.3 1.3-6.3c1.2-2.4 3.2-5.4 6.2-9.1l1.6 1.1c-1.9 2.3-3.2 4.2-3.9 5.6c-.7 1.4-1.1 2.9-1.1 4.2c0 2 .8 3.4 2.4 4.3c1.6 .9 4 1.4 7.3 1.4c1.7 0 4.1-.3 7.2-1c3-.6 4.5-1.1 4.5-1.6c0-.2-.5-.4-1.7-.6c-1.2-.2-2.5-.3-3.8-.3c-2.1 0-3.1-.4-3.1-1.3c0-.4 .2-1.2 .7-2.2c.4-.8 .7-1.5 1.1-2.2c.6-1.5 1.9-2.7 3.8-3.6c1.8-.9 3.8-1.4 5.8-1.4h17.2c0-1.5-.1-2.7-.2-3.3c-.1-1-.4-1.9-.9-2.7c-.5 1.1-1.3 2-2.3 2.6c-.9 .6-2 .9-3 .9c-1.5 0-2.7-.5-3.7-1.5c-1-.9-1.4-2.1-1.4-3.5c0-2.1 .6-4.6 1.9-7.5c1.4-3.2 2.8-4.8 4.3-4.8Zm262.9-1.1l5 2.7l-2.8 5.2l-4-1.9l-2.2 4.3l-4.9-2.7l2.9-5.5l3.8 2.1Zm-380.8-.3l4.9 2.8l-3 5.4l-3.8-2.1l-2.1 4.2l-5-2.7l2.8-5.2l4 2Zm271.3-1.8l2.6 16.8c.4 2.6 1 4.4 1.6 5.3c.4 .6 1 .9 1.8 .9h15.9c-.2-1.2-.6-2.2-1.1-3.1c-.3-.4-.9-1.2-1.9-2.4l2.1-6.4c1.4 1.5 2.3 3.1 2.8 4.8c.4 1.5 .7 3.5 .7 6.2v.9h1.9c1.9 0 3.5-.5 4.7-1.6c1.6-1.3 2.5-3.4 2.5-6.3l1.7 .3c0 .6 0 1.2-.1 2c0 .7 0 1.5 0 2.4c0 .9 .3 1.7 .9 2.3c.6 .6 1.4 .9 2.2 .9h3.3c2.1 0 3.7-.3 4.6-.9c1.2-.7 1.7-2.1 1.7-4.1c0-.4 .2-.8 .4-1.2c.2-.2 .5-.5 1-.8l1-.9c.1 .4 .1 .8 .1 1.4c0 .6 .1 1 .1 1.2c0 1-.2 2.3-.5 3.9c.7 .3 1.4 .6 2.2 .8c.9 .3 1.7 .4 2.7 .6c0-.6-.3-1.4-.7-2.4c-.5-1-.7-1.6-.7-2c0-.4 .1-.8 .2-1c0-.1 .2-.4 .6-.9l2.3-3c.5 1.1 .8 2.1 1 3c.2 .9 .3 2.1 .3 3.5v2.8h12.4c-.2-1.2-.6-2.2-1.1-3.1c-.3-.4-.9-1.2-1.9-2.4l2.1-6.4c1.4 1.5 2.3 3.1 2.8 4.8c.5 1.7 .7 4.1 .7 7.4v7h-16.8l-.9-.1c-.9-.1-1.6-.2-2.3-.3c-1.3-.3-2.6-.8-3.9-1.4c-1 .8-2 1.2-2.8 1.5c-.8 .2-2 .3-3.6 .3h-4.4c-1.2 0-2.2-.3-2.9-.9c-.7-.6-1.3-1.7-1.9-3.1c-.9 1.5-2 2.5-3.3 3.2c-1 .5-2.2 .8-3.7 .8H1290c-.6 0-1.2-.1-1.8-.4c-1-.5-1.9-1.4-2.6-2.8c-1-1.9-1.6-4.5-1.9-7.8c-1.2 1.5-2.2 2.6-2.8 3.2c-1 .9-1.8 1.4-2.5 1.4c-.4 0-.8-.1-1.3-.2l-3.3-.7c-1.4-.2-2.2-.4-2.6-.6c-.3-.1-.4-.3-.4-.7c0-.4 .6-2 1.8-4.5c1.3-2.6 2.2-4.2 2.7-4.8c.5-.5 1.3-1.1 2.4-1.9c.7-.4 1.7-1 2.9-1.8l1.4-.8c0-.3-.1-.5-.1-.8c0-.2 0-.5 0-.7c0-.7 .1-1.5 .5-2.6c.3-1 .8-2.3 1.6-3.8Zm-313.8-1.6l6.3 3.3l-3.3 6l-6.3-3.2Zm380.6-.7l6.3 3.4l-3.2 6l-6.3-3.3Zm-100.4 0l1.6 9.5c.6 3.6 1 6.8 1.2 9.4c.2 2.1 .3 4 .3 5.9c0 1.6-.2 3.1-.6 4.4c-.4 1.3-1.1 3.1-2.2 5.3l-1.6-.7c.5-2.3 .7-4.1 .7-5.5c0-1.1-.1-2.8-.3-4.9c-.2-2.1-.4-4.2-.7-6.2c-.2-2.1-.7-4.6-1.3-7.4c-.2-1-.3-1.7-.3-2.1c0-.5 .3-1.5 .8-2.8c.6-1.4 1.4-3 2.4-4.9Zm164.3-1.1l6.2 3.3l-3.2 6.1l-6.3-3.3Zm-407.3-1l5 2.6l-2.7 5.6l-5-2.7Zm427.7 0l1.2 .6c0 .2 0 .4-.1 .9c0 .6 .4 1.2 1.1 1.7c.7 .5 1.8 1.1 3.2 1.7c-.2 1.1-.4 2.2-.7 3.3c-.3 1.1-.7 2.1-1.1 3l-.9-.4l2.9 16.6h12.2c-.2-1.2-.6-2.2-1.1-3.1c-.3-.4-.9-1.2-1.9-2.4l2.2-6.4c1.3 1.5 2.2 3.1 2.7 4.8c.5 1.7 .8 4.1 .8 7.4v7h-31.8c-1.4 0-2.6-.3-3.7-.8c-1.1-.6-1.9-1.5-2.6-2.8c-1.2 1.4-2.7 2.4-4.5 3c-1.3 .4-2.6 .6-4.1 .6h-23.5c-1 0-2 0-2.7 0c-.7 0-1.2-.1-1.6-.1c-.7-.1-1.4-.2-2.3-.6c-1.5-.5-2.7-1.5-3.6-3c-.9-1.6-1.4-3.3-1.4-5.2c0-.7 0-1.5 .1-2.3c.1-.8 .3-1.6 .6-2.5c.4-1.1 .8-2 1.3-2.9c.5-.8 1-1.7 1.5-2.4l1.5 .9c-.4 .8-.7 1.4-.9 2c-.3 .6-.5 1.1-.7 1.5c-.2 .9-.4 1.7-.4 2.5c0 1 .4 1.9 1 2.7c.7 .8 1.6 1.4 2.6 1.6c.6 .2 1.4 .3 2.4 .4c1 .1 2.1 .1 3.2 .1h19.4c-.5-1.4-.9-2.4-1.2-2.9c-.4-.7-1-1.5-1.8-2.6l2.4-6.2c1.3 1.9 2.2 3.6 2.6 5.2c.4 1.5 .6 3.5 .6 6.2v.3h.9c1.5 0 2.6-.1 3.2-.2c.6-.2 1.4-.5 2.4-1.1c-.5-1-1-1.8-1.4-2.2c-.5-.6-1-.9-1.5-.9c-.2 0-.4 .1-.5 .2c-.2 .2-.4 .4-.6 .8l-1.2-.2c0-3.2 .5-5.5 1.7-6.9c1.1-1.4 2.9-2.1 5.3-2.1c2.5 0 4.4 .5 5.8 1.5c1.5 1 2.2 2.3 2.2 4c0 .9-.2 1.8-.6 2.6c-.4 .9-1.1 2-2.1 3.4c.2 .4 .6 .6 1 .8c.4 .2 .8 .3 1.2 .3h13.7l-3.3-18.2l-1.7-1.1c0-1.1 .2-2.2 .5-3.2c.4-1.4 1.1-3 2.1-4.9Zm-197.1 0l1.2 .6c0 .2 0 .4-.1 .9c0 .6 .4 1.2 1.1 1.7c.7 .5 1.8 1.1 3.2 1.7c-.1 1.1-.4 2.2-.7 3.3c-.3 1.1-.7 2.1-1.1 3l-.9-.4l2.9 16.6v7.3h-14.8l-.9-.1c-.9-.1-1.6-.2-2.3-.3c-1.3-.3-2.6-.8-3.9-1.4c-1 .8-2 1.2-2.8 1.5c-.8 .2-2 .3-3.6 .3h-4.4c-1.2 0-2.2-.3-2.9-.9c-.7-.6-1.3-1.7-1.8-3.1c-1 1.5-2.1 2.5-3.3 3.2c-1.1 .5-2.3 .8-3.8 .8h-21.8v.6c0 1.1-.6 2.6-1.9 4.4c-1.2 1.8-2.7 3.3-4.4 4.7c-1.8 1.4-3.4 2.2-4.7 2.2c-1.6 0-3.3-.5-5.1-1.4c-1.6-.7-4-2.3-7.4-4.6l1.1-1.7c1.6 1.1 2.9 1.8 3.9 2.2c1 .4 2.1 .6 3.2 .6c1.3 0 2.5-.4 3.7-1.1c1.3-.7 2.9-2 5.1-3.9c2.9-2.6 4.4-4.7 4.4-6.1c0-.7-.2-1.6-.8-2.8c-.7-1.3-1.5-2.4-2.4-3.3l1.5-7.3c1.2 1.3 2.2 2.7 2.8 4.4c.7 1.6 1 3.4 1 5.5v.3h15.6c-.7-.8-1.4-1.6-2-2.2c-.6-.5-1.3-1.1-2.2-1.8c-1-.8-2-1.6-3-2.4l-.9 1c-1.6-1.6-2.5-2.5-2.8-2.9c-.9-1-1.4-2.2-1.4-3.5c0-1.8 .1-3.1 .4-3.8c.4-1.1 1.1-2 2.3-2.8c1-.7 2.1-1.4 3.3-1.9c.9-.5 2.2-1.1 3.7-1.7c.7-.3 2.2-.9 4.5-1.8v6.4c0 0-.8 .3-2.2 .7c-1.8 .6-3.2 1.1-4.2 1.5c-1.5 .7-2.2 1.1-2.2 1.4c0 .2 .6 .9 1.9 2.1c1.7 1.7 3.2 3.2 4.3 4.6c2 2.3 3.6 4.6 4.8 6.9v.2h1.9c1.9 0 3.5-.5 4.7-1.6c1.7-1.3 2.5-3.4 2.5-6.3l1.7 .3c0 .6 0 1.2-.1 2c0 .7 0 1.5 0 2.4c0 .9 .3 1.7 .9 2.3c.7 .6 1.4 .9 2.2 .9h3.3c2.2 0 3.7-.3 4.7-.9c1.1-.7 1.6-2.1 1.6-4.1c0-.4 .2-.8 .4-1.2c.2-.2 .5-.5 1-.8l1.1-.9c0 .4 0 .8 0 1.4c.1 .6 .1 1 .1 1.2c0 1-.2 2.3-.5 3.9c.7 .3 1.4 .6 2.3 .8c.8 .3 1.7 .4 2.6 .6c0-.6-.3-1.4-.7-2.4c-.4-1-.7-1.6-.7-2c0-.4 .1-.8 .2-1c.1-.1 .2-.4 .6-.9l2.3-3c.5 1.1 .8 2.1 1 3c.2 .9 .3 2.1 .3 3.5v2.8h9.8l-3.3-18.2l-1.7-1.1c0-1.1 .2-2.2 .5-3.2c.4-1.4 1.1-3 2.1-4.9Zm-375.3-2.1l1.3 .5c0 .1-.1 .3-.1 .7c0 .6 .8 1.4 2.6 2.2c.6 .3 1.5 .7 2.7 1.1c-.2 1.4-.5 2.7-.9 3.9c-.2 .6-.5 1.6-1.1 2.9l-.9-.3c.5 2.5 .9 4.4 1.1 5.6c.2 1.2 .3 2.3 .3 3.2v.3c0 .5 0 .9-.1 1.2c0 .3-.1 .8-.2 1.4c.9-.7 1.9-1.3 2.8-2c1.5-1 2.8-1.9 3.9-2.5c1.5-.8 2.7-1.2 3.5-1.2c2.1 0 3.8 .5 5 1.6c1.5 1.2 2.2 3 2.2 5.4v12.8H822.3c-1.4 0-2.6-.3-3.7-.8c-1.1-.6-1.9-1.5-2.6-2.8c-.7 .9-1.6 1.6-2.6 2.2v1.4H796.8c-.8 0-1.4 0-1.8 .1c-.3 0-.5 .1-.5 .3c.5 .3 1 .5 1.5 .7c.4 .1 .7 .2 .9 .4c.1 .2 .2 .5 .2 .9c0 1.3-.4 2.8-1.1 4.6c-.7 1.7-1.4 2.8-2.1 3.3c-.7 .5-2.6 1.1-5.9 1.9c-3.3 .7-6.1 1.1-8.5 1.1c-3.3 0-6-.7-8.1-2.1c-2.1-1.4-3.1-3.3-3.1-5.5c0-2.2 .4-4.3 1.3-6.3c1.1-2.4 3.2-5.4 6.2-9.1l1.6 1.1c-1.9 2.3-3.2 4.2-3.9 5.6c-.8 1.4-1.1 2.9-1.1 4.2c0 2 .8 3.4 2.4 4.3c1.6 .9 4 1.4 7.3 1.4c1.7 0 4.1-.3 7.1-1c3.1-.6 4.6-1.1 4.6-1.6c0-.2-.6-.4-1.7-.6c-1.2-.2-2.5-.3-3.9-.3c-2 0-3-.4-3-1.3c0-.4 .2-1.2 .7-2.2c.3-.8 .7-1.5 1-2.2c.7-1.5 2-2.7 3.8-3.6c1.9-.9 3.9-1.4 5.9-1.4h10.8c1.5 0 2.6-.1 3.1-.2c.7-.2 1.5-.5 2.5-1.1c-.6-1-1-1.8-1.4-2.2c-.5-.6-1-.9-1.5-.9c-.2 0-.4 .1-.6 .2c-.1 .2-.3 .4-.5 .8l-1.2-.2c0-3.2 .5-5.5 1.6-6.9c1.2-1.4 2.9-2.1 5.3-2.1c2.5 0 4.5 .5 5.9 1.5c1.5 1 2.2 2.3 2.2 4c0 .9-.2 1.8-.6 2.6c-.4 .9-1.1 2-2.1 3.4c.2 .4 .6 .6 1 .8c.4 .2 .8 .3 1.2 .3h16.2c-.2-1.2-.5-2.2-1-3.1c-.3-.4-.9-1.2-1.9-2.4l2.1-6.4c1.4 1.5 2.3 3.1 2.8 4.8c.4 1.5 .6 3.5 .7 6.2v.9h12.2c-.2-1.2-.6-2.2-1.1-3.1c-.3-.4-.9-1.2-1.9-2.4l2.2-6.4c1.3 1.5 2.2 3.1 2.7 4.8c.5 1.5 .7 3.5 .8 6.2v.9h1.6c.4 0 1.6-.7 3.6-2.2c.7-.5 1.6-1.3 2.9-2.3c0-2.2-.1-4-.3-5.6c-.1-1.5-.4-3.1-.8-4.7c0-.4-.5-2.3-1.4-5.8l-1.6-1c.5-1.9 .8-3.2 1.1-4c.2-.9 .8-2.1 1.5-3.9Zm265.5-2l6.3 3.3l-3.2 6l-6.3-3.3Zm154.3-1.3l4.8 2.5l-2.9 5l-3.9-2.2l-2.1 4.3l-5-2.8l2.8-4.7l4 2Z" class="g0_47"/>
<path d="M1107.1 343.3l3.4 2.2l-2.6 3l-2.9-1.8l-2.1 2.2l-3.3-1.8l2.5-3.3l2.9 1.9Zm-322.1 0l3.4 2.2l-2.6 3l-2.9-1.8l-2.1 2.2l-3.4-1.8l2.6-3.3l2.9 1.9Zm661.6-11.6l6.3 3.3l-3.3 6l-6.2-3.3Zm-147 0l6.2 3.3l-3.2 6l-6.3-3.3Zm-452.5 0l6.3 3.3l-3.3 6l-6.2-3.3Zm-11.3-.3l5 2.8l-2.8 5.2l-4-2l-2.2 4.3l-4.9-2.7l2.9-5.5l3.8 2.2Zm113.4-14.6c-1.2 0-2.5 .4-4 1.1c-1.5 .8-3.6 2.2-6.4 4.2h7c6.1 0 9.1-.9 9.1-2.7c0-.7-.6-1.3-1.7-1.8c-1.1-.5-2.4-.8-4-.8Zm-73.6 0c-1.2 0-2.6 .4-4 1.1c-1.5 .8-3.7 2.2-6.5 4.2h7.1c5.9 0 8.8-.9 8.8-2.7c0-.6-.6-1.2-1.9-1.8c-1.4-.5-2.5-.8-3.5-.8Zm171.1-3.2c1.2 0 2.6 .7 4 2.1c1.5 1.3 3.2 3.5 5.1 6.4v7.3h-3.5c-3.2 0-6.1 .3-8.7 .8c-2.5 .6-3.7 1.2-3.7 1.9c.7 2.2 1.3 4.2 1.8 6.1c.6 1.9 .8 3.6 .8 5.3c0 1.2-.1 2.2-.3 3c-.3 .7-.7 1.5-1.4 2.4c-.2-2.3-.6-4.8-1.3-7.4c-.2-.9-.8-2.8-1.7-5.8c-.6-1.8-.9-3-.9-3.6c0-.8 .2-1.9 .7-3.1c.4-1 .8-1.9 1.3-2.7c.6-.9 1.6-1.6 3-2.1c1.4-.6 3.6-1 6.5-1.3c-1.4-2-2.7-3-3.8-3c-.4 0-.9 .2-1.3 .5c-.4 .4-1.1 1.2-2 2.4l-1.3-.7c.8-2.7 1.8-4.8 2.9-6.3c1.2-1.5 2.5-2.2 3.8-2.2Zm235.8-2.6c-.5 .3-1 .5-1.3 .7c-1 .5-1.8 1-2.4 1.4c-.4 .4-.8 .7-1.1 1c-.3 .4-.5 .7-.5 .9c0 .3 .3 .4 1 .6c.6 .1 1.2 .2 1.8 .2c.4 0 .8-.1 1.2-.3c.5-.3 1.1-.7 1.9-1.3Zm-330.8-1.4c2 0 3.6 .7 4.7 2.1c1.4 1.6 2 4.1 2 7.4v3h17.3c-2.2-2.2-4.2-3.8-6-4.8c-1.7-.9-3.3-1.3-4.8-1.3c-.5 0-.9 0-1.3 0c-.4 .1-.9 .2-1.7 .3c1-2.2 2.1-3.9 3.3-5c1.2-1 2.6-1.6 4.1-1.6c1.2 0 2.4 .3 3.5 .9c1.1 .6 2.3 1.5 3.6 2.8c1.1 1 2.6 2.5 4.6 4.7c1.3 1.5 2.4 2.4 3.1 2.9c.7 .4 1.7 .8 3.2 1.1h1.9c1.9 0 3.5-.5 4.7-1.6c1.6-1.3 2.5-3.4 2.5-6.3l1.7 .3c0 .6 0 1.2-.1 2c0 .7 0 1.5 0 2.4c0 .9 .3 1.7 .9 2.3c.6 .6 1.4 .9 2.2 .9h3.3c2.1 0 3.7-.3 4.6-.9c1.2-.7 1.7-2.1 1.7-4.1c0-.4 .2-.8 .4-1.2c.2-.2 .5-.5 1-.8l1-.9c.1 .4 .1 .8 .1 1.4c0 .6 .1 1 .1 1.2c0 1-.2 2.3-.5 3.9c.7 .3 1.4 .6 2.2 .8c.9 .3 1.7 .4 2.7 .6c0-.6-.3-1.4-.7-2.4c-.5-1-.7-1.6-.7-2c0-.4 .1-.8 .2-1c0-.1 .2-.4 .6-.9l2.3-3c.5 1.1 .8 2.1 1 3c.2 .9 .3 2.1 .3 3.5v10.1c-2 0-3.7-.1-5-.4c-1.3-.3-2.6-.8-3.9-1.4c-1 .8-2 1.2-2.8 1.5c-.8 .2-2 .3-3.6 .3H1001c-1.2 0-2.2-.3-2.9-.9c-.7-.6-1.3-1.7-1.9-3.1c-.9 1.5-2 2.5-3.3 3.2c-1 .5-2.2 .8-3.7 .8H929.7c0 4.2-1.3 7.2-4 9c-2.2 1.6-5.7 2.4-10.4 2.4c-4.4 0-7.7-.8-10.1-2.4c-2.3-1.6-3.5-3.8-3.5-6.8c0-2.4 .4-4.7 1.1-6.8c.8-2.2 2.5-5.2 4.9-8.8l1.6 1.1c-1.8 3-3 5.2-3.5 6.6c-.5 1.3-.8 2.7-.8 4.2c0 1.9 1 3.4 3 4.6c2 1.2 4.7 1.8 7.9 1.8c3.3 0 6-.6 8.2-1.9c2.2-1.2 3.3-2.7 3.3-4.5c0-1.1-.2-2.2-.6-3.3c-.4-1.1-1.2-2.8-2.5-5.2l2.4-7.3c1 1.9 1.5 3 1.6 3.3c.6 1.1 .9 2.1 1.1 3c.2 1 .3 2.2 .3 3.7c1.2 0 2.3-.3 3.2-.9c.1 0 1-.7 2.7-1.8l9.6-6.9c1.5-1.1 2.6-1.8 3.4-2.2c1-.5 2-.7 3.1-.7Zm178.4-.5c-.5 0-1 .2-1.5 .7c-.4 .5-.6 1.1-.6 1.7c0 .4 .2 .8 .5 1c.3 .3 .8 .5 1.3 .5c.4 0 .8-.2 1.2-.4c.4-.2 1-.7 1.6-1.3c-.5-.8-.9-1.4-1.3-1.7c-.4-.3-.8-.5-1.2-.5Zm-61.7-5.1c2.3 1.8 4 4 4.9 6.7c.9 2.6 1.4 5.9 1.4 10.1v8.6h-12.2c-1.2 0-2.1-.2-2.7-.7c-.8-.6-1.2-1.6-1.2-3c0-.8 .1-1.6 .2-2.6c0-.9 .2-1.8 .3-2.7l1-.1c.2 .6 .5 1.1 1 1.4c.5 .3 1.1 .4 1.8 .4h9.2c-.4-2.6-1.1-4.7-2.1-6.3c-.9-1.3-2-2.4-3.6-3.4Zm62.2-1.7c1.8 0 3.6 1.6 5.3 4.9c1.7 3.3 2.5 6.7 2.5 10.4v11.8h-19.5c-.8 0-1.4 0-1.7 .1c-.4 0-.6 .1-.6 .3c.6 .3 1 .5 1.5 .7c.5 .1 .8 .2 .9 .4c.1 .2 .2 .5 .2 .9c0 1.3-.3 2.8-1.1 4.6c-.7 1.7-1.4 2.8-2.1 3.3c-.7 .5-2.6 1.1-5.9 1.9c-3.3 .7-6.1 1.1-8.4 1.1c-3.4 0-6.1-.7-8.2-2.1c-2.1-1.4-3.1-3.3-3.1-5.5c0-2.2 .4-4.3 1.3-6.3c1.2-2.4 3.2-5.4 6.2-9.1l1.6 1.1c-1.9 2.3-3.2 4.2-3.9 5.6c-.7 1.4-1.1 2.9-1.1 4.2c0 2 .8 3.4 2.4 4.3c1.6 .9 4 1.4 7.3 1.4c1.7 0 4.1-.3 7.2-1c3-.6 4.5-1.1 4.5-1.6c0-.2-.5-.4-1.7-.6c-1.2-.2-2.5-.3-3.8-.3c-2.1 0-3.1-.4-3.1-1.3c0-.4 .2-1.2 .7-2.2c.4-.8 .7-1.5 1.1-2.2c.6-1.5 1.9-2.7 3.8-3.6c1.8-.9 3.8-1.4 5.8-1.4h17.2c0-1.5-.1-2.7-.2-3.3c-.1-1-.4-1.9-.9-2.7c-.5 1.1-1.3 2-2.3 2.6c-.9 .6-2 .9-3 .9c-1.5 0-2.7-.5-3.7-1.5c-1-.9-1.4-2.1-1.4-3.5c0-2.1 .6-4.6 1.9-7.5c1.4-3.2 2.8-4.8 4.3-4.8Zm262.9-1.1l5 2.7l-2.8 5.2l-4-1.9l-2.2 4.3l-4.9-2.7l2.9-5.5l3.8 2.1Zm-380.8-.3l4.9 2.8l-3 5.4l-3.8-2.1l-2.1 4.2l-5-2.7l2.8-5.2l4 2Zm271.3-1.8l2.6 16.8c.4 2.6 1 4.4 1.6 5.3c.4 .6 1 .9 1.8 .9h15.9c-.2-1.2-.6-2.2-1.1-3.1c-.3-.4-.9-1.2-1.9-2.4l2.1-6.4c1.4 1.5 2.3 3.1 2.8 4.8c.4 1.5 .7 3.5 .7 6.2v.9h1.9c1.9 0 3.5-.5 4.7-1.6c1.6-1.3 2.5-3.4 2.5-6.3l1.7 .3c0 .6 0 1.2-.1 2c0 .7 0 1.5 0 2.4c0 .9 .3 1.7 .9 2.3c.6 .6 1.4 .9 2.2 .9h3.3c2.1 0 3.7-.3 4.6-.9c1.2-.7 1.7-2.1 1.7-4.1c0-.4 .2-.8 .4-1.2c.2-.2 .5-.5 1-.8l1-.9c.1 .4 .1 .8 .1 1.4c0 .6 .1 1 .1 1.2c0 1-.2 2.3-.5 3.9c.7 .3 1.4 .6 2.2 .8c.9 .3 1.7 .4 2.7 .6c0-.6-.3-1.4-.7-2.4c-.5-1-.7-1.6-.7-2c0-.4 .1-.8 .2-1c0-.1 .2-.4 .6-.9l2.3-3c.5 1.1 .8 2.1 1 3c.2 .9 .3 2.1 .3 3.5v2.8h12.4c-.2-1.2-.6-2.2-1.1-3.1c-.3-.4-.9-1.2-1.9-2.4l2.1-6.4c1.4 1.5 2.3 3.1 2.8 4.8c.5 1.7 .7 4.1 .7 7.4v7h-16.8l-.9-.1c-.9-.1-1.6-.2-2.3-.3c-1.3-.3-2.6-.8-3.9-1.4c-1 .8-2 1.2-2.8 1.5c-.8 .2-2 .3-3.6 .3h-4.4c-1.2 0-2.2-.3-2.9-.9c-.7-.6-1.3-1.7-1.9-3.1c-.9 1.5-2 2.5-3.3 3.2c-1 .5-2.2 .8-3.7 .8H1290c-.6 0-1.2-.1-1.8-.4c-1-.5-1.9-1.4-2.6-2.8c-1-1.9-1.6-4.5-1.9-7.8c-1.2 1.5-2.2 2.6-2.8 3.2c-1 .9-1.8 1.4-2.5 1.4c-.4 0-.8-.1-1.3-.2l-3.3-.7c-1.4-.2-2.2-.4-2.6-.6c-.3-.1-.4-.3-.4-.7c0-.4 .6-2 1.8-4.5c1.3-2.6 2.2-4.2 2.7-4.8c.5-.5 1.3-1.1 2.4-1.9c.7-.4 1.7-1 2.9-1.8l1.4-.8c0-.3-.1-.5-.1-.8c0-.2 0-.5 0-.7c0-.7 .1-1.5 .5-2.6c.3-1 .8-2.3 1.6-3.8Zm-313.8-1.6l6.3 3.3l-3.3 6l-6.3-3.2Zm380.6-.7l6.3 3.4l-3.2 6l-6.3-3.3Zm-100.4 0l1.6 9.5c.6 3.6 1 6.8 1.2 9.4c.2 2.1 .3 4 .3 5.9c0 1.6-.2 3.1-.6 4.4c-.4 1.3-1.1 3.1-2.2 5.3l-1.6-.7c.5-2.3 .7-4.1 .7-5.5c0-1.1-.1-2.8-.3-4.9c-.2-2.1-.4-4.2-.7-6.2c-.2-2.1-.7-4.6-1.3-7.4c-.2-1-.3-1.7-.3-2.1c0-.5 .3-1.5 .8-2.8c.6-1.4 1.4-3 2.4-4.9Zm164.3-1.1l6.2 3.3l-3.2 6.1l-6.3-3.3Zm-407.3-1l5 2.6l-2.7 5.6l-5-2.7Zm427.7 0l1.2 .6c0 .2 0 .4-.1 .9c0 .6 .4 1.2 1.1 1.7c.7 .5 1.8 1.1 3.2 1.7c-.2 1.1-.4 2.2-.7 3.3c-.3 1.1-.7 2.1-1.1 3l-.9-.4l2.9 16.6h12.2c-.2-1.2-.6-2.2-1.1-3.1c-.3-.4-.9-1.2-1.9-2.4l2.2-6.4c1.3 1.5 2.2 3.1 2.7 4.8c.5 1.7 .8 4.1 .8 7.4v7h-31.8c-1.4 0-2.6-.3-3.7-.8c-1.1-.6-1.9-1.5-2.6-2.8c-1.2 1.4-2.7 2.4-4.5 3c-1.3 .4-2.6 .6-4.1 .6h-23.5c-1 0-2 0-2.7 0c-.7 0-1.2-.1-1.6-.1c-.7-.1-1.4-.2-2.3-.6c-1.5-.5-2.7-1.5-3.6-3c-.9-1.6-1.4-3.3-1.4-5.2c0-.7 0-1.5 .1-2.3c.1-.8 .3-1.6 .6-2.5c.4-1.1 .8-2 1.3-2.9c.5-.8 1-1.7 1.5-2.4l1.5 .9c-.4 .8-.7 1.4-.9 2c-.3 .6-.5 1.1-.7 1.5c-.2 .9-.4 1.7-.4 2.5c0 1 .4 1.9 1 2.7c.7 .8 1.6 1.4 2.6 1.6c.6 .2 1.4 .3 2.4 .4c1 .1 2.1 .1 3.2 .1h19.4c-.5-1.4-.9-2.4-1.2-2.9c-.4-.7-1-1.5-1.8-2.6l2.4-6.2c1.3 1.9 2.2 3.6 2.6 5.2c.4 1.5 .6 3.5 .6 6.2v.3h.9c1.5 0 2.6-.1 3.2-.2c.6-.2 1.4-.5 2.4-1.1c-.5-1-1-1.8-1.4-2.2c-.5-.6-1-.9-1.5-.9c-.2 0-.4 .1-.5 .2c-.2 .2-.4 .4-.6 .8l-1.2-.2c0-3.2 .5-5.5 1.7-6.9c1.1-1.4 2.9-2.1 5.3-2.1c2.5 0 4.4 .5 5.8 1.5c1.5 1 2.2 2.3 2.2 4c0 .9-.2 1.8-.6 2.6c-.4 .9-1.1 2-2.1 3.4c.2 .4 .6 .6 1 .8c.4 .2 .8 .3 1.2 .3h13.7l-3.3-18.2l-1.7-1.1c0-1.1 .2-2.2 .5-3.2c.4-1.4 1.1-3 2.1-4.9Zm-197.1 0l1.2 .6c0 .2 0 .4-.1 .9c0 .6 .4 1.2 1.1 1.7c.7 .5 1.8 1.1 3.2 1.7c-.1 1.1-.4 2.2-.7 3.3c-.3 1.1-.7 2.1-1.1 3l-.9-.4l2.9 16.6v7.3h-14.8l-.9-.1c-.9-.1-1.6-.2-2.3-.3c-1.3-.3-2.6-.8-3.9-1.4c-1 .8-2 1.2-2.8 1.5c-.8 .2-2 .3-3.6 .3h-4.4c-1.2 0-2.2-.3-2.9-.9c-.7-.6-1.3-1.7-1.8-3.1c-1 1.5-2.1 2.5-3.3 3.2c-1.1 .5-2.3 .8-3.8 .8h-21.8v.6c0 1.1-.6 2.6-1.9 4.4c-1.2 1.8-2.7 3.3-4.4 4.7c-1.8 1.4-3.4 2.2-4.7 2.2c-1.6 0-3.3-.5-5.1-1.4c-1.6-.7-4-2.3-7.4-4.6l1.1-1.7c1.6 1.1 2.9 1.8 3.9 2.2c1 .4 2.1 .6 3.2 .6c1.3 0 2.5-.4 3.7-1.1c1.3-.7 2.9-2 5.1-3.9c2.9-2.6 4.4-4.7 4.4-6.1c0-.7-.2-1.6-.8-2.8c-.7-1.3-1.5-2.4-2.4-3.3l1.5-7.3c1.2 1.3 2.2 2.7 2.8 4.4c.7 1.6 1 3.4 1 5.5v.3h15.6c-.7-.8-1.4-1.6-2-2.2c-.6-.5-1.3-1.1-2.2-1.8c-1-.8-2-1.6-3-2.4l-.9 1c-1.6-1.6-2.5-2.5-2.8-2.9c-.9-1-1.4-2.2-1.4-3.5c0-1.8 .1-3.1 .4-3.8c.4-1.1 1.1-2 2.3-2.8c1-.7 2.1-1.4 3.3-1.9c.9-.5 2.2-1.1 3.7-1.7c.7-.3 2.2-.9 4.5-1.8v6.4c0 0-.8 .3-2.2 .7c-1.8 .6-3.2 1.1-4.2 1.5c-1.5 .7-2.2 1.1-2.2 1.4c0 .2 .6 .9 1.9 2.1c1.7 1.7 3.2 3.2 4.3 4.6c2 2.3 3.6 4.6 4.8 6.9v.2h1.9c1.9 0 3.5-.5 4.7-1.6c1.7-1.3 2.5-3.4 2.5-6.3l1.7 .3c0 .6 0 1.2-.1 2c0 .7 0 1.5 0 2.4c0 .9 .3 1.7 .9 2.3c.7 .6 1.4 .9 2.2 .9h3.3c2.2 0 3.7-.3 4.7-.9c1.1-.7 1.6-2.1 1.6-4.1c0-.4 .2-.8 .4-1.2c.2-.2 .5-.5 1-.8l1.1-.9c0 .4 0 .8 0 1.4c.1 .6 .1 1 .1 1.2c0 1-.2 2.3-.5 3.9c.7 .3 1.4 .6 2.3 .8c.8 .3 1.7 .4 2.6 .6c0-.6-.3-1.4-.7-2.4c-.4-1-.7-1.6-.7-2c0-.4 .1-.8 .2-1c.1-.1 .2-.4 .6-.9l2.3-3c.5 1.1 .8 2.1 1 3c.2 .9 .3 2.1 .3 3.5v2.8h9.8l-3.3-18.2l-1.7-1.1c0-1.1 .2-2.2 .5-3.2c.4-1.4 1.1-3 2.1-4.9Zm-375.3-2.1l1.3 .5c0 .1-.1 .3-.1 .7c0 .6 .8 1.4 2.6 2.2c.6 .3 1.5 .7 2.7 1.1c-.2 1.4-.5 2.7-.9 3.9c-.2 .6-.5 1.6-1.1 2.9l-.9-.3c.5 2.5 .9 4.4 1.1 5.6c.2 1.2 .3 2.3 .3 3.2v.3c0 .5 0 .9-.1 1.2c0 .3-.1 .8-.2 1.4c.9-.7 1.9-1.3 2.8-2c1.5-1 2.8-1.9 3.9-2.5c1.5-.8 2.7-1.2 3.5-1.2c2.1 0 3.8 .5 5 1.6c1.5 1.2 2.2 3 2.2 5.4v12.8H822.3c-1.4 0-2.6-.3-3.7-.8c-1.1-.6-1.9-1.5-2.6-2.8c-.7 .9-1.6 1.6-2.6 2.2v1.4H796.8c-.8 0-1.4 0-1.8 .1c-.3 0-.5 .1-.5 .3c.5 .3 1 .5 1.5 .7c.4 .1 .7 .2 .9 .4c.1 .2 .2 .5 .2 .9c0 1.3-.4 2.8-1.1 4.6c-.7 1.7-1.4 2.8-2.1 3.3c-.7 .5-2.6 1.1-5.9 1.9c-3.3 .7-6.1 1.1-8.5 1.1c-3.3 0-6-.7-8.1-2.1c-2.1-1.4-3.1-3.3-3.1-5.5c0-2.2 .4-4.3 1.3-6.3c1.1-2.4 3.2-5.4 6.2-9.1l1.6 1.1c-1.9 2.3-3.2 4.2-3.9 5.6c-.8 1.4-1.1 2.9-1.1 4.2c0 2 .8 3.4 2.4 4.3c1.6 .9 4 1.4 7.3 1.4c1.7 0 4.1-.3 7.1-1c3.1-.6 4.6-1.1 4.6-1.6c0-.2-.6-.4-1.7-.6c-1.2-.2-2.5-.3-3.9-.3c-2 0-3-.4-3-1.3c0-.4 .2-1.2 .7-2.2c.3-.8 .7-1.5 1-2.2c.7-1.5 2-2.7 3.8-3.6c1.9-.9 3.9-1.4 5.9-1.4h10.8c1.5 0 2.6-.1 3.1-.2c.7-.2 1.5-.5 2.5-1.1c-.6-1-1-1.8-1.4-2.2c-.5-.6-1-.9-1.5-.9c-.2 0-.4 .1-.6 .2c-.1 .2-.3 .4-.5 .8l-1.2-.2c0-3.2 .5-5.5 1.6-6.9c1.2-1.4 2.9-2.1 5.3-2.1c2.5 0 4.5 .5 5.9 1.5c1.5 1 2.2 2.3 2.2 4c0 .9-.2 1.8-.6 2.6c-.4 .9-1.1 2-2.1 3.4c.2 .4 .6 .6 1 .8c.4 .2 .8 .3 1.2 .3h16.2c-.2-1.2-.5-2.2-1-3.1c-.3-.4-.9-1.2-1.9-2.4l2.1-6.4c1.4 1.5 2.3 3.1 2.8 4.8c.4 1.5 .6 3.5 .7 6.2v.9h12.2c-.2-1.2-.6-2.2-1.1-3.1c-.3-.4-.9-1.2-1.9-2.4l2.2-6.4c1.3 1.5 2.2 3.1 2.7 4.8c.5 1.5 .7 3.5 .8 6.2v.9h1.6c.4 0 1.6-.7 3.6-2.2c.7-.5 1.6-1.3 2.9-2.3c0-2.2-.1-4-.3-5.6c-.1-1.5-.4-3.1-.8-4.7c0-.4-.5-2.3-1.4-5.8l-1.6-1c.5-1.9 .8-3.2 1.1-4c.2-.9 .8-2.1 1.5-3.9Zm265.5-2l6.3 3.3l-3.2 6l-6.3-3.3Zm154.3-1.3l4.8 2.5l-2.9 5l-3.9-2.2l-2.1 4.3l-5-2.8l2.8-4.7l4 2Z" class="g1_47"/>
<path fill-rule="evenodd" d="M735 312.2c1.6 1.3 2.7 2.2 3.4 2.8c.7 .6 1.9 1.4 3.4 2.4c-.6 2.4-1 3.8-1.1 4.3c-.2 .9-.5 2.4-.8 4.3c-1.8-1-3.1-1.7-4-2.3c-.8-.6-1.9-1.5-3.4-2.7c.5-2.3 .9-3.7 1.1-4.4c.3-1.1 .8-2.6 1.4-4.4Zm-30.9-1.9c-.9 0-1.6 .3-2.1 .8c-.6 .5-.8 1.2-.8 2c0 1 .5 1.9 1.7 2.5c1.1 .6 2.7 .9 4.6 .9c1.5 0 2.7-.1 3.5-.4c.9-.2 1.3-.5 1.3-.9c0-.8-.8-1.6-2.4-2.4c-1.8-1.1-3-1.7-3.7-2c-.7-.3-1.4-.5-2.1-.5Zm2.5-7.9c1.1 0 2.3 .4 3.6 1.2c1.3 .7 2.5 1.7 3.5 2.9c1.4 1.7 2.1 3.7 2.1 6c0 1.5-.3 3-1 4.5c-.3 1.1-.7 2-1.2 2.8c-.4 .7-.7 1.3-1 1.5c-.7 .9-2 1.7-3.7 2.3c-1.7 .6-3.3 1-4.7 1c-2 0-3.6-.6-4.8-1.6c-1.3-1-2-2.4-2-4c0-1.2 .3-2.7 .8-4.5c.5-1.8 1.3-3.8 2.3-6.1c.9-2.1 1.8-3.6 2.8-4.6c.9-.9 2-1.4 3.3-1.4Zm-33.9-4.6c1.6 1.9 2.7 3.4 3.3 4.5c.7 1.2 1.4 2.8 2.1 4.6c.6 1.8 1.1 3.8 1.5 5.8c.4 2 .5 4.1 .5 6.2c0 2.4-.3 5.8-1 10.3h-1.7c0-3-.2-5.4-.4-7c-.3-1.7-.8-3.6-1.6-5.9c-.7-1.9-1.4-3.6-2.2-4.9c-.8-1.4-2.1-3.2-3.8-5.4Z" class="g0_47"/>
<path d="M735 312.2c1.6 1.3 2.7 2.2 3.4 2.8c.7 .6 1.9 1.4 3.4 2.4c-.6 2.4-1 3.8-1.1 4.3c-.2 .9-.5 2.4-.8 4.3c-1.8-1-3.1-1.7-4-2.3c-.8-.6-1.9-1.5-3.4-2.7c.5-2.3 .9-3.7 1.1-4.4c.3-1.1 .8-2.6 1.4-4.4Zm-30.9-1.9c-.9 0-1.6 .3-2.1 .8c-.6 .5-.8 1.2-.8 2c0 1 .5 1.9 1.7 2.5c1.1 .6 2.7 .9 4.6 .9c1.5 0 2.7-.1 3.5-.4c.9-.2 1.3-.5 1.3-.9c0-.8-.8-1.6-2.4-2.4c-1.8-1.1-3-1.7-3.7-2c-.7-.3-1.4-.5-2.1-.5Zm2.5-7.9c1.1 0 2.3 .4 3.6 1.2c1.3 .7 2.5 1.7 3.5 2.9c1.4 1.7 2.1 3.7 2.1 6c0 1.5-.3 3-1 4.5c-.3 1.1-.7 2-1.2 2.8c-.4 .7-.7 1.3-1 1.5c-.7 .9-2 1.7-3.7 2.3c-1.7 .6-3.3 1-4.7 1c-2 0-3.6-.6-4.8-1.6c-1.3-1-2-2.4-2-4c0-1.2 .3-2.7 .8-4.5c.5-1.8 1.3-3.8 2.3-6.1c.9-2.1 1.8-3.6 2.8-4.6c.9-.9 2-1.4 3.3-1.4Zm-33.9-4.6c1.6 1.9 2.7 3.4 3.3 4.5c.7 1.2 1.4 2.8 2.1 4.6c.6 1.8 1.1 3.8 1.5 5.8c.4 2 .5 4.1 .5 6.2c0 2.4-.3 5.8-1 10.3h-1.7c0-3-.2-5.4-.4-7c-.3-1.7-.8-3.6-1.6-5.9c-.7-1.9-1.4-3.6-2.2-4.9c-.8-1.4-2.1-3.2-3.8-5.4Z" class="g1_47"/>
<path fill-rule="evenodd" d="M527.5 331.9l6.3 3.4l-3.2 6l-6.3-3.3Zm109-14.3c-.7 0-1.3 .8-1.8 2.5c.9 .3 1.6 .6 2.1 .7c1.5 .6 2.3 .9 2.5 .9c.4 0 .5-.2 .5-.4c0-.4-.3-1.1-1.1-2.1c-.9-1-1.6-1.6-2.2-1.6Zm-173.3-4c1.2 0 2.5 .7 4 2.1c1.4 1.3 3.2 3.5 5.1 6.4v7.3h-3.5c-3.3 0-6.2 .3-8.7 .8c-2.5 .6-3.8 1.2-3.8 1.9c.7 2.2 1.3 4.2 1.9 6.1c.5 1.9 .8 3.6 .8 5.3c0 1.2-.1 2.2-.4 3c-.2 .7-.7 1.5-1.3 2.4c-.2-2.3-.7-4.8-1.3-7.4c-.3-.9-.9-2.8-1.8-5.8c-.6-1.8-.8-3-.8-3.6c0-.8 .2-1.9 .7-3.1c.3-1 .8-1.9 1.2-2.7c.6-.9 1.6-1.6 3-2.1c1.5-.6 3.6-1 6.5-1.3c-1.4-2-2.6-3-3.7-3c-.5 0-.9 .2-1.3 .5c-.4 .4-1.1 1.2-2 2.4l-1.3-.7c.7-2.7 1.7-4.8 2.9-6.3c1.1-1.5 2.4-2.2 3.8-2.2Zm62.7-3.9c1.1 0 2.3 .3 3.4 .9c1.1 .6 2.3 1.5 3.6 2.8c1.1 1 2.6 2.5 4.6 4.7c1.4 1.5 2.4 2.4 3.1 2.9c.7 .4 1.8 .8 3.2 1.1v7.3H508v.6c0 1.1-.7 2.6-1.9 4.4c-1.3 1.8-2.7 3.3-4.4 4.7c-1.9 1.4-3.5 2.2-4.8 2.2c-1.6 0-3.3-.5-5.1-1.4c-1.5-.7-4-2.3-7.3-4.6l1.1-1.7c1.6 1.1 2.9 1.8 3.9 2.2c1 .4 2 .6 3.2 .6c1.2 0 2.4-.4 3.7-1.1c1.2-.7 2.9-2 5-3.9c3-2.6 4.5-4.7 4.5-6.1c0-.7-.3-1.6-.9-2.8c-.6-1.3-1.4-2.4-2.3-3.3l1.5-7.3c1.2 1.3 2.1 2.7 2.8 4.4c.7 1.6 1 3.4 1 5.5v.3h24.2c-2.2-2.2-4.2-3.8-6-4.8c-1.7-.9-3.2-1.3-4.8-1.3c-.5 0-.9 0-1.3 0c-.4 .1-.9 .2-1.6 .3c.9-2.2 2-3.9 3.2-5c1.2-1 2.6-1.6 4.2-1.6Zm-46.8-12.9l1.6 9.5c.6 3.6 1 6.8 1.2 9.4c.2 2.1 .3 4 .3 5.9c0 1.6-.2 3.1-.6 4.4c-.3 1.3-1.1 3.1-2.1 5.3l-1.6-.7c.4-2.3 .6-4.1 .6-5.5c0-1.1-.1-2.8-.3-4.9c-.1-2.1-.4-4.2-.6-6.2c-.3-2.1-.8-4.6-1.4-7.4c-.2-1-.3-1.7-.3-2.1c0-.5 .3-1.5 .9-2.8c.5-1.4 1.3-3 2.3-4.9Zm124.6-2.1l1.2 .6c0 .2 0 .4-.1 .9c0 .6 .4 1.2 1.1 1.7c.7 .5 1.7 1.1 3.2 1.7c-.2 1.1-.4 2.2-.7 3.3c-.3 1.1-.7 2.1-1.1 3l-1-.4l3 16.6h9.6l-3.3-18.2l-1.7-1.1c0-1.1 .2-2.2 .5-3.2c.4-1.4 1.1-3 2.1-4.9l1.2 .6c0 .2 0 .4-.1 .9c0 .6 .4 1.2 1.2 1.7c.6 .5 1.7 1.1 3.1 1.7c-.1 1.1-.4 2.2-.7 3.3c-.3 1.1-.7 2.1-1.1 3l-.9-.4l2.9 16.6h3.4c1.6 0 2.9-.2 3.8-.6c1.2-.5 2.1-1.3 2.6-2.6c1-2.3 2.3-4.1 3.9-5.6c1.4-1.3 2.6-2 3.6-2c.9 0 2 1.4 3.4 4.2c1.4 2.9 2.1 5.6 2.1 8v5.9c-1.9 0-4.1-.4-6.7-1.1c-2.2-.7-4.2-1.4-5.9-2.3c-1 1.6-2.3 2.6-3.8 3.1c-.7 .2-1.7 .3-3 .3H587.2c-.7 0-1.2 .1-1.6 .2c-.4 .1-.6 .2-.6 .4c0 .2 .4 .4 1.3 .7c.9 .4 1.3 .9 1.3 1.6c0 1-.1 2.2-.4 3.6c-.3 1.3-.7 2.6-1.3 3.7c-.3 .9-1.4 1.8-3.3 3c-1.9 1.1-4.1 2.1-6.5 2.9c-2.8 .9-5.5 1.4-8 1.4c-2.9 0-5.1-.7-6.6-2.1c-1.5-1.3-2.2-3.3-2.2-5.8c0-2.9 .3-5.3 1-7.4c.8-2.5 2.5-5.8 5-9.8l1.5 1.1c-1.7 2.9-2.8 5.1-3.4 6.8c-.7 1.8-1 3.4-1 5.1c0 1.6 .6 2.9 1.6 3.9c1.1 .9 2.5 1.4 4.4 1.4c2.3 0 4.7-.4 7.3-1.1c2.4-.6 4.4-1.3 6.1-2.2c1.7-.9 2.5-1.7 2.5-2.2c0-.2-.5-.3-1.5-.3c-1-.1-1.9-.1-2.7-.1c-1.9 0-3.1-.1-3.6-.2c-.6-.2-.9-.5-.9-1c0-1 .2-2 .6-3.1c.3-1 .7-1.9 1.2-2.4c1.2-1.5 2.6-2.7 4.2-3.7c1.8-1.1 3.4-1.7 4.9-1.7h19.6l-3.3-18.2l-1.7-1.1c0-1.1 .1-2.2 .5-3.2c.4-1.4 1.1-3 2.1-4.9Z" class="g0_47"/>
<path d="M527.5 331.9l6.3 3.4l-3.2 6l-6.3-3.3Zm109-14.3c-.7 0-1.3 .8-1.8 2.5c.9 .3 1.6 .6 2.1 .7c1.5 .6 2.3 .9 2.5 .9c.4 0 .5-.2 .5-.4c0-.4-.3-1.1-1.1-2.1c-.9-1-1.6-1.6-2.2-1.6Zm-173.3-4c1.2 0 2.5 .7 4 2.1c1.4 1.3 3.2 3.5 5.1 6.4v7.3h-3.5c-3.3 0-6.2 .3-8.7 .8c-2.5 .6-3.8 1.2-3.8 1.9c.7 2.2 1.3 4.2 1.9 6.1c.5 1.9 .8 3.6 .8 5.3c0 1.2-.1 2.2-.4 3c-.2 .7-.7 1.5-1.3 2.4c-.2-2.3-.7-4.8-1.3-7.4c-.3-.9-.9-2.8-1.8-5.8c-.6-1.8-.8-3-.8-3.6c0-.8 .2-1.9 .7-3.1c.3-1 .8-1.9 1.2-2.7c.6-.9 1.6-1.6 3-2.1c1.5-.6 3.6-1 6.5-1.3c-1.4-2-2.6-3-3.7-3c-.5 0-.9 .2-1.3 .5c-.4 .4-1.1 1.2-2 2.4l-1.3-.7c.7-2.7 1.7-4.8 2.9-6.3c1.1-1.5 2.4-2.2 3.8-2.2Zm62.7-3.9c1.1 0 2.3 .3 3.4 .9c1.1 .6 2.3 1.5 3.6 2.8c1.1 1 2.6 2.5 4.6 4.7c1.4 1.5 2.4 2.4 3.1 2.9c.7 .4 1.8 .8 3.2 1.1v7.3H508v.6c0 1.1-.7 2.6-1.9 4.4c-1.3 1.8-2.7 3.3-4.4 4.7c-1.9 1.4-3.5 2.2-4.8 2.2c-1.6 0-3.3-.5-5.1-1.4c-1.5-.7-4-2.3-7.3-4.6l1.1-1.7c1.6 1.1 2.9 1.8 3.9 2.2c1 .4 2 .6 3.2 .6c1.2 0 2.4-.4 3.7-1.1c1.2-.7 2.9-2 5-3.9c3-2.6 4.5-4.7 4.5-6.1c0-.7-.3-1.6-.9-2.8c-.6-1.3-1.4-2.4-2.3-3.3l1.5-7.3c1.2 1.3 2.1 2.7 2.8 4.4c.7 1.6 1 3.4 1 5.5v.3h24.2c-2.2-2.2-4.2-3.8-6-4.8c-1.7-.9-3.2-1.3-4.8-1.3c-.5 0-.9 0-1.3 0c-.4 .1-.9 .2-1.6 .3c.9-2.2 2-3.9 3.2-5c1.2-1 2.6-1.6 4.2-1.6Zm-46.8-12.9l1.6 9.5c.6 3.6 1 6.8 1.2 9.4c.2 2.1 .3 4 .3 5.9c0 1.6-.2 3.1-.6 4.4c-.3 1.3-1.1 3.1-2.1 5.3l-1.6-.7c.4-2.3 .6-4.1 .6-5.5c0-1.1-.1-2.8-.3-4.9c-.1-2.1-.4-4.2-.6-6.2c-.3-2.1-.8-4.6-1.4-7.4c-.2-1-.3-1.7-.3-2.1c0-.5 .3-1.5 .9-2.8c.5-1.4 1.3-3 2.3-4.9Zm124.6-2.1l1.2 .6c0 .2 0 .4-.1 .9c0 .6 .4 1.2 1.1 1.7c.7 .5 1.7 1.1 3.2 1.7c-.2 1.1-.4 2.2-.7 3.3c-.3 1.1-.7 2.1-1.1 3l-1-.4l3 16.6h9.6l-3.3-18.2l-1.7-1.1c0-1.1 .2-2.2 .5-3.2c.4-1.4 1.1-3 2.1-4.9l1.2 .6c0 .2 0 .4-.1 .9c0 .6 .4 1.2 1.2 1.7c.6 .5 1.7 1.1 3.1 1.7c-.1 1.1-.4 2.2-.7 3.3c-.3 1.1-.7 2.1-1.1 3l-.9-.4l2.9 16.6h3.4c1.6 0 2.9-.2 3.8-.6c1.2-.5 2.1-1.3 2.6-2.6c1-2.3 2.3-4.1 3.9-5.6c1.4-1.3 2.6-2 3.6-2c.9 0 2 1.4 3.4 4.2c1.4 2.9 2.1 5.6 2.1 8v5.9c-1.9 0-4.1-.4-6.7-1.1c-2.2-.7-4.2-1.4-5.9-2.3c-1 1.6-2.3 2.6-3.8 3.1c-.7 .2-1.7 .3-3 .3H587.2c-.7 0-1.2 .1-1.6 .2c-.4 .1-.6 .2-.6 .4c0 .2 .4 .4 1.3 .7c.9 .4 1.3 .9 1.3 1.6c0 1-.1 2.2-.4 3.6c-.3 1.3-.7 2.6-1.3 3.7c-.3 .9-1.4 1.8-3.3 3c-1.9 1.1-4.1 2.1-6.5 2.9c-2.8 .9-5.5 1.4-8 1.4c-2.9 0-5.1-.7-6.6-2.1c-1.5-1.3-2.2-3.3-2.2-5.8c0-2.9 .3-5.3 1-7.4c.8-2.5 2.5-5.8 5-9.8l1.5 1.1c-1.7 2.9-2.8 5.1-3.4 6.8c-.7 1.8-1 3.4-1 5.1c0 1.6 .6 2.9 1.6 3.9c1.1 .9 2.5 1.4 4.4 1.4c2.3 0 4.7-.4 7.3-1.1c2.4-.6 4.4-1.3 6.1-2.2c1.7-.9 2.5-1.7 2.5-2.2c0-.2-.5-.3-1.5-.3c-1-.1-1.9-.1-2.7-.1c-1.9 0-3.1-.1-3.6-.2c-.6-.2-.9-.5-.9-1c0-1 .2-2 .6-3.1c.3-1 .7-1.9 1.2-2.4c1.2-1.5 2.6-2.7 4.2-3.7c1.8-1.1 3.4-1.7 4.9-1.7h19.6l-3.3-18.2l-1.7-1.1c0-1.1 .1-2.2 .5-3.2c.4-1.4 1.1-3 2.1-4.9Z" class="g1_47"/>
<path fill-rule="evenodd" d="M431.7 297.2h5.7L427.5 338H422Z" class="g0_47"/>
<path d="M431.7 297.2h5.7L427.5 338H422Z" class="g1_47"/>
<path fill-rule="evenodd" d="M389.2 312.2c1.6 1.3 2.8 2.2 3.4 2.8c.8 .6 1.9 1.4 3.4 2.4c-.6 2.4-.9 3.8-1.1 4.3c-.2 .9-.5 2.4-.8 4.3c-1.8-1-3.1-1.7-3.9-2.3c-.9-.6-2-1.5-3.5-2.7c.5-2.3 .9-3.7 1.1-4.4c.3-1.1 .8-2.6 1.4-4.4Zm-30.8 0c1.6 1.3 2.8 2.2 3.4 2.8c.8 .6 1.9 1.4 3.4 2.4c-.6 2.4-.9 3.8-1.1 4.3c-.2 .9-.5 2.4-.8 4.3c-1.8-1-3.1-1.7-3.9-2.3c-.9-.6-2-1.5-3.5-2.7c.5-2.3 .9-3.7 1.1-4.4c.3-1.1 .8-2.6 1.4-4.4ZM327 297.8c1.5 1.9 2.6 3.4 3.2 4.5c.8 1.2 1.5 2.8 2.1 4.6c.7 1.8 1.2 3.8 1.5 5.8c.4 2 .6 4.1 .6 6.2c0 2.4-.4 5.8-1.1 10.3h-1.7c0-3-.1-5.4-.4-7c-.3-1.7-.8-3.6-1.6-5.9c-.7-1.9-1.4-3.6-2.2-4.9c-.8-1.4-2-3.2-3.8-5.4Z" class="g0_47"/>
<path d="M389.2 312.2c1.6 1.3 2.8 2.2 3.4 2.8c.8 .6 1.9 1.4 3.4 2.4c-.6 2.4-.9 3.8-1.1 4.3c-.2 .9-.5 2.4-.8 4.3c-1.8-1-3.1-1.7-3.9-2.3c-.9-.6-2-1.5-3.5-2.7c.5-2.3 .9-3.7 1.1-4.4c.3-1.1 .8-2.6 1.4-4.4Zm-30.8 0c1.6 1.3 2.8 2.2 3.4 2.8c.8 .6 1.9 1.4 3.4 2.4c-.6 2.4-.9 3.8-1.1 4.3c-.2 .9-.5 2.4-.8 4.3c-1.8-1-3.1-1.7-3.9-2.3c-.9-.6-2-1.5-3.5-2.7c.5-2.3 .9-3.7 1.1-4.4c.3-1.1 .8-2.6 1.4-4.4ZM327 297.8c1.5 1.9 2.6 3.4 3.2 4.5c.8 1.2 1.5 2.8 2.1 4.6c.7 1.8 1.2 3.8 1.5 5.8c.4 2 .6 4.1 .6 6.2c0 2.4-.4 5.8-1.1 10.3h-1.7c0-3-.1-5.4-.4-7c-.3-1.7-.8-3.6-1.6-5.9c-.7-1.9-1.4-3.6-2.2-4.9c-.8-1.4-2-3.2-3.8-5.4Z" class="g1_47"/>
<path fill-rule="evenodd" d="M297.8 312.8c.5 1.1 .8 2.1 1 3c.2 .9 .3 2.1 .3 3.5v10.1c-2 0-3.7-.1-5-.4c-1.3-.3-2.6-.8-3.9-1.4c-1 .8-2 1.2-2.8 1.5c-.8 .2-2 .3-3.6 .3h-4.4c-1.2 0-2.2-.3-2.9-.9c-.7-.6-1.3-1.7-1.9-3.1c-.6 .9-1.2 1.7-1.9 2.3l-.2 .1v1.6H255.2c-3.3 0-6.2 .3-8.7 .8c-2.5 .6-3.8 1.2-3.8 1.9c.7 2.2 1.3 4.2 1.9 6.1c.5 1.9 .8 3.6 .8 5.3c0 1.2-.1 2.2-.4 3c-.2 .7-.6 1.5-1.3 2.4c-.2-2.3-.6-4.8-1.3-7.4c-.3-.9-.8-2.8-1.8-5.8c-.5-1.8-.8-3-.8-3.6c0-.8 .2-1.9 .7-3.1c.3-1 .8-1.9 1.3-2.7c.5-.9 1.5-1.6 2.9-2.1c1.5-.6 3.6-1 6.6-1.3c-1.5-2-2.7-3-3.8-3c-.5 0-.9 .2-1.3 .5c-.4 .4-1.1 1.2-2 2.4l-1.3-.7c.8-2.7 1.7-4.8 2.9-6.3c1.2-1.5 2.4-2.2 3.8-2.2c1.2 0 2.5 .7 4 2.1c1.5 1.3 3.2 3.5 5.1 6.4h8.9c1.9 0 3.5-.5 4.7-1.6c1.6-1.3 2.5-3.4 2.5-6.3l1.7 .3c0 .6 0 1.2-.1 2c0 .7 0 1.5 0 2.4c0 .9 .3 1.7 .9 2.3c.6 .6 1.4 .9 2.2 .9h3.3c2.1 0 3.7-.3 4.6-.9c1.2-.7 1.7-2.1 1.7-4.1c0-.4 .2-.8 .4-1.2c.2-.2 .5-.5 1-.8l1-.9c.1 .4 .1 .8 .1 1.4c0 .6 .1 1 .1 1.2c0 1-.2 2.3-.5 3.9c.7 .3 1.4 .6 2.2 .8c.9 .3 1.7 .4 2.7 .6c0-.6-.3-1.4-.7-2.4c-.5-1-.7-1.6-.7-2c0-.4 .1-.8 .2-1c0-.1 .2-.4 .6-.9Z" class="g0_47"/>
<path d="M297.8 312.8c.5 1.1 .8 2.1 1 3c.2 .9 .3 2.1 .3 3.5v10.1c-2 0-3.7-.1-5-.4c-1.3-.3-2.6-.8-3.9-1.4c-1 .8-2 1.2-2.8 1.5c-.8 .2-2 .3-3.6 .3h-4.4c-1.2 0-2.2-.3-2.9-.9c-.7-.6-1.3-1.7-1.9-3.1c-.6 .9-1.2 1.7-1.9 2.3l-.2 .1v1.6H255.2c-3.3 0-6.2 .3-8.7 .8c-2.5 .6-3.8 1.2-3.8 1.9c.7 2.2 1.3 4.2 1.9 6.1c.5 1.9 .8 3.6 .8 5.3c0 1.2-.1 2.2-.4 3c-.2 .7-.6 1.5-1.3 2.4c-.2-2.3-.6-4.8-1.3-7.4c-.3-.9-.8-2.8-1.8-5.8c-.5-1.8-.8-3-.8-3.6c0-.8 .2-1.9 .7-3.1c.3-1 .8-1.9 1.3-2.7c.5-.9 1.5-1.6 2.9-2.1c1.5-.6 3.6-1 6.6-1.3c-1.5-2-2.7-3-3.8-3c-.5 0-.9 .2-1.3 .5c-.4 .4-1.1 1.2-2 2.4l-1.3-.7c.8-2.7 1.7-4.8 2.9-6.3c1.2-1.5 2.4-2.2 3.8-2.2c1.2 0 2.5 .7 4 2.1c1.5 1.3 3.2 3.5 5.1 6.4h8.9c1.9 0 3.5-.5 4.7-1.6c1.6-1.3 2.5-3.4 2.5-6.3l1.7 .3c0 .6 0 1.2-.1 2c0 .7 0 1.5 0 2.4c0 .9 .3 1.7 .9 2.3c.6 .6 1.4 .9 2.2 .9h3.3c2.1 0 3.7-.3 4.6-.9c1.2-.7 1.7-2.1 1.7-4.1c0-.4 .2-.8 .4-1.2c.2-.2 .5-.5 1-.8l1-.9c.1 .4 .1 .8 .1 1.4c0 .6 .1 1 .1 1.2c0 1-.2 2.3-.5 3.9c.7 .3 1.4 .6 2.2 .8c.9 .3 1.7 .4 2.7 .6c0-.6-.3-1.4-.7-2.4c-.5-1-.7-1.6-.7-2c0-.4 .1-.8 .2-1c0-.1 .2-.4 .6-.9Z" class="g1_47"/>
<path fill-rule="evenodd" d="M215.2 298.1c1.1 1.9 2.1 3.3 3.1 4.1c1 .9 2.1 1.3 3.4 1.3c1.3 0 2.3-.5 3.1-1.5c.7-.9 1.1-2.2 1.1-3.9h1.3c.1 1.4 .4 2.5 .9 3.1c.4 .6 1.1 .9 2 .9c1.7 0 2.7-1.4 3-4h1.1c.1 .4 .1 1 .2 1.7c0 .7 0 1.4 0 1.9c0 6.4-1.8 9.6-5.4 9.6c-.8 0-1.5-.2-1.9-.4c-.5-.3-1-.8-1.7-1.6c-.7 1-1.2 1.6-1.7 1.9c-.5 .3-1.3 .6-2.3 .8c.4 1.7 .8 3.1 .9 4.2c.2 1.1 .3 2.3 .3 3.5c0 1.6-.1 3-.3 4.3c-.2 1.3-.7 3.1-1.3 5.4h-1.5c0-2.7 0-4.8-.1-6.1c-.2-1.4-.5-3-.9-4.7c-.6-2.3-1.3-4.3-2-6c-.8-1.6-2.1-3.7-4-6.3Z" class="g0_47"/>
<path d="M215.2 298.1c1.1 1.9 2.1 3.3 3.1 4.1c1 .9 2.1 1.3 3.4 1.3c1.3 0 2.3-.5 3.1-1.5c.7-.9 1.1-2.2 1.1-3.9h1.3c.1 1.4 .4 2.5 .9 3.1c.4 .6 1.1 .9 2 .9c1.7 0 2.7-1.4 3-4h1.1c.1 .4 .1 1 .2 1.7c0 .7 0 1.4 0 1.9c0 6.4-1.8 9.6-5.4 9.6c-.8 0-1.5-.2-1.9-.4c-.5-.3-1-.8-1.7-1.6c-.7 1-1.2 1.6-1.7 1.9c-.5 .3-1.3 .6-2.3 .8c.4 1.7 .8 3.1 .9 4.2c.2 1.1 .3 2.3 .3 3.5c0 1.6-.1 3-.3 4.3c-.2 1.3-.7 3.1-1.3 5.4h-1.5c0-2.7 0-4.8-.1-6.1c-.2-1.4-.5-3-.9-4.7c-.6-2.3-1.3-4.3-2-6c-.8-1.6-2.1-3.7-4-6.3Z" class="g1_47"/>
<path fill-rule="evenodd" d="M184.4 317.6c-.7 0-1.3 .8-1.8 2.5c.9 .3 1.6 .6 2.1 .7c1.5 .6 2.3 .9 2.5 .9c.4 0 .5-.2 .5-.4c0-.4-.3-1.1-1.1-2.1c-.9-1-1.6-1.6-2.2-1.6Zm-126-4c1.2 0 2.5 .7 4 2.1c1.5 1.3 3.2 3.5 5.1 6.4v7.3H64c-3.3 0-6.2 .3-8.7 .8c-2.5 .6-3.8 1.2-3.8 1.9c.7 2.2 1.3 4.2 1.9 6.1c.5 1.9 .8 3.6 .8 5.3c0 1.2-.1 2.2-.4 3c-.2 .7-.7 1.5-1.3 2.4c-.2-2.3-.7-4.8-1.3-7.4c-.3-.9-.9-2.8-1.8-5.8c-.6-1.8-.8-3-.8-3.6c0-.8 .2-1.9 .7-3.1c.3-1 .8-1.9 1.2-2.7c.6-.9 1.6-1.6 3-2.1c1.5-.6 3.6-1 6.5-1.3c-1.4-2-2.6-3-3.7-3c-.5 0-.9 .2-1.3 .5c-.4 .4-1.1 1.2-2 2.4l-1.3-.7c.8-2.7 1.7-4.8 2.9-6.3c1.1-1.5 2.4-2.2 3.8-2.2Zm128.9-2.3c.9 0 2 1.4 3.4 4.2c1.4 2.9 2.1 5.6 2.1 8v5.9c-1.9 0-4.1-.4-6.7-1.1c-2.2-.7-4.2-1.4-5.9-2.3c-.9 1.4-2 2.3-3.3 2.9h-.1v.5H163v.5c-.1 1.6-.3 3-.7 4.1c-.5 1.5-1.3 2.8-2.4 3.7c-1.1 .9-2.7 1.6-4.8 2.2c-2.1 .6-4.3 .9-6.6 .9c-4.3 0-7.7-.8-10-2.4c-2.4-1.6-3.6-3.8-3.6-6.8c0-2.4 .4-4.7 1.2-6.8c.8-2.2 2.4-5.2 4.8-8.8l1.6 1.1c-1.8 3-2.9 5.2-3.5 6.6c-.5 1.3-.8 2.7-.8 4.2c0 1.9 1 3.4 3 4.6c2.1 1.2 4.7 1.8 8 1.8c3.2 0 5.9-.6 8.1-1.9c2.2-1.2 3.3-2.7 3.3-4.5c0-1.1-.2-2.2-.5-3.3c-.4-1.1-1.3-2.8-2.5-5.2l2.3-7.3c1.3 2.3 2 3.8 2.3 4.7c.5 1.4 .8 3 .8 5.1v.2h10.4c1.6 0 2.9-.2 3.8-.6c1.2-.5 2.1-1.3 2.6-2.6c1-2.3 2.3-4.1 3.9-5.6c1.4-1.3 2.6-2 3.6-2Zm-39.4-7.7l6.3 3.4l-3.2 6l-6.3-3.3ZM113 296.8l1.6 9.5c.6 3.6 1 6.8 1.2 9.4c.2 2.1 .3 4 .3 5.9c0 1.6-.2 3.1-.6 4.4c-.4 1.3-1.1 3.1-2.2 5.3l-1.6-.7c.5-2.3 .7-4.1 .7-5.5c0-1.1-.1-2.8-.3-4.9c-.2-2.1-.4-4.2-.7-6.2c-.2-2.1-.7-4.6-1.3-7.4c-.2-1-.3-1.7-.3-2.1c0-.5 .3-1.5 .8-2.8c.6-1.4 1.4-3 2.4-4.9Zm-12.4-2.1l1.2 .6c0 .2 0 .4-.1 .9c0 .6 .4 1.2 1.2 1.7c.6 .5 1.7 1.1 3.1 1.7c-.1 1.1-.4 2.2-.7 3.3c-.3 1.1-.7 2.1-1.1 3l-.9-.4l2.9 16.6v7.3h-32c-1.2 0-2.1-.2-2.8-.7c-.7-.6-1.1-1.6-1.1-3c0-.8 0-1.6 .1-2.6c.1-.9 .2-1.8 .4-2.7l1-.1c.1 .6 .5 1.1 .9 1.4c.5 .3 1.1 .4 1.8 .4h9.3c-.4-2.6-1.2-4.7-2.2-6.3c-.8-1.3-2-2.4-3.5-3.4L80 304c2.4 1.8 4 4 5 6.7c.9 2.6 1.3 5.9 1.3 10.1v1.3H103l-3.3-18.2L98 302.8c0-1.1 .2-2.2 .5-3.2c.4-1.4 1.1-3 2.1-4.9Z" class="g0_47"/>
<path d="M184.4 317.6c-.7 0-1.3 .8-1.8 2.5c.9 .3 1.6 .6 2.1 .7c1.5 .6 2.3 .9 2.5 .9c.4 0 .5-.2 .5-.4c0-.4-.3-1.1-1.1-2.1c-.9-1-1.6-1.6-2.2-1.6Zm-126-4c1.2 0 2.5 .7 4 2.1c1.5 1.3 3.2 3.5 5.1 6.4v7.3H64c-3.3 0-6.2 .3-8.7 .8c-2.5 .6-3.8 1.2-3.8 1.9c.7 2.2 1.3 4.2 1.9 6.1c.5 1.9 .8 3.6 .8 5.3c0 1.2-.1 2.2-.4 3c-.2 .7-.7 1.5-1.3 2.4c-.2-2.3-.7-4.8-1.3-7.4c-.3-.9-.9-2.8-1.8-5.8c-.6-1.8-.8-3-.8-3.6c0-.8 .2-1.9 .7-3.1c.3-1 .8-1.9 1.2-2.7c.6-.9 1.6-1.6 3-2.1c1.5-.6 3.6-1 6.5-1.3c-1.4-2-2.6-3-3.7-3c-.5 0-.9 .2-1.3 .5c-.4 .4-1.1 1.2-2 2.4l-1.3-.7c.8-2.7 1.7-4.8 2.9-6.3c1.1-1.5 2.4-2.2 3.8-2.2Zm128.9-2.3c.9 0 2 1.4 3.4 4.2c1.4 2.9 2.1 5.6 2.1 8v5.9c-1.9 0-4.1-.4-6.7-1.1c-2.2-.7-4.2-1.4-5.9-2.3c-.9 1.4-2 2.3-3.3 2.9h-.1v.5H163v.5c-.1 1.6-.3 3-.7 4.1c-.5 1.5-1.3 2.8-2.4 3.7c-1.1 .9-2.7 1.6-4.8 2.2c-2.1 .6-4.3 .9-6.6 .9c-4.3 0-7.7-.8-10-2.4c-2.4-1.6-3.6-3.8-3.6-6.8c0-2.4 .4-4.7 1.2-6.8c.8-2.2 2.4-5.2 4.8-8.8l1.6 1.1c-1.8 3-2.9 5.2-3.5 6.6c-.5 1.3-.8 2.7-.8 4.2c0 1.9 1 3.4 3 4.6c2.1 1.2 4.7 1.8 8 1.8c3.2 0 5.9-.6 8.1-1.9c2.2-1.2 3.3-2.7 3.3-4.5c0-1.1-.2-2.2-.5-3.3c-.4-1.1-1.3-2.8-2.5-5.2l2.3-7.3c1.3 2.3 2 3.8 2.3 4.7c.5 1.4 .8 3 .8 5.1v.2h10.4c1.6 0 2.9-.2 3.8-.6c1.2-.5 2.1-1.3 2.6-2.6c1-2.3 2.3-4.1 3.9-5.6c1.4-1.3 2.6-2 3.6-2Zm-39.4-7.7l6.3 3.4l-3.2 6l-6.3-3.3ZM113 296.8l1.6 9.5c.6 3.6 1 6.8 1.2 9.4c.2 2.1 .3 4 .3 5.9c0 1.6-.2 3.1-.6 4.4c-.4 1.3-1.1 3.1-2.2 5.3l-1.6-.7c.5-2.3 .7-4.1 .7-5.5c0-1.1-.1-2.8-.3-4.9c-.2-2.1-.4-4.2-.7-6.2c-.2-2.1-.7-4.6-1.3-7.4c-.2-1-.3-1.7-.3-2.1c0-.5 .3-1.5 .8-2.8c.6-1.4 1.4-3 2.4-4.9Zm-12.4-2.1l1.2 .6c0 .2 0 .4-.1 .9c0 .6 .4 1.2 1.2 1.7c.6 .5 1.7 1.1 3.1 1.7c-.1 1.1-.4 2.2-.7 3.3c-.3 1.1-.7 2.1-1.1 3l-.9-.4l2.9 16.6v7.3h-32c-1.2 0-2.1-.2-2.8-.7c-.7-.6-1.1-1.6-1.1-3c0-.8 0-1.6 .1-2.6c.1-.9 .2-1.8 .4-2.7l1-.1c.1 .6 .5 1.1 .9 1.4c.5 .3 1.1 .4 1.8 .4h9.3c-.4-2.6-1.2-4.7-2.2-6.3c-.8-1.3-2-2.4-3.5-3.4L80 304c2.4 1.8 4 4 5 6.7c.9 2.6 1.3 5.9 1.3 10.1v1.3H103l-3.3-18.2L98 302.8c0-1.1 .2-2.2 .5-3.2c.4-1.4 1.1-3 2.1-4.9Z" class="g1_47"/>
<path fill-rule="evenodd" d="M1444.2 394.1h7.6v7.5h-7.6Zm-15.2 0h7.5v7.5H1429Zm-15.2 0h7.5v7.5h-7.5Z" class="g0_47"/>
<path d="M1444.2 394.1h7.6v7.5h-7.6Zm-15.2 0h7.5v7.5H1429Zm-15.2 0h7.5v7.5h-7.5Z" class="g1_47"/>
<path fill-rule="evenodd" d="M544.9 407.7l3.3 2.1l-2.6 3l-2.8-1.8l-2.1 2.3l-3.4-1.9l2.5-3.2l3 1.9ZM845.1 396l6.2 3.4l-3.2 6l-6.3-3.3Zm-107.6 0l6.2 3.4l-3.2 6l-6.3-3.3Zm563.6-1.8c.3 1.6 1.1 3 2.5 4.1c1.3 1.2 2.8 1.8 4.4 1.8c.5 0 .8-.2 .8-.6c0-1-.6-2-1.8-2.9c-1.3-1-3.3-1.8-5.9-2.4Zm-877.5-6.8c.9 0 1.7 .4 2.3 1c.6 .7 .9 1.5 .9 2.4c0 .9-.3 1.7-.9 2.3c-.7 .7-1.5 1-2.4 1c-.9 0-1.7-.3-2.3-1c-.6-.6-1-1.4-1-2.3c0-.9 .4-1.7 1-2.4c.7-.6 1.5-1 2.4-1Zm817.2-5.3c-.5 0-1 .3-1.3 .7c-.3 .4-.5 .9-.5 1.4c0 .7 .3 1.2 1.1 1.6c.7 .5 1.6 .7 2.7 .7h1.1c-.5-2.9-1.5-4.4-3.1-4.4Zm-132.7 0c-.6 0-1 .3-1.3 .7c-.4 .4-.6 .9-.6 1.4c0 .7 .4 1.2 1.1 1.6c.7 .5 1.7 .7 2.8 .7h1c-.5-2.9-1.5-4.4-3-4.4Zm277.8-.1c-.7 0-1.2 .8-1.7 2.4c.9 .4 1.6 .6 2.1 .8c1.4 .5 2.3 .8 2.4 .8c.4 0 .6-.1 .6-.4c0-.4-.4-1-1.1-2c-.9-1.1-1.6-1.6-2.3-1.6Zm-124.4 0c-.7 0-1.3 .8-1.8 2.4c.9 .4 1.6 .6 2.1 .8c1.5 .5 2.3 .8 2.5 .8c.3 0 .5-.1 .5-.4c0-.4-.3-1-1.1-2c-.9-1.1-1.6-1.6-2.2-1.6Zm-117.9 0c-.7 0-1.3 .8-1.8 2.4c.9 .4 1.6 .6 2.1 .8c1.5 .5 2.3 .8 2.5 .8c.4 0 .5-.1 .5-.4c0-.4-.3-1-1.1-2c-.9-1.1-1.6-1.6-2.2-1.6Zm-256.4-.8c-1.2 0-2.5 .3-4 1.1c-1.5 .7-3.6 2.2-6.4 4.2h7c5.9 0 8.8-1 8.8-2.8c0-.8-.6-1.4-1.9-1.9c-1-.5-2.2-.6-3.5-.6Zm-57.3 0c-1.2 0-2.5 .3-4 1.1c-1.4 .7-3.6 2.2-6.4 4.2h7c5.9 0 8.9-1 8.9-2.8c0-.6-.7-1.2-2-1.7c-1.3-.6-2.5-.8-3.5-.8Zm101.7-.2c-1.2 1.8-1.7 3.3-1.7 4.5c0 .5 .2 1 .7 1.5c.4 .4 1 .6 1.7 .6c.9 0 1.9-.2 3.1-.7c1.1-.4 1.7-.7 1.7-1c0-.4-.6-1.1-1.9-2.2c-1.2-1.1-2.4-2-3.6-2.7Zm374.5-2.2c-.5 0-1 .5-1.6 1.5c-.7 1-1.4 2.6-2.3 4.7c2.1-.7 3.5-1.3 4.3-1.8c.8-.5 1.1-1.1 1.1-1.7c0-.5-.1-1-.5-1.7c-.3-.7-.7-1-1-1ZM459.5 378c1.2 0 2.5 .6 4 2c1.5 1.4 3.2 3.5 5.1 6.5v7.3l-3.5-.1c-3.3 0-6.2 .3-8.7 .9c-2.5 .5-3.8 1.2-3.8 1.9c.7 2.1 1.4 4.1 1.9 6c.5 1.9 .8 3.7 .8 5.4c0 1.2-.1 2.2-.3 2.9c-.3 .8-.7 1.6-1.4 2.5c-.2-2.4-.6-4.8-1.3-7.4c-.2-1-.8-2.9-1.8-5.8c-.5-1.8-.8-3-.8-3.6c0-.9 .2-1.9 .7-3.2c.4-1 .8-1.9 1.3-2.7c.6-.9 1.5-1.6 3-2.1c1.4-.5 3.6-.9 6.5-1.3c-1.4-2-2.7-3-3.8-3c-.4 0-.9 .2-1.3 .6c-.4 .3-1.1 1.1-2 2.3l-1.3-.6c.8-2.8 1.8-4.9 2.9-6.3c1.2-1.5 2.4-2.2 3.8-2.2Zm759.7-1.6c1.3 2.3 2 3.9 2.3 4.8c.6 1.5 .8 3.5 .8 5.9v5.4c0 2.4-.2 4.4-.7 5.9c-.5 1.5-1.3 2.7-2.4 3.6c-1.1 .9-2.7 1.7-4.8 2.3c-2.1 .5-4.3 .8-6.6 .8c-4.3 0-7.7-.8-10-2.3c-2.4-1.6-3.6-3.9-3.6-6.8c0-2.5 .4-4.8 1.2-6.8c.8-2.3 2.4-5.3 4.8-8.9l1.6 1.1c-1.7 3.1-2.9 5.3-3.5 6.6c-.5 1.4-.8 2.8-.8 4.2c0 1.9 1 3.4 3 4.6c2.1 1.2 4.7 1.8 8 1.8c3.2 0 5.9-.6 8.1-1.8c2.2-1.3 3.3-2.8 3.3-4.6c0-1.1-.2-2.2-.5-3.3c-.4-1.1-1.3-2.8-2.5-5.2Zm-256-.1c1.3 1.2 2.2 2.7 2.8 4.3c.7 1.6 1 3.5 1 5.6v8.2c0 1.1-.6 2.5-1.8 4.3c-1.3 1.8-2.8 3.4-4.4 4.7c-1.9 1.5-3.5 2.2-4.8 2.2c-1.6 0-3.3-.4-5.1-1.3c-1.6-.8-4-2.3-7.4-4.6l1.1-1.7c1.7 1.1 3 1.8 3.9 2.2c1 .3 2.1 .5 3.2 .5c1.3 0 2.5-.3 3.7-1c1.3-.7 3-2 5.1-3.9c3-2.7 4.4-4.7 4.4-6.1c0-.8-.2-1.7-.8-2.9c-.7-1.3-1.4-2.4-2.4-3.3Zm-242.8-.9c-.5 .3-1 .5-1.3 .6c-1 .5-1.8 1-2.4 1.5c-.4 .3-.8 .7-1.1 1c-.3 .4-.5 .6-.5 .8c0 .3 .3 .5 1 .6c.6 .2 1.2 .3 1.8 .3c.4 0 .8-.1 1.2-.4c.5-.2 1.1-.6 1.9-1.2Zm521.5-.4c1.5 0 2.7 1 3.7 2.9c1 2 1.5 4.3 1.5 7.1v1.5h3.4c1.6 0 2.9-.2 3.8-.6c1.2-.5 2.1-1.4 2.5-2.6c1.1-2.3 2.4-4.2 4-5.6c1.4-1.3 2.6-2 3.6-2c.9 0 2 1.4 3.3 4.1c1.5 3 2.2 5.6 2.2 8.1v5.8c-1.9 0-4.1-.3-6.7-1.1c-2.2-.6-4.2-1.4-5.9-2.2c-1 1.5-2.3 2.5-3.8 3c-.8 .3-1.8 .4-3 .4h-3.8l-.6 2.7c-.6 1.5-1.6 3-2.9 4.6c-2.6 3-5.2 4.5-7.8 4.5c-1.4 0-3.1-.5-4.8-1.5c-1.8-.9-4.5-2.8-8.1-5.6l1.1-1.5c1.9 1.3 3.5 2.1 4.7 2.5c1 .4 2.2 .6 3.5 .6c1.7 0 3.4-.5 5.2-1.5c2-1.1 4-3 6.2-5.5c-.8 .1-1.4 .2-1.9 .2c-1.8 0-3.2-.6-4.2-1.8c-1.1-1.1-1.6-2.7-1.6-4.7c0-2.7 .6-5.3 1.8-7.7c1.4-2.7 2.9-4.1 4.6-4.1Zm-160.6-1.6c-.5 0-1 .3-1.4 .8c-.4 .5-.7 1-.7 1.7c0 .4 .2 .7 .5 1c.4 .3 .8 .4 1.3 .4c.4 0 .8-.1 1.2-.4c.5-.2 1-.6 1.6-1.2c-.5-.8-.9-1.4-1.3-1.8c-.3-.3-.7-.5-1.2-.5Zm-70 0c-.5 0-1 .3-1.5 .8c-.4 .5-.6 1-.6 1.7c0 .4 .2 .7 .5 1c.3 .3 .8 .4 1.3 .4c.4 0 .8-.1 1.2-.4c.4-.2 1-.6 1.6-1.2c-.5-.8-.9-1.4-1.3-1.8c-.4-.3-.8-.5-1.2-.5Zm-443.5 0c-.5 0-1 .3-1.4 .8c-.5 .5-.7 1-.7 1.7c0 .4 .2 .7 .5 1c.3 .3 .8 .4 1.3 .4c.4 0 .8-.1 1.2-.4c.5-.2 1-.6 1.6-1.2c-.5-.8-.9-1.4-1.3-1.8c-.4-.3-.8-.5-1.2-.5Zm363.5-.3l2.6 1.6c1.2 .7 2.3 1.4 3.3 2.2c1.5 1.1 2.5 2.2 3 3.2c.6 .9 .9 2.2 .9 3.6c0 1.1-.1 2.2-.3 3.3c-.1 1.1-.4 2-.6 2.7c-.5 1.3-1.8 2.5-3.7 3.6c-1.9 .9-3.6 1.4-5.2 1.4c-1.4 0-2.5-.5-3.3-1.4c-.9-1-1.3-2.3-1.3-3.9c0-1.5 .2-2.9 .7-4.3c.4-1.4 1.1-3.2 2.2-5.4l-.9-.6c.3-.8 .7-1.8 1.2-3c.5-1.2 1-2.2 1.4-3Zm276-5.1l6.2 3.3l-3.2 6l-6.3-3.2Zm-125.5-1.4c1.9 0 3.7 1.7 5.3 4.9c1.7 3.3 2.5 6.8 2.5 10.4v11.9H1069c-2.5 0-4.6-.5-6.1-1.5c-1.7-1.1-3.3-3.1-4.7-6c-2 1.4-3.5 2.9-4.6 4.6c-1.1 1.7-1.6 3.4-1.6 5.2c0 3.2 1.4 5.5 4.2 7.1c2.8 1.5 7.2 2.3 13.2 2.3c.9 0 1.9-.1 3-.1c1 0 1.9 0 2.8 0l.2 1.1l-9.9 6c-5.8 0-10-1.1-12.7-3.2c-2.6-2.2-3.9-5.7-3.9-10.4c0-3.2 .6-6.2 1.9-8.8c1.2-2.6 3.2-5.1 5.9-7.5c-.2-1.3-.7-2-1.5-2c-.3 0-.5 .1-.6 .3c-.2 .3-.5 .5-.6 .7l-1.3-.3c0-2.5 .5-4.5 1.6-6.1c1.3-1.9 3-2.8 5.3-2.8c2 0 3.6 .6 5 1.7c1.3 1.1 1.9 2.5 1.9 4.3c0 1-.2 2-.8 3c-.6 1-1.4 1.8-2.4 2.3c.9 1 2 1.8 3.3 2.3c.8 .3 1.7 .5 2.4 .5h18.1c0-1.6 0-2.7-.1-3.4c-.2-1-.5-1.9-.9-2.6c-.6 1.1-1.4 1.9-2.3 2.5c-1 .6-2 .9-3.1 .9c-1.4 0-2.7-.5-3.6-1.4c-1-1-1.5-2.1-1.5-3.6c0-2.1 .6-4.6 1.9-7.5c1.4-3.2 2.9-4.8 4.3-4.8Zm-70 0c1.8 0 3.6 1.7 5.3 4.9c1.7 3.3 2.5 6.8 2.5 10.4v11.9h-16.8v.6c0 1.1-.6 2.5-1.9 4.3c-1.2 1.8-2.7 3.4-4.4 4.7c-1.9 1.5-3.4 2.2-4.8 2.2c-1.5 0-3.2-.4-5-1.3c-1.6-.8-4.1-2.3-7.4-4.6l1.1-1.7c1.6 1.1 2.9 1.8 3.9 2.2c1 .3 2 .5 3.2 .5c1.2 0 2.5-.3 3.7-1c1.2-.7 2.9-2 5-3.9c3-2.7 4.5-4.7 4.5-6.1c0-.8-.3-1.7-.9-2.9c-.6-1.3-1.4-2.4-2.3-3.3l1.5-7.2c1.2 1.2 2.1 2.7 2.8 4.3c.7 1.6 1 3.5 1 5.6v.3h14.3c0-1.6-.1-2.7-.2-3.4c-.1-1-.4-1.9-.9-2.6c-.5 1.1-1.3 1.9-2.3 2.5c-.9 .6-2 .9-3 .9c-1.5 0-2.7-.5-3.7-1.4c-1-1-1.4-2.1-1.4-3.6c0-2.1 .6-4.6 1.9-7.5c1.4-3.2 2.8-4.8 4.3-4.8Zm-443.5 0c1.9 0 3.6 1.7 5.3 4.9c1.7 3.3 2.5 6.8 2.5 10.4v11.9H556.6c-.8 0-1.4 0-1.7 0c-.4 .1-.5 .2-.5 .4c.5 .3 1 .5 1.4 .6c.5 .1 .8 .3 .9 .5c.2 .1 .2 .5 .2 .9c0 1.2-.3 2.7-1 4.5c-.8 1.8-1.5 2.9-2.2 3.3c-.7 .6-2.6 1.2-5.9 1.9c-3.3 .7-6.1 1.1-8.4 1.1c-3.4 0-6.1-.7-8.2-2.1c-2.1-1.4-3.1-3.2-3.1-5.5c0-2.1 .4-4.2 1.4-6.2c1.1-2.4 3.1-5.5 6.1-9.1l1.6 1.1c-1.9 2.3-3.2 4.1-3.9 5.6c-.7 1.4-1.1 2.8-1.1 4.2c0 1.9 .8 3.3 2.4 4.2c1.6 1 4 1.4 7.3 1.4c1.8 0 4.1-.3 7.2-.9c3-.6 4.6-1.2 4.6-1.7c0-.2-.6-.4-1.8-.5c-1.2-.2-2.4-.3-3.8-.3c-2.1 0-3.1-.5-3.1-1.4c0-.4 .2-1.1 .7-2.2c.4-.7 .7-1.4 1.1-2.2c.6-1.5 1.9-2.7 3.8-3.6c1.9-.9 3.8-1.3 5.8-1.3h17.2c0-1.6-.1-2.7-.1-3.4c-.2-1-.5-1.9-.9-2.6c-.6 1.1-1.4 1.9-2.3 2.5c-1 .6-2 .9-3.1 .9c-1.5 0-2.7-.5-3.7-1.4c-.9-1-1.4-2.1-1.4-3.6c0-2.1 .6-4.6 1.9-7.5c1.4-3.2 2.8-4.8 4.3-4.8Zm391.1-3.1l6.3 3.4l-3.2 6l-6.3-3.3Zm-237.5 0l2.6 16.7c.4 2.6 1 4.4 1.6 5.3c.5 .7 1 1 1.8 1h15.9c-.2-1.3-.6-2.3-1.1-3.1c-.3-.5-.9-1.3-1.9-2.4l2.1-6.4c1.4 1.5 2.3 3.1 2.8 4.7c.4 1.5 .7 3.6 .7 6.3v.9h1.9c1.9 0 3.5-.6 4.7-1.6c1.6-1.4 2.5-3.5 2.5-6.3l1.7 .3c0 .5 0 1.2-.1 1.9c0 .8 0 1.6 0 2.5c0 .9 .3 1.6 .9 2.2c.6 .7 1.4 1 2.2 1h3.3c2.1 0 3.7-.3 4.6-1c1.2-.7 1.7-2 1.7-4.1c0-.4 .2-.8 .4-1.1c.2-.2 .5-.5 1-.9l1-.8c.1 .3 .1 .8 .1 1.4c0 .6 .1 .9 .1 1.1c0 1-.2 2.3-.5 3.9c.7 .4 1.4 .6 2.2 .9c.9 .2 1.7 .4 2.7 .5c0-.6-.3-1.4-.7-2.3c-.5-1-.7-1.7-.7-2c0-.5 .1-.8 .2-1.1c0-.1 .2-.4 .6-.8l2.3-3.1c.5 1.1 .8 2.1 1 3.1c.2 .9 .3 2 .3 3.4v2.9h12.4c-.2-1.3-.6-2.3-1.1-3.1c-.3-.5-.9-1.3-1.9-2.4l2.1-6.4c1.4 1.5 2.3 3.1 2.8 4.7c.5 1.7 .7 4.2 .7 7.5v7H778v-.1h-.9c-.9-.1-1.6-.2-2.3-.4c-1.3-.2-2.6-.7-3.9-1.3c-1 .7-2 1.2-2.8 1.4c-.8 .3-2 .4-3.6 .4h-4.4c-1.2 0-2.2-.3-2.9-1c-.7-.6-1.3-1.6-1.9-3.1c-.9 1.5-2 2.6-3.3 3.2c-1 .6-2.2 .9-3.7 .9H727.9c-.6 0-1.2-.2-1.8-.4c-1-.5-1.9-1.5-2.6-2.9c-1-1.9-1.6-4.5-1.9-7.8c-1.2 1.5-2.2 2.6-2.8 3.2c-1 .9-1.8 1.4-2.5 1.4c-.4 0-.8-.1-1.3-.2l-3.3-.6c-1.4-.3-2.2-.5-2.6-.6c-.3-.2-.4-.4-.4-.7c0-.5 .6-2 1.8-4.6c1.3-2.5 2.2-4.1 2.7-4.7c.5-.5 1.3-1.2 2.4-1.9c.7-.5 1.7-1.1 2.9-1.8l1.4-.9c0-.2-.1-.5-.1-.7c0-.3 0-.5 0-.8c0-.6 .1-1.5 .5-2.5c.3-1 .8-2.3 1.6-3.8Zm-297.9-1c2.1 0 4 .6 5.5 1.8c1.5 1.3 2.2 2.9 2.2 4.9c0 1.1-.3 2.1-.9 2.9c-.8 1-1.7 1.4-2.9 1.4c-.9 0-1.6-.3-2.2-.9c-.6-.6-.9-1.2-.9-2c0-1.2 .5-2.2 1.5-2.8c1-.6 1.5-1.1 1.5-1.5c0-.6-.3-1.1-.9-1.5c-.6-.3-1.3-.5-2.2-.5c-1.2 0-2.2 .3-2.9 1c-.7 .6-1.1 1.4-1.1 2.4c0 .8 .4 2 1.1 3.3c1.2 2.1 1.9 3.4 2.1 4.1c.8 1.8 1.1 3.9 1.1 6.1c0 1.1 0 2.5-.2 3.9h-1.7c0-.3 0-.6 0-.8l.2-1.3c0-1.1-.7-2.1-2-3.3c-2.2-2-3.5-3.2-3.7-3.4c-1.3-1.6-2-3.4-2-5.4c0-2.4 .8-4.4 2.4-6c1.6-1.6 3.6-2.4 6-2.4Zm699.8-.2l5 2.8l-2.8 5.2l-4-2l-2.2 4.3l-4.9-2.7l2.9-5.5l3.9 2.2Zm-247-.7l6.2 3.3l-3.2 6l-6.3-3.2Zm-88.1-.4l6.3 3.3l-3.2 6l-6.3-3.2Zm573.6 0c1 1.4 1.7 2.8 2.2 4.2c.4 1.6 .7 3.7 .7 6.2v5.3c0 3.8 .2 6.4 .7 7.8c.4 1.2 1 1.8 1.9 1.8h7.2c1.6 0 2.8-.2 3.8-.6c1.2-.5 2.1-1.4 2.5-2.6c1-2.3 2.3-4.2 3.9-5.6c1.5-1.3 2.6-2 3.6-2c1 0 2.1 1.4 3.4 4.1c1.4 3 2.1 5.6 2.1 8.1v5.8c-1.8 0-4.1-.3-6.6-1.1c-2.2-.6-4.2-1.4-5.9-2.2c-1 1.5-2.3 2.5-3.8 3c-.8 .3-1.8 .4-3 .4h-7.2c-2.1 0-3.6-.9-4.5-2.6c-1.1-1.9-1.6-5.1-1.6-9.6V374c0-1.8-.2-3.1-.7-4.1c-.2-.5-.8-1.1-1.6-2Zm-24.1 0l1.6 9.5c.6 3.6 1 6.7 1.2 9.4c.2 2 .3 4 .3 5.9c0 1.6-.2 3-.6 4.3c-.3 1.3-1.1 3.1-2.1 5.3l-1.6-.6c.4-2.3 .6-4.2 .6-5.6c0-1.1-.1-2.7-.3-4.8c-.1-2.1-.4-4.2-.6-6.3c-.3-2.1-.7-4.5-1.4-7.4c-.2-1-.3-1.7-.3-2c0-.6 .3-1.5 .9-2.9c.5-1.3 1.3-2.9 2.3-4.8Zm-166.5 0l1.6 9.5c.6 3.6 1 6.7 1.3 9.4c.2 2 .2 4 .2 5.9c0 1.6-.2 3-.5 4.3c-.4 1.3-1.1 3.1-2.2 5.3l-1.6-.6c.4-2.3 .6-4.2 .6-5.6c0-1.1-.1-2.7-.2-4.8c-.2-2.1-.4-4.2-.7-6.3c-.3-2.1-.7-4.5-1.3-7.4c-.2-1-.3-1.7-.3-2c0-.6 .2-1.5 .8-2.9c.5-1.3 1.3-2.9 2.3-4.8Zm-145.4 0l1.7 9.5c.5 3.6 1 6.7 1.2 9.4c.2 2 .2 4 .2 5.9c0 1.6-.1 3-.5 4.3c-.4 1.3-1.1 3.1-2.2 5.3l-1.6-.6c.4-2.3 .7-4.2 .7-5.6c0-1.1-.1-2.7-.3-4.8c-.2-2.1-.4-4.2-.7-6.3c-.3-2.1-.7-4.5-1.3-7.4c-.2-1-.3-1.7-.3-2c0-.6 .2-1.5 .8-2.9c.6-1.3 1.3-2.9 2.3-4.8Zm-52.4 0l1.6 9.5c.6 3.6 1 6.7 1.3 9.4c.1 2 .2 4 .2 5.9c0 1.6-.2 3-.6 4.3c-.3 1.3-1.1 3.1-2.1 5.3l-1.6-.6c.4-2.3 .6-4.2 .6-5.6c0-1.1-.1-2.7-.3-4.8c-.1-2.1-.4-4.2-.6-6.3c-.3-2.1-.7-4.5-1.3-7.4c-.3-1-.4-1.7-.4-2c0-.6 .3-1.5 .9-2.9c.5-1.3 1.3-2.9 2.3-4.8Zm-285.6 0l1.6 9.5c.6 3.6 1 6.7 1.2 9.4c.2 2 .3 4 .3 5.9c0 1.6-.2 3-.6 4.3c-.4 1.3-1.1 3.1-2.2 5.3L687 395c.5-2.3 .7-4.2 .7-5.6c0-1.1-.1-2.7-.3-4.8c-.2-2.1-.4-4.2-.7-6.3c-.2-2.1-.7-4.5-1.3-7.4c-.2-1-.3-1.7-.3-2c0-.6 .3-1.5 .8-2.9c.6-1.3 1.4-2.9 2.4-4.8Zm-181.2 0l1.7 9.5c.5 3.6 1 6.7 1.2 9.4c.2 2 .2 4 .2 5.9c0 1.6-.1 3-.5 4.3c-.4 1.3-1.1 3.1-2.2 5.3l-1.6-.6c.4-2.3 .7-4.2 .7-5.6c0-1.1-.1-2.7-.3-4.8c-.2-2.1-.4-4.2-.7-6.3c-.3-2.1-.7-4.5-1.3-7.4c-.2-1-.3-1.7-.3-2c0-.6 .2-1.5 .8-2.9c.6-1.3 1.3-2.9 2.3-4.8Zm818.7-2.2l1.2 .7c0 .1 0 .4-.1 .9c0 .5 .4 1.1 1.2 1.7c.6 .5 1.7 1 3.1 1.6c-.1 1.2-.4 2.3-.7 3.4c-.3 1.1-.6 2.1-1 2.9l-1-.4l2.9 16.7v7.3h-18.3c-.4 0-.8 0-1.2 0c-.5 0-1.1 0-2 .1c.7 .4 1.3 .8 2 1.1c.6 .5 .9 1.1 .9 1.8c0 .7-.1 1.4-.3 2.2c-.1 .5-.4 1.3-.8 2.4c-.7 2.3-1.4 3.8-2.1 4.6c-.6 .8-1.4 1.2-2.4 1.2c-2.5 0-4.7-1.3-6.5-4c-1.8-2.6-2.7-5.7-2.7-9.4h-4.3v.6c0 1.1-.6 2.5-1.8 4.3c-1.3 1.8-2.8 3.4-4.4 4.7c-1.9 1.5-3.5 2.2-4.8 2.2c-1.6 0-3.3-.4-5.1-1.3c-1.6-.8-4-2.3-7.4-4.6l1.1-1.7c1.7 1.1 3 1.8 3.9 2.2c1 .3 2.1 .5 3.2 .5c1.3 0 2.5-.3 3.7-1c1.3-.7 3-2 5.1-3.9c3-2.7 4.4-4.7 4.4-6.1c0-.8-.2-1.7-.8-2.9c-.7-1.3-1.4-2.4-2.4-3.3l1.5-7.2c1.3 1.2 2.2 2.7 2.8 4.3c.7 1.6 1 3.5 1 5.6v.3h.6c1 0 2-.1 3-.3c1.1-.3 1.9-.4 2.3-.5c2-5.4 3.8-9.3 5.3-11.7c1.4-2.1 2.6-3.1 3.7-3.1c.9 0 1.7 .9 2.4 2.7c.6 1.5 .8 3 .8 4.5c0 2.1-.4 3.9-1.2 5.3c-.9 1.6-2.2 2.8-4 3.6c1.3-.2 2.5-.4 3.5-.4c1.1-.1 2.1-.1 3-.1h15.1l-3.3-18.3l-1.7-1.1c0-1.1 .2-2.1 .5-3.2c.4-1.4 1.1-3 2.1-4.9Zm-166.5 0l1.3 .7c0 .1-.1 .4-.1 .9c0 .5 .4 1.1 1.1 1.7c.7 .5 1.7 1 3.2 1.6c-.2 1.2-.4 2.3-.7 3.4c-.4 1.1-.7 2.1-1.1 2.9l-1-.4l3 16.7v7.3h-14.8v-.2h-.5c-1.3-.2-2.8-.5-4.4-1c-2.2-.6-4.2-1.4-5.9-2.2c-1 1.5-2.3 2.5-3.8 3c-.7 .3-1.7 .4-3 .4H1114l-.6 2.7c-.7 1.5-1.7 3-2.9 4.6c-2.7 3-5.2 4.5-7.8 4.5c-1.5 0-3.1-.5-4.9-1.5c-1.7-.9-4.4-2.8-8.1-5.6l1.1-1.5c2 1.3 3.6 2.1 4.8 2.5c1 .4 2.2 .6 3.5 .6c1.7 0 3.4-.5 5.1-1.5c2-1.1 4.1-3 6.3-5.5c-.8 .1-1.4 .2-1.9 .2c-1.8 0-3.2-.6-4.3-1.8c-1-1.1-1.5-2.7-1.5-4.7c0-2.7 .6-5.3 1.8-7.7c1.4-2.7 2.9-4.1 4.6-4.1c1.4 0 2.7 1 3.7 2.9c1 2 1.5 4.3 1.5 7.1v1.5h12.2c-.2-1.3-.6-2.3-1.1-3.1c-.3-.5-.9-1.3-1.9-2.4l2.1-6.4c1.4 1.5 2.3 3.1 2.8 4.7c.4 1.5 .7 3.6 .7 6.3v.9h3.4c1.6 0 2.9-.2 3.8-.6c1.2-.5 2.1-1.4 2.6-2.6c1-2.3 2.3-4.2 3.9-5.6c1.4-1.3 2.6-2 3.6-2c.9 0 2 1.4 3.4 4.1c1 2.2 1.7 4.3 1.9 6.2l.1 .5h9.8l-3.2-18.3l-1.7-1.1c0-1.1 .1-2.1 .4-3.2c.5-1.4 1.2-3 2.1-4.9Zm-483.4 0l1.2 .7c0 .1 0 .4-.1 .9c0 .5 .4 1.1 1.2 1.7c.6 .5 1.7 1 3.1 1.6c-.1 1.2-.4 2.3-.7 3.4c-.3 1.1-.7 2.1-1.1 2.9l-.9-.4l2.9 16.7v7.3H666.7v-.1h-.9c-.9-.1-1.6-.2-2.3-.4c-1.3-.2-2.6-.7-3.9-1.3c-1 .7-2 1.2-2.8 1.4c-.8 .3-2 .4-3.6 .4h-4.4c-1.2 0-2.2-.3-2.9-1c-.7-.6-1.3-1.6-1.8-3.1c-1 1.5-2.1 2.6-3.3 3.2c-1.1 .6-2.3 .9-3.8 .9H615.2v.6c0 1.1-.6 2.5-1.9 4.3c-1.2 1.8-2.7 3.4-4.4 4.7c-1.8 1.5-3.4 2.2-4.7 2.2c-1.6 0-3.3-.4-5.1-1.3c-1.6-.8-4-2.3-7.4-4.6l1.1-1.7c1.6 1.1 2.9 1.8 3.9 2.2c1 .3 2.1 .5 3.2 .5c1.3 0 2.5-.3 3.7-1c1.3-.7 2.9-2 5.1-3.9c2.9-2.7 4.4-4.7 4.4-6.1c0-.8-.2-1.7-.8-2.9c-.7-1.3-1.5-2.4-2.4-3.3l1.5-7.2c1.2 1.2 2.2 2.7 2.8 4.3c.7 1.6 1 3.5 1 5.6v.3h15.6c-.7-.9-1.4-1.6-2-2.2c-.6-.5-1.3-1.1-2.2-1.9c-1-.7-2-1.5-3-2.3l-.9 .9c-1.6-1.5-2.5-2.5-2.8-2.8c-.9-1.1-1.4-2.2-1.4-3.5c0-1.9 .1-3.1 .4-3.9c.4-1 1.1-1.9 2.3-2.7c1-.7 2.1-1.4 3.3-2c.9-.5 2.2-1 3.7-1.6c.7-.3 2.2-.9 4.5-1.8v6.4c0 0-.8 .2-2.2 .7c-1.8 .6-3.2 1.1-4.2 1.5c-1.5 .6-2.2 1.1-2.2 1.4c0 .1 .6 .8 1.9 2.1c1.7 1.6 3.2 3.2 4.3 4.6c2 2.3 3.6 4.6 4.8 6.9v.2H637c1.9 0 3.5-.6 4.7-1.6c1.7-1.4 2.5-3.5 2.5-6.3l1.7 .3c0 .5 0 1.2-.1 1.9c0 .8 0 1.6 0 2.5c0 .9 .3 1.6 .9 2.2c.7 .7 1.4 1 2.2 1h3.3c2.2 0 3.7-.3 4.7-1c1.1-.7 1.6-2 1.6-4.1c0-.4 .2-.8 .4-1.1c.2-.2 .5-.5 1-.9l1.1-.8c0 .3 0 .8 0 1.4c.1 .6 .1 .9 .1 1.1c0 1-.2 2.3-.5 3.9c.7 .4 1.4 .6 2.3 .9c.8 .2 1.7 .4 2.6 .5c0-.6-.3-1.4-.7-2.3c-.4-1-.7-1.7-.7-2c0-.5 .1-.8 .2-1.1c.1-.1 .2-.4 .6-.8l2.3-3.1c.5 1.1 .8 2.1 1 3.1c.2 .9 .3 2 .3 3.4v2.9h9.8L675 368.2l-1.7-1.1c0-1.1 .2-2.1 .5-3.2c.4-1.4 1.1-3 2.1-4.9Zm-181.1 0l1.2 .7c0 .1 0 .4-.1 .9c0 .5 .4 1.1 1.1 1.7c.7 .5 1.7 1 3.2 1.6c-.2 1.2-.4 2.3-.7 3.4c-.3 1.1-.7 2.1-1.1 2.9l-1-.4l3 16.7v7.3H475.3c-1.2 0-2.1-.3-2.7-.8c-.8-.6-1.2-1.6-1.2-3c0-.8 .1-1.6 .1-2.5c.1-.9 .2-1.8 .4-2.8h1c.2 .6 .5 1 1 1.3c.5 .3 1.1 .5 1.8 .5h9.2c-.4-2.7-1.1-4.8-2.2-6.3c-.8-1.4-2-2.5-3.5-3.4l2-8.4c2.3 1.7 3.9 4 4.9 6.7c.9 2.5 1.4 5.9 1.4 10.1v1.3h9.7l-3.3-18.3l-1.7-1.1c0-1.1 .1-2.1 .5-3.2c.4-1.4 1.1-3 2.1-4.9Zm322.3-2l1.2 .4c0 .1 0 .4-.1 .7c0 .7 .9 1.4 2.7 2.3c.6 .2 1.4 .6 2.6 1.1c-.2 1.4-.4 2.7-.8 3.9c-.2 .6-.6 1.5-1.1 2.8l-1-.3c.6 2.6 .9 4.4 1.1 5.6c.2 1.2 .3 2.3 .3 3.3v.3c0 .5 0 .9 0 1.2c-.1 .3-.1 .7-.3 1.4c1-.7 1.9-1.4 2.9-2.1c1.4-1 2.7-1.8 3.9-2.4c1.5-.9 2.6-1.3 3.4-1.3c2.1 0 3.8 .6 5.1 1.7c1.4 1.2 2.1 3 2.1 5.3v5.6h12.3c-.2-1.3-.6-2.3-1.1-3.1c-.3-.5-.9-1.3-1.9-2.4l2.2-6.4c1.3 1.5 2.2 3.1 2.7 4.7c.4 1.5 .7 3.6 .7 6.3v.9l1.9-.1c2.1 0 3.7-.5 4.8-1.5c1.2-1.2 2-3.3 2.4-6.3l1.8 .3c-.1 .6-.1 1.1-.1 1.5c-.1 1.2-.1 2.2-.1 2.9c0 1 .3 1.8 .8 2.3c.5 .6 1.2 .9 2.1 .9c.9 0 1.7-.2 2.4-.6c.8-.3 1.9-1.1 3.5-2.2l9.7-6.9c1.1-.8 1.9-1.3 2.5-1.7c1.3-.8 2.6-1.2 3.8-1.2c2 0 3.6 .7 4.8 2.1c1.4 1.7 2.1 4.2 2.1 7.5v3H906l-3.3-18.3l-1.7-1.1c0-1.1 .2-2.1 .5-3.2c.4-1.4 1.1-3 2.1-4.9l1.2 .7c0 .1 0 .4-.1 .9c0 .5 .4 1.1 1.1 1.7c.7 .5 1.8 1 3.2 1.6c-.1 1.2-.4 2.3-.7 3.4c-.3 1.1-.7 2.1-1.1 2.9l-.9-.4l2.9 16.7v7.3H868c-1.3 0-2.3-.4-3.1-1c-.7-.6-1.4-1.7-1.9-3.1c-1.2 1.6-2.3 2.7-3.3 3.3c-1 .5-2.2 .7-3.8 .7l-1.9 .1H808.5v-7.3H812c.5 0 1.7-.8 3.7-2.3c.6-.5 1.6-1.2 2.8-2.2c0-2.2-.1-4.1-.2-5.6c-.2-1.5-.4-3.1-.8-4.8c-.1-.3-.6-2.3-1.5-5.8l-1.5-1c.4-1.8 .8-3.2 1-4c.3-.8 .8-2.1 1.6-3.8Zm265-1.8l5 2.8l-2.8 5.2l-4-2l-2.2 4.4l-4.9-2.8l2.9-5.5l3.9 2.2Zm-72.7-.3l6.3 3.3l-3.2 6.1l-6.3-3.3Zm-443.4 0l6.2 3.3l-3.2 6.1l-6.3-3.3Zm154.4-1.3l4.8 2.5l-2.9 5l-3.9-2.1l-2.1 4.2l-5-2.7l2.8-4.8l4 2Z" class="g0_47"/>
<path d="M544.9 407.7l3.3 2.1l-2.6 3l-2.8-1.8l-2.1 2.3l-3.4-1.9l2.5-3.2l3 1.9ZM845.1 396l6.2 3.4l-3.2 6l-6.3-3.3Zm-107.6 0l6.2 3.4l-3.2 6l-6.3-3.3Zm563.6-1.8c.3 1.6 1.1 3 2.5 4.1c1.3 1.2 2.8 1.8 4.4 1.8c.5 0 .8-.2 .8-.6c0-1-.6-2-1.8-2.9c-1.3-1-3.3-1.8-5.9-2.4Zm-877.5-6.8c.9 0 1.7 .4 2.3 1c.6 .7 .9 1.5 .9 2.4c0 .9-.3 1.7-.9 2.3c-.7 .7-1.5 1-2.4 1c-.9 0-1.7-.3-2.3-1c-.6-.6-1-1.4-1-2.3c0-.9 .4-1.7 1-2.4c.7-.6 1.5-1 2.4-1Zm817.2-5.3c-.5 0-1 .3-1.3 .7c-.3 .4-.5 .9-.5 1.4c0 .7 .3 1.2 1.1 1.6c.7 .5 1.6 .7 2.7 .7h1.1c-.5-2.9-1.5-4.4-3.1-4.4Zm-132.7 0c-.6 0-1 .3-1.3 .7c-.4 .4-.6 .9-.6 1.4c0 .7 .4 1.2 1.1 1.6c.7 .5 1.7 .7 2.8 .7h1c-.5-2.9-1.5-4.4-3-4.4Zm277.8-.1c-.7 0-1.2 .8-1.7 2.4c.9 .4 1.6 .6 2.1 .8c1.4 .5 2.3 .8 2.4 .8c.4 0 .6-.1 .6-.4c0-.4-.4-1-1.1-2c-.9-1.1-1.6-1.6-2.3-1.6Zm-124.4 0c-.7 0-1.3 .8-1.8 2.4c.9 .4 1.6 .6 2.1 .8c1.5 .5 2.3 .8 2.5 .8c.3 0 .5-.1 .5-.4c0-.4-.3-1-1.1-2c-.9-1.1-1.6-1.6-2.2-1.6Zm-117.9 0c-.7 0-1.3 .8-1.8 2.4c.9 .4 1.6 .6 2.1 .8c1.5 .5 2.3 .8 2.5 .8c.4 0 .5-.1 .5-.4c0-.4-.3-1-1.1-2c-.9-1.1-1.6-1.6-2.2-1.6Zm-256.4-.8c-1.2 0-2.5 .3-4 1.1c-1.5 .7-3.6 2.2-6.4 4.2h7c5.9 0 8.8-1 8.8-2.8c0-.8-.6-1.4-1.9-1.9c-1-.5-2.2-.6-3.5-.6Zm-57.3 0c-1.2 0-2.5 .3-4 1.1c-1.4 .7-3.6 2.2-6.4 4.2h7c5.9 0 8.9-1 8.9-2.8c0-.6-.7-1.2-2-1.7c-1.3-.6-2.5-.8-3.5-.8Zm101.7-.2c-1.2 1.8-1.7 3.3-1.7 4.5c0 .5 .2 1 .7 1.5c.4 .4 1 .6 1.7 .6c.9 0 1.9-.2 3.1-.7c1.1-.4 1.7-.7 1.7-1c0-.4-.6-1.1-1.9-2.2c-1.2-1.1-2.4-2-3.6-2.7Zm374.5-2.2c-.5 0-1 .5-1.6 1.5c-.7 1-1.4 2.6-2.3 4.7c2.1-.7 3.5-1.3 4.3-1.8c.8-.5 1.1-1.1 1.1-1.7c0-.5-.1-1-.5-1.7c-.3-.7-.7-1-1-1ZM459.5 378c1.2 0 2.5 .6 4 2c1.5 1.4 3.2 3.5 5.1 6.5v7.3l-3.5-.1c-3.3 0-6.2 .3-8.7 .9c-2.5 .5-3.8 1.2-3.8 1.9c.7 2.1 1.4 4.1 1.9 6c.5 1.9 .8 3.7 .8 5.4c0 1.2-.1 2.2-.3 2.9c-.3 .8-.7 1.6-1.4 2.5c-.2-2.4-.6-4.8-1.3-7.4c-.2-1-.8-2.9-1.8-5.8c-.5-1.8-.8-3-.8-3.6c0-.9 .2-1.9 .7-3.2c.4-1 .8-1.9 1.3-2.7c.6-.9 1.5-1.6 3-2.1c1.4-.5 3.6-.9 6.5-1.3c-1.4-2-2.7-3-3.8-3c-.4 0-.9 .2-1.3 .6c-.4 .3-1.1 1.1-2 2.3l-1.3-.6c.8-2.8 1.8-4.9 2.9-6.3c1.2-1.5 2.4-2.2 3.8-2.2Zm759.7-1.6c1.3 2.3 2 3.9 2.3 4.8c.6 1.5 .8 3.5 .8 5.9v5.4c0 2.4-.2 4.4-.7 5.9c-.5 1.5-1.3 2.7-2.4 3.6c-1.1 .9-2.7 1.7-4.8 2.3c-2.1 .5-4.3 .8-6.6 .8c-4.3 0-7.7-.8-10-2.3c-2.4-1.6-3.6-3.9-3.6-6.8c0-2.5 .4-4.8 1.2-6.8c.8-2.3 2.4-5.3 4.8-8.9l1.6 1.1c-1.7 3.1-2.9 5.3-3.5 6.6c-.5 1.4-.8 2.8-.8 4.2c0 1.9 1 3.4 3 4.6c2.1 1.2 4.7 1.8 8 1.8c3.2 0 5.9-.6 8.1-1.8c2.2-1.3 3.3-2.8 3.3-4.6c0-1.1-.2-2.2-.5-3.3c-.4-1.1-1.3-2.8-2.5-5.2Zm-256-.1c1.3 1.2 2.2 2.7 2.8 4.3c.7 1.6 1 3.5 1 5.6v8.2c0 1.1-.6 2.5-1.8 4.3c-1.3 1.8-2.8 3.4-4.4 4.7c-1.9 1.5-3.5 2.2-4.8 2.2c-1.6 0-3.3-.4-5.1-1.3c-1.6-.8-4-2.3-7.4-4.6l1.1-1.7c1.7 1.1 3 1.8 3.9 2.2c1 .3 2.1 .5 3.2 .5c1.3 0 2.5-.3 3.7-1c1.3-.7 3-2 5.1-3.9c3-2.7 4.4-4.7 4.4-6.1c0-.8-.2-1.7-.8-2.9c-.7-1.3-1.4-2.4-2.4-3.3Zm-242.8-.9c-.5 .3-1 .5-1.3 .6c-1 .5-1.8 1-2.4 1.5c-.4 .3-.8 .7-1.1 1c-.3 .4-.5 .6-.5 .8c0 .3 .3 .5 1 .6c.6 .2 1.2 .3 1.8 .3c.4 0 .8-.1 1.2-.4c.5-.2 1.1-.6 1.9-1.2Zm521.5-.4c1.5 0 2.7 1 3.7 2.9c1 2 1.5 4.3 1.5 7.1v1.5h3.4c1.6 0 2.9-.2 3.8-.6c1.2-.5 2.1-1.4 2.5-2.6c1.1-2.3 2.4-4.2 4-5.6c1.4-1.3 2.6-2 3.6-2c.9 0 2 1.4 3.3 4.1c1.5 3 2.2 5.6 2.2 8.1v5.8c-1.9 0-4.1-.3-6.7-1.1c-2.2-.6-4.2-1.4-5.9-2.2c-1 1.5-2.3 2.5-3.8 3c-.8 .3-1.8 .4-3 .4h-3.8l-.6 2.7c-.6 1.5-1.6 3-2.9 4.6c-2.6 3-5.2 4.5-7.8 4.5c-1.4 0-3.1-.5-4.8-1.5c-1.8-.9-4.5-2.8-8.1-5.6l1.1-1.5c1.9 1.3 3.5 2.1 4.7 2.5c1 .4 2.2 .6 3.5 .6c1.7 0 3.4-.5 5.2-1.5c2-1.1 4-3 6.2-5.5c-.8 .1-1.4 .2-1.9 .2c-1.8 0-3.2-.6-4.2-1.8c-1.1-1.1-1.6-2.7-1.6-4.7c0-2.7 .6-5.3 1.8-7.7c1.4-2.7 2.9-4.1 4.6-4.1Zm-160.6-1.6c-.5 0-1 .3-1.4 .8c-.4 .5-.7 1-.7 1.7c0 .4 .2 .7 .5 1c.4 .3 .8 .4 1.3 .4c.4 0 .8-.1 1.2-.4c.5-.2 1-.6 1.6-1.2c-.5-.8-.9-1.4-1.3-1.8c-.3-.3-.7-.5-1.2-.5Zm-70 0c-.5 0-1 .3-1.5 .8c-.4 .5-.6 1-.6 1.7c0 .4 .2 .7 .5 1c.3 .3 .8 .4 1.3 .4c.4 0 .8-.1 1.2-.4c.4-.2 1-.6 1.6-1.2c-.5-.8-.9-1.4-1.3-1.8c-.4-.3-.8-.5-1.2-.5Zm-443.5 0c-.5 0-1 .3-1.4 .8c-.5 .5-.7 1-.7 1.7c0 .4 .2 .7 .5 1c.3 .3 .8 .4 1.3 .4c.4 0 .8-.1 1.2-.4c.5-.2 1-.6 1.6-1.2c-.5-.8-.9-1.4-1.3-1.8c-.4-.3-.8-.5-1.2-.5Zm363.5-.3l2.6 1.6c1.2 .7 2.3 1.4 3.3 2.2c1.5 1.1 2.5 2.2 3 3.2c.6 .9 .9 2.2 .9 3.6c0 1.1-.1 2.2-.3 3.3c-.1 1.1-.4 2-.6 2.7c-.5 1.3-1.8 2.5-3.7 3.6c-1.9 .9-3.6 1.4-5.2 1.4c-1.4 0-2.5-.5-3.3-1.4c-.9-1-1.3-2.3-1.3-3.9c0-1.5 .2-2.9 .7-4.3c.4-1.4 1.1-3.2 2.2-5.4l-.9-.6c.3-.8 .7-1.8 1.2-3c.5-1.2 1-2.2 1.4-3Zm276-5.1l6.2 3.3l-3.2 6l-6.3-3.2Zm-125.5-1.4c1.9 0 3.7 1.7 5.3 4.9c1.7 3.3 2.5 6.8 2.5 10.4v11.9H1069c-2.5 0-4.6-.5-6.1-1.5c-1.7-1.1-3.3-3.1-4.7-6c-2 1.4-3.5 2.9-4.6 4.6c-1.1 1.7-1.6 3.4-1.6 5.2c0 3.2 1.4 5.5 4.2 7.1c2.8 1.5 7.2 2.3 13.2 2.3c.9 0 1.9-.1 3-.1c1 0 1.9 0 2.8 0l.2 1.1l-9.9 6c-5.8 0-10-1.1-12.7-3.2c-2.6-2.2-3.9-5.7-3.9-10.4c0-3.2 .6-6.2 1.9-8.8c1.2-2.6 3.2-5.1 5.9-7.5c-.2-1.3-.7-2-1.5-2c-.3 0-.5 .1-.6 .3c-.2 .3-.5 .5-.6 .7l-1.3-.3c0-2.5 .5-4.5 1.6-6.1c1.3-1.9 3-2.8 5.3-2.8c2 0 3.6 .6 5 1.7c1.3 1.1 1.9 2.5 1.9 4.3c0 1-.2 2-.8 3c-.6 1-1.4 1.8-2.4 2.3c.9 1 2 1.8 3.3 2.3c.8 .3 1.7 .5 2.4 .5h18.1c0-1.6 0-2.7-.1-3.4c-.2-1-.5-1.9-.9-2.6c-.6 1.1-1.4 1.9-2.3 2.5c-1 .6-2 .9-3.1 .9c-1.4 0-2.7-.5-3.6-1.4c-1-1-1.5-2.1-1.5-3.6c0-2.1 .6-4.6 1.9-7.5c1.4-3.2 2.9-4.8 4.3-4.8Zm-70 0c1.8 0 3.6 1.7 5.3 4.9c1.7 3.3 2.5 6.8 2.5 10.4v11.9h-16.8v.6c0 1.1-.6 2.5-1.9 4.3c-1.2 1.8-2.7 3.4-4.4 4.7c-1.9 1.5-3.4 2.2-4.8 2.2c-1.5 0-3.2-.4-5-1.3c-1.6-.8-4.1-2.3-7.4-4.6l1.1-1.7c1.6 1.1 2.9 1.8 3.9 2.2c1 .3 2 .5 3.2 .5c1.2 0 2.5-.3 3.7-1c1.2-.7 2.9-2 5-3.9c3-2.7 4.5-4.7 4.5-6.1c0-.8-.3-1.7-.9-2.9c-.6-1.3-1.4-2.4-2.3-3.3l1.5-7.2c1.2 1.2 2.1 2.7 2.8 4.3c.7 1.6 1 3.5 1 5.6v.3h14.3c0-1.6-.1-2.7-.2-3.4c-.1-1-.4-1.9-.9-2.6c-.5 1.1-1.3 1.9-2.3 2.5c-.9 .6-2 .9-3 .9c-1.5 0-2.7-.5-3.7-1.4c-1-1-1.4-2.1-1.4-3.6c0-2.1 .6-4.6 1.9-7.5c1.4-3.2 2.8-4.8 4.3-4.8Zm-443.5 0c1.9 0 3.6 1.7 5.3 4.9c1.7 3.3 2.5 6.8 2.5 10.4v11.9H556.6c-.8 0-1.4 0-1.7 0c-.4 .1-.5 .2-.5 .4c.5 .3 1 .5 1.4 .6c.5 .1 .8 .3 .9 .5c.2 .1 .2 .5 .2 .9c0 1.2-.3 2.7-1 4.5c-.8 1.8-1.5 2.9-2.2 3.3c-.7 .6-2.6 1.2-5.9 1.9c-3.3 .7-6.1 1.1-8.4 1.1c-3.4 0-6.1-.7-8.2-2.1c-2.1-1.4-3.1-3.2-3.1-5.5c0-2.1 .4-4.2 1.4-6.2c1.1-2.4 3.1-5.5 6.1-9.1l1.6 1.1c-1.9 2.3-3.2 4.1-3.9 5.6c-.7 1.4-1.1 2.8-1.1 4.2c0 1.9 .8 3.3 2.4 4.2c1.6 1 4 1.4 7.3 1.4c1.8 0 4.1-.3 7.2-.9c3-.6 4.6-1.2 4.6-1.7c0-.2-.6-.4-1.8-.5c-1.2-.2-2.4-.3-3.8-.3c-2.1 0-3.1-.5-3.1-1.4c0-.4 .2-1.1 .7-2.2c.4-.7 .7-1.4 1.1-2.2c.6-1.5 1.9-2.7 3.8-3.6c1.9-.9 3.8-1.3 5.8-1.3h17.2c0-1.6-.1-2.7-.1-3.4c-.2-1-.5-1.9-.9-2.6c-.6 1.1-1.4 1.9-2.3 2.5c-1 .6-2 .9-3.1 .9c-1.5 0-2.7-.5-3.7-1.4c-.9-1-1.4-2.1-1.4-3.6c0-2.1 .6-4.6 1.9-7.5c1.4-3.2 2.8-4.8 4.3-4.8Zm391.1-3.1l6.3 3.4l-3.2 6l-6.3-3.3Zm-237.5 0l2.6 16.7c.4 2.6 1 4.4 1.6 5.3c.5 .7 1 1 1.8 1h15.9c-.2-1.3-.6-2.3-1.1-3.1c-.3-.5-.9-1.3-1.9-2.4l2.1-6.4c1.4 1.5 2.3 3.1 2.8 4.7c.4 1.5 .7 3.6 .7 6.3v.9h1.9c1.9 0 3.5-.6 4.7-1.6c1.6-1.4 2.5-3.5 2.5-6.3l1.7 .3c0 .5 0 1.2-.1 1.9c0 .8 0 1.6 0 2.5c0 .9 .3 1.6 .9 2.2c.6 .7 1.4 1 2.2 1h3.3c2.1 0 3.7-.3 4.6-1c1.2-.7 1.7-2 1.7-4.1c0-.4 .2-.8 .4-1.1c.2-.2 .5-.5 1-.9l1-.8c.1 .3 .1 .8 .1 1.4c0 .6 .1 .9 .1 1.1c0 1-.2 2.3-.5 3.9c.7 .4 1.4 .6 2.2 .9c.9 .2 1.7 .4 2.7 .5c0-.6-.3-1.4-.7-2.3c-.5-1-.7-1.7-.7-2c0-.5 .1-.8 .2-1.1c0-.1 .2-.4 .6-.8l2.3-3.1c.5 1.1 .8 2.1 1 3.1c.2 .9 .3 2 .3 3.4v2.9h12.4c-.2-1.3-.6-2.3-1.1-3.1c-.3-.5-.9-1.3-1.9-2.4l2.1-6.4c1.4 1.5 2.3 3.1 2.8 4.7c.5 1.7 .7 4.2 .7 7.5v7H778v-.1h-.9c-.9-.1-1.6-.2-2.3-.4c-1.3-.2-2.6-.7-3.9-1.3c-1 .7-2 1.2-2.8 1.4c-.8 .3-2 .4-3.6 .4h-4.4c-1.2 0-2.2-.3-2.9-1c-.7-.6-1.3-1.6-1.9-3.1c-.9 1.5-2 2.6-3.3 3.2c-1 .6-2.2 .9-3.7 .9H727.9c-.6 0-1.2-.2-1.8-.4c-1-.5-1.9-1.5-2.6-2.9c-1-1.9-1.6-4.5-1.9-7.8c-1.2 1.5-2.2 2.6-2.8 3.2c-1 .9-1.8 1.4-2.5 1.4c-.4 0-.8-.1-1.3-.2l-3.3-.6c-1.4-.3-2.2-.5-2.6-.6c-.3-.2-.4-.4-.4-.7c0-.5 .6-2 1.8-4.6c1.3-2.5 2.2-4.1 2.7-4.7c.5-.5 1.3-1.2 2.4-1.9c.7-.5 1.7-1.1 2.9-1.8l1.4-.9c0-.2-.1-.5-.1-.7c0-.3 0-.5 0-.8c0-.6 .1-1.5 .5-2.5c.3-1 .8-2.3 1.6-3.8Zm-297.9-1c2.1 0 4 .6 5.5 1.8c1.5 1.3 2.2 2.9 2.2 4.9c0 1.1-.3 2.1-.9 2.9c-.8 1-1.7 1.4-2.9 1.4c-.9 0-1.6-.3-2.2-.9c-.6-.6-.9-1.2-.9-2c0-1.2 .5-2.2 1.5-2.8c1-.6 1.5-1.1 1.5-1.5c0-.6-.3-1.1-.9-1.5c-.6-.3-1.3-.5-2.2-.5c-1.2 0-2.2 .3-2.9 1c-.7 .6-1.1 1.4-1.1 2.4c0 .8 .4 2 1.1 3.3c1.2 2.1 1.9 3.4 2.1 4.1c.8 1.8 1.1 3.9 1.1 6.1c0 1.1 0 2.5-.2 3.9h-1.7c0-.3 0-.6 0-.8l.2-1.3c0-1.1-.7-2.1-2-3.3c-2.2-2-3.5-3.2-3.7-3.4c-1.3-1.6-2-3.4-2-5.4c0-2.4 .8-4.4 2.4-6c1.6-1.6 3.6-2.4 6-2.4Zm699.8-.2l5 2.8l-2.8 5.2l-4-2l-2.2 4.3l-4.9-2.7l2.9-5.5l3.9 2.2Zm-247-.7l6.2 3.3l-3.2 6l-6.3-3.2Zm-88.1-.4l6.3 3.3l-3.2 6l-6.3-3.2Zm573.6 0c1 1.4 1.7 2.8 2.2 4.2c.4 1.6 .7 3.7 .7 6.2v5.3c0 3.8 .2 6.4 .7 7.8c.4 1.2 1 1.8 1.9 1.8h7.2c1.6 0 2.8-.2 3.8-.6c1.2-.5 2.1-1.4 2.5-2.6c1-2.3 2.3-4.2 3.9-5.6c1.5-1.3 2.6-2 3.6-2c1 0 2.1 1.4 3.4 4.1c1.4 3 2.1 5.6 2.1 8.1v5.8c-1.8 0-4.1-.3-6.6-1.1c-2.2-.6-4.2-1.4-5.9-2.2c-1 1.5-2.3 2.5-3.8 3c-.8 .3-1.8 .4-3 .4h-7.2c-2.1 0-3.6-.9-4.5-2.6c-1.1-1.9-1.6-5.1-1.6-9.6V374c0-1.8-.2-3.1-.7-4.1c-.2-.5-.8-1.1-1.6-2Zm-24.1 0l1.6 9.5c.6 3.6 1 6.7 1.2 9.4c.2 2 .3 4 .3 5.9c0 1.6-.2 3-.6 4.3c-.3 1.3-1.1 3.1-2.1 5.3l-1.6-.6c.4-2.3 .6-4.2 .6-5.6c0-1.1-.1-2.7-.3-4.8c-.1-2.1-.4-4.2-.6-6.3c-.3-2.1-.7-4.5-1.4-7.4c-.2-1-.3-1.7-.3-2c0-.6 .3-1.5 .9-2.9c.5-1.3 1.3-2.9 2.3-4.8Zm-166.5 0l1.6 9.5c.6 3.6 1 6.7 1.3 9.4c.2 2 .2 4 .2 5.9c0 1.6-.2 3-.5 4.3c-.4 1.3-1.1 3.1-2.2 5.3l-1.6-.6c.4-2.3 .6-4.2 .6-5.6c0-1.1-.1-2.7-.2-4.8c-.2-2.1-.4-4.2-.7-6.3c-.3-2.1-.7-4.5-1.3-7.4c-.2-1-.3-1.7-.3-2c0-.6 .2-1.5 .8-2.9c.5-1.3 1.3-2.9 2.3-4.8Zm-145.4 0l1.7 9.5c.5 3.6 1 6.7 1.2 9.4c.2 2 .2 4 .2 5.9c0 1.6-.1 3-.5 4.3c-.4 1.3-1.1 3.1-2.2 5.3l-1.6-.6c.4-2.3 .7-4.2 .7-5.6c0-1.1-.1-2.7-.3-4.8c-.2-2.1-.4-4.2-.7-6.3c-.3-2.1-.7-4.5-1.3-7.4c-.2-1-.3-1.7-.3-2c0-.6 .2-1.5 .8-2.9c.6-1.3 1.3-2.9 2.3-4.8Zm-52.4 0l1.6 9.5c.6 3.6 1 6.7 1.3 9.4c.1 2 .2 4 .2 5.9c0 1.6-.2 3-.6 4.3c-.3 1.3-1.1 3.1-2.1 5.3l-1.6-.6c.4-2.3 .6-4.2 .6-5.6c0-1.1-.1-2.7-.3-4.8c-.1-2.1-.4-4.2-.6-6.3c-.3-2.1-.7-4.5-1.3-7.4c-.3-1-.4-1.7-.4-2c0-.6 .3-1.5 .9-2.9c.5-1.3 1.3-2.9 2.3-4.8Zm-285.6 0l1.6 9.5c.6 3.6 1 6.7 1.2 9.4c.2 2 .3 4 .3 5.9c0 1.6-.2 3-.6 4.3c-.4 1.3-1.1 3.1-2.2 5.3L687 395c.5-2.3 .7-4.2 .7-5.6c0-1.1-.1-2.7-.3-4.8c-.2-2.1-.4-4.2-.7-6.3c-.2-2.1-.7-4.5-1.3-7.4c-.2-1-.3-1.7-.3-2c0-.6 .3-1.5 .8-2.9c.6-1.3 1.4-2.9 2.4-4.8Zm-181.2 0l1.7 9.5c.5 3.6 1 6.7 1.2 9.4c.2 2 .2 4 .2 5.9c0 1.6-.1 3-.5 4.3c-.4 1.3-1.1 3.1-2.2 5.3l-1.6-.6c.4-2.3 .7-4.2 .7-5.6c0-1.1-.1-2.7-.3-4.8c-.2-2.1-.4-4.2-.7-6.3c-.3-2.1-.7-4.5-1.3-7.4c-.2-1-.3-1.7-.3-2c0-.6 .2-1.5 .8-2.9c.6-1.3 1.3-2.9 2.3-4.8Zm818.7-2.2l1.2 .7c0 .1 0 .4-.1 .9c0 .5 .4 1.1 1.2 1.7c.6 .5 1.7 1 3.1 1.6c-.1 1.2-.4 2.3-.7 3.4c-.3 1.1-.6 2.1-1 2.9l-1-.4l2.9 16.7v7.3h-18.3c-.4 0-.8 0-1.2 0c-.5 0-1.1 0-2 .1c.7 .4 1.3 .8 2 1.1c.6 .5 .9 1.1 .9 1.8c0 .7-.1 1.4-.3 2.2c-.1 .5-.4 1.3-.8 2.4c-.7 2.3-1.4 3.8-2.1 4.6c-.6 .8-1.4 1.2-2.4 1.2c-2.5 0-4.7-1.3-6.5-4c-1.8-2.6-2.7-5.7-2.7-9.4h-4.3v.6c0 1.1-.6 2.5-1.8 4.3c-1.3 1.8-2.8 3.4-4.4 4.7c-1.9 1.5-3.5 2.2-4.8 2.2c-1.6 0-3.3-.4-5.1-1.3c-1.6-.8-4-2.3-7.4-4.6l1.1-1.7c1.7 1.1 3 1.8 3.9 2.2c1 .3 2.1 .5 3.2 .5c1.3 0 2.5-.3 3.7-1c1.3-.7 3-2 5.1-3.9c3-2.7 4.4-4.7 4.4-6.1c0-.8-.2-1.7-.8-2.9c-.7-1.3-1.4-2.4-2.4-3.3l1.5-7.2c1.3 1.2 2.2 2.7 2.8 4.3c.7 1.6 1 3.5 1 5.6v.3h.6c1 0 2-.1 3-.3c1.1-.3 1.9-.4 2.3-.5c2-5.4 3.8-9.3 5.3-11.7c1.4-2.1 2.6-3.1 3.7-3.1c.9 0 1.7 .9 2.4 2.7c.6 1.5 .8 3 .8 4.5c0 2.1-.4 3.9-1.2 5.3c-.9 1.6-2.2 2.8-4 3.6c1.3-.2 2.5-.4 3.5-.4c1.1-.1 2.1-.1 3-.1h15.1l-3.3-18.3l-1.7-1.1c0-1.1 .2-2.1 .5-3.2c.4-1.4 1.1-3 2.1-4.9Zm-166.5 0l1.3 .7c0 .1-.1 .4-.1 .9c0 .5 .4 1.1 1.1 1.7c.7 .5 1.7 1 3.2 1.6c-.2 1.2-.4 2.3-.7 3.4c-.4 1.1-.7 2.1-1.1 2.9l-1-.4l3 16.7v7.3h-14.8v-.2h-.5c-1.3-.2-2.8-.5-4.4-1c-2.2-.6-4.2-1.4-5.9-2.2c-1 1.5-2.3 2.5-3.8 3c-.7 .3-1.7 .4-3 .4H1114l-.6 2.7c-.7 1.5-1.7 3-2.9 4.6c-2.7 3-5.2 4.5-7.8 4.5c-1.5 0-3.1-.5-4.9-1.5c-1.7-.9-4.4-2.8-8.1-5.6l1.1-1.5c2 1.3 3.6 2.1 4.8 2.5c1 .4 2.2 .6 3.5 .6c1.7 0 3.4-.5 5.1-1.5c2-1.1 4.1-3 6.3-5.5c-.8 .1-1.4 .2-1.9 .2c-1.8 0-3.2-.6-4.3-1.8c-1-1.1-1.5-2.7-1.5-4.7c0-2.7 .6-5.3 1.8-7.7c1.4-2.7 2.9-4.1 4.6-4.1c1.4 0 2.7 1 3.7 2.9c1 2 1.5 4.3 1.5 7.1v1.5h12.2c-.2-1.3-.6-2.3-1.1-3.1c-.3-.5-.9-1.3-1.9-2.4l2.1-6.4c1.4 1.5 2.3 3.1 2.8 4.7c.4 1.5 .7 3.6 .7 6.3v.9h3.4c1.6 0 2.9-.2 3.8-.6c1.2-.5 2.1-1.4 2.6-2.6c1-2.3 2.3-4.2 3.9-5.6c1.4-1.3 2.6-2 3.6-2c.9 0 2 1.4 3.4 4.1c1 2.2 1.7 4.3 1.9 6.2l.1 .5h9.8l-3.2-18.3l-1.7-1.1c0-1.1 .1-2.1 .4-3.2c.5-1.4 1.2-3 2.1-4.9Zm-483.4 0l1.2 .7c0 .1 0 .4-.1 .9c0 .5 .4 1.1 1.2 1.7c.6 .5 1.7 1 3.1 1.6c-.1 1.2-.4 2.3-.7 3.4c-.3 1.1-.7 2.1-1.1 2.9l-.9-.4l2.9 16.7v7.3H666.7v-.1h-.9c-.9-.1-1.6-.2-2.3-.4c-1.3-.2-2.6-.7-3.9-1.3c-1 .7-2 1.2-2.8 1.4c-.8 .3-2 .4-3.6 .4h-4.4c-1.2 0-2.2-.3-2.9-1c-.7-.6-1.3-1.6-1.8-3.1c-1 1.5-2.1 2.6-3.3 3.2c-1.1 .6-2.3 .9-3.8 .9H615.2v.6c0 1.1-.6 2.5-1.9 4.3c-1.2 1.8-2.7 3.4-4.4 4.7c-1.8 1.5-3.4 2.2-4.7 2.2c-1.6 0-3.3-.4-5.1-1.3c-1.6-.8-4-2.3-7.4-4.6l1.1-1.7c1.6 1.1 2.9 1.8 3.9 2.2c1 .3 2.1 .5 3.2 .5c1.3 0 2.5-.3 3.7-1c1.3-.7 2.9-2 5.1-3.9c2.9-2.7 4.4-4.7 4.4-6.1c0-.8-.2-1.7-.8-2.9c-.7-1.3-1.5-2.4-2.4-3.3l1.5-7.2c1.2 1.2 2.2 2.7 2.8 4.3c.7 1.6 1 3.5 1 5.6v.3h15.6c-.7-.9-1.4-1.6-2-2.2c-.6-.5-1.3-1.1-2.2-1.9c-1-.7-2-1.5-3-2.3l-.9 .9c-1.6-1.5-2.5-2.5-2.8-2.8c-.9-1.1-1.4-2.2-1.4-3.5c0-1.9 .1-3.1 .4-3.9c.4-1 1.1-1.9 2.3-2.7c1-.7 2.1-1.4 3.3-2c.9-.5 2.2-1 3.7-1.6c.7-.3 2.2-.9 4.5-1.8v6.4c0 0-.8 .2-2.2 .7c-1.8 .6-3.2 1.1-4.2 1.5c-1.5 .6-2.2 1.1-2.2 1.4c0 .1 .6 .8 1.9 2.1c1.7 1.6 3.2 3.2 4.3 4.6c2 2.3 3.6 4.6 4.8 6.9v.2H637c1.9 0 3.5-.6 4.7-1.6c1.7-1.4 2.5-3.5 2.5-6.3l1.7 .3c0 .5 0 1.2-.1 1.9c0 .8 0 1.6 0 2.5c0 .9 .3 1.6 .9 2.2c.7 .7 1.4 1 2.2 1h3.3c2.2 0 3.7-.3 4.7-1c1.1-.7 1.6-2 1.6-4.1c0-.4 .2-.8 .4-1.1c.2-.2 .5-.5 1-.9l1.1-.8c0 .3 0 .8 0 1.4c.1 .6 .1 .9 .1 1.1c0 1-.2 2.3-.5 3.9c.7 .4 1.4 .6 2.3 .9c.8 .2 1.7 .4 2.6 .5c0-.6-.3-1.4-.7-2.3c-.4-1-.7-1.7-.7-2c0-.5 .1-.8 .2-1.1c.1-.1 .2-.4 .6-.8l2.3-3.1c.5 1.1 .8 2.1 1 3.1c.2 .9 .3 2 .3 3.4v2.9h9.8L675 368.2l-1.7-1.1c0-1.1 .2-2.1 .5-3.2c.4-1.4 1.1-3 2.1-4.9Zm-181.1 0l1.2 .7c0 .1 0 .4-.1 .9c0 .5 .4 1.1 1.1 1.7c.7 .5 1.7 1 3.2 1.6c-.2 1.2-.4 2.3-.7 3.4c-.3 1.1-.7 2.1-1.1 2.9l-1-.4l3 16.7v7.3H475.3c-1.2 0-2.1-.3-2.7-.8c-.8-.6-1.2-1.6-1.2-3c0-.8 .1-1.6 .1-2.5c.1-.9 .2-1.8 .4-2.8h1c.2 .6 .5 1 1 1.3c.5 .3 1.1 .5 1.8 .5h9.2c-.4-2.7-1.1-4.8-2.2-6.3c-.8-1.4-2-2.5-3.5-3.4l2-8.4c2.3 1.7 3.9 4 4.9 6.7c.9 2.5 1.4 5.9 1.4 10.1v1.3h9.7l-3.3-18.3l-1.7-1.1c0-1.1 .1-2.1 .5-3.2c.4-1.4 1.1-3 2.1-4.9Zm322.3-2l1.2 .4c0 .1 0 .4-.1 .7c0 .7 .9 1.4 2.7 2.3c.6 .2 1.4 .6 2.6 1.1c-.2 1.4-.4 2.7-.8 3.9c-.2 .6-.6 1.5-1.1 2.8l-1-.3c.6 2.6 .9 4.4 1.1 5.6c.2 1.2 .3 2.3 .3 3.3v.3c0 .5 0 .9 0 1.2c-.1 .3-.1 .7-.3 1.4c1-.7 1.9-1.4 2.9-2.1c1.4-1 2.7-1.8 3.9-2.4c1.5-.9 2.6-1.3 3.4-1.3c2.1 0 3.8 .6 5.1 1.7c1.4 1.2 2.1 3 2.1 5.3v5.6h12.3c-.2-1.3-.6-2.3-1.1-3.1c-.3-.5-.9-1.3-1.9-2.4l2.2-6.4c1.3 1.5 2.2 3.1 2.7 4.7c.4 1.5 .7 3.6 .7 6.3v.9l1.9-.1c2.1 0 3.7-.5 4.8-1.5c1.2-1.2 2-3.3 2.4-6.3l1.8 .3c-.1 .6-.1 1.1-.1 1.5c-.1 1.2-.1 2.2-.1 2.9c0 1 .3 1.8 .8 2.3c.5 .6 1.2 .9 2.1 .9c.9 0 1.7-.2 2.4-.6c.8-.3 1.9-1.1 3.5-2.2l9.7-6.9c1.1-.8 1.9-1.3 2.5-1.7c1.3-.8 2.6-1.2 3.8-1.2c2 0 3.6 .7 4.8 2.1c1.4 1.7 2.1 4.2 2.1 7.5v3H906l-3.3-18.3l-1.7-1.1c0-1.1 .2-2.1 .5-3.2c.4-1.4 1.1-3 2.1-4.9l1.2 .7c0 .1 0 .4-.1 .9c0 .5 .4 1.1 1.1 1.7c.7 .5 1.8 1 3.2 1.6c-.1 1.2-.4 2.3-.7 3.4c-.3 1.1-.7 2.1-1.1 2.9l-.9-.4l2.9 16.7v7.3H868c-1.3 0-2.3-.4-3.1-1c-.7-.6-1.4-1.7-1.9-3.1c-1.2 1.6-2.3 2.7-3.3 3.3c-1 .5-2.2 .7-3.8 .7l-1.9 .1H808.5v-7.3H812c.5 0 1.7-.8 3.7-2.3c.6-.5 1.6-1.2 2.8-2.2c0-2.2-.1-4.1-.2-5.6c-.2-1.5-.4-3.1-.8-4.8c-.1-.3-.6-2.3-1.5-5.8l-1.5-1c.4-1.8 .8-3.2 1-4c.3-.8 .8-2.1 1.6-3.8Zm265-1.8l5 2.8l-2.8 5.2l-4-2l-2.2 4.4l-4.9-2.8l2.9-5.5l3.9 2.2Zm-72.7-.3l6.3 3.3l-3.2 6.1l-6.3-3.3Zm-443.4 0l6.2 3.3l-3.2 6.1l-6.3-3.3Zm154.4-1.3l4.8 2.5l-2.9 5l-3.9-2.1l-2.1 4.2l-5-2.7l2.8-4.8l4 2Z" class="g1_47"/>
<image clip-path="url(#c1_47)" preserveAspectRatio="none" x="1344" y="457" width="108" height="72" href="img/2.jpg"/>
<image clip-path="url(#c2_47)" preserveAspectRatio="none" x="1347" y="550" width="102" height="71" href="img/3.jpg"/>
<image clip-path="url(#c3_47)" preserveAspectRatio="none" x="1347" y="642" width="102" height="74" href="img/4.jpg"/>
<image clip-path="url(#c4_47)" preserveAspectRatio="none" x="1353" y="745" width="96" height="80" href="img/5.jpg"/>
</svg>