<svg viewBox="0 0 1466 825" version="1.1" xmlns="http://www.w3.org/2000/svg">
<defs>
<clipPath id="c0_70"><path d="M-.2 825.3V-.2H1467V825.3Z"/></clipPath>
<clipPath id="c1_70"><path d="M1343.9 529.1V456.4H1452v72.7Z"/></clipPath>
<clipPath id="c2_70"><path d="M1346.3 621.3V549.7h102.9v71.6Z"/></clipPath>
<clipPath id="c3_70"><path d="M1346.4 716.6V641.9h103v74.7Z"/></clipPath>
<clipPath id="c4_70"><path d="M1353 825V744.6h96.2V825Z"/></clipPath>
<clipPath id="c5_70"><path d="M-.2 825V449.8H739.9V825Z"/></clipPath>
<style>
.g0_70{fill:#F00;}
.g1_70{fill:none;stroke:#000;stroke-width:1.466;stroke-linejoin:round;}
.g2_70{fill:#009;}
</style>
</defs>
<image clip-path="url(#c0_70)" preserveAspectRatio="none" x="0" y="-7" width="1467" height="840" href="img/1.jpg"/>
<path fill-rule="evenodd" d="M1181.4 336.9l7 3.7l-3.6 6.7l-7-3.6Zm-553.8 0l6.9 3.7l-3.6 6.7l-6.9-3.6Zm541.3-.3l5.5 3.1l-3.1 5.7l-4.4-2.2l-2.5 4.9L1159 345l3.2-6l4.3 2.3Zm-391.3 0l5.6 3.1l-3.1 5.7l-4.4-2.2l-2.6 4.9l-5.4-3.1l3.3-6l4.2 2.3Zm242.3-1.7c.3 1.8 1.3 3.3 2.8 4.6c1.5 1.3 3.1 1.9 4.9 1.9c.5 0 .9-.2 .9-.6c0-1.1-.7-2.2-2-3.2c-1.5-1.2-3.7-2.1-6.6-2.7ZM860.2 321.5c-.6 0-1.1 .3-1.4 .7c-.4 .5-.6 1.1-.6 1.6c0 .8 .4 1.3 1.2 1.8c.8 .5 1.8 .7 3.1 .7h1.1c-.5-3.2-1.7-4.8-3.4-4.8Zm-172.6-.2c-.8 0-1.5 .9-2 2.7c1 .4 1.8 .7 2.3 .9c1.7 .6 2.6 .9 2.8 .9c.4 0 .6-.1 .6-.4c0-.4-.4-1.2-1.3-2.3c-.9-1.2-1.8-1.8-2.4-1.8Zm525.4-.9c-1.3 0-2.8 .4-4.4 1.3c-1.6 .8-4 2.4-7.1 4.6h7.8c6.5 0 9.8-1 9.8-3c0-.7-.7-1.4-2.2-2c-1.5-.6-2.8-.9-3.9-.9Zm-187.5-2.6c-.5 0-1.2 .5-1.8 1.6c-.7 1.2-1.6 2.9-2.5 5.3c2.3-.8 3.8-1.4 4.7-2c.9-.6 1.3-1.2 1.3-1.9c0-.5-.2-1.2-.6-1.9c-.3-.8-.7-1.1-1.1-1.1Zm123.7-1.2c-.4 0-.7 .2-1 .4c-.3 .3-.5 .6-.5 .9c0 .9 .7 1.7 2 2.5c1.3 .8 2.8 1.4 4.5 1.7c-.7-1.8-1.5-3.1-2.3-4c-.9-1-1.8-1.5-2.7-1.5Zm-486.7 0c-.4 0-.8 .2-1.1 .4c-.3 .3-.4 .6-.4 .9c0 .9 .6 1.7 1.9 2.5c1.3 .8 2.8 1.4 4.6 1.7c-.7-1.8-1.5-3.1-2.4-4c-.9-1-1.7-1.5-2.6-1.5Zm707.1-1.4c1.4 2.4 2.4 4.4 2.8 5.9c.4 1.4 .6 3.1 .6 5.2h2.7c3.1 0 5.2-.3 6.3-1c1.2-.8 1.8-2 1.8-3.8c0-.8 .1-1.4 .2-1.8c.2-.3 .5-.7 1.1-1.1l1.4-1c0 .4 .1 .9 .1 1.5c0 .7 0 1.1 0 1.3c0 1.1-.2 2.5-.5 4.3c.9 .3 1.9 .6 2.8 .9c.9 .2 1.8 .4 2.6 .5c0-.7-.3-1.6-.7-2.6c-.6-1-.8-1.7-.8-2c0-.3 0-.5 .1-.7c.1-.2 .2-.5 .5-.9l2.8-4c.5 1.3 .9 2.4 1.2 3.4c.2 1 .3 2.3 .3 3.9v11.2c-2.2 0-3.8-.1-4.7-.3c-.9-.2-2.7-.8-5.2-1.7c-1.2 .8-2.2 1.4-3.1 1.6c-.9 .3-2.3 .4-4.1 .4H1373c0 4.6-1.5 7.9-4.4 10c-2.6 1.7-6.5 2.6-11.6 2.6c-4.9 0-8.6-.9-11.2-2.6c-2.6-1.8-3.9-4.3-3.9-7.5c0-2.8 .4-5.3 1.2-7.6c1-2.5 2.7-5.8 5.4-9.8l1.8 1.2c-2 3.4-3.3 5.8-3.9 7.3c-.6 1.6-.9 3.1-.9 4.7c0 2.1 1.1 3.8 3.4 5.1c2.2 1.4 5.2 2 8.8 2c3.6 0 6.6-.7 9-2c2.5-1.4 3.7-3.1 3.7-5.1c0-1.2-.2-2.4-.7-3.6c-.4-1.3-1.3-3.2-2.7-5.9Zm47.6-.2c1.3 1.4 2.3 3 3.1 4.8c.7 1.8 1.1 3.9 1.1 6.2v9.1c0 1.2-.7 2.8-2.1 4.8c-1.4 2-3 3.8-4.9 5.2c-2 1.7-3.8 2.5-5.3 2.5c-1.7 0-3.6-.5-5.6-1.5c-1.8-.9-4.5-2.6-8.2-5.1l1.2-1.9c1.8 1.2 3.3 2 4.3 2.4c1.2 .4 2.3 .6 3.6 .6c1.4 0 2.7-.4 4.1-1.1c1.4-.8 3.3-2.2 5.6-4.3c3.3-3 5-5.2 5-6.8c0-.8-.3-1.9-1-3.2c-.7-1.4-1.6-2.7-2.6-3.6Zm-581.7 0c1.3 1.4 2.3 3 3.1 4.8c.7 1.8 1.1 3.9 1.1 6.2v9.1c0 1.2-.7 2.8-2.1 4.8c-1.4 2-3 3.8-4.9 5.2c-2.1 1.7-3.8 2.5-5.3 2.5c-1.8 0-3.6-.5-5.6-1.5c-1.8-.9-4.5-2.6-8.2-5.1l1.2-1.9c1.8 1.2 3.2 2 4.3 2.4c1.1 .4 2.3 .6 3.6 .6c1.4 0 2.7-.4 4.1-1.1c1.4-.8 3.2-2.2 5.6-4.3c3.3-3 5-5.2 5-6.8c0-.8-.4-1.9-1-3.2c-.7-1.4-1.6-2.7-2.6-3.6Zm89.5-1c-.6 .3-1.1 .5-1.4 .7c-1.1 .6-2 1.1-2.7 1.6c-.4 .4-.8 .8-1.2 1.1c-.4 .5-.6 .8-.6 1c0 .3 .4 .5 1.1 .7c.7 .1 1.4 .2 2 .2c.5 0 .9-.1 1.4-.4c.5-.2 1.2-.7 2.1-1.3Zm-170.1 0c-.6 .3-1.1 .5-1.5 .7c-1.1 .6-1.9 1.1-2.6 1.6c-.5 .4-.9 .8-1.2 1.1c-.4 .5-.6 .8-.6 1c0 .3 .4 .5 1 .7c.7 .1 1.4 .2 2.1 .2c.5 0 .9-.1 1.4-.4c.5-.2 1.1-.7 2-1.3Zm335.3-.7l1.7 1.1c-.4 .8-.8 1.5-1.1 2.1c-.3 .7-.5 1.2-.7 1.7c-.3 .9-.4 1.8-.4 2.7c0 1.2 .4 2.2 1.1 3.1c.7 .9 1.7 1.5 2.8 1.8c.7 .1 1.6 .3 2.7 .4c1.2 .1 2.3 .1 3.6 .1h21.5c-.5-1.6-1-2.6-1.3-3.2c-.5-.8-1.1-1.7-2.1-2.9l2.7-6.9c1.5 2.1 2.5 4.1 2.9 5.8c.4 1.6 .6 3.9 .6 6.9v8.4h-25c-1.2 0-2.2 0-3 0c-.8 0-1.4-.1-1.8-.1c-.7-.1-1.6-.3-2.5-.6c-1.6-.6-3-1.7-4-3.4c-1.1-1.7-1.6-3.6-1.6-5.7c0-.9 .1-1.7 .2-2.6c.1-.9 .3-1.8 .6-2.8c.4-1.2 .9-2.3 1.5-3.2c.5-1 1.1-1.9 1.6-2.7Zm345.1-7c2.6 1.9 4.4 4.4 5.5 7.4c1 2.8 1.5 6.5 1.5 11.2v9.5h-13.5c-1.3 0-2.3-.3-3-.8c-.9-.7-1.3-1.8-1.3-3.3c0-.9 .1-1.8 .2-2.9c0-1 .2-2 .4-3l1.1-.1c.1 .7 .5 1.2 1 1.5c.6 .4 1.2 .5 2 .5h10.3c-.5-2.9-1.3-5.2-2.4-7c-.9-1.4-2.2-2.7-3.9-3.8Zm-164.4 0c2.6 1.9 4.4 4.4 5.5 7.4c1 2.8 1.5 6.5 1.5 11.2v1.4h19c-2.4-2.5-4.6-4.3-6.6-5.3c-1.8-1-3.6-1.5-5.3-1.5c-.6 0-1 0-1.5 .1c-.4 0-1 .1-1.8 .3c1.1-2.5 2.3-4.4 3.6-5.5c1.4-1.2 2.9-1.8 4.6-1.8c1.3 0 2.6 .3 3.8 .9c1.2 .7 2.6 1.7 4.1 3.1c1.2 1.1 2.9 2.8 5 5.2c1.5 1.7 2.7 2.8 3.5 3.3c.7 .5 1.9 .9 3.5 1.2v8.1h-45.4c-1.4 0-2.4-.3-3.1-.8c-.8-.7-1.2-1.8-1.2-3.3c0-.9 0-1.8 .1-2.9c.1-1 .2-2 .4-3l1.1-.1c.2 .7 .6 1.2 1.1 1.5c.5 .4 1.2 .5 2 .5H1275c-.4-2.9-1.2-5.2-2.4-7c-.9-1.4-2.2-2.7-3.9-3.8Zm-162.7-3.2l5.5 3l-3.1 5.8l-4.4-2.2l-2.5 4.8l-5.4-3l3.3-6.1l4.2 2.4Zm-181.5-2.3l2.9 18.6c.4 2.9 1 4.9 1.8 5.9c.4 .7 1.1 1 1.9 1h6.1c2.1 0 3.8-.6 5.2-1.7c1.8-1.6 2.7-3.9 2.7-7l2 .3c-.1 .6-.1 1.3-.2 2.2c0 .8 0 1.7 0 2.7c0 1 .3 1.8 1 2.5c.7 .7 1.5 1 2.4 1h3.7c2.4 0 4.1-.3 5.2-1c1.2-.8 1.8-2.3 1.8-4.6c0-.4 .2-.9 .5-1.2c.2-.3 .5-.6 1.1-1l1.1-.9c.1 .4 .1 .9 .1 1.5c0 .7 .1 1.1 .1 1.3c0 1.1-.2 2.5-.5 4.3c.7 .4 1.5 .7 2.4 1c1 .2 1.9 .4 2.9 .6c0-.7-.2-1.6-.7-2.7c-.5-1-.7-1.8-.7-2.1c0-.6 0-1 .2-1.2c0-.1 .2-.4 .6-1l2.6-3.4c.5 1.3 .9 2.4 1.1 3.4c.2 1 .3 2.3 .3 3.9v11.2c-2.2 0-4-.1-5.5-.5c-1.5-.3-2.9-.8-4.4-1.5c-1.1 .8-2.1 1.4-3 1.6c-.9 .3-2.3 .4-4.1 .4h-4.9c-1.3 0-2.4-.3-3.1-1c-.8-.7-1.5-1.9-2.1-3.5c-1.1 1.7-2.3 2.9-3.7 3.6c-1.1 .6-2.5 .9-4.1 .9h-6.1c-.7 0-1.3-.1-1.9-.4c-1.2-.6-2.2-1.6-3-3.2c-1-2.1-1.7-5-2-8.6c-1.4 1.6-2.4 2.8-3.2 3.5c-1.1 1-2 1.5-2.7 1.5c-.4 0-.9 0-1.5-.1l-3.6-.8c-1.6-.3-2.5-.5-2.9-.6c-.3-.2-.5-.4-.5-.8c0-.5 .7-2.2 2.1-5.1c1.3-2.8 2.3-4.6 3-5.3c.5-.5 1.3-1.2 2.6-2.1c.8-.5 1.8-1.1 3.2-1.9l1.6-1c-.1-.2-.1-.5-.1-.8c0-.3-.1-.6-.1-.8c0-.8 .2-1.7 .6-2.9c.3-1.1 .9-2.5 1.8-4.2Zm-170.1 0l2.8 18.6c.5 2.9 1.1 4.9 1.8 5.9c.5 .7 1.2 1 2 1h17.5c-.3-1.3-.7-2.5-1.2-3.4c-.3-.5-1-1.4-2.1-2.7l2.4-7.1c1.5 1.7 2.5 3.5 3 5.3c.5 1.6 .8 3.9 .8 6.9v1h13.6c-.3-1.3-.7-2.5-1.2-3.4c-.3-.5-1-1.4-2.1-2.7l2.4-7.1c1.5 1.7 2.5 3.5 3 5.3c.6 1.9 .8 4.6 .8 8.2v7.8H763.2c-.7 0-1.4-.1-2-.4c-1.1-.6-2.1-1.6-2.9-3.2c-1.1-2.1-1.8-5-2.1-8.6c-1.3 1.6-2.4 2.8-3.1 3.5c-1.1 1-2 1.5-2.8 1.5c-.4 0-.8 0-1.4-.1l-3.7-.8c-1.5-.3-2.5-.5-2.8-.6c-.4-.2-.5-.4-.5-.8c0-.5 .6-2.2 2-5.1c1.4-2.8 2.4-4.6 3-5.3c.5-.5 1.4-1.2 2.7-2.1c.7-.5 1.8-1.1 3.2-1.9l1.6-1c-.1-.2-.1-.5-.2-.8c0-.3 0-.6 0-.8c0-.8 .2-1.7 .5-2.9c.4-1.1 1-2.5 1.9-4.2Zm477.2-1.3l5.5 3.1l-3.1 5.7l-4.4-2.2l-2.5 4.9l-5.4-3.1l3.2-6.1l4.3 2.4Zm-439.6 0l5.5 3.1l-3.3 6l-4.2-2.3l-2.4 4.7l-5.6-3.1l3.1-5.8l4.4 2.2Zm210.9-1.2l7 3.7l-3.6 6.6l-7-3.6Zm444.8-.1l1.7 10.6c.7 4 1.2 7.5 1.4 10.4c.2 2.3 .3 4.5 .3 6.6c0 1.7-.2 3.3-.6 4.8c-.4 1.4-1.2 3.4-2.4 5.9l-1.8-.7c.5-2.6 .7-4.6 .7-6.2c0-1.2-.1-3-.3-5.4c-.2-2.3-.4-4.6-.7-6.9c-.3-2.3-.8-5.1-1.5-8.2c-.2-1.2-.4-1.9-.4-2.3c0-.7 .4-1.7 1-3.2c.6-1.5 1.4-3.3 2.6-5.4Zm-132.5 0l1.8 10.6c.6 4 1.1 7.5 1.3 10.4c.2 2.3 .3 4.5 .3 6.6c0 1.7-.2 3.3-.6 4.8c-.4 1.4-1.2 3.4-2.4 5.9l-1.8-.7c.5-2.6 .7-4.6 .7-6.2c0-1.2-.1-3-.3-5.4c-.2-2.3-.4-4.6-.7-6.9c-.3-2.3-.8-5.1-1.5-8.2c-.2-1.2-.4-1.9-.4-2.3c0-.7 .3-1.7 1-3.2c.6-1.5 1.5-3.3 2.6-5.4Zm-256.2 0l1.8 10.6c.6 4 1.1 7.5 1.3 10.4c.2 2.3 .3 4.5 .3 6.6c0 1.7-.2 3.3-.6 4.8c-.4 1.4-1.2 3.4-2.4 5.9l-1.8-.7c.5-2.6 .7-4.6 .7-6.2c0-1.2-.1-3-.3-5.4c-.2-2.3-.4-4.6-.7-6.9c-.3-2.3-.8-5.1-1.5-8.2c-.2-1.2-.3-1.9-.3-2.3c0-.7 .3-1.7 .9-3.2c.6-1.5 1.5-3.3 2.6-5.4Zm-172.2 0l1.8 10.6c.7 4 1.1 7.5 1.4 10.4c.2 2.3 .3 4.5 .3 6.6c0 1.7-.2 3.3-.6 4.8c-.4 1.4-1.3 3.4-2.4 5.9l-1.8-.7c.4-2.6 .7-4.6 .7-6.2c0-1.2-.1-3-.3-5.4c-.2-2.3-.5-4.6-.8-6.9c-.3-2.3-.7-5.1-1.4-8.2c-.3-1.2-.4-1.9-.4-2.3c0-.7 .3-1.7 .9-3.2c.7-1.5 1.5-3.3 2.6-5.4Zm-81.4 0l1.8 10.6c.7 4 1.1 7.5 1.4 10.4c.2 2.3 .3 4.5 .3 6.6c0 1.7-.2 3.3-.6 4.8c-.4 1.4-1.3 3.4-2.4 5.9l-1.8-.7c.4-2.6 .7-4.6 .7-6.2c0-1.2-.1-3-.3-5.4c-.2-2.3-.5-4.6-.8-6.9c-.3-2.3-.7-5.1-1.4-8.2c-.3-1.2-.4-1.9-.4-2.3c0-.7 .3-1.7 .9-3.2c.7-1.5 1.5-3.3 2.6-5.4Zm-88.9 0l1.8 10.6c.7 4 1.1 7.5 1.4 10.4c.2 2.3 .3 4.5 .3 6.6c0 1.7-.2 3.3-.6 4.8c-.5 1.4-1.3 3.4-2.5 5.9l-1.7-.7c.4-2.6 .7-4.6 .7-6.2c0-1.2-.1-3-.3-5.4c-.2-2.3-.5-4.6-.8-6.9c-.3-2.3-.8-5.1-1.4-8.2c-.3-1.2-.4-1.9-.4-2.3c0-.7 .3-1.7 .9-3.2c.6-1.5 1.5-3.3 2.6-5.4Zm-103.8-2.3l1.4 .7c-.1 .3-.2 .6-.2 1c0 .7 .5 1.4 1.3 1.9c1.2 .7 2.3 1.3 3.4 1.9c-.2 1.7-.4 2.9-.7 3.7c-.2 .7-.6 1.8-1.3 3.3l-.9-.4c0 .3 .3 2 .8 5.1c.6 3.1 1.1 5.8 1.5 8c.4 2.4 .6 4.1 .7 5.1l.1 .1h13.5c-.2-1.3-.6-2.5-1.1-3.4c-.4-.5-1-1.4-2.1-2.7l2.3-7.1c1.5 1.7 2.6 3.5 3.1 5.3c.6 1.9 .8 4.6 .8 8.2v7.8H620.9l-.2 1.5c-.6 2.2-2.1 4.1-4.5 5.9c-3.1 2.4-6.8 3.6-10.8 3.6c-3.5 0-6.1-.9-8-2.6c-1.9-1.7-2.9-4.1-2.9-7.2c0-2.9 .4-5.4 1.1-7.6c.8-2.4 2.4-5.3 4.7-8.9l1.9 1.3c-1.6 2.3-2.7 4.3-3.3 6c-.7 1.7-1 3.4-1 5.1c0 1.8 .7 3.2 2 4.2c1.3 1 3.2 1.5 5.7 1.5c3.5 0 6.3-.7 8.5-2c2.2-1.4 3.3-3.2 3.3-5.3c0-.4 0-.7 0-.9c0-.3 0-.4 0-.5c0-.8-.1-1.7-.2-2.6c-.1-.9-.5-2.9-1-5.8c-.9-4.7-1.7-9.4-2.6-14.1l-1.5-1.1c0-2 1-5 2.8-9Zm432.5 0l1.4 .7c0 .1-.1 .4-.1 1c0 .6 .4 1.2 1.2 1.9c.7 .5 1.9 1.1 3.5 1.8c-.2 1.3-.4 2.5-.8 3.7c-.3 1.2-.7 2.3-1.2 3.3l-1-.4l3.2 18.4v8.1h-20.3c-.5 0-1 0-1.4 0c-.5 0-1.2 .1-2.1 .2c.7 .4 1.4 .8 2.1 1.2c.7 .5 1 1.2 1 2c0 .8-.1 1.6-.3 2.5c-.1 .5-.4 1.3-.9 2.6c-.8 2.5-1.6 4.2-2.3 5.1c-.7 .9-1.6 1.3-2.7 1.3c-2.8 0-5.2-1.5-7.2-4.4c-2-2.9-3-6.4-3-10.5H981.8c-1.3 0-2.3-.3-3-.8c-.8-.7-1.3-1.8-1.3-3.3c0-.9 .1-1.8 .2-2.9c.1-1 .2-2 .4-3l1.1-.1c.2 .7 .5 1.2 1.1 1.5c.5 .4 1.2 .5 2 .5h10.2c-.5-2.9-1.2-5.2-2.4-7c-.9-1.4-2.2-2.7-3.9-3.8l2.2-9.2c2.5 1.9 4.4 4.4 5.5 7.4c.9 2.8 1.4 6.5 1.4 11.2v1.4h13.6c-.2-1.3-.6-2.5-1.2-3.4c-.3-.5-1-1.4-2.1-2.7l2.4-7.1c1.5 1.7 2.5 3.5 3.1 5.3c.4 1.6 .7 3.9 .8 6.9v1h.5c1.1 0 2.2-.1 3.3-.3c1.3-.3 2.1-.4 2.6-.6c2.2-5.9 4.2-10.2 5.9-12.9c1.4-2.3 2.8-3.5 4.1-3.5c1 0 1.9 1 2.6 3c.6 1.7 .9 3.4 .9 5c0 2.4-.4 4.3-1.3 5.9c-1 1.8-2.5 3.1-4.5 4c1.5-.3 2.8-.4 4-.5c1.2-.1 2.3-.1 3.3-.1H1050l-3.6-20.2l-1.9-1.3c0-1.2 .2-2.3 .6-3.5c.4-1.5 1.2-3.3 2.3-5.4Zm-172.2 0l1.4 .7c0 .1 0 .4-.1 1c0 .6 .4 1.2 1.3 1.9c.7 .5 1.9 1.1 3.5 1.8c-.2 1.3-.5 2.5-.8 3.7c-.4 1.2-.8 2.3-1.2 3.3l-1.1-.4l3.3 18.4v8.1H867l-.1 .5c-.5 2.6-1.9 5.1-4 7.6c-2.9 3.3-5.8 5-8.6 5c-1.7 0-3.5-.5-5.4-1.6c-2-1-5-3.1-9.1-6.2l1.3-1.7c2.1 1.4 3.9 2.4 5.3 2.8c1.1 .4 2.4 .6 3.8 .6c1.9 0 3.9-.5 5.7-1.6c2.3-1.3 4.6-3.3 7-6.1c-.9 .1-1.6 .1-2.1 .1c-2 0-3.6-.6-4.7-1.9c-1.2-1.2-1.8-3-1.8-5.2c0-3 .7-5.9 2.1-8.6c1.5-3 3.2-4.5 5.1-4.5c1.6 0 2.9 1.1 4 3.2c1.1 2.2 1.7 4.8 1.7 7.9v1.6h10.7l-3.6-20.2l-1.9-1.3c0-1.2 .2-2.3 .5-3.5c.5-1.5 1.2-3.3 2.3-5.4Zm-170.3 0l1.4 .7c0 .1 0 .4-.1 1c0 .6 .4 1.2 1.2 1.9c.8 .5 1.9 1.1 3.6 1.8c-.2 1.3-.5 2.5-.8 3.7c-.4 1.2-.8 2.3-1.2 3.3l-1.1-.4l3.3 18.4v8.1H694.8v-.1l-.4-.1c-1.5-.2-3.1-.5-4.9-1c-2.5-.7-4.6-1.6-6.5-2.6c-1.2 1.8-2.6 2.9-4.3 3.4c-.8 .3-1.9 .4-3.3 .4H647.6c-2.3 0-4-.9-5-2.8c-1.2-2.1-1.8-5.7-1.8-10.7v-8.5c0-1.9-.2-3.4-.8-4.5c-.2-.5-.8-1.2-1.8-2.2l3.2-7.5c1.2 1.6 2 3.2 2.5 4.7c.5 1.8 .8 4.2 .8 7v5.8c0 4.2 .2 7.1 .8 8.7c.4 1.3 1.1 1.9 2.1 1.9H655c.9 0 1.8 0 2.6 .1c2.2 .3 4.7 .5 7.5 .8c-3-.6-5-1.5-6.2-2.6c-1.2-1-1.8-2.6-1.8-4.7c0-3.1 .7-5.9 2.2-8.3c1.4-2.5 3-3.7 4.7-3.7c2 0 3.8 1.7 5.3 5.2c1.5 3.4 2.3 7.6 2.3 12.5v.7h3.8c1.8 0 3.2-.2 4.2-.6c1.4-.6 2.3-1.6 2.8-2.9c1.2-2.6 2.6-4.6 4.4-6.3c1.6-1.4 2.9-2.1 4-2.1c1 0 2.2 1.5 3.7 4.6c1.2 2.4 2 4.7 2.2 6.8l.1 .5h10.8L704 306.1l-1.9-1.3c0-1.2 .1-2.3 .5-3.5c.5-1.5 1.2-3.3 2.3-5.4Zm444.2-.4l5.5 3.1l-3.1 5.7l-4.4-2.2l-2.5 4.9l-5.4-3.1l3.2-6.1l4.3 2.4Zm-486.8 0l5.6 3.1l-3.1 5.7l-4.5-2.2l-2.5 4.9l-5.4-3.1l3.3-6.1l4.2 2.4Zm536.5-2l1.4 .6c0 .1-.1 .4-.2 .8c0 .7 1 1.5 3 2.4c.6 .4 1.6 .8 2.9 1.3c-.2 1.5-.5 3-.9 4.3c-.2 .7-.6 1.7-1.2 3.2l-1.1-.4c.6 2.8 1.1 4.9 1.2 6.3c.3 1.3 .4 2.5 .4 3.5v.4c0 .6 0 1-.1 1.3c0 .4-.1 .9-.2 1.6c1-.8 2-1.5 3.1-2.3c1.6-1.1 3.1-2 4.3-2.7c1.7-1 3-1.4 3.8-1.4c2.4 0 4.3 .6 5.7 1.8c1.6 1.4 2.4 3.4 2.4 5.9v6.2h13.5c-.2-1.3-.6-2.5-1.2-3.4c-.3-.5-1-1.4-2.1-2.7l2.4-7.1c1.5 1.7 2.5 3.5 3.1 5.3c.5 1.9 .8 4.6 .8 8.2v7.8H1134.3c-2.3 0-4-.9-5-2.8c-1.2-2.1-1.7-5.7-1.7-10.7v-8.5c0-1.9-.3-3.4-.8-4.5c-.3-.5-.9-1.2-1.8-2.2l3.2-7.5c1.1 1.6 2 3.2 2.4 4.7c.6 1.8 .8 4.2 .8 7v5.8c0 4.2 .3 7.1 .9 8.7c.4 1.3 1.1 1.9 2 1.9h7.5c.9 0 1.8 0 2.6 .1c2.2 .3 4.7 .5 7.5 .8c-3-.6-5.1-1.5-6.3-2.6c-1.1-1-1.7-2.6-1.7-4.7c0-3.1 .7-5.9 2.1-8.3c1.4-2.5 3-3.7 4.8-3.7c2 0 3.7 1.7 5.2 5.2c1.5 3.4 2.3 7.6 2.3 12.5v.7h13.6c-.2-1.3-.6-2.5-1.2-3.4c-.3-.5-1-1.4-2.1-2.7l2.4-7.1c1.5 1.7 2.5 3.5 3.1 5.3c.4 1.6 .7 3.9 .8 6.9v1h13.5c-.2-1.3-.6-2.5-1.2-3.4c-.3-.5-1-1.4-2.1-2.7l2.4-7.1c1.5 1.7 2.5 3.5 3.1 5.3c.4 1.6 .7 3.9 .8 6.9v1h1.8c.5 0 1.8-.8 4-2.5c.7-.5 1.8-1.3 3.2-2.5c0-2.4-.1-4.5-.3-6.2c-.2-1.6-.4-3.4-.8-5.2c-.1-.5-.7-2.6-1.6-6.5l-1.8-1.1c.5-2.1 .9-3.6 1.2-4.5c.2-.9 .8-2.3 1.7-4.3Zm-410.5-.9l5.6 2.9l-3 6.2l-5.6-3ZM925 289.9l5.4 2.7l-3.3 5.6l-4.3-2.4l-2.3 4.7l-5.6-3l3.1-5.3l4.4 2.2Zm-170.1 0l5.3 2.7l-3.3 5.6l-4.2-2.4l-2.4 4.7l-5.5-3l3.1-5.3l4.4 2.2Zm563.4-.2c.4 0 .7 .1 .9 .3c.3 .3 .4 .6 .4 1c0 .3-.1 .6-.2 .8c-.1 .3-.2 .6-.5 1.1c-1-.5-1.7-.8-2-.8c-.4 0-.8 .1-1.1 .3c-.3 .1-.5 .3-.7 .5c0 .2 .5 .6 1.5 1.2c.9 .5 1.6 .8 2 .8c.3 0 1-.2 2.2-.5c-.3 .6-.5 1-.8 1.3c-.2 .2-.6 .4-1 .6l-6.5 1.9c.4-.7 .8-1.2 1.1-1.4c.3-.3 .8-.5 1.6-.8c-.6-.3-1-.7-1.2-1c-.3-.3-.4-.6-.4-.9c0-.2 .1-.5 .2-.9c.2-.3 .4-.6 .7-.9c1.3-1.8 2.6-2.6 3.8-2.6Z" class="g0_70"/>
<path d="M1181.4 336.9l7 3.7l-3.6 6.7l-7-3.6Zm-553.8 0l6.9 3.7l-3.6 6.7l-6.9-3.6Zm541.3-.3l5.5 3.1l-3.1 5.7l-4.4-2.2l-2.5 4.9L1159 345l3.2-6l4.3 2.3Zm-391.3 0l5.6 3.1l-3.1 5.7l-4.4-2.2l-2.6 4.9l-5.4-3.1l3.3-6l4.2 2.3Zm242.3-1.7c.3 1.8 1.3 3.3 2.8 4.6c1.5 1.3 3.1 1.9 4.9 1.9c.5 0 .9-.2 .9-.6c0-1.1-.7-2.2-2-3.2c-1.5-1.2-3.7-2.1-6.6-2.7ZM860.2 321.5c-.6 0-1.1 .3-1.4 .7c-.4 .5-.6 1.1-.6 1.6c0 .8 .4 1.3 1.2 1.8c.8 .5 1.8 .7 3.1 .7h1.1c-.5-3.2-1.7-4.8-3.4-4.8Zm-172.6-.2c-.8 0-1.5 .9-2 2.7c1 .4 1.8 .7 2.3 .9c1.7 .6 2.6 .9 2.8 .9c.4 0 .6-.1 .6-.4c0-.4-.4-1.2-1.3-2.3c-.9-1.2-1.8-1.8-2.4-1.8Zm525.4-.9c-1.3 0-2.8 .4-4.4 1.3c-1.6 .8-4 2.4-7.1 4.6h7.8c6.5 0 9.8-1 9.8-3c0-.7-.7-1.4-2.2-2c-1.5-.6-2.8-.9-3.9-.9Zm-187.5-2.6c-.5 0-1.2 .5-1.8 1.6c-.7 1.2-1.6 2.9-2.5 5.3c2.3-.8 3.8-1.4 4.7-2c.9-.6 1.3-1.2 1.3-1.9c0-.5-.2-1.2-.6-1.9c-.3-.8-.7-1.1-1.1-1.1Zm123.7-1.2c-.4 0-.7 .2-1 .4c-.3 .3-.5 .6-.5 .9c0 .9 .7 1.7 2 2.5c1.3 .8 2.8 1.4 4.5 1.7c-.7-1.8-1.5-3.1-2.3-4c-.9-1-1.8-1.5-2.7-1.5Zm-486.7 0c-.4 0-.8 .2-1.1 .4c-.3 .3-.4 .6-.4 .9c0 .9 .6 1.7 1.9 2.5c1.3 .8 2.8 1.4 4.6 1.7c-.7-1.8-1.5-3.1-2.4-4c-.9-1-1.7-1.5-2.6-1.5Zm707.1-1.4c1.4 2.4 2.4 4.4 2.8 5.9c.4 1.4 .6 3.1 .6 5.2h2.7c3.1 0 5.2-.3 6.3-1c1.2-.8 1.8-2 1.8-3.8c0-.8 .1-1.4 .2-1.8c.2-.3 .5-.7 1.1-1.1l1.4-1c0 .4 .1 .9 .1 1.5c0 .7 0 1.1 0 1.3c0 1.1-.2 2.5-.5 4.3c.9 .3 1.9 .6 2.8 .9c.9 .2 1.8 .4 2.6 .5c0-.7-.3-1.6-.7-2.6c-.6-1-.8-1.7-.8-2c0-.3 0-.5 .1-.7c.1-.2 .2-.5 .5-.9l2.8-4c.5 1.3 .9 2.4 1.2 3.4c.2 1 .3 2.3 .3 3.9v11.2c-2.2 0-3.8-.1-4.7-.3c-.9-.2-2.7-.8-5.2-1.7c-1.2 .8-2.2 1.4-3.1 1.6c-.9 .3-2.3 .4-4.1 .4H1373c0 4.6-1.5 7.9-4.4 10c-2.6 1.7-6.5 2.6-11.6 2.6c-4.9 0-8.6-.9-11.2-2.6c-2.6-1.8-3.9-4.3-3.9-7.5c0-2.8 .4-5.3 1.2-7.6c1-2.5 2.7-5.8 5.4-9.8l1.8 1.2c-2 3.4-3.3 5.8-3.9 7.3c-.6 1.6-.9 3.1-.9 4.7c0 2.1 1.1 3.8 3.4 5.1c2.2 1.4 5.2 2 8.8 2c3.6 0 6.6-.7 9-2c2.5-1.4 3.7-3.1 3.7-5.1c0-1.2-.2-2.4-.7-3.6c-.4-1.3-1.3-3.2-2.7-5.9Zm47.6-.2c1.3 1.4 2.3 3 3.1 4.8c.7 1.8 1.1 3.9 1.1 6.2v9.1c0 1.2-.7 2.8-2.1 4.8c-1.4 2-3 3.8-4.9 5.2c-2 1.7-3.8 2.5-5.3 2.5c-1.7 0-3.6-.5-5.6-1.5c-1.8-.9-4.5-2.6-8.2-5.1l1.2-1.9c1.8 1.2 3.3 2 4.3 2.4c1.2 .4 2.3 .6 3.6 .6c1.4 0 2.7-.4 4.1-1.1c1.4-.8 3.3-2.2 5.6-4.3c3.3-3 5-5.2 5-6.8c0-.8-.3-1.9-1-3.2c-.7-1.4-1.6-2.7-2.6-3.6Zm-581.7 0c1.3 1.4 2.3 3 3.1 4.8c.7 1.8 1.1 3.9 1.1 6.2v9.1c0 1.2-.7 2.8-2.1 4.8c-1.4 2-3 3.8-4.9 5.2c-2.1 1.7-3.8 2.5-5.3 2.5c-1.8 0-3.6-.5-5.6-1.5c-1.8-.9-4.5-2.6-8.2-5.1l1.2-1.9c1.8 1.2 3.2 2 4.3 2.4c1.1 .4 2.3 .6 3.6 .6c1.4 0 2.7-.4 4.1-1.1c1.4-.8 3.2-2.2 5.6-4.3c3.3-3 5-5.2 5-6.8c0-.8-.4-1.9-1-3.2c-.7-1.4-1.6-2.7-2.6-3.6Zm89.5-1c-.6 .3-1.1 .5-1.4 .7c-1.1 .6-2 1.1-2.7 1.6c-.4 .4-.8 .8-1.2 1.1c-.4 .5-.6 .8-.6 1c0 .3 .4 .5 1.1 .7c.7 .1 1.4 .2 2 .2c.5 0 .9-.1 1.4-.4c.5-.2 1.2-.7 2.1-1.3Zm-170.1 0c-.6 .3-1.1 .5-1.5 .7c-1.1 .6-1.9 1.1-2.6 1.6c-.5 .4-.9 .8-1.2 1.1c-.4 .5-.6 .8-.6 1c0 .3 .4 .5 1 .7c.7 .1 1.4 .2 2.1 .2c.5 0 .9-.1 1.4-.4c.5-.2 1.1-.7 2-1.3Zm335.3-.7l1.7 1.1c-.4 .8-.8 1.5-1.1 2.1c-.3 .7-.5 1.2-.7 1.7c-.3 .9-.4 1.8-.4 2.7c0 1.2 .4 2.2 1.1 3.1c.7 .9 1.7 1.5 2.8 1.8c.7 .1 1.6 .3 2.7 .4c1.2 .1 2.3 .1 3.6 .1h21.5c-.5-1.6-1-2.6-1.3-3.2c-.5-.8-1.1-1.7-2.1-2.9l2.7-6.9c1.5 2.1 2.5 4.1 2.9 5.8c.4 1.6 .6 3.9 .6 6.9v8.4h-25c-1.2 0-2.2 0-3 0c-.8 0-1.4-.1-1.8-.1c-.7-.1-1.6-.3-2.5-.6c-1.6-.6-3-1.7-4-3.4c-1.1-1.7-1.6-3.6-1.6-5.7c0-.9 .1-1.7 .2-2.6c.1-.9 .3-1.8 .6-2.8c.4-1.2 .9-2.3 1.5-3.2c.5-1 1.1-1.9 1.6-2.7Zm345.1-7c2.6 1.9 4.4 4.4 5.5 7.4c1 2.8 1.5 6.5 1.5 11.2v9.5h-13.5c-1.3 0-2.3-.3-3-.8c-.9-.7-1.3-1.8-1.3-3.3c0-.9 .1-1.8 .2-2.9c0-1 .2-2 .4-3l1.1-.1c.1 .7 .5 1.2 1 1.5c.6 .4 1.2 .5 2 .5h10.3c-.5-2.9-1.3-5.2-2.4-7c-.9-1.4-2.2-2.7-3.9-3.8Zm-164.4 0c2.6 1.9 4.4 4.4 5.5 7.4c1 2.8 1.5 6.5 1.5 11.2v1.4h19c-2.4-2.5-4.6-4.3-6.6-5.3c-1.8-1-3.6-1.5-5.3-1.5c-.6 0-1 0-1.5 .1c-.4 0-1 .1-1.8 .3c1.1-2.5 2.3-4.4 3.6-5.5c1.4-1.2 2.9-1.8 4.6-1.8c1.3 0 2.6 .3 3.8 .9c1.2 .7 2.6 1.7 4.1 3.1c1.2 1.1 2.9 2.8 5 5.2c1.5 1.7 2.7 2.8 3.5 3.3c.7 .5 1.9 .9 3.5 1.2v8.1h-45.4c-1.4 0-2.4-.3-3.1-.8c-.8-.7-1.2-1.8-1.2-3.3c0-.9 0-1.8 .1-2.9c.1-1 .2-2 .4-3l1.1-.1c.2 .7 .6 1.2 1.1 1.5c.5 .4 1.2 .5 2 .5H1275c-.4-2.9-1.2-5.2-2.4-7c-.9-1.4-2.2-2.7-3.9-3.8Zm-162.7-3.2l5.5 3l-3.1 5.8l-4.4-2.2l-2.5 4.8l-5.4-3l3.3-6.1l4.2 2.4Zm-181.5-2.3l2.9 18.6c.4 2.9 1 4.9 1.8 5.9c.4 .7 1.1 1 1.9 1h6.1c2.1 0 3.8-.6 5.2-1.7c1.8-1.6 2.7-3.9 2.7-7l2 .3c-.1 .6-.1 1.3-.2 2.2c0 .8 0 1.7 0 2.7c0 1 .3 1.8 1 2.5c.7 .7 1.5 1 2.4 1h3.7c2.4 0 4.1-.3 5.2-1c1.2-.8 1.8-2.3 1.8-4.6c0-.4 .2-.9 .5-1.2c.2-.3 .5-.6 1.1-1l1.1-.9c.1 .4 .1 .9 .1 1.5c0 .7 .1 1.1 .1 1.3c0 1.1-.2 2.5-.5 4.3c.7 .4 1.5 .7 2.4 1c1 .2 1.9 .4 2.9 .6c0-.7-.2-1.6-.7-2.7c-.5-1-.7-1.8-.7-2.1c0-.6 0-1 .2-1.2c0-.1 .2-.4 .6-1l2.6-3.4c.5 1.3 .9 2.4 1.1 3.4c.2 1 .3 2.3 .3 3.9v11.2c-2.2 0-4-.1-5.5-.5c-1.5-.3-2.9-.8-4.4-1.5c-1.1 .8-2.1 1.4-3 1.6c-.9 .3-2.3 .4-4.1 .4h-4.9c-1.3 0-2.4-.3-3.1-1c-.8-.7-1.5-1.9-2.1-3.5c-1.1 1.7-2.3 2.9-3.7 3.6c-1.1 .6-2.5 .9-4.1 .9h-6.1c-.7 0-1.3-.1-1.9-.4c-1.2-.6-2.2-1.6-3-3.2c-1-2.1-1.7-5-2-8.6c-1.4 1.6-2.4 2.8-3.2 3.5c-1.1 1-2 1.5-2.7 1.5c-.4 0-.9 0-1.5-.1l-3.6-.8c-1.6-.3-2.5-.5-2.9-.6c-.3-.2-.5-.4-.5-.8c0-.5 .7-2.2 2.1-5.1c1.3-2.8 2.3-4.6 3-5.3c.5-.5 1.3-1.2 2.6-2.1c.8-.5 1.8-1.1 3.2-1.9l1.6-1c-.1-.2-.1-.5-.1-.8c0-.3-.1-.6-.1-.8c0-.8 .2-1.7 .6-2.9c.3-1.1 .9-2.5 1.8-4.2Zm-170.1 0l2.8 18.6c.5 2.9 1.1 4.9 1.8 5.9c.5 .7 1.2 1 2 1h17.5c-.3-1.3-.7-2.5-1.2-3.4c-.3-.5-1-1.4-2.1-2.7l2.4-7.1c1.5 1.7 2.5 3.5 3 5.3c.5 1.6 .8 3.9 .8 6.9v1h13.6c-.3-1.3-.7-2.5-1.2-3.4c-.3-.5-1-1.4-2.1-2.7l2.4-7.1c1.5 1.7 2.5 3.5 3 5.3c.6 1.9 .8 4.6 .8 8.2v7.8H763.2c-.7 0-1.4-.1-2-.4c-1.1-.6-2.1-1.6-2.9-3.2c-1.1-2.1-1.8-5-2.1-8.6c-1.3 1.6-2.4 2.8-3.1 3.5c-1.1 1-2 1.5-2.8 1.5c-.4 0-.8 0-1.4-.1l-3.7-.8c-1.5-.3-2.5-.5-2.8-.6c-.4-.2-.5-.4-.5-.8c0-.5 .6-2.2 2-5.1c1.4-2.8 2.4-4.6 3-5.3c.5-.5 1.4-1.2 2.7-2.1c.7-.5 1.8-1.1 3.2-1.9l1.6-1c-.1-.2-.1-.5-.2-.8c0-.3 0-.6 0-.8c0-.8 .2-1.7 .5-2.9c.4-1.1 1-2.5 1.9-4.2Zm477.2-1.3l5.5 3.1l-3.1 5.7l-4.4-2.2l-2.5 4.9l-5.4-3.1l3.2-6.1l4.3 2.4Zm-439.6 0l5.5 3.1l-3.3 6l-4.2-2.3l-2.4 4.7l-5.6-3.1l3.1-5.8l4.4 2.2Zm210.9-1.2l7 3.7l-3.6 6.6l-7-3.6Zm444.8-.1l1.7 10.6c.7 4 1.2 7.5 1.4 10.4c.2 2.3 .3 4.5 .3 6.6c0 1.7-.2 3.3-.6 4.8c-.4 1.4-1.2 3.4-2.4 5.9l-1.8-.7c.5-2.6 .7-4.6 .7-6.2c0-1.2-.1-3-.3-5.4c-.2-2.3-.4-4.6-.7-6.9c-.3-2.3-.8-5.1-1.5-8.2c-.2-1.2-.4-1.9-.4-2.3c0-.7 .4-1.7 1-3.2c.6-1.5 1.4-3.3 2.6-5.4Zm-132.5 0l1.8 10.6c.6 4 1.1 7.5 1.3 10.4c.2 2.3 .3 4.5 .3 6.6c0 1.7-.2 3.3-.6 4.8c-.4 1.4-1.2 3.4-2.4 5.9l-1.8-.7c.5-2.6 .7-4.6 .7-6.2c0-1.2-.1-3-.3-5.4c-.2-2.3-.4-4.6-.7-6.9c-.3-2.3-.8-5.1-1.5-8.2c-.2-1.2-.4-1.9-.4-2.3c0-.7 .3-1.7 1-3.2c.6-1.5 1.5-3.3 2.6-5.4Zm-256.2 0l1.8 10.6c.6 4 1.1 7.5 1.3 10.4c.2 2.3 .3 4.5 .3 6.6c0 1.7-.2 3.3-.6 4.8c-.4 1.4-1.2 3.4-2.4 5.9l-1.8-.7c.5-2.6 .7-4.6 .7-6.2c0-1.2-.1-3-.3-5.4c-.2-2.3-.4-4.6-.7-6.9c-.3-2.3-.8-5.1-1.5-8.2c-.2-1.2-.3-1.9-.3-2.3c0-.7 .3-1.7 .9-3.2c.6-1.5 1.5-3.3 2.6-5.4Zm-172.2 0l1.8 10.6c.7 4 1.1 7.5 1.4 10.4c.2 2.3 .3 4.5 .3 6.6c0 1.7-.2 3.3-.6 4.8c-.4 1.4-1.3 3.4-2.4 5.9l-1.8-.7c.4-2.6 .7-4.6 .7-6.2c0-1.2-.1-3-.3-5.4c-.2-2.3-.5-4.6-.8-6.9c-.3-2.3-.7-5.1-1.4-8.2c-.3-1.2-.4-1.9-.4-2.3c0-.7 .3-1.7 .9-3.2c.7-1.5 1.5-3.3 2.6-5.4Zm-81.4 0l1.8 10.6c.7 4 1.1 7.5 1.4 10.4c.2 2.3 .3 4.5 .3 6.6c0 1.7-.2 3.3-.6 4.8c-.4 1.4-1.3 3.4-2.4 5.9l-1.8-.7c.4-2.6 .7-4.6 .7-6.2c0-1.2-.1-3-.3-5.4c-.2-2.3-.5-4.6-.8-6.9c-.3-2.3-.7-5.1-1.4-8.2c-.3-1.2-.4-1.9-.4-2.3c0-.7 .3-1.7 .9-3.2c.7-1.5 1.5-3.3 2.6-5.4Zm-88.9 0l1.8 10.6c.7 4 1.1 7.5 1.4 10.4c.2 2.3 .3 4.5 .3 6.6c0 1.7-.2 3.3-.6 4.8c-.5 1.4-1.3 3.4-2.5 5.9l-1.7-.7c.4-2.6 .7-4.6 .7-6.2c0-1.2-.1-3-.3-5.4c-.2-2.3-.5-4.6-.8-6.9c-.3-2.3-.8-5.1-1.4-8.2c-.3-1.2-.4-1.9-.4-2.3c0-.7 .3-1.7 .9-3.2c.6-1.5 1.5-3.3 2.6-5.4Zm-103.8-2.3l1.4 .7c-.1 .3-.2 .6-.2 1c0 .7 .5 1.4 1.3 1.9c1.2 .7 2.3 1.3 3.4 1.9c-.2 1.7-.4 2.9-.7 3.7c-.2 .7-.6 1.8-1.3 3.3l-.9-.4c0 .3 .3 2 .8 5.1c.6 3.1 1.1 5.8 1.5 8c.4 2.4 .6 4.1 .7 5.1l.1 .1h13.5c-.2-1.3-.6-2.5-1.1-3.4c-.4-.5-1-1.4-2.1-2.7l2.3-7.1c1.5 1.7 2.6 3.5 3.1 5.3c.6 1.9 .8 4.6 .8 8.2v7.8H620.9l-.2 1.5c-.6 2.2-2.1 4.1-4.5 5.9c-3.1 2.4-6.8 3.6-10.8 3.6c-3.5 0-6.1-.9-8-2.6c-1.9-1.7-2.9-4.1-2.9-7.2c0-2.9 .4-5.4 1.1-7.6c.8-2.4 2.4-5.3 4.7-8.9l1.9 1.3c-1.6 2.3-2.7 4.3-3.3 6c-.7 1.7-1 3.4-1 5.1c0 1.8 .7 3.2 2 4.2c1.3 1 3.2 1.5 5.7 1.5c3.5 0 6.3-.7 8.5-2c2.2-1.4 3.3-3.2 3.3-5.3c0-.4 0-.7 0-.9c0-.3 0-.4 0-.5c0-.8-.1-1.7-.2-2.6c-.1-.9-.5-2.9-1-5.8c-.9-4.7-1.7-9.4-2.6-14.1l-1.5-1.1c0-2 1-5 2.8-9Zm432.5 0l1.4 .7c0 .1-.1 .4-.1 1c0 .6 .4 1.2 1.2 1.9c.7 .5 1.9 1.1 3.5 1.8c-.2 1.3-.4 2.5-.8 3.7c-.3 1.2-.7 2.3-1.2 3.3l-1-.4l3.2 18.4v8.1h-20.3c-.5 0-1 0-1.4 0c-.5 0-1.2 .1-2.1 .2c.7 .4 1.4 .8 2.1 1.2c.7 .5 1 1.2 1 2c0 .8-.1 1.6-.3 2.5c-.1 .5-.4 1.3-.9 2.6c-.8 2.5-1.6 4.2-2.3 5.1c-.7 .9-1.6 1.3-2.7 1.3c-2.8 0-5.2-1.5-7.2-4.4c-2-2.9-3-6.4-3-10.5H981.8c-1.3 0-2.3-.3-3-.8c-.8-.7-1.3-1.8-1.3-3.3c0-.9 .1-1.8 .2-2.9c.1-1 .2-2 .4-3l1.1-.1c.2 .7 .5 1.2 1.1 1.5c.5 .4 1.2 .5 2 .5h10.2c-.5-2.9-1.2-5.2-2.4-7c-.9-1.4-2.2-2.7-3.9-3.8l2.2-9.2c2.5 1.9 4.4 4.4 5.5 7.4c.9 2.8 1.4 6.5 1.4 11.2v1.4h13.6c-.2-1.3-.6-2.5-1.2-3.4c-.3-.5-1-1.4-2.1-2.7l2.4-7.1c1.5 1.7 2.5 3.5 3.1 5.3c.4 1.6 .7 3.9 .8 6.9v1h.5c1.1 0 2.2-.1 3.3-.3c1.3-.3 2.1-.4 2.6-.6c2.2-5.9 4.2-10.2 5.9-12.9c1.4-2.3 2.8-3.5 4.1-3.5c1 0 1.9 1 2.6 3c.6 1.7 .9 3.4 .9 5c0 2.4-.4 4.3-1.3 5.9c-1 1.8-2.5 3.1-4.5 4c1.5-.3 2.8-.4 4-.5c1.2-.1 2.3-.1 3.3-.1H1050l-3.6-20.2l-1.9-1.3c0-1.2 .2-2.3 .6-3.5c.4-1.5 1.2-3.3 2.3-5.4Zm-172.2 0l1.4 .7c0 .1 0 .4-.1 1c0 .6 .4 1.2 1.3 1.9c.7 .5 1.9 1.1 3.5 1.8c-.2 1.3-.5 2.5-.8 3.7c-.4 1.2-.8 2.3-1.2 3.3l-1.1-.4l3.3 18.4v8.1H867l-.1 .5c-.5 2.6-1.9 5.1-4 7.6c-2.9 3.3-5.8 5-8.6 5c-1.7 0-3.5-.5-5.4-1.6c-2-1-5-3.1-9.1-6.2l1.3-1.7c2.1 1.4 3.9 2.4 5.3 2.8c1.1 .4 2.4 .6 3.8 .6c1.9 0 3.9-.5 5.7-1.6c2.3-1.3 4.6-3.3 7-6.1c-.9 .1-1.6 .1-2.1 .1c-2 0-3.6-.6-4.7-1.9c-1.2-1.2-1.8-3-1.8-5.2c0-3 .7-5.9 2.1-8.6c1.5-3 3.2-4.5 5.1-4.5c1.6 0 2.9 1.1 4 3.2c1.1 2.2 1.7 4.8 1.7 7.9v1.6h10.7l-3.6-20.2l-1.9-1.3c0-1.2 .2-2.3 .5-3.5c.5-1.5 1.2-3.3 2.3-5.4Zm-170.3 0l1.4 .7c0 .1 0 .4-.1 1c0 .6 .4 1.2 1.2 1.9c.8 .5 1.9 1.1 3.6 1.8c-.2 1.3-.5 2.5-.8 3.7c-.4 1.2-.8 2.3-1.2 3.3l-1.1-.4l3.3 18.4v8.1H694.8v-.1l-.4-.1c-1.5-.2-3.1-.5-4.9-1c-2.5-.7-4.6-1.6-6.5-2.6c-1.2 1.8-2.6 2.9-4.3 3.4c-.8 .3-1.9 .4-3.3 .4H647.6c-2.3 0-4-.9-5-2.8c-1.2-2.1-1.8-5.7-1.8-10.7v-8.5c0-1.9-.2-3.4-.8-4.5c-.2-.5-.8-1.2-1.8-2.2l3.2-7.5c1.2 1.6 2 3.2 2.5 4.7c.5 1.8 .8 4.2 .8 7v5.8c0 4.2 .2 7.1 .8 8.7c.4 1.3 1.1 1.9 2.1 1.9H655c.9 0 1.8 0 2.6 .1c2.2 .3 4.7 .5 7.5 .8c-3-.6-5-1.5-6.2-2.6c-1.2-1-1.8-2.6-1.8-4.7c0-3.1 .7-5.9 2.2-8.3c1.4-2.5 3-3.7 4.7-3.7c2 0 3.8 1.7 5.3 5.2c1.5 3.4 2.3 7.6 2.3 12.5v.7h3.8c1.8 0 3.2-.2 4.2-.6c1.4-.6 2.3-1.6 2.8-2.9c1.2-2.6 2.6-4.6 4.4-6.3c1.6-1.4 2.9-2.1 4-2.1c1 0 2.2 1.5 3.7 4.6c1.2 2.4 2 4.7 2.2 6.8l.1 .5h10.8L704 306.1l-1.9-1.3c0-1.2 .1-2.3 .5-3.5c.5-1.5 1.2-3.3 2.3-5.4Zm444.2-.4l5.5 3.1l-3.1 5.7l-4.4-2.2l-2.5 4.9l-5.4-3.1l3.2-6.1l4.3 2.4Zm-486.8 0l5.6 3.1l-3.1 5.7l-4.5-2.2l-2.5 4.9l-5.4-3.1l3.3-6.1l4.2 2.4Zm536.5-2l1.4 .6c0 .1-.1 .4-.2 .8c0 .7 1 1.5 3 2.4c.6 .4 1.6 .8 2.9 1.3c-.2 1.5-.5 3-.9 4.3c-.2 .7-.6 1.7-1.2 3.2l-1.1-.4c.6 2.8 1.1 4.9 1.2 6.3c.3 1.3 .4 2.5 .4 3.5v.4c0 .6 0 1-.1 1.3c0 .4-.1 .9-.2 1.6c1-.8 2-1.5 3.1-2.3c1.6-1.1 3.1-2 4.3-2.7c1.7-1 3-1.4 3.8-1.4c2.4 0 4.3 .6 5.7 1.8c1.6 1.4 2.4 3.4 2.4 5.9v6.2h13.5c-.2-1.3-.6-2.5-1.2-3.4c-.3-.5-1-1.4-2.1-2.7l2.4-7.1c1.5 1.7 2.5 3.5 3.1 5.3c.5 1.9 .8 4.6 .8 8.2v7.8H1134.3c-2.3 0-4-.9-5-2.8c-1.2-2.1-1.7-5.7-1.7-10.7v-8.5c0-1.9-.3-3.4-.8-4.5c-.3-.5-.9-1.2-1.8-2.2l3.2-7.5c1.1 1.6 2 3.2 2.4 4.7c.6 1.8 .8 4.2 .8 7v5.8c0 4.2 .3 7.1 .9 8.7c.4 1.3 1.1 1.9 2 1.9h7.5c.9 0 1.8 0 2.6 .1c2.2 .3 4.7 .5 7.5 .8c-3-.6-5.1-1.5-6.3-2.6c-1.1-1-1.7-2.6-1.7-4.7c0-3.1 .7-5.9 2.1-8.3c1.4-2.5 3-3.7 4.8-3.7c2 0 3.7 1.7 5.2 5.2c1.5 3.4 2.3 7.6 2.3 12.5v.7h13.6c-.2-1.3-.6-2.5-1.2-3.4c-.3-.5-1-1.4-2.1-2.7l2.4-7.1c1.5 1.7 2.5 3.5 3.1 5.3c.4 1.6 .7 3.9 .8 6.9v1h13.5c-.2-1.3-.6-2.5-1.2-3.4c-.3-.5-1-1.4-2.1-2.7l2.4-7.1c1.5 1.7 2.5 3.5 3.1 5.3c.4 1.6 .7 3.9 .8 6.9v1h1.8c.5 0 1.8-.8 4-2.5c.7-.5 1.8-1.3 3.2-2.5c0-2.4-.1-4.5-.3-6.2c-.2-1.6-.4-3.4-.8-5.2c-.1-.5-.7-2.6-1.6-6.5l-1.8-1.1c.5-2.1 .9-3.6 1.2-4.5c.2-.9 .8-2.3 1.7-4.3Zm-410.5-.9l5.6 2.9l-3 6.2l-5.6-3ZM925 289.9l5.4 2.7l-3.3 5.6l-4.3-2.4l-2.3 4.7l-5.6-3l3.1-5.3l4.4 2.2Zm-170.1 0l5.3 2.7l-3.3 5.6l-4.2-2.4l-2.4 4.7l-5.5-3l3.1-5.3l4.4 2.2Zm563.4-.2c.4 0 .7 .1 .9 .3c.3 .3 .4 .6 .4 1c0 .3-.1 .6-.2 .8c-.1 .3-.2 .6-.5 1.1c-1-.5-1.7-.8-2-.8c-.4 0-.8 .1-1.1 .3c-.3 .1-.5 .3-.7 .5c0 .2 .5 .6 1.5 1.2c.9 .5 1.6 .8 2 .8c.3 0 1-.2 2.2-.5c-.3 .6-.5 1-.8 1.3c-.2 .2-.6 .4-1 .6l-6.5 1.9c.4-.7 .8-1.2 1.1-1.4c.3-.3 .8-.5 1.6-.8c-.6-.3-1-.7-1.2-1c-.3-.3-.4-.6-.4-.9c0-.2 .1-.5 .2-.9c.2-.3 .4-.6 .7-.9c1.3-1.8 2.6-2.6 3.8-2.6Z" class="g1_70"/>
<path fill-rule="evenodd" d="M561.9 334.8h8.3v8.4h-8.3Zm0-23.3h8.3v8.4h-8.3Z" class="g0_70"/>
<path d="M561.9 334.8h8.3v8.4h-8.3Zm0-23.3h8.3v8.4h-8.3Z" class="g1_70"/>
<path fill-rule="evenodd" d="M1333.6 437l4.6 2.4l-2.2 4l-4.6-2.3l-2.2 3.9l-4.6-2.4l2.3-4.1l4.5 2.3Zm-88-10.1l6.9 3.7l-3.5 6.7l-7-3.6Zm42.4-.3l5.6 3.1l-3.1 5.8l-4.4-2.2l-2.6 4.8l-5.4-3.1l3.3-6l4.2 2.4Zm-267.5 0l5.6 3.1l-3.1 5.8l-4.4-2.2l-2.5 4.8l-5.5-3.1l3.3-6l4.3 2.4Zm68.4-10.1c-.9 .9-1.6 1.6-2 2c-.5 .5-1.3 1.1-2.5 1.9c1.5-.1 2.6-.3 3.2-.5c.7-.2 1.6-.6 2.7-1.2Zm357.3-5.1c-.8 0-1.4 .8-2 2.6c1.1 .4 1.8 .7 2.4 .9c1.6 .6 2.5 .9 2.7 .9c.4 0 .7-.1 .7-.4c0-.4-.5-1.2-1.3-2.3c-1-1.1-1.8-1.7-2.5-1.7ZM1342.4 405c1.1 0 2 .5 2.7 1.3c.7 .9 1 2.1 1 3.6c0 1.1-.1 2-.3 2.7c-.2 .8-.7 1.7-1.4 2.9c-.6-1.4-1-2.4-1.4-2.8c-.3-.4-.9-.6-1.6-.6c-1 0-2.5 .6-4.4 1.8c-1.9 1.2-2.8 2.3-2.8 3.1c0 .4 .4 .7 1.1 .9c.5 .1 1.4 .2 2.5 .2c.3 0 .6 0 .9 0c.3 0 .6 0 .9 0c2.1 0 3.6 .2 4.3 .6c.6 .4 .9 1.1 .9 2.2c0 2.2-.4 4.2-1.2 6.2c-1 2.5-2.4 4.3-4.3 5.3c-2.4 1.3-4.8 2.4-7.4 3.2c-2.5 .8-4.9 1.2-7.1 1.2c-6.2 0-9.3-2.7-9.3-8.3c0-2.8 .4-5.2 1.1-7.2c.7-2.3 2.4-5.4 4.9-9.2l1.4 .9c-1.5 2.4-2.6 4.7-3.4 6.6c-.7 1.9-1.1 3.6-1.1 5.1c0 3.7 2.1 5.6 6.4 5.6c1.6 0 3.1-.1 4.5-.4c1.5-.3 2.9-.7 4.4-1.2c.9-.4 2-.8 3.3-1.3c1.9-.9 3-1.4 3.1-1.4c.9-.5 1.3-.9 1.3-1.3c0-.2-.5-.3-1.4-.4c-1-.1-1.7-.1-2.1-.1c-3 0-5.1-.4-6.1-1.3c-.8-.7-1.3-2-1.3-4c0-.9 .3-2 .9-3.4c.6-1.4 1.4-2.8 2.3-4.1c1.5-2.1 2.9-3.7 4.4-4.8c1.4-1.1 2.9-1.6 4.3-1.6Zm-276.8-1.9c1.5 1.7 2.5 3.5 3 5.3c.6 1.9 .9 4.6 .9 8.3v7.7h-16.6v.7c0 1.2-.7 2.8-2.1 4.8c-1.4 2-3 3.8-4.9 5.2c-2 1.7-3.8 2.5-5.3 2.5c-1.7 0-3.6-.5-5.6-1.5c-1.8-.9-4.5-2.6-8.2-5.1l1.2-1.9c1.8 1.2 3.3 2 4.3 2.4c1.2 .4 2.3 .7 3.6 .7c1.4 0 2.7-.4 4.1-1.2c1.4-.8 3.3-2.2 5.6-4.3c3.3-3 5-5.2 5-6.8c0-.8-.3-1.9-1-3.2c-.7-1.4-1.6-2.6-2.6-3.6l1.7-8.1c1.3 1.4 2.4 3 3.1 4.8c.7 1.8 1.1 3.9 1.1 6.2v.3h13.6c-.2-1.3-.6-2.5-1.2-3.4c-.3-.5-1-1.4-2.1-2.7Zm-42.9 0c1.5 1.7 2.5 3.5 3 5.3c.6 1.9 .9 4.6 .9 8.3v7.7h-20.5c-3.6 0-6.8 .3-9.7 .9c-2.7 .6-4.2 1.4-4.2 2.2c.8 2.3 1.5 4.6 2.1 6.7c.6 2 .9 4 .9 5.9c0 1.3-.1 2.4-.4 3.3c-.2 .8-.8 1.7-1.5 2.7c-.2-2.6-.7-5.4-1.4-8.2c-.3-1.1-1-3.2-2-6.5c-.6-2-.9-3.3-.9-3.9c0-1 .2-2.2 .7-3.5c.5-1.2 .9-2.2 1.5-3.1c.6-.9 1.7-1.7 3.3-2.3c1.6-.6 4-1 7.2-1.4c-1.6-2.2-3-3.3-4.2-3.3c-.5 0-.9 .2-1.4 .6c-.5 .4-1.2 1.2-2.2 2.6l-1.5-.7c.9-3.1 2-5.4 3.3-7.1c1.2-1.6 2.6-2.4 4.2-2.4c1.3 0 2.8 .7 4.4 2.3c1.7 1.5 3.5 3.9 5.7 7.1h13.6c-.2-1.3-.6-2.5-1.2-3.4c-.3-.5-1-1.4-2.1-2.7Zm241.9-.7c2.8 0 5 .5 6.6 1.6c1.5 1.1 2.3 2.5 2.3 4.4c0 1-.2 2-.6 2.9c-.4 1-1.2 2.2-2.4 3.8c.3 .4 .7 .7 1.2 .9c.5 .2 .9 .3 1.4 .3h18c-.3-1.3-.7-2.5-1.2-3.4c-.3-.5-1-1.4-2.1-2.7l2.4-7.1c1.5 1.7 2.5 3.5 3 5.3c.6 1.9 .8 4.6 .8 8.3v7.7h-20.9c-1.6 0-3-.3-4.2-.9c-1.2-.7-2.1-1.7-2.9-3.1c-1.3 1.6-3 2.7-5 3.4c-1.4 .4-2.9 .6-4.5 .6H1239v.7c0 1.2-.7 2.8-2.1 4.8c-1.4 2-3 3.8-4.9 5.2c-2.1 1.7-3.8 2.5-5.3 2.5c-1.8 0-3.6-.5-5.6-1.5c-1.8-.9-4.5-2.6-8.2-5.1l1.2-1.9c1.8 1.2 3.2 2 4.3 2.4c1.1 .4 2.3 .7 3.6 .7c1.4 0 2.7-.4 4.1-1.2c1.4-.8 3.2-2.2 5.6-4.3c3.3-3 5-5.2 5-6.8c0-.8-.4-1.9-1-3.2c-.7-1.4-1.6-2.6-2.6-3.6l1.7-8.1c1.3 1.4 2.3 3 3.1 4.8c.7 1.8 1.1 3.9 1.1 6.2v.3h13.6c-.3-1.3-.7-2.5-1.2-3.4c-.3-.5-1-1.4-2.1-2.7l2.4-7.1c1.5 1.7 2.5 3.5 3 5.3c.5 1.7 .8 3.9 .8 6.9v1h1c1.7 0 2.8-.1 3.5-.2c.6-.2 1.5-.6 2.7-1.2c-.6-1.1-1.1-2-1.6-2.5c-.5-.6-1.1-.9-1.6-.9c-.3 0-.5 .1-.7 .2c-.1 .1-.4 .4-.6 .8l-1.3-.1c0-3.6 .6-6.2 1.9-7.7c1.2-1.6 3.2-2.3 5.8-2.3Zm-88.3-4.1c2.2 0 4.3 .7 6.3 2.2c1.9 1.3 3.2 3 4.1 4.9l-1.3 1.1c-1.6-.6-2.8-1-3.7-1.2c-1-.2-2.1-.3-3.4-.3c-2.5 0-4.6 .2-6.5 .6c-2.2 .5-3.4 1.2-3.4 2.2c0 1.4 2.8 3.6 8.3 6.8l15.2-4.4l-3.4 8.5c-5.3 1.6-9.8 2.9-13.3 3.8c-3 .8-5.6 1.3-7.7 1.6c-1.5 .2-3 .3-4.6 .3h-.6v.5c-.1 1.9-.3 3.4-.7 4.7c-.6 1.6-1.5 3-2.7 4c-1.2 1-3 1.8-5.4 2.5c-2.3 .6-4.7 1-7.2 1c-4.9 0-8.6-.9-11.2-2.7c-2.6-1.7-3.9-4.3-3.9-7.5c0-2.7 .4-5.3 1.2-7.6c1-2.5 2.7-5.8 5.4-9.8l1.8 1.3c-2 3.3-3.3 5.7-3.9 7.3c-.6 1.5-.9 3-.9 4.6c0 2.1 1.1 3.8 3.4 5.2c2.2 1.3 5.1 1.9 8.8 1.9c3.6 0 6.6-.6 9-2c2.5-1.4 3.7-3.1 3.7-5.1c0-1.2-.2-2.4-.7-3.6c-.4-1.2-1.3-3.2-2.7-5.8l2.6-8.1c1.4 2.5 2.3 4.3 2.6 5.2c.5 1.5 .8 3.4 .8 5.6v.3h1.2c.5 0 1 0 1.2 0c.6-.1 1.2-.1 1.8-.2c-1-1.5-1.6-2.7-2-3.6c-.3-.9-.5-2-.5-3.1c0-3 1.2-5.6 3.7-7.8c2.4-2.2 5.3-3.3 8.6-3.3Zm-30.7-2.5l7 3.7l-3.6 6.7l-7-3.6Zm-101.2-4.9l7 3.7l-3.6 6.6l-7-3.6Zm18.3-2.6l6.9 3.7l-3.5 6.7l-7-3.7Zm357.2 0c1.1 1.5 1.9 3.1 2.4 4.7c.5 1.8 .8 4.1 .8 6.9v5.8c0 4.2 .3 7.1 .8 8.7c.5 1.3 1.2 1.9 2.1 1.9h8c1.8 0 3.2-.2 4.3-.6c1.3-.6 2.2-1.6 2.8-2.9c1.1-2.5 2.5-4.6 4.3-6.2c1.6-1.5 2.9-2.2 4-2.2c1 0 2.3 1.5 3.8 4.6c1.5 3.2 2.3 6.2 2.3 8.9v6.5c-2.1 0-4.5-.4-7.3-1.2c-2.5-.7-4.7-1.6-6.6-2.5c-1.1 1.7-2.6 2.8-4.3 3.3c-.8 .3-1.9 .4-3.3 .4h-8c-2.3 0-4-.9-5-2.8c-1.2-2.1-1.8-5.7-1.8-10.7v-8.5c0-1.9-.2-3.4-.7-4.5c-.3-.5-.9-1.2-1.8-2.2Zm-26.7 0l1.8 10.5c.7 4 1.1 7.5 1.4 10.4c.2 2.3 .3 4.5 .3 6.6c0 1.7-.3 3.3-.7 4.8c-.4 1.5-1.2 3.4-2.4 5.9l-1.8-.7c.5-2.6 .8-4.6 .8-6.2c0-1.2-.2-3-.4-5.4c-.2-2.3-.4-4.6-.7-6.9c-.3-2.3-.8-5.1-1.5-8.2c-.2-1.1-.3-1.9-.3-2.3c0-.6 .3-1.7 .9-3.2c.6-1.5 1.5-3.2 2.6-5.3Zm-286.5 0l1.7 10.5c.7 4 1.2 7.5 1.4 10.4c.2 2.3 .3 4.5 .3 6.6c0 1.7-.2 3.3-.6 4.8c-.4 1.5-1.2 3.4-2.4 5.9l-1.8-.7c.5-2.6 .7-4.6 .7-6.2c0-1.2-.1-3-.3-5.4c-.2-2.3-.4-4.6-.8-6.9c-.2-2.3-.7-5.1-1.4-8.2c-.2-1.1-.4-1.9-.4-2.3c0-.6 .4-1.7 1-3.2c.6-1.5 1.4-3.2 2.6-5.3Zm-15.5-.3l1.3 .5c0 1.2 .3 2.1 .9 2.5c.4 .3 2 .9 4.7 1.7c0 1.4-.1 2.8-.4 4.3c-.1 .6-.4 1.6-.8 3.2l-2.2-.8c0 2.3-.3 4.7-.8 7c-.6 2.3-1.5 4.6-2.7 6.9c1.1 1.9 1.7 3.1 1.9 3.4c.5 .9 .7 1.8 .7 2.5v.9c0 .5-.1 2.5-.4 6.1c-2.3 1.1-4.3 1.8-6.1 2.1c-1.8 .3-4.4 .5-8 .5v-8.9c2-1 3.5-1.9 4.4-2.6c.8-.7 1.9-1.9 3.3-3.6c-2.2-2.9-3.9-4.9-4.9-6.1c-.8-.9-1.9-2-3.2-3.3c-.3 .7-.6 1.1-.7 1.3c-.2 .2-.3 .3-.5 .3c-.4 0-1.3-.4-2.6-1.2c-1.2-.7-2.1-1.4-2.8-2c-.6-.5-1.1-1.6-1.4-3.2c-.3-1.6-.5-3.6-.5-6c0-1.1 .1-1.9 .2-2.3c.1-.4 .4-.6 .8-.6c.8 0 2.4 1.1 4.7 3.3c2.1 1.9 3.9 3.9 5.4 5.8c1.3 1.3 2.4 2.7 3.5 4.1c.9 1.2 2.3 3.3 4.2 6.2c.9-1.6 1.5-3.8 1.9-6.4c.2-1.6 .3-3.5 .3-5.7c-.7-.4-1.2-.7-1.5-1c-.2-.4-.4-.8-.4-1.3c0-1.2 .2-2.5 .4-3.7c.3-1.2 .7-2.5 1.3-3.9Zm288.2-2.1l1.4 .7c0 .1-.1 .4-.1 1c0 .6 .4 1.2 1.2 1.9c.8 .5 1.9 1.2 3.5 1.8c-.1 1.3-.4 2.5-.8 3.8c-.3 1.2-.7 2.2-1.1 3.2l-1.1-.4l3.2 18.4v8.1h-27.7c-1.4 0-2.4-.2-3.1-.8c-.8-.7-1.2-1.8-1.2-3.3c0-.9 0-1.8 .1-2.8c.1-1 .2-2.1 .4-3.1l1.1-.1c.2 .7 .6 1.2 1.1 1.6c.5 .3 1.2 .4 2 .4h10.2c-.4-2.9-1.2-5.2-2.4-7c-.9-1.4-2.2-2.7-3.9-3.7l2.2-9.3c2.6 1.9 4.4 4.4 5.5 7.4c1 2.8 1.5 6.5 1.5 11.2v1.4h10.7l-3.6-20.2l-2-1.3c0-1.1 .2-2.3 .6-3.5c.4-1.5 1.2-3.3 2.3-5.4Zm-20.1-4.3l7 3.7l-3.6 6.7l-7-3.7Z" class="g0_70"/>
<path d="M1333.6 437l4.6 2.4l-2.2 4l-4.6-2.3l-2.2 3.9l-4.6-2.4l2.3-4.1l4.5 2.3Zm-88-10.1l6.9 3.7l-3.5 6.7l-7-3.6Zm42.4-.3l5.6 3.1l-3.1 5.8l-4.4-2.2l-2.6 4.8l-5.4-3.1l3.3-6l4.2 2.4Zm-267.5 0l5.6 3.1l-3.1 5.8l-4.4-2.2l-2.5 4.8l-5.5-3.1l3.3-6l4.3 2.4Zm68.4-10.1c-.9 .9-1.6 1.6-2 2c-.5 .5-1.3 1.1-2.5 1.9c1.5-.1 2.6-.3 3.2-.5c.7-.2 1.6-.6 2.7-1.2Zm357.3-5.1c-.8 0-1.4 .8-2 2.6c1.1 .4 1.8 .7 2.4 .9c1.6 .6 2.5 .9 2.7 .9c.4 0 .7-.1 .7-.4c0-.4-.5-1.2-1.3-2.3c-1-1.1-1.8-1.7-2.5-1.7ZM1342.4 405c1.1 0 2 .5 2.7 1.3c.7 .9 1 2.1 1 3.6c0 1.1-.1 2-.3 2.7c-.2 .8-.7 1.7-1.4 2.9c-.6-1.4-1-2.4-1.4-2.8c-.3-.4-.9-.6-1.6-.6c-1 0-2.5 .6-4.4 1.8c-1.9 1.2-2.8 2.3-2.8 3.1c0 .4 .4 .7 1.1 .9c.5 .1 1.4 .2 2.5 .2c.3 0 .6 0 .9 0c.3 0 .6 0 .9 0c2.1 0 3.6 .2 4.3 .6c.6 .4 .9 1.1 .9 2.2c0 2.2-.4 4.2-1.2 6.2c-1 2.5-2.4 4.3-4.3 5.3c-2.4 1.3-4.8 2.4-7.4 3.2c-2.5 .8-4.9 1.2-7.1 1.2c-6.2 0-9.3-2.7-9.3-8.3c0-2.8 .4-5.2 1.1-7.2c.7-2.3 2.4-5.4 4.9-9.2l1.4 .9c-1.5 2.4-2.6 4.7-3.4 6.6c-.7 1.9-1.1 3.6-1.1 5.1c0 3.7 2.1 5.6 6.4 5.6c1.6 0 3.1-.1 4.5-.4c1.5-.3 2.9-.7 4.4-1.2c.9-.4 2-.8 3.3-1.3c1.9-.9 3-1.4 3.1-1.4c.9-.5 1.3-.9 1.3-1.3c0-.2-.5-.3-1.4-.4c-1-.1-1.7-.1-2.1-.1c-3 0-5.1-.4-6.1-1.3c-.8-.7-1.3-2-1.3-4c0-.9 .3-2 .9-3.4c.6-1.4 1.4-2.8 2.3-4.1c1.5-2.1 2.9-3.7 4.4-4.8c1.4-1.1 2.9-1.6 4.3-1.6Zm-276.8-1.9c1.5 1.7 2.5 3.5 3 5.3c.6 1.9 .9 4.6 .9 8.3v7.7h-16.6v.7c0 1.2-.7 2.8-2.1 4.8c-1.4 2-3 3.8-4.9 5.2c-2 1.7-3.8 2.5-5.3 2.5c-1.7 0-3.6-.5-5.6-1.5c-1.8-.9-4.5-2.6-8.2-5.1l1.2-1.9c1.8 1.2 3.3 2 4.3 2.4c1.2 .4 2.3 .7 3.6 .7c1.4 0 2.7-.4 4.1-1.2c1.4-.8 3.3-2.2 5.6-4.3c3.3-3 5-5.2 5-6.8c0-.8-.3-1.9-1-3.2c-.7-1.4-1.6-2.6-2.6-3.6l1.7-8.1c1.3 1.4 2.4 3 3.1 4.8c.7 1.8 1.1 3.9 1.1 6.2v.3h13.6c-.2-1.3-.6-2.5-1.2-3.4c-.3-.5-1-1.4-2.1-2.7Zm-42.9 0c1.5 1.7 2.5 3.5 3 5.3c.6 1.9 .9 4.6 .9 8.3v7.7h-20.5c-3.6 0-6.8 .3-9.7 .9c-2.7 .6-4.2 1.4-4.2 2.2c.8 2.3 1.5 4.6 2.1 6.7c.6 2 .9 4 .9 5.9c0 1.3-.1 2.4-.4 3.3c-.2 .8-.8 1.7-1.5 2.7c-.2-2.6-.7-5.4-1.4-8.2c-.3-1.1-1-3.2-2-6.5c-.6-2-.9-3.3-.9-3.9c0-1 .2-2.2 .7-3.5c.5-1.2 .9-2.2 1.5-3.1c.6-.9 1.7-1.7 3.3-2.3c1.6-.6 4-1 7.2-1.4c-1.6-2.2-3-3.3-4.2-3.3c-.5 0-.9 .2-1.4 .6c-.5 .4-1.2 1.2-2.2 2.6l-1.5-.7c.9-3.1 2-5.4 3.3-7.1c1.2-1.6 2.6-2.4 4.2-2.4c1.3 0 2.8 .7 4.4 2.3c1.7 1.5 3.5 3.9 5.7 7.1h13.6c-.2-1.3-.6-2.5-1.2-3.4c-.3-.5-1-1.4-2.1-2.7Zm241.9-.7c2.8 0 5 .5 6.6 1.6c1.5 1.1 2.3 2.5 2.3 4.4c0 1-.2 2-.6 2.9c-.4 1-1.2 2.2-2.4 3.8c.3 .4 .7 .7 1.2 .9c.5 .2 .9 .3 1.4 .3h18c-.3-1.3-.7-2.5-1.2-3.4c-.3-.5-1-1.4-2.1-2.7l2.4-7.1c1.5 1.7 2.5 3.5 3 5.3c.6 1.9 .8 4.6 .8 8.3v7.7h-20.9c-1.6 0-3-.3-4.2-.9c-1.2-.7-2.1-1.7-2.9-3.1c-1.3 1.6-3 2.7-5 3.4c-1.4 .4-2.9 .6-4.5 .6H1239v.7c0 1.2-.7 2.8-2.1 4.8c-1.4 2-3 3.8-4.9 5.2c-2.1 1.7-3.8 2.5-5.3 2.5c-1.8 0-3.6-.5-5.6-1.5c-1.8-.9-4.5-2.6-8.2-5.1l1.2-1.9c1.8 1.2 3.2 2 4.3 2.4c1.1 .4 2.3 .7 3.6 .7c1.4 0 2.7-.4 4.1-1.2c1.4-.8 3.2-2.2 5.6-4.3c3.3-3 5-5.2 5-6.8c0-.8-.4-1.9-1-3.2c-.7-1.4-1.6-2.6-2.6-3.6l1.7-8.1c1.3 1.4 2.3 3 3.1 4.8c.7 1.8 1.1 3.9 1.1 6.2v.3h13.6c-.3-1.3-.7-2.5-1.2-3.4c-.3-.5-1-1.4-2.1-2.7l2.4-7.1c1.5 1.7 2.5 3.5 3 5.3c.5 1.7 .8 3.9 .8 6.9v1h1c1.7 0 2.8-.1 3.5-.2c.6-.2 1.5-.6 2.7-1.2c-.6-1.1-1.1-2-1.6-2.5c-.5-.6-1.1-.9-1.6-.9c-.3 0-.5 .1-.7 .2c-.1 .1-.4 .4-.6 .8l-1.3-.1c0-3.6 .6-6.2 1.9-7.7c1.2-1.6 3.2-2.3 5.8-2.3Zm-88.3-4.1c2.2 0 4.3 .7 6.3 2.2c1.9 1.3 3.2 3 4.1 4.9l-1.3 1.1c-1.6-.6-2.8-1-3.7-1.2c-1-.2-2.1-.3-3.4-.3c-2.5 0-4.6 .2-6.5 .6c-2.2 .5-3.4 1.2-3.4 2.2c0 1.4 2.8 3.6 8.3 6.8l15.2-4.4l-3.4 8.5c-5.3 1.6-9.8 2.9-13.3 3.8c-3 .8-5.6 1.3-7.7 1.6c-1.5 .2-3 .3-4.6 .3h-.6v.5c-.1 1.9-.3 3.4-.7 4.7c-.6 1.6-1.5 3-2.7 4c-1.2 1-3 1.8-5.4 2.5c-2.3 .6-4.7 1-7.2 1c-4.9 0-8.6-.9-11.2-2.7c-2.6-1.7-3.9-4.3-3.9-7.5c0-2.7 .4-5.3 1.2-7.6c1-2.5 2.7-5.8 5.4-9.8l1.8 1.3c-2 3.3-3.3 5.7-3.9 7.3c-.6 1.5-.9 3-.9 4.6c0 2.1 1.1 3.8 3.4 5.2c2.2 1.3 5.1 1.9 8.8 1.9c3.6 0 6.6-.6 9-2c2.5-1.4 3.7-3.1 3.7-5.1c0-1.2-.2-2.4-.7-3.6c-.4-1.2-1.3-3.2-2.7-5.8l2.6-8.1c1.4 2.5 2.3 4.3 2.6 5.2c.5 1.5 .8 3.4 .8 5.6v.3h1.2c.5 0 1 0 1.2 0c.6-.1 1.2-.1 1.8-.2c-1-1.5-1.6-2.7-2-3.6c-.3-.9-.5-2-.5-3.1c0-3 1.2-5.6 3.7-7.8c2.4-2.2 5.3-3.3 8.6-3.3Zm-30.7-2.5l7 3.7l-3.6 6.7l-7-3.6Zm-101.2-4.9l7 3.7l-3.6 6.6l-7-3.6Zm18.3-2.6l6.9 3.7l-3.5 6.7l-7-3.7Zm357.2 0c1.1 1.5 1.9 3.1 2.4 4.7c.5 1.8 .8 4.1 .8 6.9v5.8c0 4.2 .3 7.1 .8 8.7c.5 1.3 1.2 1.9 2.1 1.9h8c1.8 0 3.2-.2 4.3-.6c1.3-.6 2.2-1.6 2.8-2.9c1.1-2.5 2.5-4.6 4.3-6.2c1.6-1.5 2.9-2.2 4-2.2c1 0 2.3 1.5 3.8 4.6c1.5 3.2 2.3 6.2 2.3 8.9v6.5c-2.1 0-4.5-.4-7.3-1.2c-2.5-.7-4.7-1.6-6.6-2.5c-1.1 1.7-2.6 2.8-4.3 3.3c-.8 .3-1.9 .4-3.3 .4h-8c-2.3 0-4-.9-5-2.8c-1.2-2.1-1.8-5.7-1.8-10.7v-8.5c0-1.9-.2-3.4-.7-4.5c-.3-.5-.9-1.2-1.8-2.2Zm-26.7 0l1.8 10.5c.7 4 1.1 7.5 1.4 10.4c.2 2.3 .3 4.5 .3 6.6c0 1.7-.3 3.3-.7 4.8c-.4 1.5-1.2 3.4-2.4 5.9l-1.8-.7c.5-2.6 .8-4.6 .8-6.2c0-1.2-.2-3-.4-5.4c-.2-2.3-.4-4.6-.7-6.9c-.3-2.3-.8-5.1-1.5-8.2c-.2-1.1-.3-1.9-.3-2.3c0-.6 .3-1.7 .9-3.2c.6-1.5 1.5-3.2 2.6-5.3Zm-286.5 0l1.7 10.5c.7 4 1.2 7.5 1.4 10.4c.2 2.3 .3 4.5 .3 6.6c0 1.7-.2 3.3-.6 4.8c-.4 1.5-1.2 3.4-2.4 5.9l-1.8-.7c.5-2.6 .7-4.6 .7-6.2c0-1.2-.1-3-.3-5.4c-.2-2.3-.4-4.6-.8-6.9c-.2-2.3-.7-5.1-1.4-8.2c-.2-1.1-.4-1.9-.4-2.3c0-.6 .4-1.7 1-3.2c.6-1.5 1.4-3.2 2.6-5.3Zm-15.5-.3l1.3 .5c0 1.2 .3 2.1 .9 2.5c.4 .3 2 .9 4.7 1.7c0 1.4-.1 2.8-.4 4.3c-.1 .6-.4 1.6-.8 3.2l-2.2-.8c0 2.3-.3 4.7-.8 7c-.6 2.3-1.5 4.6-2.7 6.9c1.1 1.9 1.7 3.1 1.9 3.4c.5 .9 .7 1.8 .7 2.5v.9c0 .5-.1 2.5-.4 6.1c-2.3 1.1-4.3 1.8-6.1 2.1c-1.8 .3-4.4 .5-8 .5v-8.9c2-1 3.5-1.9 4.4-2.6c.8-.7 1.9-1.9 3.3-3.6c-2.2-2.9-3.9-4.9-4.9-6.1c-.8-.9-1.9-2-3.2-3.3c-.3 .7-.6 1.1-.7 1.3c-.2 .2-.3 .3-.5 .3c-.4 0-1.3-.4-2.6-1.2c-1.2-.7-2.1-1.4-2.8-2c-.6-.5-1.1-1.6-1.4-3.2c-.3-1.6-.5-3.6-.5-6c0-1.1 .1-1.9 .2-2.3c.1-.4 .4-.6 .8-.6c.8 0 2.4 1.1 4.7 3.3c2.1 1.9 3.9 3.9 5.4 5.8c1.3 1.3 2.4 2.7 3.5 4.1c.9 1.2 2.3 3.3 4.2 6.2c.9-1.6 1.5-3.8 1.9-6.4c.2-1.6 .3-3.5 .3-5.7c-.7-.4-1.2-.7-1.5-1c-.2-.4-.4-.8-.4-1.3c0-1.2 .2-2.5 .4-3.7c.3-1.2 .7-2.5 1.3-3.9Zm288.2-2.1l1.4 .7c0 .1-.1 .4-.1 1c0 .6 .4 1.2 1.2 1.9c.8 .5 1.9 1.2 3.5 1.8c-.1 1.3-.4 2.5-.8 3.8c-.3 1.2-.7 2.2-1.1 3.2l-1.1-.4l3.2 18.4v8.1h-27.7c-1.4 0-2.4-.2-3.1-.8c-.8-.7-1.2-1.8-1.2-3.3c0-.9 0-1.8 .1-2.8c.1-1 .2-2.1 .4-3.1l1.1-.1c.2 .7 .6 1.2 1.1 1.6c.5 .3 1.2 .4 2 .4h10.2c-.4-2.9-1.2-5.2-2.4-7c-.9-1.4-2.2-2.7-3.9-3.7l2.2-9.3c2.6 1.9 4.4 4.4 5.5 7.4c1 2.8 1.5 6.5 1.5 11.2v1.4h10.7l-3.6-20.2l-2-1.3c0-1.1 .2-2.3 .6-3.5c.4-1.5 1.2-3.3 2.3-5.4Zm-20.1-4.3l7 3.7l-3.6 6.7l-7-3.7Z" class="g1_70"/>
<path fill-rule="evenodd" d="M952.4 388.7h5.7c3 4.3 5.3 8.8 7 13.6c1.6 4.8 2.5 9.7 2.5 14.6c0 4.2-.7 8.6-2 13.4c-1.5 5.3-3.9 10.5-7.4 15.7h-5.7c1.6-3.5 2.8-6.2 3.4-8.1c.7-1.9 1.3-4.1 1.9-6.5c.6-2.5 1-4.8 1.3-7.1c.3-2.2 .4-4.5 .4-6.8c0-4.7-.5-9.2-1.5-13.4c-1-4.2-2.9-9.4-5.6-15.4Z" class="g0_70"/>
<path d="M952.4 388.7h5.7c3 4.3 5.3 8.8 7 13.6c1.6 4.8 2.5 9.7 2.5 14.6c0 4.2-.7 8.6-2 13.4c-1.5 5.3-3.9 10.5-7.4 15.7h-5.7c1.6-3.5 2.8-6.2 3.4-8.1c.7-1.9 1.3-4.1 1.9-6.5c.6-2.5 1-4.8 1.3-7.1c.3-2.2 .4-4.5 .4-6.8c0-4.7-.5-9.2-1.5-13.4c-1-4.2-2.9-9.4-5.6-15.4Z" class="g1_70"/>
<path fill-rule="evenodd" d="M931.6 402l-5.4 16.4h10.9L931.6 402Zm.1-7.6c1.2 0 2.1 0 2.8 .1c.7 0 1.3 .1 1.7 .2c.3 .1 .6 .2 .8 .5c.2 .2 .3 .5 .4 .9l11.9 34.2c.3 .7 .4 1.2 .5 1.6c.1 .5 0 .8-.2 1c-.3 .2-.7 .3-1.2 .4c-.6 0-1.3 .1-2.3 .1c-1 0-1.8-.1-2.4-.1c-.5 0-1-.1-1.3-.2c-.3-.1-.5-.2-.6-.3c-.1-.2-.2-.4-.3-.7l-2.6-7.7H924.4l-2.4 7.5c-.1 .3-.2 .5-.3 .7c-.2 .2-.4 .4-.6 .5c-.3 .1-.8 .1-1.3 .2c-.5 0-1.2 .1-2 .1c-1 0-1.7-.1-2.2-.1c-.5-.1-.9-.2-1.1-.5c-.2-.2-.2-.5-.2-.9c.1-.5 .2-1 .5-1.7L926.7 396c.1-.4 .2-.6 .4-.9c.1-.2 .4-.3 .8-.4c.3-.1 .8-.2 1.4-.2c.6-.1 1.4-.1 2.4-.1Z" class="g0_70"/>
<path d="M931.6 402l-5.4 16.4h10.9L931.6 402Zm.1-7.6c1.2 0 2.1 0 2.8 .1c.7 0 1.3 .1 1.7 .2c.3 .1 .6 .2 .8 .5c.2 .2 .3 .5 .4 .9l11.9 34.2c.3 .7 .4 1.2 .5 1.6c.1 .5 0 .8-.2 1c-.3 .2-.7 .3-1.2 .4c-.6 0-1.3 .1-2.3 .1c-1 0-1.8-.1-2.4-.1c-.5 0-1-.1-1.3-.2c-.3-.1-.5-.2-.6-.3c-.1-.2-.2-.4-.3-.7l-2.6-7.7H924.4l-2.4 7.5c-.1 .3-.2 .5-.3 .7c-.2 .2-.4 .4-.6 .5c-.3 .1-.8 .1-1.3 .2c-.5 0-1.2 .1-2 .1c-1 0-1.7-.1-2.2-.1c-.5-.1-.9-.2-1.1-.5c-.2-.2-.2-.5-.2-.9c.1-.5 .2-1 .5-1.7L926.7 396c.1-.4 .2-.6 .4-.9c.1-.2 .4-.3 .8-.4c.3-.1 .8-.2 1.4-.2c.6-.1 1.4-.1 2.4-.1Z" class="g1_70"/>
<path fill-rule="evenodd" d="M905.7 388.7h5.7c-2.7 6-4.6 11.2-5.6 15.4c-1.1 4.2-1.6 8.7-1.6 13.4c0 3.3 .3 6.6 .9 10c.6 3.5 1.5 6.7 2.5 9.8c.7 2 1.9 4.9 3.7 8.7h-5.8c-3-4.6-5.3-9.3-6.9-14.3c-1.6-4.9-2.4-9.7-2.4-14.4c0-5.7 1-11.1 3-16.3c1.7-4.4 3.8-8.5 6.5-12.3Z" class="g0_70"/>
<path d="M905.7 388.7h5.7c-2.7 6-4.6 11.2-5.6 15.4c-1.1 4.2-1.6 8.7-1.6 13.4c0 3.3 .3 6.6 .9 10c.6 3.5 1.5 6.7 2.5 9.8c.7 2 1.9 4.9 3.7 8.7h-5.8c-3-4.6-5.3-9.3-6.9-14.3c-1.6-4.9-2.4-9.7-2.4-14.4c0-5.7 1-11.1 3-16.3c1.7-4.4 3.8-8.5 6.5-12.3Z" class="g1_70"/>
<path fill-rule="evenodd" d="M869 411.5c-.6 0-1.1 .3-1.4 .8c-.4 .4-.6 1-.6 1.6c0 .7 .4 1.3 1.2 1.7c.8 .5 1.8 .7 3.1 .7h1.1c-.5-3.2-1.7-4.8-3.4-4.8Zm1.3-7.9c1.6 0 2.9 1.1 4 3.2c1.1 2.2 1.7 4.8 1.7 7.9v7.7c0 3.4-1.4 6.8-4.3 10.1c-2.9 3.4-5.8 5-8.6 5c-1.7 0-3.5-.5-5.4-1.5c-2-1.1-5-3.2-9.1-6.3l1.3-1.7c2.1 1.4 3.9 2.4 5.3 2.8c1.1 .4 2.4 .6 3.8 .6c1.9 0 3.9-.5 5.7-1.6c2.3-1.2 4.6-3.3 7-6.1c-.9 .1-1.6 .2-2.1 .2c-2 0-3.6-.7-4.7-1.9c-1.2-1.3-1.8-3.1-1.8-5.3c0-3 .7-5.8 2.1-8.6c1.5-3 3.2-4.5 5.1-4.5Z" class="g0_70"/>
<path d="M869 411.5c-.6 0-1.1 .3-1.4 .8c-.4 .4-.6 1-.6 1.6c0 .7 .4 1.3 1.2 1.7c.8 .5 1.8 .7 3.1 .7h1.1c-.5-3.2-1.7-4.8-3.4-4.8Zm1.3-7.9c1.6 0 2.9 1.1 4 3.2c1.1 2.2 1.7 4.8 1.7 7.9v7.7c0 3.4-1.4 6.8-4.3 10.1c-2.9 3.4-5.8 5-8.6 5c-1.7 0-3.5-.5-5.4-1.5c-2-1.1-5-3.2-9.1-6.3l1.3-1.7c2.1 1.4 3.9 2.4 5.3 2.8c1.1 .4 2.4 .6 3.8 .6c1.9 0 3.9-.5 5.7-1.6c2.3-1.2 4.6-3.3 7-6.1c-.9 .1-1.6 .2-2.1 .2c-2 0-3.6-.7-4.7-1.9c-1.2-1.3-1.8-3.1-1.8-5.3c0-3 .7-5.8 2.1-8.6c1.5-3 3.2-4.5 5.1-4.5Z" class="g1_70"/>
<path fill-rule="evenodd" d="M813.1 388.7h5.7c3 4.3 5.3 8.8 6.9 13.6c1.7 4.8 2.5 9.7 2.5 14.6c0 4.2-.6 8.6-1.9 13.4c-1.5 5.3-4 10.5-7.4 15.7h-5.8c1.7-3.5 2.8-6.2 3.5-8.1c.7-1.9 1.3-4.1 1.9-6.5c.6-2.5 1-4.8 1.3-7.1c.3-2.2 .4-4.5 .4-6.8c0-4.7-.5-9.2-1.5-13.4c-1-4.2-2.9-9.4-5.6-15.4Z" class="g0_70"/>
<path d="M813.1 388.7h5.7c3 4.3 5.3 8.8 6.9 13.6c1.7 4.8 2.5 9.7 2.5 14.6c0 4.2-.6 8.6-1.9 13.4c-1.5 5.3-4 10.5-7.4 15.7h-5.8c1.7-3.5 2.8-6.2 3.5-8.1c.7-1.9 1.3-4.1 1.9-6.5c.6-2.5 1-4.8 1.3-7.1c.3-2.2 .4-4.5 .4-6.8c0-4.7-.5-9.2-1.5-13.4c-1-4.2-2.9-9.4-5.6-15.4Z" class="g1_70"/>
<path fill-rule="evenodd" d="M788.9 416.2v11h5.6c1.1 0 2-.1 2.8-.4c.7-.2 1.4-.5 1.9-1c.6-.4 1-1 1.3-1.6c.3-.7 .5-1.5 .5-2.3c0-.9-.2-1.7-.5-2.4c-.3-.7-.7-1.3-1.3-1.8c-.6-.5-1.3-.8-2.2-1.1c-.9-.3-2.1-.4-3.5-.4Zm0-15.7v10h4.3c1.2 0 2.1-.1 2.8-.4c.6-.3 1.2-.7 1.6-1.1c.5-.5 .8-1 1-1.7c.3-.6 .4-1.2 .4-1.9c0-.8-.2-1.5-.4-2.1c-.2-.6-.6-1.2-1.1-1.6c-.4-.4-1-.7-1.8-.9c-.7-.2-1.7-.3-2.9-.3Zm-5.4-5.9h9.7c2.3 0 4.3 .2 6 .6c1.6 .4 3 1 4.1 1.8c1.2 .8 2 1.8 2.6 3c.6 1.3 .9 2.7 .9 4.4c0 .9-.1 1.8-.3 2.6c-.3 .9-.6 1.6-1.1 2.3c-.4 .7-1 1.3-1.7 1.8c-.6 .5-1.4 .9-2.3 1.2c1.1 .2 2.1 .6 3.1 1.1c.9 .5 1.7 1.1 2.4 1.9c.7 .8 1.2 1.7 1.6 2.8c.4 1 .6 2.2 .6 3.5c0 1.4-.2 2.6-.6 3.7c-.3 1.1-.9 2.1-1.5 3c-.7 .8-1.5 1.6-2.4 2.2c-.9 .6-2 1.1-3.1 1.5c-1.1 .4-2.3 .7-3.5 .9c-1.3 .2-2.7 .3-4.2 .3H783.5c-.7 0-1.2-.2-1.7-.6c-.4-.4-.6-1-.6-1.9V397.1c0-.9 .2-1.5 .6-1.9c.5-.4 1-.6 1.7-.6Z" class="g0_70"/>
<path d="M788.9 416.2v11h5.6c1.1 0 2-.1 2.8-.4c.7-.2 1.4-.5 1.9-1c.6-.4 1-1 1.3-1.6c.3-.7 .5-1.5 .5-2.3c0-.9-.2-1.7-.5-2.4c-.3-.7-.7-1.3-1.3-1.8c-.6-.5-1.3-.8-2.2-1.1c-.9-.3-2.1-.4-3.5-.4Zm0-15.7v10h4.3c1.2 0 2.1-.1 2.8-.4c.6-.3 1.2-.7 1.6-1.1c.5-.5 .8-1 1-1.7c.3-.6 .4-1.2 .4-1.9c0-.8-.2-1.5-.4-2.1c-.2-.6-.6-1.2-1.1-1.6c-.4-.4-1-.7-1.8-.9c-.7-.2-1.7-.3-2.9-.3Zm-5.4-5.9h9.7c2.3 0 4.3 .2 6 .6c1.6 .4 3 1 4.1 1.8c1.2 .8 2 1.8 2.6 3c.6 1.3 .9 2.7 .9 4.4c0 .9-.1 1.8-.3 2.6c-.3 .9-.6 1.6-1.1 2.3c-.4 .7-1 1.3-1.7 1.8c-.6 .5-1.4 .9-2.3 1.2c1.1 .2 2.1 .6 3.1 1.1c.9 .5 1.7 1.1 2.4 1.9c.7 .8 1.2 1.7 1.6 2.8c.4 1 .6 2.2 .6 3.5c0 1.4-.2 2.6-.6 3.7c-.3 1.1-.9 2.1-1.5 3c-.7 .8-1.5 1.6-2.4 2.2c-.9 .6-2 1.1-3.1 1.5c-1.1 .4-2.3 .7-3.5 .9c-1.3 .2-2.7 .3-4.2 .3H783.5c-.7 0-1.2-.2-1.7-.6c-.4-.4-.6-1-.6-1.9V397.1c0-.9 .2-1.5 .6-1.9c.5-.4 1-.6 1.7-.6Z" class="g1_70"/>
<path fill-rule="evenodd" d="M769.1 388.7h5.7c-2.7 6-4.6 11.2-5.6 15.4c-1 4.2-1.6 8.7-1.6 13.4c0 3.3 .3 6.6 .9 10c.7 3.5 1.5 6.7 2.5 9.8c.7 2 2 4.9 3.7 8.7h-5.8c-3-4.6-5.3-9.3-6.9-14.3c-1.6-4.9-2.4-9.7-2.4-14.4c0-5.7 1-11.1 3-16.3c1.7-4.4 3.9-8.5 6.5-12.3Z" class="g0_70"/>
<path d="M769.1 388.7h5.7c-2.7 6-4.6 11.2-5.6 15.4c-1 4.2-1.6 8.7-1.6 13.4c0 3.3 .3 6.6 .9 10c.7 3.5 1.5 6.7 2.5 9.8c.7 2 2 4.9 3.7 8.7h-5.8c-3-4.6-5.3-9.3-6.9-14.3c-1.6-4.9-2.4-9.7-2.4-14.4c0-5.7 1-11.1 3-16.3c1.7-4.4 3.9-8.5 6.5-12.3Z" class="g1_70"/>
<path fill-rule="evenodd" d="M519.2 426.9l6.9 3.7l-3.5 6.7l-7-3.6Zm29.1-.3l5.5 3.1l-3.1 5.8l-4.4-2.2l-2.5 4.8l-5.4-3.1l3.3-6l4.2 2.4Zm-61.1-9.2c1 0 1.8 .4 2.5 1.1c.7 .7 1.1 1.6 1.1 2.6c0 1-.4 1.9-1.1 2.6c-.7 .8-1.6 1.1-2.6 1.1c-1 0-1.9-.3-2.6-1.1c-.7-.7-1-1.6-1-2.6c0-1 .3-1.9 1.1-2.6c.7-.7 1.6-1.1 2.6-1.1Zm63.2-14.3c1.5 1.7 2.5 3.5 3.1 5.3c.5 1.7 .7 3.9 .8 6.9v1h13.5c-.2-1.3-.6-2.5-1.2-3.4c-.3-.5-1-1.4-2.1-2.7l2.4-7.1c1.5 1.7 2.5 3.5 3.1 5.3c.5 1.9 .8 4.6 .8 8.3v7.7h-58c-1.3 0-2.3 0-3.1 0c-.8 0-1.3 0-1.7-.1c-.8-.1-1.6-.3-2.6-.6c-1.6-.6-3-1.7-4-3.4c-1.1-1.7-1.6-3.6-1.6-5.7c0-.9 .1-1.7 .2-2.6c.1-.9 .3-1.8 .7-2.8c.3-1.2 .8-2.3 1.4-3.2c.5-.9 1.1-1.8 1.7-2.7l1.6 1.1c-.4 .8-.8 1.5-1.1 2.2c-.3 .6-.5 1.2-.6 1.6c-.3 1-.5 1.9-.5 2.7c0 1.2 .4 2.2 1.1 3.1c.7 .9 1.7 1.5 2.8 1.8c.7 .1 1.7 .3 2.8 .4c1.1 .1 2.3 .1 3.5 .1H535c-.6-1.5-1.1-2.6-1.4-3.2c-.5-.8-1.1-1.7-2-2.9l2.6-6.9c1.5 2.1 2.5 4.1 3 5.9c.4 1.5 .6 3.8 .6 6.8v.3h13.5c-.2-1.3-.6-2.5-1.2-3.4c-.3-.5-1-1.4-2.1-2.7Zm-62.8-13.4c2.4 0 4.4 .7 6.1 2.1c1.7 1.3 2.5 3.1 2.5 5.3c0 1.3-.3 2.4-1.1 3.3c-.8 1-1.8 1.6-3.1 1.6c-1 0-1.8-.4-2.5-1c-.6-.7-.9-1.4-.9-2.3c0-1.4 .5-2.4 1.6-3.1c1.1-.6 1.6-1.2 1.6-1.6c0-.7-.3-1.3-.9-1.7c-.7-.4-1.5-.6-2.5-.6c-1.3 0-2.4 .4-3.2 1.1c-.8 .7-1.2 1.6-1.2 2.7c0 .9 .4 2.2 1.2 3.7c1.3 2.3 2.1 3.8 2.3 4.5c.9 2 1.3 4.3 1.3 6.7c0 1.3-.1 2.8-.3 4.4h-1.8c0-.3 0-.6 0-.8l.2-1.6c0-1.1-.8-2.3-2.3-3.6c-2.5-2.2-3.8-3.5-4.1-3.8c-1.4-1.7-2.2-3.7-2.2-5.9c0-2.7 .9-4.9 2.7-6.7c1.8-1.8 4-2.7 6.6-2.7Zm120.1-.2l5.5 3.1l-3.1 5.8l-4.4-2.2l-2.5 4.8l-5.4-3.1l3.3-6l4.2 2.3Zm-42.9 0l5.5 3.1l-3.1 5.8l-4.4-2.2l-2.5 4.8l-5.4-3.1l3.3-6l4.2 2.3Zm70.7-1.2l1.8 10.5c.6 4 1.1 7.5 1.3 10.4c.2 2.3 .3 4.5 .3 6.6c0 1.7-.2 3.3-.6 4.8c-.4 1.5-1.2 3.4-2.4 5.9l-1.8-.7c.5-2.6 .7-4.6 .7-6.2c0-1.2-.1-3-.3-5.4c-.2-2.3-.4-4.6-.7-6.9c-.3-2.3-.8-5.1-1.5-8.2c-.2-1.1-.3-1.9-.3-2.3c0-.6 .3-1.7 .9-3.2c.6-1.5 1.5-3.2 2.6-5.3Zm64.7-2.4l1.3 .7c0 .1 0 .4-.1 1c0 .6 .4 1.2 1.3 1.9c.7 .5 1.9 1.2 3.5 1.8c-.2 1.3-.5 2.5-.8 3.8c-.4 1.2-.7 2.2-1.2 3.2l-1.1-.4l3.3 18.4h1.1c.6 0 1 0 1.3 0c.6-.1 1.2-.1 1.8-.2c-1-1.5-1.7-2.7-2-3.6c-.4-.9-.6-2-.6-3.1c0-3 1.3-5.6 3.7-7.8c2.5-2.2 5.4-3.3 8.6-3.3c2.2 0 4.3 .7 6.4 2.2c1.8 1.3 3.2 3 4 4.9l-1.2 1.1c-1.6-.6-2.9-1-3.8-1.2c-.9-.2-2.1-.3-3.4-.3c-2.5 0-4.6 .2-6.4 .6c-2.3 .5-3.4 1.2-3.4 2.2c0 1.4 2.7 3.6 8.2 6.8l15.2-4.4l-3.3 8.5c-5.4 1.6-9.8 2.9-13.3 3.8c-3 .8-5.6 1.3-7.7 1.6c-1.5 .2-3.1 .3-4.6 .3H689.5c-.8 0-1.4 .1-1.8 .2c-.5 .1-.7 .3-.7 .5c0 .1 .5 .4 1.5 .8c1 .4 1.4 .9 1.4 1.7c0 1.1-.1 2.4-.4 4c-.4 1.5-.8 2.9-1.4 4.1c-.4 1-1.7 2.1-3.7 3.3c-2.1 1.3-4.6 2.4-7.3 3.3c-3.1 1-6.1 1.5-8.9 1.5c-3.2 0-5.6-.8-7.3-2.3c-1.6-1.4-2.4-3.6-2.4-6.5c0-3.1 .3-5.8 1.1-8.1c.9-2.8 2.8-6.5 5.6-11l1.7 1.3c-1.9 3.2-3.2 5.7-3.9 7.6c-.7 1.9-1 3.7-1 5.6c0 1.8 .6 3.2 1.7 4.3c1.2 1.1 2.8 1.6 4.9 1.6c2.5 0 5.2-.4 8.1-1.2c2.7-.7 4.9-1.5 6.8-2.5c1.9-1 2.8-1.8 2.8-2.4c0-.2-.6-.4-1.7-.4c-1.1 0-2.1-.1-2.9-.1c-2.1 0-3.5 0-4.1-.2c-.6-.1-.9-.5-.9-1.1c0-1.1 .1-2.2 .5-3.4c.4-1.2 .9-2.1 1.4-2.7c1.3-1.6 2.9-3 4.7-4.1c2-1.2 3.8-1.9 5.4-1.9h14.1l-3.6-20.2l-1.9-1.3c0-1.1 .2-2.3 .5-3.5c.5-1.5 1.3-3.3 2.4-5.4Zm-78.5 0l1.4 .7c0 .1-.1 .4-.1 1c0 .6 .4 1.2 1.2 1.9c.7 .5 1.9 1.2 3.5 1.8c-.2 1.3-.4 2.5-.8 3.8c-.3 1.2-.7 2.2-1.2 3.2l-1-.4l3.2 18.4v8.1H597.1v.7c0 1.2-.7 2.8-2.1 4.8c-1.4 2-3 3.8-4.8 5.2c-2.1 1.7-3.9 2.5-5.4 2.5c-1.7 0-3.6-.5-5.6-1.5c-1.7-.9-4.5-2.6-8.2-5.1l1.3-1.9c1.8 1.2 3.2 2 4.3 2.4c1.1 .4 2.3 .7 3.5 .7c1.4 0 2.8-.4 4.2-1.2c1.3-.8 3.2-2.2 5.6-4.3c3.3-3 4.9-5.2 4.9-6.8c0-.8-.3-1.9-1-3.2c-.7-1.4-1.5-2.6-2.6-3.6l1.7-8.1c1.3 1.4 2.4 3 3.1 4.8c.8 1.8 1.1 3.9 1.1 6.2v.3h13.6c-.2-1.3-.6-2.5-1.2-3.4c-.3-.5-1-1.4-2.1-2.7l2.4-7.1c1.5 1.7 2.5 3.5 3.1 5.3c.5 1.7 .7 3.9 .8 6.9v1h10.6l-3.6-20.2l-1.9-1.3c0-1.1 .2-2.3 .6-3.5c.4-1.5 1.2-3.3 2.3-5.4Z" class="g0_70"/>
<path d="M519.2 426.9l6.9 3.7l-3.5 6.7l-7-3.6Zm29.1-.3l5.5 3.1l-3.1 5.8l-4.4-2.2l-2.5 4.8l-5.4-3.1l3.3-6l4.2 2.4Zm-61.1-9.2c1 0 1.8 .4 2.5 1.1c.7 .7 1.1 1.6 1.1 2.6c0 1-.4 1.9-1.1 2.6c-.7 .8-1.6 1.1-2.6 1.1c-1 0-1.9-.3-2.6-1.1c-.7-.7-1-1.6-1-2.6c0-1 .3-1.9 1.1-2.6c.7-.7 1.6-1.1 2.6-1.1Zm63.2-14.3c1.5 1.7 2.5 3.5 3.1 5.3c.5 1.7 .7 3.9 .8 6.9v1h13.5c-.2-1.3-.6-2.5-1.2-3.4c-.3-.5-1-1.4-2.1-2.7l2.4-7.1c1.5 1.7 2.5 3.5 3.1 5.3c.5 1.9 .8 4.6 .8 8.3v7.7h-58c-1.3 0-2.3 0-3.1 0c-.8 0-1.3 0-1.7-.1c-.8-.1-1.6-.3-2.6-.6c-1.6-.6-3-1.7-4-3.4c-1.1-1.7-1.6-3.6-1.6-5.7c0-.9 .1-1.7 .2-2.6c.1-.9 .3-1.8 .7-2.8c.3-1.2 .8-2.3 1.4-3.2c.5-.9 1.1-1.8 1.7-2.7l1.6 1.1c-.4 .8-.8 1.5-1.1 2.2c-.3 .6-.5 1.2-.6 1.6c-.3 1-.5 1.9-.5 2.7c0 1.2 .4 2.2 1.1 3.1c.7 .9 1.7 1.5 2.8 1.8c.7 .1 1.7 .3 2.8 .4c1.1 .1 2.3 .1 3.5 .1H535c-.6-1.5-1.1-2.6-1.4-3.2c-.5-.8-1.1-1.7-2-2.9l2.6-6.9c1.5 2.1 2.5 4.1 3 5.9c.4 1.5 .6 3.8 .6 6.8v.3h13.5c-.2-1.3-.6-2.5-1.2-3.4c-.3-.5-1-1.4-2.1-2.7Zm-62.8-13.4c2.4 0 4.4 .7 6.1 2.1c1.7 1.3 2.5 3.1 2.5 5.3c0 1.3-.3 2.4-1.1 3.3c-.8 1-1.8 1.6-3.1 1.6c-1 0-1.8-.4-2.5-1c-.6-.7-.9-1.4-.9-2.3c0-1.4 .5-2.4 1.6-3.1c1.1-.6 1.6-1.2 1.6-1.6c0-.7-.3-1.3-.9-1.7c-.7-.4-1.5-.6-2.5-.6c-1.3 0-2.4 .4-3.2 1.1c-.8 .7-1.2 1.6-1.2 2.7c0 .9 .4 2.2 1.2 3.7c1.3 2.3 2.1 3.8 2.3 4.5c.9 2 1.3 4.3 1.3 6.7c0 1.3-.1 2.8-.3 4.4h-1.8c0-.3 0-.6 0-.8l.2-1.6c0-1.1-.8-2.3-2.3-3.6c-2.5-2.2-3.8-3.5-4.1-3.8c-1.4-1.7-2.2-3.7-2.2-5.9c0-2.7 .9-4.9 2.7-6.7c1.8-1.8 4-2.7 6.6-2.7Zm120.1-.2l5.5 3.1l-3.1 5.8l-4.4-2.2l-2.5 4.8l-5.4-3.1l3.3-6l4.2 2.3Zm-42.9 0l5.5 3.1l-3.1 5.8l-4.4-2.2l-2.5 4.8l-5.4-3.1l3.3-6l4.2 2.3Zm70.7-1.2l1.8 10.5c.6 4 1.1 7.5 1.3 10.4c.2 2.3 .3 4.5 .3 6.6c0 1.7-.2 3.3-.6 4.8c-.4 1.5-1.2 3.4-2.4 5.9l-1.8-.7c.5-2.6 .7-4.6 .7-6.2c0-1.2-.1-3-.3-5.4c-.2-2.3-.4-4.6-.7-6.9c-.3-2.3-.8-5.1-1.5-8.2c-.2-1.1-.3-1.9-.3-2.3c0-.6 .3-1.7 .9-3.2c.6-1.5 1.5-3.2 2.6-5.3Zm64.7-2.4l1.3 .7c0 .1 0 .4-.1 1c0 .6 .4 1.2 1.3 1.9c.7 .5 1.9 1.2 3.5 1.8c-.2 1.3-.5 2.5-.8 3.8c-.4 1.2-.7 2.2-1.2 3.2l-1.1-.4l3.3 18.4h1.1c.6 0 1 0 1.3 0c.6-.1 1.2-.1 1.8-.2c-1-1.5-1.7-2.7-2-3.6c-.4-.9-.6-2-.6-3.1c0-3 1.3-5.6 3.7-7.8c2.5-2.2 5.4-3.3 8.6-3.3c2.2 0 4.3 .7 6.4 2.2c1.8 1.3 3.2 3 4 4.9l-1.2 1.1c-1.6-.6-2.9-1-3.8-1.2c-.9-.2-2.1-.3-3.4-.3c-2.5 0-4.6 .2-6.4 .6c-2.3 .5-3.4 1.2-3.4 2.2c0 1.4 2.7 3.6 8.2 6.8l15.2-4.4l-3.3 8.5c-5.4 1.6-9.8 2.9-13.3 3.8c-3 .8-5.6 1.3-7.7 1.6c-1.5 .2-3.1 .3-4.6 .3H689.5c-.8 0-1.4 .1-1.8 .2c-.5 .1-.7 .3-.7 .5c0 .1 .5 .4 1.5 .8c1 .4 1.4 .9 1.4 1.7c0 1.1-.1 2.4-.4 4c-.4 1.5-.8 2.9-1.4 4.1c-.4 1-1.7 2.1-3.7 3.3c-2.1 1.3-4.6 2.4-7.3 3.3c-3.1 1-6.1 1.5-8.9 1.5c-3.2 0-5.6-.8-7.3-2.3c-1.6-1.4-2.4-3.6-2.4-6.5c0-3.1 .3-5.8 1.1-8.1c.9-2.8 2.8-6.5 5.6-11l1.7 1.3c-1.9 3.2-3.2 5.7-3.9 7.6c-.7 1.9-1 3.7-1 5.6c0 1.8 .6 3.2 1.7 4.3c1.2 1.1 2.8 1.6 4.9 1.6c2.5 0 5.2-.4 8.1-1.2c2.7-.7 4.9-1.5 6.8-2.5c1.9-1 2.8-1.8 2.8-2.4c0-.2-.6-.4-1.7-.4c-1.1 0-2.1-.1-2.9-.1c-2.1 0-3.5 0-4.1-.2c-.6-.1-.9-.5-.9-1.1c0-1.1 .1-2.2 .5-3.4c.4-1.2 .9-2.1 1.4-2.7c1.3-1.6 2.9-3 4.7-4.1c2-1.2 3.8-1.9 5.4-1.9h14.1l-3.6-20.2l-1.9-1.3c0-1.1 .2-2.3 .5-3.5c.5-1.5 1.3-3.3 2.4-5.4Zm-78.5 0l1.4 .7c0 .1-.1 .4-.1 1c0 .6 .4 1.2 1.2 1.9c.7 .5 1.9 1.2 3.5 1.8c-.2 1.3-.4 2.5-.8 3.8c-.3 1.2-.7 2.2-1.2 3.2l-1-.4l3.2 18.4v8.1H597.1v.7c0 1.2-.7 2.8-2.1 4.8c-1.4 2-3 3.8-4.8 5.2c-2.1 1.7-3.9 2.5-5.4 2.5c-1.7 0-3.6-.5-5.6-1.5c-1.7-.9-4.5-2.6-8.2-5.1l1.3-1.9c1.8 1.2 3.2 2 4.3 2.4c1.1 .4 2.3 .7 3.5 .7c1.4 0 2.8-.4 4.2-1.2c1.3-.8 3.2-2.2 5.6-4.3c3.3-3 4.9-5.2 4.9-6.8c0-.8-.3-1.9-1-3.2c-.7-1.4-1.5-2.6-2.6-3.6l1.7-8.1c1.3 1.4 2.4 3 3.1 4.8c.8 1.8 1.1 3.9 1.1 6.2v.3h13.6c-.2-1.3-.6-2.5-1.2-3.4c-.3-.5-1-1.4-2.1-2.7l2.4-7.1c1.5 1.7 2.5 3.5 3.1 5.3c.5 1.7 .7 3.9 .8 6.9v1h10.6l-3.6-20.2l-1.9-1.3c0-1.1 .2-2.3 .6-3.5c.4-1.5 1.2-3.3 2.3-5.4Z" class="g1_70"/>
<path fill-rule="evenodd" d="M1154.8 487.4l-6.6 19.7h13.2l-6.6-19.7Zm-101.7-1.5v31.5h4.9c2.6 0 4.8-.3 6.5-1c1.8-.6 3.3-1.6 4.5-3c1.1-1.3 2-3 2.6-5c.6-2 .9-4.4 .9-7c0-2.2-.3-4.3-.8-6.2c-.5-1.8-1.3-3.5-2.5-4.9c-1.1-1.4-2.6-2.4-4.3-3.2c-1.8-.8-4.1-1.2-7-1.2Zm-6.6-7.3h11.9c4.1 0 7.6 .4 10.5 1.4c2.9 1 5.3 2.4 7.3 4.3c2 1.9 3.4 4.2 4.5 7c1 2.8 1.5 6.1 1.5 9.7c0 4.3-.5 7.9-1.6 10.9c-1.1 3.1-2.8 5.5-4.8 7.4c-2.1 1.9-4.6 3.4-7.6 4.2c-3 .9-6.5 1.4-10.6 1.4h-11.1c-.8 0-1.4-.2-2-.7c-.5-.5-.8-1.2-.8-2.3V481.5c0-1 .3-1.8 .8-2.3c.6-.4 1.2-.6 2-.6Zm77.5-.2c.8 0 1.5 0 2.1 .1c.5 .1 .9 .2 1.2 .3c.3 .1 .5 .3 .7 .5c.1 .2 .1 .4 .1 .7v41.6c0 .5-.1 1-.2 1.5c-.2 .4-.5 .7-.8 1c-.3 .3-.7 .5-1.2 .7c-.4 .1-.9 .2-1.3 .2h-4c-.9 0-1.6-.1-2.2-.3c-.6-.2-1.2-.5-1.7-.9c-.5-.4-1-1-1.5-1.8c-.4-.8-1-1.7-1.6-2.9l-11.5-21.7c-.7-1.3-1.4-2.7-2-4.1c-.7-1.5-1.4-3-1.9-4.4h-.1c.1 1.7 .2 3.4 .2 5.1c.1 1.7 .1 3.5 .1 5.3v24.3c0 .2-.1 .4-.2 .6c-.1 .2-.3 .4-.7 .5c-.3 .1-.7 .2-1.3 .3c-.5 .1-1.2 .1-2.1 .1c-.8 0-1.5 0-2.1-.1c-.5-.1-.9-.2-1.2-.3c-.4-.1-.6-.3-.7-.5c-.1-.2-.2-.4-.2-.6V481.9c0-1.1 .4-1.9 1-2.5c.7-.6 1.5-.8 2.4-.8h5.1c.9 0 1.6 0 2.3 .2c.6 .1 1.1 .4 1.6 .8c.5 .3 1 .8 1.4 1.4c.4 .7 .9 1.5 1.3 2.4l9.1 16.9c.5 1.1 1 2.1 1.5 3.1c.5 .9 1 1.9 1.5 2.9c.5 1 .9 2 1.4 2.9c.5 1 .9 1.9 1.3 2.9h.1c-.1-1.7-.2-3.4-.2-5.2c0-1.8-.1-3.6-.1-5.2V480c0-.3 .1-.5 .3-.7c.1-.2 .3-.4 .7-.5c.3-.1 .8-.2 1.3-.3c.6-.1 1.3-.1 2.1-.1Zm30.9-.1c1.4 0 2.6 .1 3.4 .1c.8 0 1.5 .1 2 .2c.4 .2 .8 .4 1 .6c.2 .3 .3 .7 .5 1.1l14.3 41.1c.3 .8 .5 1.5 .5 2c.1 .5 0 .9-.3 1.1c-.2 .3-.7 .5-1.3 .5c-.7 .1-1.6 .1-2.8 .1c-1.2 0-2.2 0-2.9 0c-.6-.1-1.1-.2-1.5-.3c-.4-.1-.6-.2-.8-.4c-.1-.2-.2-.4-.3-.8l-3.1-9.3h-17.4l-3 9.1c-.1 .3-.2 .6-.3 .8c-.2 .3-.5 .4-.8 .6c-.3 .1-.8 .2-1.5 .2c-.6 .1-1.4 .1-2.5 .1c-1.1 0-1.9 0-2.5-.1c-.7-.1-1.1-.3-1.3-.5c-.3-.3-.4-.7-.3-1.2c.1-.5 .3-1.2 .6-2l14.2-41.1c.2-.4 .4-.7 .5-1c.2-.2 .6-.4 1-.6c.4-.1 1-.2 1.7-.2c.7 0 1.7-.1 2.9-.1Z" class="g2_70"/>
<path d="M1154.8 487.4l-6.6 19.7h13.2l-6.6-19.7Zm-101.7-1.5v31.5h4.9c2.6 0 4.8-.3 6.5-1c1.8-.6 3.3-1.6 4.5-3c1.1-1.3 2-3 2.6-5c.6-2 .9-4.4 .9-7c0-2.2-.3-4.3-.8-6.2c-.5-1.8-1.3-3.5-2.5-4.9c-1.1-1.4-2.6-2.4-4.3-3.2c-1.8-.8-4.1-1.2-7-1.2Zm-6.6-7.3h11.9c4.1 0 7.6 .4 10.5 1.4c2.9 1 5.3 2.4 7.3 4.3c2 1.9 3.4 4.2 4.5 7c1 2.8 1.5 6.1 1.5 9.7c0 4.3-.5 7.9-1.6 10.9c-1.1 3.1-2.8 5.5-4.8 7.4c-2.1 1.9-4.6 3.4-7.6 4.2c-3 .9-6.5 1.4-10.6 1.4h-11.1c-.8 0-1.4-.2-2-.7c-.5-.5-.8-1.2-.8-2.3V481.5c0-1 .3-1.8 .8-2.3c.6-.4 1.2-.6 2-.6Zm77.5-.2c.8 0 1.5 0 2.1 .1c.5 .1 .9 .2 1.2 .3c.3 .1 .5 .3 .7 .5c.1 .2 .1 .4 .1 .7v41.6c0 .5-.1 1-.2 1.5c-.2 .4-.5 .7-.8 1c-.3 .3-.7 .5-1.2 .7c-.4 .1-.9 .2-1.3 .2h-4c-.9 0-1.6-.1-2.2-.3c-.6-.2-1.2-.5-1.7-.9c-.5-.4-1-1-1.5-1.8c-.4-.8-1-1.7-1.6-2.9l-11.5-21.7c-.7-1.3-1.4-2.7-2-4.1c-.7-1.5-1.4-3-1.9-4.4h-.1c.1 1.7 .2 3.4 .2 5.1c.1 1.7 .1 3.5 .1 5.3v24.3c0 .2-.1 .4-.2 .6c-.1 .2-.3 .4-.7 .5c-.3 .1-.7 .2-1.3 .3c-.5 .1-1.2 .1-2.1 .1c-.8 0-1.5 0-2.1-.1c-.5-.1-.9-.2-1.2-.3c-.4-.1-.6-.3-.7-.5c-.1-.2-.2-.4-.2-.6V481.9c0-1.1 .4-1.9 1-2.5c.7-.6 1.5-.8 2.4-.8h5.1c.9 0 1.6 0 2.3 .2c.6 .1 1.1 .4 1.6 .8c.5 .3 1 .8 1.4 1.4c.4 .7 .9 1.5 1.3 2.4l9.1 16.9c.5 1.1 1 2.1 1.5 3.1c.5 .9 1 1.9 1.5 2.9c.5 1 .9 2 1.4 2.9c.5 1 .9 1.9 1.3 2.9h.1c-.1-1.7-.2-3.4-.2-5.2c0-1.8-.1-3.6-.1-5.2V480c0-.3 .1-.5 .3-.7c.1-.2 .3-.4 .7-.5c.3-.1 .8-.2 1.3-.3c.6-.1 1.3-.1 2.1-.1Zm30.9-.1c1.4 0 2.6 .1 3.4 .1c.8 0 1.5 .1 2 .2c.4 .2 .8 .4 1 .6c.2 .3 .3 .7 .5 1.1l14.3 41.1c.3 .8 .5 1.5 .5 2c.1 .5 0 .9-.3 1.1c-.2 .3-.7 .5-1.3 .5c-.7 .1-1.6 .1-2.8 .1c-1.2 0-2.2 0-2.9 0c-.6-.1-1.1-.2-1.5-.3c-.4-.1-.6-.2-.8-.4c-.1-.2-.2-.4-.3-.8l-3.1-9.3h-17.4l-3 9.1c-.1 .3-.2 .6-.3 .8c-.2 .3-.5 .4-.8 .6c-.3 .1-.8 .2-1.5 .2c-.6 .1-1.4 .1-2.5 .1c-1.1 0-1.9 0-2.5-.1c-.7-.1-1.1-.3-1.3-.5c-.3-.3-.4-.7-.3-1.2c.1-.5 .3-1.2 .6-2l14.2-41.1c.2-.4 .4-.7 .5-1c.2-.2 .6-.4 1-.6c.4-.1 1-.2 1.7-.2c.7 0 1.7-.1 2.9-.1Z" class="g1_70"/>
<image clip-path="url(#c1_70)" preserveAspectRatio="none" x="1344" y="457" width="108" height="72" href="img/2.jpg"/>
<image clip-path="url(#c2_70)" preserveAspectRatio="none" x="1347" y="550" width="102" height="71" href="img/3.jpg"/>
<image clip-path="url(#c3_70)" preserveAspectRatio="none" x="1347" y="642" width="102" height="74" href="img/4.jpg"/>
<image clip-path="url(#c4_70)" preserveAspectRatio="none" x="1353" y="745" width="96" height="80" href="img/5.jpg"/>
<image clip-path="url(#c5_70)" preserveAspectRatio="none" x="0" y="450" width="740" height="375" href="img/6.jpg"/>
<path d="M289.9 577.9c-.3-.1-.6 0-.7 .2c-.2 .2-.1 .5 .1 .7l.3 .2c.1 .2 .4 .2 .6 .1c.2-.1 .4-.3 .3-.6c0-.2-.1-.4-.4-.5l-.2-.1l.1 .1l-.1-.1c-.3-.2-.6-.2-.8 0c-.2 .2-.3 .6-.1 .8c.2 .3 .5 .3 .8 .2l.1-.1c.3-.1 .4-.4 .3-.7c0-.2-.2-.4-.5-.4l-.4-.1c-.3-.1-.6 .1-.7 .4c0 .3 .1 .6 .4 .8l.3 .1c.2 .1 .5 .1 .7 0c.2-.2 .3-.4 .2-.6c0-.3-.1-.5-.4-.6l-.3-.1l.3 .2v-.1l.1 .7v-.2l.1-.2l-.1-.2c0-.4-.3-.7-.6-.8h-.1l.3 .1h-.1l-.2-.1l-.5-.2h.1l-2.4-1c-.4-.2-1 .1-1.2 .5c-.2 .5 .1 1 .5 1.2l.1 .1c.4 .2 .9 .1 1.2-.3c.2-.3 .3-.8 0-1.1l-.1-.2c-.2-.4-.7-.6-1.1-.5c-.5 .2-.8 .6-.8 1c0 .5 .3 .9 .7 1l.3 .1c.5 .1 .9 0 1.2-.3c.3-.4 .3-.9 .1-1.2l-.1-.3L287 577l.4-.4c.2-.3 .3-.6 .2-1l-.2-1l-.1 .7l.3-.9v.1l.4-.8c.1-.2 .1-.5 0-.8l-.3-1.2l-.6 1.4l.4-.2l.1-.1l.2-.1c.4-.3 .5-.7 .4-1.2v-.2c-.1-.5-.6-.9-1.1-.9c-.5 0-1 .4-1.1 .9c-.2 .5 .1 1.1 .6 1.3l.7 .3l-.2-.1l.4 .2c.5 .3 1.1 .2 1.5-.3c.3-.5 .3-1.1-.2-1.5l-.3-.2c-.3-.3-.8-.4-1.2-.2c-.4 .2-.6 .6-.6 1v.1c0 .5 .4 1 .9 1.1c.6 .1 1.1-.2 1.3-.7c.2-.5 0-1.1-.5-1.4l-.3-.2c-.4-.2-1-.2-1.4 .2c-.3 .3-.4 .9-.2 1.3v.1l.3 .4l.7 .5l-.1-.1l.1 .1l.3 .4c.4 .4 1.1 .5 1.5 .2c.5-.3 .7-1 .4-1.5c-.3-.5-.9-.7-1.5-.5l1.1 .2l-.5-.4c-.5-.4-1.2-.3-1.6 .2c-.4 .5-.3 1.2 .2 1.6l.2 .2c.2 .2 .6 .3 .9 .3l.3-.1c.3 0 .6-.3 .8-.6l.1-.1c.1-.3 .2-.6 .1-.8v-.2c-.1-.5-.5-.9-1.1-1c-.5-.1-1 .2-1.2 .7c-.2 .5-.1 1 .3 1.4l.3 .2c.4 .3 .9 .4 1.4 .1c.4-.2 .6-.8 .5-1.3c-.1-.4-.5-.8-1-.9h-.1l.3 .1l-.1-.1c-.5-.2-1.2 0-1.5 .6c-.3 .5-.1 1.1 .3 1.5l.6 .4c.4 .4 1.1 .4 1.5 0c.5-.4 .6-1 .3-1.5l-.1-.1c-.2-.4-.5-.6-.9-.7H289c-.6 0-1.1 .3-1.3 .9c-.1 .6 .1 1.2 .7 1.5l.3 .1l-.7-1.3v.2l1.3-1.1h-.7c-.2 0-.4 0-.6 .1l-.6 .3l-.2 .2l-.5 .5l.3-.3l-.7 .3c-.6 .3-.9 1-.7 1.6l.3 .9l.2 .6l.6-1.6l-.5 .2c-.2 .2-.5 .4-.6 .7l-.2 .7l.3-.5l-.5 .6l.2-.2l-.9 .5l-.3 .4l-.6 .8l.3-.3l-1.3 .9h.1l-1.7 1l-1.7 1.1h.1l-1.7 .8l-.1 .1l-1.7 .9l.2-.1l-1.6 .6l.2-.1l-2.3 .3l-.4 .1l-1.5 .6l-.1 .1l-.9 .4l-.1 .1l-.8 .4c-.7 .4-.9 1.2-.6 1.8l.3 .6l.6-1.8l-.3 .2l1.6 .1l-.2-.2l.2 .3l-.1-.2l.3 1V586v.2V586c.2-.4 .1-.8-.2-1.2l-.5-.6l.3 .7l-.1-.7v-.3l-.3-.9l.1 .2l-.1-1l-.2 .8l.5-.9l-.1 .2l.6-.8l.1-.2l.6-1.2l.6-1.2v-.1l.5-1.3v-.1l.5-1.4l-.2 .4l.9-1.3l.1-.3l.6-1.5l-.3 .5l.9-1l.1-.1l.8-1l-.2 .3l.5-.4l-.2 .1l.6-.2l-.5 .1h.3l.6-.2l.3-.1l-.6 .1h.4l-.9-.3l.4 .3c.2 .3 .5 .4 .9 .4h.5l-.9-.3l.7 .5l-.3-.4l.4 .8l.4 .4l.5 .3l-.3-.3l.5 .8v-.1l.5 .9v-.1l.5 1l-.1-.4l.4 1.6v-.1l.3 2V578l-.2 1.8v-.3l-.5 1.7v.1l-.5 1.8l.3-.6l-1.4 1.4l-.1 .2l-1.4 2.2l.2-.3l-2.1 2l.1-.1l-2.2 1.8v-.1l-2.3 1.6l.1-.1l-2.1 1.2l.1-.1l-1.5 .8l.6-.1l-1.7-.1l.5 .1l-1.2-.4l.4 .2l-1.4-1l.3 .2l-.9-1.1l-.8-1l.2 .4l-.4-1V589l-.5-1.1v.1l-.3-.9l-.1-.1l-.4-.9V586l-.5-.8l-.4-.4l-.4-.4l.1 .2l-.6-.6l-.3-.3l-.6-.3c-.2-.1-.4-.2-.6-.2h-.9h.2l-.6-.1H256l-1.1 .2l-.8 .1h.1l-1 .1l-.4 .1l-.6 .3h-.1l-.7 .3h.2l-1.1 .3h-.3l-1 .5h.1l-1.2 .5h.1l-1.2 .4c-.3 .1-.5 .2-.6 .4l-.9 .9l-.2 .4l-.7 1.3l.1-.2l-.9 1.3l-.3 .4l-.6 1.7l.3-.4l-1.2 1.5v.1l-1.1 1.6h-.1l-1.2 2v-.1l-1.3 2h-.1l-1.2 2.1l.1-.1l-1.5 1.8l-1.3 1.8l.1-.2l-1.8 1.8l.2-.2l-2.3 1.6l.2-.1l-2.3 1.3l-2.2 1.3l.4-.2l-2.2 .4h.2l-1.8 .2h.2l-1.9-.1l.4 .1l-1.9-1c-.5-.3-1.1-.1-1.3 .3c-.3 .5-.2 1.1 .3 1.4l1.8 1.2l.3 .1l1.8 .6l.4 .1l1.9-.1h.1l2.2-.3l.5-.2l2.2-1.3l2.3-1.2l.1-.1l2.3-1.6l.2-.1l1.8-1.8l.1-.2l1.3-1.7l1.5-1.8l.1-.2l1.2-2l1.3-1.9l1.3-1.9h-.1l1.2-1.7v.1l1.1-1.5l.2-.5l.6-1.7l-.3 .5l1-1.3l.2-.2l.7-1.4l-.2 .3l.8-.9l-.6 .4l1.3-.4v-.1l1.3-.5l1-.5l-.2 .1l1.1-.3l.2-.1l.7-.3l.6-.3l-.3 .1l1-.1l.8-.2l1-.1h-.5l.7 .1h.2l.8 .1l-.6-.2l.6 .3l-.4-.2l.6 .6l.2 .1l.5 .4l-.4-.5l.4 .7v-.1l.4 .9l-.1-.1l.4 .9v.1l.5 1.2v-.2l.4 1.1l.2 .5l.8 1v-.1l.9 1.2l.3 .2l1.4 1l.3 .2l1.3 .4l.4 .1h1.7c.2 0 .4 0 .6-.2l1.6-.8l2.1-1.2h.1l2.3-1.6h.1l2.2-1.8l.1-.1l2.1-2l.3-.3l1.3-2.1l-.2 .2l1.4-1.4c.2-.2 .3-.4 .3-.6l.5-1.8l.5-1.7l.1-.2l.2-1.8v-.4l-.4-2v-.1l-.4-1.5l-.2-.4l-.5-.9l-.1-.1l-.5-.8l-.6-.8l-.3-.3l-.5-.4l.4 .4l-.4-.7l-.3-.4l-.7-.5c-.2-.2-.5-.3-.8-.3h-.5l.8 .4l-.3-.4c-.3-.2-.6-.3-.9-.3h-.4l-.6 .1l-.2 .1l.5-.1h-.3l-.5 .1l-.7 .3l-.2 .1l-.5 .4l-.3 .2l-.9 1l.1-.1l-.9 .9l-.3 .5l-.6 1.5l.1-.2l-.9 1.3l-.2 .3l-.4 1.4h.1l-.5 1.2v-.1l-.6 1.2l-.6 1.2l.2-.2l-.6 .8l-.1 .1l-.5 .9c-.1 .2-.2 .5-.2 .8l.1 .9l.1 .3l.2 .9v-.2v.7c0 .3 .1 .6 .3 .8l.5 .6l-.2-1.1l-.1 .2v.4c-.1 .3 0 .7 .2 1l.2 .1l.3 .3l.1 .1c.5 .4 1.1 .4 1.5 .1l.2-.1c.6-.4 .9-1.2 .6-1.8l-.4-.6l-.5 1.8l.8-.5l.9-.4h-.1l1.5-.6l-.3 .1l2.4-.3l.3-.1l1.6-.5l.2-.1l1.7-1l1.7-.8l.2-.1l1.7-1.2l-.1 .1l1.7-1.1h.1l1.2-.9l.3-.4l.7-.8l-.4 .3l.9-.5l.2-.2l.5-.6l.3-.5l.2-.6l-.6 .8l.5-.3c.6-.3 .8-1 .6-1.6l-.2-.6v.1l-.3-.9l-.7 1.6l.7-.3l.4-.2l.5-.5l-.2 .2l.5-.3l-.7 .2l.7-.1c.3 0 .7-.1 .9-.4c.2-.3 .4-.6 .3-1v-.2c-.1-.4-.4-.8-.8-1l-.3-.1c-.5-.2-1 0-1.4 .3c-.3 .4-.4 1-.2 1.4c.3 .5 .7 .7 1.2 .7h.3l-1.1-.5l.1 .1c.3 .4 .8 .6 1.2 .5c.5-.1 .8-.5 .9-1c.1-.4-.1-.9-.4-1.2l-.6-.4c-.4-.3-.9-.3-1.3-.1c-.4 .3-.7 .7-.6 1.2c0 .5 .4 .9 .9 1h.1l.4 .1h.1c.5-.1 .9-.4 1-.9c.1-.4 0-.9-.4-1.2l-.3-.2c-.4-.4-.9-.4-1.3-.1c-.5 .2-.7 .7-.6 1.2l.1 .2l.1-.7l-.1 .2l.8-.7l-.2 .1l1 .2l-.3-.2c-.3-.2-.8-.3-1.1-.1c-.4 .1-.7 .5-.7 .9c-.1 .4 .1 .8 .4 1.1l.5 .3c.4 .3 .9 .3 1.3 .1l.1-.1c.3-.1 .5-.4 .5-.8c.1-.3 0-.7-.3-.9l-.3-.4l-.1-.1l-.1-.1l-.1-.1l-.6-.5l.3 .4l-.1-.1c-.2-.4-.7-.7-1.2-.6c-.4 .1-.8 .4-.9 .9c-.1 .5 .1 1 .5 1.2l.4 .2c.3 .2 .7 .2 1.1 0c.3-.2 .5-.6 .5-1v-.1c0-.5-.3-.9-.8-1.1c-.5-.1-1.1 .2-1.3 .6c-.2 .5-.1 1.1 .3 1.4l.2 .2c.4 .3 .8 .4 1.2 .2c.4-.2 .7-.5 .7-.9c0-.5-.2-.9-.5-1.1l-.4-.2l-.1-.1l-.6-.3c-.4-.2-.9-.1-1.2 .2c-.4 .2-.5 .7-.4 1.1v.2l.4-1.1l-.1 .1l.1-.1l-.3 .2c-.5 .2-.7 .8-.6 1.3l.4 1.2v-.9l-.4 .9v.1l-.3 .8c-.1 .2-.1 .4 0 .7l.2 1l.2-1l-.3 .4c-.3 .4-.3 1 0 1.4l.2 .3c.3 .3 .9 .5 1.3 .2c.5-.2 .7-.7 .6-1.2c-.1-.5-.6-.8-1.1-.8H286c-.4 0-.8 .3-.9 .7c-.2 .5 0 .9 .4 1.2l.2 .1c.4 .3 .9 .2 1.2-.1c.3-.4 .4-.9 .1-1.3c-.3-.3-.7-.5-1.2-.3l-.1 .1c-.3 .1-.6 .4-.5 .8c0 .4 .2 .7 .5 .9l2.4 .9h.1l.5 .2l-.1-.1l.1 .1h.6h-.5l.1 .1l-.4-.6v.2c.1 .3 .3 .5 .6 .5l.1 .1v-.1l.3 .1c.3 0 .7-.2 .7-.5c.1-.4-.1-.7-.4-.8l-.4-.1c-.2-.1-.5 0-.6 .2c-.2 .2-.2 .4-.1 .6c.1 .3 .3 .4 .5 .4l.4 .1c.3 0 .5-.2 .6-.4c.1-.3 0-.6-.2-.7c-.2-.2-.5-.2-.7 0l-.2 .1c-.1 .1-.2 .3-.2 .5c0 .1 .1 .3 .2 .4l.2 .2h.2l.3 .1c.3 .1 .6 0 .7-.3c.1-.4-.1-.7-.4-.8l-.3-.1l.4 .6v-.1c0-.2-.1-.4-.3-.5Z" class="g0_70"/>
<path d="M294 540.2h.1c.5-.3 .7-.9 .5-1.5c-.2-.5-.7-.9-1.3-.9h-1c-.6 0-1.1 .5-1.2 1l-.2 .6l1-1l-2.4 .8l-.3 .1l-2.3 1.4h-.1l-2.6 1.8l.4-.2l-4.1 1.2l-.2 .1l-3.2 1.4v.1l-3.1 1.5l-.1 .1l-2.7 1.7c-.5 .3-.7 1-.4 1.5c.4 .5 1 .7 1.6 .4l2.7-1.7l-.1 .1l3.1-1.3l3.3-1.4l-.2 .1l4.2-1.2l.4-.1l2.6-1.8l-.1 .1l2.3-1.4l-.3 .1l2.4-.8c.5-.2 .9-.6 1-1.2v-.6l-1.3 1.3l1-.1l-.7-.2c.4 .3 .9 .3 1.3 0Z" class="g0_70"/>
<path d="M289.9 570.4l-.4-.6c-.1-.3-.3-.4-.6-.4c-.3-.1-.5 0-.7 .2l-.2 .2l.9-.4h-.3c-.5-.1-1 .2-1.2 .6c-.2 .5 0 1 .3 1.3l.3 .2l.8 .8c.4 .4 1.1 .4 1.5 .1c.5-.4 .5-1.1 .1-1.5l-.2-.4l.2 .6V571c0-.3-.2-.6-.4-.8l-.2-.2h-.1l-.4-.3c-.5-.2-1-.1-1.4 .2c-.3 .4-.4 1-.1 1.4l.2 .2l-.2-.8l-.1 .2c0 .5 .3 1.1 .9 1.3h.2c.5 .2 1.1 0 1.4-.4c.3-.4 .4-1 .1-1.4v-.1h-.1v-.1c-.2-.2-.4-.4-.6-.5l-1-.4l.1 .1l-2-.9c-.5-.2-1.1-.1-1.4 .3l-.3 .3l1.4-.3l-.6-.2c-.3-.2-.7-.2-1.1 0c-.3 .2-.6 .5-.6 .9l-.1 .3c-.1 .6 .3 1.2 .9 1.4c.5 .2 1.2 0 1.5-.6c.3-.5 .1-1.2-.4-1.6l-.7-.5l.1 .1l-.8-.8l-.6-.6l.2 .2l-.8-.9l.2 .2l-.3-.6l-.1-.1l-.1-.3l.1 .4l-.1-.7l-.1-.7v.4l.1-.5l.3-1.1l-.3 .5l.5-.6l.2-.4l.2-.6l-.1 .2l.4-.6l.1-.2l.2-.6v-.3l.1-.4l-1 1.1l.8-.2h-.4l.5 .1l-.2-.1l.9 .3l1.3 .3h1.1h-.1l1.1 .1h.4l.6-.2c.6-.1 .9-.6 1-1.2v-.1c0-.6-.5-1.2-1.2-1.3c-.6 0-1.2 .5-1.3 1.1c-.1 .7 .4 1.3 1 1.4l.7 .1c.7 .2 1.3-.3 1.5-.9c.1-.7-.3-1.4-1-1.5l-.4-.1c-.4-.1-.7 0-1 .2c-.2 .2-.4 .5-.5 .8l-.1 .3c0 .3 .1 .7 .3 .9l.2 .4l.2-1.7l-.2 .2c-.5 .4-.6 1.1-.3 1.6l.3 .4l.3 .5l-.2-.9l-.1 .6v.4l.2 1.1l.1 .3l.9 1.8l-.2-.4l.3 1.5v.1l.3 1.3v-.2l.1 1l.1 .3l.2 .6l.1 .4l.5 .7l.2 .2l1 .9l-.1-.1l.7 .9l.1 .1v-.1l.4 .6c.4 .4 .9 .6 1.4 .4c.5-.1 .9-.5 1-1c.1-.5-.1-1-.5-1.3l-.1-.1l-.7-.5c-.1-.2-.3-.3-.5-.3l-1-.2l.7 .4l-4.6-4.8c-.4-.5-1.2-.5-1.7-.1c-.5 .5-.5 1.3-.1 1.7l4.6 4.9c.2 .2 .4 .3 .7 .4l.9 .2l-.7-.4l.6 .6l-.1-.1l.1 .2c.3 .4 .8 .5 1.3 .5c.5-.1 .9-.4 1-.9c.2-.5 .1-1-.2-1.3l-.5-.6l-.1-.1l-.1-.1l.1 .1l-.7-.8l-.1-.1l-1-1l.2 .2l-.5-.6l.2 .3l-.2-.7v.3l-.1-1v-.1l-.3-1.3l-.3-1.4l-.1-.4l-.9-1.7l.1 .3l-.2-1.1v.4l.1-.6c0-.3 0-.6-.2-.9l-.3-.4l-.3-.4l-.2 1.7l.3-.2c.5-.5 .5-1.2 .1-1.7l-.2-.4l.2 1l.1-.3c.1-.7-.4-1.3-1.1-1.4c-.6-.1-1.3 .3-1.4 1c-.1 .7 .3 1.3 1 1.5h.4c.5 .1 .9 0 1.2-.4c.3-.3 .4-.8 .2-1.2c-.1-.4-.5-.7-.9-.8l-.8-.1c-.3-.1-.7 0-1 .2c-.3 .3-.4 .7-.4 1v.1l.9-1.2l-.7 .2h.5l-1.1-.1h-.9h.3l-1.3-.3l-.9-.2l-.2-.1H284l-.8 .2c-.5 .1-.9 .5-1 1v.4v-.3l-.2 .6l.1-.2l-.4 .6l-.1 .3l-.2 .6l.2-.3l-.5 .6l-.2 .5l-.3 1l-.1 .6v1.2l.1 .7l.2 .5l.2 .3l-.1-.1l.3 .6l.2 .3l.7 .9l.2 .1l.6 .6l.8 .7l.1 .1l.7 .6c.4 .2 .8 .3 1.3 .1c.4-.2 .7-.6 .7-1v-.3c.1-.6-.3-1.3-.9-1.4c-.6-.2-1.3 .2-1.5 .8c-.2 .6 .1 1.3 .7 1.6l.5 .2c.5 .2 1.1 .2 1.4-.2l.4-.3l-1.4 .2l2 .9l.9 .4l-.7-.8v.1c.1 .3 .3 .5 .6 .7c.5 .3 1.2 .3 1.6-.2c.4-.4 .5-1 .2-1.5c-.3-.6-.9-.8-1.5-.6l-.2 .1l1.3 .4l-.1-.1l-.2-.3l-.2-.1c-.4-.3-.8-.3-1.2-.1c-.4 .2-.6 .6-.6 1c.1 .5 .3 .8 .7 1l.4 .2l-.2-.1l.2 .1l-.4-.9v.1c-.1 .3 0 .5 .1 .7l.3 .4c.2 .3 .6 .5 1 .4c.5 0 .8-.3 .9-.7c.2-.4 .1-.8-.2-1.1l-.9-.9l-.2-.2l-.3-.2c-.4-.2-.9-.2-1.3 .1c-.3 .4-.5 .9-.2 1.3c.2 .4 .6 .7 1.1 .6h.3c.4-.1 .8-.3 .9-.7c.1-.3 0-.7-.2-1l-.2-.2c-.2-.2-.5-.3-.8-.2c-.4 .1-.6 .4-.6 .7c-.1 .3 .1 .7 .4 .8l.7 .4c.2 .2 .5 .1 .7-.1c.2-.2 .3-.5 .1-.8Z" class="g0_70"/>
<path d="M406.3 678.8l.6-.9l-.2 .2l.6-.3h-.1l.6-.2l.3-.1l-.2 .1l.3-.1h-.5h.2l-.5-1.1v.2l-.1 .6l.3 1.2v-.1l.5 3.3v-.2l-.2 2.6l.1-.2l-.6 2.5v-.2l-1.1 2.9l-1.3 3h.1l-1.5 3.1h.1l-1.6 3l-1.4 2.7v-.1l-1.4 2.2l.1-.1l-1.3 1.4l-.1 .1l-.8 1.3l.2-.2l-.4 .4c-.3 .3-.4 .8-.1 1.2c.2 .3 .7 .5 1.1 .2l.5-.2l.2-.2l1.1-1.1l1.3-1.3l.2-.2l1.5-2.1V702l1.5-2.8l1.5-3l.1-.1l1.4-3.1l1.2-3.1l.1-.1l1-2.8l.1-.2l.5-2.5v-.2l.1-2.6v-.3l-.7-3.2v-.1l-.3-1.2c-.1-.3-.3-.5-.6-.7h-.1c-.3-.1-.5-.1-.7 0h-.2v.1l-.3 .1l-.1 .1l-.2 .2l.1-.1l-.5 .4l-.5 .4l-.2 .2l-.4 1.1c-.1 .2 0 .4 .2 .5c.2 .1 .4 0 .5-.2Z" class="g0_70"/>
<path d="M394.5 700.6l-1.5 1.2h.1l-1.1 .7l.1-.1l-1 .5l-.4 .4l-.5 .7l-.2 .4l-.2 .9v-.1l-.4 1.1l.1-.2l-.7 1l.2-.2l-.9 .8l.2-.1l-1.3 .8l.3-.1l-1.4 .4h-.2l-1.1 .5h.2l-1.6 .3l-.1 .1l-1.3 .4l.3-.1l-1.2 .1h.2l-1.4-.2l-.9-.1h.2l-1-.4l.1 .1l-.6-.4h-.1l-.8-.4l.3 .2l-.9-.9l-1.3-1.2l.2 .2l-1-1.4l.1 .1l-.7-1.5v.1l-.5-2.1v.4v-5l-.3-2.7v.2l.3-2.4l-.2 .5l1.1-1.9l.1-.2l.5-1.5l-.3 .5l1.2-1.3l1-1l.3-.4l.4-1l-.3 .4l.9-.7l.3-.6l.2-.7v.1l.1-.2l-.7 .6l.2-.1l-1.5-.6h.1h-.1l.1 .1c.2 .5 .8 .8 1.4 .7c.5-.1 1-.6 1-1.1c0-.6-.4-1.1-.9-1.3h-.1c-.3-.1-.6-.1-.9 .1c-.3 .2-.5 .4-.6 .8l-.2 .5l.1-.2l-1.4 2.9h.1l-1.2 2.4v-.1l-2.1 3h.1l-2.4 3.3l-.1 .1l-2.4 3.7l-2.5 3.8v-.1l-2.4 3.3l.1-.1l-2.5 3l-2.1 2.4l.2-.2l-2.1 1.7v-.1l-1.6 1.2l.6-.3l-1.7 .3l.7 .1l-1.3-.5l.4 .2l-.9-.9l.3 .5l-.5-1.7c-.2-.5-.8-.9-1.4-.7c-.6 .2-1 .8-.8 1.4l.4 1.7l.2 .4l.8 1l.4 .4l1.3 .7c.2 .1 .5 .2 .8 .1l1.7-.2c.3-.1 .5-.1 .7-.3l1.6-1.2l2.1-1.7l.2-.2l2-2.4h.1l2.4-3l2.5-3.3l2.5-3.9l2.4-3.7l2.4-3.3l2.1-3.1l.1-.1l1.2-2.5l1.3-3l.1-.2l.1-.5l-.9 .9h.1c.3-.1 .7-.4 .8-.7c.1-.4 .1-.8-.1-1.1v-.1l-.1-.1c-.2-.5-.9-.7-1.4-.6l-.3 .1c-.3 .1-.6 .4-.7 .6l-.2 .3v.2l-.3 .8l.3-.6l-.8 .8l-.3 .4l-.4 1l.3-.4l-1.1 1l-1.2 1.3l-.3 .5l-.5 1.5V690l-1 1.9l-.1 .5l-.3 2.3v.3l.3 2.7v-.1l.1 2.6v2.3l.1 .3l.6 2.1l.1 .2l.8 1.5l.1 .2l1 1.4l.2 .2l1.3 1.1v-.1l.9 .8l.3 .2l.8 .4l.7 .3l1 .4h.2l.9 .2l1.4 .2h.1l1.2 .1l.3-.1l1.3-.3h-.1l1.6-.3h.2l1.2-.4h-.1l1.4-.4l.3-.1l1.3-.7l.3-.2l.9-.9l.2-.2l.6-.9l.2-.3l.4-1.2l.1-.1l.2-.9l-.2 .4l.5-.7l-.4 .4l1-.6l.2-.2l.9-.8l.1-.2l1.2-1.5c.3-.4 .2-.9-.1-1.2c-.3-.3-.8-.3-1.1 0Z" class="g0_70"/>
<path d="M388.2 730.7l.6 3.1v-.6l-.4 1.3l.3-.5l-.6 .7l1.3-.5h-.2l1.1 1.2v-.3l-.5 .9l1.1-.9c.5-.4 .6-1.1 .2-1.6c-.4-.5-1.1-.6-1.6-.2l-1.2 .9l-.3 .3l-.1 .3c-.3 .5-.2 1.2 .2 1.6l.1 .1c.3 .3 .8 .4 1.2 .4c.4-.1 .7-.3 .9-.7l.4-.7l.2-.6l.1-1.3l-.1-.4l-1.1-3c-.1-.4-.6-.6-1-.5c-.4 .1-.7 .5-.6 1Z" class="g0_70"/>
<path d="M343.5 657.7l4.8 .6l-.9-.9l.3 1.2l-.1-.4v1.7l.8 2v.1l.9 2.1l.2 .3l2.1 2.5v.1l2.6 2.9v-.1l2.5 3l.1 .1l2.7 2.6l2.4 2.4v.1l2.4 2.2l-.1-.1l1.7 2c.5 .5 1.3 .6 1.8 .1c.5-.5 .6-1.3 .1-1.8l-1.7-1.9v-.1l-2.3-2.3l-2.3-2.5h-.1l-2.7-2.7l.1 .1l-2.5-2.9l-.1-.1l-2.6-2.8l-2-2.5l.2 .3l-.9-2.1v.1l-.8-2.1l.1 .5l-.1-1.2l-.1-.4l-.4-1.1c-.2-.4-.6-.7-1.1-.7l-4.8-.1c-.5 0-.9 .3-1 .8c0 .5 .3 .9 .8 1Z" class="g0_70"/>
<path d="M372.1 689.7l-1.6 .6c-.3 .1-.5 .4-.5 .7c0 .3 .3 .6 .6 .6l.9 .2h.4l.1-.1h-.2l.3 .1l.1-.1h.5c.3-.1 .5-.2 .6-.5c.1-.2 .1-.5 0-.7l-.2-.3c-.2-.3-.7-.4-1.1-.2c-.3 .2-.5 .7-.3 1.1c.2 .3 .7 .5 1.1 .3l.2-.1l.2-.1l-.4 .1h.9l.5-.1l.8-.5l-.3 .1l1.5-.2c.2-.1 .4-.2 .6-.4l.9-.9l.2-.4l.5-1.2l-.4 .5l1.1-.8l.4-.5l.5-1.2l-.5 .5l1.2-.6l-.3 .1l1-.3h-.7l.8 .3l-.4-.2l.7 .6l-.4-.6l.4 1l-.1-.2l.1 1.1l.1-.5l-.6 1.7l.1-.3l-1.3 1.7l-2.1 2.6c-.4 .5-.3 1.2 .1 1.6c.5 .4 1.2 .3 1.6-.2l2.2-2.6l1.4-1.6l.1-.4l.7-1.7l.1-.6L384 686v-.2l-.3-1c-.1-.2-.2-.4-.4-.6l-.7-.6l-.4-.2l-.7-.3c-.3 0-.5-.1-.7 0l-1 .3l-.3 .1l-1.2 .6c-.2 .1-.4 .3-.5 .6l-.5 1.2l.3-.5l-1.1 .9c-.2 .2-.3 .4-.4 .6l-.4 1.3l.2-.4l-.8 1l.6-.4l-1.5 .4l-.4 .2l-.7 .6l.5-.2l-.9 .1c-.3 .1-.6 .3-.7 .5l-.1 .2l.3-.3l-.2 .1c-.2 .2-.4 .4-.4 .6c0 .2 .1 .5 .2 .6l.2 .2c.3 .3 .7 .4 1 .2c.3-.2 .5-.6 .3-1c-.1-.3-.5-.5-.8-.5l-.6 .1h.2h-.3l-.4 .2l-.2 .1l.5-.2h-.9c-.3-.1-.6 .1-.7 .4c-.1 .2-.1 .5 .1 .7c.2 .2 .5 .3 .8 .2l1.6-.8c.2-.1 .3-.4 .2-.7c-.1-.3-.4-.4-.7-.4Z" class="g0_70"/>
</svg>