<svg viewBox="0 0 1466 825" version="1.1" xmlns="http://www.w3.org/2000/svg">
<defs>
<clipPath id="c0_54"><path d="M-.2 825.3V-.2H1467V825.3Z"/></clipPath>
<clipPath id="c1_54"><path d="M1343.9 529.1V456.4H1452v72.7Z"/></clipPath>
<clipPath id="c2_54"><path d="M1346.3 621.3V549.7h102.9v71.6Z"/></clipPath>
<clipPath id="c3_54"><path d="M1346.4 716.6V641.9h103v74.7Z"/></clipPath>
<clipPath id="c4_54"><path d="M1353 825V744.6h96.2V825Z"/></clipPath>
<clipPath id="c5_54"><path d="M47 825.3V370.7H677.4V825.3Z"/></clipPath>
<style>
.g0_54{fill:#F00;}
.g1_54{fill:none;stroke:#000;stroke-width:1.466;stroke-linejoin:round;}
.g2_54{fill:none;stroke:#F00;stroke-width:9.166;stroke-miterlimit:8;}
</style>
</defs>
<image clip-path="url(#c0_54)" preserveAspectRatio="none" x="0" y="-7" width="1467" height="840" href="img/1.jpg"/>
<path fill-rule="evenodd" d="M766.4 349.8l3.7 2.4l-2.9 3.4l-3.1-2l-2.4 2.5L758 354l2.8-3.6l3.3 2.1ZM578.8 336.9l6.9 3.7l-3.5 6.7l-7-3.6Zm-392.5 0l6.9 3.7l-3.5 6.7l-7-3.6Zm-40.1-.3l5.6 3.1l-3.1 5.7l-4.4-2.2l-2.6 4.9l-5.4-3.1l3.3-6l4.2 2.3Zm406.6-1.7c.3 1.8 1.2 3.3 2.7 4.6c1.5 1.3 3.2 1.9 4.9 1.9c.6 0 .9-.2 .9-.6c0-1.1-.6-2.2-1.9-3.2c-1.5-1.2-3.7-2.1-6.6-2.7Zm-298.7-3.7l7 3.7l-3.6 6.7l-7-3.7Zm-81.4-9.7c-.6 0-1.1 .3-1.4 .7c-.4 .5-.6 1.1-.6 1.6c0 .8 .4 1.3 1.2 1.8c.8 .5 1.8 .7 3.1 .7h1.1c-.5-3.2-1.7-4.8-3.4-4.8Zm1273.5-.2c-.8 0-1.4 .9-2 2.7c1.1 .4 1.8 .7 2.4 .9c1.6 .6 2.5 .9 2.7 .9c.4 0 .7-.1 .7-.4c0-.4-.5-1.2-1.3-2.3c-1-1.2-1.8-1.8-2.5-1.8Zm-462 0c-.8 0-1.4 .9-2 2.7c1.1 .4 1.8 .7 2.4 .9c1.6 .6 2.5 .9 2.7 .9c.4 0 .7-.1 .7-.4c0-.4-.5-1.2-1.3-2.3c-1-1.2-1.8-1.8-2.5-1.8Zm-495.6 0c-.7 0-1.4 .9-1.9 2.7c1 .4 1.8 .7 2.3 .9c1.6 .6 2.5 .9 2.7 .9c.5 0 .7-.1 .7-.4c0-.4-.4-1.2-1.3-2.3c-.9-1.2-1.8-1.8-2.5-1.8Zm452.9-.9c-1.3 0-2.8 .4-4.4 1.3c-1.7 .8-4 2.4-7.2 4.6h7.9c6.5 0 9.8-1 9.8-3c0-.7-.7-1.4-2.2-2c-1.5-.6-2.8-.9-3.9-.9Zm-816.1 0c-1.3 0-2.8 .4-4.4 1.3c-1.6 .8-4 2.4-7.1 4.6h7.8c6.5 0 9.8-1 9.8-3c0-.9-.7-1.6-2.1-2.2c-1.2-.5-2.5-.7-4-.7Zm432.9-2.6c-.5 0-1.1 .5-1.8 1.6c-.6 1.2-1.5 2.9-2.5 5.3c2.3-.8 3.9-1.4 4.8-2c.8-.6 1.3-1.2 1.3-1.9c0-.5-.2-1.2-.6-1.9c-.4-.8-.8-1.1-1.2-1.1Zm352.4-1.2c-.4 0-.7 .2-1 .4c-.3 .3-.5 .6-.5 .9c0 .9 .7 1.7 2 2.5c1.2 .8 2.7 1.4 4.5 1.7c-.7-1.8-1.5-3.1-2.4-4c-.8-1-1.7-1.5-2.6-1.5Zm-595.3 0c-.4 0-.7 .2-1 .4c-.3 .3-.5 .6-.5 .9c0 .9 .7 1.7 2 2.5c1.3 .8 2.8 1.4 4.5 1.7c-.7-1.8-1.5-3.1-2.3-4c-.9-1-1.8-1.5-2.7-1.5Zm176.5-2.2c1 0 2.2 1.5 3.7 4.6c1.6 3.2 2.4 6.2 2.4 8.9v6.5c-2.1 0-4.6-.4-7.4-1.2c-2.5-.7-4.7-1.6-6.6-2.6c-1.1 1.8-2.5 2.9-4.2 3.4c-.8 .3-1.9 .4-3.3 .4h-3.9v.7c0 1.2-.7 2.8-2 4.8c-1.4 2-3.1 3.8-4.9 5.2c-2.1 1.7-3.9 2.5-5.3 2.5c-1.8 0-3.7-.5-5.7-1.5c-1.7-.9-4.4-2.6-8.2-5.1l1.3-1.9c1.8 1.2 3.2 2 4.3 2.4c1.1 .4 2.3 .6 3.6 .6c1.3 0 2.7-.4 4.1-1.1c1.3-.8 3.2-2.2 5.6-4.3c3.3-3 4.9-5.2 4.9-6.8c0-.8-.3-1.9-.9-3.2c-.8-1.4-1.6-2.7-2.7-3.6l1.7-8.1c1.4 1.4 2.4 3 3.1 4.8c.8 1.8 1.1 3.9 1.1 6.2v.3h3.9c1.7 0 3.2-.2 4.2-.6c1.4-.6 2.3-1.6 2.8-2.9c1.1-2.6 2.6-4.6 4.4-6.3c1.5-1.4 2.9-2.1 4-2.1Zm380.3-.4c-.6 .3-1.1 .5-1.4 .7c-1.1 .6-2 1.1-2.7 1.6c-.4 .4-.8 .8-1.2 1.1c-.4 .5-.6 .8-.6 1c0 .3 .4 .5 1.1 .7c.7 .1 1.4 .2 2 .2c.5 0 .9-.1 1.4-.4c.5-.2 1.2-.7 2-1.3ZM60.8 314c-.6 .3-1.1 .5-1.5 .7c-1.1 .6-1.9 1.1-2.6 1.6c-.5 .4-.9 .8-1.2 1.1c-.4 .5-.6 .8-.6 1c0 .3 .4 .5 1.1 .7c.7 .1 1.3 .2 2 .2c.4 0 .9-.1 1.4-.4c.5-.2 1.1-.7 2-1.3Zm550.6-.7l1.6 1.1c-.4 .8-.8 1.5-1 2.1c-.3 .7-.6 1.2-.7 1.7c-.3 .9-.5 1.8-.5 2.7c0 1.2 .4 2.2 1.1 3.1c.8 .9 1.7 1.5 2.9 1.8c.7 .1 1.6 .3 2.7 .4c1.1 .1 2.3 .1 3.5 .1h21.6c-.6-1.6-1.1-2.6-1.4-3.2c-.4-.8-1.1-1.7-2-2.9l2.7-6.9c1.4 2.1 2.4 4.1 2.9 5.8c.4 1.6 .6 3.9 .6 6.9v8.4h-25c-1.2 0-2.2 0-3 0c-.8 0-1.4-.1-1.8-.1c-.8-.1-1.6-.3-2.6-.6c-1.6-.6-3-1.7-4-3.4c-1-1.7-1.6-3.6-1.6-5.7c0-.9 .1-1.7 .2-2.6c.1-.9 .3-1.8 .7-2.8c.4-1.2 .8-2.3 1.4-3.2c.5-1 1.1-1.9 1.7-2.7Zm693.4-1.5c-.6 0-1.1 .3-1.6 .9c-.5 .5-.7 1.1-.7 1.8c0 .5 .2 .9 .6 1.2c.3 .3 .8 .4 1.4 .4c.4 0 .9-.1 1.4-.4c.4-.2 1-.7 1.7-1.3c-.6-1-1-1.6-1.5-2c-.4-.4-.8-.6-1.3-.6Zm-645.5-5.5c2.6 1.9 4.4 4.4 5.5 7.4c1 2.8 1.5 6.5 1.5 11.2v1.4h34.6c-2.4-2.5-4.6-4.3-6.6-5.3c-1.9-1-3.6-1.5-5.4-1.5c-.5 0-.9 0-1.4 .1c-.4 0-1 .1-1.8 .3c1.1-2.5 2.3-4.4 3.6-5.5c1.4-1.2 2.9-1.8 4.6-1.8c1.3 0 2.6 .3 3.8 .9c1.2 .7 2.5 1.7 4.1 3.1c1.1 1.1 2.8 2.8 5 5.2c1.5 1.7 2.7 2.8 3.4 3.3c.8 .5 2 .9 3.6 1.2h13.5c-.2-1.3-.6-2.5-1.2-3.4c-.3-.5-1-1.4-2.1-2.7l2.4-7.1c1.5 1.7 2.5 3.5 3.1 5.3c.5 1.9 .8 4.6 .8 8.2v7.8H652.8c-1.4 0-2.4-.3-3.1-.8c-.8-.7-1.2-1.8-1.2-3.3c0-.9 0-1.8 .1-2.9c.1-1 .2-2 .4-3l1.1-.1c.2 .7 .6 1.2 1.1 1.5c.5 .4 1.2 .5 2 .5h10.2c-.4-2.9-1.2-5.2-2.4-7c-.9-1.4-2.2-2.7-3.9-3.8Zm646.1-2c2 0 4 1.8 5.9 5.4c1.8 3.7 2.7 7.5 2.7 11.6v13.1h-22.4c-3.7 0-6.9 .3-9.7 .9c-2.8 .6-4.2 1.3-4.2 2.1c.8 2.4 1.5 4.7 2.1 6.7c.6 2.1 .9 4.1 .9 6c0 1.3-.2 2.4-.4 3.2c-.3 .9-.8 1.8-1.5 2.8c-.2-2.6-.7-5.4-1.5-8.3c-.2-1-.9-3.1-1.9-6.4c-.7-2-1-3.3-1-4c0-.9 .3-2.1 .8-3.5c.4-1.1 .9-2.1 1.4-3c.7-1 1.8-1.7 3.3-2.3c1.6-.6 4-1.1 7.3-1.4c-1.6-2.2-3-3.4-4.2-3.4c-.5 0-1 .2-1.5 .6c-.4 .4-1.2 1.3-2.2 2.7l-1.4-.8c.9-3 1.9-5.3 3.2-7c1.3-1.6 2.7-2.4 4.2-2.4c1.4 0 2.8 .7 4.5 2.3c1.6 1.5 3.5 3.9 5.6 7.1h15.8c0-1.7 0-2.9-.1-3.7c-.2-1.1-.5-2.1-1-2.9c-.6 1.2-1.5 2.1-2.6 2.8c-1 .7-2.2 1-3.4 1c-1.6 0-2.9-.5-4-1.6c-1.1-1.1-1.7-2.4-1.7-4c0-2.3 .8-5.1 2.2-8.3c1.6-3.5 3.1-5.3 4.8-5.3Zm-676-1l5.4 3l-3.3 6.1l-4.2-2.4l-2.4 4.7l-5.5-3l3.1-5.8l4.4 2.2ZM62.5 300.8l2.8 18.6c.5 2.9 1.1 4.9 1.8 5.9c.5 .7 1.2 1 2 1H90.7c2.3 0 4.1-.6 5.3-1.7c1.4-1.4 2.3-3.7 2.7-7l2 .3c-.1 .7-.1 1.3-.1 1.7c-.1 1.3-.2 2.4-.2 3.2c0 1.1 .3 2 .9 2.6c.6 .6 1.4 .9 2.4 .9c1 0 1.9-.2 2.7-.6c.8-.4 2.1-1.2 3.9-2.5l10.7-7.6c1.2-.9 2.1-1.5 2.8-1.9c1.4-.9 2.8-1.3 4.2-1.3c2.2 0 4 .8 5.3 2.4c1.6 1.8 2.3 4.5 2.3 8.2v3.3h13.7c-.3-1.3-.7-2.5-1.2-3.4c-.3-.5-1-1.4-2.1-2.7l2.4-7.1c1.5 1.7 2.5 3.5 3 5.3c.6 1.9 .8 4.6 .8 8.2v7.8H104.1c-1.4 0-2.6-.3-3.4-1c-.8-.7-1.6-1.9-2.2-3.5c-.8 1.1-1.5 2-2.3 2.7l-.4 .3v1.5H69.1c-.7 0-1.4-.1-2-.4c-1.1-.6-2.1-1.6-2.9-3.2c-1.1-2.1-1.8-5-2.1-8.6c-1.3 1.6-2.4 2.8-3.1 3.5c-1.1 1-2 1.5-2.8 1.5c-.4 0-.8 0-1.4-.1l-3.6-.8c-1.6-.3-2.5-.5-2.9-.6c-.4-.2-.5-.4-.5-.8c0-.5 .6-2.2 2-5.1c1.4-2.8 2.4-4.6 3-5.3c.5-.5 1.4-1.2 2.7-2.1c.7-.5 1.8-1.1 3.2-1.9l1.6-1c-.1-.2-.1-.5-.2-.8c0-.3 0-.6 0-.8c0-.8 .2-1.7 .5-2.9c.4-1.1 1-2.5 1.9-4.2Zm746.1-1.3l5.6 3.1l-3.1 5.7l-4.5-2.2l-2.5 4.9l-5.4-3.1l3.3-6.1l4.2 2.4Zm-84.3 0l5.5 3.1l-3.1 5.7l-4.4-2.2l-2.5 4.9l-5.4-3.1l3.3-6.1l4.2 2.4Zm-389.2 0l5.5 3.1l-3.1 5.7l-4.4-2.2l-2.5 4.9l-5.4-3.1l3.2-6.1l4.3 2.4Zm-221.2-.8l6.9 3.7l-3.6 6.7l-6.9-3.7Zm847.6-.4l6.9 3.7l-3.5 6.6l-7-3.6Zm443-.1c1.1 1.6 1.9 3.2 2.4 4.7c.5 1.8 .8 4.2 .8 7v5.8c0 4.2 .3 7.1 .8 8.7c.5 1.3 1.2 1.9 2.1 1.9H1434c1.8 0 3.2-.2 4.3-.6c1.3-.6 2.2-1.6 2.8-2.9c1.1-2.6 2.5-4.6 4.3-6.3c1.6-1.4 2.9-2.1 4-2.1c1 0 2.3 1.5 3.8 4.6c1.5 3.2 2.3 6.2 2.3 8.9v6.5c-2.1 0-4.5-.4-7.3-1.2c-2.5-.7-4.7-1.6-6.6-2.6c-1 1.6-2.2 2.6-3.6 3.2l-.4 .1v.5h-27c-2.3 0-4-.9-5-2.8c-1.2-2.1-1.8-5.7-1.8-10.7v-8.5c0-1.9-.2-3.4-.8-4.5c-.2-.5-.8-1.2-1.7-2.2Zm-26.7 0l1.8 10.6c.7 4 1.1 7.5 1.4 10.4c.2 2.3 .3 4.5 .3 6.6c0 1.7-.2 3.3-.7 4.8c-.4 1.4-1.2 3.4-2.4 5.9l-1.8-.7c.5-2.6 .8-4.6 .8-6.2c0-1.2-.2-3-.4-5.4c-.1-2.3-.4-4.6-.7-6.9c-.3-2.3-.8-5.1-1.5-8.2c-.2-1.2-.3-1.9-.3-2.3c0-.7 .3-1.7 .9-3.2c.6-1.5 1.5-3.3 2.6-5.4Zm-127 0l1.7 10.6c.7 4 1.2 7.5 1.4 10.4c.2 2.3 .3 4.5 .3 6.6c0 1.7-.2 3.3-.6 4.8c-.4 1.4-1.2 3.4-2.4 5.9l-1.8-.7c.5-2.6 .7-4.6 .7-6.2c0-1.2-.1-3-.3-5.4c-.2-2.3-.4-4.6-.7-6.9c-.3-2.3-.8-5.1-1.5-8.2c-.2-1.2-.4-1.9-.4-2.3c0-.7 .4-1.7 1-3.2c.6-1.5 1.4-3.3 2.6-5.4Zm-64 0l1.8 10.6c.6 4 1.1 7.5 1.3 10.4c.2 2.3 .3 4.5 .3 6.6c0 1.7-.2 3.3-.6 4.8c-.4 1.4-1.2 3.4-2.4 5.9l-1.8-.7c.5-2.6 .7-4.6 .7-6.2c0-1.2-.1-3-.3-5.4c-.2-2.3-.4-4.6-.7-6.9c-.3-2.3-.8-5.1-1.5-8.2c-.2-1.2-.4-1.9-.4-2.3c0-.7 .4-1.7 1-3.2c.6-1.5 1.5-3.3 2.6-5.4Zm-171.4 0l1.7 10.6c.7 4 1.2 7.5 1.4 10.4c.2 2.3 .3 4.5 .3 6.6c0 1.7-.2 3.3-.6 4.8c-.4 1.4-1.2 3.4-2.4 5.9l-1.8-.7c.5-2.6 .7-4.6 .7-6.2c0-1.2-.1-3-.3-5.4c-.2-2.3-.4-4.6-.8-6.9c-.2-2.3-.7-5.1-1.4-8.2c-.2-1.2-.4-1.9-.4-2.3c0-.7 .4-1.7 1-3.2c.6-1.5 1.4-3.3 2.6-5.4Zm-179 0l1.8 10.6c.7 4 1.1 7.5 1.4 10.4c.2 2.3 .3 4.5 .3 6.6c0 1.7-.2 3.3-.6 4.8c-.5 1.4-1.3 3.4-2.5 5.9l-1.7-.7c.4-2.6 .7-4.6 .7-6.2c0-1.2-.1-3-.3-5.4c-.2-2.3-.5-4.6-.8-6.9c-.3-2.3-.8-5.1-1.4-8.2c-.3-1.2-.4-1.9-.4-2.3c0-.7 .3-1.7 .9-3.2c.6-1.5 1.5-3.3 2.6-5.4Zm-317.4 0c1.1 1.6 1.9 3.2 2.4 4.7c.5 1.8 .8 4.2 .8 7v5.8c0 4.2 .3 7.1 .8 8.7c.5 1.3 1.2 1.9 2.1 1.9h20.2c1 0 2.1-.1 3.3-.3c1.2-.3 2.1-.4 2.6-.6c2.2-5.9 4.1-10.2 5.8-12.9c1.5-2.3 2.9-3.5 4.1-3.5c1 0 1.9 1 2.7 3c.6 1.7 .9 3.4 .9 5c0 2.4-.4 4.3-1.4 5.9c-1 1.8-2.4 3.1-4.4 4c1.4-.3 2.7-.4 3.9-.5c1.2-.1 2.3-.1 3.3-.1h19.7c-.2-1.3-.6-2.5-1.2-3.4c-.3-.5-1-1.4-2.1-2.7l2.4-7.1c1.5 1.7 2.5 3.5 3 5.3c.6 1.9 .9 4.6 .9 8.2v7.8H566.1c-.4 0-.9 0-1.4 0c-.4 0-1.1 .1-2.1 .2c.7 .4 1.5 .8 2.2 1.2c.6 .5 1 1.2 1 2c0 .8-.1 1.6-.3 2.5c-.2 .5-.5 1.3-.9 2.6c-.8 2.5-1.6 4.2-2.3 5.1c-.7 .9-1.7 1.3-2.8 1.3c-2.7 0-5.1-1.5-7.1-4.4c-2-2.9-3-6.4-3-10.5H525.1c-2.3 0-4-.9-5-2.8c-1.2-2.1-1.8-5.7-1.8-10.7v-8.5c0-1.9-.2-3.4-.7-4.5c-.3-.5-.9-1.2-1.8-2.2Zm-78.4 0l1.8 10.6c.7 4 1.1 7.5 1.4 10.4c.2 2.3 .3 4.5 .3 6.6c0 1.7-.3 3.3-.7 4.8c-.4 1.4-1.2 3.4-2.4 5.9l-1.8-.7c.5-2.6 .8-4.6 .8-6.2c0-1.2-.2-3-.4-5.4c-.1-2.3-.4-4.6-.7-6.9c-.3-2.3-.8-5.1-1.5-8.2c-.2-1.2-.3-1.9-.3-2.3c0-.7 .3-1.7 .9-3.2c.6-1.5 1.5-3.3 2.6-5.4Zm-222.6 0l1.8 10.6c.7 4 1.1 7.5 1.4 10.4c.2 2.3 .3 4.5 .3 6.6c0 1.7-.2 3.3-.6 4.8c-.4 1.4-1.3 3.4-2.4 5.9l-1.8-.7c.4-2.6 .7-4.6 .7-6.2c0-1.2-.1-3-.3-5.4c-.2-2.3-.5-4.6-.8-6.9c-.3-2.3-.7-5.1-1.4-8.2c-.3-1.2-.4-1.9-.4-2.3c0-.7 .3-1.7 .9-3.2c.7-1.5 1.5-3.3 2.6-5.4Zm405.5-1.8l5.5 2.8l-3 6.2l-5.6-2.9Zm549.6-.5l1.4 .7c-.1 .3-.1 .6-.1 1c0 .7 .4 1.4 1.2 1.9c1.2 .7 2.4 1.3 3.4 1.9c-.2 1.7-.4 2.9-.6 3.7c-.2 .7-.7 1.8-1.4 3.3l-.9-.4c0 .3 .3 2 .9 5.1c.5 3.1 1 5.8 1.4 8c.6 3.2 .8 5.2 .8 5.9v6.7c0 3-1.5 5.8-4.7 8.1c-3.2 2.4-6.8 3.6-10.9 3.6c-3.4 0-6.1-.9-8-2.6c-1.9-1.7-2.9-4.1-2.9-7.2c0-2.9 .4-5.4 1.1-7.6c.8-2.4 2.4-5.3 4.8-8.9l1.8 1.3c-1.5 2.3-2.6 4.3-3.3 6c-.6 1.7-1 3.4-1 5.1c0 1.8 .7 3.2 2 4.2c1.4 1 3.3 1.5 5.7 1.5c3.5 0 6.4-.7 8.6-2c2.1-1.4 3.2-3.2 3.2-5.3c0-.4 0-.7 0-.9c0-.3 0-.4 0-.5c0-.8 0-1.7-.2-2.6c-.1-.9-.4-2.9-1-5.8c-.8-4.7-1.7-9.4-2.5-14.1l-1.5-1.1c0-2 .9-5 2.7-9Zm-793.6 0l1.4 .7c-.1 .3-.2 .6-.2 1c0 .7 .4 1.4 1.3 1.9c1.2 .7 2.3 1.3 3.4 1.9c-.2 1.7-.4 2.9-.7 3.7c-.2 .7-.6 1.8-1.3 3.3l-.9-.4c0 .3 .3 2 .8 5.1c.6 3.1 1.1 5.8 1.5 8c.4 2.4 .6 4.1 .7 5.1l.1 .1h34.6c-2.4-2.5-4.6-4.3-6.6-5.3c-1.8-1-3.6-1.5-5.3-1.5c-.6 0-1 0-1.5 .1c-.4 0-1 .1-1.8 .3c1.1-2.5 2.3-4.4 3.6-5.5c1.4-1.2 2.9-1.8 4.6-1.8c1.3 0 2.6 .3 3.8 .9c1.2 .7 2.6 1.7 4.1 3.1c1.2 1.1 2.9 2.8 5 5.2c1.5 1.7 2.7 2.8 3.5 3.3c.7 .5 1.9 .9 3.5 1.2v8.1H385.5l-.2 1.5c-.6 2.2-2.1 4.1-4.5 5.9c-3.1 2.4-6.8 3.6-10.8 3.6c-3.5 0-6.1-.9-8-2.6c-1.9-1.7-2.9-4.1-2.9-7.2c0-2.9 .4-5.4 1.1-7.6c.8-2.4 2.4-5.3 4.7-8.9l1.9 1.3c-1.6 2.3-2.7 4.3-3.3 6c-.7 1.7-1 3.4-1 5.1c0 1.8 .7 3.2 2 4.2c1.3 1 3.2 1.5 5.7 1.5c3.5 0 6.3-.7 8.5-2c2.2-1.4 3.3-3.2 3.3-5.3c0-.4 0-.7 0-.9c0-.3 0-.4 0-.5c0-.8-.1-1.7-.2-2.6c-.1-.9-.5-2.9-1-5.8c-.9-4.7-1.7-9.4-2.6-14.1l-1.5-1.1c0-2 1-5 2.8-9Zm984.5 0l1.4 .7c0 .1-.1 .4-.1 1c0 .6 .4 1.2 1.2 1.9c.8 .5 1.9 1.1 3.5 1.8c-.1 1.3-.4 2.5-.8 3.7c-.3 1.2-.7 2.3-1.1 3.3l-1.1-.4l3.2 18.4v8.1h-29.8v.7c0 1.2-.7 2.8-2.1 4.8c-1.4 2-3.1 3.8-4.9 5.2c-2.1 1.7-3.9 2.5-5.3 2.5c-1.8 0-3.7-.5-5.7-1.5c-1.7-.9-4.4-2.6-8.1-5.1l1.2-1.9c1.8 1.2 3.2 2 4.3 2.4c1.1 .4 2.3 .6 3.6 .6c1.3 0 2.7-.4 4.1-1.1c1.4-.8 3.2-2.2 5.6-4.3c3.3-3 4.9-5.2 4.9-6.8c0-.8-.3-1.9-.9-3.2c-.7-1.4-1.6-2.7-2.6-3.6l1.6-8.1c1.4 1.4 2.4 3 3.2 4.8c.7 1.8 1.1 3.9 1.1 6.2v.3h26.3l-3.6-20.2l-2-1.3c0-1.2 .2-2.3 .6-3.5c.5-1.5 1.2-3.3 2.3-5.4Zm-127 0l1.3 .7c0 .1 0 .4-.1 1c0 .6 .4 1.2 1.3 1.9c.7 .5 1.9 1.1 3.5 1.8c-.2 1.3-.5 2.5-.8 3.7c-.4 1.2-.7 2.3-1.2 3.3l-1.1-.4l3.3 18.4v8.1h-43.4c-1.3 0-2.3-.3-3-.8c-.8-.7-1.3-1.8-1.3-3.3c0-.9 .1-1.8 .2-2.9c.1-1 .2-2 .4-3l1.1-.1c.2 .7 .5 1.2 1.1 1.5c.5 .4 1.2 .5 1.9 .5h10.3c-.5-2.9-1.3-5.2-2.4-7c-.9-1.4-2.2-2.7-3.9-3.8l2.1-9.2c2.6 1.9 4.5 4.4 5.5 7.4c1 2.8 1.5 6.5 1.5 11.2v1.4h26.3l-3.6-20.2l-1.9-1.3c0-1.2 .2-2.3 .5-3.5c.5-1.5 1.3-3.3 2.4-5.4Zm-141.6 0l1.4 .7c0 .1 0 .4-.1 1c0 .6 .4 1.2 1.2 1.9c.8 .5 1.9 1.1 3.6 1.8c-.2 1.3-.5 2.5-.8 3.7c-.4 1.2-.8 2.3-1.2 3.3l-1.1-.4l3.3 18.4h1.1c.6 0 1 0 1.3 0c.6-.1 1.1-.1 1.7-.2c-1-1.5-1.6-2.7-2-3.6c-.3-.9-.5-2-.5-3.1c0-3 1.3-5.6 3.7-7.8c2.5-2.2 5.3-3.3 8.6-3.3c2.2 0 4.3 .7 6.3 2.2c1.9 1.3 3.2 3 4.1 4.9l-1.3 1c-1.6-.5-2.8-.9-3.7-1.1c-.9-.2-2.1-.3-3.4-.3c-2.5 0-4.6 .2-6.4 .6c-2.3 .5-3.5 1.2-3.5 2.2c0 1.3 2.8 3.6 8.3 6.8l15.2-4.4l-3.4 8.5c-5.3 1.6-9.7 2.9-13.2 3.8c-3.1 .8-5.6 1.3-7.7 1.6c-1.6 .2-3.1 .3-4.7 .3h-32.9c-.7 0-1.3 .1-1.7 .2c-.5 .1-.7 .3-.7 .5c0 .1 .5 .4 1.4 .8c1 .3 1.5 .9 1.5 1.7c0 1.1-.2 2.4-.5 4c-.3 1.5-.8 2.9-1.3 4.1c-.5 1-1.7 2.1-3.7 3.3c-2.1 1.3-4.6 2.4-7.3 3.3c-3.1 1-6.1 1.5-8.9 1.5c-3.2 0-5.7-.8-7.3-2.3c-1.7-1.5-2.5-3.6-2.5-6.5c0-3.1 .4-5.9 1.2-8.2c.9-2.8 2.8-6.4 5.6-10.9l1.6 1.3c-1.8 3.2-3.1 5.7-3.8 7.6c-.7 1.9-1 3.7-1 5.6c0 1.8 .5 3.2 1.7 4.3c1.2 1 2.8 1.6 4.9 1.6c2.5 0 5.2-.4 8.1-1.2c2.6-.7 4.9-1.5 6.8-2.5c1.8-1 2.8-1.8 2.8-2.5c0-.2-.6-.3-1.7-.3c-1.1-.1-2.1-.1-3-.1c-2.1 0-3.4 0-4.1-.2c-.6-.2-.9-.5-.9-1.1c0-1.1 .2-2.2 .6-3.4c.4-1.2 .8-2.1 1.4-2.8c1.3-1.5 2.8-2.9 4.6-4c2-1.3 3.8-1.9 5.4-1.9h29.6l-3.6-20.2l-1.9-1.3c0-1.2 .1-2.3 .5-3.5c.5-1.5 1.2-3.3 2.3-5.4Zm-272.8 0l1.4 .7c0 .1 0 .4-.1 1c0 .6 .4 1.2 1.2 1.9c.8 .5 1.9 1.1 3.6 1.8c-.2 1.3-.5 2.5-.8 3.7c-.4 1.2-.8 2.3-1.2 3.3l-1.1-.4l3.3 18.4v8.1H779.4c-.9 0-1.5 0-1.9 .1c-.4 0-.6 .1-.6 .4c.6 .3 1.2 .5 1.7 .7c.5 .1 .8 .3 .9 .5c.2 .2 .3 .5 .3 1c0 1.4-.4 3.1-1.2 5c-.8 2-1.6 3.2-2.4 3.7c-.7 .6-2.9 1.3-6.5 2.1c-3.7 .8-6.8 1.2-9.4 1.2c-3.7 0-6.8-.8-9.1-2.3c-2.3-1.6-3.4-3.6-3.4-6.1c0-2.4 .5-4.7 1.5-6.9c1.2-2.7 3.5-6.1 6.8-10.1l1.8 1.2c-2.1 2.5-3.5 4.6-4.3 6.2c-.8 1.6-1.2 3.1-1.2 4.7c0 2.1 .8 3.7 2.6 4.7c1.8 1 4.5 1.5 8.2 1.5c1.9 0 4.5-.3 7.9-1c3.4-.7 5.1-1.3 5.1-1.8c0-.3-.7-.5-2-.7c-1.3-.2-2.7-.3-4.2-.3c-2.3 0-3.5-.5-3.5-1.5c0-.4 .3-1.3 .9-2.4c.3-.8 .7-1.7 1.1-2.5c.8-1.6 2.2-2.9 4.2-4c2.1-1 4.3-1.5 6.6-1.5h32.3c-.2-1.3-.6-2.5-1.1-3.4c-.3-.5-1-1.4-2.1-2.7l2.3-7.1c1.5 1.7 2.6 3.5 3.1 5.3c.5 1.6 .7 3.9 .8 6.9v1h10.7l-3.6-20.2l-1.9-1.3c0-1.2 .1-2.3 .5-3.5c.5-1.5 1.2-3.3 2.3-5.4Zm-524.1 0l1.4 .7c0 .1-.1 .4-.2 1c0 .6 .4 1.2 1.3 1.9c.7 .5 1.9 1.1 3.5 1.8c-.2 1.3-.4 2.5-.8 3.7c-.3 1.2-.7 2.3-1.2 3.3l-1-.4l3.2 18.4H308c.9 0 1.8 0 2.6 .1c2.2 .3 4.7 .5 7.5 .8c-3-.6-5.1-1.5-6.3-2.6c-1.1-1-1.7-2.6-1.7-4.7c0-3.1 .7-5.9 2.1-8.3c1.4-2.5 3-3.7 4.8-3.7c2 0 3.7 1.7 5.2 5.2c1.5 3.4 2.3 7.6 2.3 12.5v.7h13.6c-.2-1.3-.6-2.5-1.2-3.4c-.3-.5-1-1.4-2.1-2.7l2.4-7.1c1.5 1.7 2.5 3.5 3.1 5.3c.5 1.9 .8 4.6 .8 8.2v7.8H270.2c-3.5 0-5.9-.5-7.2-1.5c-1.3-1-1.9-2.9-1.9-5.7c0-1.3 .1-2.5 .2-3.6c.1-.4 .3-1.4 .5-2.9c-4.5 1.1-8.2 2.9-11 5.5c-2.8 2.7-4.2 5.7-4.2 9.1c0 4 1.7 7 5.1 9.2c3.4 2.1 8.3 3.2 14.7 3.2c1.9 0 4.6-.2 8.1-.5l.6 .9l-11.4 7.3h-2.8c-5.9 0-10.3-1.4-13.5-4.4c-3.1-2.9-4.7-7.1-4.7-12.6c0-4.2 .9-8 2.8-11.6c1.9-3.5 4.4-6.1 7.3-7.7h-.6c-1.9 0-3.4 .2-4.6 .6c-1.2 .3-3 1.1-5.4 2.4c.8-7.4 4.5-11.1 10.8-11.1c.7 0 2.1 .1 4.2 .3c2.1 .2 3.9 .4 5.5 .5c3 .2 6 .4 8.9 .4l-1.8 7.2c-1.2 0-2.2 0-3 .2c-1.1 .2-2.1 .4-3 .6c-.1 .4-.1 .8-.2 1.3c0 .5 0 .8 0 1.1c0 1.4 .4 2.4 1.3 2.9c1 .5 2.7 .8 5.2 .8h31l-3.6-20.2l-1.9-1.3c0-1.2 .2-2.3 .6-3.5c.4-1.5 1.2-3.3 2.3-5.4Zm-94.3 0l1.4 .7c0 .1 0 .4-.1 1c0 .6 .4 1.2 1.3 1.9c.7 .5 1.9 1.1 3.5 1.8c-.2 1.3-.5 2.5-.8 3.7c-.4 1.2-.8 2.3-1.2 3.3l-1.1-.4l3.3 18.4v8.1H179.3l-.7 3.1c-.7 1.7-1.8 3.3-3.2 5c-2.9 3.3-5.8 5-8.6 5c-1.7 0-3.5-.5-5.4-1.6c-2-1-5-3.1-9.1-6.2l1.3-1.7c2.1 1.4 3.9 2.4 5.3 2.8c1.1 .4 2.4 .6 3.8 .6c1.9 0 3.9-.5 5.7-1.6c2.3-1.3 4.6-3.3 7-6.1c-.9 .1-1.6 .1-2.1 .1c-2 0-3.6-.6-4.7-1.9c-1.2-1.2-1.8-3-1.8-5.2c0-3 .7-5.9 2.1-8.6c1.5-3 3.2-4.5 5.1-4.5c1.6 0 2.9 1.1 4 3.2c1.1 2.2 1.7 4.8 1.7 7.9v1.6h13.6c-.3-1.3-.7-2.5-1.2-3.4c-.3-.5-1-1.4-2.1-2.7l2.4-7.1c1.5 1.7 2.5 3.5 3 5.3c.5 1.6 .8 3.9 .8 6.9v1h10.7l-3.6-20.2l-1.9-1.3c0-1.2 .2-2.3 .5-3.5c.5-1.5 1.2-3.3 2.3-5.4Zm110.4-.3l7 3.7L318 306l-7-3.7Zm595.9-.1l5.6 3.1l-3.1 5.7l-4.4-2.2l-2.5 4.9l-5.5-3.1l3.3-6.1l4.3 2.4Zm16.8-2l1.3 .6c0 .1 0 .4-.1 .8c0 .7 1 1.5 3 2.4c.6 .4 1.6 .8 2.9 1.3c-.2 1.5-.5 3-.9 4.3c-.3 .7-.7 1.7-1.2 3.2l-1.1-.4c.6 2.8 1 4.9 1.2 6.3c.2 1.3 .4 2.5 .4 3.5v.4c0 .6-.1 1-.1 1.3c0 .4-.1 .9-.3 1.6c1.1-.8 2.1-1.5 3.2-2.3c1.6-1.1 3-2 4.3-2.7c1.7-1 3-1.4 3.8-1.4c2.4 0 4.2 .6 5.7 1.8c1.6 1.4 2.3 3.4 2.3 5.9v6.2h13.6c-.2-1.3-.6-2.5-1.2-3.4c-.3-.5-1-1.4-2.1-2.7l2.4-7.1c1.5 1.7 2.5 3.5 3 5.3c.5 1.6 .8 3.9 .8 6.9l.1 1H972c1.8 0 3.2-.2 4.3-.6c1.3-.6 2.2-1.6 2.8-2.9c1.1-2.6 2.5-4.6 4.3-6.3c1.6-1.4 2.9-2.1 4-2.1c1 0 2.3 1.5 3.8 4.6c1.1 2.4 1.9 4.7 2.2 6.8v.5h10.8l-3.6-20.2l-1.9-1.3c0-1.2 .2-2.3 .5-3.5c.5-1.5 1.3-3.3 2.4-5.4l1.3 .7c0 .1 0 .4-.1 1c0 .6 .4 1.2 1.3 1.9c.7 .5 1.9 1.1 3.5 1.8c-.2 1.3-.5 2.5-.8 3.7c-.4 1.2-.7 2.3-1.2 3.3l-1.1-.4l3.3 18.4v8.1H991.4v-.1l-.4-.1c-1.5-.2-3.1-.5-4.8-1c-2.5-.7-4.7-1.6-6.6-2.6c-1.1 1.8-2.6 2.9-4.3 3.4c-.8 .3-1.9 .4-3.3 .4H880.5c-.7 0-1.3-.1-1.9-.4c-1.2-.6-2.2-1.6-3-3.2c-1-2.1-1.7-5-2-8.6c-1.4 1.6-2.4 2.8-3.2 3.5c-1.1 1-2 1.5-2.7 1.5c-.4 0-.9 0-1.5-.1l-3.6-.8c-1.6-.3-2.5-.5-2.9-.6c-.3-.2-.5-.4-.5-.8c0-.5 .7-2.2 2.1-5.1c1.3-2.8 2.3-4.6 3-5.3c.5-.5 1.3-1.2 2.6-2.1c.8-.5 1.8-1.1 3.2-1.9l1.6-1c-.1-.2-.1-.5-.1-.8c0-.3-.1-.6-.1-.8c0-.8 .2-1.7 .6-2.9c.3-1.1 .9-2.5 1.8-4.2l2.9 18.6c.4 2.9 1 4.9 1.8 5.9c.4 .7 1.1 1 1.9 1h26.8v.3l2.1 .2c1.2 .1 2.5 .3 3.9 .4c-2.9-.6-5-1.5-6.2-2.6c-1.2-1-1.8-2.6-1.8-4.7c0-3.1 .8-5.9 2.2-8.3c1.4-2.5 3-3.7 4.8-3.7c2 0 3.7 1.7 5.2 5.2c1.5 3.4 2.3 7.6 2.3 12.5v.7h1.9c.4 0 1.8-.8 4-2.5c.7-.5 1.8-1.3 3.2-2.5c0-2.4-.1-4.5-.3-6.2c-.2-1.6-.5-3.4-.9-5.2c-.1-.5-.6-2.6-1.6-6.5l-1.7-1.1c.5-2.1 .8-3.6 1.1-4.5c.3-.9 .9-2.3 1.8-4.3Zm378.4-1.8l5.5 3l-3.1 5.8l-4.4-2.2l-2.5 4.8l-5.4-3l3.3-6.1l4.2 2.4Zm-433.5-1.8l5.4 2.7l-3.3 5.6l-4.3-2.4l-2.3 4.7l-5.6-3l3.1-5.3l4.4 2.2Zm-811.4 0l5.3 2.7l-3.3 5.6l-4.2-2.4l-2.4 4.7l-5.5-3l3.1-5.3l4.4 2.2Z" class="g0_54"/>
<path d="M766.4 349.8l3.7 2.4l-2.9 3.4l-3.1-2l-2.4 2.5L758 354l2.8-3.6l3.3 2.1ZM578.8 336.9l6.9 3.7l-3.5 6.7l-7-3.6Zm-392.5 0l6.9 3.7l-3.5 6.7l-7-3.6Zm-40.1-.3l5.6 3.1l-3.1 5.7l-4.4-2.2l-2.6 4.9l-5.4-3.1l3.3-6l4.2 2.3Zm406.6-1.7c.3 1.8 1.2 3.3 2.7 4.6c1.5 1.3 3.2 1.9 4.9 1.9c.6 0 .9-.2 .9-.6c0-1.1-.6-2.2-1.9-3.2c-1.5-1.2-3.7-2.1-6.6-2.7Zm-298.7-3.7l7 3.7l-3.6 6.7l-7-3.7Zm-81.4-9.7c-.6 0-1.1 .3-1.4 .7c-.4 .5-.6 1.1-.6 1.6c0 .8 .4 1.3 1.2 1.8c.8 .5 1.8 .7 3.1 .7h1.1c-.5-3.2-1.7-4.8-3.4-4.8Zm1273.5-.2c-.8 0-1.4 .9-2 2.7c1.1 .4 1.8 .7 2.4 .9c1.6 .6 2.5 .9 2.7 .9c.4 0 .7-.1 .7-.4c0-.4-.5-1.2-1.3-2.3c-1-1.2-1.8-1.8-2.5-1.8Zm-462 0c-.8 0-1.4 .9-2 2.7c1.1 .4 1.8 .7 2.4 .9c1.6 .6 2.5 .9 2.7 .9c.4 0 .7-.1 .7-.4c0-.4-.5-1.2-1.3-2.3c-1-1.2-1.8-1.8-2.5-1.8Zm-495.6 0c-.7 0-1.4 .9-1.9 2.7c1 .4 1.8 .7 2.3 .9c1.6 .6 2.5 .9 2.7 .9c.5 0 .7-.1 .7-.4c0-.4-.4-1.2-1.3-2.3c-.9-1.2-1.8-1.8-2.5-1.8Zm452.9-.9c-1.3 0-2.8 .4-4.4 1.3c-1.7 .8-4 2.4-7.2 4.6h7.9c6.5 0 9.8-1 9.8-3c0-.7-.7-1.4-2.2-2c-1.5-.6-2.8-.9-3.9-.9Zm-816.1 0c-1.3 0-2.8 .4-4.4 1.3c-1.6 .8-4 2.4-7.1 4.6h7.8c6.5 0 9.8-1 9.8-3c0-.9-.7-1.6-2.1-2.2c-1.2-.5-2.5-.7-4-.7Zm432.9-2.6c-.5 0-1.1 .5-1.8 1.6c-.6 1.2-1.5 2.9-2.5 5.3c2.3-.8 3.9-1.4 4.8-2c.8-.6 1.3-1.2 1.3-1.9c0-.5-.2-1.2-.6-1.9c-.4-.8-.8-1.1-1.2-1.1Zm352.4-1.2c-.4 0-.7 .2-1 .4c-.3 .3-.5 .6-.5 .9c0 .9 .7 1.7 2 2.5c1.2 .8 2.7 1.4 4.5 1.7c-.7-1.8-1.5-3.1-2.4-4c-.8-1-1.7-1.5-2.6-1.5Zm-595.3 0c-.4 0-.7 .2-1 .4c-.3 .3-.5 .6-.5 .9c0 .9 .7 1.7 2 2.5c1.3 .8 2.8 1.4 4.5 1.7c-.7-1.8-1.5-3.1-2.3-4c-.9-1-1.8-1.5-2.7-1.5Zm176.5-2.2c1 0 2.2 1.5 3.7 4.6c1.6 3.2 2.4 6.2 2.4 8.9v6.5c-2.1 0-4.6-.4-7.4-1.2c-2.5-.7-4.7-1.6-6.6-2.6c-1.1 1.8-2.5 2.9-4.2 3.4c-.8 .3-1.9 .4-3.3 .4h-3.9v.7c0 1.2-.7 2.8-2 4.8c-1.4 2-3.1 3.8-4.9 5.2c-2.1 1.7-3.9 2.5-5.3 2.5c-1.8 0-3.7-.5-5.7-1.5c-1.7-.9-4.4-2.6-8.2-5.1l1.3-1.9c1.8 1.2 3.2 2 4.3 2.4c1.1 .4 2.3 .6 3.6 .6c1.3 0 2.7-.4 4.1-1.1c1.3-.8 3.2-2.2 5.6-4.3c3.3-3 4.9-5.2 4.9-6.8c0-.8-.3-1.9-.9-3.2c-.8-1.4-1.6-2.7-2.7-3.6l1.7-8.1c1.4 1.4 2.4 3 3.1 4.8c.8 1.8 1.1 3.9 1.1 6.2v.3h3.9c1.7 0 3.2-.2 4.2-.6c1.4-.6 2.3-1.6 2.8-2.9c1.1-2.6 2.6-4.6 4.4-6.3c1.5-1.4 2.9-2.1 4-2.1Zm380.3-.4c-.6 .3-1.1 .5-1.4 .7c-1.1 .6-2 1.1-2.7 1.6c-.4 .4-.8 .8-1.2 1.1c-.4 .5-.6 .8-.6 1c0 .3 .4 .5 1.1 .7c.7 .1 1.4 .2 2 .2c.5 0 .9-.1 1.4-.4c.5-.2 1.2-.7 2-1.3ZM60.8 314c-.6 .3-1.1 .5-1.5 .7c-1.1 .6-1.9 1.1-2.6 1.6c-.5 .4-.9 .8-1.2 1.1c-.4 .5-.6 .8-.6 1c0 .3 .4 .5 1.1 .7c.7 .1 1.3 .2 2 .2c.4 0 .9-.1 1.4-.4c.5-.2 1.1-.7 2-1.3Zm550.6-.7l1.6 1.1c-.4 .8-.8 1.5-1 2.1c-.3 .7-.6 1.2-.7 1.7c-.3 .9-.5 1.8-.5 2.7c0 1.2 .4 2.2 1.1 3.1c.8 .9 1.7 1.5 2.9 1.8c.7 .1 1.6 .3 2.7 .4c1.1 .1 2.3 .1 3.5 .1h21.6c-.6-1.6-1.1-2.6-1.4-3.2c-.4-.8-1.1-1.7-2-2.9l2.7-6.9c1.4 2.1 2.4 4.1 2.9 5.8c.4 1.6 .6 3.9 .6 6.9v8.4h-25c-1.2 0-2.2 0-3 0c-.8 0-1.4-.1-1.8-.1c-.8-.1-1.6-.3-2.6-.6c-1.6-.6-3-1.7-4-3.4c-1-1.7-1.6-3.6-1.6-5.7c0-.9 .1-1.7 .2-2.6c.1-.9 .3-1.8 .7-2.8c.4-1.2 .8-2.3 1.4-3.2c.5-1 1.1-1.9 1.7-2.7Zm693.4-1.5c-.6 0-1.1 .3-1.6 .9c-.5 .5-.7 1.1-.7 1.8c0 .5 .2 .9 .6 1.2c.3 .3 .8 .4 1.4 .4c.4 0 .9-.1 1.4-.4c.4-.2 1-.7 1.7-1.3c-.6-1-1-1.6-1.5-2c-.4-.4-.8-.6-1.3-.6Zm-645.5-5.5c2.6 1.9 4.4 4.4 5.5 7.4c1 2.8 1.5 6.5 1.5 11.2v1.4h34.6c-2.4-2.5-4.6-4.3-6.6-5.3c-1.9-1-3.6-1.5-5.4-1.5c-.5 0-.9 0-1.4 .1c-.4 0-1 .1-1.8 .3c1.1-2.5 2.3-4.4 3.6-5.5c1.4-1.2 2.9-1.8 4.6-1.8c1.3 0 2.6 .3 3.8 .9c1.2 .7 2.5 1.7 4.1 3.1c1.1 1.1 2.8 2.8 5 5.2c1.5 1.7 2.7 2.8 3.4 3.3c.8 .5 2 .9 3.6 1.2h13.5c-.2-1.3-.6-2.5-1.2-3.4c-.3-.5-1-1.4-2.1-2.7l2.4-7.1c1.5 1.7 2.5 3.5 3.1 5.3c.5 1.9 .8 4.6 .8 8.2v7.8H652.8c-1.4 0-2.4-.3-3.1-.8c-.8-.7-1.2-1.8-1.2-3.3c0-.9 0-1.8 .1-2.9c.1-1 .2-2 .4-3l1.1-.1c.2 .7 .6 1.2 1.1 1.5c.5 .4 1.2 .5 2 .5h10.2c-.4-2.9-1.2-5.2-2.4-7c-.9-1.4-2.2-2.7-3.9-3.8Zm646.1-2c2 0 4 1.8 5.9 5.4c1.8 3.7 2.7 7.5 2.7 11.6v13.1h-22.4c-3.7 0-6.9 .3-9.7 .9c-2.8 .6-4.2 1.3-4.2 2.1c.8 2.4 1.5 4.7 2.1 6.7c.6 2.1 .9 4.1 .9 6c0 1.3-.2 2.4-.4 3.2c-.3 .9-.8 1.8-1.5 2.8c-.2-2.6-.7-5.4-1.5-8.3c-.2-1-.9-3.1-1.9-6.4c-.7-2-1-3.3-1-4c0-.9 .3-2.1 .8-3.5c.4-1.1 .9-2.1 1.4-3c.7-1 1.8-1.7 3.3-2.3c1.6-.6 4-1.1 7.3-1.4c-1.6-2.2-3-3.4-4.2-3.4c-.5 0-1 .2-1.5 .6c-.4 .4-1.2 1.3-2.2 2.7l-1.4-.8c.9-3 1.9-5.3 3.2-7c1.3-1.6 2.7-2.4 4.2-2.4c1.4 0 2.8 .7 4.5 2.3c1.6 1.5 3.5 3.9 5.6 7.1h15.8c0-1.7 0-2.9-.1-3.7c-.2-1.1-.5-2.1-1-2.9c-.6 1.2-1.5 2.1-2.6 2.8c-1 .7-2.2 1-3.4 1c-1.6 0-2.9-.5-4-1.6c-1.1-1.1-1.7-2.4-1.7-4c0-2.3 .8-5.1 2.2-8.3c1.6-3.5 3.1-5.3 4.8-5.3Zm-676-1l5.4 3l-3.3 6.1l-4.2-2.4l-2.4 4.7l-5.5-3l3.1-5.8l4.4 2.2ZM62.5 300.8l2.8 18.6c.5 2.9 1.1 4.9 1.8 5.9c.5 .7 1.2 1 2 1H90.7c2.3 0 4.1-.6 5.3-1.7c1.4-1.4 2.3-3.7 2.7-7l2 .3c-.1 .7-.1 1.3-.1 1.7c-.1 1.3-.2 2.4-.2 3.2c0 1.1 .3 2 .9 2.6c.6 .6 1.4 .9 2.4 .9c1 0 1.9-.2 2.7-.6c.8-.4 2.1-1.2 3.9-2.5l10.7-7.6c1.2-.9 2.1-1.5 2.8-1.9c1.4-.9 2.8-1.3 4.2-1.3c2.2 0 4 .8 5.3 2.4c1.6 1.8 2.3 4.5 2.3 8.2v3.3h13.7c-.3-1.3-.7-2.5-1.2-3.4c-.3-.5-1-1.4-2.1-2.7l2.4-7.1c1.5 1.7 2.5 3.5 3 5.3c.6 1.9 .8 4.6 .8 8.2v7.8H104.1c-1.4 0-2.6-.3-3.4-1c-.8-.7-1.6-1.9-2.2-3.5c-.8 1.1-1.5 2-2.3 2.7l-.4 .3v1.5H69.1c-.7 0-1.4-.1-2-.4c-1.1-.6-2.1-1.6-2.9-3.2c-1.1-2.1-1.8-5-2.1-8.6c-1.3 1.6-2.4 2.8-3.1 3.5c-1.1 1-2 1.5-2.8 1.5c-.4 0-.8 0-1.4-.1l-3.6-.8c-1.6-.3-2.5-.5-2.9-.6c-.4-.2-.5-.4-.5-.8c0-.5 .6-2.2 2-5.1c1.4-2.8 2.4-4.6 3-5.3c.5-.5 1.4-1.2 2.7-2.1c.7-.5 1.8-1.1 3.2-1.9l1.6-1c-.1-.2-.1-.5-.2-.8c0-.3 0-.6 0-.8c0-.8 .2-1.7 .5-2.9c.4-1.1 1-2.5 1.9-4.2Zm746.1-1.3l5.6 3.1l-3.1 5.7l-4.5-2.2l-2.5 4.9l-5.4-3.1l3.3-6.1l4.2 2.4Zm-84.3 0l5.5 3.1l-3.1 5.7l-4.4-2.2l-2.5 4.9l-5.4-3.1l3.3-6.1l4.2 2.4Zm-389.2 0l5.5 3.1l-3.1 5.7l-4.4-2.2l-2.5 4.9l-5.4-3.1l3.2-6.1l4.3 2.4Zm-221.2-.8l6.9 3.7l-3.6 6.7l-6.9-3.7Zm847.6-.4l6.9 3.7l-3.5 6.6l-7-3.6Zm443-.1c1.1 1.6 1.9 3.2 2.4 4.7c.5 1.8 .8 4.2 .8 7v5.8c0 4.2 .3 7.1 .8 8.7c.5 1.3 1.2 1.9 2.1 1.9H1434c1.8 0 3.2-.2 4.3-.6c1.3-.6 2.2-1.6 2.8-2.9c1.1-2.6 2.5-4.6 4.3-6.3c1.6-1.4 2.9-2.1 4-2.1c1 0 2.3 1.5 3.8 4.6c1.5 3.2 2.3 6.2 2.3 8.9v6.5c-2.1 0-4.5-.4-7.3-1.2c-2.5-.7-4.7-1.6-6.6-2.6c-1 1.6-2.2 2.6-3.6 3.2l-.4 .1v.5h-27c-2.3 0-4-.9-5-2.8c-1.2-2.1-1.8-5.7-1.8-10.7v-8.5c0-1.9-.2-3.4-.8-4.5c-.2-.5-.8-1.2-1.7-2.2Zm-26.7 0l1.8 10.6c.7 4 1.1 7.5 1.4 10.4c.2 2.3 .3 4.5 .3 6.6c0 1.7-.2 3.3-.7 4.8c-.4 1.4-1.2 3.4-2.4 5.9l-1.8-.7c.5-2.6 .8-4.6 .8-6.2c0-1.2-.2-3-.4-5.4c-.1-2.3-.4-4.6-.7-6.9c-.3-2.3-.8-5.1-1.5-8.2c-.2-1.2-.3-1.9-.3-2.3c0-.7 .3-1.7 .9-3.2c.6-1.5 1.5-3.3 2.6-5.4Zm-127 0l1.7 10.6c.7 4 1.2 7.5 1.4 10.4c.2 2.3 .3 4.5 .3 6.6c0 1.7-.2 3.3-.6 4.8c-.4 1.4-1.2 3.4-2.4 5.9l-1.8-.7c.5-2.6 .7-4.6 .7-6.2c0-1.2-.1-3-.3-5.4c-.2-2.3-.4-4.6-.7-6.9c-.3-2.3-.8-5.1-1.5-8.2c-.2-1.2-.4-1.9-.4-2.3c0-.7 .4-1.7 1-3.2c.6-1.5 1.4-3.3 2.6-5.4Zm-64 0l1.8 10.6c.6 4 1.1 7.5 1.3 10.4c.2 2.3 .3 4.5 .3 6.6c0 1.7-.2 3.3-.6 4.8c-.4 1.4-1.2 3.4-2.4 5.9l-1.8-.7c.5-2.6 .7-4.6 .7-6.2c0-1.2-.1-3-.3-5.4c-.2-2.3-.4-4.6-.7-6.9c-.3-2.3-.8-5.1-1.5-8.2c-.2-1.2-.4-1.9-.4-2.3c0-.7 .4-1.7 1-3.2c.6-1.5 1.5-3.3 2.6-5.4Zm-171.4 0l1.7 10.6c.7 4 1.2 7.5 1.4 10.4c.2 2.3 .3 4.5 .3 6.6c0 1.7-.2 3.3-.6 4.8c-.4 1.4-1.2 3.4-2.4 5.9l-1.8-.7c.5-2.6 .7-4.6 .7-6.2c0-1.2-.1-3-.3-5.4c-.2-2.3-.4-4.6-.8-6.9c-.2-2.3-.7-5.1-1.4-8.2c-.2-1.2-.4-1.9-.4-2.3c0-.7 .4-1.7 1-3.2c.6-1.5 1.4-3.3 2.6-5.4Zm-179 0l1.8 10.6c.7 4 1.1 7.5 1.4 10.4c.2 2.3 .3 4.5 .3 6.6c0 1.7-.2 3.3-.6 4.8c-.5 1.4-1.3 3.4-2.5 5.9l-1.7-.7c.4-2.6 .7-4.6 .7-6.2c0-1.2-.1-3-.3-5.4c-.2-2.3-.5-4.6-.8-6.9c-.3-2.3-.8-5.1-1.4-8.2c-.3-1.2-.4-1.9-.4-2.3c0-.7 .3-1.7 .9-3.2c.6-1.5 1.5-3.3 2.6-5.4Zm-317.4 0c1.1 1.6 1.9 3.2 2.4 4.7c.5 1.8 .8 4.2 .8 7v5.8c0 4.2 .3 7.1 .8 8.7c.5 1.3 1.2 1.9 2.1 1.9h20.2c1 0 2.1-.1 3.3-.3c1.2-.3 2.1-.4 2.6-.6c2.2-5.9 4.1-10.2 5.8-12.9c1.5-2.3 2.9-3.5 4.1-3.5c1 0 1.9 1 2.7 3c.6 1.7 .9 3.4 .9 5c0 2.4-.4 4.3-1.4 5.9c-1 1.8-2.4 3.1-4.4 4c1.4-.3 2.7-.4 3.9-.5c1.2-.1 2.3-.1 3.3-.1h19.7c-.2-1.3-.6-2.5-1.2-3.4c-.3-.5-1-1.4-2.1-2.7l2.4-7.1c1.5 1.7 2.5 3.5 3 5.3c.6 1.9 .9 4.6 .9 8.2v7.8H566.1c-.4 0-.9 0-1.4 0c-.4 0-1.1 .1-2.1 .2c.7 .4 1.5 .8 2.2 1.2c.6 .5 1 1.2 1 2c0 .8-.1 1.6-.3 2.5c-.2 .5-.5 1.3-.9 2.6c-.8 2.5-1.6 4.2-2.3 5.1c-.7 .9-1.7 1.3-2.8 1.3c-2.7 0-5.1-1.5-7.1-4.4c-2-2.9-3-6.4-3-10.5H525.1c-2.3 0-4-.9-5-2.8c-1.2-2.1-1.8-5.7-1.8-10.7v-8.5c0-1.9-.2-3.4-.7-4.5c-.3-.5-.9-1.2-1.8-2.2Zm-78.4 0l1.8 10.6c.7 4 1.1 7.5 1.4 10.4c.2 2.3 .3 4.5 .3 6.6c0 1.7-.3 3.3-.7 4.8c-.4 1.4-1.2 3.4-2.4 5.9l-1.8-.7c.5-2.6 .8-4.6 .8-6.2c0-1.2-.2-3-.4-5.4c-.1-2.3-.4-4.6-.7-6.9c-.3-2.3-.8-5.1-1.5-8.2c-.2-1.2-.3-1.9-.3-2.3c0-.7 .3-1.7 .9-3.2c.6-1.5 1.5-3.3 2.6-5.4Zm-222.6 0l1.8 10.6c.7 4 1.1 7.5 1.4 10.4c.2 2.3 .3 4.5 .3 6.6c0 1.7-.2 3.3-.6 4.8c-.4 1.4-1.3 3.4-2.4 5.9l-1.8-.7c.4-2.6 .7-4.6 .7-6.2c0-1.2-.1-3-.3-5.4c-.2-2.3-.5-4.6-.8-6.9c-.3-2.3-.7-5.1-1.4-8.2c-.3-1.2-.4-1.9-.4-2.3c0-.7 .3-1.7 .9-3.2c.7-1.5 1.5-3.3 2.6-5.4Zm405.5-1.8l5.5 2.8l-3 6.2l-5.6-2.9Zm549.6-.5l1.4 .7c-.1 .3-.1 .6-.1 1c0 .7 .4 1.4 1.2 1.9c1.2 .7 2.4 1.3 3.4 1.9c-.2 1.7-.4 2.9-.6 3.7c-.2 .7-.7 1.8-1.4 3.3l-.9-.4c0 .3 .3 2 .9 5.1c.5 3.1 1 5.8 1.4 8c.6 3.2 .8 5.2 .8 5.9v6.7c0 3-1.5 5.8-4.7 8.1c-3.2 2.4-6.8 3.6-10.9 3.6c-3.4 0-6.1-.9-8-2.6c-1.9-1.7-2.9-4.1-2.9-7.2c0-2.9 .4-5.4 1.1-7.6c.8-2.4 2.4-5.3 4.8-8.9l1.8 1.3c-1.5 2.3-2.6 4.3-3.3 6c-.6 1.7-1 3.4-1 5.1c0 1.8 .7 3.2 2 4.2c1.4 1 3.3 1.5 5.7 1.5c3.5 0 6.4-.7 8.6-2c2.1-1.4 3.2-3.2 3.2-5.3c0-.4 0-.7 0-.9c0-.3 0-.4 0-.5c0-.8 0-1.7-.2-2.6c-.1-.9-.4-2.9-1-5.8c-.8-4.7-1.7-9.4-2.5-14.1l-1.5-1.1c0-2 .9-5 2.7-9Zm-793.6 0l1.4 .7c-.1 .3-.2 .6-.2 1c0 .7 .4 1.4 1.3 1.9c1.2 .7 2.3 1.3 3.4 1.9c-.2 1.7-.4 2.9-.7 3.7c-.2 .7-.6 1.8-1.3 3.3l-.9-.4c0 .3 .3 2 .8 5.1c.6 3.1 1.1 5.8 1.5 8c.4 2.4 .6 4.1 .7 5.1l.1 .1h34.6c-2.4-2.5-4.6-4.3-6.6-5.3c-1.8-1-3.6-1.5-5.3-1.5c-.6 0-1 0-1.5 .1c-.4 0-1 .1-1.8 .3c1.1-2.5 2.3-4.4 3.6-5.5c1.4-1.2 2.9-1.8 4.6-1.8c1.3 0 2.6 .3 3.8 .9c1.2 .7 2.6 1.7 4.1 3.1c1.2 1.1 2.9 2.8 5 5.2c1.5 1.7 2.7 2.8 3.5 3.3c.7 .5 1.9 .9 3.5 1.2v8.1H385.5l-.2 1.5c-.6 2.2-2.1 4.1-4.5 5.9c-3.1 2.4-6.8 3.6-10.8 3.6c-3.5 0-6.1-.9-8-2.6c-1.9-1.7-2.9-4.1-2.9-7.2c0-2.9 .4-5.4 1.1-7.6c.8-2.4 2.4-5.3 4.7-8.9l1.9 1.3c-1.6 2.3-2.7 4.3-3.3 6c-.7 1.7-1 3.4-1 5.1c0 1.8 .7 3.2 2 4.2c1.3 1 3.2 1.5 5.7 1.5c3.5 0 6.3-.7 8.5-2c2.2-1.4 3.3-3.2 3.3-5.3c0-.4 0-.7 0-.9c0-.3 0-.4 0-.5c0-.8-.1-1.7-.2-2.6c-.1-.9-.5-2.9-1-5.8c-.9-4.7-1.7-9.4-2.6-14.1l-1.5-1.1c0-2 1-5 2.8-9Zm984.5 0l1.4 .7c0 .1-.1 .4-.1 1c0 .6 .4 1.2 1.2 1.9c.8 .5 1.9 1.1 3.5 1.8c-.1 1.3-.4 2.5-.8 3.7c-.3 1.2-.7 2.3-1.1 3.3l-1.1-.4l3.2 18.4v8.1h-29.8v.7c0 1.2-.7 2.8-2.1 4.8c-1.4 2-3.1 3.8-4.9 5.2c-2.1 1.7-3.9 2.5-5.3 2.5c-1.8 0-3.7-.5-5.7-1.5c-1.7-.9-4.4-2.6-8.1-5.1l1.2-1.9c1.8 1.2 3.2 2 4.3 2.4c1.1 .4 2.3 .6 3.6 .6c1.3 0 2.7-.4 4.1-1.1c1.4-.8 3.2-2.2 5.6-4.3c3.3-3 4.9-5.2 4.9-6.8c0-.8-.3-1.9-.9-3.2c-.7-1.4-1.6-2.7-2.6-3.6l1.6-8.1c1.4 1.4 2.4 3 3.2 4.8c.7 1.8 1.1 3.9 1.1 6.2v.3h26.3l-3.6-20.2l-2-1.3c0-1.2 .2-2.3 .6-3.5c.5-1.5 1.2-3.3 2.3-5.4Zm-127 0l1.3 .7c0 .1 0 .4-.1 1c0 .6 .4 1.2 1.3 1.9c.7 .5 1.9 1.1 3.5 1.8c-.2 1.3-.5 2.5-.8 3.7c-.4 1.2-.7 2.3-1.2 3.3l-1.1-.4l3.3 18.4v8.1h-43.4c-1.3 0-2.3-.3-3-.8c-.8-.7-1.3-1.8-1.3-3.3c0-.9 .1-1.8 .2-2.9c.1-1 .2-2 .4-3l1.1-.1c.2 .7 .5 1.2 1.1 1.5c.5 .4 1.2 .5 1.9 .5h10.3c-.5-2.9-1.3-5.2-2.4-7c-.9-1.4-2.2-2.7-3.9-3.8l2.1-9.2c2.6 1.9 4.5 4.4 5.5 7.4c1 2.8 1.5 6.5 1.5 11.2v1.4h26.3l-3.6-20.2l-1.9-1.3c0-1.2 .2-2.3 .5-3.5c.5-1.5 1.3-3.3 2.4-5.4Zm-141.6 0l1.4 .7c0 .1 0 .4-.1 1c0 .6 .4 1.2 1.2 1.9c.8 .5 1.9 1.1 3.6 1.8c-.2 1.3-.5 2.5-.8 3.7c-.4 1.2-.8 2.3-1.2 3.3l-1.1-.4l3.3 18.4h1.1c.6 0 1 0 1.3 0c.6-.1 1.1-.1 1.7-.2c-1-1.5-1.6-2.7-2-3.6c-.3-.9-.5-2-.5-3.1c0-3 1.3-5.6 3.7-7.8c2.5-2.2 5.3-3.3 8.6-3.3c2.2 0 4.3 .7 6.3 2.2c1.9 1.3 3.2 3 4.1 4.9l-1.3 1c-1.6-.5-2.8-.9-3.7-1.1c-.9-.2-2.1-.3-3.4-.3c-2.5 0-4.6 .2-6.4 .6c-2.3 .5-3.5 1.2-3.5 2.2c0 1.3 2.8 3.6 8.3 6.8l15.2-4.4l-3.4 8.5c-5.3 1.6-9.7 2.9-13.2 3.8c-3.1 .8-5.6 1.3-7.7 1.6c-1.6 .2-3.1 .3-4.7 .3h-32.9c-.7 0-1.3 .1-1.7 .2c-.5 .1-.7 .3-.7 .5c0 .1 .5 .4 1.4 .8c1 .3 1.5 .9 1.5 1.7c0 1.1-.2 2.4-.5 4c-.3 1.5-.8 2.9-1.3 4.1c-.5 1-1.7 2.1-3.7 3.3c-2.1 1.3-4.6 2.4-7.3 3.3c-3.1 1-6.1 1.5-8.9 1.5c-3.2 0-5.7-.8-7.3-2.3c-1.7-1.5-2.5-3.6-2.5-6.5c0-3.1 .4-5.9 1.2-8.2c.9-2.8 2.8-6.4 5.6-10.9l1.6 1.3c-1.8 3.2-3.1 5.7-3.8 7.6c-.7 1.9-1 3.7-1 5.6c0 1.8 .5 3.2 1.7 4.3c1.2 1 2.8 1.6 4.9 1.6c2.5 0 5.2-.4 8.1-1.2c2.6-.7 4.9-1.5 6.8-2.5c1.8-1 2.8-1.8 2.8-2.5c0-.2-.6-.3-1.7-.3c-1.1-.1-2.1-.1-3-.1c-2.1 0-3.4 0-4.1-.2c-.6-.2-.9-.5-.9-1.1c0-1.1 .2-2.2 .6-3.4c.4-1.2 .8-2.1 1.4-2.8c1.3-1.5 2.8-2.9 4.6-4c2-1.3 3.8-1.9 5.4-1.9h29.6l-3.6-20.2l-1.9-1.3c0-1.2 .1-2.3 .5-3.5c.5-1.5 1.2-3.3 2.3-5.4Zm-272.8 0l1.4 .7c0 .1 0 .4-.1 1c0 .6 .4 1.2 1.2 1.9c.8 .5 1.9 1.1 3.6 1.8c-.2 1.3-.5 2.5-.8 3.7c-.4 1.2-.8 2.3-1.2 3.3l-1.1-.4l3.3 18.4v8.1H779.4c-.9 0-1.5 0-1.9 .1c-.4 0-.6 .1-.6 .4c.6 .3 1.2 .5 1.7 .7c.5 .1 .8 .3 .9 .5c.2 .2 .3 .5 .3 1c0 1.4-.4 3.1-1.2 5c-.8 2-1.6 3.2-2.4 3.7c-.7 .6-2.9 1.3-6.5 2.1c-3.7 .8-6.8 1.2-9.4 1.2c-3.7 0-6.8-.8-9.1-2.3c-2.3-1.6-3.4-3.6-3.4-6.1c0-2.4 .5-4.7 1.5-6.9c1.2-2.7 3.5-6.1 6.8-10.1l1.8 1.2c-2.1 2.5-3.5 4.6-4.3 6.2c-.8 1.6-1.2 3.1-1.2 4.7c0 2.1 .8 3.7 2.6 4.7c1.8 1 4.5 1.5 8.2 1.5c1.9 0 4.5-.3 7.9-1c3.4-.7 5.1-1.3 5.1-1.8c0-.3-.7-.5-2-.7c-1.3-.2-2.7-.3-4.2-.3c-2.3 0-3.5-.5-3.5-1.5c0-.4 .3-1.3 .9-2.4c.3-.8 .7-1.7 1.1-2.5c.8-1.6 2.2-2.9 4.2-4c2.1-1 4.3-1.5 6.6-1.5h32.3c-.2-1.3-.6-2.5-1.1-3.4c-.3-.5-1-1.4-2.1-2.7l2.3-7.1c1.5 1.7 2.6 3.5 3.1 5.3c.5 1.6 .7 3.9 .8 6.9v1h10.7l-3.6-20.2l-1.9-1.3c0-1.2 .1-2.3 .5-3.5c.5-1.5 1.2-3.3 2.3-5.4Zm-524.1 0l1.4 .7c0 .1-.1 .4-.2 1c0 .6 .4 1.2 1.3 1.9c.7 .5 1.9 1.1 3.5 1.8c-.2 1.3-.4 2.5-.8 3.7c-.3 1.2-.7 2.3-1.2 3.3l-1-.4l3.2 18.4H308c.9 0 1.8 0 2.6 .1c2.2 .3 4.7 .5 7.5 .8c-3-.6-5.1-1.5-6.3-2.6c-1.1-1-1.7-2.6-1.7-4.7c0-3.1 .7-5.9 2.1-8.3c1.4-2.5 3-3.7 4.8-3.7c2 0 3.7 1.7 5.2 5.2c1.5 3.4 2.3 7.6 2.3 12.5v.7h13.6c-.2-1.3-.6-2.5-1.2-3.4c-.3-.5-1-1.4-2.1-2.7l2.4-7.1c1.5 1.7 2.5 3.5 3.1 5.3c.5 1.9 .8 4.6 .8 8.2v7.8H270.2c-3.5 0-5.9-.5-7.2-1.5c-1.3-1-1.9-2.9-1.9-5.7c0-1.3 .1-2.5 .2-3.6c.1-.4 .3-1.4 .5-2.9c-4.5 1.1-8.2 2.9-11 5.5c-2.8 2.7-4.2 5.7-4.2 9.1c0 4 1.7 7 5.1 9.2c3.4 2.1 8.3 3.2 14.7 3.2c1.9 0 4.6-.2 8.1-.5l.6 .9l-11.4 7.3h-2.8c-5.9 0-10.3-1.4-13.5-4.4c-3.1-2.9-4.7-7.1-4.7-12.6c0-4.2 .9-8 2.8-11.6c1.9-3.5 4.4-6.1 7.3-7.7h-.6c-1.9 0-3.4 .2-4.6 .6c-1.2 .3-3 1.1-5.4 2.4c.8-7.4 4.5-11.1 10.8-11.1c.7 0 2.1 .1 4.2 .3c2.1 .2 3.9 .4 5.5 .5c3 .2 6 .4 8.9 .4l-1.8 7.2c-1.2 0-2.2 0-3 .2c-1.1 .2-2.1 .4-3 .6c-.1 .4-.1 .8-.2 1.3c0 .5 0 .8 0 1.1c0 1.4 .4 2.4 1.3 2.9c1 .5 2.7 .8 5.2 .8h31l-3.6-20.2l-1.9-1.3c0-1.2 .2-2.3 .6-3.5c.4-1.5 1.2-3.3 2.3-5.4Zm-94.3 0l1.4 .7c0 .1 0 .4-.1 1c0 .6 .4 1.2 1.3 1.9c.7 .5 1.9 1.1 3.5 1.8c-.2 1.3-.5 2.5-.8 3.7c-.4 1.2-.8 2.3-1.2 3.3l-1.1-.4l3.3 18.4v8.1H179.3l-.7 3.1c-.7 1.7-1.8 3.3-3.2 5c-2.9 3.3-5.8 5-8.6 5c-1.7 0-3.5-.5-5.4-1.6c-2-1-5-3.1-9.1-6.2l1.3-1.7c2.1 1.4 3.9 2.4 5.3 2.8c1.1 .4 2.4 .6 3.8 .6c1.9 0 3.9-.5 5.7-1.6c2.3-1.3 4.6-3.3 7-6.1c-.9 .1-1.6 .1-2.1 .1c-2 0-3.6-.6-4.7-1.9c-1.2-1.2-1.8-3-1.8-5.2c0-3 .7-5.9 2.1-8.6c1.5-3 3.2-4.5 5.1-4.5c1.6 0 2.9 1.1 4 3.2c1.1 2.2 1.7 4.8 1.7 7.9v1.6h13.6c-.3-1.3-.7-2.5-1.2-3.4c-.3-.5-1-1.4-2.1-2.7l2.4-7.1c1.5 1.7 2.5 3.5 3 5.3c.5 1.6 .8 3.9 .8 6.9v1h10.7l-3.6-20.2l-1.9-1.3c0-1.2 .2-2.3 .5-3.5c.5-1.5 1.2-3.3 2.3-5.4Zm110.4-.3l7 3.7L318 306l-7-3.7Zm595.9-.1l5.6 3.1l-3.1 5.7l-4.4-2.2l-2.5 4.9l-5.5-3.1l3.3-6.1l4.3 2.4Zm16.8-2l1.3 .6c0 .1 0 .4-.1 .8c0 .7 1 1.5 3 2.4c.6 .4 1.6 .8 2.9 1.3c-.2 1.5-.5 3-.9 4.3c-.3 .7-.7 1.7-1.2 3.2l-1.1-.4c.6 2.8 1 4.9 1.2 6.3c.2 1.3 .4 2.5 .4 3.5v.4c0 .6-.1 1-.1 1.3c0 .4-.1 .9-.3 1.6c1.1-.8 2.1-1.5 3.2-2.3c1.6-1.1 3-2 4.3-2.7c1.7-1 3-1.4 3.8-1.4c2.4 0 4.2 .6 5.7 1.8c1.6 1.4 2.3 3.4 2.3 5.9v6.2h13.6c-.2-1.3-.6-2.5-1.2-3.4c-.3-.5-1-1.4-2.1-2.7l2.4-7.1c1.5 1.7 2.5 3.5 3 5.3c.5 1.6 .8 3.9 .8 6.9l.1 1H972c1.8 0 3.2-.2 4.3-.6c1.3-.6 2.2-1.6 2.8-2.9c1.1-2.6 2.5-4.6 4.3-6.3c1.6-1.4 2.9-2.1 4-2.1c1 0 2.3 1.5 3.8 4.6c1.1 2.4 1.9 4.7 2.2 6.8v.5h10.8l-3.6-20.2l-1.9-1.3c0-1.2 .2-2.3 .5-3.5c.5-1.5 1.3-3.3 2.4-5.4l1.3 .7c0 .1 0 .4-.1 1c0 .6 .4 1.2 1.3 1.9c.7 .5 1.9 1.1 3.5 1.8c-.2 1.3-.5 2.5-.8 3.7c-.4 1.2-.7 2.3-1.2 3.3l-1.1-.4l3.3 18.4v8.1H991.4v-.1l-.4-.1c-1.5-.2-3.1-.5-4.8-1c-2.5-.7-4.7-1.6-6.6-2.6c-1.1 1.8-2.6 2.9-4.3 3.4c-.8 .3-1.9 .4-3.3 .4H880.5c-.7 0-1.3-.1-1.9-.4c-1.2-.6-2.2-1.6-3-3.2c-1-2.1-1.7-5-2-8.6c-1.4 1.6-2.4 2.8-3.2 3.5c-1.1 1-2 1.5-2.7 1.5c-.4 0-.9 0-1.5-.1l-3.6-.8c-1.6-.3-2.5-.5-2.9-.6c-.3-.2-.5-.4-.5-.8c0-.5 .7-2.2 2.1-5.1c1.3-2.8 2.3-4.6 3-5.3c.5-.5 1.3-1.2 2.6-2.1c.8-.5 1.8-1.1 3.2-1.9l1.6-1c-.1-.2-.1-.5-.1-.8c0-.3-.1-.6-.1-.8c0-.8 .2-1.7 .6-2.9c.3-1.1 .9-2.5 1.8-4.2l2.9 18.6c.4 2.9 1 4.9 1.8 5.9c.4 .7 1.1 1 1.9 1h26.8v.3l2.1 .2c1.2 .1 2.5 .3 3.9 .4c-2.9-.6-5-1.5-6.2-2.6c-1.2-1-1.8-2.6-1.8-4.7c0-3.1 .8-5.9 2.2-8.3c1.4-2.5 3-3.7 4.8-3.7c2 0 3.7 1.7 5.2 5.2c1.5 3.4 2.3 7.6 2.3 12.5v.7h1.9c.4 0 1.8-.8 4-2.5c.7-.5 1.8-1.3 3.2-2.5c0-2.4-.1-4.5-.3-6.2c-.2-1.6-.5-3.4-.9-5.2c-.1-.5-.6-2.6-1.6-6.5l-1.7-1.1c.5-2.1 .8-3.6 1.1-4.5c.3-.9 .9-2.3 1.8-4.3Zm378.4-1.8l5.5 3l-3.1 5.8l-4.4-2.2l-2.5 4.8l-5.4-3l3.3-6.1l4.2 2.4Zm-433.5-1.8l5.4 2.7l-3.3 5.6l-4.3-2.4l-2.3 4.7l-5.6-3l3.1-5.3l4.4 2.2Zm-811.4 0l5.3 2.7l-3.3 5.6l-4.2-2.4l-2.4 4.7l-5.5-3l3.1-5.3l4.4 2.2Z" class="g1_54"/>
<path fill-rule="evenodd" d="M1313.8 408.6l6.9 3.7l-3.5 6.7l-7-3.7Zm-60.5-9.5c1.1 0 1.9 .3 2.6 1.1c.7 .7 1 1.6 1 2.6c0 1-.3 1.9-1.1 2.6c-.7 .7-1.6 1.1-2.6 1.1c-1 0-1.8-.4-2.5-1.1c-.7-.7-1.1-1.6-1.1-2.6c0-1 .4-1.9 1.1-2.6c.7-.8 1.6-1.1 2.6-1.1Zm165.4-6.1c-.8 0-1.4 .9-2 2.7c1.1 .4 1.8 .7 2.4 .9c1.6 .6 2.5 .9 2.7 .9c.4 0 .7-.2 .7-.4c0-.5-.5-1.2-1.3-2.3c-1-1.2-1.8-1.8-2.5-1.8Zm-58.2-.9c-1.3 0-2.7 .4-4.4 1.3c-1.6 .8-4 2.4-7.1 4.6h7.8c6.5 0 9.8-1 9.8-3c0-.9-.7-1.7-2.1-2.2c-1.2-.5-2.5-.7-4-.7Zm-65.5-6.4c-.6 .3-1.1 .5-1.5 .7c-1.1 .6-1.9 1.1-2.6 1.6c-.5 .4-.9 .8-1.2 1.1c-.4 .5-.6 .8-.6 1c0 .3 .4 .5 1 .7c.7 .1 1.4 .2 2.1 .2c.5 0 .9-.1 1.4-.4c.5-.2 1.1-.7 2-1.3Zm-41.2-14.3c2.4 0 4.4 .7 6.1 2.1c1.6 1.3 2.5 3.1 2.5 5.3c0 1.2-.4 2.3-1.1 3.3c-.8 1-1.9 1.5-3.1 1.5c-1 0-1.9-.3-2.5-1c-.7-.6-1-1.4-1-2.2c0-1.4 .6-2.4 1.6-3.1c1.1-.7 1.7-1.2 1.7-1.7c0-.6-.3-1.2-1-1.6c-.6-.4-1.4-.6-2.5-.6c-1.3 0-2.3 .3-3.2 1.1c-.8 .7-1.2 1.6-1.2 2.6c0 1 .4 2.2 1.3 3.8c1.2 2.3 2 3.7 2.3 4.4c.8 2.1 1.2 4.4 1.2 6.8c0 1.3-.1 2.8-.3 4.4h-1.8c0-.4 0-.7 .1-.9l.1-1.5c0-1.1-.7-2.3-2.2-3.6c-2.5-2.3-3.9-3.5-4.1-3.8c-1.5-1.8-2.2-3.8-2.2-6c0-2.7 .8-4.9 2.6-6.6c1.8-1.8 4-2.7 6.7-2.7Zm130-.7l7 3.7l-3.6 6.6l-7-3.6Zm66.1-.8l1.7 10.6c.7 4 1.2 7.5 1.4 10.4c.2 2.3 .3 4.4 .3 6.5c0 1.8-.2 3.4-.6 4.9c-.4 1.4-1.2 3.4-2.4 5.9l-1.8-.8c.5-2.5 .7-4.6 .7-6.2c0-1.2-.1-2.9-.3-5.3c-.2-2.3-.4-4.7-.7-6.9c-.3-2.4-.8-5.1-1.5-8.3c-.2-1.1-.4-1.8-.4-2.3c0-.6 .4-1.6 1-3.1c.6-1.5 1.4-3.3 2.6-5.4Zm-13.8-2.3l1.3 .7c0 .1 0 .4-.1 .9c0 .7 .4 1.3 1.3 1.9c.7 .6 1.9 1.2 3.5 1.9c-.2 1.3-.5 2.5-.8 3.7c-.4 1.2-.7 2.3-1.2 3.3l-1.1-.5l3.3 18.5v8.1h-16.4v-.2h-.4c-1.5-.2-3.1-.5-4.8-1c-2.5-.8-4.7-1.6-6.6-2.6c-1.1 1.8-2.6 2.9-4.3 3.4c-.8 .3-1.9 .4-3.3 .4h-67.3c-1.4 0-2.5-.4-3.4-1.1c-.8-.7-1.5-1.8-2.1-3.4c-1.3 1.8-2.5 3-3.7 3.6c-1 .6-2.4 .9-4.2 .9h-22.5c-.7 0-1.4-.1-2-.4c-1.1-.6-2.1-1.7-2.9-3.2c-1.1-2.1-1.8-5-2.1-8.6c-1.3 1.6-2.4 2.8-3.1 3.5c-1.1 1-2 1.5-2.8 1.5c-.4 0-.8 0-1.4-.1l-3.6-.8c-1.6-.3-2.6-.5-2.9-.7c-.4-.1-.5-.4-.5-.7c0-.5 .6-2.2 2-5.1c1.4-2.8 2.4-4.6 3-5.3c.5-.5 1.4-1.2 2.7-2.1c.7-.5 1.8-1.1 3.2-2l1.6-.9c-.1-.3-.1-.5-.2-.8c0-.3 0-.6 0-.9c0-.7 .2-1.7 .5-2.8c.4-1.1 1-2.6 1.9-4.2l2.8 18.5c.5 3 1.1 5 1.8 6c.5 .7 1.2 1 2 1h17.5c-.3-1.4-.7-2.5-1.2-3.4c-.3-.5-1-1.4-2.1-2.7l2.4-7.1c1.5 1.7 2.5 3.5 3 5.3c.5 1.6 .8 3.9 .8 6.9v1h2.1c2.3 0 4.1-.6 5.3-1.8c1.4-1.3 2.3-3.6 2.7-6.9l2 .3c-.1 .7-.1 1.3-.1 1.7c-.1 1.3-.1 2.4-.1 3.2c0 1.1 .3 2 .9 2.6c.5 .6 1.3 .9 2.3 .9c1 0 1.9-.2 2.7-.6c.8-.4 2.1-1.2 3.9-2.5l10.7-7.6c1.2-.9 2.2-1.5 2.8-1.9c1.4-.9 2.9-1.3 4.2-1.3c2.2 0 4 .8 5.3 2.3c1.6 1.9 2.4 4.6 2.4 8.3V398h19.1c-2.4-2.5-4.6-4.3-6.7-5.4c-1.8-.9-3.6-1.4-5.3-1.4c-.5 0-1 0-1.4 0c-.4 .1-1.1 .2-1.9 .4c1.1-2.5 2.3-4.4 3.7-5.6c1.3-1.2 2.8-1.7 4.6-1.7c1.3 0 2.5 .3 3.7 .9c1.2 .6 2.6 1.7 4.1 3.1c1.2 1.1 2.9 2.8 5.1 5.2c1.5 1.7 2.6 2.7 3.4 3.2c.8 .5 2 1 3.5 1.3h3.8c1.8 0 3.2-.2 4.3-.7c1.3-.5 2.2-1.5 2.8-2.8c1.1-2.6 2.5-4.7 4.3-6.3c1.6-1.4 2.9-2.2 4-2.2c1 0 2.3 1.6 3.8 4.6c1.1 2.5 1.9 4.7 2.2 6.9v.5h10.8l-3.6-20.2l-1.9-1.3c0-1.2 .2-2.3 .5-3.5c.5-1.6 1.3-3.4 2.4-5.4ZM1295 361.5l5.3 2.8l-3.3 5.6l-4.2-2.4l-2.4 4.7l-5.5-3.1l3.1-5.2l4.4 2.2Z" class="g0_54"/>
<path d="M1313.8 408.6l6.9 3.7l-3.5 6.7l-7-3.7Zm-60.5-9.5c1.1 0 1.9 .3 2.6 1.1c.7 .7 1 1.6 1 2.6c0 1-.3 1.9-1.1 2.6c-.7 .7-1.6 1.1-2.6 1.1c-1 0-1.8-.4-2.5-1.1c-.7-.7-1.1-1.6-1.1-2.6c0-1 .4-1.9 1.1-2.6c.7-.8 1.6-1.1 2.6-1.1Zm165.4-6.1c-.8 0-1.4 .9-2 2.7c1.1 .4 1.8 .7 2.4 .9c1.6 .6 2.5 .9 2.7 .9c.4 0 .7-.2 .7-.4c0-.5-.5-1.2-1.3-2.3c-1-1.2-1.8-1.8-2.5-1.8Zm-58.2-.9c-1.3 0-2.7 .4-4.4 1.3c-1.6 .8-4 2.4-7.1 4.6h7.8c6.5 0 9.8-1 9.8-3c0-.9-.7-1.7-2.1-2.2c-1.2-.5-2.5-.7-4-.7Zm-65.5-6.4c-.6 .3-1.1 .5-1.5 .7c-1.1 .6-1.9 1.1-2.6 1.6c-.5 .4-.9 .8-1.2 1.1c-.4 .5-.6 .8-.6 1c0 .3 .4 .5 1 .7c.7 .1 1.4 .2 2.1 .2c.5 0 .9-.1 1.4-.4c.5-.2 1.1-.7 2-1.3Zm-41.2-14.3c2.4 0 4.4 .7 6.1 2.1c1.6 1.3 2.5 3.1 2.5 5.3c0 1.2-.4 2.3-1.1 3.3c-.8 1-1.9 1.5-3.1 1.5c-1 0-1.9-.3-2.5-1c-.7-.6-1-1.4-1-2.2c0-1.4 .6-2.4 1.6-3.1c1.1-.7 1.7-1.2 1.7-1.7c0-.6-.3-1.2-1-1.6c-.6-.4-1.4-.6-2.5-.6c-1.3 0-2.3 .3-3.2 1.1c-.8 .7-1.2 1.6-1.2 2.6c0 1 .4 2.2 1.3 3.8c1.2 2.3 2 3.7 2.3 4.4c.8 2.1 1.2 4.4 1.2 6.8c0 1.3-.1 2.8-.3 4.4h-1.8c0-.4 0-.7 .1-.9l.1-1.5c0-1.1-.7-2.3-2.2-3.6c-2.5-2.3-3.9-3.5-4.1-3.8c-1.5-1.8-2.2-3.8-2.2-6c0-2.7 .8-4.9 2.6-6.6c1.8-1.8 4-2.7 6.7-2.7Zm130-.7l7 3.7l-3.6 6.6l-7-3.6Zm66.1-.8l1.7 10.6c.7 4 1.2 7.5 1.4 10.4c.2 2.3 .3 4.4 .3 6.5c0 1.8-.2 3.4-.6 4.9c-.4 1.4-1.2 3.4-2.4 5.9l-1.8-.8c.5-2.5 .7-4.6 .7-6.2c0-1.2-.1-2.9-.3-5.3c-.2-2.3-.4-4.7-.7-6.9c-.3-2.4-.8-5.1-1.5-8.3c-.2-1.1-.4-1.8-.4-2.3c0-.6 .4-1.6 1-3.1c.6-1.5 1.4-3.3 2.6-5.4Zm-13.8-2.3l1.3 .7c0 .1 0 .4-.1 .9c0 .7 .4 1.3 1.3 1.9c.7 .6 1.9 1.2 3.5 1.9c-.2 1.3-.5 2.5-.8 3.7c-.4 1.2-.7 2.3-1.2 3.3l-1.1-.5l3.3 18.5v8.1h-16.4v-.2h-.4c-1.5-.2-3.1-.5-4.8-1c-2.5-.8-4.7-1.6-6.6-2.6c-1.1 1.8-2.6 2.9-4.3 3.4c-.8 .3-1.9 .4-3.3 .4h-67.3c-1.4 0-2.5-.4-3.4-1.1c-.8-.7-1.5-1.8-2.1-3.4c-1.3 1.8-2.5 3-3.7 3.6c-1 .6-2.4 .9-4.2 .9h-22.5c-.7 0-1.4-.1-2-.4c-1.1-.6-2.1-1.7-2.9-3.2c-1.1-2.1-1.8-5-2.1-8.6c-1.3 1.6-2.4 2.8-3.1 3.5c-1.1 1-2 1.5-2.8 1.5c-.4 0-.8 0-1.4-.1l-3.6-.8c-1.6-.3-2.6-.5-2.9-.7c-.4-.1-.5-.4-.5-.7c0-.5 .6-2.2 2-5.1c1.4-2.8 2.4-4.6 3-5.3c.5-.5 1.4-1.2 2.7-2.1c.7-.5 1.8-1.1 3.2-2l1.6-.9c-.1-.3-.1-.5-.2-.8c0-.3 0-.6 0-.9c0-.7 .2-1.7 .5-2.8c.4-1.1 1-2.6 1.9-4.2l2.8 18.5c.5 3 1.1 5 1.8 6c.5 .7 1.2 1 2 1h17.5c-.3-1.4-.7-2.5-1.2-3.4c-.3-.5-1-1.4-2.1-2.7l2.4-7.1c1.5 1.7 2.5 3.5 3 5.3c.5 1.6 .8 3.9 .8 6.9v1h2.1c2.3 0 4.1-.6 5.3-1.8c1.4-1.3 2.3-3.6 2.7-6.9l2 .3c-.1 .7-.1 1.3-.1 1.7c-.1 1.3-.1 2.4-.1 3.2c0 1.1 .3 2 .9 2.6c.5 .6 1.3 .9 2.3 .9c1 0 1.9-.2 2.7-.6c.8-.4 2.1-1.2 3.9-2.5l10.7-7.6c1.2-.9 2.2-1.5 2.8-1.9c1.4-.9 2.9-1.3 4.2-1.3c2.2 0 4 .8 5.3 2.3c1.6 1.9 2.4 4.6 2.4 8.3V398h19.1c-2.4-2.5-4.6-4.3-6.7-5.4c-1.8-.9-3.6-1.4-5.3-1.4c-.5 0-1 0-1.4 0c-.4 .1-1.1 .2-1.9 .4c1.1-2.5 2.3-4.4 3.7-5.6c1.3-1.2 2.8-1.7 4.6-1.7c1.3 0 2.5 .3 3.7 .9c1.2 .6 2.6 1.7 4.1 3.1c1.2 1.1 2.9 2.8 5.1 5.2c1.5 1.7 2.6 2.7 3.4 3.2c.8 .5 2 1 3.5 1.3h3.8c1.8 0 3.2-.2 4.3-.7c1.3-.5 2.2-1.5 2.8-2.8c1.1-2.6 2.5-4.7 4.3-6.3c1.6-1.4 2.9-2.2 4-2.2c1 0 2.3 1.6 3.8 4.6c1.1 2.5 1.9 4.7 2.2 6.9v.5h10.8l-3.6-20.2l-1.9-1.3c0-1.2 .2-2.3 .5-3.5c.5-1.6 1.3-3.4 2.4-5.4ZM1295 361.5l5.3 2.8l-3.3 5.6l-4.2-2.4l-2.4 4.7l-5.5-3.1l3.1-5.2l4.4 2.2Z" class="g1_54"/>
<image clip-path="url(#c1_54)" preserveAspectRatio="none" x="1344" y="457" width="108" height="72" href="img/2.jpg"/>
<image clip-path="url(#c2_54)" preserveAspectRatio="none" x="1347" y="550" width="102" height="71" href="img/3.jpg"/>
<image clip-path="url(#c3_54)" preserveAspectRatio="none" x="1347" y="642" width="102" height="74" href="img/4.jpg"/>
<image clip-path="url(#c4_54)" preserveAspectRatio="none" x="1353" y="745" width="96" height="80" href="img/5.jpg"/>
<image clip-path="url(#c5_54)" preserveAspectRatio="none" x="47" y="371" width="630" height="492" href="img/6.jpg"/>
<path d="M1183.4 555.4c0-8.6 6.9-15.5 15.5-15.5h232.9c8.5 0 15.4 6.9 15.4 15.5v61.8c0 8.6-6.9 15.5-15.4 15.5H1198.9c-8.6 0-15.5-6.9-15.5-15.5Z" class="g2_54"/>
</svg>