<svg viewBox="0 0 1466 825" version="1.1" xmlns="http://www.w3.org/2000/svg">
<defs>
<clipPath id="c0_4"><path d="M-.2 825.3V-.2H1467V825.3Z"/></clipPath>
<clipPath id="c1_4"><path d="M1343.9 529.1V456.4H1452v72.7Z"/></clipPath>
<clipPath id="c2_4"><path d="M1346.3 621.3V549.7h102.9v71.6Z"/></clipPath>
<clipPath id="c3_4"><path d="M1346.4 716.6V641.9h103v74.7Z"/></clipPath>
<clipPath id="c4_4"><path d="M1353 825V744.6h96.2V825Z"/></clipPath>
<clipPath id="c5_4"><path d="M9.8 810.5V335.7H389.2V810.5Z"/></clipPath>
<style>
.g0_4{fill:#F00;}
.g1_4{fill:none;stroke:#000;stroke-width:1.466;stroke-linejoin:round;}
</style>
</defs>
<image clip-path="url(#c0_4)" preserveAspectRatio="none" x="0" y="-7" width="1467" height="840" href="img/1.jpg"/>
<path fill-rule="evenodd" d="M1255.4 335l5.5 3l-3.1 5.8l-4.4-2.2l-2.5 4.8l-5.4-3l3.3-6.1l4.2 2.4Zm-41.8 0l5.5 3l-3.1 5.8l-4.4-2.2l-2.5 4.8l-5.4-3l3.3-6.1l4.2 2.4Zm232.6-15.3c-.8 0-1.4 .9-2 2.7c1.1 .4 1.8 .7 2.4 .9c1.6 .6 2.5 .9 2.7 .9c.4 0 .7-.2 .7-.5c0-.4-.5-1.2-1.3-2.2c-1-1.2-1.8-1.8-2.5-1.8Zm-137.5 0c-.8 0-1.4 .9-2 2.7c1.1 .4 1.8 .7 2.4 .9c1.6 .6 2.5 .9 2.7 .9c.4 0 .7-.2 .7-.5c0-.4-.5-1.2-1.3-2.2c-1-1.2-1.8-1.8-2.5-1.8Zm-73.2 0c-.7 0-1.4 .9-1.9 2.7c1 .4 1.8 .7 2.3 .9c1.6 .6 2.5 .9 2.7 .9c.5 0 .7-.2 .7-.5c0-.4-.4-1.2-1.3-2.2c-.9-1.2-1.8-1.8-2.5-1.8Zm137.9-1c-.2 1-.3 1.7-.5 2.2c-.1 .5-.5 1.3-1.1 2.5c2.6 1.4 4.4 2.1 5.5 2.1c.4 0 .5-.1 .5-.4c0-.6-.4-1.5-1.3-2.8c-.8-1.2-1.9-2.4-3.1-3.6Zm-252.9 0c-.1 1-.2 1.7-.4 2.2c-.1 .5-.5 1.3-1.2 2.5c2.6 1.4 4.5 2.1 5.6 2.1c.3 0 .5-.1 .5-.4c0-.6-.4-1.5-1.3-2.8c-.8-1.2-1.9-2.4-3.2-3.6Zm-55.6-.1c-1.3 2-1.9 3.6-1.9 5c0 .6 .3 1.1 .8 1.6c.5 .5 1.2 .7 1.9 .7c1 0 2.1-.3 3.4-.7c1.3-.5 1.9-.9 1.9-1.2c0-.4-.6-1.2-2-2.4c-1.4-1.2-2.8-2.2-4.1-3Zm303-2.3c-.8 0-1.6 .3-2.2 1c-.5 .5-.8 1.1-.8 1.7c0 .8 .9 1.6 2.8 2.4c.4-.2 .7-.4 .9-.5c.7-.4 1-.9 1-1.4c0-1-.1-1.8-.4-2.4c-.3-.5-.7-.8-1.3-.8Zm-252.8 0c-.9 0-1.6 .3-2.2 1c-.6 .5-.8 1.1-.8 1.7c0 .8 .9 1.6 2.7 2.4c.5-.2 .8-.4 1-.5c.7-.4 1-.9 1-1.4c0-1-.1-1.8-.4-2.4c-.3-.5-.7-.8-1.3-.8Zm39.9-2.9c1.3 1.4 2.4 3 3.1 4.8c.8 1.8 1.1 3.8 1.1 6.1v9.2c0 1.2-.7 2.8-2.1 4.8c-1.4 2-3 3.7-4.8 5.2c-2.1 1.6-3.9 2.4-5.4 2.4c-1.7 0-3.6-.5-5.6-1.5c-1.7-.8-4.5-2.5-8.2-5.1l1.3-1.8c1.8 1.1 3.2 2 4.3 2.4c1.1 .4 2.3 .6 3.5 .6c1.4 0 2.8-.4 4.2-1.2c1.3-.7 3.2-2.2 5.6-4.3c3.3-2.9 4.9-5.2 4.9-6.8c0-.8-.3-1.8-1-3.1c-.7-1.5-1.5-2.7-2.6-3.7Zm60.7-1.9c1.5 1.6 2.5 3.4 3.1 5.3c.5 1.6 .7 3.9 .8 6.9v1h3.8c1.7 0 3.2-.3 4.2-.7c1.4-.6 2.3-1.5 2.8-2.9c1.1-2.5 2.6-4.6 4.4-6.2c1.5-1.5 2.9-2.2 4-2.2c1 0 2.2 1.5 3.7 4.6c1.2 2.4 1.9 4.7 2.2 6.8l.1 .6h13.6c-.2-1.4-.6-2.5-1.2-3.5c-.3-.5-1-1.4-2.1-2.6l2.4-7.1c1.5 1.6 2.5 3.4 3.1 5.3c.5 1.8 .8 4.6 .8 8.2v7.8h-18.7v-.2h-.3c-1.5-.2-3.1-.6-4.9-1.1c-2.5-.7-4.7-1.5-6.6-2.5c-1.1 1.7-2.5 2.8-4.2 3.4c-.8 .2-1.9 .4-3.3 .4H1203v.7c0 1.2-.7 2.8-2 4.8c-1.4 2-3.1 3.7-4.9 5.2c-2.1 1.6-3.9 2.4-5.3 2.4c-1.8 0-3.7-.5-5.7-1.5c-1.7-.8-4.4-2.5-8.2-5.1l1.3-1.8c1.8 1.1 3.2 2 4.3 2.4c1.1 .4 2.3 .6 3.6 .6c1.3 0 2.7-.4 4.1-1.2c1.3-.7 3.2-2.2 5.6-4.3c3.3-2.9 4.9-5.2 4.9-6.8c0-.8-.3-1.8-.9-3.1c-.8-1.5-1.6-2.7-2.7-3.7l1.7-8c1.4 1.4 2.4 3 3.1 4.8c.8 1.8 1.1 3.8 1.1 6.1v.4h13.6c-.2-1.4-.6-2.5-1.2-3.5c-.3-.5-1-1.4-2.1-2.6Zm-151.1-1.7l2.9 1.8c1.3 .8 2.5 1.6 3.7 2.5c1.6 1.2 2.7 2.4 3.3 3.4c.6 1.1 1 2.5 1 4.1c0 1.2-.1 2.4-.3 3.6c-.2 1.2-.5 2.2-.8 3c-.5 1.5-1.9 2.9-4.1 4c-2 1.1-3.9 1.6-5.7 1.6c-1.5 0-2.8-.5-3.7-1.6c-.9-1.1-1.4-2.5-1.4-4.3c0-1.6 .3-3.2 .7-4.8c.5-1.5 1.3-3.5 2.6-5.9l-1.1-.7c.3-1 .8-2.1 1.4-3.4c.5-1.3 1-2.4 1.5-3.3Zm301.3-6.6c2.9 2.1 5.7 4.7 8.2 7.7c2.2 2.7 4 5.5 5.3 8.3c1.3 2.8 2 5.2 2 7.2c0 1.5-.3 3.1-.9 4.8c-.7 2.1-1.5 3.2-2.5 3.2c-.8 0-2.2-.4-4.1-1.2c-2.2-1-4.6-2.2-7-3.7c-1.3 1.2-2.9 2.1-4.8 2.6c-1.4 .5-2.9 .7-4.5 .7h-2.7v-.1h-1.7c-3.7 0-6.9 .4-9.7 1c-2.8 .6-4.2 1.3-4.2 2.1c.8 2.4 1.5 4.6 2.1 6.7c.6 2.1 .9 4.1 .9 5.9c0 1.4-.2 2.5-.4 3.3c-.3 .8-.8 1.8-1.5 2.7c-.2-2.6-.7-5.3-1.5-8.2c-.2-1-.9-3.2-1.9-6.4c-.7-2-1-3.4-1-4c0-1 .3-2.1 .8-3.5c.4-1.1 .9-2.1 1.4-3c.7-1 1.8-1.8 3.3-2.4c1.6-.6 4-1 7.3-1.4c-1.6-2.2-3-3.3-4.2-3.3c-.5 0-1 .2-1.5 .6c-.4 .4-1.2 1.3-2.2 2.6l-1.4-.7c.9-3 1.9-5.4 3.2-7c1.3-1.7 2.7-2.5 4.2-2.5c1.4 0 2.8 .8 4.5 2.3c1.6 1.5 3.5 3.9 5.6 7.2h.6c.6 0 1.3-.1 2-.3c.6-.2 1.2-.4 1.5-.7v-1c0-2.4 .4-4.5 1.1-6.3c.7-2 1.8-3.5 3.3-4.4l-1.4-1.1c.2-1.6 .4-2.9 .6-3.8c.2-.9 .6-2.2 1.2-3.9Zm-252.9 0c3 2.1 5.8 4.7 8.2 7.7c2.3 2.7 4.1 5.5 5.4 8.3c1.3 2.8 1.9 5.2 1.9 7.2c0 1.5-.3 3.1-.8 4.8c-.7 2.1-1.5 3.2-2.5 3.2c-.8 0-2.2-.4-4.1-1.2c-2.3-1-4.6-2.2-7-3.7c-1.3 1.2-2.9 2.1-4.8 2.6c-1.5 .5-3 .7-4.5 .7h-.6v.7c0 1.2-.7 2.8-2.1 4.8c-1.4 2-3 3.7-4.8 5.2c-2.1 1.6-3.9 2.4-5.4 2.4c-1.7 0-3.6-.5-5.6-1.5c-1.7-.8-4.5-2.5-8.2-5.1l1.3-1.8c1.8 1.1 3.2 2 4.3 2.4c1.1 .4 2.3 .6 3.5 .6c1.4 0 2.8-.4 4.2-1.2c1.3-.7 3.2-2.2 5.6-4.3c3.3-2.9 4.9-5.2 4.9-6.8c0-.8-.3-1.8-1-3.1c-.7-1.5-1.5-2.7-2.6-3.7l1.7-8c1.3 1.4 2.4 3 3.1 4.8c.8 1.8 1.1 3.8 1.1 6.1v.4h.6c.6 0 1.3-.1 1.9-.3c.7-.2 1.3-.4 1.6-.7v-1c0-2.4 .4-4.5 1.1-6.3c.7-2 1.8-3.5 3.3-4.4l-1.5-1.1c.3-1.6 .5-2.9 .7-3.8c.2-.9 .6-2.2 1.1-3.9Zm81.6-4l6.9 3.7l-3.6 6.7l-6.9-3.7Zm-43.8 0l6.9 3.7l-3.6 6.7l-6.9-3.7Zm269.1-2.6c1.1 1.6 1.9 3.2 2.4 4.7c.5 1.8 .8 4.1 .8 6.9v5.9c0 4.1 .3 7 .8 8.6c.5 1.3 1.2 2 2.1 2h8c1.8 0 3.2-.3 4.3-.7c1.3-.6 2.2-1.5 2.8-2.9c1.1-2.5 2.5-4.6 4.3-6.2c1.6-1.5 2.9-2.2 4-2.2c1 0 2.3 1.5 3.8 4.6c1.5 3.2 2.3 6.2 2.3 8.9v6.5c-2.1 0-4.5-.4-7.3-1.2c-2.5-.7-4.7-1.5-6.6-2.5c-1.1 1.7-2.6 2.8-4.3 3.4c-.8 .2-1.9 .4-3.3 .4h-8c-2.3 0-4-1-5-2.9c-1.2-2.1-1.8-5.6-1.8-10.6v-8.5c0-2-.2-3.5-.7-4.5c-.3-.5-.9-1.3-1.8-2.3Zm-26.6 0l1.8 10.5c.6 4 1.1 7.5 1.3 10.5c.2 2.2 .3 4.4 .3 6.5c0 1.8-.2 3.4-.6 4.8c-.4 1.5-1.2 3.5-2.4 5.9l-1.8-.7c.5-2.5 .7-4.6 .7-6.2c0-1.2-.1-3-.3-5.3c-.2-2.4-.4-4.7-.7-7c-.3-2.3-.8-5-1.5-8.2c-.2-1.1-.4-1.9-.4-2.3c0-.6 .3-1.7 1-3.1c.6-1.5 1.5-3.3 2.6-5.4Zm-110.9 0c1.1 1.6 1.9 3.2 2.4 4.7c.5 1.8 .8 4.1 .8 6.9v5.9c0 4.1 .3 7 .8 8.6c.5 1.3 1.2 2 2.1 2h8c1.8 0 3.2-.3 4.3-.7c1.3-.6 2.2-1.5 2.8-2.9c1.1-2.5 2.5-4.6 4.3-6.2c1.6-1.5 2.9-2.2 4-2.2c1 0 2.3 1.5 3.8 4.6c1.5 3.2 2.3 6.2 2.3 8.9v6.5c-2.1 0-4.5-.4-7.3-1.2c-2.5-.7-4.7-1.5-6.6-2.5c-1.1 1.7-2.6 2.8-4.3 3.4c-.8 .2-1.9 .4-3.3 .4h-8c-2.3 0-4-1-5-2.9c-1.2-2.1-1.8-5.6-1.8-10.6v-8.5c0-2-.2-3.5-.7-4.5c-.3-.5-.9-1.3-1.8-2.3Zm-213.9-1.7l5.5 3.1l-3.3 6l-4.3-2.4l-2.3 4.8l-5.6-3.1l3.1-5.8l4.4 2.3Zm325.7-6.9c.4 0 .7 .2 .9 .4c.3 .2 .4 .6 .4 1c0 .3-.1 .6-.2 .8c-.1 .2-.2 .6-.5 1c-1-.5-1.7-.7-2-.7c-.4 0-.8 .1-1.1 .2c-.3 .2-.5 .3-.7 .5c0 .3 .5 .7 1.5 1.2c.9 .6 1.6 .8 2 .8c.3 0 1-.1 2.2-.4c-.3 .5-.5 1-.8 1.3c-.2 .2-.6 .4-1 .5l-6.5 2c.4-.7 .8-1.2 1.1-1.5c.3-.3 .8-.5 1.6-.7c-.6-.4-1-.7-1.2-1c-.3-.3-.4-.6-.4-.9c0-.3 .1-.6 .2-.9c.2-.3 .4-.7 .7-1c1.3-1.7 2.6-2.6 3.8-2.6Z" class="g0_4"/>
<path d="M1255.4 335l5.5 3l-3.1 5.8l-4.4-2.2l-2.5 4.8l-5.4-3l3.3-6.1l4.2 2.4Zm-41.8 0l5.5 3l-3.1 5.8l-4.4-2.2l-2.5 4.8l-5.4-3l3.3-6.1l4.2 2.4Zm232.6-15.3c-.8 0-1.4 .9-2 2.7c1.1 .4 1.8 .7 2.4 .9c1.6 .6 2.5 .9 2.7 .9c.4 0 .7-.2 .7-.5c0-.4-.5-1.2-1.3-2.2c-1-1.2-1.8-1.8-2.5-1.8Zm-137.5 0c-.8 0-1.4 .9-2 2.7c1.1 .4 1.8 .7 2.4 .9c1.6 .6 2.5 .9 2.7 .9c.4 0 .7-.2 .7-.5c0-.4-.5-1.2-1.3-2.2c-1-1.2-1.8-1.8-2.5-1.8Zm-73.2 0c-.7 0-1.4 .9-1.9 2.7c1 .4 1.8 .7 2.3 .9c1.6 .6 2.5 .9 2.7 .9c.5 0 .7-.2 .7-.5c0-.4-.4-1.2-1.3-2.2c-.9-1.2-1.8-1.8-2.5-1.8Zm137.9-1c-.2 1-.3 1.7-.5 2.2c-.1 .5-.5 1.3-1.1 2.5c2.6 1.4 4.4 2.1 5.5 2.1c.4 0 .5-.1 .5-.4c0-.6-.4-1.5-1.3-2.8c-.8-1.2-1.9-2.4-3.1-3.6Zm-252.9 0c-.1 1-.2 1.7-.4 2.2c-.1 .5-.5 1.3-1.2 2.5c2.6 1.4 4.5 2.1 5.6 2.1c.3 0 .5-.1 .5-.4c0-.6-.4-1.5-1.3-2.8c-.8-1.2-1.9-2.4-3.2-3.6Zm-55.6-.1c-1.3 2-1.9 3.6-1.9 5c0 .6 .3 1.1 .8 1.6c.5 .5 1.2 .7 1.9 .7c1 0 2.1-.3 3.4-.7c1.3-.5 1.9-.9 1.9-1.2c0-.4-.6-1.2-2-2.4c-1.4-1.2-2.8-2.2-4.1-3Zm303-2.3c-.8 0-1.6 .3-2.2 1c-.5 .5-.8 1.1-.8 1.7c0 .8 .9 1.6 2.8 2.4c.4-.2 .7-.4 .9-.5c.7-.4 1-.9 1-1.4c0-1-.1-1.8-.4-2.4c-.3-.5-.7-.8-1.3-.8Zm-252.8 0c-.9 0-1.6 .3-2.2 1c-.6 .5-.8 1.1-.8 1.7c0 .8 .9 1.6 2.7 2.4c.5-.2 .8-.4 1-.5c.7-.4 1-.9 1-1.4c0-1-.1-1.8-.4-2.4c-.3-.5-.7-.8-1.3-.8Zm39.9-2.9c1.3 1.4 2.4 3 3.1 4.8c.8 1.8 1.1 3.8 1.1 6.1v9.2c0 1.2-.7 2.8-2.1 4.8c-1.4 2-3 3.7-4.8 5.2c-2.1 1.6-3.9 2.4-5.4 2.4c-1.7 0-3.6-.5-5.6-1.5c-1.7-.8-4.5-2.5-8.2-5.1l1.3-1.8c1.8 1.1 3.2 2 4.3 2.4c1.1 .4 2.3 .6 3.5 .6c1.4 0 2.8-.4 4.2-1.2c1.3-.7 3.2-2.2 5.6-4.3c3.3-2.9 4.9-5.2 4.9-6.8c0-.8-.3-1.8-1-3.1c-.7-1.5-1.5-2.7-2.6-3.7Zm60.7-1.9c1.5 1.6 2.5 3.4 3.1 5.3c.5 1.6 .7 3.9 .8 6.9v1h3.8c1.7 0 3.2-.3 4.2-.7c1.4-.6 2.3-1.5 2.8-2.9c1.1-2.5 2.6-4.6 4.4-6.2c1.5-1.5 2.9-2.2 4-2.2c1 0 2.2 1.5 3.7 4.6c1.2 2.4 1.9 4.7 2.2 6.8l.1 .6h13.6c-.2-1.4-.6-2.5-1.2-3.5c-.3-.5-1-1.4-2.1-2.6l2.4-7.1c1.5 1.6 2.5 3.4 3.1 5.3c.5 1.8 .8 4.6 .8 8.2v7.8h-18.7v-.2h-.3c-1.5-.2-3.1-.6-4.9-1.1c-2.5-.7-4.7-1.5-6.6-2.5c-1.1 1.7-2.5 2.8-4.2 3.4c-.8 .2-1.9 .4-3.3 .4H1203v.7c0 1.2-.7 2.8-2 4.8c-1.4 2-3.1 3.7-4.9 5.2c-2.1 1.6-3.9 2.4-5.3 2.4c-1.8 0-3.7-.5-5.7-1.5c-1.7-.8-4.4-2.5-8.2-5.1l1.3-1.8c1.8 1.1 3.2 2 4.3 2.4c1.1 .4 2.3 .6 3.6 .6c1.3 0 2.7-.4 4.1-1.2c1.3-.7 3.2-2.2 5.6-4.3c3.3-2.9 4.9-5.2 4.9-6.8c0-.8-.3-1.8-.9-3.1c-.8-1.5-1.6-2.7-2.7-3.7l1.7-8c1.4 1.4 2.4 3 3.1 4.8c.8 1.8 1.1 3.8 1.1 6.1v.4h13.6c-.2-1.4-.6-2.5-1.2-3.5c-.3-.5-1-1.4-2.1-2.6Zm-151.1-1.7l2.9 1.8c1.3 .8 2.5 1.6 3.7 2.5c1.6 1.2 2.7 2.4 3.3 3.4c.6 1.1 1 2.5 1 4.1c0 1.2-.1 2.4-.3 3.6c-.2 1.2-.5 2.2-.8 3c-.5 1.5-1.9 2.9-4.1 4c-2 1.1-3.9 1.6-5.7 1.6c-1.5 0-2.8-.5-3.7-1.6c-.9-1.1-1.4-2.5-1.4-4.3c0-1.6 .3-3.2 .7-4.8c.5-1.5 1.3-3.5 2.6-5.9l-1.1-.7c.3-1 .8-2.1 1.4-3.4c.5-1.3 1-2.4 1.5-3.3Zm301.3-6.6c2.9 2.1 5.7 4.7 8.2 7.7c2.2 2.7 4 5.5 5.3 8.3c1.3 2.8 2 5.2 2 7.2c0 1.5-.3 3.1-.9 4.8c-.7 2.1-1.5 3.2-2.5 3.2c-.8 0-2.2-.4-4.1-1.2c-2.2-1-4.6-2.2-7-3.7c-1.3 1.2-2.9 2.1-4.8 2.6c-1.4 .5-2.9 .7-4.5 .7h-2.7v-.1h-1.7c-3.7 0-6.9 .4-9.7 1c-2.8 .6-4.2 1.3-4.2 2.1c.8 2.4 1.5 4.6 2.1 6.7c.6 2.1 .9 4.1 .9 5.9c0 1.4-.2 2.5-.4 3.3c-.3 .8-.8 1.8-1.5 2.7c-.2-2.6-.7-5.3-1.5-8.2c-.2-1-.9-3.2-1.9-6.4c-.7-2-1-3.4-1-4c0-1 .3-2.1 .8-3.5c.4-1.1 .9-2.1 1.4-3c.7-1 1.8-1.8 3.3-2.4c1.6-.6 4-1 7.3-1.4c-1.6-2.2-3-3.3-4.2-3.3c-.5 0-1 .2-1.5 .6c-.4 .4-1.2 1.3-2.2 2.6l-1.4-.7c.9-3 1.9-5.4 3.2-7c1.3-1.7 2.7-2.5 4.2-2.5c1.4 0 2.8 .8 4.5 2.3c1.6 1.5 3.5 3.9 5.6 7.2h.6c.6 0 1.3-.1 2-.3c.6-.2 1.2-.4 1.5-.7v-1c0-2.4 .4-4.5 1.1-6.3c.7-2 1.8-3.5 3.3-4.4l-1.4-1.1c.2-1.6 .4-2.9 .6-3.8c.2-.9 .6-2.2 1.2-3.9Zm-252.9 0c3 2.1 5.8 4.7 8.2 7.7c2.3 2.7 4.1 5.5 5.4 8.3c1.3 2.8 1.9 5.2 1.9 7.2c0 1.5-.3 3.1-.8 4.8c-.7 2.1-1.5 3.2-2.5 3.2c-.8 0-2.2-.4-4.1-1.2c-2.3-1-4.6-2.2-7-3.7c-1.3 1.2-2.9 2.1-4.8 2.6c-1.5 .5-3 .7-4.5 .7h-.6v.7c0 1.2-.7 2.8-2.1 4.8c-1.4 2-3 3.7-4.8 5.2c-2.1 1.6-3.9 2.4-5.4 2.4c-1.7 0-3.6-.5-5.6-1.5c-1.7-.8-4.5-2.5-8.2-5.1l1.3-1.8c1.8 1.1 3.2 2 4.3 2.4c1.1 .4 2.3 .6 3.5 .6c1.4 0 2.8-.4 4.2-1.2c1.3-.7 3.2-2.2 5.6-4.3c3.3-2.9 4.9-5.2 4.9-6.8c0-.8-.3-1.8-1-3.1c-.7-1.5-1.5-2.7-2.6-3.7l1.7-8c1.3 1.4 2.4 3 3.1 4.8c.8 1.8 1.1 3.8 1.1 6.1v.4h.6c.6 0 1.3-.1 1.9-.3c.7-.2 1.3-.4 1.6-.7v-1c0-2.4 .4-4.5 1.1-6.3c.7-2 1.8-3.5 3.3-4.4l-1.5-1.1c.3-1.6 .5-2.9 .7-3.8c.2-.9 .6-2.2 1.1-3.9Zm81.6-4l6.9 3.7l-3.6 6.7l-6.9-3.7Zm-43.8 0l6.9 3.7l-3.6 6.7l-6.9-3.7Zm269.1-2.6c1.1 1.6 1.9 3.2 2.4 4.7c.5 1.8 .8 4.1 .8 6.9v5.9c0 4.1 .3 7 .8 8.6c.5 1.3 1.2 2 2.1 2h8c1.8 0 3.2-.3 4.3-.7c1.3-.6 2.2-1.5 2.8-2.9c1.1-2.5 2.5-4.6 4.3-6.2c1.6-1.5 2.9-2.2 4-2.2c1 0 2.3 1.5 3.8 4.6c1.5 3.2 2.3 6.2 2.3 8.9v6.5c-2.1 0-4.5-.4-7.3-1.2c-2.5-.7-4.7-1.5-6.6-2.5c-1.1 1.7-2.6 2.8-4.3 3.4c-.8 .2-1.9 .4-3.3 .4h-8c-2.3 0-4-1-5-2.9c-1.2-2.1-1.8-5.6-1.8-10.6v-8.5c0-2-.2-3.5-.7-4.5c-.3-.5-.9-1.3-1.8-2.3Zm-26.6 0l1.8 10.5c.6 4 1.1 7.5 1.3 10.5c.2 2.2 .3 4.4 .3 6.5c0 1.8-.2 3.4-.6 4.8c-.4 1.5-1.2 3.5-2.4 5.9l-1.8-.7c.5-2.5 .7-4.6 .7-6.2c0-1.2-.1-3-.3-5.3c-.2-2.4-.4-4.7-.7-7c-.3-2.3-.8-5-1.5-8.2c-.2-1.1-.4-1.9-.4-2.3c0-.6 .3-1.7 1-3.1c.6-1.5 1.5-3.3 2.6-5.4Zm-110.9 0c1.1 1.6 1.9 3.2 2.4 4.7c.5 1.8 .8 4.1 .8 6.9v5.9c0 4.1 .3 7 .8 8.6c.5 1.3 1.2 2 2.1 2h8c1.8 0 3.2-.3 4.3-.7c1.3-.6 2.2-1.5 2.8-2.9c1.1-2.5 2.5-4.6 4.3-6.2c1.6-1.5 2.9-2.2 4-2.2c1 0 2.3 1.5 3.8 4.6c1.5 3.2 2.3 6.2 2.3 8.9v6.5c-2.1 0-4.5-.4-7.3-1.2c-2.5-.7-4.7-1.5-6.6-2.5c-1.1 1.7-2.6 2.8-4.3 3.4c-.8 .2-1.9 .4-3.3 .4h-8c-2.3 0-4-1-5-2.9c-1.2-2.1-1.8-5.6-1.8-10.6v-8.5c0-2-.2-3.5-.7-4.5c-.3-.5-.9-1.3-1.8-2.3Zm-213.9-1.7l5.5 3.1l-3.3 6l-4.3-2.4l-2.3 4.8l-5.6-3.1l3.1-5.8l4.4 2.3Zm325.7-6.9c.4 0 .7 .2 .9 .4c.3 .2 .4 .6 .4 1c0 .3-.1 .6-.2 .8c-.1 .2-.2 .6-.5 1c-1-.5-1.7-.7-2-.7c-.4 0-.8 .1-1.1 .2c-.3 .2-.5 .3-.7 .5c0 .3 .5 .7 1.5 1.2c.9 .6 1.6 .8 2 .8c.3 0 1-.1 2.2-.4c-.3 .5-.5 1-.8 1.3c-.2 .2-.6 .4-1 .5l-6.5 2c.4-.7 .8-1.2 1.1-1.5c.3-.3 .8-.5 1.6-.7c-.6-.4-1-.7-1.2-1c-.3-.3-.4-.6-.4-.9c0-.3 .1-.6 .2-.9c.2-.3 .4-.7 .7-1c1.3-1.7 2.6-2.6 3.8-2.6Z" class="g1_4"/>
<path fill-rule="evenodd" d="M959.6 335.3l6.9 3.7l-3.5 6.6l-7-3.6Zm-15.7-14.1c-.5 0-.9 .2-1.2 .5c-.2 .3-.4 .7-.4 1.2c0 1.3 .8 2 2.5 2c.3 0 .6 0 .8 0c.2 0 .4 0 .5-.1l1.5-.2c-.6-1.2-1.1-2.1-1.7-2.6c-.5-.5-1.2-.8-2-.8Zm21.8-9.7c1.5 1.6 2.5 3.4 3 5.3c.5 1.6 .8 3.9 .8 6.9v1h13.6c-.3-1.4-.7-2.5-1.2-3.5c-.3-.5-1-1.4-2.1-2.6l2.4-7.1c1.5 1.6 2.5 3.4 3 5.3c.6 1.8 .8 4.6 .8 8.2v7.8H953v.8c0 3.9-.3 6.5-.7 7.8c-.5 1.2-1.5 2.5-3.1 3.8c-3.6 2.8-8.7 4.2-15.3 4.2c-2.8 0-5.2-.2-7.3-.7c-2.2-.4-4-1.1-5.4-2c-1.5-.9-2.6-2-3.3-3.3c-.8-1.3-1.2-2.8-1.2-4.5c0-2.9 .5-5.6 1.4-7.9c1-2.6 2.9-5.9 5.7-9.7l1.8 1.2c-1.9 2.7-3.1 4.9-3.9 6.7c-.8 1.8-1.2 3.6-1.2 5.3c0 2.4 1.3 4.3 3.8 5.6c2.5 1.4 6 2.1 10.5 2.1c4.1 0 7.8-.8 10.9-2.4c3.1-1.6 4.7-3.4 4.7-5.4c0-.3 0-.5 0-.7c0-.3-.1-.6-.2-.9l-4.6 .1c-2.2 0-3.9-.5-5.2-1.6c-1.2-1.2-1.8-2.7-1.8-4.7c0-2.9 .7-5.8 2.2-8.7c1.6-3.1 3.4-4.7 5.3-4.7c2.2 0 3.9 1.5 5.1 4.6c.7 1.8 1.2 3.8 1.5 6.1l.1 .8h13.8c-.3-1.4-.7-2.5-1.2-3.5c-.3-.5-1-1.4-2.1-2.6Zm-19.5-10.2l5.6 3.1l-3.1 5.8l-4.5-2.3l-2.5 4.9l-5.4-3.1l3.3-6.1l4.2 2.4Zm57.7-2.1l7 3.7l-3.6 6.7l-7-3.7Zm-24.6-2.6l6.9 3.7l-3.6 6.7l-6.9-3.6Zm54.9 0l1.8 10.5c.7 4 1.1 7.5 1.4 10.5c.2 2.2 .3 4.4 .3 6.5c0 1.8-.2 3.4-.6 4.8c-.4 1.5-1.3 3.5-2.4 5.9l-1.8-.7c.4-2.5 .7-4.6 .7-6.2c0-1.2-.1-3-.3-5.3c-.2-2.4-.5-4.7-.8-7c-.3-2.3-.7-5-1.4-8.2c-.3-1.1-.4-1.9-.4-2.3c0-.6 .3-1.7 .9-3.1c.7-1.5 1.5-3.3 2.6-5.4Zm-13.8-2.4l1.4 .7c0 .2 0 .5-.1 1c0 .7 .4 1.3 1.3 1.9c.7 .6 1.9 1.2 3.5 1.9c-.2 1.2-.5 2.5-.8 3.7c-.4 1.2-.8 2.3-1.2 3.2l-1.1-.4l3.3 18.5v8.1h-14.3v.7c0 1.2-.7 2.8-2.1 4.8c-1.4 2-3 3.7-4.9 5.2c-2.1 1.6-3.8 2.4-5.3 2.4c-1.8 0-3.6-.5-5.6-1.5c-1.8-.8-4.5-2.5-8.2-5.1l1.2-1.8c1.8 1.1 3.2 2 4.3 2.4c1.1 .4 2.3 .6 3.6 .6c1.4 0 2.7-.4 4.1-1.2c1.4-.7 3.2-2.2 5.6-4.3c3.3-2.9 5-5.2 5-6.8c0-.8-.4-1.8-1-3.1c-.7-1.5-1.6-2.7-2.6-3.7l1.7-8c1.3 1.4 2.3 3 3.1 4.8c.7 1.8 1.1 3.8 1.1 6.1v.4h10.7l-3.6-20.3l-1.9-1.2c0-1.2 .2-2.4 .5-3.6c.5-1.5 1.2-3.3 2.3-5.4Z" class="g0_4"/>
<path d="M959.6 335.3l6.9 3.7l-3.5 6.6l-7-3.6Zm-15.7-14.1c-.5 0-.9 .2-1.2 .5c-.2 .3-.4 .7-.4 1.2c0 1.3 .8 2 2.5 2c.3 0 .6 0 .8 0c.2 0 .4 0 .5-.1l1.5-.2c-.6-1.2-1.1-2.1-1.7-2.6c-.5-.5-1.2-.8-2-.8Zm21.8-9.7c1.5 1.6 2.5 3.4 3 5.3c.5 1.6 .8 3.9 .8 6.9v1h13.6c-.3-1.4-.7-2.5-1.2-3.5c-.3-.5-1-1.4-2.1-2.6l2.4-7.1c1.5 1.6 2.5 3.4 3 5.3c.6 1.8 .8 4.6 .8 8.2v7.8H953v.8c0 3.9-.3 6.5-.7 7.8c-.5 1.2-1.5 2.5-3.1 3.8c-3.6 2.8-8.7 4.2-15.3 4.2c-2.8 0-5.2-.2-7.3-.7c-2.2-.4-4-1.1-5.4-2c-1.5-.9-2.6-2-3.3-3.3c-.8-1.3-1.2-2.8-1.2-4.5c0-2.9 .5-5.6 1.4-7.9c1-2.6 2.9-5.9 5.7-9.7l1.8 1.2c-1.9 2.7-3.1 4.9-3.9 6.7c-.8 1.8-1.2 3.6-1.2 5.3c0 2.4 1.3 4.3 3.8 5.6c2.5 1.4 6 2.1 10.5 2.1c4.1 0 7.8-.8 10.9-2.4c3.1-1.6 4.7-3.4 4.7-5.4c0-.3 0-.5 0-.7c0-.3-.1-.6-.2-.9l-4.6 .1c-2.2 0-3.9-.5-5.2-1.6c-1.2-1.2-1.8-2.7-1.8-4.7c0-2.9 .7-5.8 2.2-8.7c1.6-3.1 3.4-4.7 5.3-4.7c2.2 0 3.9 1.5 5.1 4.6c.7 1.8 1.2 3.8 1.5 6.1l.1 .8h13.8c-.3-1.4-.7-2.5-1.2-3.5c-.3-.5-1-1.4-2.1-2.6Zm-19.5-10.2l5.6 3.1l-3.1 5.8l-4.5-2.3l-2.5 4.9l-5.4-3.1l3.3-6.1l4.2 2.4Zm57.7-2.1l7 3.7l-3.6 6.7l-7-3.7Zm-24.6-2.6l6.9 3.7l-3.6 6.7l-6.9-3.6Zm54.9 0l1.8 10.5c.7 4 1.1 7.5 1.4 10.5c.2 2.2 .3 4.4 .3 6.5c0 1.8-.2 3.4-.6 4.8c-.4 1.5-1.3 3.5-2.4 5.9l-1.8-.7c.4-2.5 .7-4.6 .7-6.2c0-1.2-.1-3-.3-5.3c-.2-2.4-.5-4.7-.8-7c-.3-2.3-.7-5-1.4-8.2c-.3-1.1-.4-1.9-.4-2.3c0-.6 .3-1.7 .9-3.1c.7-1.5 1.5-3.3 2.6-5.4Zm-13.8-2.4l1.4 .7c0 .2 0 .5-.1 1c0 .7 .4 1.3 1.3 1.9c.7 .6 1.9 1.2 3.5 1.9c-.2 1.2-.5 2.5-.8 3.7c-.4 1.2-.8 2.3-1.2 3.2l-1.1-.4l3.3 18.5v8.1h-14.3v.7c0 1.2-.7 2.8-2.1 4.8c-1.4 2-3 3.7-4.9 5.2c-2.1 1.6-3.8 2.4-5.3 2.4c-1.8 0-3.6-.5-5.6-1.5c-1.8-.8-4.5-2.5-8.2-5.1l1.2-1.8c1.8 1.1 3.2 2 4.3 2.4c1.1 .4 2.3 .6 3.6 .6c1.4 0 2.7-.4 4.1-1.2c1.4-.7 3.2-2.2 5.6-4.3c3.3-2.9 5-5.2 5-6.8c0-.8-.4-1.8-1-3.1c-.7-1.5-1.6-2.7-2.6-3.7l1.7-8c1.3 1.4 2.3 3 3.1 4.8c.7 1.8 1.1 3.8 1.1 6.1v.4h10.7l-3.6-20.3l-1.9-1.2c0-1.2 .2-2.4 .5-3.6c.5-1.5 1.2-3.3 2.3-5.4Z" class="g1_4"/>
<path fill-rule="evenodd" d="M801.5 335.3l7 3.7l-3.6 6.6l-7-3.6ZM727 325.7c1 0 1.8 .4 2.5 1.1c.7 .8 1.1 1.7 1.1 2.7c0 1-.4 1.8-1.1 2.6c-.7 .7-1.6 1.1-2.6 1.1c-1 0-1.9-.4-2.6-1.1c-.7-.8-1.1-1.6-1.1-2.6c0-1.1 .4-1.9 1.1-2.7c.8-.7 1.7-1.1 2.7-1.1Zm134.5-6c-.7 0-1.4 .9-1.9 2.7c1 .4 1.8 .7 2.3 .9c1.6 .6 2.5 .9 2.7 .9c.5 0 .7-.2 .7-.5c0-.4-.4-1.2-1.3-2.2c-.9-1.2-1.8-1.8-2.5-1.8Zm-25-4.7c-.4 0-.8 .1-1.1 .4c-.3 .2-.4 .5-.4 .9c0 .8 .6 1.7 1.9 2.5c1.3 .8 2.8 1.3 4.6 1.6c-.7-1.7-1.5-3-2.4-4c-.9-.9-1.8-1.4-2.6-1.4Zm-68-2.6c-.7 .2-1.2 .5-1.5 .7c-1.1 .5-2 1.1-2.6 1.6c-.5 .4-.9 .7-1.2 1.1c-.4 .4-.6 .7-.6 1c0 .2 .3 .5 1 .6c.7 .2 1.4 .3 2.1 .3c.4 0 .9-.2 1.4-.4c.4-.3 1.1-.7 2-1.4Zm-41.1-14.3c2.4 0 4.4 .7 6.1 2c1.7 1.4 2.5 3.2 2.5 5.4c0 1.2-.3 2.3-1.1 3.2c-.8 1.1-1.8 1.6-3.1 1.6c-1 0-1.8-.3-2.5-1c-.6-.6-.9-1.4-.9-2.3c0-1.3 .5-2.3 1.6-3c1.1-.7 1.6-1.3 1.6-1.7c0-.7-.3-1.2-.9-1.6c-.7-.4-1.5-.7-2.5-.7c-1.3 0-2.4 .4-3.2 1.1c-.8 .8-1.2 1.6-1.2 2.7c0 1 .4 2.2 1.2 3.7c1.3 2.3 2.1 3.8 2.3 4.5c.9 2.1 1.3 4.3 1.3 6.8c0 1.3-.1 2.8-.3 4.4l-1.8-.1c0-.3 0-.6 0-.8l.2-1.5c0-1.2-.8-2.4-2.3-3.7c-2.5-2.2-3.8-3.5-4.1-3.7c-1.5-1.8-2.2-3.8-2.2-6c0-2.7 .9-4.9 2.7-6.7c1.8-1.7 4-2.6 6.6-2.6Zm165.3-1.5l1.8 10.5c.7 4 1.1 7.5 1.4 10.5c.2 2.2 .3 4.4 .3 6.5c0 1.8-.2 3.4-.7 4.8c-.4 1.5-1.2 3.5-2.4 5.9l-1.8-.7c.5-2.5 .8-4.6 .8-6.2c0-1.2-.2-3-.4-5.3c-.1-2.4-.4-4.7-.7-7c-.3-2.3-.8-5-1.5-8.2c-.2-1.1-.3-1.9-.3-2.3c0-.6 .3-1.7 .9-3.1c.6-1.5 1.5-3.3 2.6-5.4Zm-13.8-2.4l1.4 .7c0 .2-.1 .5-.1 1c0 .7 .4 1.3 1.2 1.9c.8 .6 1.9 1.2 3.5 1.9c-.1 1.2-.4 2.5-.8 3.7c-.3 1.2-.7 2.3-1.1 3.2l-1.1-.4l3.2 18.5v8.1H868.7v-.2h-.3c-1.5-.2-3.1-.6-4.9-1.1c-2.5-.7-4.7-1.5-6.6-2.5c-1.1 1.7-2.5 2.8-4.2 3.4c-.8 .2-1.9 .4-3.3 .4H821.6c-2.4 0-4-1-5.1-2.9c-1.1-2.1-1.7-5.6-1.7-10.6v-8.5c0-2-.3-3.5-.8-4.5c-.3-.5-.9-1.3-1.8-2.3l3.2-7.4c1.2 1.6 2 3.2 2.5 4.7c.5 1.8 .7 4.1 .7 6.9v5.9c0 4.1 .3 7 .9 8.6c.4 1.3 1.1 2 2.1 2H829c.9 0 1.8 0 2.6 .1c2.2 .2 4.7 .5 7.5 .8c-3-.7-5-1.5-6.2-2.6c-1.2-1.1-1.8-2.7-1.8-4.7c0-3.1 .7-5.9 2.1-8.4c1.5-2.5 3-3.7 4.8-3.7c2 0 3.8 1.7 5.3 5.2c1.5 3.5 2.2 7.7 2.2 12.6v.7h3.9c1.7 0 3.2-.3 4.2-.7c1.4-.6 2.3-1.5 2.8-2.9c1.1-2.5 2.6-4.6 4.4-6.2c1.5-1.5 2.9-2.2 4-2.2c1 0 2.2 1.5 3.7 4.6c1.2 2.4 1.9 4.7 2.2 6.8l.1 .6h10.8L878 304.4l-2-1.2c0-1.2 .2-2.4 .6-3.6c.5-1.5 1.2-3.3 2.3-5.4Zm-90.2 0l1.4 .7c0 .2-.1 .5-.1 1c0 .7 .4 1.3 1.2 1.9c.8 .6 1.9 1.2 3.5 1.9c-.1 1.2-.4 2.5-.8 3.7c-.3 1.2-.7 2.3-1.1 3.2l-1.1-.4l3.2 18.5h13.6c-.2-1.4-.6-2.5-1.2-3.5c-.3-.5-1-1.4-2.1-2.6l2.4-7.1c1.5 1.6 2.5 3.4 3.1 5.3c.5 1.8 .8 4.6 .8 8.2v7.8H776.8c-.8 0-1.4-.2-2-.5c-1.1-.6-2.1-1.6-2.9-3.1c-1.1-2.1-1.8-5-2.1-8.7c-1.4 1.7-2.4 2.9-3.2 3.6c-1.1 1-2 1.5-2.7 1.5c-.4 0-.9-.1-1.4-.2l-3.7-.7c-1.5-.3-2.5-.6-2.8-.7c-.4-.1-.6-.4-.6-.7c0-.6 .7-2.3 2.1-5.1c1.4-2.9 2.4-4.6 3-5.3c.5-.5 1.4-1.2 2.6-2.1c.8-.5 1.9-1.2 3.3-2l1.5-.9c0-.3-.1-.6-.1-.9c0-.3 0-.5 0-.8c0-.7 .1-1.7 .5-2.8c.3-1.2 1-2.6 1.9-4.3l2.8 18.6c.5 2.9 1.1 4.9 1.8 5.9c.5 .7 1.1 1.1 2 1.1h14.6l-3.6-20.3l-2-1.2c0-1.2 .2-2.4 .6-3.6c.5-1.5 1.2-3.3 2.3-5.4Zm47.6-.3l5.5 3l-3.1 5.8l-4.4-2.2l-2.5 4.8l-5.4-3l3.3-6.1l4.2 2.4Zm-67.8-5.7l5.3 2.8l-3.3 5.5l-4.2-2.4l-2.4 4.7l-5.6-3l3.1-5.2l4.5 2.2Z" class="g0_4"/>
<path d="M801.5 335.3l7 3.7l-3.6 6.6l-7-3.6ZM727 325.7c1 0 1.8 .4 2.5 1.1c.7 .8 1.1 1.7 1.1 2.7c0 1-.4 1.8-1.1 2.6c-.7 .7-1.6 1.1-2.6 1.1c-1 0-1.9-.4-2.6-1.1c-.7-.8-1.1-1.6-1.1-2.6c0-1.1 .4-1.9 1.1-2.7c.8-.7 1.7-1.1 2.7-1.1Zm134.5-6c-.7 0-1.4 .9-1.9 2.7c1 .4 1.8 .7 2.3 .9c1.6 .6 2.5 .9 2.7 .9c.5 0 .7-.2 .7-.5c0-.4-.4-1.2-1.3-2.2c-.9-1.2-1.8-1.8-2.5-1.8Zm-25-4.7c-.4 0-.8 .1-1.1 .4c-.3 .2-.4 .5-.4 .9c0 .8 .6 1.7 1.9 2.5c1.3 .8 2.8 1.3 4.6 1.6c-.7-1.7-1.5-3-2.4-4c-.9-.9-1.8-1.4-2.6-1.4Zm-68-2.6c-.7 .2-1.2 .5-1.5 .7c-1.1 .5-2 1.1-2.6 1.6c-.5 .4-.9 .7-1.2 1.1c-.4 .4-.6 .7-.6 1c0 .2 .3 .5 1 .6c.7 .2 1.4 .3 2.1 .3c.4 0 .9-.2 1.4-.4c.4-.3 1.1-.7 2-1.4Zm-41.1-14.3c2.4 0 4.4 .7 6.1 2c1.7 1.4 2.5 3.2 2.5 5.4c0 1.2-.3 2.3-1.1 3.2c-.8 1.1-1.8 1.6-3.1 1.6c-1 0-1.8-.3-2.5-1c-.6-.6-.9-1.4-.9-2.3c0-1.3 .5-2.3 1.6-3c1.1-.7 1.6-1.3 1.6-1.7c0-.7-.3-1.2-.9-1.6c-.7-.4-1.5-.7-2.5-.7c-1.3 0-2.4 .4-3.2 1.1c-.8 .8-1.2 1.6-1.2 2.7c0 1 .4 2.2 1.2 3.7c1.3 2.3 2.1 3.8 2.3 4.5c.9 2.1 1.3 4.3 1.3 6.8c0 1.3-.1 2.8-.3 4.4l-1.8-.1c0-.3 0-.6 0-.8l.2-1.5c0-1.2-.8-2.4-2.3-3.7c-2.5-2.2-3.8-3.5-4.1-3.7c-1.5-1.8-2.2-3.8-2.2-6c0-2.7 .9-4.9 2.7-6.7c1.8-1.7 4-2.6 6.6-2.6Zm165.3-1.5l1.8 10.5c.7 4 1.1 7.5 1.4 10.5c.2 2.2 .3 4.4 .3 6.5c0 1.8-.2 3.4-.7 4.8c-.4 1.5-1.2 3.5-2.4 5.9l-1.8-.7c.5-2.5 .8-4.6 .8-6.2c0-1.2-.2-3-.4-5.3c-.1-2.4-.4-4.7-.7-7c-.3-2.3-.8-5-1.5-8.2c-.2-1.1-.3-1.9-.3-2.3c0-.6 .3-1.7 .9-3.1c.6-1.5 1.5-3.3 2.6-5.4Zm-13.8-2.4l1.4 .7c0 .2-.1 .5-.1 1c0 .7 .4 1.3 1.2 1.9c.8 .6 1.9 1.2 3.5 1.9c-.1 1.2-.4 2.5-.8 3.7c-.3 1.2-.7 2.3-1.1 3.2l-1.1-.4l3.2 18.5v8.1H868.7v-.2h-.3c-1.5-.2-3.1-.6-4.9-1.1c-2.5-.7-4.7-1.5-6.6-2.5c-1.1 1.7-2.5 2.8-4.2 3.4c-.8 .2-1.9 .4-3.3 .4H821.6c-2.4 0-4-1-5.1-2.9c-1.1-2.1-1.7-5.6-1.7-10.6v-8.5c0-2-.3-3.5-.8-4.5c-.3-.5-.9-1.3-1.8-2.3l3.2-7.4c1.2 1.6 2 3.2 2.5 4.7c.5 1.8 .7 4.1 .7 6.9v5.9c0 4.1 .3 7 .9 8.6c.4 1.3 1.1 2 2.1 2H829c.9 0 1.8 0 2.6 .1c2.2 .2 4.7 .5 7.5 .8c-3-.7-5-1.5-6.2-2.6c-1.2-1.1-1.8-2.7-1.8-4.7c0-3.1 .7-5.9 2.1-8.4c1.5-2.5 3-3.7 4.8-3.7c2 0 3.8 1.7 5.3 5.2c1.5 3.5 2.2 7.7 2.2 12.6v.7h3.9c1.7 0 3.2-.3 4.2-.7c1.4-.6 2.3-1.5 2.8-2.9c1.1-2.5 2.6-4.6 4.4-6.2c1.5-1.5 2.9-2.2 4-2.2c1 0 2.2 1.5 3.7 4.6c1.2 2.4 1.9 4.7 2.2 6.8l.1 .6h10.8L878 304.4l-2-1.2c0-1.2 .2-2.4 .6-3.6c.5-1.5 1.2-3.3 2.3-5.4Zm-90.2 0l1.4 .7c0 .2-.1 .5-.1 1c0 .7 .4 1.3 1.2 1.9c.8 .6 1.9 1.2 3.5 1.9c-.1 1.2-.4 2.5-.8 3.7c-.3 1.2-.7 2.3-1.1 3.2l-1.1-.4l3.2 18.5h13.6c-.2-1.4-.6-2.5-1.2-3.5c-.3-.5-1-1.4-2.1-2.6l2.4-7.1c1.5 1.6 2.5 3.4 3.1 5.3c.5 1.8 .8 4.6 .8 8.2v7.8H776.8c-.8 0-1.4-.2-2-.5c-1.1-.6-2.1-1.6-2.9-3.1c-1.1-2.1-1.8-5-2.1-8.7c-1.4 1.7-2.4 2.9-3.2 3.6c-1.1 1-2 1.5-2.7 1.5c-.4 0-.9-.1-1.4-.2l-3.7-.7c-1.5-.3-2.5-.6-2.8-.7c-.4-.1-.6-.4-.6-.7c0-.6 .7-2.3 2.1-5.1c1.4-2.9 2.4-4.6 3-5.3c.5-.5 1.4-1.2 2.6-2.1c.8-.5 1.9-1.2 3.3-2l1.5-.9c0-.3-.1-.6-.1-.9c0-.3 0-.5 0-.8c0-.7 .1-1.7 .5-2.8c.3-1.2 1-2.6 1.9-4.3l2.8 18.6c.5 2.9 1.1 4.9 1.8 5.9c.5 .7 1.1 1.1 2 1.1h14.6l-3.6-20.3l-2-1.2c0-1.2 .2-2.4 .6-3.6c.5-1.5 1.2-3.3 2.3-5.4Zm47.6-.3l5.5 3l-3.1 5.8l-4.4-2.2l-2.5 4.8l-5.4-3l3.3-6.1l4.2 2.4Zm-67.8-5.7l5.3 2.8l-3.3 5.5l-4.2-2.4l-2.4 4.7l-5.6-3l3.1-5.2l4.5 2.2Z" class="g1_4"/>
<image clip-path="url(#c1_4)" preserveAspectRatio="none" x="1344" y="457" width="108" height="72" href="img/2.jpg"/>
<image clip-path="url(#c2_4)" preserveAspectRatio="none" x="1347" y="550" width="102" height="71" href="img/3.jpg"/>
<image clip-path="url(#c3_4)" preserveAspectRatio="none" x="1347" y="642" width="102" height="74" href="img/4.jpg"/>
<image clip-path="url(#c4_4)" preserveAspectRatio="none" x="1353" y="745" width="96" height="80" href="img/5.jpg"/>
<image clip-path="url(#c5_4)" preserveAspectRatio="none" x="10" y="336" width="379" height="474" href="img/6.jpg"/>
</svg>