<svg viewBox="0 0 1466 825" version="1.1" xmlns="http://www.w3.org/2000/svg">
<defs>
<clipPath id="c0_34"><path d="M-.2 825.3V-.2H1467V825.3Z"/></clipPath>
<clipPath id="c1_34"><path d="M1343.9 529.1V456.4H1452v72.7Z"/></clipPath>
<clipPath id="c2_34"><path d="M1346.3 621.3V549.7h102.9v71.6Z"/></clipPath>
<clipPath id="c3_34"><path d="M1346.4 716.6V641.9h103v74.7Z"/></clipPath>
<clipPath id="c4_34"><path d="M1353 825V744.6h96.2V825Z"/></clipPath>
<style>
.g0_34{fill:#F00;}
.g1_34{fill:none;stroke:#000;stroke-width:1.466;stroke-linejoin:round;}
</style>
</defs>
<image clip-path="url(#c0_34)" preserveAspectRatio="none" x="0" y="-7" width="1467" height="840" href="img/1.jpg"/>
<path fill-rule="evenodd" d="M684 343.3l3.4 2.2l-2.6 3l-2.9-1.8l-2.1 2.2l-3.4-1.8l2.5-3.3l3 1.9Zm-180.4 0l3.4 2.2l-2.7 3l-2.8-1.8l-2.1 2.2l-3.4-1.8l2.5-3.3l3 1.9ZM323.3 331.9l6.2 3.4l-3.2 6L320 338Zm-136.2 0l6.2 3.4l-3.2 6l-6.3-3.3Zm186.6-.2L380 335l-3.2 6l-6.3-3.3Zm764-.3l5 2.8l-2.8 5.2l-3.9-2l-2.3 4.3l-4.9-2.7l3-5.5l3.8 2.2Zm-72.2 0l5 2.8l-2.8 5.2l-4-2l-2.2 4.3l-4.9-2.7l2.9-5.5l3.9 2.2Zm-54.4 0l4.9 2.8l-2.7 5.2l-4-2l-2.3 4.3l-4.9-2.7l3-5.5l3.8 2.2Zm-603.8 0l5 2.8l-2.8 5.2l-3.9-2l-2.3 4.3l-4.9-2.7l3-5.5l3.8 2.2ZM1122 317.8c-.5 0-1 .2-1.3 .7c-.3 .4-.5 .9-.5 1.4c0 .6 .3 1.2 1.1 1.6c.7 .4 1.6 .6 2.7 .6h1.1c-.5-2.9-1.5-4.3-3.1-4.3Zm-72.2 0c-.6 0-1 .2-1.3 .7c-.4 .4-.6 .9-.6 1.4c0 .6 .4 1.2 1.1 1.6c.7 .4 1.7 .6 2.8 .6h1c-.5-2.9-1.5-4.3-3-4.3Zm397.2-.2c-.7 0-1.3 .8-1.8 2.5c.9 .3 1.7 .6 2.1 .7c1.5 .6 2.3 .9 2.5 .9c.4 0 .6-.2 .6-.4c0-.4-.4-1.1-1.2-2.1c-.8-1-1.6-1.6-2.2-1.6Zm-567.6 0c-.7 0-1.3 .8-1.8 2.5c.9 .3 1.7 .6 2.1 .7c1.5 .6 2.3 .9 2.5 .9c.4 0 .6-.2 .6-.4c0-.4-.4-1.1-1.2-2.1c-.8-1-1.6-1.6-2.2-1.6Zm480.2-.8c-1.1 0-2.5 .4-4 1.1c-1.4 .8-3.6 2.2-6.4 4.2h7.1c5.8 0 8.8-.9 8.8-2.7c0-.8-.6-1.5-1.9-2c-1.1-.4-2.3-.6-3.6-.6ZM218 316.8c-.1 .8-.2 1.5-.4 1.9c-.1 .5-.5 1.2-1 2.3c2.3 1.3 4 1.9 5 1.9c.3 0 .5-.1 .5-.4c0-.6-.4-1.4-1.2-2.5c-.8-1.1-1.7-2.2-2.9-3.2Zm-4.9-2.2c-.8 0-1.4 .3-2 .9c-.5 .5-.7 1-.7 1.5c0 .7 .8 1.4 2.5 2.2c.4-.2 .7-.3 .9-.5c.5-.4 .9-.8 .9-1.2c0-.9-.2-1.6-.4-2.2c-.3-.5-.7-.7-1.2-.7Zm587.3-1.2c-.4 0-.7 .1-1 .3c-.2 .3-.4 .5-.4 .9c0 .7 .6 1.5 1.8 2.2c1.1 .7 2.5 1.2 4.1 1.5c-.6-1.6-1.4-2.8-2.1-3.6c-.8-.9-1.6-1.3-2.4-1.3Zm-527.8-1.5c1 0 1.9 .4 2.5 1.2c.6 .8 .9 1.9 .9 3.2c0 1-.1 1.8-.3 2.5c-.2 .6-.6 1.5-1.3 2.5c-.5-1.2-.9-2.1-1.2-2.5c-.3-.3-.8-.5-1.4-.5c-1 0-2.3 .5-4 1.6c-1.7 1.1-2.5 2-2.5 2.8c0 .4 .3 .7 1 .8c.5 .1 1.2 .2 2.2 .2c.3 0 .6 0 .8 0c.3 0 .5 0 .8 0c2 0 3.3 .2 3.9 .6c.6 .3 .8 1 .8 2c0 1.9-.3 3.7-1 5.5c-.9 2.2-2.2 3.8-3.9 4.8c-2.2 1.2-4.4 2.2-6.7 2.9c-2.3 .7-4.4 1.1-6.4 1.1c-5.6 0-8.4-2.5-8.4-7.5c0-2.5 .4-4.7 1-6.5c.7-2.1 2.1-4.8 4.4-8.3l1.2 .8c-1.3 2.2-2.3 4.2-2.9 6c-.7 1.7-1 3.2-1 4.5c0 3.4 1.9 5.1 5.7 5.1c1.4 0 2.8-.1 4.1-.4c1.3-.2 2.6-.6 3.9-1.1c.9-.3 1.8-.7 2.9-1.2c1.8-.7 2.8-1.2 2.9-1.2c.8-.4 1.2-.8 1.2-1.2c0-.1-.5-.3-1.3-.3c-.9 0-1.5-.1-1.9-.1c-2.7 0-4.6-.4-5.5-1.2c-.7-.6-1.1-1.8-1.1-3.5c0-.8 .2-1.9 .8-3.1c.5-1.3 1.2-2.5 2-3.8c1.4-1.9 2.7-3.3 4-4.2c1.3-1 2.5-1.5 3.8-1.5Zm499.9-.9c-.6 .3-1 .5-1.4 .7c-.9 .5-1.7 1-2.3 1.4c-.4 .4-.8 .7-1.1 1c-.3 .4-.5 .7-.5 .9c0 .3 .3 .4 .9 .6c.6 .1 1.3 .2 1.9 .2c.4 0 .8-.1 1.2-.3c.4-.3 1-.7 1.8-1.3Zm160.4-.6l1.5 .9c-.4 .8-.7 1.4-.9 2c-.3 .6-.5 1.1-.7 1.5c-.2 .9-.4 1.7-.4 2.5c0 1 .4 1.9 1 2.7c.7 .8 1.6 1.4 2.6 1.6c.6 .2 1.4 .3 2.4 .4c1 .1 2.1 .1 3.2 .1H961c-.5-1.4-.9-2.4-1.2-2.9c-.4-.7-1-1.5-1.8-2.6l2.4-6.2c1.3 1.9 2.2 3.6 2.6 5.2c.4 1.5 .6 3.5 .6 6.2v7.6H941c-1.1 0-2 0-2.7 0c-.7 0-1.2-.1-1.6-.1c-.7-.1-1.4-.2-2.3-.6c-1.5-.5-2.7-1.5-3.6-3c-.9-1.6-1.4-3.3-1.4-5.2c0-.7 0-1.5 .1-2.3c.1-.8 .3-1.6 .6-2.5c.4-1.1 .8-2 1.3-2.9c.5-.8 1-1.7 1.5-2.4Zm-465.1-.2c1.3 1.5 2.2 3.1 2.7 4.8c.5 1.7 .7 4.1 .7 7.4v7H456.3v.6c0 1.1-.7 2.6-1.9 4.4c-1.3 1.8-2.7 3.3-4.4 4.7c-1.9 1.4-3.5 2.2-4.8 2.2c-1.6 0-3.3-.5-5.1-1.4c-1.5-.7-4-2.3-7.3-4.6l1.1-1.7c1.6 1.1 2.9 1.8 3.9 2.2c1 .4 2 .6 3.2 .6c1.2 0 2.4-.4 3.7-1.1c1.2-.7 2.9-2 5-3.9c3-2.6 4.5-4.7 4.5-6.1c0-.7-.3-1.6-.9-2.8c-.6-1.3-1.4-2.4-2.3-3.3l1.5-7.3c1.2 1.3 2.1 2.7 2.8 4.4c.7 1.6 1 3.4 1 5.5v.3h12.3c-.2-1.2-.6-2.2-1.1-3.1c-.3-.4-.9-1.2-1.9-2.4Zm-146.2-.5c1.2 0 2.3 .3 3.4 .9c1.1 .6 2.4 1.5 3.7 2.8c1.1 1 2.6 2.5 4.6 4.7c1.3 1.5 2.4 2.4 3.1 2.9c.7 .4 1.7 .8 3.1 1.1v7.3H303.6v.6c0 1.1-.7 2.6-1.9 4.4c-1.3 1.8-2.7 3.3-4.4 4.7c-1.9 1.4-3.5 2.2-4.8 2.2c-1.6 0-3.3-.5-5.1-1.4c-1.6-.7-4-2.3-7.4-4.6l1.2-1.7c1.6 1.1 2.9 1.8 3.9 2.2c.9 .4 2 .6 3.1 .6c1.3 0 2.5-.4 3.8-1.1c1.2-.7 2.9-2 5-3.9c3-2.6 4.5-4.7 4.5-6.1c0-.7-.3-1.6-.9-2.8c-.6-1.3-1.4-2.4-2.4-3.3l1.5-7.3c1.3 1.3 2.2 2.7 2.9 4.4c.6 1.6 1 3.4 1 5.5v.3H328c-2.2-2.2-4.2-3.8-6.1-4.8c-1.6-.9-3.2-1.3-4.7-1.3c-.5 0-.9 0-1.3 0c-.4 .1-.9 .2-1.7 .3c1-2.2 2.1-3.9 3.3-5c1.2-1 2.6-1.6 4.1-1.6Zm1055.6-.6c-.5 0-1 .2-1.4 .7c-.4 .5-.7 1.1-.7 1.7c0 .4 .2 .8 .5 1c.4 .3 .8 .5 1.3 .5c.4 0 .8-.2 1.2-.4c.5-.2 1-.7 1.6-1.3c-.5-.8-.9-1.4-1.3-1.7c-.3-.3-.7-.5-1.2-.5Zm-843.5 0c-.5 0-1 .2-1.4 .7c-.5 .5-.7 1.1-.7 1.7c0 .4 .2 .8 .5 1c.3 .3 .8 .5 1.3 .5c.4 0 .8-.2 1.2-.4c.5-.2 1-.7 1.6-1.3c-.5-.8-.9-1.4-1.3-1.7c-.4-.3-.8-.5-1.2-.5Zm-279.1-1.9c.3 0 .6 .2 .8 .4c.2 .2 .3 .5 .3 .8c0 .3-.1 .6-.1 .8c-.1 .2-.3 .5-.5 .9c-.9-.4-1.5-.7-1.9-.7c-.3 0-.6 .1-.9 .3c-.2 .1-.4 .2-.6 .4c0 .3 .4 .6 1.3 1.1c.8 .5 1.5 .7 1.8 .7c.3 0 .9-.1 2-.4c-.2 .6-.4 1-.7 1.3c-.2 .2-.5 .3-.9 .5l-5.8 1.7c.4-.6 .7-1.1 .9-1.3c.3-.2 .8-.5 1.4-.7c-.5-.4-.8-.7-1.1-.9c-.2-.3-.3-.6-.3-.9c0-.2 .1-.5 .2-.8c.2-.2 .4-.5 .6-.8c1.2-1.6 2.3-2.4 3.5-2.4Zm975.7-3.2c2.3 1.8 3.9 4 4.9 6.7c.9 2.6 1.4 5.9 1.4 10.1v1.3h8.3c.6 0 .9 0 1.2 0c.5-.1 1.1-.1 1.6-.2c-.9-1.3-1.5-2.4-1.8-3.2c-.3-.9-.5-1.8-.5-2.8c0-2.7 1.1-5 3.3-7c2.2-2 4.8-3 7.8-3c2 0 3.9 .6 5.7 1.9c1.6 1.3 2.9 2.7 3.6 4.5l-1.1 .9c-1.4-.5-2.5-.9-3.4-1c-.8-.2-1.8-.3-3-.3c-2.3 0-4.2 .2-5.8 .6c-2.1 .4-3.1 1.1-3.1 1.9c0 1.2 2.5 3.3 7.5 6.1l13.6-3.9l-3 7.6c-4.8 1.5-8.8 2.7-12 3.5c-1.3 .3-2.6 .6-3.7 .9l-1.4 .2v.6h-26c-1.2 0-2.1-.2-2.7-.7c-.8-.6-1.2-1.6-1.2-3c0-.8 .1-1.6 .1-2.6c.1-.9 .2-1.8 .4-2.7l1-.1c.2 .6 .5 1.1 1 1.4c.5 .3 1.1 .4 1.8 .4h9.2c-.4-2.6-1.1-4.7-2.2-6.3c-.8-1.3-2-2.4-3.5-3.4Zm-18.9 0c2.3 1.8 4 4 4.9 6.7c.9 2.6 1.4 5.9 1.4 10.1v8.6h-12.2c-1.2 0-2.1-.2-2.7-.7c-.8-.6-1.2-1.6-1.2-3c0-.8 .1-1.6 .1-2.6c.1-.9 .3-1.8 .4-2.7l1-.1c.2 .6 .5 1.1 1 1.4c.5 .3 1.1 .4 1.8 .4h9.2c-.4-2.6-1.1-4.7-2.1-6.3c-.9-1.3-2-2.4-3.5-3.4Zm-223.3 0c2.3 1.8 4 4 4.9 6.7c.9 2.6 1.4 5.9 1.4 10.1v1.3h19.4c-.2-1.2-.6-2.2-1.1-3.1c-.2-.4-.9-1.2-1.9-2.4l2.2-6.4c1.3 1.5 2.3 3.1 2.7 4.8c.5 1.5 .7 3.5 .8 6.2v.9h12.2c-.2-1.2-.6-2.2-1.1-3.1c-.3-.4-.9-1.2-1.9-2.4l2.1-6.4c1.4 1.5 2.3 3.1 2.8 4.8c.5 1.7 .7 4.1 .7 7.4v7H982.2c-1.2 0-2.1-.2-2.7-.7c-.8-.6-1.2-1.6-1.2-3c0-.8 .1-1.6 .2-2.6c0-.9 .2-1.8 .3-2.7l1-.1c.2 .6 .5 1.1 1 1.4c.5 .3 1.1 .4 1.8 .4h9.2c-.4-2.6-1.1-4.7-2.1-6.3c-.9-1.3-2-2.4-3.6-3.4Zm-364.8 0c2.3 1.8 3.9 4 4.9 6.7c.9 2.6 1.3 5.9 1.3 10.1v1.3H649c-.2-1.2-.6-2.2-1.1-3.1c-.3-.4-.9-1.2-1.9-2.4l2.2-6.4c1.3 1.5 2.2 3.1 2.7 4.8c.5 1.7 .7 4.1 .7 7.4v7H617.4c-1.2 0-2.1-.2-2.7-.7c-.8-.6-1.2-1.6-1.2-3c0-.8 0-1.6 .1-2.6c.1-.9 .2-1.8 .4-2.7l1-.1c.1 .6 .5 1.1 1 1.4c.5 .3 1.1 .4 1.7 .4H627c-.4-2.6-1.1-4.7-2.2-6.3c-.8-1.3-2-2.4-3.5-3.4Zm-412-1.2c2.6 1.9 5.1 4.2 7.4 6.9c2 2.5 3.6 5 4.8 7.5c1.1 2.5 1.7 4.7 1.7 6.5c0 1.3-.2 2.7-.8 4.3c-.6 1.9-1.3 2.8-2.2 2.8c-.7 0-2-.3-3.7-1c-2-.9-4.1-1.9-6.3-3.3c-1.2 1.1-2.6 1.8-4.3 2.3c-1.3 .4-2.7 .6-4 .6H165.5v-7.3h26.3c-2.2-2.2-4.2-3.8-6.1-4.8c-1.6-.9-3.2-1.3-4.7-1.3c-.5 0-.9 0-1.3 0c-.4 .1-1 .2-1.7 .3c1-2.2 2.1-3.9 3.3-5c1.2-1 2.6-1.6 4.1-1.6c1.2 0 2.3 .3 3.4 .9c1.1 .6 2.3 1.5 3.7 2.8c1.1 1 2.6 2.5 4.6 4.7c1.3 1.5 2.3 2.4 3 2.9c.7 .4 1.8 .8 3.2 1.1h.6c.5 0 1.1-.1 1.7-.2c.6-.2 1.1-.4 1.4-.6v-1c0-2.2 .3-4 .9-5.7c.7-1.8 1.7-3.1 3-3.9l-1.2-1c.2-1.4 .4-2.6 .6-3.4c.2-.8 .5-2 1-3.5Zm1166.4-.5c1.9 0 3.7 1.6 5.3 4.9c1.7 3.3 2.5 6.7 2.5 10.4v11.8h-45.1c-1.3 0-2.3-.3-3-.9c-.8-.7-1.4-1.7-2-3.1c-.7 1-1.4 1.8-2.1 2.4l-.2 .1v1.5H1317c-.6 0-1.2 .1-1.6 .2c-.4 .1-.6 .2-.6 .4c0 .2 .5 .4 1.3 .7c.9 .4 1.4 .9 1.4 1.6c0 1-.2 2.2-.5 3.6c-.3 1.3-.7 2.6-1.2 3.7c-.4 .9-1.5 1.8-3.3 3c-1.9 1.1-4.1 2.1-6.6 2.9c-2.8 .9-5.5 1.4-8 1.4c-2.9 0-5.1-.7-6.6-2.1c-1.5-1.3-2.2-3.3-2.2-5.8c0-2.9 .3-5.3 1-7.4c.8-2.5 2.5-5.8 5.1-9.8l1.5 1.1c-1.7 2.9-2.9 5.1-3.5 6.8c-.6 1.8-.9 3.4-.9 5.1c0 1.6 .5 2.9 1.6 3.9c1 .9 2.5 1.4 4.3 1.4c2.3 0 4.8-.4 7.4-1.1c2.3-.6 4.4-1.3 6-2.2c1.7-.9 2.6-1.7 2.6-2.2c0-.2-.5-.3-1.5-.3c-1-.1-1.9-.1-2.7-.1c-1.9 0-3.1-.1-3.7-.2c-.5-.2-.8-.5-.8-1c0-1 .2-2 .5-3.1c.4-1 .8-1.9 1.3-2.4c1.1-1.5 2.5-2.7 4.1-3.7c1.8-1.1 3.5-1.7 4.9-1.7h12.1c2.1 0 3.6-.5 4.7-1.6c1.3-1.2 2.1-3.3 2.4-6.3l1.8 .3c0 .7 0 1.2-.1 1.6c0 1.2-.1 2.1-.1 2.8c0 1 .3 1.8 .8 2.4c.6 .5 1.3 .8 2.2 .8c.8 0 1.6-.2 2.4-.5c.7-.4 1.9-1.1 3.5-2.2l9.6-6.9c1.1-.8 2-1.4 2.6-1.8c1.3-.7 2.5-1.1 3.8-1.1c2 0 3.6 .7 4.7 2.1c1.5 1.6 2.1 4.1 2.1 7.4v3H1383c0-1.5 0-2.7-.1-3.3c-.2-1-.5-1.9-.9-2.7c-.6 1.1-1.4 2-2.3 2.6c-1 .6-2 .9-3.1 .9c-1.4 0-2.7-.5-3.6-1.5c-1-.9-1.5-2.1-1.5-3.5c0-2.1 .6-4.6 1.9-7.5c1.4-3.2 2.9-4.8 4.3-4.8Zm-843.5 0c1.9 0 3.6 1.6 5.3 4.9c1.7 3.3 2.5 6.7 2.5 10.4v11.8H515.4c-.8 0-1.4 0-1.8 .1c-.3 0-.5 .1-.5 .3c.5 .3 1 .5 1.5 .7c.4 .1 .7 .2 .9 .4c.1 .2 .2 .5 .2 .9c0 1.3-.4 2.8-1.1 4.6c-.7 1.7-1.4 2.8-2.1 3.3c-.7 .5-2.7 1.1-5.9 1.9c-3.3 .7-6.1 1.1-8.5 1.1c-3.3 0-6.1-.7-8.1-2.1c-2.1-1.4-3.2-3.3-3.2-5.5c0-2.2 .5-4.3 1.4-6.3c1.1-2.4 3.2-5.4 6.2-9.1l1.6 1.1c-1.9 2.3-3.2 4.2-3.9 5.6c-.8 1.4-1.1 2.9-1.1 4.2c0 2 .8 3.4 2.4 4.3c1.5 .9 4 1.4 7.3 1.4c1.7 0 4.1-.3 7.1-1c3.1-.6 4.6-1.1 4.6-1.6c0-.2-.6-.4-1.7-.6c-1.2-.2-2.5-.3-3.9-.3c-2 0-3-.4-3-1.3c0-.4 .2-1.2 .7-2.2c.3-.8 .7-1.5 1-2.2c.7-1.5 2-2.7 3.8-3.6c1.9-.9 3.9-1.4 5.9-1.4h24.3c0-1.5-.1-2.7-.1-3.3c-.2-1-.5-1.9-.9-2.7c-.6 1.1-1.4 2-2.3 2.6c-1 .6-2 .9-3.1 .9c-1.5 0-2.7-.5-3.7-1.5c-.9-.9-1.4-2.1-1.4-3.5c0-2.1 .6-4.6 1.9-7.5c1.4-3.2 2.8-4.8 4.3-4.8Zm414.9-1.1l5 2.7l-2.8 5.2l-4-1.9l-2.2 4.3l-4.9-2.7l2.9-5.5l3.8 2.1Zm-653.2-2l6.3 3.3l-3.2 6l-6.3-3.3Zm134.3-.9v6.4c-.1 0-.9 .3-2.3 .7c-1.7 .6-3.1 1.1-4.2 1.5c-1.5 .7-2.2 1.1-2.2 1.4c0 .2 .6 .9 1.9 2.1c1.7 1.7 3.2 3.2 4.3 4.6c2 2.3 3.6 4.6 4.8 6.9v7.5H367.9c-1.1 0-2 0-2.7 0c-.7 0-1.2-.1-1.6-.1c-.7-.1-1.4-.2-2.3-.6c-1.5-.5-2.7-1.5-3.6-3c-.9-1.6-1.4-3.3-1.4-5.2c0-.7 0-1.5 .1-2.3c.1-.8 .3-1.6 .6-2.5c.4-1.1 .8-2 1.3-2.9c.5-.8 1-1.7 1.5-2.4l1.5 .9c-.4 .8-.7 1.4-.9 2c-.3 .6-.5 1.1-.7 1.5c-.2 .9-.4 1.7-.4 2.5c0 1 .4 1.9 1 2.7c.7 .8 1.6 1.4 2.6 1.6c.6 .2 1.4 .3 2.4 .4c1 .1 2.1 .1 3.2 .1h19.4c-.5-1.4-.9-2.4-1.2-2.9c-.4-.7-1-1.5-1.8-2.6l2.4-6.2c1.3 1.9 2.2 3.6 2.6 5.2c.4 1.5 .6 3.5 .6 6.2v.3h19.6c-.2-1.2-.6-2.2-1.1-3.1c-.3-.4-.9-1.2-1.9-2.4l2.2-6.4c1.3 1.5 2.2 3.1 2.7 4.8c.5 1.5 .7 3.5 .8 6.2v.9h15.4c-.7-.8-1.3-1.6-2-2.2c-.5-.5-1.3-1.1-2.2-1.8c-1-.8-2-1.6-3-2.4l-.9 1c-1.6-1.6-2.5-2.5-2.8-2.9c-.9-1-1.4-2.2-1.4-3.5c0-1.8 .2-3.1 .4-3.8c.4-1.1 1.1-2 2.3-2.8c1-.7 2.1-1.4 3.3-1.9c1-.5 2.2-1.1 3.7-1.7c.7-.3 2.3-.9 4.6-1.8Zm595.7-.3l5 2.7l-2.8 5.2l-4-2l-2.2 4.4l-4.9-2.8l2.9-5.4l3.9 2.1Zm-195.1 0l5 2.7l-2.8 5.2l-3.9-2l-2.3 4.4l-4.9-2.8l3-5.4l3.8 2.1Zm-115.5 0l5 2.7l-2.8 5.2l-3.9-2l-2.3 4.4l-4.9-2.8l3-5.4l3.8 2.1Zm-69.1 0l5 2.7l-2.8 5.2l-4-2l-2.2 4.4l-4.9-2.8l3-5.4l3.8 2.1Zm-180.4 0l5 2.7l-2.8 5.2l-4-2l-2.2 4.4l-4.9-2.8l3-5.4l3.8 2.1Zm382.1-.5l6.3 3.3l-3.2 6l-6.3-3.2Zm-254.3 0l6.3 3.3l-3.2 6l-6.3-3.2Zm558.3-.7l6.3 3.4l-3.2 6l-6.3-3.3Zm264.3 0c1 1.5 1.7 2.9 2.2 4.3c.4 1.6 .7 3.7 .7 6.2v5.3c0 3.7 .2 6.3 .7 7.8c.4 1.1 1 1.7 1.9 1.7H1436c1.6 0 2.9-.2 3.8-.6c1.3-.5 2.1-1.3 2.6-2.6c1-2.3 2.3-4.1 3.9-5.6c1.4-1.3 2.6-2 3.6-2c.9 0 2 1.4 3.4 4.2c1.4 2.9 2.1 5.6 2.1 8v5.9c-1.9 0-4.1-.4-6.6-1.1c-2.3-.7-4.2-1.4-6-2.3c-.9 1.4-2 2.3-3.2 2.9l-.3 .1v.4h-17.6c-2.1 0-3.6-.8-4.5-2.6c-1.1-1.9-1.6-5-1.6-9.5v-7.7c0-1.7-.2-3.1-.7-4.1c-.2-.4-.8-1.1-1.6-2Zm-23.9 0l1.6 9.5c.6 3.6 1 6.8 1.2 9.4c.2 2.1 .3 4 .3 5.9c0 1.6-.2 3.1-.6 4.4c-.4 1.3-1.1 3.1-2.2 5.3l-1.6-.7c.5-2.3 .7-4.1 .7-5.5c0-1.1-.1-2.8-.3-4.9c-.2-2.1-.4-4.2-.7-6.2c-.2-2.1-.7-4.6-1.3-7.4c-.2-1-.3-1.7-.3-2.1c0-.5 .3-1.5 .8-2.8c.6-1.4 1.4-3 2.4-4.9Zm-421.9 0l1.6 9.5c.6 3.6 1 6.8 1.3 9.4c.2 2.1 .2 4 .2 5.9c0 1.6-.2 3.1-.5 4.4c-.4 1.3-1.1 3.1-2.2 5.3l-1.6-.7c.4-2.3 .6-4.1 .6-5.5c0-1.1-.1-2.8-.2-4.9c-.2-2.1-.4-4.2-.7-6.2c-.3-2.1-.7-4.6-1.3-7.4c-.2-1-.3-1.7-.3-2.1c0-.5 .2-1.5 .8-2.8c.5-1.4 1.3-3 2.3-4.9Zm-62.9 0l1.7 9.5c.5 3.6 1 6.8 1.2 9.4c.2 2.1 .2 4 .2 5.9c0 1.6-.1 3.1-.5 4.4c-.4 1.3-1.1 3.1-2.2 5.3l-1.6-.7c.4-2.3 .7-4.1 .7-5.5c0-1.1-.1-2.8-.3-4.9c-.2-2.1-.4-4.2-.7-6.2c-.3-2.1-.7-4.6-1.3-7.4c-.2-1-.3-1.7-.3-2.1c0-.5 .2-1.5 .8-2.8c.6-1.4 1.3-3 2.3-4.9Zm-167.2 0l1.7 9.5c.5 3.6 1 6.8 1.2 9.4c.2 2.1 .2 4 .2 5.9c0 1.6-.1 3.1-.5 4.4c-.4 1.3-1.1 3.1-2.2 5.3l-1.6-.7c.4-2.3 .7-4.1 .7-5.5c0-1.1-.1-2.8-.3-4.9c-.2-2.1-.4-4.2-.7-6.2c-.3-2.1-.7-4.6-1.3-7.4c-.2-1-.3-1.7-.3-2.1c0-.5 .2-1.5 .8-2.8c.6-1.4 1.3-3 2.3-4.9Zm-163.8-2l1.2 .5c-.1 .3-.1 .6-.1 .9c0 .7 .4 1.3 1.1 1.7c1.1 .7 2.1 1.2 3.1 1.8c-.2 1.5-.4 2.6-.6 3.3c-.2 .7-.6 1.7-1.3 3l-.8-.4c0 .3 .3 1.8 .8 4.6c.5 2.8 1 5.2 1.3 7.2c.4 2.2 .6 3.8 .7 4.7h17.2c-2.2-2.2-4.2-3.8-6-4.8c-1.6-.9-3.2-1.3-4.8-1.3c-.4 0-.9 0-1.3 0c-.3 .1-.9 .2-1.6 .3c.9-2.2 2-3.9 3.3-5c1.2-1 2.5-1.6 4.1-1.6c1.2 0 2.3 .3 3.4 .9c1.1 .6 2.3 1.5 3.7 2.8c1 1 2.6 2.5 4.5 4.7c1.4 1.5 2.4 2.4 3.1 2.9c.7 .4 1.8 .8 3.2 1.1v7.3H581.9l-.2 1.4c-.5 1.9-1.9 3.7-4 5.3c-2.9 2.1-6.2 3.2-9.8 3.2c-3.1 0-5.5-.8-7.2-2.3c-1.7-1.6-2.6-3.8-2.6-6.5c0-2.6 .3-4.9 1-6.8c.7-2.2 2.1-4.9 4.3-8.1l1.6 1.2c-1.4 2.1-2.4 3.9-3 5.4c-.6 1.6-.8 3.1-.8 4.6c0 1.6 .5 2.9 1.8 3.8c1.2 .9 2.9 1.3 5.1 1.3c3.1 0 5.7-.6 7.7-1.8c1.9-1.2 2.9-2.8 2.9-4.8c0-.3 0-.6 0-.8c0-.2 0-.3 0-.4c0-.7 0-1.5-.2-2.4c-.1-.8-.4-2.5-.9-5.2c-.7-4.2-1.5-8.5-2.3-12.7l-1.3-1c0-1.8 .8-4.4 2.5-8Zm588.7-.1l1.2 .6c0 .2 0 .4-.1 .9c0 .6 .4 1.2 1.2 1.7c.6 .5 1.7 1.1 3.1 1.7c-.1 1.1-.4 2.2-.7 3.3c-.3 1.1-.6 2.1-1 3l-1-.4l2.9 16.6h9.6l-3.2-18.2l-1.7-1.1c0-1.1 .1-2.2 .4-3.2c.5-1.4 1.2-3 2.1-4.9l1.3 .6c0 .2-.1 .4-.1 .9c0 .6 .4 1.2 1.1 1.7c.7 .5 1.7 1.1 3.2 1.7c-.2 1.1-.4 2.2-.7 3.3c-.4 1.1-.7 2.1-1.1 3l-1-.4l3 16.6v7.3h-55.8l-.6 2.8c-.6 1.5-1.6 3-2.9 4.5c-2.6 3-5.2 4.5-7.8 4.5c-1.4 0-3.1-.5-4.8-1.4c-1.8-1-4.5-2.8-8.1-5.6l1.1-1.6c1.9 1.3 3.5 2.2 4.7 2.6c1 .4 2.2 .5 3.5 .5c1.7 0 3.4-.4 5.2-1.4c2-1.2 4-3 6.2-5.6c-.8 .2-1.4 .2-1.9 .2c-1.8 0-3.2-.6-4.2-1.7c-1.1-1.2-1.6-2.7-1.6-4.7c0-2.7 .6-5.3 1.8-7.8c1.4-2.7 2.9-4.1 4.6-4.1c1.5 0 2.7 1 3.7 3c1 1.9 1.5 4.3 1.5 7v1.5h12.2c-.2-1.2-.6-2.2-1.1-3.1c-.3-.4-.9-1.2-1.9-2.4l2.2-6.4c1.3 1.5 2.2 3.1 2.7 4.8c.5 1.5 .7 3.5 .8 6.2v.9h12.1c-.2-1.2-.5-2.2-1-3.1c-.3-.4-.9-1.2-1.9-2.4l2.1-6.4c1.4 1.5 2.3 3.1 2.8 4.8c.4 1.5 .6 3.5 .7 6.2v.9h9.6l-3.2-18.2l-1.8-1.1c0-1.1 .2-2.2 .5-3.2c.4-1.4 1.1-3 2.1-4.9Zm-87.1 0l1.3 .6c0 .2-.1 .4-.1 .9c0 .6 .3 1.2 1.1 1.7c.6 .5 1.7 1.1 3.1 1.7c-.1 1.1-.4 2.2-.7 3.3c-.3 1.1-.6 2.1-1 3l-1-.4l2.9 16.6h15.5c-.7-.8-1.3-1.6-2-2.2c-.5-.5-1.3-1.1-2.2-1.8c-1-.8-2-1.6-3-2.4l-.9 1c-1.6-1.6-2.5-2.5-2.8-2.9c-.9-1-1.4-2.2-1.4-3.5c0-1.8 .2-3.1 .4-3.8c.4-1.1 1.1-2 2.3-2.8c1-.7 2.1-1.4 3.3-1.9c1-.5 2.2-1.1 3.7-1.7c.7-.3 2.3-.9 4.6-1.8v6.4c-.1 0-.9 .3-2.3 .7c-1.7 .6-3.1 1.1-4.2 1.5c-1.5 .7-2.2 1.1-2.2 1.4c0 .2 .6 .9 1.9 2.1c1.7 1.7 3.2 3.2 4.3 4.6c2 2.3 3.6 4.6 4.8 6.9v7.5h-47.8l-.6 2.8c-.7 1.5-1.7 3-3 4.5c-2.6 3-5.1 4.5-7.7 4.5c-1.5 0-3.1-.5-4.9-1.4c-1.7-1-4.4-2.8-8.1-5.6l1.1-1.6c2 1.3 3.6 2.2 4.8 2.6c1 .4 2.2 .5 3.5 .5c1.7 0 3.4-.4 5.1-1.4c2-1.2 4.1-3 6.2-5.6c-.7 .2-1.3 .2-1.8 .2c-1.8 0-3.2-.6-4.3-1.7c-1-1.2-1.5-2.7-1.5-4.7c0-2.7 .6-5.3 1.8-7.8c1.4-2.7 2.9-4.1 4.6-4.1c1.4 0 2.7 1 3.7 3c1 1.9 1.5 4.3 1.5 7v1.5h12.2c-.2-1.2-.6-2.2-1.1-3.1c-.3-.4-.9-1.2-1.9-2.4l2.1-6.4c1.4 1.5 2.3 3.1 2.8 4.8c.4 1.5 .7 3.5 .7 6.2v.9h9.6l-3.2-18.2l-1.7-1.1c0-1.1 .1-2.2 .4-3.2c.4-1.4 1.1-3 2.1-4.9Zm-262.3 0l1.2 .6c0 .2 0 .4-.1 .9c0 .6 .4 1.2 1.1 1.7c.7 .5 1.8 1.1 3.2 1.7c-.2 1.1-.4 2.2-.7 3.3c-.3 1.1-.7 2.1-1.1 3l-.9-.4l2.9 16.6h12.2c-.2-1.2-.6-2.2-1.1-3.1c-.3-.4-.9-1.2-1.9-2.4l2.2-6.4c1.3 1.5 2.2 3.1 2.7 4.8c.5 1.5 .7 3.5 .8 6.2v.9h17.1c-2.2-2.2-4.2-3.8-6-4.8c-1.7-.9-3.2-1.3-4.8-1.3c-.5 0-.9 0-1.3 0c-.4 .1-.9 .2-1.6 .3c.9-2.2 2-3.9 3.2-5c1.2-1 2.6-1.6 4.2-1.6c1.1 0 2.3 .3 3.4 .9c1.1 .6 2.3 1.5 3.7 2.8c1 1 2.5 2.5 4.5 4.7c1.4 1.5 2.4 2.4 3.1 2.9c.7 .4 1.8 .8 3.2 1.1h3.4c1.6 0 2.9-.2 3.8-.6c1.3-.5 2.1-1.3 2.6-2.6c1-2.3 2.3-4.1 3.9-5.6c1.4-1.3 2.6-2 3.6-2c.9 0 2 1.4 3.4 4.2c1 2.2 1.7 4.2 2 6.2v.4h9.9l-3.3-18.2l-1.7-1.1c0-1.1 .1-2.2 .5-3.2c.4-1.4 1.1-3 2.1-4.9l1.2 .6c0 .2 0 .4-.1 .9c0 .6 .4 1.2 1.1 1.7c.7 .5 1.7 1.1 3.2 1.7c-.2 1.1-.4 2.2-.7 3.3c-.3 1.1-.7 2.1-1.1 3l-1-.4l3 16.6v7.3H886v-.1l-.5-.1c-1.3-.1-2.8-.5-4.3-.9c-2.3-.7-4.2-1.4-6-2.3c-1 1.6-2.3 2.6-3.8 3.1c-.7 .2-1.7 .3-3 .3H780c-.7 0-1.3-.1-1.8-.4c-1.1-.5-1.9-1.4-2.6-2.8c-1-1.9-1.6-4.5-1.9-7.8c-1.2 1.5-2.2 2.6-2.9 3.2c-1 .9-1.8 1.4-2.4 1.4c-.4 0-.8-.1-1.3-.2l-3.3-.7c-1.4-.2-2.3-.4-2.6-.6c-.3-.1-.5-.3-.5-.7c0-.4 .7-2 1.9-4.5c1.2-2.6 2.1-4.2 2.7-4.8c.4-.5 1.2-1.1 2.4-1.9c.7-.4 1.6-1 2.9-1.8l1.4-.8c0-.3-.1-.5-.1-.8c0-.2-.1-.5-.1-.7c0-.7 .2-1.5 .5-2.6c.3-1 .9-2.3 1.7-3.8l2.6 16.8c.4 2.6 .9 4.4 1.6 5.3c.4 .6 1 .9 1.8 .9h17.4v.3l1.8 .2c1.1 .1 2.3 .2 3.6 .4c-2.7-.6-4.6-1.4-5.7-2.4c-1-1-1.6-2.4-1.6-4.3c0-2.7 .7-5.2 2-7.5c1.3-2.2 2.7-3.3 4.3-3.3c1.8 0 3.4 1.6 4.7 4.7c1.4 3.1 2 6.9 2 11.3v.6h9.7l-3.3-18.2l-1.7-1.1c0-1.1 .2-2.2 .5-3.2c.4-1.4 1.1-3 2.1-4.9Zm-87.8 0l1.2 .6c0 .2 0 .4-.1 .9c0 .6 .4 1.2 1.1 1.7c.7 .5 1.7 1.1 3.2 1.7c-.2 1.1-.4 2.2-.7 3.3c-.3 1.1-.7 2.1-1.1 3l-1-.4l3 16.6v7.3H695.8c-.8 0-1.4 0-1.8 .1c-.3 0-.5 .1-.5 .3c.5 .3 1 .5 1.5 .7c.4 .1 .7 .2 .9 .4c.1 .2 .2 .5 .2 .9c0 1.3-.4 2.8-1.1 4.6c-.7 1.7-1.4 2.8-2.1 3.3c-.7 .5-2.7 1.1-5.9 1.9c-3.3 .7-6.1 1.1-8.5 1.1c-3.3 0-6.1-.7-8.1-2.1c-2.1-1.4-3.2-3.3-3.2-5.5c0-2.2 .5-4.3 1.4-6.3c1.1-2.4 3.2-5.4 6.2-9.1l1.6 1.1c-1.9 2.3-3.2 4.2-3.9 5.6c-.8 1.4-1.1 2.9-1.1 4.2c0 2 .8 3.4 2.4 4.3c1.5 .9 4 1.4 7.3 1.4c1.7 0 4.1-.3 7.1-1c3.1-.6 4.6-1.1 4.6-1.6c0-.2-.6-.4-1.7-.6c-1.2-.2-2.5-.3-3.9-.3c-2 0-3-.4-3-1.3c0-.4 .2-1.2 .7-2.2c.3-.8 .7-1.5 1-2.2c.7-1.5 2-2.7 3.8-3.6c1.9-.9 3.9-1.4 5.9-1.4h22.5c-.2-1.2-.6-2.2-1.1-3.1c-.3-.4-.9-1.2-1.9-2.4l2.2-6.4c1.3 1.5 2.2 3.1 2.7 4.8c.5 1.5 .7 3.5 .8 6.2v.9h9.6l-3.3-18.2l-1.7-1.1c0-1.1 .1-2.2 .5-3.2c.4-1.4 1.1-3 2.1-4.9Zm71.7-.3l6.2 3.4l-3.2 6l-6.3-3.3Zm578.3-3.5l5 2.7l-2.8 5.2l-4-2l-2.2 4.4l-4.9-2.7l2.9-5.5l3.9 2.1Zm-846.2-.3l6.3 3.3l-3.2 6l-6.3-3.3Zm240.7-1.3l4.8 2.5l-3 5l-3.8-2.2l-2.1 4.3l-5-2.8l2.8-4.7l3.9 2Z" class="g0_34"/>
<path d="M684 343.3l3.4 2.2l-2.6 3l-2.9-1.8l-2.1 2.2l-3.4-1.8l2.5-3.3l3 1.9Zm-180.4 0l3.4 2.2l-2.7 3l-2.8-1.8l-2.1 2.2l-3.4-1.8l2.5-3.3l3 1.9ZM323.3 331.9l6.2 3.4l-3.2 6L320 338Zm-136.2 0l6.2 3.4l-3.2 6l-6.3-3.3Zm186.6-.2L380 335l-3.2 6l-6.3-3.3Zm764-.3l5 2.8l-2.8 5.2l-3.9-2l-2.3 4.3l-4.9-2.7l3-5.5l3.8 2.2Zm-72.2 0l5 2.8l-2.8 5.2l-4-2l-2.2 4.3l-4.9-2.7l2.9-5.5l3.9 2.2Zm-54.4 0l4.9 2.8l-2.7 5.2l-4-2l-2.3 4.3l-4.9-2.7l3-5.5l3.8 2.2Zm-603.8 0l5 2.8l-2.8 5.2l-3.9-2l-2.3 4.3l-4.9-2.7l3-5.5l3.8 2.2ZM1122 317.8c-.5 0-1 .2-1.3 .7c-.3 .4-.5 .9-.5 1.4c0 .6 .3 1.2 1.1 1.6c.7 .4 1.6 .6 2.7 .6h1.1c-.5-2.9-1.5-4.3-3.1-4.3Zm-72.2 0c-.6 0-1 .2-1.3 .7c-.4 .4-.6 .9-.6 1.4c0 .6 .4 1.2 1.1 1.6c.7 .4 1.7 .6 2.8 .6h1c-.5-2.9-1.5-4.3-3-4.3Zm397.2-.2c-.7 0-1.3 .8-1.8 2.5c.9 .3 1.7 .6 2.1 .7c1.5 .6 2.3 .9 2.5 .9c.4 0 .6-.2 .6-.4c0-.4-.4-1.1-1.2-2.1c-.8-1-1.6-1.6-2.2-1.6Zm-567.6 0c-.7 0-1.3 .8-1.8 2.5c.9 .3 1.7 .6 2.1 .7c1.5 .6 2.3 .9 2.5 .9c.4 0 .6-.2 .6-.4c0-.4-.4-1.1-1.2-2.1c-.8-1-1.6-1.6-2.2-1.6Zm480.2-.8c-1.1 0-2.5 .4-4 1.1c-1.4 .8-3.6 2.2-6.4 4.2h7.1c5.8 0 8.8-.9 8.8-2.7c0-.8-.6-1.5-1.9-2c-1.1-.4-2.3-.6-3.6-.6ZM218 316.8c-.1 .8-.2 1.5-.4 1.9c-.1 .5-.5 1.2-1 2.3c2.3 1.3 4 1.9 5 1.9c.3 0 .5-.1 .5-.4c0-.6-.4-1.4-1.2-2.5c-.8-1.1-1.7-2.2-2.9-3.2Zm-4.9-2.2c-.8 0-1.4 .3-2 .9c-.5 .5-.7 1-.7 1.5c0 .7 .8 1.4 2.5 2.2c.4-.2 .7-.3 .9-.5c.5-.4 .9-.8 .9-1.2c0-.9-.2-1.6-.4-2.2c-.3-.5-.7-.7-1.2-.7Zm587.3-1.2c-.4 0-.7 .1-1 .3c-.2 .3-.4 .5-.4 .9c0 .7 .6 1.5 1.8 2.2c1.1 .7 2.5 1.2 4.1 1.5c-.6-1.6-1.4-2.8-2.1-3.6c-.8-.9-1.6-1.3-2.4-1.3Zm-527.8-1.5c1 0 1.9 .4 2.5 1.2c.6 .8 .9 1.9 .9 3.2c0 1-.1 1.8-.3 2.5c-.2 .6-.6 1.5-1.3 2.5c-.5-1.2-.9-2.1-1.2-2.5c-.3-.3-.8-.5-1.4-.5c-1 0-2.3 .5-4 1.6c-1.7 1.1-2.5 2-2.5 2.8c0 .4 .3 .7 1 .8c.5 .1 1.2 .2 2.2 .2c.3 0 .6 0 .8 0c.3 0 .5 0 .8 0c2 0 3.3 .2 3.9 .6c.6 .3 .8 1 .8 2c0 1.9-.3 3.7-1 5.5c-.9 2.2-2.2 3.8-3.9 4.8c-2.2 1.2-4.4 2.2-6.7 2.9c-2.3 .7-4.4 1.1-6.4 1.1c-5.6 0-8.4-2.5-8.4-7.5c0-2.5 .4-4.7 1-6.5c.7-2.1 2.1-4.8 4.4-8.3l1.2 .8c-1.3 2.2-2.3 4.2-2.9 6c-.7 1.7-1 3.2-1 4.5c0 3.4 1.9 5.1 5.7 5.1c1.4 0 2.8-.1 4.1-.4c1.3-.2 2.6-.6 3.9-1.1c.9-.3 1.8-.7 2.9-1.2c1.8-.7 2.8-1.2 2.9-1.2c.8-.4 1.2-.8 1.2-1.2c0-.1-.5-.3-1.3-.3c-.9 0-1.5-.1-1.9-.1c-2.7 0-4.6-.4-5.5-1.2c-.7-.6-1.1-1.8-1.1-3.5c0-.8 .2-1.9 .8-3.1c.5-1.3 1.2-2.5 2-3.8c1.4-1.9 2.7-3.3 4-4.2c1.3-1 2.5-1.5 3.8-1.5Zm499.9-.9c-.6 .3-1 .5-1.4 .7c-.9 .5-1.7 1-2.3 1.4c-.4 .4-.8 .7-1.1 1c-.3 .4-.5 .7-.5 .9c0 .3 .3 .4 .9 .6c.6 .1 1.3 .2 1.9 .2c.4 0 .8-.1 1.2-.3c.4-.3 1-.7 1.8-1.3Zm160.4-.6l1.5 .9c-.4 .8-.7 1.4-.9 2c-.3 .6-.5 1.1-.7 1.5c-.2 .9-.4 1.7-.4 2.5c0 1 .4 1.9 1 2.7c.7 .8 1.6 1.4 2.6 1.6c.6 .2 1.4 .3 2.4 .4c1 .1 2.1 .1 3.2 .1H961c-.5-1.4-.9-2.4-1.2-2.9c-.4-.7-1-1.5-1.8-2.6l2.4-6.2c1.3 1.9 2.2 3.6 2.6 5.2c.4 1.5 .6 3.5 .6 6.2v7.6H941c-1.1 0-2 0-2.7 0c-.7 0-1.2-.1-1.6-.1c-.7-.1-1.4-.2-2.3-.6c-1.5-.5-2.7-1.5-3.6-3c-.9-1.6-1.4-3.3-1.4-5.2c0-.7 0-1.5 .1-2.3c.1-.8 .3-1.6 .6-2.5c.4-1.1 .8-2 1.3-2.9c.5-.8 1-1.7 1.5-2.4Zm-465.1-.2c1.3 1.5 2.2 3.1 2.7 4.8c.5 1.7 .7 4.1 .7 7.4v7H456.3v.6c0 1.1-.7 2.6-1.9 4.4c-1.3 1.8-2.7 3.3-4.4 4.7c-1.9 1.4-3.5 2.2-4.8 2.2c-1.6 0-3.3-.5-5.1-1.4c-1.5-.7-4-2.3-7.3-4.6l1.1-1.7c1.6 1.1 2.9 1.8 3.9 2.2c1 .4 2 .6 3.2 .6c1.2 0 2.4-.4 3.7-1.1c1.2-.7 2.9-2 5-3.9c3-2.6 4.5-4.7 4.5-6.1c0-.7-.3-1.6-.9-2.8c-.6-1.3-1.4-2.4-2.3-3.3l1.5-7.3c1.2 1.3 2.1 2.7 2.8 4.4c.7 1.6 1 3.4 1 5.5v.3h12.3c-.2-1.2-.6-2.2-1.1-3.1c-.3-.4-.9-1.2-1.9-2.4Zm-146.2-.5c1.2 0 2.3 .3 3.4 .9c1.1 .6 2.4 1.5 3.7 2.8c1.1 1 2.6 2.5 4.6 4.7c1.3 1.5 2.4 2.4 3.1 2.9c.7 .4 1.7 .8 3.1 1.1v7.3H303.6v.6c0 1.1-.7 2.6-1.9 4.4c-1.3 1.8-2.7 3.3-4.4 4.7c-1.9 1.4-3.5 2.2-4.8 2.2c-1.6 0-3.3-.5-5.1-1.4c-1.6-.7-4-2.3-7.4-4.6l1.2-1.7c1.6 1.1 2.9 1.8 3.9 2.2c.9 .4 2 .6 3.1 .6c1.3 0 2.5-.4 3.8-1.1c1.2-.7 2.9-2 5-3.9c3-2.6 4.5-4.7 4.5-6.1c0-.7-.3-1.6-.9-2.8c-.6-1.3-1.4-2.4-2.4-3.3l1.5-7.3c1.3 1.3 2.2 2.7 2.9 4.4c.6 1.6 1 3.4 1 5.5v.3H328c-2.2-2.2-4.2-3.8-6.1-4.8c-1.6-.9-3.2-1.3-4.7-1.3c-.5 0-.9 0-1.3 0c-.4 .1-.9 .2-1.7 .3c1-2.2 2.1-3.9 3.3-5c1.2-1 2.6-1.6 4.1-1.6Zm1055.6-.6c-.5 0-1 .2-1.4 .7c-.4 .5-.7 1.1-.7 1.7c0 .4 .2 .8 .5 1c.4 .3 .8 .5 1.3 .5c.4 0 .8-.2 1.2-.4c.5-.2 1-.7 1.6-1.3c-.5-.8-.9-1.4-1.3-1.7c-.3-.3-.7-.5-1.2-.5Zm-843.5 0c-.5 0-1 .2-1.4 .7c-.5 .5-.7 1.1-.7 1.7c0 .4 .2 .8 .5 1c.3 .3 .8 .5 1.3 .5c.4 0 .8-.2 1.2-.4c.5-.2 1-.7 1.6-1.3c-.5-.8-.9-1.4-1.3-1.7c-.4-.3-.8-.5-1.2-.5Zm-279.1-1.9c.3 0 .6 .2 .8 .4c.2 .2 .3 .5 .3 .8c0 .3-.1 .6-.1 .8c-.1 .2-.3 .5-.5 .9c-.9-.4-1.5-.7-1.9-.7c-.3 0-.6 .1-.9 .3c-.2 .1-.4 .2-.6 .4c0 .3 .4 .6 1.3 1.1c.8 .5 1.5 .7 1.8 .7c.3 0 .9-.1 2-.4c-.2 .6-.4 1-.7 1.3c-.2 .2-.5 .3-.9 .5l-5.8 1.7c.4-.6 .7-1.1 .9-1.3c.3-.2 .8-.5 1.4-.7c-.5-.4-.8-.7-1.1-.9c-.2-.3-.3-.6-.3-.9c0-.2 .1-.5 .2-.8c.2-.2 .4-.5 .6-.8c1.2-1.6 2.3-2.4 3.5-2.4Zm975.7-3.2c2.3 1.8 3.9 4 4.9 6.7c.9 2.6 1.4 5.9 1.4 10.1v1.3h8.3c.6 0 .9 0 1.2 0c.5-.1 1.1-.1 1.6-.2c-.9-1.3-1.5-2.4-1.8-3.2c-.3-.9-.5-1.8-.5-2.8c0-2.7 1.1-5 3.3-7c2.2-2 4.8-3 7.8-3c2 0 3.9 .6 5.7 1.9c1.6 1.3 2.9 2.7 3.6 4.5l-1.1 .9c-1.4-.5-2.5-.9-3.4-1c-.8-.2-1.8-.3-3-.3c-2.3 0-4.2 .2-5.8 .6c-2.1 .4-3.1 1.1-3.1 1.9c0 1.2 2.5 3.3 7.5 6.1l13.6-3.9l-3 7.6c-4.8 1.5-8.8 2.7-12 3.5c-1.3 .3-2.6 .6-3.7 .9l-1.4 .2v.6h-26c-1.2 0-2.1-.2-2.7-.7c-.8-.6-1.2-1.6-1.2-3c0-.8 .1-1.6 .1-2.6c.1-.9 .2-1.8 .4-2.7l1-.1c.2 .6 .5 1.1 1 1.4c.5 .3 1.1 .4 1.8 .4h9.2c-.4-2.6-1.1-4.7-2.2-6.3c-.8-1.3-2-2.4-3.5-3.4Zm-18.9 0c2.3 1.8 4 4 4.9 6.7c.9 2.6 1.4 5.9 1.4 10.1v8.6h-12.2c-1.2 0-2.1-.2-2.7-.7c-.8-.6-1.2-1.6-1.2-3c0-.8 .1-1.6 .1-2.6c.1-.9 .3-1.8 .4-2.7l1-.1c.2 .6 .5 1.1 1 1.4c.5 .3 1.1 .4 1.8 .4h9.2c-.4-2.6-1.1-4.7-2.1-6.3c-.9-1.3-2-2.4-3.5-3.4Zm-223.3 0c2.3 1.8 4 4 4.9 6.7c.9 2.6 1.4 5.9 1.4 10.1v1.3h19.4c-.2-1.2-.6-2.2-1.1-3.1c-.2-.4-.9-1.2-1.9-2.4l2.2-6.4c1.3 1.5 2.3 3.1 2.7 4.8c.5 1.5 .7 3.5 .8 6.2v.9h12.2c-.2-1.2-.6-2.2-1.1-3.1c-.3-.4-.9-1.2-1.9-2.4l2.1-6.4c1.4 1.5 2.3 3.1 2.8 4.8c.5 1.7 .7 4.1 .7 7.4v7H982.2c-1.2 0-2.1-.2-2.7-.7c-.8-.6-1.2-1.6-1.2-3c0-.8 .1-1.6 .2-2.6c0-.9 .2-1.8 .3-2.7l1-.1c.2 .6 .5 1.1 1 1.4c.5 .3 1.1 .4 1.8 .4h9.2c-.4-2.6-1.1-4.7-2.1-6.3c-.9-1.3-2-2.4-3.6-3.4Zm-364.8 0c2.3 1.8 3.9 4 4.9 6.7c.9 2.6 1.3 5.9 1.3 10.1v1.3H649c-.2-1.2-.6-2.2-1.1-3.1c-.3-.4-.9-1.2-1.9-2.4l2.2-6.4c1.3 1.5 2.2 3.1 2.7 4.8c.5 1.7 .7 4.1 .7 7.4v7H617.4c-1.2 0-2.1-.2-2.7-.7c-.8-.6-1.2-1.6-1.2-3c0-.8 0-1.6 .1-2.6c.1-.9 .2-1.8 .4-2.7l1-.1c.1 .6 .5 1.1 1 1.4c.5 .3 1.1 .4 1.7 .4H627c-.4-2.6-1.1-4.7-2.2-6.3c-.8-1.3-2-2.4-3.5-3.4Zm-412-1.2c2.6 1.9 5.1 4.2 7.4 6.9c2 2.5 3.6 5 4.8 7.5c1.1 2.5 1.7 4.7 1.7 6.5c0 1.3-.2 2.7-.8 4.3c-.6 1.9-1.3 2.8-2.2 2.8c-.7 0-2-.3-3.7-1c-2-.9-4.1-1.9-6.3-3.3c-1.2 1.1-2.6 1.8-4.3 2.3c-1.3 .4-2.7 .6-4 .6H165.5v-7.3h26.3c-2.2-2.2-4.2-3.8-6.1-4.8c-1.6-.9-3.2-1.3-4.7-1.3c-.5 0-.9 0-1.3 0c-.4 .1-1 .2-1.7 .3c1-2.2 2.1-3.9 3.3-5c1.2-1 2.6-1.6 4.1-1.6c1.2 0 2.3 .3 3.4 .9c1.1 .6 2.3 1.5 3.7 2.8c1.1 1 2.6 2.5 4.6 4.7c1.3 1.5 2.3 2.4 3 2.9c.7 .4 1.8 .8 3.2 1.1h.6c.5 0 1.1-.1 1.7-.2c.6-.2 1.1-.4 1.4-.6v-1c0-2.2 .3-4 .9-5.7c.7-1.8 1.7-3.1 3-3.9l-1.2-1c.2-1.4 .4-2.6 .6-3.4c.2-.8 .5-2 1-3.5Zm1166.4-.5c1.9 0 3.7 1.6 5.3 4.9c1.7 3.3 2.5 6.7 2.5 10.4v11.8h-45.1c-1.3 0-2.3-.3-3-.9c-.8-.7-1.4-1.7-2-3.1c-.7 1-1.4 1.8-2.1 2.4l-.2 .1v1.5H1317c-.6 0-1.2 .1-1.6 .2c-.4 .1-.6 .2-.6 .4c0 .2 .5 .4 1.3 .7c.9 .4 1.4 .9 1.4 1.6c0 1-.2 2.2-.5 3.6c-.3 1.3-.7 2.6-1.2 3.7c-.4 .9-1.5 1.8-3.3 3c-1.9 1.1-4.1 2.1-6.6 2.9c-2.8 .9-5.5 1.4-8 1.4c-2.9 0-5.1-.7-6.6-2.1c-1.5-1.3-2.2-3.3-2.2-5.8c0-2.9 .3-5.3 1-7.4c.8-2.5 2.5-5.8 5.1-9.8l1.5 1.1c-1.7 2.9-2.9 5.1-3.5 6.8c-.6 1.8-.9 3.4-.9 5.1c0 1.6 .5 2.9 1.6 3.9c1 .9 2.5 1.4 4.3 1.4c2.3 0 4.8-.4 7.4-1.1c2.3-.6 4.4-1.3 6-2.2c1.7-.9 2.6-1.7 2.6-2.2c0-.2-.5-.3-1.5-.3c-1-.1-1.9-.1-2.7-.1c-1.9 0-3.1-.1-3.7-.2c-.5-.2-.8-.5-.8-1c0-1 .2-2 .5-3.1c.4-1 .8-1.9 1.3-2.4c1.1-1.5 2.5-2.7 4.1-3.7c1.8-1.1 3.5-1.7 4.9-1.7h12.1c2.1 0 3.6-.5 4.7-1.6c1.3-1.2 2.1-3.3 2.4-6.3l1.8 .3c0 .7 0 1.2-.1 1.6c0 1.2-.1 2.1-.1 2.8c0 1 .3 1.8 .8 2.4c.6 .5 1.3 .8 2.2 .8c.8 0 1.6-.2 2.4-.5c.7-.4 1.9-1.1 3.5-2.2l9.6-6.9c1.1-.8 2-1.4 2.6-1.8c1.3-.7 2.5-1.1 3.8-1.1c2 0 3.6 .7 4.7 2.1c1.5 1.6 2.1 4.1 2.1 7.4v3H1383c0-1.5 0-2.7-.1-3.3c-.2-1-.5-1.9-.9-2.7c-.6 1.1-1.4 2-2.3 2.6c-1 .6-2 .9-3.1 .9c-1.4 0-2.7-.5-3.6-1.5c-1-.9-1.5-2.1-1.5-3.5c0-2.1 .6-4.6 1.9-7.5c1.4-3.2 2.9-4.8 4.3-4.8Zm-843.5 0c1.9 0 3.6 1.6 5.3 4.9c1.7 3.3 2.5 6.7 2.5 10.4v11.8H515.4c-.8 0-1.4 0-1.8 .1c-.3 0-.5 .1-.5 .3c.5 .3 1 .5 1.5 .7c.4 .1 .7 .2 .9 .4c.1 .2 .2 .5 .2 .9c0 1.3-.4 2.8-1.1 4.6c-.7 1.7-1.4 2.8-2.1 3.3c-.7 .5-2.7 1.1-5.9 1.9c-3.3 .7-6.1 1.1-8.5 1.1c-3.3 0-6.1-.7-8.1-2.1c-2.1-1.4-3.2-3.3-3.2-5.5c0-2.2 .5-4.3 1.4-6.3c1.1-2.4 3.2-5.4 6.2-9.1l1.6 1.1c-1.9 2.3-3.2 4.2-3.9 5.6c-.8 1.4-1.1 2.9-1.1 4.2c0 2 .8 3.4 2.4 4.3c1.5 .9 4 1.4 7.3 1.4c1.7 0 4.1-.3 7.1-1c3.1-.6 4.6-1.1 4.6-1.6c0-.2-.6-.4-1.7-.6c-1.2-.2-2.5-.3-3.9-.3c-2 0-3-.4-3-1.3c0-.4 .2-1.2 .7-2.2c.3-.8 .7-1.5 1-2.2c.7-1.5 2-2.7 3.8-3.6c1.9-.9 3.9-1.4 5.9-1.4h24.3c0-1.5-.1-2.7-.1-3.3c-.2-1-.5-1.9-.9-2.7c-.6 1.1-1.4 2-2.3 2.6c-1 .6-2 .9-3.1 .9c-1.5 0-2.7-.5-3.7-1.5c-.9-.9-1.4-2.1-1.4-3.5c0-2.1 .6-4.6 1.9-7.5c1.4-3.2 2.8-4.8 4.3-4.8Zm414.9-1.1l5 2.7l-2.8 5.2l-4-1.9l-2.2 4.3l-4.9-2.7l2.9-5.5l3.8 2.1Zm-653.2-2l6.3 3.3l-3.2 6l-6.3-3.3Zm134.3-.9v6.4c-.1 0-.9 .3-2.3 .7c-1.7 .6-3.1 1.1-4.2 1.5c-1.5 .7-2.2 1.1-2.2 1.4c0 .2 .6 .9 1.9 2.1c1.7 1.7 3.2 3.2 4.3 4.6c2 2.3 3.6 4.6 4.8 6.9v7.5H367.9c-1.1 0-2 0-2.7 0c-.7 0-1.2-.1-1.6-.1c-.7-.1-1.4-.2-2.3-.6c-1.5-.5-2.7-1.5-3.6-3c-.9-1.6-1.4-3.3-1.4-5.2c0-.7 0-1.5 .1-2.3c.1-.8 .3-1.6 .6-2.5c.4-1.1 .8-2 1.3-2.9c.5-.8 1-1.7 1.5-2.4l1.5 .9c-.4 .8-.7 1.4-.9 2c-.3 .6-.5 1.1-.7 1.5c-.2 .9-.4 1.7-.4 2.5c0 1 .4 1.9 1 2.7c.7 .8 1.6 1.4 2.6 1.6c.6 .2 1.4 .3 2.4 .4c1 .1 2.1 .1 3.2 .1h19.4c-.5-1.4-.9-2.4-1.2-2.9c-.4-.7-1-1.5-1.8-2.6l2.4-6.2c1.3 1.9 2.2 3.6 2.6 5.2c.4 1.5 .6 3.5 .6 6.2v.3h19.6c-.2-1.2-.6-2.2-1.1-3.1c-.3-.4-.9-1.2-1.9-2.4l2.2-6.4c1.3 1.5 2.2 3.1 2.7 4.8c.5 1.5 .7 3.5 .8 6.2v.9h15.4c-.7-.8-1.3-1.6-2-2.2c-.5-.5-1.3-1.1-2.2-1.8c-1-.8-2-1.6-3-2.4l-.9 1c-1.6-1.6-2.5-2.5-2.8-2.9c-.9-1-1.4-2.2-1.4-3.5c0-1.8 .2-3.1 .4-3.8c.4-1.1 1.1-2 2.3-2.8c1-.7 2.1-1.4 3.3-1.9c1-.5 2.2-1.1 3.7-1.7c.7-.3 2.3-.9 4.6-1.8Zm595.7-.3l5 2.7l-2.8 5.2l-4-2l-2.2 4.4l-4.9-2.8l2.9-5.4l3.9 2.1Zm-195.1 0l5 2.7l-2.8 5.2l-3.9-2l-2.3 4.4l-4.9-2.8l3-5.4l3.8 2.1Zm-115.5 0l5 2.7l-2.8 5.2l-3.9-2l-2.3 4.4l-4.9-2.8l3-5.4l3.8 2.1Zm-69.1 0l5 2.7l-2.8 5.2l-4-2l-2.2 4.4l-4.9-2.8l3-5.4l3.8 2.1Zm-180.4 0l5 2.7l-2.8 5.2l-4-2l-2.2 4.4l-4.9-2.8l3-5.4l3.8 2.1Zm382.1-.5l6.3 3.3l-3.2 6l-6.3-3.2Zm-254.3 0l6.3 3.3l-3.2 6l-6.3-3.2Zm558.3-.7l6.3 3.4l-3.2 6l-6.3-3.3Zm264.3 0c1 1.5 1.7 2.9 2.2 4.3c.4 1.6 .7 3.7 .7 6.2v5.3c0 3.7 .2 6.3 .7 7.8c.4 1.1 1 1.7 1.9 1.7H1436c1.6 0 2.9-.2 3.8-.6c1.3-.5 2.1-1.3 2.6-2.6c1-2.3 2.3-4.1 3.9-5.6c1.4-1.3 2.6-2 3.6-2c.9 0 2 1.4 3.4 4.2c1.4 2.9 2.1 5.6 2.1 8v5.9c-1.9 0-4.1-.4-6.6-1.1c-2.3-.7-4.2-1.4-6-2.3c-.9 1.4-2 2.3-3.2 2.9l-.3 .1v.4h-17.6c-2.1 0-3.6-.8-4.5-2.6c-1.1-1.9-1.6-5-1.6-9.5v-7.7c0-1.7-.2-3.1-.7-4.1c-.2-.4-.8-1.1-1.6-2Zm-23.9 0l1.6 9.5c.6 3.6 1 6.8 1.2 9.4c.2 2.1 .3 4 .3 5.9c0 1.6-.2 3.1-.6 4.4c-.4 1.3-1.1 3.1-2.2 5.3l-1.6-.7c.5-2.3 .7-4.1 .7-5.5c0-1.1-.1-2.8-.3-4.9c-.2-2.1-.4-4.2-.7-6.2c-.2-2.1-.7-4.6-1.3-7.4c-.2-1-.3-1.7-.3-2.1c0-.5 .3-1.5 .8-2.8c.6-1.4 1.4-3 2.4-4.9Zm-421.9 0l1.6 9.5c.6 3.6 1 6.8 1.3 9.4c.2 2.1 .2 4 .2 5.9c0 1.6-.2 3.1-.5 4.4c-.4 1.3-1.1 3.1-2.2 5.3l-1.6-.7c.4-2.3 .6-4.1 .6-5.5c0-1.1-.1-2.8-.2-4.9c-.2-2.1-.4-4.2-.7-6.2c-.3-2.1-.7-4.6-1.3-7.4c-.2-1-.3-1.7-.3-2.1c0-.5 .2-1.5 .8-2.8c.5-1.4 1.3-3 2.3-4.9Zm-62.9 0l1.7 9.5c.5 3.6 1 6.8 1.2 9.4c.2 2.1 .2 4 .2 5.9c0 1.6-.1 3.1-.5 4.4c-.4 1.3-1.1 3.1-2.2 5.3l-1.6-.7c.4-2.3 .7-4.1 .7-5.5c0-1.1-.1-2.8-.3-4.9c-.2-2.1-.4-4.2-.7-6.2c-.3-2.1-.7-4.6-1.3-7.4c-.2-1-.3-1.7-.3-2.1c0-.5 .2-1.5 .8-2.8c.6-1.4 1.3-3 2.3-4.9Zm-167.2 0l1.7 9.5c.5 3.6 1 6.8 1.2 9.4c.2 2.1 .2 4 .2 5.9c0 1.6-.1 3.1-.5 4.4c-.4 1.3-1.1 3.1-2.2 5.3l-1.6-.7c.4-2.3 .7-4.1 .7-5.5c0-1.1-.1-2.8-.3-4.9c-.2-2.1-.4-4.2-.7-6.2c-.3-2.1-.7-4.6-1.3-7.4c-.2-1-.3-1.7-.3-2.1c0-.5 .2-1.5 .8-2.8c.6-1.4 1.3-3 2.3-4.9Zm-163.8-2l1.2 .5c-.1 .3-.1 .6-.1 .9c0 .7 .4 1.3 1.1 1.7c1.1 .7 2.1 1.2 3.1 1.8c-.2 1.5-.4 2.6-.6 3.3c-.2 .7-.6 1.7-1.3 3l-.8-.4c0 .3 .3 1.8 .8 4.6c.5 2.8 1 5.2 1.3 7.2c.4 2.2 .6 3.8 .7 4.7h17.2c-2.2-2.2-4.2-3.8-6-4.8c-1.6-.9-3.2-1.3-4.8-1.3c-.4 0-.9 0-1.3 0c-.3 .1-.9 .2-1.6 .3c.9-2.2 2-3.9 3.3-5c1.2-1 2.5-1.6 4.1-1.6c1.2 0 2.3 .3 3.4 .9c1.1 .6 2.3 1.5 3.7 2.8c1 1 2.6 2.5 4.5 4.7c1.4 1.5 2.4 2.4 3.1 2.9c.7 .4 1.8 .8 3.2 1.1v7.3H581.9l-.2 1.4c-.5 1.9-1.9 3.7-4 5.3c-2.9 2.1-6.2 3.2-9.8 3.2c-3.1 0-5.5-.8-7.2-2.3c-1.7-1.6-2.6-3.8-2.6-6.5c0-2.6 .3-4.9 1-6.8c.7-2.2 2.1-4.9 4.3-8.1l1.6 1.2c-1.4 2.1-2.4 3.9-3 5.4c-.6 1.6-.8 3.1-.8 4.6c0 1.6 .5 2.9 1.8 3.8c1.2 .9 2.9 1.3 5.1 1.3c3.1 0 5.7-.6 7.7-1.8c1.9-1.2 2.9-2.8 2.9-4.8c0-.3 0-.6 0-.8c0-.2 0-.3 0-.4c0-.7 0-1.5-.2-2.4c-.1-.8-.4-2.5-.9-5.2c-.7-4.2-1.5-8.5-2.3-12.7l-1.3-1c0-1.8 .8-4.4 2.5-8Zm588.7-.1l1.2 .6c0 .2 0 .4-.1 .9c0 .6 .4 1.2 1.2 1.7c.6 .5 1.7 1.1 3.1 1.7c-.1 1.1-.4 2.2-.7 3.3c-.3 1.1-.6 2.1-1 3l-1-.4l2.9 16.6h9.6l-3.2-18.2l-1.7-1.1c0-1.1 .1-2.2 .4-3.2c.5-1.4 1.2-3 2.1-4.9l1.3 .6c0 .2-.1 .4-.1 .9c0 .6 .4 1.2 1.1 1.7c.7 .5 1.7 1.1 3.2 1.7c-.2 1.1-.4 2.2-.7 3.3c-.4 1.1-.7 2.1-1.1 3l-1-.4l3 16.6v7.3h-55.8l-.6 2.8c-.6 1.5-1.6 3-2.9 4.5c-2.6 3-5.2 4.5-7.8 4.5c-1.4 0-3.1-.5-4.8-1.4c-1.8-1-4.5-2.8-8.1-5.6l1.1-1.6c1.9 1.3 3.5 2.2 4.7 2.6c1 .4 2.2 .5 3.5 .5c1.7 0 3.4-.4 5.2-1.4c2-1.2 4-3 6.2-5.6c-.8 .2-1.4 .2-1.9 .2c-1.8 0-3.2-.6-4.2-1.7c-1.1-1.2-1.6-2.7-1.6-4.7c0-2.7 .6-5.3 1.8-7.8c1.4-2.7 2.9-4.1 4.6-4.1c1.5 0 2.7 1 3.7 3c1 1.9 1.5 4.3 1.5 7v1.5h12.2c-.2-1.2-.6-2.2-1.1-3.1c-.3-.4-.9-1.2-1.9-2.4l2.2-6.4c1.3 1.5 2.2 3.1 2.7 4.8c.5 1.5 .7 3.5 .8 6.2v.9h12.1c-.2-1.2-.5-2.2-1-3.1c-.3-.4-.9-1.2-1.9-2.4l2.1-6.4c1.4 1.5 2.3 3.1 2.8 4.8c.4 1.5 .6 3.5 .7 6.2v.9h9.6l-3.2-18.2l-1.8-1.1c0-1.1 .2-2.2 .5-3.2c.4-1.4 1.1-3 2.1-4.9Zm-87.1 0l1.3 .6c0 .2-.1 .4-.1 .9c0 .6 .3 1.2 1.1 1.7c.6 .5 1.7 1.1 3.1 1.7c-.1 1.1-.4 2.2-.7 3.3c-.3 1.1-.6 2.1-1 3l-1-.4l2.9 16.6h15.5c-.7-.8-1.3-1.6-2-2.2c-.5-.5-1.3-1.1-2.2-1.8c-1-.8-2-1.6-3-2.4l-.9 1c-1.6-1.6-2.5-2.5-2.8-2.9c-.9-1-1.4-2.2-1.4-3.5c0-1.8 .2-3.1 .4-3.8c.4-1.1 1.1-2 2.3-2.8c1-.7 2.1-1.4 3.3-1.9c1-.5 2.2-1.1 3.7-1.7c.7-.3 2.3-.9 4.6-1.8v6.4c-.1 0-.9 .3-2.3 .7c-1.7 .6-3.1 1.1-4.2 1.5c-1.5 .7-2.2 1.1-2.2 1.4c0 .2 .6 .9 1.9 2.1c1.7 1.7 3.2 3.2 4.3 4.6c2 2.3 3.6 4.6 4.8 6.9v7.5h-47.8l-.6 2.8c-.7 1.5-1.7 3-3 4.5c-2.6 3-5.1 4.5-7.7 4.5c-1.5 0-3.1-.5-4.9-1.4c-1.7-1-4.4-2.8-8.1-5.6l1.1-1.6c2 1.3 3.6 2.2 4.8 2.6c1 .4 2.2 .5 3.5 .5c1.7 0 3.4-.4 5.1-1.4c2-1.2 4.1-3 6.2-5.6c-.7 .2-1.3 .2-1.8 .2c-1.8 0-3.2-.6-4.3-1.7c-1-1.2-1.5-2.7-1.5-4.7c0-2.7 .6-5.3 1.8-7.8c1.4-2.7 2.9-4.1 4.6-4.1c1.4 0 2.7 1 3.7 3c1 1.9 1.5 4.3 1.5 7v1.5h12.2c-.2-1.2-.6-2.2-1.1-3.1c-.3-.4-.9-1.2-1.9-2.4l2.1-6.4c1.4 1.5 2.3 3.1 2.8 4.8c.4 1.5 .7 3.5 .7 6.2v.9h9.6l-3.2-18.2l-1.7-1.1c0-1.1 .1-2.2 .4-3.2c.4-1.4 1.1-3 2.1-4.9Zm-262.3 0l1.2 .6c0 .2 0 .4-.1 .9c0 .6 .4 1.2 1.1 1.7c.7 .5 1.8 1.1 3.2 1.7c-.2 1.1-.4 2.2-.7 3.3c-.3 1.1-.7 2.1-1.1 3l-.9-.4l2.9 16.6h12.2c-.2-1.2-.6-2.2-1.1-3.1c-.3-.4-.9-1.2-1.9-2.4l2.2-6.4c1.3 1.5 2.2 3.1 2.7 4.8c.5 1.5 .7 3.5 .8 6.2v.9h17.1c-2.2-2.2-4.2-3.8-6-4.8c-1.7-.9-3.2-1.3-4.8-1.3c-.5 0-.9 0-1.3 0c-.4 .1-.9 .2-1.6 .3c.9-2.2 2-3.9 3.2-5c1.2-1 2.6-1.6 4.2-1.6c1.1 0 2.3 .3 3.4 .9c1.1 .6 2.3 1.5 3.7 2.8c1 1 2.5 2.5 4.5 4.7c1.4 1.5 2.4 2.4 3.1 2.9c.7 .4 1.8 .8 3.2 1.1h3.4c1.6 0 2.9-.2 3.8-.6c1.3-.5 2.1-1.3 2.6-2.6c1-2.3 2.3-4.1 3.9-5.6c1.4-1.3 2.6-2 3.6-2c.9 0 2 1.4 3.4 4.2c1 2.2 1.7 4.2 2 6.2v.4h9.9l-3.3-18.2l-1.7-1.1c0-1.1 .1-2.2 .5-3.2c.4-1.4 1.1-3 2.1-4.9l1.2 .6c0 .2 0 .4-.1 .9c0 .6 .4 1.2 1.1 1.7c.7 .5 1.7 1.1 3.2 1.7c-.2 1.1-.4 2.2-.7 3.3c-.3 1.1-.7 2.1-1.1 3l-1-.4l3 16.6v7.3H886v-.1l-.5-.1c-1.3-.1-2.8-.5-4.3-.9c-2.3-.7-4.2-1.4-6-2.3c-1 1.6-2.3 2.6-3.8 3.1c-.7 .2-1.7 .3-3 .3H780c-.7 0-1.3-.1-1.8-.4c-1.1-.5-1.9-1.4-2.6-2.8c-1-1.9-1.6-4.5-1.9-7.8c-1.2 1.5-2.2 2.6-2.9 3.2c-1 .9-1.8 1.4-2.4 1.4c-.4 0-.8-.1-1.3-.2l-3.3-.7c-1.4-.2-2.3-.4-2.6-.6c-.3-.1-.5-.3-.5-.7c0-.4 .7-2 1.9-4.5c1.2-2.6 2.1-4.2 2.7-4.8c.4-.5 1.2-1.1 2.4-1.9c.7-.4 1.6-1 2.9-1.8l1.4-.8c0-.3-.1-.5-.1-.8c0-.2-.1-.5-.1-.7c0-.7 .2-1.5 .5-2.6c.3-1 .9-2.3 1.7-3.8l2.6 16.8c.4 2.6 .9 4.4 1.6 5.3c.4 .6 1 .9 1.8 .9h17.4v.3l1.8 .2c1.1 .1 2.3 .2 3.6 .4c-2.7-.6-4.6-1.4-5.7-2.4c-1-1-1.6-2.4-1.6-4.3c0-2.7 .7-5.2 2-7.5c1.3-2.2 2.7-3.3 4.3-3.3c1.8 0 3.4 1.6 4.7 4.7c1.4 3.1 2 6.9 2 11.3v.6h9.7l-3.3-18.2l-1.7-1.1c0-1.1 .2-2.2 .5-3.2c.4-1.4 1.1-3 2.1-4.9Zm-87.8 0l1.2 .6c0 .2 0 .4-.1 .9c0 .6 .4 1.2 1.1 1.7c.7 .5 1.7 1.1 3.2 1.7c-.2 1.1-.4 2.2-.7 3.3c-.3 1.1-.7 2.1-1.1 3l-1-.4l3 16.6v7.3H695.8c-.8 0-1.4 0-1.8 .1c-.3 0-.5 .1-.5 .3c.5 .3 1 .5 1.5 .7c.4 .1 .7 .2 .9 .4c.1 .2 .2 .5 .2 .9c0 1.3-.4 2.8-1.1 4.6c-.7 1.7-1.4 2.8-2.1 3.3c-.7 .5-2.7 1.1-5.9 1.9c-3.3 .7-6.1 1.1-8.5 1.1c-3.3 0-6.1-.7-8.1-2.1c-2.1-1.4-3.2-3.3-3.2-5.5c0-2.2 .5-4.3 1.4-6.3c1.1-2.4 3.2-5.4 6.2-9.1l1.6 1.1c-1.9 2.3-3.2 4.2-3.9 5.6c-.8 1.4-1.1 2.9-1.1 4.2c0 2 .8 3.4 2.4 4.3c1.5 .9 4 1.4 7.3 1.4c1.7 0 4.1-.3 7.1-1c3.1-.6 4.6-1.1 4.6-1.6c0-.2-.6-.4-1.7-.6c-1.2-.2-2.5-.3-3.9-.3c-2 0-3-.4-3-1.3c0-.4 .2-1.2 .7-2.2c.3-.8 .7-1.5 1-2.2c.7-1.5 2-2.7 3.8-3.6c1.9-.9 3.9-1.4 5.9-1.4h22.5c-.2-1.2-.6-2.2-1.1-3.1c-.3-.4-.9-1.2-1.9-2.4l2.2-6.4c1.3 1.5 2.2 3.1 2.7 4.8c.5 1.5 .7 3.5 .8 6.2v.9h9.6l-3.3-18.2l-1.7-1.1c0-1.1 .1-2.2 .5-3.2c.4-1.4 1.1-3 2.1-4.9Zm71.7-.3l6.2 3.4l-3.2 6l-6.3-3.3Zm578.3-3.5l5 2.7l-2.8 5.2l-4-2l-2.2 4.4l-4.9-2.7l2.9-5.5l3.9 2.1Zm-846.2-.3l6.3 3.3l-3.2 6l-6.3-3.3Zm240.7-1.3l4.8 2.5l-3 5l-3.8-2.2l-2.1 4.3l-5-2.8l2.8-4.7l3.9 2Z" class="g1_34"/>
<path fill-rule="evenodd" d="M162 331.4l5 2.8l-2.8 5.2l-3.9-2l-2.3 4.3l-4.9-2.7l3-5.5l3.8 2.2ZM99.1 317.6c-.7 0-1.3 .8-1.8 2.5c1 .3 1.7 .6 2.2 .7c1.4 .6 2.2 .9 2.4 .9c.4 0 .6-.2 .6-.4c0-.4-.4-1.1-1.1-2.1c-.9-1-1.7-1.6-2.3-1.6Zm2.9-6.3c.9 0 2.1 1.4 3.4 4.2c1.4 2.9 2.1 5.6 2.1 8v5.9c-1.9 0-4.1-.4-6.6-1.1c-2.2-.7-4.2-1.4-5.9-2.3c-.9 1.4-2 2.3-3.3 2.9l-.5 .2v.3H77.4v.5c-.1 1.6-.3 3-.7 4.1c-.5 1.5-1.3 2.8-2.4 3.7c-1.1 .9-2.7 1.6-4.8 2.2c-2.1 .6-4.3 .9-6.6 .9c-4.3 0-7.7-.8-10-2.4c-2.4-1.6-3.6-3.8-3.6-6.8c0-2.4 .4-4.7 1.2-6.8c.8-2.2 2.4-5.2 4.8-8.8l1.6 1.1c-1.8 3-2.9 5.2-3.5 6.6c-.5 1.3-.8 2.7-.8 4.2c0 1.9 1 3.4 3 4.6c2 1.2 4.7 1.8 8 1.8c3.2 0 5.9-.6 8.1-1.9c2.2-1.2 3.3-2.7 3.3-4.5c0-1.1-.2-2.2-.6-3.3c-.4-1.1-1.2-2.8-2.5-5.2l2.4-7.3c1.3 2.3 2 3.8 2.3 4.7c.5 1.4 .8 3 .8 5.1v.2H88.1c1.6 0 2.9-.2 3.9-.6c1.2-.5 2-1.3 2.5-2.6c1-2.3 2.3-4.1 3.9-5.6c1.4-1.3 2.6-2 3.6-2Zm62-1.1c1.3 1.5 2.2 3.1 2.7 4.8c.5 1.7 .8 4.1 .8 7.4v7H152.6l-.1 .5c0 1.6-.3 3-.6 4.1c-.5 1.5-1.3 2.8-2.4 3.7c-1.1 .9-2.7 1.6-4.8 2.2c-2.2 .6-4.4 .9-6.6 .9c-4.4 0-7.7-.8-10.1-2.4c-2.3-1.6-3.5-3.8-3.5-6.8c0-2.4 .4-4.7 1.1-6.8c.8-2.2 2.5-5.2 4.9-8.8l1.6 1.1c-1.8 3-3 5.2-3.5 6.6c-.6 1.3-.8 2.7-.8 4.2c0 1.9 1 3.4 3 4.6c2 1.2 4.7 1.8 7.9 1.8c3.3 0 6-.6 8.2-1.9c2.2-1.2 3.3-2.7 3.3-4.5c0-1.1-.2-2.2-.6-3.3c-.4-1.1-1.2-2.8-2.5-5.2l2.4-7.3c1.2 2.3 2 3.8 2.3 4.7c.5 1.4 .7 3 .8 5.1v.2h12.2c-.2-1.2-.6-2.2-1.1-3.1c-.3-.4-.9-1.2-1.9-2.4Zm-26.5-6.6l6.3 3.4l-3.3 6l-6.3-3.3Zm-75.2 0l6.3 3.4l-3.2 6l-6.3-3.3Z" class="g0_34"/>
<path d="M162 331.4l5 2.8l-2.8 5.2l-3.9-2l-2.3 4.3l-4.9-2.7l3-5.5l3.8 2.2ZM99.1 317.6c-.7 0-1.3 .8-1.8 2.5c1 .3 1.7 .6 2.2 .7c1.4 .6 2.2 .9 2.4 .9c.4 0 .6-.2 .6-.4c0-.4-.4-1.1-1.1-2.1c-.9-1-1.7-1.6-2.3-1.6Zm2.9-6.3c.9 0 2.1 1.4 3.4 4.2c1.4 2.9 2.1 5.6 2.1 8v5.9c-1.9 0-4.1-.4-6.6-1.1c-2.2-.7-4.2-1.4-5.9-2.3c-.9 1.4-2 2.3-3.3 2.9l-.5 .2v.3H77.4v.5c-.1 1.6-.3 3-.7 4.1c-.5 1.5-1.3 2.8-2.4 3.7c-1.1 .9-2.7 1.6-4.8 2.2c-2.1 .6-4.3 .9-6.6 .9c-4.3 0-7.7-.8-10-2.4c-2.4-1.6-3.6-3.8-3.6-6.8c0-2.4 .4-4.7 1.2-6.8c.8-2.2 2.4-5.2 4.8-8.8l1.6 1.1c-1.8 3-2.9 5.2-3.5 6.6c-.5 1.3-.8 2.7-.8 4.2c0 1.9 1 3.4 3 4.6c2 1.2 4.7 1.8 8 1.8c3.2 0 5.9-.6 8.1-1.9c2.2-1.2 3.3-2.7 3.3-4.5c0-1.1-.2-2.2-.6-3.3c-.4-1.1-1.2-2.8-2.5-5.2l2.4-7.3c1.3 2.3 2 3.8 2.3 4.7c.5 1.4 .8 3 .8 5.1v.2H88.1c1.6 0 2.9-.2 3.9-.6c1.2-.5 2-1.3 2.5-2.6c1-2.3 2.3-4.1 3.9-5.6c1.4-1.3 2.6-2 3.6-2Zm62-1.1c1.3 1.5 2.2 3.1 2.7 4.8c.5 1.7 .8 4.1 .8 7.4v7H152.6l-.1 .5c0 1.6-.3 3-.6 4.1c-.5 1.5-1.3 2.8-2.4 3.7c-1.1 .9-2.7 1.6-4.8 2.2c-2.2 .6-4.4 .9-6.6 .9c-4.4 0-7.7-.8-10.1-2.4c-2.3-1.6-3.5-3.8-3.5-6.8c0-2.4 .4-4.7 1.1-6.8c.8-2.2 2.5-5.2 4.9-8.8l1.6 1.1c-1.8 3-3 5.2-3.5 6.6c-.6 1.3-.8 2.7-.8 4.2c0 1.9 1 3.4 3 4.6c2 1.2 4.7 1.8 7.9 1.8c3.3 0 6-.6 8.2-1.9c2.2-1.2 3.3-2.7 3.3-4.5c0-1.1-.2-2.2-.6-3.3c-.4-1.1-1.2-2.8-2.5-5.2l2.4-7.3c1.2 2.3 2 3.8 2.3 4.7c.5 1.4 .7 3 .8 5.1v.2h12.2c-.2-1.2-.6-2.2-1.1-3.1c-.3-.4-.9-1.2-1.9-2.4Zm-26.5-6.6l6.3 3.4l-3.3 6l-6.3-3.3Zm-75.2 0l6.3 3.4l-3.2 6l-6.3-3.3Z" class="g1_34"/>
<path fill-rule="evenodd" d="M973.5 407.7l3.4 2.1l-2.7 3l-2.8-1.8l-2.1 2.3l-3.4-1.9l2.5-3.2l3 1.9Zm-411.8 0l3.4 2.1l-2.6 3l-2.9-1.8l-2.1 2.3l-3.4-1.9l2.6-3.2l2.9 1.9ZM850.8 396l6.2 3.4l-3.2 6l-6.3-3.3Zm505.3-.2l5 2.7l-2.8 5.2l-4-2l-2.2 4.4l-4.9-2.8l2.9-5.5l3.8 2.2Zm-124.5 0l5 2.7l-2.8 5.2l-4-2l-2.2 4.4l-4.9-2.8l2.9-5.5l3.9 2.2Zm-14.8 0l4.9 2.7l-2.7 5.2l-4-2l-2.3 4.4l-4.9-2.8l3-5.5l3.8 2.2Zm-157.3 0l4.9 2.7l-2.7 5.2l-4-2l-2.3 4.4l-4.9-2.8l3-5.5l3.8 2.2Zm-182.5 0l5 2.7l-2.8 5.2l-3.9-2l-2.3 4.4l-4.9-2.8l3-5.5l3.8 2.2Zm-342.3-8.4c.9 0 1.7 .4 2.3 1c.6 .7 .9 1.5 .9 2.4c0 .9-.3 1.7-.9 2.3c-.7 .7-1.5 1-2.4 1c-.9 0-1.7-.3-2.3-1c-.6-.6-1-1.4-1-2.3c0-.9 .4-1.7 1-2.4c.7-.6 1.5-1 2.4-1Zm745.5-5.3c-.5 0-1 .3-1.3 .7c-.3 .4-.5 .9-.5 1.4c0 .7 .4 1.2 1.1 1.6c.7 .5 1.6 .7 2.8 .7h1c-.5-2.9-1.5-4.4-3.1-4.4Zm-24.7 0c-.6 0-1 .3-1.3 .7c-.4 .4-.6 .9-.6 1.4c0 .7 .4 1.2 1.1 1.6c.7 .5 1.7 .7 2.8 .7h1c-.5-2.9-1.5-4.4-3-4.4Zm162.7-.1c-.7 0-1.3 .8-1.8 2.4c1 .4 1.7 .6 2.2 .8c1.4 .5 2.2 .8 2.4 .8c.4 0 .6-.1 .6-.4c0-.4-.4-1-1.2-2c-.8-1.1-1.6-1.6-2.2-1.6Zm-264.7 0c-.7 0-1.3 .8-1.8 2.4c.9 .4 1.6 .6 2.1 .8c1.5 .5 2.3 .8 2.5 .8c.4 0 .5-.1 .5-.4c0-.4-.3-1-1.1-2c-.9-1.1-1.6-1.6-2.2-1.6ZM637 382c-.7 0-1.3 .8-1.8 2.4c1 .4 1.7 .6 2.2 .8c1.4 .5 2.2 .8 2.4 .8c.4 0 .6-.1 .6-.4c0-.4-.4-1-1.1-2c-.9-1.1-1.7-1.6-2.3-1.6Zm757.6-.8c-1.1 0-2.5 .3-3.9 1.1c-1.5 .7-3.7 2.2-6.5 4.2h7.1c5.9 0 8.8-1 8.8-2.8c0-.8-.6-1.4-1.9-1.9c-1.1-.5-2.2-.6-3.6-.6Zm-320.1-3.5c-.4 0-.7 .2-1 .4c-.2 .2-.4 .5-.4 .8c0 .8 .6 1.5 1.8 2.3c1.1 .7 2.5 1.2 4.1 1.4c-.7-1.5-1.4-2.7-2.2-3.6c-.8-.8-1.6-1.3-2.3-1.3Zm-466.2-.6c.5 1.1 .9 2.1 1.1 3.1c.2 .9 .3 2 .3 3.4v10.2c-2 0-3.7-.2-5-.5c-1.3-.2-2.6-.7-3.9-1.3c-1.1 .7-2 1.2-2.8 1.4c-.8 .3-2.1 .4-3.7 .4h-4.4c-1.2 0-2.1-.3-2.8-1c-.7-.6-1.3-1.6-1.9-3.1c-1 1.5-2.1 2.6-3.3 3.2c-1 .6-2.3 .9-3.7 .9h-4.7c-.8 0-1.4 0-1.8 0c-.3 .1-.5 .2-.5 .4c.5 .3 1 .5 1.5 .6c.4 .1 .7 .3 .9 .5c.1 .1 .2 .5 .2 .9c0 1.2-.4 2.7-1.1 4.5c-.7 1.8-1.4 2.9-2.1 3.3c-.7 .6-2.6 1.2-5.9 1.9c-3.3 .7-6.1 1.1-8.5 1.1c-3.3 0-6-.7-8.1-2.1c-2.1-1.4-3.1-3.2-3.1-5.5c0-2.1 .4-4.2 1.3-6.2c1.1-2.4 3.2-5.5 6.2-9.1l1.6 1.1c-1.9 2.3-3.2 4.1-3.9 5.6c-.7 1.4-1.1 2.8-1.1 4.2c0 1.9 .8 3.3 2.4 4.2c1.6 1 4 1.4 7.3 1.4c1.7 0 4.1-.3 7.2-.9c3-.6 4.5-1.2 4.5-1.7c0-.2-.6-.4-1.7-.5c-1.2-.2-2.5-.3-3.9-.3c-2 0-3-.5-3-1.4c0-.4 .2-1.1 .7-2.2c.3-.7 .7-1.4 1-2.2c.7-1.5 2-2.7 3.8-3.6c1.9-.9 3.9-1.3 5.9-1.3h4.9c1.9 0 3.4-.6 4.7-1.6c1.6-1.4 2.4-3.5 2.4-6.3l1.8 .3c0 .5-.1 1.2-.1 1.9c0 .8-.1 1.6-.1 2.5c0 .9 .3 1.6 1 2.2c.6 .7 1.3 1 2.1 1h3.3c2.2 0 3.8-.3 4.7-1c1.1-.7 1.7-2 1.7-4.1c0-.4 .1-.8 .4-1.1c.1-.2 .5-.5 1-.9l1-.8c0 .3 .1 .8 .1 1.4c0 .6 0 .9 0 1.1c0 1-.1 2.3-.4 3.9c.6 .4 1.4 .6 2.2 .9c.8 .2 1.7 .4 2.6 .5c0-.6-.2-1.4-.7-2.3c-.4-1-.6-1.7-.6-2c0-.5 0-.8 .2-1.1c0-.1 .2-.4 .6-.8Zm648.3-2.1c1.4 0 2.7 1 3.7 2.9c1 2 1.5 4.3 1.5 7.1v6.9c0 3.1-1.3 6.1-3.9 9.2c-2.7 3-5.2 4.5-7.8 4.5c-1.5 0-3.1-.5-4.9-1.5c-1.7-.9-4.4-2.8-8.1-5.6l1.1-1.5c2 1.3 3.6 2.1 4.8 2.5c1 .4 2.2 .6 3.5 .6c1.7 0 3.4-.5 5.1-1.5c2-1.1 4.1-3 6.3-5.5c-.8 .1-1.4 .2-1.9 .2c-1.8 0-3.2-.6-4.3-1.8c-1-1.1-1.5-2.7-1.5-4.7c0-2.7 .6-5.3 1.8-7.7c1.4-2.7 2.9-4.1 4.6-4.1Zm41.3-.4c1.3 1.5 2.3 3.1 2.7 4.7c.5 1.7 .8 4.2 .8 7.5v7h-15.3l-.6 2.7c-.6 1.5-1.6 3-2.9 4.6c-2.6 3-5.2 4.5-7.7 4.5c-1.5 0-3.1-.5-4.9-1.5c-1.8-.9-4.5-2.8-8.1-5.6l1.1-1.5c1.9 1.3 3.5 2.1 4.7 2.5c1.1 .4 2.2 .6 3.5 .6c1.7 0 3.5-.5 5.2-1.5c2-1.1 4-3 6.2-5.5c-.8 .1-1.4 .2-1.9 .2c-1.8 0-3.2-.6-4.2-1.8c-1.1-1.1-1.6-2.7-1.6-4.7c0-2.7 .6-5.3 1.9-7.7c1.3-2.7 2.8-4.1 4.6-4.1c1.4 0 2.6 1 3.6 2.9c1 2 1.5 4.3 1.5 7.1v1.5h12.2c-.2-1.3-.6-2.3-1.1-3.1c-.2-.5-.9-1.3-1.9-2.4Zm-79.2 0c1.3 1.5 2.3 3.1 2.7 4.7c.5 1.5 .7 3.6 .8 6.3v.9h12.2c-.2-1.3-.6-2.3-1.1-3.1c-.3-.5-.9-1.3-1.9-2.4l2.1-6.4c1.4 1.5 2.3 3.1 2.8 4.7c.5 1.7 .7 4.2 .7 7.5v7h-29.7v.4c-.1 1.7-.4 3.1-.7 4.2c-.5 1.5-1.3 2.7-2.4 3.6c-1.1 .9-2.7 1.7-4.8 2.3c-2.2 .5-4.3 .8-6.6 .8c-4.3 0-7.7-.8-10.1-2.3c-2.3-1.6-3.5-3.9-3.5-6.8c0-2.5 .4-4.8 1.1-6.8c.9-2.3 2.5-5.3 4.9-8.9l1.6 1.1c-1.8 3.1-2.9 5.3-3.5 6.6c-.5 1.4-.8 2.8-.8 4.2c0 1.9 1 3.4 3 4.6c2 1.2 4.7 1.8 8 1.8c3.2 0 5.9-.6 8.1-1.8c2.2-1.3 3.3-2.8 3.3-4.6c0-1.1-.2-2.2-.6-3.3c-.4-1.1-1.2-2.8-2.5-5.2l2.4-7.3c1.2 2.3 2 3.9 2.3 4.8c.5 1.3 .7 3 .8 5v.3h12.2c-.2-1.3-.6-2.3-1.1-3.1c-.2-.5-.9-1.3-1.9-2.4Zm-281.2 0c1.3 1.5 2.2 3.1 2.7 4.7c.5 1.7 .7 4.2 .7 7.5v7H926v.6c0 1.1-.7 2.5-1.9 4.3c-1.3 1.8-2.7 3.4-4.4 4.7c-1.9 1.5-3.5 2.2-4.8 2.2c-1.6 0-3.3-.4-5.1-1.3c-1.5-.8-4-2.3-7.3-4.6l1.1-1.7c1.6 1.1 2.9 1.8 3.9 2.2c1 .3 2 .5 3.2 .5c1.2 0 2.4-.3 3.7-1c1.2-.7 2.9-2 5-3.9c3-2.7 4.5-4.7 4.5-6.1c0-.8-.3-1.7-.9-2.9c-.6-1.3-1.4-2.4-2.3-3.3l1.5-7.2c1.2 1.2 2.1 2.7 2.8 4.3c.7 1.6 1 3.5 1 5.6v.3h12.3c-.2-1.3-.6-2.3-1.1-3.1c-.3-.5-.9-1.3-1.9-2.4Zm459.5-.7c2 0 3.6 .7 4.8 2.1c1.4 1.7 2.1 4.2 2.1 7.5v3h3.3c1.6 0 2.9-.2 3.9-.6c1.2-.5 2-1.4 2.5-2.6c1-2.3 2.3-4.2 3.9-5.6c1.4-1.3 2.6-2 3.6-2c.9 0 2 1.4 3.4 4.1c1.1 2.2 1.7 4.3 2 6.2v.5h17.4c-2.2-2.3-4.2-3.9-6-4.9c-1.6-.8-3.2-1.3-4.8-1.3c-.4 0-.9 0-1.3 .1c-.3 0-.9 .1-1.6 .3c.9-2.3 2-3.9 3.3-5c1.2-1.1 2.5-1.6 4.1-1.6c1.2 0 2.3 .3 3.4 .8c1.1 .6 2.3 1.5 3.7 2.8c1 1 2.6 2.6 4.5 4.7c1.4 1.5 2.4 2.5 3.1 2.9c.7 .5 1.8 .9 3.2 1.2v7.3h-30.7v-.2h-.4c-1.4-.2-2.8-.5-4.4-1c-2.3-.6-4.2-1.4-5.9-2.2c-1.1 1.5-2.4 2.5-3.9 3c-.7 .3-1.7 .4-3 .4h-31.8c-1.2 0-2.3-.4-3-1c-.8-.6-1.4-1.7-2-3.1c-1.1 1.6-2.2 2.7-3.3 3.3c-.9 .5-2.2 .7-3.7 .7l-1.9 .1h-14.9v.4c-.1 1.7-.3 3.1-.7 4.2c-.5 1.5-1.3 2.7-2.4 3.6c-1.1 .9-2.7 1.7-4.8 2.3c-2.1 .5-4.3 .8-6.6 .8c-4.3 0-7.7-.8-10-2.3c-2.4-1.6-3.6-3.9-3.6-6.8c0-2.5 .4-4.8 1.2-6.8c.8-2.3 2.4-5.3 4.8-8.9l1.6 1.1c-1.7 3.1-2.9 5.3-3.5 6.6c-.5 1.4-.8 2.8-.8 4.2c0 1.9 1 3.4 3 4.6c2.1 1.2 4.7 1.8 8 1.8c3.2 0 5.9-.6 8.1-1.8c2.2-1.3 3.3-2.8 3.3-4.6c0-1.1-.2-2.2-.6-3.3c-.3-1.1-1.2-2.8-2.4-5.2l2.3-7.3c1.3 2.3 2 3.9 2.3 4.8c.5 1.3 .8 3 .8 5v.3h12.2c-.2-1.3-.5-2.3-1-3.1c-.3-.5-.9-1.3-1.9-2.4l2.1-6.4c1.4 1.5 2.3 3.1 2.8 4.7c.4 1.5 .6 3.6 .7 6.3v.9l1.9-.1c2.1 0 3.6-.5 4.7-1.5c1.3-1.2 2.1-3.3 2.4-6.3l1.9 .3c-.1 .6-.1 1.1-.1 1.5c-.1 1.2-.2 2.2-.2 2.9c0 1 .3 1.8 .9 2.3c.5 .6 1.2 .9 2.1 .9c.8 0 1.7-.2 2.4-.6c.8-.3 1.9-1.1 3.5-2.2l9.6-6.9c1.2-.8 2-1.3 2.6-1.7c1.3-.8 2.5-1.2 3.8-1.2Zm-400.6-.5c-.5 0-1 .3-1.4 .8c-.4 .5-.6 1-.6 1.7c0 .4 .1 .7 .4 1c.4 .3 .8 .4 1.3 .4c.4 0 .9-.1 1.3-.4c.4-.2 .9-.6 1.5-1.2c-.5-.8-.9-1.4-1.3-1.8c-.3-.3-.7-.5-1.2-.5Zm335.2-5.4l6.2 3.3l-3.2 6l-6.3-3.2Zm-139.4 0l6.3 3.3l-3.3 6l-6.2-3.2Zm-157.3 0l6.3 3.3l-3.3 6l-6.2-3.2Zm-38-1.4c1.9 0 3.7 1.7 5.3 4.9c1.7 3.3 2.5 6.8 2.5 10.4v11.9H985.2c-.8 0-1.3 0-1.7 0c-.3 .1-.5 .2-.5 .4c.5 .3 1 .5 1.5 .6c.4 .1 .7 .3 .9 .5c.1 .1 .2 .5 .2 .9c0 1.2-.4 2.7-1.1 4.5c-.7 1.8-1.5 2.9-2.2 3.3c-.6 .6-2.6 1.2-5.9 1.9c-3.2 .7-6 1.1-8.4 1.1c-3.4 0-6.1-.7-8.2-2.1c-2-1.4-3.1-3.2-3.1-5.5c0-2.1 .5-4.2 1.4-6.2c1.1-2.4 3.1-5.5 6.1-9.1l1.7 1.1c-1.9 2.3-3.2 4.1-3.9 5.6c-.8 1.4-1.1 2.8-1.1 4.2c0 1.9 .7 3.3 2.3 4.2c1.6 1 4.1 1.4 7.4 1.4c1.7 0 4.1-.3 7.1-.9c3.1-.6 4.6-1.2 4.6-1.7c0-.2-.6-.4-1.8-.5c-1.1-.2-2.4-.3-3.8-.3c-2 0-3.1-.5-3.1-1.4c0-.4 .3-1.1 .8-2.2c.3-.7 .7-1.4 1-2.2c.7-1.5 1.9-2.7 3.8-3.6c1.9-.9 3.8-1.3 5.9-1.3h17.1c0-1.6 0-2.7-.1-3.4c-.2-1-.5-1.9-.9-2.6c-.6 1.1-1.3 1.9-2.3 2.5c-1 .6-2 .9-3.1 .9c-1.4 0-2.6-.5-3.6-1.4c-1-1-1.5-2.1-1.5-3.6c0-2.1 .6-4.6 1.9-7.5c1.4-3.2 2.9-4.8 4.3-4.8Zm-97-3.9v6.4c-.1 0-.9 .2-2.3 .7c-1.7 .6-3.1 1.1-4.2 1.5c-1.5 .6-2.2 1.1-2.2 1.4c0 .1 .6 .8 1.9 2.1c1.7 1.6 3.2 3.2 4.3 4.6c2 2.3 3.6 4.6 4.8 6.9v7.5H845c-1.1 0-2 0-2.7-.1c-.8 0-1.3 0-1.7 0c-.6-.1-1.4-.3-2.2-.6c-1.5-.5-2.7-1.5-3.7-3.1c-.9-1.5-1.4-3.2-1.4-5.1c0-.8 .1-1.5 .2-2.3c.1-.8 .3-1.7 .6-2.5c.3-1.1 .8-2.1 1.2-2.9c.5-.9 1-1.7 1.6-2.5l1.5 1c-.4 .7-.7 1.4-1 2c-.3 .5-.5 1.1-.6 1.5c-.3 .8-.4 1.6-.4 2.4c0 1 .3 1.9 .9 2.8c.7 .8 1.6 1.3 2.6 1.6c.7 .1 1.5 .2 2.5 .3c1 .1 2 .2 3.2 .2H865c-.5-1.5-.9-2.4-1.3-2.9c-.4-.7-1-1.6-1.8-2.6l2.4-6.3c1.4 1.9 2.3 3.7 2.7 5.3c.3 1.4 .5 3.5 .5 6.2v.3h12.3c-.2-1.3-.6-2.3-1.1-3.1c-.3-.5-.9-1.3-1.9-2.4l2.2-6.4c1.3 1.5 2.2 3.1 2.7 4.7c.5 1.5 .7 3.6 .8 6.3v.9h15.4c-.7-.9-1.3-1.6-2-2.2c-.5-.5-1.3-1.1-2.2-1.9c-1-.7-2-1.5-3-2.3l-.9 .9c-1.6-1.5-2.5-2.5-2.8-2.8c-.9-1.1-1.4-2.2-1.4-3.5c0-1.9 .2-3.1 .4-3.9c.4-1 1.1-1.9 2.3-2.7c1-.7 2.1-1.4 3.3-2c1-.5 2.2-1 3.7-1.6c.7-.3 2.3-.9 4.6-1.8Zm-364.8-.2c2.1 0 4 .6 5.5 1.8c1.5 1.3 2.2 2.9 2.2 4.9c0 1.1-.3 2.1-.9 2.9c-.8 1-1.7 1.4-2.9 1.4c-.9 0-1.6-.3-2.2-.9c-.6-.6-.9-1.2-.9-2c0-1.2 .5-2.2 1.5-2.8c1-.6 1.5-1.1 1.5-1.5c0-.6-.3-1.1-.9-1.5c-.6-.3-1.3-.5-2.2-.5c-1.2 0-2.2 .3-2.9 1c-.7 .6-1.1 1.4-1.1 2.4c0 .8 .4 2 1.1 3.3c1.2 2.1 1.9 3.4 2.1 4.1c.8 1.8 1.1 3.9 1.1 6.1c0 1.1 0 2.5-.2 3.9h-1.7c0-.3 0-.6 0-.8l.2-1.3c0-1.1-.7-2.1-2-3.3c-2.2-2-3.5-3.2-3.7-3.4c-1.3-1.6-2-3.4-2-5.4c0-2.4 .8-4.4 2.4-6c1.6-1.6 3.6-2.4 6-2.4Zm569.8-.2l5 2.8l-2.8 5.2l-4-2l-2.2 4.3l-4.9-2.7l3-5.5l3.8 2.2Zm-169.4 0l5 2.8l-2.8 5.2l-4-2l-2.2 4.3l-4.9-2.7l3-5.5l3.8 2.2Zm186.5-.5l6.3 3.4l-3.3 6l-6.3-3.3Zm-464.7 0l6.2 3.4l-3.2 6l-6.3-3.3Zm726.9-.2l6.3 3.3l-3.2 6l-6.3-3.2Zm-88.9-.4l6.2 3.3l-3.2 6l-6.3-3.2Zm-484 0l1.6 9.5c.6 3.6 1 6.7 1.2 9.4c.2 2 .3 4 .3 5.9c0 1.6-.2 3-.6 4.3c-.3 1.3-1.1 3.1-2.1 5.3l-1.6-.6c.4-2.3 .6-4.2 .6-5.6c0-1.1-.1-2.7-.3-4.8c-.1-2.1-.4-4.2-.6-6.3c-.3-2.1-.7-4.5-1.4-7.4c-.2-1-.3-1.7-.3-2c0-.6 .3-1.5 .9-2.9c.5-1.3 1.3-2.9 2.3-4.8Zm-117.4 0l1.7 9.5c.6 3.6 1 6.7 1.2 9.4c.2 2 .3 4 .3 5.9c0 1.6-.2 3-.6 4.3c-.4 1.3-1.1 3.1-2.2 5.3l-1.6-.6c.5-2.3 .7-4.2 .7-5.6c0-1.1-.1-2.7-.3-4.8c-.2-2.1-.4-4.2-.7-6.3c-.2-2.1-.7-4.5-1.3-7.4c-.2-1-.3-1.7-.3-2c0-.6 .3-1.5 .8-2.9c.6-1.3 1.4-2.9 2.3-4.8Zm396-2.2l1.2 .7c0 .1 0 .4-.1 .9c0 .5 .4 1.1 1.1 1.7c.7 .5 1.7 1 3.2 1.6c-.2 1.2-.4 2.3-.7 3.4c-.3 1.1-.7 2.1-1.1 2.9l-1-.4l3 16.7h12.2c-.2-1.3-.6-2.3-1.1-3.1c-.3-.5-.9-1.3-1.9-2.4l2.2-6.4c1.3 1.5 2.2 3.1 2.7 4.7c.4 1.5 .7 3.6 .7 6.3v.9h17.2c-2.2-2.3-4.2-3.9-6-4.9c-1.7-.8-3.3-1.3-4.8-1.3c-.5 0-.9 0-1.3 .1c-.4 0-.9 .1-1.7 .3c1-2.3 2.1-3.9 3.3-5c1.2-1.1 2.6-1.6 4.1-1.6c1.2 0 2.4 .3 3.5 .8c1.1 .6 2.3 1.5 3.6 2.8c1.1 1 2.6 2.6 4.6 4.7c1.3 1.5 2.4 2.5 3.1 2.9c.7 .5 1.7 .9 3.2 1.2h3.4c1.6 0 2.9-.2 3.8-.6c1.2-.5 2.1-1.4 2.6-2.6c1-2.3 2.3-4.2 3.9-5.6c1.4-1.3 2.6-2 3.6-2c.9 0 2 1.4 3.4 4.1c1.4 3 2.1 5.6 2.1 8.1v5.8c-1.9 0-4.1-.3-6.7-1.1c-2.2-.6-4.2-1.4-5.9-2.2c-1 1.5-2.3 2.5-3.8 3c-.7 .3-1.7 .4-3 .4H1050v.4c-.1 1.7-.4 3.1-.7 4.2c-.5 1.5-1.3 2.7-2.4 3.6c-1.1 .9-2.7 1.7-4.8 2.3c-2.2 .5-4.3 .8-6.6 .8c-4.3 0-7.7-.8-10.1-2.3c-2.3-1.6-3.5-3.9-3.5-6.8c0-2.5 .4-4.8 1.1-6.8c.9-2.3 2.5-5.3 4.9-8.9l1.6 1.1c-1.8 3.1-2.9 5.3-3.5 6.6c-.5 1.4-.8 2.8-.8 4.2c0 1.9 1 3.4 3 4.6c2 1.2 4.7 1.8 8 1.8c3.2 0 5.9-.6 8.1-1.8c2.2-1.3 3.3-2.8 3.3-4.6c0-1.1-.2-2.2-.6-3.3c-.4-1.1-1.2-2.8-2.5-5.2l2.4-7.3c1.2 2.3 2 3.9 2.3 4.8c.5 1.3 .7 3 .8 5v.3h12.2c-.2-1.3-.6-2.3-1.1-3.1c-.2-.5-.9-1.3-1.9-2.4l2.2-6.4c1.3 1.5 2.3 3.1 2.7 4.7c.5 1.5 .7 3.6 .8 6.3v.9h2.8c.9 0 1.7 0 2.4 .1c2 .2 4.2 .4 6.7 .7c-2.6-.6-4.5-1.4-5.6-2.3c-1-1-1.6-2.4-1.6-4.3c0-2.8 .7-5.3 2-7.5c1.2-2.2 2.7-3.4 4.3-3.4c1.8 0 3.4 1.6 4.7 4.7c1.4 3.2 2 6.9 2 11.4v.6h9.7l-3.3-18.3l-1.7-1.1c0-1.1 .1-2.1 .5-3.2c.4-1.4 1.1-3 2.1-4.9Zm-291 0l1.2 .7c0 .1 0 .4-.1 .9c0 .5 .4 1.1 1.2 1.7c.6 .5 1.7 1 3.1 1.6c-.1 1.2-.4 2.3-.7 3.4c-.3 1.1-.6 2.1-1 2.9l-1-.4l2.9 16.7v7.3H789.8v-.1h-1c-.8-.1-1.6-.2-2.3-.4c-1.3-.2-2.6-.7-3.9-1.3c-1 .7-1.9 1.2-2.7 1.4c-.9 .3-2.1 .4-3.7 .4h-4.4c-1.2 0-2.1-.3-2.8-1c-.7-.6-1.4-1.6-1.9-3.1c-1 1.5-2.1 2.6-3.3 3.2c-1.1 .6-2.3 .9-3.8 .9H738.2v.6c0 1.1-.6 2.5-1.8 4.3c-1.3 1.8-2.8 3.4-4.4 4.7c-1.9 1.5-3.5 2.2-4.8 2.2c-1.6 0-3.3-.4-5.1-1.3c-1.6-.8-4-2.3-7.4-4.6l1.1-1.7c1.7 1.1 3 1.8 3.9 2.2c1 .3 2.1 .5 3.2 .5c1.3 0 2.5-.3 3.7-1c1.3-.7 3-2 5.1-3.9c3-2.7 4.4-4.7 4.4-6.1c0-.8-.2-1.7-.8-2.9c-.7-1.3-1.4-2.4-2.4-3.3l1.5-7.2c1.3 1.2 2.2 2.7 2.8 4.3c.7 1.6 1 3.5 1 5.6v.3h15.6c-.7-.9-1.3-1.6-2-2.2c-.5-.5-1.3-1.1-2.2-1.9c-1-.7-2-1.5-3-2.3l-.9 .9c-1.6-1.5-2.5-2.5-2.8-2.8c-.9-1.1-1.4-2.2-1.4-3.5c0-1.9 .2-3.1 .4-3.9c.4-1 1.1-1.9 2.3-2.7c1-.7 2.1-1.4 3.3-2c1-.5 2.2-1 3.7-1.6c.7-.3 2.3-.9 4.6-1.8v6.4c-.1 0-.9 .2-2.3 .7c-1.7 .6-3.1 1.1-4.2 1.5c-1.5 .6-2.2 1.1-2.2 1.4c0 .1 .6 .8 1.9 2.1c1.7 1.6 3.2 3.2 4.3 4.6c2 2.3 3.6 4.6 4.8 6.9v.2H760c1.9 0 3.5-.6 4.7-1.6c1.7-1.4 2.5-3.5 2.5-6.3l1.8 .3c-.1 .5-.1 1.2-.1 1.9c-.1 .8-.1 1.6-.1 2.5c0 .9 .3 1.6 .9 2.2c.7 .7 1.4 1 2.2 1h3.3c2.2 0 3.7-.3 4.7-1c1.1-.7 1.7-2 1.7-4.1c0-.4 .1-.8 .4-1.1c.1-.2 .5-.5 1-.9l1-.8c0 .3 0 .8 .1 1.4c0 .6 0 .9 0 1.1c0 1-.2 2.3-.5 3.9c.7 .4 1.4 .6 2.3 .9c.8 .2 1.7 .4 2.6 .5c0-.6-.2-1.4-.7-2.3c-.4-1-.7-1.7-.7-2c0-.5 .1-.8 .2-1.1c.1-.1 .3-.4 .6-.8l2.3-3.1c.5 1.1 .8 2.1 1 3.1c.2 .9 .3 2 .3 3.4v2.9h9.8L798 368.2l-1.7-1.1c0-1.1 .2-2.1 .5-3.2c.4-1.4 1.1-3 2.1-4.9Zm-117.3 0l1.2 .7c0 .1 0 .4-.1 .9c0 .5 .4 1.1 1.1 1.7c.7 .5 1.8 1 3.2 1.6c-.2 1.2-.4 2.3-.7 3.4c-.3 1.1-.7 2.1-1.1 2.9l-.9-.4l2.9 16.7v7.3H643.6v-.2h-.4c-1.4-.2-2.8-.5-4.4-1c-2.3-.6-4.2-1.4-5.9-2.2c-1.1 1.5-2.3 2.5-3.9 3c-.7 .3-1.7 .4-3 .4h-7.1c-2.1 0-3.6-.9-4.5-2.6c-1.1-1.9-1.6-5.1-1.6-9.6V374c0-1.8-.2-3.1-.7-4.1c-.3-.5-.8-1.1-1.6-2l2.9-6.7c1 1.4 1.7 2.8 2.1 4.2c.5 1.6 .8 3.7 .8 6.2v5.3c0 3.8 .2 6.4 .7 7.8c.4 1.2 1 1.8 1.9 1.8H626c1.6 0 2.9-.2 3.9-.6c1.2-.5 2-1.4 2.5-2.6c1-2.3 2.3-4.2 3.9-5.6c1.4-1.3 2.6-2 3.6-2c.9 0 2.1 1.4 3.4 4.1c1.1 2.2 1.7 4.3 2 6.2v.5h17.4c-2.1-2.3-4.1-3.9-6-4.9c-1.6-.8-3.2-1.3-4.8-1.3c-.4 0-.9 0-1.2 .1c-.4 0-1 .1-1.7 .3c1-2.3 2.1-3.9 3.3-5c1.2-1.1 2.6-1.6 4.1-1.6c1.2 0 2.3 .3 3.4 .8c1.1 .6 2.3 1.5 3.7 2.8c1.1 1 2.6 2.6 4.6 4.7c1.3 1.5 2.3 2.5 3 2.9c.7 .5 1.8 .9 3.2 1.2H684l-3.3-18.3l-1.7-1.1c0-1.1 .2-2.1 .5-3.2c.4-1.4 1.1-3 2.1-4.9Zm392.1-.2l6.3 3.3l-3.2 6l-6.3-3.3Zm-79.1-3.9l6.2 3.3l-3.2 6.1l-6.3-3.3Z" class="g0_34"/>
<path d="M973.5 407.7l3.4 2.1l-2.7 3l-2.8-1.8l-2.1 2.3l-3.4-1.9l2.5-3.2l3 1.9Zm-411.8 0l3.4 2.1l-2.6 3l-2.9-1.8l-2.1 2.3l-3.4-1.9l2.6-3.2l2.9 1.9ZM850.8 396l6.2 3.4l-3.2 6l-6.3-3.3Zm505.3-.2l5 2.7l-2.8 5.2l-4-2l-2.2 4.4l-4.9-2.8l2.9-5.5l3.8 2.2Zm-124.5 0l5 2.7l-2.8 5.2l-4-2l-2.2 4.4l-4.9-2.8l2.9-5.5l3.9 2.2Zm-14.8 0l4.9 2.7l-2.7 5.2l-4-2l-2.3 4.4l-4.9-2.8l3-5.5l3.8 2.2Zm-157.3 0l4.9 2.7l-2.7 5.2l-4-2l-2.3 4.4l-4.9-2.8l3-5.5l3.8 2.2Zm-182.5 0l5 2.7l-2.8 5.2l-3.9-2l-2.3 4.4l-4.9-2.8l3-5.5l3.8 2.2Zm-342.3-8.4c.9 0 1.7 .4 2.3 1c.6 .7 .9 1.5 .9 2.4c0 .9-.3 1.7-.9 2.3c-.7 .7-1.5 1-2.4 1c-.9 0-1.7-.3-2.3-1c-.6-.6-1-1.4-1-2.3c0-.9 .4-1.7 1-2.4c.7-.6 1.5-1 2.4-1Zm745.5-5.3c-.5 0-1 .3-1.3 .7c-.3 .4-.5 .9-.5 1.4c0 .7 .4 1.2 1.1 1.6c.7 .5 1.6 .7 2.8 .7h1c-.5-2.9-1.5-4.4-3.1-4.4Zm-24.7 0c-.6 0-1 .3-1.3 .7c-.4 .4-.6 .9-.6 1.4c0 .7 .4 1.2 1.1 1.6c.7 .5 1.7 .7 2.8 .7h1c-.5-2.9-1.5-4.4-3-4.4Zm162.7-.1c-.7 0-1.3 .8-1.8 2.4c1 .4 1.7 .6 2.2 .8c1.4 .5 2.2 .8 2.4 .8c.4 0 .6-.1 .6-.4c0-.4-.4-1-1.2-2c-.8-1.1-1.6-1.6-2.2-1.6Zm-264.7 0c-.7 0-1.3 .8-1.8 2.4c.9 .4 1.6 .6 2.1 .8c1.5 .5 2.3 .8 2.5 .8c.4 0 .5-.1 .5-.4c0-.4-.3-1-1.1-2c-.9-1.1-1.6-1.6-2.2-1.6ZM637 382c-.7 0-1.3 .8-1.8 2.4c1 .4 1.7 .6 2.2 .8c1.4 .5 2.2 .8 2.4 .8c.4 0 .6-.1 .6-.4c0-.4-.4-1-1.1-2c-.9-1.1-1.7-1.6-2.3-1.6Zm757.6-.8c-1.1 0-2.5 .3-3.9 1.1c-1.5 .7-3.7 2.2-6.5 4.2h7.1c5.9 0 8.8-1 8.8-2.8c0-.8-.6-1.4-1.9-1.9c-1.1-.5-2.2-.6-3.6-.6Zm-320.1-3.5c-.4 0-.7 .2-1 .4c-.2 .2-.4 .5-.4 .8c0 .8 .6 1.5 1.8 2.3c1.1 .7 2.5 1.2 4.1 1.4c-.7-1.5-1.4-2.7-2.2-3.6c-.8-.8-1.6-1.3-2.3-1.3Zm-466.2-.6c.5 1.1 .9 2.1 1.1 3.1c.2 .9 .3 2 .3 3.4v10.2c-2 0-3.7-.2-5-.5c-1.3-.2-2.6-.7-3.9-1.3c-1.1 .7-2 1.2-2.8 1.4c-.8 .3-2.1 .4-3.7 .4h-4.4c-1.2 0-2.1-.3-2.8-1c-.7-.6-1.3-1.6-1.9-3.1c-1 1.5-2.1 2.6-3.3 3.2c-1 .6-2.3 .9-3.7 .9h-4.7c-.8 0-1.4 0-1.8 0c-.3 .1-.5 .2-.5 .4c.5 .3 1 .5 1.5 .6c.4 .1 .7 .3 .9 .5c.1 .1 .2 .5 .2 .9c0 1.2-.4 2.7-1.1 4.5c-.7 1.8-1.4 2.9-2.1 3.3c-.7 .6-2.6 1.2-5.9 1.9c-3.3 .7-6.1 1.1-8.5 1.1c-3.3 0-6-.7-8.1-2.1c-2.1-1.4-3.1-3.2-3.1-5.5c0-2.1 .4-4.2 1.3-6.2c1.1-2.4 3.2-5.5 6.2-9.1l1.6 1.1c-1.9 2.3-3.2 4.1-3.9 5.6c-.7 1.4-1.1 2.8-1.1 4.2c0 1.9 .8 3.3 2.4 4.2c1.6 1 4 1.4 7.3 1.4c1.7 0 4.1-.3 7.2-.9c3-.6 4.5-1.2 4.5-1.7c0-.2-.6-.4-1.7-.5c-1.2-.2-2.5-.3-3.9-.3c-2 0-3-.5-3-1.4c0-.4 .2-1.1 .7-2.2c.3-.7 .7-1.4 1-2.2c.7-1.5 2-2.7 3.8-3.6c1.9-.9 3.9-1.3 5.9-1.3h4.9c1.9 0 3.4-.6 4.7-1.6c1.6-1.4 2.4-3.5 2.4-6.3l1.8 .3c0 .5-.1 1.2-.1 1.9c0 .8-.1 1.6-.1 2.5c0 .9 .3 1.6 1 2.2c.6 .7 1.3 1 2.1 1h3.3c2.2 0 3.8-.3 4.7-1c1.1-.7 1.7-2 1.7-4.1c0-.4 .1-.8 .4-1.1c.1-.2 .5-.5 1-.9l1-.8c0 .3 .1 .8 .1 1.4c0 .6 0 .9 0 1.1c0 1-.1 2.3-.4 3.9c.6 .4 1.4 .6 2.2 .9c.8 .2 1.7 .4 2.6 .5c0-.6-.2-1.4-.7-2.3c-.4-1-.6-1.7-.6-2c0-.5 0-.8 .2-1.1c0-.1 .2-.4 .6-.8Zm648.3-2.1c1.4 0 2.7 1 3.7 2.9c1 2 1.5 4.3 1.5 7.1v6.9c0 3.1-1.3 6.1-3.9 9.2c-2.7 3-5.2 4.5-7.8 4.5c-1.5 0-3.1-.5-4.9-1.5c-1.7-.9-4.4-2.8-8.1-5.6l1.1-1.5c2 1.3 3.6 2.1 4.8 2.5c1 .4 2.2 .6 3.5 .6c1.7 0 3.4-.5 5.1-1.5c2-1.1 4.1-3 6.3-5.5c-.8 .1-1.4 .2-1.9 .2c-1.8 0-3.2-.6-4.3-1.8c-1-1.1-1.5-2.7-1.5-4.7c0-2.7 .6-5.3 1.8-7.7c1.4-2.7 2.9-4.1 4.6-4.1Zm41.3-.4c1.3 1.5 2.3 3.1 2.7 4.7c.5 1.7 .8 4.2 .8 7.5v7h-15.3l-.6 2.7c-.6 1.5-1.6 3-2.9 4.6c-2.6 3-5.2 4.5-7.7 4.5c-1.5 0-3.1-.5-4.9-1.5c-1.8-.9-4.5-2.8-8.1-5.6l1.1-1.5c1.9 1.3 3.5 2.1 4.7 2.5c1.1 .4 2.2 .6 3.5 .6c1.7 0 3.5-.5 5.2-1.5c2-1.1 4-3 6.2-5.5c-.8 .1-1.4 .2-1.9 .2c-1.8 0-3.2-.6-4.2-1.8c-1.1-1.1-1.6-2.7-1.6-4.7c0-2.7 .6-5.3 1.9-7.7c1.3-2.7 2.8-4.1 4.6-4.1c1.4 0 2.6 1 3.6 2.9c1 2 1.5 4.3 1.5 7.1v1.5h12.2c-.2-1.3-.6-2.3-1.1-3.1c-.2-.5-.9-1.3-1.9-2.4Zm-79.2 0c1.3 1.5 2.3 3.1 2.7 4.7c.5 1.5 .7 3.6 .8 6.3v.9h12.2c-.2-1.3-.6-2.3-1.1-3.1c-.3-.5-.9-1.3-1.9-2.4l2.1-6.4c1.4 1.5 2.3 3.1 2.8 4.7c.5 1.7 .7 4.2 .7 7.5v7h-29.7v.4c-.1 1.7-.4 3.1-.7 4.2c-.5 1.5-1.3 2.7-2.4 3.6c-1.1 .9-2.7 1.7-4.8 2.3c-2.2 .5-4.3 .8-6.6 .8c-4.3 0-7.7-.8-10.1-2.3c-2.3-1.6-3.5-3.9-3.5-6.8c0-2.5 .4-4.8 1.1-6.8c.9-2.3 2.5-5.3 4.9-8.9l1.6 1.1c-1.8 3.1-2.9 5.3-3.5 6.6c-.5 1.4-.8 2.8-.8 4.2c0 1.9 1 3.4 3 4.6c2 1.2 4.7 1.8 8 1.8c3.2 0 5.9-.6 8.1-1.8c2.2-1.3 3.3-2.8 3.3-4.6c0-1.1-.2-2.2-.6-3.3c-.4-1.1-1.2-2.8-2.5-5.2l2.4-7.3c1.2 2.3 2 3.9 2.3 4.8c.5 1.3 .7 3 .8 5v.3h12.2c-.2-1.3-.6-2.3-1.1-3.1c-.2-.5-.9-1.3-1.9-2.4Zm-281.2 0c1.3 1.5 2.2 3.1 2.7 4.7c.5 1.7 .7 4.2 .7 7.5v7H926v.6c0 1.1-.7 2.5-1.9 4.3c-1.3 1.8-2.7 3.4-4.4 4.7c-1.9 1.5-3.5 2.2-4.8 2.2c-1.6 0-3.3-.4-5.1-1.3c-1.5-.8-4-2.3-7.3-4.6l1.1-1.7c1.6 1.1 2.9 1.8 3.9 2.2c1 .3 2 .5 3.2 .5c1.2 0 2.4-.3 3.7-1c1.2-.7 2.9-2 5-3.9c3-2.7 4.5-4.7 4.5-6.1c0-.8-.3-1.7-.9-2.9c-.6-1.3-1.4-2.4-2.3-3.3l1.5-7.2c1.2 1.2 2.1 2.7 2.8 4.3c.7 1.6 1 3.5 1 5.6v.3h12.3c-.2-1.3-.6-2.3-1.1-3.1c-.3-.5-.9-1.3-1.9-2.4Zm459.5-.7c2 0 3.6 .7 4.8 2.1c1.4 1.7 2.1 4.2 2.1 7.5v3h3.3c1.6 0 2.9-.2 3.9-.6c1.2-.5 2-1.4 2.5-2.6c1-2.3 2.3-4.2 3.9-5.6c1.4-1.3 2.6-2 3.6-2c.9 0 2 1.4 3.4 4.1c1.1 2.2 1.7 4.3 2 6.2v.5h17.4c-2.2-2.3-4.2-3.9-6-4.9c-1.6-.8-3.2-1.3-4.8-1.3c-.4 0-.9 0-1.3 .1c-.3 0-.9 .1-1.6 .3c.9-2.3 2-3.9 3.3-5c1.2-1.1 2.5-1.6 4.1-1.6c1.2 0 2.3 .3 3.4 .8c1.1 .6 2.3 1.5 3.7 2.8c1 1 2.6 2.6 4.5 4.7c1.4 1.5 2.4 2.5 3.1 2.9c.7 .5 1.8 .9 3.2 1.2v7.3h-30.7v-.2h-.4c-1.4-.2-2.8-.5-4.4-1c-2.3-.6-4.2-1.4-5.9-2.2c-1.1 1.5-2.4 2.5-3.9 3c-.7 .3-1.7 .4-3 .4h-31.8c-1.2 0-2.3-.4-3-1c-.8-.6-1.4-1.7-2-3.1c-1.1 1.6-2.2 2.7-3.3 3.3c-.9 .5-2.2 .7-3.7 .7l-1.9 .1h-14.9v.4c-.1 1.7-.3 3.1-.7 4.2c-.5 1.5-1.3 2.7-2.4 3.6c-1.1 .9-2.7 1.7-4.8 2.3c-2.1 .5-4.3 .8-6.6 .8c-4.3 0-7.7-.8-10-2.3c-2.4-1.6-3.6-3.9-3.6-6.8c0-2.5 .4-4.8 1.2-6.8c.8-2.3 2.4-5.3 4.8-8.9l1.6 1.1c-1.7 3.1-2.9 5.3-3.5 6.6c-.5 1.4-.8 2.8-.8 4.2c0 1.9 1 3.4 3 4.6c2.1 1.2 4.7 1.8 8 1.8c3.2 0 5.9-.6 8.1-1.8c2.2-1.3 3.3-2.8 3.3-4.6c0-1.1-.2-2.2-.6-3.3c-.3-1.1-1.2-2.8-2.4-5.2l2.3-7.3c1.3 2.3 2 3.9 2.3 4.8c.5 1.3 .8 3 .8 5v.3h12.2c-.2-1.3-.5-2.3-1-3.1c-.3-.5-.9-1.3-1.9-2.4l2.1-6.4c1.4 1.5 2.3 3.1 2.8 4.7c.4 1.5 .6 3.6 .7 6.3v.9l1.9-.1c2.1 0 3.6-.5 4.7-1.5c1.3-1.2 2.1-3.3 2.4-6.3l1.9 .3c-.1 .6-.1 1.1-.1 1.5c-.1 1.2-.2 2.2-.2 2.9c0 1 .3 1.8 .9 2.3c.5 .6 1.2 .9 2.1 .9c.8 0 1.7-.2 2.4-.6c.8-.3 1.9-1.1 3.5-2.2l9.6-6.9c1.2-.8 2-1.3 2.6-1.7c1.3-.8 2.5-1.2 3.8-1.2Zm-400.6-.5c-.5 0-1 .3-1.4 .8c-.4 .5-.6 1-.6 1.7c0 .4 .1 .7 .4 1c.4 .3 .8 .4 1.3 .4c.4 0 .9-.1 1.3-.4c.4-.2 .9-.6 1.5-1.2c-.5-.8-.9-1.4-1.3-1.8c-.3-.3-.7-.5-1.2-.5Zm335.2-5.4l6.2 3.3l-3.2 6l-6.3-3.2Zm-139.4 0l6.3 3.3l-3.3 6l-6.2-3.2Zm-157.3 0l6.3 3.3l-3.3 6l-6.2-3.2Zm-38-1.4c1.9 0 3.7 1.7 5.3 4.9c1.7 3.3 2.5 6.8 2.5 10.4v11.9H985.2c-.8 0-1.3 0-1.7 0c-.3 .1-.5 .2-.5 .4c.5 .3 1 .5 1.5 .6c.4 .1 .7 .3 .9 .5c.1 .1 .2 .5 .2 .9c0 1.2-.4 2.7-1.1 4.5c-.7 1.8-1.5 2.9-2.2 3.3c-.6 .6-2.6 1.2-5.9 1.9c-3.2 .7-6 1.1-8.4 1.1c-3.4 0-6.1-.7-8.2-2.1c-2-1.4-3.1-3.2-3.1-5.5c0-2.1 .5-4.2 1.4-6.2c1.1-2.4 3.1-5.5 6.1-9.1l1.7 1.1c-1.9 2.3-3.2 4.1-3.9 5.6c-.8 1.4-1.1 2.8-1.1 4.2c0 1.9 .7 3.3 2.3 4.2c1.6 1 4.1 1.4 7.4 1.4c1.7 0 4.1-.3 7.1-.9c3.1-.6 4.6-1.2 4.6-1.7c0-.2-.6-.4-1.8-.5c-1.1-.2-2.4-.3-3.8-.3c-2 0-3.1-.5-3.1-1.4c0-.4 .3-1.1 .8-2.2c.3-.7 .7-1.4 1-2.2c.7-1.5 1.9-2.7 3.8-3.6c1.9-.9 3.8-1.3 5.9-1.3h17.1c0-1.6 0-2.7-.1-3.4c-.2-1-.5-1.9-.9-2.6c-.6 1.1-1.3 1.9-2.3 2.5c-1 .6-2 .9-3.1 .9c-1.4 0-2.6-.5-3.6-1.4c-1-1-1.5-2.1-1.5-3.6c0-2.1 .6-4.6 1.9-7.5c1.4-3.2 2.9-4.8 4.3-4.8Zm-97-3.9v6.4c-.1 0-.9 .2-2.3 .7c-1.7 .6-3.1 1.1-4.2 1.5c-1.5 .6-2.2 1.1-2.2 1.4c0 .1 .6 .8 1.9 2.1c1.7 1.6 3.2 3.2 4.3 4.6c2 2.3 3.6 4.6 4.8 6.9v7.5H845c-1.1 0-2 0-2.7-.1c-.8 0-1.3 0-1.7 0c-.6-.1-1.4-.3-2.2-.6c-1.5-.5-2.7-1.5-3.7-3.1c-.9-1.5-1.4-3.2-1.4-5.1c0-.8 .1-1.5 .2-2.3c.1-.8 .3-1.7 .6-2.5c.3-1.1 .8-2.1 1.2-2.9c.5-.9 1-1.7 1.6-2.5l1.5 1c-.4 .7-.7 1.4-1 2c-.3 .5-.5 1.1-.6 1.5c-.3 .8-.4 1.6-.4 2.4c0 1 .3 1.9 .9 2.8c.7 .8 1.6 1.3 2.6 1.6c.7 .1 1.5 .2 2.5 .3c1 .1 2 .2 3.2 .2H865c-.5-1.5-.9-2.4-1.3-2.9c-.4-.7-1-1.6-1.8-2.6l2.4-6.3c1.4 1.9 2.3 3.7 2.7 5.3c.3 1.4 .5 3.5 .5 6.2v.3h12.3c-.2-1.3-.6-2.3-1.1-3.1c-.3-.5-.9-1.3-1.9-2.4l2.2-6.4c1.3 1.5 2.2 3.1 2.7 4.7c.5 1.5 .7 3.6 .8 6.3v.9h15.4c-.7-.9-1.3-1.6-2-2.2c-.5-.5-1.3-1.1-2.2-1.9c-1-.7-2-1.5-3-2.3l-.9 .9c-1.6-1.5-2.5-2.5-2.8-2.8c-.9-1.1-1.4-2.2-1.4-3.5c0-1.9 .2-3.1 .4-3.9c.4-1 1.1-1.9 2.3-2.7c1-.7 2.1-1.4 3.3-2c1-.5 2.2-1 3.7-1.6c.7-.3 2.3-.9 4.6-1.8Zm-364.8-.2c2.1 0 4 .6 5.5 1.8c1.5 1.3 2.2 2.9 2.2 4.9c0 1.1-.3 2.1-.9 2.9c-.8 1-1.7 1.4-2.9 1.4c-.9 0-1.6-.3-2.2-.9c-.6-.6-.9-1.2-.9-2c0-1.2 .5-2.2 1.5-2.8c1-.6 1.5-1.1 1.5-1.5c0-.6-.3-1.1-.9-1.5c-.6-.3-1.3-.5-2.2-.5c-1.2 0-2.2 .3-2.9 1c-.7 .6-1.1 1.4-1.1 2.4c0 .8 .4 2 1.1 3.3c1.2 2.1 1.9 3.4 2.1 4.1c.8 1.8 1.1 3.9 1.1 6.1c0 1.1 0 2.5-.2 3.9h-1.7c0-.3 0-.6 0-.8l.2-1.3c0-1.1-.7-2.1-2-3.3c-2.2-2-3.5-3.2-3.7-3.4c-1.3-1.6-2-3.4-2-5.4c0-2.4 .8-4.4 2.4-6c1.6-1.6 3.6-2.4 6-2.4Zm569.8-.2l5 2.8l-2.8 5.2l-4-2l-2.2 4.3l-4.9-2.7l3-5.5l3.8 2.2Zm-169.4 0l5 2.8l-2.8 5.2l-4-2l-2.2 4.3l-4.9-2.7l3-5.5l3.8 2.2Zm186.5-.5l6.3 3.4l-3.3 6l-6.3-3.3Zm-464.7 0l6.2 3.4l-3.2 6l-6.3-3.3Zm726.9-.2l6.3 3.3l-3.2 6l-6.3-3.2Zm-88.9-.4l6.2 3.3l-3.2 6l-6.3-3.2Zm-484 0l1.6 9.5c.6 3.6 1 6.7 1.2 9.4c.2 2 .3 4 .3 5.9c0 1.6-.2 3-.6 4.3c-.3 1.3-1.1 3.1-2.1 5.3l-1.6-.6c.4-2.3 .6-4.2 .6-5.6c0-1.1-.1-2.7-.3-4.8c-.1-2.1-.4-4.2-.6-6.3c-.3-2.1-.7-4.5-1.4-7.4c-.2-1-.3-1.7-.3-2c0-.6 .3-1.5 .9-2.9c.5-1.3 1.3-2.9 2.3-4.8Zm-117.4 0l1.7 9.5c.6 3.6 1 6.7 1.2 9.4c.2 2 .3 4 .3 5.9c0 1.6-.2 3-.6 4.3c-.4 1.3-1.1 3.1-2.2 5.3l-1.6-.6c.5-2.3 .7-4.2 .7-5.6c0-1.1-.1-2.7-.3-4.8c-.2-2.1-.4-4.2-.7-6.3c-.2-2.1-.7-4.5-1.3-7.4c-.2-1-.3-1.7-.3-2c0-.6 .3-1.5 .8-2.9c.6-1.3 1.4-2.9 2.3-4.8Zm396-2.2l1.2 .7c0 .1 0 .4-.1 .9c0 .5 .4 1.1 1.1 1.7c.7 .5 1.7 1 3.2 1.6c-.2 1.2-.4 2.3-.7 3.4c-.3 1.1-.7 2.1-1.1 2.9l-1-.4l3 16.7h12.2c-.2-1.3-.6-2.3-1.1-3.1c-.3-.5-.9-1.3-1.9-2.4l2.2-6.4c1.3 1.5 2.2 3.1 2.7 4.7c.4 1.5 .7 3.6 .7 6.3v.9h17.2c-2.2-2.3-4.2-3.9-6-4.9c-1.7-.8-3.3-1.3-4.8-1.3c-.5 0-.9 0-1.3 .1c-.4 0-.9 .1-1.7 .3c1-2.3 2.1-3.9 3.3-5c1.2-1.1 2.6-1.6 4.1-1.6c1.2 0 2.4 .3 3.5 .8c1.1 .6 2.3 1.5 3.6 2.8c1.1 1 2.6 2.6 4.6 4.7c1.3 1.5 2.4 2.5 3.1 2.9c.7 .5 1.7 .9 3.2 1.2h3.4c1.6 0 2.9-.2 3.8-.6c1.2-.5 2.1-1.4 2.6-2.6c1-2.3 2.3-4.2 3.9-5.6c1.4-1.3 2.6-2 3.6-2c.9 0 2 1.4 3.4 4.1c1.4 3 2.1 5.6 2.1 8.1v5.8c-1.9 0-4.1-.3-6.7-1.1c-2.2-.6-4.2-1.4-5.9-2.2c-1 1.5-2.3 2.5-3.8 3c-.7 .3-1.7 .4-3 .4H1050v.4c-.1 1.7-.4 3.1-.7 4.2c-.5 1.5-1.3 2.7-2.4 3.6c-1.1 .9-2.7 1.7-4.8 2.3c-2.2 .5-4.3 .8-6.6 .8c-4.3 0-7.7-.8-10.1-2.3c-2.3-1.6-3.5-3.9-3.5-6.8c0-2.5 .4-4.8 1.1-6.8c.9-2.3 2.5-5.3 4.9-8.9l1.6 1.1c-1.8 3.1-2.9 5.3-3.5 6.6c-.5 1.4-.8 2.8-.8 4.2c0 1.9 1 3.4 3 4.6c2 1.2 4.7 1.8 8 1.8c3.2 0 5.9-.6 8.1-1.8c2.2-1.3 3.3-2.8 3.3-4.6c0-1.1-.2-2.2-.6-3.3c-.4-1.1-1.2-2.8-2.5-5.2l2.4-7.3c1.2 2.3 2 3.9 2.3 4.8c.5 1.3 .7 3 .8 5v.3h12.2c-.2-1.3-.6-2.3-1.1-3.1c-.2-.5-.9-1.3-1.9-2.4l2.2-6.4c1.3 1.5 2.3 3.1 2.7 4.7c.5 1.5 .7 3.6 .8 6.3v.9h2.8c.9 0 1.7 0 2.4 .1c2 .2 4.2 .4 6.7 .7c-2.6-.6-4.5-1.4-5.6-2.3c-1-1-1.6-2.4-1.6-4.3c0-2.8 .7-5.3 2-7.5c1.2-2.2 2.7-3.4 4.3-3.4c1.8 0 3.4 1.6 4.7 4.7c1.4 3.2 2 6.9 2 11.4v.6h9.7l-3.3-18.3l-1.7-1.1c0-1.1 .1-2.1 .5-3.2c.4-1.4 1.1-3 2.1-4.9Zm-291 0l1.2 .7c0 .1 0 .4-.1 .9c0 .5 .4 1.1 1.2 1.7c.6 .5 1.7 1 3.1 1.6c-.1 1.2-.4 2.3-.7 3.4c-.3 1.1-.6 2.1-1 2.9l-1-.4l2.9 16.7v7.3H789.8v-.1h-1c-.8-.1-1.6-.2-2.3-.4c-1.3-.2-2.6-.7-3.9-1.3c-1 .7-1.9 1.2-2.7 1.4c-.9 .3-2.1 .4-3.7 .4h-4.4c-1.2 0-2.1-.3-2.8-1c-.7-.6-1.4-1.6-1.9-3.1c-1 1.5-2.1 2.6-3.3 3.2c-1.1 .6-2.3 .9-3.8 .9H738.2v.6c0 1.1-.6 2.5-1.8 4.3c-1.3 1.8-2.8 3.4-4.4 4.7c-1.9 1.5-3.5 2.2-4.8 2.2c-1.6 0-3.3-.4-5.1-1.3c-1.6-.8-4-2.3-7.4-4.6l1.1-1.7c1.7 1.1 3 1.8 3.9 2.2c1 .3 2.1 .5 3.2 .5c1.3 0 2.5-.3 3.7-1c1.3-.7 3-2 5.1-3.9c3-2.7 4.4-4.7 4.4-6.1c0-.8-.2-1.7-.8-2.9c-.7-1.3-1.4-2.4-2.4-3.3l1.5-7.2c1.3 1.2 2.2 2.7 2.8 4.3c.7 1.6 1 3.5 1 5.6v.3h15.6c-.7-.9-1.3-1.6-2-2.2c-.5-.5-1.3-1.1-2.2-1.9c-1-.7-2-1.5-3-2.3l-.9 .9c-1.6-1.5-2.5-2.5-2.8-2.8c-.9-1.1-1.4-2.2-1.4-3.5c0-1.9 .2-3.1 .4-3.9c.4-1 1.1-1.9 2.3-2.7c1-.7 2.1-1.4 3.3-2c1-.5 2.2-1 3.7-1.6c.7-.3 2.3-.9 4.6-1.8v6.4c-.1 0-.9 .2-2.3 .7c-1.7 .6-3.1 1.1-4.2 1.5c-1.5 .6-2.2 1.1-2.2 1.4c0 .1 .6 .8 1.9 2.1c1.7 1.6 3.2 3.2 4.3 4.6c2 2.3 3.6 4.6 4.8 6.9v.2H760c1.9 0 3.5-.6 4.7-1.6c1.7-1.4 2.5-3.5 2.5-6.3l1.8 .3c-.1 .5-.1 1.2-.1 1.9c-.1 .8-.1 1.6-.1 2.5c0 .9 .3 1.6 .9 2.2c.7 .7 1.4 1 2.2 1h3.3c2.2 0 3.7-.3 4.7-1c1.1-.7 1.7-2 1.7-4.1c0-.4 .1-.8 .4-1.1c.1-.2 .5-.5 1-.9l1-.8c0 .3 0 .8 .1 1.4c0 .6 0 .9 0 1.1c0 1-.2 2.3-.5 3.9c.7 .4 1.4 .6 2.3 .9c.8 .2 1.7 .4 2.6 .5c0-.6-.2-1.4-.7-2.3c-.4-1-.7-1.7-.7-2c0-.5 .1-.8 .2-1.1c.1-.1 .3-.4 .6-.8l2.3-3.1c.5 1.1 .8 2.1 1 3.1c.2 .9 .3 2 .3 3.4v2.9h9.8L798 368.2l-1.7-1.1c0-1.1 .2-2.1 .5-3.2c.4-1.4 1.1-3 2.1-4.9Zm-117.3 0l1.2 .7c0 .1 0 .4-.1 .9c0 .5 .4 1.1 1.1 1.7c.7 .5 1.8 1 3.2 1.6c-.2 1.2-.4 2.3-.7 3.4c-.3 1.1-.7 2.1-1.1 2.9l-.9-.4l2.9 16.7v7.3H643.6v-.2h-.4c-1.4-.2-2.8-.5-4.4-1c-2.3-.6-4.2-1.4-5.9-2.2c-1.1 1.5-2.3 2.5-3.9 3c-.7 .3-1.7 .4-3 .4h-7.1c-2.1 0-3.6-.9-4.5-2.6c-1.1-1.9-1.6-5.1-1.6-9.6V374c0-1.8-.2-3.1-.7-4.1c-.3-.5-.8-1.1-1.6-2l2.9-6.7c1 1.4 1.7 2.8 2.1 4.2c.5 1.6 .8 3.7 .8 6.2v5.3c0 3.8 .2 6.4 .7 7.8c.4 1.2 1 1.8 1.9 1.8H626c1.6 0 2.9-.2 3.9-.6c1.2-.5 2-1.4 2.5-2.6c1-2.3 2.3-4.2 3.9-5.6c1.4-1.3 2.6-2 3.6-2c.9 0 2.1 1.4 3.4 4.1c1.1 2.2 1.7 4.3 2 6.2v.5h17.4c-2.1-2.3-4.1-3.9-6-4.9c-1.6-.8-3.2-1.3-4.8-1.3c-.4 0-.9 0-1.2 .1c-.4 0-1 .1-1.7 .3c1-2.3 2.1-3.9 3.3-5c1.2-1.1 2.6-1.6 4.1-1.6c1.2 0 2.3 .3 3.4 .8c1.1 .6 2.3 1.5 3.7 2.8c1.1 1 2.6 2.6 4.6 4.7c1.3 1.5 2.3 2.5 3 2.9c.7 .5 1.8 .9 3.2 1.2H684l-3.3-18.3l-1.7-1.1c0-1.1 .2-2.1 .5-3.2c.4-1.4 1.1-3 2.1-4.9Zm392.1-.2l6.3 3.3l-3.2 6l-6.3-3.3Zm-79.1-3.9l6.2 3.3l-3.2 6.1l-6.3-3.3Z" class="g1_34"/>
<image clip-path="url(#c1_34)" preserveAspectRatio="none" x="1344" y="457" width="108" height="72" href="img/2.jpg"/>
<image clip-path="url(#c2_34)" preserveAspectRatio="none" x="1347" y="550" width="102" height="71" href="img/3.jpg"/>
<image clip-path="url(#c3_34)" preserveAspectRatio="none" x="1347" y="642" width="102" height="74" href="img/4.jpg"/>
<image clip-path="url(#c4_34)" preserveAspectRatio="none" x="1353" y="745" width="96" height="80" href="img/5.jpg"/>
<path d="M536.7 445.2l.9-.9c.1-.2 .2-.4 .1-.7l-.1-.3l-.3-.4l-.7-.6c-.4-.2-.8-.2-1.1 .1c-.2 .3-.3 .8 0 1.1l.5 .6c.2 .3 .6 .4 1 .2c.3-.1 .5-.5 .4-.9c0-.3-.4-.6-.7-.6l-.3-.1l.4 .2l-.5-.3c-.4-.2-.9-.1-1.1 .3c-.3 .4-.2 .9 .2 1.2l.3 .2c.5 .3 1 .2 1.3-.2c.3-.4 .2-1-.2-1.3l-.4-.3c-.3-.2-.6-.2-.9-.1c-.4 .2-.6 .5-.6 .8v.1c-.1 .3 .1 .6 .3 .8l.8 .7l-.2-.2l.1 .2c.3 .4 .9 .5 1.3 .3c.4-.1 .7-.6 .7-1.1c-.1-.5-.5-.9-.9-.9l-.6-.1c-.4-.1-.8 .1-1 .3c-.3 .3-.4 .7-.2 1.1l.3 .9v-.6l-.4 1.1l.1-.2l-.7 1.2c-.1 .3-.2 .5-.1 .8l.6 2.2v-.5l-.2 1.5v1.5v-.1l-.1 1.7v-.3l-.6 1.7v.3l-.3 1.9v-.1l-.5 2.3v.2l-.3 2.5v.1l.1 2.9v-.1v2.8V468l-.4 2.5v.2l.1 2.6l-.2 2.3v2.7l.8 2.8v-.2l.5 2.9v-.1l.3 3.4V487l.1 3.1v2.7l.2 2.8v.1l.3 2.6v-.1l.1 2.6v-.1v3.1v-.2l-.5 2.8v.3l.1 2.6l.1 2.8v-.2l-.1 2v.3l.2 2v-.4l-.2 1.5v.2l-.1 1.6v.2l.3 1.7v.1l.4 1.8l.4 2.1v.1l.5 1.9l.1 .2l.9 2.4v-.2l.3 1.9h.1l.4 2.1l.1 .2l.9 2.2l-.1-.2l.4 1.3v-.1l.3 1.8l.1 .3l.9 2.1l-.1-.2l.5 2.1v-.1l.5 3.1v.2l.8 3v-.2l.2 3v.1l.6 3.2l.5 2.8v.1l.6 2.9l-.1-.1l.5 3.3l.3 3.4l.2 3.7v-.1l.1 3.6v3.3l.1 3.1H545v3.3l.1 3.6v7.6l.1 3.2V602l.2 3.1V605v7l-.1 3.7l-.1 3.8l-.1 3.5l-.3 3.9l-.3 4l-.2 4.1l-.2 4.1v.1L544 643v4.1l-.1 4.3V656l-.1 4.4l-.1 4.4v.1l.1 4.2l.2 4l.2 4.1h.1l.3 3.6v-.1l.2 3v.1l.3 2.5l.4 2.2v-.1l.3 2.2l.3 1.9v-.1l.4 2.2l.3 2.1l.4 2.4v.1l.6 2.7l.5 2.8v-.1l.5 2.8l.4 2.9v-.1l.1 3.2v-.1v3.2l-.2 2.8v-.1l-.3 2.4l.1-.3l-.5 1.1c-.2 .6 0 1.2 .6 1.4c.5 .3 1.1 .1 1.4-.4l.6-1.1l.1-.3l.5-2.3v-.2l.3-2.8v-.1l.1-3.2v-3.5l-.4-2.9l-.4-2.8v-.1l-.6-2.8l-.5-2.7l-.3-2.3l-.3-2.1l-.4-2.2l-.2-1.9v.1l-.3-2.2h-.1l-.3-2.2v.1l-.3-2.5v.1l-.2-3l-.3-3.6l-.3-4l-.2-3.9l-.1-4.2v.1l.1-4.4v-9.1v.1v-4.4l.1-4v-3.9v.1l.2-4.2l.2-4l.2-4.1v.1l.3-3.9v-.1l.2-3.5l.1-3.8v-.1l.1-3.6V612l-.1-3.6V605l-.1-3.1l-.1-3.1v-3.1l-.1-3.8V581.1l-.1-3.1v.1v-3.4l-.1-3.5v-.1l-.2-3.7l-.3-3.5l-.5-3.3v-.1l-.5-3v.1l-.5-2.9l-.6-3.2v.2l-.2-3l-.1-.2l-.8-3.1l.1 .1l-.5-3.1v-.1l-.6-2.1v-.3l-1-2.1l.1 .3l-.3-1.7v-.1l-.4-1.4v-.2l-.9-2.2v.2l-.4-2l-.4-1.9l-.1-.2l-.9-2.4v.2l-.5-2l.1 .1l-.4-2.1l-.4-1.9l-.3-1.7v.3v-1.5v.2l.3-1.5v-.4l-.3-2.1v.3l.2-2v-.2l-.1-2.7l-.1-2.6v.2l.4-2.8v-3.4l-.2-2.5V498l-.2-2.6l-.3-2.8v.1V490l-.1-3.1v-.1l-.5-3.4v-.1l-.5-2.8l-.1-.1l-.8-2.8l.1 .4v-7.3v.1l.3-2.5v-.2l.1-2.7v-.1l-.2-2.9v.2l.3-2.5v.1l.5-2.3v-.1l.3-2l-.1 .3l.6-1.8l.1-.3v-3.1v.2l.3-1.4l-.1-.5l-.6-2.2l-.1 .9l.7-1.2v-.2l.4-1.1c.1-.2 .1-.5 0-.7l-.3-1c-.1-.5-.6-.8-1.2-.7c-.5 .1-.9 .5-.9 1.1c0 .5 .4 1 1 1l.6 .1c.5 .1 .9-.2 1.1-.7c.2-.4 0-.9-.3-1.2l-.2-.1l-.8-.6c-.2-.2-.4-.3-.7-.3h-.1c-.4 .1-.7 .4-.8 .8c-.1 .5 .1 .9 .5 1.1l.5 .2c.3 .1 .6 .1 .9-.1c.3-.2 .4-.5 .4-.8c0-.4-.3-.6-.6-.8l-.4-.1c-.3-.2-.6-.1-.8 .1c-.3 .1-.4 .5-.4 .8c.1 .3 .3 .5 .6 .7l.4 .1l.4 .1h.3c.3 0 .6-.2 .7-.5c.1-.3 0-.6-.2-.9l-.5-.6c-.2-.2-.5-.3-.8-.2c-.3 .1-.6 .4-.6 .7c0 .3 .1 .6 .4 .7l.8 .5l-.2-.2l.2 .3v-.8l-.7 1.1c-.2 .2-.1 .5 .1 .7c.2 .2 .6 .2 .8 0Z" class="g0_34"/>
<path d="M659.3 452.3h-.1h.3h-.3c-.3 0-.6 .1-.7 .3l-.1 .2c-.2 .1-.2 .4-.2 .6l.3 .6h.1l-.4-.8v.4l-.1 .9L658 457v2l.6 2.6v.1l.9 3l.8 3.3v-.1l.5 3.3l.6 3.2l.5 3.2v.1l.8 3.4l.9 3.8l1 4.1l-.1-.1l.4 3.8v.1l.6 4.1v-.1l.1 4l.1 4.5l.2 5l.1 4.8v.1l.2 5l.1 5.2l.4 5.3l.1 5.4l.3 5.9v-.1v5.6L667 553l-.2 5.6l-.1 5.5l-.2 5.4l-.1 5.4l-.1 5.2l-.1 5.3v5.2v-.1l-.2 5v-.1l-.3 4.6v9.2l.3 4.5v.1l.5 4.6l.4 4.3v.1l.6 4l.7 4.4l.8 4.6l.8 4.5v-.2l.3 4.5l.2 3.7v-.1v4l-.2 4.3v.2l.2 4.4l.1 4.7l.2 4.8v.1l.4 4.8h-.1l.3 4.7l.4 4.6l.4 3.9l.5 3.4l.5 3.7v.1l.9 4l.7 3.3l.8 3.3l.6 2.5l-.1-.3l.1 2.1v.1l.3 2.7v.1l.5 3.1v-.1l.2 2.9l.3 2.9v.3l.6 2.3v-.4v1.7l.1 .5l.5 1.2l.1 .3l.6 .9l.2-2l-.4 .4c-.2 .2-.3 .4-.4 .7l-.1 .2l-.1 .4c-.1 .5 0 1.1 .4 1.5c.4 .4 .9 .6 1.5 .5l.2-.1h.2l.3-.1h-1l.5 .2c.6 .1 1.2-.1 1.6-.5c.4-.5 .4-1.1 .1-1.7l-.1-.1c-.3-.5-.8-.8-1.4-.7l-.6 .1c-.5 0-.9 .4-1.1 .8c-.1 .5 0 1 .3 1.3c.3 .4 .8 .5 1.3 .4l.5-.2c.3-.1 .6-.3 .7-.5c.2-.3 .2-.6 .1-.9l-.1-.4c-.2-.5-.7-.9-1.2-.8c-.6 .1-.9 .6-.9 1.1v.5c.1 .6 .5 1 1.1 1.1c.5 0 1-.4 1.1-1c.1-.5-.2-1.1-.8-1.2l-.5-.2c-.5-.1-1 0-1.3 .4c-.3 .3-.4 .8-.3 1.3c.2 .4 .6 .8 1.1 .8l.6 .1c.8 .1 1.5-.4 1.6-1.2c.1-.7-.4-1.4-1.2-1.5c-.7-.1-1.4 .4-1.5 1.2l-.1 .2c-.1 .7 .4 1.4 1.1 1.6c.7 .2 1.5-.2 1.7-.9c.3-.7 0-1.5-.7-1.8l-.4-.3c-.3-.1-.5-.1-.7-.1l-.3-.1l.3 .1l-.2-.1c-.8-.1-1.6 .4-1.9 1.2c-.2 .8 .2 1.6 1 1.9c.8 .3 1.7-.1 2-.8l.2-.3v-.1l.1-.3l-.4 .6l.4-.4c.6-.5 .7-1.4 .3-2l-.5-.9l.1 .2l-.5-1.2l.1 .6v-1.7l-.1-.3l-.6-2.4l.1 .3l-.3-2.9l-.2-2.9l-.1-.1l-.4-3.1v.1l-.3-2.7v.1l-.1-2.1v-.3l-.6-2.6l-.8-3.2l-.6-3.3l-.9-4v.2l-.5-3.8l-.5-3.4l.1 .1l-.5-3.9v.1l-.4-4.6v.1l-.2-4.7l-.4-4.9v.1l-.1-4.8l-.1-4.7l-.3-4.5v.1l.2-4.3v-4.2l-.2-3.7l-.4-4.6v-.1l-.8-4.5v.1l-.8-4.6v-.1l-.8-4.3l-.6-3.9l-.4-4.3l-.5-4.6l-.3-4.5v.1v-9v.1l.2-4.6l.2-5v-5.2v.1v-5.4l.1-5.1l.1-5.4l.1-5.4l.1-5.5l.2-5.6v-5.6l-.1-5.6v-.1l-.3-5.8l-.2-5.4l-.4-5.4v.1l-.2-5.2l-.2-5v-4.9l-.2-5v.1l-.1-4.5v-.1l-.2-4v-.2l-.6-4.1v.1l-.4-3.9v-.1l-1-4.1l-.9-3.8l-.8-3.4l-.5-3.2l-.6-3.2l-.6-3.3l-.9-3.3v-.1l-.9-3l-.6-2.5l.1 .2l-.1-1.8v.1l.1-2.5l.1-1h-.1v-.4c0-.5-.4-.9-.8-.9c-.5-.1-.9 .2-1.1 .6v.1c-.2 .3-.1 .7 .1 .9c.3 .2 .6 .3 .9 .2c.3-.1 .6-.3 .6-.7l-.1 .3l.1-.1l-.3 .3l.3-.2c.2-.1 .3-.3 .3-.5c.1-.3 0-.5-.2-.7c-.2-.2-.4-.3-.7-.2Z" class="g0_34"/>
<path d="M504.4 734.9l.6-.6c.4-.4 .4-1.1 .1-1.5c-.4-.4-1-.5-1.5-.1l-.2 .1c-.1 .1-.3 .3-.3 .5l-.2 .4l-.1 .5v1.1l.1 .7v.2l.4 1.9v.1l.6 1.9l-.1-.1l.5 2.3v.1l.7 2.6v-.1l.6 3.1h-.1l.6 3.4l.6 4.1v-.1l.5 4.3v-.1l.3 4.5V764l.2 4v3.3v-.1l-.1 2.7l-.1 1.5v1.3v-.1v.4c0 .3 .1 .5 .2 .7l.2 .2c.2 .4 .7 .5 1.1 .4c.4-.2 .7-.6 .6-1l-.1-.4c0-.5-.4-.8-.9-.8c-.4 0-.8 .3-.8 .8l-.1 .4c-.1 .4 .3 .9 .7 1c.5 .1 1-.1 1.1-.6l.1-.3l-.1 .3l.2-.3l.2-.6l.1-1.2l.2-1.5l.3-2.7v-7.5l-.3-4.5v-.1l-.5-4.2V755l-.7-4v-.1l-.5-3.4h-.1l-.6-3.1v-.1l-.7-2.7v.1l-.5-2.3v-.1l-.7-1.9l.1 .1l-.4-1.9v.1l-.1-.7l-.1-.9v.1v-.8l-.1-.2c-.1-.4-.6-.8-1-.8c-.5 0-.9 .4-1.1 .8l-.2 .9c-.1 .4 .1 .8 .4 .9c.3 .2 .7 .2 1-.1Z" class="g0_34"/>
<path d="M504.1 730.1h.3h-.2l1.3 .1l3.1 .3l1.5 .3h.1l1.6 .2v-.1l5.1 .8l5.3 .7l5.3 .7l-.2-.1l2.6 .9l2.6 .9l-.5-.2l1.9 1.6l-.1-.1l1.9 2l-.2-.4l1.3 2.5l-.1-.5l.4 2.8v-.2l-.2 3.3v-.2l-.6 3.5l.1-.2l-1.4 4.2v.1l-1 4l.1-.2l-1.6 4.1v-.1l-1.9 3.8l.1-.3l-1.8 2.6v-.1l-2 2.5l.2-.2l-1.6 1.3l-1.3 1.1l.3-.2l-1.1 .6l.5-.2l-1.2 .2l.8 .1l-1-.6v.1l-1.9-1.3c-.4-.4-1.1-.3-1.4 .2c-.3 .4-.2 1.1 .2 1.4l1.8 1.5l-.2-.2l.8 1c.3 .2 .6 .4 .9 .4l1.2 .1c.2 0 .4 0 .6 0l1.2-.5l.5-.2l1.3-1.1l1.6-1.2l.2-.3l2-2.5h.1l1.9-2.6l.1-.3l1.9-3.8V762l1.6-4.1v-.2l1-4v.1l1.3-4.2v-.2l.6-3.5v-.2l.1-3.3v-.3l-.4-2.8l-.1-.5l-1.4-2.4l-.2-.3l-2-2l-.1-.1l-1.8-1.6l-.5-.2l-2.6-1l-2.7-.8l-.2-.1l-5.4-.6h.1l-5.3-.8l-5.1-.7h-.1l-1.6-.2l-1.5-.2h-.1l-3.1-.3l-1.2-.1l-.2-.1h-.3c-.5 0-.9 .3-1.2 .7c-.2 .4-.2 1 0 1.4c.3 .4 .7 .7 1.2 .7Z" class="g0_34"/>
<path d="M573.8 724.2l-.3-.3c-.3-.2-.6-.4-1-.3c-.4 0-.8 .2-1 .5l-.3 .4l-.1 .1l-1.3 2l-.2 .4l-.2 1.2v.1l-.3 1.4v2.2l.1 2.8v-.1l.1 3.4v3.9v-.1l-.3 3.9v-.1l-.3 3.5V749l-.2 3v-.1l-.5 2.7l-.1 .1l-.3 2.5l-.4 2.1v-.1l-.4 1.6v.1l-.2 1.2l.1-.3l-.2 .4l.6-.6l-.3 .1l.8-.2h-.3l1.2 .7l-.6-1l-.1-.1l-.7-.9l.2 .3l-.9-1.9l-1-2v.1l-.9-2.3l.1 .1l-.8-2.5l-.1-.1l-.9-2.2l-1.1-2.2l-.7-1.7l-.1-.3l-1-1.5l.1 .3l-.3-.8l-.1-.5c-.2-.3-.4-.6-.8-.7l-.1-.1l.4 .2l-.2-.2l-.4-.2l-.4-.2c-.2-.1-.4-.1-.6-.1h-.3l1 .4l-.1-.1c-.4-.4-1-.5-1.5-.3c-.5 .3-.8 .7-.9 1.3v.7l.1 1.4v.2l.3 1.6l-.1-.3v3l.2 3v-.3l-.5 3.3l-.4 3.8v.1l-.3 4v-.2l-.7 3.8v.1l-.5 3.6v-.3l-.9 3h.1l-.8 2.2v-.1l-.8 2.1l-.1 .1l-.2 .8v.1l-.1 .6c-.1 .5 .2 .9 .6 1.1c.4 .2 .9 0 1.1-.3c.3-.3 .4-.8 .1-1.2l-.2-.3c-.2-.3-.6-.5-1.1-.3c-.4 .1-.6 .5-.5 .9v.4c.1 .4 .3 .7 .6 .8c.4 .1 .8 .1 1.1-.2l.4-.4l.2-.2l.5-.7l.1-.2l.9-1.9v-.1l.9-2.2v-.1l.9-3l.1-.2l.5-3.6v.1l.7-3.8v-.2l.4-4l.3-3.8v.1l.5-3.3v-.3l-.1-3v.1l-.1-2.9v-.2l-.3-1.6v.2v-2c-.1-.7-.6-1.3-1.3-1.4c-.7-.1-1.3 .4-1.5 1c-.2 .7 .1 1.4 .7 1.7l.2 .1c.3 .1 .6 .2 1 .1l.2-.1h-.8l.4 .1l-.3-.2l.2 .2l.5 .2l.1 .1l-.9-.9l.1 .5l.3 .8l.2 .3l.9 1.5l-.1-.2l.7 1.7v.1l1 2.3l.9 2.1v-.1l.8 2.4v.1l.9 2.3v.1l1 2l.9 1.9l.2 .3l.7 .9l-.1-.2l.5 .9c.3 .5 .8 .7 1.3 .7h.3c.3 0 .6-.1 .8-.2l.2-.2c.3-.1 .5-.4 .6-.6l.1-.5l.1-.3l.2-1.2v.1l.3-1.5l.1-.1l.3-2.2l.4-2.5v.1l.5-2.8v-.1l.3-3l.3-3.4v-.1l.3-3.8v-7.5l-.1-2.7V730v.2l.2-1.4l.3-1.1l-.2 .4l1.2-1.9l.3-.5l-.3 .3l.3-.2c.3-.5 .3-1.1 0-1.6Z" class="g0_34"/>
<path d="M586.3 761.8l.1 2.2l.1 .1l.1 .8c.2 .7 .8 1.2 1.5 1.2c.7 0 1.3-.6 1.4-1.3l.1-.2v-1l.1-1.4v-2.3l-.2-3.2v-.1l-.4-3.2l-.4-4l-.6-4l-.5-4.2l-.4-4.3v.1v-4.2v.1l.2-4.3v.2l.5-3.3l.6-3.3v.2l.6-2.4v.1l.6-1.7l.1-.1l.3-.9l-1.1 .9h.4h-.5h.1l-1.2-1.1l.1 .3v.2l.4 .9l.1 .1l.4 1l1 1.9L591 724l1.5 2.8h-.1l1.4 3.1l1.6 3.8v-.1l1.3 3.9l1.4 4.4l1.5 4.4l-.1-.1l1 4.2l1.1 4l.8 3v-.1l.5 2.4l.1 .3l.4 1l.1 .2l.2 .4c.2 .5 .7 .7 1.2 .7c.5-.1 .9-.4 1-.8c.2-.5 0-1-.3-1.3l-.6-.5c-.4-.3-1.1-.3-1.5 .1c-.4 .4-.4 1.1-.1 1.6l.5 .5c.3 .3 .8 .5 1.3 .3c.5-.1 .8-.6 .8-1.1v-.9l-.3-1.1v.1l-.4-2.5v-.1l-.8-3l-1.1-3.9l-1-4.2v-.1l-1.5-4.4l-1.4-4.4l-1.4-3.9v-.1l-1.6-3.8l-1.4-3.2l-.1-.1l-1.4-2.8l-1.2-2.4l-1-2l-.5-.9v.1l-.4-.9l.1 .2l-.1-.3c-.2-.7-.8-1.1-1.5-1h-.2l-.4 .1c-.5 .1-.9 .5-1 .9l-.3 1v-.1l-.7 1.7v.1l-.7 2.4v.1l-.6 3.3l-.6 3.3l-.1 .2l-.1 4.3v4.3l.3 4.4h.1l.4 4.3h.1l.5 4l.5 3.9l.4 3.3v-.1l.2 3.2V760v3.6v-.2l-.1 .8V764v.3c-.2 .6 .1 1.3 .8 1.6c.6 .3 1.4 .1 1.8-.4c.4-.6 .3-1.4-.2-1.9l-.5-.6l.3 .4l-.8-2c-.2-.4-.6-.7-1.1-.6c-.5 .1-.8 .6-.7 1Z" class="g0_34"/>
<path d="M587.7 740.6l4.2 2.6v-.1l1.3 1l.3 .1l1.5 .6l.2 .1l1.5 .3h.1l1.6 .2h.4l1.1-.2l.1-.1l1.5-.5c.6-.2 .9-.9 .7-1.6c-.2-.6-.9-1-1.6-.8l-1.4 .4h.4h-1h.2l-1.6-.3h.1l-1.4-.3h.1l-1.5-.4l.2 .1l-1.5-.8l-4.5-2.1c-.5-.2-1.1 0-1.3 .4c-.3 .5-.1 1.1 .3 1.4Z" class="g0_34"/>
<path d="M658.5 740.3l3.2 2.7c.5 .4 1.1 .3 1.5-.1c.4-.3 .4-1 .1-1.4c-.4-.4-1-.5-1.4-.2l-.9 .5l.3-.2l-1.2 .4c-.4 .1-.8 .4-1 .9l-.4 1.1l-.1 .3l-.2 1.4v2.2l.1 .5l.9 2.3l1 2.9l1.1 3.3l1.5 4.2V761l1.1 4.3l1.1 4.2v-.1l.8 4v.1l.8 3.3v-.1l.4 2.8v-.1l.1 2.1c0 .6 .4 1 1 1c.5 0 1-.4 1-1v-2.2l-.1-2.8l-.1-.1l-.5-3.4l-.7-4.1v-.1l-1.1-4.2l-1-4.3l-.1-.1l-1.4-4.3l-1.1-3.3v.1l-1-3l-.9-2.4l.1 .5v-1.9v.2l.1-1.4v.2l.3-1.2l-.7 .9l1.2-.6l.4-.4l.6-.8c.2-.3 .2-.6 .2-.8c-.1-.3-.2-.6-.5-.7l-3.6-2.3c-.4-.2-.8-.2-1.1 .2c-.2 .3-.2 .8 .2 1.1Z" class="g0_34"/>
<path d="M669.4 757.6l.2-1.7l.3-1.7l.2-1.6l.2-1.7l.1-.2v-2v.1l.3-1.8l.3-2.5v.1l.4-2l-.1 .1l.5-1.9v-.1l.5-2.3l-.1 .1l.6-1.6v-.1l.5-1.9l.4-1.4l.3-.8v-.1l.1-.3l-.2 .4l.1-.1l-1.5 .2l.3 .1l-.1-.1l.1 .2l.8 .6h.1l.8 .6l-.2-.1l1.4 1.4v-.1l1.4 1.7V737l1.5 2.2v-.1l1.7 2.6v-.1l1.5 2.5h-.1l1.3 2.4l-.1-.4l.2 2.1v-.3l-.3 2l.1-.3l-.7 1.9l.1-.2l-1.1 2.1l.2-.2l-1.6 2l.2-.1l-1.6 1.5l.3-.2l-2.2 1.3l.2-.1l-2.1 .7l.8-.1l-1.8-.5l.3 .1l-1.7-.9l.5 .5l-1.2-1.8l.1 .1l-1.1-2.1v.2l-.6-2v.1l-.3-1.6v.3l.2-1.4v.2l.3-1.3l-.2 .5l.8-1l-.3 .3l1.1-.6l-.6 .1l1.7 .1h-.2l2.3 .5l-.4-.1l2.6 1.4h-.1l3 1.9h-.1l3.1 2.5l-.1-.1l2.9 3.1l-.1-.1l2.7 3.1v-.1l2.3 3l2.2 3l.1 .1l2.2 2.6l.1 .1l2.3 2.4l-.1-.1l1.7 2.1l.2 .2l1.4 1.1l.9 .8c.3 .3 .8 .4 1.2 .3l.5-.1c.3 0 .6-.2 .8-.4l.7-.8v-.1l1-1.3c.3-.6 .2-1.3-.3-1.7c-.5-.3-1.2-.2-1.6 .3l-1.1 1.3l.3-.3l-.8 .6l1-.2l-.5-.1l.7 .3l-.9-.8l-.1-.1l-1.3-1.1l.2 .2l-1.8-2.1l-.1-.1l-2.3-2.3l-2.3-2.5h.1l-2.3-2.9h-.1l-2.4-3l-2.7-3h-.1l-2.9-3l-.1-.1l-3.1-2.5l-.1-.1l-3.1-1.9v-.1l-2.5-1.4l-.3-.1l-2.3-.5l-.2-.1H671l-.6 .1l-1.1 .5l-.3 .3l-.9 .9l-.2 .4l-.4 1.3l-.1 .1l-.2 1.5v.3l.2 1.7v.2l.6 2l.1 .2l1 2.2l.1 .2l1.2 1.8c.1 .2 .3 .3 .5 .5l1.6 .9l.3 .1l1.9 .5c.2 .1 .5 .1 .8 0l2.1-.7l.2-.1l2.3-1.2l.2-.2l1.7-1.5l.1-.2l1.6-2l.1-.3l1.1-2.1v-.2l.7-1.9l.1-.3l.2-2v-.4l-.3-2.1l-.2-.5l-1.3-2.4H684l-1.5-2.5v-.1l-1.8-2.5v-.1l-1.6-2.1l-.1-.1l-1.5-1.6l-.1-.1l-1.4-1.4l-.2-.1l-.8-.5l-.8-.6l-.2-.1l-.1-.1l-.2-.1c-.4-.3-1-.2-1.4 .1l-.1 .2l-.3 .4l-.1 .4l-.3 .9l-.1 .1l-.4 1.4v.1l-.4 1.9v-.1l-.6 1.6v.1l-.4 2.4l-.5 1.9l-.3 2v.1l-.3 2.4l-.2 1.8v.2l.1 2v-.1l-.2 1.8v1.8l.1 1.6v.1l.1 1.7c0 .2 .2 .5 .5 .5c.3 0 .5-.2 .5-.5Z" class="g0_34"/>
<path d="M729 725l-.1 .1c-.3 .6-.1 1.5 .5 1.9c.6 .4 1.5 .3 1.9-.3c.5-.6 .5-1.4-.1-2c-.4-.4-1-.5-1.6-.3c-.5 .2-.9 .7-.9 1.3l-.1 .8l-.1 2.8v2.1l.1 2.5v5.6v-.1l-.1 3.3v3.4l.1 3.8l.2 3.7l.3 3.3v-.1l-.1 2.7v-.1l-.1 1.7V761l-.1 1.2v.8c.1 .6 .5 1.2 1.1 1.4c.6 .2 1.3 0 1.7-.5c.4-.5 .5-1.2 .1-1.8l-.4-.7l-.2-.2l-.8-.9l.1 .1l-1.6-2.2l.1 .2l-1.5-2.8l-1.7-3.2l-2.1-3.6l.1 .1l-1.9-4l-2-3.7l.1 .1l-1.7-3.5l.1 .2l-1-2.9l-.7-1.8l-.1-.1l-.8-1.6l-.2-.2l-.4-.5l-.5-.5c-.1-.2-.4-.3-.7-.4h-.1c-.5-.1-1 0-1.3 .4l-.2 .2l.1-.1l-.2 .1l.1-.1l-.2 .1c-.2 .2-.3 .4-.5 .6l-.3 .8l-.1 .1l-.4 1.1l-.1 .4l-.2 3l-.1 3.5v.2l.2 4.4v.1l.5 4.8v-.1l.1 4.6l.3 4.4v-.1l.2 3.7l.1 3.2v.2l.3 1.8l.4 1.5l.2 .3l.6 .8c.3 .4 .9 .5 1.3 .2c.4-.3 .5-.8 .3-1.3l-.5-.8l.1 .5v-3.3v.1V762l-.1-3.7l-.3-4.4v.1l-.1-4.6l-.5-4.9v.1l-.2-4.5v.2l.1-3.5l.3-3l-.1 .4l.4-1l-.1 .2l.4-.8l-.4 .5l.2-.2l.2-.2l.1-.1l.2-.2l.1-.2l-.9 .6h.1l-1.3-.4l.5 .4H713l.5 .4l-.2-.3l.8 1.6l-.1-.1l.7 1.7V736l.9 2.9l.1 .1l1.6 3.5l.1 .1l1.9 3.6l-.1-.1l1.8 4l.1 .1l2 3.6l1.7 3.2l1.5 2.8l.1 .1l1.6 2.2l.1 .1l.7 .9l-.2-.3l.4 .8c.3 .6 1 1 1.7 .8c.7-.1 1.2-.7 1.2-1.4v-.7v.1l.1-1.1v-.1l.1-1.6v-3l-.3-3.2l-.3-3.7v.1l-.1-3.7v-3.3v.1l.2-3.3v-.2l-.1-2.9v-7.1l.1-2.8v.1l.1-.8l-.5 1c.5-.5 .6-1.4 .2-2c-.4-.6-1.3-.7-1.9-.4l-.1 .1c-.2 .1-.3 .2-.4 .4Z" class="g0_34"/>
<path d="M739.8 763.8l.3-1.3l-.1 .1l.5-1.5V761l.7-2.8l.9-3.7v.1l1.3-4.4l1.4-4.9l1.5-5l1.4-5v-.1l.8-4.3v.1l1-3.6l.9-3.1l.7-2.4l-.1 .2l.7-1.7l.1-.4l.2-1.8l-.2 .4l.3-.6l.1-.2l.1-.6l-.1 .2v-.1c.1-.2 .1-.4 .1-.7c-.1-.3-.2-.6-.4-.8l-.2-.2l.4 .9l-.1 .6c.3-.7 .1-1.4-.5-1.8c-.6-.5-1.3-.5-1.9 0c-.5 .4-.8 1.1-.5 1.8l.3 .9l.1 .1l1.1 2.9l1.2 3.1l1.3 3.3v-.1l1.3 3.9l-.1-.1l1.2 4.2v-.1l.8 4.3l1 4.5v-.1l.6 4.3l.4 3.5v.1l.5 2.9v-.3v2.2l-.1 1l.1-.2l-.2 .7c-.1 .8 .4 1.5 1.1 1.7c.8 .2 1.6-.3 1.8-1c.2-.8-.2-1.6-.9-1.8l-.5-.2l.7 .5l-.5-.7l.1 .2l-1.1-1.9l-1.4-2.3l-1.9-3.2c-.2-.4-.8-.6-1.3-.3c-.5 .2-.6 .8-.4 1.3l1.8 3.2l1.1 2.4v-.1l.9 2l.3 .7l.3 .5l.4 .4c.3 .3 .9 .4 1.4 .3c.5-.1 .9-.5 1-1l.2-.7l.1-.3l.1-1v-2.6l-.5-2.9l-.4-3.5l-.6-4.4v-.1l-1-4.5l-.8-4.2l-.1-.1l-1.1-4.2l-.1-.1l-1.3-3.9v-.1l-1.2-3.3l-1.3-3.1l-1.1-2.9v.1l-.4-1l-.9 2l-.6 .1h.1l-.7-.2l.2 .1l.6 .2l-1.1-.9v.1l-.1-.6v.6v-.3l-.2 .5v.4l-.2 1.8l.1-.4l-.7 1.6v.2l-.7 2.4l-.9 3l-1.1 3.6v.2l-.9 4.2v-.1l-1.4 5v-.1l-1.6 5l-1.4 5v-.1l-1.4 4.4v.1l-.9 3.7l-.7 2.8l-.4 1.5v.2l-.2 1.3c-.1 .8 .4 1.5 1.2 1.7c.8 .1 1.5-.4 1.7-1.2Z" class="g0_34"/>
<path d="M748.5 734.6l2.3-1.1h-1.1l1.4 .8l.1 .1l1.2 .6l.5 .1l1.8 .3h-.1l2.4 .5h.5l2.2-.3l.3-.1l2.1-.9c.5-.2 .8-.8 .7-1.3l-.7-5.8l-.1-.2l-2.2-7c-.2-.7-.9-1-1.5-.8c-.7 .2-1.1 .9-.9 1.5l2.2 7v-.2l.6 5.8l.8-1.4l-2 .8h.4l-2.2 .1h.5l-2.5-.6h-.1l-1.8-.2h.2l-1.2-.4l-1.6-.6c-.3-.2-.8-.1-1.1 .2l-2.1 1.5c-.4 .3-.5 .8-.2 1.3c.2 .4 .8 .5 1.2 .3Z" class="g0_34"/>
<path d="M717 545.1v.6l.2 1v-.2v.8l.1 1.7v-.1v1.7v-.1l-.1 1.5v6.7v-.3l-.1 .9l-.1 .4v.5l.1 .4c.1 .3 .2 .5 .4 .6l.7 .7l.2 .2l1 .5h.1l1.4 .6l.1 .1l1.7 .5h.1l1.4 .3h.1l2 .3l1.6 .3l-.1-.1l1.6 .4l-.2-.1l1.4 .6h-.1l.5 .3l-.3-.3l.7 .8l-.3-.5l.2 .7v-.1v.7V567l.1 1v-.1v1l-.1 1.3v-.1l-.1 1.5v-.1l-.2 1.6l-.2 1.6v-.1l-.4 1.7v-.1l-.6 1.8v.1l-.5 1.9v.1l-.5 2.1l-.1 .1l-.3 2.5v.2l-.1 2.3v.3l.4 2v.2l.6 1.8c0 .3 .2 .5 .4 .7l1.3 1l.1 .1l1.8 1.2l.4 .2l2.5 .6h.1l3.1 .6h.2l3.3 .2h3.7l2.9-.6h.2l2.6-.7l2.1-.6l1.7-.5l1.2-.3c.2 0 .4-.1 .6-.3l.8-.7c.2-.3 .3-.7 .3-1l-.1-1.2c-.1-.7-.6-1.1-1.3-1.1c-.6 .1-1.1 .6-1 1.2v1.2l.6-1l-.9 .5l.6-.2l-1.2 .1h-.2l-1.8 .4h-.1l-2.1 .6l-2.6 .7h.1l-3 .5h.3h-3.4h.1l-3.3-.1h.1l-3-.5h.1L734 592l.4 .2l-1.8-1.1h.1l-1.3-1l.5 .7l-.6-1.8v.2l-.3-2.1v.3l.1-2.3l-.1 .1l.3-2.6v.2l.5-2.1l.5-2v.1l.6-1.8v-.1l.4-1.7l.1-.1l.2-1.6v-.1l.2-1.6l.1-1.5v-.1l.1-1.3v-1l-.1-.1v-1.1l-.2-.7v-.1l-.2-.7l-.2-.5l-.7-.8l-.4-.3l-.5-.3h-.1l-1.4-.6l-.3-.1l-1.6-.3l-.1-.1l-1.6-.2h.1l-2.1-.3l.1 .1l-1.5-.3l.2 .1l-1.7-.6l.1 .1l-1.4-.6h.1l-.9-.5l.2 .2l-.7-.7l.4 .7l-.1-.5v.5l.1-.5l.1-.9v-1.2v.1V555l-.1-1.3l-.1-1.7v.1v-3.3l-.2-1.6l-.1-.9v-.2l-.4-1c0-.2-.2-.3-.4-.4l-.2-.2c-.2-.1-.5-.1-.7 0c-.2 .2-.4 .4-.4 .6Z" class="g0_34"/>
<path d="M490.1 539v.2c.1 .4 .2 .8 .5 1c.3 .3 .7 .4 1.1 .3h.2c.7-.1 1.2-.8 1-1.5c-.1-.8-.8-1.2-1.5-1.1h.4c-.4-.1-.8 0-1.1 .2c-.3 .3-.5 .7-.5 1.1v1.1l.4 2.7v-.2l.1 2.4V545l-.3 2.3v-.1l-.6 3v-.1L489 553l-.8 2.4v.1l-.6 2.3v.4l-.1 1.7l.1 .2l.1 1.5c.1 .3 .2 .7 .5 .9l.9 1l.4 .3l1.7 .7l.4 .1l1.9 .3l2.4 .1h4.7l2.1 .1h.1l1.7 .1h-.2l1.4 .2l-.1-.1l1.1 .3l-.3-.1l.7 .3l-.4-.2l.6 .5l-.5-1l.1 1.1V566l-.2 .9l.1-.1l-.4 1.7l-.5 1.8l.1-.1l-.6 1.9l-.6 2.1v.1l-.4 1.9v.1l-.3 1.8v.2l.1 1.7v.3l.4 1.6l.2 .4l.8 1.3l.1 .2l1.2 1.4l.3 .2l1.6 1.1l.2 .1l1.9 .9l.1 .1l2.4 .9l.1 .1l2.6 .8l.2 .1l2.6 .5l.1 .1l2.5 .3h.2l2.3 .1c.2 0 .4 0 .6-.1l1.9-.8c.5-.2 .9-.7 .9-1.2c.1-.6-.1-1.1-.6-1.5c-.4-.3-1-.4-1.5-.2l-1.9 .8l.5-.1l-2.3 .2h.4l-2.5-.4h.1l-2.7-.7l.1 .1l-2.6-.9h.1l-2.4-.9h.1l-1.9-.9l.2 .1l-1.6-1.1l.3 .2l-1.3-1.3l.2 .2l-.8-1.2l.2 .4l-.4-1.6l.1 .3l-.1-1.6v.2l.3-1.8v.1l.3-1.9v.1l.6-2.1l.5-1.8l.1-.1l.4-1.8v-.1l.4-1.7v-.1l.1-1V565c-.1-.3-.2-.7-.5-1l-.5-.5l-.3-.2l-.8-.4l-.3-.1l-1.2-.3h-.1l-1.4-.2h-1.9h.1l-2.2-.1H496h.1l-2.4-.2h.1l-1.9-.2l.5 .2l-1.6-.8l.4 .3l-.9-1.1l.4 .9l-.2-1.6v.2l.1-1.7l-.1 .4l.6-2.4l.7-2.4h.1l.7-2.9v-.1l.7-3v-.1l.3-2.4v-.2l-.2-2.4v-.2l-.5-2.7v.2v-.8l-1.1 1.3h-.4c.7 .1 1.4-.4 1.5-1.1c.2-.7-.3-1.4-1-1.5h-.2v-.1l1.2 1.4V539c0-.4-.3-.9-.7-1.2c-.4-.2-1-.2-1.4 0c-.4 .3-.7 .8-.7 1.2Z" class="g0_34"/>
</svg>