<svg viewBox="0 0 1466 825" version="1.1" xmlns="http://www.w3.org/2000/svg">
<defs>
<clipPath id="c0_7"><path d="M-.2 825.3V-.2H1467V825.3Z"/></clipPath>
<clipPath id="c1_7"><path d="M1343.9 529.1V456.4H1452v72.7Z"/></clipPath>
<clipPath id="c2_7"><path d="M1346.3 621.3V549.7h102.9v71.6Z"/></clipPath>
<clipPath id="c3_7"><path d="M1346.4 716.6V641.9h103v74.7Z"/></clipPath>
<clipPath id="c4_7"><path d="M1353 825V744.6h96.2V825Z"/></clipPath>
<style>
.g0_7{fill:#F00;}
.g1_7{fill:none;stroke:#000;stroke-width:1.466;stroke-linejoin:round;}
</style>
</defs>
<image clip-path="url(#c0_7)" preserveAspectRatio="none" x="0" y="-7" width="1467" height="840" href="img/1.jpg"/>
<path fill-rule="evenodd" d="M295.3 348.2l3.8 2.4l-3 3.3l-3.1-2l-2.4 2.5l-3.7-2l2.8-3.6l3.3 2.1Zm835-2.9l4.7 2.4l-2.2 4.1l-4.6-2.4l-2.2 4l-4.6-2.5l2.2-4.1l4.5 2.3Zm103.6-10l7 3.7l-3.6 6.6l-7-3.6Zm-367.7 0l6.9 3.7l-3.6 6.6l-6.9-3.6ZM1038 335l5.6 3l-3.1 5.8l-4.4-2.2l-2.5 4.8l-5.5-3l3.3-6.1l4.3 2.4Zm-137.1 0l5.6 3l-3.1 5.8l-4.5-2.2l-2.5 4.8l-5.4-3l3.3-6.1l4.2 2.4Zm-517.5 0l5.5 3l-3.1 5.8l-4.4-2.2l-2.5 4.8l-5.4-3l3.3-6.1l4.2 2.4Zm697.1-10.2c-.8 1-1.5 1.7-2 2.1c-.4 .4-1.3 1-2.4 1.8c1.5-.1 2.6-.3 3.2-.5c.6-.2 1.5-.6 2.7-1.2Zm-844.9 0c-.9 1-1.6 1.7-2.1 2.1c-.4 .4-1.2 1-2.4 1.8c1.5-.1 2.6-.3 3.2-.5c.7-.2 1.6-.6 2.7-1.2Zm785-4.9c-.7 0-1.1 .2-1.5 .7c-.4 .5-.6 1-.6 1.6c0 .7 .4 1.3 1.2 1.8c.8 .4 1.8 .7 3.1 .7h1.2c-.6-3.2-1.7-4.8-3.4-4.8Zm380.4-.2c-.8 0-1.4 .9-2 2.7c1.1 .4 1.8 .7 2.4 .9c1.6 .6 2.5 .9 2.7 .9c.4 0 .7-.2 .7-.5c0-.4-.5-1.2-1.3-2.2c-1-1.2-1.8-1.8-2.5-1.8Zm-84.1 0c-.8 0-1.5 .9-2 2.7c1 .4 1.8 .7 2.3 .9c1.7 .6 2.6 .9 2.8 .9c.4 0 .6-.2 .6-.5c0-.4-.4-1.2-1.3-2.2c-.9-1.2-1.8-1.8-2.4-1.8Zm-634.9 0c-.8 0-1.5 .9-2 2.7c1 .4 1.8 .7 2.4 .9c1.6 .6 2.5 .9 2.7 .9c.4 0 .6-.2 .6-.5c0-.4-.4-1.2-1.3-2.2c-.9-1.2-1.7-1.8-2.4-1.8Zm-208.7-.9c-1.3 0-2.8 .4-4.4 1.2c-1.7 .9-4 2.4-7.2 4.7h7.8c6.6 0 9.9-1.1 9.9-3.1c0-.9-.7-1.6-2.2-2.2c-1.1-.4-2.4-.6-3.9-.6Zm-47.1 0c-1.3 0-2.8 .4-4.4 1.2c-1.7 .9-4.1 2.4-7.2 4.7h7.8c6.6 0 9.8-1.1 9.8-3.1c0-.9-.7-1.6-2.1-2.2c-1.2-.4-2.5-.6-3.9-.6Zm712.9-5.5c1.2 0 2.1 .5 2.8 1.4c.6 .9 1 2.1 1 3.6c0 1.1-.1 2-.4 2.7c-.2 .7-.6 1.6-1.4 2.8c-.5-1.4-.9-2.3-1.3-2.8c-.4-.4-.9-.6-1.6-.6c-1.1 0-2.6 .6-4.4 1.8c-1.9 1.3-2.8 2.3-2.8 3.1c0 .5 .3 .8 1.1 .9c.5 .2 1.4 .2 2.5 .2c.3 0 .6 0 .9 0c.3 0 .6 0 .8 0c2.2 0 3.7 .2 4.4 .7c.6 .3 .9 1.1 .9 2.2c0 2.1-.4 4.2-1.2 6.1c-1 2.5-2.4 4.3-4.3 5.3c-2.4 1.4-4.8 2.4-7.4 3.2c-2.5 .9-4.9 1.3-7.1 1.3c-6.2 0-9.3-2.8-9.3-8.3c0-2.9 .3-5.3 1-7.3c.8-2.3 2.5-5.3 5-9.2l1.3 .9c-1.4 2.5-2.6 4.7-3.3 6.6c-.7 2-1.1 3.7-1.1 5.1c0 3.8 2.1 5.6 6.4 5.6c1.6 0 3.1-.1 4.5-.4c1.4-.3 2.9-.7 4.3-1.2c1-.3 2.1-.8 3.3-1.3c2-.9 3-1.3 3.2-1.4c.9-.5 1.3-.9 1.3-1.3c0-.2-.5-.3-1.4-.4c-1 0-1.7 0-2.1 0c-3 0-5.1-.5-6.1-1.3c-.9-.8-1.3-2.1-1.3-4c0-.9 .3-2.1 .9-3.5c.6-1.4 1.3-2.7 2.3-4.1c1.5-2.1 2.9-3.7 4.4-4.7c1.4-1.1 2.8-1.7 4.2-1.7Zm-291.7-.9c-.6 .2-1.1 .5-1.5 .7c-1.1 .5-2 1.1-2.6 1.6c-.5 .4-.9 .7-1.2 1.1c-.4 .4-.6 .7-.6 1c0 .2 .4 .5 1 .6c.7 .2 1.4 .3 2.1 .3c.4 0 .9-.2 1.4-.4c.4-.3 1.1-.7 2-1.4Zm-257.4 0c-.6 .2-1.1 .5-1.5 .7c-1.1 .5-2 1.1-2.6 1.6c-.5 .4-.9 .7-1.2 1.1c-.4 .4-.6 .7-.6 1c0 .2 .4 .5 1 .6c.7 .2 1.4 .3 2.1 .3c.4 0 .9-.2 1.4-.4c.5-.3 1.1-.7 2-1.4Zm-229.4 0c-.6 .2-1.1 .5-1.4 .7c-1.1 .5-2 1.1-2.7 1.6c-.4 .4-.8 .7-1.2 1.1c-.4 .4-.6 .7-.6 1c0 .2 .4 .5 1.1 .6c.7 .2 1.4 .3 2.1 .3c.4 0 .9-.2 1.3-.4c.5-.3 1.2-.7 2-1.4Zm679.6-.9c1.5 1.6 2.5 3.4 3 5.3c.6 1.8 .9 4.6 .9 8.2v7.8h-17l-.6 3c-.8 1.7-1.9 3.4-3.3 5c-2.9 3.4-5.8 5.1-8.6 5.1c-1.7 0-3.5-.6-5.4-1.6c-2-1.1-5-3.1-9-6.2l1.2-1.8c2.2 1.4 3.9 2.4 5.3 2.9c1.1 .4 2.4 .6 3.8 .6c2 0 3.9-.6 5.8-1.6c2.2-1.3 4.5-3.4 6.9-6.2c-.9 .2-1.5 .2-2.1 .2c-2 0-3.5-.6-4.7-1.9c-1.2-1.3-1.7-3-1.7-5.2c0-3 .6-5.9 2-8.7c1.5-3 3.2-4.5 5.1-4.5c1.6 0 3 1.1 4.1 3.3c1.1 2.2 1.6 4.8 1.6 7.8v1.7h13.6c-.2-1.4-.6-2.5-1.2-3.5c-.3-.5-1-1.4-2.1-2.6Zm-44 0c1.5 1.6 2.5 3.4 3 5.3c.6 1.8 .9 4.6 .9 8.2v7.8H983.5v.7c0 1.2-.7 2.8-2.1 4.8c-1.4 2-3 3.7-4.9 5.2c-2 1.6-3.8 2.4-5.3 2.4c-1.7 0-3.6-.5-5.6-1.5c-1.8-.8-4.5-2.5-8.2-5.1l1.2-1.8c1.8 1.1 3.3 2 4.4 2.4c1.1 .4 2.2 .6 3.5 .6c1.4 0 2.8-.4 4.1-1.2c1.4-.7 3.3-2.2 5.6-4.3c3.3-2.9 5-5.2 5-6.8c0-.8-.3-1.8-1-3.1c-.7-1.5-1.6-2.7-2.6-3.7l1.7-8c1.3 1.4 2.4 3 3.1 4.8c.7 1.8 1.1 3.8 1.1 6.1v.4h13.6c-.2-1.4-.6-2.5-1.2-3.5c-.3-.5-1-1.4-2.1-2.6Zm-783.9 0c1.5 1.6 2.5 3.4 3 5.3c.6 1.8 .8 4.6 .8 8.2v7.8H197.5v-.1h-1.1c-.9-.1-1.7-.2-2.5-.4c-1.4-.3-2.9-.8-4.3-1.5c-1.2 .8-2.2 1.3-3.1 1.6c-.9 .2-2.3 .4-4.1 .4h-4.8c-1.4 0-2.4-.4-3.2-1.1c-.8-.7-1.5-1.8-2.1-3.4c-1.1 1.6-2.3 2.8-3.6 3.5c-1.2 .7-2.6 1-4.2 1h-4.3v-8.1h4.3c2.1 0 3.8-.6 5.2-1.8c1.8-1.5 2.7-3.9 2.7-7l2 .3c0 .7-.1 1.4-.1 2.2c0 .8-.1 1.7-.1 2.7c0 1 .4 1.9 1.1 2.5c.7 .7 1.5 1.1 2.4 1.1h3.6c2.5 0 4.2-.4 5.2-1.1c1.3-.8 1.9-2.3 1.9-4.5c0-.5 .1-.9 .4-1.3c.2-.2 .6-.5 1.1-1l1.2-.9c0 .4 0 .9 .1 1.6c0 .6 0 1 0 1.2c0 1.1-.2 2.6-.5 4.4c.8 .3 1.6 .7 2.5 .9c.9 .3 1.9 .5 2.9 .6c0-.7-.3-1.6-.8-2.6c-.5-1.1-.7-1.8-.7-2.2c0-.5 .1-.9 .2-1.2c0-.1 .3-.4 .7-.9l2.5-3.4c.5 1.2 .9 2.3 1.1 3.4c.3 1 .4 2.3 .4 3.8v3.2h13.7c-.3-1.4-.7-2.5-1.2-3.5c-.3-.5-1-1.4-2.1-2.6Zm108.5-1.3c-.6 0-1.2 .3-1.6 .8c-.5 .5-.7 1.2-.7 1.9c0 .4 .1 .8 .5 1.1c.4 .3 .8 .5 1.4 .5c.5 0 .9-.1 1.4-.4c.5-.3 1.1-.7 1.7-1.4c-.5-.9-1-1.6-1.4-1.9c-.4-.4-.8-.6-1.3-.6Zm.5-7.6c2.1 0 4.1 1.9 5.9 5.5c1.9 3.6 2.8 7.5 2.8 11.5v13.2H308.4c-.9 0-1.6 0-2 0c-.4 .1-.6 .2-.6 .4c.6 .4 1.2 .6 1.7 .7c.5 .1 .8 .3 1 .5c.1 .2 .2 .6 .2 1c0 1.4-.4 3.1-1.2 5.1c-.8 1.9-1.6 3.2-2.4 3.6c-.7 .6-2.9 1.4-6.5 2.2c-3.6 .8-6.8 1.2-9.4 1.2c-3.7 0-6.7-.8-9-2.4c-2.3-1.5-3.5-3.5-3.5-6c0-2.5 .5-4.8 1.5-7c1.2-2.6 3.5-6 6.8-10.1l1.8 1.3c-2.1 2.5-3.5 4.5-4.3 6.1c-.8 1.6-1.2 3.2-1.2 4.7c0 2.1 .9 3.7 2.6 4.7c1.8 1.1 4.5 1.6 8.2 1.6c1.9 0 4.5-.4 7.9-1.1c3.4-.7 5.1-1.3 5.1-1.8c0-.2-.7-.4-2-.6c-1.3-.2-2.7-.3-4.2-.3c-2.3 0-3.4-.5-3.4-1.5c0-.5 .2-1.3 .8-2.5c.4-.8 .7-1.6 1.1-2.4c.8-1.7 2.2-3 4.3-4c2-1 4.2-1.5 6.5-1.5h19c0-1.8-.1-3-.2-3.7c-.1-1.2-.5-2.2-.9-3c-.7 1.2-1.5 2.2-2.6 2.8c-1.1 .7-2.2 1-3.4 1c-1.6 0-3-.5-4.1-1.5c-1-1.1-1.6-2.4-1.6-4c0-2.4 .7-5.1 2.2-8.4c1.5-3.5 3.1-5.3 4.7-5.3Zm692.5-1.4c.4 0 .7 .1 .9 .4c.3 .2 .4 .5 .4 .9c0 .3-.1 .6-.2 .8c0 .3-.2 .6-.5 1.1c-1-.5-1.7-.8-2-.8c-.4 0-.8 .1-1.1 .3c-.2 .1-.5 .3-.7 .5c0 .2 .5 .6 1.5 1.2c.9 .5 1.6 .8 2 .8c.3 0 1-.2 2.2-.5c-.3 .6-.5 1-.8 1.3c-.2 .2-.6 .4-1 .6l-6.5 1.9c.4-.7 .8-1.2 1.1-1.4c.3-.3 .8-.6 1.6-.8c-.6-.3-1-.7-1.2-1c-.3-.3-.4-.6-.4-.9c0-.2 .1-.5 .3-.9c.1-.3 .3-.6 .6-.9c1.3-1.8 2.6-2.6 3.8-2.6Zm-164.7-2.1l2.8 18.6c.5 2.9 1.1 4.9 1.8 5.9c.5 .7 1.2 1.1 2 1.1h17.5c-.3-1.4-.7-2.5-1.2-3.5c-.3-.5-1-1.4-2.1-2.6l2.4-7.1c1.5 1.6 2.5 3.4 3 5.3c.6 1.8 .8 4.6 .8 8.2v7.8H855.7c-.7 0-1.4-.2-2-.5c-1.1-.6-2.1-1.6-2.9-3.1c-1.1-2.1-1.8-5-2.1-8.7c-1.3 1.7-2.4 2.9-3.2 3.6c-1 1-2 1.5-2.7 1.5c-.4 0-.8-.1-1.4-.2l-3.7-.7c-1.5-.3-2.5-.6-2.8-.7c-.4-.1-.6-.4-.6-.7c0-.6 .7-2.3 2.1-5.1c1.4-2.9 2.4-4.6 3-5.3c.5-.5 1.4-1.2 2.7-2.1c.7-.5 1.8-1.2 3.2-2l1.6-.9c-.1-.3-.1-.6-.2-.9c0-.3 0-.5 0-.8c0-.7 .2-1.7 .5-2.8c.4-1.2 1-2.6 1.9-4.3Zm-257.4 0l2.8 18.6c.5 2.9 1.1 4.9 1.8 5.9c.5 .7 1.2 1.1 2 1.1h5c.6 0 1 0 1.3-.1c.6 0 1.1-.1 1.7-.1c-1-1.5-1.6-2.7-2-3.7c-.3-.9-.5-1.9-.5-3.1c0-2.9 1.3-5.5 3.7-7.7c2.5-2.3 5.3-3.4 8.6-3.4c2.2 0 4.3 .8 6.3 2.2c1.9 1.4 3.2 3 4.1 4.9l-1.3 1.1c-1.5-.6-2.8-1-3.7-1.2c-.9-.1-2.1-.2-3.4-.2c-2.5 0-4.6 .2-6.4 .6c-2.3 .5-3.5 1.2-3.5 2.1c0 1.4 2.8 3.6 8.3 6.8l15.2-4.3l-3.4 8.4c-5.3 1.7-9.7 2.9-13.2 3.8c-3.1 .8-5.6 1.4-7.7 1.6c-1.6 .3-3.1 .4-4.6 .4h-4.5c-.7 0-1.4-.2-2-.5c-1.1-.6-2.1-1.6-2.9-3.1c-1.1-2.1-1.8-5-2.1-8.7c-1.3 1.7-2.4 2.9-3.2 3.6c-1 1-2 1.5-2.7 1.5c-.4 0-.8-.1-1.4-.2l-3.7-.7c-1.5-.3-2.5-.6-2.8-.7c-.4-.1-.5-.4-.5-.7c0-.6 .6-2.3 2-5.1c1.4-2.9 2.4-4.6 3-5.3c.5-.5 1.4-1.2 2.7-2.1c.7-.5 1.8-1.2 3.2-2l1.6-.9c-.1-.3-.1-.6-.2-.9c0-.3 0-.5 0-.8c0-.7 .2-1.7 .5-2.8c.4-1.2 1-2.6 1.9-4.3Zm680.1-.8v7.1c0 0-.9 .2-2.5 .8c-1.9 .6-3.5 1.1-4.6 1.6c-1.7 .7-2.5 1.2-2.5 1.5c0 .2 .7 1 2.1 2.4c1.9 1.8 3.6 3.5 4.9 5.1c2.1 2.6 3.9 5.1 5.2 7.7v8.3h-46.9c-1.2 0-2.2 0-3-.1c-.8 0-1.4 0-1.8 0c-.8-.1-1.6-.3-2.6-.7c-1.6-.5-3-1.7-4-3.4c-1-1.7-1.6-3.6-1.6-5.7c0-.8 .1-1.7 .2-2.6c.1-.8 .3-1.8 .7-2.8c.4-1.2 .8-2.2 1.4-3.2c.5-.9 1.1-1.8 1.7-2.7l1.6 1.1c-.4 .8-.7 1.5-1 2.2c-.3 .6-.6 1.2-.7 1.7c-.3 .9-.5 1.8-.5 2.7c0 1.1 .4 2.1 1.1 3c.8 .9 1.7 1.5 2.9 1.8c.7 .2 1.6 .3 2.7 .4c1.1 .1 2.3 .2 3.5 .2h21.6c-.6-1.6-1-2.7-1.4-3.3c-.4-.7-1.1-1.7-2-2.8l2.7-7c1.5 2.2 2.4 4.1 2.9 5.9c.4 1.6 .6 3.9 .6 6.8v.4h17.2c-.8-1-1.5-1.8-2.3-2.5c-.6-.5-1.4-1.2-2.4-2c-1.1-.9-2.2-1.7-3.3-2.6l-1 1c-1.8-1.7-2.8-2.8-3.2-3.1c-.9-1.2-1.5-2.5-1.5-4c0-2 .2-3.4 .5-4.2c.4-1.1 1.2-2.2 2.5-3.1c1.2-.8 2.4-1.5 3.7-2.1c1-.5 2.4-1.2 4.1-1.8c.8-.4 2.5-1 5-2Zm-277.6-.4l5.4 3l-3.3 6.1l-4.2-2.4l-2.4 4.7l-5.6-3l3.2-5.8l4.4 2.2Zm-468.2 0l5.5 3l-3.1 5.8l-4.4-2.2l-2.5 4.8l-5.4-3l3.3-6.1l4.2 2.4Zm-29.4-.6l6.9 3.7l-3.6 6.7l-6.9-3.6Zm162.7-.7l6.9 3.7l-3.6 6.7l-6.9-3.6Zm-449.9 0l6.9 3.7l-3.6 6.7l-6.9-3.6Zm1165.3 0c1.1 1.6 2 3.2 2.4 4.7c.5 1.8 .8 4.1 .8 6.9v5.9c0 4.1 .3 7 .8 8.6c.5 1.3 1.2 2 2.1 2h8c1.8 0 3.2-.3 4.3-.7c1.3-.6 2.3-1.5 2.8-2.9c1.1-2.5 2.6-4.6 4.3-6.2c1.6-1.5 2.9-2.2 4-2.2c1 0 2.3 1.5 3.8 4.6c1.5 3.2 2.3 6.2 2.3 8.9v6.5c-2.1 0-4.5-.4-7.3-1.2c-2.5-.7-4.7-1.5-6.6-2.5c-1.1 1.7-2.6 2.8-4.3 3.4c-.8 .2-1.9 .4-3.3 .4h-8c-2.3 0-4-1-5-2.9c-1.2-2.1-1.7-5.6-1.7-10.6v-8.5c0-2-.3-3.5-.8-4.5c-.3-.5-.9-1.3-1.8-2.3Zm-26.7 0l1.8 10.5c.7 4 1.1 7.5 1.4 10.5c.2 2.2 .3 4.4 .3 6.5c0 1.8-.2 3.4-.7 4.8c-.4 1.5-1.2 3.5-2.4 5.9l-1.8-.7c.5-2.5 .8-4.6 .8-6.2c0-1.2-.1-3-.3-5.3c-.2-2.4-.5-4.7-.8-7c-.3-2.3-.8-5-1.4-8.2c-.3-1.1-.4-1.9-.4-2.3c0-.6 .3-1.7 .9-3.1c.6-1.5 1.5-3.3 2.6-5.4Zm-158 0l1.8 10.5c.6 4 1.1 7.5 1.3 10.5c.2 2.2 .3 4.4 .3 6.5c0 1.8-.2 3.4-.6 4.8c-.4 1.5-1.2 3.5-2.4 5.9l-1.8-.7c.5-2.5 .7-4.6 .7-6.2c0-1.2-.1-3-.3-5.3c-.2-2.4-.4-4.7-.7-7c-.3-2.3-.8-5-1.5-8.2c-.2-1.1-.3-1.9-.3-2.3c0-.6 .3-1.7 .9-3.1c.6-1.5 1.5-3.3 2.6-5.4Zm-310 0c1.2 1.6 2 3.2 2.5 4.7c.5 1.8 .8 4.1 .8 6.9v5.9c0 4.1 .2 7 .8 8.6c.4 1.3 1.1 2 2.1 2H904c-.3-1.4-.7-2.5-1.2-3.5c-.3-.5-1-1.4-2.1-2.6l2.4-7.1c1.5 1.6 2.5 3.4 3 5.3c.5 1.6 .8 3.9 .8 6.9v1H908c.6 0 1 0 1.3-.1c.6 0 1.1-.1 1.7-.1c-1-1.5-1.6-2.7-2-3.7c-.3-.9-.5-1.9-.5-3.1c0-2.9 1.3-5.5 3.7-7.7c2.5-2.3 5.3-3.4 8.6-3.4c2.2 0 4.3 .8 6.3 2.2c1.9 1.4 3.2 3 4.1 4.9l-1.3 1.1c-1.5-.6-2.8-1-3.7-1.2c-.9-.1-2.1-.2-3.4-.2c-2.5 0-4.6 .2-6.4 .6c-2.3 .5-3.5 1.2-3.5 2.1c0 1.4 2.8 3.6 8.3 6.8l15.2-4.3L933 327c-5.3 1.7-9.7 2.9-13.2 3.8c-3.1 .8-5.6 1.4-7.7 1.6c-1.6 .3-3.1 .4-4.6 .4H886.2c-2.3 0-4-1-5-2.9c-1.2-2.1-1.8-5.6-1.8-10.6v-8.5c0-2-.2-3.5-.8-4.5c-.2-.5-.8-1.3-1.8-2.3Zm-166.9 0l1.8 10.5c.7 4 1.1 7.5 1.4 10.5c.2 2.2 .3 4.4 .3 6.5c0 1.8-.2 3.4-.6 4.8c-.5 1.5-1.3 3.5-2.5 5.9l-1.7-.7c.4-2.5 .7-4.6 .7-6.2c0-1.2-.1-3-.3-5.3c-.2-2.4-.5-4.7-.8-7c-.3-2.3-.8-5-1.4-8.2c-.3-1.1-.4-1.9-.4-2.3c0-.6 .3-1.7 .9-3.1c.7-1.5 1.5-3.3 2.6-5.4Zm-159.3 0l1.8 10.5c.7 4 1.1 7.5 1.4 10.5c.2 2.2 .3 4.4 .3 6.5c0 1.8-.2 3.4-.7 4.8c-.4 1.5-1.2 3.5-2.4 5.9l-1.8-.7c.5-2.5 .8-4.6 .8-6.2c0-1.2-.1-3-.3-5.3c-.2-2.4-.5-4.7-.8-7c-.3-2.3-.8-5-1.4-8.2c-.3-1.1-.4-1.9-.4-2.3c0-.6 .3-1.7 .9-3.1c.6-1.5 1.5-3.3 2.6-5.4Zm-300.5 0l1.8 10.5c.7 4 1.1 7.5 1.4 10.5c.2 2.2 .3 4.4 .3 6.5c0 1.8-.2 3.4-.6 4.8c-.5 1.5-1.3 3.5-2.5 5.9l-1.7-.7c.4-2.5 .7-4.6 .7-6.2c0-1.2-.1-3-.3-5.3c-.2-2.4-.5-4.7-.8-7c-.3-2.3-.8-5-1.4-8.2c-.3-1.1-.4-1.9-.4-2.3c0-.6 .3-1.7 .9-3.1c.7-1.5 1.5-3.3 2.6-5.4Zm829.6-.2l1.2 .4c0 1.3 .3 2.1 .9 2.5c.5 .4 2.1 1 4.8 1.8c0 1.4-.2 2.8-.4 4.2c-.2 .6-.4 1.7-.9 3.2l-2.1-.8c0 2.3-.3 4.7-.9 7c-.5 2.3-1.4 4.6-2.6 6.9c1.1 2 1.7 3.1 1.9 3.5c.4 .9 .7 1.7 .7 2.4v1c0 .4-.2 2.5-.5 6c-2.3 1.1-4.3 1.8-6.1 2.1c-1.7 .3-4.4 .5-7.9 .5v-8.8c2-1.1 3.4-1.9 4.3-2.6c.9-.7 2-2 3.4-3.7c-2.3-2.8-3.9-4.9-5-6c-.8-1-1.9-2.1-3.2-3.4c-.3 .7-.5 1.1-.7 1.3c-.1 .3-.3 .4-.4 .4c-.5 0-1.4-.4-2.7-1.3c-1.2-.7-2.1-1.3-2.7-1.9c-.6-.6-1.1-1.7-1.4-3.3c-.4-1.5-.6-3.6-.6-6c0-1.1 .1-1.8 .2-2.2c.2-.4 .4-.7 .9-.7c.7 0 2.3 1.2 4.7 3.4c2 1.9 3.8 3.8 5.4 5.7c1.3 1.4 2.4 2.7 3.4 4.1c.9 1.2 2.3 3.3 4.3 6.3c.9-1.7 1.5-3.9 1.8-6.5c.2-1.6 .3-3.5 .3-5.7c-.7-.3-1.2-.7-1.4-1c-.3-.3-.4-.8-.4-1.3c0-1.2 .1-2.4 .4-3.6c.2-1.3 .7-2.6 1.3-3.9Zm-845 0l1.2 .4c0 1.3 .3 2.1 .9 2.5c.5 .4 2.1 1 4.8 1.8c0 1.4-.1 2.8-.4 4.2c-.1 .6-.4 1.7-.9 3.2l-2.1-.8c0 2.3-.3 4.7-.8 7c-.6 2.3-1.5 4.6-2.7 6.9c1.1 2 1.7 3.1 1.9 3.5c.5 .9 .7 1.7 .7 2.4v1c0 .4-.1 2.5-.5 6c-2.2 1.1-4.3 1.8-6 2.1c-1.8 .3-4.5 .5-8 .5v-8.8c2-1.1 3.5-1.9 4.3-2.6c.9-.7 2-2 3.4-3.7c-2.3-2.8-3.9-4.9-4.9-6c-.9-1-2-2.1-3.3-3.4c-.3 .7-.5 1.1-.7 1.3c-.1 .3-.3 .4-.4 .4c-.5 0-1.4-.4-2.7-1.3c-1.1-.7-2.1-1.3-2.7-1.9c-.6-.6-1.1-1.7-1.4-3.3c-.4-1.5-.5-3.6-.5-6c0-1.1 0-1.8 .2-2.2c.1-.4 .4-.7 .8-.7c.8 0 2.3 1.2 4.7 3.4c2 1.9 3.8 3.8 5.4 5.7c1.3 1.4 2.4 2.7 3.4 4.1c.9 1.2 2.4 3.3 4.3 6.3c.9-1.7 1.5-3.9 1.9-6.5c.2-1.6 .3-3.5 .3-5.7c-.8-.3-1.2-.7-1.5-1c-.3-.3-.4-.8-.4-1.3c0-1.2 .1-2.4 .4-3.6c.3-1.3 .7-2.6 1.3-3.9Zm1096.3-2.2l1.4 .7c0 .2 0 .5-.1 1c0 .7 .4 1.3 1.2 1.9c.8 .6 1.9 1.2 3.5 1.9c-.1 1.2-.4 2.5-.8 3.7c-.3 1.2-.7 2.3-1.1 3.2l-1.1-.4l3.3 18.5v8.1H1324v-.2h-.3c-1.5-.2-3.1-.6-4.9-1.1c-2.5-.7-4.7-1.5-6.5-2.5c-1.2 1.7-2.6 2.8-4.3 3.4c-.8 .2-1.9 .4-3.3 .4h-3.8v.7c0 1.2-.7 2.8-2.1 4.8c-1.4 2-3.1 3.7-4.9 5.2c-2.1 1.6-3.9 2.4-5.3 2.4c-1.8 0-3.7-.5-5.7-1.5c-1.7-.8-4.4-2.5-8.2-5.1l1.3-1.8c1.8 1.1 3.2 2 4.3 2.4c1.1 .4 2.3 .6 3.6 .6c1.3 0 2.7-.4 4.1-1.2c1.4-.7 3.2-2.2 5.6-4.3c3.3-2.9 4.9-5.2 4.9-6.8c0-.8-.3-1.8-.9-3.1c-.7-1.5-1.6-2.7-2.7-3.7l1.7-8c1.4 1.4 2.4 3 3.2 4.8c.7 1.8 1.1 3.8 1.1 6.1v.4h3.8c1.7 0 3.2-.3 4.2-.7c1.4-.6 2.3-1.5 2.8-2.9c1.2-2.5 2.6-4.6 4.4-6.2c1.5-1.5 2.9-2.2 4-2.2c1 0 2.2 1.5 3.7 4.6c1.2 2.4 1.9 4.7 2.2 6.8l.1 .6h10.8l-3.6-20.3l-1.9-1.2c0-1.2 .1-2.4 .5-3.6c.4-1.5 1.2-3.3 2.3-5.4Zm-158 0l1.4 .7c0 .2-.1 .5-.2 1c0 .7 .5 1.3 1.3 1.9c.7 .6 1.9 1.2 3.5 1.9c-.2 1.2-.4 2.5-.8 3.7c-.3 1.2-.7 2.3-1.2 3.2l-1-.4l3.2 18.5v8.1h-27.8c-1.3 0-2.3-.3-3-.9c-.8-.6-1.3-1.7-1.3-3.3c0-.8 .1-1.8 .2-2.8c.1-1 .2-2 .4-3.1h1.1c.2 .7 .5 1.2 1.1 1.5c.5 .3 1.2 .5 1.9 .5h10.3c-.5-2.9-1.3-5.3-2.4-7c-.9-1.5-2.2-2.7-3.9-3.8l2.2-9.3c2.5 1.9 4.4 4.4 5.4 7.4c1 2.9 1.5 6.6 1.5 11.2v1.5h10.7l-3.6-20.3l-1.9-1.2c0-1.2 .2-2.4 .6-3.6c.4-1.5 1.2-3.3 2.3-5.4Zm-398.4 0l1.4 .7c0 .2-.1 .5-.1 1c0 .7 .4 1.3 1.2 1.9c.7 .6 1.9 1.2 3.5 1.9c-.2 1.2-.4 2.5-.8 3.7c-.3 1.2-.7 2.3-1.1 3.2l-1.1-.4l3.2 18.5h1.2c.5 0 1 0 1.2-.1c.6 0 1.2-.1 1.8-.1c-1-1.5-1.7-2.7-2-3.7c-.3-.9-.5-1.9-.5-3.1c0-2.9 1.2-5.5 3.7-7.7c2.4-2.3 5.3-3.4 8.6-3.4c2.2 0 4.3 .8 6.3 2.2c1.8 1.4 3.2 3 4 4.9l-1.2 1.1c-1.6-.6-2.8-1-3.7-1.2c-1-.1-2.1-.2-3.5-.2c-2.4 0-4.6 .2-6.4 .6c-2.2 .5-3.4 1.2-3.4 2.1c0 1.4 2.8 3.6 8.3 6.8l15.1-4.3l-3.3 8.4c-5.4 1.7-9.8 2.9-13.3 3.8c-3 .8-5.6 1.4-7.7 1.6c-1.5 .3-3 .4-4.6 .4H767.1c-.7 0-1.3 0-1.8 .1c-.4 .2-.6 .3-.6 .6c0 .1 .5 .3 1.4 .7c1 .4 1.5 1 1.5 1.8c0 1.1-.2 2.4-.5 3.9c-.3 1.6-.8 2.9-1.4 4.2c-.4 .9-1.6 2-3.6 3.3c-2.2 1.3-4.6 2.4-7.3 3.2c-3.1 1-6.1 1.5-8.9 1.5c-3.2 0-5.7-.7-7.3-2.2c-1.7-1.5-2.5-3.7-2.5-6.5c0-3.2 .4-5.9 1.1-8.2c.9-2.8 2.8-6.4 5.6-10.9l1.7 1.2c-1.9 3.2-3.1 5.7-3.8 7.6c-.7 1.9-1.1 3.8-1.1 5.6c0 1.8 .6 3.3 1.8 4.3c1.2 1.1 2.8 1.6 4.8 1.6c2.6 0 5.3-.4 8.2-1.2c2.6-.7 4.9-1.5 6.7-2.5c1.9-1 2.9-1.8 2.9-2.4c0-.2-.6-.3-1.7-.4c-1.1 0-2.1 0-3 0c-2.1 0-3.5-.1-4.1-.3c-.6-.1-.9-.5-.9-1.1c0-1 .2-2.2 .6-3.4c.4-1.1 .8-2.1 1.4-2.7c1.3-1.6 2.8-2.9 4.6-4.1c2-1.2 3.8-1.8 5.4-1.8h14.2l-3.7-20.3l-1.9-1.2c0-1.2 .2-2.4 .6-3.6c.4-1.5 1.2-3.3 2.3-5.4Zm-78.5 0l1.4 .7c0 .2 0 .5-.1 1c0 .7 .4 1.3 1.2 1.9c.8 .6 2 1.2 3.6 1.9c-.2 1.2-.5 2.5-.8 3.7c-.4 1.2-.8 2.3-1.2 3.2l-1.1-.4l3.3 18.5v8.1H689.2v-.2h-.4c-1.5-.2-3.1-.6-4.9-1.1c-2.4-.7-4.6-1.5-6.5-2.5c-1.2 1.7-2.6 2.8-4.3 3.4c-.8 .2-1.9 .4-3.3 .4H645.3c-2.3 0-4-1-5-2.9c-1.2-2.1-1.8-5.6-1.8-10.6v-8.5c0-2-.2-3.5-.8-4.5c-.2-.5-.8-1.3-1.8-2.3l3.2-7.4c1.2 1.6 2 3.2 2.5 4.7c.5 1.8 .8 4.1 .8 6.9v5.9c0 4.1 .2 7 .8 8.6c.4 1.3 1.1 2 2.1 2h17.8c-.3-1.4-.7-2.5-1.2-3.5c-.3-.5-1-1.4-2.1-2.6l2.4-7.1c1.5 1.6 2.5 3.4 3 5.3c.5 1.6 .8 3.9 .8 6.9v1h3.8c1.8 0 3.2-.3 4.2-.7c1.4-.6 2.3-1.5 2.8-2.9c1.2-2.5 2.6-4.6 4.4-6.2c1.6-1.5 2.9-2.2 4-2.2c1 0 2.3 1.5 3.7 4.6c1.2 2.4 2 4.7 2.3 6.8v.6H702l-3.6-20.3l-1.9-1.2c0-1.2 .2-2.4 .5-3.6c.5-1.5 1.2-3.3 2.3-5.4Zm-159.3 0l1.4 .7c0 .2 0 .5-.1 1c0 .7 .4 1.3 1.2 1.9c.8 .6 1.9 1.2 3.5 1.9c-.1 1.2-.4 2.5-.8 3.7c-.3 1.2-.7 2.3-1.1 3.2l-1.1-.4l3.3 18.5v8.1H452c-1.5 0-2.6-.4-3.4-1.1c-.9-.7-1.6-1.8-2.2-3.4c-1.3 1.7-2.5 2.9-3.6 3.6c-1.1 .6-2.5 .8-4.2 .8l-2.2 .1H404.8c-1.4 0-2.5-.4-3.3-1.1c-.9-.7-1.6-1.8-2.2-3.4c-1.3 1.7-2.5 2.9-3.6 3.6c-1.1 .6-2.5 .8-4.2 .8h-2.1v.1H368.9c-.7 0-1.3-.2-1.9-.5c-1.2-.6-2.2-1.6-2.9-3.1c-1.1-2.1-1.8-5-2.1-8.7c-1.4 1.7-2.4 2.9-3.2 3.6c-1.1 1-2 1.5-2.7 1.5c-.4 0-.9-.1-1.5-.2l-3.6-.7c-1.6-.3-2.5-.6-2.9-.7c-.3-.1-.5-.4-.5-.7c0-.6 .7-2.3 2.1-5.1c1.4-2.9 2.3-4.6 3-5.3c.5-.5 1.3-1.2 2.6-2.1c.8-.5 1.8-1.2 3.2-2l1.6-.9c0-.3-.1-.6-.1-.9c0-.3-.1-.5-.1-.8c0-.7 .2-1.7 .6-2.8c.3-1.2 .9-2.6 1.8-4.3l2.9 18.6c.4 2.9 1 4.9 1.8 5.9c.4 .7 1.1 1.1 1.9 1.1h17.5c-.2-1.4-.6-2.5-1.2-3.5c-.3-.5-1-1.4-2.1-2.6l2.4-7.1c1.5 1.6 2.5 3.4 3.1 5.3c.4 1.6 .7 3.9 .8 6.9v1l2.1-.1c2.3 0 4-.5 5.2-1.7c1.4-1.3 2.3-3.7 2.7-7l2 .3c0 .7-.1 1.3-.1 1.8c-.1 1.3-.1 2.3-.1 3.1c0 1.2 .3 2 .9 2.6c.6 .7 1.4 1 2.3 1c1 0 1.9-.2 2.8-.6c.8-.4 2.1-1.2 3.8-2.5l10.7-7.6c1.3-.9 2.2-1.6 2.8-2c1.5-.8 2.9-1.3 4.2-1.3c2.3 0 4.1 .8 5.4 2.4c1.5 1.8 2.3 4.6 2.3 8.3v3.3l2.2-.1c2.3 0 4.1-.5 5.2-1.7c1.4-1.3 2.3-3.7 2.7-7l2.1 .3c-.1 .7-.1 1.3-.2 1.8c0 1.3-.1 2.3-.1 3.1c0 1.2 .3 2 .9 2.6c.6 .7 1.4 1 2.4 1c.9 0 1.8-.2 2.7-.6c.8-.4 2.1-1.2 3.9-2.5l10.6-7.6c1.3-.9 2.2-1.6 2.9-2c1.4-.8 2.8-1.3 4.2-1.3c2.2 0 4 .8 5.3 2.4c1.5 1.8 2.3 4.6 2.3 8.3v3.3h19.2c-2.5-2.5-4.7-4.3-6.7-5.4c-1.8-1-3.6-1.5-5.3-1.5c-.5 0-1 .1-1.4 .1c-.5 .1-1.1 .2-1.9 .4c1.1-2.6 2.3-4.4 3.6-5.6c1.4-1.2 2.9-1.8 4.6-1.8c1.3 0 2.6 .3 3.8 1c1.2 .6 2.6 1.6 4.1 3.1c1.2 1.1 2.9 2.8 5.1 5.2c1.4 1.6 2.6 2.7 3.4 3.2c.8 .5 1.9 .9 3.5 1.3H529c-.2-1.4-.6-2.5-1.2-3.5c-.3-.5-.9-1.4-2-2.6l2.3-7.1c1.5 1.6 2.5 3.4 3.1 5.3c.5 1.6 .7 3.9 .8 6.9v1h10.7l-3.6-20.3l-1.9-1.2c0-1.2 .1-2.4 .5-3.6c.4-1.5 1.2-3.3 2.3-5.4Zm377.3-1.5l6.9 3.7l-3.5 6.6l-7-3.6Zm71-1.7l5.5 2.8l-3 6.2l-5.6-2.9Zm167.8-1.1l6.9 3.7l-3.5 6.7l-7-3.7Zm-837.4-.3l7 3.7l-3.6 6.7l-7-3.6ZM590 288.2l5.3 2.8l-3.3 5.5l-4.2-2.4l-2.4 4.7l-5.5-3l3.1-5.2l4.4 2.2Zm-229.4 0L366 291l-3.3 5.5l-4.3-2.4l-2.3 4.7l-5.6-3l3.1-5.2l4.4 2.2Z" class="g0_7"/>
<path d="M295.3 348.2l3.8 2.4l-3 3.3l-3.1-2l-2.4 2.5l-3.7-2l2.8-3.6l3.3 2.1Zm835-2.9l4.7 2.4l-2.2 4.1l-4.6-2.4l-2.2 4l-4.6-2.5l2.2-4.1l4.5 2.3Zm103.6-10l7 3.7l-3.6 6.6l-7-3.6Zm-367.7 0l6.9 3.7l-3.6 6.6l-6.9-3.6ZM1038 335l5.6 3l-3.1 5.8l-4.4-2.2l-2.5 4.8l-5.5-3l3.3-6.1l4.3 2.4Zm-137.1 0l5.6 3l-3.1 5.8l-4.5-2.2l-2.5 4.8l-5.4-3l3.3-6.1l4.2 2.4Zm-517.5 0l5.5 3l-3.1 5.8l-4.4-2.2l-2.5 4.8l-5.4-3l3.3-6.1l4.2 2.4Zm697.1-10.2c-.8 1-1.5 1.7-2 2.1c-.4 .4-1.3 1-2.4 1.8c1.5-.1 2.6-.3 3.2-.5c.6-.2 1.5-.6 2.7-1.2Zm-844.9 0c-.9 1-1.6 1.7-2.1 2.1c-.4 .4-1.2 1-2.4 1.8c1.5-.1 2.6-.3 3.2-.5c.7-.2 1.6-.6 2.7-1.2Zm785-4.9c-.7 0-1.1 .2-1.5 .7c-.4 .5-.6 1-.6 1.6c0 .7 .4 1.3 1.2 1.8c.8 .4 1.8 .7 3.1 .7h1.2c-.6-3.2-1.7-4.8-3.4-4.8Zm380.4-.2c-.8 0-1.4 .9-2 2.7c1.1 .4 1.8 .7 2.4 .9c1.6 .6 2.5 .9 2.7 .9c.4 0 .7-.2 .7-.5c0-.4-.5-1.2-1.3-2.2c-1-1.2-1.8-1.8-2.5-1.8Zm-84.1 0c-.8 0-1.5 .9-2 2.7c1 .4 1.8 .7 2.3 .9c1.7 .6 2.6 .9 2.8 .9c.4 0 .6-.2 .6-.5c0-.4-.4-1.2-1.3-2.2c-.9-1.2-1.8-1.8-2.4-1.8Zm-634.9 0c-.8 0-1.5 .9-2 2.7c1 .4 1.8 .7 2.4 .9c1.6 .6 2.5 .9 2.7 .9c.4 0 .6-.2 .6-.5c0-.4-.4-1.2-1.3-2.2c-.9-1.2-1.7-1.8-2.4-1.8Zm-208.7-.9c-1.3 0-2.8 .4-4.4 1.2c-1.7 .9-4 2.4-7.2 4.7h7.8c6.6 0 9.9-1.1 9.9-3.1c0-.9-.7-1.6-2.2-2.2c-1.1-.4-2.4-.6-3.9-.6Zm-47.1 0c-1.3 0-2.8 .4-4.4 1.2c-1.7 .9-4.1 2.4-7.2 4.7h7.8c6.6 0 9.8-1.1 9.8-3.1c0-.9-.7-1.6-2.1-2.2c-1.2-.4-2.5-.6-3.9-.6Zm712.9-5.5c1.2 0 2.1 .5 2.8 1.4c.6 .9 1 2.1 1 3.6c0 1.1-.1 2-.4 2.7c-.2 .7-.6 1.6-1.4 2.8c-.5-1.4-.9-2.3-1.3-2.8c-.4-.4-.9-.6-1.6-.6c-1.1 0-2.6 .6-4.4 1.8c-1.9 1.3-2.8 2.3-2.8 3.1c0 .5 .3 .8 1.1 .9c.5 .2 1.4 .2 2.5 .2c.3 0 .6 0 .9 0c.3 0 .6 0 .8 0c2.2 0 3.7 .2 4.4 .7c.6 .3 .9 1.1 .9 2.2c0 2.1-.4 4.2-1.2 6.1c-1 2.5-2.4 4.3-4.3 5.3c-2.4 1.4-4.8 2.4-7.4 3.2c-2.5 .9-4.9 1.3-7.1 1.3c-6.2 0-9.3-2.8-9.3-8.3c0-2.9 .3-5.3 1-7.3c.8-2.3 2.5-5.3 5-9.2l1.3 .9c-1.4 2.5-2.6 4.7-3.3 6.6c-.7 2-1.1 3.7-1.1 5.1c0 3.8 2.1 5.6 6.4 5.6c1.6 0 3.1-.1 4.5-.4c1.4-.3 2.9-.7 4.3-1.2c1-.3 2.1-.8 3.3-1.3c2-.9 3-1.3 3.2-1.4c.9-.5 1.3-.9 1.3-1.3c0-.2-.5-.3-1.4-.4c-1 0-1.7 0-2.1 0c-3 0-5.1-.5-6.1-1.3c-.9-.8-1.3-2.1-1.3-4c0-.9 .3-2.1 .9-3.5c.6-1.4 1.3-2.7 2.3-4.1c1.5-2.1 2.9-3.7 4.4-4.7c1.4-1.1 2.8-1.7 4.2-1.7Zm-291.7-.9c-.6 .2-1.1 .5-1.5 .7c-1.1 .5-2 1.1-2.6 1.6c-.5 .4-.9 .7-1.2 1.1c-.4 .4-.6 .7-.6 1c0 .2 .4 .5 1 .6c.7 .2 1.4 .3 2.1 .3c.4 0 .9-.2 1.4-.4c.4-.3 1.1-.7 2-1.4Zm-257.4 0c-.6 .2-1.1 .5-1.5 .7c-1.1 .5-2 1.1-2.6 1.6c-.5 .4-.9 .7-1.2 1.1c-.4 .4-.6 .7-.6 1c0 .2 .4 .5 1 .6c.7 .2 1.4 .3 2.1 .3c.4 0 .9-.2 1.4-.4c.5-.3 1.1-.7 2-1.4Zm-229.4 0c-.6 .2-1.1 .5-1.4 .7c-1.1 .5-2 1.1-2.7 1.6c-.4 .4-.8 .7-1.2 1.1c-.4 .4-.6 .7-.6 1c0 .2 .4 .5 1.1 .6c.7 .2 1.4 .3 2.1 .3c.4 0 .9-.2 1.3-.4c.5-.3 1.2-.7 2-1.4Zm679.6-.9c1.5 1.6 2.5 3.4 3 5.3c.6 1.8 .9 4.6 .9 8.2v7.8h-17l-.6 3c-.8 1.7-1.9 3.4-3.3 5c-2.9 3.4-5.8 5.1-8.6 5.1c-1.7 0-3.5-.6-5.4-1.6c-2-1.1-5-3.1-9-6.2l1.2-1.8c2.2 1.4 3.9 2.4 5.3 2.9c1.1 .4 2.4 .6 3.8 .6c2 0 3.9-.6 5.8-1.6c2.2-1.3 4.5-3.4 6.9-6.2c-.9 .2-1.5 .2-2.1 .2c-2 0-3.5-.6-4.7-1.9c-1.2-1.3-1.7-3-1.7-5.2c0-3 .6-5.9 2-8.7c1.5-3 3.2-4.5 5.1-4.5c1.6 0 3 1.1 4.1 3.3c1.1 2.2 1.6 4.8 1.6 7.8v1.7h13.6c-.2-1.4-.6-2.5-1.2-3.5c-.3-.5-1-1.4-2.1-2.6Zm-44 0c1.5 1.6 2.5 3.4 3 5.3c.6 1.8 .9 4.6 .9 8.2v7.8H983.5v.7c0 1.2-.7 2.8-2.1 4.8c-1.4 2-3 3.7-4.9 5.2c-2 1.6-3.8 2.4-5.3 2.4c-1.7 0-3.6-.5-5.6-1.5c-1.8-.8-4.5-2.5-8.2-5.1l1.2-1.8c1.8 1.1 3.3 2 4.4 2.4c1.1 .4 2.2 .6 3.5 .6c1.4 0 2.8-.4 4.1-1.2c1.4-.7 3.3-2.2 5.6-4.3c3.3-2.9 5-5.2 5-6.8c0-.8-.3-1.8-1-3.1c-.7-1.5-1.6-2.7-2.6-3.7l1.7-8c1.3 1.4 2.4 3 3.1 4.8c.7 1.8 1.1 3.8 1.1 6.1v.4h13.6c-.2-1.4-.6-2.5-1.2-3.5c-.3-.5-1-1.4-2.1-2.6Zm-783.9 0c1.5 1.6 2.5 3.4 3 5.3c.6 1.8 .8 4.6 .8 8.2v7.8H197.5v-.1h-1.1c-.9-.1-1.7-.2-2.5-.4c-1.4-.3-2.9-.8-4.3-1.5c-1.2 .8-2.2 1.3-3.1 1.6c-.9 .2-2.3 .4-4.1 .4h-4.8c-1.4 0-2.4-.4-3.2-1.1c-.8-.7-1.5-1.8-2.1-3.4c-1.1 1.6-2.3 2.8-3.6 3.5c-1.2 .7-2.6 1-4.2 1h-4.3v-8.1h4.3c2.1 0 3.8-.6 5.2-1.8c1.8-1.5 2.7-3.9 2.7-7l2 .3c0 .7-.1 1.4-.1 2.2c0 .8-.1 1.7-.1 2.7c0 1 .4 1.9 1.1 2.5c.7 .7 1.5 1.1 2.4 1.1h3.6c2.5 0 4.2-.4 5.2-1.1c1.3-.8 1.9-2.3 1.9-4.5c0-.5 .1-.9 .4-1.3c.2-.2 .6-.5 1.1-1l1.2-.9c0 .4 0 .9 .1 1.6c0 .6 0 1 0 1.2c0 1.1-.2 2.6-.5 4.4c.8 .3 1.6 .7 2.5 .9c.9 .3 1.9 .5 2.9 .6c0-.7-.3-1.6-.8-2.6c-.5-1.1-.7-1.8-.7-2.2c0-.5 .1-.9 .2-1.2c0-.1 .3-.4 .7-.9l2.5-3.4c.5 1.2 .9 2.3 1.1 3.4c.3 1 .4 2.3 .4 3.8v3.2h13.7c-.3-1.4-.7-2.5-1.2-3.5c-.3-.5-1-1.4-2.1-2.6Zm108.5-1.3c-.6 0-1.2 .3-1.6 .8c-.5 .5-.7 1.2-.7 1.9c0 .4 .1 .8 .5 1.1c.4 .3 .8 .5 1.4 .5c.5 0 .9-.1 1.4-.4c.5-.3 1.1-.7 1.7-1.4c-.5-.9-1-1.6-1.4-1.9c-.4-.4-.8-.6-1.3-.6Zm.5-7.6c2.1 0 4.1 1.9 5.9 5.5c1.9 3.6 2.8 7.5 2.8 11.5v13.2H308.4c-.9 0-1.6 0-2 0c-.4 .1-.6 .2-.6 .4c.6 .4 1.2 .6 1.7 .7c.5 .1 .8 .3 1 .5c.1 .2 .2 .6 .2 1c0 1.4-.4 3.1-1.2 5.1c-.8 1.9-1.6 3.2-2.4 3.6c-.7 .6-2.9 1.4-6.5 2.2c-3.6 .8-6.8 1.2-9.4 1.2c-3.7 0-6.7-.8-9-2.4c-2.3-1.5-3.5-3.5-3.5-6c0-2.5 .5-4.8 1.5-7c1.2-2.6 3.5-6 6.8-10.1l1.8 1.3c-2.1 2.5-3.5 4.5-4.3 6.1c-.8 1.6-1.2 3.2-1.2 4.7c0 2.1 .9 3.7 2.6 4.7c1.8 1.1 4.5 1.6 8.2 1.6c1.9 0 4.5-.4 7.9-1.1c3.4-.7 5.1-1.3 5.1-1.8c0-.2-.7-.4-2-.6c-1.3-.2-2.7-.3-4.2-.3c-2.3 0-3.4-.5-3.4-1.5c0-.5 .2-1.3 .8-2.5c.4-.8 .7-1.6 1.1-2.4c.8-1.7 2.2-3 4.3-4c2-1 4.2-1.5 6.5-1.5h19c0-1.8-.1-3-.2-3.7c-.1-1.2-.5-2.2-.9-3c-.7 1.2-1.5 2.2-2.6 2.8c-1.1 .7-2.2 1-3.4 1c-1.6 0-3-.5-4.1-1.5c-1-1.1-1.6-2.4-1.6-4c0-2.4 .7-5.1 2.2-8.4c1.5-3.5 3.1-5.3 4.7-5.3Zm692.5-1.4c.4 0 .7 .1 .9 .4c.3 .2 .4 .5 .4 .9c0 .3-.1 .6-.2 .8c0 .3-.2 .6-.5 1.1c-1-.5-1.7-.8-2-.8c-.4 0-.8 .1-1.1 .3c-.2 .1-.5 .3-.7 .5c0 .2 .5 .6 1.5 1.2c.9 .5 1.6 .8 2 .8c.3 0 1-.2 2.2-.5c-.3 .6-.5 1-.8 1.3c-.2 .2-.6 .4-1 .6l-6.5 1.9c.4-.7 .8-1.2 1.1-1.4c.3-.3 .8-.6 1.6-.8c-.6-.3-1-.7-1.2-1c-.3-.3-.4-.6-.4-.9c0-.2 .1-.5 .3-.9c.1-.3 .3-.6 .6-.9c1.3-1.8 2.6-2.6 3.8-2.6Zm-164.7-2.1l2.8 18.6c.5 2.9 1.1 4.9 1.8 5.9c.5 .7 1.2 1.1 2 1.1h17.5c-.3-1.4-.7-2.5-1.2-3.5c-.3-.5-1-1.4-2.1-2.6l2.4-7.1c1.5 1.6 2.5 3.4 3 5.3c.6 1.8 .8 4.6 .8 8.2v7.8H855.7c-.7 0-1.4-.2-2-.5c-1.1-.6-2.1-1.6-2.9-3.1c-1.1-2.1-1.8-5-2.1-8.7c-1.3 1.7-2.4 2.9-3.2 3.6c-1 1-2 1.5-2.7 1.5c-.4 0-.8-.1-1.4-.2l-3.7-.7c-1.5-.3-2.5-.6-2.8-.7c-.4-.1-.6-.4-.6-.7c0-.6 .7-2.3 2.1-5.1c1.4-2.9 2.4-4.6 3-5.3c.5-.5 1.4-1.2 2.7-2.1c.7-.5 1.8-1.2 3.2-2l1.6-.9c-.1-.3-.1-.6-.2-.9c0-.3 0-.5 0-.8c0-.7 .2-1.7 .5-2.8c.4-1.2 1-2.6 1.9-4.3Zm-257.4 0l2.8 18.6c.5 2.9 1.1 4.9 1.8 5.9c.5 .7 1.2 1.1 2 1.1h5c.6 0 1 0 1.3-.1c.6 0 1.1-.1 1.7-.1c-1-1.5-1.6-2.7-2-3.7c-.3-.9-.5-1.9-.5-3.1c0-2.9 1.3-5.5 3.7-7.7c2.5-2.3 5.3-3.4 8.6-3.4c2.2 0 4.3 .8 6.3 2.2c1.9 1.4 3.2 3 4.1 4.9l-1.3 1.1c-1.5-.6-2.8-1-3.7-1.2c-.9-.1-2.1-.2-3.4-.2c-2.5 0-4.6 .2-6.4 .6c-2.3 .5-3.5 1.2-3.5 2.1c0 1.4 2.8 3.6 8.3 6.8l15.2-4.3l-3.4 8.4c-5.3 1.7-9.7 2.9-13.2 3.8c-3.1 .8-5.6 1.4-7.7 1.6c-1.6 .3-3.1 .4-4.6 .4h-4.5c-.7 0-1.4-.2-2-.5c-1.1-.6-2.1-1.6-2.9-3.1c-1.1-2.1-1.8-5-2.1-8.7c-1.3 1.7-2.4 2.9-3.2 3.6c-1 1-2 1.5-2.7 1.5c-.4 0-.8-.1-1.4-.2l-3.7-.7c-1.5-.3-2.5-.6-2.8-.7c-.4-.1-.5-.4-.5-.7c0-.6 .6-2.3 2-5.1c1.4-2.9 2.4-4.6 3-5.3c.5-.5 1.4-1.2 2.7-2.1c.7-.5 1.8-1.2 3.2-2l1.6-.9c-.1-.3-.1-.6-.2-.9c0-.3 0-.5 0-.8c0-.7 .2-1.7 .5-2.8c.4-1.2 1-2.6 1.9-4.3Zm680.1-.8v7.1c0 0-.9 .2-2.5 .8c-1.9 .6-3.5 1.1-4.6 1.6c-1.7 .7-2.5 1.2-2.5 1.5c0 .2 .7 1 2.1 2.4c1.9 1.8 3.6 3.5 4.9 5.1c2.1 2.6 3.9 5.1 5.2 7.7v8.3h-46.9c-1.2 0-2.2 0-3-.1c-.8 0-1.4 0-1.8 0c-.8-.1-1.6-.3-2.6-.7c-1.6-.5-3-1.7-4-3.4c-1-1.7-1.6-3.6-1.6-5.7c0-.8 .1-1.7 .2-2.6c.1-.8 .3-1.8 .7-2.8c.4-1.2 .8-2.2 1.4-3.2c.5-.9 1.1-1.8 1.7-2.7l1.6 1.1c-.4 .8-.7 1.5-1 2.2c-.3 .6-.6 1.2-.7 1.7c-.3 .9-.5 1.8-.5 2.7c0 1.1 .4 2.1 1.1 3c.8 .9 1.7 1.5 2.9 1.8c.7 .2 1.6 .3 2.7 .4c1.1 .1 2.3 .2 3.5 .2h21.6c-.6-1.6-1-2.7-1.4-3.3c-.4-.7-1.1-1.7-2-2.8l2.7-7c1.5 2.2 2.4 4.1 2.9 5.9c.4 1.6 .6 3.9 .6 6.8v.4h17.2c-.8-1-1.5-1.8-2.3-2.5c-.6-.5-1.4-1.2-2.4-2c-1.1-.9-2.2-1.7-3.3-2.6l-1 1c-1.8-1.7-2.8-2.8-3.2-3.1c-.9-1.2-1.5-2.5-1.5-4c0-2 .2-3.4 .5-4.2c.4-1.1 1.2-2.2 2.5-3.1c1.2-.8 2.4-1.5 3.7-2.1c1-.5 2.4-1.2 4.1-1.8c.8-.4 2.5-1 5-2Zm-277.6-.4l5.4 3l-3.3 6.1l-4.2-2.4l-2.4 4.7l-5.6-3l3.2-5.8l4.4 2.2Zm-468.2 0l5.5 3l-3.1 5.8l-4.4-2.2l-2.5 4.8l-5.4-3l3.3-6.1l4.2 2.4Zm-29.4-.6l6.9 3.7l-3.6 6.7l-6.9-3.6Zm162.7-.7l6.9 3.7l-3.6 6.7l-6.9-3.6Zm-449.9 0l6.9 3.7l-3.6 6.7l-6.9-3.6Zm1165.3 0c1.1 1.6 2 3.2 2.4 4.7c.5 1.8 .8 4.1 .8 6.9v5.9c0 4.1 .3 7 .8 8.6c.5 1.3 1.2 2 2.1 2h8c1.8 0 3.2-.3 4.3-.7c1.3-.6 2.3-1.5 2.8-2.9c1.1-2.5 2.6-4.6 4.3-6.2c1.6-1.5 2.9-2.2 4-2.2c1 0 2.3 1.5 3.8 4.6c1.5 3.2 2.3 6.2 2.3 8.9v6.5c-2.1 0-4.5-.4-7.3-1.2c-2.5-.7-4.7-1.5-6.6-2.5c-1.1 1.7-2.6 2.8-4.3 3.4c-.8 .2-1.9 .4-3.3 .4h-8c-2.3 0-4-1-5-2.9c-1.2-2.1-1.7-5.6-1.7-10.6v-8.5c0-2-.3-3.5-.8-4.5c-.3-.5-.9-1.3-1.8-2.3Zm-26.7 0l1.8 10.5c.7 4 1.1 7.5 1.4 10.5c.2 2.2 .3 4.4 .3 6.5c0 1.8-.2 3.4-.7 4.8c-.4 1.5-1.2 3.5-2.4 5.9l-1.8-.7c.5-2.5 .8-4.6 .8-6.2c0-1.2-.1-3-.3-5.3c-.2-2.4-.5-4.7-.8-7c-.3-2.3-.8-5-1.4-8.2c-.3-1.1-.4-1.9-.4-2.3c0-.6 .3-1.7 .9-3.1c.6-1.5 1.5-3.3 2.6-5.4Zm-158 0l1.8 10.5c.6 4 1.1 7.5 1.3 10.5c.2 2.2 .3 4.4 .3 6.5c0 1.8-.2 3.4-.6 4.8c-.4 1.5-1.2 3.5-2.4 5.9l-1.8-.7c.5-2.5 .7-4.6 .7-6.2c0-1.2-.1-3-.3-5.3c-.2-2.4-.4-4.7-.7-7c-.3-2.3-.8-5-1.5-8.2c-.2-1.1-.3-1.9-.3-2.3c0-.6 .3-1.7 .9-3.1c.6-1.5 1.5-3.3 2.6-5.4Zm-310 0c1.2 1.6 2 3.2 2.5 4.7c.5 1.8 .8 4.1 .8 6.9v5.9c0 4.1 .2 7 .8 8.6c.4 1.3 1.1 2 2.1 2H904c-.3-1.4-.7-2.5-1.2-3.5c-.3-.5-1-1.4-2.1-2.6l2.4-7.1c1.5 1.6 2.5 3.4 3 5.3c.5 1.6 .8 3.9 .8 6.9v1H908c.6 0 1 0 1.3-.1c.6 0 1.1-.1 1.7-.1c-1-1.5-1.6-2.7-2-3.7c-.3-.9-.5-1.9-.5-3.1c0-2.9 1.3-5.5 3.7-7.7c2.5-2.3 5.3-3.4 8.6-3.4c2.2 0 4.3 .8 6.3 2.2c1.9 1.4 3.2 3 4.1 4.9l-1.3 1.1c-1.5-.6-2.8-1-3.7-1.2c-.9-.1-2.1-.2-3.4-.2c-2.5 0-4.6 .2-6.4 .6c-2.3 .5-3.5 1.2-3.5 2.1c0 1.4 2.8 3.6 8.3 6.8l15.2-4.3L933 327c-5.3 1.7-9.7 2.9-13.2 3.8c-3.1 .8-5.6 1.4-7.7 1.6c-1.6 .3-3.1 .4-4.6 .4H886.2c-2.3 0-4-1-5-2.9c-1.2-2.1-1.8-5.6-1.8-10.6v-8.5c0-2-.2-3.5-.8-4.5c-.2-.5-.8-1.3-1.8-2.3Zm-166.9 0l1.8 10.5c.7 4 1.1 7.5 1.4 10.5c.2 2.2 .3 4.4 .3 6.5c0 1.8-.2 3.4-.6 4.8c-.5 1.5-1.3 3.5-2.5 5.9l-1.7-.7c.4-2.5 .7-4.6 .7-6.2c0-1.2-.1-3-.3-5.3c-.2-2.4-.5-4.7-.8-7c-.3-2.3-.8-5-1.4-8.2c-.3-1.1-.4-1.9-.4-2.3c0-.6 .3-1.7 .9-3.1c.7-1.5 1.5-3.3 2.6-5.4Zm-159.3 0l1.8 10.5c.7 4 1.1 7.5 1.4 10.5c.2 2.2 .3 4.4 .3 6.5c0 1.8-.2 3.4-.7 4.8c-.4 1.5-1.2 3.5-2.4 5.9l-1.8-.7c.5-2.5 .8-4.6 .8-6.2c0-1.2-.1-3-.3-5.3c-.2-2.4-.5-4.7-.8-7c-.3-2.3-.8-5-1.4-8.2c-.3-1.1-.4-1.9-.4-2.3c0-.6 .3-1.7 .9-3.1c.6-1.5 1.5-3.3 2.6-5.4Zm-300.5 0l1.8 10.5c.7 4 1.1 7.5 1.4 10.5c.2 2.2 .3 4.4 .3 6.5c0 1.8-.2 3.4-.6 4.8c-.5 1.5-1.3 3.5-2.5 5.9l-1.7-.7c.4-2.5 .7-4.6 .7-6.2c0-1.2-.1-3-.3-5.3c-.2-2.4-.5-4.7-.8-7c-.3-2.3-.8-5-1.4-8.2c-.3-1.1-.4-1.9-.4-2.3c0-.6 .3-1.7 .9-3.1c.7-1.5 1.5-3.3 2.6-5.4Zm829.6-.2l1.2 .4c0 1.3 .3 2.1 .9 2.5c.5 .4 2.1 1 4.8 1.8c0 1.4-.2 2.8-.4 4.2c-.2 .6-.4 1.7-.9 3.2l-2.1-.8c0 2.3-.3 4.7-.9 7c-.5 2.3-1.4 4.6-2.6 6.9c1.1 2 1.7 3.1 1.9 3.5c.4 .9 .7 1.7 .7 2.4v1c0 .4-.2 2.5-.5 6c-2.3 1.1-4.3 1.8-6.1 2.1c-1.7 .3-4.4 .5-7.9 .5v-8.8c2-1.1 3.4-1.9 4.3-2.6c.9-.7 2-2 3.4-3.7c-2.3-2.8-3.9-4.9-5-6c-.8-1-1.9-2.1-3.2-3.4c-.3 .7-.5 1.1-.7 1.3c-.1 .3-.3 .4-.4 .4c-.5 0-1.4-.4-2.7-1.3c-1.2-.7-2.1-1.3-2.7-1.9c-.6-.6-1.1-1.7-1.4-3.3c-.4-1.5-.6-3.6-.6-6c0-1.1 .1-1.8 .2-2.2c.2-.4 .4-.7 .9-.7c.7 0 2.3 1.2 4.7 3.4c2 1.9 3.8 3.8 5.4 5.7c1.3 1.4 2.4 2.7 3.4 4.1c.9 1.2 2.3 3.3 4.3 6.3c.9-1.7 1.5-3.9 1.8-6.5c.2-1.6 .3-3.5 .3-5.7c-.7-.3-1.2-.7-1.4-1c-.3-.3-.4-.8-.4-1.3c0-1.2 .1-2.4 .4-3.6c.2-1.3 .7-2.6 1.3-3.9Zm-845 0l1.2 .4c0 1.3 .3 2.1 .9 2.5c.5 .4 2.1 1 4.8 1.8c0 1.4-.1 2.8-.4 4.2c-.1 .6-.4 1.7-.9 3.2l-2.1-.8c0 2.3-.3 4.7-.8 7c-.6 2.3-1.5 4.6-2.7 6.9c1.1 2 1.7 3.1 1.9 3.5c.5 .9 .7 1.7 .7 2.4v1c0 .4-.1 2.5-.5 6c-2.2 1.1-4.3 1.8-6 2.1c-1.8 .3-4.5 .5-8 .5v-8.8c2-1.1 3.5-1.9 4.3-2.6c.9-.7 2-2 3.4-3.7c-2.3-2.8-3.9-4.9-4.9-6c-.9-1-2-2.1-3.3-3.4c-.3 .7-.5 1.1-.7 1.3c-.1 .3-.3 .4-.4 .4c-.5 0-1.4-.4-2.7-1.3c-1.1-.7-2.1-1.3-2.7-1.9c-.6-.6-1.1-1.7-1.4-3.3c-.4-1.5-.5-3.6-.5-6c0-1.1 0-1.8 .2-2.2c.1-.4 .4-.7 .8-.7c.8 0 2.3 1.2 4.7 3.4c2 1.9 3.8 3.8 5.4 5.7c1.3 1.4 2.4 2.7 3.4 4.1c.9 1.2 2.4 3.3 4.3 6.3c.9-1.7 1.5-3.9 1.9-6.5c.2-1.6 .3-3.5 .3-5.7c-.8-.3-1.2-.7-1.5-1c-.3-.3-.4-.8-.4-1.3c0-1.2 .1-2.4 .4-3.6c.3-1.3 .7-2.6 1.3-3.9Zm1096.3-2.2l1.4 .7c0 .2 0 .5-.1 1c0 .7 .4 1.3 1.2 1.9c.8 .6 1.9 1.2 3.5 1.9c-.1 1.2-.4 2.5-.8 3.7c-.3 1.2-.7 2.3-1.1 3.2l-1.1-.4l3.3 18.5v8.1H1324v-.2h-.3c-1.5-.2-3.1-.6-4.9-1.1c-2.5-.7-4.7-1.5-6.5-2.5c-1.2 1.7-2.6 2.8-4.3 3.4c-.8 .2-1.9 .4-3.3 .4h-3.8v.7c0 1.2-.7 2.8-2.1 4.8c-1.4 2-3.1 3.7-4.9 5.2c-2.1 1.6-3.9 2.4-5.3 2.4c-1.8 0-3.7-.5-5.7-1.5c-1.7-.8-4.4-2.5-8.2-5.1l1.3-1.8c1.8 1.1 3.2 2 4.3 2.4c1.1 .4 2.3 .6 3.6 .6c1.3 0 2.7-.4 4.1-1.2c1.4-.7 3.2-2.2 5.6-4.3c3.3-2.9 4.9-5.2 4.9-6.8c0-.8-.3-1.8-.9-3.1c-.7-1.5-1.6-2.7-2.7-3.7l1.7-8c1.4 1.4 2.4 3 3.2 4.8c.7 1.8 1.1 3.8 1.1 6.1v.4h3.8c1.7 0 3.2-.3 4.2-.7c1.4-.6 2.3-1.5 2.8-2.9c1.2-2.5 2.6-4.6 4.4-6.2c1.5-1.5 2.9-2.2 4-2.2c1 0 2.2 1.5 3.7 4.6c1.2 2.4 1.9 4.7 2.2 6.8l.1 .6h10.8l-3.6-20.3l-1.9-1.2c0-1.2 .1-2.4 .5-3.6c.4-1.5 1.2-3.3 2.3-5.4Zm-158 0l1.4 .7c0 .2-.1 .5-.2 1c0 .7 .5 1.3 1.3 1.9c.7 .6 1.9 1.2 3.5 1.9c-.2 1.2-.4 2.5-.8 3.7c-.3 1.2-.7 2.3-1.2 3.2l-1-.4l3.2 18.5v8.1h-27.8c-1.3 0-2.3-.3-3-.9c-.8-.6-1.3-1.7-1.3-3.3c0-.8 .1-1.8 .2-2.8c.1-1 .2-2 .4-3.1h1.1c.2 .7 .5 1.2 1.1 1.5c.5 .3 1.2 .5 1.9 .5h10.3c-.5-2.9-1.3-5.3-2.4-7c-.9-1.5-2.2-2.7-3.9-3.8l2.2-9.3c2.5 1.9 4.4 4.4 5.4 7.4c1 2.9 1.5 6.6 1.5 11.2v1.5h10.7l-3.6-20.3l-1.9-1.2c0-1.2 .2-2.4 .6-3.6c.4-1.5 1.2-3.3 2.3-5.4Zm-398.4 0l1.4 .7c0 .2-.1 .5-.1 1c0 .7 .4 1.3 1.2 1.9c.7 .6 1.9 1.2 3.5 1.9c-.2 1.2-.4 2.5-.8 3.7c-.3 1.2-.7 2.3-1.1 3.2l-1.1-.4l3.2 18.5h1.2c.5 0 1 0 1.2-.1c.6 0 1.2-.1 1.8-.1c-1-1.5-1.7-2.7-2-3.7c-.3-.9-.5-1.9-.5-3.1c0-2.9 1.2-5.5 3.7-7.7c2.4-2.3 5.3-3.4 8.6-3.4c2.2 0 4.3 .8 6.3 2.2c1.8 1.4 3.2 3 4 4.9l-1.2 1.1c-1.6-.6-2.8-1-3.7-1.2c-1-.1-2.1-.2-3.5-.2c-2.4 0-4.6 .2-6.4 .6c-2.2 .5-3.4 1.2-3.4 2.1c0 1.4 2.8 3.6 8.3 6.8l15.1-4.3l-3.3 8.4c-5.4 1.7-9.8 2.9-13.3 3.8c-3 .8-5.6 1.4-7.7 1.6c-1.5 .3-3 .4-4.6 .4H767.1c-.7 0-1.3 0-1.8 .1c-.4 .2-.6 .3-.6 .6c0 .1 .5 .3 1.4 .7c1 .4 1.5 1 1.5 1.8c0 1.1-.2 2.4-.5 3.9c-.3 1.6-.8 2.9-1.4 4.2c-.4 .9-1.6 2-3.6 3.3c-2.2 1.3-4.6 2.4-7.3 3.2c-3.1 1-6.1 1.5-8.9 1.5c-3.2 0-5.7-.7-7.3-2.2c-1.7-1.5-2.5-3.7-2.5-6.5c0-3.2 .4-5.9 1.1-8.2c.9-2.8 2.8-6.4 5.6-10.9l1.7 1.2c-1.9 3.2-3.1 5.7-3.8 7.6c-.7 1.9-1.1 3.8-1.1 5.6c0 1.8 .6 3.3 1.8 4.3c1.2 1.1 2.8 1.6 4.8 1.6c2.6 0 5.3-.4 8.2-1.2c2.6-.7 4.9-1.5 6.7-2.5c1.9-1 2.9-1.8 2.9-2.4c0-.2-.6-.3-1.7-.4c-1.1 0-2.1 0-3 0c-2.1 0-3.5-.1-4.1-.3c-.6-.1-.9-.5-.9-1.1c0-1 .2-2.2 .6-3.4c.4-1.1 .8-2.1 1.4-2.7c1.3-1.6 2.8-2.9 4.6-4.1c2-1.2 3.8-1.8 5.4-1.8h14.2l-3.7-20.3l-1.9-1.2c0-1.2 .2-2.4 .6-3.6c.4-1.5 1.2-3.3 2.3-5.4Zm-78.5 0l1.4 .7c0 .2 0 .5-.1 1c0 .7 .4 1.3 1.2 1.9c.8 .6 2 1.2 3.6 1.9c-.2 1.2-.5 2.5-.8 3.7c-.4 1.2-.8 2.3-1.2 3.2l-1.1-.4l3.3 18.5v8.1H689.2v-.2h-.4c-1.5-.2-3.1-.6-4.9-1.1c-2.4-.7-4.6-1.5-6.5-2.5c-1.2 1.7-2.6 2.8-4.3 3.4c-.8 .2-1.9 .4-3.3 .4H645.3c-2.3 0-4-1-5-2.9c-1.2-2.1-1.8-5.6-1.8-10.6v-8.5c0-2-.2-3.5-.8-4.5c-.2-.5-.8-1.3-1.8-2.3l3.2-7.4c1.2 1.6 2 3.2 2.5 4.7c.5 1.8 .8 4.1 .8 6.9v5.9c0 4.1 .2 7 .8 8.6c.4 1.3 1.1 2 2.1 2h17.8c-.3-1.4-.7-2.5-1.2-3.5c-.3-.5-1-1.4-2.1-2.6l2.4-7.1c1.5 1.6 2.5 3.4 3 5.3c.5 1.6 .8 3.9 .8 6.9v1h3.8c1.8 0 3.2-.3 4.2-.7c1.4-.6 2.3-1.5 2.8-2.9c1.2-2.5 2.6-4.6 4.4-6.2c1.6-1.5 2.9-2.2 4-2.2c1 0 2.3 1.5 3.7 4.6c1.2 2.4 2 4.7 2.3 6.8v.6H702l-3.6-20.3l-1.9-1.2c0-1.2 .2-2.4 .5-3.6c.5-1.5 1.2-3.3 2.3-5.4Zm-159.3 0l1.4 .7c0 .2 0 .5-.1 1c0 .7 .4 1.3 1.2 1.9c.8 .6 1.9 1.2 3.5 1.9c-.1 1.2-.4 2.5-.8 3.7c-.3 1.2-.7 2.3-1.1 3.2l-1.1-.4l3.3 18.5v8.1H452c-1.5 0-2.6-.4-3.4-1.1c-.9-.7-1.6-1.8-2.2-3.4c-1.3 1.7-2.5 2.9-3.6 3.6c-1.1 .6-2.5 .8-4.2 .8l-2.2 .1H404.8c-1.4 0-2.5-.4-3.3-1.1c-.9-.7-1.6-1.8-2.2-3.4c-1.3 1.7-2.5 2.9-3.6 3.6c-1.1 .6-2.5 .8-4.2 .8h-2.1v.1H368.9c-.7 0-1.3-.2-1.9-.5c-1.2-.6-2.2-1.6-2.9-3.1c-1.1-2.1-1.8-5-2.1-8.7c-1.4 1.7-2.4 2.9-3.2 3.6c-1.1 1-2 1.5-2.7 1.5c-.4 0-.9-.1-1.5-.2l-3.6-.7c-1.6-.3-2.5-.6-2.9-.7c-.3-.1-.5-.4-.5-.7c0-.6 .7-2.3 2.1-5.1c1.4-2.9 2.3-4.6 3-5.3c.5-.5 1.3-1.2 2.6-2.1c.8-.5 1.8-1.2 3.2-2l1.6-.9c0-.3-.1-.6-.1-.9c0-.3-.1-.5-.1-.8c0-.7 .2-1.7 .6-2.8c.3-1.2 .9-2.6 1.8-4.3l2.9 18.6c.4 2.9 1 4.9 1.8 5.9c.4 .7 1.1 1.1 1.9 1.1h17.5c-.2-1.4-.6-2.5-1.2-3.5c-.3-.5-1-1.4-2.1-2.6l2.4-7.1c1.5 1.6 2.5 3.4 3.1 5.3c.4 1.6 .7 3.9 .8 6.9v1l2.1-.1c2.3 0 4-.5 5.2-1.7c1.4-1.3 2.3-3.7 2.7-7l2 .3c0 .7-.1 1.3-.1 1.8c-.1 1.3-.1 2.3-.1 3.1c0 1.2 .3 2 .9 2.6c.6 .7 1.4 1 2.3 1c1 0 1.9-.2 2.8-.6c.8-.4 2.1-1.2 3.8-2.5l10.7-7.6c1.3-.9 2.2-1.6 2.8-2c1.5-.8 2.9-1.3 4.2-1.3c2.3 0 4.1 .8 5.4 2.4c1.5 1.8 2.3 4.6 2.3 8.3v3.3l2.2-.1c2.3 0 4.1-.5 5.2-1.7c1.4-1.3 2.3-3.7 2.7-7l2.1 .3c-.1 .7-.1 1.3-.2 1.8c0 1.3-.1 2.3-.1 3.1c0 1.2 .3 2 .9 2.6c.6 .7 1.4 1 2.4 1c.9 0 1.8-.2 2.7-.6c.8-.4 2.1-1.2 3.9-2.5l10.6-7.6c1.3-.9 2.2-1.6 2.9-2c1.4-.8 2.8-1.3 4.2-1.3c2.2 0 4 .8 5.3 2.4c1.5 1.8 2.3 4.6 2.3 8.3v3.3h19.2c-2.5-2.5-4.7-4.3-6.7-5.4c-1.8-1-3.6-1.5-5.3-1.5c-.5 0-1 .1-1.4 .1c-.5 .1-1.1 .2-1.9 .4c1.1-2.6 2.3-4.4 3.6-5.6c1.4-1.2 2.9-1.8 4.6-1.8c1.3 0 2.6 .3 3.8 1c1.2 .6 2.6 1.6 4.1 3.1c1.2 1.1 2.9 2.8 5.1 5.2c1.4 1.6 2.6 2.7 3.4 3.2c.8 .5 1.9 .9 3.5 1.3H529c-.2-1.4-.6-2.5-1.2-3.5c-.3-.5-.9-1.4-2-2.6l2.3-7.1c1.5 1.6 2.5 3.4 3.1 5.3c.5 1.6 .7 3.9 .8 6.9v1h10.7l-3.6-20.3l-1.9-1.2c0-1.2 .1-2.4 .5-3.6c.4-1.5 1.2-3.3 2.3-5.4Zm377.3-1.5l6.9 3.7l-3.5 6.6l-7-3.6Zm71-1.7l5.5 2.8l-3 6.2l-5.6-2.9Zm167.8-1.1l6.9 3.7l-3.5 6.7l-7-3.7Zm-837.4-.3l7 3.7l-3.6 6.7l-7-3.6ZM590 288.2l5.3 2.8l-3.3 5.5l-4.2-2.4l-2.4 4.7l-5.5-3l3.1-5.2l4.4 2.2Zm-229.4 0L366 291l-3.3 5.5l-4.3-2.4l-2.3 4.7l-5.6-3l3.1-5.2l4.4 2.2Z" class="g1_7"/>
<path fill-rule="evenodd" d="M104.1 325.7c1 0 1.9 .4 2.6 1.1c.7 .8 1 1.7 1 2.7c0 1-.4 1.8-1.1 2.6c-.7 .7-1.6 1.1-2.6 1.1c-1 0-1.8-.4-2.5-1.1c-.8-.8-1.1-1.6-1.1-2.6c0-1.1 .3-1.9 1.1-2.7c.7-.7 1.6-1.1 2.6-1.1Zm40.5-12.2c1.4 2.6 2.3 4.3 2.6 5.3c.6 1.7 .9 3.9 .9 6.6v5.9c0 2.7-.3 4.9-.8 6.6c-.6 1.7-1.5 3-2.7 4c-1.2 1-3 1.9-5.3 2.5c-2.4 .7-4.8 1-7.3 1c-4.9 0-8.6-.9-11.2-2.7c-2.6-1.7-3.9-4.2-3.9-7.5c0-2.7 .4-5.2 1.2-7.5c1-2.5 2.7-5.8 5.4-9.9l1.8 1.3c-2 3.4-3.3 5.8-3.9 7.3c-.6 1.5-.9 3.1-.9 4.7c0 2.1 1.1 3.8 3.4 5.1c2.2 1.3 5.2 2 8.8 2c3.6 0 6.6-.7 9-2.1c2.5-1.4 3.7-3 3.7-5c0-1.3-.2-2.5-.7-3.7c-.4-1.2-1.3-3.1-2.7-5.8Zm-13.3-9.4l7 3.7l-3.6 6.7l-7-3.6Zm-26.7-6c2.3 0 4.4 .7 6 2c1.7 1.4 2.5 3.2 2.5 5.4c0 1.2-.3 2.3-1 3.2c-.9 1.1-1.9 1.6-3.2 1.6c-1 0-1.8-.3-2.4-1c-.7-.6-1-1.4-1-2.3c0-1.3 .5-2.3 1.6-3c1.1-.7 1.7-1.3 1.7-1.7c0-.7-.4-1.2-1-1.6c-.6-.4-1.5-.7-2.5-.7c-1.3 0-2.4 .4-3.2 1.1c-.8 .8-1.2 1.6-1.2 2.7c0 1 .4 2.2 1.2 3.7c1.3 2.3 2.1 3.8 2.4 4.5c.8 2.1 1.2 4.3 1.2 6.8c0 1.3-.1 2.8-.3 4.4l-1.8-.1c0-.3 0-.6 0-.8l.2-1.5c0-1.2-.8-2.4-2.2-3.7c-2.5-2.2-3.9-3.5-4.1-3.7c-1.5-1.8-2.3-3.8-2.3-6c0-2.7 .9-4.9 2.7-6.7c1.8-1.7 4-2.6 6.7-2.6Zm47.4-1.5c1.2 1.6 2 3.2 2.5 4.7c.5 1.8 .8 4.1 .8 6.9v5.9c0 4.1 .2 7 .8 8.6c.4 1.3 1.1 2 2.1 2h4.2v8.1h-4.2c-2.4 0-4-1-5.1-2.9c-1.1-2.1-1.7-5.6-1.7-10.6v-8.5c0-2-.3-3.5-.8-4.5c-.3-.5-.8-1.3-1.8-2.3Z" class="g0_7"/>
<path d="M104.1 325.7c1 0 1.9 .4 2.6 1.1c.7 .8 1 1.7 1 2.7c0 1-.4 1.8-1.1 2.6c-.7 .7-1.6 1.1-2.6 1.1c-1 0-1.8-.4-2.5-1.1c-.8-.8-1.1-1.6-1.1-2.6c0-1.1 .3-1.9 1.1-2.7c.7-.7 1.6-1.1 2.6-1.1Zm40.5-12.2c1.4 2.6 2.3 4.3 2.6 5.3c.6 1.7 .9 3.9 .9 6.6v5.9c0 2.7-.3 4.9-.8 6.6c-.6 1.7-1.5 3-2.7 4c-1.2 1-3 1.9-5.3 2.5c-2.4 .7-4.8 1-7.3 1c-4.9 0-8.6-.9-11.2-2.7c-2.6-1.7-3.9-4.2-3.9-7.5c0-2.7 .4-5.2 1.2-7.5c1-2.5 2.7-5.8 5.4-9.9l1.8 1.3c-2 3.4-3.3 5.8-3.9 7.3c-.6 1.5-.9 3.1-.9 4.7c0 2.1 1.1 3.8 3.4 5.1c2.2 1.3 5.2 2 8.8 2c3.6 0 6.6-.7 9-2.1c2.5-1.4 3.7-3 3.7-5c0-1.3-.2-2.5-.7-3.7c-.4-1.2-1.3-3.1-2.7-5.8Zm-13.3-9.4l7 3.7l-3.6 6.7l-7-3.6Zm-26.7-6c2.3 0 4.4 .7 6 2c1.7 1.4 2.5 3.2 2.5 5.4c0 1.2-.3 2.3-1 3.2c-.9 1.1-1.9 1.6-3.2 1.6c-1 0-1.8-.3-2.4-1c-.7-.6-1-1.4-1-2.3c0-1.3 .5-2.3 1.6-3c1.1-.7 1.7-1.3 1.7-1.7c0-.7-.4-1.2-1-1.6c-.6-.4-1.5-.7-2.5-.7c-1.3 0-2.4 .4-3.2 1.1c-.8 .8-1.2 1.6-1.2 2.7c0 1 .4 2.2 1.2 3.7c1.3 2.3 2.1 3.8 2.4 4.5c.8 2.1 1.2 4.3 1.2 6.8c0 1.3-.1 2.8-.3 4.4l-1.8-.1c0-.3 0-.6 0-.8l.2-1.5c0-1.2-.8-2.4-2.2-3.7c-2.5-2.2-3.9-3.5-4.1-3.7c-1.5-1.8-2.3-3.8-2.3-6c0-2.7 .9-4.9 2.7-6.7c1.8-1.7 4-2.6 6.7-2.6Zm47.4-1.5c1.2 1.6 2 3.2 2.5 4.7c.5 1.8 .8 4.1 .8 6.9v5.9c0 4.1 .2 7 .8 8.6c.4 1.3 1.1 2 2.1 2h4.2v8.1h-4.2c-2.4 0-4-1-5.1-2.9c-1.1-2.1-1.7-5.6-1.7-10.6v-8.5c0-2-.3-3.5-.8-4.5c-.3-.5-.8-1.3-1.8-2.3Z" class="g1_7"/>
<image clip-path="url(#c1_7)" preserveAspectRatio="none" x="1344" y="457" width="108" height="72" href="img/2.jpg"/>
<image clip-path="url(#c2_7)" preserveAspectRatio="none" x="1347" y="550" width="102" height="71" href="img/3.jpg"/>
<image clip-path="url(#c3_7)" preserveAspectRatio="none" x="1347" y="642" width="102" height="74" href="img/4.jpg"/>
<image clip-path="url(#c4_7)" preserveAspectRatio="none" x="1353" y="745" width="96" height="80" href="img/5.jpg"/>
</svg>