<svg viewBox="0 0 1466 825" version="1.1" xmlns="http://www.w3.org/2000/svg">
<defs>
<clipPath id="c0_74"><path d="M-.2 825.3V-.2H1467V825.3Z"/></clipPath>
<clipPath id="c1_74"><path d="M1343.9 529.1V456.4H1452v72.7Z"/></clipPath>
<clipPath id="c2_74"><path d="M1346.3 621.3V549.7h102.9v71.6Z"/></clipPath>
<clipPath id="c3_74"><path d="M1346.4 716.6V641.9h103v74.7Z"/></clipPath>
<clipPath id="c4_74"><path d="M1353 825V744.6h96.2V825Z"/></clipPath>
<style>
.g0_74{fill:#F00;}
</style>
</defs>
<image clip-path="url(#c0_74)" preserveAspectRatio="none" x="0" y="-7" width="1467" height="840" href="img/1.jpg"/>
<image clip-path="url(#c1_74)" preserveAspectRatio="none" x="1344" y="457" width="108" height="72" href="img/2.jpg"/>
<image clip-path="url(#c2_74)" preserveAspectRatio="none" x="1347" y="550" width="102" height="71" href="img/3.jpg"/>
<image clip-path="url(#c3_74)" preserveAspectRatio="none" x="1347" y="642" width="102" height="74" href="img/4.jpg"/>
<image clip-path="url(#c4_74)" preserveAspectRatio="none" x="1353" y="745" width="96" height="80" href="img/5.jpg"/>
<path d="M1236 411.7l.8 .4l-.4-.7v.2l.1 .4v.2c.2 .4 .5 .6 .9 .6l.3 .1c.4 0 .7-.2 .9-.5c.2-.3 .3-.7 .1-1c-.2-.4-.6-.5-.9-.5h-.7c-.5 0-.9 .4-.9 .9c0 .5 .4 1 .9 1l.2 .1c.4 0 .8-.2 1-.6c.1-.4 .1-.8-.2-1.1l-.3-.2l.2 .3v-.2c-.2-.4-.7-.7-1.2-.5c-.5 .1-.8 .6-.7 1.1c.2 .5 .7 .8 1.2 .7l.9-.2l.3-.1l1.2-.7v.1l1.5-.7l2.1-.9l2.1-1h-.1l2.3-1l-.3 .1l2.7-.4l3-.4h-.1l3.5-.2h8.9h-.1l5.5 .4l5.9 .3l6.1 .3l6.6 .5h.1l7.4 .4l7.1 .4l7.8 .5l8.3 .3h.1l8.3 .1l8.9 .2h9l9.1-.1l9.4 .1h8.9l8.8 .3l8.1 .3l7.7 .6h-.1l7.4 .5h-.1l6.3 .5l6 .5h.1l4.4 .4h3.9l3.2 .1h4h-.1l1 .1c.3 0 .5-.1 .7-.2l.2-.1c.7-.3 .9-1 .7-1.6v-.1l-.1-.1l-.5-.8c-.3-.6-1-.8-1.6-.5c-.6 .3-.8 1-.5 1.6l.4 .9c.3 .4 .8 .7 1.3 .6c.6-.1 1-.5 1-1.1c.1-.5-.2-1-.7-1.2c-.3-.1-.5-.2-.8-.1h-.2h.3l-1-.1h-.2l-1.6 .1h.1l-2.3-.1l-3.2-.1h-3.9h.1l-4.4-.4l-6.1-.5l-6.2-.5l-7.4-.5l-7.6-.5h-.1l-8.1-.4l-8.9-.2h-8.9l-9.4-.1l-9.1 .1h-8.9l-9-.2h-8.3l-8.3-.3l-7.8-.4l-7.1-.3l-7.4-.4l-6.7-.4l-6.1-.3l-5.8-.2l-5.6-.4h-9l-3.5 .1l-.1 .1l-3.1 .4l-2.7 .4l-.2 .1l-2.2 1l-2.1 1l-2 .9l-1.5 .7h-.1l-1.3 .8l.2-.1l-.9 .2c-.3 .1-.5 .4-.6 .6c-.2 .3-.1 .7 0 .9l.2 .2l.1 .1l.2 .3c.3 .3 .7 .3 1.1 .2c.4-.2 .6-.5 .6-.9c-.1-.4-.3-.8-.7-.9l-.2-.1c-.4-.1-.8 0-1 .3c-.3 .3-.3 .7-.2 1c.1 .4 .5 .6 .8 .6l.7 .1c.5 0 .9-.4 1-.9c.1-.5-.3-1-.8-1.1l-.3-.1l.4 .2l-.2-.1c-.1-.2-.4-.2-.6-.2h-.2h.2l-.9-.1c-.2-.1-.5 .1-.6 .4c-.1 .2 0 .5 .2 .7Z" class="g0_74"/>
<path d="M1250 412.7l.2 .4v-.2v.3l.3 .4c.3 .3 .7 .4 1.1 .2c.3-.2 .5-.6 .5-.9l-.1-.1v.6l-.6 .4l.5-.1h-.1l3.3-1h-.1l3.4-.6l3.7-.7l3.8-.8h-.2l4.4-.4l3.8-.4h-.1h4.8l5.1 .1h-.1l5.6 .4l5.9 .4h-.1l6.1 .5l7 .7h.1l7.4 .5l7.2 .3l8.2 .4l8.3 .2l7.9 .3l9.2 .3l8.4 .2l8.4 .2h16.6l8.2-.1l7.5-.3l7.5-.1h.1l6.6-.1h-.1l5 .1l4.8 .1h-.1l3.3 .2h-.1l3 .3h.1l2.1 .1h1.6l.3-.1l.7-.1c.4-.2 .8-.5 .9-.9c.2-.4 .2-.9-.1-1.2l-.1-.2c-.2-.3-.5-.5-.9-.6h-.1l.6 .3v-.1c-.3-.2-.6-.3-.9-.2h-.5h.3l-3.9-.4c-.5-.1-.9 .3-1 .8c0 .4 .3 .9 .8 .9l3.8 .6l-.4-.1l.4 .3c.5 .3 1.2 .2 1.5-.2c.4-.5 .4-1.2 0-1.6c-.4-.4-1.1-.5-1.5-.1l-.1 .1l-.3 .3v.1l-.2 .5v.2l1.2-1.3l-.7 .1h.2h-1.5h.1l-2.2-.1h.2l-3-.4h-.1l-3.3-.2h-.1l-4.7-.1l-5-.1h-.1l-6.6 .1l-7.5 .1h-.1l-7.5 .3h.1l-8.3 .1h.1h-8.1l-8.4 .1l-8.4-.2l-8.4-.2l-9.2-.2l-7.9-.2h-.1l-8.2-.2l-8.2-.3l-7.1-.3l-7.5-.4h.1l-7-.7h-.1l-6.1-.4l-5.9-.4l-5.5-.3h-.1l-5-.1h-5l-3.8 .5l-4.4 .4h-.1l-3.8 .8l-3.7 .9l-3.3 .6l-.1 .1l-3.3 1h-.1l-.4 .2c-.3 .1-.4 .3-.5 .6c-.1 .2-.1 .5 0 .8c.2 .3 .5 .4 .7 .5h.1c.4 .1 .8-.2 1-.6c.2-.4 0-.8-.4-1.1c-.3-.2-.8-.2-1.1 .1v.1l1.1-.1l-.2-.1v-.1l-.4-.2c-.2-.2-.6-.2-.8 0c-.3 .2-.3 .6-.2 .8Z" class="g0_74"/>
<path d="M1260.4 410v0c-.3-.4-.9-.5-1.3-.3h-.2c-.4 .2-.7 .6-.7 1.1c0 .4 .3 .8 .7 1l1.2 .6h.1l3.5 1.1l.2 .1l3.2 .4h.1l3.9 .3h4.8l5.2-.3l5.9-.3h-.1l6.4-.2l7.1-.2l6.6-.1l7.1-.1h7.3h-.1l7.3 .2h-.1l7.9 .5l7.7 .5l7.3 .4l7.7 .4l7.2 .5l7.6 .6h.1l7.4 .4h-.1l6.4 .6h.1l6.3 .4h5.7l5.4 .2h.1l4.8-.1l4.6-.3h-.1h3.7l3.1-.3l3.1-.1l2.3-.1h.2l1.5-.3h.1l.8-.2c.7-.2 1.2-.9 1.1-1.6c-.2-.7-.8-1.2-1.5-1.2h-.4c-.3 0-.5 .1-.7 .2l-.3 .2l.6-.2l-.4 .1h.2l-1-.2c-.5-.1-1 .3-1.2 .8c-.1 .5 .2 1.1 .7 1.2l1 .3l-.4-.3l.3 .3c.2 .3 .6 .4 1 .4l.4-.1h-.5l.4 .1c.5 .2 1.1 0 1.5-.5c.3-.5 .4-1.1 .1-1.6c-.3-.5-.9-.8-1.5-.7l-.8 .2l-1.5 .2h.2h-2.3l-3.2 .2l-3.1 .2h.1h-3.7l-4.6 .3h.1l-4.8 .2h.1l-5.4-.2h-5.7h.1l-6.4-.4h.1l-6.4-.6h-.1l-7.4-.3l-7.6-.6l-7.2-.5l-7.8-.3l-7.3-.4l-7.6-.5l-7.9-.4l-7.3-.3H1314l-7 .1h-.1l-6.5 .1h-.1l-7.1 .2l-6.3 .2h-.1l-5.8 .4h-.1l-5.2 .4h.1h-4.7h.1l-3.8-.2l-3.2-.3h.2l-3.5-1h.2l-1.2-.5c-.5-.3-1-.2-1.4 .2c-.3 .4-.4 .9-.1 1.4c.2 .4 .8 .6 1.2 .5l.2-.1c.2 0 .4-.1 .6-.3v-.1c.3-.4 .3-.9 0-1.4Z" class="g0_74"/>
<path d="M1249.1 419.1l-.1 .9c0 .5 .4 .9 .9 1h1.5h-.2l1.8 .4h.1l2.4 .3l3.2 .5l3.8 .8h.1l4.7 .7v.1l5.5 .5l6.7 .5l7.2 .2h8.6h-.1l8.8 .1l9.4-.3l6.3-.3l6.3-.3h.1l10.9-.7l12.4-.8h-.1l11-.1l8.7-.1h9h-.1l8.5 .4l8.4-.1h-.1l7.9 .2l7 .4h.1l6.2 .1l5.5 .2h4.7l4-.4h-.1h2.9h-.1l2.4 .2l1.2 .1h-.2l1 .2h.7c.7-.1 1.3-.6 1.3-1.3v-.3c0-.7-.5-1.3-1.1-1.4c-.7-.1-1.4 .3-1.6 1c-.2 .7 .2 1.4 .8 1.6v.1c.6 .2 1.2 0 1.6-.5c.3-.4 .3-1.1 0-1.5c-.4-.5-1-.7-1.6-.4h-.1l.4-.1l-.9 .1c-.6 0-1.1 .5-1.1 1.1c0 .6 .5 1.1 1.1 1.2h.9l-.9-.5l.1 .2c.4 .4 1 .6 1.5 .4l.1-.1c.5-.2 .9-.8 .8-1.4c-.1-.6-.6-1.1-1.2-1.2c-.7-.1-1.2 .3-1.4 .9l-.1 .2l1.4-.9h-.3h.2l-.9-.2l-.3-.1h-1.2h.1l-2.5-.3h-.1l-2.9 .1h-.1l-4.1 .4h.2h-4.6h.1l-5.5-.2l-6.3-.1h.1l-7.1-.4l-7.9-.2h-.1l-8.3 .1h.1l-8.4-.4H1369l-8.7 .1l-11 .1h-.1l-12.4 .9l-10.9 .7l-6.4 .3l-6.2 .3l-9.4 .3h.1l-8.7-.1h-.1l-8.5 .1h.1l-7.2-.2l-6.6-.3l-5.4-.4l-4.7-.7h.1l-3.9-.7h-.1l-3.3-.5l-2.4-.3h.1l-1.8-.3h-1.7l1 .6l-.3-.8c-.2-.4-.5-.5-.9-.5c-.4 .1-.6 .4-.6 .8Z" class="g0_74"/>
<path d="M1262.5 426.1l1.6-.1l1.9-.1h-.1h3.4l4.4-.4l4.6-.4V425l5.1-.7h.1l5.1-1.2h-.1l5.5-1h.1l5.7-1.2l6.2-1l6.3-1h-.1l7.5-.7l7.6-.4h-.1l8.8-.3l-.1 .1h9.3h-.1h9.2l9.2 .2l8.8 .4h.1l8.7 .2l7.9 .3h.1l7.9 .1h14.4h-.1h2.6l8.5-.3l7.8-.2l6.3-.3h2.4h-.1h2.4h-.5l.5 .1l-.9-.7c.4 .7 1.1 1 1.8 .7c.7-.2 1.1-.9 1-1.6c-.1-.7-.7-1.3-1.4-1.3h-.5l-.6 .1l-1.9 .2h.1l-2.4 .1l-4.1 .2l-4.8 .1l-6.2-.3c-.5 0-.9 .4-.9 .9c0 .4 .3 .8 .8 .9l6.2 .4l4.9 .3h8.5h-.2h.6h-.2l.3 .1c.6 .1 1.4-.2 1.7-.8c.2-.4 .2-.8 .1-1.2c-.2-.5-.5-.8-.9-1l-.5-.1l-.5-.1h-.9l-1.4-.1h-.1l-2.4 .1l-6.3 .3l-7.8 .1l-8.6 .3h.1h-2.5l-2.4 .1H1404h.1h-15l-7.9-.4l-8.8-.1h.1l-8.9-.4l-9.2-.1h-.1l-9.1-.1l-9.3 .1l-8.7 .2h-.1l-7.6 .5l-7.5 .7h-.1l-6.3 1.1l-6.3 1l-5.8 1.3h.1l-5.5 1l-.1 .1l-5.1 1.2h.1l-5 .8l-4.5 .5v-.1l-4.4 .4h.1h-3.4l-1.8 .2l-1.6 .1c-.4 0-.8 .2-1 .6c-.2 .4-.2 .8 .1 1.2c.2 .3 .6 .5 1 .5Z" class="g0_74"/>
<path d="M1255.6 423.3l.6 .1h1.6l2.7-.7h-.1l3.3-.6l4-.8l4.5-.7l5-.5l5.2-.5h-.1l5.7-.5l5.7-.5h-.1l6.4-.2l6.1-.2l6.7-.1h-.1l7.6 .1l6.9 .3l7.3 .2h-.1l7.3 .4l6.3 .3l6.4 .4h.1l5.8 .1l5.2 .2h5l3.8-.1h-.1h6.3h-.1l2.7 .2h-.2l1.7 .3l-.1-.1l.9 .3c.6 .1 1.2-.1 1.6-.6c.4-.4 .5-1.1 .2-1.6c-.3-.6-.8-.9-1.4-.9h-.3l.7 .2l-.6-.4l.8 1.5v-.1c0-.8-.6-1.6-1.4-1.7c-.6-.1-1.2 .2-1.5 .6c-.4 .5-.4 1.2-.2 1.7c.3 .5 .8 .8 1.4 .8h.6l-1.3-.6l.3 .4c.4 .5 1.2 .7 1.8 .5c.7-.2 1.1-.9 1-1.6c0-.7-.4-1.2-1-1.4c-.6-.2-1.3-.1-1.7 .4l-.1 .2l1.5-.5l-1.2-.3h.1l-1.7-.5l-.2-.1l-2.1-.3h.2l-2.6-.8h-.1l-3-.6l-3.1-.6c-.6-.1-1.2 .3-1.3 .9c-.2 .6 .2 1.2 .8 1.3l3.1 .7h-.1l2.9 .9l-.1-.1l2.6 1l.2 .1l2 .4h-.2l1.7 .6l.1 .1l1.2 .3c.5 .1 1.1 0 1.5-.3l.1-.1c.5-.5 .7-1.3 .4-1.9c-.3-.7-1-1-1.7-.9c-.8 .2-1.3 .8-1.3 1.5c-.1 .7 .4 1.4 1 1.6c.7 .2 1.4 0 1.8-.5c.5-.6 .5-1.4 0-1.9l-.2-.4c-.3-.4-.8-.6-1.3-.6h-.6c-.6 0-1.1 .3-1.4 .9c-.2 .5-.2 1.1 .2 1.6c.3 .5 .9 .7 1.5 .6c.9-.1 1.4-.9 1.4-1.7c-.2-.9-.9-1.5-1.8-1.4c-.8 .1-1.4 .8-1.4 1.7v.1c.1 .5 .4 1 .8 1.2l.7 .4c.3 .1 .5 .2 .8 .2h.3c.8 0 1.4-.6 1.5-1.4c.1-.8-.4-1.5-1.1-1.7l-.9-.2h-.1l-1.8-.3h-.1l-2.7-.2h-6.5l-3.8 .2h.1h-4.9h.1l-5.2-.2h-5.9l-6.3-.4l-6.4-.2l-7.2-.3l-7.3-.3l-7-.2l-7.5-.1h-.1l-6.7 .2l-6.1 .3l-6.4 .3l-5.7 .5h-.1l-5.6 .6l-5.2 .5l-5 .6l-4.5 .7h-.1l-4 .8l-3.3 .7l-2.8 .7h.1l-1 .1l-.3 .1l-.6 .3c-.3 .1-.5 .5-.5 .8c.1 .4 .4 .7 .7 .7Z" class="g0_74"/>
<path d="M1342.3 456.7l.6 5.1l.5-1l-.4 .2c-.3 .1-.5 .4-.6 .8l-.2 1v.1l-.2 .9l-.5 2.5l.1-.1l-1.1 3.7v.2l-.4 4.4v-.2l-.9 4.5v-.2l-1.6 4l-.1 .1l-1.3 4.7l.1-.1l-1.6 4.6l-1.7 4.8l-1.7 5.1l.1-.2l-2.1 4.7h-.1l-2 4.7l.1-.2l-2.2 3.5v-.1l-2.2 3l-.2 .5l-.8 2.5l.1-.3l-.8 1.7h-.1l-.4 .9c-.2 .4-.2 1 .1 1.4l.5 .8c.3 .6 1 .9 1.6 .7c.7-.1 1.1-.7 1.2-1.3c.1-.7-.3-1.3-.9-1.5l-.3-.2l.6 .5l-.7-.8l.3 .5l-.5-1.8l-.1-.1l-1.2-2.9v.2l-1-4.8c-.1-.6-.7-1-1.2-.8c-.6 .1-1 .6-.9 1.2l.9 4.9v.1l1 3v-.2l.2 1.8l.2 .5l.5 .8l.4 .5l.3 .2c.6 .4 1.4 .3 1.9-.1c.5-.5 .7-1.3 .3-1.9l-.4-.8v1.4l.4-.8l.8-1.6l.1-.3l.8-2.5l-.3 .4l2.3-3v-.1l2.2-3.5l.1-.2l2.1-4.7l2-4.7l.1-.1l1.6-5.1l1.6-4.8h.1l1.4-4.6v-.1l1.3-4.7l-.1 .1l1.6-4v-.2l1-4.4v-.2l.4-4.4l-.1 .2l1-3.6v-.1l.5-2.5l.2-1v-.1l.1-1v.2l.1-.4v-.5l-1-5c0-.4-.4-.7-.8-.6c-.4 .1-.7 .4-.7 .8Z" class="g0_74"/>
<path d="M1320.8 475.7l.9 .4l.4 .1h.2l-.5-.1l.2 .1c.5 .3 1.1 .2 1.6-.1c.5-.4 .8-1 .6-1.6c-.1-.6-.6-1.1-1.2-1.2h-.7h.2h-.1c-.4 .1-.9 .3-1.1 .7c-.3 .4-.3 .9-.2 1.3l.4 .9l.3 .5l2.5 2.8l.2 .1l2.8 2.4l-.1-.2l2.6 3l-.1-.1l2.6 3.6l2.6 3.9l2.7 4.4v.1l3.2 4.9l-.1-.1l2.7 4.7l-.1-.1l2.4 4.6l-.1-.1l1.8 4l-.1-.2l1.1 3.3v.1l1 2.4l.1 .2l1.1 2l.1 .2l.7 .8l.4 .4l.8 .5c.3 .2 .6 .2 .8 .2l.9-.1c.6 0 1.1-.6 1.1-1.2c0-.7-.5-1.2-1.1-1.3l-.9-.1l.9 .5l-.6-.8l.2 .3l-.6-.9h.1l-1.1-2v.1l-.9-2.4v.1l-1.1-3.2v-.2l-1.8-4v-.1l-2.4-4.5v-.1l-2.7-4.6l-3.2-5l-2.7-4.4l-.1-.1l-2.6-3.9h-.1l-2.6-3.7l-.1-.1l-2.6-3l-.2-.1l-2.8-2.4l.1 .2l-2.5-2.8l.2 .4l-.3-.9c-.3-.6-1-1-1.7-.8c-.7 .1-1.2 .8-1.2 1.5c.1 .8 .7 1.3 1.4 1.4h.1l-.2-.1v.1h.2l-1.3-1.3v.1c.1 .7 .8 1.2 1.5 1.3c.7 0 1.4-.5 1.5-1.2c.2-.8-.2-1.5-.9-1.8h-.2c-.2-.2-.5-.2-.8-.2l-.2 .1h.4l-1-.1c-.7-.1-1.3 .3-1.4 1c-.2 .6 .1 1.2 .7 1.5Z" class="g0_74"/>
<path d="M1357.4 540.8l-.5 1.5h.1l-.9 2v.2l-.9 3.3l-.8 3.8l-.8 4.3l-.8 4.4l-1 4.8V565l-1.1 4.4l-1.2 4.6v.1l-1 4.7l.1-.2l-1.2 4.1l-1.2 4.6v-.1l-1.3 4.1l-.1 .1l-.7 2.6v-.1l-.8 2.7v.1l-1.1 4.3v.2l-.6 4.9V606l-.5 3.4v-.1l-.3 1.4c-.1 .3-.1 .7 0 1l.7 1.7l.4-1.7h-.1l1.9-.1l-.5-.4l.5 .6l-.8-1.8v-.1l-1.8-3.3v.2l-1.4-5.4c-.2-.5-.6-.8-1.1-.6c-.4 .1-.7 .5-.6 1l1.3 5.5v.1l1.4 3.5v-.2l.4 2l.2 .4l.3 .5l.2 .3l.1 .1c.5 .5 1.3 .5 1.9 .2c.7-.4 .9-1.2 .7-1.9l-.6-1.8v1l.4-1.4v-.2l.5-3.4h.1l.6-4.9v.2l1-4.3l.8-2.6l.7-2.7v.1l1.3-4.1v-.1l1.2-4.5l1.2-4.1v-.1l.9-4.7v.1l1.1-4.6l1.1-4.4v-.1l.9-4.9l.6-4.4l.7-4.3l.6-3.8l.7-3.4v.1l.4-2.2v-.2l.1-1.6c0-.3-.3-.6-.6-.7c-.4 0-.7 .2-.8 .5Z" class="g0_74"/>
<path d="M1333.4 560v.1c-.4 .2-.6 .7-.6 1.2v.4c0 .2 0 .5 .1 .7l.9 1.9l1.3 2.5v.1l2.3 3.7v.1l3.1 4.3v.1l3.3 4v.1l3.5 4l3.5 4.2l-.1-.1l3.3 4.5v-.1l3.3 5.1l-.1-.2l2.7 5v.1l2.7 4.6l-.1-.1l1.5 2.8l1.5 2.8l2.2 4.2v.1l2.1 3.7c.4 .8 1.5 1.1 2.3 .6c.7-.4 1-1.5 .6-2.2l-2.1-3.7h.1l-2.1-4.2v-.1l-1.5-2.8l-1.5-2.8v-.1l-2.7-4.6l.1 .1l-2.7-5l-.1-.1l-3.4-5l-.1-.1l-3.3-4.5v-.1l-3.6-4.2l-3.6-4l.1 .1l-3.3-4l.1 .1l-3-4.3l-2.2-3.7v.1l-1.2-2.5v.1l-.9-1.9l.2 .4l-.1-.4c-.1-.5-.4-.8-.7-1.1c-.4-.2-.9-.2-1.3-.1h-.1c-.1 0-.2 .1-.4 .2Z" class="g0_74"/>
<path d="M220.7 504.1v.2c0 .6 .5 1.1 1.1 1.1c.5 .1 1.1-.3 1.2-.9v-.3l.1-.2v-4.2v.3l.6-2.6v-.1l.6-3.1l-.1 .1l1.1-4.2v-.1l.8-4.6l1-5.1v.1l1.3-5.3l1.6-5.4l-.1 .1l2.1-5.3l2.1-5l1.9-4.9l1.7-3.9v-.1l1.5-3.4l-.1 .1l1.5-2.8v.1l1.4-2.5l-.1 .2l1.4-1.6l-.3 .2l1.6-1l.1-.1l.9-.8l-.6 .3l1.1-.2h-.2h.8h-.3l.8 .3l-.4-.2l1.7 1.1l-.2-.2l1.2 1.4v-.1l1.8 2.3l-.1-.1l1.4 2.6v-.1l1.1 2.9v.1l1.3 3.2l-.1-.2l1 3.4v.2L257 459l1.4 3.9l1.4 4.1v.1l1.7 3.7v-.1l1.4 3.6l.1 .2l1.6 3l1.2 2.6V480l1 2.3l.1 .1l1.2 2.3l-.1-.3l.4 1.7l.2 .3l.9 1.7l-.1-.4l.3 1.5v-.5l-.2 1.2l.3-.6l-.9 1c-.4 .5-.4 1.1 0 1.6c.4 .4 1.1 .4 1.6 0l1-.9l.3-.5l.4-1.1l.1-.6l-.1-1.5l-.1-.5l-.9-1.8l.1 .3l-.4-1.7l-.1-.3l-1.3-2.4l.1 .2l-1-2.3l-1.3-2.6v-.1l-1.6-3l.1 .1l-1.5-3.6v-.1l-1.7-3.7l.1 .2l-1.4-4v-.1l-1.4-3.9l-1.2-3.2l.1 .1l-1-3.5l-.1-.2l-1.3-3.2v.1l-1.2-3v-.2l-1.6-2.7l-.1-.1l-1.8-2.3l-.1-.2l-1.3-1.3l-.3-.2l-1.6-1.1l-.4-.2l-.9-.2h-1.5l-1.1 .2c-.2 .1-.4 .2-.6 .4l-.9 .8l.1-.1l-1.5 1l-.3 .3l-1.3 1.6l-.1 .1l-1.5 2.4v.1l-1.6 2.8v.1l-1.5 3.4h.1l-1.8 4l-2 4.9l-2 5h-.1l-2 5.4l-.1 .1l-1.5 5.4v.1l-1.4 5.2v.1l-1 5.1l-.8 4.7v-.1l-1 4.2l-.6 3.2l.1-.1l-.6 2.6l-.1 .3v3.6l.1 .7l.1 .4l.1 .3c.3 .5 .9 .8 1.4 .6c.6-.2 .9-.8 .7-1.4c-.1-.5-.6-.9-1.2-.8h-.2c-.5 .1-.8 .5-.8 .9Z" class="g0_74"/>
<path d="M238.8 476.1l.2-.1l.2-.1l.7-.5l-.2 .1L243 474l-.3 .1l2.7-.5h-.1l3.1-.2l3.2-.3h.1l2.8-.6h.1l2.3-.7l.5-.3l1.7-1.6l.1-.2l1.4-2c.3-.5 .2-1.2-.3-1.5c-.5-.4-1.2-.2-1.5 .3l-1.4 1.9l.2-.2l-1.8 1.6l.5-.2l-2.4 .7l.1-.1l-2.7 .6h.1l-3.2 .3l-3.1 .3h-.2l-2.5 .5l-.3 .1l-3.3 1.5l-.3 .2l-.6 .6c-.4 .3-.5 .9-.2 1.3l.1 .1c.2 .4 .6 .6 1 .4Z" class="g0_74"/>
<path d="M302.4 457.1H302l-1.2 .3h-.1l-4.3 1h.1l-2.8 .4l-.2 .1l-2.9 .8l.2-.1l-3 .5l-2.6 .3l-2.6 .3h-.2l-2 .5h-.1l-1.5 .5l-.3 .1l-1 .6l-.4 .3l-.5 .8l-.2 .3l-.2 .9c-.1 .5 .2 1 .6 1.1c.5 .1 1-.1 1.1-.5l.4-.9l-.5 .5l.8-.4l-.2 .1l1.2-.3h-.1l1.5-.3l2-.4l-.1 .1l2.6-.3h.1l2.6-.3l3-.4l.2-.1l2.9-.8h-.1l2.7-.4h.1l4.4-1h.1l1.2-.4l.3-.1l.4-.2c.6-.3 .9-1.1 .6-1.7c-.2-.7-.9-1.1-1.6-.9Z" class="g0_74"/>
<path d="M309.1 473.7l-1.3 .4l-.4 .3l-1 1l.2-.1l-3.4 2.2l-3.3 2.3l.2-.1l-4.5 2.2h.1l-2.4 .9l.4-.1l-2.6 .1h.1l-1.9-.2l.2 .1l-1.4-.4l.3 .2l-1.3-.9l.3 1.4l1.6-2.3c.2-.4 .1-.8-.1-1c-.3-.3-.8-.3-1.1 0l-2 2.1c-.1 .2-.2 .4-.2 .7c0 .3 .1 .5 .3 .7l1.2 1l.4 .3l1.3 .4l.3 .1l1.9 .2h.2l2.5-.1h.4l2.5-1l.1-.1l4.4-2.2l.2-.1l3.3-2.3h-.1l3.3-2.3l1.2-.9l.3-.3l.7-1.2c.1-.2 .1-.6-.1-.8c-.2-.2-.5-.3-.8-.2Z" class="g0_74"/>
<path d="M328.9 455.8l-.5 1.1c-.1 .2-.1 .4 0 .7l.3 1.5l.9 3.5v.2l1.2 2.7v.1l1.6 2.9v.1L334 471l.1 .2l1.4 1.5l.1 .2l1.6 1.2l.4 .2l1.8 .7h.1l1.7 .4l.4 .1l1.8-.2l.3-.1l1.7-.6l.5-.2l1.6-1.6h.1l1.7-2.1l.1-.1l2-2.5V468l2-2.9l.1-.1l1.8-3.2l.1-.2l1.2-3.4V458l.7-3.8V454l.3-4l.2-4v.1l.4-3.8l.3-3.4v.1l.3-2.5v.1l.3-1.3v-.2l.1-1l-.1 .4c.2-.4 .1-.9-.1-1.3l-.2-.2c-.3-.6-.9-.8-1.5-.7c-.7 .2-1.1 .7-1.1 1.4V435l.2 1.8l.3 2.5l.4 2.7v.1l.5 3.2v.1l.7 3.5l.7 3.4l.9 3.8l.8 3.6v.1l1 3.7l.8 3.5l.1 .2l1.1 3.1l.9 2.6v-.2l.3 1.5c.1 .8 .8 1.3 1.6 1.1c.7-.1 1.2-.8 1.1-1.5l-.2-1.6V472l-.9-2.6v-.1l-1-3.1v.1l-.8-3.5v-.1l-1-3.7l-.8-3.6h-.1l-.8-3.8l-.8-3.4v.1l-.7-3.5l-.5-3.2v.1l-.4-2.8l-.3-2.5v.1l-.3-1.9l.1 .2l-.1-.8v-.3c0-.6-.4-1.2-.9-1.4c-.6-.1-1.3 .1-1.6 .6c-.4 .5-.4 1.2 0 1.6l.2 .3l-.2-.3l-.1-.5v1v-.3l-.2 1.3v.1l-.3 2.5v.1l-.4 3.3l-.4 3.8v.1l-.2 4l-.2 4v-.1l-.7 3.8l.1-.2l-1.2 3.4l.1-.2l-1.8 3.2l.1-.1l-2 2.9v-.1l-1.9 2.7l.1-.1l-1.8 2h.1l-1.6 1.5l.4-.3l-1.7 .7l.3-.1l-1.8 .2h.4l-1.7-.4h.1l-1.8-.6l.3 .1l-1.6-1.2l.2 .1l-1.4-1.5l.1 .1l-1.5-2.4v.1l-1.5-3v.1l-1.2-2.7l.1 .2l-.9-3.5v.1l-.3-1.5l-.1-.2l-.3-1.1c-.1-.2-.4-.4-.7-.5c-.3 0-.6 .2-.7 .5Z" class="g0_74"/>
<path d="M329.5 431.4l-.7 .2h-.1l-.9 .3h-.1l-1.6 .7l-.2 .1l-1.2 .9l-.3 .2l-1 1.2l-.3 .5l-.4 2.1v.1l-.4 2.5v.2l.1 3.8l.4 4.1l.4 4.1v.1l.8 4.3v.2l1.2 3.7v.1l1.4 3.4v.1l1.5 3c.3 .5 .9 .7 1.4 .5c.5-.3 .8-.9 .5-1.4l-1.4-3l.1 .1l-1.3-3.5l-1-3.7v.1l-.8-4.4v.2l-.4-4.1l-.4-4.1v.1l-.1-3.8v.2l.3-2.5v.1l.4-2.1l-.2 .5l1-1.3l-.2 .2l1.2-.8l-.2 .1l1.6-.7h-.2l1-.3h-.1l.7-.2c.6-.1 1-.7 .8-1.3c-.1-.6-.7-.9-1.3-.8Z" class="g0_74"/>
<path d="M477.4 466.8h.4c.3 0 .6-.2 .8-.4c.2-.2 .3-.5 .3-.9v-.4l-.9 1.2l.8-.2h.1l.9-.3h-.3h1.1h-.2l1.8 .3h.1l1.3 .1h-.3l1.3 .5h-.2l.9 .5l-.4-.4l.5 .9l-.1-.4l.2 1.3v-.3l-.2 2.4v-.2l-.6 2.6l.1-.2l-1.3 3.5v-.2l-1.9 3.8v.1l-1.9 4.1l.1-.1l-2.2 4.1c-.2 .5-.1 1 .4 1.3c.5 .2 1 .1 1.3-.4l2.2-4h.1l2.1-4l2-3.8v-.1l1.3-3.4l.1-.2l.5-2.6v-.2l.1-2.3v-.3l-.2-1.2l-.1-.4l-.6-.9l-.3-.3l-.9-.6l-.2-.1l-1.2-.5l-.3-.1l-1.4-.2h.1l-1.9-.3h-1.6l-.8 .2h-.1l-.8 .3c-.5 .1-.8 .5-.8 1v.4l.9-1.1l-.4 .1c-.5 .2-.9 .7-.8 1.2c.1 .6 .5 1 1.1 1.1Z" class="g0_74"/>
<path d="M551.8 419.7l-1.8 2.6l.1-.1l-2.6 3.2l-2.8 3.4l-.2 .2l-2.5 4.9l-2.5 5.1l.1-.1l-3.1 4.7l-2.8 5l.1-.1l-2.4 3.6V452l-2.3 3l-.2 .4l-1.1 2.7v.1l-.8 2.6l-.1 .4v2.4l.4 1.8c.1 .2 .2 .4 .3 .6l1.3 1.3l.4 .3l2.2 1.1l.4 .1l3.1 .3h-.1l3.5 .6l.3 .1l3.6-.1h.1l3.2-.5h-.2l2.5-.1l.3-.1l1.8-.6h.1l1.1-.5l.5-.4l.7-.8l-1 .4h.2c.4 0 .8-.1 1.1-.5c.2-.3 .3-.7 .2-1.1l-.2-.7l-.2-.5l-.9-1.1l-.4-.4l-.9-.5l.3 .3l-1.6-1.7l-.1-.2l-1.6-1.2l-.2-.1l-1.3-.7h.1l-1.2-.7v.1l-.8-.5l-.5-.3l.6 1.1v-.6l-.2 .9l.4-.7l-.2 .3l.9-.8l-.3 .2l1.5-.7l-.1 .1l2.1-.7H548l2.5-.7h-.1l2.7-.4l.1-.1l2.5-.7l-.2 .1l3.4-.5l3-.5h-.1l2.8-.3h-.1l2.6-.2c.3 0 .5-.1 .6-.2l1.1-.7l.3-.3l.5-.7c.2-.2 .2-.5 .1-.7c-.1-.2-.4-.4-.6-.4l-.9-.1c-.2 0-.5 .1-.7 .2l-1.1 .6l.7-.1h-2.8l-2.8 .3h-.1l-2.9 .5v-.1l-3.4 .5h-.2l-2.4 .7h.1l-2.7 .4l-.1 .1l-2.5 .7h-.1l-2 .7h-.1l-1.6 .7l-.3 .2l-1 .8l-.3 .2l-.4 .6c-.2 .3-.3 .6-.3 .8v.6c0 .5 .3 .9 .7 1.2l.5 .3l.1 .1l.8 .4l1.2 .7l1.3 .7l-.2-.1l1.5 1.2l-.1-.2l1.6 1.8l.4 .3l.9 .5l-.4-.4l.9 1.1l-.2-.3l.2 .6c.3 .7 1 1 1.7 .8c.7-.3 1-1.1 .8-1.7c-.3-.7-1-1.1-1.7-.8l-.2 .1c-.3 0-.5 .2-.7 .4l-.6 .9l.5-.4l-1.1 .5h.1l-1.8 .6l.4-.1l-2.5 .2h-.1l-3.1 .5h.1h-3.6l.3 .1l-3.6-.7l-.1-.1l-3.1-.2l.5 .1l-2.2-1.1l.4 .2l-1.3-1.4l.3 .6l-.4-1.8l.1 .3v-2.1v.4l.8-2.6l-.1 .1l1.1-2.8l-.2 .3l2.4-3v-.1l2.4-3.6l.1-.1l2.7-4.9v.1l3.1-4.7v-.2l2.5-5.1v.1l2.5-4.9l-.1 .2l2.7-3.4l2.6-3.3l.1-.2l1.4-2.8c.2-.5 0-1-.4-1.3c-.5-.2-1-.1-1.3 .3Z" class="g0_74"/>
<path d="M612.7 448.1l-2.2 .4l-.2 .1l-2.6 1.1l-2.8 1.1h.1l-3.3 1.1l-.1 .1l-2.7 1.2l.1-.1l-2.6 1h.1l-2.5 .7h.1l-2.2 .4h.1l-2.5 .2h.1h-1.8h.3l-1.8-.3l-1.1-.2l.3 .1l-.5-.2c-.5-.2-1.1 0-1.4 .4c-.3 .5-.2 1.1 .2 1.5c.3 .4 .9 .4 1.4 .1l.3-.2c.4-.3 .6-.9 .4-1.4c-.3-.5-.8-.7-1.4-.5l-.3 .1c-.4 .1-.6 .4-.7 .8c-.1 .4 0 .7 .2 1l.4 .4c.1 .2 .3 .3 .5 .4l1.1 .3h.2l1.7 .4h2.1l2.5-.2h.2l2.2-.5h.1l2.6-.8l2.6-1l.1-.1l2.7-1.3l-.1 .1l3.2-1.3l.1-.1l2.6-1.3h.1l2.5-1.3H611l2.1-.8c.3-.1 .5-.5 .4-.9c-.1-.3-.5-.5-.8-.5Z" class="g0_74"/>
<path d="M615.2 458.3h-.3c-.3-.1-.5 0-.7 .2l-.6 .4l.2-.1l-1.2 .6l-.1 .1l-1.6 1h.1l-2.4 1.2l.4-.1l-3.1 .5h-.1l-2.7 .6h.2l-3.2-.1l.2 .1l-2.8-.5h-2.4h.2l-2.2-.4h-.6l-1.4 .5c-.5 .2-.7 .7-.6 1.2c.2 .4 .7 .7 1.1 .6l1.5-.5h-.6l2.2 .8l.3 .1l2.2 .1h-.1l2.8 .5h3.7l2.7-.6l3.1-.5l.3-.2l2.4-1.3l.1-.1l1.6-1.1l-.2 .1l1.3-.7l.2-.1l.5-.5l-.5 .3l.3-.1c.5-.1 .9-.6 .8-1.1c-.1-.5-.5-.9-1-.9Z" class="g0_74"/>
<path d="M670.1 433l.7-1.2l.1-.2l.6-1.7v-.1l.4-1.8l.5-1.8v-.1l.2-1.2l.2-1v-1.2l-.2-.5l-.8-1.2l-.1-.2l-.8-.7l-.3-.2l-1.5-.9l-.1-.1l-1.7-.6c-.3-.1-.6-.1-1 0l-1.8 .7h.2l-2.4 .6l-.4 .2l-2.4 1.6h-.1l-2.8 2.1h.1l-3.1 2l-.1 .1l-2.8 2.3l-.1 .2l-2.5 2.7l-.1 .2l-2.1 3.1l-.2 .3l-1.3 3.5l-1.3 3.6v.3l-.4 4.1v.2l.3 3.9l.1 .4l.9 3.4l.2 .3l1.6 3.3l.3 .3l2.3 2.7l.2 .2l2.8 2.3l.4 .3l4.1 1.6l.2 .1l4.8 1.1h.3l5.5-.1h.4l5.7-1.3l.2-.1l6.8-2.4l.1-.1l5.9-3.1c.7-.4 1-1.2 .6-1.8c-.3-.7-1.1-1-1.8-.6l-6 2.9h.2l-6.8 2.4l.2-.1l-5.8 1.1h.3h-5.5h.4l-4.7-1.1l.2 .1l-4.1-1.6l.5 .3l-2.8-2.4l.2 .2l-2.4-2.8l.2 .3l-1.7-3.1l.1 .2l-1-3.4l.1 .3l-.4-3.9v.2l.3-4l-.1 .3l1.2-3.5l1.3-3.5l-.2 .3l2.1-3.1l-.1 .1l2.4-2.8l-.1 .2l2.7-2.4l-.2 .1l3.1-2.1h.1l2.7-2.1l2.4-1.6l-.4 .2l2.4-.6l.2-.1l1.8-.8h-1l1.7 .6l-.2-.1l1.6 .8l-.2-.1l.9 .6l-.2-.2l1 1.1l-.3-.5l.2 1v-.2l-.1 1v-.1l-.2 1.2l-.4 1.8v.1l-.3 1.8l-.4 1.7v-.1l-.5 1.4c-.1 .2 0 .5 .3 .7c.3 .1 .6 0 .8-.2Z" class="g0_74"/>
<path d="M115 507.5h.1c.4 .1 .7-.2 .8-.5c.1-.4-.2-.8-.5-.8c-.4-.1-.8 .1-.9 .4l-.1 .4c-.1 .4 .1 .8 .4 1c.4 .2 .8 .1 1.1-.3c.2-.3 .2-.6 .1-.9c-.1-.3-.3-.5-.6-.5l-.2-.1h-.3l-.1 .1c-.5 .1-.8 .4-.8 .9v.7l.2 2.1v-.1l.1 1.4v.1l.2 1.4v.1l.4 1.6v.1l.5 1.5l.1 .1l.8 1.9l-.1-.1l.9 2.5v-.1l.8 2.8v-.1l1 4.3l1 4.2v-.2l.3 4.4v-.2l-.3 4.1v.2l.2 4.8l.2 5.1v.1l.5 5.6v.1l1 6.2v-.1l.5 6v-.1l.4 5.8l.5 5.6v-.1l.2 5.3v.2l.6 4.7V589l.4 4.5l.4 3.8l.1 .3l1.1 3.5l.9 2.5v-.2l.6 2.5v.1l.6 1.9v-.2l.2 1.9v-.2v1.5l.1 .3l.3 1.3v.1l.2 .5c.2 .6 .8 .9 1.4 .8c.6-.2 1-.8 .9-1.4l-.1-.5v.1l-.1-1.4v.2l.1-1.4v-.3l-.3-1.9v-.2l-.7-2v.1l-.6-2.4v-.2l-.9-2.4l-1.2-3.5l.1 .3l-.3-3.8l-.5-4.4v-.1l-.6-4.7v.1l-.2-5.2v-.1l-.6-5.7v.1l-.5-5.8l-.5-5.9v-.1l-1.1-6.2v.1l-.5-5.6v.1l-.2-5.2l-.3-4.9v.2l.4-4.1v-.2l-.4-4.4V531l-1.1-4.2v.1l-.9-4.3v-.1l-.9-2.8l-.9-2.4v-.1l-.9-1.9l.1 .1l-.5-1.5l-.5-1.6l.1 .1l-.3-1.4v.1l-.1-1.3v-.1l-.3-2.1v.1v-.5l-.1 .2l.1-.1l-.8 .7h.2l-.9-.3c.2 .4 .7 .5 1 .3c.4-.2 .6-.6 .5-1l-.1-.4c-.1-.3-.5-.5-.9-.4c-.3 0-.6 .4-.5 .7v.2c.1 .2 .2 .4 .5 .4Z" class="g0_74"/>
<path d="M151.1 506.1l1.2-2.6l.1-.3c.1-.4-.1-.8-.4-.9c-.4-.2-.8-.2-1 0c-.3 .3-.4 .7-.3 1l.1 .3v-.1v.3c.1 .3 .4 .6 .8 .6c.3 .1 .6-.1 .8-.3c.2-.3 .3-.7 .1-1l-.1-.2c-.2-.3-.7-.5-1.1-.3c-.4 .1-.7 .6-.6 1l.1 .3c.1 .3 .3 .6 .6 .7c.4 .1 .7 0 1-.2c.2-.3 .3-.6 .2-.9v-.1c-.1-.2-.2-.4-.4-.5h-.1l-.1-.1h-.1l.6 1.1l.1-.1l-.3 .5h.1c.3-.4 .3-1 0-1.3c-.4-.4-.9-.5-1.4-.3c-.4 .2-.6 .7-.5 1.2l.2 .8v-.1l.4 1.6l.1 .5v-.1l.1 .9l.2 1.1l.2 1.9v-.1l.1 2l.2 2.4v-.1v4l.2 2.2V523l.2 2.7l.2 3l.3 2.9l.5 3.2l.4 3.1l.6 3.4v.1l.6 4h.1l.7 4.2l.8 4.4l.8 4.4v-.1l.4 3.9v-.1l.1 4.6l.2 5v-.1l-.1 5.2v-.1l-.5 5.1v-.1L157 587v-.1l-.8 4.9l-.5 4.2l-.1 .1l-.3 4.3v-.1L155 603v.2l.1 2.3v.1l.2 1.2v.1l.2 .7c.1 .7 .9 1.2 1.6 1.1l.5-.1c.5-.1 .8-.4 1-.8l.3-.6l.1-.2l.3-1.5c.2-.6-.2-1.2-.8-1.4c-.6-.2-1.2 .2-1.4 .7l-.5 1.5l.3-.5l-.5 .6l1.2-.5l-.5-.1l1.2 1.3l-.1-.7l-.2-1.2v.2l-.1-2.3v.2l.3-2.6v-.1l.4-4.3v.1l.5-4.2l.7-4.8l.1-.1l.5-5.3l.4-5v-.1l.1-5.2v-.1l-.3-5.1l-.2-4.5v-.1L160 558v-.1l-.8-4.3v-.1l-.8-4.3l-.8-4.3l-.7-4l-.5-3.4l-.4-3v-.1l-.5-3.2v.1l-.3-2.9v.1l-.2-3l-.2-2.7v.1l-.1-2.1v-.1l-.1-2.1l-.1-1.9v-2.1l-.2-2.4l-.2-2l-.3-1.9v-.1l-.2-1.1l-.2-.9v-.1l-.2-.5l-.4-1.5V504l-.3-.7c-.1-.4-.4-.7-.9-.7c-.4-.1-.8 .1-1 .5c-.2 .4-.2 .9 .1 1.2l-.2-.5v.1c.1 .3 .2 .6 .5 .7c.3 .2 .6 .2 .9 .1h.1l.1-.1h.1c.2-.2 .3-.4 .4-.6v-.6l-.1-.3c-.2-.3-.5-.6-.8-.6c-.4 0-.7 .2-.9 .5c-.2 .3-.1 .7 .1 1l.1 .1c.2 .3 .7 .4 1.1 .2c.4-.1 .6-.6 .5-1l-.1-.3l-.1-.1l-.1-.2c-.1-.4-.6-.7-1-.5c-.4 .1-.7 .5-.7 1h.1v-.4l-1.1 2.6c-.2 .4 0 .9 .4 1.1c.4 .2 .9 0 1.1-.4Z" class="g0_74"/>
<path d="M132 614.2l1.2 1.7c.1 .2 .3 .3 .6 .3c.2-.1 .3-.3 .4-.5v-.2v.1l.1-.3l-.1-.4l-.2-.7v.2v-.3c-.1-.5-.5-.8-1-.8l-.1 .1c-.5 0-.8 .4-.8 .9v.2l.1 .4l.2 .4l-.1-.5v.7l.3-.9h-.1c-.3 .4-.3 .9-.1 1.3c.2 .4 .6 .6 1.1 .6c.4-.1 .8-.3 1-.8v-1l-.1-.2h-.1c-.1-.2-.3-.5-.5-.6h-.1h.1l-.1-.1l-.4-.1l-.6-.2l-.1-.1l-2.1-.4l-.3-.1l-1.4 .1l-.5 .1l-1.1 .5l.3-.1l-2 .4l-2.1 .4h-.1l-2.1 .6l.2-.1l-2.7 .4h-.3l-1.9 .7l-2.1 .8l.2-.1l-2.5 .5v.1l-2.3 .6l.1-.1l-2.7 .6h-.1l-2.6 .6l-2.3 .5h.1l-2.5 .5l-2.3 .5l-2.1 .3h.1l-2.1 .3h-.1l-1.8 .3l-1.7 .4h.1l-1.5 .2h-.2l-1.6 .3l-1.5 .4l.4-.1H84.1l-1.4 .3h.2H81.2l-1.7 .1h-2l.2 .1l-1.7-.3H74.8l.2 .1l-1.3-.2H72.5h.2l-1-.1h.1l-1.1-.2H69.5h.2l-1-.1h-3h.1h-2h.3l-.3-.1h-.9l-.7 .1h.5l-.5-.1H60.6l.8 .2l-.2-.2c-.6-.3-1.3-.2-1.8 .1c-.5 .4-.7 1.1-.6 1.7c.2 .6 .7 1.1 1.3 1.2h1h-.2l.4 .1c.5 0 .9-.1 1.3-.4c.3-.3 .5-.8 .5-1.2v-.1c0-.7-.5-1.3-1.2-1.5c-.6-.2-1.4 .1-1.7 .7l-.1 .1c-.2 .4-.3 .8-.2 1.2c0 .4 .3 .8 .7 1l.1 .1c.7 .5 1.7 .3 2.1-.5c.5-.7 .4-1.6-.4-2.1v-.1l.2 .2l.1 .2l.2 1.1v-.1c.1-.4 0-.7-.1-1l-.1-.1l-.3-.4v-.1h-.1v-.1h-.1l-.4-.3l-.2-.1l.1 .1l-1-.5l-2-1.1l-.1-.1l-.5-.2l.3 .2l-.8-.6h.1l-.6-.5l-.1-.1l-.7-.5l-.8-.7l-.5-.3l-.9-.2l.6 .3l-.6-.6l-.4-.2l-.4-.3l.5 .4l-.3-.3c-.3-.3-.8-.5-1.2-.5h-.7h.6h-.4l-.2-.1h-.4l.9 .4l-.3-.3l-.1-.1l-.4-.3l-.4-.3c-.3-.2-.6-.4-1-.4h-.7l.5 .1l-.6-.2H49l-1.1-.3h-.5l-1.5 .2h.3l-1.5-.2l.5 .2l-1.7-.8l-.4-.1l-1.3-.2l.9 .5l-.8-.9l-.2-.1l-.5-.4c-.3-.2-.6-.3-1-.3h-.8h.3l-.8-.1h-.5l-.7 .1h.6l-1.1-.2c-.3-.1-.5-.1-.8 0l-1 .3h.5h-1c-.2 0-.5 .1-.7 .2l-1 .5l-.4 .4l-.7 .8l-.1 .1l-.7 .9l-.1 .2l-.6 1.2l-.1 .1l-.5 1.2l-.1 .1l-.5 1.3l-.4 1.3l-.1 .2l-.2 1.4l-.2 1.6v.1l-.1 1.8v.1l.1 2.1v2.6l.2 3.2v-.1l.1 3.3v3.3l.2 2.9v-.1v2.5l.4 2v.1l.5 2.1v.1l.7 1.9l.3 .5l1.2 1.3v-.1l.9 1.2c.2 .2 .4 .3 .7 .4l1.2 .4l-.4-.2l1.1 .7l.3 .1l1.1 .4l-.4-.2l1.1 .9h-.1l.7 .7v-.1l.3 .4l-.3-.5l.3 .7c.2 .5 .8 .9 1.4 .9c.6-.1 1.1-.5 1.2-1.1l.1-.3l-1.5 1l.8 .1h.5l.8-.3l.4-.2l1.1-.7l-1.6-.1l.3 .3c.5 .4 1.1 .4 1.6 .1l1-.7l-.4 .2l.9-.3c.3 0 .6-.2 .7-.4l.7-.8l1.5-1.5c.2-.2 .3-.4 .4-.6l.4-1.6v.2l.8-1.8l.1-.1l.6-1.6l-.1 .2l.8-1.2H51l.8-1.3l.7-1.2l.5-.8l.1-.3l.3-1l.2-.6l.1-.2v-.5v.2l.1-.3l-.1 .2l.2-.5l-.4 .5l.3-.2l.5-.5h.1l.8-.9l.1-.1l.6-.9l.1-.2l.8-1.7l-.4 .5l1-.8l.4-.3l-.6 .2l.6-.1l-1.2-.3l.6 .5c.3 .2 .7 .4 1.1 .3c.4-.1 .8-.3 1-.6l.2-.4l-1.2 .7h.6l.3-.1h.4l.5-.2l.3-.2l-.6 .2h.3l-1.6-1.2l.1 .2c0 .4 .2 .7 .5 .9l.6 .5l-.3-.4l.3 .5l.2 .3l.2 .2c.2 .2 .5 .3 .8 .4h.2c.8 .2 1.5-.3 1.7-1.1c.1-.7-.4-1.5-1.1-1.7c-.8-.1-1.5 .3-1.7 1.1l-.2 .5c-.1 .5 .1 1 .4 1.3c.3 .4 .9 .5 1.3 .5l.4-.1l-.8-.1l.8 .3l.6 .1h.8c.3-.1 .5-.2 .8-.4l.8-.6l-.5 .2l.7-.1h-.3h.7l-1-.4l.3 .3c.3 .2 .6 .3 .9 .3h.8l.6-.1c.3 0 .5-.1 .7-.3l.5-.5l-.1 .1l1-.7l-.8 .3h.8l.6-.1h-.1h.4l-.5-.1l.6 .2c.4 .2 .9 .1 1.3-.1l.4-.3l-.8 .3l.7-.1h-.1h.6l.6-.1l.6-.2h-1l.9 .3l.2 .1l.9 .1h1.1h-.3l1 .2h.5l1-.1h-.3l1.1 .1h.2l.7-.1h.1l.8-.1h-.7l.9 .3c.4 .1 1 .1 1.3-.2l.4-.3l-1.5 .2l.9 .4l.3 .1l.7 .1l.6 .2l1 .3h.6l.6-.1h-.4l.8 .1h1.2l.6-.1h-.4l.7 .1h.5l.7-.1H89l.6-.1h-.4l.8 .2l-.2-.1l.7 .3l-.2-.1l.8 .5c.2 .1 .5 .2 .7 .2h1l.7-.2h.1l.6-.1c.3 0 .6-.2 .8-.3l.8-.8l-.6 .3l.9-.2h-.4l1.4 .1H99h-.2l2.2 .3h-.1l1.8 .3h.4l1.6-.1c.4 0 .8-.1 1-.4l.8-.8l.1-.2l.5-.7l-.4 .4l.8-.6v.1l.5-.4l-1.2 .2l.9 .3l.3 .1h.8l-.6-.1l.7 .4c.3 .1 .5 .2 .8 .2h.8l.5-.1h-.6l.9 .1l.1 .1l.8 .1h.3l1-.1l.4-.1l1-.5c.3-.1 .5-.3 .6-.5l.7-1l-.3 .3l.8-.6l-.3 .2l.6-.3l-.6 .1h1.3c.4 0 .8-.1 1.1-.4l.4-.5l.4-.3l.4-.4l-1.4 .4l.8 .1h-.3l.9 .3h.1l1.2 .5l1.1 .4h.2l.9 .2h1.2l.2-.1c.7-.1 1.3-.7 1.3-1.5v-.2c0-.8-.6-1.4-1.3-1.5c-.7-.1-1.4 .3-1.6 1c-.3 .7 0 1.5 .7 1.8l.1 .1c.7 .3 1.5 .1 1.9-.6l.1-.1c.4-.6 .3-1.3-.2-1.9l.4 1.1v-.1c0-.4-.1-.8-.4-1.1h-.1v-.1c-.2-.2-.4-.3-.7-.4c-.5-.1-1.1 0-1.4 .3c-.4 .3-.6 .9-.6 1.4l.1 .3c0 .2 .1 .4 .2 .6l.2 .4l.2 .2l1.9 1.9l.4 .2l.3 .2l-.6-.5l.4 .5l-.2-.3l.1 .4l.1 .1l.1 .2v-.1l.3 .8l-.1-.7c0 .5 .1 .9 .5 1.2l.7 .6l-.3-.3l.3 .5l-.2-.5v.2l.3 .6l.6 .9l-.2-.2l.3 .6l.4 1l.1 .2l.6 1.1l-.1-.2l.4 1v.1l.6 1.1h-.1l.5 1.1l.5 1.2v-.2l.3 1.3v-.2l.2 1.3v.2l.5 1.9h.1l.4 1.7v-.2l.4 2l.4 2l-.1-.2l.2 1.5v-.1v1.3l.3 1.1V661l.1 1l.1 .2l.3 .9l-.1-.1l.4 1.6v.1l.2 .8l.1 .1l.4 1.1l-.1-.5v1.1l.1 .9v.1l.4 1.6v-.2l.1 1.1l.1 .9l.1 .7v-.6l-.1 .4v.6l.1 1.1l.1 .2l.2 1V675l.1 .7v.2l.2 .5c.1 .6 .6 1 1.2 1.1c.6 .1 1.2-.1 1.6-.6c.3-.5 .4-1.1 .1-1.7l-.1-.3c-.4-.7-1.3-1.1-2-.8c-.8 .3-1.2 1.1-1 1.9l.4 1.5v-.1l.3 1.7l.3 1.3l.4 1.7l.8-1.8l-.1 .1l1.6 .1l-.3-.2c-.5-.4-1.3-.4-1.8 0c-.5 .4-.8 1.1-.6 1.7l.2 1l.1 .3l.3 .7l-.1-.6v.7l.2 .6l.6 1.2l-.2-.7v.6l.1 .5c0 .3 .1 .5 .2 .8l.5 .6l-.3-1v.5c0 .4 .1 .7 .3 1l.5 .6l-.4-.9l.1 .5l.1 .5l.2 .5l-.1-.6v.9l.1 .6v.1l.1 .6v-.4l-.1 .8v.2l.1 .6v-.1v.9v-.4l-.2 .8v1.7l.2 .9l.2 .8l.1 .4l.4 .9l.3 .7l-.1-.5v.3l.5-1.4l-.3 .2l1.6-.4l-.4-.1c-.7-.2-1.5 .2-1.9 .9l-.2 .6v.1l-.2 .4v.4l-.1 .6l.9-1.4l-.4 .2h.2l-.6 .2c-.5 .1-.8 .5-1 .9l-.3 .6l.3-.4l-.5 .6c-.2 .2-.2 .4-.3 .6l-.3 .9l.7-.9l-.6 .4l-.3 .3l-.6 .7l.2-.2l-.6 .5c-.2 .2-.3 .4-.4 .6l-.3 .8l-.1 .3l-.3 1.1l.1-.4l-.4 .9l-.6 .9l-.1 .3l-.4 1.2v-.1l-.5 1.1v.1l-.5 1.3v-.1l-.5 1.3l-.4 1l-.1 .1l-.4 1.4v.2l-.3 1.2v1.8v-.1l-.1 1.5v3.6l.2 1.3l.1 1.4v.2l.3 1.3v-.2l.1 1.5l.1 .3l.3 1.3v-.2l.2 1.6v-.1l.2 1.6l.1 .2l.4 1.6v-.1l.3 1.9l.1 .2l.6 1.9h.1l.7 1.9v.1l.8 1.6l.1 .1l.9 1.7l.2 .2l1 1.3l.4 .3l1.8 1.4l.1 .1l1.6 1h.1l.9 .5l.4 .2l1.8 .5h.1l1.3 .3h.1l1.7 .3l2.4 .4h.1l1.9 .2H159l2.3-.3h.1l2.1-.4h-.1l2.2-.4l.3-.1l1.4-.6h.1l1.2-.6l-.2 .1l1.4-.5c.3 0 .5-.2 .7-.4l.8-.8l-.2 .2l1.3-.9l.3-.3l.9-1.1l.1-.2l.8-1.2v-.1l.8-1.3l.7-1.4v-.1l.5-1.2h.1l.4-1.3h.1l.3-1.1l.3-1.1l.1-.1l.2-1.1l.2-1.1v-.2l.1-.9v.1l.2-1v-.1l.1-1c.1-.5-.2-1.1-.6-1.4c-.5-.3-1.1-.4-1.6-.1c-.5 .2-.9 .7-.9 1.2l-.1 1v-.2l-.2 1.1v.1l-.1 1l.1-.2l-.3 1.1h.1l-.3 1.1l.1-.1l-.3 1l-.3 1v-.1l-.5 1.2l-.5 1.3l.1-.2l-.7 1.4v-.1l-.8 1.3h.1l-.8 1.2l.1-.1l-.9 1.1l.4-.4l-1.3 .9l-.2 .2l-.9 .9l.6-.4l-1.4 .4l-.2 .1l-1.3 .6h.1l-1.4 .5l.4-.1l-2.2 .4h-.1l-2 .5l.2-.1l-2.3 .2h.2l-2.1 .1h-1.9l-1.7-.1h.1l-1.8-.1h.1l-2.4-.4l-1.7-.3l-1.3-.3l.1 .1l-1.7-.6l.3 .2l-.9-.6l-1.6-1l.1 .1l-1.8-1.3l.3 .3l-1.1-1.4l.1 .2l-.9-1.7v.1l-.8-1.6l.1 .1l-.7-1.8l-.7-1.8l.1 .2l-.4-1.9v-.1l-.4-1.6v.2l-.2-1.6l-.2-1.5v-.2l-.4-1.3l.1 .2l-.2-1.4v-.2l-.3-1.4v.2l-.1-1.4l-.1-1.3v.1l-.1-1.1v-2.2v.1l.1-1.5v-1.6v.4l.3-1.3l-.1 .2l.4-1.4v.2l.4-1.1l.6-1.2v-.1l.5-1.3l-.1 .1l.5-1.1v-.1l.5-1.2l-.2 .3l.6-1l.5-.9l.2-.4l.3-1.1l-.1 .2l.3-.8l-.4 .5l.6-.5l.2-.2l.5-.6l-.3 .3l.5-.4c.3-.2 .6-.5 .7-.9l.2-.9l-.2 .5l.4-.6l.2-.3l.3-.6l-.9 .9l.6-.3h.1l.5-.3c.5-.2 .8-.7 .9-1.3v-.6l-.1 .4l.2-.5l-.1 .2l.2-.5l-1.8 .9l.3 .1c.6 .2 1.1 0 1.5-.4l.2-.2c.4-.4 .6-.9 .5-1.4l-.1-.3l-.1-.5l-.3-.6v.1l-.4-.9l.1 .3l-.1-.9h-.1l-.2-1l.1 .4v-.9l-.1 .4l.2-.8l.1-.4v-1l-.1-.7v.3l.1-.8v-.4l-.2-.6v-.6v.3v-.7l-.2-.6l-.2-.6l.1 .5v-.5c0-.3-.2-.6-.4-.9l-.4-.5l.4 1v-.5c0-.3-.1-.6-.3-.9l-.5-.6l.3 .8v-.5v.2v-.5c0-.2-.1-.5-.2-.7l-.5-1.1l.1 .6v-.8l-.1-.5l-.3-.7v.2l-.2-1c-.2-.7-.8-1.2-1.5-1.2c-.7 0-1.4 .5-1.6 1.1c-.2 .7 .1 1.5 .6 1.9l.3 .1c.5 .3 1.1 .4 1.6 .1l.2-.1c.6-.3 1-1.1 .8-1.8l-.4-1.7v.1l-.3-1.2l-.3-1.7v-.1l-.4-1.5c-.2-.6-.7-1-1.3-1.2c-.5-.1-1.2 .2-1.5 .6c-.4 .5-.5 1.2-.2 1.7l.2 .4c.4 .7 1.2 1 2 .7c.7-.3 1.2-1.1 .9-1.9l-.1-.4v.1l-.1-.8v-.1l-.3-1l.1 .2l-.2-1.1v.6l.1-.4V672l-.1-.7l-.1-.8l-.1-1.1v-.2l-.4-1.6l.1 .1l-.2-.9v.3v-1.4l-.4-1.1v.1l-.2-.8l-.4-1.6v-.1l-.3-.9v.2l-.1-.9v-.2l-.3-1.1v.3v-1l-.1-1.5l-.1-.2l-.4-1.9l-.3-2l-.1-.1l-.5-1.6l-.5-1.9l.1 .1l-.3-1.3v-.1l-.3-1.3l-.1-.2l-.5-1.2l-.5-1.2h-.1l-.5-1.2l.1 .2l-.4-1l-.1-.2l-.7-1.1l.1 .2l-.3-1h-.1l-.2-.7l-.1-.2l-.6-1l.2 .6l-.1-.3l-.2-.5l-.3-.5l-.2-.3l-.7-.7l.5 1.1c-.1-.2-.1-.4-.2-.6l-.3-.8H129l-.1-.2l.1 .2l-.1-.4l-.2-.3l-.4-.6c-.1-.2-.3-.4-.6-.5l-.2-.1l.4 .3l-1.9-1.9l.1 .2l-.2-.3l.3 .6l-.1-.3l-1 1.7l-1.5-.4l.1 .1l.1 .1l-.5-1.1v.1c0 .4 .2 .8 .5 1v.1l-.2-2l-.1 .2l1.9-.5l-.1-.1c-.4-.2-1-.2-1.4 .1c-.5 .3-.7 .8-.7 1.3v.2l1.2-1.4h-.2l-.6 .1h.6l-1-.2h.2l-1.1-.4l-1.2-.4l-.8-.3l-.3-.1l-.7-.1c-.5-.2-1 0-1.4 .3l-.4 .5l-.4 .3l-.4 .5l1-.5h-1.3l-.6 .1l-.6 .4l-.4 .2l-.8 .6l-.3 .3l-.7 1.1l.7-.6l-1 .4l.5-.1l-1 .1h.3l-.8-.1h.1l-.8-.1h-1.1h.3h-.5l.7 .2l-.7-.4l-.6-.2l-.8-.1l.3 .1l-.9-.3c-.5-.2-.9-.1-1.3 .2l-.5 .3l-.9 .6l-.3 .4l-.5 .7l.1-.2l-.7 .8l1-.5l-1.7 .1h.3l-1.8-.3l-2.2-.3h-2h.1l-1.5-.1h-.4l-1 .3c-.2 .1-.4 .2-.6 .3l-.8 .8l.7-.4l-.7 .1l-.7 .2l.2-.1h-.7l.8 .3l-.8-.5l-.2-.1l-.8-.3l-.2-.1l-.8-.2h-1l-.2 .1l-.7 .1h.5l-.8-.1h-.3l-.6 .1h.1h-.7h.3l-.8-.1h-.4l-.7 .1h.6l-1-.2l-.7-.2l-.8-.2l.3 .1l-.9-.4c-.5-.2-1-.2-1.5 .2l-.3 .2l1.3-.2l-.8-.3c-.2-.1-.4-.1-.7-.1l-.7 .1h.1l-.8 .1h.2l-1.1-.1h-.3l-1 .1h.5l-1-.2H74.7h.2l-.8-.1l.2 .1l-.9-.4c-.3-.1-.6-.1-1 .1l-.6 .2l.5-.1h-.7l-.7 .1c-.3 0-.5 .1-.8 .3l-.3 .2l1.4-.2l-.6-.2l-.5-.1h-.5l-.6 .1h.1h-.7c-.3 0-.6 0-.9 .2l-1 .8l-.1 .1l-.5 .4l.7-.4l-.5 .1h.2h-.6l1 .4l-.3-.3c-.3-.2-.7-.4-1.1-.3h-.7l-.3 .1l-.6 .1l-.6 .3l-.8 .7l.8-.3h-.8l.6 .1l-.8-.3c-.2-.1-.5-.1-.8 0h-.4c-.7 .2-1.1 .8-1.1 1.5c.1 .7 .6 1.3 1.3 1.4c.7 0 1.4-.4 1.5-1.1l.2-.5c.1-.4 0-.8-.2-1.2c-.3-.3-.6-.5-1-.6h-.3l.8 .4l-.2-.3l.2 .3l-.3-.5l-.3-.4l-.6-.5l.5 .9l-.1-.2c-.1-.8-.8-1.3-1.6-1.2l-.3 .1l-.6 .2l-.2 .2l.5-.2l-.4 .1l.2-.1h-.6c-.5 0-.9 .3-1.2 .7l-.2 .4c-.4 .6-.2 1.4 .4 1.9c.6 .4 1.5 .3 1.9-.3c.5-.6 .4-1.5-.2-2l-.5-.5c-.4-.2-.8-.4-1.2-.3l-.6 .2c-.3 0-.5 .1-.6 .3l-.5 .3l-.9 .8l-.4 .5l-.8 1.7l.1-.2l-.6 .9l.1-.2l-.8 .8h.1l-.5 .4H52l-.3 .2l-.4 .5l-.2 .5l-.1 .2v.4l-.1 .1v.5v-.3l-.1 .6l-.3 1l.1-.3l-.5 .8l-.7 1.2l-.7 1.2l-.1 .1l-.7 1.2l-.1 .2l-.6 1.6v-.1l-.9 1.8l-.1 .2l-.4 1.6l.3-.6l-1.5 1.6h-.1l-.7 .9l.7-.5l-.9 .3l-.4 .2l-1 .6l1.6 .1l-.4-.3c-.4-.4-1.1-.4-1.6 0l-1.1 .8l.5-.2l-.8 .2l.5-.1h-.8c-.7-.1-1.3 .3-1.5 1l-.1 .3c-.1 .6 .1 1.2 .6 1.5c.5 .4 1.2 .3 1.7 0c.4-.4 .6-1.1 .4-1.6l-.3-.7l-.3-.5l-.3-.3l-.1-.1l-.7-.6v-.1l-1.2-.9l-.4-.3l-1.1-.4l.3 .2l-1.1-.7l-.3-.2l-1.2-.3l.6 .4l-.9-1.1l-.1-.1l-1.2-1.3l.3 .5l-.7-1.9l.1 .2l-.5-2.1l-.3-1.9v.2v-2.4l-.2-2.8l-.1-3.3l-.1-3.2l-.1-3.2V628l-.1-2.1v.2l.1-1.9v.2l.2-1.6l.3-1.3l-.1 .2l.5-1.2l-.1 .1l.6-1.3l-.1 .1l.6-1.2v.1l.7-1.2l-.1 .2l.7-.9l-.1 .1l.7-.9l-.4 .4l1-.5l-.8 .1h1.4l1-.3h-.7l1 .3h.6l.6-.1h-.4l.8 .1h.2l.8 .1l-1-.4l.6 .4l-.2-.1l.8 .8c.3 .2 .6 .4 1 .5l1.2 .1l-.4-.1l1.7 .7l.4 .2l1.6 .1h.3l1.6-.1l-.5-.1l1 .3l-.1-.1l.5 .2l.5 .1h.7l-1-.4l.4 .3v.1l.4 .3v-.1l.3 .3c.2 .2 .6 .4 .9 .4h.4h-.2l.4 .1h.9h-.3h.2l-1.2-.6l.2 .3c.2 .2 .3 .3 .5 .4l.5 .2l-.4-.2l.6 .6c.2 .1 .4 .3 .7 .3l.9 .3l-.6-.3l.9 .7l.6 .5l-.1-.1l.6 .6h.1l.8 .7l.3 .1l.6 .3h-.1l2 1h.1l1 .6h.1l.2 .1l-.6-.4h.1v.1h.1v.1l-.3-.4l.1 .1l-.2-.4v.1c.1 .4 .4 .8 .8 1l-.2-.2v.1v-.1v.1l-.4-1.2v.1c-.1 .8 .5 1.4 1.2 1.6c.7 .2 1.5-.2 1.8-.9c.3-.7 .1-1.5-.6-1.9l-.1-.1l.4 2.2l.1-.2c.4-.5 .4-1.3 0-1.8c-.5-.5-1.2-.8-1.8-.5c-.7 .2-1.1 .8-1.1 1.4v.1c0 .8 .7 1.6 1.5 1.6c.9 0 1.6-.6 1.7-1.5c0-.9-.6-1.6-1.4-1.7H60.6h.3l-.3-.1c-.7-.1-1.5 .3-1.7 1.1c-.3 .7 0 1.5 .6 1.9l.3 .1c.2 .1 .5 .2 .8 .2h1.2h-.4l.5 .1l.5 .1l.7-.1H63h.5h-.2l.3 .1h1.3h-.1h3.7h-.2l1 .1h1.1h-.2l1.2 .1l.1 .1h2.1h-.3l1.4 .1h1.2h-.3l1.7 .2h.3l2.1-.1l1.7-.1h-.1l1.7-.1h.2l1.5-.3l-.3 .1l1.1-.1h.3l1.5-.3h-.1l1.6-.4h-.1l1.5-.2h.2l1.7-.4l1.8-.3h-.1l2.1-.3l2.1-.4l2.3-.5l2.5-.5h.1l2.3-.5l2.6-.6h-.1l2.8-.6l2.3-.6h-.1l2.5-.5l.2-.1l2.1-.7h-.1l1.9-.7h-.2l2.6-.3l.2-.1l2.1-.5h-.1l2.1-.4l2-.3l.3-.2l1.1-.5l-.5 .2l1.4-.1h-.4l2 .5l-.1-.1l.7 .3l-.4-.2l.2 .1l.2 .1l.1 .1l-.1-.1l.1 .1h.2l.3 .1h.5l.1-.1c.4-.1 .7-.4 .8-.7c.1-.4 0-.8-.3-1.1l-.2-.2l-.1-.1l.4 .6l-.1-.3l-.2-.3l-.2-.4l.1 .3l-.1-.2l-.3 1l.1-.1c.4-.2 .5-.7 .3-1.1c-.2-.4-.7-.6-1.2-.4c-.4 .2-.5 .7-.4 1.1l.2 .3v.1l.3 .6l.1 .1l.1 .2l.2 .1l.1 .2c.2 .1 .6 .1 .7-.1c.2-.2 .2-.5 .1-.7l-1.4-1.6c-.1-.2-.4-.2-.6-.1c-.2 .2-.2 .4-.1 .6Z" class="g0_74"/>
<path d="M178.6 729v-1.5l-.2-1.4v.1l-.1-2.1v.1v-2.1l.1-2V720l-.1-2.3v-1.6v.1v-1.5l-.1-.3l-.2-1.1l.1 .3v-.8l-.1-.2V712l-.1-.2l-.2-.6l-.1-.2l-.2-.5l.1 .1l-.2-.5h-.1l-.1-.3l-.2-.3l-.2-.3l-.2-.1l-.3-.4l-.4-.2l-.5-.2l-.2-.1l-.6-.2l.6 .3l-.5-.4l-.4-.3l-.5-.1l.2 .1l-.4-.3l-.4-.2l-.1-.1l-.6-.2l-.6-.3h-.1l-.8-.4l.5 .3l-.4-.3h.1l-.2-.1l-.2-.2l-.2-.1l.4 .3l-.5-.6l.2 .3l-.4-.7l.2 .4l-.2-.8l-.1-.3l-.3-.7l.1 .7v-.8l-.1-.8v.2l.1-.6V702l-.1-.8l-.1-.2l-.1-.9v.3v-.7l-.1-.4l-.2-.8l.1 .4l-.1-.7v-.1l-.1-.7v-.2l-.2-.6l.1 .2l-.1-.5l-.1-.3l-.2-.5l.1 .7v-.3l-.2 .7l.2-.4c.2-.3 .3-.6 .3-.9v-.6l-1.1 1.5l.8-.2c.4-.2 .8-.5 1-.9c.1-.4 .2-.8 0-1.2l-.3-.8l-.1-.2l-.5-1l.2 .9v-.6c.1-.5-.1-.9-.4-1.2l-.7-.8l.4 1.2l.1-.7l-.6 1.2l.5-.4c.6-.5 .8-1.4 .4-2l-.2-.5l.2 .5l-.2-.7c0-.4-.3-.8-.6-1l-.6-.5l.5 .7l-.1-.4v1.2l.1-.4l-.6 .8l.3-.3l-.5 .3l.6-.2c.5-.1 .9-.4 1.1-.8c.2-.4 .3-.9 .1-1.4l-.2-.4c-.1-.3-.2-.5-.4-.6l-.3-.3l-.2-.1l-.2-.2l.2 .2l-.3-.3c-.6-.6-1.6-.6-2.2-.1c-.7 .6-.8 1.6-.3 2.3c.6 .6 1.5 .8 2.2 .3l.3-.2c.4-.3 .7-.8 .7-1.3c0-.5-.2-1-.6-1.3l-.7-.5l.5 2.1l.2-.3c.4-.6 .3-1.4-.1-1.9l-.5-.6l-.1-.1l-.5-.5c-.6-.5-1.5-.6-2.1-.1c-.7 .4-.9 1.3-.5 2c.3 .7 1.2 1.1 1.9 .8l.6-.1c.6-.3 1.1-.9 1.1-1.6v-.2l-1.2 1.6l.4-.1c.5-.1 .9-.4 1.1-.9l.1-.3c.2-.3 .3-.7 .2-1v-.3c-.1-.2-.2-.5-.4-.7l-.3-.5l.3 .6l-.1-.3v.8l.1-.2c0-.4 0-.8-.2-1.1l-.4-.7l.2 .4l-.1-.5v.2v-.4c-.1-.4-.2-.7-.5-1l-.5-.6c-.5-.5-1.4-.7-2-.3c-.7 .4-1 1.1-.8 1.8c.2 .8 .8 1.3 1.6 1.3h.3l-.4-.1l.2 .1c.5 .1 1 0 1.4-.3c.4-.3 .6-.8 .6-1.3v-.2c0-.9-.7-1.7-1.6-1.7c-.9 0-1.7 .8-1.7 1.7c0 .9 .8 1.6 1.7 1.6h.3c.7 0 1.3-.4 1.6-1v-.2c.1-.3 .2-.5 .1-.8v-.5c0-.2-.1-.5-.2-.7l-.3-.4l-.1 1.8l.2-.2l.2-.4l.1-.3c.1-.4 .1-.8-.1-1.2l-.3-.6l.2 .7V677l-.1-.1l-.1-1.2v.2v-1.2v.3l.2-.9v.1l.3-1.1l.1-.3l.1-1.1c.1-.3 0-.6-.1-.9l-.5-1l.1 .6v-1.2l-.1-.8v-.1l-.2-.8v.5l.1-.7v-.5v.2v-.3l-1.6 1.4h.7l.4-.1l.6-.1c.3-.1 .4-.2 .6-.3l.2-.2l-.7 .3h.3c.5-.1 1-.5 1.2-1.1c.2-.5 .1-1.1-.3-1.5l-.3-.4l.4 1v-.4l-.1-.5v.7l.1-.5l-.4 .7l.4-.4c.3-.4 .4-.9 .4-1.3l-.1-.4c0-.2-.1-.5-.2-.7l-.3-.4l.2 .3l-.2-.4l-.1 1.5v-.1c.4-.6 .4-1.4 0-2l-.2-.2c-.5-.6-1.4-.8-2.1-.4c-.7 .4-1 1.3-.7 2c.3 .8 1 1.2 1.8 1.1l.3-.1c.8-.2 1.4-1 1.2-1.9v-.2c-.1-.6-.5-1-1-1.2l-.7-.4c-.8-.3-1.6-.1-2.1 .6c-.4 .6-.3 1.5 .2 2.1c.6 .5 1.5 .6 2.1 .2l.3-.2l-.3 .1h.2l-.4 .1l.6-.1h-.2l.8-.1c.8 0 1.4-.6 1.5-1.3l.1-.3l-1.6 1.4h.6c.6 0 1.2-.4 1.4-.9c.3-.6 .2-1.3-.2-1.8l-.1-.2l.3 1.1v-.1c0-.8-.6-1.5-1.4-1.6c-.9-.1-1.7 .5-1.8 1.3c-.2 .8 .3 1.6 1.1 1.9l.3 .1c.7 .2 1.5-.1 1.9-.8c.4-.6 .3-1.4-.2-2l-.4-.3c-.3-.3-.7-.5-1.1-.5h-.2l.5 .1l-.5-.2l1.1 1.6v-.2c0-.8-.6-1.5-1.4-1.6c-.9-.1-1.6 .5-1.8 1.3c-.2 .8 .3 1.6 1.1 1.9l.4 .1c.6 .2 1.2 .1 1.6-.4c.5-.4 .6-1 .5-1.6c-.2-.6-.7-1.1-1.3-1.1l-.3-.1c-.6-.1-1.2 .1-1.6 .6c-.4 .6-.4 1.2-.1 1.8c.2 .5 .8 .9 1.4 .9h.5l-.9-.3l.3 .2c.6 .4 1.3 .3 1.9-.1c.6-.4 .8-1.2 .6-1.8l-.1-.1c-.2-.8-1.1-1.3-1.9-1.1c-.8 .1-1.4 .9-1.3 1.7c.1 .9 .8 1.5 1.7 1.5h.7l.5-.1h.2c.5-.2 .9-.5 1.1-1l.1-.3l-.7 .8l.2-.1c.6-.3 .9-.8 .9-1.5v-.6l-.1-.4l-1.1 2h.2c.2-.1 .4-.3 .6-.4v-.1l-.7 .4l.3-.1l.4-.1c.4-.2 .7-.5 .8-.8l.1-.3l.1-.3l.1-.4l-.4 .8l.2-.3l-1.4 .5l.6 .1c.6 .1 1.3-.2 1.6-.7l.4-.6l-1.2 .8l.6-.1h-.4l.9 .1l.4-.1l.7-.1l-.9-.1l.9 .4l.5 .2h.6l.2 .1h.8l-.4-.1l.8 .2l-.2-.1l1.3 .5l.3 .1l1.4 .2l1.6 .2h.3l1.5-.1h.3l1.4-.3h-.5l1.9 .2h.3l1.6-.1l1.9-.1H192l1.6-.2h-.2h1.9l1.5-.2h-.4l1.7 .1h1.8l.4-.1l1.4-.3h-.6l2.3 .4h.5l1.6-.2h-.1l2-.3h-.3h2.1c.2 0 .5 0 .7-.1l1.4-.6l-.5 .1l2.1-.2h.1l1.7-.3h-.2l1.9-.1h.3l1.8-.4h-.3h1.9h-.2l2.5 .2h.3l2.2-.2h-.2h2.4l2.3-.3l.3-.1l1.8-.7l-.4 .1l2.2-.2l.4-.1l2-.8v.1l1.8-.7l1.8-.7h.1l1.7-.8l-.5 .1l2.2-.3h.1l2.1-.4h.2l1.9-.6l2.1-.6h.1l1.7-.6l.3-.2l1.5-.8l-.4 .1l1.8-.4l.2-.1l1.4-.7h.1l1.4-.8l1.3-.6l.1-.1l1.3-.9l-.1 .1l1.3-.7l.1-.1l1.2-.8l.1-.1l1.2-.9l-.4 .2l1.8-.6l.4-.2l1.3-1l-.2 .1l1.7-.9l.2-.1l1.6-1.1l.1-.1l1.5-1.2l-.1 .1l1.8-1.3l.1-.1l1.4-1.2l-.2 .2l1.5-1l.2-.1l1.2-.9l.1-.2l1.1-1l-.2 .1l.9-.7l.2-.2l.7-.9h.1l.6-.9l-.2 .2l.5-.4l.2-.1l.6-.8h.1l.3-.4l-.1 .1l.3-.2c.2-.2 .4-.5 .4-.9l.1-.2c.2-.8-.3-1.6-1.1-1.9c-.9-.3-1.7 .1-2.1 .9l1.6-1h-.3h.1h-.1h.1h-.1c-.3 0-.6 .1-.8 .2l-.4 .2l-.4 .2l-1.6 1.4l-.3 .4l-.2 .3l1.1-.8l-.2 .1c-.9 .2-1.5 1-1.3 1.9c.1 .9 .9 1.5 1.8 1.5c.9-.1 1.6-.8 1.6-1.7v-.2c0-.3-.1-.5-.2-.7l-.1-.4c-.3-.7-.9-1-1.6-1.1h-.1c-1 0-1.7 .8-1.8 1.7c0 1 .8 1.8 1.7 1.8h.1c.6 0 1.2-.3 1.5-.9c.3-.5 .3-1.2 0-1.7c-.3-.5-.9-.9-1.5-.9h-.2l1.8 1.7v-.1l-.1 .2v-.1l.1-.2h-.1l.1 .1v-.2l-1.3 1.7l.2-.1h-.7l.7 .2l2 .3l.6 .1h.7h-.1l.6 .1h.1l.5 .1l-.5-.1l.7 .2l-.2-.1l.3 .2l-.1-.1l.7 .5h-.1l.4 .3h.1l.4 .3l-.1-.1l1.7 1.4l1.4 1.1l.1 .1l2.2 1.5l.4 .2l.7 .2l.2 .1l.8 .2l-.3-.1l1.2 .5l-.1-.1l.9 .5l-.2-.2l1.1 .8l.1 .1l1.2 .7l.9 .5l.2 .1l.8 .3l.1 .1l.9 .3h.2l.9 .2l1.1 .3h.3l1.1 .1h1.4l1.2-.1c.3 0 .6-.1 .9-.3l.9-.7l-.4 .2l1.2-.4c.3-.2 .5-.4 .7-.7l.8-1.1l.2-.5l.4-1.7l-.3 .6l1-1.4l.3-.5l.6-2l-.1 .2l.8-1.7l.1-.1l.7-1.6c.1-.2 .1-.4 .1-.7v-1.9v.3l.3-1.5v-.5l-.1-1.5l-.1 .7l.4-1.4l.1-.3l.3-1.8v-2v.2l.2-2.3V615v.2l.3-2.2l-.1 .4l.7-1.8v-.2l.4-1.4l.3-1.6v-.5l-.1-1.1l-.1-.3l-.4-1.3l-.2-.4l-.8-1.2l-.1-.2l-.7-.9l-.1-.1l-.6-.6l-.2-.1l-.7-.6l-.3-.2l-.9-.3h.1l-1-.4l-.1-.1l-1.3-.5h-.2l-1.7-.4l-1.2-.3h-.2l-1.5-.1l-1.5-.2h-3.2l-.1 .1l-1.7 .2l-2 .3h-.1l-2 .4h.2l-2.6 .4H291l-2.2 .4h.1l-2.1 .3l-2 .3l-.3 .1l-1.5 .5h.1l-1.9 .4l-.3 .1l-1.6 .7h.1l-1.5 .6l-.1 .1l-1.3 .6l-.2 .1l-.9 .6l.1-.1l-.9 .5l-.9 .5l-.1 .1l-.7 .5l.1-.1l-.9 .6l-.4 .2l-.6 .7l-.8 .8l.2-.2l-1.1 .9c-.2 .1-.4 .3-.5 .6l-.6 1.2l.1-.2l-.7 1.3V612l-.8 1.1l-.8 1.2l-.3 .6l-.4 1.5l.2-.5l-.8 1.3l-.1 .1l-.7 1.5l-.1 .1l-.6 1.3l.7-.8l-1.3 .8l-1 .6l-.1 .1l-.9 .7l.2-.1l-1 .5l.4-.2l-1 .3h-.1l-1 .4l.3-.1l-1 .2h.3h-1.5l-1.3 .2h.1l-1.5 .2h-.1l-1.4 .4l-.2 .1l-1.3 .5l.3-.1l-1.7 .4c-.3 .1-.6 .2-.8 .5l-.9 .8l.6-.4l-1.4 .6l-1.6 .6l-.2 .1l-1.3 .7l.8-.2l-2.2 .1H242l-1.6 .3l-.1 .1l-1.4 .4h-.2l-1.1 .4l.5-.1l-1.2 .2l-1.3 .1h.2h-1.5h.2l-1.9-.1h-.3l-1.3 .1h.2H226h.1h-2.3l-1.5 .1l-.5 .1l-1.9 .6h.2l-1.7 .4h-.1l-1.6 .4l-.1 .1l-1.7 .5h.2l-1.8 .3l-.2 .1l-1.8 .5l-.3 .2l-1.5 .9l.3-.2l-1.8 .7l.4-.1l-1.9 .3h-.1l-1.9 .4l.5-.1l-2.5-.1h-.2l-2.1 .2H200l-1.7 .3h.3h-1.8c-.2 0-.5 .1-.7 .2l-1.3 .7l.7-.2l-1.5 .1l-.4 .1l-1.3 .4h.2l-1.5 .3l.4-.1H190c-.4 0-.7 .2-1 .4l-.6 .5l1-.4h-1.1c-.2 0-.5 .1-.7 .2l-.5 .2l.8-.1l-.7-.1l.4 .1l-1.3-.4h-.8l.5 .1l-1.1-.4c-.3-.1-.6-.1-.9 0l-.4 .1h-.1l-.6 .2l.8-.1l-.9-.1c-.4 0-.7 0-1 .2l-.3 .2l.9-.2l-.9-.1l.3 .1l-.7-.2c-.3 0-.7 0-1 .2l-.5 .2l.7-.2h-.8l-.3 .1h-.4l1.2 .3l-.3-.2c-.3-.2-.6-.3-.9-.3h-.6l.7 .2l-.2-.1c-.3-.1-.5-.2-.8-.2h-.3l.7 .1l-.5-.1l-.2-.1l-.4-.1l.5 .2l-.4-.3l-.5-.1l-.4-.1l.3 .1l-.2-.1h-.1l-.3-.2H176l-.2-.1l.7 .5l-.2-.3v.1l-.2-.2l.1 .1l-.1-.3l-.3-.2l-.2-.3l.2 .3l-.3-.4c-.1-.3-.4-.5-.6-.6l-.4-.2l.7 .6l-.3-.5c-.2-.3-.5-.5-.9-.7h-.2l.3 .1l-.3-.2l.5 .5l-.3-.5l-.1-.1l-.1-.1l.2 .2l-.3-.5l.1 .2l-.2-.6l-.1-.6l-.2-.3l-.3-.7v.1l-.2-.6l-.1-.1l-.2-.4l.1 .1l-.2-.3l.1 .3V629c-.1-.3-.2-.5-.3-.7l-.2-.3l.1 .3l-.1-.4l.1 .7v-.3c0-.3-.1-.6-.2-.8l-.1-.2l.1 .1l-.2-.4c-.1-.2-.2-.4-.4-.5l-.4-.4l-.5-.6l.2 .2l-.4-.5l.3 .9V625l-.1-.3c0-.3-.1-.6-.2-.8l-.3-.4l.1 .1l-.2-.4l.2 .9v-.3l-.5 1.2l.1-.1c.3-.4 .5-.8 .5-1.3v-.1c0-.5-.2-.9-.5-1.2l-.1-.1l.6 1.2v-.1c0-.4-.2-.9-.5-1.2h-.1V622l.4 .7l-.1-.1c0-.3-.2-.5-.4-.7v-.1l.3 .5l-.1-.2l.1 .3l-.1-.3l-.1-.3v.8l.3-1.2l-.7 1l.5-.3c.2-.1 .4-.3 .5-.6l.2-.3c.2-.2 .2-.5 .2-.8v-.9l-.2 .8l.2-.3l-.2 .3l.2-.3l-.8 .5l.3-.1c.9-.2 1.4-1 1.2-1.9V618l-.3 1.2l.2-.3c.1-.2 .2-.5 .2-.8l.1-.4l-.2 .7l.1-.3l-1.4 .8h.9l.2-.1l-.5 .1h.4c.7 0 1.3-.4 1.6-1.1l.2-.4l-.7 .7l.2-.1c.7-.4 1-1.1 .9-1.8l-.2-.7v.3v-.4c.1-.7-.4-1.3-1-1.6c-.7-.2-1.4-.1-1.9 .4c-.5 .6-.6 1.3-.3 2l.1 .1c.3 .8 1.1 1.1 1.9 1c.8-.2 1.3-.9 1.3-1.7v-.2c.1-.9-.5-1.6-1.4-1.7c-.8-.2-1.6 .3-1.9 1c-.3 .8 0 1.7 .7 2.1l.2 .2c.6 .3 1.2 .3 1.8 0c.5-.3 .9-.9 .9-1.5v-.1c0-.4-.2-.9-.5-1.2h-.1l.5 1.2v-.3l-.1 .7l.3-.7l.7-1.9l-.3 .4l.4-.3c.2-.3 .3-.6 .3-.9l.1-1l-.3 .9l.2-.4l.2-.3l.2-.3c0-.2 .1-.5 .1-.7v-.7l-1 1.5h.2l-.5 .1h.3c.6-.1 1.1-.6 1.3-1.2l.1-.2l.1-.6v-1.2l-.1-.1V608l-.1-.2l.1 .2l-.1-.2c0-.5-.3-.9-.7-1.2l-.3-.2c-.8-.5-1.8-.3-2.4 .5l-.1 .1l1.5-.7h-.1l1.5 .9l-.3-.5l-.5-.4h-.1l.5 .3h-.1v-.1l-.5-.4h-.1l-.5-.3l-1.5-.7V605l-.4-.2l-.3-.1l-.7-.2H170l-.9-.2h.2l-.4-.1l-.5-.2h-.1l-.6-.1l-.4-.1h-.4l.5 .1l-.7-.2l-.2-.1l-1.3-.1h.3l-1.2-.3h-.1l-.7-.2h-.2l-.9-.1h-1.3l.6 .1l-.7-.2h.1l-.6-.1h-.8l1.8 1.7v-.1c0-.5-.2-.9-.5-1.2l-.1-.1l-.1-.1l-.4-.3h-.1l.5 .3h-.1l.5 1.2c.1-.5-.1-1-.5-1.3l.3 .4v-.1l-.4-.5l-.1-.1l-.1-.1l-.1-.1h-.1l.4 .3h-.1l.1 .1l-.6-1.1l.2 .3l-.8-2.5l.1 .3l-.3-3.7c-.1-.7-.7-1.2-1.3-1.2c-.7 0-1.3 .5-1.4 1.2l-.3 3.7l.1 .5l.6 2.6l.1 .3l.5 1.2v-.2v.1l.3 .5l.1 .2h.1v.1h.1v.1h.1l-.3-.4v.1l.3 .4l.1 .1l-.5-1.2c0 .5 .1 .9 .5 1.3l.5 .3l-.4-.3v.1v-.1l.1 .1l-.5-1.2v.1c0 .4 .2 .9 .5 1.2c.3 .4 .8 .5 1.2 .6h.4l-.4-.1l.6 .1v.1l.7 .1h.9h-.3h.5l.9 .1h-.1l.6 .1h-.1l1.1 .3h.3l1.2 .2l-.3-.1l.7 .3h.9h-.4l.6 .1h-.2l.5 .2l.4 .1h.2l.9 .2h-.1l.6 .2l-.2-.1l.4 .2l1.4 .7l.1 .1l.5 .2l.1 .1l-.4-.3h.1v.1l.4 .3h.1l-.4-.3v.1l-.3-.5v.1c.3 .6 .9 1 1.6 1h.1c.6-.1 1.1-.4 1.4-.8l.1-.2c.5-.8 .3-1.9-.5-2.4c-.8-.5-1.9-.3-2.4 .5c-.5 .8-.3 1.9 .5 2.4l.3 .2l-.8-1.1l.1 .2v.3l.1 .2V609v.2v-.5v.8l.1-.5l-.1 .2l1.3-1.1h-.2l-.5 .2l-.2 .1c-.6 .3-1 .9-1 1.5l.1 .7l.1-.7l-.1 .3l.2-.3l-.3 .3c-.2 .3-.3 .6-.3 .9l-.1 .9l.3-.9l-.3 .4l-.2 .5l-.8 1.9l-.2 .6c-.1 .2-.1 .4-.1 .6v.3c0 .4 .2 .9 .5 1.2l-.5-1.2v.1c0 .9 .6 1.6 1.4 1.7c.9 .1 1.7-.3 2-1.1c.2-.8-.1-1.7-.8-2.1l-.2-.1c-.5-.3-1.2-.3-1.7 0c-.6 .3-.9 .9-.9 1.5v.2c0 .7 .4 1.3 1.1 1.6c.7 .2 1.4 .1 1.9-.5c.5-.5 .6-1.3 .3-1.9l-.1-.2c-.4-.7-1.2-1-2-.9c-.7 .2-1.3 .9-1.3 1.7v.4l.1 .4l.1 .7l.8-1.8l-.2 .1c-.3 .2-.6 .4-.7 .8l-.2 .4l1.5-1h-.4l-.6 .1l-.2 .1l.5-.1h-.3c-.7 0-1.2 .3-1.5 .9l-.2 .3c-.1 .2-.2 .4-.2 .7l-.1 .4l.3-.8l-.2 .3c-.2 .3-.3 .8-.2 1.2v.6l1.3-2l-.3 .1c-.3 .1-.6 .3-.9 .6l-.2 .3l-.2 .2l-.2 .3c-.1 .3-.2 .6-.2 .9v.9l.2-.9l-.1 .3l.5-.6l-.5 .3c-.3 .3-.6 .6-.7 1.1l-.3 1.2c-.1 .3-.1 .5 0 .8l.1 .4l.1 .3l.1 .3l.1 .2l.3 .5l.1 .1l-.4-.7v.1c.1 .3 .2 .5 .4 .7h.1v.1l-.5-1.3v.1c0 .5 .2 .9 .5 1.3l-.4-1.2v.1l.5-1.2l-.2 .1c-.3 .4-.5 .8-.5 1.3v.3c0 .3 .1 .5 .2 .8l.2 .4l.1 .1l.3 .4l-.3-.8v.4v-.2v.9c0 .4 .1 .7 .3 1l.4 .6l.2 .2l.5 .6h.1l.4 .4l-.4-.5l.2 .4v.1l.1 .1l-.2-.7v.3c0 .2 .1 .5 .2 .7l.2 .4l.1 .3l.3 .3l-.4-.7l.1 .5l.1 .3l.2 .3v.1l.2 .5v-.1l.3 .6v.1l.3 .6l-.1-.2l.2 .6l.2 .6l.1 .2l.2 .6l.1 .2l.1 .1l.4 .6c.1 .2 .3 .4 .5 .5l.4 .2l.2 .2l.3 .1l-.8-.7l.3 .5c.2 .3 .4 .5 .7 .6l.3 .2l-.6-.6l.2 .4l.2 .3l.3 .2l-.2-.2l.1 .2l.1 .1l.2 .3l.3 .3c.2 .2 .5 .4 .8 .5l.2 .1l.3 .1l.2 .1l.3 .1h.4l-.5-.1l.4 .2l.4 .2l.4 .1l-.2-.1l.4 .1c.2 .1 .4 .2 .6 .2h.3l-.8-.2l.3 .1c.2 .1 .5 .2 .8 .2h.6l-1-.3l.3 .2c.3 .2 .7 .3 1.1 .3l.4-.1h.4h-.2h.5c.3 0 .5-.1 .7-.2l.5-.2l-1 .1l.6 .2h.3l.8 .1c.4 0 .7-.1 1-.3l.3-.1l-1.1 .2l.9 .1c.3 0 .5-.1 .7-.1l.6-.2h-.2h.4l-.9-.1l1.1 .4l.5 .1h.4l-.5-.1l1.2 .3l.4 .1h.7c.3 0 .5 0 .8-.1l.6-.3l-.8 .2h1.1c.4 0 .8-.2 1.1-.4l.6-.5l-1.1 .4h1.8l1.4-.3l.1-.1l1.3-.4l-.3 .1l1.6-.2c.2 0 .4-.1 .6-.2l1.2-.6l-.8 .2l1.8-.1h.2l1.7-.3h-.1l2.1-.1h-.3l2.5 .1h.4l1.9-.4H207l1.9-.3l.4-.1l1.7-.6l.3-.2l1.4-.8l-.3 .1l1.7-.5h-.2l1.9-.3l.2-.1l1.7-.5h-.1l1.7-.5h-.1l1.7-.3l.1-.1l1.9-.6l-.4 .1l1.5-.1h-.1h3.9h-.1h3.7l1.3-.2h-.4l1.8 .2H236l1.3-.2l1.2-.1l.4-.1l1.1-.5l-.2 .1l1.4-.4h-.1l1.5-.3l-.2 .1l2.2-.2c.2 0 .5-.1 .7-.2l1.3-.7l-.3 .1l1.6-.6h.1l1.4-.5c.2-.1 .4-.3 .6-.4l.8-.9l-.8 .5l1.7-.4l.3-.1l1.2-.5H253l1.3-.3h-.1l1.4-.2l1.3-.2h-.3h1.6l.9-.2l.3-.1l.9-.3h-.1l1-.2l.3-.2l1-.5l.2-.1l1-.7h-.2l1.1-.6l1.2-.8c.3-.2 .5-.4 .7-.7l.5-1.3v.1l.8-1.5l-.1 .1l.8-1.3l.2-.5l.4-1.4l-.2 .5l.8-1.2l.8-1.1l.1-.1l.7-1.3l.1-.1l.6-1.3l-.5 .7l1.1-.8l.1-.2l.8-.8l.7-.6l-.4 .3l1-.6l.2-.1l.6-.5l-.1 .1l.8-.5h-.1l.9-.4l.2-.1l.9-.6l-.2 .1l1.3-.6h-.2l1.6-.6l1.6-.7l-.3 .1l1.9-.5h.2l1.5-.5h-.3l2.1-.3h-.1l2.1-.3l2.2-.4h-.1l2.6-.4h.1l2.1-.4h-.1l1.9-.3l1.6-.2h-.1l1.6-.1H301l1.3 .1h-.1l1.5 .2h.1l1.5 .1H305l1.2 .2l1.7 .4l-.2-.1l1.3 .5h-.1l.9 .4h.1l.8 .4l-.4-.3l.7 .6l-.1-.1l.6 .5l-.2-.2l.7 .9l-.1-.2l.8 1.3l-.2-.5l.4 1.3l-.1-.3l.1 1.1l.1-.5l-.3 1.5v-.1l-.3 1.4v-.2l-.6 1.7l-.1 .5l-.3 2.2v2.5v-.2l-.3 2.3v2v-.3l-.2 1.8v-.2l-.4 1.4c-.1 .2-.1 .4-.1 .6l.2 1.5v-.5l-.3 1.6v2.2l.1-.7l-.7 1.7l.1-.1l-.9 1.7l-.1 .3l-.6 2l.2-.5l-1 1.4c-.1 .2-.2 .4-.2 .6l-.4 1.7l.2-.6l-.7 1.2l.7-.7l-1.1 .5l-.4 .2l-.8 .7l.9-.4l-1.1 .1h-1.2h.1l-1.1-.1l.3 .1l-1.1-.3l-1-.2h.2l-1-.3l.1 .1l-.8-.3l.2 .1l-.8-.5l-1.2-.7l.2 .1l-1.2-.8l-.2-.2l-.9-.4l-.1-.1l-1.2-.4l-.3-.1l-.8-.2l.2 .1l-.7-.3l.4 .2l-2.2-1.5l.1 .1l-1.4-1.1l-1.8-1.4l-.1-.1l-.4-.3l.1 .1l-.3-.3h-.1l-.7-.5l-.2-.1l-.3-.2l-.2-.1l-.6-.2l-.5-.2h-.5h.1l-.6-.1h-.7h.1l-.6-.1l-2-.3h.1l-.8-.1h.2h-.2c-.5-.2-1.1-.1-1.5 .2c-.4 .4-.7 .9-.7 1.4v.2v-.1v.3v-.2v.1c0 .5 .2 .9 .5 1.3c.3 .3 .8 .5 1.2 .5h.2c.6 0 1.2-.3 1.5-.9c.3-.5 .3-1.2 0-1.7c-.3-.6-.9-.9-1.5-.9h-.1c-.9 .1-1.7 .8-1.7 1.8c.1 .9 .8 1.7 1.8 1.7h.1l-1.6-1l.2 .3l-.1-.6v.2c0 .5 .2 1 .6 1.3c.5 .4 1 .5 1.5 .3h.2c.4-.1 .8-.4 1-.8l.2-.3l-.3 .4l1.5-1.4l-.3 .3l.4-.3l-.7 .2h.1h-.1h.1h-.1h.3c.7 0 1.3-.4 1.6-1c.2-.7 .1-1.4-.4-1.9c-.5-.5-1.3-.6-1.9-.4c-.5 .3-.9 .7-1 1.3v.2l.4-.9l-.2 .3l-.1 .1l-.3 .3l-.7 .7l.2-.1l-.5 .4l-.3 .3l-.7 .9v-.1l-.6 .9l.2-.3l-.8 .8l-.2 .1l-1 1l.1-.1l-1.2 .9l.2-.1l-1.6 1l-.2 .1l-1.3 1.2l.1-.1l-1.8 1.3l-.1 .1l-1.5 1.2l.1-.1l-1.6 1.1l.1-.1l-1.7 1l-.2 .1l-1.3 .9l.5-.2l-1.8 .7l-.4 .2l-1.2 .9v-.1l-1.2 .9l.1-.1l-1.3 .7l-.2 .1l-1.2 .9l.1-.1l-1.2 .6l-1.4 .8l.1-.1l-1.4 .7l.2-.1l-1.8 .5l-.3 .1l-1.6 .9l.3-.1l-1.7 .6V649l-2 .7v-.1l-1.9 .6h.1l-2.1 .4h.1l-2.3 .3l-.5 .1l-1.6 .8h.1l-1.8 .7h.1l-1.8 .5v.1l-2.1 .8l.5-.1l-2.2 .2l-.5 .1l-1.7 .6l.3-.1l-2.3 .4h.3l-2.1-.1h-.2l-2.2 .2h.3l-2.5-.2H220l-1.9 .1h-.3l-1.8 .4h.2h-1.8l-.2 .1l-1.7 .3h.1l-2.1 .2l-.5 .1l-1.4 .6l.6-.1h-2.3l-1.9 .2l-.1 .1l-1.5 .2h.6l-2.3-.4c-.2-.1-.5-.1-.7 0l-1.5 .3h.4h-1.7h.1l-1.7-.1h-.3l-1.4 .2h.2l-1.7 .1h-.2l-1.6 .2h.2h-4.1l-1.6 .1h.2l-1.9-.1h-.6l-1.4 .3h.4h-1.5l.3 .1l-1.7-.3l-1.4-.1h.4l-1.3-.4l-.2-.1l-.8-.2h-1.1h.2l-.6-.1l.4 .2l-.9-.5c-.3-.1-.6-.1-1-.1l-.7 .1h.5l-.8-.1h-.4l-.6 .1c-.5 .1-.9 .3-1.2 .7l-.3 .6l1.6-.8h-.6c-.5-.1-1 0-1.4 .4l-.2 .3c-.2 .2-.4 .5-.5 .8l-.1 .4l.1-.3l-.1 .3l.8-.8h-.1l.3-.1l-.3 .1c-.3 0-.6 .2-.8 .4v.1l.6-.5l-.1 .1c-.8 .3-1.3 1.1-1.1 1.9l.1 .4v-.4v.2l.9-1.4l-.3 .1c-.3 .2-.6 .5-.8 .8l-.1 .3l1-.9l-.2 .1l.4-.1h-.7c-.6 0-1.1 .3-1.4 .7c-.3 .4-.4 1-.2 1.5l.1 .1c.2 .7 .8 1.1 1.5 1.1c.7 0 1.4-.5 1.6-1.1c.2-.7-.1-1.5-.7-1.9l-.2-.1c-.3-.2-.6-.3-1-.3h-.5c-.8 0-1.5 .6-1.6 1.5c-.1 .8 .5 1.6 1.4 1.7l.2 .1c.9 .1 1.7-.4 1.9-1.2c.2-.9-.3-1.7-1.1-2l-.4-.1c-.5-.2-1-.1-1.5 .2c-.4 .3-.6 .8-.6 1.3v.2c0 .7 .4 1.3 1.1 1.5l.5 .2l.5 .1h.2l-1.2-.5l.3 .3c.5 .5 1.3 .6 1.9 .4c.6-.3 1-1 .9-1.6c0-.7-.5-1.3-1.2-1.5l-.3-.1c-.5-.1-1 0-1.4 .3c-.4 .3-.6 .8-.6 1.3v.1c0 .3 .1 .7 .3 1l.2 .2c.5 .6 1.3 .8 2 .4c.7-.3 1-1.1 .9-1.8c-.2-.8-.9-1.3-1.6-1.3h-.6c-.8 0-1.5 .6-1.6 1.4l-.1 .3l1.5-1.4h-1l-.5 .1l-.3 .1l-.2 .1l-.3 .2l-.3 .1c-.5 .4-.8 .9-.7 1.5c0 .6 .4 1.2 .9 1.4l.8 .4l-.9-1.3v.3l1.3-1.9l-.2 .1c-.6 .1-1 .5-1.2 1c-.2 .5-.1 1.1 .2 1.6l.2 .2l-.1-1.9l-.1 .1c-.3 .4-.3 1-.1 1.5l.1 .4l.2 .4l.3 .3l-.3-.7v.4l.4-1.3l-.3 .4c-.2 .2-.3 .4-.4 .6l-.1 .4c0 .2-.1 .5 0 .7v.4v-.2v.3c0 .4 .1 .7 .3 1l.3 .4c.5 .6 1.4 .8 2.1 .4c.7-.4 1-1.2 .8-2c-.3-.7-1.1-1.2-1.9-1h-.2c-.3 .1-.5 .2-.7 .3l-.2 .2l.5-.3l-.5 .2l.4-.1h-.7c-.8 0-1.5 .6-1.6 1.4l-.1 .3v.7v-.1v1.1l.1 .6v-.1l.1 .8l.1 1.1l.1 .6l.5 1l-.1-.9l-.2 1.1l.1-.3l-.3 1.2l-.1 .1l-.2 .9V676l.1 1.2V677v.6c0 .2 .1 .4 .1 .6l.4 .7l-.1-1.2l-.1 .2l.2-.4l-.1 .2c-.4 .5-.4 1.2-.1 1.8l.3 .4l-.3-.7l.1 .5l.1-.8l-.1 .3l1.5-1.1h-.3c-.9 0-1.7 .8-1.7 1.7v.2c0 .8 .7 1.5 1.5 1.6c.9 .1 1.7-.5 1.8-1.4c.1-.8-.4-1.6-1.2-1.8l-.2-.1h-.7c-.7 0-1.3 .4-1.5 1c-.3 .6-.2 1.3 .3 1.8l.5 .6l-.4-1v.4l.1 .3l.1 .5l.2 .4l.3 .6l-.2-1.1v.2c0 .3 0 .6 0 .8l.1 .3c.1 .2 .2 .4 .3 .6l.4 .4l-.4-.7l.1 .2l.1-1l-.2 .4l1.1-.9l-.5 .2c-.7 .2-1.2 .8-1.2 1.5v.2l1.1-1.5l-.5 .1c-.5 .2-1 .7-1.1 1.2c-.1 .6 .1 1.1 .5 1.5l.5 .6l-.1-.1l.5 .5l-.2-1.8l-.2 .4c-.4 .7-.2 1.6 .4 2.1l.7 .4c.6 .5 1.5 .4 2.1-.2c.6-.6 .6-1.6 0-2.2c-.5-.6-1.4-.7-2.1-.3l-.3 .2c-.4 .3-.6 .7-.7 1.2c0 .5 .1 1 .5 1.3l.3 .3l.2 .2l.3 .2l-.2-.1l.3 .2l-.4-.6l.2 .4c.3 .8 1.2 1.3 2 1c.8-.3 1.3-1.2 1.1-2c-.3-.8-1.1-1.3-2-1.2l-.6 .2l-.5 .2l-.3 .2c-.3 .2-.5 .4-.7 .7l-.1 .4c-.2 .4-.2 .9-.1 1.3l.2 .4c.1 .3 .3 .5 .5 .7l.6 .5l-.6-1l.2 .7l.1 .4l.2 .4l.4-2l-.5 .5c-.3 .3-.5 .7-.6 1.1v.7c0 .4 .1 .8 .4 1.2l.7 .7l-.4-1.1l-.1 .6c0 .3 .1 .6 .2 .9l.6 .9l-.1-.1l.3 .7c.3 .9 1.2 1.3 2 1c.9-.3 1.3-1.3 1-2.1c-.3-.8-1.2-1.3-2-1l-.8 .3c-.7 .2-1.1 .8-1.1 1.5v.6l.3-.9l-.3 .4c-.1 .2-.2 .4-.2 .6l-.1 .3c0 .3 0 .5 .1 .7l.1 .6v-.2l.1 .5v.3l.2 .5l-.1-.2l.1 .6v-.1l.1 .7v.3l.2 .8v-.5v1l.2 .9v-.1v.9v-.3v.9l.1 .8v-.1v.6c0 .2 0 .4 .1 .6l.3 .7l-.1-.3l.2 .8l.1 .4l.3 .7l.2 .2l.4 .6l.3 .3l.2 .1l-.2-.1l.2 .2h.1l.4 .4l.4 .3l.9 .3h-.1l.6 .3h.1l.6 .3l-.2-.1l.4 .2l.4 .2l.2 .1l.4 .2l-.4-.3l.5 .4c.2 .2 .4 .3 .6 .3l.6 .2l-.2-.1l.4 .2l-.4-.2l.4 .3l-.2-.2l.2 .3l-.2-.3l.2 .2h-.1l.2 .4l.1 .1l.2 .4l-.1-.2l.2 .5l-.1-.2l.1 .6v-.3v1.1l.2 1.1v-.3v1.5l.1 1.6v2.3V720v4.3l.1 2.1l.1 1.4v-.1l.1 1.4c0 .9 .7 1.6 1.6 1.6c.9-.1 1.5-.8 1.5-1.7Z" class="g0_74"/>
<path d="M185.1 637.6l.2 .3l-.1-.1l.1 .2l.1-.7l-.4 .6l-.1 .5v1.2l.1 1.4v-.1l-.2 1.3v1.5v-.1l-.2 1.4l-.2 1.3l-.3 1.3l.1-.2l-.6 1.2v.1l-.3 1l.2-.4l-.5 .6l.4-.3l-.3 .1c-.4 .2-.6 .6-.5 1c.1 .4 .4 .7 .8 .7h1c.5 0 .9-.3 .9-.8c0-.4-.3-.8-.8-.9h-1c-.4-.1-.8 .2-.9 .6c-.1 .4 .1 .9 .5 1l.3 .2c.4 .1 .8 0 1.1-.3l.5-.4l.2-.4l.4-1v.1l.5-1.3l.1-.2l.2-1.2v-.1l.3-1.4l.1-1.4v-1.6v.1l.1-1.3v-.2l-.1-1.4v-1.2l-.1 .4l.3-.7c.1-.3 0-.7-.3-1l-.2-.1l-.2-.2l-.4-.1c-.3-.1-.5 0-.7 .2c-.2 .2-.2 .5-.1 .8Z" class="g0_74"/>
<path d="M193.9 649.2l-.1 .9v-.2l-.1 .6l-.1 .1v1l.1-.5l-.1 .3l.6-.5H194l1.2 .6l-.1-.2l.1 .3v-.5c0-.3-.2-.5-.5-.6c-.3-.1-.7 0-.8 .2l-.3 .4l-.1 .2l-.1 .2c-.1 .2-.1 .5 0 .8c.2 .2 .4 .4 .6 .5h.2c.4 .1 .8 0 1.1-.4l.1-.2c.1-.2 .2-.4 .2-.6v-.7l-.1-.3v-.1l-.2-.6l-.2-.8c-.1-.3-.4-.5-.7-.5c-.2 .1-.5 .3-.5 .6Z" class="g0_74"/>
<path d="M214.9 636.4l-.2 1.7l-.2 1.2l.1 .2l.1 1.2v.2l.4 1.1v.1l.5 1.4l-.1-.1l.3 1l.3 1l.3 .8l-.1-.2l.1 .6v.1l.1 .7v-.2l-.1 .8l.1-.2l-.2 .7l-.2 .8c-.1 .5 .2 1 .7 1.1c.4 .1 .9-.1 1.1-.6l.2-.8l-.1 .2l.4-.6l.1-.4l.1-.8v-1v.1l-.1-.7v-.2l-.2-.8l-.3-1v-.1l-.3-.9v-.1l-.5-1.3l-.3-1.2v.2l-.2-1.2v.1l-.1-1.2l-.2-1.7c-.1-.4-.4-.7-.8-.7c-.4 0-.7 .3-.7 .7Z" class="g0_74"/>
<path d="M217.7 651l3.9 4.3l-.2-1l-.3 .7v.2l-.1 1v1.3v-.2l-.1 .8v.4l.2 .7l.2 .3l.1 .2c.3 .3 .7 .4 1 .2c.4-.2 .6-.6 .5-1l-.6-1.8c-.1-.4-.6-.6-.9-.5c-.4 .1-.7 .5-.6 .9l.5 1.9c.1 .3 .3 .5 .6 .6c.3 .1 .7-.1 .8-.3l.2-.2c.1-.2 .2-.4 .2-.6l-.1-.7v.2l.1-.7l.1-.2v-2.2v.1l.1-.7c0-.3-.1-.6-.3-.8l-4.2-3.9c-.3-.3-.7-.3-1 0c-.3 .3-.4 .7-.1 1Z" class="g0_74"/>
<path d="M241.6 626.6v.8l.2 .4l-.1-.5v.9l.1-.3l-.3 .5l-.1 .4l.1 1h-.1v2.1l.2 1.3V633l-.1 1l.1-.1l-.3 1v.4l.2 .9v-.4l-.2 .6v.5c.1 .3 .2 .6 .4 .7l.3 .3l-.1-.2l.2 .3c.2 .4 .7 .4 1 .2c.4-.2 .5-.6 .4-1l-.2-.3l-.1-.4v.8l.1-.3v-.1l.2-.6v-.4l-.1-.9l-.1 .3l.3-1v-1.4l-.2-1.3v.2v-2.1l-.1-1v.4l.2-.5v-1.3l-.3-.5l-.2-.3l-.2-.3c-.2-.2-.5-.3-.8-.2c-.2 .1-.4 .4-.4 .6Z" class="g0_74"/>
<path d="M251 643l-.7 .3c-.5 .1-.8 .6-.7 1.1l.2 .7l.2-.9l-.6 .7c-.1 .2-.2 .5-.2 .7v.8l.1 .9l.3-.9l-.8 .8c-.3 .2-.4 .7-.3 1.1l.2 .7l.1-.8l-.2 .4c-.2 .3-.2 .7 0 1c.1 .3 .4 .5 .7 .6h.1c.3 0 .6 0 .8-.2c.2-.2 .4-.5 .4-.8v-.4l-.2-.5l-.5-.8c-.2-.4-.6-.5-1-.3c-.3 .2-.5 .6-.3 1l.4 .9l.2-.9l-.4 .3c-.2 .3-.3 .7-.2 1.1c.2 .3 .6 .6 .9 .6c.4 0 .8-.2 1-.6l-.1 .2l.3-.4c.2-.2 .3-.6 .2-.9l-.2-.8l-.3 1.1l.8-.7c.2-.3 .4-.6 .3-.9v-1l-.1-.7l-.1 .7l.4-.8c.2-.3 .2-.7 .1-1.1l-.4-.6l-.1 1.1l.5-.6c.3-.3 .3-.7 .1-.9c-.2-.3-.6-.4-.9-.3Z" class="g0_74"/>
<path d="M168 665.5l-.2 3.4l.5-.5l-.9 .1h-2h.3l-.9-.1l.2 .1l-1.4-.4h-.2l-.9-.1h.1l-1.3-.2h-1.1l-.5 .1l-.7 .3l.4-.1h-1.8l-1.2 .3h.1l-1.4 .2H155l-1.3 .3h-.2l-1.1 .4h.1l-1.2 .5l-.5 .3l-.7 .9l.5-.3l-1.4 .4l-.2 .1l-.9 .5l.1-.1l-1.1 .5l.4-.1l-1.5-.1c-.3-.1-.6 .1-.8 .3l-.4 .5l.3-.3l-.6 .3c-.3 .2-.5 .5-.3 .9c.1 .3 .4 .5 .8 .4l.6-.1l.2-.1l.5-.3l-.6 .1l1.5 .3h.5l1.1-.4h.2l1-.5h-.2l1.3-.3l.6-.4l.7-.9l-.4 .3l1.2-.4l1.1-.3h-.2l1.3-.2h-.1l1.4-.1h.1l1.3-.3l-.2 .1h1.5l.4-.1l.8-.3l-.4 .1h1l-.2-.1l1.3 .2h1.1l-.3-.1l1.4 .3h1.2c.3-.1 .5-.2 .7-.4l.1-.2l.1-.2l-.3 .3l.4-.2l-.1 .1l1-.2l1-.2c.2-.1 .4-.3 .4-.6v-3.4c0-.3-.3-.5-.5-.5c-.3 0-.5 .2-.5 .5Z" class="g0_74"/>
<path d="M160.2 687.7l-.9-.1l-.9-.2v.1l-.8-.2h.1l-.9-.2h-.1l-.9-.1l-.8-.1h.1l-.8-.1h-.9l-.7 .1h-.2l-.5 .1h.1l-.5 .1l-.4 .1l-.5 .5l.2-.1l-.6 .2c-.2 .1-.3 .4-.2 .6c0 .3 .3 .4 .5 .3l.6-.2h.1l.6-.4l-.3 .1l.5 .1h.1l.5-.1l.7 .1h.7H154l.8 .1l.1 .1h.8l.9 .1l-.1-.1l.8 .2l.2 .1h1.8l.9-.1c.3-.1 .5-.3 .5-.5c0-.3-.2-.5-.5-.5Z" class="g0_74"/>
<path d="M148.6 689.2l-3.7 2.4l-1.2 .6h.1l-1.2 .5l-1 .4h.3l-1.4-.1h-1l-.9 .1l-.3 .1l-.5 .3l.2-.1l-.3 .1l-.4 .2l-.1 .2l.9-.2l-.2-.1l.3 .3l-.2-.3c-.2-.4-.6-.5-1-.3c-.4 .2-.5 .7-.3 1.1l.1 .3l.4 .3l.2 .2c.4 .2 .9 0 1.1-.3l.1-.2l-.3 .3l.3-.2l.1-.1l.4-.4l-.3 .2l.8-.1h-.1l1-.1h1.4l.2-.1l1-.5l1.1-.5v-.1l1.2-.7l3.7-2.5c.1-.1 .2-.4 .1-.6c-.1-.1-.4-.2-.6-.1Z" class="g0_74"/>
<path d="M114.8 611.8l.1 2.6v-.2v.6l.2 .8v-.1l.1 .6V616l.2 1v.1l.2 1.3v-.1l.2 1.3l.2 1.4v.1l.4 1.7v.2l.5 1.6l.6 1.9l.1 .1l.7 1.8l.1 .2l1.5 1.9L121 632l.1 .1l1.2 1.3c.2 .3 .7 .3 1 0c.3-.2 .4-.7 .1-1l-1.1-1.4l.1 .2l-.9-1.7l-.1-.1l-1.3-2l.1 .3l-.7-1.9v.1l-.6-2l-.5-1.6l.1 .1l-.4-1.7l-.2-1.4l-.2-1.3v-.1l-.3-1.2h.1l-.2-1l-.1-.6V615l-.3-.8l.1 .2l-.1-.2v-.1l-.6-2.5c-.1-.4-.4-.6-.8-.6c-.4 .1-.7 .4-.7 .8Z" class="g0_74"/>
<path d="M93.8 619.1l-1 1.7l.1-.1l-.9 .9l-.7 .8l.2-.2l-.3 .2c-.3 .1-.4 .4-.5 .7l-.1 .6v.8l.1 .8v.9l.1 .2l.1 .7v-.2l.1 .9l.1 .7v-.1v2.4v-.2l-.2 1c-.1 .6 .3 1.1 .8 1.2c.6 .2 1.1-.2 1.3-.8l.2-1v-.1l.1-1.1v-.1l-.1-1.3v-.1l-.1-.8v-.8l-.1-.2l-.2-.7l.1 .2l-.1-.9v-.7v.1v-.6l-.1 .1l.1-.6l-.4 .7l.3-.2l.3-.3l.5-.8v-.1l.6-1.1l.1-.1l.6-1.9c.1-.3 0-.6-.3-.7c-.3-.2-.6-.1-.7 .2Z" class="g0_74"/>
<path d="M65.1 623.2l-.2 .1l-.1 .1v.1l1.2-.2v-.1c-.4-.1-.7-.1-1.1 .1c-.3 .2-.5 .5-.5 .9v.2l.1 .7v-.5l-.7 1.7l.3-.4l-.6 .6l-.3 .4l-.4 1.1v-.2l-.8 1.3l-.2 .5l-.1 1.8v2.1l.5 1.9c.1 .4 .5 .6 .8 .5c.4-.1 .6-.4 .5-.8l-.4-2v.3l.4-1.7l.3-1.8l-.1 .4l.9-1.3l.1-.1l.5-1.1l-.2 .3l.6-.6l.3-.4l.7-1.6l.1-.5l-.1-.7v-.1l-.6 1c.3-.1 .6-.4 .6-.8v-.1l.1-.1v-.3c0-.3-.2-.7-.5-.8c-.4-.2-.8-.2-1.1 .1Z" class="g0_74"/>
<path d="M129.5 584.1l-.3-.1c-.2-.1-.6 0-.8 .2c-.2 .2-.3 .5-.2 .8c.1 .3 .3 .5 .6 .6l.4 .1h-.1l.6 .2l1.1 .3l1.6 .6h.1l1.7 .3l2 .3h.2l2.1-.1l2.1-.2l2.3-.3h.1l2-.5h.1l1.7-.4h-.1l1.8-.3h.1l1.1-.3h-.1l1-.2l.7-.1l.6-.1c.5-.1 .8-.5 .7-1c-.1-.4-.4-.7-.9-.7l-.6 .1h.1l-.7-.1h-.2l-1 .1h-.1l-1.1 .3h.1l-1.8 .3h-.1l-1.8 .5h.1l-2 .4l-2.3 .4l.1-.1l-2.1 .3h.1l-2.1 .1h.2l-2-.2l-1.7-.3l.1 .1l-1.6-.5l-1.1-.4l-.6-.1l-.5-.1c-.4-.1-.8 .2-.9 .6c-.1 .4 .1 .9 .5 1l.3 .1c.4 .1 .9-.1 1-.6c.1-.4-.1-.8-.5-1Z" class="g0_74"/>
<path d="M127.8 555.1l-.2-.1h-.1l-.2-.1c-.3-.1-.7 0-1 .3c-.2 .3-.2 .7 0 1c.2 .3 .6 .5 1 .4l.1-.1h-.5l.8 .4h.1l2.3 .8h1.6l1.2-.3l.2-.1l1.6-.8h.1l1.7-1l2.2-1.3h-.1l2.3-1.2v-.1l2.1-1.3l-.1 .1l2.2-1l.1-.1l1.6-.9l1.4-.8c.3-.1 .4-.5 .3-.8c-.2-.3-.6-.5-.9-.3l-1.4 .7l-1.7 .7l-2.3 .9h-.1l-2.1 1.3l-2.2 1.2h-.1l-2.1 1.3l-1.7 1.1l-1.6 .8l.2-.1l-1.2 .4l.1-.1l-1.1 .2h.3l-2.3-.8v.1l-.8-.4l.2 .1l-.1-.1c-.2-.2-.6-.3-.9-.2c-.3 .2-.5 .5-.5 .8c0 .4 .2 .7 .5 .8l.2 .1c.4 .2 .8 .1 1-.3l.2-.2c.1-.1 .1-.3 .1-.5c0-.2-.2-.4-.4-.5Z" class="g0_74"/>
<path d="M121.6 517.1v0c-.2-.1-.4-.1-.6 0c-.1 .1-.3 .3-.3 .4v.6l.2 .3l.2 .2l.4 .3l2.9 1.9l.2 .1l1.8 .2h-.1l2 .4h.1l2.4 .1h2.5l2.3-.2h.1l2.4-.5h.1l2.4-.7c.2-.1 .5-.3 .5-.6c.1-.3 0-.6-.2-.8c-.2-.2-.6-.3-.8-.2l-2.4 .8l.1-.1l-2.4 .5h.1l-2.3 .2h-4.7h.1l-2-.4h-.1l-1.7-.1l.3 .1l-2.9-1.8l-.4-.3l.3 .4l-.2-.3c-.1-.4-.5-.6-.8-.4c-.4 .1-.6 .4-.4 .8c.1 .4 .5 .6 .8 .4h.1c.4-.1 .5-.5 .5-.8l-.1-.1c0-.2-.2-.4-.4-.4Z" class="g0_74"/>
<path d="M77.1 708.6l-.6 .8l.4-.3l-1.4 .6l-.2 .2L74.1 711l.2-.1l-1.1 .6l-.3 .3l-.8 1.2l-.2 .1l-.6 1.4l-.1 .2l-.7 2.1v.2l-.5 2.8l-.5 3.6v.1l-.4 4.2l-.4 5.7l-.5 6.3l-.6 7.3v-.1l-1.3 7.4v-.1l-1.7 7.3v-.2L62.3 768v-.1L59.8 774l-2.1 5.1l.1-.2l-2.2 3l.1-.1L53.8 784l.7-.4L53 784h.4l-1.7-.1l.9 .4l-1.4-1.6l.2 .2l-1.1-2L49 778.1l.1 .2l-1-2.8v-.1L47 773.1l-1.3-2.6l.1 .2l-.7-2.8l-.8-3v.2l-.2-2.8l-.3-2.3l-.2-1.6v.2l.1-1.3v-.4l-.1-.5l-.7 1.4l.7-.3l-.2 .1l.6-.2l.8-.2l.4-.1l.9-.6l.3-.2l.3-.4l.1-.1l.5-.6l.3-.4l-.6 .4l1.1-.3H48l1.4-.2h-.3l2.1 .1H51l2.1 .4l-.3-.1l3.1 1.5h-.1l3.6 2.1l-.2-.2l4 3.4l-.1-.1l4 3.8l3.8 3.9l3.6 3.9v.1l4.2 4.3h.1l4.3 4h.1l4 3.5l.1 .1l3.9 3.1c.4 .3 1 .4 1.5 .2c.5-.2 .9-.7 1-1.2c.1-.6-.2-1.1-.6-1.5l-4-3h.1L85 779.6l.1 .1l-4.4-4v.1l-4.2-4.3h.1l-3.7-3.9l-3.8-4H69l-4-3.8v-.1l-4.1-3.3l-.2-.1l-3.6-2v-.1l-3.2-1.5l-.3-.1l-2.1-.4h-.2l-2.1-.1H49l-1.5 .3h-.1l-1.1 .3c-.3 .1-.5 .2-.7 .5l-.3 .4l-.5 .7v-.1l-.3 .4l.3-.2l-.9 .5l.3-.1l-.8 .2l-.7 .2l-.2 .1l-.7 .3c-.5 .3-.8 .9-.7 1.4l.2 .5l-.1-.3v1.5l.1 1.6l.3 2.3v-.1l.2 2.8l.1 .2l.8 3v.1l.7 2.7l.1 .3l1.3 2.6v-.1l1 2.4v-.1l.9 2.7l.1 .1l1.3 2.8l1 2.1l.2 .2l1.3 1.6c.3 .3 .6 .5 .9 .5l1.7 .1h.4l1.5-.4c.3-.1 .5-.2 .7-.4l1.9-2.2v-.1l2.2-3l.1-.3l2.2-5.1l2.5-6.1h.1l2.3-6.7v-.1l1.8-7.2v-.1l1.3-7.5l.1-.1l.6-7.3l.4-6.3l.4-5.7l.4-4.2v.1l.5-3.6v.1l.5-2.9v.2l.6-2.1v.1l.6-1.4l-.1 .2l.7-1.1l-.3 .3l1-.7l.2-.1l1.1-1.3l-.2 .2l1.2-.9c.3-.1 .4-.4 .4-.6l.2-.9c.1-.4-.1-.7-.4-.9c-.4-.1-.8 0-1 .2Z" class="g0_74"/>
<path d="M243 523.7l1.1 .4h.2l1.2-.2h1.8l2.9-.4l3.4-.5l4.1-.7h.1l4.6-.8h.1l5.4-1.4l5.6-1.5h-.1l7.1-1.8l7.4-2.1h-.1l8-2.2l9-2.3l.1-.1l8.6-2.8h-.1l9.3-2.3l8.9-2.3l8.3-2h-.1l8.3-1.1h.1l6.8-1.2h-.1l6-.6l-.1 .1l5.6-.5h-.1H370h-.1l3.6 .1h-.2l2 .4h-.2l1.3 .4h.3l.4 .1c.6 0 1.2-.5 1.2-1.2c.1-.6-.4-1.2-1.1-1.3c-.6 0-1.2 .4-1.3 1.1v.2l.6-.9l-.3 .2l.1-.1l-.4 .2h-.2l-1 .6l.2-.1l-1.2 .5l.1-.1l-1.9 .7l.1-.1l-2.5 .5h.1l-2.4 .4h.1l-2.7 .2h.2l-2.2-.3c-.5 0-1 .3-1.1 .9c-.1 .5 .3 1 .8 1.1l2.2 .4h.2l2.6 .1h.1l2.5-.2h.1l2.5-.4l.2-.1l1.9-.6h.1l1.1-.5l.2-.1l1.1-.6l.4-.2l.2-.2l.2-.2c.3-.3 .5-.7 .5-1.1l-.1-.2c0-.7-.6-1.1-1.2-1.1h-.4l.4 .1l-1.2-.4h-.1l-2-.5h-.2L370 495h-3.8l-5.6 .5l-5.9 .5l-.1 .1l-6.8 1.1l-8.3 1.2h-.1l-8.3 2H331l-8.9 2.3l-9.3 2.4h-.1l-8.5 2.9v-.1l-9 2.4l-7.9 2.3h-.1l-7.3 2.2h.1l-7.1 1.8l-5.6 1.6l.1-.1l-5.4 1.5l-4.6 .9l-4.1 .8l-3.3 .6h-.1l-2.8 .6v-.1l-1.7 .3h-.1l-1.2 .4l.2-.1l-1.2-.1c-.2 0-.4 .2-.4 .4c-.1 .2 .1 .4 .3 .4Z" class="g0_74"/>
<path d="M236.4 522.7l.6 .9l.4 .3l1.6 .4h.2l2.4 .4l3.9 .3h.1l4.7 .2v-.1l5.8-.3l6.1-.6h.2l6.2-1.4l6.9-1.3l.1-.1l7.6-2.1l7.5-2.1l8.5-2.7l8.5-2.9l8.5-2.9l8.8-2.8h-.1l8.2-1.9l8.2-1.8h-.1l7.5-.8h-.1l6.7-.4l5.8-.1H361l5.3 .3h-.1l3.4 .4l-.1-.1l3.2 .5h-.1l2 .5l1.1 .3l-.2-.1l1 .4l-.2-.1l.3 .2c.3 .1 .6 .2 .9 .1h.2c.4-.1 .7-.3 .9-.6c.2-.3 .3-.7 .2-1.1l-.1-.7v.6l.4-1.2c.1-.6-.2-1.2-.7-1.4c-.6-.2-1.2 .1-1.5 .6l-.5 1.2v.1l-.2 .6l1.6-.9h-.3l.5 .2l-.3-.2l-.2-.1l-1-.4h-.1l-1.1-.3l-2-.5h-.1l-3.2-.5h-.1l-3.4-.4h-.1l-5.3-.2h-5.9l-6.8 .4h-.1l-7.5 .9h-.1l-8.2 1.9l-8.2 1.9h-.1l-8.9 3l-8.4 2.8l-8.5 3l-8.5 2.8h.1l-7.5 2.1l-7.5 2.3h.1l-7 1.4l-6.2 1.5l.1-.1l-6.1 .7h.1l-5.8 .4h.1l-4.6-.1l-3.9-.3l-2.4-.2l-1.6-.2l.3 .1l-.8-.6c-.3-.2-.7-.2-.9 .1c-.2 .2-.3 .6 0 .8Z" class="g0_74"/>
<path d="M567.1 497.1l-1.3-.7l-.3-.1l-1.2-.2h.1l-1-.4h-.6l-.6 .2c-.2 .1-.4 .2-.5 .4l-.1 .3l.5-.4l-.2 .1c-.2 0-.4 .2-.5 .4l-.2 .3l.9-.5h-.5c-.2 0-.5 .1-.7 .3l-.1 .2c-.2 .2-.3 .4-.2 .7c0 .2 .1 .4 .3 .6l.3 .2c.2 .1 .4 .2 .6 .2l1.6-.1l2.1-.1h.1l3.7-.4l4.7-.5l6.1-.7l7-.8h.1l8.1-1.4l8.3-1.4h.1l9.5-2.4l9.5-2.6l10-2.5l9.9-2.7l9.6-2.5l9.4-2.2l8.6-2.2h-.1l8.7-1.8l7.3-1.6l7-1.5l-.1 .1l5.8-1v-.1l4.8-1l3.5-.6h-.2h3l1.1-.2h.2l.6-.2c.6-.1 1-.6 1.1-1.2c.1-.5-.2-1.1-.7-1.4l-.5-.2l-.4-.2L710 465l-3.4-.8h-.2l-4.3-.2h-.2l-5.9 .6l-6.8 .3c-.6 0-1 .6-1 1.1c0 .6 .5 1.1 1.1 1.1l6.8-.3l6-.2h-.2l4.3 .3H706l3.3 .8v.1l1.4 .3l-.3-.2l.4 .3c.6 .3 1.3 .2 1.7-.3c.4-.4 .5-1.1 .2-1.7c-.3-.5-1-.8-1.6-.6l-.6 .2l.1-.1l-1.1 .2h.2l-2.8 .1h-.2l-3.6 .6l-4.9 1h.1l-5.8 1l-7 1.5l-7.3 1.6h.1l-8.8 1.9l-8.5 2.2l-9.4 2.3l-9.7 2.5l-9.8 2.8l-10 2.6l-9.5 2.6l-9.4 2.4l-8.3 1.4l-8.1 1.4l-7 .8l-6 .8l-4.7 .6l-3.8 .5h.1l-2.1 .2h-.1l-1.6 .1l.6 .1l-.3-.1c-.4-.3-.9-.1-1.2 .3c-.3 .4-.1 1 .3 1.2c.4 .3 .9 .2 1.2-.2l.1-.2l-.7 .4h.5c.3 0 .6-.2 .8-.6l.1-.3l-.7 .6l.2-.1c.2 0 .4-.1 .6-.3l.1-.3l-.4 .4l.5-.2h-.5l1 .3l.2 .1l1.3 .1l-.2-.1l1.5 .5c.3 .1 .7-.1 .8-.4c.2-.3 0-.7-.3-.9Z" class="g0_74"/>
<path d="M555.7 496.8l-.8 1c-.1 .2-.2 .4-.2 .7v1.6c0 .2 .1 .5 .2 .7l1.2 1.6l.3 .2l2.6 1.8l.3 .2l3.7 1l.2 .1l4.2 .4h.3l6.7-.9l.1-.1l6.9-1.9h.1l9.2-3.2l9.6-3.9l.1-.1l10.4-4.9v.1l11.2-5.1l11.1-4.8l11.4-4.8l11.1-4.9c.7-.3 1-1.1 .7-1.8c-.3-.7-1.1-1-1.8-.7l-11.1 4.8h.1L632 478.6l-11.2 4.8l-11.2 5l-10.5 4.9h.1l-9.6 3.9h.1l-9.2 3.3l.1-.1l-6.8 2.1l.1-.1l-6.6 1.1h.3l-4.1-.4l.2 .1l-3.7-1l.3 .1l-2.5-1.7l.2 .3l-1.2-1.5l.2 .5l-.3-1.7v.6l.4-1.3c.1-.3 0-.7-.3-.9c-.4-.2-.8-.1-1.1 .2Z" class="g0_74"/>
</svg>