<svg viewBox="0 0 1466 825" version="1.1" xmlns="http://www.w3.org/2000/svg">
<defs>
<clipPath id="c0_52"><path d="M-.2 825.3V-.2H1467V825.3Z"/></clipPath>
<clipPath id="c1_52"><path d="M36.3 787.6v-279H1442.8v279Z"/></clipPath>
<style>
.g0_52{fill:#F00;}
.g1_52{fill:none;stroke:#000;stroke-width:1.466;stroke-linejoin:round;}
.g2_52{fill:none;stroke:#F00;stroke-width:9.166;stroke-miterlimit:8;}
</style>
</defs>
<image clip-path="url(#c0_52)" preserveAspectRatio="none" x="0" y="-7" width="1467" height="840" href="img/1.jpg"/>
<path fill-rule="evenodd" d="M811.2 432.4c1.9 0 3.4 .7 4.7 2c1.2 1.4 1.8 2.9 1.8 4.8c0 1.8-.6 3.4-1.9 4.7c-1.3 1.3-2.9 1.9-4.8 1.9c-1.7 0-3.2-.7-4.5-2c-1.3-1.3-2-2.9-2-4.6c0-1.9 .7-3.5 2-4.8c1.3-1.3 2.9-2 4.7-2Zm.8-49.8c4.3 0 8 1.2 11 3.7c3 2.4 4.5 5.7 4.5 9.6c0 2.2-.6 4.2-1.9 5.9c-1.5 1.9-3.4 2.8-5.7 2.8c-1.7 0-3.2-.6-4.4-1.8c-1.2-1.1-1.8-2.5-1.8-4.1c0-2.4 1-4.2 3-5.5c1.9-1.2 2.9-2.2 2.9-3c0-1.2-.6-2.2-1.7-2.9c-1.2-.8-2.6-1.2-4.5-1.2c-2.3 0-4.2 .7-5.7 2c-1.5 1.3-2.3 2.9-2.3 4.8c0 1.8 .8 4 2.3 6.7c2.3 4.2 3.7 6.9 4.2 8.1c1.5 3.7 2.2 7.8 2.2 12.2c0 2.3-.1 5-.5 7.9h-3.3c0-.7 0-1.2 .1-1.5l.3-2.8c0-2-1.4-4.2-4-6.6c-4.5-4-7-6.2-7.4-6.8c-2.7-3.1-4.1-6.7-4.1-10.7c0-4.8 1.6-8.8 4.9-12c3.2-3.2 7.2-4.8 11.9-4.8Z" class="g0_52"/>
<path d="M811.2 432.4c1.9 0 3.4 .7 4.7 2c1.2 1.4 1.8 2.9 1.8 4.8c0 1.8-.6 3.4-1.9 4.7c-1.3 1.3-2.9 1.9-4.8 1.9c-1.7 0-3.2-.7-4.5-2c-1.3-1.3-2-2.9-2-4.6c0-1.9 .7-3.5 2-4.8c1.3-1.3 2.9-2 4.7-2Zm.8-49.8c4.3 0 8 1.2 11 3.7c3 2.4 4.5 5.7 4.5 9.6c0 2.2-.6 4.2-1.9 5.9c-1.5 1.9-3.4 2.8-5.7 2.8c-1.7 0-3.2-.6-4.4-1.8c-1.2-1.1-1.8-2.5-1.8-4.1c0-2.4 1-4.2 3-5.5c1.9-1.2 2.9-2.2 2.9-3c0-1.2-.6-2.2-1.7-2.9c-1.2-.8-2.6-1.2-4.5-1.2c-2.3 0-4.2 .7-5.7 2c-1.5 1.3-2.3 2.9-2.3 4.8c0 1.8 .8 4 2.3 6.7c2.3 4.2 3.7 6.9 4.2 8.1c1.5 3.7 2.2 7.8 2.2 12.2c0 2.3-.1 5-.5 7.9h-3.3c0-.7 0-1.2 .1-1.5l.3-2.8c0-2-1.4-4.2-4-6.6c-4.5-4-7-6.2-7.4-6.8c-2.7-3.1-4.1-6.7-4.1-10.7c0-4.8 1.6-8.8 4.9-12c3.2-3.2 7.2-4.8 11.9-4.8Z" class="g1_52"/>
<image clip-path="url(#c1_52)" preserveAspectRatio="none" x="37" y="509" width="1405" height="278" href="img/2.jpg"/>
<path d="M36.7 533.6c0-9.4 7.5-17 16.9-17H620.7c9.4 0 16.9 7.6 16.9 17v67.7c0 9.3-7.5 16.9-16.9 16.9H53.6c-9.4 0-16.9-7.6-16.9-16.9Z" class="g2_52"/>
<path d="M1039 522.5l.2 1.8c.1 .6 .7 1.1 1.3 1.1c.7-.1 1.2-.7 1.2-1.3c0-.7-.6-1.2-1.3-1.2h-.1c-.4 0-.8 .2-1 .6c-.2 .3-.2 .8-.1 1.1l.3 .6l-.1-.1l.8 2.4v-.2l.3 1.6v-.1l.1 1.8l.1 1.6v1.6l-.1 1.7v-.1l-.2 1.4h.1l-.4 1.6v.1l-.3 1.8l.1-.2l-.5 1.9l-.5 2.3l-.5 2.4l-.5 2.4v.2l-.1 2.7v2.8l.1 2.5l.2 2.4l.2 2.2v-.1l.1 2.3v2.6v-.1l-.1 2.9l-.1 3.4v-.1l-.4 3.3l-.3 3.4l-.3 3.5v-.2l-.6 3.5l-.1 .2l-.1 4v-.1l-.4 4v.1l-.2 3.9v.1l.2 3.7l.1 3.4l.2 3.2v.1l.4 3.7v.1l.4 3.6l.1 .1l.6 3.4v.1l.8 3.1l.6 2.8h-.1l.5 2.7l.3 2.4l.3 2.5l.1 2.2l.1 1.6v.1l.2 1.6v-.1v1.7l.1 .5l.1 .2c.2 .5 .6 .8 1.1 .9c.5 .1 1.1-.1 1.4-.6c.3-.4 .4-.9 .2-1.4l-.5-1l.1 .4l-.2-2.3c0-.5-.5-.9-1.1-.9c-.5 0-1 .5-1 1.1l.1 2.2v-.2l-.2 1c-.1 .8 .3 1.5 1.1 1.6c.7 .2 1.4-.1 1.7-.8V641l.1-.5l.1-.8v-1l-.1-1.7l-.1-1.6l-.2-2.3l-.3-2.6l-.2-2.4l-.1-.1l-.4-2.8l-.6-2.9v-.1l-.9-3.1v.1l-.6-3.4v.1l-.5-3.6l-.4-3.8v.1l-.2-3.2l-.2-3.3V602l-.2-3.7v.1l.1-3.8v.1l.4-4v-.1l.1-4v.2l.7-3.4v-.2l.3-3.4l.3-3.4l.4-3.3V573l.1-3.4l.1-2.9v-.1l-.1-2.6v-2.4l-.2-2.2v.1l-.2-2.4l-.2-2.5v.1v-2.6l.2-2.7l-.1 .2l.5-2.4l.4-2.4l.5-2.2l.4-1.8v-.2l.3-1.8v.1l.3-1.7v-.1l.1-1.4v-.2l.1-1.6v-1.8l-.1-1.6l-.1-.1l-.1-1.8l-.1-.2l-.3-1.6v-.1l-.8-2.3l-.1-.6c-.2-.6-.8-1-1.4-.9c-.7 .1-1.1 .7-1.1 1.3c0 .6 .6 1.1 1.2 1.2h.1c.5 0 1-.3 1.2-.8c.2-.5 .1-1.1-.3-1.4l-1.4-1.1c-.1-.2-.4-.2-.6-.1c-.2 .1-.3 .3-.3 .5Z" class="g0_52"/>
<path d="M1166.7 535.6l-.1-.2v.1v-.8l-.1-.5l-.2 .7l.3-.3c.3-.3 .3-.8 .1-1.2c-.1-.5-.5-.7-1-.8h-.1l.5 .1h-.1c-.3-.1-.6-.1-.9 0c-.3 .1-.6 .4-.7 .7l-.2 .7l-.8 2.6h-.1l-.5 2v.2l-.4 2.3l-.4 2.6l-.1 .1l-.2 2.8v-.1l-.5 3.2v-.1l-.5 3l-.1 .1l-.4 2.7v-.1l-.8 2.9v.3l-.2 3l-.2 3.3l-.3 3.6v.2l.2 2.4v.1l.3 2.4v-.2l.1 4.1v.1l.4 4.5v.1l.7 4.1l-.1-.2l.3 3.4l.2 3.2l.2 3.1h-.1l.1 3v-.1l-.2 2.4v.1l-.1 2.7v-.2l-.5 2.3l-.7 2.3v.2l-.5 2.7l-.4 2.7v-.1l-.5 2.2v.1l-.4 2l-.1 .2V621v-.3l-.1 .8c-.1 .5 .2 1.1 .6 1.5l.7 .5l-.6-1.3v.2c0 .9 .6 1.6 1.5 1.7c.9 0 1.6-.6 1.7-1.5c.1-.9-.5-1.6-1.3-1.8l-.6-.1c-.7-.1-1.4 .3-1.7 .9c-.3 .6-.2 1.4 .3 1.9c.5 .5 1.3 .6 1.9 .3l.2-.1c.7-.4 1-1.1 .9-1.8c-.1-.7-.7-1.2-1.4-1.3h-.4c-.8-.1-1.6 .4-1.7 1.3c-.2 .8 .3 1.6 1.1 1.8c.8 .3 1.7-.2 2-.9v-.1c.3-.7 0-1.5-.6-1.9c-.6-.5-1.5-.4-2 .1c-.6 .6-.7 1.4-.3 2.1h.1c.4 .7 1.2 1 2 .7c.7-.3 1.1-1.1 .9-1.9c-.2-.7-.9-1.3-1.7-1.2h-.1l.9 .2l-.3-.1v-.1h-.4l-.1-.1c-.6-.1-1.3 .3-1.6 .9c-.3 .6-.1 1.3 .3 1.7l.1 .1l-.4-.5h.1l.1 .3c.3 .5 .8 .7 1.3 .8h.1c.6 0 1.1-.2 1.4-.7c.4-.4 .4-1 .2-1.5v-.1c-.2-.6-.7-1-1.3-1c-.7-.1-1.3 .2-1.6 .7v.1c-.3 .5-.4 1.1-.1 1.6c.2 .5 .7 .8 1.2 .9h.4c.7 .1 1.3-.2 1.7-.8c.3-.7 .2-1.4-.3-1.9c-.5-.5-1.3-.7-1.9-.3l-.3 .1c-.6 .3-1 1-.9 1.7c.1 .7 .7 1.3 1.4 1.4l.6 .1c.4 0 .9-.1 1.3-.4c.3-.3 .5-.8 .5-1.3v-.2c0-.5-.2-1-.6-1.3l-.7-.5l.6 1.4l.1-.7v-1.3v.2v-1.5v.2l.4-2l.4-2.3l.1-.1l.3-2.6v.1l.5-2.8v.2l.7-2.4v-.1l.5-2.3v-.3l.2-2.8v.1l.2-2.5v-.1l-.1-3.1l-.2-3.1l-.1-3.3l-.3-3.4v-.1l-.7-4.1v.1l-.4-4.5v.1l-.1-4v-.2l-.3-2.4l-.2-2.4v.2l.2-3.6v.1l.2-3.3l.1-3.1v.3l.7-2.9l.1-.1l.4-2.8l.5-3l.5-3.2v-.1l.2-2.7v.1l.4-2.7l.3-2.4v.2l.5-2.1v.1l.7-2.6l.2-.6l-.7 .8l.1-.1l-.5 .1h.1l-.8-.2l.3 .2l-.3-.6v.9l.1 .2l.1 .4c.1 .2 .4 .4 .6 .4l.2 .1c.2 0 .5-.1 .6-.2c.1-.2 .2-.4 .2-.6Z" class="g0_52"/>
<path d="M1130.7 600.8l-3.4 .2h-3.5l-3.5 .2c-.2 0-.5 .2-.5 .5c.1 .3 .3 .5 .6 .5l3.5-.1h3.5l3.4-.4c.2 0 .4-.2 .4-.5c0-.2-.3-.4-.5-.4Z" class="g0_52"/>
<path d="M884.6 545.2l.3 .5l-.2-.5l.2 2.4l.2-.8l-1.1 1.6l-.1 .2l-1.1 3.1l.2-.3l-1.9 2.8l-.1 .1l-1.8 3.1l.1-.1l-2 3.1v.1l-2 3.4l.1-.1l-2 3l-.1 .1l-1.6 3.1l.1-.1l-1.2 1.8h.1l-.6 .8l-.1 .2l-.5 .9l.2-.3l-2.2 2l-.2 .4l-1.2 2.2l-.1 .4l-.2 1.1v.1c-.1 .4 0 .8 .3 1.1c.3 .3 .7 .4 1.1 .3l1-.1c.6-.2 1-.7 1-1.3l-.1-.9l-.1-.3l-.4-1.5v.3l-.1-2.5l-.1-2.7v.1l.4-2.9l.6-3l-.1 .3l.9-2.1l.1-.3l.3-1.9l-.1 .3l.7-1.4l.1-.1l.3-.8l-.1 .2l.4-.7l-.2 .2l.2-.2c.2-.2 .4-.4 .4-.7c0-.3-.1-.6-.3-.8l-.2-.2l.1 .1l.2 1.2c.1-.3 .1-.7 0-1.1c-.2-.3-.5-.6-.9-.7l.5 .3h-.1c-.4-.4-1-.5-1.5-.2c-.5 .3-.7 .9-.7 1.4l.1 .3c0 .3 .2 .5 .4 .7l1.2 1.2l-.1-.1l3.8 4.4l-.2-.2l1.8 2.8l.1 .1l2.7 3.8l2.9 3.9v.1l3 3.4l3.1 3.7v-.1l2.7 3.6v.1l2.6 3h-.1l2.1 3h.1l1.7 2.4l.9 1.4c.5 .7 1.4 .9 2 .4c.7-.4 .9-1.3 .5-1.9l-1-1.5v-.1l-1.7-2.4l-2.1-3.1l-.1-.1l-2.6-3l-2.7-3.6h-.1l-3.1-3.6l-3-3.5v.1l-2.9-3.9v.1l-2.7-3.8v.1l-1.8-2.8l-.1-.2l-3.8-4.3v-.1l-1.2-1.2l.3 .7v-.2c-.1-.6-.5-1-1.1-1.1c-.5-.1-1.1 .1-1.4 .6c-.3 .5-.2 1.1 .1 1.6h.1c.3 .4 .9 .6 1.4 .4l-1.6-.8c.2 .5 .6 .8 1.1 .9c.4 .1 .9-.1 1.2-.5l-.3 .3l.2-.1c.4-.3 .6-.7 .5-1.2c-.1-.4-.5-.8-.9-.9c-.5 0-.9 .2-1.1 .6l-.2 .2v.1l-.4 .7v.1l-.3 .8l.1-.1l-.8 1.3l-.1 .4l-.3 1.9l.1-.3l-1 2.1l-.1 .2l-.6 3l-.5 3v.2l.1 2.8v2.5l.1 .2l.4 1.6l-.1-.3l.1 .9l1-1.2h-.9c-.5 .1-.9 .4-1 .8c-.2 .4-.2 .9 .1 1.3c.3 .3 .8 .5 1.2 .4h.1c.5-.1 .9-.5 1-1l.2-1.2l-.1 .4l1.2-2.2l-.3 .3l2.2-2l.2-.3l.6-1l-.1 .1l.6-.9l1.1-1.8l.1-.1l1.6-3.1l-.1 .1l2-3v-.1l2-3.4h-.1l1.9-3.1h.1l1.7-3.1v.1l1.9-2.8l.1-.3l1-3.1l-.1 .3l1-1.6c.2-.2 .2-.5 .2-.7L887 545l-.2-.5l-.2-.4c-.4-.5-1-.7-1.5-.4c-.6 .3-.7 1-.5 1.5Z" class="g0_52"/>
<path d="M1035.3 668.6l-1.8 1.9l.3-.2l-.7 .3l-.2 .2l-.6 .5h-.1l-1.1 1l-.3 .4l-.5 1.4l-.1 .1l-.3 1.4l-.1 .2V677l.1 1.1V678l-.1 .8l.1 .2l.1 .7v-.2v.8v-.2l-.2 .9v.5l.2 1.3v-.3v2.8l.1 1.5l.1 .2l.3 1.9v-.1l.3 1.8v.1l.7 2.6v.1l1 3v-.1l.7 3.2l.1 .1l1.2 3.4l-.1-.2l.7 3.1l-.1-.3l.1 2.9v3.4v-.2l-.3 3.2l-.4 3.8v.3l.3 4.1l.4 4.1v.1l.8 4.1l.1 .2l1.4 4.1l1.2 3.8v.1l1.4 4l1.5 4.1l1.5 3.9l1.4 3.9l1.1 3.8v-.1l.9 3.9V763l.4 3.5v-.2l.1 3.5v-.1l-.2 3.2v-.1l-.4 2.9v-.1l-.4 2.5l-.3 2.2v.4l.3 1.5l.1 .1l.4 1.4c.1 .3 .3 .6 .6 .7l1.3 .4l.1 .1l1.7 .4c.5 .1 .9-.1 1.1-.6c.1-.4-.1-.9-.6-1l-1.7-.6l.2 .1l-1.1-.7l.5 .7l-.3-1.5v.1l-.2-1.5v.3l.3-2.1l.5-2.5l.4-2.8v-.1l.3-3.2v-3.8l-.5-3.4v-.2l-.9-3.9v-.1l-1.1-3.8v-.1l-1.5-3.9l-1.5-4l-1.5-4l-1.4-4v.1l-1.1-3.9h-.1l-1.4-4.2l.1 .2l-.8-4.1v.1l-.4-4l-.3-4.1v.2l.4-3.8l.3-3.3v-.1l-.1-3.3v-2.9l-.1-.2l-.7-3.1v-.2l-1.2-3.4v.2l-.8-3.2v-.1l-1.1-3v.1l-.6-2.6v.1l-.3-1.8l-.4-1.9v.1l-.1-1.5v.1l-.1-1.3v-1.6l-.3-1.3l.1 .4l.1-.9v-1.3l-.1-.6v.2V678l-.1-1v-1.2v.3l.3-1.3v.1l.5-1.3l-.2 .3l1.1-1l.6-.6v-.1l.5-.5v-.1l1.6-2.1c.2-.3 .1-.7-.2-.9c-.2-.3-.6-.2-.9 0Z" class="g0_52"/>
<path d="M1163.9 674h.3l.1-.1h.2h-.2h.4h-.2l.3 .1l-.7-.9v.4l.2 .7l.1 .1l.8 2.2v-.2l.3 1.3v-.1l.1 1.5v-.1l.1 1.8v2l-.1 2.1l-.1 2.2l-.1 2.3v.1l-.1 2.8v3.3l.2 4l.2 4.2l.2 4.6v-.1l.2 4.7l.1 5l.2 5v5.4l.1 5.5v.1l.3 5.5h.1l.3 5.4l.6 5.5l.6 5.2v-.1l.5 4.8h-.1l.3 4.8v-.1l.2 4.3v4.1v-.1l-.1 4l-.1 3.7V784l.3 2.7v.2l.4 1.6l.5 1.4l.2 .5l.7 .8l.2 .2l.6 .5c.2 .1 .4 .2 .7 .2l.6 .1h.4l.8-.1c.3-.1 .7-.3 .9-.7l.5-.9v-.2l.4-1.1l.1-.4l-.1-2c0-.6-.4-1.1-1-1.1c-.6 0-1.1 .5-1.1 1.1v2l.1-.5l-.6 1.1l.1-.2l-.6 .8l1-.5l-.8 .1h.5l-.6-.2l.5 .3l-.6-.5l.2 .2l-.7-.8l.3 .5l-.4-1.4l-.4-1.5v.3l-.2-2.7v.1v-3l.1-3.6l.1-4v-4.2l-.2-4.3l-.3-4.8v-.1l-.5-4.7v-.1l-.5-5.1v-.1l-.7-5.4v.1l-.3-5.4l-.4-5.5l-.2-5.5v.1v-5.4l-.1-5.1l-.2-5l-.2-4.7l-.2-4.6l-.3-4.2v.1l-.2-4v.1v-6.1l.1-2.3v-2.3l.1-2.1l-.1-2v-.1l-.1-1.8v-.1l-.2-1.5l-.1-.2l-.4-1.2v-.1l-1-2.1l-.3-.7v-.1l-.1-.2c-.2-.4-.7-.6-1.1-.4c-.4 .2-.7 .6-.6 1.1l.1 .2c0 .3 .3 .4 .5 .4c.3 0 .5-.3 .5-.5c-.1-.3-.3-.5-.5-.5h-.4l-.3 .1l-.1 .1l.1-.1h-.2c-.3 .1-.5 .4-.5 .6c.1 .3 .3 .5 .6 .4Z" class="g0_52"/>
<path d="M883.2 702.2v.2c.1 .4 .3 .8 .8 1c.4 .1 .9 0 1.2-.4c.3-.3 .3-.8 .1-1.2l-.1-.1c-.3-.5-.9-.6-1.4-.4l-.5 .4l-1 1.2v.1l-2.5 4v.1l-1.5 3l-1.9 3.5l-2.1 3.8v-.1l-2.4 4.1l-2.5 4.1h.1l-2.7 4.2l-.1 .1l-2.1 4.3l.1-.1l-2.4 3.6l-2.1 3.3v.1l-1.4 2.4l.2-.2l-1.5 1.4l-.2 .2l-.5 .8l-.3 .5c-.4 .4-.3 1.1 0 1.5c.4 .5 1 .6 1.5 .4c.6-.2 .9-.8 .8-1.4v-.1l-.1-.3l-.1-.2l.1 .5v-.9v.1l.1-1.5v.1l.3-2.2v.1l.4-2.4l.3-2.6v.1l.5-2.5l.4-2.1l.3-2.2l.3-1.5l-.1 .2l.4-1.2l-.1 .1l.4-.6h-.1l.3-.5l-.2 .3l.4-.4l.1-.1l.3-.5l-.1 .1l.6-.6l-.1 .1l.7-.5l.9-.7l-.1 .1l1.1-.7l.1-.1l1.1-.8l-.2 .1l1.3-.6l.4-.3l1.1-1.1l-.7 .4l1.6-.4l-.3 .1l1.7-.1h-.2l1.6 .2l-.6-.3l2 1.5h-.1l1.6 1.3l-.2-.2l1.8 2.6v-.1l1.7 2.9l-.1-.1l2 3.8v-.1l1.9 4.1l1.9 4.2v.1l1.5 2.9h-.1L888 747l2.7 5.1l2.9 5.5l2.5 4.7l-.1-.1l1.5 3.3l-.1-.2l.6 1.9c.2 .7 1 1 1.6 .8c.7-.2 1.1-.9 .9-1.6l-.5-1.8v-.2l-1.5-3.3l-2.4-4.8l-2.9-5.6l-2.7-5h.1l-1.5-2.9l-1.4-2.9v.1l-1.9-4.3l-2-4.1l-2-3.8l-.1-.1l-1.7-2.8l-.1-.1l-1.8-2.6l-.2-.2l-1.6-1.4l-2.1-1.6c-.2-.1-.4-.2-.6-.2l-1.7-.2H870l-.3 .1l-1.6 .4c-.2 0-.4 .2-.6 .3l-1.1 1.1l.5-.3l-1.4 .6l-.2 .2l-1.1 .8l-1.1 .7l-.1 .1l-.9 .7l-.7 .6l-.1 .1l-.5 .7l-.2 .1l-.3 .5l.1-.1l-.4 .4l-.2 .3l-.2 .5v.1l-.3 .7l-.1 .1l-.3 1.2v.1l-.3 1.5l-.3 2.2l-.4 2l-.5 2.5v.1l-.3 2.6v-.1l-.4 2.4l-.3 2.2l-.1 1.5l-.1 .9v.2l.1 .2v-.3l-.1 .1c0 .6 .3 1.2 .8 1.4c.6 .2 1.2 .1 1.6-.4l.3-.5l.1-.1l.5-.8l-.2 .2l1.5-1.4l.2-.3l1.4-2.4l2-3.3l2.4-3.6l.1-.2l2.1-4.3l-.1 .1l2.7-4.2l2.4-4.1l2.5-4.1l2.1-3.9l1.9-3.5l1.5-3h-.1l2.4-4v.1l.8-1.2l.2-.3l-.1 .2l.1-.1c.3-.5 .1-1.2-.4-1.5c-.5-.3-1.1-.2-1.5 .3l-.1 .1c0 .1-.1 .3-.1 .4Z" class="g0_52"/>
<path d="M205.7 672.9l-.3 .9v.2l-.1 1.1v1.5v-.2l-.7 1.4l.1-.2l-1 1l-.1 .1l-.7 1l.5-.3h-1.1c-.1 0-.3 .1-.4 .2c-.1 .1-.1 .3-.1 .4v.3c.1 .2 .3 .4 .5 .5c.2 0 .4-.1 .5-.3c.1-.2 .1-.5-.1-.6v-.1l.1 .2l-.1-.2l.1 .2v-.4l-.1-.1l-.2-.5v.3l.2-.4l-.2 .2l.5-.3c.3-.2 .6-.6 .5-1.1v-.3l-.1-.2c-.1-.2-.2-.4-.4-.5v-.1l.3 1.5l.1-.1l-.4 .6v-.1c.3-.2 .4-.5 .5-.8c0-.4-.1-.8-.4-1.1v-.1l-.1-.1h-.1c-.4-.4-.9-.4-1.4-.2c-.5 .2-.8 .7-.8 1.2v.3v-.1v1.3v-.3l-.9 2.9l-.6 2l-.6 2.3l-.7 3v.1l-.4 3.3v-.1l-.6 3.8v.1l-.4 4.2l-.4 4.1l-.5 4.1l-.5 4.7V713l-.6 4.5l-.5 4.8l-.4 4.7l-.3 4.8l-.1 4.7l-.1 4.8L193 746v-.1l-.3 4.2l-.1 4.8l-.1 4.6l-.2 4.5l-.1 4.1v9.2l-.1 2.6v1.7v-.3l-.3 1.3v2.2l.1 .8v.3c.1 .4 .5 .7 .9 .7c.5 0 .8-.3 1-.7v-.3l.1-.8l-.1 .3l.2-.3l.1-.4l.1-1.4v.2l.3-1.3l.1-.3V780l.1-2.6v-5.6v.1l.1-3.7l.1-4.1l.2-4.5l.1-4.6l.1-4.8l.3-4.1v-4.8l.2-4.8l.1-4.6l.3-4.7l.4-4.7l.5-4.7H197l.6-4.4v-.1l.5-4.6l.5-4.1v-.1l.4-4l.4-4.3v.1l.6-3.8l.4-3.3v.1l.6-2.9l.6-2.2l.6-2l.9-2.9l.1-.2l.1-1.3v.3v-.3c.2-.6 0-1.3-.6-1.6c-.6-.3-1.3-.2-1.7 .3c-.4 .5-.4 1.2 0 1.7l.1 .1l.1 .1l.1 .1l-.5-.8c.1 .3 .2 .6 .5 .8v.1l-.4-.6v.1c.2 .4 .5 .7 .9 .8h.1l-.1-.1v.1h.3l-.6-.2h.1l-.1-.1l.4 .4l-.1-.5l-.2 .5v.3l.2 .5l-.1-.2v.4l.1 .2v.2l.2 .2c.2 .2 .4 .2 .6 .1c.2-.1 .3-.3 .3-.5l-.1-.3c0-.3-.2-.5-.5-.5c-.3 .1-.5 .3-.5 .6c0 .2 .2 .5 .5 .5h1.1l.4-.2l.7-1l-.1 .1l1.1-.9l.2-.2l.7-1.3l.1-.3l.1-1.5v-2.1c.1-.3-.1-.5-.4-.6c-.2 0-.5 .1-.5 .4Z" class="g0_52"/>
<path d="M357.3 680.1V680l.1-.3l-.1-.1c0-.3-.2-.6-.5-.8l-.6-.4v.1l-2.3-1.6l-.3-.1l-1-.4l.2 .1l-1.2-.6l-.3-.2l-.8-.1l-.2-.1H349c-.5 0-.9 .4-1.1 .9l-.1 .3l1.4-.8l-.5-.1H348l1.1 .3l-.3-.3c-.3-.2-.6-.3-1-.2h.3l-.2-.1c-.4 0-.7 .1-1 .4c-.2 .2-.4 .5-.4 .9l.1 .7v-.1l-.1 1.4l-.1 1.8v.1l.1 2.9l.1-.3l-.5 2.5l-.3 3.2l-.6 3.3l-.1 .1l-.5 4.5v.1l-.4 5l-.5 5.3l-.4 6.1l-.3 5.9l-.4 6.3v.1l-.1 6.9v-.1l-.1 6.7v6.7l-.1 6.5v23.1l.1 4.3v4.1l.1 3v-.2l-.3 2.3c-.1 .7 .4 1.3 1 1.4c.7 .1 1.3-.4 1.4-1l.4-2.3v-.2l.2-2.9v-.1l.1-4.1l-.1-4.4V732.6l.1-6.9l.2-6.3l.3-5.9l.4-6l.4-5.3l.4-5l.5-4.5l.6-3.3v-.1l.3-3.2v.1l.5-2.5v-.2l-.2-2.9v.1l.1-1.7l.1-1.5v-.8c0-.6-.5-1.1-1.1-1.2c-.6 0-1.1 .4-1.2 1c-.1 .6 .2 1.2 .8 1.3l.2 .1h.2l-.6-.3l.3 .3c.4 .3 .8 .4 1.3 .2h.1h-.6l.5 .1c.6 .1 1.2-.3 1.3-1l.1-.3l-.9 .9l.3-.1l-.2 .1h.8H350l.8 .1l-.3-.1l1.2 .7h.2l1 .4l-.2-.2l2.3 1.6l.1 .1l.7 .3l-.2-.2v.1c.3 .2 .6 .3 .9 .2h.1c.4-.1 .7-.4 .7-.7Z" class="g0_52"/>
<path d="M211.1 493.4l-1 .5l-.2 .1l-.5 .5l.3-.1l-.9 .1l-.4 .3l-.2 .4l-.2 .2v.1c-.1 .2-.2 .4-.1 .6l.2 .5l.2-.8l-.2 .2l-.1 .1l-.2 .3l-.2 .5l.8-.5h-.5c-.3 0-.6 .2-.7 .5l-.2 .4v-.1l-.2 .6l-.1 .3v5.5l.3 3.4v-.1l-.4 3.7v.1l.1 4.1l-.4 4.4l-.5 4.5v.1l-.5 5.1v-.1l-.8 5.1l-.6 5.4v-.1l-.8 5.4l-.8 5.7v.1l-.3 5.8l-.6 6.4v.1l-.4 6.4l-.5 6.6l-.5 6.8v13.9l.9 7.5l1 7.4v.1l1.6 6.8v.1l2.2 7.5v-.1l1.7 6.7l.1 .1l2 6.5c.1 .6 .7 .9 1.3 .7c.5-.1 .8-.7 .7-1.3l-2-6.5l-1.6-6.7l-2.2-7.6v.1l-1.6-6.8l.1 .1l-1-7.4l-.9-7.4v.1V582.5v.1l.5-6.7v-.1l.5-6.5l.4-6.5l.5-6.4l.3-5.9v.1l.7-5.7l.8-5.3v-.1l.6-5.3l.8-5.1l.3-5.2l.5-4.5v-.1l.3-4.4v-.1l-.2-4.2v.1l.3-3.7v-.1l-.3-3.4v.1v-5.5l-.1 .4l.3-.6l.1-.4l-.7 .5h.5c.3 0 .6-.3 .7-.6l.2-.5l-.1 .2l.1-.2l.1-.2c.1-.2 .1-.5 0-.7l-.2-.5v.6l.1-.1l-.1 .1l.1-.2l.2-.3l-.4 .3l.9-.2l.3-.2l.5-.6v.1l.9-.7c.2-.2 .3-.5 .1-.7c-.1-.3-.4-.4-.7-.2Z" class="g0_52"/>
<path d="M355.9 503.5l-.1 .1c-.2 .2-.2 .6 .1 .9c.2 .2 .6 .2 .8-.1c.3-.2 .3-.6 0-.9l-.4-.4v.1l-.3-.5v.1l-.3-.6l.1 .1l-.3-.9l-.2-.3l-.4-.3v-.1c-.3-.1-.5-.1-.8-.1l-.3 .1c-.5 .2-.8 .6-.8 1.1l.1 1.1v-.1v3.1l.1 2.7v.1l.4 3.1v.1l.7 3.4v-.1l.5 4l.5 4.4v-.2v5.2l.3 5.3v-.1v12.8l-.5 6.9l-.3 8.1l-.2 8.2v-.1L354 578v.1l.1 9.2l.3 8.3v.1l.9 8.6v.1l1.5 8.3l1.6 6.7v.1l1.8 6.8v.1l1.8 5.2h-.1l1.5 4.9c.3 .7 1 1.1 1.6 .9c.7-.2 1.1-.9 .9-1.6l-1.4-5l-1.6-5.3h.1l-1.8-6.7l-1.6-6.7l-1.5-8.2v.1l-.9-8.6v.1l-.3-8.3l-.2-9.2v.1l.5-8.2v-.1l.1-8.1l.3-8.1l.5-6.9v-6.6l-.1-6.3l-.3-5.4v.1l-.1-5.1v-.1l-.5-4.3l-.5-4.1v-.1l-.7-3.4v.1l-.5-3.1v.1l-.1-2.7v.1v-3.1v.1l.1-1.1c0-.6-.4-1.1-1-1.2c-.6-.1-1.2 .3-1.3 .9c-.2 .6 .1 1.2 .7 1.4l.3 .1c.3 0 .5-.1 .8-.2l.4-.3v-.1l-1.5 .4l.9 .4l-.3-.2l.3 .6l.2 .1l.4 .4l.1 .1l.6 .3c.2 .2 .5 .1 .7 0c.2-.2 .3-.4 .2-.6c-.1-.3-.2-.5-.5-.5h-.1c-.1-.1-.3 0-.4 .1Z" class="g0_52"/>
<path d="M226 598.6l.2 .7l.1 .1l.5 .8l.2 .2l1.4 .9l.1 .1l1.9 .7l.1 .1l2.3 .6l.1 .1l2.9 .5h.1l3 .2h.1l4-.1l4.5-.4l4.9-.6h-.1l5.2-.6l5.8-.4l5.6-.5l6.1-.7l6.1-.7H281l6.1-.4l6.1-.7h-.1l6.2-.2h-.1l6.7 .3h5.5h-.1l5.9 .2h-.1l5.7 .2h9.1l4 .1h-.1l2.8 .2h.1l2.6 .1H341l1.6 .4h-.1l1.2 .5h.2l.6 .1l-.7-.3l.3 .2c.4 .5 1.1 .5 1.6 .2c.5-.4 .6-1.1 .3-1.7c-.3-.5-1-.7-1.6-.4l-.3 .1l-.1 .1h.1l-.7 .4l.2-.1l-.9 .3h.1l-1.8 .5l.1-.1L339 600h.1l-3.4 .3h.1l-3.6 .1l-4 .1l-4.2 .1l-4.1 .1h.1l-4.4 .1l-4.8 .3h-.1l-5.1 .3h.1l-5.4 .1h-.1l-5.5 .3l-5.4 .6l-5.7 .5l-.1 .1l-5.5 1h.1l-5.9 .8h-.1l-5.5 1.1l-5.5 .9l-5.7 .9l-5.1 .8h.1l-5.1 .5l-4.8 .4h.1l-4.1 .1h-.1l-3.7 .4h.3l-3.9-.4l-3.4-.4h-.2l-2.7 .1l.3 .1l-2.8-.6h-.5l-1.5 .3l-.2 .1l-1 .4l.5-.1l-.6-.1c-.3 0-.6 .1-.9 .3l-.3 .3c-.4 .4-.5 1.1-.1 1.5c.4 .5 1.1 .6 1.6 .2l.3-.3l-.3 .2l.3-.1l.2-.1l1.2-.7l-.4 .1l2-.3h.1l3.1-.8v.1l3.9-.7l4.2-.7l4.9-.7l4.8-.8l5.5-.7H247l5.9-.6l6-.7l6.5-.4h-.1l5.8-.1l6.7-.1l6.2-.1l5.9 .1h6.2l5.6 .1H307l4.9 .1h.1l4.4-.1h.1l3.6-.4l3.1-.3h.1l2.5-.7l-.2 .1l2.8-.4h.1l1.5-.3h-.2l1.3-.2H331l.4 .1h.3l-.7-.1h.2c.5 .2 1 .1 1.4-.2c.4-.4 .5-.9 .3-1.4c-.1-.5-.6-.8-1.1-.9l-.8-.1h-3.9l-3.5 .3l-3.5 .2l-4.4 .2l-4.9 .2l-5.4 .2l-6 .2h-6.5l-6.1 .3h-.1l-6.6 .4l-6 .4l-5.9 .7l-6 .4h-.1l-5.6 .3l-5.7 .2l-4.9 .3l-4.4 .2h.1h-3.8l-3.1 .3h.1l-2.7-.1l-.1 .1l-2.3 .1h-.1l-2 .3l-1.8 .3h-.2l-1 .3l.1-.1l-.8 .2c-.7 .1-1.1 .7-1 1.4v.2c.1 .6 .5 1 1.1 1.1c.5 0 1-.3 1.2-.8c.1-.6-.1-1.1-.5-1.4l-.2-.1c-.4-.2-.9-.2-1.3 .1c-.3 .3-.5 .8-.3 1.2c.1 .4 .5 .8 1 .8h.8h-.3l1.9 .5l.2 .1l2.8 .1h-.1l3.5 .3l.1 .1l3.8 .1h.1l4.2-.2h4.9l5.2 .1l5.9 .2l5.4 .1l6.1 .1l6 .3l6.2 .2h-.1l6.5 .5h5.7l5.7 .1l4.9-.1l5 .1h-.1l4.6 .2l3.9 .2l-.1-.1l3.5 .3l.1 .1h2.3l-.3-.1l2.1 .6h.1l1.8 .3l-.2-.1l.6 .2h-.1l.8 .2c.4 .2 .8 .1 1.1-.1c.4-.3 .6-.7 .6-1.1l-.1-.1c0-.5-.3-1-.8-1.1l-.5-.2h-.2l-1-.1h.1l-1.9-.3h-.1l-2.8-.3h-.1l-3-.2l-4.4-.5h-.1l-4.5-.3h-.1l-5.4-.1l-5.8-.2h-.1l-5.9 .3h.1h-6.6l-6.6 .3l-7 .3h.1h-6.8l-6.6 .3h.1l-6.5-.3h-.1l-5.9 .2h.1l-5.3 .1h.1h-5l-3.9 .3h.2l-3.8-.2h.1l-3.6-.3h-.1l-2.8 .1h.2l-2.3-.2h.1l-1.5-.2c-.3-.1-.6 0-.9 .1l-.5 .3l.4-.1h-.3c-.5 .1-1 .4-1.2 .9c-.1 .6 0 1.1 .4 1.5c.4 .3 1 .4 1.5 .2l.4-.2l-.3 .1l.8-.1l.2-.1l1.8-.6l-.3 .1l3.1-.3H224l3.9-.3l4.3-.2l5-.3h-.1l4.9-.1h-.1l5.4-.1h5.6l6.4 .1l6.5 .1l6.7 .1l7.2 .2h.1l6.7-.1l6.5-.2h.1l6.5-.3l6.1-.4h.1l5-.4l5.6-.5h-.1l5.1-.3h.1l4.5-.3l4.4-.3h.1l3.5-.4l2.1-.3H336l1.7-.2h.6h-.1h.4c.6 0 1.2-.4 1.4-1c.1-.6-.1-1.2-.7-1.5v-.1l-.3-.1l-.4-.1l-.4-.1h-1.6h.1l-1.9-.2h-3.9l-4.1 .1h-.1l-4.6 .3H322l-5.2 .6h-.1l-5.1 1h.1l-5.6 .8H306l-5.5 1h.1l-5.9 .7l-5.8 .8h-.2l-5.2 1.2h-.1l-4.7 1.4l-4.6 1.3H274l-3.6 1.2h.1l-3.3 .9l.1-.1l-2.6 .4l-.5 .2l-1.7 .9l.2-.1l-.8 .3h.2l-.6 .1c-.5 .2-1 .6-1.1 1.1v.1c-.2 .7 .1 1.3 .7 1.7c.6 .3 1.3 .1 1.8-.4c.4-.5 .5-1.2 .1-1.8c-.5-.6-1.3-.8-2-.4c-.6 .4-.8 1.2-.5 1.9c.4 .7 1.2 .9 1.9 .6l.7-.3l-.5 .1l1.1-.1l2.2-.1l2.7-.3l3.1-.2l3.2-.3l.1-.1l3-.3h-.2h6l2.9-.1h-.2l3 .4h.3l2.4-.3h-.5l2.1 .6l1.9 .5l1 .3l-.4-.2l.9 .6l-.5-.6l.1 .2l-.1-.3l.1 .6l.1-.9l-.3 .7l.4-.5l-.7 .6l.4-.3l-1.3 .4h.5l-2.3-.3c-.6-.1-1.2 .3-1.3 .9l-4.5 26.1c-.1 .4 .2 .7 .6 .8c.4 .1 .7-.2 .8-.6l5.4-25.8l-1.3 .8l2.2 .4h.4l1.4-.1l.5-.2l.7-.5c.2-.1 .4-.3 .5-.5l.4-.6c.1-.3 .2-.6 .1-1l-.1-.6l-.1-.3l-.1-.2c-.1-.2-.3-.4-.5-.6l-.9-.5l-.4-.2l-1-.2l-1.8-.6l-2.1-.6H292l-2.4 .2h.2l-3-.3h-9.2l-3 .4l-3.2 .4l.1-.1l-3.1 .3l-2.8 .3h.1l-2.2 .1h.1h-1.1l-.5 .1l-.7 .3c-.3 .1-.5 .3-.7 .5c-.4 .7-.3 1.5 .3 2c.6 .5 1.5 .4 2-.2l.1-.1l-.9 .5l.6-.1l.2-.1l.9-.3l.2-.1l1.7-.9l-.6 .2l2.7-.4l.1-.1l3.4-.8l3.7-1.3l-.1 .1l4.6-1.3l4.7-1.4l5.2-1.2l-.1 .1l5.8-.8l5.9-.8h.1l5.4-1v.1l5.6-.8h.1l5.1-1h-.1l5.1-.6l4.6-.3l4.1-.1h-.1h3.8h-.1l1.9 .1h1.7H338h.4c.3 .1 .6 0 .9-.2c.6-.3 .8-1 .7-1.5c-.2-.6-.8-1-1.4-1h-.4l-.7 .1h-.1l-1.7 .1h-.1l-2 .4h.1l-3.5 .4h.1l-4.5 .2l-4.5 .4l-5.1 .2h-.1l-5.5 .6l-5.1 .4h.1l-6.1 .4l-6.6 .4h.1l-6.5 .1l-6.8 .1h.1l-7.2-.2h-.1l-6.6-.1h-6.6l-6.4-.1h-5.6l-5.4 .1l-4.8 .1l-5 .3l-4.3 .2h-.1l-3.8 .3h-.1l-3 .3h-.2l-1.9 .5h.3l-.8 .1h-.3l-.5 .2c-.6 .2-1 .8-.9 1.4c0 .6 .6 1.1 1.2 1.2h.3c.3 .1 .5 0 .7-.1l.6-.2l-.8 .1l1.5 .3h.2l2.2 .2h.2l2.8-.1h-.2l3.5 .3h.1l3.8 .2h.2l3.8-.3h-.1h4.9l5.2-.1l5.9-.2h-.1l6.5 .3h.1l6.7-.3h-.1h6.7l7-.3h.1l6.6-.3h-.1h6.6l5.9-.3h-.1l5.8 .2l5.4 .1h-.1l4.5 .3l4.4 .5h.1l3.1 .2h-.1l2.8 .3l1.9 .1l.2 .1l.9-.1h-.1l.5 .1l-.8-.3h.1c.4 .4 .9 .4 1.4 .2c.4-.2 .7-.7 .6-1.2c0-.5-.3-1-.8-1.1l-.7-.3h-.1l-.6-.1l-.2-.1l-1.7-.2h.1l-2.1-.6h-2.6h.1l-3.5-.3l-3.9-.2l-4.6-.2h-5l-4.9 .1l-5.7-.1h-5.6h.1l-6.5-.5l-6.2-.2l-6-.2l-6.1-.2h-5.5l-5.9-.1l-5.2-.1h-5l-4.2 .3h.1l-3.8-.2l-3.5-.4h-.1l-2.7-.1l.3 .1l-1.8-.6h-.2l-.8-.2c-.4 0-.9 .2-1.1 .5c-.2 .4-.2 .9 0 1.3l.1 .1c.2 .4 .7 .6 1.2 .5c.5-.1 .9-.4 .9-1l.1-.2l-1.1 1l.8-.1h.2l1-.3h-.1l1.8-.2l2.1-.3h-.1l2.3-.1h-.1h2.8l3.1-.3h-.1h3.7l4.4-.2l4.9-.3l5.7-.1l5.7-.3l6.1-.3h.1l5.9-.7l-.1 .1l6-.4l6.6-.4l6.1-.2h6.5l5.9-.2l5.5-.2l5-.3v.1l4.4-.2l3.5-.2l3.5-.3v.1l2.2-.1h.1l1.4-.1l.8-.1c.5 0 1-.4 1.1-.9c.2-.4 .1-1-.3-1.3c-.4-.4-.9-.5-1.4-.3l-.2 .1l-.4 .3h-.1l.9-.4l-.4 .1h-.1l-1.3 .1h-.2l-1.4 .4h.1l-2.8 .3h-.2l-2.4 .7h.2l-3.1 .3l-3.6 .4h.1l-4.4 .1h.1l-5-.1h-5.3l-5.6-.1H277.8l-6.7 .2h-5.8l-6.6 .5l-6.1 .7h.1l-5.9 .6l-5.5 .8l-4.9 .8h.1l-4.9 .7l-4.3 .7l-3.9 .7h-.1l-3.1 .8h.1l-2 .3l-.3 .1l-1.2 .6l.3-.1l-.4 .1l-.4 .1l-.3 .3c-.4 .2-.6 .6-.5 1c0 .4 .3 .8 .6 .9c.4 .2 .9 .1 1.2-.1l.3-.3l-.9 .3h1.2l1-.4h-.1l1.5-.3h-.5l2.8 .6h.3l2.7-.1h-.2l3.5 .4l3.9 .3h.2l3.7-.3h-.1l4.1-.2l4.8-.3v-.1l5.1-.5h.1l5-.9l5.7-.8l5.6-.9l5.6-1.1h-.1l5.8-.8h.1l5.6-1.1h-.2l5.7-.5l5.4-.6h-.1l5.5-.3h5.5l5.1-.3l4.8-.2l4.3-.2l4.1-.1h8.2l3.6-.1l3.4-.2l.1-.1l2.1-.3h.2l1.8-.5h.1l1-.4l.2-.1l.7-.5l.3-.3l.1-.1l.1-.2l.1-.1c.2-.5 .1-1-.3-1.4l-.3-.3c-.1-.1-.4-.3-.6-.3l-.6-.1l.3 .1l-1.2-.5h-.2l-1.6-.4l-.3-.1l-2.6-.1h.1l-2.8-.1h-.1l-3.9-.1h-.1l-4.5 .1h-4.6h.1l-5.7-.2l-5.8-.2h-5.5h.1l-6.7-.3h-.1l-6.2 .3h-.1l-6 .6l-6 .5h-.1l-6 .6l-6.1 .7l-5.6 .5l-5.8 .5h-.1l-5.1 .6l-4.8 .6l-4.4 .4l-4 .2h.1l-3-.2l.1 .1l-2.9-.5h.1l-2.3-.6h.1l-1.9-.7l.1 .1l-1.3-.9l.2 .2l-.6-.7h-.1l-.4-.5c-.3-.2-.6-.3-.9-.1c-.3 .2-.4 .5-.2 .8Z" class="g0_52"/>
<path d="M261.8 508.4l-2 1l.2-.1h-.4h.2h-.5l-.6 .1l-.4 .2l-.1 .2l-.4 .3l.5-.2h-.5l.3 .1l-.5-.2h-.8l.5 .1l-.4-.2h-.1l-.4-.2c-.3-.2-.5-.2-.8-.1c-.3 .1-.5 .3-.6 .6l-.1 .2c-.2 .5 .1 1.1 .6 1.3c.4 .2 1 0 1.2-.5c.3-.5 .1-1.1-.4-1.3l-.2-.1h.1l-.2-.1l.3 .4l-.2-.5v.1l-.2-.8v.2l-.1-1v.2l.1-1.2l.3-1.6v.1l.3-2.1v.1l.7-2l.7-2.2l.7-2.1l-.1 .2l1.2-1.9v-.1l1-2.4v.1l1.2-2.7l-.1 .1l1.7-2.7v-.1l1.4-3.1v.1l1.7-3.2l1.8-3.2v.1l2-3.6l2.4-4.1l2.4-4.1l2.8-4.8l2.6-4.6v.1l3.3-4.9l-.1 .1l4.1-5l4.2-5.1v.1l4.4-5.2l-.1 .1l5.4-4.7l.1-.1l5-5.4l5.6-5.4l5.8-6l5.9-6.2l-.1 .1l6.3-5.8l6.3-5.4l-.1 .1l6.6-4.9h.1l6-4.7h.1l5.8-4.8l5.8-4.9l5.8-4.6l5.8-4.4h.1l5.9-4.6h-.1l6.5-4.3l6.2-4.3l5.7-3.8l-.2 .1l6.1-2.9l5.4-2.7l5.1-2.5l4.7-2.6l.1-.1l3.7-2.8v-.1l2.7-2.1l.1-.1l2.1-1.8l1.3-1.1l-.5 .3l1.3-.4l.6-.3l.4-.4c.3-.3 .5-.7 .5-1.1v-.4c0-.7-.5-1.2-1.1-1.4c-.7-.1-1.3 .3-1.6 .9c-.2 .6 0 1.3 .6 1.7l.2 .1c.4 .3 1 .3 1.4 0c.5-.2 .8-.8 .7-1.3c0-.5-.4-1-.9-1.2l-.3-.1l-.2-.1l-.3-.1h-.9l.4 .1l-1.4-.3l-.5-.1l-1.4 .3l-2.7 .3h-.1l-2.7 .6l-3.7 .9l-3.7 .7l-.1 .1l-3.5 1.2c-.3 .1-.5 .5-.4 .8c.1 .4 .5 .6 .8 .5l3.6-1.2h-.1l3.7-.5l3.7-.6l2.8-.3h-.1l2.7-.1l1.4-.1l-.4-.1l1.4 .5l.3 .1h.5l-.3-.1l.3 .1h-.1l.4 .1c.7 .3 1.4 0 1.7-.7c.3-.7 0-1.4-.6-1.8l-.2-.1c-.4-.3-1-.3-1.4 0c-.4 .3-.7 .7-.7 1.2v.4l.5-1l-.5 .4l.5-.3l-1.3 .4l-.5 .3l-1.3 1.1h.1l-2.2 1.8l-2.7 2.2h.1l-3.7 2.8l.1-.1l-4.6 2.6h.1l-5.1 2.5l-5.4 2.7l-6 2.9l-.2 .1l-5.6 3.8l-6.3 4.3l-6.4 4.4H377l-5.9 4.6l-5.8 4.5h-.1l-5.7 4.7h-.1l-5.8 4.9l-5.8 4.8l-6 4.6l-6.6 4.9l-.1 .1l-6.3 5.4h-.1l-6.2 5.8l-6 6.3l-5.7 6l.1-.1l-5.6 5.5h-.1l-5 5.5l.1-.1l-5.3 4.7l-.1 .2l-4.5 5.1l-4.2 5.2l-4 4.9l-.1 .1l-3.2 4.9l-.1 .1l-2.6 4.6l-2.8 4.8l-2.3 4.1l-2.3 4.2l-2.1 3.5v.1l-1.7 3.1l-1.7 3.2v.1l-1.4 3.1v-.1l-1.6 2.7l-.1 .1l-1.2 2.6v.1l-.9 2.3v-.1l-1.1 1.9l-.1 .1l-.7 2.1v.1l-.7 2.2v-.1l-.7 2l-.1 .2l-.3 2.1l-.3 1.6l-.2 1.2v.2l.1 1v.2l.3 .8v.1l.2 .5l.3 .4l.2 .1l.2 .1l.2 .2c.3 .1 .6 .1 .9 0c.2-.1 .4-.4 .5-.7l.1-.2c.1-.5-.2-1.1-.7-1.2c-.5-.2-1 .1-1.2 .6c-.2 .5 .1 1 .6 1.2l.5 .2l.5 .2h.5l.5-.1h-.4l.6 .1h.3l.5-.1l.4-.3l.4-.4l-.2 .2l.4-.3l-.5 .2h.5l.5-.2l.3-.3v.1l1.9-1.2c.2-.2 .3-.5 .1-.7c-.1-.2-.4-.3-.6-.2Z" class="g0_52"/>
<path d="M385.3 351.8l-.1 .6v.4c-.1 .6 .4 1.1 1 1.1h.6l.5-.1l.4-.2l-.2 .1l.9-.2l-.3 .1h2l1.4-.3l1.4-.3h.2l1.3-.5h.1l1.1-.5h-.1l1.5-.5l.1-.1l1.5-.8h-.1l1.8-.6l.1-.1l1.5-.7l1.1-.7l-.1 .1l1.3-.5h.1l.9-.5h-.1l.8-.3l.7-.2l-.5 .1h.7l.4-.1l-.1 .1h.3l-.4-.1l.4 .1h-.1l.8 .3l-.4-.3l.6 .6l.5 .4l-.2-.2l.5 .7l.3 .3l.6 .4l-.6-.9l.2 .6l-.1-.2l.1 .7v-.1l-.1 1v-.3l-.5 1.6l-.7 2.2v.2l-.5 2.8l.1-.3l-1 2.9l-1.2 3.1l-1.2 3l-1.1 2.8v.1l-1 2.7h.1l-1 2.4l.2-.3l-.7 1.1c-.2 .2-.2 .6 0 .9c.1 .3 .5 .4 .8 .4l1.2-.1c.6-.1 1-.4 1.2-.9l1-2.5l1-2.7l1.1-2.8l1.2-3l1.2-3.2l1-2.9l.1-.3l.4-2.8l-.1 .2l.7-2.1l.5-1.6v-.4l.1-1v-.2l-.1-.8v-.2l-.1-.6c-.1-.3-.4-.6-.7-.8l-.6-.4l.4 .3l-.5-.7l-.2-.2l-.5-.3l-.6-.6l-.4-.2l-.8-.3v-.1l-.4-.1l-.5-.1h-.5l-.4 .1h.2h-1l-.7 .3l-.8 .3h-.1l-1 .5l-1.2 .5h-.1l-1.2 .7l.1-.1l-1.5 .8l.1-.1l-1.8 .7l-.2 .1l-1.4 .9l.1-.1l-1.4 .6h-.1l-1.1 .6h.1l-1.3 .5l.2-.1l-1.4 .3l-1.4 .4l.3-.1l-1.8 .1h-.2l-.9 .2l-.2 .1l-.5 .2l.5-.1H386l.7 .5l-.2-.6c-.1-.2-.4-.4-.7-.3c-.2 0-.5 .2-.5 .5Z" class="g0_52"/>
<path d="M1006.5 612.5h-.1c-.2 .3-.1 .7 .1 .9c.2 .3 .6 .4 .9 .2c.3-.2 .4-.6 .3-.9l-.1-.1v.6l-.1 .2l.1-.1v-.1l.1-.1V613l-.3 .4c.4-.3 .6-.7 .4-1.2c-.1-.4-.6-.6-1-.6h-.1l.7 .2l-.5-.2h-.3h.1l-.1-.1l.5 .6V612l.1 .2l-.1-.1v-.2l-.1-.1v-.1l-.3-.3l-.1-.1l-.2-.1h-.1l.6 .4l-.1-.1l.1 .1h-.1c-.1-.2-.2-.4-.4-.5h-.1h.1h-.1l-.1-.1h-.1v-.1h-.5c-.7 0-1.2 .5-1.2 1.1c0 .7 .5 1.2 1.1 1.2h1.7l3-1l-.1 .1l2.4-.5h-.1l2.8-.4h-.1l2.7-.2h-.2l3.5 .1l3.4 .1h-.1l3.7 .3l4.2 .2h-.1l4.2 .4l4.3 .2h-.1l4.4 .6h.1l4.8 .1l3.3 .1l3.3 .1h.1l6.1-.1h.1l7-.8h-.1l5.9-.3l.1-.1l4.9-.7l4.9-.4h-.1l4.3-.3l4.3-.3h-.1h7.5l2.9-.1h2.7l2.1-.2l1.9-.2h.2l1.6-.3l1.4-.3h-.1l1.6-.3l.1-.1l1.3-.4h-.1l1-.2l.2-.1l.8-.4c.2-.1 .4-.3 .6-.5l.2-.4l-.6 .6l.4-.3c.5-.2 .8-.6 .8-1.1V606v.3v-.2l-1.5 1h.3c.5 .1 1-.1 1.3-.6c.3-.4 .3-.9 .1-1.4c-.3-.5-.7-.8-1.2-.8h-.1l.3 .1l-.9-.3h-.1l-2.9-.7h-.1l-2.2-.5l-2-.4h-.2l-1.8-.2l.3 .1l-1.6-.5l-1.7-.4h-.2l-1.9-.3l-2.2-.3l-3.5-.5l-3.3-.5l-3.6-.3l-3.7-.3h-3.4l-3.7 .2h.1l-4.1 .1h-4.6l-4.2 .4l-4.5 .4l-4.6 .7l-4.7 1.1l.1-.1l-4.8 .7l-4.7 .7l-3.9 .7l-4.1 .7l-3.7 .6l-3.7 .2l-3.6 .2l-3 .1H1020l-3 .1h-5.6l-2.3-.4l-1.8-.5l-1.2-.3l-1.4-.5h.1l-.7-.3h-.1l-.7-.1h.1l-.4-.2c-.4-.1-.7 0-.9 .3c-.2 .3-.2 .7 0 .9v.1c.2 .2 .6 .3 .9 .3c.3-.1 .5-.4 .6-.7c.1-.3-.1-.6-.3-.8l-.1-.1l.2 .4V604l.1 .5v-.1c0-.3-.1-.5-.3-.7v-.1c-.3-.2-.6-.3-1-.2c-.3 .1-.6 .4-.6 .8c0 .3 .2 .7 .5 .9l.5 .2l.1 .1l2.8 1h.3l2.2 .2h.2l2.7-.2l3.2-.3l3.5-.1c.3 0 .7-.2 .8-.6c.2-.3 .2-.7 0-.9c-.2-.4-.5-.5-.9-.5l-3.5 .2h-.1l-3.2 .2l-2.7 .3h.1l-2.2-.1h.2l-2.8-1l.1 .1l-.4-.3c-.4-.2-1-.1-1.2 .3c-.3 .4-.2 .9 .1 1.2v.1l-.3-.6l.1 .1l.2 .5l.1 .1c.2 .2 .4 .3 .7 .3h.1c.4 0 .7-.3 .8-.7c.1-.3-.1-.7-.5-.9c-.3-.2-.7-.1-1 .2v.1c-.2 .2-.2 .5-.1 .7c.1 .3 .3 .5 .5 .5l.5 .1h.8h-.1l.7 .2l1.4 .3h.1l1.2 .2l1.9 .4l2.3 .3h5.7l3-.1l2.9 .1h3.1l3.5-.2l3.8-.3v-.1l3.7-.6l4.1-.7l4-.7h-.1l4.7-.6l4.8-.5l4.7-1l4.5-.6l4.6-.4l4.2-.3h-.1l4.5 .1h4.1l3.6-.1l3.3 .2l-.1-.1l3.8 .5l3.5 .4h-.1l3.2 .6h.1l3.5 .6h-.1l2.2 .5h.1l1.9 .3h-.2l1.7 .5l1.5 .5l.3 .1l1.8 .1h-.1l2 .4l2.2 .5h-.1l3 .8l-.1-.1l.9 .4l-.9-1.3v.1l1.3-1.5h-.3c-.6 .1-1.1 .6-1.2 1.2v.6l.7-1.3l-.4 .2c-.2 .2-.4 .4-.6 .6l-.2 .4l.6-.6l-.7 .4l.2-.1l-.9 .3h-.1l-1.3 .4h.2l-1.6 .3l-1.3 .3l-1.6 .3h.1l-2 .1l-2 .3h.1h-2.6l-3 .1h-7.5l-4.3 .3h.1l-4.3 .3h-.1l-4.9 .5h-.1l-4.9 .7h.1l-5.8 .4h-.1l-7 .7h.1l-6.1 .1h.1l-3.3-.1h-3.4h.1l-4.8-.2h.1l-4.4-.5h-.1l-4.2-.2l-4.1-.4h-.1l-4.1-.2l-3.7-.3h-3.4l-3.5-.2h-.1l-2.7 .3h-.1l-2.7 .4h-.1l-2.4 .5l-.2 .1l-2.9 .9h.4h-1.4c-.6 0-1.1 .5-1.1 1.2c0 .6 .5 1.1 1.2 1.1h.2l.3-.1h.1l.1-.1h.1h-.1h.1h-1c.3 .2 .6 .2 .9 .1h.1h-.7h.1h-.2h.1l.2 .1l-.4-.3l.1 .1l.3 .2h.1l.1 .1h.2l.4 .1l-.6-.4v.1v-.2v.1l.3 .4l-.3-.4v.1h.1l.1 .1v.2h.1l-.2-.2h.1l.4 .4h.1c.2 .1 .5 .1 .7-.1c.2-.2 .3-.5 .2-.8c-.1-.3-.4-.5-.7-.5c-.2 0-.4 .1-.5 .3Z" class="g0_52"/>
<path d="M1021 605.8l3.4-.1h-.1l3.5 .2h.1l3.6-.2l3.7-.1l3.5-.1l3.3-.1h-.1l3.3 .1h-.1l3.4 .3l4 .5l4.2 .4h-.1l4.2 .8l4 .6l3.5 .5l3.6 .5l2.9 .4h-.1l2.9 .6h-.1l2.4 .8h-.1l2 .8h.1l1.5 .4l.2 .1l1 .1h.3l.5-.1c.3 0 .6-.2 .8-.4l.2-.3l-.5 .4l.2-.1c.4-.2 .6-.5 .7-.9l.1-.3c0-.4-.1-.8-.5-1.1c-.3-.2-.7-.3-1.1-.1c-.4 .1-.7 .5-.8 .9v.1l.1-.2l-.1 .2c-.1 .4 0 .9 .3 1.2h.1c.3 .3 .7 .4 1.1 .3c.4-.1 .8-.5 .9-.9v-.5c0-.4-.3-.8-.7-1h-.1c-.5-.3-1.1-.1-1.5 .5l.5-.4h-.1l.1-.1l-.1 .1c-.4 .2-.6 .6-.5 1.1l.1-.7c-.2 .4-.2 .8 0 1.2v-.1l-.1-.6v.5l.4-1.2l-.1 .1c-.3 .3-.4 .9-.2 1.3c.2 .5 .7 .8 1.2 .7c.5-.1 .9-.5 1-1l.1-.2v-.4c-.1-.6-.6-1-1.2-1c-.5 0-1.1 .4-1.1 1l-.1 .2l.7-.9l-.2 .1c-.2 .1-.4 .3-.5 .4l-.2 .3l.7-.4h-.5h.3l-.9-.1l.1 .1l-1.5-.5l.1 .1l-2-.8l-2.4-.8h-.1l-2.9-.7h-.1l-2.9-.4l-3.6-.5l-3.5-.5l-4-.6h.1l-4.2-.7h-.1l-4.1-.5l-4-.4h-.1l-3.4-.3h-3.4l-3.3 .1h.1h-3.6l-3.7 .2l-3.6 .2h.1l-3.5-.2l-3.4 .1c-.6 0-1.1 .4-1 1c0 .5 .4 1 1 1Z" class="g0_52"/>
<path d="M1004.1 768.3l-1.3 2.9c-.2 .3-.1 .6 .1 .8c.2 .2 .5 .2 .7 .1l.1-.1l.3-.3v-.1h.1v-.3l-.7 .7h.3l.7-.2l2.4-.5h-.1l1.8-.2l1.9-.3l1.9-.2l2.1-.3h.1l1.8-.4l-.1 .1l2.2-.3l2.5-.3h-.1h2.7l3 .1h-.1l3.5 .5l3.9 .5l3.9 .5l4 .5l4.4 .5l4.6 .4l4.8 .3l4.6 .3l4.2 .2h4.3l4.1-.1l4.4-.1h.1l4.1-.3l3.8-.1l3.3-.2h.1l3.2-.3l3-.2h.1l2.8-.3h.1l2.3-.4l2-.3h.1l1.3-.3l-.1 .1l1-.2h.1l.5-.1l.5-.3l.1-.2c.2-.2 .2-.5 .1-.7c-.1-.2-.3-.4-.6-.4l-.2-.1H1103l-1.3 .2l-2 .3l-2.3 .3l-2.8 .3l-3.1 .2l-3.2 .3l-3.3 .2l-3.8 .1l-4.1 .3l-4.4 .1h-.1l-4.1 .1h.1h-4.2l-4.2-.2l-4.5-.2l-4.9-.3l-4.5-.4l-4.4-.4l-4-.5l-3.9-.5l-3.9-.5l-3.5-.4l-3-.2h-2.9l-2.5 .3l-2.2 .3h-.1l-1.8 .4h.1l-2.1 .2h-.1l-1.8 .3l-1.9 .3l-1.8 .3h-.1l-2.4 .6l-.7 .2h-.3c-.3 .2-.5 .6-.5 .9l.1 .1v.2l.1 .1l.3 .3v.1c.2 .1 .4 .1 .6 0c.2-.1 .3-.2 .3-.4l1-3c.1-.3 0-.5-.2-.6c-.2-.1-.5 0-.6 .2Z" class="g0_52"/>
<path d="M1016.6 762l-.1 .1l.5-.3l-.2 .1c-.4 .1-.7 .5-.7 .9c0 .4 .2 .8 .6 1l.2 .2h.1l1.3 .5h.1l2.6 .7h.1l2.2 .5h.1l2.6 .3h3.9l2.8-.5l2.9-.5l-.1 .1l5.8-.7h.1l7-1h.1l6.5-1.3h-.1l6.1-.7h.1l5.6-.9l5.6-1h-.2l5.7-.3l5-.1l5.2 .1h-.1l4.7 .5l4 .6l-.2-.1l3.7 .9l3.3 .9l-.2-.1l2.5 1.4l2.6 1.5l1.9 1.3V766l1.5 1.2l1 .8l.1 .1l1 .5l.3 .2l.2 .1l.2 .1l-.8-1.5l-.1 .2l1.3-.8l-.6-.1h.1h-.7l.4 .1l-1.2-.7c-.4-.3-1-.1-1.3 .3c-.3 .5-.2 1.1 .3 1.4l1.1 .7l.2 .1l.6 .3l.2 .1l.5 .1c.5 .1 1.1-.1 1.3-.6l.1-.2c.2-.4 .2-.7 .1-1c-.2-.4-.4-.6-.8-.7l-.1-.1l.2 .1l-.3-.1l-1-.6l.1 .1l-.9-.7l-1.6-1.2l-.1-.1l-2-1.2v-.1l-2.7-1.5l-2.5-1.4l-.3-.1l-3.3-.9h-.1l-3.6-.8h-.1l-4-.6l-4.7-.5h-.1l-5.3-.1l-5 .1h-.1l-5.7 .2l-.1 .1l-5.6 .9l-5.6 .8h.1l-6.1 .7h-.1l-6.6 1.2h.1L1041 762l-5.8 .6l-2.9 .5l-2.8 .5h.2h-3.6h.1l-2.6-.2h.1l-2.3-.4l.1 .1l-2.6-.7h.1l-1.3-.4l.2 .1l-.3-.2c-.5-.2-1.1 0-1.4 .5c-.2 .5-.1 1.1 .4 1.4c.4 .3 1.1 .2 1.4-.3l.1-.1c.3-.4 .3-.9 0-1.3l-.1-.1c-.2-.2-.4-.3-.7-.3c-.2 0-.5 .1-.7 .3Z" class="g0_52"/>
<path d="M1026 769.6l.1 .1l.3 .2l.4 .2l.4 .1h2.7l2.7-.1h-.1l3.2-.1l3.7 .1h4l4.5 .1h10.3l5.4-.1h.1l5.6-.5l5.6-.5l5.3-.5l5.3-.4h-.1l4.9-.2h-.1h4.3l3.5 .2h-.1l2.9 .4l-.3-.1l1.8 .6l-.2-.1l1.2 .7l-.3-.3l.5 .6l-.2-.5l.2 .8v-.8l-.2 .6l.1-.2l-.4 .6l.3-.3l-.7 .6l.1-.1l-.6 .5l.3-.2l-1 .3c-.6 .2-.9 .8-.7 1.4c.1 .6 .7 .9 1.3 .7l1.1-.3l.2-.1l.7-.3l.1-.1l.7-.6l.3-.3l.3-.6l.1-.2l.2-.6c.1-.3 .1-.5 0-.8l-.2-.7l-.3-.4l-.4-.5l-.4-.3l-1.2-.6l-.1-.1l-1.8-.6l-.2-.1l-2.9-.3h-.1l-3.5-.3h-4.4l-4.8 .2h-.1l-5.3 .5l-5.4 .5h.1l-5.6 .5l-5.6 .5h.1l-5.4 .1h-10.3l-4.5-.1h-7.7l-3.2 .1l-2.7 .2h.1h-3.1l-.4 .1l-.2 .1c-.3 .1-.4 .3-.5 .6c0 .3 .1 .5 .3 .7Z" class="g0_52"/>
<path d="M285.4 761.4l.1-.1l.2-.4v-.6l-.4 .6l.3-.1l-.9-.3l.4 .6l.3 .2l1.2 .5l.1 .1l1.3 .4h-.1l1.6 .5l1.6 .5h-.2l1.8 .9h-.1l2 1.1l.2 .2l1.8 .4l2.5 .7h.1l2.7 .3l3.2 .2l4.2 .5l4.2 .3l4.5 .4l4.9 .3h-.1l4.6 .7l4.9 .7h-.1l4.5 .9l4.1 .9l4.7 .8h.1l4 .6l3.9 .5l3.6 .4l2.6 .5l3 .4l2.8 .4l2.8 .5h.1l2.6 .3l-.1-.1l2.5 .6h2.5h-.1l1.9 .2h2.7h-.3l.9 .2l.3 .1h.7l.5-.2h.2c.3-.2 .5-.5 .6-.9c.1-.3-.1-.7-.3-.9l-.7-.7c-.3-.3-.8-.4-1.2-.1c-.3 .2-.5 .7-.3 1.1l.3 .9c.2 .5 .7 .7 1.2 .7c.5-.1 .9-.4 1-.9c.1-.5-.2-1-.6-1.2l-.2-.1l-.4-.2h-.6h.2l-.9-.3h-1.5h.1l-1.5-.1l-2-.1h-2.3h.3l-2.5-.6h-.1l-2.7-.3l.1 .1l-2.8-.5l-2.8-.4l-3-.4l-2.6-.4h-.1l-3.6-.5l-3.9-.4l-4-.5l-4.7-.8h.1l-4.1-.8l-4.6-.9l-4.9-.6l-4.6-.8H323l-4.9-.2h.1l-4.5-.4h-.1l-4.2-.2h.1l-4.2-.4l-3.2-.2l-2.7-.2h.2l-2.6-.6v-.1l-1.8-.3l.2 .1l-1.9-1.2h-.1l-1.7-.9h-.2l-1.6-.5h.1l-1.6-.5l-1.3-.4h.1l-1.2-.5l.3 .3l-.4-.5c-.2-.3-.6-.4-.9-.2l-.4 .2c-.2 .1-.4 .4-.3 .7l.1 .6l.2 .3l.1 .1c.1 .1 .2 .1 .3 .1c.2 0 .3 0 .4-.1Z" class="g0_52"/>
<path d="M275.5 761.5l-.3 .2c-.3 .3-.4 .7-.4 1.1c.1 .3 .4 .7 .8 .8c.3 .1 .7 .1 1-.2h.1l-.9 .2l.2 .1c.4 0 .8-.2 1-.5c.2-.4 .3-.8 .1-1.2c-.2-.5-.8-.8-1.4-.7c-.5 .2-.9 .7-.8 1.3c.1 .5 .5 1 1.1 1h4l2.7-.1h3.6l3.9-.5h-.1l4.1-.1h.1l4.1-.4l.1-.1l4.4-.7h-.2h8.6h-.1l4.6 .4h-.2l4.6 .9h.1l5 .6h-.1l5 .9l4.9 .9H335l5 1l5.1 .8v.1l4.9 .6l4.9 .5h.1l4.6 .2l4.2 .2h8l3.5 .1l3.4 .1h-.2l2.7 .4h-.1l2.2 .5l-.1-.1l1.7 .6l1.6 .5l-.3-.1l1 .7h.1l1 .5l.4 .3l-.3-.2l.3 .2c.4 .4 1.1 .5 1.5 .1c.5-.3 .7-.9 .5-1.5l-.1-.3c-.1-.2-.2-.4-.4-.5l-.4-.3l-.2-.2l-.9-.5h.1l-1-.7l-.4-.1l-1.6-.6l-1.7-.6h-.2l-2.2-.5h-.1l-2.6-.4l-.2-.1l-3.4-.1l-3.6-.1l-4 .1h-3.9l-4.2-.2l-4.6-.2h.1l-4.9-.4l-4.9-.6h.1l-5-.8l-5-.9l-4.9-.8h.1l-5.1-.9h-.1l-4.9-.6l.1 .1l-4.6-1H316l-4.6-.3l-.1-.1l-4.5 .1l-4.1-.1h-.2l-4.5 .8h.1l-4.1 .5h.2l-4.2 .1h-.1l-3.9 .5h.1l-3.4 .1h-2.8l-3.2 .1h.1l-.7-.1c-.4 0-.9 .2-1.1 .7l1-.7h-.2c-.4 .1-.8 .4-1 .8c-.1 .5 0 .9 .3 1.3h.1c.3 .3 .7 .3 1.1 .2c.4-.1 .6-.5 .7-.8c0-.4-.1-.8-.4-1.1l-.3-.2c-.2-.2-.6-.2-.8 0Z" class="g0_52"/>
<path d="M279.7 750.3l-.5 2.9c0 .3 .1 .5 .2 .7l.8 .6l.1 .1l1.7 .9h.1l2.3 .8l2.9 .9h.1l3.6 1h.1l3.6 .4h-.1l3.7 1.1h.1l4.2 .8l4.4 .9l5.1 1.2h.1l4.9 .8v-.1l5.1 1.1l5 .9l5 1l4.8 1l4.2 .7l4.4 .7h-.1l3.5 .8h.1l3.6 .6h.1l2.9 .3l2.4 .4h.1l2.1 .1l1.3 .1h-.1l.9 .2h.2l.7 .1l-.4-.1l.3 .1l.4 .1h.1c.2 0 .4-.1 .6-.2h.1c.6-.2 1-.9 .8-1.6c-.1-.6-.7-1.1-1.3-1.1h-.6h.2h-.2l.7 .1l-1.2-.4h.1l-5.9-2.9c-.5-.2-1.1-.2-1.5 .1c-.4 .3-.7 .8-.7 1.4c.1 .5 .4 1 .9 1.2l5.9 2.9l.5 .1l1.2 .2l-.5-.2l.1 .1l.4 .2h.6c.7 0 1.3-.5 1.3-1.2c.1-.8-.3-1.4-1-1.6c-.7-.2-1.4 .2-1.7 .8v.1l1.2-.9h-.1l.5 .1l-.3-.1l-.3-.1h-.7h.1l-.9-.1l-.2-.1h-1.3l-2.1-.2h.1l-2.4-.3l-3-.4h.1l-3.7-.5h.1l-3.5-.8H346l-4.4-.6h.1l-4.2-.8l-4.8-.9l-5.1-.9l-4.9-.9l-5.2-1l-5-.6h.1l-5.1-1.1l-4.5-.8l-4.3-.7h.1l-3.7-1h-.2l-3.6-.3h.2l-3.7-.9h.1l-2.9-.9l-2.3-.7h.1l-1.7-.8l-.9-.4l.4 .7l.2-3c0-.3-.2-.5-.5-.6c-.3 0-.5 .2-.6 .5Z" class="g0_52"/>
</svg>