<svg viewBox="0 0 909 1286" version="1.1" xmlns="http://www.w3.org/2000/svg">
<defs>
<style>
.g0_3{fill:none;stroke:#000;stroke-width:1.527;stroke-linecap:round;stroke-miterlimit:10;}
.g1_3{fill:none;stroke:#000;stroke-width:1.527;stroke-linejoin:round;}
.g2_3{fill:#000;}
</style>
</defs>
<path d="M41.2 1233.6H864V34H41.2V1233.6Z" class="g0_3"/>
<path d="M40.2 66.7H863" class="g1_3"/>
<path fill-rule="evenodd" d="M753.7 102.9h97.7v-2.2H753.7v2.2Z" class="g2_3"/>
<path fill-rule="evenodd" d="M50.8 191.2H53v-2.3H50.8v2.3Z" class="g2_3"/>
<path fill-rule="evenodd" d="M50.8 191.1H53v-2.2H50.8v2.2Z" class="g2_3"/>
<path fill-rule="evenodd" d="M53 191.1H411.3v-2.2H53v2.2Z" class="g2_3"/>
<path fill-rule="evenodd" d="M411.3 191.2h2.2v-.1h-2.2v.1Z" class="g2_3"/>
<path fill-rule="evenodd" d="M411.3 191.1h2.2v-2.2h-2.2v2.2Z" class="g2_3"/>
<path fill-rule="evenodd" d="M413.5 191.1H793.4v-2.2H413.5v2.2Z" class="g2_3"/>
<path fill-rule="evenodd" d="M793.4 191.2h2.2v-2.3h-2.2v2.3Z" class="g2_3"/>
<path fill-rule="evenodd" d="M793.4 191.1h2.2v-2.2h-2.2v2.2Z" class="g2_3"/>
<path fill-rule="evenodd" d="M50.8 232.3H53V191.2H50.8v41.1Z" class="g2_3"/>
<path fill-rule="evenodd" d="M411.3 232.3h2.2V191.2h-2.2v41.1Z" class="g2_3"/>
<path fill-rule="evenodd" d="M793.4 232.3h2.2V191.2h-2.2v41.1Z" class="g2_3"/>
<path fill-rule="evenodd" d="M50.8 234.7H53v-2.4H50.8v2.4Z" class="g2_3"/>
<path fill-rule="evenodd" d="M53 234.5H411.3v-2.2H53v2.2Z" class="g2_3"/>
<path fill-rule="evenodd" d="M411.3 234.7h2.2v-2.4h-2.2v2.4Z" class="g2_3"/>
<path fill-rule="evenodd" d="M413.5 234.5H793.4v-2.2H413.5v2.2Z" class="g2_3"/>
<path fill-rule="evenodd" d="M793.4 234.7h2.2v-2.4h-2.2v2.4Z" class="g2_3"/>
<path fill-rule="evenodd" d="M50.8 505.7H53v-271H50.8v271Z" class="g2_3"/>
<path fill-rule="evenodd" d="M50.8 507.9H53v-2.2H50.8v2.2Z" class="g2_3"/>
<path fill-rule="evenodd" d="M50.8 507.9H53v-2.2H50.8v2.2Z" class="g2_3"/>
<path fill-rule="evenodd" d="M53 507.9H411.3v-2.2H53v2.2Z" class="g2_3"/>
<path fill-rule="evenodd" d="M411.3 505.7h2.2v-271h-2.2v271Z" class="g2_3"/>
<path fill-rule="evenodd" d="M411.3 507.9h2.2v-2.2h-2.2v2.2Z" class="g2_3"/>
<path fill-rule="evenodd" d="M413.5 507.9H793.4v-2.2H413.5v2.2Z" class="g2_3"/>
<path fill-rule="evenodd" d="M793.4 505.7h2.2v-271h-2.2v271Z" class="g2_3"/>
<path fill-rule="evenodd" d="M793.4 507.9h2.2v-2.2h-2.2v2.2Z" class="g2_3"/>
<path fill-rule="evenodd" d="M793.4 507.9h2.2v-2.2h-2.2v2.2Z" class="g2_3"/>
<path fill-rule="evenodd" d="M76.3 545.7H368.4v-2.2H76.3v2.2Z" class="g2_3"/>
<path fill-rule="evenodd" d="M735 587.1h61.7v-2.2H735v2.2Z" class="g2_3"/>
<path fill-rule="evenodd" d="M732.6 834.7h62.3v-2.2H732.6v2.2Z" class="g2_3"/>
</svg>