<svg viewBox="0 0 1466 825" version="1.1" xmlns="http://www.w3.org/2000/svg">
<defs>
<clipPath id="c0_51"><path d="M-.2 825.3V-.2H1467V825.3Z"/></clipPath>
<clipPath id="c1_51"><path d="M1343.9 529.1V456.4H1452v72.7Z"/></clipPath>
<clipPath id="c2_51"><path d="M1346.3 621.3V549.7h102.9v71.6Z"/></clipPath>
<clipPath id="c3_51"><path d="M1346.4 716.6V641.9h103v74.7Z"/></clipPath>
<clipPath id="c4_51"><path d="M1353 825V744.6h96.2V825Z"/></clipPath>
<style>
.g0_51{fill:#F00;}
.g1_51{fill:none;stroke:#000;stroke-width:1.466;stroke-linejoin:round;}
</style>
</defs>
<image clip-path="url(#c0_51)" preserveAspectRatio="none" x="0" y="-7" width="1467" height="840" href="img/1.jpg"/>
<path fill-rule="evenodd" d="M1100.5 357.6l5.6 2.9l-2.7 4.9l-5.5-2.8l-2.6 4.7l-5.6-2.9l2.8-5l5.3 2.8ZM535.7 345.9l8.4 4.5l-4.3 8l-8.4-4.4Zm715.6-.7l6.6 3.7l-3.7 6.9l-5.3-2.6l-3 5.8l-6.5-3.7l3.9-7.3l5.1 2.9Zm-205.5 0l6.6 3.7l-3.7 6.9l-5.3-2.6l-3 5.8l-6.5-3.7l3.9-7.3l5.1 2.9Zm-585.8 0l6.7 3.7l-3.8 6.9l-5.3-2.6l-3 5.8l-6.5-3.7l4-7.3l5 2.9ZM1346.5 333c-1 1.2-1.8 2-2.4 2.5c-.5 .5-1.5 1.2-2.9 2.2c1.8-.2 3.1-.4 3.9-.6c.7-.2 1.8-.7 3.1-1.4Zm97.8-6.1c-.9 0-1.7 1-2.4 3.2c1.3 .4 2.2 .8 2.8 1c2 .8 3.1 1.1 3.3 1.1c.5 0 .8-.2 .8-.5c0-.5-.5-1.4-1.6-2.7c-1.1-1.4-2.1-2.1-2.9-2.1Zm-448.8 0c-.9 0-1.7 1-2.4 3.2c1.3 .4 2.2 .8 2.8 1c2 .8 3.1 1.1 3.3 1.1c.5 0 .8-.2 .8-.5c0-.5-.5-1.4-1.6-2.7c-1.1-1.4-2.1-2.1-2.9-2.1Zm-248.3-1.2c-1.6 0-3.4 .5-5.3 1.6c-2 1-4.9 2.8-8.6 5.5h9.4c7.8 0 11.8-1.2 11.8-3.6c0-1.1-.9-2-2.6-2.6c-1.4-.6-3-.9-4.7-.9Zm-123.8-3.2c-.4 0-.8 .2-1.2 .6c-.3 .3-.5 .8-.5 1.3c0 .8 .5 1.4 1.6 2.1c1 .6 2.5 1.2 4.4 1.8c-.9-2.4-1.6-3.9-2.1-4.6c-.6-.8-1.3-1.2-2.2-1.2Zm487.6-3.3c1.4 0 2.5 .5 3.3 1.6c.9 1.1 1.3 2.5 1.3 4.3c0 1.3-.2 2.4-.4 3.3c-.3 .9-.9 2-1.7 3.4c-.7-1.7-1.2-2.8-1.6-3.3c-.5-.5-1.1-.8-2-.8c-1.3 0-3 .7-5.3 2.2c-2.2 1.5-3.4 2.7-3.4 3.7c0 .5 .5 .9 1.4 1.1c.6 .2 1.6 .2 3 .2c.4 0 .7 0 1.1 0c.3 0 .7 0 1 0c2.6 0 4.4 .3 5.2 .8c.8 .4 1.1 1.3 1.1 2.6c0 2.6-.4 5.1-1.4 7.5c-1.2 2.9-2.9 5.1-5.2 6.3c-2.8 1.6-5.8 2.9-8.9 3.9c-3 1-5.9 1.5-8.5 1.5c-7.5 0-11.2-3.4-11.2-10c0-3.4 .4-6.3 1.3-8.7c.9-2.8 2.9-6.4 5.9-11.1l1.6 1.1c-1.7 3-3.1 5.6-3.9 8c-.9 2.3-1.4 4.3-1.4 6c0 4.6 2.6 6.8 7.7 6.8c1.9 0 3.7-.2 5.4-.5c1.7-.3 3.5-.8 5.2-1.5c1.2-.4 2.5-.9 4-1.5c2.3-1.1 3.6-1.6 3.7-1.7c1.1-.6 1.6-1.1 1.6-1.6c0-.2-.5-.3-1.7-.4c-1.2-.1-2-.1-2.5-.1c-3.6 0-6.1-.5-7.3-1.6c-1-.8-1.5-2.4-1.5-4.7c0-1.1 .3-2.5 1-4.2c.7-1.6 1.7-3.3 2.8-4.9c1.7-2.6 3.5-4.5 5.2-5.7c1.8-1.3 3.5-2 5.1-2Zm-734.6-2l2 1.3c-.5 .9-1 1.8-1.3 2.6c-.4 .8-.7 1.4-.8 2c-.4 1.1-.6 2.2-.6 3.2c0 1.4 .5 2.6 1.3 3.7c.9 1.1 2.1 1.8 3.4 2.1c.9 .3 2 .4 3.3 .5c1.3 .2 2.8 .2 4.3 .2h25.9c-.7-1.9-1.3-3.2-1.7-3.8c-.5-1-1.3-2.1-2.4-3.5l3.2-8.3c1.8 2.5 3 4.9 3.5 7c.5 1.9 .7 4.7 .7 8.2v10.2h-30c-1.5 0-2.7 0-3.6-.1c-1 0-1.7 0-2.2-.1c-.9-.1-1.9-.3-3-.7c-2-.7-3.6-2.1-4.9-4.1c-1.2-2.1-1.9-4.4-1.9-6.9c0-1 .1-2 .2-3.1c.2-1 .4-2.1 .8-3.3c.5-1.5 1.1-2.7 1.8-3.9c.6-1.1 1.3-2.2 2-3.2Zm942-.2c1.8 2 3 4.1 3.7 6.3c.6 2.3 .9 5.6 .9 9.9v9.4h-32.7v.8c0 1.5-.8 3.4-2.5 5.8c-1.7 2.4-3.6 4.5-5.9 6.2c-2.4 2-4.6 3-6.3 3c-2.2 0-4.4-.6-6.8-1.8c-2.1-1.1-5.4-3.1-9.9-6.2l1.5-2.2c2.2 1.4 3.9 2.4 5.2 2.9c1.4 .5 2.8 .7 4.3 .7c1.6 0 3.3-.4 4.9-1.4c1.7-.9 3.9-2.6 6.8-5.2c3.9-3.5 5.9-6.2 5.9-8.1c0-1-.4-2.2-1.1-3.8c-.9-1.7-1.9-3.2-3.2-4.4l2-9.6c1.6 1.6 2.9 3.6 3.8 5.7c.9 2.2 1.3 4.7 1.3 7.4v.4h29.2c-.3-1.6-.8-3-1.5-4.1c-.3-.6-1.2-1.7-2.5-3.2Zm-64.6 0c1.9 2 3.1 4.1 3.7 6.3c.7 2.3 1 5.6 1 9.9v9.4h-22.4v-.1H1234c-4.4 0-8.3 .4-11.6 1.1c-3.4 .8-5.1 1.6-5.1 2.6c1 2.9 1.8 5.5 2.5 8c.7 2.6 1.1 4.9 1.1 7.2c0 1.6-.2 2.9-.5 3.9c-.3 1-.9 2.1-1.8 3.3c-.3-3.2-.8-6.5-1.7-9.9c-.4-1.2-1.1-3.8-2.4-7.7c-.7-2.4-1.1-4-1.1-4.8c0-1.1 .3-2.5 .9-4.2c.5-1.4 1.1-2.6 1.7-3.6c.8-1.2 2.1-2.2 4-2.9c1.9-.6 4.8-1.2 8.7-1.6c-1.9-2.7-3.6-4.1-5-4.1c-.6 0-1.2 .3-1.8 .8c-.5 .5-1.4 1.5-2.6 3.1l-1.8-.8c1.1-3.7 2.4-6.5 3.9-8.5c1.6-1.9 3.3-2.9 5.1-2.9c1.6 0 3.4 .9 5.3 2.7c2 1.9 4.2 4.7 6.8 8.6h16.3c-.2-1.6-.7-3-1.4-4.1c-.4-.6-1.2-1.7-2.5-3.2Zm-720.3-.7c1.6 0 3.1 .4 4.6 1.2c1.4 .7 3.1 2 4.9 3.7c1.4 1.3 3.4 3.4 6.1 6.2c1.8 2 3.1 3.3 4.1 3.9c.9 .6 2.3 1.1 4.2 1.5v9.8H519v.8c0 1.5-.8 3.4-2.5 5.8c-1.7 2.4-3.6 4.5-5.9 6.2c-2.4 2-4.6 3-6.3 3c-2.1 0-4.4-.6-6.8-1.8c-2.1-1.1-5.4-3.1-9.8-6.2l1.5-2.2c2.1 1.4 3.8 2.4 5.2 2.9c1.3 .5 2.7 .7 4.2 .7c1.7 0 3.3-.4 5-1.4c1.6-.9 3.9-2.6 6.7-5.2c4-3.5 5.9-6.2 5.9-8.1c0-1-.3-2.2-1.1-3.8c-.9-1.7-1.9-3.2-3.2-4.4l2-9.6c1.7 1.6 2.9 3.6 3.8 5.7c.9 2.2 1.3 4.7 1.3 7.4v.4h23c-2.9-3-5.6-5.1-8.1-6.4c-2.1-1.2-4.3-1.8-6.3-1.8c-.6 0-1.2 .1-1.7 .1c-.5 .1-1.3 .2-2.3 .4c1.3-3 2.8-5.2 4.4-6.6c1.6-1.5 3.5-2.2 5.5-2.2ZM650 311.2c2.6 0 5.2 .8 7.6 2.6c2.2 1.6 3.8 3.6 4.9 5.9l-1.6 1.3c-1.8-.7-3.3-1.2-4.4-1.4c-1.2-.2-2.5-.3-4.1-.3c-3 0-5.6 .2-7.7 .7c-2.8 .6-4.2 1.4-4.2 2.5c0 1.7 3.4 4.4 10 8.2l18.2-5.2l-4 10.2c-6.4 1.9-11.8 3.5-16 4.5c-3.6 1-6.7 1.6-9.2 2c-1.8 .2-3.7 .4-5.5 .4h-5.5c-4.2 0-9 .1-14.3 .2c-3.2 .2-7.3 .4-12.4 .6c-5.1 .2-7.9 .4-8.3 .4c-5 0-8.7-1-11-2.7c-2.1-1.7-3.1-4.3-3.1-7.8c0-2.7 .2-5.1 .8-7.1c.5-2.1 1.7-5.4 3.6-9.9l2.4 1.1c-1.7 4.1-2.6 7.1-2.6 8.9c0 2.5 1 4.3 2.9 5.3c2.1 1.2 5.9 1.8 11.1 1.8c3.7-.2 7.2-.4 10.7-.5c3.5-.2 6.8-.3 9.9-.3c-.9-.4-1.6-1-2-1.5c-.3-.6-.5-1.5-.5-2.6c0-3.4 1-6.8 3.1-10.2c2.2-3.7 4.7-5.5 7.4-5.5c2.5 0 4.4 1.8 5.5 5.3c1 3.2 1.6 8.1 1.6 14.7h1.3c.7 0 1.2 0 1.5 0c.8-.1 1.5-.2 2.1-.2c-1.1-1.8-1.9-3.3-2.4-4.4c-.4-1.1-.6-2.3-.6-3.7c0-3.6 1.5-6.7 4.5-9.3c2.9-2.7 6.4-4 10.3-4Zm-252.1-6.3l6.7 3.7l-3.7 6.9l-5.3-2.6l-3.1 5.8L386 315l4-7.3l5.1 2.9Zm85.3-.3c.5 0 .8 .1 1.1 .4c.3 .3 .4 .7 .4 1.2c0 .4 0 .7-.1 1c-.2 .2-.4 .7-.7 1.2c-1.2-.6-2-.9-2.4-.9c-.5 0-.9 .1-1.3 .3c-.3 .2-.6 .4-.8 .6c0 .3 .6 .8 1.7 1.4c1.1 .7 2 1 2.5 1c.3 0 1.1-.2 2.6-.5c-.3 .7-.5 1.3-.9 1.7c-.3 .2-.7 .4-1.2 .6l-7.8 2.4c.5-.9 .9-1.5 1.3-1.8c.3-.3 1-.7 1.9-1c-.7-.4-1.2-.8-1.5-1.2c-.3-.4-.4-.7-.4-1.1c0-.3 .1-.6 .2-1c.2-.4 .5-.8 .8-1.2c1.6-2.1 3.1-3.1 4.6-3.1Zm796.9-2.4l8.4 4.5l-4.3 8l-8.4-4.4Zm-771.2 0l8.3 4.5l-4.3 8l-8.4-4.4Zm263.3-1.6l6.7 3.7l-3.7 6.9l-5.3-2.6l-3 5.8l-6.6-3.7l4-7.3l5.1 2.9Zm-38.9-.9l8.3 4.4l-4.2 8l-8.4-4.3Zm581.6-.6l8.4 4.5l-4.3 8l-8.4-4.4Zm85.1 0c1.4 1.9 2.3 3.8 2.9 5.6c.6 2.2 .9 5 .9 8.4v7c0 5 .4 8.5 1 10.4c.6 1.5 1.4 2.3 2.5 2.3h22.3c2.2 0 3.9-.2 5.2-.8c1.6-.6 2.7-1.8 3.3-3.4c1.4-3.1 3.1-5.6 5.3-7.5c1.8-1.8 3.4-2.6 4.8-2.6c1.2 0 2.7 1.8 4.5 5.5c1.8 3.9 2.8 7.5 2.8 10.7v7.8c-2.5 0-5.5-.5-8.9-1.4c-2.9-.9-5.6-1.9-7.8-3.1c-1.4 2.1-3.1 3.5-5.1 4.1c-.8 .2-1.7 .4-2.9 .4h-.1v.1h-23.4c-2.8 0-4.8-1.2-6-3.5c-1.4-2.5-2.1-6.8-2.1-12.8V316.1c0-2.3-.3-4.1-.9-5.4c-.4-.6-1.1-1.5-2.2-2.7Zm-32 0l2.1 12.7c.8 4.8 1.3 9 1.7 12.5c.2 2.7 .3 5.3 .3 7.8c0 2.2-.2 4.1-.7 5.9c-.5 1.7-1.5 4.1-2.9 7l-2.2-.8c.6-3.1 .9-5.6 .9-7.5c0-1.4-.1-3.6-.4-6.4c-.2-2.8-.5-5.6-.9-8.3c-.3-2.8-.9-6.1-1.7-9.9c-.3-1.4-.5-2.3-.5-2.8c0-.7 .4-2 1.1-3.7c.8-1.8 1.8-4 3.2-6.5Zm-183 0l2.1 12.7c.8 4.8 1.4 9 1.7 12.5c.2 2.7 .3 5.3 .3 7.8c0 2.2-.2 4.1-.7 5.9c-.5 1.7-1.5 4.1-2.9 7l-2.1-.8c.5-3.1 .8-5.6 .8-7.5c0-1.4-.1-3.6-.4-6.4c-.2-2.8-.5-5.6-.8-8.3c-.4-2.8-1-6.1-1.8-9.9c-.3-1.4-.4-2.3-.4-2.8c0-.7 .3-2 1.1-3.7c.7-1.8 1.8-4 3.1-6.5Zm-507.4 0c1.4 1.9 2.4 3.8 2.9 5.6c.7 2.2 1 5 1 8.4v7c0 5 .3 8.5 1 10.4c.5 1.5 1.4 2.3 2.5 2.3h20.5c2.8 0 4.9-.7 6.3-2.1c1.7-1.6 2.8-4.4 3.2-8.4l2.5 .4c-.1 .9-.1 1.5-.2 2.1c-.1 1.5-.1 2.8-.1 3.8c0 1.3 .4 2.4 1.1 3.1c.7 .8 1.6 1.1 2.8 1.1c1.2 0 2.2-.2 3.2-.7c1-.5 2.6-1.5 4.7-3l12.8-9.1c1.5-1.1 2.7-1.9 3.4-2.3c1.8-1.1 3.5-1.6 5.1-1.6c2.7 0 4.8 .9 6.4 2.8c1.8 2.2 2.8 5.5 2.8 10v3.9h16.4c-.3-1.6-.8-3-1.5-4.1c-.3-.6-1.1-1.7-2.5-3.2l2.9-8.5c1.8 2 3 4.1 3.7 6.3c.6 2.3 1 5.6 1 9.9v9.4H721.6c-1.7 0-3.1-.5-4.1-1.3c-1-.9-1.9-2.2-2.6-4.1c-1.5 2.1-3 3.5-4.4 4.3c-.3 .2-.6 .3-1 .4l-1.1 .4v.3H685c-2.8 0-4.8-1.2-6-3.5c-1.4-2.5-2.1-6.8-2.1-12.8V316.1c0-2.3-.3-4.1-1-5.4c-.3-.6-1-1.5-2.1-2.7Zm-255.5 0c1.4 1.9 2.3 3.8 2.9 5.6c.6 2.2 .9 5 .9 8.4v7c0 5 .4 8.5 1 10.4c.6 1.5 1.4 2.3 2.5 2.3h34.3c-.3-1.6-.8-3-1.5-4.1c-.3-.6-1.2-1.7-2.5-3.2l2.9-8.5c1.8 2 3 4.1 3.7 6.3c.5 2 .8 4.7 .9 8.3v1.2h16.4c-.2-1.6-.7-3-1.4-4.1c-.3-.6-1.2-1.7-2.5-3.2l2.9-8.5c1.8 2 3 4.1 3.6 6.3c.7 2.3 1 5.6 1 9.9v9.4H429.4c-2.8 0-4.8-1.2-6-3.5c-1.4-2.5-2.1-6.8-2.1-12.8V316.1c0-2.3-.3-4.1-.9-5.4c-.4-.6-1.1-1.5-2.2-2.7Zm927.2-.3l1.5 .6c0 1.5 .4 2.5 1.1 3c.6 .4 2.5 1.1 5.7 2.1c0 1.7-.1 3.4-.5 5.1c-.1 .7-.4 2-1 3.9l-2.5-1.1c0 2.9-.4 5.7-1 8.5c-.7 2.8-1.8 5.5-3.3 8.2c1.3 2.4 2.1 3.8 2.3 4.2c.6 1.1 .9 2.1 .9 3v1.1c0 .6-.2 3-.6 7.3c-2.7 1.3-5.1 2.1-7.3 2.5c-2.1 .4-5.3 .6-9.5 .6V337.2c2.4-1.3 4.1-2.3 5.1-3.2c1.1-.8 2.4-2.3 4.1-4.4c-2.7-3.4-4.7-5.8-5.9-7.2c-1-1.2-2.3-2.5-3.9-4c-.4 .8-.7 1.3-.8 1.5c-.2 .3-.4 .4-.6 .4c-.5 0-1.6-.5-3.2-1.4c-1.4-.9-2.5-1.7-3.2-2.4c-.8-.7-1.4-2-1.8-3.9c-.4-1.9-.6-4.3-.6-7.2c0-1.3 .1-2.2 .3-2.7c.1-.5 .5-.8 .9-.8c1 0 2.9 1.4 5.7 4c2.4 2.3 4.6 4.6 6.5 6.9c1.5 1.7 2.9 3.3 4.1 4.9c1.1 1.5 2.8 4 5.2 7.6c1-2.1 1.8-4.6 2.2-7.8c.2-1.9 .3-4.2 .3-6.8c-.8-.4-1.4-.9-1.7-1.2c-.3-.4-.5-1-.5-1.6c0-1.5 .2-2.9 .5-4.4c.3-1.5 .8-3 1.5-4.7Zm-393.1-2.5l1.6 .8c-.1 .4-.1 .7-.1 1.2c0 .9 .5 1.7 1.4 2.3c1.5 .8 2.9 1.6 4.1 2.3c-.2 2.1-.5 3.5-.7 4.4c-.3 .9-.8 2.2-1.7 4l-1-.4c0 .3 .3 2.4 1 6.1c.6 3.7 1.2 6.9 1.7 9.6c.5 2.9 .8 4.9 .9 6.1v.1h17.4c2.2 0 3.9-.2 5.2-.8c1.6-.6 2.7-1.8 3.3-3.4c1.4-3.1 3.1-5.6 5.3-7.5c1.8-1.8 3.4-2.6 4.8-2.6c1.2 0 2.7 1.8 4.5 5.5c1.4 2.9 2.2 5.6 2.6 8.2v.6h1.4c2 0 3.4-.1 4.2-.3c.8-.2 1.9-.6 3.2-1.4c-.7-1.4-1.3-2.4-1.8-3c-.7-.7-1.3-1.1-2-1.1c-.3 0-.5 .1-.8 .3c-.2 .1-.4 .5-.7 1l-1.6-.2c0-4.4 .7-7.4 2.2-9.3c1.5-1.8 3.9-2.8 7.1-2.8c3.3 0 5.9 .7 7.8 2c1.9 1.3 2.9 3.1 2.9 5.3c0 1.3-.3 2.4-.8 3.5c-.5 1.1-1.4 2.7-2.8 4.6c.3 .4 .8 .8 1.4 1c.5 .3 1.1 .4 1.6 .4h21.6c-.2-1.6-.7-3-1.4-4.1c-.4-.6-1.2-1.7-2.5-3.2l2.8-8.5c1.8 2 3.1 4.1 3.7 6.3c.7 2.3 1 5.6 1 9.9v9.4h-25.2c-1.9 0-3.5-.4-5-1.2c-1.4-.8-2.6-2-3.4-3.7c-1.6 1.9-3.6 3.3-6.1 4.1c-1.6 .5-3.4 .8-5.4 .8h-3.7v-.2l-.5-.1c-1.8-.2-3.7-.6-5.9-1.2c-2.9-.9-5.6-1.9-7.8-3.1c-1.4 2.1-3.1 3.5-5.1 4.1c-.8 .2-1.7 .4-2.9 .4h-.3v.1H963.4v.4c-.4 3.1-2.3 6-5.6 8.5c-3.8 2.8-8.2 4.2-13.1 4.2c-4.1 0-7.3-1-9.6-3.1c-2.3-2.1-3.4-4.9-3.4-8.6c0-3.5 .4-6.5 1.3-9.1c.9-2.9 2.8-6.5 5.7-10.7l2.2 1.5c-1.9 2.8-3.2 5.2-4 7.3c-.8 2-1.2 4.1-1.2 6.1c0 2.2 .9 3.8 2.5 5c1.6 1.2 3.9 1.8 6.8 1.8c4.2 0 7.6-.8 10.2-2.4c2.7-1.7 4-3.8 4-6.4c0-.5 0-.8 0-1.1c0-.3 0-.5 0-.6c0-.9-.1-1.9-.3-3.1c-.1-1.1-.5-3.4-1.2-6.9c-1-5.7-2-11.4-3-17l-1.8-1.3c0-2.4 1.1-5.9 3.3-10.8Zm212.2 0l1.6 .8c0 .2 0 .6-.1 1.2c0 .8 .5 1.5 1.5 2.3c.9 .6 2.3 1.4 4.2 2.2c-.2 1.5-.5 3-1 4.5c-.4 1.4-.8 2.7-1.4 3.9l-1.2-.5l3.9 22.1v9.8h-46.3c-1.6 0-2.7-.4-3.6-1c-1-.8-1.5-2.2-1.5-4c0-1.1 0-2.2 .1-3.4c.2-1.2 .3-2.5 .5-3.7l1.4-.1c.2 .9 .6 1.5 1.3 1.8c.6 .4 1.4 .6 2.3 .6h12.4c-.6-3.5-1.6-6.3-2.9-8.4c-1.1-1.7-2.7-3.2-4.7-4.5l2.6-11.2c3.1 2.3 5.3 5.3 6.6 9c1.2 3.3 1.7 7.8 1.7 13.4v1.7h25.8l-4.4-24.3l-2.3-1.5c0-1.4 .2-2.8 .7-4.3c.5-1.8 1.5-3.9 2.8-6.4Zm-305.5 0l1.7 .8c0 .2-.1 .6-.2 1.2c0 .8 .5 1.5 1.5 2.3c.9 .6 2.3 1.4 4.3 2.2c-.2 1.5-.6 3-1 4.5c-.4 1.4-.9 2.7-1.4 3.9l-1.3-.5l3.9 22.1h1.4c.7 0 1.2 0 1.6 0c.7-.1 1.4-.2 2.1-.2c-1.2-1.8-2-3.3-2.4-4.4c-.4-1.1-.6-2.3-.6-3.7c0-3.6 1.4-6.7 4.4-9.3c2.9-2.7 6.4-4 10.3-4c2.7 0 5.2 .8 7.6 2.6c2.2 1.6 3.9 3.6 4.9 5.9l-1.5 1.3c-1.9-.7-3.4-1.2-4.5-1.4c-1.1-.2-2.5-.3-4.1-.3c-3 0-5.5 .2-7.7 .7c-2.8 .6-4.1 1.4-4.1 2.5c0 1.7 3.3 4.4 9.9 8.2l18.2-5.2l-4 10.2c-6.4 1.9-11.7 3.5-15.9 4.5c-3.7 1-6.8 1.6-9.3 2c-1.8 .2-3.7 .4-5.5 .4H837.5c-.9 0-1.6 0-2.2 .2c-.5 .1-.8 .3-.8 .6c0 .1 .6 .4 1.8 .9c1.2 .4 1.7 1.1 1.7 2.1c0 1.3-.1 2.9-.5 4.7c-.4 1.9-1 3.6-1.7 5c-.5 1.2-2 2.5-4.4 4c-2.5 1.6-5.5 2.9-8.7 3.9c-3.8 1.2-7.3 1.8-10.7 1.8c-3.9 0-6.8-.9-8.8-2.7c-2-1.8-3-4.4-3-7.8c0-3.8 .5-7.1 1.4-9.8c1.1-3.4 3.3-7.7 6.7-13.1l2 1.5c-2.2 3.8-3.7 6.8-4.6 9.1c-.8 2.3-1.2 4.5-1.2 6.7c0 2.2 .7 3.9 2.1 5.2c1.4 1.3 3.3 1.9 5.8 1.9c3.1 0 6.3-.5 9.8-1.4c3.1-.8 5.8-1.9 8.1-3c2.3-1.2 3.4-2.2 3.4-3c0-.2-.7-.3-2-.4c-1.4 0-2.5-.1-3.6-.1c-2.5 0-4.2-.1-4.9-.2c-.8-.2-1.1-.7-1.1-1.4c0-1.3 .2-2.6 .7-4.1c.4-1.4 1-2.5 1.7-3.3c1.5-1.9 3.4-3.5 5.5-4.8c2.4-1.5 4.6-2.3 6.5-2.3h29.6l-4.3-24.3l-2.3-1.5c0-1.4 .2-2.8 .6-4.3c.6-1.8 1.5-3.9 2.8-6.4Zm-240.8-.4l8.4 4.4l-4.3 8.1l-8.4-4.4Zm509.3-4.8l8.3 4.4l-4.3 8l-8.3-4.3Z" class="g0_51"/>
<path d="M1100.5 357.6l5.6 2.9l-2.7 4.9l-5.5-2.8l-2.6 4.7l-5.6-2.9l2.8-5l5.3 2.8ZM535.7 345.9l8.4 4.5l-4.3 8l-8.4-4.4Zm715.6-.7l6.6 3.7l-3.7 6.9l-5.3-2.6l-3 5.8l-6.5-3.7l3.9-7.3l5.1 2.9Zm-205.5 0l6.6 3.7l-3.7 6.9l-5.3-2.6l-3 5.8l-6.5-3.7l3.9-7.3l5.1 2.9Zm-585.8 0l6.7 3.7l-3.8 6.9l-5.3-2.6l-3 5.8l-6.5-3.7l4-7.3l5 2.9ZM1346.5 333c-1 1.2-1.8 2-2.4 2.5c-.5 .5-1.5 1.2-2.9 2.2c1.8-.2 3.1-.4 3.9-.6c.7-.2 1.8-.7 3.1-1.4Zm97.8-6.1c-.9 0-1.7 1-2.4 3.2c1.3 .4 2.2 .8 2.8 1c2 .8 3.1 1.1 3.3 1.1c.5 0 .8-.2 .8-.5c0-.5-.5-1.4-1.6-2.7c-1.1-1.4-2.1-2.1-2.9-2.1Zm-448.8 0c-.9 0-1.7 1-2.4 3.2c1.3 .4 2.2 .8 2.8 1c2 .8 3.1 1.1 3.3 1.1c.5 0 .8-.2 .8-.5c0-.5-.5-1.4-1.6-2.7c-1.1-1.4-2.1-2.1-2.9-2.1Zm-248.3-1.2c-1.6 0-3.4 .5-5.3 1.6c-2 1-4.9 2.8-8.6 5.5h9.4c7.8 0 11.8-1.2 11.8-3.6c0-1.1-.9-2-2.6-2.6c-1.4-.6-3-.9-4.7-.9Zm-123.8-3.2c-.4 0-.8 .2-1.2 .6c-.3 .3-.5 .8-.5 1.3c0 .8 .5 1.4 1.6 2.1c1 .6 2.5 1.2 4.4 1.8c-.9-2.4-1.6-3.9-2.1-4.6c-.6-.8-1.3-1.2-2.2-1.2Zm487.6-3.3c1.4 0 2.5 .5 3.3 1.6c.9 1.1 1.3 2.5 1.3 4.3c0 1.3-.2 2.4-.4 3.3c-.3 .9-.9 2-1.7 3.4c-.7-1.7-1.2-2.8-1.6-3.3c-.5-.5-1.1-.8-2-.8c-1.3 0-3 .7-5.3 2.2c-2.2 1.5-3.4 2.7-3.4 3.7c0 .5 .5 .9 1.4 1.1c.6 .2 1.6 .2 3 .2c.4 0 .7 0 1.1 0c.3 0 .7 0 1 0c2.6 0 4.4 .3 5.2 .8c.8 .4 1.1 1.3 1.1 2.6c0 2.6-.4 5.1-1.4 7.5c-1.2 2.9-2.9 5.1-5.2 6.3c-2.8 1.6-5.8 2.9-8.9 3.9c-3 1-5.9 1.5-8.5 1.5c-7.5 0-11.2-3.4-11.2-10c0-3.4 .4-6.3 1.3-8.7c.9-2.8 2.9-6.4 5.9-11.1l1.6 1.1c-1.7 3-3.1 5.6-3.9 8c-.9 2.3-1.4 4.3-1.4 6c0 4.6 2.6 6.8 7.7 6.8c1.9 0 3.7-.2 5.4-.5c1.7-.3 3.5-.8 5.2-1.5c1.2-.4 2.5-.9 4-1.5c2.3-1.1 3.6-1.6 3.7-1.7c1.1-.6 1.6-1.1 1.6-1.6c0-.2-.5-.3-1.7-.4c-1.2-.1-2-.1-2.5-.1c-3.6 0-6.1-.5-7.3-1.6c-1-.8-1.5-2.4-1.5-4.7c0-1.1 .3-2.5 1-4.2c.7-1.6 1.7-3.3 2.8-4.9c1.7-2.6 3.5-4.5 5.2-5.7c1.8-1.3 3.5-2 5.1-2Zm-734.6-2l2 1.3c-.5 .9-1 1.8-1.3 2.6c-.4 .8-.7 1.4-.8 2c-.4 1.1-.6 2.2-.6 3.2c0 1.4 .5 2.6 1.3 3.7c.9 1.1 2.1 1.8 3.4 2.1c.9 .3 2 .4 3.3 .5c1.3 .2 2.8 .2 4.3 .2h25.9c-.7-1.9-1.3-3.2-1.7-3.8c-.5-1-1.3-2.1-2.4-3.5l3.2-8.3c1.8 2.5 3 4.9 3.5 7c.5 1.9 .7 4.7 .7 8.2v10.2h-30c-1.5 0-2.7 0-3.6-.1c-1 0-1.7 0-2.2-.1c-.9-.1-1.9-.3-3-.7c-2-.7-3.6-2.1-4.9-4.1c-1.2-2.1-1.9-4.4-1.9-6.9c0-1 .1-2 .2-3.1c.2-1 .4-2.1 .8-3.3c.5-1.5 1.1-2.7 1.8-3.9c.6-1.1 1.3-2.2 2-3.2Zm942-.2c1.8 2 3 4.1 3.7 6.3c.6 2.3 .9 5.6 .9 9.9v9.4h-32.7v.8c0 1.5-.8 3.4-2.5 5.8c-1.7 2.4-3.6 4.5-5.9 6.2c-2.4 2-4.6 3-6.3 3c-2.2 0-4.4-.6-6.8-1.8c-2.1-1.1-5.4-3.1-9.9-6.2l1.5-2.2c2.2 1.4 3.9 2.4 5.2 2.9c1.4 .5 2.8 .7 4.3 .7c1.6 0 3.3-.4 4.9-1.4c1.7-.9 3.9-2.6 6.8-5.2c3.9-3.5 5.9-6.2 5.9-8.1c0-1-.4-2.2-1.1-3.8c-.9-1.7-1.9-3.2-3.2-4.4l2-9.6c1.6 1.6 2.9 3.6 3.8 5.7c.9 2.2 1.3 4.7 1.3 7.4v.4h29.2c-.3-1.6-.8-3-1.5-4.1c-.3-.6-1.2-1.7-2.5-3.2Zm-64.6 0c1.9 2 3.1 4.1 3.7 6.3c.7 2.3 1 5.6 1 9.9v9.4h-22.4v-.1H1234c-4.4 0-8.3 .4-11.6 1.1c-3.4 .8-5.1 1.6-5.1 2.6c1 2.9 1.8 5.5 2.5 8c.7 2.6 1.1 4.9 1.1 7.2c0 1.6-.2 2.9-.5 3.9c-.3 1-.9 2.1-1.8 3.3c-.3-3.2-.8-6.5-1.7-9.9c-.4-1.2-1.1-3.8-2.4-7.7c-.7-2.4-1.1-4-1.1-4.8c0-1.1 .3-2.5 .9-4.2c.5-1.4 1.1-2.6 1.7-3.6c.8-1.2 2.1-2.2 4-2.9c1.9-.6 4.8-1.2 8.7-1.6c-1.9-2.7-3.6-4.1-5-4.1c-.6 0-1.2 .3-1.8 .8c-.5 .5-1.4 1.5-2.6 3.1l-1.8-.8c1.1-3.7 2.4-6.5 3.9-8.5c1.6-1.9 3.3-2.9 5.1-2.9c1.6 0 3.4 .9 5.3 2.7c2 1.9 4.2 4.7 6.8 8.6h16.3c-.2-1.6-.7-3-1.4-4.1c-.4-.6-1.2-1.7-2.5-3.2Zm-720.3-.7c1.6 0 3.1 .4 4.6 1.2c1.4 .7 3.1 2 4.9 3.7c1.4 1.3 3.4 3.4 6.1 6.2c1.8 2 3.1 3.3 4.1 3.9c.9 .6 2.3 1.1 4.2 1.5v9.8H519v.8c0 1.5-.8 3.4-2.5 5.8c-1.7 2.4-3.6 4.5-5.9 6.2c-2.4 2-4.6 3-6.3 3c-2.1 0-4.4-.6-6.8-1.8c-2.1-1.1-5.4-3.1-9.8-6.2l1.5-2.2c2.1 1.4 3.8 2.4 5.2 2.9c1.3 .5 2.7 .7 4.2 .7c1.7 0 3.3-.4 5-1.4c1.6-.9 3.9-2.6 6.7-5.2c4-3.5 5.9-6.2 5.9-8.1c0-1-.3-2.2-1.1-3.8c-.9-1.7-1.9-3.2-3.2-4.4l2-9.6c1.7 1.6 2.9 3.6 3.8 5.7c.9 2.2 1.3 4.7 1.3 7.4v.4h23c-2.9-3-5.6-5.1-8.1-6.4c-2.1-1.2-4.3-1.8-6.3-1.8c-.6 0-1.2 .1-1.7 .1c-.5 .1-1.3 .2-2.3 .4c1.3-3 2.8-5.2 4.4-6.6c1.6-1.5 3.5-2.2 5.5-2.2ZM650 311.2c2.6 0 5.2 .8 7.6 2.6c2.2 1.6 3.8 3.6 4.9 5.9l-1.6 1.3c-1.8-.7-3.3-1.2-4.4-1.4c-1.2-.2-2.5-.3-4.1-.3c-3 0-5.6 .2-7.7 .7c-2.8 .6-4.2 1.4-4.2 2.5c0 1.7 3.4 4.4 10 8.2l18.2-5.2l-4 10.2c-6.4 1.9-11.8 3.5-16 4.5c-3.6 1-6.7 1.6-9.2 2c-1.8 .2-3.7 .4-5.5 .4h-5.5c-4.2 0-9 .1-14.3 .2c-3.2 .2-7.3 .4-12.4 .6c-5.1 .2-7.9 .4-8.3 .4c-5 0-8.7-1-11-2.7c-2.1-1.7-3.1-4.3-3.1-7.8c0-2.7 .2-5.1 .8-7.1c.5-2.1 1.7-5.4 3.6-9.9l2.4 1.1c-1.7 4.1-2.6 7.1-2.6 8.9c0 2.5 1 4.3 2.9 5.3c2.1 1.2 5.9 1.8 11.1 1.8c3.7-.2 7.2-.4 10.7-.5c3.5-.2 6.8-.3 9.9-.3c-.9-.4-1.6-1-2-1.5c-.3-.6-.5-1.5-.5-2.6c0-3.4 1-6.8 3.1-10.2c2.2-3.7 4.7-5.5 7.4-5.5c2.5 0 4.4 1.8 5.5 5.3c1 3.2 1.6 8.1 1.6 14.7h1.3c.7 0 1.2 0 1.5 0c.8-.1 1.5-.2 2.1-.2c-1.1-1.8-1.9-3.3-2.4-4.4c-.4-1.1-.6-2.3-.6-3.7c0-3.6 1.5-6.7 4.5-9.3c2.9-2.7 6.4-4 10.3-4Zm-252.1-6.3l6.7 3.7l-3.7 6.9l-5.3-2.6l-3.1 5.8L386 315l4-7.3l5.1 2.9Zm85.3-.3c.5 0 .8 .1 1.1 .4c.3 .3 .4 .7 .4 1.2c0 .4 0 .7-.1 1c-.2 .2-.4 .7-.7 1.2c-1.2-.6-2-.9-2.4-.9c-.5 0-.9 .1-1.3 .3c-.3 .2-.6 .4-.8 .6c0 .3 .6 .8 1.7 1.4c1.1 .7 2 1 2.5 1c.3 0 1.1-.2 2.6-.5c-.3 .7-.5 1.3-.9 1.7c-.3 .2-.7 .4-1.2 .6l-7.8 2.4c.5-.9 .9-1.5 1.3-1.8c.3-.3 1-.7 1.9-1c-.7-.4-1.2-.8-1.5-1.2c-.3-.4-.4-.7-.4-1.1c0-.3 .1-.6 .2-1c.2-.4 .5-.8 .8-1.2c1.6-2.1 3.1-3.1 4.6-3.1Zm796.9-2.4l8.4 4.5l-4.3 8l-8.4-4.4Zm-771.2 0l8.3 4.5l-4.3 8l-8.4-4.4Zm263.3-1.6l6.7 3.7l-3.7 6.9l-5.3-2.6l-3 5.8l-6.6-3.7l4-7.3l5.1 2.9Zm-38.9-.9l8.3 4.4l-4.2 8l-8.4-4.3Zm581.6-.6l8.4 4.5l-4.3 8l-8.4-4.4Zm85.1 0c1.4 1.9 2.3 3.8 2.9 5.6c.6 2.2 .9 5 .9 8.4v7c0 5 .4 8.5 1 10.4c.6 1.5 1.4 2.3 2.5 2.3h22.3c2.2 0 3.9-.2 5.2-.8c1.6-.6 2.7-1.8 3.3-3.4c1.4-3.1 3.1-5.6 5.3-7.5c1.8-1.8 3.4-2.6 4.8-2.6c1.2 0 2.7 1.8 4.5 5.5c1.8 3.9 2.8 7.5 2.8 10.7v7.8c-2.5 0-5.5-.5-8.9-1.4c-2.9-.9-5.6-1.9-7.8-3.1c-1.4 2.1-3.1 3.5-5.1 4.1c-.8 .2-1.7 .4-2.9 .4h-.1v.1h-23.4c-2.8 0-4.8-1.2-6-3.5c-1.4-2.5-2.1-6.8-2.1-12.8V316.1c0-2.3-.3-4.1-.9-5.4c-.4-.6-1.1-1.5-2.2-2.7Zm-32 0l2.1 12.7c.8 4.8 1.3 9 1.7 12.5c.2 2.7 .3 5.3 .3 7.8c0 2.2-.2 4.1-.7 5.9c-.5 1.7-1.5 4.1-2.9 7l-2.2-.8c.6-3.1 .9-5.6 .9-7.5c0-1.4-.1-3.6-.4-6.4c-.2-2.8-.5-5.6-.9-8.3c-.3-2.8-.9-6.1-1.7-9.9c-.3-1.4-.5-2.3-.5-2.8c0-.7 .4-2 1.1-3.7c.8-1.8 1.8-4 3.2-6.5Zm-183 0l2.1 12.7c.8 4.8 1.4 9 1.7 12.5c.2 2.7 .3 5.3 .3 7.8c0 2.2-.2 4.1-.7 5.9c-.5 1.7-1.5 4.1-2.9 7l-2.1-.8c.5-3.1 .8-5.6 .8-7.5c0-1.4-.1-3.6-.4-6.4c-.2-2.8-.5-5.6-.8-8.3c-.4-2.8-1-6.1-1.8-9.9c-.3-1.4-.4-2.3-.4-2.8c0-.7 .3-2 1.1-3.7c.7-1.8 1.8-4 3.1-6.5Zm-507.4 0c1.4 1.9 2.4 3.8 2.9 5.6c.7 2.2 1 5 1 8.4v7c0 5 .3 8.5 1 10.4c.5 1.5 1.4 2.3 2.5 2.3h20.5c2.8 0 4.9-.7 6.3-2.1c1.7-1.6 2.8-4.4 3.2-8.4l2.5 .4c-.1 .9-.1 1.5-.2 2.1c-.1 1.5-.1 2.8-.1 3.8c0 1.3 .4 2.4 1.1 3.1c.7 .8 1.6 1.1 2.8 1.1c1.2 0 2.2-.2 3.2-.7c1-.5 2.6-1.5 4.7-3l12.8-9.1c1.5-1.1 2.7-1.9 3.4-2.3c1.8-1.1 3.5-1.6 5.1-1.6c2.7 0 4.8 .9 6.4 2.8c1.8 2.2 2.8 5.5 2.8 10v3.9h16.4c-.3-1.6-.8-3-1.5-4.1c-.3-.6-1.1-1.7-2.5-3.2l2.9-8.5c1.8 2 3 4.1 3.7 6.3c.6 2.3 1 5.6 1 9.9v9.4H721.6c-1.7 0-3.1-.5-4.1-1.3c-1-.9-1.9-2.2-2.6-4.1c-1.5 2.1-3 3.5-4.4 4.3c-.3 .2-.6 .3-1 .4l-1.1 .4v.3H685c-2.8 0-4.8-1.2-6-3.5c-1.4-2.5-2.1-6.8-2.1-12.8V316.1c0-2.3-.3-4.1-1-5.4c-.3-.6-1-1.5-2.1-2.7Zm-255.5 0c1.4 1.9 2.3 3.8 2.9 5.6c.6 2.2 .9 5 .9 8.4v7c0 5 .4 8.5 1 10.4c.6 1.5 1.4 2.3 2.5 2.3h34.3c-.3-1.6-.8-3-1.5-4.1c-.3-.6-1.2-1.7-2.5-3.2l2.9-8.5c1.8 2 3 4.1 3.7 6.3c.5 2 .8 4.7 .9 8.3v1.2h16.4c-.2-1.6-.7-3-1.4-4.1c-.3-.6-1.2-1.7-2.5-3.2l2.9-8.5c1.8 2 3 4.1 3.6 6.3c.7 2.3 1 5.6 1 9.9v9.4H429.4c-2.8 0-4.8-1.2-6-3.5c-1.4-2.5-2.1-6.8-2.1-12.8V316.1c0-2.3-.3-4.1-.9-5.4c-.4-.6-1.1-1.5-2.2-2.7Zm927.2-.3l1.5 .6c0 1.5 .4 2.5 1.1 3c.6 .4 2.5 1.1 5.7 2.1c0 1.7-.1 3.4-.5 5.1c-.1 .7-.4 2-1 3.9l-2.5-1.1c0 2.9-.4 5.7-1 8.5c-.7 2.8-1.8 5.5-3.3 8.2c1.3 2.4 2.1 3.8 2.3 4.2c.6 1.1 .9 2.1 .9 3v1.1c0 .6-.2 3-.6 7.3c-2.7 1.3-5.1 2.1-7.3 2.5c-2.1 .4-5.3 .6-9.5 .6V337.2c2.4-1.3 4.1-2.3 5.1-3.2c1.1-.8 2.4-2.3 4.1-4.4c-2.7-3.4-4.7-5.8-5.9-7.2c-1-1.2-2.3-2.5-3.9-4c-.4 .8-.7 1.3-.8 1.5c-.2 .3-.4 .4-.6 .4c-.5 0-1.6-.5-3.2-1.4c-1.4-.9-2.5-1.7-3.2-2.4c-.8-.7-1.4-2-1.8-3.9c-.4-1.9-.6-4.3-.6-7.2c0-1.3 .1-2.2 .3-2.7c.1-.5 .5-.8 .9-.8c1 0 2.9 1.4 5.7 4c2.4 2.3 4.6 4.6 6.5 6.9c1.5 1.7 2.9 3.3 4.1 4.9c1.1 1.5 2.8 4 5.2 7.6c1-2.1 1.8-4.6 2.2-7.8c.2-1.9 .3-4.2 .3-6.8c-.8-.4-1.4-.9-1.7-1.2c-.3-.4-.5-1-.5-1.6c0-1.5 .2-2.9 .5-4.4c.3-1.5 .8-3 1.5-4.7Zm-393.1-2.5l1.6 .8c-.1 .4-.1 .7-.1 1.2c0 .9 .5 1.7 1.4 2.3c1.5 .8 2.9 1.6 4.1 2.3c-.2 2.1-.5 3.5-.7 4.4c-.3 .9-.8 2.2-1.7 4l-1-.4c0 .3 .3 2.4 1 6.1c.6 3.7 1.2 6.9 1.7 9.6c.5 2.9 .8 4.9 .9 6.1v.1h17.4c2.2 0 3.9-.2 5.2-.8c1.6-.6 2.7-1.8 3.3-3.4c1.4-3.1 3.1-5.6 5.3-7.5c1.8-1.8 3.4-2.6 4.8-2.6c1.2 0 2.7 1.8 4.5 5.5c1.4 2.9 2.2 5.6 2.6 8.2v.6h1.4c2 0 3.4-.1 4.2-.3c.8-.2 1.9-.6 3.2-1.4c-.7-1.4-1.3-2.4-1.8-3c-.7-.7-1.3-1.1-2-1.1c-.3 0-.5 .1-.8 .3c-.2 .1-.4 .5-.7 1l-1.6-.2c0-4.4 .7-7.4 2.2-9.3c1.5-1.8 3.9-2.8 7.1-2.8c3.3 0 5.9 .7 7.8 2c1.9 1.3 2.9 3.1 2.9 5.3c0 1.3-.3 2.4-.8 3.5c-.5 1.1-1.4 2.7-2.8 4.6c.3 .4 .8 .8 1.4 1c.5 .3 1.1 .4 1.6 .4h21.6c-.2-1.6-.7-3-1.4-4.1c-.4-.6-1.2-1.7-2.5-3.2l2.8-8.5c1.8 2 3.1 4.1 3.7 6.3c.7 2.3 1 5.6 1 9.9v9.4h-25.2c-1.9 0-3.5-.4-5-1.2c-1.4-.8-2.6-2-3.4-3.7c-1.6 1.9-3.6 3.3-6.1 4.1c-1.6 .5-3.4 .8-5.4 .8h-3.7v-.2l-.5-.1c-1.8-.2-3.7-.6-5.9-1.2c-2.9-.9-5.6-1.9-7.8-3.1c-1.4 2.1-3.1 3.5-5.1 4.1c-.8 .2-1.7 .4-2.9 .4h-.3v.1H963.4v.4c-.4 3.1-2.3 6-5.6 8.5c-3.8 2.8-8.2 4.2-13.1 4.2c-4.1 0-7.3-1-9.6-3.1c-2.3-2.1-3.4-4.9-3.4-8.6c0-3.5 .4-6.5 1.3-9.1c.9-2.9 2.8-6.5 5.7-10.7l2.2 1.5c-1.9 2.8-3.2 5.2-4 7.3c-.8 2-1.2 4.1-1.2 6.1c0 2.2 .9 3.8 2.5 5c1.6 1.2 3.9 1.8 6.8 1.8c4.2 0 7.6-.8 10.2-2.4c2.7-1.7 4-3.8 4-6.4c0-.5 0-.8 0-1.1c0-.3 0-.5 0-.6c0-.9-.1-1.9-.3-3.1c-.1-1.1-.5-3.4-1.2-6.9c-1-5.7-2-11.4-3-17l-1.8-1.3c0-2.4 1.1-5.9 3.3-10.8Zm212.2 0l1.6 .8c0 .2 0 .6-.1 1.2c0 .8 .5 1.5 1.5 2.3c.9 .6 2.3 1.4 4.2 2.2c-.2 1.5-.5 3-1 4.5c-.4 1.4-.8 2.7-1.4 3.9l-1.2-.5l3.9 22.1v9.8h-46.3c-1.6 0-2.7-.4-3.6-1c-1-.8-1.5-2.2-1.5-4c0-1.1 0-2.2 .1-3.4c.2-1.2 .3-2.5 .5-3.7l1.4-.1c.2 .9 .6 1.5 1.3 1.8c.6 .4 1.4 .6 2.3 .6h12.4c-.6-3.5-1.6-6.3-2.9-8.4c-1.1-1.7-2.7-3.2-4.7-4.5l2.6-11.2c3.1 2.3 5.3 5.3 6.6 9c1.2 3.3 1.7 7.8 1.7 13.4v1.7h25.8l-4.4-24.3l-2.3-1.5c0-1.4 .2-2.8 .7-4.3c.5-1.8 1.5-3.9 2.8-6.4Zm-305.5 0l1.7 .8c0 .2-.1 .6-.2 1.2c0 .8 .5 1.5 1.5 2.3c.9 .6 2.3 1.4 4.3 2.2c-.2 1.5-.6 3-1 4.5c-.4 1.4-.9 2.7-1.4 3.9l-1.3-.5l3.9 22.1h1.4c.7 0 1.2 0 1.6 0c.7-.1 1.4-.2 2.1-.2c-1.2-1.8-2-3.3-2.4-4.4c-.4-1.1-.6-2.3-.6-3.7c0-3.6 1.4-6.7 4.4-9.3c2.9-2.7 6.4-4 10.3-4c2.7 0 5.2 .8 7.6 2.6c2.2 1.6 3.9 3.6 4.9 5.9l-1.5 1.3c-1.9-.7-3.4-1.2-4.5-1.4c-1.1-.2-2.5-.3-4.1-.3c-3 0-5.5 .2-7.7 .7c-2.8 .6-4.1 1.4-4.1 2.5c0 1.7 3.3 4.4 9.9 8.2l18.2-5.2l-4 10.2c-6.4 1.9-11.7 3.5-15.9 4.5c-3.7 1-6.8 1.6-9.3 2c-1.8 .2-3.7 .4-5.5 .4H837.5c-.9 0-1.6 0-2.2 .2c-.5 .1-.8 .3-.8 .6c0 .1 .6 .4 1.8 .9c1.2 .4 1.7 1.1 1.7 2.1c0 1.3-.1 2.9-.5 4.7c-.4 1.9-1 3.6-1.7 5c-.5 1.2-2 2.5-4.4 4c-2.5 1.6-5.5 2.9-8.7 3.9c-3.8 1.2-7.3 1.8-10.7 1.8c-3.9 0-6.8-.9-8.8-2.7c-2-1.8-3-4.4-3-7.8c0-3.8 .5-7.1 1.4-9.8c1.1-3.4 3.3-7.7 6.7-13.1l2 1.5c-2.2 3.8-3.7 6.8-4.6 9.1c-.8 2.3-1.2 4.5-1.2 6.7c0 2.2 .7 3.9 2.1 5.2c1.4 1.3 3.3 1.9 5.8 1.9c3.1 0 6.3-.5 9.8-1.4c3.1-.8 5.8-1.9 8.1-3c2.3-1.2 3.4-2.2 3.4-3c0-.2-.7-.3-2-.4c-1.4 0-2.5-.1-3.6-.1c-2.5 0-4.2-.1-4.9-.2c-.8-.2-1.1-.7-1.1-1.4c0-1.3 .2-2.6 .7-4.1c.4-1.4 1-2.5 1.7-3.3c1.5-1.9 3.4-3.5 5.5-4.8c2.4-1.5 4.6-2.3 6.5-2.3h29.6l-4.3-24.3l-2.3-1.5c0-1.4 .2-2.8 .6-4.3c.6-1.8 1.5-3.9 2.8-6.4Zm-240.8-.4l8.4 4.4l-4.3 8.1l-8.4-4.4Zm509.3-4.8l8.3 4.4l-4.3 8l-8.3-4.3Z" class="g1_51"/>
<path fill-rule="evenodd" d="M326.8 315.6l-6.6 19.7h13.2l-6.6-19.7Zm-101.7-1.5v31.5H230c2.6 0 4.7-.3 6.5-1c1.8-.7 3.2-1.7 4.4-3c1.2-1.4 2.1-3 2.7-5c.6-2.1 .9-4.4 .9-7.1c0-2.2-.3-4.2-.8-6.1c-.5-1.9-1.3-3.5-2.5-4.9c-1.1-1.4-2.6-2.5-4.4-3.2c-1.7-.8-4.1-1.2-7-1.2Zm-6.6-7.4h11.9c4.1 0 7.6 .5 10.5 1.5c2.9 .9 5.3 2.4 7.3 4.3c1.9 1.9 3.4 4.2 4.4 7c1.1 2.8 1.6 6 1.6 9.7c0 4.3-.6 7.9-1.7 10.9c-1.1 3-2.7 5.5-4.8 7.4c-2 1.9-4.6 3.3-7.5 4.2c-3 .9-6.5 1.4-10.6 1.4H218.5c-.8 0-1.5-.3-2-.7c-.5-.5-.8-1.3-.8-2.3V309.7c0-1.1 .3-1.8 .8-2.3c.5-.4 1.2-.7 2-.7Zm77.5-.1c.8 0 1.5 0 2 .1c.6 0 1 .1 1.3 .3c.3 .1 .5 .3 .6 .5c.1 .2 .2 .4 .2 .6v41.7c0 .5-.1 1-.3 1.4c-.2 .5-.4 .8-.8 1.1c-.3 .3-.7 .5-1.1 .6c-.4 .2-.9 .2-1.3 .2h-4c-.9 0-1.6-.1-2.2-.2c-.6-.2-1.2-.5-1.7-.9c-.5-.5-1-1.1-1.5-1.8c-.5-.8-1-1.7-1.6-3l-11.5-21.6c-.7-1.3-1.4-2.7-2.1-4.2c-.7-1.5-1.3-2.9-1.8-4.3h-.1c.1 1.7 .2 3.4 .2 5.1c.1 1.7 .1 3.5 .1 5.3v24.2c0 .3-.1 .5-.2 .7c-.2 .2-.4 .3-.7 .5c-.3 .1-.7 .2-1.3 .3c-.5 0-1.3 .1-2.1 .1c-.8 0-1.5-.1-2.1-.1c-.5-.1-1-.2-1.3-.3c-.3-.2-.5-.3-.6-.5c-.1-.2-.2-.4-.2-.7V310.1c0-1.1 .3-2 1-2.5c.6-.6 1.5-.9 2.4-.9h5.1c.9 0 1.6 .1 2.2 .3c.7 .1 1.2 .4 1.7 .7c.5 .4 1 .9 1.4 1.5c.4 .6 .9 1.4 1.3 2.4l9 16.9c.6 1 1.1 2 1.6 3c.5 1 1 2 1.5 3c.5 1 .9 1.9 1.4 2.9c.4 1 .9 1.9 1.3 2.9c0-1.7-.1-3.4-.1-5.3c-.1-1.8-.1-3.5-.1-5.2V308.1c0-.2 .1-.4 .2-.6c.2-.2 .4-.4 .8-.5c.3-.2 .7-.3 1.3-.3c.5-.1 1.2-.1 2.1-.1Zm30.9-.1c1.4 0 2.5 0 3.4 .1c.8 0 1.5 .1 1.9 .2c.5 .1 .8 .3 1 .6c.2 .3 .4 .6 .5 1.1l14.4 41c.3 .9 .4 1.6 .5 2.1c.1 .5 0 .9-.3 1.1c-.2 .3-.7 .4-1.4 .5c-.6 0-1.6 .1-2.7 .1c-1.2 0-2.2 0-2.9-.1c-.7 0-1.2-.1-1.5-.2c-.4-.1-.6-.3-.8-.4c-.1-.2-.2-.5-.4-.8l-3.1-9.3H318.1l-2.9 9.1c-.1 .3-.2 .6-.4 .8c-.1 .2-.4 .4-.7 .5c-.4 .2-.9 .2-1.5 .3c-.6 .1-1.5 .1-2.5 .1c-1.1 0-1.9-.1-2.6-.1c-.6-.1-1-.3-1.3-.6c-.2-.2-.3-.6-.2-1.1c.1-.5 .2-1.2 .5-2l14.3-41.1c.2-.4 .3-.8 .5-1c.2-.3 .5-.5 .9-.6c.5-.1 1-.2 1.8-.2c.7-.1 1.7-.1 2.9-.1Z" class="g0_51"/>
<path d="M326.8 315.6l-6.6 19.7h13.2l-6.6-19.7Zm-101.7-1.5v31.5H230c2.6 0 4.7-.3 6.5-1c1.8-.7 3.2-1.7 4.4-3c1.2-1.4 2.1-3 2.7-5c.6-2.1 .9-4.4 .9-7.1c0-2.2-.3-4.2-.8-6.1c-.5-1.9-1.3-3.5-2.5-4.9c-1.1-1.4-2.6-2.5-4.4-3.2c-1.7-.8-4.1-1.2-7-1.2Zm-6.6-7.4h11.9c4.1 0 7.6 .5 10.5 1.5c2.9 .9 5.3 2.4 7.3 4.3c1.9 1.9 3.4 4.2 4.4 7c1.1 2.8 1.6 6 1.6 9.7c0 4.3-.6 7.9-1.7 10.9c-1.1 3-2.7 5.5-4.8 7.4c-2 1.9-4.6 3.3-7.5 4.2c-3 .9-6.5 1.4-10.6 1.4H218.5c-.8 0-1.5-.3-2-.7c-.5-.5-.8-1.3-.8-2.3V309.7c0-1.1 .3-1.8 .8-2.3c.5-.4 1.2-.7 2-.7Zm77.5-.1c.8 0 1.5 0 2 .1c.6 0 1 .1 1.3 .3c.3 .1 .5 .3 .6 .5c.1 .2 .2 .4 .2 .6v41.7c0 .5-.1 1-.3 1.4c-.2 .5-.4 .8-.8 1.1c-.3 .3-.7 .5-1.1 .6c-.4 .2-.9 .2-1.3 .2h-4c-.9 0-1.6-.1-2.2-.2c-.6-.2-1.2-.5-1.7-.9c-.5-.5-1-1.1-1.5-1.8c-.5-.8-1-1.7-1.6-3l-11.5-21.6c-.7-1.3-1.4-2.7-2.1-4.2c-.7-1.5-1.3-2.9-1.8-4.3h-.1c.1 1.7 .2 3.4 .2 5.1c.1 1.7 .1 3.5 .1 5.3v24.2c0 .3-.1 .5-.2 .7c-.2 .2-.4 .3-.7 .5c-.3 .1-.7 .2-1.3 .3c-.5 0-1.3 .1-2.1 .1c-.8 0-1.5-.1-2.1-.1c-.5-.1-1-.2-1.3-.3c-.3-.2-.5-.3-.6-.5c-.1-.2-.2-.4-.2-.7V310.1c0-1.1 .3-2 1-2.5c.6-.6 1.5-.9 2.4-.9h5.1c.9 0 1.6 .1 2.2 .3c.7 .1 1.2 .4 1.7 .7c.5 .4 1 .9 1.4 1.5c.4 .6 .9 1.4 1.3 2.4l9 16.9c.6 1 1.1 2 1.6 3c.5 1 1 2 1.5 3c.5 1 .9 1.9 1.4 2.9c.4 1 .9 1.9 1.3 2.9c0-1.7-.1-3.4-.1-5.3c-.1-1.8-.1-3.5-.1-5.2V308.1c0-.2 .1-.4 .2-.6c.2-.2 .4-.4 .8-.5c.3-.2 .7-.3 1.3-.3c.5-.1 1.2-.1 2.1-.1Zm30.9-.1c1.4 0 2.5 0 3.4 .1c.8 0 1.5 .1 1.9 .2c.5 .1 .8 .3 1 .6c.2 .3 .4 .6 .5 1.1l14.4 41c.3 .9 .4 1.6 .5 2.1c.1 .5 0 .9-.3 1.1c-.2 .3-.7 .4-1.4 .5c-.6 0-1.6 .1-2.7 .1c-1.2 0-2.2 0-2.9-.1c-.7 0-1.2-.1-1.5-.2c-.4-.1-.6-.3-.8-.4c-.1-.2-.2-.5-.4-.8l-3.1-9.3H318.1l-2.9 9.1c-.1 .3-.2 .6-.4 .8c-.1 .2-.4 .4-.7 .5c-.4 .2-.9 .2-1.5 .3c-.6 .1-1.5 .1-2.5 .1c-1.1 0-1.9-.1-2.6-.1c-.6-.1-1-.3-1.3-.6c-.2-.2-.3-.6-.2-1.1c.1-.5 .2-1.2 .5-2l14.3-41.1c.2-.4 .3-.8 .5-1c.2-.3 .5-.5 .9-.6c.5-.1 1-.2 1.8-.2c.7-.1 1.7-.1 2.9-.1Z" class="g1_51"/>
<path fill-rule="evenodd" d="M69.2 335.9l8.3 4.4l-4.3 8.1L64.9 344Zm47.5-16.6c1.6 1.6 2.8 3.6 3.7 5.7c.9 2.2 1.3 4.7 1.3 7.4v11c0 1.5-.8 3.4-2.5 5.8c-1.6 2.4-3.6 4.5-5.8 6.2c-2.5 2-4.6 3-6.4 3c-2.1 0-4.4-.6-6.8-1.8c-2.1-1.1-5.4-3.1-9.8-6.2l1.5-2.2c2.1 1.4 3.9 2.4 5.2 2.9c1.3 .5 2.7 .7 4.2 .7c1.7 0 3.3-.4 5-1.4c1.6-.9 3.9-2.6 6.7-5.2c4-3.5 5.9-6.2 5.9-8.1c0-1-.3-2.2-1.1-3.8c-.9-1.7-1.9-3.2-3.1-4.4Zm-54.5-4.9c1.1 0 2.9 .1 5.4 .4c2.5 .2 4.7 .4 6.6 .5c3.7 .2 7.2 .4 10.8 .4l-2.2 8.8c-9.1 1.1-16.1 3.3-20.9 6.6c-4.8 3.3-7.2 7.4-7.2 12.5c0 4.8 2 8.4 5.9 11c4 2.5 9.6 3.8 17.1 3.8c.2 0 2-.2 5.4-.4c1.9-.1 3.6-.1 5.1-.1l.7 1.5l-13.8 8.5c-8.5 0-14.8-1.6-18.8-4.8c-4.1-3.4-6.1-8.6-6.1-15.8c0-4.9 1-9.3 2.9-13.1c2-3.7 5.1-7.1 9.3-10.1c-2.8 0-5.3 .4-7.5 1.2c-.8 .3-2.6 1.1-5.4 2.4c1.2-8.9 5.4-13.3 12.7-13.3ZM167.4 300l8.4 4.4l-4.3 8l-8.4-4.3Zm-40.9-.9c1.4 1.9 2.4 3.8 2.9 5.6c.7 2.2 1 5 1 8.4v7c0 5 .3 8.5 1 10.4c.5 1.5 1.4 2.3 2.5 2.3h40.8c-2.8-3-5.5-5.1-8-6.4c-2.1-1.2-4.3-1.8-6.3-1.8c-.7 0-1.2 .1-1.7 .1c-.6 .1-1.3 .2-2.3 .4c1.3-3 2.8-5.2 4.4-6.6c1.6-1.5 3.5-2.2 5.5-2.2c1.6 0 3.1 .4 4.6 1.2c1.4 .7 3 2 4.9 3.7c1.4 1.3 3.4 3.4 6 6.2c1.8 2 3.2 3.3 4.1 3.9c1 .6 2.4 1.1 4.3 1.5v9.8H133.9c-2.8 0-4.8-1.2-6-3.5c-1.4-2.5-2.1-6.8-2.1-12.8V316.1c0-2.3-.3-4.1-1-5.4c-.3-.6-1-1.5-2.1-2.7Z" class="g0_51"/>
<path d="M69.2 335.9l8.3 4.4l-4.3 8.1L64.9 344Zm47.5-16.6c1.6 1.6 2.8 3.6 3.7 5.7c.9 2.2 1.3 4.7 1.3 7.4v11c0 1.5-.8 3.4-2.5 5.8c-1.6 2.4-3.6 4.5-5.8 6.2c-2.5 2-4.6 3-6.4 3c-2.1 0-4.4-.6-6.8-1.8c-2.1-1.1-5.4-3.1-9.8-6.2l1.5-2.2c2.1 1.4 3.9 2.4 5.2 2.9c1.3 .5 2.7 .7 4.2 .7c1.7 0 3.3-.4 5-1.4c1.6-.9 3.9-2.6 6.7-5.2c4-3.5 5.9-6.2 5.9-8.1c0-1-.3-2.2-1.1-3.8c-.9-1.7-1.9-3.2-3.1-4.4Zm-54.5-4.9c1.1 0 2.9 .1 5.4 .4c2.5 .2 4.7 .4 6.6 .5c3.7 .2 7.2 .4 10.8 .4l-2.2 8.8c-9.1 1.1-16.1 3.3-20.9 6.6c-4.8 3.3-7.2 7.4-7.2 12.5c0 4.8 2 8.4 5.9 11c4 2.5 9.6 3.8 17.1 3.8c.2 0 2-.2 5.4-.4c1.9-.1 3.6-.1 5.1-.1l.7 1.5l-13.8 8.5c-8.5 0-14.8-1.6-18.8-4.8c-4.1-3.4-6.1-8.6-6.1-15.8c0-4.9 1-9.3 2.9-13.1c2-3.7 5.1-7.1 9.3-10.1c-2.8 0-5.3 .4-7.5 1.2c-.8 .3-2.6 1.1-5.4 2.4c1.2-8.9 5.4-13.3 12.7-13.3ZM167.4 300l8.4 4.4l-4.3 8l-8.4-4.3Zm-40.9-.9c1.4 1.9 2.4 3.8 2.9 5.6c.7 2.2 1 5 1 8.4v7c0 5 .3 8.5 1 10.4c.5 1.5 1.4 2.3 2.5 2.3h40.8c-2.8-3-5.5-5.1-8-6.4c-2.1-1.2-4.3-1.8-6.3-1.8c-.7 0-1.2 .1-1.7 .1c-.6 .1-1.3 .2-2.3 .4c1.3-3 2.8-5.2 4.4-6.6c1.6-1.5 3.5-2.2 5.5-2.2c1.6 0 3.1 .4 4.6 1.2c1.4 .7 3 2 4.9 3.7c1.4 1.3 3.4 3.4 6 6.2c1.8 2 3.2 3.3 4.1 3.9c1 .6 2.4 1.1 4.3 1.5v9.8H133.9c-2.8 0-4.8-1.2-6-3.5c-1.4-2.5-2.1-6.8-2.1-12.8V316.1c0-2.3-.3-4.1-1-5.4c-.3-.6-1-1.5-2.1-2.7Z" class="g1_51"/>
<path fill-rule="evenodd" d="M1359.4 433.2l6.7 3.7l-3.7 6.9l-5.3-2.6l-3 5.8l-6.5-3.7l3.9-7.3l5.1 2.9Zm-142.2 0l6.6 3.7l-3.7 6.9l-5.3-2.6l-3 5.8l-6.5-3.7l3.9-7.3l5.1 2.9Zm-181.5-11.1c1.2 0 2.2 .5 3.1 1.3c.8 .9 1.2 2 1.2 3.2c0 1.2-.4 2.2-1.3 3.1c-.8 .9-1.9 1.3-3.1 1.3c-1.2 0-2.2-.4-3.1-1.3c-.8-.9-1.3-1.9-1.3-3.1c0-1.3 .5-2.3 1.3-3.2c.9-.8 2-1.3 3.2-1.3Zm59.6-8.4c-1.6 0-3.4 .5-5.3 1.6c-2 1-4.8 2.8-8.6 5.5h9.4c7.9 0 11.8-1.2 11.8-3.6c0-.9-.9-1.6-2.6-2.4c-1.8-.7-3.4-1.1-4.7-1.1Zm25.1-4.5c-.5 0-.9 .1-1.2 .5c-.4 .3-.6 .6-.6 1.1c0 1 .8 2 2.3 3c1.6 .9 3.4 1.6 5.5 1.9c-.8-2.1-1.8-3.6-2.8-4.8c-1.1-1.1-2.2-1.7-3.2-1.7Zm211.7-3.2c-.7 .4-1.3 .7-1.8 .9c-1.3 .7-2.3 1.3-3.1 1.9c-.6 .5-1.1 1-1.5 1.4c-.4 .5-.7 .9-.7 1.1c0 .4 .5 .6 1.3 .8c.8 .2 1.6 .3 2.5 .3c.5 0 1-.1 1.6-.4c.6-.3 1.4-.9 2.4-1.7Zm-142.2 0c-.8 .4-1.4 .7-1.8 .9c-1.4 .7-2.4 1.3-3.2 1.9c-.6 .5-1 1-1.4 1.4c-.5 .5-.7 .9-.7 1.1c0 .4 .4 .6 1.2 .8c.9 .2 1.7 .3 2.5 .3c.5 0 1.1-.1 1.6-.4c.6-.3 1.4-.9 2.5-1.7Zm-47.3-2.5c-.7 0-1.3 .3-1.9 .9c-.6 .7-.9 1.4-.9 2.3c0 .5 .3 1 .7 1.4c.4 .3 1 .5 1.7 .5c.5 0 1.1-.1 1.7-.5c.5-.3 1.2-.8 2-1.6c-.6-1.1-1.2-1.9-1.7-2.4c-.5-.4-1-.6-1.6-.6Zm-106.4-14.6c2.9 0 5.3 .8 7.3 2.4c2 1.7 3.1 3.8 3.1 6.5c0 1.4-.5 2.8-1.3 3.9c-1 1.2-2.3 1.9-3.8 1.9c-1.2 0-2.2-.4-3-1.2c-.8-.8-1.2-1.7-1.2-2.8c0-1.6 .7-2.8 2-3.6c1.3-.8 2-1.5 2-2c0-.8-.4-1.5-1.2-2c-.7-.5-1.7-.8-3-.8c-1.5 0-2.8 .5-3.8 1.4c-1 .8-1.5 1.9-1.5 3.2c0 1.1 .5 2.6 1.5 4.4c1.6 2.8 2.5 4.6 2.8 5.4c1 2.5 1.5 5.2 1.5 8.1c0 1.6-.1 3.4-.3 5.3h-2.2c0-.4 0-.8 0-1l.2-1.9c0-1.3-.9-2.8-2.6-4.3c-3.1-2.7-4.7-4.2-5-4.5c-1.8-2.2-2.7-4.6-2.7-7.2c0-3.2 1.1-5.9 3.3-8c2.1-2.2 4.8-3.2 7.9-3.2Zm363.4-.9l8.4 4.4l-4.3 8l-8.4-4.3Zm49-.9l2.2 12.7c.8 4.8 1.3 9 1.6 12.5c.3 2.7 .4 5.3 .4 7.8c0 2.2-.3 4.1-.8 5.9c-.5 1.7-1.4 4.1-2.9 7l-2.1-.8c.6-3.1 .8-5.6 .8-7.5c0-1.4-.1-3.6-.3-6.4c-.3-2.8-.6-5.6-.9-8.3c-.4-2.8-1-6.1-1.8-9.9c-.3-1.3-.4-2.3-.4-2.8c0-.7 .4-2 1.1-3.7c.8-1.8 1.8-4 3.1-6.5Zm-159.5 0l2.2 12.7c.8 4.8 1.3 9 1.6 12.5c.3 2.7 .4 5.3 .4 7.8c0 2.2-.3 4.1-.8 5.9c-.5 1.7-1.4 4.1-2.9 7l-2.1-.8c.6-3.1 .8-5.6 .8-7.5c0-1.4-.1-3.6-.3-6.4c-.3-2.8-.6-5.6-.9-8.3c-.4-2.8-1-6.1-1.8-9.9c-.3-1.3-.4-2.3-.4-2.8c0-.7 .4-2 1.1-3.7c.8-1.8 1.8-4 3.1-6.5Zm87.4-2.8l1.6 .8c0 .2 0 .6-.1 1.2c0 .8 .5 1.5 1.5 2.3c.8 .6 2.3 1.4 4.2 2.2c-.2 1.5-.5 3-1 4.5c-.4 1.4-.9 2.7-1.4 3.9l-1.3-.5l3.9 22.1h23c-2.9-3-5.5-5.1-8-6.4c-2.2-1.2-4.3-1.8-6.4-1.8c-.6 0-1.2 .1-1.7 .1c-.5 .1-1.2 .2-2.2 .4c1.3-3 2.8-5.2 4.4-6.6c1.6-1.5 3.4-2.2 5.5-2.2c1.6 0 3.1 .4 4.5 1.2c1.5 .7 3.1 2 4.9 3.7c1.5 1.3 3.5 3.4 6.1 6.2c1.8 2 3.2 3.3 4.1 3.9c1 .6 2.4 1.1 4.3 1.5h12.8l-4.3-24.3l-2.3-1.5c0-1.4 .2-2.8 .6-4.3c.6-1.8 1.5-3.9 2.8-6.4l1.7 .8c0 .2-.1 .6-.2 1.2c0 .8 .5 1.5 1.5 2.3c.9 .6 2.3 1.4 4.2 2.2c-.2 1.5-.5 3-.9 4.5c-.4 1.4-.9 2.7-1.4 3.9l-1.3-.5l3.9 22.1v9.8h-97.4c-.9 0-1.7-.2-2.4-.6c-1.4-.7-2.5-1.9-3.5-3.8c-1.3-2.5-2.1-6-2.5-10.4c-1.6 2-2.9 3.5-3.8 4.3c-1.3 1.2-2.4 1.8-3.3 1.8c-.4 0-1 0-1.7-.2l-4.4-.8c-1.8-.4-3-.7-3.4-.9c-.4-.1-.7-.4-.7-.9c0-.6 .9-2.6 2.5-6.1c1.7-3.4 2.9-5.5 3.6-6.3c.6-.7 1.7-1.5 3.2-2.5c.9-.7 2.2-1.4 3.9-2.4l1.9-1.1c-.1-.4-.1-.7-.2-1c0-.4 0-.7 0-1c0-.9 .2-2.1 .6-3.5c.4-1.3 1.2-3 2.2-5.1l3.5 22.4c.5 3.5 1.2 5.9 2.1 7.1c.6 .8 1.4 1.2 2.4 1.2h21c-.3-1.6-.8-3-1.4-4.1c-.4-.6-1.2-1.7-2.5-3.2l2.8-8.5c1.8 2 3 4.1 3.7 6.3c.6 2 .9 4.7 1 8.3v1.2h12.9l-4.3-24.3L1373 395c0-1.4 .2-2.8 .7-4.3c.5-1.8 1.4-3.9 2.8-6.4Zm-104 0l1.7 .8c0 .2-.1 .6-.2 1.2c0 .8 .5 1.5 1.5 2.3c.9 .6 2.3 1.4 4.2 2.2c-.2 1.5-.5 3-.9 4.5c-.4 1.4-.9 2.7-1.4 3.9l-1.3-.5l3.9 22.1v9.8h-80.2c-.8 0-1.6-.2-2.4-.6c-1.3-.7-2.5-1.9-3.5-3.8c-1.3-2.5-2.1-6-2.5-10.4c-1.6 2-2.8 3.5-3.8 4.3c-1.3 1.2-2.4 1.8-3.3 1.8c-.4 0-1 0-1.7-.2l-4.3-.8c-1.9-.4-3.1-.7-3.5-.9c-.4-.1-.6-.4-.6-.9c0-.6 .8-2.6 2.5-6.1c1.6-3.4 2.8-5.5 3.6-6.3c.6-.7 1.6-1.5 3.1-2.5c.9-.7 2.2-1.4 3.9-2.4l1.9-1.1c-.1-.4-.1-.7-.1-1c-.1-.4-.1-.7-.1-1c0-.9 .2-2.1 .6-3.5c.4-1.3 1.2-3 2.3-5.1l3.4 22.4c.6 3.5 1.3 5.9 2.1 7.1c.6 .8 1.4 1.2 2.4 1.2h21c-.2-1.6-.7-3-1.4-4.1c-.4-.6-1.2-1.7-2.5-3.2l2.8-8.5c1.9 2 3.1 4.1 3.7 6.3c.6 2 .9 4.7 1 8.3v1.2h23c-2.9-3-5.5-5.1-8-6.4c-2.2-1.2-4.3-1.8-6.4-1.8c-.6 0-1.2 .1-1.7 .1c-.5 .1-1.2 .2-2.2 .4c1.3-3 2.8-5.2 4.4-6.6c1.6-1.5 3.4-2.2 5.5-2.2c1.6 0 3.1 .4 4.5 1.2c1.5 .7 3.1 2 4.9 3.7c1.5 1.3 3.5 3.4 6.1 6.2c1.8 2 3.2 3.3 4.1 3.9c1 .6 2.4 1.1 4.3 1.5h12.8l-4.3-24.3l-2.3-1.5c0-1.4 .2-2.8 .6-4.3c.6-1.8 1.5-3.9 2.8-6.4Zm-152.3-.5l6.7 3.7l-3.8 6.9l-5.3-2.6l-3 5.8l-6.5-3.7l3.9-7.3l5.1 2.9Zm-42-2.3l1.6 .6c0 .2 0 .5-.1 .9c0 .9 1.2 1.9 3.5 3c.8 .4 2 .9 3.6 1.5c-.3 1.9-.6 3.6-1.2 5.2c-.2 .8-.7 2.1-1.4 3.8l-1.3-.4c.8 3.4 1.3 5.9 1.5 7.5c.2 1.6 .4 3 .4 4.3v.4c0 .7 0 1.2-.1 1.6c0 .4-.1 1-.3 1.9c1.3-.9 2.5-1.9 3.8-2.8c1.9-1.3 3.6-2.4 5.2-3.3c2-1.1 3.5-1.6 4.6-1.6c2.8 0 5 .7 6.7 2.2c1.9 1.6 2.9 4 2.9 7.1v7.4h3.9c1.1 0 2.1 .1 3.1 .2c2.6 .3 5.6 .6 9 .9c-3.6-.8-6.1-1.8-7.5-3.1c-1.4-1.3-2.1-3.2-2.1-5.7c0-3.7 .8-7 2.5-10c1.7-3 3.7-4.4 5.8-4.4c2.4 0 4.5 2.1 6.3 6.2c1.8 4.2 2.7 9.2 2.7 15.1v.8h19c0-2.1 0-3.5-.2-4.4c-.1-1.4-.5-2.6-1.1-3.6c-.8 1.5-1.8 2.6-3.1 3.4c-1.3 .8-2.7 1.2-4.1 1.2c-1.9 0-3.5-.6-4.9-1.9c-1.3-1.2-1.9-2.8-1.9-4.7c0-2.9 .8-6.2 2.5-10.1c1.9-4.2 3.8-6.3 5.8-6.3c2.5 0 4.8 2.1 7.1 6.5c2.2 4.4 3.3 9 3.3 13.9v15.8h-87v-9.8h4.8c.5 0 2.1-1 4.8-3c.9-.6 2.1-1.6 3.8-2.9c0-3-.1-5.5-.3-7.5c-.2-2-.6-4.1-1-6.3c-.2-.6-.8-3.2-2-7.8l-2.1-1.3c.6-2.5 1.1-4.3 1.4-5.4c.4-1.1 1.1-2.8 2.1-5.1Zm62-2.7l8.3 4.4l-4.3 8l-8.4-4.4Zm191.9-1.8l6.4 3.4l-3.9 6.6l-5.1-2.8l-2.9 5.6l-6.6-3.6l3.7-6.3l5.3 2.6Zm-142.3 0l6.4 3.4l-3.9 6.6l-5.1-2.8l-2.9 5.6l-6.6-3.6l3.7-6.3l5.3 2.6Z" class="g0_51"/>
<path d="M1359.4 433.2l6.7 3.7l-3.7 6.9l-5.3-2.6l-3 5.8l-6.5-3.7l3.9-7.3l5.1 2.9Zm-142.2 0l6.6 3.7l-3.7 6.9l-5.3-2.6l-3 5.8l-6.5-3.7l3.9-7.3l5.1 2.9Zm-181.5-11.1c1.2 0 2.2 .5 3.1 1.3c.8 .9 1.2 2 1.2 3.2c0 1.2-.4 2.2-1.3 3.1c-.8 .9-1.9 1.3-3.1 1.3c-1.2 0-2.2-.4-3.1-1.3c-.8-.9-1.3-1.9-1.3-3.1c0-1.3 .5-2.3 1.3-3.2c.9-.8 2-1.3 3.2-1.3Zm59.6-8.4c-1.6 0-3.4 .5-5.3 1.6c-2 1-4.8 2.8-8.6 5.5h9.4c7.9 0 11.8-1.2 11.8-3.6c0-.9-.9-1.6-2.6-2.4c-1.8-.7-3.4-1.1-4.7-1.1Zm25.1-4.5c-.5 0-.9 .1-1.2 .5c-.4 .3-.6 .6-.6 1.1c0 1 .8 2 2.3 3c1.6 .9 3.4 1.6 5.5 1.9c-.8-2.1-1.8-3.6-2.8-4.8c-1.1-1.1-2.2-1.7-3.2-1.7Zm211.7-3.2c-.7 .4-1.3 .7-1.8 .9c-1.3 .7-2.3 1.3-3.1 1.9c-.6 .5-1.1 1-1.5 1.4c-.4 .5-.7 .9-.7 1.1c0 .4 .5 .6 1.3 .8c.8 .2 1.6 .3 2.5 .3c.5 0 1-.1 1.6-.4c.6-.3 1.4-.9 2.4-1.7Zm-142.2 0c-.8 .4-1.4 .7-1.8 .9c-1.4 .7-2.4 1.3-3.2 1.9c-.6 .5-1 1-1.4 1.4c-.5 .5-.7 .9-.7 1.1c0 .4 .4 .6 1.2 .8c.9 .2 1.7 .3 2.5 .3c.5 0 1.1-.1 1.6-.4c.6-.3 1.4-.9 2.5-1.7Zm-47.3-2.5c-.7 0-1.3 .3-1.9 .9c-.6 .7-.9 1.4-.9 2.3c0 .5 .3 1 .7 1.4c.4 .3 1 .5 1.7 .5c.5 0 1.1-.1 1.7-.5c.5-.3 1.2-.8 2-1.6c-.6-1.1-1.2-1.9-1.7-2.4c-.5-.4-1-.6-1.6-.6Zm-106.4-14.6c2.9 0 5.3 .8 7.3 2.4c2 1.7 3.1 3.8 3.1 6.5c0 1.4-.5 2.8-1.3 3.9c-1 1.2-2.3 1.9-3.8 1.9c-1.2 0-2.2-.4-3-1.2c-.8-.8-1.2-1.7-1.2-2.8c0-1.6 .7-2.8 2-3.6c1.3-.8 2-1.5 2-2c0-.8-.4-1.5-1.2-2c-.7-.5-1.7-.8-3-.8c-1.5 0-2.8 .5-3.8 1.4c-1 .8-1.5 1.9-1.5 3.2c0 1.1 .5 2.6 1.5 4.4c1.6 2.8 2.5 4.6 2.8 5.4c1 2.5 1.5 5.2 1.5 8.1c0 1.6-.1 3.4-.3 5.3h-2.2c0-.4 0-.8 0-1l.2-1.9c0-1.3-.9-2.8-2.6-4.3c-3.1-2.7-4.7-4.2-5-4.5c-1.8-2.2-2.7-4.6-2.7-7.2c0-3.2 1.1-5.9 3.3-8c2.1-2.2 4.8-3.2 7.9-3.2Zm363.4-.9l8.4 4.4l-4.3 8l-8.4-4.3Zm49-.9l2.2 12.7c.8 4.8 1.3 9 1.6 12.5c.3 2.7 .4 5.3 .4 7.8c0 2.2-.3 4.1-.8 5.9c-.5 1.7-1.4 4.1-2.9 7l-2.1-.8c.6-3.1 .8-5.6 .8-7.5c0-1.4-.1-3.6-.3-6.4c-.3-2.8-.6-5.6-.9-8.3c-.4-2.8-1-6.1-1.8-9.9c-.3-1.3-.4-2.3-.4-2.8c0-.7 .4-2 1.1-3.7c.8-1.8 1.8-4 3.1-6.5Zm-159.5 0l2.2 12.7c.8 4.8 1.3 9 1.6 12.5c.3 2.7 .4 5.3 .4 7.8c0 2.2-.3 4.1-.8 5.9c-.5 1.7-1.4 4.1-2.9 7l-2.1-.8c.6-3.1 .8-5.6 .8-7.5c0-1.4-.1-3.6-.3-6.4c-.3-2.8-.6-5.6-.9-8.3c-.4-2.8-1-6.1-1.8-9.9c-.3-1.3-.4-2.3-.4-2.8c0-.7 .4-2 1.1-3.7c.8-1.8 1.8-4 3.1-6.5Zm87.4-2.8l1.6 .8c0 .2 0 .6-.1 1.2c0 .8 .5 1.5 1.5 2.3c.8 .6 2.3 1.4 4.2 2.2c-.2 1.5-.5 3-1 4.5c-.4 1.4-.9 2.7-1.4 3.9l-1.3-.5l3.9 22.1h23c-2.9-3-5.5-5.1-8-6.4c-2.2-1.2-4.3-1.8-6.4-1.8c-.6 0-1.2 .1-1.7 .1c-.5 .1-1.2 .2-2.2 .4c1.3-3 2.8-5.2 4.4-6.6c1.6-1.5 3.4-2.2 5.5-2.2c1.6 0 3.1 .4 4.5 1.2c1.5 .7 3.1 2 4.9 3.7c1.5 1.3 3.5 3.4 6.1 6.2c1.8 2 3.2 3.3 4.1 3.9c1 .6 2.4 1.1 4.3 1.5h12.8l-4.3-24.3l-2.3-1.5c0-1.4 .2-2.8 .6-4.3c.6-1.8 1.5-3.9 2.8-6.4l1.7 .8c0 .2-.1 .6-.2 1.2c0 .8 .5 1.5 1.5 2.3c.9 .6 2.3 1.4 4.2 2.2c-.2 1.5-.5 3-.9 4.5c-.4 1.4-.9 2.7-1.4 3.9l-1.3-.5l3.9 22.1v9.8h-97.4c-.9 0-1.7-.2-2.4-.6c-1.4-.7-2.5-1.9-3.5-3.8c-1.3-2.5-2.1-6-2.5-10.4c-1.6 2-2.9 3.5-3.8 4.3c-1.3 1.2-2.4 1.8-3.3 1.8c-.4 0-1 0-1.7-.2l-4.4-.8c-1.8-.4-3-.7-3.4-.9c-.4-.1-.7-.4-.7-.9c0-.6 .9-2.6 2.5-6.1c1.7-3.4 2.9-5.5 3.6-6.3c.6-.7 1.7-1.5 3.2-2.5c.9-.7 2.2-1.4 3.9-2.4l1.9-1.1c-.1-.4-.1-.7-.2-1c0-.4 0-.7 0-1c0-.9 .2-2.1 .6-3.5c.4-1.3 1.2-3 2.2-5.1l3.5 22.4c.5 3.5 1.2 5.9 2.1 7.1c.6 .8 1.4 1.2 2.4 1.2h21c-.3-1.6-.8-3-1.4-4.1c-.4-.6-1.2-1.7-2.5-3.2l2.8-8.5c1.8 2 3 4.1 3.7 6.3c.6 2 .9 4.7 1 8.3v1.2h12.9l-4.3-24.3L1373 395c0-1.4 .2-2.8 .7-4.3c.5-1.8 1.4-3.9 2.8-6.4Zm-104 0l1.7 .8c0 .2-.1 .6-.2 1.2c0 .8 .5 1.5 1.5 2.3c.9 .6 2.3 1.4 4.2 2.2c-.2 1.5-.5 3-.9 4.5c-.4 1.4-.9 2.7-1.4 3.9l-1.3-.5l3.9 22.1v9.8h-80.2c-.8 0-1.6-.2-2.4-.6c-1.3-.7-2.5-1.9-3.5-3.8c-1.3-2.5-2.1-6-2.5-10.4c-1.6 2-2.8 3.5-3.8 4.3c-1.3 1.2-2.4 1.8-3.3 1.8c-.4 0-1 0-1.7-.2l-4.3-.8c-1.9-.4-3.1-.7-3.5-.9c-.4-.1-.6-.4-.6-.9c0-.6 .8-2.6 2.5-6.1c1.6-3.4 2.8-5.5 3.6-6.3c.6-.7 1.6-1.5 3.1-2.5c.9-.7 2.2-1.4 3.9-2.4l1.9-1.1c-.1-.4-.1-.7-.1-1c-.1-.4-.1-.7-.1-1c0-.9 .2-2.1 .6-3.5c.4-1.3 1.2-3 2.3-5.1l3.4 22.4c.6 3.5 1.3 5.9 2.1 7.1c.6 .8 1.4 1.2 2.4 1.2h21c-.2-1.6-.7-3-1.4-4.1c-.4-.6-1.2-1.7-2.5-3.2l2.8-8.5c1.9 2 3.1 4.1 3.7 6.3c.6 2 .9 4.7 1 8.3v1.2h23c-2.9-3-5.5-5.1-8-6.4c-2.2-1.2-4.3-1.8-6.4-1.8c-.6 0-1.2 .1-1.7 .1c-.5 .1-1.2 .2-2.2 .4c1.3-3 2.8-5.2 4.4-6.6c1.6-1.5 3.4-2.2 5.5-2.2c1.6 0 3.1 .4 4.5 1.2c1.5 .7 3.1 2 4.9 3.7c1.5 1.3 3.5 3.4 6.1 6.2c1.8 2 3.2 3.3 4.1 3.9c1 .6 2.4 1.1 4.3 1.5h12.8l-4.3-24.3l-2.3-1.5c0-1.4 .2-2.8 .6-4.3c.6-1.8 1.5-3.9 2.8-6.4Zm-152.3-.5l6.7 3.7l-3.8 6.9l-5.3-2.6l-3 5.8l-6.5-3.7l3.9-7.3l5.1 2.9Zm-42-2.3l1.6 .6c0 .2 0 .5-.1 .9c0 .9 1.2 1.9 3.5 3c.8 .4 2 .9 3.6 1.5c-.3 1.9-.6 3.6-1.2 5.2c-.2 .8-.7 2.1-1.4 3.8l-1.3-.4c.8 3.4 1.3 5.9 1.5 7.5c.2 1.6 .4 3 .4 4.3v.4c0 .7 0 1.2-.1 1.6c0 .4-.1 1-.3 1.9c1.3-.9 2.5-1.9 3.8-2.8c1.9-1.3 3.6-2.4 5.2-3.3c2-1.1 3.5-1.6 4.6-1.6c2.8 0 5 .7 6.7 2.2c1.9 1.6 2.9 4 2.9 7.1v7.4h3.9c1.1 0 2.1 .1 3.1 .2c2.6 .3 5.6 .6 9 .9c-3.6-.8-6.1-1.8-7.5-3.1c-1.4-1.3-2.1-3.2-2.1-5.7c0-3.7 .8-7 2.5-10c1.7-3 3.7-4.4 5.8-4.4c2.4 0 4.5 2.1 6.3 6.2c1.8 4.2 2.7 9.2 2.7 15.1v.8h19c0-2.1 0-3.5-.2-4.4c-.1-1.4-.5-2.6-1.1-3.6c-.8 1.5-1.8 2.6-3.1 3.4c-1.3 .8-2.7 1.2-4.1 1.2c-1.9 0-3.5-.6-4.9-1.9c-1.3-1.2-1.9-2.8-1.9-4.7c0-2.9 .8-6.2 2.5-10.1c1.9-4.2 3.8-6.3 5.8-6.3c2.5 0 4.8 2.1 7.1 6.5c2.2 4.4 3.3 9 3.3 13.9v15.8h-87v-9.8h4.8c.5 0 2.1-1 4.8-3c.9-.6 2.1-1.6 3.8-2.9c0-3-.1-5.5-.3-7.5c-.2-2-.6-4.1-1-6.3c-.2-.6-.8-3.2-2-7.8l-2.1-1.3c.6-2.5 1.1-4.3 1.4-5.4c.4-1.1 1.1-2.8 2.1-5.1Zm62-2.7l8.3 4.4l-4.3 8l-8.4-4.4Zm191.9-1.8l6.4 3.4l-3.9 6.6l-5.1-2.8l-2.9 5.6l-6.6-3.6l3.7-6.3l5.3 2.6Zm-142.3 0l6.4 3.4l-3.9 6.6l-5.1-2.8l-2.9 5.6l-6.6-3.6l3.7-6.3l5.3 2.6Z" class="g1_51"/>
<image clip-path="url(#c1_51)" preserveAspectRatio="none" x="1344" y="457" width="108" height="72" href="img/2.jpg"/>
<image clip-path="url(#c2_51)" preserveAspectRatio="none" x="1347" y="550" width="102" height="71" href="img/3.jpg"/>
<image clip-path="url(#c3_51)" preserveAspectRatio="none" x="1347" y="642" width="102" height="74" href="img/4.jpg"/>
<image clip-path="url(#c4_51)" preserveAspectRatio="none" x="1353" y="745" width="96" height="80" href="img/5.jpg"/>
</svg>