<svg viewBox="0 0 1466 825" version="1.1" xmlns="http://www.w3.org/2000/svg">
<defs>
<clipPath id="c0_99"><path d="M-.2 825.3V-.2H1467V825.3Z"/></clipPath>
<clipPath id="c1_99"><path d="M1343.9 529.1V456.4H1452v72.7Z"/></clipPath>
<clipPath id="c2_99"><path d="M1346.3 621.3V549.7h102.9v71.6Z"/></clipPath>
<clipPath id="c3_99"><path d="M1346.4 716.6V641.9h103v74.7Z"/></clipPath>
<clipPath id="c4_99"><path d="M1353 825V744.6h96.2V825Z"/></clipPath>
<style>
.g0_99{fill:#F00;}
</style>
</defs>
<image clip-path="url(#c0_99)" preserveAspectRatio="none" x="0" y="-7" width="1467" height="840" href="img/1.jpg"/>
<image clip-path="url(#c1_99)" preserveAspectRatio="none" x="1344" y="457" width="108" height="72" href="img/2.jpg"/>
<image clip-path="url(#c2_99)" preserveAspectRatio="none" x="1347" y="550" width="102" height="71" href="img/3.jpg"/>
<image clip-path="url(#c3_99)" preserveAspectRatio="none" x="1347" y="642" width="102" height="74" href="img/4.jpg"/>
<image clip-path="url(#c4_99)" preserveAspectRatio="none" x="1353" y="745" width="96" height="80" href="img/5.jpg"/>
<path d="M291.9 453.5l-1.3 1l-.1 .1l-3.2 3.2l-.2 .2l-2.8 3.8l-3.1 3.9l-.2 .2l-2.5 4.5v.1l-2.2 4.5l.1-.1l-2.5 4.1l-.1 .2l-2 4.3v.1l-1.7 4.1l-1.5 3.9l-1.8 4.1l.1-.1l-1.9 3.8v-.1l-2.1 3.5l-.1 .1l-2.2 4l-1.6 2.8v-.1l-1.5 2.6l.1-.2l-1.3 1.6l.1-.2l-1.2 1.1l.2-.1l-.9 .6l.9-.3h-1.7l.7 .2l-1.6-.9l.2 .1l-2.6-2.2l.4 .5l-1.4-3l.1 .6l-.2-3.8v.2l.1-4.7l-.1 .5l1.6-4.1l.1-.6l-.2-5.7v.3l.5-5.1v.1l.7-4.7v-.1l.5-4.5l-.2 .5l1.4-3.2l.1-.3l.6-3.2v-.1l.3-2.6v-2.5l-.1-1.5v-1.2l-.1-.2l-.1-.3l.1 .6v-.3c.1-.7-.2-1.3-.8-1.6c-.6-.3-1.3-.2-1.8 .3c-.4 .5-.5 1.2-.2 1.8l.5 .8l-.1-.1l.9 1.6h-.1l1.4 2.9v-.1l1.4 3.7l2 5.1h.1l2.4 5.4v-.1l2.4 5.5l.1 .2l3.3 5.7l.2 .2l3.9 5.1l.1 .1l3.9 4.8l.1 .1l4.9 4.7h.1l4.8 4.1l.1 .2l4.7 3.1l.1 .1l4.8 2.3l.4 .2l2.9 .5c.6 .1 1.3-.2 1.7-.7c.4-.5 .5-1.2 .3-1.8c-.3-.6-.9-1.1-1.5-1.1l-2.9-.3l.6 .1l-4.7-2.3l.1 .1l-4.7-3l.2 .2l-4.7-4.2v.1l-4.9-4.7l.1 .2l-3.9-4.8l-3.9-5.1l.1 .2l-3.4-5.8l.1 .2l-2.5-5.5l-2.4-5.3v.1l-2-5.1l-1.5-3.6l-.1-.1l-1.4-3l-.9-1.6v-.1l-.5-.8c-.3-.5-1-.8-1.6-.6c-.6 .1-1.1 .6-1.2 1.2v.3c0 .3 0 .5 0 .7l.1 .3V464l.1 1.1V465v3.7v-.2l-.3 2.7v-.1l-.5 3.2l.1-.4l-1.3 3.2l-.2 .5l-.4 4.5V482l-.7 4.6v.1l-.5 5l-.1 .3l.3 5.6l.1-.6l-1.7 4.1l-.1 .6l-.1 4.6v.1l.2 3.7l.2 .5l1.3 3.1c.1 .2 .2 .4 .4 .5l2.6 2.3l.3 .2l1.6 .9c.2 .1 .5 .2 .7 .2l1.8 .1c.3 0 .6-.1 .9-.3l.9-.6l.2-.2l1.1-1.1l.1-.1L260 514l.2-.2l1.5-2.5l.1-.1l1.5-2.8l2.3-4l-.1 .1l2.2-3.6l.1-.1l1.9-3.8v-.1l1.7-4.1h.1l1.5-3.9l1.6-4.2v.1l2-4.3l-.1 .1l2.5-4.1l.1-.1l2.2-4.5h-.1l2.5-4.5l-.1 .2l3.1-3.9v-.1l2.8-3.8l-.1 .2l3.2-3.3l-.1 .2l1.3-1.1c.6-.5 .7-1.4 .2-2c-.5-.7-1.4-.8-2.1-.3Z" class="g0_99"/>
<path d="M259.1 641.3l.1 .8v-.2l.2 2.5V644l-.3 1.4l.1-.2l-.9 2.1l-1.2 2.6l.1-.1l-2 3.8l.1-.1l-2.8 4.4l.1-.1l-3.6 4.5l-.1 .1l-3.5 5l-3.6 5.6l-.1 .1l-2.9 5.5l-.1 .1l-2.2 5.5l.1-.1l-2.5 4.9l.1-.1l-2.1 3.4l.1-.1l-2.2 2.6l.1-.1l-1.8 1.8l.2-.2l-1.4 1.1l.2-.1l-1 .4l-.2 .1l-.5 .3l1.3-.1l-.9-.3l.4 .2l-.7-.5l.4 .5l-.8-1.4l-1.1-2.1l.2 .4l-.5-2.7v.1l-.4-3.1l.1 .1V685l-.1 .1l.3-4v.1l.4-4.3v.2l.8-4v.3l1-2.7l-.1 .2l1.4-2.7v.1l1.4-2.4l.1-.1l1.1-2.5l-.3 .4l1.9-1.9l.1-.2l1.4-2l-.4 .4l1.7-1.2l-.4 .2l1.9-.8l-.6 .2h1.5l-.6-.2l2 1l-.3-.3l2.8 2.4l-.1-.1l2.8 2.7h-.1l3.5 3.8l-.1-.1L250 672l-.2-.1l3.1 5.5l3.2 5.8l-.1-.1l2.9 6.3v-.1l2.7 6.5l.1 .1l3.1 6l3.1 6l3.1 5.9c.4 .7 1.3 .9 2 .6c.7-.4 1-1.3 .6-2l-3.1-5.9v.1l-2.9-6.1l-3.1-6v.1l-2.7-6.5V688l-2.9-6.3l-.1-.1l-3.1-5.7l-3.1-5.5l-.1-.2l-3.4-4.5l-.1-.1l-3.5-3.8v-.1l-2.8-2.7l-.1-.1l-2.8-2.3l-.4-.2l-2-1c-.2-.1-.4-.1-.7-.1h-1.5l-.6 .1l-1.8 .7l-.3 .2l-1.7 1.2l-.4 .4l-1.3 2l.2-.2l-1.9 2l-.3 .4l-1.1 2.4l.1-.1l-1.3 2.4h-.1l-1.4 2.7l-.1 .2l-1 2.6l-.1 .2l-.8 4v.1l-.5 4.3v.1l-.2 4v4.4l.3 3.1v.1l.5 2.7l.1 .4l1.1 2.2v.1l.9 1.4c.1 .2 .2 .4 .4 .5l.7 .5l.4 .2l.9 .3c.5 .1 1 0 1.4-.3l.5-.3l-.2 .1l1-.6l.2-.1l1.4-1.1l.2-.1l1.7-1.8l.1-.1l2.1-2.7l.1-.2l2.1-3.3l.1-.2l2.4-4.9l2.3-5.6l-.1 .2l2.9-5.6l-.1 .1l3.6-5.5l3.5-4.9l3.6-4.6l.1-.1l2.8-4.3v-.1l2-3.8V651l1.2-2.6l.9-2.2V646l.3-1.4l.1-.4l-.3-2.5l-.1-.9c-.1-.4-.4-.9-.8-1c-.5-.2-1-.1-1.4 .2c-.3 .3-.5 .8-.4 1.3Z" class="g0_99"/>
<path d="M116.8 741.4l.3 .2c.3 .1 .5 .1 .8 0c.2-.1 .4-.3 .5-.6v-.2c.1-.4 0-.8-.3-1c-.3-.3-.7-.3-1-.1c-.4 .2-.6 .5-.5 .9v.2v-.1v.1l.2 .6l.2 .3l-.1-.1l.2 .4l-.1-.3v.3l.2-.7l-.1 .2l-.1 .2l-.3 .8l.1-.2l-.5 1l-.1 .1l-.6 1.5l-.1 .4l-.3 2.3v-.1l-.4 2.2v-.1l-.7 2.2l-.1 .2l-.4 2.5l.1-.2l-.8 2.3l-.9 2.3v.3l-.5 2.7l.1-.4l-1 2.5v-.1l-1.4 2.5l-.1 .2l-1 2.9l.1-.3l-1.5 2.7v-.1l-1.6 2.4l-.1 .2l-1.7 3.1l-1.5 2.7l.1-.2l-1.7 2.1h-.1L98.6 784l.3-.3l-1 .7l.2-.2l-1.1 .5c-.2 .1-.4 .2-.6 .4l-.3 .4c-.3 .3-.4 .6-.4 1c0 .7 .5 1.3 1.1 1.4c.7 .2 1.4-.2 1.7-.8c.2-.7 0-1.4-.6-1.8l-.1-.1l.5 .8l-.2-.7l-.2-.9v.2l-.1-1.4v.1l-.1-1.3v.1v-2.7v.1l.1-1.1v.1l.1-1.2v.3l.3-.9L98 777l.5-.7l-.1 .1l.8-.8l-.2 .1l.9-.7l-.2 .1l1.5-.7l.4-.3l.9-1l-.2 .2l1.2-.9l-.4 .2l1.8-.7l1.8-.8l-.4 .1l2.4-.3h-.1l2.6-.2h2.2h-.3l2.9 .7l-.1-.1l3.5 1.1l-.5-.3l2.3 1.8h.1l3.3 2.3l-.3-.3l3 3.4l-.1-.1l2.6 3.9l.2 .2l4.4 4.7l-.1-.1l3.8 4.8l4.6 5.9l.1 .1l4.4 4.5l.2 .2l4 2.9c.7 .4 1.5 .3 2-.4c.5-.6 .3-1.5-.3-2l-4-2.9l.2 .2l-4.4-4.5l.1 .1l-4.5-6l-3.8-4.7l-.1-.1l-4.4-4.8l.1 .2l-2.6-3.9l-.1-.2l-3.1-3.4l-.2-.2l-3.3-2.3v.1l-2.3-1.8l-.4-.2l-3.5-1.1h-.1l-2.9-.7h-2.7l-2.7 .2h-.1l-2.5 .4l-.3 .1l-1.7 .7l-1.8 .7l-.3 .2l-1.2 .9l-.2 .2l-.9 .9l.4-.3l-1.5 .8l-.3 .2l-.9 .8l-.1 .1l-.8 .9l-.1 .1l-.5 .8l-.2 .4l-.3 .9v.3l-.1 1.2v.1l-.1 1v.1l.1 1.2v1.6l.1 1.3l.2 1.4v.1l.2 .9l.1 .7l.2 .6l.1 .1c.3 .4 .7 .7 1.2 .7h.1c.3 0 .7-.2 1-.4l.4-.4l-.5 .3l1.1-.4l.3-.2l1.1-.6l.3-.4l1.6-1.9l1.8-2.1l.1-.2l1.5-2.7l1.7-3.2l-.1 .1l1.7-2.4l.1-.1l1.5-2.7l.1-.2l1-2.9l-.1 .2l1.3-2.5l.1-.2l1-2.5l.1-.3l.4-2.7l-.1 .3l.9-2.4v-.1l.7-2.3v-.2l.4-2.5v.2l.7-2.2v-.2l.4-2.2v-.1l.2-2.4v.4l.6-1.6v.1l.4-1l.1-.3l.1-.8v-.8l-.2-.3V741l-.3-.3v-.1l-.2-.3l.1 .5v-.3l-.1-.3c-.1-.5-.7-.7-1.2-.6c-.5 .2-.7 .7-.6 1.2l.1 .2l.4-1l-.3 .2c-.2 .1-.4 .3-.4 .6c0 .3 .2 .5 .4 .6Z" class="g0_99"/>
</svg>