<svg viewBox="0 0 909 1286" version="1.1" xmlns="http://www.w3.org/2000/svg">
<defs>
<style>
.g0_5{fill:none;stroke:#000;stroke-width:1.527;stroke-linecap:round;stroke-miterlimit:10;}
.g1_5{fill:none;stroke:#000;stroke-width:1.527;stroke-linejoin:round;}
.g2_5{fill:#000;}
</style>
</defs>
<path d="M41.2 1233.6H864V34H41.2V1233.6Z" class="g0_5"/>
<path d="M40.2 66.7H863" class="g1_5"/>
<path fill-rule="evenodd" d="M736.2 97.3H849.5V95.1H736.2v2.2Z" class="g2_5"/>
<path fill-rule="evenodd" d="M350.8 131.7H592.1v-2.2H350.8v2.2Z" class="g2_5"/>
<path fill-rule="evenodd" d="M728.4 166.1H796v-2.2H728.4v2.2Z" class="g2_5"/>
<path fill-rule="evenodd" d="M735 269.2h59.9V267H735v2.2Z" class="g2_5"/>
<path fill-rule="evenodd" d="M343.5 475.5H598.9v-2.2H343.5v2.2Z" class="g2_5"/>
<path fill-rule="evenodd" d="M735 509.9h59.9v-2.2H735v2.2Z" class="g2_5"/>
<path fill-rule="evenodd" d="M748.2 716.2h46.7V714H748.2v2.2Z" class="g2_5"/>
<path fill-rule="evenodd" d="M391.5 785H646.7v-2.2H391.5V785Z" class="g2_5"/>
<path fill-rule="evenodd" d="M733.3 991.3h61.6v-2.2H733.3v2.2Z" class="g2_5"/>
</svg>