<svg viewBox="0 0 1466 825" version="1.1" xmlns="http://www.w3.org/2000/svg">
<defs>
<clipPath id="c0_39"><path d="M-.2 825.3V-.2H1467V825.3Z"/></clipPath>
<clipPath id="c1_39"><path d="M1343.9 529.1V456.4H1452v72.7Z"/></clipPath>
<clipPath id="c2_39"><path d="M1346.3 621.3V549.7h102.9v71.6Z"/></clipPath>
<clipPath id="c3_39"><path d="M1346.4 716.6V641.9h103v74.7Z"/></clipPath>
<clipPath id="c4_39"><path d="M1353 825V744.6h96.2V825Z"/></clipPath>
<style>
.g0_39{fill:#F00;}
.g1_39{fill:none;stroke:#000;stroke-width:1.466;stroke-linejoin:round;}
</style>
</defs>
<image clip-path="url(#c0_39)" preserveAspectRatio="none" x="0" y="-7" width="1467" height="840" href="img/1.jpg"/>
<path fill-rule="evenodd" d="M659.7 348.2l3.7 2.4l-2.9 3.3l-3.1-2l-2.4 2.5l-3.7-2l2.8-3.6l3.3 2.1ZM1263 335.6l6.9 3.7l-3.6 6.7l-6.9-3.7Zm-657.8 0l6.9 3.7l-3.6 6.7l-6.9-3.7Zm178-.3l7 3.7l-3.6 6.6l-7-3.6Zm433.6-15.4c-.6 0-1.1 .2-1.5 .7c-.3 .5-.5 1-.5 1.6c0 .7 .4 1.3 1.2 1.8c.8 .4 1.8 .7 3.1 .7h1.1c-.5-3.2-1.7-4.8-3.4-4.8Zm-179.1 0c-.6 0-1.1 .2-1.5 .7c-.3 .5-.5 1-.5 1.6c0 .7 .4 1.3 1.2 1.8c.7 .4 1.8 .7 3.1 .7h1.1c-.6-3.2-1.7-4.8-3.4-4.8Zm408.5-.2c-.8 0-1.4 .9-2 2.7c1.1 .4 1.8 .7 2.4 .9c1.6 .6 2.5 .9 2.7 .9c.4 0 .7-.2 .7-.5c0-.4-.5-1.2-1.3-2.2c-1-1.2-1.8-1.8-2.5-1.8Zm-149.2 0c-.8 0-1.5 .9-2 2.7c1 .4 1.8 .7 2.3 .9c1.7 .6 2.6 .9 2.8 .9c.4 0 .6-.2 .6-.5c0-.4-.4-1.2-1.3-2.2c-.9-1.2-1.8-1.8-2.4-1.8Zm-57.2 0c-.8 0-1.5 .9-2 2.7c1 .4 1.8 .7 2.3 .9c1.7 .6 2.6 .9 2.8 .9c.4 0 .6-.2 .6-.5c0-.4-.4-1.2-1.3-2.2c-.9-1.2-1.8-1.8-2.4-1.8Zm-387.8 0c-.8 0-1.4 .9-2 2.7c1.1 .4 1.9 .7 2.4 .9c1.6 .6 2.5 .9 2.7 .9c.4 0 .7-.2 .7-.5c0-.4-.5-1.2-1.3-2.2c-1-1.2-1.8-1.8-2.5-1.8Zm-85.6-.9c-1.3 0-2.8 .4-4.4 1.2c-1.6 .9-4 2.4-7.1 4.7h7.8c6.5 0 9.8-1.1 9.8-3.1c0-.7-.7-1.3-2.2-1.9c-1.5-.6-2.8-.9-3.9-.9Zm289-3.8c-.4 0-.8 .1-1.1 .4c-.3 .2-.4 .5-.4 .9c0 .8 .6 1.7 1.9 2.5c1.3 .8 2.8 1.3 4.6 1.6c-.7-1.7-1.5-3-2.4-4c-.9-.9-1.8-1.4-2.6-1.4Zm-84.6 0c-.4 0-.7 .1-1 .4c-.3 .2-.4 .5-.4 .9c0 .8 .6 1.7 1.9 2.5c1.3 .8 2.8 1.3 4.6 1.6c-.8-1.7-1.6-3-2.4-4c-.9-.9-1.8-1.4-2.7-1.4Zm-421.7-1.7c1.1 0 2 .5 2.7 1.4c.7 .9 1 2.1 1 3.6c0 1.1-.1 2-.3 2.7c-.2 .7-.7 1.6-1.4 2.8c-.6-1.4-1-2.3-1.4-2.8c-.3-.4-.9-.6-1.6-.6c-1 0-2.5 .6-4.4 1.8c-1.9 1.3-2.8 2.3-2.8 3.1c0 .5 .4 .8 1.1 .9c.6 .2 1.4 .2 2.5 .2c.3 0 .6 0 .9 0c.3 0 .6 0 .9 0c2.2 0 3.6 .2 4.3 .7c.6 .3 .9 1.1 .9 2.2c0 2.1-.4 4.2-1.1 6.1c-1 2.5-2.5 4.3-4.4 5.3c-2.3 1.4-4.8 2.4-7.4 3.2c-2.5 .9-4.9 1.3-7.1 1.3c-6.2 0-9.3-2.8-9.3-8.3c0-2.9 .4-5.3 1.1-7.3c.8-2.3 2.4-5.3 4.9-9.2l1.4 .9c-1.5 2.5-2.6 4.7-3.3 6.6c-.8 2-1.1 3.7-1.1 5.1c0 3.8 2.1 5.6 6.3 5.6c1.6 0 3.1-.1 4.5-.4c1.5-.3 2.9-.7 4.4-1.2c.9-.3 2-.8 3.3-1.3c1.9-.9 3-1.3 3.1-1.4c.9-.5 1.3-.9 1.3-1.3c0-.2-.4-.3-1.4-.4c-1 0-1.6 0-2 0c-3.1 0-5.1-.5-6.2-1.3c-.8-.8-1.2-2.1-1.2-4c0-.9 .2-2.1 .8-3.5c.6-1.4 1.4-2.7 2.4-4.1c1.4-2.1 2.9-3.7 4.3-4.7c1.5-1.1 2.9-1.7 4.3-1.7Zm183.4-.9c-.6 .2-1.1 .5-1.4 .7c-1.1 .5-2 1.1-2.7 1.6c-.4 .4-.8 .7-1.2 1.1c-.4 .4-.6 .7-.6 1c0 .2 .4 .5 1.1 .6c.7 .2 1.4 .3 2 .3c.5 0 .9-.2 1.4-.4c.5-.3 1.2-.7 2.1-1.4Zm382.5-.8l1.7 1.1c-.5 .8-.8 1.5-1.1 2.2c-.3 .6-.6 1.2-.7 1.7c-.3 .9-.4 1.8-.4 2.7c0 1.1 .3 2.1 1 3c.8 .9 1.7 1.5 2.9 1.8c.7 .2 1.6 .3 2.7 .4c1.1 .1 2.3 .2 3.5 .2h21.6c-.6-1.6-1-2.7-1.4-3.3c-.4-.7-1.1-1.7-2-2.8l2.7-7c1.5 2.2 2.4 4.1 2.9 5.9c.4 1.6 .6 3.9 .6 6.8v8.5h-25c-1.2 0-2.2 0-3-.1c-.8 0-1.4 0-1.8 0c-.8-.1-1.6-.3-2.5-.7c-1.7-.5-3-1.7-4.1-3.4c-1-1.7-1.6-3.6-1.6-5.7c0-.8 .1-1.7 .2-2.6c.1-.8 .4-1.8 .7-2.8c.4-1.2 .9-2.2 1.4-3.2c.5-.9 1.1-1.8 1.7-2.7Zm-203.1 0l1.6 1.1c-.4 .8-.8 1.5-1.1 2.2c-.3 .6-.5 1.2-.6 1.7c-.3 .9-.5 1.8-.5 2.7c0 1.1 .4 2.1 1.1 3c.7 .9 1.7 1.5 2.8 1.8c.7 .2 1.7 .3 2.8 .4c1.1 .1 2.3 .2 3.5 .2h21.6c-.6-1.6-1.1-2.7-1.4-3.3c-.5-.7-1.1-1.7-2-2.8l2.6-7c1.5 2.2 2.5 4.1 3 5.9c.4 1.6 .6 3.9 .6 6.8v8.5h-25c-1.3 0-2.3 0-3.1-.1c-.8 0-1.3 0-1.7 0c-.8-.1-1.6-.3-2.6-.7c-1.6-.5-3-1.7-4-3.4c-1.1-1.7-1.6-3.6-1.6-5.7c0-.8 .1-1.7 .2-2.6c.1-.8 .3-1.8 .7-2.8c.4-1.2 .8-2.2 1.4-3.2c.5-.9 1.1-1.8 1.7-2.7Zm349.2-.7c1.3 0 2.6 .3 3.8 1c1.2 .6 2.6 1.6 4.1 3.1c1.2 1.1 2.9 2.8 5.1 5.2c1.5 1.6 2.6 2.7 3.4 3.2c.8 .5 1.9 .9 3.5 1.3h3.8c1.8 0 3.2-.3 4.2-.7c1.4-.6 2.3-1.5 2.8-2.9c1.2-2.5 2.6-4.6 4.4-6.2c1.6-1.5 2.9-2.2 4-2.2c1 0 2.2 1.5 3.7 4.6c1.6 3.2 2.4 6.2 2.4 8.9v6.5c-2.1 0-4.6-.4-7.4-1.2c-2.5-.7-4.6-1.5-6.5-2.5c-1.2 1.7-2.6 2.8-4.3 3.4c-.8 .2-1.9 .4-3.3 .4H1247v-.2h-.4c-1.5-.2-3.1-.6-4.9-1.1c-2.5-.7-4.6-1.5-6.5-2.5c-1.2 1.7-2.6 2.8-4.3 3.4c-.8 .2-1.9 .4-3.3 .4h-4l-.1 .5c-.5 2.5-1.9 5-4.1 7.5c-2.9 3.4-5.7 5.1-8.5 5.1c-1.7 0-3.5-.6-5.5-1.6c-1.9-1.1-4.9-3.1-9-6.2l1.3-1.8c2.1 1.4 3.9 2.4 5.3 2.9c1.1 .4 2.4 .6 3.8 .6c1.9 0 3.8-.6 5.7-1.6c2.3-1.3 4.6-3.4 6.9-6.2c-.8 .2-1.5 .2-2.1 .2c-1.9 0-3.5-.6-4.6-1.9c-1.2-1.3-1.8-3-1.8-5.2c0-3 .7-5.9 2.1-8.7c1.5-3 3.2-4.5 5.1-4.5c1.6 0 2.9 1.1 4 3.3c1.1 2.2 1.7 4.8 1.7 7.8v1.7h3.8c1.8 0 3.2-.3 4.2-.7c1.4-.6 2.3-1.5 2.8-2.9c1.2-2.5 2.6-4.6 4.4-6.2c1.6-1.5 2.9-2.2 4-2.2c1 0 2.2 1.5 3.7 4.6c1.2 2.4 2 4.7 2.2 6.8l.1 .6h19.2c-2.5-2.5-4.7-4.3-6.7-5.4c-1.8-1-3.6-1.5-5.3-1.5c-.5 0-1 .1-1.4 .1c-.5 .1-1.1 .2-1.9 .4c1.1-2.6 2.3-4.4 3.7-5.6c1.3-1.2 2.8-1.8 4.5-1.8Zm-657.8 0c1.3 0 2.6 .3 3.8 1c1.2 .6 2.6 1.6 4.1 3.1c1.2 1.1 2.9 2.8 5.1 5.2c1.5 1.6 2.6 2.7 3.4 3.2c.8 .5 1.9 .9 3.5 1.3v8.1H583.6v.7c0 1.2-.7 2.8-2.1 4.8c-1.4 2-3.1 3.7-4.9 5.2c-2.1 1.6-3.9 2.4-5.3 2.4c-1.8 0-3.7-.5-5.7-1.5c-1.7-.8-4.4-2.5-8.1-5.1l1.2-1.8c1.8 1.1 3.2 2 4.3 2.4c1.1 .4 2.3 .6 3.6 .6c1.3 0 2.7-.4 4.1-1.2c1.4-.7 3.2-2.2 5.6-4.3c3.3-2.9 4.9-5.2 4.9-6.8c0-.8-.3-1.8-.9-3.1c-.7-1.5-1.6-2.7-2.6-3.7l1.6-8c1.4 1.4 2.4 3 3.2 4.8c.7 1.8 1.1 3.8 1.1 6.1v.4h26.8c-2.5-2.5-4.7-4.3-6.7-5.4c-1.8-1-3.6-1.5-5.3-1.5c-.5 0-1 .1-1.4 .1c-.5 .1-1.1 .2-1.9 .4c1.1-2.6 2.3-4.4 3.7-5.6c1.3-1.2 2.8-1.8 4.5-1.8Zm89.6-.7c-.6 0-1.2 .3-1.7 .8c-.4 .5-.7 1.2-.7 1.9c0 .4 .2 .8 .6 1.1c.4 .3 .8 .5 1.4 .5c.5 0 .9-.1 1.4-.4c.5-.3 1-.7 1.7-1.4c-.5-.9-1-1.6-1.4-1.9c-.4-.4-.9-.6-1.3-.6Zm-163.9-2c.4 0 .7 .1 .9 .3c.3 .3 .4 .6 .4 1c0 .3-.1 .6-.1 .8c-.1 .2-.3 .6-.6 1c-1-.5-1.7-.7-2-.7c-.4 0-.7 .1-1.1 .3c-.2 .1-.5 .2-.7 .4c0 .3 .5 .7 1.5 1.2c.9 .6 1.6 .8 2 .8c.3 0 1-.1 2.2-.4c-.2 .6-.4 1.1-.7 1.4c-.3 .2-.6 .4-1.1 .5l-6.4 2c.4-.7 .8-1.2 1-1.5c.4-.2 .9-.5 1.6-.8c-.6-.4-1-.7-1.2-1c-.3-.3-.4-.6-.4-.9c0-.3 .1-.6 .3-.9c.1-.3 .3-.6 .6-1c1.3-1.7 2.6-2.5 3.8-2.5Zm829.5-3.6c2.6 1.9 4.4 4.4 5.5 7.4c1 2.9 1.5 6.6 1.5 11.2v1.5h1.1c.6 0 1 0 1.3-.1c.6 0 1.2-.1 1.7-.1c-1-1.5-1.6-2.7-2-3.7c-.3-.9-.5-1.9-.5-3.1c0-2.9 1.3-5.5 3.7-7.7c2.5-2.3 5.3-3.4 8.6-3.4c2.2 0 4.3 .8 6.3 2.2c1.9 1.4 3.2 3 4.1 4.9l-1.3 1.1c-1.5-.6-2.8-1-3.7-1.2c-.9-.1-2.1-.2-3.4-.2c-2.5 0-4.6 .2-6.4 .6c-2.3 .5-3.5 1.2-3.5 2.1c0 1.4 2.8 3.6 8.3 6.8l15.2-4.3l-3.4 8.4c-5.3 1.7-9.7 2.9-13.2 3.8c-3.1 .8-5.6 1.4-7.7 1.6c-1.6 .3-3.1 .4-4.6 .4H1352c-1.3 0-2.3-.3-3-.9c-.9-.6-1.3-1.7-1.3-3.3c0-.8 0-1.8 .1-2.8c.1-1 .2-2 .4-3.1h1.2c.1 .7 .5 1.2 1 1.5c.6 .3 1.2 .5 2 .5h10.3c-.5-2.9-1.3-5.3-2.4-7c-1-1.5-2.3-2.7-3.9-3.8Zm-20.9 0c2.6 1.9 4.4 4.4 5.5 7.4c1 2.9 1.5 6.6 1.5 11.2v9.6h-13.5c-1.3 0-2.3-.3-3-.9c-.9-.6-1.3-1.7-1.3-3.3c0-.8 0-1.8 .1-2.8c.1-1 .3-2 .4-3.1h1.2c.1 .7 .5 1.2 1 1.5c.6 .3 1.2 .5 2 .5h10.3c-.5-2.9-1.3-5.3-2.4-7c-1-1.5-2.3-2.7-3.9-3.8Zm-644.2-2c2.1 0 4 1.9 5.9 5.5c1.8 3.6 2.8 7.5 2.8 11.5v13.2H672.7c-.9 0-1.5 0-1.9 0c-.4 .1-.6 .2-.6 .4c.6 .4 1.2 .6 1.7 .7c.5 .1 .8 .3 .9 .5c.2 .2 .3 .6 .3 1c0 1.4-.4 3.1-1.2 5.1c-.8 1.9-1.6 3.2-2.4 3.6c-.7 .6-2.9 1.4-6.5 2.2c-3.7 .8-6.8 1.2-9.4 1.2c-3.7 0-6.8-.8-9.1-2.4c-2.3-1.5-3.4-3.5-3.4-6c0-2.5 .5-4.8 1.5-7c1.2-2.6 3.5-6 6.8-10.1l1.8 1.3c-2.1 2.5-3.5 4.5-4.3 6.1c-.8 1.6-1.2 3.2-1.2 4.7c0 2.1 .8 3.7 2.6 4.7c1.8 1.1 4.5 1.6 8.2 1.6c1.9 0 4.5-.4 7.9-1.1c3.4-.7 5.1-1.3 5.1-1.8c0-.2-.7-.4-2-.6c-1.3-.2-2.7-.3-4.2-.3c-2.3 0-3.5-.5-3.5-1.5c0-.5 .3-1.3 .9-2.5c.3-.8 .7-1.6 1.1-2.4c.8-1.7 2.2-3 4.2-4c2.1-1 4.3-1.5 6.6-1.5h26.7c0-1.8-.1-3-.2-3.7c-.1-1.2-.5-2.2-1-3c-.6 1.2-1.5 2.2-2.5 2.8c-1.1 .7-2.2 1-3.5 1c-1.5 0-2.9-.5-4-1.5c-1.1-1.1-1.6-2.4-1.6-4c0-2.4 .7-5.1 2.1-8.4c1.6-3.5 3.2-5.3 4.8-5.3Zm439.5-1.2l5.6 3.1l-3.1 5.8l-4.4-2.2l-2.5 4.8l-5.5-3.1l3.3-6l4.2 2.4Zm-203.1 0l5.5 3.1l-3.1 5.8l-4.4-2.2l-2.5 4.8l-5.4-3.1l3.3-6l4.2 2.4Zm-354.7-2.2l6.9 3.7l-3.5 6.7l-7-3.7Zm228.6-1.3l5.5 3l-3.1 5.8l-4.4-2.2l-2.5 4.8l-5.4-3l3.2-6.1l4.3 2.4Zm616.2-1.3c1.1 1.6 1.9 3.2 2.4 4.7c.5 1.8 .8 4.1 .8 6.9v5.9c0 4.1 .3 7 .8 8.6c.5 1.3 1.2 2 2.1 2h8c1.8 0 3.2-.3 4.3-.7c1.3-.6 2.2-1.5 2.8-2.9c1.1-2.5 2.5-4.6 4.3-6.2c1.6-1.5 2.9-2.2 4-2.2c1 0 2.3 1.5 3.8 4.6c1.5 3.2 2.3 6.2 2.3 8.9v6.5c-2.1 0-4.5-.4-7.3-1.2c-2.5-.7-4.7-1.5-6.6-2.5c-1.1 1.7-2.6 2.8-4.3 3.4c-.8 .2-1.9 .4-3.3 .4h-8c-2.3 0-4-1-5-2.9c-1.2-2.1-1.8-5.6-1.8-10.6v-8.5c0-2-.2-3.5-.7-4.5c-.3-.5-.9-1.3-1.8-2.3Zm-267 0c1.2 1.6 2 3.2 2.5 4.7c.5 1.8 .8 4.1 .8 6.9v5.9c0 4.1 .2 7 .8 8.6c.4 1.3 1.1 2 2.1 2h5.3c.6 0 1 0 1.3-.1c.6 0 1.1-.1 1.7-.1c-1-1.5-1.6-2.7-2-3.7c-.3-.9-.5-1.9-.5-3.1c0-2.9 1.3-5.5 3.7-7.7c2.5-2.3 5.3-3.4 8.6-3.4c2.2 0 4.3 .8 6.3 2.2c1.9 1.4 3.2 3 4.1 4.9l-1.3 1.1c-1.6-.6-2.8-1-3.7-1.2c-.9-.1-2.1-.2-3.4-.2c-2.5 0-4.6 .2-6.4 .6c-2.3 .5-3.5 1.2-3.5 2.1c0 1.4 2.8 3.6 8.3 6.8l15.2-4.3l-3.4 8.4c-5.3 1.7-9.7 2.9-13.2 3.8c-3.1 .8-5.6 1.4-7.7 1.6c-1.6 .3-3.1 .4-4.7 .4h-4.7c-2.3 0-4-1-5-2.9c-1.2-2.1-1.8-5.6-1.8-10.6v-8.5c0-2-.2-3.5-.8-4.5c-.2-.5-.8-1.3-1.8-2.3Zm-66.6 0l1.8 10.5c.7 4 1.1 7.5 1.4 10.5c.2 2.2 .3 4.4 .3 6.5c0 1.8-.3 3.4-.7 4.8c-.4 1.5-1.2 3.5-2.4 5.9l-1.8-.7c.5-2.5 .8-4.6 .8-6.2c0-1.2-.2-3-.4-5.3c-.1-2.4-.4-4.7-.7-7c-.3-2.3-.8-5-1.5-8.2c-.2-1.1-.3-1.9-.3-2.3c0-.6 .3-1.7 .9-3.1c.6-1.5 1.5-3.3 2.6-5.4Zm-136.5 0c1.2 1.6 2 3.2 2.4 4.7c.6 1.8 .8 4.1 .8 6.9v5.9c0 4.1 .3 7 .9 8.6c.4 1.3 1.1 2 2 2h7.5c.9 0 1.8 0 2.6 .1c2.2 .2 4.7 .5 7.5 .8c-3-.7-5.1-1.5-6.2-2.6c-1.2-1.1-1.8-2.7-1.8-4.7c0-3.1 .7-5.9 2.1-8.4c1.4-2.5 3-3.7 4.8-3.7c2 0 3.8 1.7 5.3 5.2c1.5 3.5 2.2 7.7 2.2 12.6v.7h2.2c2.1 0 3.8-.6 5.2-1.8c1.8-1.5 2.7-3.9 2.7-7l2 .3c0 .7-.1 1.4-.1 2.2c-.1 .8-.1 1.7-.1 2.7c0 1 .4 1.9 1.1 2.5c.6 .7 1.4 1.1 2.3 1.1h3.7c2.4 0 4.2-.4 5.2-1.1c1.2-.8 1.9-2.3 1.9-4.5c0-.5 .1-.9 .4-1.3c.2-.2 .6-.5 1.1-1l1.2-.9c0 .4 0 .9 0 1.6c.1 .6 .1 1 .1 1.2c0 1.1-.2 2.6-.5 4.4c.7 .3 1.6 .7 2.5 .9c.9 .3 1.8 .5 2.9 .6c0-.7-.3-1.6-.8-2.6c-.5-1.1-.7-1.8-.7-2.2c0-.5 0-.9 .2-1.2c0-.1 .2-.4 .6-.9l2.6-3.4c.5 1.2 .9 2.3 1.1 3.4c.3 1 .4 2.3 .4 3.8v11.3c-2.3 0-4.1-.2-5.6-.5c-1.5-.3-2.9-.8-4.3-1.5c-1.2 .8-2.2 1.3-3.1 1.6c-.9 .2-2.3 .4-4.1 .4h-4.9c-1.3 0-2.3-.4-3.1-1.1c-.8-.7-1.5-1.8-2.1-3.4c-1.1 1.6-2.3 2.8-3.7 3.5c-1.1 .7-2.5 1-4.1 1H955.9c-2.3 0-4-1-5-2.9c-1.1-2.1-1.7-5.6-1.7-10.6v-8.5c0-2-.3-3.5-.8-4.5c-.3-.5-.9-1.3-1.8-2.3Zm-66.6 0l1.8 10.5c.6 4 1.1 7.5 1.3 10.5c.2 2.2 .3 4.4 .3 6.5c0 1.8-.2 3.4-.6 4.8c-.4 1.5-1.2 3.5-2.4 5.9l-1.8-.7c.5-2.5 .7-4.6 .7-6.2c0-1.2-.1-3-.3-5.3c-.2-2.4-.4-4.7-.7-7c-.3-2.3-.8-5-1.5-8.2c-.2-1.1-.4-1.9-.4-2.3c0-.6 .4-1.7 1-3.1c.6-1.5 1.5-3.3 2.6-5.4Zm189.3-2.4l1.4 .7c0 .2-.1 .5-.1 1c0 .7 .4 1.3 1.2 1.9c.8 .6 1.9 1.2 3.5 1.9c-.1 1.2-.4 2.5-.8 3.7c-.3 1.2-.7 2.3-1.1 3.2l-1.1-.4l3.2 18.5v8.1h-34.2l-.1 .5c-.5 2.5-1.9 5-4.1 7.5c-2.9 3.4-5.7 5.1-8.6 5.1c-1.6 0-3.4-.6-5.4-1.6c-1.9-1.1-4.9-3.1-9-6.2l1.3-1.8c2.1 1.4 3.9 2.4 5.2 2.9c1.2 .4 2.5 .6 3.9 .6c1.9 0 3.8-.6 5.7-1.6c2.2-1.3 4.5-3.4 6.9-6.2c-.8 .2-1.5 .2-2.1 .2c-1.9 0-3.5-.6-4.7-1.9c-1.1-1.3-1.7-3-1.7-5.2c0-3 .7-5.9 2.1-8.7c1.4-3 3.1-4.5 5-4.5c1.6 0 3 1.1 4.1 3.3c1.1 2.2 1.7 4.8 1.7 7.8v1.7h3.2c.9 0 1.8 0 2.6 .1c2.2 .2 4.7 .5 7.5 .8c-3-.7-5-1.5-6.2-2.6c-1.2-1.1-1.8-2.7-1.8-4.7c0-3.1 .7-5.9 2.1-8.4c1.5-2.5 3-3.7 4.8-3.7c2 0 3.8 1.7 5.3 5.2c1.5 3.5 2.2 7.7 2.2 12.6v.7h10.8l-3.6-20.3l-2-1.2c0-1.2 .2-2.4 .6-3.6c.5-1.5 1.2-3.3 2.3-5.4Zm-203.1 0l1.4 .7c0 .2-.1 .5-.2 1c0 .7 .4 1.3 1.3 1.9c.7 .6 1.9 1.2 3.5 1.9c-.2 1.2-.4 2.5-.8 3.7c-.3 1.2-.7 2.3-1.2 3.2l-1-.4l3.2 18.5v8.1H859.2v-.2h-.4c-1.4-.2-3.1-.6-4.8-1.1c-2.5-.7-4.7-1.5-6.6-2.5c-1.1 1.7-2.6 2.8-4.2 3.4c-.9 .2-2 .4-3.4 .4H836v.7c0 1.2-.7 2.8-2.1 4.8c-1.4 2-3 3.7-4.9 5.2c-2 1.6-3.8 2.4-5.3 2.4c-1.7 0-3.6-.5-5.6-1.5c-1.7-.8-4.5-2.5-8.2-5.1l1.2-1.8c1.8 1.1 3.3 2 4.4 2.4c1.1 .4 2.2 .6 3.5 .6c1.4 0 2.8-.4 4.1-1.2c1.4-.7 3.3-2.2 5.6-4.3c3.3-2.9 5-5.2 5-6.8c0-.8-.3-1.8-1-3.1c-.7-1.5-1.6-2.7-2.6-3.7l1.7-8c1.3 1.4 2.4 3 3.1 4.8c.7 1.8 1.1 3.8 1.1 6.1v.4h3.8c1.8 0 3.2-.3 4.3-.7c1.3-.6 2.3-1.5 2.8-2.9c1.1-2.5 2.6-4.6 4.3-6.2c1.6-1.5 2.9-2.2 4-2.2c1 0 2.3 1.5 3.8 4.6c1.2 2.4 1.9 4.7 2.2 6.8v.6H872l-3.6-20.3l-1.9-1.2c0-1.2 .2-2.4 .6-3.6c.4-1.5 1.2-3.3 2.3-5.4Zm185.2-.3l6.9 3.7l-3.6 6.7l-6.9-3.6Zm-84.6 0l7 3.7l-3.6 6.7l-7-3.6Zm-217.8-2l1.4 .5c0 .2-.1 .4-.2 .8c0 .7 1 1.5 3 2.5c.6 .3 1.6 .7 2.9 1.2c-.2 1.6-.5 3-.9 4.4c-.2 .6-.6 1.7-1.2 3.1l-1.1-.3c.6 2.8 1.1 4.9 1.3 6.2c.2 1.4 .3 2.5 .3 3.6v.3c0 .6 0 1.1-.1 1.4c0 .3-.1 .8-.2 1.5c1-.7 2-1.5 3.1-2.2c1.6-1.2 3.1-2.1 4.3-2.8c1.7-.9 3-1.4 3.8-1.4c2.4 0 4.3 .6 5.7 1.9c1.6 1.3 2.4 3.3 2.4 5.9v6.2h13.5c-.2-1.4-.6-2.5-1.2-3.5c-.3-.5-1-1.4-2.1-2.6l2.4-7.1c1.5 1.6 2.5 3.4 3.1 5.3c.4 1.6 .7 3.9 .8 6.9v1h13.5c-.2-1.4-.6-2.5-1.2-3.5c-.3-.5-1-1.4-2.1-2.6l2.4-7.1c1.5 1.6 2.5 3.4 3.1 5.3c.5 1.8 .8 4.6 .8 8.2v7.8H740.8c-.7 0-1.3-.2-1.9-.5c-1.2-.6-2.2-1.6-3-3.1c-1-2.1-1.7-5-2-8.7c-1.4 1.7-2.4 2.9-3.2 3.6c-1.1 1-2 1.5-2.7 1.5c-.4 0-.9-.1-1.5-.2l-3.6-.7c-1.6-.3-2.5-.6-2.9-.7c-.3-.1-.5-.4-.5-.7c0-.6 .7-2.3 2.1-5.1c1.3-2.9 2.3-4.6 3-5.3c.5-.5 1.3-1.2 2.6-2.1c.8-.5 1.8-1.2 3.2-2l1.6-.9c-.1-.3-.1-.6-.1-.9c0-.3-.1-.5-.1-.8c0-.7 .2-1.7 .6-2.8c.3-1.2 .9-2.6 1.8-4.3l2.9 18.6c.4 2.9 1 4.9 1.8 5.9c.4 .7 1.1 1.1 1.9 1.1h5.8c.5 0 1.8-.9 4-2.5c.7-.5 1.8-1.4 3.2-2.5c0-2.5-.1-4.5-.3-6.2c-.2-1.7-.4-3.5-.8-5.3c-.1-.4-.7-2.6-1.6-6.5l-1.8-1c.5-2.1 .9-3.6 1.2-4.5c.2-.9 .8-2.3 1.7-4.3Zm-61.4-2.3l7 3.7l-3.6 6.7l-7-3.6Zm41.7-1.4l5.4 2.8l-3.3 5.5l-4.3-2.4l-2.3 4.7l-5.6-3l3.1-5.2l4.4 2.2Z" class="g0_39"/>
<path d="M659.7 348.2l3.7 2.4l-2.9 3.3l-3.1-2l-2.4 2.5l-3.7-2l2.8-3.6l3.3 2.1ZM1263 335.6l6.9 3.7l-3.6 6.7l-6.9-3.7Zm-657.8 0l6.9 3.7l-3.6 6.7l-6.9-3.7Zm178-.3l7 3.7l-3.6 6.6l-7-3.6Zm433.6-15.4c-.6 0-1.1 .2-1.5 .7c-.3 .5-.5 1-.5 1.6c0 .7 .4 1.3 1.2 1.8c.8 .4 1.8 .7 3.1 .7h1.1c-.5-3.2-1.7-4.8-3.4-4.8Zm-179.1 0c-.6 0-1.1 .2-1.5 .7c-.3 .5-.5 1-.5 1.6c0 .7 .4 1.3 1.2 1.8c.7 .4 1.8 .7 3.1 .7h1.1c-.6-3.2-1.7-4.8-3.4-4.8Zm408.5-.2c-.8 0-1.4 .9-2 2.7c1.1 .4 1.8 .7 2.4 .9c1.6 .6 2.5 .9 2.7 .9c.4 0 .7-.2 .7-.5c0-.4-.5-1.2-1.3-2.2c-1-1.2-1.8-1.8-2.5-1.8Zm-149.2 0c-.8 0-1.5 .9-2 2.7c1 .4 1.8 .7 2.3 .9c1.7 .6 2.6 .9 2.8 .9c.4 0 .6-.2 .6-.5c0-.4-.4-1.2-1.3-2.2c-.9-1.2-1.8-1.8-2.4-1.8Zm-57.2 0c-.8 0-1.5 .9-2 2.7c1 .4 1.8 .7 2.3 .9c1.7 .6 2.6 .9 2.8 .9c.4 0 .6-.2 .6-.5c0-.4-.4-1.2-1.3-2.2c-.9-1.2-1.8-1.8-2.4-1.8Zm-387.8 0c-.8 0-1.4 .9-2 2.7c1.1 .4 1.9 .7 2.4 .9c1.6 .6 2.5 .9 2.7 .9c.4 0 .7-.2 .7-.5c0-.4-.5-1.2-1.3-2.2c-1-1.2-1.8-1.8-2.5-1.8Zm-85.6-.9c-1.3 0-2.8 .4-4.4 1.2c-1.6 .9-4 2.4-7.1 4.7h7.8c6.5 0 9.8-1.1 9.8-3.1c0-.7-.7-1.3-2.2-1.9c-1.5-.6-2.8-.9-3.9-.9Zm289-3.8c-.4 0-.8 .1-1.1 .4c-.3 .2-.4 .5-.4 .9c0 .8 .6 1.7 1.9 2.5c1.3 .8 2.8 1.3 4.6 1.6c-.7-1.7-1.5-3-2.4-4c-.9-.9-1.8-1.4-2.6-1.4Zm-84.6 0c-.4 0-.7 .1-1 .4c-.3 .2-.4 .5-.4 .9c0 .8 .6 1.7 1.9 2.5c1.3 .8 2.8 1.3 4.6 1.6c-.8-1.7-1.6-3-2.4-4c-.9-.9-1.8-1.4-2.7-1.4Zm-421.7-1.7c1.1 0 2 .5 2.7 1.4c.7 .9 1 2.1 1 3.6c0 1.1-.1 2-.3 2.7c-.2 .7-.7 1.6-1.4 2.8c-.6-1.4-1-2.3-1.4-2.8c-.3-.4-.9-.6-1.6-.6c-1 0-2.5 .6-4.4 1.8c-1.9 1.3-2.8 2.3-2.8 3.1c0 .5 .4 .8 1.1 .9c.6 .2 1.4 .2 2.5 .2c.3 0 .6 0 .9 0c.3 0 .6 0 .9 0c2.2 0 3.6 .2 4.3 .7c.6 .3 .9 1.1 .9 2.2c0 2.1-.4 4.2-1.1 6.1c-1 2.5-2.5 4.3-4.4 5.3c-2.3 1.4-4.8 2.4-7.4 3.2c-2.5 .9-4.9 1.3-7.1 1.3c-6.2 0-9.3-2.8-9.3-8.3c0-2.9 .4-5.3 1.1-7.3c.8-2.3 2.4-5.3 4.9-9.2l1.4 .9c-1.5 2.5-2.6 4.7-3.3 6.6c-.8 2-1.1 3.7-1.1 5.1c0 3.8 2.1 5.6 6.3 5.6c1.6 0 3.1-.1 4.5-.4c1.5-.3 2.9-.7 4.4-1.2c.9-.3 2-.8 3.3-1.3c1.9-.9 3-1.3 3.1-1.4c.9-.5 1.3-.9 1.3-1.3c0-.2-.4-.3-1.4-.4c-1 0-1.6 0-2 0c-3.1 0-5.1-.5-6.2-1.3c-.8-.8-1.2-2.1-1.2-4c0-.9 .2-2.1 .8-3.5c.6-1.4 1.4-2.7 2.4-4.1c1.4-2.1 2.9-3.7 4.3-4.7c1.5-1.1 2.9-1.7 4.3-1.7Zm183.4-.9c-.6 .2-1.1 .5-1.4 .7c-1.1 .5-2 1.1-2.7 1.6c-.4 .4-.8 .7-1.2 1.1c-.4 .4-.6 .7-.6 1c0 .2 .4 .5 1.1 .6c.7 .2 1.4 .3 2 .3c.5 0 .9-.2 1.4-.4c.5-.3 1.2-.7 2.1-1.4Zm382.5-.8l1.7 1.1c-.5 .8-.8 1.5-1.1 2.2c-.3 .6-.6 1.2-.7 1.7c-.3 .9-.4 1.8-.4 2.7c0 1.1 .3 2.1 1 3c.8 .9 1.7 1.5 2.9 1.8c.7 .2 1.6 .3 2.7 .4c1.1 .1 2.3 .2 3.5 .2h21.6c-.6-1.6-1-2.7-1.4-3.3c-.4-.7-1.1-1.7-2-2.8l2.7-7c1.5 2.2 2.4 4.1 2.9 5.9c.4 1.6 .6 3.9 .6 6.8v8.5h-25c-1.2 0-2.2 0-3-.1c-.8 0-1.4 0-1.8 0c-.8-.1-1.6-.3-2.5-.7c-1.7-.5-3-1.7-4.1-3.4c-1-1.7-1.6-3.6-1.6-5.7c0-.8 .1-1.7 .2-2.6c.1-.8 .4-1.8 .7-2.8c.4-1.2 .9-2.2 1.4-3.2c.5-.9 1.1-1.8 1.7-2.7Zm-203.1 0l1.6 1.1c-.4 .8-.8 1.5-1.1 2.2c-.3 .6-.5 1.2-.6 1.7c-.3 .9-.5 1.8-.5 2.7c0 1.1 .4 2.1 1.1 3c.7 .9 1.7 1.5 2.8 1.8c.7 .2 1.7 .3 2.8 .4c1.1 .1 2.3 .2 3.5 .2h21.6c-.6-1.6-1.1-2.7-1.4-3.3c-.5-.7-1.1-1.7-2-2.8l2.6-7c1.5 2.2 2.5 4.1 3 5.9c.4 1.6 .6 3.9 .6 6.8v8.5h-25c-1.3 0-2.3 0-3.1-.1c-.8 0-1.3 0-1.7 0c-.8-.1-1.6-.3-2.6-.7c-1.6-.5-3-1.7-4-3.4c-1.1-1.7-1.6-3.6-1.6-5.7c0-.8 .1-1.7 .2-2.6c.1-.8 .3-1.8 .7-2.8c.4-1.2 .8-2.2 1.4-3.2c.5-.9 1.1-1.8 1.7-2.7Zm349.2-.7c1.3 0 2.6 .3 3.8 1c1.2 .6 2.6 1.6 4.1 3.1c1.2 1.1 2.9 2.8 5.1 5.2c1.5 1.6 2.6 2.7 3.4 3.2c.8 .5 1.9 .9 3.5 1.3h3.8c1.8 0 3.2-.3 4.2-.7c1.4-.6 2.3-1.5 2.8-2.9c1.2-2.5 2.6-4.6 4.4-6.2c1.6-1.5 2.9-2.2 4-2.2c1 0 2.2 1.5 3.7 4.6c1.6 3.2 2.4 6.2 2.4 8.9v6.5c-2.1 0-4.6-.4-7.4-1.2c-2.5-.7-4.6-1.5-6.5-2.5c-1.2 1.7-2.6 2.8-4.3 3.4c-.8 .2-1.9 .4-3.3 .4H1247v-.2h-.4c-1.5-.2-3.1-.6-4.9-1.1c-2.5-.7-4.6-1.5-6.5-2.5c-1.2 1.7-2.6 2.8-4.3 3.4c-.8 .2-1.9 .4-3.3 .4h-4l-.1 .5c-.5 2.5-1.9 5-4.1 7.5c-2.9 3.4-5.7 5.1-8.5 5.1c-1.7 0-3.5-.6-5.5-1.6c-1.9-1.1-4.9-3.1-9-6.2l1.3-1.8c2.1 1.4 3.9 2.4 5.3 2.9c1.1 .4 2.4 .6 3.8 .6c1.9 0 3.8-.6 5.7-1.6c2.3-1.3 4.6-3.4 6.9-6.2c-.8 .2-1.5 .2-2.1 .2c-1.9 0-3.5-.6-4.6-1.9c-1.2-1.3-1.8-3-1.8-5.2c0-3 .7-5.9 2.1-8.7c1.5-3 3.2-4.5 5.1-4.5c1.6 0 2.9 1.1 4 3.3c1.1 2.2 1.7 4.8 1.7 7.8v1.7h3.8c1.8 0 3.2-.3 4.2-.7c1.4-.6 2.3-1.5 2.8-2.9c1.2-2.5 2.6-4.6 4.4-6.2c1.6-1.5 2.9-2.2 4-2.2c1 0 2.2 1.5 3.7 4.6c1.2 2.4 2 4.7 2.2 6.8l.1 .6h19.2c-2.5-2.5-4.7-4.3-6.7-5.4c-1.8-1-3.6-1.5-5.3-1.5c-.5 0-1 .1-1.4 .1c-.5 .1-1.1 .2-1.9 .4c1.1-2.6 2.3-4.4 3.7-5.6c1.3-1.2 2.8-1.8 4.5-1.8Zm-657.8 0c1.3 0 2.6 .3 3.8 1c1.2 .6 2.6 1.6 4.1 3.1c1.2 1.1 2.9 2.8 5.1 5.2c1.5 1.6 2.6 2.7 3.4 3.2c.8 .5 1.9 .9 3.5 1.3v8.1H583.6v.7c0 1.2-.7 2.8-2.1 4.8c-1.4 2-3.1 3.7-4.9 5.2c-2.1 1.6-3.9 2.4-5.3 2.4c-1.8 0-3.7-.5-5.7-1.5c-1.7-.8-4.4-2.5-8.1-5.1l1.2-1.8c1.8 1.1 3.2 2 4.3 2.4c1.1 .4 2.3 .6 3.6 .6c1.3 0 2.7-.4 4.1-1.2c1.4-.7 3.2-2.2 5.6-4.3c3.3-2.9 4.9-5.2 4.9-6.8c0-.8-.3-1.8-.9-3.1c-.7-1.5-1.6-2.7-2.6-3.7l1.6-8c1.4 1.4 2.4 3 3.2 4.8c.7 1.8 1.1 3.8 1.1 6.1v.4h26.8c-2.5-2.5-4.7-4.3-6.7-5.4c-1.8-1-3.6-1.5-5.3-1.5c-.5 0-1 .1-1.4 .1c-.5 .1-1.1 .2-1.9 .4c1.1-2.6 2.3-4.4 3.7-5.6c1.3-1.2 2.8-1.8 4.5-1.8Zm89.6-.7c-.6 0-1.2 .3-1.7 .8c-.4 .5-.7 1.2-.7 1.9c0 .4 .2 .8 .6 1.1c.4 .3 .8 .5 1.4 .5c.5 0 .9-.1 1.4-.4c.5-.3 1-.7 1.7-1.4c-.5-.9-1-1.6-1.4-1.9c-.4-.4-.9-.6-1.3-.6Zm-163.9-2c.4 0 .7 .1 .9 .3c.3 .3 .4 .6 .4 1c0 .3-.1 .6-.1 .8c-.1 .2-.3 .6-.6 1c-1-.5-1.7-.7-2-.7c-.4 0-.7 .1-1.1 .3c-.2 .1-.5 .2-.7 .4c0 .3 .5 .7 1.5 1.2c.9 .6 1.6 .8 2 .8c.3 0 1-.1 2.2-.4c-.2 .6-.4 1.1-.7 1.4c-.3 .2-.6 .4-1.1 .5l-6.4 2c.4-.7 .8-1.2 1-1.5c.4-.2 .9-.5 1.6-.8c-.6-.4-1-.7-1.2-1c-.3-.3-.4-.6-.4-.9c0-.3 .1-.6 .3-.9c.1-.3 .3-.6 .6-1c1.3-1.7 2.6-2.5 3.8-2.5Zm829.5-3.6c2.6 1.9 4.4 4.4 5.5 7.4c1 2.9 1.5 6.6 1.5 11.2v1.5h1.1c.6 0 1 0 1.3-.1c.6 0 1.2-.1 1.7-.1c-1-1.5-1.6-2.7-2-3.7c-.3-.9-.5-1.9-.5-3.1c0-2.9 1.3-5.5 3.7-7.7c2.5-2.3 5.3-3.4 8.6-3.4c2.2 0 4.3 .8 6.3 2.2c1.9 1.4 3.2 3 4.1 4.9l-1.3 1.1c-1.5-.6-2.8-1-3.7-1.2c-.9-.1-2.1-.2-3.4-.2c-2.5 0-4.6 .2-6.4 .6c-2.3 .5-3.5 1.2-3.5 2.1c0 1.4 2.8 3.6 8.3 6.8l15.2-4.3l-3.4 8.4c-5.3 1.7-9.7 2.9-13.2 3.8c-3.1 .8-5.6 1.4-7.7 1.6c-1.6 .3-3.1 .4-4.6 .4H1352c-1.3 0-2.3-.3-3-.9c-.9-.6-1.3-1.7-1.3-3.3c0-.8 0-1.8 .1-2.8c.1-1 .2-2 .4-3.1h1.2c.1 .7 .5 1.2 1 1.5c.6 .3 1.2 .5 2 .5h10.3c-.5-2.9-1.3-5.3-2.4-7c-1-1.5-2.3-2.7-3.9-3.8Zm-20.9 0c2.6 1.9 4.4 4.4 5.5 7.4c1 2.9 1.5 6.6 1.5 11.2v9.6h-13.5c-1.3 0-2.3-.3-3-.9c-.9-.6-1.3-1.7-1.3-3.3c0-.8 0-1.8 .1-2.8c.1-1 .3-2 .4-3.1h1.2c.1 .7 .5 1.2 1 1.5c.6 .3 1.2 .5 2 .5h10.3c-.5-2.9-1.3-5.3-2.4-7c-1-1.5-2.3-2.7-3.9-3.8Zm-644.2-2c2.1 0 4 1.9 5.9 5.5c1.8 3.6 2.8 7.5 2.8 11.5v13.2H672.7c-.9 0-1.5 0-1.9 0c-.4 .1-.6 .2-.6 .4c.6 .4 1.2 .6 1.7 .7c.5 .1 .8 .3 .9 .5c.2 .2 .3 .6 .3 1c0 1.4-.4 3.1-1.2 5.1c-.8 1.9-1.6 3.2-2.4 3.6c-.7 .6-2.9 1.4-6.5 2.2c-3.7 .8-6.8 1.2-9.4 1.2c-3.7 0-6.8-.8-9.1-2.4c-2.3-1.5-3.4-3.5-3.4-6c0-2.5 .5-4.8 1.5-7c1.2-2.6 3.5-6 6.8-10.1l1.8 1.3c-2.1 2.5-3.5 4.5-4.3 6.1c-.8 1.6-1.2 3.2-1.2 4.7c0 2.1 .8 3.7 2.6 4.7c1.8 1.1 4.5 1.6 8.2 1.6c1.9 0 4.5-.4 7.9-1.1c3.4-.7 5.1-1.3 5.1-1.8c0-.2-.7-.4-2-.6c-1.3-.2-2.7-.3-4.2-.3c-2.3 0-3.5-.5-3.5-1.5c0-.5 .3-1.3 .9-2.5c.3-.8 .7-1.6 1.1-2.4c.8-1.7 2.2-3 4.2-4c2.1-1 4.3-1.5 6.6-1.5h26.7c0-1.8-.1-3-.2-3.7c-.1-1.2-.5-2.2-1-3c-.6 1.2-1.5 2.2-2.5 2.8c-1.1 .7-2.2 1-3.5 1c-1.5 0-2.9-.5-4-1.5c-1.1-1.1-1.6-2.4-1.6-4c0-2.4 .7-5.1 2.1-8.4c1.6-3.5 3.2-5.3 4.8-5.3Zm439.5-1.2l5.6 3.1l-3.1 5.8l-4.4-2.2l-2.5 4.8l-5.5-3.1l3.3-6l4.2 2.4Zm-203.1 0l5.5 3.1l-3.1 5.8l-4.4-2.2l-2.5 4.8l-5.4-3.1l3.3-6l4.2 2.4Zm-354.7-2.2l6.9 3.7l-3.5 6.7l-7-3.7Zm228.6-1.3l5.5 3l-3.1 5.8l-4.4-2.2l-2.5 4.8l-5.4-3l3.2-6.1l4.3 2.4Zm616.2-1.3c1.1 1.6 1.9 3.2 2.4 4.7c.5 1.8 .8 4.1 .8 6.9v5.9c0 4.1 .3 7 .8 8.6c.5 1.3 1.2 2 2.1 2h8c1.8 0 3.2-.3 4.3-.7c1.3-.6 2.2-1.5 2.8-2.9c1.1-2.5 2.5-4.6 4.3-6.2c1.6-1.5 2.9-2.2 4-2.2c1 0 2.3 1.5 3.8 4.6c1.5 3.2 2.3 6.2 2.3 8.9v6.5c-2.1 0-4.5-.4-7.3-1.2c-2.5-.7-4.7-1.5-6.6-2.5c-1.1 1.7-2.6 2.8-4.3 3.4c-.8 .2-1.9 .4-3.3 .4h-8c-2.3 0-4-1-5-2.9c-1.2-2.1-1.8-5.6-1.8-10.6v-8.5c0-2-.2-3.5-.7-4.5c-.3-.5-.9-1.3-1.8-2.3Zm-267 0c1.2 1.6 2 3.2 2.5 4.7c.5 1.8 .8 4.1 .8 6.9v5.9c0 4.1 .2 7 .8 8.6c.4 1.3 1.1 2 2.1 2h5.3c.6 0 1 0 1.3-.1c.6 0 1.1-.1 1.7-.1c-1-1.5-1.6-2.7-2-3.7c-.3-.9-.5-1.9-.5-3.1c0-2.9 1.3-5.5 3.7-7.7c2.5-2.3 5.3-3.4 8.6-3.4c2.2 0 4.3 .8 6.3 2.2c1.9 1.4 3.2 3 4.1 4.9l-1.3 1.1c-1.6-.6-2.8-1-3.7-1.2c-.9-.1-2.1-.2-3.4-.2c-2.5 0-4.6 .2-6.4 .6c-2.3 .5-3.5 1.2-3.5 2.1c0 1.4 2.8 3.6 8.3 6.8l15.2-4.3l-3.4 8.4c-5.3 1.7-9.7 2.9-13.2 3.8c-3.1 .8-5.6 1.4-7.7 1.6c-1.6 .3-3.1 .4-4.7 .4h-4.7c-2.3 0-4-1-5-2.9c-1.2-2.1-1.8-5.6-1.8-10.6v-8.5c0-2-.2-3.5-.8-4.5c-.2-.5-.8-1.3-1.8-2.3Zm-66.6 0l1.8 10.5c.7 4 1.1 7.5 1.4 10.5c.2 2.2 .3 4.4 .3 6.5c0 1.8-.3 3.4-.7 4.8c-.4 1.5-1.2 3.5-2.4 5.9l-1.8-.7c.5-2.5 .8-4.6 .8-6.2c0-1.2-.2-3-.4-5.3c-.1-2.4-.4-4.7-.7-7c-.3-2.3-.8-5-1.5-8.2c-.2-1.1-.3-1.9-.3-2.3c0-.6 .3-1.7 .9-3.1c.6-1.5 1.5-3.3 2.6-5.4Zm-136.5 0c1.2 1.6 2 3.2 2.4 4.7c.6 1.8 .8 4.1 .8 6.9v5.9c0 4.1 .3 7 .9 8.6c.4 1.3 1.1 2 2 2h7.5c.9 0 1.8 0 2.6 .1c2.2 .2 4.7 .5 7.5 .8c-3-.7-5.1-1.5-6.2-2.6c-1.2-1.1-1.8-2.7-1.8-4.7c0-3.1 .7-5.9 2.1-8.4c1.4-2.5 3-3.7 4.8-3.7c2 0 3.8 1.7 5.3 5.2c1.5 3.5 2.2 7.7 2.2 12.6v.7h2.2c2.1 0 3.8-.6 5.2-1.8c1.8-1.5 2.7-3.9 2.7-7l2 .3c0 .7-.1 1.4-.1 2.2c-.1 .8-.1 1.7-.1 2.7c0 1 .4 1.9 1.1 2.5c.6 .7 1.4 1.1 2.3 1.1h3.7c2.4 0 4.2-.4 5.2-1.1c1.2-.8 1.9-2.3 1.9-4.5c0-.5 .1-.9 .4-1.3c.2-.2 .6-.5 1.1-1l1.2-.9c0 .4 0 .9 0 1.6c.1 .6 .1 1 .1 1.2c0 1.1-.2 2.6-.5 4.4c.7 .3 1.6 .7 2.5 .9c.9 .3 1.8 .5 2.9 .6c0-.7-.3-1.6-.8-2.6c-.5-1.1-.7-1.8-.7-2.2c0-.5 0-.9 .2-1.2c0-.1 .2-.4 .6-.9l2.6-3.4c.5 1.2 .9 2.3 1.1 3.4c.3 1 .4 2.3 .4 3.8v11.3c-2.3 0-4.1-.2-5.6-.5c-1.5-.3-2.9-.8-4.3-1.5c-1.2 .8-2.2 1.3-3.1 1.6c-.9 .2-2.3 .4-4.1 .4h-4.9c-1.3 0-2.3-.4-3.1-1.1c-.8-.7-1.5-1.8-2.1-3.4c-1.1 1.6-2.3 2.8-3.7 3.5c-1.1 .7-2.5 1-4.1 1H955.9c-2.3 0-4-1-5-2.9c-1.1-2.1-1.7-5.6-1.7-10.6v-8.5c0-2-.3-3.5-.8-4.5c-.3-.5-.9-1.3-1.8-2.3Zm-66.6 0l1.8 10.5c.6 4 1.1 7.5 1.3 10.5c.2 2.2 .3 4.4 .3 6.5c0 1.8-.2 3.4-.6 4.8c-.4 1.5-1.2 3.5-2.4 5.9l-1.8-.7c.5-2.5 .7-4.6 .7-6.2c0-1.2-.1-3-.3-5.3c-.2-2.4-.4-4.7-.7-7c-.3-2.3-.8-5-1.5-8.2c-.2-1.1-.4-1.9-.4-2.3c0-.6 .4-1.7 1-3.1c.6-1.5 1.5-3.3 2.6-5.4Zm189.3-2.4l1.4 .7c0 .2-.1 .5-.1 1c0 .7 .4 1.3 1.2 1.9c.8 .6 1.9 1.2 3.5 1.9c-.1 1.2-.4 2.5-.8 3.7c-.3 1.2-.7 2.3-1.1 3.2l-1.1-.4l3.2 18.5v8.1h-34.2l-.1 .5c-.5 2.5-1.9 5-4.1 7.5c-2.9 3.4-5.7 5.1-8.6 5.1c-1.6 0-3.4-.6-5.4-1.6c-1.9-1.1-4.9-3.1-9-6.2l1.3-1.8c2.1 1.4 3.9 2.4 5.2 2.9c1.2 .4 2.5 .6 3.9 .6c1.9 0 3.8-.6 5.7-1.6c2.2-1.3 4.5-3.4 6.9-6.2c-.8 .2-1.5 .2-2.1 .2c-1.9 0-3.5-.6-4.7-1.9c-1.1-1.3-1.7-3-1.7-5.2c0-3 .7-5.9 2.1-8.7c1.4-3 3.1-4.5 5-4.5c1.6 0 3 1.1 4.1 3.3c1.1 2.2 1.7 4.8 1.7 7.8v1.7h3.2c.9 0 1.8 0 2.6 .1c2.2 .2 4.7 .5 7.5 .8c-3-.7-5-1.5-6.2-2.6c-1.2-1.1-1.8-2.7-1.8-4.7c0-3.1 .7-5.9 2.1-8.4c1.5-2.5 3-3.7 4.8-3.7c2 0 3.8 1.7 5.3 5.2c1.5 3.5 2.2 7.7 2.2 12.6v.7h10.8l-3.6-20.3l-2-1.2c0-1.2 .2-2.4 .6-3.6c.5-1.5 1.2-3.3 2.3-5.4Zm-203.1 0l1.4 .7c0 .2-.1 .5-.2 1c0 .7 .4 1.3 1.3 1.9c.7 .6 1.9 1.2 3.5 1.9c-.2 1.2-.4 2.5-.8 3.7c-.3 1.2-.7 2.3-1.2 3.2l-1-.4l3.2 18.5v8.1H859.2v-.2h-.4c-1.4-.2-3.1-.6-4.8-1.1c-2.5-.7-4.7-1.5-6.6-2.5c-1.1 1.7-2.6 2.8-4.2 3.4c-.9 .2-2 .4-3.4 .4H836v.7c0 1.2-.7 2.8-2.1 4.8c-1.4 2-3 3.7-4.9 5.2c-2 1.6-3.8 2.4-5.3 2.4c-1.7 0-3.6-.5-5.6-1.5c-1.7-.8-4.5-2.5-8.2-5.1l1.2-1.8c1.8 1.1 3.3 2 4.4 2.4c1.1 .4 2.2 .6 3.5 .6c1.4 0 2.8-.4 4.1-1.2c1.4-.7 3.3-2.2 5.6-4.3c3.3-2.9 5-5.2 5-6.8c0-.8-.3-1.8-1-3.1c-.7-1.5-1.6-2.7-2.6-3.7l1.7-8c1.3 1.4 2.4 3 3.1 4.8c.7 1.8 1.1 3.8 1.1 6.1v.4h3.8c1.8 0 3.2-.3 4.3-.7c1.3-.6 2.3-1.5 2.8-2.9c1.1-2.5 2.6-4.6 4.3-6.2c1.6-1.5 2.9-2.2 4-2.2c1 0 2.3 1.5 3.8 4.6c1.2 2.4 1.9 4.7 2.2 6.8v.6H872l-3.6-20.3l-1.9-1.2c0-1.2 .2-2.4 .6-3.6c.4-1.5 1.2-3.3 2.3-5.4Zm185.2-.3l6.9 3.7l-3.6 6.7l-6.9-3.6Zm-84.6 0l7 3.7l-3.6 6.7l-7-3.6Zm-217.8-2l1.4 .5c0 .2-.1 .4-.2 .8c0 .7 1 1.5 3 2.5c.6 .3 1.6 .7 2.9 1.2c-.2 1.6-.5 3-.9 4.4c-.2 .6-.6 1.7-1.2 3.1l-1.1-.3c.6 2.8 1.1 4.9 1.3 6.2c.2 1.4 .3 2.5 .3 3.6v.3c0 .6 0 1.1-.1 1.4c0 .3-.1 .8-.2 1.5c1-.7 2-1.5 3.1-2.2c1.6-1.2 3.1-2.1 4.3-2.8c1.7-.9 3-1.4 3.8-1.4c2.4 0 4.3 .6 5.7 1.9c1.6 1.3 2.4 3.3 2.4 5.9v6.2h13.5c-.2-1.4-.6-2.5-1.2-3.5c-.3-.5-1-1.4-2.1-2.6l2.4-7.1c1.5 1.6 2.5 3.4 3.1 5.3c.4 1.6 .7 3.9 .8 6.9v1h13.5c-.2-1.4-.6-2.5-1.2-3.5c-.3-.5-1-1.4-2.1-2.6l2.4-7.1c1.5 1.6 2.5 3.4 3.1 5.3c.5 1.8 .8 4.6 .8 8.2v7.8H740.8c-.7 0-1.3-.2-1.9-.5c-1.2-.6-2.2-1.6-3-3.1c-1-2.1-1.7-5-2-8.7c-1.4 1.7-2.4 2.9-3.2 3.6c-1.1 1-2 1.5-2.7 1.5c-.4 0-.9-.1-1.5-.2l-3.6-.7c-1.6-.3-2.5-.6-2.9-.7c-.3-.1-.5-.4-.5-.7c0-.6 .7-2.3 2.1-5.1c1.3-2.9 2.3-4.6 3-5.3c.5-.5 1.3-1.2 2.6-2.1c.8-.5 1.8-1.2 3.2-2l1.6-.9c-.1-.3-.1-.6-.1-.9c0-.3-.1-.5-.1-.8c0-.7 .2-1.7 .6-2.8c.3-1.2 .9-2.6 1.8-4.3l2.9 18.6c.4 2.9 1 4.9 1.8 5.9c.4 .7 1.1 1.1 1.9 1.1h5.8c.5 0 1.8-.9 4-2.5c.7-.5 1.8-1.4 3.2-2.5c0-2.5-.1-4.5-.3-6.2c-.2-1.7-.4-3.5-.8-5.3c-.1-.4-.7-2.6-1.6-6.5l-1.8-1c.5-2.1 .9-3.6 1.2-4.5c.2-.9 .8-2.3 1.7-4.3Zm-61.4-2.3l7 3.7l-3.6 6.7l-7-3.6Zm41.7-1.4l5.4 2.8l-3.3 5.5l-4.3-2.4l-2.3 4.7l-5.6-3l3.1-5.2l4.4 2.2Z" class="g1_39"/>
<path fill-rule="evenodd" d="M481.5 310.3l-5.4 16.4H487l-5.4-16.4Zm-84.7-1.2v26.2h4.1c2.2 0 4-.3 5.4-.8c1.5-.6 2.7-1.4 3.7-2.5c1-1.2 1.7-2.6 2.2-4.2c.5-1.7 .8-3.7 .8-5.9c0-1.8-.3-3.5-.7-5.1c-.4-1.5-1.1-2.9-2-4.1c-1-1.1-2.2-2-3.7-2.7c-1.5-.6-3.4-.9-5.8-.9Zm-5.5-6.2h9.9c3.5 0 6.4 .4 8.8 1.2c2.4 .8 4.4 2 6 3.6c1.7 1.6 2.9 3.6 3.8 5.9c.8 2.3 1.3 5 1.3 8.1c0 3.5-.5 6.5-1.4 9c-1 2.5-2.3 4.6-4 6.2c-1.7 1.6-3.8 2.7-6.3 3.5c-2.5 .7-5.4 1.1-8.8 1.1h-9.3c-.6 0-1.2-.2-1.6-.6c-.5-.4-.7-1-.7-1.9V305.4c0-.9 .2-1.5 .7-1.9c.4-.4 1-.6 1.6-.6Zm64.6-.1c.7 0 1.2 0 1.7 .1c.5 0 .8 .1 1.1 .2c.2 .2 .4 .3 .5 .5c.1 .1 .1 .3 .1 .5v34.7c0 .4 0 .8-.2 1.2c-.2 .3-.4 .6-.7 .9c-.2 .2-.5 .4-.9 .5c-.4 .1-.7 .2-1.1 .2H453c-.7 0-1.3-.1-1.8-.2c-.5-.2-.9-.4-1.4-.8c-.4-.4-.8-.9-1.2-1.5c-.4-.6-.9-1.4-1.3-2.4l-9.6-18.1c-.6-1-1.2-2.2-1.7-3.4c-.6-1.3-1.1-2.5-1.6-3.7h-.1c.1 1.5 .2 2.9 .2 4.3c.1 1.4 .1 2.9 .1 4.4v20.2c0 .2-.1 .4-.2 .5c-.1 .2-.3 .3-.5 .4c-.3 .2-.7 .2-1.1 .3c-.5 .1-1.1 .1-1.8 .1c-.7 0-1.3 0-1.7-.1c-.5-.1-.8-.1-1.1-.3c-.3-.1-.4-.2-.5-.4c-.1-.1-.2-.3-.2-.5V305.7c0-.9 .3-1.6 .8-2.1c.6-.4 1.3-.7 2-.7h4.3c.7 0 1.4 .1 1.9 .2c.5 .1 .9 .4 1.3 .7c.5 .3 .8 .7 1.2 1.2c.4 .5 .7 1.2 1.1 2l7.5 14.1c.5 .8 .9 1.7 1.3 2.5c.4 .8 .8 1.6 1.2 2.4c.4 .9 .8 1.7 1.2 2.5c.4 .8 .8 1.6 1.1 2.4c0-1.4-.1-2.9-.1-4.4c0-1.5 0-2.9 0-4.3V304.1c0-.2 0-.4 .1-.5c.2-.2 .4-.3 .6-.5c.3-.1 .7-.2 1.1-.2c.5-.1 1.1-.1 1.8-.1Zm25.7 0c1.2 0 2.2 0 2.9 0c.6 0 1.2 .1 1.6 .2c.4 .1 .7 .3 .8 .5c.2 .2 .3 .5 .4 .9l12 34.2c.2 .7 .4 1.3 .4 1.7c.1 .4 0 .7-.2 .9c-.2 .2-.6 .4-1.2 .4c-.5 .1-1.3 .1-2.3 .1c-1 0-1.8 0-2.3-.1c-.6 0-1.1-.1-1.3-.1c-.3-.1-.5-.3-.7-.4c-.1-.2-.2-.4-.3-.6l-2.6-7.8H474.3l-2.4 7.6c-.1 .2-.2 .5-.3 .7c-.1 .1-.3 .3-.6 .4c-.3 .1-.7 .2-1.3 .2c-.5 .1-1.2 .1-2 .1c-.9 0-1.7 0-2.2-.1c-.5-.1-.9-.2-1.1-.4c-.2-.3-.2-.6-.2-1c.1-.4 .2-1 .5-1.7l11.9-34.2c.1-.3 .2-.6 .4-.8c.2-.2 .4-.4 .8-.5c.3-.1 .8-.2 1.4-.2c.6 0 1.4 0 2.4 0Z" class="g0_39"/>
<path d="M481.5 310.3l-5.4 16.4H487l-5.4-16.4Zm-84.7-1.2v26.2h4.1c2.2 0 4-.3 5.4-.8c1.5-.6 2.7-1.4 3.7-2.5c1-1.2 1.7-2.6 2.2-4.2c.5-1.7 .8-3.7 .8-5.9c0-1.8-.3-3.5-.7-5.1c-.4-1.5-1.1-2.9-2-4.1c-1-1.1-2.2-2-3.7-2.7c-1.5-.6-3.4-.9-5.8-.9Zm-5.5-6.2h9.9c3.5 0 6.4 .4 8.8 1.2c2.4 .8 4.4 2 6 3.6c1.7 1.6 2.9 3.6 3.8 5.9c.8 2.3 1.3 5 1.3 8.1c0 3.5-.5 6.5-1.4 9c-1 2.5-2.3 4.6-4 6.2c-1.7 1.6-3.8 2.7-6.3 3.5c-2.5 .7-5.4 1.1-8.8 1.1h-9.3c-.6 0-1.2-.2-1.6-.6c-.5-.4-.7-1-.7-1.9V305.4c0-.9 .2-1.5 .7-1.9c.4-.4 1-.6 1.6-.6Zm64.6-.1c.7 0 1.2 0 1.7 .1c.5 0 .8 .1 1.1 .2c.2 .2 .4 .3 .5 .5c.1 .1 .1 .3 .1 .5v34.7c0 .4 0 .8-.2 1.2c-.2 .3-.4 .6-.7 .9c-.2 .2-.5 .4-.9 .5c-.4 .1-.7 .2-1.1 .2H453c-.7 0-1.3-.1-1.8-.2c-.5-.2-.9-.4-1.4-.8c-.4-.4-.8-.9-1.2-1.5c-.4-.6-.9-1.4-1.3-2.4l-9.6-18.1c-.6-1-1.2-2.2-1.7-3.4c-.6-1.3-1.1-2.5-1.6-3.7h-.1c.1 1.5 .2 2.9 .2 4.3c.1 1.4 .1 2.9 .1 4.4v20.2c0 .2-.1 .4-.2 .5c-.1 .2-.3 .3-.5 .4c-.3 .2-.7 .2-1.1 .3c-.5 .1-1.1 .1-1.8 .1c-.7 0-1.3 0-1.7-.1c-.5-.1-.8-.1-1.1-.3c-.3-.1-.4-.2-.5-.4c-.1-.1-.2-.3-.2-.5V305.7c0-.9 .3-1.6 .8-2.1c.6-.4 1.3-.7 2-.7h4.3c.7 0 1.4 .1 1.9 .2c.5 .1 .9 .4 1.3 .7c.5 .3 .8 .7 1.2 1.2c.4 .5 .7 1.2 1.1 2l7.5 14.1c.5 .8 .9 1.7 1.3 2.5c.4 .8 .8 1.6 1.2 2.4c.4 .9 .8 1.7 1.2 2.5c.4 .8 .8 1.6 1.1 2.4c0-1.4-.1-2.9-.1-4.4c0-1.5 0-2.9 0-4.3V304.1c0-.2 0-.4 .1-.5c.2-.2 .4-.3 .6-.5c.3-.1 .7-.2 1.1-.2c.5-.1 1.1-.1 1.8-.1Zm25.7 0c1.2 0 2.2 0 2.9 0c.6 0 1.2 .1 1.6 .2c.4 .1 .7 .3 .8 .5c.2 .2 .3 .5 .4 .9l12 34.2c.2 .7 .4 1.3 .4 1.7c.1 .4 0 .7-.2 .9c-.2 .2-.6 .4-1.2 .4c-.5 .1-1.3 .1-2.3 .1c-1 0-1.8 0-2.3-.1c-.6 0-1.1-.1-1.3-.1c-.3-.1-.5-.3-.7-.4c-.1-.2-.2-.4-.3-.6l-2.6-7.8H474.3l-2.4 7.6c-.1 .2-.2 .5-.3 .7c-.1 .1-.3 .3-.6 .4c-.3 .1-.7 .2-1.3 .2c-.5 .1-1.2 .1-2 .1c-.9 0-1.7 0-2.2-.1c-.5-.1-.9-.2-1.1-.4c-.2-.3-.2-.6-.2-1c.1-.4 .2-1 .5-1.7l11.9-34.2c.1-.3 .2-.6 .4-.8c.2-.2 .4-.4 .8-.5c.3-.1 .8-.2 1.4-.2c.6 0 1.4 0 2.4 0Z" class="g1_39"/>
<path fill-rule="evenodd" d="M357.3 335.3l7 3.7l-3.6 6.6l-7-3.6Zm-16.5 0l7 3.7l-3.6 6.6l-7-3.6Zm-97.2-.3l5.5 3l-3.1 5.8l-4.4-2.2l-2.5 4.8l-5.4-3l3.3-6.1l4.2 2.4Zm-62.4 0l5.6 3l-3.1 5.8l-4.4-2.2l-2.5 4.8l-5.5-3l3.3-6.1l4.3 2.4Zm-73.5-15.1c-.7 0-1.2 .2-1.5 .7c-.4 .5-.6 1-.6 1.6c0 .7 .4 1.3 1.2 1.8c.8 .4 1.8 .7 3.1 .7h1.2c-.6-3.2-1.7-4.8-3.4-4.8Zm157.8-.2c-.8 0-1.4 .9-1.9 2.7c1 .4 1.8 .7 2.3 .9c1.6 .6 2.5 .9 2.7 .9c.5 0 .7-.2 .7-.5c0-.4-.4-1.2-1.3-2.2c-1-1.2-1.8-1.8-2.5-1.8Zm31.5-6.3c1.3 1.4 2.4 3 3.1 4.8c.8 1.8 1.1 3.8 1.1 6.1v9.2c0 1.2-.7 2.8-2.1 4.8c-1.4 2-3 3.7-4.8 5.2c-2.1 1.6-3.9 2.4-5.4 2.4c-1.7 0-3.6-.5-5.6-1.5c-1.7-.8-4.5-2.5-8.2-5.1l1.3-1.8c1.8 1.1 3.2 2 4.3 2.4c1.1 .4 2.3 .6 3.5 .6c1.4 0 2.8-.4 4.2-1.2c1.3-.7 3.2-2.2 5.6-4.3c3.3-2.9 4.9-5.2 4.9-6.8c0-.8-.3-1.8-1-3.1c-.7-1.5-1.5-2.7-2.6-3.7Zm-218-.1c1.1 0 2.1 .5 2.7 1.4c.7 .9 1.1 2.1 1.1 3.6c0 1.1-.2 2-.4 2.7c-.2 .7-.7 1.6-1.4 2.8c-.5-1.4-1-2.3-1.3-2.8c-.4-.4-.9-.6-1.6-.6c-1.1 0-2.6 .6-4.5 1.8c-1.8 1.3-2.8 2.3-2.8 3.1c0 .5 .4 .8 1.2 .9c.5 .2 1.3 .2 2.5 .2c.3 0 .6 0 .8 0c.3 0 .6 0 .9 0c2.2 0 3.6 .2 4.3 .7c.7 .3 1 1.1 1 2.2c0 2.1-.4 4.2-1.2 6.1c-1 2.5-2.5 4.3-4.3 5.3c-2.4 1.4-4.9 2.4-7.4 3.2c-2.6 .9-5 1.3-7.2 1.3c-6.1 0-9.2-2.8-9.2-8.3c0-2.9 .3-5.3 1-7.3c.8-2.3 2.4-5.3 4.9-9.2l1.4 .9c-1.5 2.5-2.6 4.7-3.3 6.6c-.7 2-1.1 3.7-1.1 5.1c0 3.8 2.1 5.6 6.3 5.6c1.6 0 3.1-.1 4.6-.4c1.4-.3 2.9-.7 4.3-1.2c1-.3 2.1-.8 3.3-1.3c2-.9 3-1.3 3.1-1.4c.9-.5 1.4-.9 1.4-1.3c0-.2-.5-.3-1.5-.4c-.9 0-1.6 0-2 0c-3.1 0-5.1-.5-6.2-1.3c-.8-.8-1.2-2.1-1.2-4c0-.9 .3-2.1 .9-3.5c.6-1.4 1.3-2.7 2.3-4.1c1.4-2.1 2.9-3.7 4.3-4.7c1.5-1.1 2.9-1.7 4.3-1.7Zm71.9-2.4c1.3 0 2.5 .3 3.7 1c1.2 .6 2.6 1.6 4.1 3.1c1.2 1.1 2.9 2.8 5.1 5.2c1.5 1.6 2.6 2.7 3.4 3.2c.8 .5 2 .9 3.5 1.3h13.6c-.2-1.4-.6-2.5-1.2-3.5c-.3-.5-1-1.4-2.1-2.6l2.4-7.1c1.5 1.6 2.5 3.4 3 5.3c.6 1.8 .9 4.6 .9 8.2v7.8H114.4v.5c-.6 2.5-1.9 5-4.1 7.5c-2.9 3.4-5.8 5.1-8.6 5.1c-1.7 0-3.5-.6-5.4-1.6c-2-1.1-5-3.1-9-6.2l1.2-1.8c2.2 1.4 3.9 2.4 5.3 2.9c1.1 .4 2.4 .6 3.8 .6c2 0 3.9-.6 5.8-1.6c2.2-1.3 4.5-3.4 6.9-6.2c-.9 .2-1.6 .2-2.1 .2c-2 0-3.5-.6-4.7-1.9c-1.2-1.3-1.8-3-1.8-5.2c0-3 .7-5.9 2.1-8.7c1.5-3 3.2-4.5 5.1-4.5c1.6 0 2.9 1.1 4.1 3.3c1.1 2.2 1.6 4.8 1.6 7.8v1.7h21.3c-.2-1.4-.6-2.5-1.2-3.5c-.3-.5-1-1.4-2.1-2.6l2.4-7.1c1.5 1.6 2.5 3.4 3 5.3c.5 1.6 .8 3.9 .8 6.9l.1 1h19c-2.4-2.5-4.6-4.3-6.7-5.4c-1.8-1-3.6-1.5-5.3-1.5c-.5 0-1 .1-1.4 .1c-.4 .1-1.1 .2-1.9 .4c1.1-2.6 2.3-4.4 3.7-5.6c1.3-1.2 2.8-1.8 4.6-1.8Zm67.5-6.3c2.5 1.9 4.4 4.4 5.5 7.4c.9 2.9 1.4 6.6 1.4 11.2v1.5h21.3c-.2-1.4-.6-2.5-1.2-3.5c-.3-.5-1-1.4-2.1-2.6l2.4-7.1c1.5 1.6 2.5 3.4 3.1 5.3c.5 1.6 .7 3.9 .8 6.9v1h3.7c1.8 0 3.2-.3 4.3-.7c1.3-.6 2.3-1.5 2.8-2.9c1.1-2.5 2.6-4.6 4.3-6.2c1.6-1.5 3-2.2 4.1-2.2c1 0 2.2 1.5 3.7 4.6c1.6 3.2 2.4 6.2 2.4 8.9v6.5c-2.1 0-4.6-.4-7.4-1.2c-2.5-.7-4.7-1.5-6.6-2.5c-1.1 1.7-2.5 2.8-4.2 3.4c-.8 .2-2 .4-3.4 .4H211.8c-1.3 0-2.3-.3-3-.9c-.8-.6-1.3-1.7-1.3-3.3c0-.8 .1-1.8 .2-2.8c.1-1 .2-2 .4-3.1h1.1c.2 .7 .5 1.2 1.1 1.5c.5 .3 1.2 .5 2 .5h10.2c-.5-2.9-1.2-5.3-2.4-7c-.9-1.5-2.2-2.7-3.9-3.8Zm74.4-5.4l6.9 3.7l-3.6 6.7l-6.9-3.7Zm11-.1c1.2 0 3 .7 5.3 2c2.3 1.4 4.5 3.1 6.5 5c4.7 4.3 7 8.2 7 11.7c0 .6-.1 1.2-.3 1.7c-.2 .5-.5 1.2-1 2c-1.2-2.7-2.5-4.8-3.9-6.5c-1.4-1.7-3-3.1-5-4.1c0 .9-.1 1.5-.3 1.9c-.2 .4-.4 .6-.8 .6c-.6 0-1.7-.6-3.3-1.7c-1.7-1.2-2.9-2.4-3.7-3.5c-.5-.8-.9-1.9-1.2-3.4c-.3-1.5-.4-2.7-.4-3.6c0-1.4 .4-2.1 1.1-2.1Zm-171-1.2l5.6 3l-3.1 5.8l-4.4-2.2l-2.5 4.8l-5.5-3l3.3-6.1l4.3 2.4Zm194.5-3.1c1 3.4 1.7 7.8 1.9 13.3c.2 3.9 .4 7.7 .5 11.6c.4 3.3 1.1 5 2.4 5h15.7c-.2-1.4-.6-2.5-1.2-3.5c-.3-.5-1-1.4-2.1-2.6l2.4-7.1c1.5 1.6 2.5 3.4 3.1 5.3c.5 1.6 .7 3.9 .8 6.9v1h13.5c-.2-1.4-.6-2.5-1.2-3.5c-.3-.5-1-1.4-2.1-2.6l2.4-7.1c1.5 1.6 2.5 3.4 3.1 5.3c.5 1.8 .8 4.6 .8 8.2v7.8H332.1c-1.3 0-2.5-1.1-3.6-3.1c-1.2-2.2-1.8-4.7-1.8-7.5c-1.7 5.2-4.2 8.8-7.3 10.7c-3 1.9-7.7 2.9-14 2.9l-3.4-.1v-1.9c1.4-.5 2.8-1 4.2-1.5c1.4-.5 2.5-.9 3.2-1.2c4-2.1 6.8-3.6 8.2-4.5c2.6-1.6 4.4-3.4 5.5-5.2c1.4-2.1 2-4.7 2-7.8c0-1.8-.1-3.6-.4-5.4c-.3-1.7-.6-3.5-.9-5.2c0-1.4 1.2-4.1 3.5-8.2Z" class="g0_39"/>
<path d="M357.3 335.3l7 3.7l-3.6 6.6l-7-3.6Zm-16.5 0l7 3.7l-3.6 6.6l-7-3.6Zm-97.2-.3l5.5 3l-3.1 5.8l-4.4-2.2l-2.5 4.8l-5.4-3l3.3-6.1l4.2 2.4Zm-62.4 0l5.6 3l-3.1 5.8l-4.4-2.2l-2.5 4.8l-5.5-3l3.3-6.1l4.3 2.4Zm-73.5-15.1c-.7 0-1.2 .2-1.5 .7c-.4 .5-.6 1-.6 1.6c0 .7 .4 1.3 1.2 1.8c.8 .4 1.8 .7 3.1 .7h1.2c-.6-3.2-1.7-4.8-3.4-4.8Zm157.8-.2c-.8 0-1.4 .9-1.9 2.7c1 .4 1.8 .7 2.3 .9c1.6 .6 2.5 .9 2.7 .9c.5 0 .7-.2 .7-.5c0-.4-.4-1.2-1.3-2.2c-1-1.2-1.8-1.8-2.5-1.8Zm31.5-6.3c1.3 1.4 2.4 3 3.1 4.8c.8 1.8 1.1 3.8 1.1 6.1v9.2c0 1.2-.7 2.8-2.1 4.8c-1.4 2-3 3.7-4.8 5.2c-2.1 1.6-3.9 2.4-5.4 2.4c-1.7 0-3.6-.5-5.6-1.5c-1.7-.8-4.5-2.5-8.2-5.1l1.3-1.8c1.8 1.1 3.2 2 4.3 2.4c1.1 .4 2.3 .6 3.5 .6c1.4 0 2.8-.4 4.2-1.2c1.3-.7 3.2-2.2 5.6-4.3c3.3-2.9 4.9-5.2 4.9-6.8c0-.8-.3-1.8-1-3.1c-.7-1.5-1.5-2.7-2.6-3.7Zm-218-.1c1.1 0 2.1 .5 2.7 1.4c.7 .9 1.1 2.1 1.1 3.6c0 1.1-.2 2-.4 2.7c-.2 .7-.7 1.6-1.4 2.8c-.5-1.4-1-2.3-1.3-2.8c-.4-.4-.9-.6-1.6-.6c-1.1 0-2.6 .6-4.5 1.8c-1.8 1.3-2.8 2.3-2.8 3.1c0 .5 .4 .8 1.2 .9c.5 .2 1.3 .2 2.5 .2c.3 0 .6 0 .8 0c.3 0 .6 0 .9 0c2.2 0 3.6 .2 4.3 .7c.7 .3 1 1.1 1 2.2c0 2.1-.4 4.2-1.2 6.1c-1 2.5-2.5 4.3-4.3 5.3c-2.4 1.4-4.9 2.4-7.4 3.2c-2.6 .9-5 1.3-7.2 1.3c-6.1 0-9.2-2.8-9.2-8.3c0-2.9 .3-5.3 1-7.3c.8-2.3 2.4-5.3 4.9-9.2l1.4 .9c-1.5 2.5-2.6 4.7-3.3 6.6c-.7 2-1.1 3.7-1.1 5.1c0 3.8 2.1 5.6 6.3 5.6c1.6 0 3.1-.1 4.6-.4c1.4-.3 2.9-.7 4.3-1.2c1-.3 2.1-.8 3.3-1.3c2-.9 3-1.3 3.1-1.4c.9-.5 1.4-.9 1.4-1.3c0-.2-.5-.3-1.5-.4c-.9 0-1.6 0-2 0c-3.1 0-5.1-.5-6.2-1.3c-.8-.8-1.2-2.1-1.2-4c0-.9 .3-2.1 .9-3.5c.6-1.4 1.3-2.7 2.3-4.1c1.4-2.1 2.9-3.7 4.3-4.7c1.5-1.1 2.9-1.7 4.3-1.7Zm71.9-2.4c1.3 0 2.5 .3 3.7 1c1.2 .6 2.6 1.6 4.1 3.1c1.2 1.1 2.9 2.8 5.1 5.2c1.5 1.6 2.6 2.7 3.4 3.2c.8 .5 2 .9 3.5 1.3h13.6c-.2-1.4-.6-2.5-1.2-3.5c-.3-.5-1-1.4-2.1-2.6l2.4-7.1c1.5 1.6 2.5 3.4 3 5.3c.6 1.8 .9 4.6 .9 8.2v7.8H114.4v.5c-.6 2.5-1.9 5-4.1 7.5c-2.9 3.4-5.8 5.1-8.6 5.1c-1.7 0-3.5-.6-5.4-1.6c-2-1.1-5-3.1-9-6.2l1.2-1.8c2.2 1.4 3.9 2.4 5.3 2.9c1.1 .4 2.4 .6 3.8 .6c2 0 3.9-.6 5.8-1.6c2.2-1.3 4.5-3.4 6.9-6.2c-.9 .2-1.6 .2-2.1 .2c-2 0-3.5-.6-4.7-1.9c-1.2-1.3-1.8-3-1.8-5.2c0-3 .7-5.9 2.1-8.7c1.5-3 3.2-4.5 5.1-4.5c1.6 0 2.9 1.1 4.1 3.3c1.1 2.2 1.6 4.8 1.6 7.8v1.7h21.3c-.2-1.4-.6-2.5-1.2-3.5c-.3-.5-1-1.4-2.1-2.6l2.4-7.1c1.5 1.6 2.5 3.4 3 5.3c.5 1.6 .8 3.9 .8 6.9l.1 1h19c-2.4-2.5-4.6-4.3-6.7-5.4c-1.8-1-3.6-1.5-5.3-1.5c-.5 0-1 .1-1.4 .1c-.4 .1-1.1 .2-1.9 .4c1.1-2.6 2.3-4.4 3.7-5.6c1.3-1.2 2.8-1.8 4.6-1.8Zm67.5-6.3c2.5 1.9 4.4 4.4 5.5 7.4c.9 2.9 1.4 6.6 1.4 11.2v1.5h21.3c-.2-1.4-.6-2.5-1.2-3.5c-.3-.5-1-1.4-2.1-2.6l2.4-7.1c1.5 1.6 2.5 3.4 3.1 5.3c.5 1.6 .7 3.9 .8 6.9v1h3.7c1.8 0 3.2-.3 4.3-.7c1.3-.6 2.3-1.5 2.8-2.9c1.1-2.5 2.6-4.6 4.3-6.2c1.6-1.5 3-2.2 4.1-2.2c1 0 2.2 1.5 3.7 4.6c1.6 3.2 2.4 6.2 2.4 8.9v6.5c-2.1 0-4.6-.4-7.4-1.2c-2.5-.7-4.7-1.5-6.6-2.5c-1.1 1.7-2.5 2.8-4.2 3.4c-.8 .2-2 .4-3.4 .4H211.8c-1.3 0-2.3-.3-3-.9c-.8-.6-1.3-1.7-1.3-3.3c0-.8 .1-1.8 .2-2.8c.1-1 .2-2 .4-3.1h1.1c.2 .7 .5 1.2 1.1 1.5c.5 .3 1.2 .5 2 .5h10.2c-.5-2.9-1.2-5.3-2.4-7c-.9-1.5-2.2-2.7-3.9-3.8Zm74.4-5.4l6.9 3.7l-3.6 6.7l-6.9-3.7Zm11-.1c1.2 0 3 .7 5.3 2c2.3 1.4 4.5 3.1 6.5 5c4.7 4.3 7 8.2 7 11.7c0 .6-.1 1.2-.3 1.7c-.2 .5-.5 1.2-1 2c-1.2-2.7-2.5-4.8-3.9-6.5c-1.4-1.7-3-3.1-5-4.1c0 .9-.1 1.5-.3 1.9c-.2 .4-.4 .6-.8 .6c-.6 0-1.7-.6-3.3-1.7c-1.7-1.2-2.9-2.4-3.7-3.5c-.5-.8-.9-1.9-1.2-3.4c-.3-1.5-.4-2.7-.4-3.6c0-1.4 .4-2.1 1.1-2.1Zm-171-1.2l5.6 3l-3.1 5.8l-4.4-2.2l-2.5 4.8l-5.5-3l3.3-6.1l4.3 2.4Zm194.5-3.1c1 3.4 1.7 7.8 1.9 13.3c.2 3.9 .4 7.7 .5 11.6c.4 3.3 1.1 5 2.4 5h15.7c-.2-1.4-.6-2.5-1.2-3.5c-.3-.5-1-1.4-2.1-2.6l2.4-7.1c1.5 1.6 2.5 3.4 3.1 5.3c.5 1.6 .7 3.9 .8 6.9v1h13.5c-.2-1.4-.6-2.5-1.2-3.5c-.3-.5-1-1.4-2.1-2.6l2.4-7.1c1.5 1.6 2.5 3.4 3.1 5.3c.5 1.8 .8 4.6 .8 8.2v7.8H332.1c-1.3 0-2.5-1.1-3.6-3.1c-1.2-2.2-1.8-4.7-1.8-7.5c-1.7 5.2-4.2 8.8-7.3 10.7c-3 1.9-7.7 2.9-14 2.9l-3.4-.1v-1.9c1.4-.5 2.8-1 4.2-1.5c1.4-.5 2.5-.9 3.2-1.2c4-2.1 6.8-3.6 8.2-4.5c2.6-1.6 4.4-3.4 5.5-5.2c1.4-2.1 2-4.7 2-7.8c0-1.8-.1-3.6-.4-5.4c-.3-1.7-.6-3.5-.9-5.2c0-1.4 1.2-4.1 3.5-8.2Z" class="g1_39"/>
<path fill-rule="evenodd" d="M1358.4 408.3l5.6 3.1l-3.1 5.7l-4.4-2.2l-2.6 4.9l-5.4-3.1l3.3-6.1l4.2 2.4Zm-84.1 0l5.5 3.1l-3.1 5.7l-4.4-2.2l-2.5 4.9l-5.4-3.1l3.3-6.1l4.2 2.4Zm63.4-16.2c-1.3 0-2.8 .4-4.4 1.3c-1.7 .8-4 2.4-7.2 4.6h7.8c6.6 0 9.9-1 9.9-3c0-.7-.8-1.4-2.2-2c-1.5-.6-2.8-.9-3.9-.9Zm-86.1-6.4c-.7 .3-1.2 .5-1.5 .7c-1.1 .6-2 1.1-2.7 1.6c-.4 .4-.8 .8-1.1 1.1c-.4 .5-.6 .8-.6 1c0 .3 .3 .5 1 .7c.7 .1 1.4 .2 2.1 .2c.4 0 .9-.1 1.3-.4c.5-.2 1.2-.7 2.1-1.3Zm38-2.2c-.6 0-1.1 .3-1.6 .8c-.5 .6-.7 1.2-.7 1.9c0 .5 .2 .9 .5 1.2c.4 .3 .9 .4 1.4 .4c.5 0 1-.1 1.4-.4c.5-.2 1.1-.7 1.7-1.4c-.5-.9-1-1.5-1.4-1.9c-.4-.4-.8-.6-1.3-.6Zm129.4-9l5.5 3l-3.3 6.1l-4.3-2.4l-2.3 4.7l-5.6-3l3.1-5.8l4.4 2.2Zm-165.8-2l2.9 18.5c.5 3 1 5 1.8 6c.5 .7 1.1 1 2 1h17.4c-.2-1.4-.6-2.5-1.2-3.4c-.3-.5-1-1.4-2.1-2.7l2.4-7.1c1.5 1.7 2.5 3.5 3.1 5.3c.4 1.6 .7 3.9 .8 6.9v1H1296c0-1.7 0-3-.1-3.7c-.2-1.1-.5-2.1-1-2.9c-.7 1.2-1.5 2.1-2.6 2.8c-1.1 .6-2.2 1-3.4 1c-1.6 0-2.9-.6-4-1.6c-1.1-1.1-1.7-2.4-1.7-4c0-2.3 .7-5.1 2.2-8.3c1.5-3.6 3.1-5.3 4.7-5.3c2.1 0 4.1 1.8 5.9 5.4c1.9 3.7 2.8 7.5 2.8 11.6v13.1h-38.9c-.8 0-1.4-.1-2-.4c-1.2-.6-2.1-1.7-2.9-3.2c-1.1-2.1-1.8-5-2.1-8.6c-1.4 1.6-2.4 2.8-3.2 3.5c-1.1 1-2 1.5-2.7 1.5c-.4 0-.9 0-1.5-.1l-3.6-.8c-1.5-.3-2.5-.5-2.9-.7c-.3-.1-.5-.4-.5-.7c0-.5 .7-2.2 2.1-5.1c1.4-2.8 2.4-4.6 3-5.3c.5-.5 1.4-1.2 2.6-2.1c.8-.5 1.9-1.1 3.2-2l1.6-.9c0-.3-.1-.5-.1-.8c0-.3 0-.6 0-.9c0-.7 .1-1.7 .5-2.8c.3-1.1 .9-2.6 1.8-4.2Zm196.7-2.6l1.7 10.6c.7 4 1.2 7.5 1.4 10.4c.2 2.3 .3 4.4 .3 6.5c0 1.8-.2 3.4-.6 4.9c-.4 1.4-1.2 3.4-2.4 5.9l-1.8-.8c.5-2.5 .7-4.6 .7-6.2c0-1.2-.1-2.9-.3-5.3c-.2-2.3-.4-4.7-.7-6.9c-.3-2.4-.8-5.1-1.5-8.3c-.2-1.1-.4-1.8-.4-2.3c0-.6 .4-1.6 1-3.1c.6-1.5 1.4-3.3 2.6-5.4Zm-36.8-2.3l5.6 2.9l-3 6.2l-5.6-3Zm23 0l1.3 .7c0 .1 0 .4-.1 .9c0 .7 .4 1.3 1.3 1.9c.7 .6 1.9 1.2 3.5 1.9c-.2 1.3-.5 2.5-.8 3.7c-.4 1.2-.7 2.3-1.2 3.3l-1.1-.5l3.3 18.5v8.1h-16.4l-1-.1c-1-.1-1.8-.2-2.5-.4c-1.5-.3-3-.8-4.4-1.5c-1.1 .8-2.2 1.4-3.1 1.6c-.9 .3-2.2 .4-4 .4H1406c-1.3 0-2.4-.3-3.2-1c-.7-.7-1.4-1.9-2-3.5c-1.1 1.7-2.4 2.9-3.7 3.6c-1.2 .6-2.5 .9-4.2 .9h-2.1v.7c0 1.2-.7 2.8-2.1 4.8c-1.4 2-3 3.7-4.9 5.2c-2.1 1.6-3.8 2.5-5.3 2.5c-1.8 0-3.6-.6-5.6-1.5c-1.8-.9-4.5-2.6-8.2-5.2l1.2-1.8c1.8 1.2 3.2 2 4.3 2.4c1.1 .4 2.3 .6 3.6 .6c1.4 0 2.7-.4 4.1-1.1c1.4-.8 3.2-2.2 5.6-4.4c3.3-2.9 5-5.2 5-6.8c0-.7-.4-1.8-1-3.1c-.7-1.5-1.6-2.7-2.6-3.7l1.7-8c1.3 1.4 2.3 3 3.1 4.8c.7 1.8 1.1 3.9 1.1 6.2v.3h2.1c2.1 0 3.9-.6 5.3-1.8c1.8-1.5 2.7-3.8 2.7-6.9l1.9 .3c0 .6 0 1.3-.1 2.1c0 .8 0 1.8 0 2.8c0 1 .3 1.8 1 2.5c.7 .7 1.5 1 2.4 1h3.7c2.4 0 4.1-.3 5.1-1c1.3-.8 1.9-2.3 1.9-4.6c0-.4 .2-.9 .5-1.3c.1-.2 .5-.5 1.1-.9l1.1-.9c0 .3 .1 .8 .1 1.5c0 .6 0 1.1 0 1.3c0 1.1-.1 2.5-.4 4.3c.7 .4 1.5 .7 2.4 .9c.9 .3 1.9 .5 2.9 .6c0-.6-.2-1.5-.7-2.6c-.5-1.1-.8-1.8-.8-2.2c0-.5 .1-.9 .2-1.1c.1-.2 .3-.5 .7-1l2.5-3.4c.6 1.2 .9 2.4 1.2 3.4c.2 1 .3 2.3 .3 3.8V398h10.8l-3.6-20.2l-1.9-1.3c0-1.2 .2-2.3 .5-3.5c.5-1.6 1.3-3.4 2.4-5.4Zm-254.3 0l1.4 .7c0 .1-.1 .4-.2 .9c0 .7 .4 1.3 1.3 1.9c.7 .6 1.9 1.2 3.5 1.9c-.2 1.3-.4 2.5-.8 3.7c-.3 1.2-.7 2.3-1.2 3.3l-1-.5L1188 398h1.1c.6 0 1 0 1.3 0c.6-.1 1.2-.2 1.8-.2c-1-1.5-1.7-2.7-2-3.6c-.4-1-.5-2-.5-3.2c0-2.9 1.2-5.5 3.6-7.7c2.5-2.2 5.4-3.3 8.6-3.3c2.3 0 4.4 .7 6.4 2.1c1.8 1.4 3.2 3 4 5l-1.2 1c-1.6-.6-2.8-.9-3.8-1.1c-.9-.2-2-.3-3.4-.3c-2.4 0-4.6 .2-6.4 .6c-2.3 .5-3.4 1.2-3.4 2.1c0 1.4 2.7 3.7 8.3 6.8l15.1-4.3l-3.3 8.5c-5.4 1.6-9.8 2.9-13.3 3.8c-3 .7-5.6 1.3-7.7 1.6c-1.5 .2-3.1 .3-4.6 .3h-17.5c-.7 0-1.3 .1-1.8 .2c-.4 .1-.7 .3-.7 .5c0 .1 .5 .4 1.5 .7c1 .4 1.5 1 1.5 1.8c0 1.1-.2 2.4-.5 3.9c-.4 1.6-.8 3-1.4 4.2c-.4 1-1.7 2.1-3.7 3.3c-2.1 1.3-4.5 2.4-7.3 3.3c-3.1 1-6 1.5-8.8 1.5c-3.3 0-5.7-.8-7.4-2.3c-1.6-1.5-2.4-3.7-2.4-6.5c0-3.1 .4-5.9 1.1-8.2c.9-2.8 2.8-6.4 5.6-10.9l1.7 1.3c-1.9 3.1-3.2 5.7-3.9 7.6c-.6 1.8-1 3.7-1 5.5c0 1.9 .6 3.3 1.8 4.4c1.1 1 2.8 1.5 4.8 1.5c2.5 0 5.3-.3 8.2-1.1c2.6-.7 4.8-1.6 6.7-2.5c1.9-1 2.8-1.8 2.8-2.5c0-.2-.5-.3-1.6-.3c-1.2-.1-2.1-.1-3-.1c-2.1 0-3.5-.1-4.1-.2c-.6-.2-.9-.5-.9-1.1c0-1.1 .2-2.2 .6-3.4c.3-1.2 .8-2.1 1.3-2.8c1.3-1.6 2.9-2.9 4.7-4c2-1.3 3.8-1.9 5.4-1.9h14.1l-3.6-20.2l-1.9-1.3c0-1.2 .2-2.3 .6-3.5c.4-1.6 1.2-3.4 2.3-5.4Zm141.7-2.4l1.3 .6c0 .1 0 .3-.1 .7c0 .7 1 1.6 3 2.5c.6 .3 1.6 .8 2.9 1.2c-.2 1.6-.5 3.1-.9 4.4c-.3 .7-.7 1.7-1.2 3.2l-1.1-.4c.6 2.8 1 4.9 1.2 6.2c.2 1.4 .3 2.6 .3 3.6v.4c0 .5 0 1 0 1.3c0 .3-.1 .9-.3 1.6c1.1-.8 2.1-1.6 3.2-2.3c1.6-1.1 3-2.1 4.3-2.8c1.7-.9 2.9-1.3 3.8-1.3c2.3 0 4.2 .6 5.6 1.8c1.6 1.4 2.4 3.3 2.4 5.9V398h13.6c-.3-1.4-.7-2.5-1.2-3.4c-.3-.5-1-1.4-2.1-2.7l2.4-7.1c1.5 1.7 2.5 3.5 3 5.3c.6 1.9 .8 4.6 .8 8.2v7.8h-50.5V398h3.9c.5 0 1.9-.8 4.1-2.5c.7-.5 1.8-1.3 3.2-2.5c0-2.4-.1-4.5-.3-6.2c-.2-1.7-.5-3.4-.9-5.3c-.1-.4-.6-2.5-1.6-6.4l-1.7-1.1c.4-2.1 .8-3.6 1.1-4.5c.3-.9 .9-2.3 1.8-4.3Zm-35.9-2.2l6.9 3.7l-3.6 6.6l-7-3.6Z" class="g0_39"/>
<path d="M1358.4 408.3l5.6 3.1l-3.1 5.7l-4.4-2.2l-2.6 4.9l-5.4-3.1l3.3-6.1l4.2 2.4Zm-84.1 0l5.5 3.1l-3.1 5.7l-4.4-2.2l-2.5 4.9l-5.4-3.1l3.3-6.1l4.2 2.4Zm63.4-16.2c-1.3 0-2.8 .4-4.4 1.3c-1.7 .8-4 2.4-7.2 4.6h7.8c6.6 0 9.9-1 9.9-3c0-.7-.8-1.4-2.2-2c-1.5-.6-2.8-.9-3.9-.9Zm-86.1-6.4c-.7 .3-1.2 .5-1.5 .7c-1.1 .6-2 1.1-2.7 1.6c-.4 .4-.8 .8-1.1 1.1c-.4 .5-.6 .8-.6 1c0 .3 .3 .5 1 .7c.7 .1 1.4 .2 2.1 .2c.4 0 .9-.1 1.3-.4c.5-.2 1.2-.7 2.1-1.3Zm38-2.2c-.6 0-1.1 .3-1.6 .8c-.5 .6-.7 1.2-.7 1.9c0 .5 .2 .9 .5 1.2c.4 .3 .9 .4 1.4 .4c.5 0 1-.1 1.4-.4c.5-.2 1.1-.7 1.7-1.4c-.5-.9-1-1.5-1.4-1.9c-.4-.4-.8-.6-1.3-.6Zm129.4-9l5.5 3l-3.3 6.1l-4.3-2.4l-2.3 4.7l-5.6-3l3.1-5.8l4.4 2.2Zm-165.8-2l2.9 18.5c.5 3 1 5 1.8 6c.5 .7 1.1 1 2 1h17.4c-.2-1.4-.6-2.5-1.2-3.4c-.3-.5-1-1.4-2.1-2.7l2.4-7.1c1.5 1.7 2.5 3.5 3.1 5.3c.4 1.6 .7 3.9 .8 6.9v1H1296c0-1.7 0-3-.1-3.7c-.2-1.1-.5-2.1-1-2.9c-.7 1.2-1.5 2.1-2.6 2.8c-1.1 .6-2.2 1-3.4 1c-1.6 0-2.9-.6-4-1.6c-1.1-1.1-1.7-2.4-1.7-4c0-2.3 .7-5.1 2.2-8.3c1.5-3.6 3.1-5.3 4.7-5.3c2.1 0 4.1 1.8 5.9 5.4c1.9 3.7 2.8 7.5 2.8 11.6v13.1h-38.9c-.8 0-1.4-.1-2-.4c-1.2-.6-2.1-1.7-2.9-3.2c-1.1-2.1-1.8-5-2.1-8.6c-1.4 1.6-2.4 2.8-3.2 3.5c-1.1 1-2 1.5-2.7 1.5c-.4 0-.9 0-1.5-.1l-3.6-.8c-1.5-.3-2.5-.5-2.9-.7c-.3-.1-.5-.4-.5-.7c0-.5 .7-2.2 2.1-5.1c1.4-2.8 2.4-4.6 3-5.3c.5-.5 1.4-1.2 2.6-2.1c.8-.5 1.9-1.1 3.2-2l1.6-.9c0-.3-.1-.5-.1-.8c0-.3 0-.6 0-.9c0-.7 .1-1.7 .5-2.8c.3-1.1 .9-2.6 1.8-4.2Zm196.7-2.6l1.7 10.6c.7 4 1.2 7.5 1.4 10.4c.2 2.3 .3 4.4 .3 6.5c0 1.8-.2 3.4-.6 4.9c-.4 1.4-1.2 3.4-2.4 5.9l-1.8-.8c.5-2.5 .7-4.6 .7-6.2c0-1.2-.1-2.9-.3-5.3c-.2-2.3-.4-4.7-.7-6.9c-.3-2.4-.8-5.1-1.5-8.3c-.2-1.1-.4-1.8-.4-2.3c0-.6 .4-1.6 1-3.1c.6-1.5 1.4-3.3 2.6-5.4Zm-36.8-2.3l5.6 2.9l-3 6.2l-5.6-3Zm23 0l1.3 .7c0 .1 0 .4-.1 .9c0 .7 .4 1.3 1.3 1.9c.7 .6 1.9 1.2 3.5 1.9c-.2 1.3-.5 2.5-.8 3.7c-.4 1.2-.7 2.3-1.2 3.3l-1.1-.5l3.3 18.5v8.1h-16.4l-1-.1c-1-.1-1.8-.2-2.5-.4c-1.5-.3-3-.8-4.4-1.5c-1.1 .8-2.2 1.4-3.1 1.6c-.9 .3-2.2 .4-4 .4H1406c-1.3 0-2.4-.3-3.2-1c-.7-.7-1.4-1.9-2-3.5c-1.1 1.7-2.4 2.9-3.7 3.6c-1.2 .6-2.5 .9-4.2 .9h-2.1v.7c0 1.2-.7 2.8-2.1 4.8c-1.4 2-3 3.7-4.9 5.2c-2.1 1.6-3.8 2.5-5.3 2.5c-1.8 0-3.6-.6-5.6-1.5c-1.8-.9-4.5-2.6-8.2-5.2l1.2-1.8c1.8 1.2 3.2 2 4.3 2.4c1.1 .4 2.3 .6 3.6 .6c1.4 0 2.7-.4 4.1-1.1c1.4-.8 3.2-2.2 5.6-4.4c3.3-2.9 5-5.2 5-6.8c0-.7-.4-1.8-1-3.1c-.7-1.5-1.6-2.7-2.6-3.7l1.7-8c1.3 1.4 2.3 3 3.1 4.8c.7 1.8 1.1 3.9 1.1 6.2v.3h2.1c2.1 0 3.9-.6 5.3-1.8c1.8-1.5 2.7-3.8 2.7-6.9l1.9 .3c0 .6 0 1.3-.1 2.1c0 .8 0 1.8 0 2.8c0 1 .3 1.8 1 2.5c.7 .7 1.5 1 2.4 1h3.7c2.4 0 4.1-.3 5.1-1c1.3-.8 1.9-2.3 1.9-4.6c0-.4 .2-.9 .5-1.3c.1-.2 .5-.5 1.1-.9l1.1-.9c0 .3 .1 .8 .1 1.5c0 .6 0 1.1 0 1.3c0 1.1-.1 2.5-.4 4.3c.7 .4 1.5 .7 2.4 .9c.9 .3 1.9 .5 2.9 .6c0-.6-.2-1.5-.7-2.6c-.5-1.1-.8-1.8-.8-2.2c0-.5 .1-.9 .2-1.1c.1-.2 .3-.5 .7-1l2.5-3.4c.6 1.2 .9 2.4 1.2 3.4c.2 1 .3 2.3 .3 3.8V398h10.8l-3.6-20.2l-1.9-1.3c0-1.2 .2-2.3 .5-3.5c.5-1.6 1.3-3.4 2.4-5.4Zm-254.3 0l1.4 .7c0 .1-.1 .4-.2 .9c0 .7 .4 1.3 1.3 1.9c.7 .6 1.9 1.2 3.5 1.9c-.2 1.3-.4 2.5-.8 3.7c-.3 1.2-.7 2.3-1.2 3.3l-1-.5L1188 398h1.1c.6 0 1 0 1.3 0c.6-.1 1.2-.2 1.8-.2c-1-1.5-1.7-2.7-2-3.6c-.4-1-.5-2-.5-3.2c0-2.9 1.2-5.5 3.6-7.7c2.5-2.2 5.4-3.3 8.6-3.3c2.3 0 4.4 .7 6.4 2.1c1.8 1.4 3.2 3 4 5l-1.2 1c-1.6-.6-2.8-.9-3.8-1.1c-.9-.2-2-.3-3.4-.3c-2.4 0-4.6 .2-6.4 .6c-2.3 .5-3.4 1.2-3.4 2.1c0 1.4 2.7 3.7 8.3 6.8l15.1-4.3l-3.3 8.5c-5.4 1.6-9.8 2.9-13.3 3.8c-3 .7-5.6 1.3-7.7 1.6c-1.5 .2-3.1 .3-4.6 .3h-17.5c-.7 0-1.3 .1-1.8 .2c-.4 .1-.7 .3-.7 .5c0 .1 .5 .4 1.5 .7c1 .4 1.5 1 1.5 1.8c0 1.1-.2 2.4-.5 3.9c-.4 1.6-.8 3-1.4 4.2c-.4 1-1.7 2.1-3.7 3.3c-2.1 1.3-4.5 2.4-7.3 3.3c-3.1 1-6 1.5-8.8 1.5c-3.3 0-5.7-.8-7.4-2.3c-1.6-1.5-2.4-3.7-2.4-6.5c0-3.1 .4-5.9 1.1-8.2c.9-2.8 2.8-6.4 5.6-10.9l1.7 1.3c-1.9 3.1-3.2 5.7-3.9 7.6c-.6 1.8-1 3.7-1 5.5c0 1.9 .6 3.3 1.8 4.4c1.1 1 2.8 1.5 4.8 1.5c2.5 0 5.3-.3 8.2-1.1c2.6-.7 4.8-1.6 6.7-2.5c1.9-1 2.8-1.8 2.8-2.5c0-.2-.5-.3-1.6-.3c-1.2-.1-2.1-.1-3-.1c-2.1 0-3.5-.1-4.1-.2c-.6-.2-.9-.5-.9-1.1c0-1.1 .2-2.2 .6-3.4c.3-1.2 .8-2.1 1.3-2.8c1.3-1.6 2.9-2.9 4.7-4c2-1.3 3.8-1.9 5.4-1.9h14.1l-3.6-20.2l-1.9-1.3c0-1.2 .2-2.3 .6-3.5c.4-1.6 1.2-3.4 2.3-5.4Zm141.7-2.4l1.3 .6c0 .1 0 .3-.1 .7c0 .7 1 1.6 3 2.5c.6 .3 1.6 .8 2.9 1.2c-.2 1.6-.5 3.1-.9 4.4c-.3 .7-.7 1.7-1.2 3.2l-1.1-.4c.6 2.8 1 4.9 1.2 6.2c.2 1.4 .3 2.6 .3 3.6v.4c0 .5 0 1 0 1.3c0 .3-.1 .9-.3 1.6c1.1-.8 2.1-1.6 3.2-2.3c1.6-1.1 3-2.1 4.3-2.8c1.7-.9 2.9-1.3 3.8-1.3c2.3 0 4.2 .6 5.6 1.8c1.6 1.4 2.4 3.3 2.4 5.9V398h13.6c-.3-1.4-.7-2.5-1.2-3.4c-.3-.5-1-1.4-2.1-2.7l2.4-7.1c1.5 1.7 2.5 3.5 3 5.3c.6 1.9 .8 4.6 .8 8.2v7.8h-50.5V398h3.9c.5 0 1.9-.8 4.1-2.5c.7-.5 1.8-1.3 3.2-2.5c0-2.4-.1-4.5-.3-6.2c-.2-1.7-.5-3.4-.9-5.3c-.1-.4-.6-2.5-1.6-6.4l-1.7-1.1c.4-2.1 .8-3.6 1.1-4.5c.3-.9 .9-2.3 1.8-4.3Zm-35.9-2.2l6.9 3.7l-3.6 6.6l-7-3.6Z" class="g1_39"/>
<path fill-rule="evenodd" d="M1103.1 386.9c1.8 1.5 3 2.6 3.7 3.1c.9 .7 2.2 1.6 3.8 2.8c-.6 2.6-1 4.2-1.2 4.7c-.2 1.1-.5 2.7-.9 4.8c-2-1.1-3.5-1.9-4.4-2.5c-.9-.7-2.1-1.7-3.8-3.1c.6-2.4 1-4.1 1.2-4.8c.4-1.2 .9-2.9 1.6-5Zm-34.3 0c1.8 1.5 3 2.6 3.8 3.1c.8 .7 2.1 1.6 3.8 2.8c-.7 2.6-1.1 4.2-1.2 4.7c-.3 1.1-.6 2.7-1 4.8c-2-1.1-3.4-1.9-4.3-2.5c-1-.7-2.2-1.7-3.9-3.1c.6-2.4 1-4.1 1.2-4.8c.4-1.2 .9-2.9 1.6-5Zm-41-15.6c1.1 2.2 2.3 3.7 3.4 4.6c1.1 .9 2.4 1.4 3.8 1.4c1.4 0 2.6-.5 3.4-1.6c.8-1 1.2-2.5 1.2-4.4h1.5c.1 1.6 .5 2.8 1 3.4c.4 .7 1.2 1.1 2.2 1.1c1.8 0 2.9-1.5 3.3-4.5h1.3c0 .5 .1 1.2 .1 2c.1 .7 .1 1.4 .1 2c0 7.1-2 10.6-6.1 10.6c-.8 0-1.5-.1-2-.4c-.6-.2-1.2-.8-1.9-1.7c-.7 1-1.4 1.7-1.9 2.1c-.6 .4-1.4 .7-2.6 .9c.5 1.8 .9 3.4 1.1 4.6c.2 1.2 .3 2.5 .3 4c0 1.7-.1 3.3-.4 4.7c-.2 1.4-.7 3.4-1.4 6h-1.6c0-3-.1-5.3-.2-6.8c-.2-1.6-.5-3.3-1-5.2c-.6-2.6-1.4-4.8-2.2-6.6c-.9-1.8-2.3-4.2-4.4-7.1Z" class="g0_39"/>
<path d="M1103.1 386.9c1.8 1.5 3 2.6 3.7 3.1c.9 .7 2.2 1.6 3.8 2.8c-.6 2.6-1 4.2-1.2 4.7c-.2 1.1-.5 2.7-.9 4.8c-2-1.1-3.5-1.9-4.4-2.5c-.9-.7-2.1-1.7-3.8-3.1c.6-2.4 1-4.1 1.2-4.8c.4-1.2 .9-2.9 1.6-5Zm-34.3 0c1.8 1.5 3 2.6 3.8 3.1c.8 .7 2.1 1.6 3.8 2.8c-.7 2.6-1.1 4.2-1.2 4.7c-.3 1.1-.6 2.7-1 4.8c-2-1.1-3.4-1.9-4.3-2.5c-1-.7-2.2-1.7-3.9-3.1c.6-2.4 1-4.1 1.2-4.8c.4-1.2 .9-2.9 1.6-5Zm-41-15.6c1.1 2.2 2.3 3.7 3.4 4.6c1.1 .9 2.4 1.4 3.8 1.4c1.4 0 2.6-.5 3.4-1.6c.8-1 1.2-2.5 1.2-4.4h1.5c.1 1.6 .5 2.8 1 3.4c.4 .7 1.2 1.1 2.2 1.1c1.8 0 2.9-1.5 3.3-4.5h1.3c0 .5 .1 1.2 .1 2c.1 .7 .1 1.4 .1 2c0 7.1-2 10.6-6.1 10.6c-.8 0-1.5-.1-2-.4c-.6-.2-1.2-.8-1.9-1.7c-.7 1-1.4 1.7-1.9 2.1c-.6 .4-1.4 .7-2.6 .9c.5 1.8 .9 3.4 1.1 4.6c.2 1.2 .3 2.5 .3 4c0 1.7-.1 3.3-.4 4.7c-.2 1.4-.7 3.4-1.4 6h-1.6c0-3-.1-5.3-.2-6.8c-.2-1.6-.5-3.3-1-5.2c-.6-2.6-1.4-4.8-2.2-6.6c-.9-1.8-2.3-4.2-4.4-7.1Z" class="g1_39"/>
<path fill-rule="evenodd" d="M980.2 408.3l5.6 3.1l-3.1 5.7l-4.5-2.2l-2.5 4.9l-5.4-3.1l3.3-6.1l4.2 2.4Zm-80.3 0l5.6 3.1l-3.1 5.7l-4.5-2.2l-2.5 4.9l-5.4-3.1l3.3-6.1l4.2 2.4Zm-60.5 0l5.6 3.1l-3.1 5.7l-4.5-2.2l-2.5 4.9l-5.4-3.1l3.3-6.1L837 413Zm-81.1-9.2c1.1 0 1.9 .3 2.6 1.1c.7 .7 1 1.6 1 2.6c0 1-.3 1.9-1.1 2.6c-.7 .7-1.6 1.1-2.6 1.1c-1 0-1.8-.4-2.5-1.1c-.7-.7-1.1-1.6-1.1-2.6c0-1 .4-1.9 1.1-2.6c.7-.8 1.6-1.1 2.6-1.1Zm204.4-5.9c-.6 0-1.1 .2-1.5 .7c-.3 .5-.5 1-.5 1.6c0 .7 .4 1.3 1.2 1.8c.8 .5 1.8 .7 3.1 .7h1.1c-.5-3.2-1.7-4.8-3.4-4.8Zm-80.3 0c-.6 0-1.1 .2-1.5 .7c-.3 .5-.5 1-.5 1.6c0 .7 .4 1.3 1.2 1.8c.8 .5 1.8 .7 3.1 .7h1.1c-.5-3.2-1.7-4.8-3.4-4.8ZM795 391.9c-1.2 2-1.9 3.7-1.9 5c0 .6 .3 1.2 .8 1.6c.5 .5 1.2 .7 1.9 .7c1 0 2.1-.2 3.4-.7c1.3-.5 2-.8 2-1.2c0-.4-.7-1.1-2.1-2.3c-1.4-1.2-2.7-2.3-4.1-3.1Zm187.3-7.1c1.5 1.7 2.6 3.5 3.1 5.3c.5 1.6 .7 3.9 .8 6.9v1h13.5c-.2-1.4-.6-2.5-1.1-3.4c-.3-.5-1-1.4-2.1-2.7l2.3-7.1c1.5 1.7 2.6 3.5 3.1 5.3c.6 1.9 .8 4.6 .8 8.2v7.8H969.5l-.1 .5c-.5 2.6-1.9 5.1-4.1 7.6c-2.9 3.3-5.7 5-8.5 5c-1.7 0-3.5-.5-5.5-1.6c-1.9-1-4.9-3.1-9-6.2l1.3-1.7c2.1 1.4 3.9 2.3 5.3 2.8c1.1 .4 2.4 .6 3.8 .6c1.9 0 3.8-.5 5.7-1.6c2.3-1.3 4.6-3.3 6.9-6.1c-.8 .1-1.5 .1-2.1 .1c-1.9 0-3.5-.6-4.6-1.9c-1.2-1.3-1.8-3-1.8-5.2c0-3 .7-5.9 2.1-8.6c1.5-3 3.2-4.5 5.1-4.5c1.6 0 2.9 1.1 4 3.2c1.1 2.2 1.7 4.8 1.7 7.9V398h13.5c-.2-1.4-.6-2.5-1.1-3.4c-.4-.5-1-1.4-2.1-2.7Zm-187.6-1.6l3 1.7c1.2 .8 2.4 1.6 3.6 2.5c1.6 1.3 2.8 2.4 3.4 3.5c.6 1.1 .9 2.4 .9 4c0 1.2-.1 2.4-.3 3.7c-.2 1.2-.4 2.2-.7 2.9c-.6 1.6-2 2.9-4.1 4c-2.1 1.1-4 1.7-5.8 1.7c-1.5 0-2.7-.6-3.7-1.7c-.9-1-1.3-2.5-1.3-4.3c0-1.6 .2-3.2 .7-4.8c.4-1.5 1.3-3.5 2.5-5.9l-1.1-.7c.4-.9 .8-2 1.4-3.3c.6-1.3 1.1-2.4 1.5-3.3Zm27.2-5.3c2.6 2 4.4 4.4 5.5 7.5c1 2.8 1.5 6.5 1.5 11.1V398h13.5c-.2-1.4-.6-2.5-1.1-3.4c-.3-.5-1-1.4-2.1-2.7l2.3-7.1c1.5 1.7 2.6 3.5 3.1 5.3c.5 1.6 .8 3.9 .8 6.9v1h13.5c-.2-1.4-.6-2.5-1.1-3.4c-.4-.5-1-1.4-2.1-2.7l2.3-7.1c1.5 1.7 2.6 3.5 3.1 5.3c.6 1.9 .8 4.6 .8 8.2v7.8H815.4c-1.3 0-2.3-.3-3-.8c-.9-.7-1.3-1.8-1.3-3.3c0-.9 0-1.9 .1-2.9c.1-1 .2-2 .4-3l1.1-.1c.2 .7 .6 1.2 1.1 1.5c.6 .3 1.2 .5 2 .5H826c-.4-2.9-1.2-5.3-2.3-7c-1-1.5-2.3-2.7-3.9-3.8Zm-63.1-6.5c2.4 0 4.4 .7 6.1 2.1c1.6 1.3 2.5 3.1 2.5 5.3c0 1.2-.4 2.3-1.1 3.3c-.8 1-1.9 1.5-3.1 1.5c-1 0-1.9-.3-2.5-1c-.7-.6-1-1.4-1-2.2c0-1.4 .6-2.4 1.6-3.1c1.1-.7 1.7-1.2 1.7-1.7c0-.6-.3-1.2-1-1.6c-.6-.4-1.4-.6-2.5-.6c-1.3 0-2.3 .3-3.2 1.1c-.8 .7-1.2 1.6-1.2 2.6c0 1 .4 2.2 1.3 3.8c1.2 2.3 2 3.7 2.3 4.4c.8 2.1 1.2 4.4 1.2 6.8c0 1.3-.1 2.8-.3 4.4h-1.8c0-.4 0-.7 .1-.9l.1-1.5c0-1.1-.7-2.3-2.2-3.6c-2.5-2.3-3.9-3.5-4.1-3.8c-1.5-1.8-2.2-3.8-2.2-6c0-2.7 .8-4.9 2.6-6.6c1.8-1.8 4-2.7 6.7-2.7Zm97.1-.2l5.6 3l-3.1 5.8l-4.5-2.2l-2.5 4.8l-5.4-3l3.3-6.1l4.2 2.4ZM996 370l6.9 3.6l-3.6 6.7l-6.9-3.6Zm-197.3-1.8l5.4 3.1l-3.3 6.1l-4.2-2.4l-2.4 4.7l-5.5-3l3.1-5.8l4.4 2.2Zm115.2-.6l1.4 .7c0 .1 0 .4-.1 .9c0 .7 .4 1.3 1.2 1.9c.8 .6 1.9 1.2 3.6 1.9c-.2 1.3-.5 2.5-.8 3.7c-.4 1.2-.8 2.3-1.2 3.3l-1.1-.5l3.3 18.5h17.2c-.8-.9-1.5-1.8-2.3-2.4c-.6-.6-1.4-1.3-2.4-2.1c-1.1-.8-2.2-1.7-3.3-2.6l-1 1.1c-1.8-1.8-2.8-2.8-3.1-3.2c-1-1.1-1.5-2.4-1.5-3.9c0-2 .1-3.4 .4-4.3c.4-1.1 1.2-2.1 2.5-3c1.2-.8 2.4-1.5 3.7-2.2c1-.5 2.4-1.1 4.1-1.8c.8-.3 2.5-1 5.1-2v7.1c-.1 0-1 .3-2.6 .8c-1.9 .6-3.5 1.2-4.6 1.7c-1.7 .6-2.5 1.1-2.5 1.5c0 .2 .7 .9 2.1 2.3c1.9 1.9 3.6 3.6 4.9 5.1c2.1 2.6 3.9 5.2 5.2 7.7v8.3H889.2l-.1 .5c-.5 2.6-1.9 5.1-4.1 7.6c-2.9 3.3-5.7 5-8.5 5c-1.7 0-3.5-.5-5.5-1.6c-1.9-1-4.9-3.1-9-6.2l1.3-1.7c2.1 1.4 3.9 2.3 5.3 2.8c1.1 .4 2.4 .6 3.8 .6c1.9 0 3.8-.5 5.7-1.6c2.3-1.3 4.6-3.3 6.9-6.1c-.8 .1-1.5 .1-2.1 .1c-1.9 0-3.5-.6-4.6-1.9c-1.2-1.3-1.8-3-1.8-5.2c0-3 .7-5.9 2.1-8.6c1.5-3 3.2-4.5 5.1-4.5c1.6 0 2.9 1.1 4 3.2c1.1 2.2 1.7 4.8 1.7 7.9V398h13.5c-.2-1.4-.6-2.5-1.1-3.4c-.4-.5-1-1.4-2.1-2.7l2.3-7.1c1.5 1.7 2.6 3.5 3.1 5.3c.5 1.6 .7 3.9 .8 6.9v1h10.7L913 377.8l-1.9-1.3c0-1.2 .1-2.3 .5-3.5c.5-1.6 1.2-3.4 2.3-5.4Z" class="g0_39"/>
<path d="M980.2 408.3l5.6 3.1l-3.1 5.7l-4.5-2.2l-2.5 4.9l-5.4-3.1l3.3-6.1l4.2 2.4Zm-80.3 0l5.6 3.1l-3.1 5.7l-4.5-2.2l-2.5 4.9l-5.4-3.1l3.3-6.1l4.2 2.4Zm-60.5 0l5.6 3.1l-3.1 5.7l-4.5-2.2l-2.5 4.9l-5.4-3.1l3.3-6.1L837 413Zm-81.1-9.2c1.1 0 1.9 .3 2.6 1.1c.7 .7 1 1.6 1 2.6c0 1-.3 1.9-1.1 2.6c-.7 .7-1.6 1.1-2.6 1.1c-1 0-1.8-.4-2.5-1.1c-.7-.7-1.1-1.6-1.1-2.6c0-1 .4-1.9 1.1-2.6c.7-.8 1.6-1.1 2.6-1.1Zm204.4-5.9c-.6 0-1.1 .2-1.5 .7c-.3 .5-.5 1-.5 1.6c0 .7 .4 1.3 1.2 1.8c.8 .5 1.8 .7 3.1 .7h1.1c-.5-3.2-1.7-4.8-3.4-4.8Zm-80.3 0c-.6 0-1.1 .2-1.5 .7c-.3 .5-.5 1-.5 1.6c0 .7 .4 1.3 1.2 1.8c.8 .5 1.8 .7 3.1 .7h1.1c-.5-3.2-1.7-4.8-3.4-4.8ZM795 391.9c-1.2 2-1.9 3.7-1.9 5c0 .6 .3 1.2 .8 1.6c.5 .5 1.2 .7 1.9 .7c1 0 2.1-.2 3.4-.7c1.3-.5 2-.8 2-1.2c0-.4-.7-1.1-2.1-2.3c-1.4-1.2-2.7-2.3-4.1-3.1Zm187.3-7.1c1.5 1.7 2.6 3.5 3.1 5.3c.5 1.6 .7 3.9 .8 6.9v1h13.5c-.2-1.4-.6-2.5-1.1-3.4c-.3-.5-1-1.4-2.1-2.7l2.3-7.1c1.5 1.7 2.6 3.5 3.1 5.3c.6 1.9 .8 4.6 .8 8.2v7.8H969.5l-.1 .5c-.5 2.6-1.9 5.1-4.1 7.6c-2.9 3.3-5.7 5-8.5 5c-1.7 0-3.5-.5-5.5-1.6c-1.9-1-4.9-3.1-9-6.2l1.3-1.7c2.1 1.4 3.9 2.3 5.3 2.8c1.1 .4 2.4 .6 3.8 .6c1.9 0 3.8-.5 5.7-1.6c2.3-1.3 4.6-3.3 6.9-6.1c-.8 .1-1.5 .1-2.1 .1c-1.9 0-3.5-.6-4.6-1.9c-1.2-1.3-1.8-3-1.8-5.2c0-3 .7-5.9 2.1-8.6c1.5-3 3.2-4.5 5.1-4.5c1.6 0 2.9 1.1 4 3.2c1.1 2.2 1.7 4.8 1.7 7.9V398h13.5c-.2-1.4-.6-2.5-1.1-3.4c-.4-.5-1-1.4-2.1-2.7Zm-187.6-1.6l3 1.7c1.2 .8 2.4 1.6 3.6 2.5c1.6 1.3 2.8 2.4 3.4 3.5c.6 1.1 .9 2.4 .9 4c0 1.2-.1 2.4-.3 3.7c-.2 1.2-.4 2.2-.7 2.9c-.6 1.6-2 2.9-4.1 4c-2.1 1.1-4 1.7-5.8 1.7c-1.5 0-2.7-.6-3.7-1.7c-.9-1-1.3-2.5-1.3-4.3c0-1.6 .2-3.2 .7-4.8c.4-1.5 1.3-3.5 2.5-5.9l-1.1-.7c.4-.9 .8-2 1.4-3.3c.6-1.3 1.1-2.4 1.5-3.3Zm27.2-5.3c2.6 2 4.4 4.4 5.5 7.5c1 2.8 1.5 6.5 1.5 11.1V398h13.5c-.2-1.4-.6-2.5-1.1-3.4c-.3-.5-1-1.4-2.1-2.7l2.3-7.1c1.5 1.7 2.6 3.5 3.1 5.3c.5 1.6 .8 3.9 .8 6.9v1h13.5c-.2-1.4-.6-2.5-1.1-3.4c-.4-.5-1-1.4-2.1-2.7l2.3-7.1c1.5 1.7 2.6 3.5 3.1 5.3c.6 1.9 .8 4.6 .8 8.2v7.8H815.4c-1.3 0-2.3-.3-3-.8c-.9-.7-1.3-1.8-1.3-3.3c0-.9 0-1.9 .1-2.9c.1-1 .2-2 .4-3l1.1-.1c.2 .7 .6 1.2 1.1 1.5c.6 .3 1.2 .5 2 .5H826c-.4-2.9-1.2-5.3-2.3-7c-1-1.5-2.3-2.7-3.9-3.8Zm-63.1-6.5c2.4 0 4.4 .7 6.1 2.1c1.6 1.3 2.5 3.1 2.5 5.3c0 1.2-.4 2.3-1.1 3.3c-.8 1-1.9 1.5-3.1 1.5c-1 0-1.9-.3-2.5-1c-.7-.6-1-1.4-1-2.2c0-1.4 .6-2.4 1.6-3.1c1.1-.7 1.7-1.2 1.7-1.7c0-.6-.3-1.2-1-1.6c-.6-.4-1.4-.6-2.5-.6c-1.3 0-2.3 .3-3.2 1.1c-.8 .7-1.2 1.6-1.2 2.6c0 1 .4 2.2 1.3 3.8c1.2 2.3 2 3.7 2.3 4.4c.8 2.1 1.2 4.4 1.2 6.8c0 1.3-.1 2.8-.3 4.4h-1.8c0-.4 0-.7 .1-.9l.1-1.5c0-1.1-.7-2.3-2.2-3.6c-2.5-2.3-3.9-3.5-4.1-3.8c-1.5-1.8-2.2-3.8-2.2-6c0-2.7 .8-4.9 2.6-6.6c1.8-1.8 4-2.7 6.7-2.7Zm97.1-.2l5.6 3l-3.1 5.8l-4.5-2.2l-2.5 4.8l-5.4-3l3.3-6.1l4.2 2.4ZM996 370l6.9 3.6l-3.6 6.7l-6.9-3.6Zm-197.3-1.8l5.4 3.1l-3.3 6.1l-4.2-2.4l-2.4 4.7l-5.5-3l3.1-5.8l4.4 2.2Zm115.2-.6l1.4 .7c0 .1 0 .4-.1 .9c0 .7 .4 1.3 1.2 1.9c.8 .6 1.9 1.2 3.6 1.9c-.2 1.3-.5 2.5-.8 3.7c-.4 1.2-.8 2.3-1.2 3.3l-1.1-.5l3.3 18.5h17.2c-.8-.9-1.5-1.8-2.3-2.4c-.6-.6-1.4-1.3-2.4-2.1c-1.1-.8-2.2-1.7-3.3-2.6l-1 1.1c-1.8-1.8-2.8-2.8-3.1-3.2c-1-1.1-1.5-2.4-1.5-3.9c0-2 .1-3.4 .4-4.3c.4-1.1 1.2-2.1 2.5-3c1.2-.8 2.4-1.5 3.7-2.2c1-.5 2.4-1.1 4.1-1.8c.8-.3 2.5-1 5.1-2v7.1c-.1 0-1 .3-2.6 .8c-1.9 .6-3.5 1.2-4.6 1.7c-1.7 .6-2.5 1.1-2.5 1.5c0 .2 .7 .9 2.1 2.3c1.9 1.9 3.6 3.6 4.9 5.1c2.1 2.6 3.9 5.2 5.2 7.7v8.3H889.2l-.1 .5c-.5 2.6-1.9 5.1-4.1 7.6c-2.9 3.3-5.7 5-8.5 5c-1.7 0-3.5-.5-5.5-1.6c-1.9-1-4.9-3.1-9-6.2l1.3-1.7c2.1 1.4 3.9 2.3 5.3 2.8c1.1 .4 2.4 .6 3.8 .6c1.9 0 3.8-.5 5.7-1.6c2.3-1.3 4.6-3.3 6.9-6.1c-.8 .1-1.5 .1-2.1 .1c-1.9 0-3.5-.6-4.6-1.9c-1.2-1.3-1.8-3-1.8-5.2c0-3 .7-5.9 2.1-8.6c1.5-3 3.2-4.5 5.1-4.5c1.6 0 2.9 1.1 4 3.2c1.1 2.2 1.7 4.8 1.7 7.9V398h13.5c-.2-1.4-.6-2.5-1.1-3.4c-.4-.5-1-1.4-2.1-2.7l2.3-7.1c1.5 1.7 2.6 3.5 3.1 5.3c.5 1.6 .7 3.9 .8 6.9v1h10.7L913 377.8l-1.9-1.3c0-1.2 .1-2.3 .5-3.5c.5-1.6 1.2-3.4 2.3-5.4Z" class="g1_39"/>
<image clip-path="url(#c1_39)" preserveAspectRatio="none" x="1344" y="457" width="108" height="72" href="img/2.jpg"/>
<image clip-path="url(#c2_39)" preserveAspectRatio="none" x="1347" y="550" width="102" height="71" href="img/3.jpg"/>
<image clip-path="url(#c3_39)" preserveAspectRatio="none" x="1347" y="642" width="102" height="74" href="img/4.jpg"/>
<image clip-path="url(#c4_39)" preserveAspectRatio="none" x="1353" y="745" width="96" height="80" href="img/5.jpg"/>
<path d="M70.8 374.9l.8 .4l1.1 .6l.1 .1l2.1 .6l2.9 1l3 .8l.1 .1l2.9 .4l3 .4l2.3 .3l2.9 .3l-.1-.1l3.5 .7h.3l3.7-.3l4.3-.6l4.5-.5l2.3-.3l2.2-.3h.1l9.2-1.6l10.7-1.2h.1l11.2-1.6h.1l8-1.4H152l8.9-1l8.5-1l9.2-1l9.4-.8l9.1-.9l9.4-.6h-.1l8.7-.3H215l8.8-.2h-.1h16.4H240l7.7 .3l6.3 .2h-.1l5.9 .5l5.4 .7l4.8 .4h-.1l4.4 .7h.1l4.1 .4h-.1l2.7 .6h.1l2.6 .5l1.9 .3l-.2-.1l1.4 .6h.2l1.3 .2l-.3-.1l.4 .2l.1 .1c.4 .2 .9 .2 1.3-.1c.3-.2 .6-.6 .5-1.1c0-.4-.3-.8-.7-1l-.2-.1l-1.3-.5l-.2-.1h-.1c-.6-.1-1.2 .2-1.4 .8c-.3 .6 0 1.3 .6 1.6h.1l-.6-.6l.1 .2c.3 .6 1 .9 1.6 .7c.6-.3 .9-.9 .7-1.6v-.2c-.1-.3-.4-.6-.7-.8h-.1c-.5-.3-1.1-.1-1.5 .3c-.3 .4-.4 1-.2 1.5c.3 .4 .9 .7 1.4 .6h.1l-.7-.1l1.3 .5l.2 .1c.6 .2 1.3-.1 1.6-.7c.2-.7-.1-1.3-.7-1.6l-.2-.1h.1l-.5-.2l-.3-.1l-1.3-.2l.2 .1l-1.4-.5l-.3-.1l-1.9-.2h.1l-2.6-.5l-2.7-.6h-.2l-4.1-.4h.1l-4.4-.6h-.1l-4.8-.4l.1 .1l-5.5-.7l-5.9-.5l-6.3-.3l-7.7-.2h-8l-8.4 .1L215 365l-8.6 .4h-.1l-9.4 .6l-9.1 .8l-9.4 .8l-9.3 1.1l-8.5 1l-8.8 1h-.1l-8 1.4l-11.2 1.5l-10.8 1.3l-9.3 1.6h.1l-2.3 .2l-2.3 .3l-4.5 .6l-4.3 .6h.1l-3.7 .4h.3l-3.6-.6l-2.9-.2h-.1l-2.3-.2H87l-3-.4l-2.9-.3h.1l-2.9-.8l-3-1l-2.1-.5l.1 .1l-1.1-.5l-.1-.1l-.9-.2c-.2-.1-.5 .1-.6 .3c-.1 .3 0 .5 .2 .7Z" class="g0_39"/>
<path d="M810.7 492.9l2.1 3.4c.2 .4 .6 .6 1 .5c.4-.1 .7-.4 .8-.8c.1-.5-.1-.9-.5-1.1l-.4-.2l.2 .1l-.8-.7l-.1-.1l-.8-.6l-.1-.1l-1.2-.7l.1 .1l-1-.8l-1.1-.9l-1.4-1.2l.1 .1l-1-1l-.2-.1l-1.7-1.3h-.1l-1.6-1.1l-.3-.2l-1.9-.7h.1l-2.1-1l-.2-.1l-2.2-.5l-2.3-.7l.3 .1l-2.9-1.4l-.1-.1l-3.4-1.3l-3.5-1.3l-3.8-1.3h-.1l-3.6-.8V477l-3.8-.7h.1l-4-1.1l-4.2-1h.1l-4.4-1.4l-4.3-1.4l-4.6-1.4h-.1l-4.8-1.4h-.1l-5.2-1.3l-5.4-1.2l-.1-.1l-5.1-.6l-5.5-1l.1 .1l-6-1.3h-.1l-6-1.1h.1l-6.9-1.6l-6.3-1.4h-.1l-6.4-1h.1l-6.7-1.4h-.1l-6.4-.9l-7.2-.8h-.1l-7-.7l-7.1-.8l-7.5-.7h-.1l-7.2-.5l-7.8-.5l-8.2-.3l-8.1-.2l-8.5-.3h-8.7l-8.5 .1l-9 .5l-8.8 .5l-8.6 .4l-8.8 .4l-.1 .1l-8.4 .6l-8.5 .6l-.1 .1l-8.7 .9l-8.3 .7l-8.3 .8h-.1l-8.1 1.1l-8.1 .9l-8.2 1.3l-8.5 1.3l-8.2 1.3l-8.6 1.4l-8.6 1.5h-.1l-8.7 1.6l-8.9 1.7h-.1l-8.2 2.3V471l-8.2 2l-8.2 2h-.1l-8 2.4l-8.3 2.2l-8.2 2.5h-.1l-7.8 3.2l-7.9 2.9l-.1 .1l-7.5 3.5l-7.1 3.7l-7 3.4l-.1 .1l-6.7 3.8l-.1 .1l-6.5 4.2l-6.3 4.2l-.1 .1l-5.6 4.4v.1l-5.5 4.6h-.1l-4.9 4.6v.1l-4.8 4.9v.1l-4.2 4.8l-3.7 4.4l-.1 .3l-2.8 4.8l-2.4 4.7l-.1 .2l-1.9 5l-.1 .1l-1.6 4.9v.1l-1.4 4.8l-1.3 4.9l-.1 .1l-.8 4.7v-.1l-1.1 4.9l-.1 .2l-.2 4.8l-.3 4.9v.1l.3 5v.1l.6 4.8l.1 .1l.9 4.7v.2l1.3 4.4v.1l1.3 4.3v.1l1.7 4.5v.1l1.8 3.8v.1l2.1 3.9l.1 .1l2.5 3.7v-.1l2.5 3.8l.1 .2l2.9 3.6v.1l3 3.6l3 3.4l.2 .1l3.4 3.1l3.6 3.4l3.8 3.5l4 3.7l4.1 3.7h.1l4.1 3.4l4.1 3.3h.1l4.2 3.1l4.6 3.4h.1l4.8 3.2l4.8 3.1h.1l5.2 3l.1 .1l4.9 2.3l5.1 2.3l5.4 2.4l5.5 2.1l5.4 1.9h-.1l5.5 2.4l.1 .1l5.7 2h.2l5.5 1.5l-.1-.1l5.7 2.1h.3l6.1 .9h-.1l6.3 1.2l6.3 1.2h.1l6.7 .8l7.2 .9h.1l6.6 .5l7.1 .6l7.1 .4h.1l6.8 .3h-.1l7.1 .4h.1l7.3 .5l6.5 .4l7.1 .4v-.1l7.5 .7h.1l6.9 .4h.1l7.5 .4l7.5 .6l7 .5l7.8 .6h-.1l5.2 .5l5.2 .5l8.9 .6l10.1 .6l8.6 .4l7.5 .3l7 .1h14.8l6.9 .1l7-.1h.1l6.9-.5h.1l6.3-.6l6.5-.8l6.6-.7l-.1 .1l6.2-.5l6.4-.7l6-.8l6.1-.8l5.9-.5h.1l6.2-.8l6.4-.8l5.8-.8h.1l6-1.1h-.1l5.7-.7l.1-.1l5.5-1l.1-.1l5.5-1.3l5.5-1.5l5.9-1.5l.1-.1l5.5-1.9h-.1l5.9-1.9l5.8-2.1l5.8-2.2l5.5-1.9l5.6-1.6h.1l5.3-1.9h-.1l5.5-1.8l5.7-1.9h.1l5.5-2.3l5.4-2.3l5.2-2.2l.1-.1l4.9-2.7l-.1 .1l5.1-2.3l4.7-2.3v.1l4.8-2.2h.1l4.9-2.2h.1l4.4-2.6l4.9-2.9h.1l4.6-3.1l4.5-3l.1-.1l4.3-3.2l-.1 .1l4.5-2.7l.2-.1l3.9-3l4.1-3.1l.1-.1l3.8-3.4l.2-.2l3.2-3.9l3.3-3.9h.1l3-3.7l2.7-3.6l2.8-3.6l.1-.1l2.4-3.9l.1-.1l2.1-3.9v.1l2.2-3.8l.1-.2l1.5-3.5v.1l1.6-3.2l.1-.2l1.2-3.5v.1l1.1-3.2l.1-.1l1-3.3l.9-3l.1-.1l.7-2.7v-.1l.5-2.6v-.2l.2-2.2v-.1l.1-2.6v-.2l-.2-2.5l-.3-2.8v-.1l-.5-3v-.1l-.6-2.7l-.7-2.9l-.1-.1l-.8-2.5l-.1-.1l-1-2.6l-1.1-2.4v-.1l-1.1-2.4l-1.3-3h-.1l-1.3-2.6l-1.4-2.9l-.1-.2l-2-3v.1l-1.1-1.8l-.1-.2l-1.5-1.8l-.2-.1l-1.6-1.5l.1 .1l-1.3-1.5l-.1-.1l-2-2.1v.1l-1.9-2.1h-.1l-1.8-1.7l-.2-.2l-2.2-1.5l-2.2-1.3l-.1-.1l-2.3-1.2h.1l-2.6-1.5h-.1l-2.5-1.3v.1l-2.8-1.6l-.4-.1l-2.6-.8l.1 .1l-2.5-1h-.1l-2.6-1l-2.3-.7h.1l-2.9-1h.1l-2.4-1l-2.5-1.1l.2 .1l-2.5-1.5l.2 .1l-1.8-1.4l-1.9-1.6l.2 .2l-1.4-1.6l-.2-.2l-1.4-1.2l.1 .1l-1.3-1.2l-.1-.1l-1.6-1.4l-1.4-1.3l.2 .3l-.9-1.3l-.2-.2l-1.1-1l-.3-.2l-1.2-.8l-1.1-.8l-.1-.1l-1.2-.8l.1 .1l-.8-.6h-.1l-.8-.5l-.6-.4l.2 .2l-.7-.7l-.9-.7l.2 .2l-.6-.7l-.2-.1l-.8-.8l-.3-.2l-.9-.5l.5 .4l-.7-.7h.1l-.5-.6l-.3-.3l-.6-.5l-.2-.1l-.7-.5l-.5-.2l-.8-.2l-.1-.1l-1.2-.3l-1.4-.3h-.1l-1.9-.3l.3 .1l-3.3-1.2l-.2-.1l-3.5-.9c-.8-.2-1.5 .3-1.7 1c-.2 .8 .2 1.5 1 1.7l3.4 1h-.2l3.2 1.6l.4 .1l1.8 .4h-.1l1.4 .4l1.3 .3h-.2l.9 .2l-.5-.2l.8 .5l-.2-.1l.6 .5l-.2-.2l.5 .6v.1l.6 .6l.5 .4l.9 .5l-.3-.2l.8 .8l-.1-.2l.6 .7l.2 .2l.9 .7l.7 .6l.2 .2l.6 .3l.7 .5l-.1-.1l.8 .6l.1 .1l1.3 .8l-.1-.1l1.1 .8l.1 .1l1.2 .8l-.2-.2l1.1 1l-.2-.2l.9 1.3l.3 .2l1.5 1.3H831l1.6 1.4l-.1-.1l1.3 1.3l.1 .1l1.5 1.2l-.2-.2l1.4 1.6l.2 .2l1.9 1.6l1.9 1.4l.2 .2l2.5 1.5l.2 .1l2.4 1l.1 .1l2.4 1h.1l2.8 1.1h.1l2.3 .7l2.6 .9h-.1l2.6 1h.1l2.6 .8l-.3-.1l2.9 1.5l2.5 1.2l-.1-.1l2.6 1.6h.1l2.3 1.2h-.1l2.2 1.3h-.1l2.2 1.4l-.3-.2l1.8 1.7v-.1l1.9 2.1l2 2l-.1-.1l1.4 1.6l.1 .1l1.7 1.5l-.2-.1l1.5 1.8l-.1-.3l1.1 1.8v.1l2.1 2.9l-.2-.2l1.5 2.9l1.3 2.6h-.1l1.4 2.9l1.1 2.5v-.1l1 2.4l1.1 2.6l-.1-.1l.9 2.5v-.1l.7 2.8l.6 2.6v-.1l.4 3l.3 2.8v-.1l.2 2.5v-.2v2.7V580l-.2 2.2l.1-.2l-.5 2.6v-.1l-.7 2.6l-.9 3l-1.1 3.3v-.1l-1.1 3.2v.1l-1.2 3.4l.1-.2l-1.7 3.2v.1l-1.6 3.5l.1-.1l-2.1 3.7l-.1 .1l-2.1 3.9l.1-.2l-2.5 3.8l.1-.1l-2.8 3.7l-2.7 3.5l-3 3.7v-.1l-3.3 3.9l-.1 .1l-3.2 3.9l.2-.2l-3.8 3.4l.1-.1l-4.1 3.1l-3.9 3l.1-.1l-4.5 2.7l-.1 .1l-4.4 3.2l-4.5 3.1h.1l-4.6 3v-.1l-4.9 2.9l-4.4 2.5h.2l-4.9 2.2l-4.8 2.1H820l-4.7 2.2l-5.1 2.3l-.1 .1l-4.9 2.7l.1-.1l-5.1 2.2l-5.4 2.3l-5.5 2.3l.2-.1l-5.7 1.9h-.1l-5.4 1.8h-.1l-5.2 1.9h.1l-5.7 1.7l-5.6 1.8v.1l-5.9 2.2l-5.7 2.1h.1l-5.9 1.9l-5.5 1.9h.1l-5.9 1.5l-5.4 1.5l-5.4 1.3l-5.6 1.1h.1l-5.6 .7h-.1l-6 1.1h.1l-5.9 .9h.1l-6.4 .7l-6.2 .8l-5.9 .5h-.1l-6.1 .8l-6 .8l-6.3 .7l-6.1 .5h-.1l-6.5 .7h-.1l-6.5 .7h.1l-6.3 .6l-6.9 .5h.1H616.2l-7.5 .1h-7.2l-7.1-.2l-7.4-.2l-8.5-.5l-10.1-.6l-8.9-.6l-5.1-.4l-5.1-.5h-.1l-7.7-.6l-7.1-.5h.1l-7.6-.6l-7.6-.3l-7-.4h.1l-7.5-.7h-.1l-7.1-.4l-6.5-.3l-7.4-.5h.1l-7.2-.4l-6.8-.3h.1l-7.2-.4l-7-.6l-6.7-.5h.1l-7.2-.8l-6.7-.9l.1 .1l-6.3-1.3l-6.3-1.1l-6.2-.9h.3l-5.7-2l-.1-.1l-5.6-1.4l.2 .1L400 694l.1 .1l-5.6-2.5h-.1l-5.3-1.9l-5.4-2.1l-5.3-2.3l-5.1-2.3l-4.8-2.3l-5.1-3v.1l-4.8-3.1l-4.8-3.1h.1l-4.6-3.4h-.1l-4.2-3.1l-4.1-3.2h.1l-4.2-3.4l.1 .1l-4.1-3.7l-4.1-3.7h.1l-3.8-3.4l-3.6-3.5l-3.5-3.1l.1 .1l-3-3.3l-3-3.6h.1l-2.9-3.7l.1 .2l-2.6-3.9l-2.5-3.7l.1 .2l-2.1-3.8l.1 .1l-1.8-3.9l.1 .1l-1.7-4.4h.1l-1.4-4.3l-1.2-4.5v.2l-.9-4.8v.1l-.6-4.8v.1l-.3-4.9v.1l.2-4.8l.3-4.8l-.1 .3l1.2-4.9l.8-4.8v.2l1.3-4.9l1.4-4.8v.1l1.6-5v.1l1.9-5v.1l2.4-4.7v.1l2.7-4.8l-.1 .2l3.7-4.5l-.1 .1l4.2-4.8h-.1l4.8-4.9l-.1 .1l4.9-4.7l-.1 .1l5.5-4.6l5.6-4.5l-.1 .1l6.3-4.1l6.5-4.3l-.1 .1l6.8-3.9l-.1 .1l6.9-3.5h.1l7.1-3.7h-.1l7.5-3.5l-.2 .1l8-3l7.8-3.1h-.1l8.2-2.5l-.1 .1l8.3-2.2v-.1l8.1-2.3h-.1l8.2-2l8.3-1.9V474l8.2-2.2l-.1 .1l8.9-1.8h-.1l8.8-1.6l8.6-1.4l8.6-1.5l8.2-1.3l8.4-1.2h.1l8.1-1.3l8-1h.1l8.1-1l8.3-.8l8.3-.8l8.7-.9l8.5-.6l8.5-.7h-.1l8.9-.4l8.6-.4l8.8-.5l8.9-.5l8.4-.2l8.7 .1H612l8.5 .3l8.1 .2l8.2 .3h-.1l7.8 .5l7.2 .4l7.5 .8l7.1 .7l7 .7l7.2 .9l6.4 .8h-.1l6.7 1.4h.1l6.3 .9h-.1l6.4 1.4h-.1L713 465l.1 .1l6 1l6 1.2l5.6 .9v.1l5.2 .5h-.2l5.3 1.3l5.3 1.2l4.8 1.3l4.6 1.4l4.3 1.4v-.1l4.3 1.5h.1l4.2 1l4 1.1h.1l3.8 .8l-.1-.1l3.6 .9l-.1-.1l3.7 1.3L787 483l3.4 1.3l-.1-.1l2.9 1.5l.2 .1l2.3 .6l2.2 .6l-.2-.1l2.1 1h.1l1.9 .8l-.3-.1l1.7 1.1l1.8 1.1l-.1-.1l1.1 .9l.1 .1l1.5 1l1.1 .8l1 .8h.1l1.3 .8l-.2-.1l.9 .7l-.1-.1l.8 .7l.3 .2l.4 .2c.4 .2 .9 .1 1.2-.3c.3-.3 .3-.8 0-1.2l-2.3-3.2c-.3-.3-.8-.4-1.1-.2c-.4 .3-.5 .8-.3 1.1Z" class="g0_39"/>
<path d="M818.8 470.4l-.4-.1c-.4-.2-.9 0-1.1 .4l-.4 .5h.1l-.4 .7l-.2 .4l-.1 .9V473l-.4 1.1l.1-.1l-.4 .8l.1-.3l-.6 .9l.2-.2l-.8 .5l-.2 .2l-.8 .9v-.1l-1.1 1.2v-.1l-1.8 1.5l-2 1.7h-.1l-2.2 2.2v.1l-2.2 2.3l-2.3 2.6l.1-.1l-2.3 2.3l.2-.1l-2.5 1.9l-2.3 1.7l.3-.1l-2.2 .8h.1l-2.3 .8l.4-.1l-2.3 .2h.2l-2.9-.1h.1l-2.8-.3h.2l-3-.7h.1l-3.1-1.1l.1 .1l-2.8-1.3l.3 .2l-3.1-2.2v.1l-2.7-2l-3.6-2.8l-3.5-2.8l-3.6-2.6h.1l-3.9-2.8l-.1-.1l-3.4-2.1l-3.8-2.4l-3.8-2.7l-.1-.1l-3.7-2.3v.1l-3.6-2.5l-3.2-2.3l-.1-.1l-3.1-1.7v.1l-3.3-2.2l-.2-.1l-3.4-1.7l-3.2-1.6l-2.9-1.5h-.1l-2.7-1.2l-2.7-1.3h.1l-2.8-1.4V450l-2.9-1.3l.1 .1l-3.1-1.7H703l-2.7-1.3l-2.7-1.1h-.1l-2-.7h-.1l-1-.2h.1l-1-.3h-.1l-4.5-1.1l-4.1-.8l-4.1-.7h-.2l-2.5-.1l-.5 .1l-1.4 .4h.1l-1.9 .4l-.4 .2l-1.7 1.1l-1.6 1.1l-1.7 1.1l-.3 .2L667 447l.1-.1l-1.8 1.4l-.2 .2l-1.5 1.8l-1.6 1.8l.2-.2l-1.9 1.5l-.1 .1l-1.7 1.6v.1l-1.4 1.5l-.1 .1l-1.3 1.6l-.1 .1l-1.2 1.8v.1l-1.2 2.1l.1-.1l-1.3 1.8l-.1 .1l-1.2 1.9l-1.3 1.7h.1l-1.3 1.4l.1-.1l-1.4 1.4l.1-.1l-1.5 1.2l-1.3 1h-.1l-1 .8l.4-.2l-1.5 .5h.1l-1.3 .5l.5-.1h-1.6h.1l-2.4-.3l.3 .1l-1.9-.7l-2.4-.7h.2l-2.9-1.3v.1l-3.1-1.5l-3.4-1.6h.1l-3.1-1.5l-3.5-1.7l-3.3-1.7l-.1-.1l-4-1.9h.1l-4.8-2.5h-.1l-4.5-2l-.1-.1l-4.8-1.9l-4.8-1.8l-4.5-1.6l-5.3-2l-4.8-1.8h.1l-5.3-2.2l-.1-.1l-5.5-1.8l-5.3-1.8l-5.8-1.9h-.2l-5.2-1.1h.1l-5.3-1.4h-.1l-5-1.3v.1l-4.9-1.3l-4.3-1l-4.4-1l-3.7-.7l-.1-.1l-3.3-.5h-.1l-3.5-.3h-3.1l-.2 .1l-2.6 .5h-.1l-2.7 .8l-.5 .2l-1.9 1.4l-.1 .1l-1.9 1.6l-.3 .3l-1.7 2.4l.3-.3l-2.3 2.1l-.4 .5l-1.3 2.9v.2l-.9 3.1V447l-1 2.7l-.1 .5l-.1 3.1l.1-.6l-1.2 2.4v.1l-1.1 2.5l-.1 .3l-.6 2.8l-.6 2.7v.4l.2 3v-.1v2.6l.1 2.2v.1l.2 2l.2 1.7v-.2v1.6v-.3l-.2 1.3l-.1 .2l-.1 1.4l.1-.3l-.3 .8v.1l-.2 .9v.2l-.1 .8l.4-.8l-.5 .5c-.2 .2-.3 .3-.4 .6l-.2 .6l.2-.2l-.3 .4l-.2 .4l1.5-.7l-.4-.1h-.6l.4 .1l-.8-.4h-.1l-1.3-.5l-.2-.1l-1.3-.3h.2l-1.9-.7l-.2-.1l-2.1-.6l.1 .1l-2.8-1l-3.2-1l-3.6-1l-3.8-1l-4.2-1.1h.1l-3.7-1l-4.4-1.3l-4.5-1.2l-4.9-1.2l-5.4-1.3l-5.2-1.2l-5.4-1.3h-.1l-5-.8h-.1l-4.8-.5h.1l-5.3-.8h-.2l-4.9 .1h.1l-5-.2h-.1l-5.4-.1h-.2l-4.7 .7h.1l-5.4 .5l-5.4 .5h-.3l-4.8 1.2l-.1 .1l-4.7 1.4L371 470l-.4 .2l-3.3 2.2l.1-.1l-3.3 1.7l-.2 .2l-2.8 2l-.1 .1l-2.5 2.4l-.1 .1l-2.4 2.7l-.2 .2l-1.8 3l-.1 .2l-1.4 3.3l-.1 .2l-.8 3.1l-.1 .3V495l.1-.6l-1.1 2.4l-.1 .4l-.1 2.1l.1-.4l-.8 1.9c0 .2-.1 .5 0 .7l.4 2.4l.1 .4l1.3 2.5v-.1l1.2 2.5l.1 .2l1.7 2.6l-.1-.1l1.1 1.9l.1 .1l1.5 2.2h.1l1.4 1.8v.1l1.6 1.9l1.7 2l.1 .1l1.7 1.7l1.8 2l-.1-.1l1.7 2.2h.1l1.4 1.7l-.2-.2l1.1 1.6v-.1l.7 1.2l.5 .8l-.3-.7l.1 .7v-.4l-.1 .4c0 .4 0 .8 .3 1.2l.3 .4c.1 .2 .4 .4 .7 .5l.4 .2l-.2-.1l.5 .3l.2 .1l.4 .1c.7 .2 1.4 0 1.8-.6c.4-.7 .2-1.4-.3-1.9c-.5-.5-1.3-.5-1.9-.1l-.1 .1l1.1-.2l-1.3-.3H372l-1.7-.2l-1.9-.1h-.1l-2.4-.2h-.2l-2 .3h.1l-2.3 .1l-2.5 .3h.1l-2.9 .1l-3.1 .3h.1l-3.4 .2l-3.6 .2l-4 .2l-4.1 .4H338l-4.5 .6l-4.4 .9l-4.3 .9l-4.3 1l-4.5 1l-4.5 1h-.2l-4.2 1.4l-.2 .1l-3.7 1.8l-.3 .1l-3 2.4l-.2 .1l-2.5 2.8l-2.7 2.8l-2.6 3l-2.4 2.9v.1l-2.2 3l-.1 .2l-2 3.6v.1l-1.9 3.8l-.1 .2l-1.4 4.3v-.1l-1.5 4v.2l-1 3.8l-.1 .1l-.4 3.6l-.1 .3l.2 3.7v.1l.5 3.7v.3l1.3 3.6l1.1 3.6l.2 .2l1.7 3l2.1 3.1v.1l2.5 3l2.8 3l2.8 3.2h.1l3 3.2l.1 .1l3.3 3l.1 .1l3.5 2.7l.1 .1L308 626l3.8 1.9h.1l4.2 1.8l4.2 1.8l.1 .1l4.2 1.5h.1l4.5 1.4h.3l4.4 .6h.1l4.3 .4h.1l4.6 .1l4.3-.1l4.5-.3h-.1l4.3-.2l4-.1l4-.1h-.2l3.8 .3l3.5 .1h-.3l3.1 .6l2.9 .7l-.3-.1l2.2 1l-.1-.1l2.2 1.3l-.2-.1l1.7 1.4l-.2-.1l1.4 1.5l1.5 1.6l-.1-.1l1.2 1.6l-.1-.3l1 2V646l.9 2l-.1-.3l.4 2.3l.5 3v-.1l.4 3.7v-.2v4.2l.1 4.7v-.1v5v-.1l-.4 5.4l-.1 .1v5.7v-.1l-.3 5.8v5.8l.7 5.4v.1l1 5.1H390l.7 4.5v-.1l.2 4v.3l.9 3.7l.9 3.6l.1 .4l1.7 3v.1l1.9 2.9l.1 .2l1.6 1.7l.1 .2l1.6 1.2l.3 .2l1.7 .8l.3 .1l1.9 .5h.4l2.3-.2h.2l2.3-.6l.2-.1l3.1-1.3v-.1l3.4-1.7l.2-.2l3.4-2.7L423 721l.1-.1l3.3-3.4v.1l3.5-3.4l-.2 .1l4.5-3v-.1l4.1-3.2l-.1 .1l4.3-2.8l4.1-2.6l.1-.1l3.6-2.5l-.2 .1l4.1-2.1h-.1l3.9-1.6l3.8-1.4h-.3l4.1-.6v-.1l4-.7h-.2l3.9-.3h-.1l4.2-.2h-.1h4h-.1l4.1 .3l4 .5h-.1l3.7 .6l-.1-.1l4 1l-.1-.1l3.7 1.1l-.2-.1l3.6 1.7l-.1-.1l3.4 1.9l-.2-.2l3.1 2.5v-.1l2.8 2.6v-.1l2.9 2.7h-.1l3.1 2.9l-.2-.1l2.6 3.1l2.5 3.2l-.1-.1l2.2 3.2v-.1l1.9 3l.2 .2l2.1 2.6l.2 .1l2.6 2.5v-.1l2.1 2l.3 .2l3.1 1.8l.1 .1l3.1 1.5v.1l2.9 1.4l.3 .1l3.9 1.2h-.1l3.1 .9l.5 .1l3.1 .1l.3-.1l2.5-.3l1.1-.2h-.1l1.3-.1l.3-.1l4.8-1.4l.2-.1l4.4-2.1l.3-.1l4.5-3.2l.3-.2l2.9-3.2l.2-.2l2.6-4.1h-.1l3-4.2l2.8-4.1v-.1l2.6-4l-.1 .1l3.1-3.9l.1-.2l2.8-4.1l-.2 .2l3.5-3.5h-.1l3.7-3.2l-.2 .1l3.6-2.5l-.4 .2l3.8-1.6h.1l3.1-1.4h-.1l3-1h-.3l3.4-.5l3.3-.5h-.2h3.5h-.1l3.4 .4l-.2-.1l3.4 .8l-.2-.1l3.2 1l-.2-.1l2.8 1.3h-.1l3.3 1.7l-.3-.2l3.1 2.5h-.1l3.3 2.8l-.1-.1l3.2 3.2l3 3.2l-.1-.1l2.5 3.1l.1 .1l2.9 2.9l3.1 3l3 3.1v.1l3.4 3.1l3.1 3.1v.1l2.9 2.7h.1l2.6 2.3l.3 .1l2.6 1.6l.3 .1l2.5 .9l.4 .1l2.9 .4l.2 .1H688l3.3-.5l.1-.1l3.5-.7l.4-.2l3.2-1.4h.1l3.3-1.7l.1-.1l3.6-2.1v-.1l3.5-2.2l.1-.1l3.4-2.5l3.4-2.6l.2-.1l2.7-2.7l.1-.1l2.4-2.9l-.1 .1l2.9-3.1l.1-.2l2.4-3.4v.1l2.6-3.6v.1l2.9-3.6v-.1l2.4-3.2l-.2 .2l3.1-2.9l2.8-2.7l-.3 .2l3.7-2.2l3.7-2.3h-.1l3.3-1.8l-.3 .1l3.6-1.2h.1l3-1.1l-.4 .1l3-.3h-.2h3.3l-.2-.1l3.3 .4h-.1l3.3 .7l-.2-.1l3.6 1.3h-.1l3.4 1.4h-.1l3.1 1.5l3.1 1.5l3.5 1.7v.1l3.7 1.6l-.1-.1l3.8 1.9l4 2.2l3.3 1.6l3.6 1.8l.1 .1l3.9 1.5l3.8 1.7h.1l4.3 1.5h.1l4.2 1.2l.2 .1l3.7 .5h.1l4 .3h.2l3.9-.2h.1l3.8-.3l4.1-.4h.2l3.7-.7l.2-.1l4-1.2h.1l3.9-1.3l.1-.1l3.8-1.4l.1-.1l3.8-2l.2-.1l3.1-2l-.2 .1l3.5-1.8l.3-.2l3.5-2.7l3.3-2.9l3.5-3.3l.2-.3l3-4.1l3.1-4.4h.1l2.9-4.4v-.1l3.4-5.2l3.3-5v-.1l3-5.2h-.1l3.2-5.2l.1-.2l2.4-5.1l2.3-5.4l1.9-5.2l2.1-4.9l.1-.2l1.3-4.9v-.1l1.2-4.9v-.1l.7-4.6l.1-.2l.1-4.4l.2-3.6l.2-3.2V602l-.5-3.2l-.1-.2l-1-3.1v-.2l-1.2-2.8l-.2-.3l-1.8-2.4l-.2-.3l-1.9-1.7l-.3-.2l-2.2-1.4l-.3-.1l-3-1.2h-.1l-3.3-1.1l-.3-.1l-3.6-.5l-.2-.1l-3.1-.1h-.3l-3.2 .5l-3.4 .4l-.3 .1l-3.2 1h.2l-3.9 .6l-.4 .2l-3.4 1.5l.2-.1l-3.6 1.2l-3.4 1l-.2 .1l-3 1.3l.5-.2l-3.1 .3l-2.6 .4h-.1l-2.1 .4l.4-.1l-2.4-.1l.5 .1l-1.7-.6h-.1l-1.8-.6l.7 .4l-1.7-1.5l.1 .1l-1.4-1.5l.1 .1l-1.4-1.9l.1 .1l-1.4-2.2l.2 .3l-1.1-2.5l.1 .1l-1-2.5l.1 .2l-.8-3v.1l-.7-3.1l.1 .2l-.4-3.3v.1l-.4-3.4l.1 .2v-3.1l.1-3.1l-.1 .3l.8-3.2v.2l1-3.4v.1l1.4-3.9v.2l1.7-3.9l-.2 .4l2.6-3.7v-.1l2.4-3.7h.1l2.4-3.9l-.1 .1l2.5-3.6l.1-.3l1.6-3.7v.1l1.7-3.5l-.1 .2l1.6-2.7l.1-.1l1.3-2.7l.2-.3l.7-2.8l.1-.1l.6-2.6v-.2l.3-2.7v-3.1l-.1-2.9v-.1l-.3-3.2v-.1l-.5-3l-.5-2.9l-.1-.2l-.8-3l-.7-2.7l-.1-.3l-1.2-2.5L857 485l-.2-.4l-1.8-2.2l-.1-.1l-2-2.1l.1 .1l-1.3-1.8c-.2-.2-.3-.4-.5-.5l-2.4-1.5l-.1-.1l-2.4-1.2l-.1-.1l-2.4-1l-.3-.1l-3.5-.9l-2.8-.8h-.1l-2.8-.8h-.1l-2.9-.6h-.1l-2.7-.5l-2.4-.4H826l-2.1-.2h.2l-2-.4h-.2l-1.5-.1h-1.8l-1.3 .1H817l-.9 .3h.1l-.6 .1h.6l-.4-.1c-.4 0-.8 .1-1.1 .2l-.1 .1c-.6 .3-1 1-1 1.7c.1 1.1 .9 1.8 2 1.8c1 0 1.7-.9 1.7-1.9v-.1c0-.6-.3-1.1-.7-1.4c-.5-.4-1.1-.5-1.6-.3h-.1c-.9 .3-1.4 1.2-1.2 2.1c.1 .9 1 1.6 1.9 1.5c1-.1 1.7-.9 1.7-1.9v-.2c-.1-1-.9-1.8-1.9-1.8c-.9 0-1.7 .8-1.8 1.8v.2c0 .8 .6 1.6 1.3 1.8h.1l-1.3-1.8l-.1 .1c0 1 .8 1.9 1.8 1.9c1 0 1.9-.7 1.9-1.8l-1 1.6l.1-.1l-1 .2h1l.6-.1l.1-.1l.9-.2h-.4h1.2h-.1h1.5h-.1h1.6h-.3l1.9 .4h.2l2.1 .2h-.1l2.3 .5h.1l2.7 .4h-.1l2.9 .6h-.1l2.9 .8v-.1l2.8 .8l3.6 1l-.3-.1l2.4 1h-.1l2.4 1.2l-.2-.1l2.4 1.5l-.5-.4l1.3 1.8l.2 .2l2 2.1l-.1-.1l1.8 2.2l-.3-.4l1.3 2.7l1.1 2.5l-.1-.2l.8 2.7l.8 3l-.1-.2l.6 2.9l.4 3v-.1l.3 3.1v-.1l.1 2.9v-.1v2.9v-.2l-.2 2.7v-.2l-.6 2.6v-.1l-.7 2.8l.1-.3l-1.4 2.7l.1-.2l-1.6 2.7l-.1 .2l-1.7 3.4v.1l-1.6 3.7l.2-.3l-2.5 3.5v.1l-2.4 3.9l-2.4 3.6l-2.6 3.7l-.2 .3l-1.6 3.8l-.1 .1l-1.4 3.9l-1.1 3.3v.2l-.8 3.2l-.1 .3l-.1 3.2v3.4l.4 3.4l.4 3.2v.2l.6 3l.1 .1l.8 3v.2l.9 2.5l.1 .1l1 2.4l.2 .3l1.4 2.2v.1l1.4 1.9l.1 .1l1.5 1.6l.1 .1l1.7 1.5c.2 .1 .4 .3 .7 .3l1.8 .6h-.1l1.7 .6l.5 .1l2.4 .1h.4l2.2-.4h-.1l2.5-.4l3-.3l.6-.1l3-1.3l-.2 .1l3.4-1.1h.1l3.6-1.2h.2l3.3-1.6l-.4 .2l3.9-.7l.3-.1l3.2-1l-.3 .1l3.4-.5h-.1l3.3-.4h-.3l3.1 .1h-.2l3.6 .6l-.3-.1l3.3 1.1h-.1l3.1 1.2l-.3-.2l2.1 1.4l-.2-.2l1.9 1.8l-.2-.3l1.7 2.4l-.2-.4l1.2 2.8l-.1-.1l1 3.1l-.1-.3l.6 3.2l-.1-.4l-.2 3.2l-.2 3.6l-.1 4.5v-.2l-.8 4.5l.1-.1l-1.2 4.9v-.1l-1.3 4.9l.1-.2l-2.1 4.9l-.1 .1l-1.9 5.2v-.1l-2.2 5.3l-2.3 5.1l.1-.2l-3.2 5.3h-.1l-2.9 5.3V658l-3.2 4.9l-3.4 5.3l-2.9 4.4v-.1l-3.1 4.4l-3 4.1l.2-.2l-3.5 3.3l.1-.1l-3.2 2.9l.1-.1l-3.5 2.7l.3-.2l-3.5 1.8l-.1 .1l-3.2 2l.2-.1l-3.8 2l.2-.1l-3.8 1.5h.1l-3.9 1.3l-4 1.2h.2l-3.8 .7h.1l-4.1 .4h.1l-3.8 .3h.1l-3.9 .1h.2l-4.1-.2h.2l-3.7-.5h.2l-4.1-1.2h.1l-4.3-1.4h.1l-3.9-1.6v-.1L805 694l.2 .1l-3.6-1.8l-3.3-1.7v.1l-3.9-2.2h-.1l-3.8-1.9h-.1l-3.7-1.6h.1l-3.5-1.7l-3.1-1.5l-3.1-1.5l-.1-.1l-3.4-1.4h-.1l-3.6-1.3l-.2-.1l-3.3-.7h-.2l-3.4-.4h-.2l-3.2 .1h-.2l-3 .3l-.4 .1l-3 1.1h.1l-3.7 1.1l-.3 .2l-3.3 1.8v.1l-3.7 2.2l-3.6 2.2l-.4 .3l-2.8 2.7l-3 2.9l-.2 .2l-2.5 3.2h.1l-2.9 3.6h-.1l-2.6 3.6l-2.4 3.5l.1-.2l-2.8 3l-.1 .1l-2.4 2.9l.1-.2l-2.7 2.7l.2-.2l-3.4 2.6h.1l-3.5 2.5l.1-.1l-3.5 2.3h.1l-3.6 2.1h.1l-3.3 1.6l-3.2 1.5l.4-.1l-3.5 .8l.1-.1l-3.4 .6h.3l-3-.1h.2l-2.9-.4l.3 .1l-2.6-.9l.3 .1l-2.6-1.6l.3 .2l-2.7-2.2h.1l-2.9-2.6l-3.1-3.1v-.1l-3.4-3.1v.1l-3-3.2l-3.1-3l-2.8-2.9l.1 .1l-2.6-3v-.1l-3.1-3.2v-.1l-3.3-3.2l-3.2-2.9h-.1l-3.1-2.5l-.2-.1l-3.3-1.8h-.1l-2.8-1.3l-.2-.1l-3.2-.9l-.1-.1l-3.4-.7H628l-3.4-.4h-4l-3.3 .5l-3.4 .6l-.3 .1l-3 1l-.1 .1l-3.2 1.4h.1l-3.8 1.5l-.4 .2l-3.5 2.5l-.1 .1l-3.6 3.3h-.1l-3.6 3.6l-.2 .2l-2.7 4.2v-.1l-3.1 4v.1l-2.6 4.1v-.1l-2.8 4.2v-.1l-3 4.2v.1l-2.6 4.1l.2-.2l-3 3.1l.3-.2l-4.6 3.1l.3-.1l-4.4 2l.2-.1l-4.8 1.5l.4-.1l-1.3 .1h-.1l-1.2 .2l-2.4 .4h.3l-3.2-.1h.5l-3.1-.9l-3.8-1.1l.2 .1l-2.9-1.5l-3.1-1.5h.1l-3.1-1.8l.3 .2l-2.1-1.9v-.1l-2.6-2.4l.1 .2l-2.2-2.6l.2 .2l-2-3v-.1l-2.3-3.1l-.1-.1l-2.5-3.1L521 708l-.1-.1l-3-2.9h-.1l-2.9-2.7l-2.8-2.5l-.1-.1l-3.2-2.5l-.2-.1l-3.4-1.9h-.1l-3.6-1.6l-.2-.1l-3.7-1.1h-.1l-4-.9h-.1l-3.7-.6l-4.1-.5l-4.2-.3h-4.2l-4.2 .3l-3.8 .3H469l-3.9 .7l-4.1 .7l-.3 .1l-3.8 1.5l-4 1.6h-.1l-4.1 2.2l-.2 .1l-3.6 2.5h.1l-4.1 2.6h-.1l-4.3 2.9h-.1l-4 3.2l-4.4 3l-.2 .2l-3.5 3.4l-3.4 3.3l.1-.1l-3.4 2.9l-3.4 2.6l.3-.1l-3.4 1.7h.1l-3 1.4l.2-.1l-2.2 .5h.2l-2.2 .2h.5l-1.9-.5l.3 .1l-1.7-.8l.3 .2l-1.5-1.2l.2 .1l-1.6-1.7l.2 .2l-1.8-2.8l-1.6-3l.1 .4l-.8-3.6l-1-3.8l.1 .3l-.2-4v-.1l-.7-4.6l-.9-5.2v.1l-.7-5.4v.2V687v.1l.3-5.7v-5.7v.1l.5-5.5v-5.1l-.2-4.7v-4.2l-.4-3.7v-.1l-.5-3l-.4-2.4l-.1-.4l-1-1.9v-.1l-1-2l-.1-.2l-1.3-1.6v-.1l-1.5-1.6v.1l-1.4-1.6l-.2-.2l-1.7-1.3l-.2-.2l-2.1-1.3H380l-2.2-1.1l-.3-.1l-3-.6l-3.1-.7h-.2l-3.4-.2v.1l-3.7-.3h-4.2l-4 .2l-4.3 .2l-4.5 .3h.1l-4.2 .1h-4.6h.2l-4.3-.5l-4.5-.5h.3l-4.5-1.3l-4.2-1.5h.1l-4.3-1.8l-4.2-1.8l.1 .1l-3.8-1.9l.1 .1l-3.8-2.2l.1 .2l-3.5-2.7l.1 .1l-3.2-3h.1l-3.1-3.2l-2.8-3.1v-.1l-2.9-3l.1 .1l-2.4-3l.1 .1l-2.1-3l.1 .1l-1.8-2.9l.2 .3l-1.2-3.6l-1.3-3.6l.1 .3l-.4-3.7v.1l-.2-3.8v.3l.4-3.6v.2l1-3.8v.1l1.5-4V573l1.4-4.3l-.1 .2l1.9-3.8l1.9-3.6l-.1 .1l2.2-2.9l2.4-2.9l2.5-2.9l2.6-2.8l2.6-2.7l-.2 .1l3-2.3l-.2 .1l3.7-1.7H308l4.2-1.4l-.1 .1l4.5-1l4.5-1h.1l4.2-1l4.3-.9h-.1l4.4-.9l-.1 .1l4.5-.6h-.2l4.2-.3l4-.3l3.6-.2l3.3-.1h.1l3-.4h-.1h3l2.5-.3h-.1l2.3-.1h.1l2-.3h-.3l2.4 .2l-.1-.1l1.9 .2l1.8 .2l-.2-.1l1.3 .3c.5 .1 .9 0 1.3-.3l.2-.2c.4-.3 .6-.9 .5-1.4c-.2-.6-.6-1-1.1-1.2l-.5-.1l.3 .1l-.4-.2H373l-.5-.2l.8 .5l-.4-.4l.3 1.2l.1-.4V532c-.1-.3-.1-.5-.3-.7l-.4-.8l-.7-1.1l-.1-.1l-1.1-1.6v-.1l-1.4-1.6l-1.7-2.2l-.1-.1l-1.8-1.9L364 520l-1.7-2v.1l-1.5-1.9l-1.5-1.9l.1 .1l-1.6-2.2l.1 .2l-1.1-1.9v-.1l-1.7-2.6l.1 .2l-1.2-2.5v-.1l-1.3-2.5l.1 .4l-.4-2.3l-.1 .8l.7-1.8l.1-.4l.2-2.1l-.2 .4l1.1-2.3l.1-.6v-3.1v.3l.8-3v.1l1.4-3.3l-.1 .2l1.8-3.1l-.2 .3l2.5-2.7h-.1l2.5-2.3l-.1 .1l2.7-2.1l-.2 .1l3.4-1.7l.2-.1l3.3-2.2l-.4 .2l4.4-1.4l4.6-1.4l4.8-1.2h-.2l5.4-.4h.1l5.3-.5h.1l4.7-.7h-.2l5.4 .1h-.1l5.1 .3h.1l4.8-.1h-.2l5.2 .7l.1 .1l4.8 .5h-.1l5 .8h-.1l5.4 1.2l5.2 1.2l5.4 1.3l4.9 1.3l4.4 1.2l4.4 1.2l3.7 1l4.1 1.1l3.8 1l3.5 1l3.2 1l2.7 1h.1l2.1 .5h-.2l1.9 .8h.2l1.4 .4l-.2-.1l1.3 .5H488l.9 .4l.5 .1h.6h-.1l.4 .1c.6 0 1.2-.3 1.5-.8l.2-.4l.3-.5l.1-.3l.2-.7l-.3 .6l.4-.5c.2-.3 .4-.6 .4-.9l.1-.8v.2l.2-.9v.1l.2-.9l.1-.3v-1.4v.2l.3-1.3v-2l-.2-1.7l-.2-2l-.1-2.2v.1v-2.5l-.2-3v.4l.6-2.8v-.1l.5-2.7l-.1 .3l1.1-2.6v.1l1.2-2.4l.2-.6l.1-3.1l-.1 .5l1-2.7l.1-.1l.8-3.1v.2l1.3-2.9l-.4 .5l2.3-2.1l.2-.3l1.7-2.4l-.3 .3l1.9-1.5h-.1l2-1.4l-.4 .3l2.7-.8h-.1l2.6-.6l-.3 .1l2.9-.1h-.1l3.5 .3h-.2l3.3 .6l3.7 .7l4.3 .9l4.3 1.1l4.8 1.2h.1l5 1.3v-.1l5.3 1.5h.1l5.2 1.1l-.2-.1l5.9 1.9h-.1l5.4 1.8l5.4 1.8h-.1l5.3 2.3h.1l4.8 1.8l-.1-.1l5.3 2.1l4.6 1.6l4.8 1.8l-.1-.1l4.8 2l4.5 2l-.1-.1L609 464l4 2l3.4 1.7v.1l3.5 1.7l3 1.5h.1l3.3 1.5l3.1 1.5l2.9 1.3l.2 .1l2.4 .7l1.9 .6l.3 .1l2.4 .3h1.7l.6-.1l1.3-.5l1.5-.5l.4-.3l.9-.8l1.3-1l1.5-1.1l.1-.1l1.5-1.4l.1-.1l1.3-1.5v-.1l1.3-1.7l.1-.1l1.2-2v.1l1.3-1.9l.1-.1l1.2-2.1h-.1L658 460l-.1 .2l1.3-1.7l-.1 .1l1.5-1.5h-.1l1.7-1.6l-.1 .1l1.8-1.5l.2-.1l1.6-1.8v-.1l1.6-1.8l-.2 .2l1.7-1.3l.1-.2l1.7-1.6l-.2 .2l1.8-1.2l1.6-1.1l-.1 .1l1.7-1.1l-.4 .2l1.8-.5h.2l1.4-.5l-.5 .1l2.5 .1h-.2l4.1 .7l4 .8l4.4 1h-.1l1 .3h.1l1 .3l-.1-.1l2 .7l-.1-.1l2.7 1.1h-.1l2.7 1.2h-.1l3.1 1.7h.1l2.9 1.3h-.1l2.8 1.4l2.7 1.3l2.8 1.3l-.1-.1l3 1.5l3.2 1.6H722l3.5 1.7h-.2l3.4 2.1l.1 .1l3.1 1.7l-.1-.1l3.2 2.3l3.6 2.5h.1l3.7 2.3l-.1-.1l3.9 2.8l.1 .1l3.8 2.4l3.4 2.1l-.1-.1l3.9 2.9l3.5 2.6l-.1-.1l3.6 2.9l3.6 2.7v.1l2.8 1.9v.1l3.1 2.1l.2 .1l2.8 1.2l.1 .1l3.1 1l.1 .1l3 .6l.2 .1l2.8 .2l.1 .1l2.9 .1l.1-.1l2.3-.2h.3l2.2-.8l.1-.1l2.2-.8l.3-.2l2.2-1.7h.1l2.4-1.9l.2-.2l2.2-2.3h.1l2.2-2.6l2.1-2.3l2.2-2.1h-.1l2-1.6l1.8-1.6h.1l1.2-1.2l.1-.1l.7-.9l-.1 .1l.7-.6l.2-.2l.6-.9l.1-.2l.4-.8l.1-.1l.3-1.1v-.2l.2-.9l-.2 .4l.4-.7l.1-.4l.1-.6l-.4 .7l.3-.2c.3-.2 .4-.5 .4-.7c0-.3-.2-.6-.5-.7Z" class="g0_39"/>
<path d="M621.2 345.2l-1-.3l-1.1-.3h-.9l-1.2-.1h-.1l-1.3 .2h-.2l-.5 .3l-.4 .2c-.2 .1-.4 .3-.4 .5l-.1 .6l.1 .3l.3 .7l.1 .2l.6 .7l.1 .1l1 .8l1.1 .8l.3 .1l2.3 .6h-.1l2.7 .7l3 .6l3.5 .5l3 .4l3.4 .3l4.1 .3h.1l4.3 .3H654l5.8-.2h-.1l6.4 .1H666l7.3 .1l7.3 .3h-.1l7.3 .6l7.6 .5l7.5 .5h.1l7.4 .5h8.2l7.6-.2l7.9-.4h.1l8.1-.7h.1l7.6-.8h.1l7.9-1l7.2-1l6.7-.7h-.1l6.6-.4h-.1h6.2l5.8 .1h-.1l5.6 .4l5 .4l4.6 .2l3.8 .3h-.1l3.5 .5l2 .4h.1l1.7 .2l-.2-.1l1 .3l-.3-.1l.4 .2l.5 .1l.1 .1c.5 0 1-.2 1.2-.7c.3-.5 .1-1.1-.3-1.4l-.1-.1l-.1-.1l-.5-.4l-.2-.1l-.9-.5h-.3l-1.9-.5h-.1l-2.5-.4l-3.3-.3l-3.7-.6h-.1l-4.1-.2h.1l-5.8-.7c-.4 0-.7 .2-.8 .6c0 .4 .2 .7 .6 .8l5.8 .8l4.1 .5h-.1l3.7 .8l3.3 .5l-.1-.1l2.4 .6l1.9 .5h-.2l.9 .4l-.1-.1l.5 .4l.2 .1l.1 .1c.5 .2 1 .1 1.4-.3c.4-.4 .4-.9 .2-1.4c-.2-.4-.7-.7-1.2-.6h-.1l.7 .1l-.5-.2l-.3-.1l-.9-.2l-.2-.1l-1.7-.1h.1l-2.1-.4l-3.4-.5h-.1l-3.8-.4h-.1l-4.6-.2h.1l-5-.4h-.1l-5.5-.3l-5.9-.1h-6.3l-6.5 .4h-.1l-6.7 .8l-7.2 .9l-7.9 1l-7.7 .9h.1l-8.2 .7l-7.9 .5l-7.6 .1h.1l-8.1 .1h.1l-7.5-.5l-7.5-.5l-7.7-.4l-7.2-.6l-7.3-.3h-.1l-7.2-.1h-6.4l-5.8 .2l-5.2 .1H644l-4.4-.2h.1l-4.2-.3l-3.3-.3l-3-.4l-3.4-.4l-3-.6h.1l-2.7-.6l-2.3-.6l.3 .1l-1.1-.7l-1-.8v.1l-.6-.7l.2 .2l-.4-.6l.1 .3v-.6l-.3 .6l.4-.3l.5-.3l-.2 .1l1.3-.2h-.2l1.2 .1h.1l.8-.1h-.1l1.1 .2v-.1l1 .2c.2 0 .4-.1 .5-.3c0-.3-.1-.5-.3-.5Z" class="g0_39"/>
<path d="M618.7 363.1l-3.9-.3h.1l-3-.5h.1l-2.4-.9l-1.1-.4l.4 .4l-.5-.6l.1 1.2l.4-.7l-.1 .2l.8-.9l-.2 .2l1.9-1.6l.1-.1l2.1-2l-.3 .2l3.8-1.8h-.1l4.2-1.5H621l4.7-1.1h-.1l5.2-.7l5.4-.8l5.7-.4l6.6-.5l7.1-.3h-.1l7.4 .1h8.3l8.8 .3l9.2 .5h.1l9.8-.2l10.1-.4l10.2-.5l10.1-.7l10.1-.7l9.6-.7l9.9-.6l9.3-.6l8.8-.6l8.3-.5h-.1l7.2-.3l7.5-.3H800l6.5 .2h-.1l6.1 .3h-.1l5.5 .6h-.1l4.2 .5l3.1 .5l2.9 .4h-.1l1.5 .3l.2 .1l1.3 .1h-.1l.7 .2h.4c.6 .1 1.2-.2 1.4-.8c.2-.6 0-1.3-.5-1.6l-.4-.2l-.3-.2l-.9-.2l-.1-.1l-2.1-.5h-.1l-2.9-.3l-4.4-.7c-.5-.1-1 .3-1.1 .8c-.1 .5 .3 1 .8 1.1l4.4 .8l2.8 .6h-.2l2.1 .7l.9 .3l-.3-.1l.4 .2c.4 .3 1 .3 1.5 0c.4-.3 .6-.9 .5-1.4c-.2-.5-.6-.9-1.2-1H832l-.7-.2h-.1l-1.3-.1h.2l-1.6-.4h-.1l-2.9-.5l-3.1-.4l-4.2-.6h-.1l-5.4-.5h-.1l-6.1-.3l-6.4-.1H800l-7.5 .2l-7.2 .4l-8.2 .5l-8.9 .5l-9.3 .7l-9.9 .7l-9.6 .7l-10.1 .7l-10.1 .7l-10.1 .6l-10.1 .4l-9.7 .1l-9.2-.4l-8.9-.3h-8.3l-7.4-.1l-7.1 .3h-.1l-6.6 .5l-5.7 .4h-.1l-5.5 .9h.1l-5.3 .7h-.1l-4.6 1.1l-.1 .1l-4.3 1.5H616l-3.8 1.9l-.3 .2l-2.1 2.1l.1-.1l-1.9 1.6l-.1 .1l-.7 .9l-.1 .1l-.4 .7c-.2 .4-.2 .9 .1 1.2l.6 .6l.4 .3l1.1 .4l2.5 .7l.2 .1l3 .4h.2l3.9-.1c.4 0 .7-.4 .7-.7c0-.4-.3-.7-.7-.7Z" class="g0_39"/>
<path d="M614.6 361.9l1.3-.3l2.4-.5h.1l3.8-1.1l4.7-1.3l5.5-1.3l5.5-1.3h-.1l5.5-1l5.6-.9l5.8-1h-.1l5.9-.7h-.1l6.8-.4l7-.6h-.1h25.4h-.1l10 .5l9.8 .4l9.7 .5l10.1 .7l9.5 .7h-.1l9.9 1.2l9.2 .5h-.1l8.8 .7l8.4 .6h.2l7.3-.2H792l7.7 .3h.1l6.3-.3h.2l6.4-.7l.2-.1l5.7-1.2l5.2-1.4h.2l4.4-2h.1l3.7-1.9l.2-.1l2.6-2l.3-.3l1.6-2.4c.5-.7 .3-1.5-.3-1.9c-.6-.5-1.5-.3-1.9 .3l-1.7 2.3l.3-.3l-2.7 2l.3-.1l-3.7 1.8V349l-4.4 1.9l.2-.1l-5.1 1.4l-5.7 1.2h.2l-6.5 .8l.1-.1l-6.3 .4h.1l-7.7-.2H792l-7.3 .2h.1l-8.4-.5l-8.8-.6l-9.1-.4l-9.8-1.1h-.1l-9.4-.5l-10.2-.7l-9.7-.4l-9.8-.5l-10-.4H682l-7.9 .1H674l-7 .6l-6.7 .4h-.1l-5.8 .8h-.1l-5.7 1l-5.6 1h-.1l-5.4 1.1h-.1l-5.4 1.3l-5.5 1.3l-4.7 1.2h-.1l-3.9 1.1h.1l-2.4 .6h-.2l-1.2 .6c-.3 .1-.5 .5-.4 .9c.1 .4 .5 .6 .9 .5Z" class="g0_39"/>
<path d="M880 538.9l-2.1 2.8c-.1 .2-.2 .4-.1 .5c.1 .2 .3 .3 .5 .3c.2 0 .3-.1 .4-.2l.2-.3l-.2 .2l.4-.3l.7-.5l-.1 .1l.5-.3l-.1 .1l.6-.2h-.2h.8l.7-.1h-.1l.7-.1l1-.1l1.8-.1h-.1l2.7 .3c.2 0 .4-.1 .4-.4c.1-.2-.1-.4-.3-.4l-2.7-.4h-1.9l-1 .1l-.7 .1l-.7 .2l.1-.1h-.8l-.5 .2h-.1l-.5 .2h-.1l-.7 .5h-.1l-.3 .3l-.2 .3l-.1 .3c-.1 .2 0 .5 .3 .6c.2 .1 .5 0 .6-.2l2-2.9c.2-.2 .1-.5-.1-.6c-.2-.2-.4-.1-.6 .1Z" class="g0_39"/>
<path d="M1181.8 420l2.8 1.7l-.3-1l-.1 .1c-.1 .3-.1 .5 0 .8c.1 .2 .3 .4 .5 .5h.8c.4 0 .7-.3 .8-.7v.1v-.1l-.5 .6l.1-.1l.2-.1l.5-.4l.1-.1l1.6-1.7l.2-.2l.2-.4v-.1l.2-.6c.2-.3 .1-.6 0-.9l-.1-.2l.1 .6v-.1c.1-.6-.3-1.1-.8-1.3c-.6-.1-1.2 .2-1.4 .8l1.3-.7l-.4-.1v.1h-.1h.3h-.7l-.2 .1l-.8 .3l-.1 .1l-2 1.3l-.2 .2l-.9 .8l.3-.2l-.9 .6v-.1l-1.2 .7l.2-.1l-1.2 .4c-.2 0-.4 .2-.5 .3l-.6 .7v-.1l-.7 .8l.1-.1l-.9 .7l-.1 .1l-.8 .7l.4-.2l-1.4 .6l-.2 .2l-1 .8l-.1 .1l-.8 .7l-.2 .2l-.8 1.2v-.1l-.9 1.1l.1-.1l-1.1 1.1l-.1 .1l-1.2 1.4l.1-.1l-1.4 1.2l-1.6 1.5l.1-.1l-2 1.5l-2.2 1.5h.1l-2.8 1.9v-.1l-2.3 1.5h-.1l-1.2 .8l-1.1 .7l-5.5 3.3l-5.9 3.6l.1-.1l-6.5 3.6h.1l-4.9 2.3l-5.5 2.7l-5.5 2.6l-5.9 3.1l-6.5 3.2l-6.4 3.1h.1l-7.1 2.9l-7.3 2.8v-.1l-7.3 2.6l-.1 .1l-7.3 3.1l-7.4 3.3l-7.3 3.3l-7.4 3.5l.2-.1l-7.9 2.9l-7.5 2.9l-7.7 3.1l-7.6 3l-7.3 3.2l-7.2 3.1l-7 2.9l-7 2.7l-6.6 2.4l-6.6 2.4v-.1l-6.2 2.1h-.1l-5.4 2l-5.1 1.9l-4.7 1.6l-3.7 1.4l-4 1.3h.1l-3.2 .9l-2.5 .8l-2 .6h.2l-1.6 .3l-1.1 .2l-1 .2h-.1l-.9 .2h.2L937 532h.2l-1.1 .1H936l-1.3 .1h-1.6l-1.2 .2l-1.4 .2l-.3 .1l-.8 .3l.1-.1l-.9 .3h-.2l-.8 .3h-.1l-.8 .4l.2-.1l-1.2 .4h.1l-.9 .2l-1.3 .3l.2-.1l-1.3 .2l-1.4 .2h.1l-1.6 .3h-.1l-1.5 .2h.1l-1.5 .2h-.1l-1.6 .3h.1l-1.5 .2h-.2l-1.4 .4h.1l-1.5 .2h-.1l-1.3 .4l.1-.1l-1.3 .3h.2h-1.6h.1h-1.2l-1.3 .1h-1.5l-.9 .2l-.1 .1l-.9 .3l.8-.1l-1-.1l-.1-.1h-.6l1 .6l-.3-.6l.2 .5l-.2-.6l.1 .2l-.1-.5l-.1-.9v.1v-.7v.1v-1.2v.2l.2-1.1l-.1 .2l.4-1v-.2l.3-1.4l-.1 .4l.3-.7h-.1l.4-.7l-.1 .2l.2-.2v-.1l.1-.1l-1.8 .3l.1 .1c.6 .4 1.3 .2 1.8-.3c.4-.6 .3-1.4-.2-1.9c-.2-.2-.5-.3-.7-.4c-.6-.1-1.1 .1-1.5 .5l-.1 .2l-.2 .3l-.5 1.1l-.1 .1l-1.1 2.6l-.1 .2l-.4 1.7l.1-.3l-.7 1.5l-.6 1.4l-.7 1.5v.1l-.6 1.4l-.1 .2l-.4 1.6V542l-.6 1.4l.8-.7l-1.7 .6c-.3 .2-.5 .4-.7 .7l-.5 .9l-.5 .9l.1-.1l-.2 .3c-.4 .6-.3 1.4 .2 1.9l1.1 .9c.2 .2 .4 .3 .7 .3l.7 .2h.1l1.1 .1h4.2l3.1-.1h.1l3.1-.3h-.1l3.6-.2l3.5-.1h-.1l2.9 .1h-.2l2.7 .4h-.1l1.7 .3h.2l1.4 .1l-.4-.1l1 .3l.2 .1l.7 .1l-.9-.6l.6 .9l-.2-.4l.2 .6l-.1-.4v.4l.1 .2l.1 .7l.1 .4v-.2v.7V552v.4l.1-.4l-.1 .2l1.5-1.1l1.7 1.5c-.1-.3-.2-.6-.3-.8v-.1c-.3-.4-.8-.7-1.4-.7h-.1h.1h-.9l.8 .3L921 549c-.5-.5-1.2-.4-1.6 0c-.5 .5-.5 1.2 0 1.6l2.4 2.5l.6 .6l-.1-.2v.1v-1.9v.1c-.2 .2-.3 .5-.3 .8c0 .5 .1 .9 .4 1.2c.3 .4 .8 .5 1.2 .5c.8 0 1.4-.4 1.6-1.1l.1-.1v-.3l.1-.4v-.3l-.1-.7v-.2l-.1-.4v-.1l-.2-.7v.1v-.4l-.1-.4l-.3-.6l-.2-.3l-.6-.8c-.2-.3-.6-.6-1-.6l-.7-.2l.2 .1l-1-.3l-.4-.1l-1.4-.1h.1l-1.7-.2l-2.7-.4H915l-2.8-.1h-3.7l-3.6 .3l-3.1 .3h.1l-3.1 .1h.1h-4.1h.1h-1h.1l-.7-.2l.7 .4l-1-.9l.2 1.9l.3-.4v-.1l.4-.8l.6-.9l-.8 .7l1.7-.7c.3-.1 .6-.4 .7-.7l.7-1.5l.1-.2l.5-1.6l-.1 .1l.6-1.4l.6-1.5l.7-1.4l.7-1.5l.1-.2l.4-1.7l-.1 .3l1.1-2.7v.1l.5-1.1l-.1 .2l.1-.2l-.8 .5c.2 0 .5-.1 .7-.3c.4-.4 .5-.8 .4-1.3c-.1-.5-.4-.9-.8-1l-.1-.1c-.6-.2-1.3 0-1.7 .6v.1v-.1l-.1 .2l-.2 .3l-.4 .7v.1l-.3 .7l-.1 .3l-.2 1.3l.1-.2l-.4 .9v.3l-.2 1.1l-.1 .2v2.1l.1 .9v-.1v.5l.1 .2l.1 .6l.2 .5l.3 .5c.2 .3 .6 .6 .9 .6l.6 .1l1 .2c.2 0 .5 0 .7-.1l.8-.2h-.1l.9-.2h-.4h5.5l1.3-.3l1.3-.3l1.5-.2h.1l1.5-.4h-.2l1.5-.2h.1l1.6-.3H917l1.4-.1h.1l1.5-.3l1.6-.2l1.3-.2l1.3-.2h.1l1.3-.3l.9-.2l.1-.1l1.1-.3l.2-.1l.8-.3l.7-.3l-.2 .1l1-.2v-.1l.9-.2h-.2l1.5-.2l1.2-.2h-.2h1.5l1.3-.1l1.1-.1h.1l1-.1h.2l.9-.2l1-.3l1.1-.2h-.1l1.6-.3h.2l2-.6l2.5-.8l3.1-.9l.1-.1l3.9-1.3h.1l3.7-1.4l4.7-1.7l5.1-1.9l5.4-2h-.1l6.3-2v-.1l6.6-2.3l6.7-2.4v-.1l7-2.7l7.1-2.9l7.2-3.1l7.3-3.2l7.6-3.1h-.1l7.7-3l7.5-2.9l7.8-2.9h.1l7.3-3.5l7.3-3.3l7.4-3.3l7.3-3.1h-.1l7.3-2.6h.1l7.3-2.8l7.2-2.9l6.4-3.2l6.5-3.2h.1l5.8-3.1l5.4-2.6l5.5-2.7l4.9-2.3l.1-.1l6.4-3.6h.1l5.8-3.6l5.5-3.3l1.2-.8l1.2-.8l2.4-1.4v-.1l2.8-1.8l2.1-1.6l2.1-1.5l.1-.1l1.6-1.5l-.1 .1l1.5-1.3l.1-.1l1.2-1.4l1-1.1h.1l.9-1.1v-.1l.9-1.2l-.1 .2l.8-.8l-.1 .1l1-.8l-.3 .1l1.4-.6l.3-.2l.8-.7h-.1l.9-.7l.1-.1l.8-.7v-.1l.6-.6l-.6 .3l1.2-.3l.2-.1l1.3-.7l.1-.1l.9-.5l.2-.2l.8-.9l-.2 .2l1.9-1.3l-.1 .1l.8-.4h.1h-.3h.1h-.3h.5c.4 0 .6-.3 .8-.5c.1-.3 .2-.7 .1-1c-.2-.6-.8-.9-1.4-.8c-.5 .2-.9 .7-.8 1.3v.1l.2 .5l.1 .2l-.1-.9l-.2 .6v-.1l-.1 .4l.2-.3l-1.6 1.7l-.4 .5l-.2 .2l-.1 .1c-.1 .2-.1 .5 0 .7v.1v-.1c.1 .5 .6 .8 1.1 .7c.6-.1 .9-.6 .7-1.1c-.1-.5-.6-.8-1.1-.7h-.3l-.1 .1h-.1l1.1 .4l-.1-.1l-.3-.4l-3-1.4c-.3-.1-.6 0-.8 .3c-.2 .3-.1 .7 .2 .8Z" class="g0_39"/>
<path d="M1004.5 545.4l.1 1.1l.1 1.4l.1 .1l.3 1.8v-.1l.2 1.8l.1 1.7v-.1v1.3v-.2l-.2 .9l.1-.2l-.1 .2l.3-.3l-.2 .1l1.2 .1l.3 .3l-.1-.1l.1 .1l-.2-.4c-.1-.3-.4-.6-.7-.7l-.1-.1l.3 .2l-.1-.1c-.4-.3-1-.3-1.4-.1c-.4 .2-.7 .7-.7 1.2c.1 .5 .4 .9 .8 1.1h.1c.6 .3 1.2 .1 1.5-.4c.4-.5 .3-1.2-.1-1.6c-.4-.4-1-.5-1.5-.2l-.6 .3l-.2 .1l-2.2 1.8l-.2 .2l-.6 .8h-.1l-.4 .7l-.1 .1l-.2 .4l-.1 .3v.3c-.1 .5 .1 .9 .5 1.2c.3 .2 .8 .2 1.2 0c.4-.2 .6-.6 .6-1.1h-.1l-.2-.6v-.1c-.2-.2-.4-.4-.7-.4h-.1l.6 .3l-.8-.8l-2.4-2.4l-1.4-1.4l-.1-.1l-1.4-1.4l-.2-.1l-1.2-.7h.1l-1.1-.8l-.2-.1l-.6-.3l.2 .2l-.7-.6l-.6-.4v-.1l-.5-.3l.2 .2l-.3-.3c-.3-.5-1-.6-1.5-.2c-.5 .3-.6 1-.2 1.5l.2 .3l-.2-.6v.4c0 .3 0 .5 .2 .7l.5 .7l-.2-.3l.3 1.2v-.6l-.3 .9v.5l.2 1.1v-.3v.8c-.1 .3 0 .6 .2 .8l1 1.4l.2 .2l2 1.6h.1l2.3 1.7h.1l2.5 1.8l2.3 1.7l2.1 1.6l2.3 1.7l2.2 1.5l2.4 1.6l-.1-.1l1.1 .9h-.1l1.1 .9l1.7 1.4l.1 .1l1.6 1.2l-.2-.2l.7 .7l.1 .1l.4 .4c.4 .4 1.1 .3 1.4-.1c.4-.4 .4-1 .1-1.4l-.4-.5l.1 .2l-.6-.8l-.2-.3l-1.6-1.2h.1l-1.7-1.5l-1.1-.9l-1.1-.9h-.1l-2.3-1.6l-2.2-1.5l-2.2-1.7l-2.2-1.6l-2.3-1.6L997 559l-2.4-1.8l.1 .1l-2.1-1.6l.3 .3l-1-1.4l.2 .7v-1.1l-.2-1v.5l.2-.9v-.5l-.3-1.2l-.2-.4l-.5-.8l.2 .6v-.4c0-.3-.1-.5-.2-.7l-.2-.3c-.3-.3-.7-.5-1.1-.4c-.4 0-.7 .3-.9 .7c-.1 .4 0 .8 .2 1.1l.3 .3l.2 .2l.6 .3h-.1l.6 .5l.7 .5l.2 .1l.6 .2l-.2-.1l1.1 .9h.1l1.2 .7l-.2-.1l1.5 1.4v-.1l1.3 1.5l2.5 2.4h-.1l.7 .8l.2 .1v.1l-.3-.6v.1v-.4h-.1c0 .6 .4 1.2 1.1 1.3c.6 0 1.2-.4 1.2-1l.1-.3l-.1 .3l.2-.4l-.1 .1l.4-.6v.1l.5-.8l-.2 .2l2.3-1.8l-.6 .2l.7-.1c.6 0 1-.4 1.1-.9c.2-.6-.1-1.1-.5-1.4l-.1-.1c-.4-.2-.9-.2-1.3 0c-.4 .2-.7 .7-.7 1.1c0 .5 .3 .9 .7 1.1l.1 .1c.3 .2 .7 .2 1.1 .1h.1l-1.4-.5l.2 .3l.5 .4l.1 .1c.4 .2 .9 .1 1.2-.2l.1-.1l.2-.2l.2-.3l.2-.3v-.2l.2-.9v-1.5l-.2-1.7l-.2-1.9v-.1l-.5-1.9v.1l-.3-1.4v-.1l-.4-1c-.2-.3-.5-.4-.8-.3c-.3 0-.5 .3-.5 .6Z" class="g0_39"/>
<path d="M1022.9 561.3v.4l.2 .6l.6 .7v-.1l.5 .8v.1l.8 .8l.1 .2l.7 .6l.2 .1l.5 .3l-.1-.1l.4 .3c.5 .3 1.2 .1 1.6-.4l.2-.3l.2-.5l.1-.8v-1.3l.1-2l-.1 .2l.5-1.8c0-.4-.2-.8-.6-.9c-.4-.1-.8 .1-.9 .5l-.6 1.8v.1l-.3 1.9v.1l-.2 1.1v-.1l-.2 .7l.3-.5l-.3 .3h1.6l-.3-.3l-.1-.1l-.5-.3l.1 .1l-.6-.6l-.7-.8l-.6-.6l-.2-.1l-.7-.6l-.2-.1l-.3-.2c-.3-.1-.6-.1-.8 .1c-.3 .1-.4 .4-.4 .7Z" class="g0_39"/>
<path d="M1036.8 557.1l-.1 .2c-.2 .5-.1 1 .3 1.4l.4 .3l.2 .2l.6 .3l1 .6l.1 .1l1.3 .6l1.3 .6c.5 .2 1.1 0 1.3-.5c.3-.5 .1-1.1-.4-1.3l-1.3-.7l.2 .1l-1.1-.9l-1-.7v-.1l-.6-.3l-.2-.1l-.5-.2l-.4-.1h-.1c-.5-.1-.9 .2-1 .5Z" class="g0_39"/>
<path d="M901 644.9l1.9 4.6l.3 .4l1.1 .5h.1l1.4 .5h.1l1.6 .4l1.8 .4v-.1l2.1 .6h.2l2.4 .3l2.7 .3h-.1l4 .8h.1l3.9 .5h-.1l5.1 .9l5.1 .8h.1l5.3 .6l6.1 1h-.1l5.5 1.3h.1l5.4 1l5.2 .8l4.6 .8h.1l4.5 .5l4.2 .4l3.5 .4h3.4h-.2l2.3 .2h.2l1.8-.1h1l-.6-.1l.6 .2c.3 .1 .5 .2 .8 .1h.1l-1.5-1l.1 .4c.1 .5 .6 .9 1.2 .9c.6 0 1.1-.4 1.2-.9c.2-.6-.1-1.2-.6-1.5h-.1l.2 .2l-.6-.6l-.3-.1l-1.7-.8c-.5-.2-1.1 0-1.3 .5c-.2 .5 0 1.1 .4 1.3l1.7 .9l-.4-.4l.5 .8c.4 .5 1.1 .6 1.6 .3c.6-.3 .7-1 .4-1.6c-.3-.5-.9-.7-1.5-.5h-.1c-.5 .3-.8 1-.6 1.6c.2 .5 .8 .9 1.4 .8c.6-.1 1.1-.6 1.1-1.3v-.3c-.1-.6-.5-1.1-1.1-1.2l-.1-.1l.3 .1l-.6-.2l-.6-.2l-1 .1l-1.8 .1h.2l-2.3-.3h-3.4h.1l-3.5-.3h.1l-4.2-.5h-.1l-4.5-.4h.1l-4.6-.7l-5.1-.9l-5.5-.9h.1l-5.5-1.3h-.1l-6.1-1h-.1l-5.3-.6l-5.1-.8l-5.1-.8h-.1l-3.9-.4l.1 .1l-3.9-.8H917l-2.8-.2l-2.5-.2h.2l-2.2-.4l-1.8-.3l-1.6-.3l-1.5-.4l-1.2-.2l.5 .4l-2.1-4.5c-.1-.3-.4-.4-.7-.3c-.2 .1-.4 .4-.3 .7Z" class="g0_39"/>
<path d="M925.9 638.3c.4-.1 .7-.4 .8-.8c.1-.4 0-.8-.3-1.1c-.3-.3-.7-.4-1.1-.2l-.4 .1l-1.3 .4l-.1 .1l-2.9 1.2h.1l-1.6 .6H919l-1.7 .7h.1l-1.7 .5l-1.8 .6h.1l-1.9 .4l-.1 .1l-1.6 .4l-1.2 .5H909l-.7 .4l-.2 .1l-.5 .4c-.3 .2-.5 .6-.5 1v.4v-.3l-.1 .5c-.1 .3 0 .5 0 .8l.3 .6l.6-1.5l-.7 .3c-.3 .2-.5 .5-.6 .8c-.1 .3 0 .6 .1 .9l.5 .8l.4 .4l1.1 .7v.1l1 .6l.1 .1l2.6 1.2h-.1l1.4 .7l-.2-.1l1.2 1l.2 .1l1.1 .7l.1 .1l1 .5l-.3-.2l.8 .9c.4 .5 1.1 .5 1.6 .1c.5-.4 .5-1.1 .1-1.6l-.8-.9l-.2-.2l-1-.7l-1.1-.8l.1 .1l-1.2-1l-.2-.1l-1.4-.8l-2.6-1.2h.1l-1-.6l-1.1-.7l.4 .4l-.5-.8c-.3-.6-1.1-.8-1.6-.4c-.6 .3-.8 1-.5 1.6c.3 .6 1.1 .8 1.6 .5l.7-.4c.5-.3 .8-.9 .5-1.5l-.2-.6v.7l.2-.5v-.7l-.5 .9l.5-.4l-.2 .2l.8-.4l-.2 .1l1.3-.5l1.5-.4h-.1l2-.5h.1l1.7-.6l1.7-.6h.1l1.7-.7l1.6-.6h.1l2.8-1.3l1.3-.5h.1l.4-.2l-.4 .1c0 0 .1 0 .1 0Z" class="g0_39"/>
<path d="M1039.8 644.7l1-.2c.4-.1 .7-.4 .8-.8c.1-.5-.1-.9-.5-1.1c-.4-.2-.8-.2-1.2 0v.1l-.4 .5l-.1 .2l-.1 .3l-.1 .8v2.9v-.1l-.1 1.6l.1-.2l-.3 1.1l.4-.6l-.7 .7l.5-.4l-1.1 .4h.1l-1.3 .2h.3h-1.6h.1h-1.5l-.9 .1h.3l-.9-.2l.3 .1l-.5-.3l.3 .2l-.6-.4l.2 .1l-.4-.4l-.2-.2l-.4-.3l.5 1.5v-.1c.3-.7-.1-1.4-.7-1.7c-.7-.2-1.5 .1-1.7 .8c-.3 .6 0 1.4 .7 1.7l.2 .1c.5 .2 1.1 .1 1.5-.3c.4-.5 .5-1.1 .2-1.6c-.3-.5-.8-.8-1.4-.7l-.2 .1l.1-.1l.7 .2h-.1c-.2-.2-.6-.2-.9-.1h-.1h.9l-.3-.1h-.2l-1.3-.4h.1l-4.2-1.6l-2-.8h-.1l-1.6-.5l-1.2-.3l-.3-.1h-1.4h.2l-1.3-.2l.4 .1l-.7-.3l-.1-.1l-.7-.2l.9 1.6v-.2l-1.5 1h.3c.5 .1 1-.1 1.3-.5c.3-.5 .3-1 0-1.5c-.2-.4-.7-.6-1.2-.6h-.1l1 .3l-.1-.1h-.1c-.3-.2-.6-.3-.9-.2c-.4 0-.8 .2-1 .5c-.1 .4-.2 .8-.1 1.1l.2 .5l.3 .5l2.2 2.3l.3 .2l1.8 1.1l-.2-.1l1.6 1.4v-.1l2 1.7l2.2 1.9l2.5 2.4h.1l2.7 2.3l2.7 2.3l2.6 2.2l.1 .1l2.1 1.6l2.1 1.6l.1 .1l2 1.3l1.6 1l-.1-.1l1.2 .8l.1 .1l1.1 .6l.2 .1l.4 .2c.2 .1 .5 .1 .7 .1l.2-.1c.4-.1 .6-.4 .7-.7c.1-.4-.1-.8-.4-1l-.6-.5c-.4-.2-.9-.2-1.2 .2c-.4 .3-.3 .9 0 1.2l.6 .6c.3 .3 .7 .4 1.1 .1c.4-.2 .6-.6 .5-1v-.2l-.2-.4l-.3-.4l-.3-.3l-1-.7l-1.1-.9l-.2-.1l-1.6-1l-2-1.2l.1 .1l-2-1.6l-2.2-1.7l.1 .1l-2.6-2.2l-2.7-2.4l-2.8-2.3l.1 .1l-2.6-2.4l-2.3-1.9l-1.9-1.7h-.1l-1.6-1.3l-.1-.2l-1.9-1l.3 .2l-2.3-2.3l.3 .4l-.2-.4c-.2-.6-.8-1-1.4-.8c-.6 .1-1.1 .7-1 1.3c0 .6 .5 1.1 1.1 1.2l-.9-.5l.1 .1c.2 .3 .6 .5 .9 .5h.1c.7 .1 1.3-.4 1.4-1.1c.1-.7-.4-1.4-1.1-1.5h-.2c-.7-.1-1.4 .3-1.5 1l-.1 .1c-.1 .7 .3 1.4 .9 1.6l.7 .2h-.2l.7 .2l.3 .2l1.3 .1h.1l1.4 .1l-.3-.1l1.2 .3l1.6 .5l-.1-.1l2 .8l4.2 1.7h.1l1.3 .5l-.2-.2l.2 .2l.3 .1h.1l-.8-.6c.2 .4 .6 .7 1.1 .7h.6l.2-.1c.5-.2 .8-.7 .9-1.2c0-.6-.4-1.1-.9-1.3l-.2-.1c-.4-.1-.8-.1-1.1 .1c-.3 .1-.6 .4-.7 .8v.1c-.2 .5 0 1.1 .5 1.5l.3 .2l-.3-.2l.4 .4l.2 .2l.5 .5l.3 .2l.5 .2l.3 .1l.9 .3h1.4l.6-.1h.7h-.1h1.6l.3-.1l1.3-.3h.1l1.1-.4c.2-.1 .4-.2 .6-.4l.6-.7c.2-.2 .2-.4 .3-.6l.2-1.1v-4.6v.2l.1-.9v-.3c0-.3-.2-.7-.4-.9l-.1-.1c-.4-.2-.9-.2-1.3 0l-.8 .7c-.3 .2-.4 .6-.3 .9c.2 .4 .6 .6 1 .5Z" class="g0_39"/>
<path d="M1052.8 662.8l.7 1.2v.1l1 1.2l.3 .4l1.2 .8l.2 .1l1 .6l-.1-.1l.7 .5c.2 .1 .5 .2 .8 .2h.7c.4 0 .8-.2 1-.6c.3-.4 .3-.8 0-1.2l-.4-.8c-.3-.6-1-.8-1.5-.5c-.6 .2-.9 .9-.6 1.5l.3 .8c.2 .5 .8 .9 1.3 .8c.6-.1 1-.5 1.1-1.1c.1-.6-.3-1.1-.8-1.3l-.6-.2l.4 .2l-.7-.6l-.3-.2l-1-.5h.1l-1.3-.8l.2 .2l-1.2-1.1h-.1l-1.1-.8c-.4-.2-.9-.2-1.2 .1c-.3 .3-.4 .8-.1 1.1Z" class="g0_39"/>
<path d="M1063.3 663.5v1.2v-.1v.8l-.1 .7c0 .3 .1 .5 .2 .8l.4 .7l.2 .4l.5 .5l.3 .3l.5 .3c.2 .1 .4 .2 .6 .2h.7c.4 .1 .8-.1 1.1-.4l.5-.6l.3-.4l.4-1.4v-.1l.5-1.9c.2-.4-.1-.9-.6-1c-.4-.2-.9 .1-1.1 .5l-.6 1.9l.1-.3l-.8 1.1l.3-.3l-.7 .4l1.1-.1l-.6-.2l.6 .4l-.4-.4l.1 .1l-.5-.6l.2 .3l-.4-.8l.2 .4l-.2-.7V665l-.3-.8l-.1-.3l-.6-1c-.2-.3-.7-.5-1.1-.4c-.5 .1-.8 .5-.7 1Z" class="g0_39"/>
<path d="M1006.8 684.3l1-.2h-.2h1.8l3.2-.6h-.1l3.8-.3l6.1-.3h.1l6.7-.7l7.4-.8l8.2-.9l8.2-.8l8.4-.9l8.6-.7h.1l8.3-1.1h.1l7.6-1.1l4.5-.5l4.6-.5h-.1l7.3-.7h-.1l7.1-.2l5.6-.3h2.8h-.1h2.3l.8-.1c.7-.1 1.2-.5 1.4-1.2v-.1c.2-.8-.3-1.6-1-1.8c-.8-.3-1.6 0-1.9 .7c-.4 .7-.2 1.6 .5 2l.1 .1c.6 .4 1.4 .4 1.9-.1c.5-.4 .7-1.1 .4-1.7c-.3-.7-.9-1-1.6-1l-.3 .1l.8 .1l-1.2-.5l-.2-.1l-2.1-.6l-4.2-1.2c-.6-.2-1.2 .2-1.4 .8c-.2 .6 .2 1.2 .8 1.4l4.1 1.3l-.1-.1l1.9 1l-.1-.2l1.1 .8c.1 .1 .4 .2 .6 .2l.3 .1c.6 .1 1.2-.2 1.5-.7c.3-.5 .3-1.2 0-1.7l-.1-.1c-.4-.5-.9-.8-1.5-.7c-.5 0-1 .4-1.3 .9v.1l1.3-.9l-.8 .1h.2l-2.1-.1h-.1l-2.8 .1l-5.6 .2l-7.1 .2h-.1l-7.3 .7l-4.6 .6l-4.5 .5L1078 674l-8.3 1.2h.1l-8.6 .8h-.1l-8.4 1l-8.1 .9l-8.3 1l-7.4 .9l-6.7 .7h.1l-6.1 .4h-.1l-3.9 .4h-.1l-3.1 .7h-.1l-1.5 .4l-.2 .1l-1 .7c-.2 .2-.3 .5-.2 .8c.1 .3 .5 .4 .8 .3Z" class="g0_39"/>
<path d="M990.6 690.7l.4 .8c.1 .5 .6 .7 1 .8h.6c.2 0 .5-.1 .7-.2l.9-.5v-.1l1.4-.9l-.2 .1l2.7-1.1l3.1-1.5l-.1 .1l4.8-2h-.1l6.1-1.9l7.7-2.6h-.1l8.3-2.7l9.3-2.4h-.1l10-2.5h-.2l10.4-1.9l10.6-1.6h-.1l10.5-1h-.1l10-.6h-.1l9-.2l8.3-.2l7.2 .2l6.4 .3l5 .4h-.1l4.2 .7h-.1l3.3 .8l-.2-.1l2.9 1h-.1l1.7 .6h-.1l1.3 .6l-.4-.3l.5 .5c.4 .4 1.1 .5 1.7 .2c.5-.3 .8-.9 .7-1.5c-.1-.6-.5-1.1-1.1-1.2l-1.3-.3c-.5-.1-1.1 .2-1.3 .8c-.2 .5-.1 1.1 .4 1.4l1.1 .7c.5 .4 1.3 .3 1.8-.1c.4-.5 .6-1.2 .3-1.8l-.3-.6c-.2-.3-.4-.5-.7-.7l-1.3-.7h-.1l-1.6-.7h-.1l-2.9-1l-.1-.1l-3.4-.8h-.1l-4.2-.7h-.1l-5.1-.3v-.1l-6.5-.2l-7.3-.2l-8.3 .2h-.1l-9 .2l-10 .6l-10.5 1h-.1l-10.6 1.7h-.1l-10.3 1.9l-.1 .1l-9.9 2.5h-.1l-9.2 2.5h-.1l-8.3 2.7l-7.6 2.8l-6.1 2h-.1l-4.7 2.1h-.1l-3 1.5l-2.6 1.1l-.3 .1l-1.4 1h.1l-.9 .5l.4-.2l-.5 .1h.7l-.9-.2c-.3-.1-.7 0-.9 .2c-.2 .3-.2 .6-.1 .9Z" class="g0_39"/>
</svg>