<svg viewBox="0 0 1466 825" version="1.1" xmlns="http://www.w3.org/2000/svg">
<defs>
<clipPath id="c0_61"><path d="M-.2 825.3V-.2H1467V825.3Z"/></clipPath>
<clipPath id="c1_61"><path d="M1322.6 514.6V441.9h108.1v72.7Z"/></clipPath>
<clipPath id="c2_61"><path d="M440.2 492.9V421.3h103v71.6Z"/></clipPath>
<clipPath id="c3_61"><path d="M1327.7 682.3V607.4h103v74.9Z"/></clipPath>
<clipPath id="c4_61"><path d="M443.5 699.6V619.2h96.2v80.4Z"/></clipPath>
<clipPath id="c5_61"><path d="M1140.4 770.9V607.4H1282V770.9Z"/></clipPath>
<clipPath id="c6_61"><path d="M211.6 536.9v-139H425.1v139Z"/></clipPath>
<clipPath id="c7_61"><path d="M242.4 776.9v-164H410.6v164Z"/></clipPath>
<clipPath id="c8_61"><path d="M1097.3 571.2V421.3h215.1V571.2Z"/></clipPath>
<style>
.g0_61{fill:#F00;}
.g1_61{fill:none;stroke:#000;stroke-width:1.466;stroke-linejoin:round;}
.g2_61{fill:none;stroke:#F00;stroke-width:9.166;stroke-miterlimit:8;}
</style>
</defs>
<image clip-path="url(#c0_61)" preserveAspectRatio="none" x="0" y="-7" width="1467" height="840" href="img/1.jpg"/>
<path fill-rule="evenodd" d="M1182.6 337.7l4.7 2.4l-2.2 4l-4.6-2.3l-2.2 3.9l-4.6-2.4l2.2-4.1l4.5 2.3ZM864 327.6l7 3.7l-3.6 6.7l-7-3.6Zm133.9-.3l5.6 3.1l-3.1 5.8L996 334l-2.5 4.8l-5.5-3.1l3.3-6l4.2 2.3Zm-113.5 0l5.6 3.1l-3.1 5.8l-4.4-2.2l-2.5 4.8l-5.5-3.1l3.3-6L882 332Zm401.8-15.1c-.6 0-1.1 .3-1.4 .8c-.4 .4-.6 1-.6 1.6c0 .7 .4 1.3 1.2 1.7c.8 .5 1.8 .7 3.1 .7h1.1c-.5-3.2-1.7-4.8-3.4-4.8Zm-435.7 0c-.7 0-1.1 .3-1.5 .8c-.4 .4-.6 1-.6 1.6c0 .7 .4 1.3 1.2 1.7c.8 .5 1.8 .7 3.1 .7h1.1c-.5-3.2-1.6-4.8-3.3-4.8Zm-64.8 0c-.6 0-1.1 .3-1.4 .8c-.4 .4-.6 1-.6 1.6c0 .7 .4 1.3 1.2 1.7c.8 .5 1.8 .7 3.1 .7h1.1c-.5-3.2-1.7-4.8-3.4-4.8Zm652.2-.2c-.8 0-1.5 .9-2 2.7c1 .4 1.8 .7 2.4 .9c1.6 .6 2.5 .9 2.7 .9c.4 0 .6-.1 .6-.4c0-.4-.4-1.2-1.3-2.3c-.9-1.2-1.7-1.8-2.4-1.8Zm-682 0c-.8 0-1.5 .9-2 2.7c1 .4 1.8 .7 2.4 .9c1.6 .6 2.5 .9 2.7 .9c.4 0 .6-.1 .6-.4c0-.4-.4-1.2-1.3-2.3c-.9-1.2-1.7-1.8-2.4-1.8Zm574.1-.9c-1.3 0-2.7 .4-4.4 1.3c-1.6 .8-4 2.4-7.1 4.6h7.8c6.5 0 9.8-1 9.8-3c0-.9-.7-1.6-2.1-2.2c-1.2-.5-2.5-.7-4-.7Zm-268.1 0c-1.3 0-2.8 .4-4.4 1.3c-1.7 .8-4.1 2.4-7.2 4.6h7.8c6.6 0 9.9-1 9.9-3c0-.7-.8-1.4-2.2-2c-1.5-.6-2.8-.9-3.9-.9Zm129.5-5.4c1.2 0 2.1 .5 2.7 1.3c.7 .9 1.1 2.1 1.1 3.6c0 1.1-.2 2-.4 2.7c-.2 .7-.7 1.7-1.4 2.9c-.5-1.4-1-2.4-1.3-2.8c-.4-.4-.9-.6-1.6-.6c-1.1 0-2.6 .6-4.5 1.8c-1.8 1.2-2.8 2.2-2.8 3.1c0 .4 .4 .7 1.2 .9c.5 .1 1.3 .2 2.5 .2c.3 0 .6 0 .8 0c.3 0 .6 0 .9 0c2.2 0 3.6 .2 4.4 .6c.6 .4 .9 1.1 .9 2.2c0 2.2-.4 4.2-1.2 6.2c-1 2.5-2.5 4.2-4.3 5.3c-2.4 1.3-4.9 2.4-7.4 3.2c-2.6 .8-4.9 1.2-7.2 1.2c-6.1 0-9.2-2.7-9.2-8.3c0-2.8 .3-5.2 1-7.2c.8-2.3 2.4-5.4 4.9-9.2l1.4 .9c-1.5 2.4-2.6 4.7-3.3 6.6c-.7 1.9-1.1 3.6-1.1 5.1c0 3.7 2.1 5.6 6.3 5.6c1.6 0 3.1-.1 4.6-.4c1.4-.3 2.8-.7 4.3-1.2c1-.4 2.1-.8 3.3-1.3c2-.9 3-1.4 3.1-1.4c.9-.5 1.4-.9 1.4-1.3c0-.2-.5-.3-1.5-.4c-.9 0-1.6-.1-2-.1c-3.1 0-5.1-.4-6.2-1.3c-.8-.7-1.2-2-1.2-3.9c0-1 .3-2.1 .9-3.5c.6-1.4 1.3-2.8 2.3-4.2c1.4-2 2.9-3.6 4.3-4.7c1.5-1.1 2.9-1.6 4.3-1.6Zm-216.2-1c-.6 .3-1.1 .5-1.5 .7c-1.1 .6-1.9 1.1-2.6 1.6c-.5 .4-.9 .8-1.2 1.1c-.4 .5-.6 .8-.6 1c0 .3 .4 .5 1.1 .7c.7 .1 1.3 .2 2 .2c.4 0 .9-.1 1.4-.4c.5-.2 1.1-.7 2-1.3ZM787 304.3c1.6 0 2.9 1.1 4 3.2c1.2 2.2 1.7 4.8 1.7 7.9V317h2.1c2.1 0 3.9-.6 5.3-1.7c1.8-1.6 2.7-3.9 2.7-7l1.9 .3c0 .6 0 1.4-.1 2.2c0 .8 0 1.7 0 2.7c0 1 .3 1.8 1 2.5c.7 .7 1.5 1 2.4 1h3.7c2.4 0 4.1-.3 5.1-1c1.3-.8 1.9-2.3 1.9-4.5c0-.5 .2-.9 .5-1.3c.1-.2 .5-.6 1.1-1l1.1-.9c0 .4 .1 .9 .1 1.5c0 .7 0 1.1 0 1.3c0 1.1-.1 2.5-.5 4.3c.8 .4 1.6 .7 2.5 1c.9 .2 1.9 .4 2.9 .6c0-.7-.2-1.6-.7-2.7c-.5-1-.8-1.7-.8-2.1c0-.5 .1-.9 .2-1.2c.1-.1 .3-.4 .7-1l2.5-3.4c.6 1.3 .9 2.4 1.2 3.4c.2 1.1 .3 2.3 .3 3.9v11.2c-2.2 0-4.1-.1-5.5-.4c-1.5-.4-3-.9-4.4-1.6c-1.1 .9-2.2 1.4-3.1 1.6c-.9 .3-2.2 .4-4 .4h-4.9c-1.3 0-2.4-.3-3.2-1c-.7-.7-1.4-1.9-2.1-3.5c-1 1.7-2.3 2.9-3.6 3.6c-1.2 .6-2.5 .9-4.2 .9h-2.3l-.1 .5c-.5 2.6-1.9 5.1-4 7.6c-2.9 3.4-5.8 5-8.6 5c-1.7 0-3.5-.5-5.4-1.6c-2-1-5-3.1-9.1-6.2l1.3-1.7c2.1 1.4 3.9 2.4 5.3 2.8c1.1 .4 2.4 .6 3.8 .6c2 0 3.8-.5 5.7-1.6c2.3-1.2 4.6-3.3 7-6.1c-.9 .1-1.6 .2-2.1 .2c-2 0-3.6-.7-4.7-1.9c-1.2-1.3-1.8-3.1-1.8-5.3c0-3 .7-5.8 2.1-8.6c1.5-3 3.2-4.5 5.1-4.5Zm-95.4-.3l1.7 1.1c-.5 .8-.8 1.5-1.1 2.2c-.3 .6-.5 1.2-.7 1.6c-.3 .9-.4 1.8-.4 2.7c0 1.2 .3 2.2 1 3.1c.8 .9 1.7 1.5 2.9 1.8c.7 .1 1.6 .3 2.7 .4c1.1 .1 2.3 .1 3.6 .1h21.5c-.6-1.5-1-2.6-1.4-3.2c-.4-.8-1.1-1.7-2-2.9l2.7-6.9c1.5 2.1 2.5 4.1 2.9 5.8c.4 1.6 .6 3.9 .6 6.9v8.4h-25c-1.2 0-2.2 0-3 0c-.8 0-1.4 0-1.8-.1c-.8-.1-1.6-.3-2.5-.6c-1.7-.6-3-1.7-4.1-3.4c-1-1.7-1.5-3.6-1.5-5.7c0-.9 0-1.7 .1-2.6c.1-.9 .4-1.8 .7-2.8c.4-1.2 .9-2.3 1.4-3.2c.6-.9 1.1-1.8 1.7-2.7Zm178.5-.2c1.5 1.7 2.5 3.5 3 5.3c.5 1.6 .8 3.9 .8 6.9v1h13.6c-.2-1.3-.6-2.5-1.2-3.4c-.3-.5-1-1.4-2.1-2.7l2.4-7.1c1.5 1.7 2.5 3.5 3 5.3c.6 1.9 .9 4.6 .9 8.3v7.7H857.2v.5c-.6 2.6-2 5.1-4.1 7.6c-2.9 3.4-5.8 5-8.6 5c-1.7 0-3.5-.5-5.4-1.6c-2-1-5-3.1-9-6.2l1.2-1.7c2.2 1.4 3.9 2.4 5.3 2.8c1.1 .4 2.4 .6 3.8 .6c2 0 3.9-.5 5.8-1.6c2.2-1.2 4.5-3.3 6.9-6.1c-.9 .1-1.5 .2-2.1 .2c-2 0-3.5-.7-4.7-1.9c-1.2-1.3-1.7-3.1-1.7-5.3c0-3 .6-5.8 2-8.6c1.5-3 3.2-4.5 5.1-4.5c1.6 0 2.9 1.1 4.1 3.2c1.1 2.2 1.6 4.8 1.6 7.9V317H871c-.2-1.3-.6-2.5-1.2-3.4c-.3-.5-1-1.4-2.1-2.7Zm143.2-1.2c-.6 0-1.2 .2-1.7 .8c-.4 .5-.7 1.1-.7 1.8c0 .5 .2 .9 .6 1.2c.3 .3 .8 .5 1.4 .5c.5 0 .9-.2 1.4-.4c.5-.3 1-.8 1.7-1.4c-.5-1-1-1.6-1.4-2c-.4-.3-.9-.5-1.3-.5Zm-303.8-8.8l5.6 3l-3.1 5.8l-4.4-2.2l-2.5 4.8l-5.5-3l3.3-6.1l4.3 2.4Zm390.8-.3l5.5 3l-3.3 6.1l-4.3-2.4l-2.3 4.8l-5.6-3.1l3.1-5.8l4.4 2.2Zm-123.4-2l2.8 18.6c.5 2.9 1.1 4.9 1.8 5.9c.5 .7 1.2 1 2 1H1001c-.3-1.3-.7-2.5-1.2-3.4c-.3-.5-1-1.4-2.1-2.7l2.4-7.1c1.5 1.7 2.5 3.5 3 5.3c.5 1.6 .8 3.9 .8 6.9v1h15.8c0-1.7-.1-2.9-.2-3.7c-.1-1.1-.5-2.1-1-2.9c-.6 1.2-1.5 2.2-2.5 2.8c-1.1 .7-2.2 1-3.4 1c-1.7 0-3-.5-4.1-1.6c-1.1-1-1.6-2.4-1.6-3.9c0-2.4 .7-5.2 2.1-8.4c1.6-3.5 3.2-5.3 4.8-5.3c2.1 0 4.1 1.8 5.9 5.5c1.8 3.6 2.8 7.4 2.8 11.5v13.1h-39c-.7 0-1.4-.1-2-.4c-1.1-.6-2.1-1.6-2.9-3.2c-1.1-2.1-1.8-5-2.1-8.6c-1.3 1.7-2.4 2.8-3.1 3.5c-1.1 1-2 1.5-2.8 1.5c-.4 0-.8 0-1.4-.1l-3.6-.7c-1.6-.4-2.6-.6-2.9-.7c-.4-.2-.5-.4-.5-.8c0-.5 .7-2.2 2-5.1c1.4-2.8 2.4-4.6 3-5.3c.5-.5 1.4-1.2 2.7-2c.7-.5 1.8-1.2 3.2-2l1.6-1c-.1-.2-.1-.5-.2-.8c0-.3 0-.6 0-.8c0-.8 .2-1.7 .5-2.9c.4-1.1 1-2.5 1.9-4.2Zm159.4-1.3l5.6 3.1l-3.1 5.7l-4.4-2.2l-2.5 4.9l-5.5-3.1l3.3-6l4.2 2.3Zm182.2-.8l6.9 3.7l-3.6 6.7l-6.9-3.6Zm-199.4-.4l6.9 3.7l-3.5 6.7l-7-3.7Zm292.5-.1c1.1 1.6 1.9 3.2 2.4 4.8c.5 1.8 .8 4.1 .8 6.9v5.8c0 4.2 .3 7.1 .8 8.7c.5 1.3 1.2 1.9 2.1 1.9h8c1.8 0 3.2-.2 4.2-.6c1.4-.6 2.3-1.6 2.8-2.9c1.2-2.6 2.6-4.6 4.4-6.2c1.6-1.5 2.9-2.2 4-2.2c1 0 2.3 1.5 3.7 4.6c1.6 3.2 2.4 6.2 2.4 8.9v6.5c-2.1 0-4.5-.4-7.4-1.2c-2.4-.7-4.6-1.6-6.5-2.5c-1.2 1.7-2.6 2.8-4.3 3.3c-.8 .3-1.9 .4-3.3 .4h-8c-2.3 0-4-.9-5-2.8c-1.2-2.1-1.8-5.7-1.8-10.7v-8.5c0-1.9-.2-3.4-.8-4.5c-.2-.5-.8-1.2-1.8-2.2Zm-27.4 0l1.7 10.6c.7 4 1.2 7.5 1.4 10.4c.2 2.3 .3 4.5 .3 6.6c0 1.7-.2 3.3-.6 4.8c-.4 1.5-1.2 3.4-2.4 5.9l-1.8-.7c.5-2.6 .7-4.6 .7-6.2c0-1.2-.1-3-.3-5.4c-.2-2.3-.4-4.6-.7-6.9c-.3-2.3-.8-5.1-1.5-8.2c-.2-1.1-.4-1.9-.4-2.3c0-.6 .3-1.7 1-3.2c.6-1.5 1.4-3.2 2.6-5.4Zm-141.9 0l1.7 10.6c.7 4 1.2 7.5 1.4 10.4c.2 2.3 .3 4.5 .3 6.6c0 1.7-.2 3.3-.6 4.8c-.4 1.5-1.2 3.4-2.4 5.9l-1.8-.7c.5-2.6 .7-4.6 .7-6.2c0-1.2-.1-3-.3-5.4c-.2-2.3-.4-4.6-.7-6.9c-.3-2.3-.8-5.1-1.5-8.2c-.2-1.1-.4-1.9-.4-2.3c0-.6 .3-1.7 1-3.2c.6-1.5 1.4-3.2 2.6-5.4Zm-303.6 0l1.7 10.6c.7 4 1.2 7.5 1.4 10.4c.2 2.3 .3 4.5 .3 6.6c0 1.7-.2 3.3-.6 4.8c-.4 1.5-1.2 3.4-2.4 5.9l-1.8-.7c.5-2.6 .7-4.6 .7-6.2c0-1.2-.1-3-.3-5.4c-.2-2.3-.4-4.6-.7-6.9c-.3-2.3-.8-5.1-1.5-8.2c-.2-1.1-.4-1.9-.4-2.3c0-.6 .3-1.7 1-3.2c.6-1.5 1.4-3.2 2.6-5.4Zm-209.1 0c1.1 1.6 1.9 3.2 2.4 4.8c.5 1.8 .8 4.1 .8 6.9v5.8c0 4.2 .3 7.1 .8 8.7c.5 1.3 1.2 1.9 2.1 1.9h8c1.8 0 3.2-.2 4.2-.6c1.4-.6 2.3-1.6 2.8-2.9c1.2-2.6 2.6-4.6 4.4-6.2c1.6-1.5 2.9-2.2 4-2.2c1 0 2.3 1.5 3.8 4.6c1.5 3.2 2.3 6.2 2.3 8.9v6.5c-2.1 0-4.5-.4-7.4-1.2c-2.4-.7-4.6-1.6-6.5-2.5c-1.2 1.7-2.6 2.8-4.3 3.3c-.8 .3-1.9 .4-3.3 .4h-8c-2.3 0-4-.9-5-2.8c-1.2-2.1-1.8-5.7-1.8-10.7v-8.5c0-1.9-.2-3.4-.8-4.5c-.2-.5-.8-1.2-1.8-2.2Zm364.8-2.3l5.6 2.9l-3 6.2l-5.6-3Zm276 0l1.3 .7c0 .1 0 .4-.1 1c0 .6 .4 1.3 1.3 1.9c.7 .5 1.9 1.1 3.5 1.8c-.2 1.3-.5 2.5-.8 3.7c-.4 1.3-.8 2.3-1.2 3.3l-1.1-.4l3.3 18.4v8.1h-18.7c-1.6 0-3-.3-4.2-.9c-1.2-.7-2.1-1.7-2.9-3.1c-1.3 1.6-2.9 2.7-5 3.4c-1.4 .4-2.9 .6-4.5 .6h-32.6c-1.4 0-2.5-.3-3.4-1c-.8-.7-1.6-1.9-2.2-3.5c-1.2 1.8-2.4 3-3.6 3.6c-1 .6-2.4 .9-4.2 .9H1293l-.1 .5c-.5 2.6-1.9 5.1-4 7.6c-2.9 3.4-5.8 5-8.6 5c-1.7 0-3.5-.5-5.4-1.6c-2-1-5-3.1-9.1-6.2l1.3-1.7c2.1 1.4 3.9 2.4 5.3 2.8c1.1 .4 2.4 .6 3.8 .6c2 0 3.8-.5 5.7-1.6c2.3-1.2 4.6-3.3 7-6.1c-.9 .1-1.6 .2-2.1 .2c-2 0-3.6-.7-4.7-1.9c-1.2-1.3-1.8-3.1-1.8-5.3c0-3 .7-5.8 2.1-8.6c1.5-3 3.2-4.5 5.1-4.5c1.6 0 2.9 1.1 4 3.2c1.2 2.2 1.7 4.8 1.7 7.9V317h2.1c2.3 0 4.1-.6 5.3-1.7c1.4-1.4 2.3-3.7 2.7-7l2 .3c-.1 .7-.1 1.3-.1 1.7c-.1 1.3-.1 2.4-.1 3.2c0 1.1 .3 2 .9 2.6c.6 .6 1.3 .9 2.3 .9c1 0 1.9-.2 2.7-.6c.8-.4 2.1-1.2 3.9-2.4l10.7-7.7c1.2-.9 2.2-1.5 2.8-1.9c1.5-.9 2.9-1.3 4.2-1.3c2.2 0 4 .8 5.3 2.4c1.6 1.8 2.4 4.5 2.4 8.2V317h1c1.7 0 2.8-.1 3.5-.2c.7-.2 1.6-.6 2.7-1.2c-.6-1.2-1.1-2-1.6-2.5c-.5-.6-1-.9-1.6-.9c-.2 0-.4 0-.6 .2c-.2 .1-.4 .4-.7 .8l-1.3-.1c0-3.6 .6-6.2 1.9-7.7c1.2-1.6 3.2-2.4 5.9-2.4c2.7 0 4.9 .6 6.5 1.7c1.6 1.1 2.3 2.5 2.3 4.4c0 1-.2 2-.6 2.9c-.4 1-1.2 2.2-2.3 3.8c.2 .4 .6 .7 1.1 .9c.5 .2 .9 .3 1.4 .3H1373l-3.6-20.2l-1.9-1.3c0-1.1 .2-2.3 .5-3.5c.5-1.5 1.3-3.3 2.4-5.4Zm-141.9 0l1.3 .7c0 .1 0 .4-.1 1c0 .6 .4 1.3 1.3 1.9c.7 .5 1.9 1.1 3.5 1.8c-.2 1.3-.5 2.5-.8 3.7c-.4 1.3-.8 2.3-1.2 3.3l-1.1-.4l3.3 18.4v8.1h-27.8c-1.3 0-2.3-.2-3-.8c-.9-.7-1.3-1.8-1.3-3.3c0-.9 .1-1.8 .1-2.8c.1-1 .3-2.1 .5-3.1l1.1-.1c.1 .7 .5 1.2 1 1.6c.6 .3 1.2 .4 2 .4h10.3c-.5-2.9-1.3-5.2-2.4-7c-.9-1.4-2.2-2.7-3.9-3.7l2.1-9.3c2.6 1.9 4.5 4.4 5.5 7.4c1 2.8 1.5 6.5 1.5 11.2V317h10.7l-3.6-20.2l-1.9-1.3c0-1.1 .2-2.3 .5-3.5c.5-1.5 1.3-3.3 2.4-5.4Zm-303.6 0l1.3 .7c0 .1 0 .4-.1 1c0 .6 .4 1.3 1.3 1.9c.7 .5 1.9 1.1 3.5 1.8c-.2 1.3-.5 2.5-.8 3.7c-.4 1.3-.8 2.3-1.2 3.3l-1-.4l3.2 18.4v8.1H916.8v.7c0 1.2-.7 2.8-2.1 4.8c-1.4 2-3 3.8-4.9 5.2c-2 1.7-3.8 2.5-5.3 2.5c-1.7 0-3.6-.5-5.6-1.5c-1.8-.9-4.5-2.6-8.2-5.1l1.2-1.9c1.8 1.2 3.3 2 4.4 2.4c1.1 .4 2.2 .7 3.5 .7c1.4 0 2.8-.4 4.1-1.2c1.4-.8 3.3-2.2 5.6-4.3c3.3-3 5-5.2 5-6.8c0-.8-.4-1.9-1-3.2c-.7-1.4-1.6-2.6-2.6-3.6l1.7-8.1c1.3 1.4 2.4 3 3.1 4.8c.7 1.8 1.1 3.9 1.1 6.2v.3h10.7l-3.6-20.2l-1.9-1.3c0-1.1 .2-2.3 .5-3.5c.5-1.5 1.3-3.3 2.4-5.4Zm122.7-2.3l1.4 .5c0 .1 0 .4-.1 .8c0 .7 1 1.5 3 2.4c.6 .4 1.6 .8 2.9 1.3c-.2 1.5-.5 3-1 4.3c-.2 .7-.6 1.8-1.1 3.2l-1.1-.4c.6 2.8 1 4.9 1.2 6.3c.2 1.3 .3 2.5 .3 3.6v.3c0 .6 0 1 0 1.4c0 .3-.1 .8-.3 1.5c1.1-.8 2.1-1.5 3.2-2.3c1.6-1.1 3-2 4.3-2.7c1.7-.9 2.9-1.4 3.8-1.4c2.3 0 4.2 .6 5.6 1.8c1.6 1.4 2.4 3.4 2.4 6V317h2.1c2.1 0 3.9-.6 5.3-1.7c1.8-1.6 2.7-3.9 2.7-7l1.9 .3c0 .6 0 1.4-.1 2.2c0 .8 0 1.7 0 2.7c0 1 .3 1.8 1 2.5c.7 .7 1.5 1 2.4 1h3.7c2.4 0 4.1-.3 5.1-1c1.3-.8 1.9-2.3 1.9-4.5c0-.5 .2-.9 .5-1.3c.1-.2 .5-.6 1.1-1l1.1-.9c0 .4 .1 .9 .1 1.5c0 .7 0 1.1 0 1.3c0 1.1-.1 2.5-.5 4.3c.8 .4 1.6 .7 2.5 1c.9 .2 1.9 .4 2.9 .6c0-.7-.2-1.6-.7-2.7c-.5-1-.8-1.7-.8-2.1c0-.5 .1-.9 .2-1.2c.1-.1 .3-.4 .7-1l2.5-3.4c.6 1.3 .9 2.4 1.2 3.4c.2 1.1 .3 2.3 .3 3.9V317h13.7c-.2-1.3-.6-2.5-1.2-3.4c-.3-.5-1-1.4-2.1-2.7l2.4-7.1c1.5 1.7 2.5 3.5 3 5.3c.5 1.6 .8 3.9 .8 6.9v1h13.6c-.2-1.3-.6-2.5-1.2-3.4c-.3-.5-1-1.4-2.1-2.7l2.4-7.1c1.5 1.7 2.5 3.5 3 5.3c.6 1.9 .9 4.6 .9 8.3v7.7h-35.2l-1-.1c-1-.1-1.8-.2-2.5-.3c-1.5-.4-3-.9-4.4-1.6c-1.1 .9-2.2 1.4-3.1 1.6c-.9 .3-2.2 .4-4 .4h-4.9c-1.3 0-2.4-.3-3.2-1c-.7-.7-1.4-1.9-2.1-3.5c-1 1.7-2.3 2.9-3.6 3.6c-1.2 .6-2.5 .9-4.2 .9h-36.1V317h4c.4 0 1.8-.8 4-2.4c.7-.6 1.8-1.4 3.2-2.6c0-2.4-.1-4.5-.3-6.2c-.2-1.6-.5-3.4-.9-5.2c-.1-.5-.6-2.6-1.6-6.5l-1.7-1.1c.4-2 .8-3.5 1.1-4.5c.3-.9 .9-2.3 1.7-4.2Zm160.8-2l6.9 3.7l-3.6 6.6l-6.9-3.6Zm-197.2-.3l6.9 3.7l-3.5 6.7l-7-3.7Z" class="g0_61"/>
<path d="M1182.6 337.7l4.7 2.4l-2.2 4l-4.6-2.3l-2.2 3.9l-4.6-2.4l2.2-4.1l4.5 2.3ZM864 327.6l7 3.7l-3.6 6.7l-7-3.6Zm133.9-.3l5.6 3.1l-3.1 5.8L996 334l-2.5 4.8l-5.5-3.1l3.3-6l4.2 2.3Zm-113.5 0l5.6 3.1l-3.1 5.8l-4.4-2.2l-2.5 4.8l-5.5-3.1l3.3-6L882 332Zm401.8-15.1c-.6 0-1.1 .3-1.4 .8c-.4 .4-.6 1-.6 1.6c0 .7 .4 1.3 1.2 1.7c.8 .5 1.8 .7 3.1 .7h1.1c-.5-3.2-1.7-4.8-3.4-4.8Zm-435.7 0c-.7 0-1.1 .3-1.5 .8c-.4 .4-.6 1-.6 1.6c0 .7 .4 1.3 1.2 1.7c.8 .5 1.8 .7 3.1 .7h1.1c-.5-3.2-1.6-4.8-3.3-4.8Zm-64.8 0c-.6 0-1.1 .3-1.4 .8c-.4 .4-.6 1-.6 1.6c0 .7 .4 1.3 1.2 1.7c.8 .5 1.8 .7 3.1 .7h1.1c-.5-3.2-1.7-4.8-3.4-4.8Zm652.2-.2c-.8 0-1.5 .9-2 2.7c1 .4 1.8 .7 2.4 .9c1.6 .6 2.5 .9 2.7 .9c.4 0 .6-.1 .6-.4c0-.4-.4-1.2-1.3-2.3c-.9-1.2-1.7-1.8-2.4-1.8Zm-682 0c-.8 0-1.5 .9-2 2.7c1 .4 1.8 .7 2.4 .9c1.6 .6 2.5 .9 2.7 .9c.4 0 .6-.1 .6-.4c0-.4-.4-1.2-1.3-2.3c-.9-1.2-1.7-1.8-2.4-1.8Zm574.1-.9c-1.3 0-2.7 .4-4.4 1.3c-1.6 .8-4 2.4-7.1 4.6h7.8c6.5 0 9.8-1 9.8-3c0-.9-.7-1.6-2.1-2.2c-1.2-.5-2.5-.7-4-.7Zm-268.1 0c-1.3 0-2.8 .4-4.4 1.3c-1.7 .8-4.1 2.4-7.2 4.6h7.8c6.6 0 9.9-1 9.9-3c0-.7-.8-1.4-2.2-2c-1.5-.6-2.8-.9-3.9-.9Zm129.5-5.4c1.2 0 2.1 .5 2.7 1.3c.7 .9 1.1 2.1 1.1 3.6c0 1.1-.2 2-.4 2.7c-.2 .7-.7 1.7-1.4 2.9c-.5-1.4-1-2.4-1.3-2.8c-.4-.4-.9-.6-1.6-.6c-1.1 0-2.6 .6-4.5 1.8c-1.8 1.2-2.8 2.2-2.8 3.1c0 .4 .4 .7 1.2 .9c.5 .1 1.3 .2 2.5 .2c.3 0 .6 0 .8 0c.3 0 .6 0 .9 0c2.2 0 3.6 .2 4.4 .6c.6 .4 .9 1.1 .9 2.2c0 2.2-.4 4.2-1.2 6.2c-1 2.5-2.5 4.2-4.3 5.3c-2.4 1.3-4.9 2.4-7.4 3.2c-2.6 .8-4.9 1.2-7.2 1.2c-6.1 0-9.2-2.7-9.2-8.3c0-2.8 .3-5.2 1-7.2c.8-2.3 2.4-5.4 4.9-9.2l1.4 .9c-1.5 2.4-2.6 4.7-3.3 6.6c-.7 1.9-1.1 3.6-1.1 5.1c0 3.7 2.1 5.6 6.3 5.6c1.6 0 3.1-.1 4.6-.4c1.4-.3 2.8-.7 4.3-1.2c1-.4 2.1-.8 3.3-1.3c2-.9 3-1.4 3.1-1.4c.9-.5 1.4-.9 1.4-1.3c0-.2-.5-.3-1.5-.4c-.9 0-1.6-.1-2-.1c-3.1 0-5.1-.4-6.2-1.3c-.8-.7-1.2-2-1.2-3.9c0-1 .3-2.1 .9-3.5c.6-1.4 1.3-2.8 2.3-4.2c1.4-2 2.9-3.6 4.3-4.7c1.5-1.1 2.9-1.6 4.3-1.6Zm-216.2-1c-.6 .3-1.1 .5-1.5 .7c-1.1 .6-1.9 1.1-2.6 1.6c-.5 .4-.9 .8-1.2 1.1c-.4 .5-.6 .8-.6 1c0 .3 .4 .5 1.1 .7c.7 .1 1.3 .2 2 .2c.4 0 .9-.1 1.4-.4c.5-.2 1.1-.7 2-1.3ZM787 304.3c1.6 0 2.9 1.1 4 3.2c1.2 2.2 1.7 4.8 1.7 7.9V317h2.1c2.1 0 3.9-.6 5.3-1.7c1.8-1.6 2.7-3.9 2.7-7l1.9 .3c0 .6 0 1.4-.1 2.2c0 .8 0 1.7 0 2.7c0 1 .3 1.8 1 2.5c.7 .7 1.5 1 2.4 1h3.7c2.4 0 4.1-.3 5.1-1c1.3-.8 1.9-2.3 1.9-4.5c0-.5 .2-.9 .5-1.3c.1-.2 .5-.6 1.1-1l1.1-.9c0 .4 .1 .9 .1 1.5c0 .7 0 1.1 0 1.3c0 1.1-.1 2.5-.5 4.3c.8 .4 1.6 .7 2.5 1c.9 .2 1.9 .4 2.9 .6c0-.7-.2-1.6-.7-2.7c-.5-1-.8-1.7-.8-2.1c0-.5 .1-.9 .2-1.2c.1-.1 .3-.4 .7-1l2.5-3.4c.6 1.3 .9 2.4 1.2 3.4c.2 1.1 .3 2.3 .3 3.9v11.2c-2.2 0-4.1-.1-5.5-.4c-1.5-.4-3-.9-4.4-1.6c-1.1 .9-2.2 1.4-3.1 1.6c-.9 .3-2.2 .4-4 .4h-4.9c-1.3 0-2.4-.3-3.2-1c-.7-.7-1.4-1.9-2.1-3.5c-1 1.7-2.3 2.9-3.6 3.6c-1.2 .6-2.5 .9-4.2 .9h-2.3l-.1 .5c-.5 2.6-1.9 5.1-4 7.6c-2.9 3.4-5.8 5-8.6 5c-1.7 0-3.5-.5-5.4-1.6c-2-1-5-3.1-9.1-6.2l1.3-1.7c2.1 1.4 3.9 2.4 5.3 2.8c1.1 .4 2.4 .6 3.8 .6c2 0 3.8-.5 5.7-1.6c2.3-1.2 4.6-3.3 7-6.1c-.9 .1-1.6 .2-2.1 .2c-2 0-3.6-.7-4.7-1.9c-1.2-1.3-1.8-3.1-1.8-5.3c0-3 .7-5.8 2.1-8.6c1.5-3 3.2-4.5 5.1-4.5Zm-95.4-.3l1.7 1.1c-.5 .8-.8 1.5-1.1 2.2c-.3 .6-.5 1.2-.7 1.6c-.3 .9-.4 1.8-.4 2.7c0 1.2 .3 2.2 1 3.1c.8 .9 1.7 1.5 2.9 1.8c.7 .1 1.6 .3 2.7 .4c1.1 .1 2.3 .1 3.6 .1h21.5c-.6-1.5-1-2.6-1.4-3.2c-.4-.8-1.1-1.7-2-2.9l2.7-6.9c1.5 2.1 2.5 4.1 2.9 5.8c.4 1.6 .6 3.9 .6 6.9v8.4h-25c-1.2 0-2.2 0-3 0c-.8 0-1.4 0-1.8-.1c-.8-.1-1.6-.3-2.5-.6c-1.7-.6-3-1.7-4.1-3.4c-1-1.7-1.5-3.6-1.5-5.7c0-.9 0-1.7 .1-2.6c.1-.9 .4-1.8 .7-2.8c.4-1.2 .9-2.3 1.4-3.2c.6-.9 1.1-1.8 1.7-2.7Zm178.5-.2c1.5 1.7 2.5 3.5 3 5.3c.5 1.6 .8 3.9 .8 6.9v1h13.6c-.2-1.3-.6-2.5-1.2-3.4c-.3-.5-1-1.4-2.1-2.7l2.4-7.1c1.5 1.7 2.5 3.5 3 5.3c.6 1.9 .9 4.6 .9 8.3v7.7H857.2v.5c-.6 2.6-2 5.1-4.1 7.6c-2.9 3.4-5.8 5-8.6 5c-1.7 0-3.5-.5-5.4-1.6c-2-1-5-3.1-9-6.2l1.2-1.7c2.2 1.4 3.9 2.4 5.3 2.8c1.1 .4 2.4 .6 3.8 .6c2 0 3.9-.5 5.8-1.6c2.2-1.2 4.5-3.3 6.9-6.1c-.9 .1-1.5 .2-2.1 .2c-2 0-3.5-.7-4.7-1.9c-1.2-1.3-1.7-3.1-1.7-5.3c0-3 .6-5.8 2-8.6c1.5-3 3.2-4.5 5.1-4.5c1.6 0 2.9 1.1 4.1 3.2c1.1 2.2 1.6 4.8 1.6 7.9V317H871c-.2-1.3-.6-2.5-1.2-3.4c-.3-.5-1-1.4-2.1-2.7Zm143.2-1.2c-.6 0-1.2 .2-1.7 .8c-.4 .5-.7 1.1-.7 1.8c0 .5 .2 .9 .6 1.2c.3 .3 .8 .5 1.4 .5c.5 0 .9-.2 1.4-.4c.5-.3 1-.8 1.7-1.4c-.5-1-1-1.6-1.4-2c-.4-.3-.9-.5-1.3-.5Zm-303.8-8.8l5.6 3l-3.1 5.8l-4.4-2.2l-2.5 4.8l-5.5-3l3.3-6.1l4.3 2.4Zm390.8-.3l5.5 3l-3.3 6.1l-4.3-2.4l-2.3 4.8l-5.6-3.1l3.1-5.8l4.4 2.2Zm-123.4-2l2.8 18.6c.5 2.9 1.1 4.9 1.8 5.9c.5 .7 1.2 1 2 1H1001c-.3-1.3-.7-2.5-1.2-3.4c-.3-.5-1-1.4-2.1-2.7l2.4-7.1c1.5 1.7 2.5 3.5 3 5.3c.5 1.6 .8 3.9 .8 6.9v1h15.8c0-1.7-.1-2.9-.2-3.7c-.1-1.1-.5-2.1-1-2.9c-.6 1.2-1.5 2.2-2.5 2.8c-1.1 .7-2.2 1-3.4 1c-1.7 0-3-.5-4.1-1.6c-1.1-1-1.6-2.4-1.6-3.9c0-2.4 .7-5.2 2.1-8.4c1.6-3.5 3.2-5.3 4.8-5.3c2.1 0 4.1 1.8 5.9 5.5c1.8 3.6 2.8 7.4 2.8 11.5v13.1h-39c-.7 0-1.4-.1-2-.4c-1.1-.6-2.1-1.6-2.9-3.2c-1.1-2.1-1.8-5-2.1-8.6c-1.3 1.7-2.4 2.8-3.1 3.5c-1.1 1-2 1.5-2.8 1.5c-.4 0-.8 0-1.4-.1l-3.6-.7c-1.6-.4-2.6-.6-2.9-.7c-.4-.2-.5-.4-.5-.8c0-.5 .7-2.2 2-5.1c1.4-2.8 2.4-4.6 3-5.3c.5-.5 1.4-1.2 2.7-2c.7-.5 1.8-1.2 3.2-2l1.6-1c-.1-.2-.1-.5-.2-.8c0-.3 0-.6 0-.8c0-.8 .2-1.7 .5-2.9c.4-1.1 1-2.5 1.9-4.2Zm159.4-1.3l5.6 3.1l-3.1 5.7l-4.4-2.2l-2.5 4.9l-5.5-3.1l3.3-6l4.2 2.3Zm182.2-.8l6.9 3.7l-3.6 6.7l-6.9-3.6Zm-199.4-.4l6.9 3.7l-3.5 6.7l-7-3.7Zm292.5-.1c1.1 1.6 1.9 3.2 2.4 4.8c.5 1.8 .8 4.1 .8 6.9v5.8c0 4.2 .3 7.1 .8 8.7c.5 1.3 1.2 1.9 2.1 1.9h8c1.8 0 3.2-.2 4.2-.6c1.4-.6 2.3-1.6 2.8-2.9c1.2-2.6 2.6-4.6 4.4-6.2c1.6-1.5 2.9-2.2 4-2.2c1 0 2.3 1.5 3.7 4.6c1.6 3.2 2.4 6.2 2.4 8.9v6.5c-2.1 0-4.5-.4-7.4-1.2c-2.4-.7-4.6-1.6-6.5-2.5c-1.2 1.7-2.6 2.8-4.3 3.3c-.8 .3-1.9 .4-3.3 .4h-8c-2.3 0-4-.9-5-2.8c-1.2-2.1-1.8-5.7-1.8-10.7v-8.5c0-1.9-.2-3.4-.8-4.5c-.2-.5-.8-1.2-1.8-2.2Zm-27.4 0l1.7 10.6c.7 4 1.2 7.5 1.4 10.4c.2 2.3 .3 4.5 .3 6.6c0 1.7-.2 3.3-.6 4.8c-.4 1.5-1.2 3.4-2.4 5.9l-1.8-.7c.5-2.6 .7-4.6 .7-6.2c0-1.2-.1-3-.3-5.4c-.2-2.3-.4-4.6-.7-6.9c-.3-2.3-.8-5.1-1.5-8.2c-.2-1.1-.4-1.9-.4-2.3c0-.6 .3-1.7 1-3.2c.6-1.5 1.4-3.2 2.6-5.4Zm-141.9 0l1.7 10.6c.7 4 1.2 7.5 1.4 10.4c.2 2.3 .3 4.5 .3 6.6c0 1.7-.2 3.3-.6 4.8c-.4 1.5-1.2 3.4-2.4 5.9l-1.8-.7c.5-2.6 .7-4.6 .7-6.2c0-1.2-.1-3-.3-5.4c-.2-2.3-.4-4.6-.7-6.9c-.3-2.3-.8-5.1-1.5-8.2c-.2-1.1-.4-1.9-.4-2.3c0-.6 .3-1.7 1-3.2c.6-1.5 1.4-3.2 2.6-5.4Zm-303.6 0l1.7 10.6c.7 4 1.2 7.5 1.4 10.4c.2 2.3 .3 4.5 .3 6.6c0 1.7-.2 3.3-.6 4.8c-.4 1.5-1.2 3.4-2.4 5.9l-1.8-.7c.5-2.6 .7-4.6 .7-6.2c0-1.2-.1-3-.3-5.4c-.2-2.3-.4-4.6-.7-6.9c-.3-2.3-.8-5.1-1.5-8.2c-.2-1.1-.4-1.9-.4-2.3c0-.6 .3-1.7 1-3.2c.6-1.5 1.4-3.2 2.6-5.4Zm-209.1 0c1.1 1.6 1.9 3.2 2.4 4.8c.5 1.8 .8 4.1 .8 6.9v5.8c0 4.2 .3 7.1 .8 8.7c.5 1.3 1.2 1.9 2.1 1.9h8c1.8 0 3.2-.2 4.2-.6c1.4-.6 2.3-1.6 2.8-2.9c1.2-2.6 2.6-4.6 4.4-6.2c1.6-1.5 2.9-2.2 4-2.2c1 0 2.3 1.5 3.8 4.6c1.5 3.2 2.3 6.2 2.3 8.9v6.5c-2.1 0-4.5-.4-7.4-1.2c-2.4-.7-4.6-1.6-6.5-2.5c-1.2 1.7-2.6 2.8-4.3 3.3c-.8 .3-1.9 .4-3.3 .4h-8c-2.3 0-4-.9-5-2.8c-1.2-2.1-1.8-5.7-1.8-10.7v-8.5c0-1.9-.2-3.4-.8-4.5c-.2-.5-.8-1.2-1.8-2.2Zm364.8-2.3l5.6 2.9l-3 6.2l-5.6-3Zm276 0l1.3 .7c0 .1 0 .4-.1 1c0 .6 .4 1.3 1.3 1.9c.7 .5 1.9 1.1 3.5 1.8c-.2 1.3-.5 2.5-.8 3.7c-.4 1.3-.8 2.3-1.2 3.3l-1.1-.4l3.3 18.4v8.1h-18.7c-1.6 0-3-.3-4.2-.9c-1.2-.7-2.1-1.7-2.9-3.1c-1.3 1.6-2.9 2.7-5 3.4c-1.4 .4-2.9 .6-4.5 .6h-32.6c-1.4 0-2.5-.3-3.4-1c-.8-.7-1.6-1.9-2.2-3.5c-1.2 1.8-2.4 3-3.6 3.6c-1 .6-2.4 .9-4.2 .9H1293l-.1 .5c-.5 2.6-1.9 5.1-4 7.6c-2.9 3.4-5.8 5-8.6 5c-1.7 0-3.5-.5-5.4-1.6c-2-1-5-3.1-9.1-6.2l1.3-1.7c2.1 1.4 3.9 2.4 5.3 2.8c1.1 .4 2.4 .6 3.8 .6c2 0 3.8-.5 5.7-1.6c2.3-1.2 4.6-3.3 7-6.1c-.9 .1-1.6 .2-2.1 .2c-2 0-3.6-.7-4.7-1.9c-1.2-1.3-1.8-3.1-1.8-5.3c0-3 .7-5.8 2.1-8.6c1.5-3 3.2-4.5 5.1-4.5c1.6 0 2.9 1.1 4 3.2c1.2 2.2 1.7 4.8 1.7 7.9V317h2.1c2.3 0 4.1-.6 5.3-1.7c1.4-1.4 2.3-3.7 2.7-7l2 .3c-.1 .7-.1 1.3-.1 1.7c-.1 1.3-.1 2.4-.1 3.2c0 1.1 .3 2 .9 2.6c.6 .6 1.3 .9 2.3 .9c1 0 1.9-.2 2.7-.6c.8-.4 2.1-1.2 3.9-2.4l10.7-7.7c1.2-.9 2.2-1.5 2.8-1.9c1.5-.9 2.9-1.3 4.2-1.3c2.2 0 4 .8 5.3 2.4c1.6 1.8 2.4 4.5 2.4 8.2V317h1c1.7 0 2.8-.1 3.5-.2c.7-.2 1.6-.6 2.7-1.2c-.6-1.2-1.1-2-1.6-2.5c-.5-.6-1-.9-1.6-.9c-.2 0-.4 0-.6 .2c-.2 .1-.4 .4-.7 .8l-1.3-.1c0-3.6 .6-6.2 1.9-7.7c1.2-1.6 3.2-2.4 5.9-2.4c2.7 0 4.9 .6 6.5 1.7c1.6 1.1 2.3 2.5 2.3 4.4c0 1-.2 2-.6 2.9c-.4 1-1.2 2.2-2.3 3.8c.2 .4 .6 .7 1.1 .9c.5 .2 .9 .3 1.4 .3H1373l-3.6-20.2l-1.9-1.3c0-1.1 .2-2.3 .5-3.5c.5-1.5 1.3-3.3 2.4-5.4Zm-141.9 0l1.3 .7c0 .1 0 .4-.1 1c0 .6 .4 1.3 1.3 1.9c.7 .5 1.9 1.1 3.5 1.8c-.2 1.3-.5 2.5-.8 3.7c-.4 1.3-.8 2.3-1.2 3.3l-1.1-.4l3.3 18.4v8.1h-27.8c-1.3 0-2.3-.2-3-.8c-.9-.7-1.3-1.8-1.3-3.3c0-.9 .1-1.8 .1-2.8c.1-1 .3-2.1 .5-3.1l1.1-.1c.1 .7 .5 1.2 1 1.6c.6 .3 1.2 .4 2 .4h10.3c-.5-2.9-1.3-5.2-2.4-7c-.9-1.4-2.2-2.7-3.9-3.7l2.1-9.3c2.6 1.9 4.5 4.4 5.5 7.4c1 2.8 1.5 6.5 1.5 11.2V317h10.7l-3.6-20.2l-1.9-1.3c0-1.1 .2-2.3 .5-3.5c.5-1.5 1.3-3.3 2.4-5.4Zm-303.6 0l1.3 .7c0 .1 0 .4-.1 1c0 .6 .4 1.3 1.3 1.9c.7 .5 1.9 1.1 3.5 1.8c-.2 1.3-.5 2.5-.8 3.7c-.4 1.3-.8 2.3-1.2 3.3l-1-.4l3.2 18.4v8.1H916.8v.7c0 1.2-.7 2.8-2.1 4.8c-1.4 2-3 3.8-4.9 5.2c-2 1.7-3.8 2.5-5.3 2.5c-1.7 0-3.6-.5-5.6-1.5c-1.8-.9-4.5-2.6-8.2-5.1l1.2-1.9c1.8 1.2 3.3 2 4.4 2.4c1.1 .4 2.2 .7 3.5 .7c1.4 0 2.8-.4 4.1-1.2c1.4-.8 3.3-2.2 5.6-4.3c3.3-3 5-5.2 5-6.8c0-.8-.4-1.9-1-3.2c-.7-1.4-1.6-2.6-2.6-3.6l1.7-8.1c1.3 1.4 2.4 3 3.1 4.8c.7 1.8 1.1 3.9 1.1 6.2v.3h10.7l-3.6-20.2l-1.9-1.3c0-1.1 .2-2.3 .5-3.5c.5-1.5 1.3-3.3 2.4-5.4Zm122.7-2.3l1.4 .5c0 .1 0 .4-.1 .8c0 .7 1 1.5 3 2.4c.6 .4 1.6 .8 2.9 1.3c-.2 1.5-.5 3-1 4.3c-.2 .7-.6 1.8-1.1 3.2l-1.1-.4c.6 2.8 1 4.9 1.2 6.3c.2 1.3 .3 2.5 .3 3.6v.3c0 .6 0 1 0 1.4c0 .3-.1 .8-.3 1.5c1.1-.8 2.1-1.5 3.2-2.3c1.6-1.1 3-2 4.3-2.7c1.7-.9 2.9-1.4 3.8-1.4c2.3 0 4.2 .6 5.6 1.8c1.6 1.4 2.4 3.4 2.4 6V317h2.1c2.1 0 3.9-.6 5.3-1.7c1.8-1.6 2.7-3.9 2.7-7l1.9 .3c0 .6 0 1.4-.1 2.2c0 .8 0 1.7 0 2.7c0 1 .3 1.8 1 2.5c.7 .7 1.5 1 2.4 1h3.7c2.4 0 4.1-.3 5.1-1c1.3-.8 1.9-2.3 1.9-4.5c0-.5 .2-.9 .5-1.3c.1-.2 .5-.6 1.1-1l1.1-.9c0 .4 .1 .9 .1 1.5c0 .7 0 1.1 0 1.3c0 1.1-.1 2.5-.5 4.3c.8 .4 1.6 .7 2.5 1c.9 .2 1.9 .4 2.9 .6c0-.7-.2-1.6-.7-2.7c-.5-1-.8-1.7-.8-2.1c0-.5 .1-.9 .2-1.2c.1-.1 .3-.4 .7-1l2.5-3.4c.6 1.3 .9 2.4 1.2 3.4c.2 1.1 .3 2.3 .3 3.9V317h13.7c-.2-1.3-.6-2.5-1.2-3.4c-.3-.5-1-1.4-2.1-2.7l2.4-7.1c1.5 1.7 2.5 3.5 3 5.3c.5 1.6 .8 3.9 .8 6.9v1h13.6c-.2-1.3-.6-2.5-1.2-3.4c-.3-.5-1-1.4-2.1-2.7l2.4-7.1c1.5 1.7 2.5 3.5 3 5.3c.6 1.9 .9 4.6 .9 8.3v7.7h-35.2l-1-.1c-1-.1-1.8-.2-2.5-.3c-1.5-.4-3-.9-4.4-1.6c-1.1 .9-2.2 1.4-3.1 1.6c-.9 .3-2.2 .4-4 .4h-4.9c-1.3 0-2.4-.3-3.2-1c-.7-.7-1.4-1.9-2.1-3.5c-1 1.7-2.3 2.9-3.6 3.6c-1.2 .6-2.5 .9-4.2 .9h-36.1V317h4c.4 0 1.8-.8 4-2.4c.7-.6 1.8-1.4 3.2-2.6c0-2.4-.1-4.5-.3-6.2c-.2-1.6-.5-3.4-.9-5.2c-.1-.5-.6-2.6-1.6-6.5l-1.7-1.1c.4-2 .8-3.5 1.1-4.5c.3-.9 .9-2.3 1.7-4.2Zm160.8-2l6.9 3.7l-3.6 6.6l-6.9-3.6Zm-197.2-.3l6.9 3.7l-3.5 6.7l-7-3.7Z" class="g1_61"/>
<path fill-rule="evenodd" d="M619.7 311.1c-1.3 0-2.8 .4-4.4 1.3c-1.7 .8-4.1 2.4-7.2 4.6h7.8c6.6 0 9.9-1 9.9-3c0-.7-.8-1.4-2.2-2c-1.5-.6-2.8-.9-3.9-.9Zm20.9-3.8c-.4 0-.8 .2-1 .4c-.3 .3-.5 .6-.5 1c0 .8 .7 1.6 1.9 2.4c1.3 .8 2.8 1.4 4.6 1.7c-.7-1.7-1.5-3.1-2.4-4c-.8-1-1.7-1.5-2.6-1.5Zm18.5-4.7c-.6 0-1.2 .2-1.7 .8c-.4 .5-.7 1.1-.7 1.8c0 .5 .2 .9 .6 1.2c.3 .3 .8 .5 1.4 .5c.5 0 .9-.2 1.4-.4c.4-.3 1-.8 1.7-1.4c-.5-1-1-1.6-1.4-2c-.4-.3-.9-.5-1.3-.5Zm-18.7-16.4l5.6 3.1l-3.1 5.8l-4.4-2.3l-2.5 4.9l-5.5-3.1l3.3-6L638 291Zm-35-1.9l1.4 .5c0 .1 0 .4-.1 .8c0 .7 1 1.5 3 2.4c.6 .4 1.6 .8 2.9 1.3c-.2 1.5-.5 3-1 4.3c-.2 .7-.6 1.8-1.1 3.2l-1.1-.4c.6 2.8 1 4.9 1.2 6.3c.2 1.3 .3 2.5 .3 3.6v.3c0 .6 0 1 0 1.4c0 .3-.1 .8-.3 1.5c1.1-.8 2.1-1.5 3.2-2.3c1.6-1.1 3-2 4.3-2.7c1.7-.9 2.9-1.4 3.8-1.4c2.4 0 4.2 .6 5.6 1.8c1.6 1.4 2.4 3.4 2.4 6V317h3.2c1 0 1.8 .1 2.6 .2c2.2 .2 4.7 .5 7.5 .7c-2.9-.6-5-1.5-6.2-2.6c-1.2-1-1.8-2.6-1.8-4.7c0-3.1 .7-5.8 2.2-8.3c1.4-2.5 3-3.7 4.8-3.7c2 0 3.7 1.7 5.2 5.2c1.5 3.5 2.3 7.6 2.3 12.5v.7h15.8c0-1.7-.1-2.9-.2-3.7c-.1-1.1-.5-2.1-1-2.9c-.6 1.2-1.5 2.2-2.5 2.8c-1.1 .7-2.2 1-3.4 1c-1.7 0-3-.5-4.1-1.6c-1.1-1-1.6-2.4-1.6-3.9c0-2.4 .7-5.2 2.1-8.4c1.6-3.5 3.2-5.3 4.8-5.3c2.1 0 4.1 1.8 5.9 5.5c1.8 3.6 2.8 7.4 2.8 11.5v13.1H595.9V317h4c.4 0 1.8-.8 4-2.4c.7-.6 1.8-1.4 3.2-2.6c0-2.4-.1-4.5-.3-6.2c-.2-1.6-.5-3.4-.9-5.2c-.1-.5-.6-2.6-1.6-6.5l-1.7-1.1c.4-2 .8-3.5 1.1-4.5c.3-.9 .9-2.3 1.7-4.2ZM657 282l6.9 3.7l-3.5 6.7l-7-3.7Z" class="g0_61"/>
<path d="M619.7 311.1c-1.3 0-2.8 .4-4.4 1.3c-1.7 .8-4.1 2.4-7.2 4.6h7.8c6.6 0 9.9-1 9.9-3c0-.7-.8-1.4-2.2-2c-1.5-.6-2.8-.9-3.9-.9Zm20.9-3.8c-.4 0-.8 .2-1 .4c-.3 .3-.5 .6-.5 1c0 .8 .7 1.6 1.9 2.4c1.3 .8 2.8 1.4 4.6 1.7c-.7-1.7-1.5-3.1-2.4-4c-.8-1-1.7-1.5-2.6-1.5Zm18.5-4.7c-.6 0-1.2 .2-1.7 .8c-.4 .5-.7 1.1-.7 1.8c0 .5 .2 .9 .6 1.2c.3 .3 .8 .5 1.4 .5c.5 0 .9-.2 1.4-.4c.4-.3 1-.8 1.7-1.4c-.5-1-1-1.6-1.4-2c-.4-.3-.9-.5-1.3-.5Zm-18.7-16.4l5.6 3.1l-3.1 5.8l-4.4-2.3l-2.5 4.9l-5.5-3.1l3.3-6L638 291Zm-35-1.9l1.4 .5c0 .1 0 .4-.1 .8c0 .7 1 1.5 3 2.4c.6 .4 1.6 .8 2.9 1.3c-.2 1.5-.5 3-1 4.3c-.2 .7-.6 1.8-1.1 3.2l-1.1-.4c.6 2.8 1 4.9 1.2 6.3c.2 1.3 .3 2.5 .3 3.6v.3c0 .6 0 1 0 1.4c0 .3-.1 .8-.3 1.5c1.1-.8 2.1-1.5 3.2-2.3c1.6-1.1 3-2 4.3-2.7c1.7-.9 2.9-1.4 3.8-1.4c2.4 0 4.2 .6 5.6 1.8c1.6 1.4 2.4 3.4 2.4 6V317h3.2c1 0 1.8 .1 2.6 .2c2.2 .2 4.7 .5 7.5 .7c-2.9-.6-5-1.5-6.2-2.6c-1.2-1-1.8-2.6-1.8-4.7c0-3.1 .7-5.8 2.2-8.3c1.4-2.5 3-3.7 4.8-3.7c2 0 3.7 1.7 5.2 5.2c1.5 3.5 2.3 7.6 2.3 12.5v.7h15.8c0-1.7-.1-2.9-.2-3.7c-.1-1.1-.5-2.1-1-2.9c-.6 1.2-1.5 2.2-2.5 2.8c-1.1 .7-2.2 1-3.4 1c-1.7 0-3-.5-4.1-1.6c-1.1-1-1.6-2.4-1.6-3.9c0-2.4 .7-5.2 2.1-8.4c1.6-3.5 3.2-5.3 4.8-5.3c2.1 0 4.1 1.8 5.9 5.5c1.8 3.6 2.8 7.4 2.8 11.5v13.1H595.9V317h4c.4 0 1.8-.8 4-2.4c.7-.6 1.8-1.4 3.2-2.6c0-2.4-.1-4.5-.3-6.2c-.2-1.6-.5-3.4-.9-5.2c-.1-.5-.6-2.6-1.6-6.5l-1.7-1.1c.4-2 .8-3.5 1.1-4.5c.3-.9 .9-2.3 1.7-4.2ZM657 282l6.9 3.7l-3.5 6.7l-7-3.7Z" class="g1_61"/>
<path fill-rule="evenodd" d="M232.1 325.6c.3 1.8 1.2 3.3 2.7 4.6c1.5 1.3 3.2 1.9 4.9 1.9c.6 0 .9-.2 .9-.6c0-1.1-.6-2.2-1.9-3.2c-1.5-1.2-3.7-2.1-6.6-2.7Zm288.4-13.4c-.7 0-1.1 .3-1.5 .8c-.4 .4-.6 1-.6 1.6c0 .7 .4 1.3 1.2 1.7c.8 .5 1.8 .7 3.1 .7h1.1c-.5-3.2-1.6-4.8-3.3-4.8Zm-282.9-3.7c-.5 0-1.1 .5-1.8 1.7c-.7 1.1-1.5 2.8-2.5 5.2c2.3-.8 3.9-1.4 4.8-2c.8-.6 1.3-1.2 1.3-1.9c0-.5-.2-1.1-.6-1.9c-.4-.7-.8-1.1-1.2-1.1Zm258.9-2.6c1.3 2.5 2.2 4.3 2.5 5.2c.6 1.8 .9 3.9 .9 6.6v6c0 2.7-.3 4.9-.8 6.6c-.5 1.6-1.4 3-2.6 4c-1.3 1-3 1.8-5.4 2.5c-2.3 .6-4.8 .9-7.3 .9c-4.8 0-8.5-.8-11.2-2.6c-2.6-1.8-3.9-4.2-3.9-7.5c0-2.7 .4-5.3 1.3-7.6c.9-2.5 2.7-5.8 5.4-9.8l1.7 1.3c-1.9 3.3-3.2 5.7-3.8 7.3c-.6 1.5-.9 3-.9 4.6c0 2.1 1.1 3.8 3.3 5.1c2.3 1.4 5.2 2 8.8 2c3.6 0 6.6-.7 9.1-2c2.4-1.4 3.6-3.1 3.6-5.1c0-1.2-.2-2.4-.6-3.6c-.4-1.2-1.4-3.2-2.8-5.8Zm-122.8-.2c1.4 1.4 2.4 3 3.2 4.8c.7 1.8 1.1 3.9 1.1 6.2v9.1c0 1.2-.7 2.8-2.1 4.8c-1.4 2-3 3.8-4.9 5.2c-2.1 1.7-3.8 2.5-5.3 2.5c-1.8 0-3.6-.5-5.6-1.5c-1.8-.9-4.5-2.6-8.2-5.1l1.2-1.9c1.8 1.2 3.3 2 4.3 2.4c1.1 .4 2.3 .7 3.6 .7c1.4 0 2.7-.4 4.1-1.2c1.4-.8 3.2-2.2 5.6-4.3c3.3-3 5-5.2 5-6.8c0-.8-.4-1.9-1-3.2c-.7-1.4-1.6-2.6-2.6-3.6Zm-64-1c-.6 .3-1.1 .5-1.5 .7c-1.1 .6-1.9 1.1-2.6 1.6c-.5 .4-.9 .8-1.2 1.1c-.4 .5-.6 .8-.6 1c0 .3 .4 .5 1.1 .7c.7 .1 1.3 .2 2 .2c.4 0 .9-.1 1.4-.4c.5-.2 1.1-.7 2-1.3ZM427 302.6c-.6 0-1.2 .2-1.7 .8c-.4 .5-.7 1.1-.7 1.8c0 .5 .2 .9 .6 1.2c.3 .3 .8 .5 1.4 .5c.5 0 .9-.2 1.4-.4c.5-.3 1-.8 1.7-1.4c-.5-1-1-1.6-1.4-2c-.4-.3-.9-.5-1.3-.5Zm56.2-6.1l6.9 3.7l-3.6 6.7l-6.9-3.7ZM427.5 295c2.1 0 4.1 1.8 5.9 5.5c1.8 3.6 2.8 7.4 2.8 11.5v13.1H417.6v.7c0 1.2-.7 2.8-2.1 4.8c-1.4 2-3 3.8-4.9 5.2c-2.1 1.7-3.8 2.5-5.3 2.5c-1.8 0-3.6-.5-5.6-1.5c-1.8-.9-4.5-2.6-8.2-5.1l1.2-1.9c1.8 1.2 3.3 2 4.3 2.4c1.1 .4 2.3 .7 3.6 .7c1.4 0 2.7-.4 4.1-1.2c1.4-.8 3.2-2.2 5.6-4.3c3.3-3 4.9-5.2 4.9-6.8c0-.8-.3-1.9-.9-3.2c-.7-1.4-1.6-2.6-2.6-3.6l1.6-8.1c1.4 1.4 2.4 3 3.2 4.8c.7 1.8 1.1 3.9 1.1 6.2v.3h15.8c0-1.7-.1-2.9-.2-3.7c-.1-1.1-.5-2.1-1-2.9c-.6 1.2-1.5 2.2-2.5 2.8c-1.1 .7-2.2 1-3.4 1c-1.7 0-3-.5-4.1-1.6c-1.1-1-1.6-2.4-1.6-3.9c0-2.4 .7-5.2 2.1-8.4c1.6-3.5 3.2-5.3 4.8-5.3Zm-58-3.4l7 3.7l-3.6 6.7l-7-3.7Zm-58.1-.1l2.8 18.6c.5 2.9 1.1 4.9 1.8 5.9c.5 .7 1.2 1 2 1h17.5c-.3-1.3-.7-2.5-1.2-3.4c-.3-.5-1-1.4-2.1-2.7l2.4-7.1c1.5 1.7 2.5 3.5 3 5.3c.6 1.9 .8 4.6 .8 8.3v7.7H318c-.7 0-1.4-.1-2-.4c-1.1-.6-2.1-1.6-2.9-3.2c-1.1-2.1-1.8-5-2.1-8.6c-1.3 1.7-2.4 2.8-3.1 3.5c-1.1 1-2 1.5-2.8 1.5c-.4 0-.8 0-1.4-.1l-3.6-.7c-1.6-.4-2.6-.6-2.9-.7c-.4-.2-.5-.4-.5-.8c0-.5 .7-2.2 2-5.1c1.4-2.8 2.4-4.6 3-5.3c.5-.5 1.4-1.2 2.7-2c.7-.5 1.8-1.2 3.2-2l1.6-1c-.1-.2-.1-.5-.2-.8c0-.3 0-.6 0-.8c0-.8 .2-1.7 .5-2.9c.4-1.1 1-2.5 1.9-4.2Zm248.5-1.3l5.6 3.1l-3.1 5.7l-4.4-2.2l-2.5 4.9l-5.5-3.1l3.3-6l4.2 2.3Zm-227.5 0l5.6 3.1l-3.1 5.7l-4.4-2.2l-2.5 4.9l-5.5-3.1l3.3-6l4.2 2.3Zm111.3-1.3l1.7 10.6c.7 4 1.2 7.5 1.4 10.4c.2 2.3 .3 4.5 .3 6.6c0 1.7-.2 3.3-.6 4.8c-.4 1.5-1.2 3.4-2.4 5.9l-1.8-.7c.5-2.6 .7-4.6 .7-6.2c0-1.2-.1-3-.3-5.4c-.2-2.3-.4-4.6-.7-6.9c-.3-2.3-.8-5.1-1.5-8.2c-.2-1.1-.4-1.9-.4-2.3c0-.6 .3-1.7 1-3.2c.6-1.5 1.4-3.2 2.6-5.4Zm-58.2 0l1.8 10.6c.7 4 1.1 7.5 1.4 10.4c.2 2.3 .3 4.5 .3 6.6c0 1.7-.2 3.3-.6 4.8c-.5 1.5-1.2 3.4-2.4 5.9l-1.8-.7c.4-2.6 .7-4.6 .7-6.2c0-1.2-.1-3-.3-5.4c-.2-2.3-.5-4.6-.8-6.9c-.3-2.3-.7-5.1-1.4-8.2c-.3-1.1-.4-1.9-.4-2.3c0-.6 .3-1.7 1-3.2c.6-1.5 1.4-3.2 2.5-5.4Zm-39.6 0l1.8 10.6c.7 4 1.1 7.5 1.4 10.4c.2 2.3 .3 4.5 .3 6.6c0 1.7-.2 3.3-.6 4.8c-.5 1.5-1.2 3.4-2.4 5.9l-1.8-.7c.4-2.6 .7-4.6 .7-6.2c0-1.2-.1-3-.3-5.4c-.2-2.3-.5-4.6-.8-6.9c-.3-2.3-.7-5.1-1.4-8.2c-.3-1.1-.4-1.9-.4-2.3c0-.6 .3-1.7 1-3.2c.6-1.5 1.4-3.2 2.5-5.4Zm-72.6 0l1.8 10.6c.7 4 1.1 7.5 1.4 10.4c.2 2.3 .3 4.5 .3 6.6c0 1.7-.2 3.3-.6 4.8c-.5 1.5-1.2 3.4-2.4 5.9l-1.8-.7c.4-2.6 .7-4.6 .7-6.2c0-1.2-.1-3-.3-5.4c-.2-2.3-.5-4.6-.8-6.9c-.3-2.3-.7-5.1-1.4-8.2c-.3-1.1-.4-1.9-.4-2.3c0-.6 .3-1.7 1-3.2c.6-1.5 1.4-3.2 2.5-5.4ZM574 286.6l1.3 .7c0 .1 0 .4-.1 1c0 .6 .4 1.3 1.3 1.9c.7 .5 1.9 1.1 3.5 1.8c-.2 1.3-.5 2.5-.8 3.7c-.4 1.3-.8 2.3-1.2 3.3l-1-.4l3.2 18.4v8.1h-53v.5c-.6 2.6-2 5.1-4.1 7.6c-2.9 3.4-5.8 5-8.6 5c-1.7 0-3.5-.5-5.4-1.6c-2-1-5-3.1-9-6.2l1.2-1.7c2.2 1.4 3.9 2.4 5.3 2.8c1.1 .4 2.4 .6 3.8 .6c2 0 3.9-.5 5.8-1.6c2.2-1.2 4.5-3.3 6.9-6.1c-.9 .1-1.5 .2-2.1 .2c-2 0-3.5-.7-4.7-1.9c-1.2-1.3-1.7-3.1-1.7-5.3c0-3 .6-5.8 2-8.6c1.5-3 3.2-4.5 5.1-4.5c1.6 0 2.9 1.1 4.1 3.2c1.1 2.2 1.6 4.8 1.6 7.9V317h17.2c-.7-.9-1.5-1.7-2.2-2.4c-.6-.6-1.4-1.3-2.4-2c-1.2-.9-2.3-1.8-3.4-2.7l-1 1.1c-1.7-1.7-2.8-2.8-3.1-3.2c-1-1.1-1.5-2.4-1.5-3.9c0-2 .1-3.4 .4-4.2c.4-1.2 1.2-2.2 2.5-3.1c1.2-.8 2.4-1.5 3.7-2.2c1.1-.5 2.4-1.1 4.2-1.8c.7-.3 2.4-1 5-2v7.1c-.1 0-.9 .3-2.5 .8c-2 .7-3.5 1.2-4.7 1.7c-1.6 .7-2.5 1.2-2.5 1.5c0 .2 .7 1 2.1 2.3c2 1.9 3.6 3.6 4.9 5.2c2.2 2.5 3.9 5.1 5.3 7.6v.2H563c-.2-1.3-.6-2.5-1.2-3.4c-.3-.5-1-1.4-2.1-2.7l2.4-7.1c1.5 1.7 2.5 3.5 3 5.3c.5 1.6 .8 3.9 .9 6.9v1h10.6L573 296.8l-1.9-1.3c0-1.1 .2-2.3 .5-3.5c.5-1.5 1.3-3.3 2.4-5.4Zm-314.5 0l1.4 .7c0 .1 0 .4-.1 1c0 .6 .4 1.3 1.2 1.9c.8 .5 2 1.1 3.6 1.8c-.2 1.3-.5 2.5-.8 3.7c-.4 1.3-.8 2.3-1.2 3.3l-1.1-.4l3.3 18.4v8.1H245.4c-.4 0-.9 0-1.4 .1c-.4 0-1.2 0-2.1 .1c.7 .4 1.4 .8 2.2 1.2c.6 .5 1 1.2 1 2c0 .8-.1 1.6-.4 2.5c-.1 .5-.4 1.4-.8 2.6c-.9 2.5-1.6 4.2-2.3 5.1c-.8 .9-1.7 1.3-2.8 1.3c-2.7 0-5.1-1.4-7.1-4.4c-2-2.9-3-6.4-3-10.5h-6.8V317h2.7c1 0 2.1-.1 3.2-.3c1.3-.3 2.2-.4 2.7-.5c2.2-6 4.1-10.3 5.8-13c1.5-2.3 2.9-3.5 4.1-3.5c1 0 1.9 1 2.6 3c.7 1.7 1 3.4 1 5.1c0 2.3-.5 4.2-1.4 5.9c-1 1.7-2.4 3.1-4.4 3.9c1.4-.2 2.7-.4 3.9-.5c1.2 0 2.3-.1 3.3-.1h16.8l-3.6-20.2l-1.9-1.3c0-1.1 .2-2.3 .5-3.5c.5-1.5 1.3-3.3 2.3-5.4ZM424.9 282l6.9 3.7l-3.5 6.7l-7-3.7Z" class="g0_61"/>
<path d="M232.1 325.6c.3 1.8 1.2 3.3 2.7 4.6c1.5 1.3 3.2 1.9 4.9 1.9c.6 0 .9-.2 .9-.6c0-1.1-.6-2.2-1.9-3.2c-1.5-1.2-3.7-2.1-6.6-2.7Zm288.4-13.4c-.7 0-1.1 .3-1.5 .8c-.4 .4-.6 1-.6 1.6c0 .7 .4 1.3 1.2 1.7c.8 .5 1.8 .7 3.1 .7h1.1c-.5-3.2-1.6-4.8-3.3-4.8Zm-282.9-3.7c-.5 0-1.1 .5-1.8 1.7c-.7 1.1-1.5 2.8-2.5 5.2c2.3-.8 3.9-1.4 4.8-2c.8-.6 1.3-1.2 1.3-1.9c0-.5-.2-1.1-.6-1.9c-.4-.7-.8-1.1-1.2-1.1Zm258.9-2.6c1.3 2.5 2.2 4.3 2.5 5.2c.6 1.8 .9 3.9 .9 6.6v6c0 2.7-.3 4.9-.8 6.6c-.5 1.6-1.4 3-2.6 4c-1.3 1-3 1.8-5.4 2.5c-2.3 .6-4.8 .9-7.3 .9c-4.8 0-8.5-.8-11.2-2.6c-2.6-1.8-3.9-4.2-3.9-7.5c0-2.7 .4-5.3 1.3-7.6c.9-2.5 2.7-5.8 5.4-9.8l1.7 1.3c-1.9 3.3-3.2 5.7-3.8 7.3c-.6 1.5-.9 3-.9 4.6c0 2.1 1.1 3.8 3.3 5.1c2.3 1.4 5.2 2 8.8 2c3.6 0 6.6-.7 9.1-2c2.4-1.4 3.6-3.1 3.6-5.1c0-1.2-.2-2.4-.6-3.6c-.4-1.2-1.4-3.2-2.8-5.8Zm-122.8-.2c1.4 1.4 2.4 3 3.2 4.8c.7 1.8 1.1 3.9 1.1 6.2v9.1c0 1.2-.7 2.8-2.1 4.8c-1.4 2-3 3.8-4.9 5.2c-2.1 1.7-3.8 2.5-5.3 2.5c-1.8 0-3.6-.5-5.6-1.5c-1.8-.9-4.5-2.6-8.2-5.1l1.2-1.9c1.8 1.2 3.3 2 4.3 2.4c1.1 .4 2.3 .7 3.6 .7c1.4 0 2.7-.4 4.1-1.2c1.4-.8 3.2-2.2 5.6-4.3c3.3-3 5-5.2 5-6.8c0-.8-.4-1.9-1-3.2c-.7-1.4-1.6-2.6-2.6-3.6Zm-64-1c-.6 .3-1.1 .5-1.5 .7c-1.1 .6-1.9 1.1-2.6 1.6c-.5 .4-.9 .8-1.2 1.1c-.4 .5-.6 .8-.6 1c0 .3 .4 .5 1.1 .7c.7 .1 1.3 .2 2 .2c.4 0 .9-.1 1.4-.4c.5-.2 1.1-.7 2-1.3ZM427 302.6c-.6 0-1.2 .2-1.7 .8c-.4 .5-.7 1.1-.7 1.8c0 .5 .2 .9 .6 1.2c.3 .3 .8 .5 1.4 .5c.5 0 .9-.2 1.4-.4c.5-.3 1-.8 1.7-1.4c-.5-1-1-1.6-1.4-2c-.4-.3-.9-.5-1.3-.5Zm56.2-6.1l6.9 3.7l-3.6 6.7l-6.9-3.7ZM427.5 295c2.1 0 4.1 1.8 5.9 5.5c1.8 3.6 2.8 7.4 2.8 11.5v13.1H417.6v.7c0 1.2-.7 2.8-2.1 4.8c-1.4 2-3 3.8-4.9 5.2c-2.1 1.7-3.8 2.5-5.3 2.5c-1.8 0-3.6-.5-5.6-1.5c-1.8-.9-4.5-2.6-8.2-5.1l1.2-1.9c1.8 1.2 3.3 2 4.3 2.4c1.1 .4 2.3 .7 3.6 .7c1.4 0 2.7-.4 4.1-1.2c1.4-.8 3.2-2.2 5.6-4.3c3.3-3 4.9-5.2 4.9-6.8c0-.8-.3-1.9-.9-3.2c-.7-1.4-1.6-2.6-2.6-3.6l1.6-8.1c1.4 1.4 2.4 3 3.2 4.8c.7 1.8 1.1 3.9 1.1 6.2v.3h15.8c0-1.7-.1-2.9-.2-3.7c-.1-1.1-.5-2.1-1-2.9c-.6 1.2-1.5 2.2-2.5 2.8c-1.1 .7-2.2 1-3.4 1c-1.7 0-3-.5-4.1-1.6c-1.1-1-1.6-2.4-1.6-3.9c0-2.4 .7-5.2 2.1-8.4c1.6-3.5 3.2-5.3 4.8-5.3Zm-58-3.4l7 3.7l-3.6 6.7l-7-3.7Zm-58.1-.1l2.8 18.6c.5 2.9 1.1 4.9 1.8 5.9c.5 .7 1.2 1 2 1h17.5c-.3-1.3-.7-2.5-1.2-3.4c-.3-.5-1-1.4-2.1-2.7l2.4-7.1c1.5 1.7 2.5 3.5 3 5.3c.6 1.9 .8 4.6 .8 8.3v7.7H318c-.7 0-1.4-.1-2-.4c-1.1-.6-2.1-1.6-2.9-3.2c-1.1-2.1-1.8-5-2.1-8.6c-1.3 1.7-2.4 2.8-3.1 3.5c-1.1 1-2 1.5-2.8 1.5c-.4 0-.8 0-1.4-.1l-3.6-.7c-1.6-.4-2.6-.6-2.9-.7c-.4-.2-.5-.4-.5-.8c0-.5 .7-2.2 2-5.1c1.4-2.8 2.4-4.6 3-5.3c.5-.5 1.4-1.2 2.7-2c.7-.5 1.8-1.2 3.2-2l1.6-1c-.1-.2-.1-.5-.2-.8c0-.3 0-.6 0-.8c0-.8 .2-1.7 .5-2.9c.4-1.1 1-2.5 1.9-4.2Zm248.5-1.3l5.6 3.1l-3.1 5.7l-4.4-2.2l-2.5 4.9l-5.5-3.1l3.3-6l4.2 2.3Zm-227.5 0l5.6 3.1l-3.1 5.7l-4.4-2.2l-2.5 4.9l-5.5-3.1l3.3-6l4.2 2.3Zm111.3-1.3l1.7 10.6c.7 4 1.2 7.5 1.4 10.4c.2 2.3 .3 4.5 .3 6.6c0 1.7-.2 3.3-.6 4.8c-.4 1.5-1.2 3.4-2.4 5.9l-1.8-.7c.5-2.6 .7-4.6 .7-6.2c0-1.2-.1-3-.3-5.4c-.2-2.3-.4-4.6-.7-6.9c-.3-2.3-.8-5.1-1.5-8.2c-.2-1.1-.4-1.9-.4-2.3c0-.6 .3-1.7 1-3.2c.6-1.5 1.4-3.2 2.6-5.4Zm-58.2 0l1.8 10.6c.7 4 1.1 7.5 1.4 10.4c.2 2.3 .3 4.5 .3 6.6c0 1.7-.2 3.3-.6 4.8c-.5 1.5-1.2 3.4-2.4 5.9l-1.8-.7c.4-2.6 .7-4.6 .7-6.2c0-1.2-.1-3-.3-5.4c-.2-2.3-.5-4.6-.8-6.9c-.3-2.3-.7-5.1-1.4-8.2c-.3-1.1-.4-1.9-.4-2.3c0-.6 .3-1.7 1-3.2c.6-1.5 1.4-3.2 2.5-5.4Zm-39.6 0l1.8 10.6c.7 4 1.1 7.5 1.4 10.4c.2 2.3 .3 4.5 .3 6.6c0 1.7-.2 3.3-.6 4.8c-.5 1.5-1.2 3.4-2.4 5.9l-1.8-.7c.4-2.6 .7-4.6 .7-6.2c0-1.2-.1-3-.3-5.4c-.2-2.3-.5-4.6-.8-6.9c-.3-2.3-.7-5.1-1.4-8.2c-.3-1.1-.4-1.9-.4-2.3c0-.6 .3-1.7 1-3.2c.6-1.5 1.4-3.2 2.5-5.4Zm-72.6 0l1.8 10.6c.7 4 1.1 7.5 1.4 10.4c.2 2.3 .3 4.5 .3 6.6c0 1.7-.2 3.3-.6 4.8c-.5 1.5-1.2 3.4-2.4 5.9l-1.8-.7c.4-2.6 .7-4.6 .7-6.2c0-1.2-.1-3-.3-5.4c-.2-2.3-.5-4.6-.8-6.9c-.3-2.3-.7-5.1-1.4-8.2c-.3-1.1-.4-1.9-.4-2.3c0-.6 .3-1.7 1-3.2c.6-1.5 1.4-3.2 2.5-5.4ZM574 286.6l1.3 .7c0 .1 0 .4-.1 1c0 .6 .4 1.3 1.3 1.9c.7 .5 1.9 1.1 3.5 1.8c-.2 1.3-.5 2.5-.8 3.7c-.4 1.3-.8 2.3-1.2 3.3l-1-.4l3.2 18.4v8.1h-53v.5c-.6 2.6-2 5.1-4.1 7.6c-2.9 3.4-5.8 5-8.6 5c-1.7 0-3.5-.5-5.4-1.6c-2-1-5-3.1-9-6.2l1.2-1.7c2.2 1.4 3.9 2.4 5.3 2.8c1.1 .4 2.4 .6 3.8 .6c2 0 3.9-.5 5.8-1.6c2.2-1.2 4.5-3.3 6.9-6.1c-.9 .1-1.5 .2-2.1 .2c-2 0-3.5-.7-4.7-1.9c-1.2-1.3-1.7-3.1-1.7-5.3c0-3 .6-5.8 2-8.6c1.5-3 3.2-4.5 5.1-4.5c1.6 0 2.9 1.1 4.1 3.2c1.1 2.2 1.6 4.8 1.6 7.9V317h17.2c-.7-.9-1.5-1.7-2.2-2.4c-.6-.6-1.4-1.3-2.4-2c-1.2-.9-2.3-1.8-3.4-2.7l-1 1.1c-1.7-1.7-2.8-2.8-3.1-3.2c-1-1.1-1.5-2.4-1.5-3.9c0-2 .1-3.4 .4-4.2c.4-1.2 1.2-2.2 2.5-3.1c1.2-.8 2.4-1.5 3.7-2.2c1.1-.5 2.4-1.1 4.2-1.8c.7-.3 2.4-1 5-2v7.1c-.1 0-.9 .3-2.5 .8c-2 .7-3.5 1.2-4.7 1.7c-1.6 .7-2.5 1.2-2.5 1.5c0 .2 .7 1 2.1 2.3c2 1.9 3.6 3.6 4.9 5.2c2.2 2.5 3.9 5.1 5.3 7.6v.2H563c-.2-1.3-.6-2.5-1.2-3.4c-.3-.5-1-1.4-2.1-2.7l2.4-7.1c1.5 1.7 2.5 3.5 3 5.3c.5 1.6 .8 3.9 .9 6.9v1h10.6L573 296.8l-1.9-1.3c0-1.1 .2-2.3 .5-3.5c.5-1.5 1.3-3.3 2.4-5.4Zm-314.5 0l1.4 .7c0 .1 0 .4-.1 1c0 .6 .4 1.3 1.2 1.9c.8 .5 2 1.1 3.6 1.8c-.2 1.3-.5 2.5-.8 3.7c-.4 1.3-.8 2.3-1.2 3.3l-1.1-.4l3.3 18.4v8.1H245.4c-.4 0-.9 0-1.4 .1c-.4 0-1.2 0-2.1 .1c.7 .4 1.4 .8 2.2 1.2c.6 .5 1 1.2 1 2c0 .8-.1 1.6-.4 2.5c-.1 .5-.4 1.4-.8 2.6c-.9 2.5-1.6 4.2-2.3 5.1c-.8 .9-1.7 1.3-2.8 1.3c-2.7 0-5.1-1.4-7.1-4.4c-2-2.9-3-6.4-3-10.5h-6.8V317h2.7c1 0 2.1-.1 3.2-.3c1.3-.3 2.2-.4 2.7-.5c2.2-6 4.1-10.3 5.8-13c1.5-2.3 2.9-3.5 4.1-3.5c1 0 1.9 1 2.6 3c.7 1.7 1 3.4 1 5.1c0 2.3-.5 4.2-1.4 5.9c-1 1.7-2.4 3.1-4.4 3.9c1.4-.2 2.7-.4 3.9-.5c1.2 0 2.3-.1 3.3-.1h16.8l-3.6-20.2l-1.9-1.3c0-1.1 .2-2.3 .5-3.5c.5-1.5 1.3-3.3 2.3-5.4ZM424.9 282l6.9 3.7l-3.5 6.7l-7-3.7Z" class="g1_61"/>
<path fill-rule="evenodd" d="M122.3 327.3l5.6 3.1l-3.1 5.8l-4.4-2.2l-2.6 4.8l-5.4-3.1l3.3-6l4.2 2.3Zm-72.1-9.2c1 0 1.9 .4 2.6 1.1c.7 .7 1 1.6 1 2.6c0 1-.3 1.9-1 2.6c-.8 .8-1.7 1.1-2.7 1.1c-1 0-1.8-.3-2.5-1.1c-.7-.7-1.1-1.6-1.1-2.6c0-1 .4-1.9 1.1-2.6c.7-.7 1.6-1.1 2.6-1.1Zm115.1-5.9c-.6 0-1.1 .3-1.4 .8c-.4 .4-.6 1-.6 1.6c0 .7 .4 1.3 1.2 1.7c.8 .5 1.8 .7 3.1 .7h1.1c-.5-3.2-1.7-4.8-3.4-4.8Zm23-.2c-.8 0-1.5 .9-2 2.7c1 .4 1.8 .7 2.4 .9c1.6 .6 2.5 .9 2.7 .9c.4 0 .6-.1 .6-.4c0-.4-.4-1.2-1.3-2.3c-.9-1.2-1.7-1.8-2.4-1.8Zm31.4-6.3c1.4 1.4 2.4 3 3.2 4.8c.7 1.8 1.1 3.9 1.1 6.2v9.1c0 1.2-.7 2.8-2.1 4.8c-1.4 2-3 3.8-4.9 5.2c-2.1 1.7-3.8 2.5-5.3 2.5c-1.8 0-3.6-.5-5.6-1.5c-1.8-.9-4.5-2.6-8.2-5.1l1.2-1.9c1.8 1.2 3.3 2 4.3 2.4c1.1 .4 2.3 .7 3.6 .7c1.4 0 2.7-.4 4.1-1.2c1.4-.8 3.2-2.2 5.6-4.3c3.3-3 5-5.2 5-6.8c0-.8-.4-1.9-1-3.2c-.7-1.4-1.6-2.6-2.6-3.6Zm-127.8-1c-.6 .3-1.1 .5-1.5 .7c-1.1 .6-1.9 1.1-2.6 1.6c-.5 .4-.9 .8-1.2 1.1c-.4 .5-.6 .8-.6 1c0 .3 .4 .5 1.1 .7c.7 .1 1.3 .2 2 .2c.4 0 .9-.1 1.4-.4c.5-.2 1.1-.7 2-1.3Zm74.7-.4c1.6 0 2.9 1.1 4 3.2c1.2 2.2 1.7 4.8 1.7 7.9V317h3.8c1.8 0 3.2-.2 4.2-.6c1.4-.6 2.3-1.6 2.8-2.9c1.2-2.6 2.6-4.6 4.4-6.2c1.6-1.5 2.9-2.2 4-2.2c1 0 2.3 1.5 3.8 4.6c1.5 3.2 2.3 6.2 2.3 8.9v6.5c-2.1 0-4.5-.4-7.4-1.2c-2.4-.7-4.6-1.6-6.5-2.5c-1.2 1.7-2.6 2.8-4.3 3.3c-.8 .3-1.9 .4-3.3 .4h-4l-.1 .5c-.5 2.6-1.9 5.1-4 7.6c-2.9 3.4-5.8 5-8.6 5c-1.7 0-3.5-.5-5.4-1.6c-2-1-5-3.1-9.1-6.2l1.3-1.7c2.1 1.4 3.9 2.4 5.3 2.8c1.1 .4 2.4 .6 3.8 .6c2 0 3.8-.5 5.7-1.6c2.3-1.2 4.6-3.3 7-6.1c-.9 .1-1.6 .2-2.1 .2c-2 0-3.6-.7-4.7-1.9c-1.2-1.3-1.8-3.1-1.8-5.3c0-3 .7-5.8 2.1-8.6c1.5-3 3.2-4.5 5.1-4.5Zm-73-12.8l2.8 18.6c.5 2.9 1.1 4.9 1.8 5.9c.5 .7 1.2 1 2 1h25.2c-.3-1.3-.7-2.5-1.2-3.4c-.3-.5-1-1.4-2.1-2.7l2.4-7.1c1.5 1.7 2.5 3.5 3 5.3c.5 1.6 .8 3.9 .8 6.9v1h13.6c-.3-1.3-.7-2.5-1.2-3.4c-.3-.5-1-1.4-2.1-2.7l2.4-7.1c1.5 1.7 2.5 3.5 3 5.3c.6 1.9 .8 4.6 .8 8.3v7.7H100.2c-.7 0-1.4-.1-2-.4c-1.1-.6-2.1-1.6-2.9-3.2c-1.1-2.1-1.8-5-2.1-8.6c-1.3 1.7-2.4 2.8-3.1 3.5c-1.1 1-2 1.5-2.8 1.5c-.4 0-.8 0-1.4-.1l-3.6-.7c-1.6-.4-2.5-.6-2.9-.7c-.4-.2-.5-.4-.5-.8c0-.5 .6-2.2 2-5.1c1.4-2.8 2.4-4.6 3-5.3c.5-.5 1.4-1.2 2.7-2c.7-.5 1.8-1.2 3.2-2l1.6-1c-.1-.2-.1-.5-.2-.8c0-.3 0-.6 0-.8c0-.8 .2-1.7 .5-2.9c.4-1.1 1-2.5 1.9-4.2Zm-42.9-1.1c2.4 0 4.4 .7 6.1 2.1c1.6 1.3 2.5 3.1 2.5 5.3c0 1.3-.4 2.3-1.1 3.3c-.8 1-1.9 1.6-3.1 1.6c-1 0-1.9-.4-2.5-1c-.7-.7-1-1.4-1-2.3c0-1.4 .5-2.4 1.6-3.1c1.1-.6 1.7-1.2 1.7-1.6c0-.7-.3-1.3-1-1.7c-.6-.4-1.4-.6-2.5-.6c-1.3 0-2.3 .4-3.2 1.1c-.8 .7-1.2 1.6-1.2 2.7c0 .9 .4 2.2 1.3 3.7c1.2 2.3 2 3.8 2.3 4.5c.8 2 1.2 4.3 1.2 6.7c0 1.3-.1 2.8-.3 4.4H49.7c0-.3 0-.6 .1-.8l.1-1.6c0-1.1-.7-2.3-2.2-3.6c-2.5-2.2-3.9-3.5-4.1-3.8c-1.5-1.7-2.3-3.7-2.3-5.9c0-2.7 .9-4.9 2.7-6.7c1.8-1.8 4-2.7 6.7-2.7Zm87.4-1.4l6.9 3.7l-3.6 6.7l-6.9-3.7Zm-46.2-8.4l5.3 2.7l-3.3 5.6l-4.2-2.4l-2.4 4.7l-5.5-3l3.1-5.3l4.4 2.2Z" class="g0_61"/>
<path d="M122.3 327.3l5.6 3.1l-3.1 5.8l-4.4-2.2l-2.6 4.8l-5.4-3.1l3.3-6l4.2 2.3Zm-72.1-9.2c1 0 1.9 .4 2.6 1.1c.7 .7 1 1.6 1 2.6c0 1-.3 1.9-1 2.6c-.8 .8-1.7 1.1-2.7 1.1c-1 0-1.8-.3-2.5-1.1c-.7-.7-1.1-1.6-1.1-2.6c0-1 .4-1.9 1.1-2.6c.7-.7 1.6-1.1 2.6-1.1Zm115.1-5.9c-.6 0-1.1 .3-1.4 .8c-.4 .4-.6 1-.6 1.6c0 .7 .4 1.3 1.2 1.7c.8 .5 1.8 .7 3.1 .7h1.1c-.5-3.2-1.7-4.8-3.4-4.8Zm23-.2c-.8 0-1.5 .9-2 2.7c1 .4 1.8 .7 2.4 .9c1.6 .6 2.5 .9 2.7 .9c.4 0 .6-.1 .6-.4c0-.4-.4-1.2-1.3-2.3c-.9-1.2-1.7-1.8-2.4-1.8Zm31.4-6.3c1.4 1.4 2.4 3 3.2 4.8c.7 1.8 1.1 3.9 1.1 6.2v9.1c0 1.2-.7 2.8-2.1 4.8c-1.4 2-3 3.8-4.9 5.2c-2.1 1.7-3.8 2.5-5.3 2.5c-1.8 0-3.6-.5-5.6-1.5c-1.8-.9-4.5-2.6-8.2-5.1l1.2-1.9c1.8 1.2 3.3 2 4.3 2.4c1.1 .4 2.3 .7 3.6 .7c1.4 0 2.7-.4 4.1-1.2c1.4-.8 3.2-2.2 5.6-4.3c3.3-3 5-5.2 5-6.8c0-.8-.4-1.9-1-3.2c-.7-1.4-1.6-2.6-2.6-3.6Zm-127.8-1c-.6 .3-1.1 .5-1.5 .7c-1.1 .6-1.9 1.1-2.6 1.6c-.5 .4-.9 .8-1.2 1.1c-.4 .5-.6 .8-.6 1c0 .3 .4 .5 1.1 .7c.7 .1 1.3 .2 2 .2c.4 0 .9-.1 1.4-.4c.5-.2 1.1-.7 2-1.3Zm74.7-.4c1.6 0 2.9 1.1 4 3.2c1.2 2.2 1.7 4.8 1.7 7.9V317h3.8c1.8 0 3.2-.2 4.2-.6c1.4-.6 2.3-1.6 2.8-2.9c1.2-2.6 2.6-4.6 4.4-6.2c1.6-1.5 2.9-2.2 4-2.2c1 0 2.3 1.5 3.8 4.6c1.5 3.2 2.3 6.2 2.3 8.9v6.5c-2.1 0-4.5-.4-7.4-1.2c-2.4-.7-4.6-1.6-6.5-2.5c-1.2 1.7-2.6 2.8-4.3 3.3c-.8 .3-1.9 .4-3.3 .4h-4l-.1 .5c-.5 2.6-1.9 5.1-4 7.6c-2.9 3.4-5.8 5-8.6 5c-1.7 0-3.5-.5-5.4-1.6c-2-1-5-3.1-9.1-6.2l1.3-1.7c2.1 1.4 3.9 2.4 5.3 2.8c1.1 .4 2.4 .6 3.8 .6c2 0 3.8-.5 5.7-1.6c2.3-1.2 4.6-3.3 7-6.1c-.9 .1-1.6 .2-2.1 .2c-2 0-3.6-.7-4.7-1.9c-1.2-1.3-1.8-3.1-1.8-5.3c0-3 .7-5.8 2.1-8.6c1.5-3 3.2-4.5 5.1-4.5Zm-73-12.8l2.8 18.6c.5 2.9 1.1 4.9 1.8 5.9c.5 .7 1.2 1 2 1h25.2c-.3-1.3-.7-2.5-1.2-3.4c-.3-.5-1-1.4-2.1-2.7l2.4-7.1c1.5 1.7 2.5 3.5 3 5.3c.5 1.6 .8 3.9 .8 6.9v1h13.6c-.3-1.3-.7-2.5-1.2-3.4c-.3-.5-1-1.4-2.1-2.7l2.4-7.1c1.5 1.7 2.5 3.5 3 5.3c.6 1.9 .8 4.6 .8 8.3v7.7H100.2c-.7 0-1.4-.1-2-.4c-1.1-.6-2.1-1.6-2.9-3.2c-1.1-2.1-1.8-5-2.1-8.6c-1.3 1.7-2.4 2.8-3.1 3.5c-1.1 1-2 1.5-2.8 1.5c-.4 0-.8 0-1.4-.1l-3.6-.7c-1.6-.4-2.5-.6-2.9-.7c-.4-.2-.5-.4-.5-.8c0-.5 .6-2.2 2-5.1c1.4-2.8 2.4-4.6 3-5.3c.5-.5 1.4-1.2 2.7-2c.7-.5 1.8-1.2 3.2-2l1.6-1c-.1-.2-.1-.5-.2-.8c0-.3 0-.6 0-.8c0-.8 .2-1.7 .5-2.9c.4-1.1 1-2.5 1.9-4.2Zm-42.9-1.1c2.4 0 4.4 .7 6.1 2.1c1.6 1.3 2.5 3.1 2.5 5.3c0 1.3-.4 2.3-1.1 3.3c-.8 1-1.9 1.6-3.1 1.6c-1 0-1.9-.4-2.5-1c-.7-.7-1-1.4-1-2.3c0-1.4 .5-2.4 1.6-3.1c1.1-.6 1.7-1.2 1.7-1.6c0-.7-.3-1.3-1-1.7c-.6-.4-1.4-.6-2.5-.6c-1.3 0-2.3 .4-3.2 1.1c-.8 .7-1.2 1.6-1.2 2.7c0 .9 .4 2.2 1.3 3.7c1.2 2.3 2 3.8 2.3 4.5c.8 2 1.2 4.3 1.2 6.7c0 1.3-.1 2.8-.3 4.4H49.7c0-.3 0-.6 .1-.8l.1-1.6c0-1.1-.7-2.3-2.2-3.6c-2.5-2.2-3.9-3.5-4.1-3.8c-1.5-1.7-2.3-3.7-2.3-5.9c0-2.7 .9-4.9 2.7-6.7c1.8-1.8 4-2.7 6.7-2.7Zm87.4-1.4l6.9 3.7l-3.6 6.7l-6.9-3.7Zm-46.2-8.4l5.3 2.7l-3.3 5.6l-4.2-2.4l-2.4 4.7l-5.5-3l3.1-5.3l4.4 2.2Z" class="g1_61"/>
<image clip-path="url(#c1_61)" preserveAspectRatio="none" x="1323" y="442" width="107" height="72" href="img/2.jpg"/>
<image clip-path="url(#c2_61)" preserveAspectRatio="none" x="441" y="422" width="102" height="71" href="img/3.jpg"/>
<image clip-path="url(#c3_61)" preserveAspectRatio="none" x="1328" y="608" width="102" height="74" href="img/4.jpg"/>
<image clip-path="url(#c4_61)" preserveAspectRatio="none" x="444" y="619" width="95" height="80" href="img/5.jpg"/>
<image clip-path="url(#c5_61)" preserveAspectRatio="none" x="1141" y="608" width="141" height="163" href="img/6.jpg"/>
<image clip-path="url(#c6_61)" preserveAspectRatio="none" x="212" y="398" width="213" height="139" href="img/7.jpg"/>
<image clip-path="url(#c7_61)" preserveAspectRatio="none" x="243" y="613" width="167" height="164" href="img/8.jpg"/>
<image clip-path="url(#c8_61)" preserveAspectRatio="none" x="1098" y="422" width="214" height="149" href="img/9.jpg"/>
<path d="M159.3 633.5c0-19.3 15.6-34.9 34.9-34.9H504.5c19.2 0 34.9 15.6 34.9 34.9V773.1c0 19.2-15.7 34.9-34.9 34.9H194.2c-19.3 0-34.9-15.7-34.9-34.9Z" class="g2_61"/>
</svg>