<svg viewBox="0 0 1466 825" version="1.1" xmlns="http://www.w3.org/2000/svg">
<defs>
<clipPath id="c0_13"><path d="M-.2 825.3V-.2H1467V825.3Z"/></clipPath>
<clipPath id="c1_13"><path d="M1343.9 529.1V456.4H1452v72.7Z"/></clipPath>
<clipPath id="c2_13"><path d="M1346.3 621.3V549.7h102.9v71.6Z"/></clipPath>
<clipPath id="c3_13"><path d="M1346.4 716.6V641.9h103v74.7Z"/></clipPath>
<clipPath id="c4_13"><path d="M1353 825V744.6h96.2V825Z"/></clipPath>
<clipPath id="c5_13"><path d="M2.1 654.3V426.8H894.4V654.3Z"/></clipPath>
<style>
.g0_13{fill:#F00;}
.g1_13{fill:none;stroke:#000;stroke-width:1.466;stroke-linejoin:round;}
</style>
</defs>
<image clip-path="url(#c0_13)" preserveAspectRatio="none" x="0" y="-7" width="1467" height="840" href="img/1.jpg"/>
<path fill-rule="evenodd" d="M694.1 348.2l3.8 2.4l-2.9 3.3l-3.2-2l-2.3 2.5l-3.8-2l2.8-3.6l3.3 2.1Zm639.5-2.9l4.6 2.4l-2.2 4.1l-4.6-2.4l-2.2 4l-4.6-2.5l2.3-4.1l4.5 2.3Zm-738.5-10l7 3.7l-3.6 6.6l-7-3.6ZM1288 335l5.6 3l-3.1 5.8l-4.4-2.2l-2.6 4.8l-5.4-3l3.3-6.1l4.2 2.4Zm-320.4 0l5.5 3l-3.1 5.8l-4.4-2.2l-2.5 4.8l-5.4-3l3.2-6.1l4.3 2.4ZM782 335l5.6 3l-3.1 5.8l-4.4-2.2l-2.6 4.8l-5.4-3l3.3-6.1l4.2 2.4Zm-199.4 0l5.5 3l-3.1 5.8l-4.4-2.2l-2.5 4.8l-5.4-3l3.2-6.1l4.3 2.4Zm-103.9-9.3c1.1 0 1.9 .4 2.6 1.1c.7 .8 1.1 1.7 1.1 2.7c0 1-.4 1.8-1.1 2.6c-.8 .7-1.6 1.1-2.7 1.1c-.9 0-1.8-.4-2.5-1.1c-.7-.8-1.1-1.6-1.1-2.6c0-1.1 .4-1.9 1.1-2.7c.7-.7 1.6-1.1 2.6-1.1Zm638.4-5.8c-.6 0-1.1 .2-1.5 .7c-.4 .5-.5 1-.5 1.6c0 .7 .3 1.3 1.1 1.8c.8 .4 1.9 .7 3.2 .7h1.1c-.6-3.2-1.7-4.8-3.4-4.8Zm329.1-.2c-.8 0-1.4 .9-2 2.7c1.1 .4 1.8 .7 2.4 .9c1.6 .6 2.5 .9 2.7 .9c.4 0 .7-.2 .7-.5c0-.4-.5-1.2-1.3-2.2c-1-1.2-1.8-1.8-2.5-1.8Zm-825.2 0c-.8 0-1.4 .9-2 2.7c1.1 .4 1.9 .7 2.4 .9c1.6 .6 2.5 .9 2.7 .9c.4 0 .7-.2 .7-.5c0-.4-.5-1.2-1.3-2.2c-1-1.2-1.8-1.8-2.5-1.8Zm-59.3-.9c-1.3 0-2.7 .4-4.4 1.2c-1.6 .9-4 2.4-7.1 4.7H558c6.7 0 10-1.1 10-3.1c0-.7-.6-1.4-1.8-2c-1.2-.6-2.7-.8-4.5-.8Zm706.7-3.8c-.4 0-.7 .1-1 .4c-.3 .2-.5 .5-.5 .9c0 .8 .7 1.7 1.9 2.5c1.3 .8 2.8 1.3 4.6 1.6c-.7-1.7-1.5-3-2.4-4c-.9-.9-1.7-1.4-2.6-1.4Zm74-1.7c1.1 0 2 .5 2.7 1.4c.7 .9 1 2.1 1 3.6c0 1.1-.1 2-.3 2.7c-.2 .7-.7 1.6-1.4 2.8c-.6-1.4-1-2.3-1.4-2.8c-.3-.4-.9-.6-1.6-.6c-1 0-2.5 .6-4.4 1.8c-1.9 1.3-2.8 2.3-2.8 3.1c0 .5 .4 .8 1.1 .9c.5 .2 1.4 .2 2.5 .2c.3 0 .6 0 .9 0c.3 0 .6 0 .9 0c2.1 0 3.6 .2 4.3 .7c.6 .3 .9 1.1 .9 2.2c0 2.1-.4 4.2-1.2 6.1c-1 2.5-2.4 4.3-4.3 5.3c-2.4 1.4-4.8 2.4-7.4 3.2c-2.5 .9-4.9 1.3-7.1 1.3c-6.2 0-9.3-2.8-9.3-8.3c0-2.9 .4-5.3 1.1-7.3c.7-2.3 2.4-5.3 4.9-9.2l1.4 .9c-1.5 2.5-2.6 4.7-3.4 6.6c-.7 2-1.1 3.7-1.1 5.1c0 3.8 2.1 5.6 6.4 5.6c1.6 0 3.1-.1 4.5-.4c1.5-.3 2.9-.7 4.4-1.2c.9-.3 2-.8 3.3-1.3c1.9-.9 3-1.3 3.1-1.4c.9-.5 1.3-.9 1.3-1.3c0-.2-.5-.3-1.4-.4c-1 0-1.7 0-2.1 0c-3 0-5.1-.5-6.1-1.3c-.8-.8-1.3-2.1-1.3-4c0-.9 .3-2.1 .9-3.5c.6-1.4 1.4-2.7 2.3-4.1c1.5-2.1 2.9-3.7 4.4-4.7c1.4-1.1 2.9-1.7 4.3-1.7Zm-583.1-.9c-.6 .2-1.1 .5-1.5 .7c-1.1 .5-1.9 1.1-2.6 1.6c-.5 .4-.9 .7-1.2 1.1c-.4 .4-.6 .7-.6 1c0 .2 .4 .5 1 .6c.8 .2 1.4 .3 2.1 .3c.5 0 .9-.2 1.4-.4c.5-.3 1.1-.7 2-1.4Zm359-.5c1.6 0 3 1.1 4.1 3.3c1.1 2.2 1.7 4.8 1.7 7.8v7.7c0 3.4-1.5 6.8-4.4 10.1c-2.9 3.4-5.8 5.1-8.6 5.1c-1.6 0-3.4-.6-5.4-1.6c-1.9-1.1-5-3.1-9-6.2l1.3-1.8c2.1 1.4 3.8 2.4 5.2 2.9c1.2 .4 2.4 .6 3.9 .6c1.9 0 3.8-.6 5.7-1.6c2.2-1.3 4.5-3.4 6.9-6.2c-.8 .2-1.5 .2-2.1 .2c-1.9 0-3.5-.6-4.7-1.9c-1.1-1.3-1.7-3-1.7-5.2c0-3 .7-5.9 2-8.7c1.5-3 3.2-4.5 5.1-4.5Zm-55.7-.3l1.6 1.1c-.4 .8-.8 1.5-1.1 2.2c-.3 .6-.5 1.2-.6 1.7c-.3 .9-.5 1.8-.5 2.7c0 1.1 .4 2.1 1.1 3c.7 .9 1.7 1.5 2.8 1.8c.7 .2 1.7 .3 2.8 .4c1.1 .1 2.3 .2 3.5 .2h21.6c-.6-1.6-1.1-2.7-1.4-3.3c-.5-.7-1.1-1.7-2-2.8l2.6-7c1.5 2.2 2.5 4.1 3 5.9c.4 1.6 .6 3.9 .6 6.8v8.5h-25c-1.3 0-2.3 0-3.1-.1c-.8 0-1.3 0-1.7 0c-.8-.1-1.6-.3-2.6-.7c-1.6-.5-3-1.7-4-3.4c-1.1-1.7-1.6-3.6-1.6-5.7c0-.8 .1-1.7 .2-2.6c.1-.8 .3-1.8 .7-2.8c.3-1.2 .8-2.2 1.4-3.2c.5-.9 1.1-1.8 1.7-2.7Zm-179.2 0l1.7 1.1c-.4 .8-.8 1.5-1.1 2.2c-.3 .6-.5 1.2-.7 1.7c-.3 .9-.4 1.8-.4 2.7c0 1.1 .4 2.1 1.1 3c.7 .9 1.7 1.5 2.8 1.8c.7 .2 1.6 .3 2.7 .4c1.2 .1 2.3 .2 3.6 .2h21.5c-.5-1.6-1-2.7-1.3-3.3c-.5-.7-1.1-1.7-2.1-2.8l2.7-7c1.5 2.2 2.5 4.1 3 5.9c.3 1.6 .5 3.9 .5 6.8v8.5h-25c-1.2 0-2.2 0-3-.1c-.8 0-1.4 0-1.8 0c-.7-.1-1.6-.3-2.5-.7c-1.6-.5-3-1.7-4-3.4c-1.1-1.7-1.6-3.6-1.6-5.7c0-.8 .1-1.7 .2-2.6c.1-.8 .3-1.8 .6-2.8c.4-1.2 .9-2.2 1.5-3.2c.5-.9 1.1-1.8 1.6-2.7Zm-163.8-1.4c-.6 0-1.1 .3-1.6 .8c-.5 .5-.7 1.2-.7 1.9c0 .4 .2 .8 .6 1.1c.3 .3 .8 .5 1.4 .5c.4 0 .9-.1 1.4-.4c.4-.3 1-.7 1.7-1.4c-.6-.9-1-1.6-1.5-1.9c-.4-.4-.8-.6-1.3-.6Zm550.3-4c2.1 0 3.8 1.7 5.3 5.2c1.5 3.5 2.3 7.7 2.3 12.6v.7h13.6c-.3-1.4-.7-2.5-1.2-3.5c-.3-.5-1-1.4-2.1-2.6l2.4-7.1c1.5 1.6 2.5 3.4 3 5.3c.6 1.8 .8 4.6 .8 8.2v7.8h-38.4v-.1h-1.1c-.9-.1-1.7-.2-2.5-.4c-1.4-.3-2.9-.8-4.3-1.5c-1.2 .8-2.2 1.3-3.1 1.6c-.9 .2-2.3 .4-4.1 .4h-4.8c-1.3 0-2.4-.4-3.2-1.1c-.8-.7-1.4-1.8-2.1-3.4c-1.1 1.6-2.3 2.8-3.6 3.5c-1.2 .7-2.6 1-4.2 1h-2.1v.7c0 1.2-.7 2.8-2.1 4.8c-1.4 2-3.1 3.7-4.9 5.2c-2.1 1.6-3.9 2.4-5.3 2.4c-1.8 0-3.7-.5-5.7-1.5c-1.7-.8-4.4-2.5-8.1-5.1l1.2-1.8c1.8 1.1 3.2 2 4.3 2.4c1.1 .4 2.3 .6 3.6 .6c1.3 0 2.7-.4 4.1-1.2c1.4-.7 3.2-2.2 5.6-4.3c3.3-2.9 4.9-5.2 4.9-6.8c0-.8-.3-1.8-.9-3.1c-.7-1.5-1.6-2.7-2.6-3.7l1.6-8c1.4 1.4 2.4 3 3.2 4.8c.7 1.8 1.1 3.8 1.1 6.1v.4h2.1c2.1 0 3.9-.6 5.2-1.8c1.8-1.5 2.7-3.9 2.7-7l2 .3c0 .7-.1 1.4-.1 2.2c0 .8 0 1.7 0 2.7c0 1 .3 1.9 1 2.5c.7 .7 1.5 1.1 2.4 1.1h3.6c2.5 0 4.2-.4 5.2-1.1c1.3-.8 1.9-2.3 1.9-4.5c0-.5 .2-.9 .5-1.3c.1-.2 .5-.5 1.1-1l1.1-.9c0 .4 0 .9 .1 1.6c0 .6 0 1 0 1.2c0 1.1-.2 2.6-.5 4.4c.8 .3 1.6 .7 2.5 .9c.9 .3 1.9 .5 2.9 .6c0-.7-.3-1.6-.7-2.6c-.6-1.1-.8-1.8-.8-2.2c0-.5 .1-.9 .2-1.2c0-.1 .3-.4 .7-.9l2.5-3.4c.5 1.2 .9 2.3 1.2 3.4c.2 1 .3 2.3 .3 3.8v3.2h3.4c.9 0 1.7 0 2.5 .1c2.2 .2 4.7 .5 7.5 .8c-2.9-.7-5-1.5-6.2-2.6c-1.2-1.1-1.8-2.7-1.8-4.7c0-3.1 .7-5.9 2.2-8.4c1.4-2.5 3-3.7 4.7-3.7ZM1138 304.6c2.5 1.9 4.4 4.4 5.5 7.4c.9 2.9 1.4 6.6 1.4 11.2v1.5H1164c-2.4-2.5-4.6-4.3-6.6-5.4c-1.9-1-3.6-1.5-5.4-1.5c-.5 0-.9 .1-1.4 .1c-.4 .1-1 .2-1.8 .4c1.1-2.6 2.3-4.4 3.6-5.6c1.4-1.2 2.9-1.8 4.6-1.8c1.3 0 2.6 .3 3.8 1c1.2 .6 2.5 1.6 4.1 3.1c1.1 1.1 2.8 2.8 5 5.2c1.5 1.6 2.7 2.7 3.4 3.2c.8 .5 2 .9 3.6 1.3v8.1h-45.5c-1.3 0-2.3-.3-3-.9c-.8-.6-1.3-1.7-1.3-3.3c0-.8 .1-1.8 .2-2.8c.1-1 .2-2 .4-3.1h1.1c.2 .7 .5 1.2 1.1 1.5c.5 .3 1.2 .5 2 .5h10.2c-.5-2.9-1.2-5.3-2.4-7c-.9-1.5-2.2-2.7-3.9-3.8Zm-417.8-2c2 0 4 1.9 5.9 5.5c1.8 3.6 2.7 7.5 2.7 11.5v13.2H707.2c-.9 0-1.5 0-1.9 0c-.4 .1-.6 .2-.6 .4c.6 .4 1.1 .6 1.6 .7c.5 .1 .9 .3 1 .5c.2 .2 .3 .6 .3 1c0 1.4-.5 3.1-1.2 5.1c-.9 1.9-1.7 3.2-2.4 3.6c-.8 .6-2.9 1.4-6.6 2.2c-3.6 .8-6.7 1.2-9.3 1.2c-3.8 0-6.8-.8-9.1-2.4c-2.3-1.5-3.5-3.5-3.5-6c0-2.5 .5-4.8 1.6-7c1.2-2.6 3.5-6 6.8-10.1l1.8 1.3c-2.1 2.5-3.6 4.5-4.4 6.1c-.8 1.6-1.2 3.2-1.2 4.7c0 2.1 .9 3.7 2.7 4.7c1.7 1.1 4.4 1.6 8.1 1.6c1.9 0 4.6-.4 8-1.1c3.3-.7 5-1.3 5-1.8c0-.2-.6-.4-1.9-.6c-1.3-.2-2.7-.3-4.3-.3c-2.2 0-3.4-.5-3.4-1.5c0-.5 .3-1.3 .8-2.5c.4-.8 .8-1.6 1.2-2.4c.7-1.7 2.1-3 4.2-4c2.1-1 4.2-1.5 6.5-1.5h19c0-1.8 0-3-.1-3.7c-.2-1.2-.5-2.2-1-3c-.6 1.2-1.5 2.2-2.6 2.8c-1 .7-2.2 1-3.4 1c-1.6 0-2.9-.5-4-1.5c-1.1-1.1-1.7-2.4-1.7-4c0-2.4 .8-5.1 2.2-8.4c1.6-3.5 3.1-5.3 4.8-5.3Zm360.4-1l5.4 3.1l-3.3 6l-4.2-2.3l-2.4 4.7l-5.6-3.1l3.1-5.8l4.4 2.3Zm-179.2-.2l5.5 3.1l-3.1 5.8l-4.4-2.2l-2.5 4.8l-5.4-3.1l3.3-6l4.2 2.4Zm-422.2-3.3c2.4 0 4.4 .7 6.1 2c1.6 1.4 2.5 3.2 2.5 5.4c0 1.2-.4 2.3-1.1 3.2c-.8 1.1-1.8 1.6-3.1 1.6c-1 0-1.8-.3-2.5-1c-.7-.6-1-1.4-1-2.3c0-1.3 .6-2.3 1.7-3c1.1-.7 1.6-1.3 1.6-1.7c0-.7-.3-1.2-1-1.6c-.6-.4-1.4-.7-2.5-.7c-1.2 0-2.3 .4-3.1 1.1c-.9 .8-1.3 1.6-1.3 2.7c0 1 .4 2.2 1.3 3.7c1.3 2.3 2 3.8 2.3 4.5c.8 2.1 1.3 4.3 1.3 6.8c0 1.3-.1 2.8-.3 4.4l-1.9-.1c0-.3 .1-.6 .1-.8l.1-1.5c0-1.2-.7-2.4-2.2-3.7c-2.5-2.2-3.9-3.5-4.1-3.7c-1.5-1.8-2.2-3.8-2.2-6c0-2.7 .9-4.9 2.6-6.7c1.8-1.7 4-2.6 6.7-2.6Zm526.9-.2l5.5 3l-3.1 5.8l-4.4-2.2l-2.5 4.8l-5.4-3l3.2-6.1l4.3 2.4Zm-179 0l5.6 3l-3.1 5.8l-4.4-2.2l-2.6 4.8l-5.4-3l3.3-6.1l4.2 2.4Zm-277.5-.8l6.9 3.7l-3.6 6.6l-6.9-3.6Zm870.3-.5c1.1 1.6 1.9 3.2 2.4 4.7c.5 1.8 .8 4.1 .8 6.9v5.9c0 4.1 .3 7 .8 8.6c.5 1.3 1.2 2 2.1 2h8c1.8 0 3.2-.3 4.3-.7c1.3-.6 2.2-1.5 2.8-2.9c1.1-2.5 2.5-4.6 4.3-6.2c1.6-1.5 2.9-2.2 4-2.2c1 0 2.3 1.5 3.8 4.6c1.5 3.2 2.3 6.2 2.3 8.9v6.5c-2.1 0-4.5-.4-7.3-1.2c-2.5-.7-4.7-1.5-6.6-2.5c-1.1 1.7-2.6 2.8-4.3 3.4c-.8 .2-1.9 .4-3.3 .4h-8c-2.3 0-4-1-5-2.9c-1.2-2.1-1.8-5.6-1.8-10.6v-8.5c0-2-.2-3.5-.7-4.5c-.3-.5-.9-1.3-1.8-2.3Zm-26.7 0l1.8 10.5c.7 4 1.1 7.5 1.4 10.5c.2 2.2 .3 4.4 .3 6.5c0 1.8-.3 3.4-.7 4.8c-.4 1.5-1.2 3.5-2.4 5.9l-1.8-.7c.5-2.5 .8-4.6 .8-6.2c0-1.2-.2-3-.4-5.3c-.2-2.4-.4-4.7-.7-7c-.3-2.3-.8-5-1.5-8.2c-.2-1.1-.3-1.9-.3-2.3c0-.6 .3-1.7 .9-3.1c.6-1.5 1.5-3.3 2.6-5.4Zm-359.3 0l1.8 10.5c.6 4 1.1 7.5 1.3 10.5c.2 2.2 .3 4.4 .3 6.5c0 1.8-.2 3.4-.6 4.8c-.4 1.5-1.2 3.5-2.4 5.9l-1.8-.7c.5-2.5 .7-4.6 .7-6.2c0-1.2-.1-3-.3-5.3c-.2-2.4-.4-4.7-.7-7c-.3-2.3-.8-5-1.5-8.2c-.2-1.1-.4-1.9-.4-2.3c0-.6 .4-1.7 1-3.1c.6-1.5 1.5-3.3 2.6-5.4Zm-108.9 0l1.8 10.5c.6 4 1.1 7.5 1.3 10.5c.2 2.2 .3 4.4 .3 6.5c0 1.8-.2 3.4-.6 4.8c-.4 1.5-1.2 3.5-2.4 5.9l-1.8-.7c.5-2.5 .7-4.6 .7-6.2c0-1.2-.1-3-.3-5.3c-.2-2.4-.4-4.7-.7-7c-.3-2.3-.8-5-1.5-8.2c-.2-1.1-.4-1.9-.4-2.3c0-.6 .4-1.7 1-3.1c.6-1.5 1.5-3.3 2.6-5.4Zm-70.1 0l1.8 10.5c.7 4 1.1 7.5 1.4 10.5c.2 2.2 .3 4.4 .3 6.5c0 1.8-.2 3.4-.6 4.8c-.4 1.5-1.3 3.5-2.4 5.9l-1.8-.7c.4-2.5 .7-4.6 .7-6.2c0-1.2-.1-3-.3-5.3c-.2-2.4-.5-4.7-.8-7c-.3-2.3-.7-5-1.4-8.2c-.3-1.1-.4-1.9-.4-2.3c0-.6 .3-1.7 .9-3.1c.7-1.5 1.5-3.3 2.6-5.4Zm-202.7 0l1.8 10.5c.6 4 1.1 7.5 1.3 10.5c.2 2.2 .3 4.4 .3 6.5c0 1.8-.2 3.4-.6 4.8c-.4 1.5-1.2 3.5-2.4 5.9l-1.8-.7c.5-2.5 .7-4.6 .7-6.2c0-1.2-.1-3-.3-5.3c-.2-2.4-.4-4.7-.7-7c-.3-2.3-.8-5-1.5-8.2c-.2-1.1-.4-1.9-.4-2.3c0-.6 .4-1.7 1-3.1c.6-1.5 1.5-3.3 2.6-5.4Zm328.7-1.2l6.9 3.7l-3.5 6.6l-7-3.6Zm93.8-.7l5.5 2.9l-3 6.2l-5.6-3Zm304.7-.5l1.4 .7c0 .2-.1 .5-.1 1c0 .7 .4 1.3 1.2 1.9c.8 .6 1.9 1.2 3.5 1.9c-.1 1.2-.4 2.5-.8 3.7c-.3 1.2-.7 2.3-1.1 3.2l-1.1-.4l3.2 18.5v8.1h-27.7c-1.4 0-2.4-.3-3.1-.9c-.8-.6-1.2-1.7-1.2-3.3c0-.8 0-1.8 .1-2.8c.1-1 .2-2 .4-3.1h1.1c.2 .7 .6 1.2 1.1 1.5c.5 .3 1.2 .5 2 .5h10.2c-.4-2.9-1.2-5.3-2.4-7c-.9-1.5-2.2-2.7-3.9-3.8l2.2-9.3c2.6 1.9 4.4 4.4 5.5 7.4c1 2.9 1.5 6.6 1.5 11.2v1.5h10.7l-3.6-20.3l-2-1.2c0-1.2 .2-2.4 .6-3.6c.4-1.5 1.2-3.3 2.3-5.4Zm-359.3 0l1.4 .7c0 .2-.1 .5-.2 1c0 .7 .4 1.3 1.3 1.9c.7 .6 1.9 1.2 3.5 1.9c-.2 1.2-.4 2.5-.8 3.7c-.3 1.2-.7 2.3-1.2 3.2l-1-.4l3.2 18.5v8.1H991.1c-1.6 0-3-.3-4.2-1c-1.1-.6-2.1-1.6-2.8-3.1c-1.3 1.6-3 2.8-5.1 3.4c-1.4 .5-2.8 .7-4.5 .7H957v.7c0 1.2-.7 2.8-2.1 4.8c-1.4 2-3 3.7-4.9 5.2c-2 1.6-3.8 2.4-5.3 2.4c-1.7 0-3.6-.5-5.6-1.5c-1.7-.8-4.5-2.5-8.2-5.1l1.2-1.8c1.8 1.1 3.3 2 4.4 2.4c1.1 .4 2.2 .6 3.5 .6c1.4 0 2.8-.4 4.1-1.2c1.4-.7 3.3-2.2 5.6-4.3c3.3-2.9 5-5.2 5-6.8c0-.8-.3-1.8-1-3.1c-.7-1.5-1.6-2.7-2.6-3.7l1.7-8c1.3 1.4 2.4 3 3.1 4.8c.7 1.8 1.1 3.8 1.1 6.1v.4h13.6c-.2-1.4-.6-2.5-1.2-3.5c-.3-.5-1-1.4-2.1-2.6l2.4-7.1c1.5 1.6 2.5 3.4 3.1 5.3c.4 1.6 .7 3.9 .8 6.9v1h.9c1.7 0 2.8-.1 3.5-.3c.7-.2 1.6-.5 2.7-1.1c-.6-1.2-1.1-2.1-1.5-2.6c-.6-.6-1.1-.9-1.7-.9c-.2 0-.4 .1-.6 .2c-.2 .2-.4 .5-.6 .9l-1.4-.2c0-3.6 .6-6.2 1.9-7.7c1.2-1.5 3.2-2.3 5.9-2.3c2.7 0 4.9 .5 6.5 1.6c1.6 1.1 2.4 2.6 2.4 4.5c0 1-.2 1.9-.7 2.9c-.4 .9-1.2 2.2-2.3 3.7c.3 .4 .6 .7 1.1 .9c.5 .3 1 .4 1.4 .4h18c-.2-1.4-.6-2.5-1.2-3.5c-.3-.5-1-1.4-2.1-2.6l2.4-7.1c1.5 1.6 2.5 3.4 3.1 5.3c.4 1.6 .7 3.9 .8 6.9v1h10.6l-3.6-20.3l-1.9-1.2c0-1.2 .2-2.4 .6-3.6c.4-1.5 1.2-3.3 2.3-5.4Zm-179 0l1.4 .7c0 .2 0 .5-.1 1c0 .7 .4 1.3 1.3 1.9c.7 .6 1.9 1.2 3.5 1.9c-.2 1.2-.5 2.5-.8 3.7c-.4 1.2-.8 2.3-1.2 3.2l-1.1-.4l3.3 18.5v8.1h-35c-2.3 0-4-1-5-2.9c-1.2-2.1-1.8-5.6-1.8-10.6v-8.5c0-2-.2-3.5-.8-4.5c-.2-.5-.8-1.3-1.8-2.3l3.3-7.4c1.1 1.6 1.9 3.2 2.4 4.7c.5 1.8 .8 4.1 .8 6.9v5.9c0 4.1 .3 7 .8 8.6c.4 1.3 1.1 2 2.1 2h17.8c-.3-1.4-.7-2.5-1.2-3.5c-.3-.5-1-1.4-2.1-2.6l2.4-7.1c1.5 1.6 2.5 3.4 3 5.3c.5 1.6 .8 3.9 .8 6.9v1h10.7l-3.6-20.3l-1.9-1.2c0-1.2 .2-2.4 .5-3.6c.5-1.5 1.2-3.3 2.3-5.4Zm-45.1 0l1.4 .7c0 .2 0 .5-.1 1c0 .7 .4 1.3 1.3 1.9c.7 .6 1.9 1.2 3.5 1.9c-.2 1.2-.5 2.5-.8 3.7c-.4 1.2-.8 2.3-1.2 3.2l-1.1-.4l3.3 18.5v8.1H767.6c-.7 0-1.4-.2-2-.5c-1.1-.6-2.1-1.6-2.9-3.1c-1.1-2.1-1.8-5-2.1-8.7c-1.3 1.7-2.4 2.9-3.1 3.6c-1.1 1-2 1.5-2.8 1.5c-.4 0-.8-.1-1.4-.2l-3.7-.7c-1.5-.3-2.5-.6-2.8-.7c-.4-.1-.5-.4-.5-.7c0-.6 .6-2.3 2-5.1c1.4-2.9 2.4-4.6 3-5.3c.5-.5 1.4-1.2 2.7-2.1c.7-.5 1.8-1.2 3.2-2l1.6-.9c-.1-.3-.1-.6-.2-.9c0-.3 0-.5 0-.8c0-.7 .2-1.7 .5-2.8c.4-1.2 1-2.6 1.9-4.3l2.8 18.6c.5 2.9 1.1 4.9 1.8 5.9c.5 .7 1.2 1.1 2 1.1h17.5c-.3-1.4-.7-2.5-1.2-3.5c-.3-.5-1-1.4-2.1-2.6l2.4-7.1c1.5 1.6 2.5 3.4 3 5.3c.5 1.6 .8 3.9 .8 6.9v1h10.7l-3.6-20.3l-1.9-1.2c0-1.2 .2-2.4 .5-3.6c.5-1.5 1.2-3.3 2.3-5.4Zm-157.6 0l1.4 .7c0 .2-.1 .5-.2 1c0 .7 .4 1.3 1.3 1.9c.7 .6 1.9 1.2 3.5 1.9c-.2 1.2-.4 2.5-.8 3.7c-.3 1.2-.7 2.3-1.2 3.2l-1-.4l3.2 18.5v8.1H628.2v-.2h-.4c-1.4-.2-3.1-.6-4.8-1.1c-2.5-.7-4.7-1.5-6.6-2.5c-1.1 1.7-2.6 2.8-4.3 3.4c-.8 .2-1.9 .4-3.3 .4H540.1c0 4.6-1.5 7.9-4.4 10c-2.6 1.7-6.4 2.6-11.6 2.6c-4.8 0-8.6-.9-11.2-2.7c-2.6-1.7-3.9-4.2-3.9-7.5c0-2.7 .4-5.2 1.3-7.5c.9-2.5 2.7-5.8 5.3-9.9l1.8 1.3c-2 3.4-3.2 5.8-3.9 7.3c-.5 1.5-.9 3.1-.9 4.7c0 2.1 1.2 3.8 3.4 5.1c2.2 1.3 5.2 2 8.8 2c3.6 0 6.6-.7 9-2.1c2.5-1.4 3.7-3 3.7-5c0-1.3-.2-2.5-.6-3.7c-.5-1.2-1.4-3.1-2.8-5.8l2.6-8.1c1.1 2.2 1.7 3.4 1.9 3.7c.6 1.2 1 2.3 1.2 3.4c.2 1 .3 2.4 .3 4.1c1.3 0 2.5-.4 3.5-1c.2-.1 1.1-.8 3-2.1l10.7-7.6c1.6-1.2 2.9-2 3.7-2.4c1.2-.6 2.3-.9 3.5-.9c2.2 0 4 .8 5.3 2.4c1.4 1.8 2.2 4.6 2.2 8.3v3.3h13.6c-.2-1.4-.6-2.5-1.2-3.5c-.3-.5-1-1.4-2.1-2.6l2.4-7.1c1.5 1.6 2.5 3.4 3.1 5.3c.4 1.6 .7 3.9 .8 6.9v1h13.5c-.2-1.4-.6-2.5-1.2-3.5c-.3-.5-1-1.4-2.1-2.6l2.4-7.1c1.5 1.6 2.5 3.4 3.1 5.3c.4 1.6 .7 3.9 .8 6.9v1h3.7c1.8 0 3.2-.3 4.3-.7c1.3-.6 2.3-1.5 2.8-2.9c1.1-2.5 2.6-4.6 4.3-6.2c1.6-1.5 2.9-2.2 4-2.2c1 0 2.3 1.5 3.8 4.6c1.2 2.4 1.9 4.7 2.2 6.8v.6H641l-3.6-20.3l-1.9-1.2c0-1.2 .2-2.4 .6-3.6c.4-1.5 1.2-3.3 2.3-5.4Zm629.2-.3l6.9 3.7l-3.5 6.7l-7-3.6Zm91.7-4l7 3.7l-3.6 6.7l-7-3.7Zm-641.7-.3l6.9 3.7l-3.6 6.7l-6.9-3.6Zm41.7-1.4l5.3 2.8l-3.3 5.5l-4.2-2.4l-2.4 4.7l-5.5-3l3.1-5.2l4.4 2.2Z" class="g0_13"/>
<path d="M694.1 348.2l3.8 2.4l-2.9 3.3l-3.2-2l-2.3 2.5l-3.8-2l2.8-3.6l3.3 2.1Zm639.5-2.9l4.6 2.4l-2.2 4.1l-4.6-2.4l-2.2 4l-4.6-2.5l2.3-4.1l4.5 2.3Zm-738.5-10l7 3.7l-3.6 6.6l-7-3.6ZM1288 335l5.6 3l-3.1 5.8l-4.4-2.2l-2.6 4.8l-5.4-3l3.3-6.1l4.2 2.4Zm-320.4 0l5.5 3l-3.1 5.8l-4.4-2.2l-2.5 4.8l-5.4-3l3.2-6.1l4.3 2.4ZM782 335l5.6 3l-3.1 5.8l-4.4-2.2l-2.6 4.8l-5.4-3l3.3-6.1l4.2 2.4Zm-199.4 0l5.5 3l-3.1 5.8l-4.4-2.2l-2.5 4.8l-5.4-3l3.2-6.1l4.3 2.4Zm-103.9-9.3c1.1 0 1.9 .4 2.6 1.1c.7 .8 1.1 1.7 1.1 2.7c0 1-.4 1.8-1.1 2.6c-.8 .7-1.6 1.1-2.7 1.1c-.9 0-1.8-.4-2.5-1.1c-.7-.8-1.1-1.6-1.1-2.6c0-1.1 .4-1.9 1.1-2.7c.7-.7 1.6-1.1 2.6-1.1Zm638.4-5.8c-.6 0-1.1 .2-1.5 .7c-.4 .5-.5 1-.5 1.6c0 .7 .3 1.3 1.1 1.8c.8 .4 1.9 .7 3.2 .7h1.1c-.6-3.2-1.7-4.8-3.4-4.8Zm329.1-.2c-.8 0-1.4 .9-2 2.7c1.1 .4 1.8 .7 2.4 .9c1.6 .6 2.5 .9 2.7 .9c.4 0 .7-.2 .7-.5c0-.4-.5-1.2-1.3-2.2c-1-1.2-1.8-1.8-2.5-1.8Zm-825.2 0c-.8 0-1.4 .9-2 2.7c1.1 .4 1.9 .7 2.4 .9c1.6 .6 2.5 .9 2.7 .9c.4 0 .7-.2 .7-.5c0-.4-.5-1.2-1.3-2.2c-1-1.2-1.8-1.8-2.5-1.8Zm-59.3-.9c-1.3 0-2.7 .4-4.4 1.2c-1.6 .9-4 2.4-7.1 4.7H558c6.7 0 10-1.1 10-3.1c0-.7-.6-1.4-1.8-2c-1.2-.6-2.7-.8-4.5-.8Zm706.7-3.8c-.4 0-.7 .1-1 .4c-.3 .2-.5 .5-.5 .9c0 .8 .7 1.7 1.9 2.5c1.3 .8 2.8 1.3 4.6 1.6c-.7-1.7-1.5-3-2.4-4c-.9-.9-1.7-1.4-2.6-1.4Zm74-1.7c1.1 0 2 .5 2.7 1.4c.7 .9 1 2.1 1 3.6c0 1.1-.1 2-.3 2.7c-.2 .7-.7 1.6-1.4 2.8c-.6-1.4-1-2.3-1.4-2.8c-.3-.4-.9-.6-1.6-.6c-1 0-2.5 .6-4.4 1.8c-1.9 1.3-2.8 2.3-2.8 3.1c0 .5 .4 .8 1.1 .9c.5 .2 1.4 .2 2.5 .2c.3 0 .6 0 .9 0c.3 0 .6 0 .9 0c2.1 0 3.6 .2 4.3 .7c.6 .3 .9 1.1 .9 2.2c0 2.1-.4 4.2-1.2 6.1c-1 2.5-2.4 4.3-4.3 5.3c-2.4 1.4-4.8 2.4-7.4 3.2c-2.5 .9-4.9 1.3-7.1 1.3c-6.2 0-9.3-2.8-9.3-8.3c0-2.9 .4-5.3 1.1-7.3c.7-2.3 2.4-5.3 4.9-9.2l1.4 .9c-1.5 2.5-2.6 4.7-3.4 6.6c-.7 2-1.1 3.7-1.1 5.1c0 3.8 2.1 5.6 6.4 5.6c1.6 0 3.1-.1 4.5-.4c1.5-.3 2.9-.7 4.4-1.2c.9-.3 2-.8 3.3-1.3c1.9-.9 3-1.3 3.1-1.4c.9-.5 1.3-.9 1.3-1.3c0-.2-.5-.3-1.4-.4c-1 0-1.7 0-2.1 0c-3 0-5.1-.5-6.1-1.3c-.8-.8-1.3-2.1-1.3-4c0-.9 .3-2.1 .9-3.5c.6-1.4 1.4-2.7 2.3-4.1c1.5-2.1 2.9-3.7 4.4-4.7c1.4-1.1 2.9-1.7 4.3-1.7Zm-583.1-.9c-.6 .2-1.1 .5-1.5 .7c-1.1 .5-1.9 1.1-2.6 1.6c-.5 .4-.9 .7-1.2 1.1c-.4 .4-.6 .7-.6 1c0 .2 .4 .5 1 .6c.8 .2 1.4 .3 2.1 .3c.5 0 .9-.2 1.4-.4c.5-.3 1.1-.7 2-1.4Zm359-.5c1.6 0 3 1.1 4.1 3.3c1.1 2.2 1.7 4.8 1.7 7.8v7.7c0 3.4-1.5 6.8-4.4 10.1c-2.9 3.4-5.8 5.1-8.6 5.1c-1.6 0-3.4-.6-5.4-1.6c-1.9-1.1-5-3.1-9-6.2l1.3-1.8c2.1 1.4 3.8 2.4 5.2 2.9c1.2 .4 2.4 .6 3.9 .6c1.9 0 3.8-.6 5.7-1.6c2.2-1.3 4.5-3.4 6.9-6.2c-.8 .2-1.5 .2-2.1 .2c-1.9 0-3.5-.6-4.7-1.9c-1.1-1.3-1.7-3-1.7-5.2c0-3 .7-5.9 2-8.7c1.5-3 3.2-4.5 5.1-4.5Zm-55.7-.3l1.6 1.1c-.4 .8-.8 1.5-1.1 2.2c-.3 .6-.5 1.2-.6 1.7c-.3 .9-.5 1.8-.5 2.7c0 1.1 .4 2.1 1.1 3c.7 .9 1.7 1.5 2.8 1.8c.7 .2 1.7 .3 2.8 .4c1.1 .1 2.3 .2 3.5 .2h21.6c-.6-1.6-1.1-2.7-1.4-3.3c-.5-.7-1.1-1.7-2-2.8l2.6-7c1.5 2.2 2.5 4.1 3 5.9c.4 1.6 .6 3.9 .6 6.8v8.5h-25c-1.3 0-2.3 0-3.1-.1c-.8 0-1.3 0-1.7 0c-.8-.1-1.6-.3-2.6-.7c-1.6-.5-3-1.7-4-3.4c-1.1-1.7-1.6-3.6-1.6-5.7c0-.8 .1-1.7 .2-2.6c.1-.8 .3-1.8 .7-2.8c.3-1.2 .8-2.2 1.4-3.2c.5-.9 1.1-1.8 1.7-2.7Zm-179.2 0l1.7 1.1c-.4 .8-.8 1.5-1.1 2.2c-.3 .6-.5 1.2-.7 1.7c-.3 .9-.4 1.8-.4 2.7c0 1.1 .4 2.1 1.1 3c.7 .9 1.7 1.5 2.8 1.8c.7 .2 1.6 .3 2.7 .4c1.2 .1 2.3 .2 3.6 .2h21.5c-.5-1.6-1-2.7-1.3-3.3c-.5-.7-1.1-1.7-2.1-2.8l2.7-7c1.5 2.2 2.5 4.1 3 5.9c.3 1.6 .5 3.9 .5 6.8v8.5h-25c-1.2 0-2.2 0-3-.1c-.8 0-1.4 0-1.8 0c-.7-.1-1.6-.3-2.5-.7c-1.6-.5-3-1.7-4-3.4c-1.1-1.7-1.6-3.6-1.6-5.7c0-.8 .1-1.7 .2-2.6c.1-.8 .3-1.8 .6-2.8c.4-1.2 .9-2.2 1.5-3.2c.5-.9 1.1-1.8 1.6-2.7Zm-163.8-1.4c-.6 0-1.1 .3-1.6 .8c-.5 .5-.7 1.2-.7 1.9c0 .4 .2 .8 .6 1.1c.3 .3 .8 .5 1.4 .5c.4 0 .9-.1 1.4-.4c.4-.3 1-.7 1.7-1.4c-.6-.9-1-1.6-1.5-1.9c-.4-.4-.8-.6-1.3-.6Zm550.3-4c2.1 0 3.8 1.7 5.3 5.2c1.5 3.5 2.3 7.7 2.3 12.6v.7h13.6c-.3-1.4-.7-2.5-1.2-3.5c-.3-.5-1-1.4-2.1-2.6l2.4-7.1c1.5 1.6 2.5 3.4 3 5.3c.6 1.8 .8 4.6 .8 8.2v7.8h-38.4v-.1h-1.1c-.9-.1-1.7-.2-2.5-.4c-1.4-.3-2.9-.8-4.3-1.5c-1.2 .8-2.2 1.3-3.1 1.6c-.9 .2-2.3 .4-4.1 .4h-4.8c-1.3 0-2.4-.4-3.2-1.1c-.8-.7-1.4-1.8-2.1-3.4c-1.1 1.6-2.3 2.8-3.6 3.5c-1.2 .7-2.6 1-4.2 1h-2.1v.7c0 1.2-.7 2.8-2.1 4.8c-1.4 2-3.1 3.7-4.9 5.2c-2.1 1.6-3.9 2.4-5.3 2.4c-1.8 0-3.7-.5-5.7-1.5c-1.7-.8-4.4-2.5-8.1-5.1l1.2-1.8c1.8 1.1 3.2 2 4.3 2.4c1.1 .4 2.3 .6 3.6 .6c1.3 0 2.7-.4 4.1-1.2c1.4-.7 3.2-2.2 5.6-4.3c3.3-2.9 4.9-5.2 4.9-6.8c0-.8-.3-1.8-.9-3.1c-.7-1.5-1.6-2.7-2.6-3.7l1.6-8c1.4 1.4 2.4 3 3.2 4.8c.7 1.8 1.1 3.8 1.1 6.1v.4h2.1c2.1 0 3.9-.6 5.2-1.8c1.8-1.5 2.7-3.9 2.7-7l2 .3c0 .7-.1 1.4-.1 2.2c0 .8 0 1.7 0 2.7c0 1 .3 1.9 1 2.5c.7 .7 1.5 1.1 2.4 1.1h3.6c2.5 0 4.2-.4 5.2-1.1c1.3-.8 1.9-2.3 1.9-4.5c0-.5 .2-.9 .5-1.3c.1-.2 .5-.5 1.1-1l1.1-.9c0 .4 0 .9 .1 1.6c0 .6 0 1 0 1.2c0 1.1-.2 2.6-.5 4.4c.8 .3 1.6 .7 2.5 .9c.9 .3 1.9 .5 2.9 .6c0-.7-.3-1.6-.7-2.6c-.6-1.1-.8-1.8-.8-2.2c0-.5 .1-.9 .2-1.2c0-.1 .3-.4 .7-.9l2.5-3.4c.5 1.2 .9 2.3 1.2 3.4c.2 1 .3 2.3 .3 3.8v3.2h3.4c.9 0 1.7 0 2.5 .1c2.2 .2 4.7 .5 7.5 .8c-2.9-.7-5-1.5-6.2-2.6c-1.2-1.1-1.8-2.7-1.8-4.7c0-3.1 .7-5.9 2.2-8.4c1.4-2.5 3-3.7 4.7-3.7ZM1138 304.6c2.5 1.9 4.4 4.4 5.5 7.4c.9 2.9 1.4 6.6 1.4 11.2v1.5H1164c-2.4-2.5-4.6-4.3-6.6-5.4c-1.9-1-3.6-1.5-5.4-1.5c-.5 0-.9 .1-1.4 .1c-.4 .1-1 .2-1.8 .4c1.1-2.6 2.3-4.4 3.6-5.6c1.4-1.2 2.9-1.8 4.6-1.8c1.3 0 2.6 .3 3.8 1c1.2 .6 2.5 1.6 4.1 3.1c1.1 1.1 2.8 2.8 5 5.2c1.5 1.6 2.7 2.7 3.4 3.2c.8 .5 2 .9 3.6 1.3v8.1h-45.5c-1.3 0-2.3-.3-3-.9c-.8-.6-1.3-1.7-1.3-3.3c0-.8 .1-1.8 .2-2.8c.1-1 .2-2 .4-3.1h1.1c.2 .7 .5 1.2 1.1 1.5c.5 .3 1.2 .5 2 .5h10.2c-.5-2.9-1.2-5.3-2.4-7c-.9-1.5-2.2-2.7-3.9-3.8Zm-417.8-2c2 0 4 1.9 5.9 5.5c1.8 3.6 2.7 7.5 2.7 11.5v13.2H707.2c-.9 0-1.5 0-1.9 0c-.4 .1-.6 .2-.6 .4c.6 .4 1.1 .6 1.6 .7c.5 .1 .9 .3 1 .5c.2 .2 .3 .6 .3 1c0 1.4-.5 3.1-1.2 5.1c-.9 1.9-1.7 3.2-2.4 3.6c-.8 .6-2.9 1.4-6.6 2.2c-3.6 .8-6.7 1.2-9.3 1.2c-3.8 0-6.8-.8-9.1-2.4c-2.3-1.5-3.5-3.5-3.5-6c0-2.5 .5-4.8 1.6-7c1.2-2.6 3.5-6 6.8-10.1l1.8 1.3c-2.1 2.5-3.6 4.5-4.4 6.1c-.8 1.6-1.2 3.2-1.2 4.7c0 2.1 .9 3.7 2.7 4.7c1.7 1.1 4.4 1.6 8.1 1.6c1.9 0 4.6-.4 8-1.1c3.3-.7 5-1.3 5-1.8c0-.2-.6-.4-1.9-.6c-1.3-.2-2.7-.3-4.3-.3c-2.2 0-3.4-.5-3.4-1.5c0-.5 .3-1.3 .8-2.5c.4-.8 .8-1.6 1.2-2.4c.7-1.7 2.1-3 4.2-4c2.1-1 4.2-1.5 6.5-1.5h19c0-1.8 0-3-.1-3.7c-.2-1.2-.5-2.2-1-3c-.6 1.2-1.5 2.2-2.6 2.8c-1 .7-2.2 1-3.4 1c-1.6 0-2.9-.5-4-1.5c-1.1-1.1-1.7-2.4-1.7-4c0-2.4 .8-5.1 2.2-8.4c1.6-3.5 3.1-5.3 4.8-5.3Zm360.4-1l5.4 3.1l-3.3 6l-4.2-2.3l-2.4 4.7l-5.6-3.1l3.1-5.8l4.4 2.3Zm-179.2-.2l5.5 3.1l-3.1 5.8l-4.4-2.2l-2.5 4.8l-5.4-3.1l3.3-6l4.2 2.4Zm-422.2-3.3c2.4 0 4.4 .7 6.1 2c1.6 1.4 2.5 3.2 2.5 5.4c0 1.2-.4 2.3-1.1 3.2c-.8 1.1-1.8 1.6-3.1 1.6c-1 0-1.8-.3-2.5-1c-.7-.6-1-1.4-1-2.3c0-1.3 .6-2.3 1.7-3c1.1-.7 1.6-1.3 1.6-1.7c0-.7-.3-1.2-1-1.6c-.6-.4-1.4-.7-2.5-.7c-1.2 0-2.3 .4-3.1 1.1c-.9 .8-1.3 1.6-1.3 2.7c0 1 .4 2.2 1.3 3.7c1.3 2.3 2 3.8 2.3 4.5c.8 2.1 1.3 4.3 1.3 6.8c0 1.3-.1 2.8-.3 4.4l-1.9-.1c0-.3 .1-.6 .1-.8l.1-1.5c0-1.2-.7-2.4-2.2-3.7c-2.5-2.2-3.9-3.5-4.1-3.7c-1.5-1.8-2.2-3.8-2.2-6c0-2.7 .9-4.9 2.6-6.7c1.8-1.7 4-2.6 6.7-2.6Zm526.9-.2l5.5 3l-3.1 5.8l-4.4-2.2l-2.5 4.8l-5.4-3l3.2-6.1l4.3 2.4Zm-179 0l5.6 3l-3.1 5.8l-4.4-2.2l-2.6 4.8l-5.4-3l3.3-6.1l4.2 2.4Zm-277.5-.8l6.9 3.7l-3.6 6.6l-6.9-3.6Zm870.3-.5c1.1 1.6 1.9 3.2 2.4 4.7c.5 1.8 .8 4.1 .8 6.9v5.9c0 4.1 .3 7 .8 8.6c.5 1.3 1.2 2 2.1 2h8c1.8 0 3.2-.3 4.3-.7c1.3-.6 2.2-1.5 2.8-2.9c1.1-2.5 2.5-4.6 4.3-6.2c1.6-1.5 2.9-2.2 4-2.2c1 0 2.3 1.5 3.8 4.6c1.5 3.2 2.3 6.2 2.3 8.9v6.5c-2.1 0-4.5-.4-7.3-1.2c-2.5-.7-4.7-1.5-6.6-2.5c-1.1 1.7-2.6 2.8-4.3 3.4c-.8 .2-1.9 .4-3.3 .4h-8c-2.3 0-4-1-5-2.9c-1.2-2.1-1.8-5.6-1.8-10.6v-8.5c0-2-.2-3.5-.7-4.5c-.3-.5-.9-1.3-1.8-2.3Zm-26.7 0l1.8 10.5c.7 4 1.1 7.5 1.4 10.5c.2 2.2 .3 4.4 .3 6.5c0 1.8-.3 3.4-.7 4.8c-.4 1.5-1.2 3.5-2.4 5.9l-1.8-.7c.5-2.5 .8-4.6 .8-6.2c0-1.2-.2-3-.4-5.3c-.2-2.4-.4-4.7-.7-7c-.3-2.3-.8-5-1.5-8.2c-.2-1.1-.3-1.9-.3-2.3c0-.6 .3-1.7 .9-3.1c.6-1.5 1.5-3.3 2.6-5.4Zm-359.3 0l1.8 10.5c.6 4 1.1 7.5 1.3 10.5c.2 2.2 .3 4.4 .3 6.5c0 1.8-.2 3.4-.6 4.8c-.4 1.5-1.2 3.5-2.4 5.9l-1.8-.7c.5-2.5 .7-4.6 .7-6.2c0-1.2-.1-3-.3-5.3c-.2-2.4-.4-4.7-.7-7c-.3-2.3-.8-5-1.5-8.2c-.2-1.1-.4-1.9-.4-2.3c0-.6 .4-1.7 1-3.1c.6-1.5 1.5-3.3 2.6-5.4Zm-108.9 0l1.8 10.5c.6 4 1.1 7.5 1.3 10.5c.2 2.2 .3 4.4 .3 6.5c0 1.8-.2 3.4-.6 4.8c-.4 1.5-1.2 3.5-2.4 5.9l-1.8-.7c.5-2.5 .7-4.6 .7-6.2c0-1.2-.1-3-.3-5.3c-.2-2.4-.4-4.7-.7-7c-.3-2.3-.8-5-1.5-8.2c-.2-1.1-.4-1.9-.4-2.3c0-.6 .4-1.7 1-3.1c.6-1.5 1.5-3.3 2.6-5.4Zm-70.1 0l1.8 10.5c.7 4 1.1 7.5 1.4 10.5c.2 2.2 .3 4.4 .3 6.5c0 1.8-.2 3.4-.6 4.8c-.4 1.5-1.3 3.5-2.4 5.9l-1.8-.7c.4-2.5 .7-4.6 .7-6.2c0-1.2-.1-3-.3-5.3c-.2-2.4-.5-4.7-.8-7c-.3-2.3-.7-5-1.4-8.2c-.3-1.1-.4-1.9-.4-2.3c0-.6 .3-1.7 .9-3.1c.7-1.5 1.5-3.3 2.6-5.4Zm-202.7 0l1.8 10.5c.6 4 1.1 7.5 1.3 10.5c.2 2.2 .3 4.4 .3 6.5c0 1.8-.2 3.4-.6 4.8c-.4 1.5-1.2 3.5-2.4 5.9l-1.8-.7c.5-2.5 .7-4.6 .7-6.2c0-1.2-.1-3-.3-5.3c-.2-2.4-.4-4.7-.7-7c-.3-2.3-.8-5-1.5-8.2c-.2-1.1-.4-1.9-.4-2.3c0-.6 .4-1.7 1-3.1c.6-1.5 1.5-3.3 2.6-5.4Zm328.7-1.2l6.9 3.7l-3.5 6.6l-7-3.6Zm93.8-.7l5.5 2.9l-3 6.2l-5.6-3Zm304.7-.5l1.4 .7c0 .2-.1 .5-.1 1c0 .7 .4 1.3 1.2 1.9c.8 .6 1.9 1.2 3.5 1.9c-.1 1.2-.4 2.5-.8 3.7c-.3 1.2-.7 2.3-1.1 3.2l-1.1-.4l3.2 18.5v8.1h-27.7c-1.4 0-2.4-.3-3.1-.9c-.8-.6-1.2-1.7-1.2-3.3c0-.8 0-1.8 .1-2.8c.1-1 .2-2 .4-3.1h1.1c.2 .7 .6 1.2 1.1 1.5c.5 .3 1.2 .5 2 .5h10.2c-.4-2.9-1.2-5.3-2.4-7c-.9-1.5-2.2-2.7-3.9-3.8l2.2-9.3c2.6 1.9 4.4 4.4 5.5 7.4c1 2.9 1.5 6.6 1.5 11.2v1.5h10.7l-3.6-20.3l-2-1.2c0-1.2 .2-2.4 .6-3.6c.4-1.5 1.2-3.3 2.3-5.4Zm-359.3 0l1.4 .7c0 .2-.1 .5-.2 1c0 .7 .4 1.3 1.3 1.9c.7 .6 1.9 1.2 3.5 1.9c-.2 1.2-.4 2.5-.8 3.7c-.3 1.2-.7 2.3-1.2 3.2l-1-.4l3.2 18.5v8.1H991.1c-1.6 0-3-.3-4.2-1c-1.1-.6-2.1-1.6-2.8-3.1c-1.3 1.6-3 2.8-5.1 3.4c-1.4 .5-2.8 .7-4.5 .7H957v.7c0 1.2-.7 2.8-2.1 4.8c-1.4 2-3 3.7-4.9 5.2c-2 1.6-3.8 2.4-5.3 2.4c-1.7 0-3.6-.5-5.6-1.5c-1.7-.8-4.5-2.5-8.2-5.1l1.2-1.8c1.8 1.1 3.3 2 4.4 2.4c1.1 .4 2.2 .6 3.5 .6c1.4 0 2.8-.4 4.1-1.2c1.4-.7 3.3-2.2 5.6-4.3c3.3-2.9 5-5.2 5-6.8c0-.8-.3-1.8-1-3.1c-.7-1.5-1.6-2.7-2.6-3.7l1.7-8c1.3 1.4 2.4 3 3.1 4.8c.7 1.8 1.1 3.8 1.1 6.1v.4h13.6c-.2-1.4-.6-2.5-1.2-3.5c-.3-.5-1-1.4-2.1-2.6l2.4-7.1c1.5 1.6 2.5 3.4 3.1 5.3c.4 1.6 .7 3.9 .8 6.9v1h.9c1.7 0 2.8-.1 3.5-.3c.7-.2 1.6-.5 2.7-1.1c-.6-1.2-1.1-2.1-1.5-2.6c-.6-.6-1.1-.9-1.7-.9c-.2 0-.4 .1-.6 .2c-.2 .2-.4 .5-.6 .9l-1.4-.2c0-3.6 .6-6.2 1.9-7.7c1.2-1.5 3.2-2.3 5.9-2.3c2.7 0 4.9 .5 6.5 1.6c1.6 1.1 2.4 2.6 2.4 4.5c0 1-.2 1.9-.7 2.9c-.4 .9-1.2 2.2-2.3 3.7c.3 .4 .6 .7 1.1 .9c.5 .3 1 .4 1.4 .4h18c-.2-1.4-.6-2.5-1.2-3.5c-.3-.5-1-1.4-2.1-2.6l2.4-7.1c1.5 1.6 2.5 3.4 3.1 5.3c.4 1.6 .7 3.9 .8 6.9v1h10.6l-3.6-20.3l-1.9-1.2c0-1.2 .2-2.4 .6-3.6c.4-1.5 1.2-3.3 2.3-5.4Zm-179 0l1.4 .7c0 .2 0 .5-.1 1c0 .7 .4 1.3 1.3 1.9c.7 .6 1.9 1.2 3.5 1.9c-.2 1.2-.5 2.5-.8 3.7c-.4 1.2-.8 2.3-1.2 3.2l-1.1-.4l3.3 18.5v8.1h-35c-2.3 0-4-1-5-2.9c-1.2-2.1-1.8-5.6-1.8-10.6v-8.5c0-2-.2-3.5-.8-4.5c-.2-.5-.8-1.3-1.8-2.3l3.3-7.4c1.1 1.6 1.9 3.2 2.4 4.7c.5 1.8 .8 4.1 .8 6.9v5.9c0 4.1 .3 7 .8 8.6c.4 1.3 1.1 2 2.1 2h17.8c-.3-1.4-.7-2.5-1.2-3.5c-.3-.5-1-1.4-2.1-2.6l2.4-7.1c1.5 1.6 2.5 3.4 3 5.3c.5 1.6 .8 3.9 .8 6.9v1h10.7l-3.6-20.3l-1.9-1.2c0-1.2 .2-2.4 .5-3.6c.5-1.5 1.2-3.3 2.3-5.4Zm-45.1 0l1.4 .7c0 .2 0 .5-.1 1c0 .7 .4 1.3 1.3 1.9c.7 .6 1.9 1.2 3.5 1.9c-.2 1.2-.5 2.5-.8 3.7c-.4 1.2-.8 2.3-1.2 3.2l-1.1-.4l3.3 18.5v8.1H767.6c-.7 0-1.4-.2-2-.5c-1.1-.6-2.1-1.6-2.9-3.1c-1.1-2.1-1.8-5-2.1-8.7c-1.3 1.7-2.4 2.9-3.1 3.6c-1.1 1-2 1.5-2.8 1.5c-.4 0-.8-.1-1.4-.2l-3.7-.7c-1.5-.3-2.5-.6-2.8-.7c-.4-.1-.5-.4-.5-.7c0-.6 .6-2.3 2-5.1c1.4-2.9 2.4-4.6 3-5.3c.5-.5 1.4-1.2 2.7-2.1c.7-.5 1.8-1.2 3.2-2l1.6-.9c-.1-.3-.1-.6-.2-.9c0-.3 0-.5 0-.8c0-.7 .2-1.7 .5-2.8c.4-1.2 1-2.6 1.9-4.3l2.8 18.6c.5 2.9 1.1 4.9 1.8 5.9c.5 .7 1.2 1.1 2 1.1h17.5c-.3-1.4-.7-2.5-1.2-3.5c-.3-.5-1-1.4-2.1-2.6l2.4-7.1c1.5 1.6 2.5 3.4 3 5.3c.5 1.6 .8 3.9 .8 6.9v1h10.7l-3.6-20.3l-1.9-1.2c0-1.2 .2-2.4 .5-3.6c.5-1.5 1.2-3.3 2.3-5.4Zm-157.6 0l1.4 .7c0 .2-.1 .5-.2 1c0 .7 .4 1.3 1.3 1.9c.7 .6 1.9 1.2 3.5 1.9c-.2 1.2-.4 2.5-.8 3.7c-.3 1.2-.7 2.3-1.2 3.2l-1-.4l3.2 18.5v8.1H628.2v-.2h-.4c-1.4-.2-3.1-.6-4.8-1.1c-2.5-.7-4.7-1.5-6.6-2.5c-1.1 1.7-2.6 2.8-4.3 3.4c-.8 .2-1.9 .4-3.3 .4H540.1c0 4.6-1.5 7.9-4.4 10c-2.6 1.7-6.4 2.6-11.6 2.6c-4.8 0-8.6-.9-11.2-2.7c-2.6-1.7-3.9-4.2-3.9-7.5c0-2.7 .4-5.2 1.3-7.5c.9-2.5 2.7-5.8 5.3-9.9l1.8 1.3c-2 3.4-3.2 5.8-3.9 7.3c-.5 1.5-.9 3.1-.9 4.7c0 2.1 1.2 3.8 3.4 5.1c2.2 1.3 5.2 2 8.8 2c3.6 0 6.6-.7 9-2.1c2.5-1.4 3.7-3 3.7-5c0-1.3-.2-2.5-.6-3.7c-.5-1.2-1.4-3.1-2.8-5.8l2.6-8.1c1.1 2.2 1.7 3.4 1.9 3.7c.6 1.2 1 2.3 1.2 3.4c.2 1 .3 2.4 .3 4.1c1.3 0 2.5-.4 3.5-1c.2-.1 1.1-.8 3-2.1l10.7-7.6c1.6-1.2 2.9-2 3.7-2.4c1.2-.6 2.3-.9 3.5-.9c2.2 0 4 .8 5.3 2.4c1.4 1.8 2.2 4.6 2.2 8.3v3.3h13.6c-.2-1.4-.6-2.5-1.2-3.5c-.3-.5-1-1.4-2.1-2.6l2.4-7.1c1.5 1.6 2.5 3.4 3.1 5.3c.4 1.6 .7 3.9 .8 6.9v1h13.5c-.2-1.4-.6-2.5-1.2-3.5c-.3-.5-1-1.4-2.1-2.6l2.4-7.1c1.5 1.6 2.5 3.4 3.1 5.3c.4 1.6 .7 3.9 .8 6.9v1h3.7c1.8 0 3.2-.3 4.3-.7c1.3-.6 2.3-1.5 2.8-2.9c1.1-2.5 2.6-4.6 4.3-6.2c1.6-1.5 2.9-2.2 4-2.2c1 0 2.3 1.5 3.8 4.6c1.2 2.4 1.9 4.7 2.2 6.8v.6H641l-3.6-20.3l-1.9-1.2c0-1.2 .2-2.4 .6-3.6c.4-1.5 1.2-3.3 2.3-5.4Zm629.2-.3l6.9 3.7l-3.5 6.7l-7-3.6Zm91.7-4l7 3.7l-3.6 6.7l-7-3.7Zm-641.7-.3l6.9 3.7l-3.6 6.7l-6.9-3.6Zm41.7-1.4l5.3 2.8l-3.3 5.5l-4.2-2.4l-2.4 4.7l-5.5-3l3.1-5.2l4.4 2.2Z" class="g1_13"/>
<image clip-path="url(#c1_13)" preserveAspectRatio="none" x="1344" y="457" width="108" height="72" href="img/2.jpg"/>
<image clip-path="url(#c2_13)" preserveAspectRatio="none" x="1347" y="550" width="102" height="71" href="img/3.jpg"/>
<image clip-path="url(#c3_13)" preserveAspectRatio="none" x="1347" y="642" width="102" height="74" href="img/4.jpg"/>
<image clip-path="url(#c4_13)" preserveAspectRatio="none" x="1353" y="745" width="96" height="80" href="img/5.jpg"/>
<image clip-path="url(#c5_13)" preserveAspectRatio="none" x="2" y="427" width="892" height="227" href="img/6.jpg"/>
</svg>