<svg viewBox="0 0 1466 825" version="1.1" xmlns="http://www.w3.org/2000/svg">
<defs>
<clipPath id="c0_41"><path d="M-.2 825.3V-.2H1467V825.3Z"/></clipPath>
<clipPath id="c1_41"><path d="M1343.9 529.1V456.4H1452v72.7Z"/></clipPath>
<clipPath id="c2_41"><path d="M582.7 514.8V443.2H685.6v71.6Z"/></clipPath>
<clipPath id="c3_41"><path d="M1346.4 716.6V641.9h103v74.7Z"/></clipPath>
<clipPath id="c4_41"><path d="M589.5 716.6V636.2h96.1v80.4Z"/></clipPath>
<clipPath id="c5_41"><path d="M1084.6 626V456.4h238.3V626Z"/></clipPath>
<clipPath id="c6_41"><path d="M1046.1 821.5V653.1h291.3V821.5Z"/></clipPath>
<clipPath id="c7_41"><path d="M229 564.4V421H583.3V564.4Z"/></clipPath>
<clipPath id="c8_41"><path d="M213.3 793.6V625.4H568.5V793.6Z"/></clipPath>
<style>
.g0_41{fill:#F00;}
.g1_41{fill:none;stroke:#000;stroke-width:1.466;stroke-linejoin:round;}
.g2_41{fill:none;stroke:#F00;stroke-width:9.166;stroke-miterlimit:8;}
</style>
</defs>
<image clip-path="url(#c0_41)" preserveAspectRatio="none" x="0" y="-7" width="1467" height="840" href="img/1.jpg"/>
<path fill-rule="evenodd" d="M346.4 348.2l3.7 2.4l-2.9 3.3l-3.2-2l-2.3 2.5l-3.8-2l2.9-3.6l3.2 2.1Zm1079-2.9l4.6 2.4l-2.2 4.1l-4.5-2.4l-2.3 4l-4.5-2.5l2.2-4.1l4.5 2.3Zm-180.2-10l6.9 3.7l-3.5 6.6l-7-3.6Zm-427.3 0l6.9 3.7l-3.6 6.6l-6.9-3.6Zm-416 0l6.9 3.7l-3.5 6.6l-7-3.6Zm872.4-.3l5.5 3l-3.1 5.8l-4.4-2.2l-2.5 4.8l-5.4-3l3.3-6.1l4.2 2.4Zm-145.8 0l5.6 3l-3.1 5.8l-4.4-2.2l-2.6 4.8l-5.4-3l3.3-6.1l4.2 2.4Zm-59.2 0l5.6 3l-3.1 5.8l-4.5-2.2l-2.5 4.8l-5.4-3l3.3-6.1l4.2 2.4Zm-334.4 0l5.6 3l-3.1 5.8l-4.5-2.2l-2.5 4.8l-5.4-3l3.3-6.1l4.2 2.4Zm-436-9.3c1 0 1.9 .4 2.6 1.1c.7 .8 1 1.7 1 2.7c0 1-.4 1.8-1.1 2.6c-.7 .7-1.6 1.1-2.6 1.1c-1 0-1.8-.4-2.5-1.1c-.8-.8-1.1-1.6-1.1-2.6c0-1.1 .3-1.9 1.1-2.7c.7-.7 1.6-1.1 2.6-1.1Zm704.5-5.8c-.6 0-1.1 .2-1.5 .7c-.3 .5-.5 1-.5 1.6c0 .7 .4 1.3 1.2 1.8c.8 .4 1.8 .7 3.1 .7h1.1c-.5-3.2-1.7-4.8-3.4-4.8Zm-225.5 0c-.6 0-1.1 .2-1.5 .7c-.3 .5-.5 1-.5 1.6c0 .7 .4 1.3 1.2 1.8c.8 .4 1.8 .7 3.1 .7h1.1c-.5-3.2-1.7-4.8-3.4-4.8ZM665 319.7c-.8 0-1.4 .9-2 2.7c1.1 .4 1.9 .7 2.4 .9c1.6 .6 2.5 .9 2.7 .9c.4 0 .7-.2 .7-.5c0-.4-.5-1.2-1.3-2.2c-1-1.2-1.8-1.8-2.5-1.8Zm-86.8-3.6c-.4 0-.7 .2-1 .4c-.3 .3-.4 .7-.4 1.2c0 .6 .4 1.1 1.2 1.7c.9 .5 2.1 1 3.7 1.5c-.7-2-1.3-3.2-1.7-3.9c-.5-.6-1.1-.9-1.8-.9Zm856-2.8c1.1 0 2.1 .5 2.7 1.4c.7 .9 1.1 2.1 1.1 3.6c0 1.1-.2 2-.4 2.7c-.2 .7-.7 1.6-1.4 2.8c-.5-1.4-1-2.3-1.3-2.8c-.4-.4-.9-.6-1.6-.6c-1.1 0-2.6 .6-4.5 1.8c-1.8 1.3-2.8 2.3-2.8 3.1c0 .5 .4 .8 1.2 .9c.5 .2 1.3 .2 2.5 .2c.3 0 .6 0 .8 0c.3 0 .6 0 .9 0c2.2 0 3.6 .2 4.3 .7c.7 .3 1 1.1 1 2.2c0 2.1-.4 4.2-1.2 6.1c-1 2.5-2.5 4.3-4.3 5.3c-2.4 1.4-4.9 2.4-7.4 3.2c-2.6 .9-5 1.3-7.2 1.3c-6.1 0-9.2-2.8-9.2-8.3c0-2.9 .3-5.3 1-7.3c.8-2.3 2.4-5.3 4.9-9.2l1.4 .9c-1.5 2.5-2.6 4.7-3.3 6.6c-.7 2-1.1 3.7-1.1 5.1c0 3.8 2.1 5.6 6.3 5.6c1.6 0 3.1-.1 4.6-.4c1.4-.3 2.9-.7 4.3-1.2c1-.3 2.1-.8 3.3-1.3c2-.9 3-1.3 3.1-1.4c.9-.5 1.4-.9 1.4-1.3c0-.2-.5-.3-1.5-.4c-.9 0-1.6 0-2 0c-3.1 0-5.1-.5-6.2-1.3c-.8-.8-1.2-2.1-1.2-4c0-.9 .3-2.1 .9-3.5c.6-1.4 1.3-2.7 2.3-4.1c1.4-2.1 2.9-3.7 4.3-4.7c1.5-1.1 2.9-1.7 4.3-1.7Zm-459.4 0c1.1 0 2 .5 2.7 1.4c.7 .9 1 2.1 1 3.6c0 1.1-.1 2-.3 2.7c-.2 .7-.7 1.6-1.4 2.8c-.5-1.4-1-2.3-1.4-2.8c-.3-.4-.9-.6-1.6-.6c-1 0-2.5 .6-4.4 1.8c-1.9 1.3-2.8 2.3-2.8 3.1c0 .5 .4 .8 1.1 .9c.6 .2 1.4 .2 2.5 .2c.3 0 .6 0 .9 0c.3 0 .6 0 .9 0c2.2 0 3.6 .2 4.3 .7c.6 .3 .9 1.1 .9 2.2c0 2.1-.4 4.2-1.1 6.1c-1 2.5-2.5 4.3-4.4 5.3c-2.3 1.4-4.8 2.4-7.4 3.2c-2.5 .9-4.9 1.3-7.1 1.3c-6.2 0-9.3-2.8-9.3-8.3c0-2.9 .4-5.3 1.1-7.3c.8-2.3 2.4-5.3 4.9-9.2l1.4 .9c-1.5 2.5-2.6 4.7-3.3 6.6c-.8 2-1.1 3.7-1.1 5.1c0 3.8 2.1 5.6 6.3 5.6c1.6 0 3.1-.1 4.5-.4c1.5-.3 2.9-.7 4.4-1.2c.9-.3 2-.8 3.3-1.3c1.9-.9 3-1.3 3.1-1.4c.9-.5 1.3-.9 1.3-1.3c0-.2-.4-.3-1.4-.4c-1 0-1.6 0-2 0c-3.1 0-5.2-.5-6.2-1.3c-.8-.8-1.2-2.1-1.2-4c0-.9 .2-2.1 .8-3.5c.6-1.4 1.4-2.7 2.4-4.1c1.4-2.1 2.9-3.7 4.3-4.7c1.5-1.1 2.9-1.7 4.3-1.7Zm131-.9c-.6 .2-1.1 .5-1.5 .7c-1.1 .5-1.9 1.1-2.6 1.6c-.5 .4-.9 .7-1.2 1.1c-.4 .4-.6 .7-.6 1c0 .2 .4 .5 1 .6c.8 .2 1.4 .3 2.1 .3c.5 0 .9-.2 1.4-.4c.5-.3 1.1-.7 2-1.4Zm-326.6-.5c1.6 0 2.9 1.1 4 3.3c1.1 2.2 1.7 4.8 1.7 7.8v7.7c0 3.4-1.5 6.8-4.4 10.1c-2.9 3.4-5.7 5.1-8.5 5.1c-1.7 0-3.5-.6-5.5-1.6c-1.9-1.1-4.9-3.1-9-6.2l1.3-1.8c2.1 1.4 3.9 2.4 5.3 2.9c1.1 .4 2.4 .6 3.8 .6c1.9 0 3.8-.6 5.7-1.6c2.3-1.3 4.6-3.4 6.9-6.2c-.8 .2-1.5 .2-2.1 .2c-1.9 0-3.5-.6-4.6-1.9c-1.2-1.3-1.8-3-1.8-5.2c0-3 .7-5.9 2.1-8.7c1.5-3 3.2-4.5 5.1-4.5Zm44.7-.4c1.5 1.6 2.6 3.4 3.1 5.3c.6 1.8 .8 4.6 .8 8.2v7.8H811.3v.7c0 1.2-.7 2.8-2.1 4.8c-1.4 2-3.1 3.7-4.9 5.2c-2.1 1.6-3.9 2.4-5.3 2.4c-1.8 0-3.7-.5-5.7-1.5c-1.7-.8-4.4-2.5-8.1-5.1l1.2-1.8c1.8 1.1 3.2 2 4.3 2.4c1.1 .4 2.3 .6 3.6 .6c1.3 0 2.7-.4 4.1-1.2c1.4-.7 3.2-2.2 5.6-4.3c3.3-2.9 4.9-5.2 4.9-6.8c0-.8-.3-1.8-.9-3.1c-.7-1.5-1.6-2.7-2.6-3.7l1.6-8c1.4 1.4 2.4 3 3.2 4.8c.7 1.8 1.1 3.8 1.1 6.1v.4h13.5c-.2-1.4-.6-2.5-1.1-3.5c-.4-.5-1-1.4-2.1-2.6Zm-86.9 0c1.5 1.6 2.6 3.4 3.1 5.3c.5 1.6 .8 3.9 .8 6.9v1h13.5c-.2-1.4-.6-2.5-1.1-3.5c-.3-.5-1-1.4-2.1-2.6l2.3-7.1c1.5 1.6 2.6 3.4 3.1 5.3c.6 1.8 .8 4.6 .8 8.2v7.8H724.3v.5c-.1 1.8-.3 3.4-.7 4.6c-.6 1.7-1.4 3-2.7 4c-1.2 1-3 1.9-5.3 2.5c-2.4 .7-4.8 1-7.3 1c-4.8 0-8.6-.9-11.2-2.7c-2.6-1.7-3.9-4.2-3.9-7.5c0-2.7 .4-5.2 1.3-7.5c.9-2.5 2.7-5.8 5.3-9.9l1.8 1.3c-2 3.4-3.3 5.8-3.8 7.3c-.7 1.5-1 3.1-1 4.7c0 2.1 1.2 3.8 3.4 5.1c2.2 1.3 5.2 2 8.8 2c3.6 0 6.6-.7 9-2.1c2.5-1.4 3.7-3 3.7-5c0-1.3-.2-2.5-.7-3.7c-.4-1.2-1.3-3.1-2.7-5.8l2.6-8.1c1.4 2.6 2.3 4.3 2.6 5.3c.5 1.5 .8 3.3 .9 5.6v.3h13.5c-.2-1.4-.6-2.5-1.1-3.5c-.3-.5-1-1.4-2.1-2.6Zm301.9-.6c1.3 0 2.6 .3 3.8 1c1.2 .6 2.6 1.6 4.1 3.1c1.2 1.1 2.9 2.8 5.1 5.2c1.5 1.6 2.6 2.7 3.4 3.2c.8 .5 1.9 .9 3.5 1.3h13.5c-.2-1.4-.6-2.5-1.1-3.5c-.4-.5-1-1.4-2.1-2.6l2.3-7.1c1.5 1.6 2.6 3.4 3.1 5.3c.6 1.8 .8 4.6 .8 8.2v7.8H1010l-.7 3c-.7 1.7-1.8 3.4-3.3 5c-2.9 3.4-5.7 5.1-8.5 5.1c-1.7 0-3.5-.6-5.5-1.6c-1.9-1.1-4.9-3.1-9-6.2l1.3-1.8c2.1 1.4 3.9 2.4 5.3 2.9c1.1 .4 2.4 .6 3.8 .6c1.9 0 3.8-.6 5.7-1.6c2.3-1.3 4.6-3.4 6.9-6.2c-.8 .2-1.5 .2-2.1 .2c-1.9 0-3.5-.6-4.6-1.9c-1.2-1.3-1.8-3-1.8-5.2c0-3 .7-5.9 2.1-8.7c1.5-3 3.2-4.5 5.1-4.5c1.6 0 2.9 1.1 4 3.3c1.1 2.2 1.7 4.8 1.7 7.8v1.7h13.5c-.2-1.4-.6-2.5-1.1-3.5c-.4-.5-1-1.4-2.1-2.6l2.3-7.1c1.5 1.6 2.6 3.4 3.1 5.3c.5 1.6 .8 3.9 .8 6.9v1H1046c-2.5-2.5-4.7-4.3-6.7-5.4c-1.8-1-3.6-1.5-5.3-1.5c-.5 0-1 .1-1.4 .1c-.5 .1-1.1 .2-1.9 .4c1.1-2.6 2.3-4.4 3.7-5.6c1.3-1.2 2.8-1.8 4.5-1.8Zm-667.1-.7c-.5 0-1.1 .3-1.6 .8c-.4 .5-.7 1.2-.7 1.9c0 .4 .2 .8 .6 1.1c.3 .3 .8 .5 1.4 .5c.4 0 .9-.1 1.4-.4c.4-.3 1-.7 1.7-1.4c-.6-.9-1-1.6-1.4-1.9c-.4-.4-.9-.6-1.4-.6Zm131.5-3.6c2.2 0 4.3 .8 6.3 2.2c1.8 1.4 3.2 3 4 4.9l-1.2 1.1c-1.6-.6-2.8-1-3.8-1.2c-.9-.1-2-.2-3.4-.2c-2.4 0-4.6 .2-6.4 .6c-2.3 .5-3.4 1.2-3.4 2.1c0 1.4 2.8 3.6 8.3 6.8l15.1-4.3l-3.3 8.4c-5.4 1.7-9.8 2.9-13.3 3.8c-3 .8-5.6 1.4-7.7 1.6c-1.5 .3-3 .4-4.6 .4h-.6v.5c-.1 1.8-.3 3.4-.8 4.6c-.5 1.7-1.4 3-2.6 4c-1.2 1-3 1.9-5.4 2.5c-2.3 .7-4.8 1-7.3 1c-4.8 0-8.5-.9-11.1-2.7c-2.6-1.7-3.9-4.2-3.9-7.5c0-2.7 .4-5.2 1.2-7.5c.9-2.5 2.7-5.8 5.4-9.9l1.8 1.3c-2 3.4-3.3 5.8-3.9 7.3c-.6 1.5-.9 3.1-.9 4.7c0 2.1 1.1 3.8 3.4 5.1c2.2 1.3 5.1 2 8.8 2c3.5 0 6.5-.7 9-2.1c2.4-1.4 3.7-3 3.7-5c0-1.3-.3-2.5-.7-3.7c-.4-1.2-1.3-3.1-2.7-5.8l2.6-8.1c1.4 2.6 2.2 4.3 2.5 5.3c.6 1.5 .9 3.3 .9 5.6v.3h1.1c.6 0 1.1 0 1.3-.1c.6 0 1.2-.1 1.8-.1c-1-1.5-1.7-2.7-2-3.7c-.3-.9-.5-1.9-.5-3.1c0-2.9 1.2-5.5 3.7-7.7c2.4-2.3 5.3-3.4 8.6-3.4Zm204.3-2.5l7 3.7l-3.6 6.7l-7-3.6Zm-235 0l6.9 3.7l-3.5 6.7l-7-3.6Zm-100.2-1.5c2.1 0 4 1.9 5.9 5.5c1.8 3.6 2.8 7.5 2.8 11.5v13.2H359.4c-.9 0-1.5 0-1.9 0c-.4 .1-.6 .2-.6 .4c.6 .4 1.1 .6 1.6 .7c.5 .1 .9 .3 1 .5c.2 .2 .3 .6 .3 1c0 1.4-.4 3.1-1.2 5.1c-.8 1.9-1.6 3.2-2.4 3.6c-.7 .6-2.9 1.4-6.6 2.2c-3.6 .8-6.7 1.2-9.3 1.2c-3.8 0-6.8-.8-9.1-2.4c-2.3-1.5-3.4-3.5-3.4-6c0-2.5 .5-4.8 1.5-7c1.2-2.6 3.5-6 6.8-10.1l1.8 1.3c-2.1 2.5-3.5 4.5-4.3 6.1c-.8 1.6-1.2 3.2-1.2 4.7c0 2.1 .8 3.7 2.6 4.7c1.7 1.1 4.5 1.6 8.1 1.6c1.9 0 4.6-.4 8-1.1c3.3-.7 5-1.3 5-1.8c0-.2-.6-.4-1.9-.6c-1.3-.2-2.7-.3-4.3-.3c-2.2 0-3.4-.5-3.4-1.5c0-.5 .3-1.3 .8-2.5c.4-.8 .8-1.6 1.2-2.4c.7-1.7 2.1-3 4.2-4c2.1-1 4.3-1.5 6.5-1.5h19c0-1.8 0-3-.1-3.7c-.2-1.2-.5-2.2-1-3c-.6 1.2-1.5 2.2-2.5 2.8c-1.1 .7-2.3 1-3.5 1c-1.6 0-2.9-.5-4-1.5c-1.1-1.1-1.6-2.4-1.6-4c0-2.4 .7-5.1 2.1-8.4c1.6-3.5 3.2-5.3 4.8-5.3Zm927.2-4.3v7.1c-.1 0-.9 .2-2.5 .8c-1.9 .6-3.5 1.1-4.6 1.6c-1.7 .7-2.5 1.2-2.5 1.5c0 .2 .7 1 2.1 2.4c1.9 1.8 3.5 3.5 4.8 5.1c2.2 2.6 4 5.1 5.3 7.7v8.3h-63.4c-1.3 0-2.3 0-3.1-.1c-.8 0-1.3 0-1.7 0c-.8-.1-1.6-.3-2.6-.7c-1.6-.5-3-1.7-4-3.4c-1.1-1.7-1.6-3.6-1.6-5.7c0-.8 .1-1.7 .2-2.6c.1-.8 .3-1.8 .7-2.8c.3-1.2 .8-2.2 1.4-3.2c.5-.9 1.1-1.8 1.7-2.7l1.6 1.1c-.4 .8-.8 1.5-1.1 2.2c-.3 .6-.5 1.2-.6 1.7c-.3 .9-.5 1.8-.5 2.7c0 1.1 .4 2.1 1.1 3c.7 .9 1.7 1.5 2.8 1.8c.7 .2 1.7 .3 2.8 .4c1.1 .1 2.3 .2 3.5 .2H1261c-.6-1.6-1.1-2.7-1.4-3.3c-.5-.7-1.1-1.7-2-2.8l2.6-7c1.5 2.2 2.5 4.1 3 5.9c.4 1.6 .6 3.9 .6 6.8v.4h13.5c-.2-1.4-.6-2.5-1.2-3.5c-.3-.5-1-1.4-2.1-2.6l2.4-7.1c1.5 1.6 2.5 3.4 3.1 5.3c.5 1.6 .7 3.9 .8 6.9v1h17.2c-.8-1-1.5-1.8-2.3-2.5c-.6-.5-1.4-1.2-2.4-2c-1.1-.9-2.3-1.7-3.4-2.6l-.9 1c-1.8-1.7-2.8-2.8-3.2-3.1c-1-1.2-1.5-2.5-1.5-4c0-2 .2-3.4 .4-4.2c.4-1.1 1.3-2.2 2.6-3.1c1.1-.8 2.4-1.5 3.7-2.1c1-.5 2.4-1.2 4.1-1.8c.8-.4 2.5-1 5-2Zm-1000.3-.2c2.4 0 4.5 .7 6.1 2c1.7 1.4 2.5 3.2 2.5 5.4c0 1.2-.3 2.3-1 3.2c-.9 1.1-1.9 1.6-3.2 1.6c-1 0-1.8-.3-2.5-1c-.6-.6-.9-1.4-.9-2.3c0-1.3 .5-2.3 1.6-3c1.1-.7 1.7-1.3 1.7-1.7c0-.7-.4-1.2-1-1.6c-.6-.4-1.5-.7-2.5-.7c-1.3 0-2.4 .4-3.2 1.1c-.8 .8-1.2 1.6-1.2 2.7c0 1 .4 2.2 1.2 3.7c1.3 2.3 2.1 3.8 2.4 4.5c.8 2.1 1.2 4.3 1.2 6.8c0 1.3-.1 2.8-.3 4.4l-1.8-.1c0-.3 0-.6 0-.8l.2-1.5c0-1.2-.8-2.4-2.2-3.7c-2.5-2.2-3.9-3.5-4.2-3.7c-1.4-1.8-2.2-3.8-2.2-6c0-2.7 .9-4.9 2.7-6.7c1.8-1.7 4-2.6 6.6-2.6Zm1053.1-.2l5.5 3l-3.1 5.8l-4.4-2.2l-2.5 4.8l-5.4-3l3.3-6.1l4.2 2.4Zm-178.8 0l5.6 3l-3.1 5.8l-4.4-2.2l-2.6 4.8l-5.4-3l3.3-6.1l4.2 2.4Zm-152.7 0l5.6 3l-3.1 5.8l-4.5-2.2l-2.5 4.8l-5.4-3l3.3-6.1l4.2 2.4Zm-269.5 0l5.6 3l-3.1 5.8l-4.5-2.2l-2.5 4.8l-5.4-3l3.3-6.1l4.2 2.4Zm-140.2 0l5.5 3l-3.1 5.8l-4.4-2.2l-2.5 4.8l-5.4-3l3.2-6.1l4.3 2.4Zm18.9-.6l7 3.7l-3.6 6.7l-7-3.6Zm819.8-.7l1.8 10.5c.7 4 1.1 7.5 1.4 10.5c.2 2.2 .3 4.4 .3 6.5c0 1.8-.2 3.4-.7 4.8c-.4 1.5-1.2 3.5-2.4 5.9l-1.8-.7c.5-2.5 .8-4.6 .8-6.2c0-1.2-.1-3-.3-5.3c-.2-2.4-.5-4.7-.8-7c-.3-2.3-.8-5-1.4-8.2c-.3-1.1-.4-1.9-.4-2.3c0-.6 .3-1.7 .9-3.1c.6-1.5 1.5-3.3 2.6-5.4Zm-69.7 0l1.8 10.5c.6 4 1.1 7.5 1.3 10.5c.2 2.2 .3 4.4 .3 6.5c0 1.8-.2 3.4-.6 4.8c-.4 1.5-1.2 3.5-2.4 5.9l-1.8-.7c.5-2.5 .7-4.6 .7-6.2c0-1.2-.1-3-.3-5.3c-.2-2.4-.4-4.7-.7-7c-.3-2.3-.8-5-1.5-8.2c-.2-1.1-.3-1.9-.3-2.3c0-.6 .3-1.7 .9-3.1c.6-1.5 1.5-3.3 2.6-5.4Zm-70.4 0l1.8 10.5c.6 4 1.1 7.5 1.3 10.5c.2 2.2 .3 4.4 .3 6.5c0 1.8-.2 3.4-.6 4.8c-.4 1.5-1.2 3.5-2.4 5.9l-1.8-.7c.5-2.5 .7-4.6 .7-6.2c0-1.2-.1-3-.3-5.3c-.2-2.4-.4-4.7-.7-7c-.3-2.3-.8-5-1.5-8.2c-.2-1.1-.3-1.9-.3-2.3c0-.6 .3-1.7 .9-3.1c.6-1.5 1.5-3.3 2.6-5.4Zm-108.4 0l1.8 10.5c.7 4 1.1 7.5 1.4 10.5c.2 2.2 .3 4.4 .3 6.5c0 1.8-.2 3.4-.6 4.8c-.4 1.5-1.3 3.5-2.4 5.9l-1.8-.7c.4-2.5 .7-4.6 .7-6.2c0-1.2-.1-3-.3-5.3c-.2-2.4-.5-4.7-.8-7c-.3-2.3-.7-5-1.4-8.2c-.3-1.1-.4-1.9-.4-2.3c0-.6 .3-1.7 .9-3.1c.7-1.5 1.5-3.3 2.6-5.4Zm-767.8 0l1.8 10.5c.7 4 1.1 7.5 1.4 10.5c.2 2.2 .3 4.4 .3 6.5c0 1.8-.2 3.4-.6 4.8c-.4 1.5-1.3 3.5-2.4 5.9l-1.8-.7c.4-2.5 .7-4.6 .7-6.2c0-1.2-.1-3-.3-5.3c-.2-2.4-.5-4.7-.8-7c-.3-2.3-.7-5-1.4-8.2c-.3-1.1-.4-1.9-.4-2.3c0-.6 .3-1.7 .9-3.1c.7-1.5 1.5-3.3 2.6-5.4Zm932.8-2.4l1.4 .7c0 .2-.1 .5-.1 1c0 .7 .4 1.3 1.2 1.9c.7 .6 1.9 1.2 3.5 1.9c-.2 1.2-.4 2.5-.8 3.7c-.3 1.2-.7 2.3-1.2 3.2l-1-.4l3.2 18.5v8.1h-30.8v.7c0 1.2-.7 2.8-2.1 4.8c-1.4 2-3 3.7-4.9 5.2c-2 1.6-3.8 2.4-5.3 2.4c-1.7 0-3.6-.5-5.6-1.5c-1.7-.8-4.5-2.5-8.2-5.1l1.3-1.8c1.8 1.1 3.2 2 4.3 2.4c1.1 .4 2.3 .6 3.5 .6c1.4 0 2.8-.4 4.2-1.2c1.3-.7 3.2-2.2 5.6-4.3c3.3-2.9 4.9-5.2 4.9-6.8c0-.8-.3-1.8-1-3.1c-.7-1.5-1.5-2.7-2.6-3.7l1.7-8c1.3 1.4 2.4 3 3.1 4.8c.8 1.8 1.1 3.8 1.1 6.1v.4h13.6c-.2-1.4-.6-2.5-1.2-3.5c-.3-.5-1-1.4-2.1-2.6l2.4-7.1c1.5 1.6 2.5 3.4 3.1 5.3c.4 1.6 .7 3.9 .8 6.9v1H1369l-3.6-20.3l-1.9-1.2c0-1.2 .2-2.4 .6-3.6c.4-1.5 1.2-3.3 2.3-5.4Zm-178.8 0l1.4 .7c0 .2 0 .5-.1 1c0 .7 .4 1.3 1.3 1.9c.7 .6 1.9 1.2 3.5 1.9c-.2 1.2-.5 2.5-.8 3.7c-.4 1.2-.8 2.3-1.2 3.2l-1.1-.4l3.3 18.5v8.1h-35c-2.3 0-4-1-5-2.9c-1.2-2.1-1.8-5.6-1.8-10.6v-8.5c0-2-.2-3.5-.8-4.5c-.2-.5-.8-1.3-1.8-2.3l3.3-7.4c1.1 1.6 1.9 3.2 2.4 4.7c.5 1.8 .8 4.1 .8 6.9v5.9c0 4.1 .3 7 .8 8.6c.4 1.3 1.1 2 2.1 2h17.8c-.3-1.4-.7-2.5-1.2-3.5c-.3-.5-1-1.4-2.1-2.6l2.4-7.1c1.5 1.6 2.5 3.4 3 5.3c.5 1.6 .8 3.9 .8 6.9v1h10.7l-3.6-20.3l-1.9-1.2c0-1.2 .2-2.4 .5-3.6c.5-1.5 1.2-3.3 2.3-5.4Zm-45.1 0l1.4 .7c0 .2 0 .5-.1 1c0 .7 .4 1.3 1.3 1.9c.7 .6 1.9 1.2 3.5 1.9c-.2 1.2-.5 2.5-.8 3.7c-.4 1.2-.8 2.3-1.2 3.2l-1.1-.4l3.3 18.5v8.1h-34.7c-.7 0-1.4-.2-2-.5c-1.1-.6-2.1-1.6-2.9-3.1c-1.1-2.1-1.8-5-2.1-8.7c-1.3 1.7-2.4 2.9-3.1 3.6c-1.1 1-2 1.5-2.8 1.5c-.4 0-.8-.1-1.4-.2l-3.7-.7c-1.5-.3-2.5-.6-2.8-.7c-.4-.1-.5-.4-.5-.7c0-.6 .6-2.3 2-5.1c1.4-2.9 2.4-4.6 3-5.3c.5-.5 1.4-1.2 2.7-2.1c.7-.5 1.8-1.2 3.2-2l1.6-.9c-.1-.3-.1-.6-.2-.9c0-.3 0-.5 0-.8c0-.7 .2-1.7 .5-2.8c.4-1.2 1-2.6 1.9-4.3l2.8 18.6c.5 2.9 1.1 4.9 1.8 5.9c.5 .7 1.2 1.1 2 1.1h17.5c-.3-1.4-.7-2.5-1.2-3.5c-.3-.5-1-1.4-2.1-2.6l2.4-7.1c1.5 1.6 2.5 3.4 3 5.3c.5 1.6 .8 3.9 .8 6.9v1h10.7l-3.6-20.3l-1.9-1.2c0-1.2 .2-2.4 .5-3.6c.5-1.5 1.2-3.3 2.3-5.4Zm-255.7 0l1.4 .7c0 .2-.1 .5-.1 1c0 .7 .4 1.3 1.2 1.9c.7 .6 1.9 1.2 3.5 1.9c-.2 1.2-.4 2.5-.8 3.7c-.3 1.2-.7 2.3-1.2 3.2l-1-.4l3.2 18.5h1.1c.6 0 1.1 0 1.3-.1c.6 0 1.2-.1 1.8-.1c-1-1.5-1.7-2.7-2-3.7c-.4-.9-.5-1.9-.5-3.1c0-2.9 1.2-5.5 3.7-7.7c2.4-2.3 5.3-3.4 8.6-3.4c2.2 0 4.3 .8 6.3 2.2c1.8 1.4 3.2 3 4 4.9l-1.2 1.1c-1.6-.6-2.8-1-3.8-1.2c-.9-.1-2-.2-3.4-.2c-2.4 0-4.6 .2-6.4 .6c-2.3 .5-3.4 1.2-3.4 2.1c0 1.4 2.8 3.6 8.3 6.8l15.1-4.3l-3.3 8.4c-5.4 1.7-9.8 2.9-13.3 3.8c-3 .8-5.6 1.4-7.7 1.6c-1.5 .3-3 .4-4.6 .4H876.1c-.7 0-1.3 0-1.8 .1c-.4 .2-.6 .3-.6 .6c0 .1 .4 .3 1.4 .7c1 .4 1.5 1 1.5 1.8c0 1.1-.2 2.4-.5 3.9c-.3 1.6-.8 2.9-1.4 4.2c-.4 .9-1.6 2-3.6 3.3c-2.2 1.3-4.6 2.4-7.3 3.2c-3.2 1-6.1 1.5-8.9 1.5c-3.2 0-5.7-.7-7.3-2.2c-1.7-1.5-2.5-3.7-2.5-6.5c0-3.2 .4-5.9 1.1-8.2c.9-2.8 2.8-6.4 5.6-10.9l1.7 1.2c-1.9 3.2-3.1 5.7-3.8 7.6c-.7 1.9-1.1 3.8-1.1 5.6c0 1.8 .6 3.3 1.8 4.3c1.2 1.1 2.8 1.6 4.8 1.6c2.6 0 5.3-.4 8.2-1.2c2.6-.7 4.9-1.5 6.7-2.5c1.9-1 2.8-1.8 2.8-2.4c0-.2-.5-.3-1.6-.4c-1.1 0-2.1 0-3 0c-2.1 0-3.5-.1-4.1-.3c-.6-.1-.9-.5-.9-1.1c0-1 .2-2.2 .6-3.4c.3-1.1 .8-2.1 1.4-2.7c1.3-1.6 2.8-2.9 4.6-4.1c2-1.2 3.8-1.8 5.4-1.8h14.1l-3.6-20.3l-1.9-1.2c0-1.2 .2-2.4 .6-3.6c.4-1.5 1.2-3.3 2.3-5.4Zm-292.4 0l1.4 .7c0 .2-.1 .5-.2 1c0 .7 .4 1.3 1.3 1.9c.7 .6 1.9 1.2 3.5 1.9c-.2 1.2-.4 2.5-.8 3.7c-.3 1.2-.7 2.3-1.2 3.2l-1-.4l3.2 18.5h13.6c-.2-1.4-.6-2.5-1.2-3.5c-.3-.5-1-1.4-2.1-2.6l2.4-7.1c1.5 1.6 2.5 3.4 3.1 5.3c.4 1.6 .7 3.9 .8 6.9v1h19c-2.4-2.5-4.6-4.3-6.7-5.4c-1.8-1-3.5-1.5-5.3-1.5c-.5 0-1 .1-1.4 .1c-.4 .1-1 .2-1.8 .4c1-2.6 2.3-4.4 3.6-5.6c1.3-1.2 2.9-1.8 4.6-1.8c1.3 0 2.6 .3 3.8 1c1.2 .6 2.5 1.6 4 3.1c1.2 1.1 2.9 2.8 5.1 5.2c1.5 1.6 2.6 2.7 3.4 3.2c.8 .5 2 .9 3.6 1.3h3.7c1.8 0 3.2-.3 4.3-.7c1.3-.6 2.3-1.5 2.8-2.9c1.1-2.5 2.6-4.6 4.3-6.2c1.6-1.5 2.9-2.2 4-2.2c1 0 2.3 1.5 3.8 4.6c1.6 3.2 2.3 6.2 2.3 8.9v6.5c-2 0-4.5-.4-7.3-1.2c-2.5-.7-4.7-1.5-6.6-2.5c-1.1 1.7-2.6 2.8-4.2 3.4c-.9 .2-2 .4-3.4 .4H582.4c-3.5 0-7.5 .1-11.9 .2c-2.6 .1-6.1 .3-10.3 .5c-4.3 .2-6.6 .3-6.9 .3c-4.2 0-7.3-.8-9.2-2.3c-1.7-1.4-2.6-3.5-2.6-6.4c0-2.3 .2-4.3 .7-6c.4-1.7 1.4-4.4 3-8.2l2 .9c-1.5 3.4-2.2 5.9-2.2 7.5c0 2 .8 3.5 2.4 4.4c1.8 1 4.9 1.5 9.3 1.5c3-.2 6-.4 8.9-.5c2.9-.1 5.6-.2 8.3-.2c-.8-.4-1.4-.8-1.7-1.3c-.3-.5-.5-1.2-.5-2.1c0-2.9 .9-5.7 2.6-8.5c1.9-3.1 3.9-4.6 6.2-4.6c2.1 0 3.6 1.5 4.6 4.4c.8 2.7 1.3 6.8 1.3 12.3H597l-3.6-20.3l-1.9-1.2c0-1.2 .2-2.4 .6-3.6c.4-1.5 1.2-3.3 2.3-5.4Zm-174.6 0l1.4 .7c0 .2 0 .5-.1 1c0 .7 .4 1.3 1.3 1.9c.7 .6 1.9 1.2 3.5 1.9c-.2 1.2-.5 2.5-.8 3.7c-.4 1.2-.8 2.3-1.2 3.2l-1.1-.4l3.3 18.5v8.1h-35c-2.3 0-4-1-5-2.9c-1.2-2.1-1.8-5.6-1.8-10.6v-8.5c0-2-.2-3.5-.8-4.5c-.2-.5-.8-1.3-1.8-2.3l3.3-7.4c1.1 1.6 1.9 3.2 2.4 4.7c.5 1.8 .8 4.1 .8 6.9v5.9c0 4.1 .3 7 .8 8.6c.4 1.3 1.1 2 2.1 2h17.8c-.3-1.4-.7-2.5-1.2-3.5c-.3-.5-1-1.4-2.1-2.6l2.4-7.1c1.5 1.6 2.5 3.4 3 5.3c.5 1.6 .8 3.9 .8 6.9v1h10.7l-3.6-20.3l-1.9-1.2c0-1.2 .2-2.4 .5-3.6c.5-1.5 1.2-3.3 2.3-5.4Zm157.3-.3l6.9 3.7l-3.5 6.7l-7-3.6ZM372.7 290l5.5 3l-3.1 5.8l-4.4-2.2l-2.5 4.8l-5.4-3l3.3-6.1l4.2 2.4Zm733.1-1.8l5.3 2.8l-3.3 5.5l-4.2-2.4l-2.4 4.7l-5.5-3l3.1-5.2l4.4 2.2Zm345.1-.2c.4 0 .6 .2 .9 .4c.2 .2 .3 .6 .3 1c0 .3 0 .6-.1 .8c-.1 .2-.3 .6-.6 1c-1-.5-1.6-.7-2-.7c-.3 0-.7 .1-1.1 .2c-.2 .2-.4 .3-.6 .5c0 .3 .5 .7 1.4 1.2c1 .6 1.6 .8 2.1 .8c.2 0 .9-.1 2.1-.4c-.2 .5-.5 1-.8 1.3c-.2 .2-.5 .4-1 .5l-6.4 2c.4-.7 .7-1.2 1-1.5c.3-.3 .9-.5 1.6-.7c-.5-.4-.9-.7-1.2-1c-.2-.3-.3-.6-.3-.9c0-.3 0-.6 .2-.9c.2-.3 .4-.7 .6-1c1.3-1.7 2.6-2.6 3.9-2.6Z" class="g0_41"/>
<path d="M346.4 348.2l3.7 2.4l-2.9 3.3l-3.2-2l-2.3 2.5l-3.8-2l2.9-3.6l3.2 2.1Zm1079-2.9l4.6 2.4l-2.2 4.1l-4.5-2.4l-2.3 4l-4.5-2.5l2.2-4.1l4.5 2.3Zm-180.2-10l6.9 3.7l-3.5 6.6l-7-3.6Zm-427.3 0l6.9 3.7l-3.6 6.6l-6.9-3.6Zm-416 0l6.9 3.7l-3.5 6.6l-7-3.6Zm872.4-.3l5.5 3l-3.1 5.8l-4.4-2.2l-2.5 4.8l-5.4-3l3.3-6.1l4.2 2.4Zm-145.8 0l5.6 3l-3.1 5.8l-4.4-2.2l-2.6 4.8l-5.4-3l3.3-6.1l4.2 2.4Zm-59.2 0l5.6 3l-3.1 5.8l-4.5-2.2l-2.5 4.8l-5.4-3l3.3-6.1l4.2 2.4Zm-334.4 0l5.6 3l-3.1 5.8l-4.5-2.2l-2.5 4.8l-5.4-3l3.3-6.1l4.2 2.4Zm-436-9.3c1 0 1.9 .4 2.6 1.1c.7 .8 1 1.7 1 2.7c0 1-.4 1.8-1.1 2.6c-.7 .7-1.6 1.1-2.6 1.1c-1 0-1.8-.4-2.5-1.1c-.8-.8-1.1-1.6-1.1-2.6c0-1.1 .3-1.9 1.1-2.7c.7-.7 1.6-1.1 2.6-1.1Zm704.5-5.8c-.6 0-1.1 .2-1.5 .7c-.3 .5-.5 1-.5 1.6c0 .7 .4 1.3 1.2 1.8c.8 .4 1.8 .7 3.1 .7h1.1c-.5-3.2-1.7-4.8-3.4-4.8Zm-225.5 0c-.6 0-1.1 .2-1.5 .7c-.3 .5-.5 1-.5 1.6c0 .7 .4 1.3 1.2 1.8c.8 .4 1.8 .7 3.1 .7h1.1c-.5-3.2-1.7-4.8-3.4-4.8ZM665 319.7c-.8 0-1.4 .9-2 2.7c1.1 .4 1.9 .7 2.4 .9c1.6 .6 2.5 .9 2.7 .9c.4 0 .7-.2 .7-.5c0-.4-.5-1.2-1.3-2.2c-1-1.2-1.8-1.8-2.5-1.8Zm-86.8-3.6c-.4 0-.7 .2-1 .4c-.3 .3-.4 .7-.4 1.2c0 .6 .4 1.1 1.2 1.7c.9 .5 2.1 1 3.7 1.5c-.7-2-1.3-3.2-1.7-3.9c-.5-.6-1.1-.9-1.8-.9Zm856-2.8c1.1 0 2.1 .5 2.7 1.4c.7 .9 1.1 2.1 1.1 3.6c0 1.1-.2 2-.4 2.7c-.2 .7-.7 1.6-1.4 2.8c-.5-1.4-1-2.3-1.3-2.8c-.4-.4-.9-.6-1.6-.6c-1.1 0-2.6 .6-4.5 1.8c-1.8 1.3-2.8 2.3-2.8 3.1c0 .5 .4 .8 1.2 .9c.5 .2 1.3 .2 2.5 .2c.3 0 .6 0 .8 0c.3 0 .6 0 .9 0c2.2 0 3.6 .2 4.3 .7c.7 .3 1 1.1 1 2.2c0 2.1-.4 4.2-1.2 6.1c-1 2.5-2.5 4.3-4.3 5.3c-2.4 1.4-4.9 2.4-7.4 3.2c-2.6 .9-5 1.3-7.2 1.3c-6.1 0-9.2-2.8-9.2-8.3c0-2.9 .3-5.3 1-7.3c.8-2.3 2.4-5.3 4.9-9.2l1.4 .9c-1.5 2.5-2.6 4.7-3.3 6.6c-.7 2-1.1 3.7-1.1 5.1c0 3.8 2.1 5.6 6.3 5.6c1.6 0 3.1-.1 4.6-.4c1.4-.3 2.9-.7 4.3-1.2c1-.3 2.1-.8 3.3-1.3c2-.9 3-1.3 3.1-1.4c.9-.5 1.4-.9 1.4-1.3c0-.2-.5-.3-1.5-.4c-.9 0-1.6 0-2 0c-3.1 0-5.1-.5-6.2-1.3c-.8-.8-1.2-2.1-1.2-4c0-.9 .3-2.1 .9-3.5c.6-1.4 1.3-2.7 2.3-4.1c1.4-2.1 2.9-3.7 4.3-4.7c1.5-1.1 2.9-1.7 4.3-1.7Zm-459.4 0c1.1 0 2 .5 2.7 1.4c.7 .9 1 2.1 1 3.6c0 1.1-.1 2-.3 2.7c-.2 .7-.7 1.6-1.4 2.8c-.5-1.4-1-2.3-1.4-2.8c-.3-.4-.9-.6-1.6-.6c-1 0-2.5 .6-4.4 1.8c-1.9 1.3-2.8 2.3-2.8 3.1c0 .5 .4 .8 1.1 .9c.6 .2 1.4 .2 2.5 .2c.3 0 .6 0 .9 0c.3 0 .6 0 .9 0c2.2 0 3.6 .2 4.3 .7c.6 .3 .9 1.1 .9 2.2c0 2.1-.4 4.2-1.1 6.1c-1 2.5-2.5 4.3-4.4 5.3c-2.3 1.4-4.8 2.4-7.4 3.2c-2.5 .9-4.9 1.3-7.1 1.3c-6.2 0-9.3-2.8-9.3-8.3c0-2.9 .4-5.3 1.1-7.3c.8-2.3 2.4-5.3 4.9-9.2l1.4 .9c-1.5 2.5-2.6 4.7-3.3 6.6c-.8 2-1.1 3.7-1.1 5.1c0 3.8 2.1 5.6 6.3 5.6c1.6 0 3.1-.1 4.5-.4c1.5-.3 2.9-.7 4.4-1.2c.9-.3 2-.8 3.3-1.3c1.9-.9 3-1.3 3.1-1.4c.9-.5 1.3-.9 1.3-1.3c0-.2-.4-.3-1.4-.4c-1 0-1.6 0-2 0c-3.1 0-5.2-.5-6.2-1.3c-.8-.8-1.2-2.1-1.2-4c0-.9 .2-2.1 .8-3.5c.6-1.4 1.4-2.7 2.4-4.1c1.4-2.1 2.9-3.7 4.3-4.7c1.5-1.1 2.9-1.7 4.3-1.7Zm131-.9c-.6 .2-1.1 .5-1.5 .7c-1.1 .5-1.9 1.1-2.6 1.6c-.5 .4-.9 .7-1.2 1.1c-.4 .4-.6 .7-.6 1c0 .2 .4 .5 1 .6c.8 .2 1.4 .3 2.1 .3c.5 0 .9-.2 1.4-.4c.5-.3 1.1-.7 2-1.4Zm-326.6-.5c1.6 0 2.9 1.1 4 3.3c1.1 2.2 1.7 4.8 1.7 7.8v7.7c0 3.4-1.5 6.8-4.4 10.1c-2.9 3.4-5.7 5.1-8.5 5.1c-1.7 0-3.5-.6-5.5-1.6c-1.9-1.1-4.9-3.1-9-6.2l1.3-1.8c2.1 1.4 3.9 2.4 5.3 2.9c1.1 .4 2.4 .6 3.8 .6c1.9 0 3.8-.6 5.7-1.6c2.3-1.3 4.6-3.4 6.9-6.2c-.8 .2-1.5 .2-2.1 .2c-1.9 0-3.5-.6-4.6-1.9c-1.2-1.3-1.8-3-1.8-5.2c0-3 .7-5.9 2.1-8.7c1.5-3 3.2-4.5 5.1-4.5Zm44.7-.4c1.5 1.6 2.6 3.4 3.1 5.3c.6 1.8 .8 4.6 .8 8.2v7.8H811.3v.7c0 1.2-.7 2.8-2.1 4.8c-1.4 2-3.1 3.7-4.9 5.2c-2.1 1.6-3.9 2.4-5.3 2.4c-1.8 0-3.7-.5-5.7-1.5c-1.7-.8-4.4-2.5-8.1-5.1l1.2-1.8c1.8 1.1 3.2 2 4.3 2.4c1.1 .4 2.3 .6 3.6 .6c1.3 0 2.7-.4 4.1-1.2c1.4-.7 3.2-2.2 5.6-4.3c3.3-2.9 4.9-5.2 4.9-6.8c0-.8-.3-1.8-.9-3.1c-.7-1.5-1.6-2.7-2.6-3.7l1.6-8c1.4 1.4 2.4 3 3.2 4.8c.7 1.8 1.1 3.8 1.1 6.1v.4h13.5c-.2-1.4-.6-2.5-1.1-3.5c-.4-.5-1-1.4-2.1-2.6Zm-86.9 0c1.5 1.6 2.6 3.4 3.1 5.3c.5 1.6 .8 3.9 .8 6.9v1h13.5c-.2-1.4-.6-2.5-1.1-3.5c-.3-.5-1-1.4-2.1-2.6l2.3-7.1c1.5 1.6 2.6 3.4 3.1 5.3c.6 1.8 .8 4.6 .8 8.2v7.8H724.3v.5c-.1 1.8-.3 3.4-.7 4.6c-.6 1.7-1.4 3-2.7 4c-1.2 1-3 1.9-5.3 2.5c-2.4 .7-4.8 1-7.3 1c-4.8 0-8.6-.9-11.2-2.7c-2.6-1.7-3.9-4.2-3.9-7.5c0-2.7 .4-5.2 1.3-7.5c.9-2.5 2.7-5.8 5.3-9.9l1.8 1.3c-2 3.4-3.3 5.8-3.8 7.3c-.7 1.5-1 3.1-1 4.7c0 2.1 1.2 3.8 3.4 5.1c2.2 1.3 5.2 2 8.8 2c3.6 0 6.6-.7 9-2.1c2.5-1.4 3.7-3 3.7-5c0-1.3-.2-2.5-.7-3.7c-.4-1.2-1.3-3.1-2.7-5.8l2.6-8.1c1.4 2.6 2.3 4.3 2.6 5.3c.5 1.5 .8 3.3 .9 5.6v.3h13.5c-.2-1.4-.6-2.5-1.1-3.5c-.3-.5-1-1.4-2.1-2.6Zm301.9-.6c1.3 0 2.6 .3 3.8 1c1.2 .6 2.6 1.6 4.1 3.1c1.2 1.1 2.9 2.8 5.1 5.2c1.5 1.6 2.6 2.7 3.4 3.2c.8 .5 1.9 .9 3.5 1.3h13.5c-.2-1.4-.6-2.5-1.1-3.5c-.4-.5-1-1.4-2.1-2.6l2.3-7.1c1.5 1.6 2.6 3.4 3.1 5.3c.6 1.8 .8 4.6 .8 8.2v7.8H1010l-.7 3c-.7 1.7-1.8 3.4-3.3 5c-2.9 3.4-5.7 5.1-8.5 5.1c-1.7 0-3.5-.6-5.5-1.6c-1.9-1.1-4.9-3.1-9-6.2l1.3-1.8c2.1 1.4 3.9 2.4 5.3 2.9c1.1 .4 2.4 .6 3.8 .6c1.9 0 3.8-.6 5.7-1.6c2.3-1.3 4.6-3.4 6.9-6.2c-.8 .2-1.5 .2-2.1 .2c-1.9 0-3.5-.6-4.6-1.9c-1.2-1.3-1.8-3-1.8-5.2c0-3 .7-5.9 2.1-8.7c1.5-3 3.2-4.5 5.1-4.5c1.6 0 2.9 1.1 4 3.3c1.1 2.2 1.7 4.8 1.7 7.8v1.7h13.5c-.2-1.4-.6-2.5-1.1-3.5c-.4-.5-1-1.4-2.1-2.6l2.3-7.1c1.5 1.6 2.6 3.4 3.1 5.3c.5 1.6 .8 3.9 .8 6.9v1H1046c-2.5-2.5-4.7-4.3-6.7-5.4c-1.8-1-3.6-1.5-5.3-1.5c-.5 0-1 .1-1.4 .1c-.5 .1-1.1 .2-1.9 .4c1.1-2.6 2.3-4.4 3.7-5.6c1.3-1.2 2.8-1.8 4.5-1.8Zm-667.1-.7c-.5 0-1.1 .3-1.6 .8c-.4 .5-.7 1.2-.7 1.9c0 .4 .2 .8 .6 1.1c.3 .3 .8 .5 1.4 .5c.4 0 .9-.1 1.4-.4c.4-.3 1-.7 1.7-1.4c-.6-.9-1-1.6-1.4-1.9c-.4-.4-.9-.6-1.4-.6Zm131.5-3.6c2.2 0 4.3 .8 6.3 2.2c1.8 1.4 3.2 3 4 4.9l-1.2 1.1c-1.6-.6-2.8-1-3.8-1.2c-.9-.1-2-.2-3.4-.2c-2.4 0-4.6 .2-6.4 .6c-2.3 .5-3.4 1.2-3.4 2.1c0 1.4 2.8 3.6 8.3 6.8l15.1-4.3l-3.3 8.4c-5.4 1.7-9.8 2.9-13.3 3.8c-3 .8-5.6 1.4-7.7 1.6c-1.5 .3-3 .4-4.6 .4h-.6v.5c-.1 1.8-.3 3.4-.8 4.6c-.5 1.7-1.4 3-2.6 4c-1.2 1-3 1.9-5.4 2.5c-2.3 .7-4.8 1-7.3 1c-4.8 0-8.5-.9-11.1-2.7c-2.6-1.7-3.9-4.2-3.9-7.5c0-2.7 .4-5.2 1.2-7.5c.9-2.5 2.7-5.8 5.4-9.9l1.8 1.3c-2 3.4-3.3 5.8-3.9 7.3c-.6 1.5-.9 3.1-.9 4.7c0 2.1 1.1 3.8 3.4 5.1c2.2 1.3 5.1 2 8.8 2c3.5 0 6.5-.7 9-2.1c2.4-1.4 3.7-3 3.7-5c0-1.3-.3-2.5-.7-3.7c-.4-1.2-1.3-3.1-2.7-5.8l2.6-8.1c1.4 2.6 2.2 4.3 2.5 5.3c.6 1.5 .9 3.3 .9 5.6v.3h1.1c.6 0 1.1 0 1.3-.1c.6 0 1.2-.1 1.8-.1c-1-1.5-1.7-2.7-2-3.7c-.3-.9-.5-1.9-.5-3.1c0-2.9 1.2-5.5 3.7-7.7c2.4-2.3 5.3-3.4 8.6-3.4Zm204.3-2.5l7 3.7l-3.6 6.7l-7-3.6Zm-235 0l6.9 3.7l-3.5 6.7l-7-3.6Zm-100.2-1.5c2.1 0 4 1.9 5.9 5.5c1.8 3.6 2.8 7.5 2.8 11.5v13.2H359.4c-.9 0-1.5 0-1.9 0c-.4 .1-.6 .2-.6 .4c.6 .4 1.1 .6 1.6 .7c.5 .1 .9 .3 1 .5c.2 .2 .3 .6 .3 1c0 1.4-.4 3.1-1.2 5.1c-.8 1.9-1.6 3.2-2.4 3.6c-.7 .6-2.9 1.4-6.6 2.2c-3.6 .8-6.7 1.2-9.3 1.2c-3.8 0-6.8-.8-9.1-2.4c-2.3-1.5-3.4-3.5-3.4-6c0-2.5 .5-4.8 1.5-7c1.2-2.6 3.5-6 6.8-10.1l1.8 1.3c-2.1 2.5-3.5 4.5-4.3 6.1c-.8 1.6-1.2 3.2-1.2 4.7c0 2.1 .8 3.7 2.6 4.7c1.7 1.1 4.5 1.6 8.1 1.6c1.9 0 4.6-.4 8-1.1c3.3-.7 5-1.3 5-1.8c0-.2-.6-.4-1.9-.6c-1.3-.2-2.7-.3-4.3-.3c-2.2 0-3.4-.5-3.4-1.5c0-.5 .3-1.3 .8-2.5c.4-.8 .8-1.6 1.2-2.4c.7-1.7 2.1-3 4.2-4c2.1-1 4.3-1.5 6.5-1.5h19c0-1.8 0-3-.1-3.7c-.2-1.2-.5-2.2-1-3c-.6 1.2-1.5 2.2-2.5 2.8c-1.1 .7-2.3 1-3.5 1c-1.6 0-2.9-.5-4-1.5c-1.1-1.1-1.6-2.4-1.6-4c0-2.4 .7-5.1 2.1-8.4c1.6-3.5 3.2-5.3 4.8-5.3Zm927.2-4.3v7.1c-.1 0-.9 .2-2.5 .8c-1.9 .6-3.5 1.1-4.6 1.6c-1.7 .7-2.5 1.2-2.5 1.5c0 .2 .7 1 2.1 2.4c1.9 1.8 3.5 3.5 4.8 5.1c2.2 2.6 4 5.1 5.3 7.7v8.3h-63.4c-1.3 0-2.3 0-3.1-.1c-.8 0-1.3 0-1.7 0c-.8-.1-1.6-.3-2.6-.7c-1.6-.5-3-1.7-4-3.4c-1.1-1.7-1.6-3.6-1.6-5.7c0-.8 .1-1.7 .2-2.6c.1-.8 .3-1.8 .7-2.8c.3-1.2 .8-2.2 1.4-3.2c.5-.9 1.1-1.8 1.7-2.7l1.6 1.1c-.4 .8-.8 1.5-1.1 2.2c-.3 .6-.5 1.2-.6 1.7c-.3 .9-.5 1.8-.5 2.7c0 1.1 .4 2.1 1.1 3c.7 .9 1.7 1.5 2.8 1.8c.7 .2 1.7 .3 2.8 .4c1.1 .1 2.3 .2 3.5 .2H1261c-.6-1.6-1.1-2.7-1.4-3.3c-.5-.7-1.1-1.7-2-2.8l2.6-7c1.5 2.2 2.5 4.1 3 5.9c.4 1.6 .6 3.9 .6 6.8v.4h13.5c-.2-1.4-.6-2.5-1.2-3.5c-.3-.5-1-1.4-2.1-2.6l2.4-7.1c1.5 1.6 2.5 3.4 3.1 5.3c.5 1.6 .7 3.9 .8 6.9v1h17.2c-.8-1-1.5-1.8-2.3-2.5c-.6-.5-1.4-1.2-2.4-2c-1.1-.9-2.3-1.7-3.4-2.6l-.9 1c-1.8-1.7-2.8-2.8-3.2-3.1c-1-1.2-1.5-2.5-1.5-4c0-2 .2-3.4 .4-4.2c.4-1.1 1.3-2.2 2.6-3.1c1.1-.8 2.4-1.5 3.7-2.1c1-.5 2.4-1.2 4.1-1.8c.8-.4 2.5-1 5-2Zm-1000.3-.2c2.4 0 4.5 .7 6.1 2c1.7 1.4 2.5 3.2 2.5 5.4c0 1.2-.3 2.3-1 3.2c-.9 1.1-1.9 1.6-3.2 1.6c-1 0-1.8-.3-2.5-1c-.6-.6-.9-1.4-.9-2.3c0-1.3 .5-2.3 1.6-3c1.1-.7 1.7-1.3 1.7-1.7c0-.7-.4-1.2-1-1.6c-.6-.4-1.5-.7-2.5-.7c-1.3 0-2.4 .4-3.2 1.1c-.8 .8-1.2 1.6-1.2 2.7c0 1 .4 2.2 1.2 3.7c1.3 2.3 2.1 3.8 2.4 4.5c.8 2.1 1.2 4.3 1.2 6.8c0 1.3-.1 2.8-.3 4.4l-1.8-.1c0-.3 0-.6 0-.8l.2-1.5c0-1.2-.8-2.4-2.2-3.7c-2.5-2.2-3.9-3.5-4.2-3.7c-1.4-1.8-2.2-3.8-2.2-6c0-2.7 .9-4.9 2.7-6.7c1.8-1.7 4-2.6 6.6-2.6Zm1053.1-.2l5.5 3l-3.1 5.8l-4.4-2.2l-2.5 4.8l-5.4-3l3.3-6.1l4.2 2.4Zm-178.8 0l5.6 3l-3.1 5.8l-4.4-2.2l-2.6 4.8l-5.4-3l3.3-6.1l4.2 2.4Zm-152.7 0l5.6 3l-3.1 5.8l-4.5-2.2l-2.5 4.8l-5.4-3l3.3-6.1l4.2 2.4Zm-269.5 0l5.6 3l-3.1 5.8l-4.5-2.2l-2.5 4.8l-5.4-3l3.3-6.1l4.2 2.4Zm-140.2 0l5.5 3l-3.1 5.8l-4.4-2.2l-2.5 4.8l-5.4-3l3.2-6.1l4.3 2.4Zm18.9-.6l7 3.7l-3.6 6.7l-7-3.6Zm819.8-.7l1.8 10.5c.7 4 1.1 7.5 1.4 10.5c.2 2.2 .3 4.4 .3 6.5c0 1.8-.2 3.4-.7 4.8c-.4 1.5-1.2 3.5-2.4 5.9l-1.8-.7c.5-2.5 .8-4.6 .8-6.2c0-1.2-.1-3-.3-5.3c-.2-2.4-.5-4.7-.8-7c-.3-2.3-.8-5-1.4-8.2c-.3-1.1-.4-1.9-.4-2.3c0-.6 .3-1.7 .9-3.1c.6-1.5 1.5-3.3 2.6-5.4Zm-69.7 0l1.8 10.5c.6 4 1.1 7.5 1.3 10.5c.2 2.2 .3 4.4 .3 6.5c0 1.8-.2 3.4-.6 4.8c-.4 1.5-1.2 3.5-2.4 5.9l-1.8-.7c.5-2.5 .7-4.6 .7-6.2c0-1.2-.1-3-.3-5.3c-.2-2.4-.4-4.7-.7-7c-.3-2.3-.8-5-1.5-8.2c-.2-1.1-.3-1.9-.3-2.3c0-.6 .3-1.7 .9-3.1c.6-1.5 1.5-3.3 2.6-5.4Zm-70.4 0l1.8 10.5c.6 4 1.1 7.5 1.3 10.5c.2 2.2 .3 4.4 .3 6.5c0 1.8-.2 3.4-.6 4.8c-.4 1.5-1.2 3.5-2.4 5.9l-1.8-.7c.5-2.5 .7-4.6 .7-6.2c0-1.2-.1-3-.3-5.3c-.2-2.4-.4-4.7-.7-7c-.3-2.3-.8-5-1.5-8.2c-.2-1.1-.3-1.9-.3-2.3c0-.6 .3-1.7 .9-3.1c.6-1.5 1.5-3.3 2.6-5.4Zm-108.4 0l1.8 10.5c.7 4 1.1 7.5 1.4 10.5c.2 2.2 .3 4.4 .3 6.5c0 1.8-.2 3.4-.6 4.8c-.4 1.5-1.3 3.5-2.4 5.9l-1.8-.7c.4-2.5 .7-4.6 .7-6.2c0-1.2-.1-3-.3-5.3c-.2-2.4-.5-4.7-.8-7c-.3-2.3-.7-5-1.4-8.2c-.3-1.1-.4-1.9-.4-2.3c0-.6 .3-1.7 .9-3.1c.7-1.5 1.5-3.3 2.6-5.4Zm-767.8 0l1.8 10.5c.7 4 1.1 7.5 1.4 10.5c.2 2.2 .3 4.4 .3 6.5c0 1.8-.2 3.4-.6 4.8c-.4 1.5-1.3 3.5-2.4 5.9l-1.8-.7c.4-2.5 .7-4.6 .7-6.2c0-1.2-.1-3-.3-5.3c-.2-2.4-.5-4.7-.8-7c-.3-2.3-.7-5-1.4-8.2c-.3-1.1-.4-1.9-.4-2.3c0-.6 .3-1.7 .9-3.1c.7-1.5 1.5-3.3 2.6-5.4Zm932.8-2.4l1.4 .7c0 .2-.1 .5-.1 1c0 .7 .4 1.3 1.2 1.9c.7 .6 1.9 1.2 3.5 1.9c-.2 1.2-.4 2.5-.8 3.7c-.3 1.2-.7 2.3-1.2 3.2l-1-.4l3.2 18.5v8.1h-30.8v.7c0 1.2-.7 2.8-2.1 4.8c-1.4 2-3 3.7-4.9 5.2c-2 1.6-3.8 2.4-5.3 2.4c-1.7 0-3.6-.5-5.6-1.5c-1.7-.8-4.5-2.5-8.2-5.1l1.3-1.8c1.8 1.1 3.2 2 4.3 2.4c1.1 .4 2.3 .6 3.5 .6c1.4 0 2.8-.4 4.2-1.2c1.3-.7 3.2-2.2 5.6-4.3c3.3-2.9 4.9-5.2 4.9-6.8c0-.8-.3-1.8-1-3.1c-.7-1.5-1.5-2.7-2.6-3.7l1.7-8c1.3 1.4 2.4 3 3.1 4.8c.8 1.8 1.1 3.8 1.1 6.1v.4h13.6c-.2-1.4-.6-2.5-1.2-3.5c-.3-.5-1-1.4-2.1-2.6l2.4-7.1c1.5 1.6 2.5 3.4 3.1 5.3c.4 1.6 .7 3.9 .8 6.9v1H1369l-3.6-20.3l-1.9-1.2c0-1.2 .2-2.4 .6-3.6c.4-1.5 1.2-3.3 2.3-5.4Zm-178.8 0l1.4 .7c0 .2 0 .5-.1 1c0 .7 .4 1.3 1.3 1.9c.7 .6 1.9 1.2 3.5 1.9c-.2 1.2-.5 2.5-.8 3.7c-.4 1.2-.8 2.3-1.2 3.2l-1.1-.4l3.3 18.5v8.1h-35c-2.3 0-4-1-5-2.9c-1.2-2.1-1.8-5.6-1.8-10.6v-8.5c0-2-.2-3.5-.8-4.5c-.2-.5-.8-1.3-1.8-2.3l3.3-7.4c1.1 1.6 1.9 3.2 2.4 4.7c.5 1.8 .8 4.1 .8 6.9v5.9c0 4.1 .3 7 .8 8.6c.4 1.3 1.1 2 2.1 2h17.8c-.3-1.4-.7-2.5-1.2-3.5c-.3-.5-1-1.4-2.1-2.6l2.4-7.1c1.5 1.6 2.5 3.4 3 5.3c.5 1.6 .8 3.9 .8 6.9v1h10.7l-3.6-20.3l-1.9-1.2c0-1.2 .2-2.4 .5-3.6c.5-1.5 1.2-3.3 2.3-5.4Zm-45.1 0l1.4 .7c0 .2 0 .5-.1 1c0 .7 .4 1.3 1.3 1.9c.7 .6 1.9 1.2 3.5 1.9c-.2 1.2-.5 2.5-.8 3.7c-.4 1.2-.8 2.3-1.2 3.2l-1.1-.4l3.3 18.5v8.1h-34.7c-.7 0-1.4-.2-2-.5c-1.1-.6-2.1-1.6-2.9-3.1c-1.1-2.1-1.8-5-2.1-8.7c-1.3 1.7-2.4 2.9-3.1 3.6c-1.1 1-2 1.5-2.8 1.5c-.4 0-.8-.1-1.4-.2l-3.7-.7c-1.5-.3-2.5-.6-2.8-.7c-.4-.1-.5-.4-.5-.7c0-.6 .6-2.3 2-5.1c1.4-2.9 2.4-4.6 3-5.3c.5-.5 1.4-1.2 2.7-2.1c.7-.5 1.8-1.2 3.2-2l1.6-.9c-.1-.3-.1-.6-.2-.9c0-.3 0-.5 0-.8c0-.7 .2-1.7 .5-2.8c.4-1.2 1-2.6 1.9-4.3l2.8 18.6c.5 2.9 1.1 4.9 1.8 5.9c.5 .7 1.2 1.1 2 1.1h17.5c-.3-1.4-.7-2.5-1.2-3.5c-.3-.5-1-1.4-2.1-2.6l2.4-7.1c1.5 1.6 2.5 3.4 3 5.3c.5 1.6 .8 3.9 .8 6.9v1h10.7l-3.6-20.3l-1.9-1.2c0-1.2 .2-2.4 .5-3.6c.5-1.5 1.2-3.3 2.3-5.4Zm-255.7 0l1.4 .7c0 .2-.1 .5-.1 1c0 .7 .4 1.3 1.2 1.9c.7 .6 1.9 1.2 3.5 1.9c-.2 1.2-.4 2.5-.8 3.7c-.3 1.2-.7 2.3-1.2 3.2l-1-.4l3.2 18.5h1.1c.6 0 1.1 0 1.3-.1c.6 0 1.2-.1 1.8-.1c-1-1.5-1.7-2.7-2-3.7c-.4-.9-.5-1.9-.5-3.1c0-2.9 1.2-5.5 3.7-7.7c2.4-2.3 5.3-3.4 8.6-3.4c2.2 0 4.3 .8 6.3 2.2c1.8 1.4 3.2 3 4 4.9l-1.2 1.1c-1.6-.6-2.8-1-3.8-1.2c-.9-.1-2-.2-3.4-.2c-2.4 0-4.6 .2-6.4 .6c-2.3 .5-3.4 1.2-3.4 2.1c0 1.4 2.8 3.6 8.3 6.8l15.1-4.3l-3.3 8.4c-5.4 1.7-9.8 2.9-13.3 3.8c-3 .8-5.6 1.4-7.7 1.6c-1.5 .3-3 .4-4.6 .4H876.1c-.7 0-1.3 0-1.8 .1c-.4 .2-.6 .3-.6 .6c0 .1 .4 .3 1.4 .7c1 .4 1.5 1 1.5 1.8c0 1.1-.2 2.4-.5 3.9c-.3 1.6-.8 2.9-1.4 4.2c-.4 .9-1.6 2-3.6 3.3c-2.2 1.3-4.6 2.4-7.3 3.2c-3.2 1-6.1 1.5-8.9 1.5c-3.2 0-5.7-.7-7.3-2.2c-1.7-1.5-2.5-3.7-2.5-6.5c0-3.2 .4-5.9 1.1-8.2c.9-2.8 2.8-6.4 5.6-10.9l1.7 1.2c-1.9 3.2-3.1 5.7-3.8 7.6c-.7 1.9-1.1 3.8-1.1 5.6c0 1.8 .6 3.3 1.8 4.3c1.2 1.1 2.8 1.6 4.8 1.6c2.6 0 5.3-.4 8.2-1.2c2.6-.7 4.9-1.5 6.7-2.5c1.9-1 2.8-1.8 2.8-2.4c0-.2-.5-.3-1.6-.4c-1.1 0-2.1 0-3 0c-2.1 0-3.5-.1-4.1-.3c-.6-.1-.9-.5-.9-1.1c0-1 .2-2.2 .6-3.4c.3-1.1 .8-2.1 1.4-2.7c1.3-1.6 2.8-2.9 4.6-4.1c2-1.2 3.8-1.8 5.4-1.8h14.1l-3.6-20.3l-1.9-1.2c0-1.2 .2-2.4 .6-3.6c.4-1.5 1.2-3.3 2.3-5.4Zm-292.4 0l1.4 .7c0 .2-.1 .5-.2 1c0 .7 .4 1.3 1.3 1.9c.7 .6 1.9 1.2 3.5 1.9c-.2 1.2-.4 2.5-.8 3.7c-.3 1.2-.7 2.3-1.2 3.2l-1-.4l3.2 18.5h13.6c-.2-1.4-.6-2.5-1.2-3.5c-.3-.5-1-1.4-2.1-2.6l2.4-7.1c1.5 1.6 2.5 3.4 3.1 5.3c.4 1.6 .7 3.9 .8 6.9v1h19c-2.4-2.5-4.6-4.3-6.7-5.4c-1.8-1-3.5-1.5-5.3-1.5c-.5 0-1 .1-1.4 .1c-.4 .1-1 .2-1.8 .4c1-2.6 2.3-4.4 3.6-5.6c1.3-1.2 2.9-1.8 4.6-1.8c1.3 0 2.6 .3 3.8 1c1.2 .6 2.5 1.6 4 3.1c1.2 1.1 2.9 2.8 5.1 5.2c1.5 1.6 2.6 2.7 3.4 3.2c.8 .5 2 .9 3.6 1.3h3.7c1.8 0 3.2-.3 4.3-.7c1.3-.6 2.3-1.5 2.8-2.9c1.1-2.5 2.6-4.6 4.3-6.2c1.6-1.5 2.9-2.2 4-2.2c1 0 2.3 1.5 3.8 4.6c1.6 3.2 2.3 6.2 2.3 8.9v6.5c-2 0-4.5-.4-7.3-1.2c-2.5-.7-4.7-1.5-6.6-2.5c-1.1 1.7-2.6 2.8-4.2 3.4c-.9 .2-2 .4-3.4 .4H582.4c-3.5 0-7.5 .1-11.9 .2c-2.6 .1-6.1 .3-10.3 .5c-4.3 .2-6.6 .3-6.9 .3c-4.2 0-7.3-.8-9.2-2.3c-1.7-1.4-2.6-3.5-2.6-6.4c0-2.3 .2-4.3 .7-6c.4-1.7 1.4-4.4 3-8.2l2 .9c-1.5 3.4-2.2 5.9-2.2 7.5c0 2 .8 3.5 2.4 4.4c1.8 1 4.9 1.5 9.3 1.5c3-.2 6-.4 8.9-.5c2.9-.1 5.6-.2 8.3-.2c-.8-.4-1.4-.8-1.7-1.3c-.3-.5-.5-1.2-.5-2.1c0-2.9 .9-5.7 2.6-8.5c1.9-3.1 3.9-4.6 6.2-4.6c2.1 0 3.6 1.5 4.6 4.4c.8 2.7 1.3 6.8 1.3 12.3H597l-3.6-20.3l-1.9-1.2c0-1.2 .2-2.4 .6-3.6c.4-1.5 1.2-3.3 2.3-5.4Zm-174.6 0l1.4 .7c0 .2 0 .5-.1 1c0 .7 .4 1.3 1.3 1.9c.7 .6 1.9 1.2 3.5 1.9c-.2 1.2-.5 2.5-.8 3.7c-.4 1.2-.8 2.3-1.2 3.2l-1.1-.4l3.3 18.5v8.1h-35c-2.3 0-4-1-5-2.9c-1.2-2.1-1.8-5.6-1.8-10.6v-8.5c0-2-.2-3.5-.8-4.5c-.2-.5-.8-1.3-1.8-2.3l3.3-7.4c1.1 1.6 1.9 3.2 2.4 4.7c.5 1.8 .8 4.1 .8 6.9v5.9c0 4.1 .3 7 .8 8.6c.4 1.3 1.1 2 2.1 2h17.8c-.3-1.4-.7-2.5-1.2-3.5c-.3-.5-1-1.4-2.1-2.6l2.4-7.1c1.5 1.6 2.5 3.4 3 5.3c.5 1.6 .8 3.9 .8 6.9v1h10.7l-3.6-20.3l-1.9-1.2c0-1.2 .2-2.4 .5-3.6c.5-1.5 1.2-3.3 2.3-5.4Zm157.3-.3l6.9 3.7l-3.5 6.7l-7-3.6ZM372.7 290l5.5 3l-3.1 5.8l-4.4-2.2l-2.5 4.8l-5.4-3l3.3-6.1l4.2 2.4Zm733.1-1.8l5.3 2.8l-3.3 5.5l-4.2-2.4l-2.4 4.7l-5.5-3l3.1-5.2l4.4 2.2Zm345.1-.2c.4 0 .6 .2 .9 .4c.2 .2 .3 .6 .3 1c0 .3 0 .6-.1 .8c-.1 .2-.3 .6-.6 1c-1-.5-1.6-.7-2-.7c-.3 0-.7 .1-1.1 .2c-.2 .2-.4 .3-.6 .5c0 .3 .5 .7 1.4 1.2c1 .6 1.6 .8 2.1 .8c.2 0 .9-.1 2.1-.4c-.2 .5-.5 1-.8 1.3c-.2 .2-.5 .4-1 .5l-6.4 2c.4-.7 .7-1.2 1-1.5c.3-.3 .9-.5 1.6-.7c-.5-.4-.9-.7-1.2-1c-.2-.3-.3-.6-.3-.9c0-.3 0-.6 .2-.9c.2-.3 .4-.7 .6-1c1.3-1.7 2.6-2.6 3.9-2.6Z" class="g1_41"/>
<image clip-path="url(#c1_41)" preserveAspectRatio="none" x="1344" y="457" width="108" height="72" href="img/2.jpg"/>
<image clip-path="url(#c2_41)" preserveAspectRatio="none" x="583" y="443" width="102" height="71" href="img/3.jpg"/>
<image clip-path="url(#c3_41)" preserveAspectRatio="none" x="1347" y="642" width="102" height="74" href="img/4.jpg"/>
<image clip-path="url(#c4_41)" preserveAspectRatio="none" x="590" y="637" width="95" height="79" href="img/5.jpg"/>
<image clip-path="url(#c5_41)" preserveAspectRatio="none" x="1085" y="457" width="238" height="169" href="img/6.jpg"/>
<image clip-path="url(#c6_41)" preserveAspectRatio="none" x="1046" y="653" width="291" height="168" href="img/7.jpg"/>
<image clip-path="url(#c7_41)" preserveAspectRatio="none" x="229" y="421" width="354" height="143" href="img/8.jpg"/>
<image clip-path="url(#c8_41)" preserveAspectRatio="none" x="214" y="626" width="354" height="167" href="img/9.jpg"/>
<path d="M189 639.2c0-19.2 15.6-34.7 34.7-34.7H645.5c19.1 0 34.7 15.5 34.7 34.7V778c0 19.2-15.6 34.7-34.7 34.7H223.7c-19.1 0-34.7-15.5-34.7-34.7Z" class="g2_41"/>
</svg>