<svg viewBox="0 0 1466 825" version="1.1" xmlns="http://www.w3.org/2000/svg">
<defs>
<clipPath id="c0_64"><path d="M-.2 825.3V-.2H1467V825.3Z"/></clipPath>
<clipPath id="c1_64"><path d="M1343.9 529.1V456.4H1452v72.7Z"/></clipPath>
<clipPath id="c2_64"><path d="M1346.3 621.3V549.7h102.9v71.6Z"/></clipPath>
<clipPath id="c3_64"><path d="M1346.4 716.6V641.9h103v74.7Z"/></clipPath>
<clipPath id="c4_64"><path d="M1353 825V744.6h96.2V825Z"/></clipPath>
<clipPath id="c5_64"><path d="M18.6 804.8V353.3H783.3V804.8Z"/></clipPath>
<style>
.g0_64{fill:#F00;}
.g1_64{fill:none;stroke:#000;stroke-width:1.466;stroke-linejoin:round;}
</style>
</defs>
<image clip-path="url(#c0_64)" preserveAspectRatio="none" x="0" y="-7" width="1467" height="840" href="img/1.jpg"/>
<path fill-rule="evenodd" d="M1093.1 349.8l3.7 2.4l-2.9 3.4l-3.1-2l-2.4 2.5l-3.7-2.1l2.8-3.6l3.3 2.1Zm-575.1 0l3.7 2.4l-2.9 3.4l-3.2-2l-2.3 2.5l-3.8-2.1l2.9-3.6l3.2 2.1Zm931.5-13.2l5.6 3.1l-3.1 5.7l-4.4-2.2l-2.5 4.9l-5.5-3.1l3.3-6l4.3 2.3Zm-471.3 0l5.5 3.1l-3.1 5.7l-4.4-2.2l-2.5 4.9l-5.4-3.1l3.3-6l4.2 2.3Zm-91.1 0l5.5 3.1l-3.1 5.7l-4.4-2.2l-2.5 4.9l-5.4-3.1l3.3-6l4.2 2.3Zm-44 0l5.5 3.1l-3.1 5.7l-4.4-2.2l-2.5 4.9l-5.4-3.1l3.3-6l4.2 2.3Zm-441.3 0l5.5 3.1l-3.1 5.7l-4.4-2.2l-2.5 4.9l-5.4-3.1l3.3-6l4.2 2.3ZM1432 321.5c-.6 0-1.1 .3-1.4 .7c-.4 .5-.6 1.1-.6 1.6c0 .8 .4 1.3 1.2 1.8c.8 .5 1.8 .7 3.1 .7h1.2c-.6-3.2-1.7-4.8-3.5-4.8Zm-562.4 0c-.6 0-1.1 .3-1.5 .7c-.4 .5-.5 1.1-.5 1.6c0 .8 .3 1.3 1.1 1.8c.8 .5 1.9 .7 3.2 .7H873c-.6-3.2-1.7-4.8-3.4-4.8Zm144.8-.2c-.7 0-1.4 .9-1.9 2.7c1 .4 1.8 .7 2.3 .9c1.6 .6 2.5 .9 2.7 .9c.5 0 .7-.1 .7-.4c0-.4-.4-1.2-1.3-2.3c-.9-1.2-1.8-1.8-2.5-1.8Zm-276.8 0c-.8 0-1.4 .9-2 2.7c1.1 .4 1.9 .7 2.4 .9c1.6 .6 2.5 .9 2.7 .9c.4 0 .7-.1 .7-.4c0-.4-.5-1.2-1.3-2.3c-1-1.2-1.8-1.8-2.5-1.8Zm663.6-.9c-1.3 0-2.7 .4-4.4 1.3c-1.6 .8-4 2.4-7.1 4.6h7.8c6.5 0 9.8-1 9.8-3c0-.9-.7-1.6-2.1-2.2c-1.2-.5-2.5-.7-4-.7Zm-623.7 0c-.1 .9-.2 1.7-.4 2.2c-.2 .4-.6 1.3-1.2 2.4c2.6 1.5 4.5 2.2 5.6 2.2c.3 0 .5-.2 .5-.5c0-.6-.4-1.5-1.3-2.7c-.9-1.2-1.9-2.4-3.2-3.6Zm-5.4-2.5c-.9 0-1.6 .4-2.3 1c-.5 .6-.7 1.1-.7 1.7c0 .8 .9 1.6 2.7 2.5c.4-.2 .8-.4 1-.5c.7-.5 1-.9 1-1.4c0-1.1-.2-1.8-.5-2.4c-.2-.6-.7-.9-1.2-.9ZM955.5 314c-.7 .3-1.2 .5-1.5 .7c-1.1 .6-2 1.1-2.6 1.6c-.5 .4-.9 .8-1.2 1.1c-.4 .5-.6 .8-.6 1c0 .3 .3 .5 1 .7c.7 .1 1.4 .2 2.1 .2c.4 0 .9-.1 1.4-.4c.4-.2 1.1-.7 2-1.3Zm-135.1 0c-.7 .3-1.2 .5-1.5 .7c-1.1 .6-2 1.1-2.7 1.6c-.4 .4-.8 .8-1.1 1.1c-.4 .5-.6 .8-.6 1c0 .3 .3 .5 1 .7c.7 .1 1.4 .2 2.1 .2c.4 0 .9-.1 1.3-.4c.5-.2 1.2-.7 2.1-1.3Zm-111 0c-.6 .3-1.1 .5-1.4 .7c-1.1 .6-2 1.1-2.7 1.6c-.4 .4-.8 .8-1.2 1.1c-.4 .5-.6 .8-.6 1c0 .3 .4 .5 1.1 .7c.7 .1 1.4 .2 2 .2c.5 0 .9-.1 1.4-.4c.5-.2 1.2-.7 2-1.3Zm-330.3 0c-.7 .3-1.2 .5-1.5 .7c-1.1 .6-2 1.1-2.6 1.6c-.5 .4-.9 .8-1.2 1.1c-.4 .5-.6 .8-.6 1c0 .3 .3 .5 1 .7c.7 .1 1.4 .2 2.1 .2c.4 0 .9-.1 1.4-.4c.4-.2 1.1-.7 2-1.3Zm196.7-.7l1.7 1.1c-.5 .8-.8 1.5-1.1 2.1c-.3 .7-.5 1.2-.7 1.7c-.3 .9-.4 1.8-.4 2.7c0 1.2 .3 2.2 1 3.1c.8 .9 1.7 1.5 2.9 1.8c.7 .1 1.6 .3 2.7 .4c1.1 .1 2.3 .1 3.6 .1H607c-.6-1.6-1-2.6-1.4-3.2c-.4-.8-1.1-1.7-2-2.9l2.7-6.9c1.5 2.1 2.5 4.1 2.9 5.8c.4 1.6 .6 3.9 .6 6.9v8.4h-25c-1.2 0-2.2 0-3 0c-.8 0-1.4-.1-1.8-.1c-.8-.1-1.6-.3-2.5-.6c-1.7-.6-3-1.7-4-3.4c-1.1-1.7-1.6-3.6-1.6-5.7c0-.9 0-1.7 .1-2.6c.1-.9 .4-1.8 .7-2.8c.4-1.2 .9-2.3 1.4-3.2c.6-1 1.1-1.9 1.7-2.7Zm875.9-.2c1.5 1.7 2.5 3.5 3 5.3c.6 1.9 .9 4.6 .9 8.2v7.8h-17l-.7 3.1c-.7 1.7-1.8 3.3-3.2 5c-2.9 3.3-5.8 5-8.6 5c-1.7 0-3.5-.5-5.4-1.6c-2-1-5-3.1-9-6.2l1.2-1.7c2.2 1.4 3.9 2.4 5.3 2.8c1.1 .4 2.4 .6 3.8 .6c2 0 3.9-.5 5.8-1.6c2.2-1.3 4.5-3.3 6.9-6.1c-.9 .1-1.6 .1-2.1 .1c-2 0-3.5-.6-4.7-1.9c-1.2-1.2-1.8-3-1.8-5.2c0-3 .7-5.9 2.1-8.6c1.5-3 3.2-4.5 5.1-4.5c1.6 0 2.9 1.1 4.1 3.2c1.1 2.2 1.6 4.8 1.6 7.9v1.6h13.6c-.2-1.3-.6-2.5-1.2-3.4c-.3-.5-1-1.4-2.1-2.7Zm-546.6-.5c1.3 0 2.6 .3 3.8 .9c1.2 .7 2.5 1.7 4.1 3.1c1.1 1.1 2.8 2.8 5 5.2c1.5 1.7 2.7 2.8 3.4 3.3c.8 .5 2 .9 3.6 1.2v8.1H876.1l-.6 3.1c-.8 1.7-1.8 3.3-3.3 5c-2.9 3.3-5.8 5-8.6 5c-1.6 0-3.4-.5-5.4-1.6c-1.9-1-5-3.1-9-6.2l1.3-1.7c2.1 1.4 3.8 2.4 5.2 2.8c1.2 .4 2.4 .6 3.9 .6c1.9 0 3.8-.5 5.7-1.6c2.2-1.3 4.5-3.3 6.9-6.1c-.8 .1-1.5 .1-2.1 .1c-1.9 0-3.5-.6-4.7-1.9c-1.1-1.2-1.7-3-1.7-5.2c0-3 .7-5.9 2-8.6c1.5-3 3.2-4.5 5.1-4.5c1.6 0 3 1.1 4.1 3.2c1.1 2.2 1.7 4.8 1.7 7.9v1.6h13.5c-.2-1.3-.6-2.5-1.2-3.4c-.3-.5-1-1.4-2.1-2.7l2.4-7.1c1.5 1.7 2.5 3.5 3.1 5.3c.4 1.6 .7 3.9 .8 6.9v1h19c-2.4-2.5-4.6-4.3-6.6-5.3c-1.9-1-3.6-1.5-5.4-1.5c-.5 0-.9 0-1.4 .1c-.4 0-1 .1-1.8 .3c1.1-2.5 2.3-4.4 3.6-5.5c1.4-1.2 2.9-1.8 4.6-1.8Zm-361.7-.8c-.5 0-1.1 .3-1.6 .9c-.4 .5-.7 1.1-.7 1.8c0 .5 .2 .9 .6 1.2c.3 .3 .8 .4 1.4 .4c.4 0 .9-.1 1.4-.4c.4-.2 1-.7 1.7-1.3c-.6-1-1-1.6-1.4-2c-.4-.4-.9-.6-1.4-.6Zm799.2-.8c.7 0 2.1 .1 4.2 .3c2 .2 3.9 .4 5.5 .5c3 .2 6 .4 8.8 .4l-1.7 7.2c-1.2 0-2.2 0-3.1 .2c-1.1 .2-2.1 .4-3 .6c0 .4-.1 .8-.1 1.3c-.1 .5-.1 .8-.1 1.1c0 1.4 .5 2.4 1.4 2.9c.9 .5 2.7 .8 5.2 .8h6.8c2.3 0 4.1-.6 5.3-1.7c1.4-1.4 2.3-3.7 2.7-7l2 .3c-.1 .7-.1 1.3-.1 1.7c-.1 1.3-.1 2.4-.1 3.2c0 1.1 .3 2 .9 2.6c.5 .6 1.3 .9 2.3 .9c1 0 1.9-.2 2.7-.6c.8-.4 2.1-1.2 3.9-2.5l10.7-7.6c1.2-.9 2.2-1.5 2.8-1.9c1.4-.9 2.9-1.3 4.2-1.3c2.2 0 4 .8 5.3 2.4c1.6 1.8 2.4 4.5 2.4 8.2v11.4h-31.6c-1.4 0-2.5-.3-3.4-1c-.8-.7-1.5-1.9-2.1-3.5c-1.3 1.8-2.5 3-3.7 3.6c-1 .6-2.4 .9-4.2 .9h-6.8c-3.5 0-5.9-.5-7.1-1.5c-1.3-1-1.9-2.9-1.9-5.7c0-1.3 0-2.5 .2-3.6c.1-.4 .2-1.4 .5-2.9c-4.6 1.1-8.2 2.9-11 5.5c-2.9 2.7-4.3 5.7-4.3 9.1c0 4 1.7 7 5.1 9.2c3.4 2.1 8.3 3.2 14.8 3.2c1.8 0 4.5-.2 8.1-.5l.5 .9l-11.3 7.3h-2.9c-5.8 0-10.3-1.4-13.4-4.4c-3.2-2.9-4.8-7.1-4.8-12.6c0-4.2 1-8 2.9-11.6c1.9-3.5 4.3-6.1 7.3-7.7h-.7c-1.8 0-3.4 .2-4.6 .6c-1.2 .3-3 1.1-5.4 2.4c.9-7.4 4.5-11.1 10.9-11.1Zm-718.9-4.7c2.6 1.9 4.4 4.4 5.5 7.4c1 2.8 1.5 6.5 1.5 11.2v1.4h19.1c-2.4-2.5-4.6-4.3-6.7-5.3c-1.8-1-3.6-1.5-5.3-1.5c-.5 0-1 0-1.4 .1c-.4 0-1.1 .1-1.9 .3c1.1-2.5 2.3-4.4 3.7-5.5c1.3-1.2 2.8-1.8 4.5-1.8c1.4 0 2.6 .3 3.8 .9c1.2 .7 2.6 1.7 4.1 3.1c1.2 1.1 2.9 2.8 5.1 5.2c1.5 1.7 2.6 2.8 3.4 3.3c.8 .5 2 .9 3.5 1.2h13.6c-.3-1.3-.7-2.5-1.2-3.4c-.3-.5-1-1.4-2.1-2.7l2.4-7.1c1.5 1.7 2.5 3.5 3 5.3c.6 1.9 .8 4.6 .8 8.2v7.8H617.2c-1.3 0-2.3-.3-3-.8c-.9-.7-1.3-1.8-1.3-3.3c0-.9 0-1.8 .1-2.9c.1-1 .2-2 .4-3l1.2-.1c.1 .7 .5 1.2 1 1.5c.6 .4 1.2 .5 2 .5h10.3c-.5-2.9-1.3-5.2-2.4-7c-1-1.4-2.3-2.7-3.9-3.8Zm-79.7-2c2.1 0 4 1.8 5.9 5.4c1.8 3.7 2.8 7.5 2.8 11.6v13.1H531c-.9 0-1.5 0-1.9 .1c-.4 0-.6 .1-.6 .4c.6 .3 1.1 .5 1.6 .7c.5 .1 .9 .3 1 .5c.2 .2 .3 .5 .3 1c0 1.4-.4 3.1-1.2 5c-.8 2-1.6 3.2-2.4 3.7c-.7 .6-2.9 1.3-6.6 2.1c-3.6 .8-6.7 1.2-9.3 1.2c-3.8 0-6.8-.8-9.1-2.3c-2.3-1.6-3.4-3.6-3.4-6.1c0-2.4 .5-4.7 1.5-6.9c1.2-2.7 3.5-6.1 6.8-10.1l1.8 1.2c-2.1 2.5-3.5 4.6-4.3 6.2c-.9 1.6-1.2 3.1-1.2 4.7c0 2.1 .8 3.7 2.6 4.7c1.7 1 4.5 1.5 8.1 1.5c1.9 0 4.6-.3 8-1c3.3-.7 5-1.3 5-1.8c0-.3-.6-.5-1.9-.7c-1.3-.2-2.7-.3-4.3-.3c-2.2 0-3.4-.5-3.4-1.5c0-.4 .3-1.3 .8-2.4c.4-.8 .8-1.7 1.2-2.5c.7-1.6 2.1-2.9 4.2-4c2.1-1 4.3-1.5 6.5-1.5h19c0-1.7 0-2.9-.1-3.7c-.2-1.1-.5-2.1-1-2.9c-.6 1.2-1.5 2.1-2.5 2.8c-1.1 .7-2.3 1-3.5 1c-1.6 0-2.9-.5-4-1.6c-1.1-1.1-1.6-2.4-1.6-4c0-2.3 .7-5.1 2.1-8.3c1.6-3.5 3.2-5.3 4.8-5.3Zm49.8-1l5.4 3l-3.2 6.1l-4.3-2.4l-2.4 4.7l-5.5-3l3.1-5.8l4.4 2.2Zm682.8-.5l5.4 3l-3.3 6.1l-4.2-2.4l-2.4 4.7l-5.5-3l3.1-5.8l4.4 2.2Zm-454.6-2l2.9 18.6c.5 2.9 1 4.9 1.8 5.9c.5 .7 1.1 1 2 1h17.4c-.2-1.3-.6-2.5-1.2-3.4c-.3-.5-1-1.4-2.1-2.7l2.4-7.1c1.5 1.7 2.5 3.5 3.1 5.3c.5 1.9 .8 4.6 .8 8.2v7.8H828.7c-.8 0-1.4-.1-2-.4c-1.2-.6-2.1-1.6-2.9-3.2c-1.1-2.1-1.8-5-2.1-8.6c-1.4 1.6-2.4 2.8-3.2 3.5c-1.1 1-2 1.5-2.7 1.5c-.4 0-.9 0-1.5-.1l-3.6-.8c-1.5-.3-2.5-.5-2.9-.6c-.3-.2-.5-.4-.5-.8c0-.5 .7-2.2 2.1-5.1c1.4-2.8 2.4-4.6 3-5.3c.5-.5 1.4-1.2 2.6-2.1c.8-.5 1.9-1.1 3.2-1.9l1.6-1c0-.2-.1-.5-.1-.8c0-.3 0-.6 0-.8c0-.8 .1-1.7 .5-2.9c.3-1.1 .9-2.5 1.8-4.2Zm-110.9 0l2.9 18.6c.4 2.9 1 4.9 1.8 5.9c.4 .7 1.1 1 1.9 1h7.7c1.8 0 3.2-.2 4.3-.6c1.3-.6 2.3-1.6 2.8-2.9c1.1-2.6 2.6-4.6 4.3-6.3c1.6-1.4 2.9-2.1 4-2.1c1 0 2.3 1.5 3.8 4.6c1.6 3.2 2.3 6.2 2.3 8.9v6.5c-2 0-4.5-.4-7.3-1.2c-2.5-.7-4.7-1.6-6.6-2.6c-1.1 1.8-2.6 2.9-4.2 3.4c-.9 .3-2 .4-3.4 .4h-7.7c-.7 0-1.3-.1-1.9-.4c-1.2-.6-2.2-1.6-3-3.2c-1-2.1-1.7-5-2-8.6c-1.4 1.6-2.4 2.8-3.2 3.5c-1.1 1-2 1.5-2.7 1.5c-.4 0-.9 0-1.5-.1l-3.6-.8c-1.6-.3-2.5-.5-2.9-.6c-.3-.2-.5-.4-.5-.8c0-.5 .7-2.2 2.1-5.1c1.3-2.8 2.3-4.6 3-5.3c.5-.5 1.3-1.2 2.6-2.1c.8-.5 1.8-1.1 3.2-1.9l1.6-1c-.1-.2-.1-.5-.1-.8c0-.3-.1-.6-.1-.8c0-.8 .2-1.7 .6-2.9c.3-1.1 .9-2.5 1.8-4.2Zm437.2-1.3l5.6 3.1l-3.1 5.7l-4.4-2.2l-2.6 4.9l-5.4-3.1l3.3-6.1l4.2 2.4Zm-475.2 0l5.6 3.1l-3.1 5.7l-4.4-2.2l-2.6 4.9l-5.4-3.1l3.3-6.1l4.2 2.4Zm-238-.5l6.9 3.7l-3.6 6.7l-6.9-3.7Zm954.6-.3l6.9 3.7l-3.6 6.7l-6.9-3.7Zm-82.3-.5l1.8 10.6c.7 4 1.1 7.5 1.4 10.4c.2 2.3 .3 4.5 .3 6.6c0 1.7-.2 3.3-.7 4.8c-.4 1.4-1.2 3.4-2.4 5.9l-1.8-.7c.5-2.6 .8-4.6 .8-6.2c0-1.2-.2-3-.4-5.4c-.1-2.3-.4-4.6-.7-6.9c-.3-2.3-.8-5.1-1.5-8.2c-.2-1.2-.3-1.9-.3-2.3c0-.7 .3-1.7 .9-3.2c.6-1.5 1.5-3.3 2.6-5.4Zm-131.3 0l1.8 10.6c.7 4 1.1 7.5 1.4 10.4c.2 2.3 .3 4.5 .3 6.6c0 1.7-.2 3.3-.6 4.8c-.4 1.4-1.3 3.4-2.4 5.9l-1.8-.7c.4-2.6 .7-4.6 .7-6.2c0-1.2-.1-3-.3-5.4c-.2-2.3-.5-4.6-.8-6.9c-.3-2.3-.7-5.1-1.4-8.2c-.3-1.2-.4-1.9-.4-2.3c0-.7 .3-1.7 .9-3.2c.7-1.5 1.5-3.3 2.6-5.4Zm-425.2 0c1.1 1.6 2 3.2 2.4 4.7c.6 1.8 .8 4.2 .8 7v5.8c0 4.2 .3 7.1 .9 8.7c.4 1.3 1.1 1.9 2 1.9h4.8c.6 0 1.2-.1 1.9-.3c.7-.1 1.2-.4 1.6-.6v-1.1c0-2.4 .3-4.5 1-6.3c.8-2 1.9-3.4 3.4-4.3l-1.5-1.1c.3-1.6 .5-2.9 .7-3.8c.2-.9 .6-2.2 1.1-3.9c3 2.1 5.7 4.6 8.2 7.6c2.3 2.8 4.1 5.6 5.4 8.3c1.3 2.8 1.9 5.2 1.9 7.3c0 1.4-.3 3-.8 4.7c-.7 2.1-1.6 3.2-2.5 3.2c-.8 0-2.2-.4-4.2-1.2c-2.2-.9-4.5-2.1-6.9-3.6c-1.3 1.2-2.9 2-4.8 2.6c-1.5 .4-3 .6-4.5 .6H757c-2.3 0-4-.9-5-2.8c-1.2-2.1-1.7-5.7-1.7-10.7v-8.5c0-1.9-.3-3.4-.8-4.5c-.3-.5-.9-1.2-1.8-2.2Zm-275.1 0l1.8 10.6c.7 4 1.1 7.5 1.4 10.4c.2 2.3 .3 4.5 .3 6.6c0 1.7-.2 3.3-.7 4.8c-.4 1.4-1.2 3.4-2.4 5.9l-1.8-.7c.5-2.6 .8-4.6 .8-6.2c0-1.2-.2-3-.4-5.4c-.2-2.3-.4-4.6-.7-6.9c-.3-2.3-.8-5.1-1.5-8.2c-.2-1.2-.3-1.9-.3-2.3c0-.7 .3-1.7 .9-3.2c.6-1.5 1.5-3.3 2.6-5.4Zm112.1-1.8l5.6 2.8l-3 6.2l-5.6-2.9Zm682.8-.5l5.5 2.9l-3 6.2l-5.6-3Zm22.9 0l1.4 .7c0 .1-.1 .4-.1 1c0 .6 .4 1.2 1.2 1.9c.8 .5 1.9 1.1 3.5 1.8c-.1 1.3-.4 2.5-.8 3.7c-.3 1.2-.7 2.3-1.1 3.3l-1.1-.4l3.2 18.4v8.1h-16.4l-1-.1c-.9-.1-1.8-.2-2.5-.4c-1.5-.3-2.9-.8-4.3-1.5c-1.2 .8-2.2 1.4-3.1 1.6c-.9 .3-2.3 .4-4.1 .4h-4.9c-1.3 0-2.3-.3-3.1-1c-.8-.7-1.5-1.9-2.1-3.5c-1.1 1.7-2.3 2.9-3.7 3.6c-1.1 .6-2.5 .9-4.1 .9h-24.2l-.2 1.5c-.6 2.2-2.1 4.1-4.5 5.9c-3.2 2.4-6.8 3.6-10.9 3.6c-3.4 0-6-.9-8-2.6c-1.9-1.7-2.8-4.1-2.8-7.2c0-2.9 .3-5.4 1-7.6c.8-2.4 2.4-5.3 4.8-8.9l1.9 1.3c-1.6 2.3-2.7 4.3-3.4 6c-.6 1.7-.9 3.4-.9 5.1c0 1.8 .6 3.2 2 4.2c1.3 1 3.2 1.5 5.6 1.5c3.5 0 6.4-.7 8.6-2c2.2-1.4 3.3-3.2 3.3-5.3c0-.4 0-.7 0-.9c0-.3 0-.4 0-.5c0-.8-.1-1.7-.2-2.6c-.2-.9-.5-2.9-1-5.8c-.9-4.7-1.7-9.4-2.6-14.1l-1.5-1.1c0-2 .9-5 2.8-9l1.3 .7c-.1 .3-.1 .6-.1 1c0 .7 .4 1.4 1.2 1.9c1.2 .7 2.4 1.3 3.4 1.9c-.2 1.7-.4 2.9-.6 3.7c-.2 .7-.7 1.8-1.4 3.3l-.9-.4c0 .3 .3 2 .9 5.1c.6 3.1 1 5.8 1.4 8c.5 2.4 .7 4.1 .8 5.1v.1h17.3c-.8-.9-1.5-1.7-2.3-2.4c-.6-.6-1.4-1.3-2.4-2.1c-1.1-.8-2.3-1.7-3.4-2.6l-.9 1.1c-1.8-1.8-2.8-2.8-3.2-3.2c-1-1.1-1.5-2.4-1.5-3.9c0-2 .2-3.4 .4-4.2c.4-1.2 1.3-2.2 2.6-3.1c1.1-.8 2.4-1.5 3.7-2.2c1-.5 2.4-1.1 4.1-1.8c.8-.3 2.5-1 5-2V307c-.1 0-.9 .3-2.5 .8c-1.9 .6-3.5 1.2-4.6 1.7c-1.7 .7-2.5 1.2-2.5 1.5c0 .2 .7 .9 2.1 2.3c1.9 1.9 3.5 3.6 4.8 5.2c2.2 2.5 4 5.1 5.3 7.6v.2h2.2c2.1 0 3.8-.6 5.2-1.7c1.8-1.6 2.7-3.9 2.7-7l2 .3c0 .6-.1 1.3-.1 2.2c-.1 .8-.1 1.7-.1 2.7c0 1 .4 1.8 1.1 2.5c.6 .7 1.4 1 2.3 1h3.7c2.4 0 4.2-.3 5.2-1c1.2-.8 1.9-2.3 1.9-4.6c0-.4 .1-.9 .4-1.2c.2-.3 .6-.6 1.1-1l1.2-.9c0 .4 0 .9 0 1.5c.1 .7 .1 1.1 .1 1.3c0 1.1-.2 2.5-.5 4.3c.7 .4 1.6 .7 2.5 1c.9 .2 1.8 .4 2.9 .6c0-.7-.3-1.6-.8-2.7c-.5-1-.7-1.8-.7-2.1c0-.6 0-1 .2-1.2c0-.1 .2-.4 .6-1l2.6-3.4c.5 1.3 .9 2.4 1.1 3.4c.3 1 .4 2.3 .4 3.9v3.1h10.8l-3.6-20.2l-2-1.3c0-1.2 .2-2.3 .6-3.5c.5-1.5 1.2-3.3 2.3-5.4Zm-131.3 0l1.4 .7c0 .1 0 .4-.1 1c0 .6 .4 1.2 1.3 1.9c.7 .5 1.9 1.1 3.5 1.8c-.2 1.3-.5 2.5-.8 3.7c-.4 1.2-.8 2.3-1.2 3.3l-1.1-.4l3.3 18.4v8.1h-35c-2.3 0-4-.9-5-2.8c-1.2-2.1-1.8-5.7-1.8-10.7v-8.5c0-1.9-.2-3.4-.8-4.5c-.2-.5-.8-1.2-1.8-2.2l3.3-7.5c1.1 1.6 1.9 3.2 2.4 4.7c.5 1.8 .8 4.2 .8 7v5.8c0 4.2 .3 7.1 .8 8.7c.4 1.3 1.1 1.9 2.1 1.9h17.8c-.3-1.3-.7-2.5-1.2-3.4c-.3-.5-1-1.4-2.1-2.7l2.4-7.1c1.5 1.7 2.5 3.5 3 5.3c.5 1.6 .8 3.9 .8 6.9v1H1165l-3.6-20.2l-1.9-1.3c0-1.2 .2-2.3 .5-3.5c.5-1.5 1.2-3.3 2.3-5.4Zm-45.1 0l1.4 .7c0 .1 0 .4-.1 1c0 .6 .4 1.2 1.3 1.9c.7 .5 1.9 1.1 3.5 1.8c-.2 1.3-.5 2.5-.8 3.7c-.4 1.2-.8 2.3-1.2 3.3l-1.1-.4l3.3 18.4v8.1h-17.4c-.9 0-1.5 0-1.9 .1c-.4 0-.6 .1-.6 .4c.6 .3 1.2 .5 1.7 .7c.5 .1 .8 .3 .9 .5c.2 .2 .3 .5 .3 1c0 1.4-.4 3.1-1.2 5c-.8 2-1.6 3.2-2.4 3.7c-.7 .6-2.9 1.3-6.5 2.1c-3.7 .8-6.8 1.2-9.4 1.2c-3.7 0-6.8-.8-9.1-2.3c-2.3-1.6-3.4-3.6-3.4-6.1c0-2.4 .5-4.7 1.5-6.9c1.2-2.7 3.5-6.1 6.8-10.1l1.8 1.2c-2.1 2.5-3.5 4.6-4.3 6.2c-.8 1.6-1.2 3.1-1.2 4.7c0 2.1 .8 3.7 2.6 4.7c1.8 1 4.5 1.5 8.2 1.5c1.9 0 4.5-.3 7.9-1c3.4-.7 5.1-1.3 5.1-1.8c0-.3-.7-.5-2-.7c-1.3-.2-2.7-.3-4.2-.3c-2.3 0-3.5-.5-3.5-1.5c0-.4 .3-1.3 .9-2.4c.3-.8 .7-1.7 1.1-2.5c.8-1.6 2.2-2.9 4.2-4c2.1-1 4.3-1.5 6.6-1.5h13.9l-3.6-20.2l-1.9-1.3c0-1.2 .2-2.3 .5-3.5c.5-1.5 1.2-3.3 2.3-5.4Zm-125 0l1.4 .7c0 .1-.1 .4-.1 1c0 .6 .4 1.2 1.2 1.9c.8 .5 1.9 1.1 3.5 1.8c-.1 1.3-.4 2.5-.8 3.7c-.3 1.2-.7 2.3-1.1 3.3l-1.1-.4l3.2 18.4h3.9c1.7 0 3.2-.2 4.2-.6c1.4-.6 2.3-1.6 2.8-2.9c1.1-2.6 2.6-4.6 4.4-6.3c1.5-1.4 2.9-2.1 4-2.1c1 0 2.2 1.5 3.7 4.6c1.2 2.4 1.9 4.7 2.2 6.8l.1 .5h1.2c.5 0 1 0 1.2 0c.6-.1 1.2-.1 1.8-.2c-1-1.5-1.6-2.7-2-3.6c-.3-.9-.5-2-.5-3.1c0-3 1.2-5.6 3.7-7.8c2.4-2.2 5.3-3.3 8.6-3.3c2.2 0 4.3 .7 6.3 2.2c1.9 1.3 3.2 3 4.1 4.9l-1.3 1c-1.6-.5-2.8-.9-3.7-1.1c-1-.2-2.1-.3-3.4-.3c-2.5 0-4.6 .2-6.5 .6c-2.2 .5-3.4 1.2-3.4 2.2c0 1.3 2.8 3.6 8.3 6.8l15.2-4.4l-3.4 8.5c-5.3 1.6-9.8 2.9-13.3 3.8c-3 .8-5.6 1.3-7.7 1.6c-1.5 .2-3 .3-4.6 .3h-2.7v-.1l-.3-.1c-1.5-.2-3.1-.5-4.9-1c-2.5-.7-4.7-1.6-6.6-2.6c-1.1 1.8-2.5 2.9-4.2 3.4c-.8 .3-1.9 .4-3.3 .4H963.8c-.8 0-1.4-.1-2-.4c-1.1-.6-2.1-1.6-2.9-3.2c-1.1-2.1-1.8-5-2.1-8.6c-1.4 1.6-2.4 2.8-3.2 3.5c-1.1 1-2 1.5-2.7 1.5c-.4 0-.9 0-1.4-.1l-3.7-.8c-1.5-.3-2.5-.5-2.8-.6c-.4-.2-.6-.4-.6-.8c0-.5 .7-2.2 2.1-5.1c1.4-2.8 2.4-4.6 3-5.3c.5-.5 1.4-1.2 2.6-2.1c.8-.5 1.9-1.1 3.3-1.9l1.5-1c0-.2-.1-.5-.1-.8c0-.3 0-.6 0-.8c0-.8 .1-1.7 .5-2.9c.3-1.1 1-2.5 1.9-4.2l2.8 18.6c.5 2.9 1.1 4.9 1.8 5.9c.5 .7 1.1 1 2 1h17.4c-.2-1.3-.6-2.5-1.2-3.4c-.3-.5-1-1.4-2.1-2.7l2.4-7.1c1.5 1.7 2.5 3.5 3.1 5.3c.5 1.6 .7 3.9 .8 6.9v1h10.7l-3.6-20.2l-2-1.3c0-1.2 .2-2.3 .6-3.5c.4-1.5 1.2-3.3 2.3-5.4Zm-576.4 0l1.4 .7c0 .1-.1 .4-.1 1c0 .6 .4 1.2 1.2 1.9c.8 .5 1.9 1.1 3.5 1.8c-.1 1.3-.4 2.5-.8 3.7c-.3 1.2-.7 2.3-1.1 3.3l-1.1-.4l3.2 18.4h19.1c-2.4-2.5-4.6-4.3-6.6-5.3c-1.8-1-3.6-1.5-5.3-1.5c-.6 0-1 0-1.5 .1c-.4 0-1 .1-1.8 .3c1.1-2.5 2.3-4.4 3.6-5.5c1.4-1.2 2.9-1.8 4.6-1.8c1.3 0 2.6 .3 3.8 .9c1.2 .7 2.6 1.7 4.1 3.1c1.2 1.1 2.9 2.8 5 5.2c1.5 1.7 2.7 2.8 3.4 3.3c.8 .5 2 .9 3.6 1.2h10.7l-3.6-20.2l-2-1.3c0-1.2 .2-2.3 .6-3.5c.5-1.5 1.2-3.3 2.3-5.4l1.4 .7c0 .1-.1 .4-.1 1c0 .6 .4 1.2 1.2 1.9c.8 .5 1.9 1.1 3.5 1.8c-.1 1.3-.4 2.5-.8 3.7c-.3 1.2-.7 2.3-1.1 3.3l-1.1-.4l3.2 18.4v8.1H387.4c-.7 0-1.4-.1-2-.4c-1.1-.6-2.1-1.6-2.9-3.2c-1.1-2.1-1.8-5-2.1-8.6c-1.4 1.6-2.4 2.8-3.2 3.5c-1.1 1-2 1.5-2.7 1.5c-.4 0-.9 0-1.4-.1l-3.7-.8c-1.5-.3-2.5-.5-2.8-.6c-.4-.2-.6-.4-.6-.8c0-.5 .7-2.2 2.1-5.1c1.4-2.8 2.4-4.6 3-5.3c.5-.5 1.4-1.2 2.6-2.1c.8-.5 1.9-1.1 3.3-1.9l1.5-1c0-.2-.1-.5-.1-.8c0-.3 0-.6 0-.8c0-.8 .1-1.7 .5-2.9c.3-1.1 1-2.5 1.9-4.2l2.8 18.6c.5 2.9 1.1 4.9 1.8 5.9c.5 .7 1.1 1 2 1h17.4c-.2-1.3-.6-2.5-1.2-3.4c-.3-.5-1-1.4-2.1-2.7l2.4-7.1c1.5 1.7 2.5 3.5 3.1 5.3c.5 1.6 .7 3.9 .8 6.9v1h10.7l-3.6-20.2l-2-1.3c0-1.2 .2-2.3 .6-3.5c.5-1.5 1.2-3.3 2.3-5.4Zm125.6-4.6l6.9 3.7l-3.6 6.7l-6.9-3.7Zm414.1-1.4l5.3 2.7l-3.3 5.6l-4.2-2.4l-2.4 4.7l-5.6-3l3.1-5.3l4.5 2.2Zm-135.2 0l5.4 2.7l-3.3 5.6l-4.2-2.4l-2.4 4.7l-5.6-3l3.1-5.3l4.4 2.2Zm-110.9 0l5.4 2.7l-3.3 5.6l-4.3-2.4l-2.3 4.7l-5.6-3l3.1-5.3l4.4 2.2Zm-330.3 0l5.3 2.7l-3.3 5.6l-4.2-2.4l-2.4 4.7l-5.6-3l3.1-5.3l4.5 2.2Z" class="g0_64"/>
<path d="M1093.1 349.8l3.7 2.4l-2.9 3.4l-3.1-2l-2.4 2.5l-3.7-2.1l2.8-3.6l3.3 2.1Zm-575.1 0l3.7 2.4l-2.9 3.4l-3.2-2l-2.3 2.5l-3.8-2.1l2.9-3.6l3.2 2.1Zm931.5-13.2l5.6 3.1l-3.1 5.7l-4.4-2.2l-2.5 4.9l-5.5-3.1l3.3-6l4.3 2.3Zm-471.3 0l5.5 3.1l-3.1 5.7l-4.4-2.2l-2.5 4.9l-5.4-3.1l3.3-6l4.2 2.3Zm-91.1 0l5.5 3.1l-3.1 5.7l-4.4-2.2l-2.5 4.9l-5.4-3.1l3.3-6l4.2 2.3Zm-44 0l5.5 3.1l-3.1 5.7l-4.4-2.2l-2.5 4.9l-5.4-3.1l3.3-6l4.2 2.3Zm-441.3 0l5.5 3.1l-3.1 5.7l-4.4-2.2l-2.5 4.9l-5.4-3.1l3.3-6l4.2 2.3ZM1432 321.5c-.6 0-1.1 .3-1.4 .7c-.4 .5-.6 1.1-.6 1.6c0 .8 .4 1.3 1.2 1.8c.8 .5 1.8 .7 3.1 .7h1.2c-.6-3.2-1.7-4.8-3.5-4.8Zm-562.4 0c-.6 0-1.1 .3-1.5 .7c-.4 .5-.5 1.1-.5 1.6c0 .8 .3 1.3 1.1 1.8c.8 .5 1.9 .7 3.2 .7H873c-.6-3.2-1.7-4.8-3.4-4.8Zm144.8-.2c-.7 0-1.4 .9-1.9 2.7c1 .4 1.8 .7 2.3 .9c1.6 .6 2.5 .9 2.7 .9c.5 0 .7-.1 .7-.4c0-.4-.4-1.2-1.3-2.3c-.9-1.2-1.8-1.8-2.5-1.8Zm-276.8 0c-.8 0-1.4 .9-2 2.7c1.1 .4 1.9 .7 2.4 .9c1.6 .6 2.5 .9 2.7 .9c.4 0 .7-.1 .7-.4c0-.4-.5-1.2-1.3-2.3c-1-1.2-1.8-1.8-2.5-1.8Zm663.6-.9c-1.3 0-2.7 .4-4.4 1.3c-1.6 .8-4 2.4-7.1 4.6h7.8c6.5 0 9.8-1 9.8-3c0-.9-.7-1.6-2.1-2.2c-1.2-.5-2.5-.7-4-.7Zm-623.7 0c-.1 .9-.2 1.7-.4 2.2c-.2 .4-.6 1.3-1.2 2.4c2.6 1.5 4.5 2.2 5.6 2.2c.3 0 .5-.2 .5-.5c0-.6-.4-1.5-1.3-2.7c-.9-1.2-1.9-2.4-3.2-3.6Zm-5.4-2.5c-.9 0-1.6 .4-2.3 1c-.5 .6-.7 1.1-.7 1.7c0 .8 .9 1.6 2.7 2.5c.4-.2 .8-.4 1-.5c.7-.5 1-.9 1-1.4c0-1.1-.2-1.8-.5-2.4c-.2-.6-.7-.9-1.2-.9ZM955.5 314c-.7 .3-1.2 .5-1.5 .7c-1.1 .6-2 1.1-2.6 1.6c-.5 .4-.9 .8-1.2 1.1c-.4 .5-.6 .8-.6 1c0 .3 .3 .5 1 .7c.7 .1 1.4 .2 2.1 .2c.4 0 .9-.1 1.4-.4c.4-.2 1.1-.7 2-1.3Zm-135.1 0c-.7 .3-1.2 .5-1.5 .7c-1.1 .6-2 1.1-2.7 1.6c-.4 .4-.8 .8-1.1 1.1c-.4 .5-.6 .8-.6 1c0 .3 .3 .5 1 .7c.7 .1 1.4 .2 2.1 .2c.4 0 .9-.1 1.3-.4c.5-.2 1.2-.7 2.1-1.3Zm-111 0c-.6 .3-1.1 .5-1.4 .7c-1.1 .6-2 1.1-2.7 1.6c-.4 .4-.8 .8-1.2 1.1c-.4 .5-.6 .8-.6 1c0 .3 .4 .5 1.1 .7c.7 .1 1.4 .2 2 .2c.5 0 .9-.1 1.4-.4c.5-.2 1.2-.7 2-1.3Zm-330.3 0c-.7 .3-1.2 .5-1.5 .7c-1.1 .6-2 1.1-2.6 1.6c-.5 .4-.9 .8-1.2 1.1c-.4 .5-.6 .8-.6 1c0 .3 .3 .5 1 .7c.7 .1 1.4 .2 2.1 .2c.4 0 .9-.1 1.4-.4c.4-.2 1.1-.7 2-1.3Zm196.7-.7l1.7 1.1c-.5 .8-.8 1.5-1.1 2.1c-.3 .7-.5 1.2-.7 1.7c-.3 .9-.4 1.8-.4 2.7c0 1.2 .3 2.2 1 3.1c.8 .9 1.7 1.5 2.9 1.8c.7 .1 1.6 .3 2.7 .4c1.1 .1 2.3 .1 3.6 .1H607c-.6-1.6-1-2.6-1.4-3.2c-.4-.8-1.1-1.7-2-2.9l2.7-6.9c1.5 2.1 2.5 4.1 2.9 5.8c.4 1.6 .6 3.9 .6 6.9v8.4h-25c-1.2 0-2.2 0-3 0c-.8 0-1.4-.1-1.8-.1c-.8-.1-1.6-.3-2.5-.6c-1.7-.6-3-1.7-4-3.4c-1.1-1.7-1.6-3.6-1.6-5.7c0-.9 0-1.7 .1-2.6c.1-.9 .4-1.8 .7-2.8c.4-1.2 .9-2.3 1.4-3.2c.6-1 1.1-1.9 1.7-2.7Zm875.9-.2c1.5 1.7 2.5 3.5 3 5.3c.6 1.9 .9 4.6 .9 8.2v7.8h-17l-.7 3.1c-.7 1.7-1.8 3.3-3.2 5c-2.9 3.3-5.8 5-8.6 5c-1.7 0-3.5-.5-5.4-1.6c-2-1-5-3.1-9-6.2l1.2-1.7c2.2 1.4 3.9 2.4 5.3 2.8c1.1 .4 2.4 .6 3.8 .6c2 0 3.9-.5 5.8-1.6c2.2-1.3 4.5-3.3 6.9-6.1c-.9 .1-1.6 .1-2.1 .1c-2 0-3.5-.6-4.7-1.9c-1.2-1.2-1.8-3-1.8-5.2c0-3 .7-5.9 2.1-8.6c1.5-3 3.2-4.5 5.1-4.5c1.6 0 2.9 1.1 4.1 3.2c1.1 2.2 1.6 4.8 1.6 7.9v1.6h13.6c-.2-1.3-.6-2.5-1.2-3.4c-.3-.5-1-1.4-2.1-2.7Zm-546.6-.5c1.3 0 2.6 .3 3.8 .9c1.2 .7 2.5 1.7 4.1 3.1c1.1 1.1 2.8 2.8 5 5.2c1.5 1.7 2.7 2.8 3.4 3.3c.8 .5 2 .9 3.6 1.2v8.1H876.1l-.6 3.1c-.8 1.7-1.8 3.3-3.3 5c-2.9 3.3-5.8 5-8.6 5c-1.6 0-3.4-.5-5.4-1.6c-1.9-1-5-3.1-9-6.2l1.3-1.7c2.1 1.4 3.8 2.4 5.2 2.8c1.2 .4 2.4 .6 3.9 .6c1.9 0 3.8-.5 5.7-1.6c2.2-1.3 4.5-3.3 6.9-6.1c-.8 .1-1.5 .1-2.1 .1c-1.9 0-3.5-.6-4.7-1.9c-1.1-1.2-1.7-3-1.7-5.2c0-3 .7-5.9 2-8.6c1.5-3 3.2-4.5 5.1-4.5c1.6 0 3 1.1 4.1 3.2c1.1 2.2 1.7 4.8 1.7 7.9v1.6h13.5c-.2-1.3-.6-2.5-1.2-3.4c-.3-.5-1-1.4-2.1-2.7l2.4-7.1c1.5 1.7 2.5 3.5 3.1 5.3c.4 1.6 .7 3.9 .8 6.9v1h19c-2.4-2.5-4.6-4.3-6.6-5.3c-1.9-1-3.6-1.5-5.4-1.5c-.5 0-.9 0-1.4 .1c-.4 0-1 .1-1.8 .3c1.1-2.5 2.3-4.4 3.6-5.5c1.4-1.2 2.9-1.8 4.6-1.8Zm-361.7-.8c-.5 0-1.1 .3-1.6 .9c-.4 .5-.7 1.1-.7 1.8c0 .5 .2 .9 .6 1.2c.3 .3 .8 .4 1.4 .4c.4 0 .9-.1 1.4-.4c.4-.2 1-.7 1.7-1.3c-.6-1-1-1.6-1.4-2c-.4-.4-.9-.6-1.4-.6Zm799.2-.8c.7 0 2.1 .1 4.2 .3c2 .2 3.9 .4 5.5 .5c3 .2 6 .4 8.8 .4l-1.7 7.2c-1.2 0-2.2 0-3.1 .2c-1.1 .2-2.1 .4-3 .6c0 .4-.1 .8-.1 1.3c-.1 .5-.1 .8-.1 1.1c0 1.4 .5 2.4 1.4 2.9c.9 .5 2.7 .8 5.2 .8h6.8c2.3 0 4.1-.6 5.3-1.7c1.4-1.4 2.3-3.7 2.7-7l2 .3c-.1 .7-.1 1.3-.1 1.7c-.1 1.3-.1 2.4-.1 3.2c0 1.1 .3 2 .9 2.6c.5 .6 1.3 .9 2.3 .9c1 0 1.9-.2 2.7-.6c.8-.4 2.1-1.2 3.9-2.5l10.7-7.6c1.2-.9 2.2-1.5 2.8-1.9c1.4-.9 2.9-1.3 4.2-1.3c2.2 0 4 .8 5.3 2.4c1.6 1.8 2.4 4.5 2.4 8.2v11.4h-31.6c-1.4 0-2.5-.3-3.4-1c-.8-.7-1.5-1.9-2.1-3.5c-1.3 1.8-2.5 3-3.7 3.6c-1 .6-2.4 .9-4.2 .9h-6.8c-3.5 0-5.9-.5-7.1-1.5c-1.3-1-1.9-2.9-1.9-5.7c0-1.3 0-2.5 .2-3.6c.1-.4 .2-1.4 .5-2.9c-4.6 1.1-8.2 2.9-11 5.5c-2.9 2.7-4.3 5.7-4.3 9.1c0 4 1.7 7 5.1 9.2c3.4 2.1 8.3 3.2 14.8 3.2c1.8 0 4.5-.2 8.1-.5l.5 .9l-11.3 7.3h-2.9c-5.8 0-10.3-1.4-13.4-4.4c-3.2-2.9-4.8-7.1-4.8-12.6c0-4.2 1-8 2.9-11.6c1.9-3.5 4.3-6.1 7.3-7.7h-.7c-1.8 0-3.4 .2-4.6 .6c-1.2 .3-3 1.1-5.4 2.4c.9-7.4 4.5-11.1 10.9-11.1Zm-718.9-4.7c2.6 1.9 4.4 4.4 5.5 7.4c1 2.8 1.5 6.5 1.5 11.2v1.4h19.1c-2.4-2.5-4.6-4.3-6.7-5.3c-1.8-1-3.6-1.5-5.3-1.5c-.5 0-1 0-1.4 .1c-.4 0-1.1 .1-1.9 .3c1.1-2.5 2.3-4.4 3.7-5.5c1.3-1.2 2.8-1.8 4.5-1.8c1.4 0 2.6 .3 3.8 .9c1.2 .7 2.6 1.7 4.1 3.1c1.2 1.1 2.9 2.8 5.1 5.2c1.5 1.7 2.6 2.8 3.4 3.3c.8 .5 2 .9 3.5 1.2h13.6c-.3-1.3-.7-2.5-1.2-3.4c-.3-.5-1-1.4-2.1-2.7l2.4-7.1c1.5 1.7 2.5 3.5 3 5.3c.6 1.9 .8 4.6 .8 8.2v7.8H617.2c-1.3 0-2.3-.3-3-.8c-.9-.7-1.3-1.8-1.3-3.3c0-.9 0-1.8 .1-2.9c.1-1 .2-2 .4-3l1.2-.1c.1 .7 .5 1.2 1 1.5c.6 .4 1.2 .5 2 .5h10.3c-.5-2.9-1.3-5.2-2.4-7c-1-1.4-2.3-2.7-3.9-3.8Zm-79.7-2c2.1 0 4 1.8 5.9 5.4c1.8 3.7 2.8 7.5 2.8 11.6v13.1H531c-.9 0-1.5 0-1.9 .1c-.4 0-.6 .1-.6 .4c.6 .3 1.1 .5 1.6 .7c.5 .1 .9 .3 1 .5c.2 .2 .3 .5 .3 1c0 1.4-.4 3.1-1.2 5c-.8 2-1.6 3.2-2.4 3.7c-.7 .6-2.9 1.3-6.6 2.1c-3.6 .8-6.7 1.2-9.3 1.2c-3.8 0-6.8-.8-9.1-2.3c-2.3-1.6-3.4-3.6-3.4-6.1c0-2.4 .5-4.7 1.5-6.9c1.2-2.7 3.5-6.1 6.8-10.1l1.8 1.2c-2.1 2.5-3.5 4.6-4.3 6.2c-.9 1.6-1.2 3.1-1.2 4.7c0 2.1 .8 3.7 2.6 4.7c1.7 1 4.5 1.5 8.1 1.5c1.9 0 4.6-.3 8-1c3.3-.7 5-1.3 5-1.8c0-.3-.6-.5-1.9-.7c-1.3-.2-2.7-.3-4.3-.3c-2.2 0-3.4-.5-3.4-1.5c0-.4 .3-1.3 .8-2.4c.4-.8 .8-1.7 1.2-2.5c.7-1.6 2.1-2.9 4.2-4c2.1-1 4.3-1.5 6.5-1.5h19c0-1.7 0-2.9-.1-3.7c-.2-1.1-.5-2.1-1-2.9c-.6 1.2-1.5 2.1-2.5 2.8c-1.1 .7-2.3 1-3.5 1c-1.6 0-2.9-.5-4-1.6c-1.1-1.1-1.6-2.4-1.6-4c0-2.3 .7-5.1 2.1-8.3c1.6-3.5 3.2-5.3 4.8-5.3Zm49.8-1l5.4 3l-3.2 6.1l-4.3-2.4l-2.4 4.7l-5.5-3l3.1-5.8l4.4 2.2Zm682.8-.5l5.4 3l-3.3 6.1l-4.2-2.4l-2.4 4.7l-5.5-3l3.1-5.8l4.4 2.2Zm-454.6-2l2.9 18.6c.5 2.9 1 4.9 1.8 5.9c.5 .7 1.1 1 2 1h17.4c-.2-1.3-.6-2.5-1.2-3.4c-.3-.5-1-1.4-2.1-2.7l2.4-7.1c1.5 1.7 2.5 3.5 3.1 5.3c.5 1.9 .8 4.6 .8 8.2v7.8H828.7c-.8 0-1.4-.1-2-.4c-1.2-.6-2.1-1.6-2.9-3.2c-1.1-2.1-1.8-5-2.1-8.6c-1.4 1.6-2.4 2.8-3.2 3.5c-1.1 1-2 1.5-2.7 1.5c-.4 0-.9 0-1.5-.1l-3.6-.8c-1.5-.3-2.5-.5-2.9-.6c-.3-.2-.5-.4-.5-.8c0-.5 .7-2.2 2.1-5.1c1.4-2.8 2.4-4.6 3-5.3c.5-.5 1.4-1.2 2.6-2.1c.8-.5 1.9-1.1 3.2-1.9l1.6-1c0-.2-.1-.5-.1-.8c0-.3 0-.6 0-.8c0-.8 .1-1.7 .5-2.9c.3-1.1 .9-2.5 1.8-4.2Zm-110.9 0l2.9 18.6c.4 2.9 1 4.9 1.8 5.9c.4 .7 1.1 1 1.9 1h7.7c1.8 0 3.2-.2 4.3-.6c1.3-.6 2.3-1.6 2.8-2.9c1.1-2.6 2.6-4.6 4.3-6.3c1.6-1.4 2.9-2.1 4-2.1c1 0 2.3 1.5 3.8 4.6c1.6 3.2 2.3 6.2 2.3 8.9v6.5c-2 0-4.5-.4-7.3-1.2c-2.5-.7-4.7-1.6-6.6-2.6c-1.1 1.8-2.6 2.9-4.2 3.4c-.9 .3-2 .4-3.4 .4h-7.7c-.7 0-1.3-.1-1.9-.4c-1.2-.6-2.2-1.6-3-3.2c-1-2.1-1.7-5-2-8.6c-1.4 1.6-2.4 2.8-3.2 3.5c-1.1 1-2 1.5-2.7 1.5c-.4 0-.9 0-1.5-.1l-3.6-.8c-1.6-.3-2.5-.5-2.9-.6c-.3-.2-.5-.4-.5-.8c0-.5 .7-2.2 2.1-5.1c1.3-2.8 2.3-4.6 3-5.3c.5-.5 1.3-1.2 2.6-2.1c.8-.5 1.8-1.1 3.2-1.9l1.6-1c-.1-.2-.1-.5-.1-.8c0-.3-.1-.6-.1-.8c0-.8 .2-1.7 .6-2.9c.3-1.1 .9-2.5 1.8-4.2Zm437.2-1.3l5.6 3.1l-3.1 5.7l-4.4-2.2l-2.6 4.9l-5.4-3.1l3.3-6.1l4.2 2.4Zm-475.2 0l5.6 3.1l-3.1 5.7l-4.4-2.2l-2.6 4.9l-5.4-3.1l3.3-6.1l4.2 2.4Zm-238-.5l6.9 3.7l-3.6 6.7l-6.9-3.7Zm954.6-.3l6.9 3.7l-3.6 6.7l-6.9-3.7Zm-82.3-.5l1.8 10.6c.7 4 1.1 7.5 1.4 10.4c.2 2.3 .3 4.5 .3 6.6c0 1.7-.2 3.3-.7 4.8c-.4 1.4-1.2 3.4-2.4 5.9l-1.8-.7c.5-2.6 .8-4.6 .8-6.2c0-1.2-.2-3-.4-5.4c-.1-2.3-.4-4.6-.7-6.9c-.3-2.3-.8-5.1-1.5-8.2c-.2-1.2-.3-1.9-.3-2.3c0-.7 .3-1.7 .9-3.2c.6-1.5 1.5-3.3 2.6-5.4Zm-131.3 0l1.8 10.6c.7 4 1.1 7.5 1.4 10.4c.2 2.3 .3 4.5 .3 6.6c0 1.7-.2 3.3-.6 4.8c-.4 1.4-1.3 3.4-2.4 5.9l-1.8-.7c.4-2.6 .7-4.6 .7-6.2c0-1.2-.1-3-.3-5.4c-.2-2.3-.5-4.6-.8-6.9c-.3-2.3-.7-5.1-1.4-8.2c-.3-1.2-.4-1.9-.4-2.3c0-.7 .3-1.7 .9-3.2c.7-1.5 1.5-3.3 2.6-5.4Zm-425.2 0c1.1 1.6 2 3.2 2.4 4.7c.6 1.8 .8 4.2 .8 7v5.8c0 4.2 .3 7.1 .9 8.7c.4 1.3 1.1 1.9 2 1.9h4.8c.6 0 1.2-.1 1.9-.3c.7-.1 1.2-.4 1.6-.6v-1.1c0-2.4 .3-4.5 1-6.3c.8-2 1.9-3.4 3.4-4.3l-1.5-1.1c.3-1.6 .5-2.9 .7-3.8c.2-.9 .6-2.2 1.1-3.9c3 2.1 5.7 4.6 8.2 7.6c2.3 2.8 4.1 5.6 5.4 8.3c1.3 2.8 1.9 5.2 1.9 7.3c0 1.4-.3 3-.8 4.7c-.7 2.1-1.6 3.2-2.5 3.2c-.8 0-2.2-.4-4.2-1.2c-2.2-.9-4.5-2.1-6.9-3.6c-1.3 1.2-2.9 2-4.8 2.6c-1.5 .4-3 .6-4.5 .6H757c-2.3 0-4-.9-5-2.8c-1.2-2.1-1.7-5.7-1.7-10.7v-8.5c0-1.9-.3-3.4-.8-4.5c-.3-.5-.9-1.2-1.8-2.2Zm-275.1 0l1.8 10.6c.7 4 1.1 7.5 1.4 10.4c.2 2.3 .3 4.5 .3 6.6c0 1.7-.2 3.3-.7 4.8c-.4 1.4-1.2 3.4-2.4 5.9l-1.8-.7c.5-2.6 .8-4.6 .8-6.2c0-1.2-.2-3-.4-5.4c-.2-2.3-.4-4.6-.7-6.9c-.3-2.3-.8-5.1-1.5-8.2c-.2-1.2-.3-1.9-.3-2.3c0-.7 .3-1.7 .9-3.2c.6-1.5 1.5-3.3 2.6-5.4Zm112.1-1.8l5.6 2.8l-3 6.2l-5.6-2.9Zm682.8-.5l5.5 2.9l-3 6.2l-5.6-3Zm22.9 0l1.4 .7c0 .1-.1 .4-.1 1c0 .6 .4 1.2 1.2 1.9c.8 .5 1.9 1.1 3.5 1.8c-.1 1.3-.4 2.5-.8 3.7c-.3 1.2-.7 2.3-1.1 3.3l-1.1-.4l3.2 18.4v8.1h-16.4l-1-.1c-.9-.1-1.8-.2-2.5-.4c-1.5-.3-2.9-.8-4.3-1.5c-1.2 .8-2.2 1.4-3.1 1.6c-.9 .3-2.3 .4-4.1 .4h-4.9c-1.3 0-2.3-.3-3.1-1c-.8-.7-1.5-1.9-2.1-3.5c-1.1 1.7-2.3 2.9-3.7 3.6c-1.1 .6-2.5 .9-4.1 .9h-24.2l-.2 1.5c-.6 2.2-2.1 4.1-4.5 5.9c-3.2 2.4-6.8 3.6-10.9 3.6c-3.4 0-6-.9-8-2.6c-1.9-1.7-2.8-4.1-2.8-7.2c0-2.9 .3-5.4 1-7.6c.8-2.4 2.4-5.3 4.8-8.9l1.9 1.3c-1.6 2.3-2.7 4.3-3.4 6c-.6 1.7-.9 3.4-.9 5.1c0 1.8 .6 3.2 2 4.2c1.3 1 3.2 1.5 5.6 1.5c3.5 0 6.4-.7 8.6-2c2.2-1.4 3.3-3.2 3.3-5.3c0-.4 0-.7 0-.9c0-.3 0-.4 0-.5c0-.8-.1-1.7-.2-2.6c-.2-.9-.5-2.9-1-5.8c-.9-4.7-1.7-9.4-2.6-14.1l-1.5-1.1c0-2 .9-5 2.8-9l1.3 .7c-.1 .3-.1 .6-.1 1c0 .7 .4 1.4 1.2 1.9c1.2 .7 2.4 1.3 3.4 1.9c-.2 1.7-.4 2.9-.6 3.7c-.2 .7-.7 1.8-1.4 3.3l-.9-.4c0 .3 .3 2 .9 5.1c.6 3.1 1 5.8 1.4 8c.5 2.4 .7 4.1 .8 5.1v.1h17.3c-.8-.9-1.5-1.7-2.3-2.4c-.6-.6-1.4-1.3-2.4-2.1c-1.1-.8-2.3-1.7-3.4-2.6l-.9 1.1c-1.8-1.8-2.8-2.8-3.2-3.2c-1-1.1-1.5-2.4-1.5-3.9c0-2 .2-3.4 .4-4.2c.4-1.2 1.3-2.2 2.6-3.1c1.1-.8 2.4-1.5 3.7-2.2c1-.5 2.4-1.1 4.1-1.8c.8-.3 2.5-1 5-2V307c-.1 0-.9 .3-2.5 .8c-1.9 .6-3.5 1.2-4.6 1.7c-1.7 .7-2.5 1.2-2.5 1.5c0 .2 .7 .9 2.1 2.3c1.9 1.9 3.5 3.6 4.8 5.2c2.2 2.5 4 5.1 5.3 7.6v.2h2.2c2.1 0 3.8-.6 5.2-1.7c1.8-1.6 2.7-3.9 2.7-7l2 .3c0 .6-.1 1.3-.1 2.2c-.1 .8-.1 1.7-.1 2.7c0 1 .4 1.8 1.1 2.5c.6 .7 1.4 1 2.3 1h3.7c2.4 0 4.2-.3 5.2-1c1.2-.8 1.9-2.3 1.9-4.6c0-.4 .1-.9 .4-1.2c.2-.3 .6-.6 1.1-1l1.2-.9c0 .4 0 .9 0 1.5c.1 .7 .1 1.1 .1 1.3c0 1.1-.2 2.5-.5 4.3c.7 .4 1.6 .7 2.5 1c.9 .2 1.8 .4 2.9 .6c0-.7-.3-1.6-.8-2.7c-.5-1-.7-1.8-.7-2.1c0-.6 0-1 .2-1.2c0-.1 .2-.4 .6-1l2.6-3.4c.5 1.3 .9 2.4 1.1 3.4c.3 1 .4 2.3 .4 3.9v3.1h10.8l-3.6-20.2l-2-1.3c0-1.2 .2-2.3 .6-3.5c.5-1.5 1.2-3.3 2.3-5.4Zm-131.3 0l1.4 .7c0 .1 0 .4-.1 1c0 .6 .4 1.2 1.3 1.9c.7 .5 1.9 1.1 3.5 1.8c-.2 1.3-.5 2.5-.8 3.7c-.4 1.2-.8 2.3-1.2 3.3l-1.1-.4l3.3 18.4v8.1h-35c-2.3 0-4-.9-5-2.8c-1.2-2.1-1.8-5.7-1.8-10.7v-8.5c0-1.9-.2-3.4-.8-4.5c-.2-.5-.8-1.2-1.8-2.2l3.3-7.5c1.1 1.6 1.9 3.2 2.4 4.7c.5 1.8 .8 4.2 .8 7v5.8c0 4.2 .3 7.1 .8 8.7c.4 1.3 1.1 1.9 2.1 1.9h17.8c-.3-1.3-.7-2.5-1.2-3.4c-.3-.5-1-1.4-2.1-2.7l2.4-7.1c1.5 1.7 2.5 3.5 3 5.3c.5 1.6 .8 3.9 .8 6.9v1H1165l-3.6-20.2l-1.9-1.3c0-1.2 .2-2.3 .5-3.5c.5-1.5 1.2-3.3 2.3-5.4Zm-45.1 0l1.4 .7c0 .1 0 .4-.1 1c0 .6 .4 1.2 1.3 1.9c.7 .5 1.9 1.1 3.5 1.8c-.2 1.3-.5 2.5-.8 3.7c-.4 1.2-.8 2.3-1.2 3.3l-1.1-.4l3.3 18.4v8.1h-17.4c-.9 0-1.5 0-1.9 .1c-.4 0-.6 .1-.6 .4c.6 .3 1.2 .5 1.7 .7c.5 .1 .8 .3 .9 .5c.2 .2 .3 .5 .3 1c0 1.4-.4 3.1-1.2 5c-.8 2-1.6 3.2-2.4 3.7c-.7 .6-2.9 1.3-6.5 2.1c-3.7 .8-6.8 1.2-9.4 1.2c-3.7 0-6.8-.8-9.1-2.3c-2.3-1.6-3.4-3.6-3.4-6.1c0-2.4 .5-4.7 1.5-6.9c1.2-2.7 3.5-6.1 6.8-10.1l1.8 1.2c-2.1 2.5-3.5 4.6-4.3 6.2c-.8 1.6-1.2 3.1-1.2 4.7c0 2.1 .8 3.7 2.6 4.7c1.8 1 4.5 1.5 8.2 1.5c1.9 0 4.5-.3 7.9-1c3.4-.7 5.1-1.3 5.1-1.8c0-.3-.7-.5-2-.7c-1.3-.2-2.7-.3-4.2-.3c-2.3 0-3.5-.5-3.5-1.5c0-.4 .3-1.3 .9-2.4c.3-.8 .7-1.7 1.1-2.5c.8-1.6 2.2-2.9 4.2-4c2.1-1 4.3-1.5 6.6-1.5h13.9l-3.6-20.2l-1.9-1.3c0-1.2 .2-2.3 .5-3.5c.5-1.5 1.2-3.3 2.3-5.4Zm-125 0l1.4 .7c0 .1-.1 .4-.1 1c0 .6 .4 1.2 1.2 1.9c.8 .5 1.9 1.1 3.5 1.8c-.1 1.3-.4 2.5-.8 3.7c-.3 1.2-.7 2.3-1.1 3.3l-1.1-.4l3.2 18.4h3.9c1.7 0 3.2-.2 4.2-.6c1.4-.6 2.3-1.6 2.8-2.9c1.1-2.6 2.6-4.6 4.4-6.3c1.5-1.4 2.9-2.1 4-2.1c1 0 2.2 1.5 3.7 4.6c1.2 2.4 1.9 4.7 2.2 6.8l.1 .5h1.2c.5 0 1 0 1.2 0c.6-.1 1.2-.1 1.8-.2c-1-1.5-1.6-2.7-2-3.6c-.3-.9-.5-2-.5-3.1c0-3 1.2-5.6 3.7-7.8c2.4-2.2 5.3-3.3 8.6-3.3c2.2 0 4.3 .7 6.3 2.2c1.9 1.3 3.2 3 4.1 4.9l-1.3 1c-1.6-.5-2.8-.9-3.7-1.1c-1-.2-2.1-.3-3.4-.3c-2.5 0-4.6 .2-6.5 .6c-2.2 .5-3.4 1.2-3.4 2.2c0 1.3 2.8 3.6 8.3 6.8l15.2-4.4l-3.4 8.5c-5.3 1.6-9.8 2.9-13.3 3.8c-3 .8-5.6 1.3-7.7 1.6c-1.5 .2-3 .3-4.6 .3h-2.7v-.1l-.3-.1c-1.5-.2-3.1-.5-4.9-1c-2.5-.7-4.7-1.6-6.6-2.6c-1.1 1.8-2.5 2.9-4.2 3.4c-.8 .3-1.9 .4-3.3 .4H963.8c-.8 0-1.4-.1-2-.4c-1.1-.6-2.1-1.6-2.9-3.2c-1.1-2.1-1.8-5-2.1-8.6c-1.4 1.6-2.4 2.8-3.2 3.5c-1.1 1-2 1.5-2.7 1.5c-.4 0-.9 0-1.4-.1l-3.7-.8c-1.5-.3-2.5-.5-2.8-.6c-.4-.2-.6-.4-.6-.8c0-.5 .7-2.2 2.1-5.1c1.4-2.8 2.4-4.6 3-5.3c.5-.5 1.4-1.2 2.6-2.1c.8-.5 1.9-1.1 3.3-1.9l1.5-1c0-.2-.1-.5-.1-.8c0-.3 0-.6 0-.8c0-.8 .1-1.7 .5-2.9c.3-1.1 1-2.5 1.9-4.2l2.8 18.6c.5 2.9 1.1 4.9 1.8 5.9c.5 .7 1.1 1 2 1h17.4c-.2-1.3-.6-2.5-1.2-3.4c-.3-.5-1-1.4-2.1-2.7l2.4-7.1c1.5 1.7 2.5 3.5 3.1 5.3c.5 1.6 .7 3.9 .8 6.9v1h10.7l-3.6-20.2l-2-1.3c0-1.2 .2-2.3 .6-3.5c.4-1.5 1.2-3.3 2.3-5.4Zm-576.4 0l1.4 .7c0 .1-.1 .4-.1 1c0 .6 .4 1.2 1.2 1.9c.8 .5 1.9 1.1 3.5 1.8c-.1 1.3-.4 2.5-.8 3.7c-.3 1.2-.7 2.3-1.1 3.3l-1.1-.4l3.2 18.4h19.1c-2.4-2.5-4.6-4.3-6.6-5.3c-1.8-1-3.6-1.5-5.3-1.5c-.6 0-1 0-1.5 .1c-.4 0-1 .1-1.8 .3c1.1-2.5 2.3-4.4 3.6-5.5c1.4-1.2 2.9-1.8 4.6-1.8c1.3 0 2.6 .3 3.8 .9c1.2 .7 2.6 1.7 4.1 3.1c1.2 1.1 2.9 2.8 5 5.2c1.5 1.7 2.7 2.8 3.4 3.3c.8 .5 2 .9 3.6 1.2h10.7l-3.6-20.2l-2-1.3c0-1.2 .2-2.3 .6-3.5c.5-1.5 1.2-3.3 2.3-5.4l1.4 .7c0 .1-.1 .4-.1 1c0 .6 .4 1.2 1.2 1.9c.8 .5 1.9 1.1 3.5 1.8c-.1 1.3-.4 2.5-.8 3.7c-.3 1.2-.7 2.3-1.1 3.3l-1.1-.4l3.2 18.4v8.1H387.4c-.7 0-1.4-.1-2-.4c-1.1-.6-2.1-1.6-2.9-3.2c-1.1-2.1-1.8-5-2.1-8.6c-1.4 1.6-2.4 2.8-3.2 3.5c-1.1 1-2 1.5-2.7 1.5c-.4 0-.9 0-1.4-.1l-3.7-.8c-1.5-.3-2.5-.5-2.8-.6c-.4-.2-.6-.4-.6-.8c0-.5 .7-2.2 2.1-5.1c1.4-2.8 2.4-4.6 3-5.3c.5-.5 1.4-1.2 2.6-2.1c.8-.5 1.9-1.1 3.3-1.9l1.5-1c0-.2-.1-.5-.1-.8c0-.3 0-.6 0-.8c0-.8 .1-1.7 .5-2.9c.3-1.1 1-2.5 1.9-4.2l2.8 18.6c.5 2.9 1.1 4.9 1.8 5.9c.5 .7 1.1 1 2 1h17.4c-.2-1.3-.6-2.5-1.2-3.4c-.3-.5-1-1.4-2.1-2.7l2.4-7.1c1.5 1.7 2.5 3.5 3.1 5.3c.5 1.6 .7 3.9 .8 6.9v1h10.7l-3.6-20.2l-2-1.3c0-1.2 .2-2.3 .6-3.5c.5-1.5 1.2-3.3 2.3-5.4Zm125.6-4.6l6.9 3.7l-3.6 6.7l-6.9-3.7Zm414.1-1.4l5.3 2.7l-3.3 5.6l-4.2-2.4l-2.4 4.7l-5.6-3l3.1-5.3l4.5 2.2Zm-135.2 0l5.4 2.7l-3.3 5.6l-4.2-2.4l-2.4 4.7l-5.6-3l3.1-5.3l4.4 2.2Zm-110.9 0l5.4 2.7l-3.3 5.6l-4.3-2.4l-2.3 4.7l-5.6-3l3.1-5.3l4.4 2.2Zm-330.3 0l5.3 2.7l-3.3 5.6l-4.2-2.4l-2.4 4.7l-5.6-3l3.1-5.3l4.5 2.2Z" class="g1_64"/>
<path fill-rule="evenodd" d="M335.9 334.8h8.3v8.4h-8.3Zm-17.1 0h8.4v8.4h-8.4Zm-17 0h8.3v8.4h-8.3Zm-17.1 0h8.4v8.4h-8.4Z" class="g0_64"/>
<path d="M335.9 334.8h8.3v8.4h-8.3Zm-17.1 0h8.4v8.4h-8.4Zm-17 0h8.3v8.4h-8.3Zm-17.1 0h8.4v8.4h-8.4Z" class="g1_64"/>
<path fill-rule="evenodd" d="M1179.6 426.9l6.9 3.7l-3.6 6.7l-7-3.6Zm29-.3l5.6 3.1l-3.1 5.8l-4.4-2.2l-2.5 4.8l-5.5-3.1l3.3-6l4.3 2.4ZM1371 411.5c-.6 0-1.1 .3-1.5 .8c-.3 .4-.5 1-.5 1.6c0 .7 .4 1.3 1.2 1.7c.7 .5 1.8 .7 3.1 .7h1.1c-.6-3.2-1.7-4.8-3.4-4.8Zm75.2-.1c-.8 0-1.4 .8-2 2.6c1.1 .4 1.8 .7 2.4 .9c1.6 .6 2.5 .9 2.7 .9c.4 0 .7-.1 .7-.4c0-.4-.5-1.2-1.3-2.3c-1-1.1-1.8-1.7-2.5-1.7Zm-100-6.4c1.4 1.4 2.4 3 3.1 4.8c.8 1.8 1.1 3.9 1.1 6.2v9.1c0 1.2-.7 2.8-2 4.8c-1.4 2-3.1 3.8-4.9 5.2c-2.1 1.7-3.9 2.5-5.3 2.5c-1.8 0-3.7-.5-5.7-1.5c-1.7-.9-4.4-2.6-8.2-5.1l1.3-1.9c1.8 1.2 3.2 2 4.3 2.4c1.1 .4 2.3 .7 3.6 .7c1.3 0 2.7-.4 4.1-1.2c1.3-.8 3.2-2.2 5.6-4.3c3.3-3 4.9-5.2 4.9-6.8c0-.8-.3-1.9-.9-3.2c-.8-1.4-1.6-2.6-2.7-3.6Zm26.1-1.4c1.5 0 2.9 1.1 4 3.2c1.1 2.2 1.7 4.8 1.7 7.9v7.7c0 3.4-1.5 6.8-4.4 10.1c-2.9 3.4-5.7 5-8.6 5c-1.6 0-3.4-.5-5.4-1.5c-1.9-1.1-4.9-3.2-9-6.3l1.3-1.7c2.1 1.4 3.9 2.4 5.2 2.8c1.2 .4 2.5 .6 3.9 .6c1.9 0 3.8-.5 5.7-1.6c2.2-1.2 4.5-3.3 6.9-6.1c-.8 .1-1.5 .2-2.1 .2c-1.9 0-3.5-.7-4.7-1.9c-1.1-1.3-1.7-3.1-1.7-5.3c0-3 .7-5.8 2.1-8.6c1.4-3 3.1-4.5 5.1-4.5Zm19.6-7.3c2.6 1.9 4.4 4.4 5.5 7.4c1 2.8 1.5 6.5 1.5 11.2v9.5h-13.5c-1.4 0-2.4-.2-3.1-.8c-.8-.7-1.2-1.8-1.2-3.3c0-.9 0-1.8 .1-2.8c.1-1 .2-2.1 .4-3.1l1.1-.1c.2 .7 .6 1.2 1.1 1.6c.5 .3 1.2 .4 2 .4H1396c-.4-2.9-1.2-5.2-2.4-7c-.9-1.4-2.2-2.7-3.9-3.7ZM1234 389.9V397c-.1 0-.9 .3-2.5 .8c-2 .7-3.5 1.2-4.7 1.7c-1.6 .7-2.5 1.2-2.5 1.5c0 .2 .7 1 2.2 2.3c1.9 1.9 3.5 3.6 4.8 5.2c2.2 2.5 3.9 5.1 5.3 7.6v8.3h-63.5c-1.2 0-2.2 0-3 0c-.8 0-1.4 0-1.8-.1c-.7-.1-1.6-.3-2.5-.6c-1.7-.6-3-1.7-4-3.4c-1.1-1.7-1.6-3.6-1.6-5.7c0-.9 0-1.7 .1-2.6c.2-.9 .4-1.8 .7-2.8c.4-1.2 .9-2.3 1.4-3.2c.6-.9 1.1-1.8 1.7-2.7l1.7 1.1c-.5 .8-.8 1.5-1.1 2.2c-.3 .6-.5 1.2-.7 1.6c-.3 1-.4 1.9-.4 2.7c0 1.2 .3 2.2 1.1 3.1c.7 .9 1.7 1.5 2.8 1.8c.7 .1 1.6 .3 2.7 .4c1.1 .1 2.3 .1 3.6 .1h21.5c-.5-1.5-1-2.6-1.3-3.2c-.5-.8-1.2-1.7-2.1-2.9l2.7-6.9c1.5 2.1 2.5 4.1 2.9 5.9c.4 1.5 .6 3.8 .6 6.8v.3h13.6c-.2-1.3-.6-2.5-1.2-3.4c-.3-.5-1-1.4-2.1-2.7l2.4-7.1c1.5 1.7 2.5 3.5 3 5.3c.5 1.7 .8 3.9 .8 6.9l.1 1h17.1c-.7-.9-1.5-1.7-2.2-2.4c-.6-.6-1.4-1.2-2.4-2c-1.2-.9-2.3-1.8-3.4-2.7l-1 1.1c-1.7-1.7-2.8-2.8-3.1-3.2c-1-1.1-1.5-2.4-1.5-3.9c0-2 .1-3.4 .4-4.2c.4-1.2 1.3-2.2 2.5-3.1c1.2-.8 2.4-1.5 3.7-2.2c1.1-.5 2.4-1.1 4.1-1.8c.8-.3 2.5-1 5.1-2Zm39.5-.4l5.6 3.1l-3.1 5.8l-4.4-2.2l-2.5 4.8l-5.5-3.1l3.3-6l4.3 2.3Zm146.4-1.2c1.1 1.5 1.9 3.1 2.4 4.7c.5 1.8 .8 4.1 .8 6.9v5.8c0 4.2 .3 7.1 .8 8.7c.5 1.3 1.2 1.9 2.1 1.9h8c1.8 0 3.2-.2 4.3-.6c1.3-.6 2.2-1.6 2.8-2.9c1.1-2.5 2.5-4.6 4.3-6.2c1.6-1.5 2.9-2.2 4-2.2c1 0 2.3 1.5 3.8 4.6c1.5 3.2 2.3 6.2 2.3 8.9v6.5c-2.1 0-4.5-.4-7.3-1.2c-2.5-.7-4.7-1.6-6.6-2.5c-1.1 1.7-2.6 2.8-4.3 3.3c-.8 .3-1.9 .4-3.3 .4h-8c-2.3 0-4-.9-5-2.8c-1.2-2.1-1.8-5.7-1.8-10.7v-8.5c0-1.9-.2-3.4-.7-4.5c-.3-.5-.9-1.2-1.8-2.2Zm-118.5 0l1.7 10.5c.7 4 1.2 7.5 1.4 10.4c.2 2.3 .3 4.5 .3 6.6c0 1.7-.2 3.3-.6 4.8c-.4 1.5-1.2 3.4-2.4 5.9l-1.8-.7c.5-2.6 .7-4.6 .7-6.2c0-1.2-.1-3-.3-5.4c-.2-2.3-.4-4.6-.7-6.9c-.3-2.3-.8-5.1-1.5-8.2c-.2-1.1-.4-1.9-.4-2.3c0-.6 .4-1.7 1-3.2c.6-1.5 1.4-3.2 2.6-5.3Zm-13.8-2.4l1.3 .7c0 .1 0 .4-.1 1c0 .6 .4 1.2 1.3 1.9c.7 .5 1.9 1.2 3.5 1.8c-.2 1.3-.5 2.5-.8 3.8c-.4 1.2-.7 2.2-1.2 3.2l-1.1-.4l3.3 18.4v8.1H1263v.7c0 1.2-.7 2.8-2.1 4.8c-1.4 2-3 3.8-4.9 5.2c-2 1.7-3.8 2.5-5.3 2.5c-1.7 0-3.6-.5-5.6-1.5c-1.8-.9-4.5-2.6-8.2-5.1l1.2-1.9c1.8 1.2 3.3 2 4.3 2.4c1.2 .4 2.3 .7 3.6 .7c1.4 0 2.7-.4 4.1-1.2c1.4-.8 3.3-2.2 5.6-4.3c3.3-3 5-5.2 5-6.8c0-.8-.3-1.9-1-3.2c-.7-1.4-1.6-2.6-2.6-3.6l1.7-8.1c1.3 1.4 2.3 3 3.1 4.8c.7 1.8 1.1 3.9 1.1 6.2v.3h13.6c-.2-1.3-.6-2.5-1.2-3.4c-.3-.5-1-1.4-2.1-2.7l2.4-7.1c1.5 1.7 2.5 3.5 3 5.3c.5 1.7 .8 3.9 .8 6.9l.1 1h10.6l-3.6-20.2l-1.9-1.3c0-1.1 .2-2.3 .5-3.5c.5-1.5 1.3-3.3 2.4-5.4Z" class="g0_64"/>
<path d="M1179.6 426.9l6.9 3.7l-3.6 6.7l-7-3.6Zm29-.3l5.6 3.1l-3.1 5.8l-4.4-2.2l-2.5 4.8l-5.5-3.1l3.3-6l4.3 2.4ZM1371 411.5c-.6 0-1.1 .3-1.5 .8c-.3 .4-.5 1-.5 1.6c0 .7 .4 1.3 1.2 1.7c.7 .5 1.8 .7 3.1 .7h1.1c-.6-3.2-1.7-4.8-3.4-4.8Zm75.2-.1c-.8 0-1.4 .8-2 2.6c1.1 .4 1.8 .7 2.4 .9c1.6 .6 2.5 .9 2.7 .9c.4 0 .7-.1 .7-.4c0-.4-.5-1.2-1.3-2.3c-1-1.1-1.8-1.7-2.5-1.7Zm-100-6.4c1.4 1.4 2.4 3 3.1 4.8c.8 1.8 1.1 3.9 1.1 6.2v9.1c0 1.2-.7 2.8-2 4.8c-1.4 2-3.1 3.8-4.9 5.2c-2.1 1.7-3.9 2.5-5.3 2.5c-1.8 0-3.7-.5-5.7-1.5c-1.7-.9-4.4-2.6-8.2-5.1l1.3-1.9c1.8 1.2 3.2 2 4.3 2.4c1.1 .4 2.3 .7 3.6 .7c1.3 0 2.7-.4 4.1-1.2c1.3-.8 3.2-2.2 5.6-4.3c3.3-3 4.9-5.2 4.9-6.8c0-.8-.3-1.9-.9-3.2c-.8-1.4-1.6-2.6-2.7-3.6Zm26.1-1.4c1.5 0 2.9 1.1 4 3.2c1.1 2.2 1.7 4.8 1.7 7.9v7.7c0 3.4-1.5 6.8-4.4 10.1c-2.9 3.4-5.7 5-8.6 5c-1.6 0-3.4-.5-5.4-1.5c-1.9-1.1-4.9-3.2-9-6.3l1.3-1.7c2.1 1.4 3.9 2.4 5.2 2.8c1.2 .4 2.5 .6 3.9 .6c1.9 0 3.8-.5 5.7-1.6c2.2-1.2 4.5-3.3 6.9-6.1c-.8 .1-1.5 .2-2.1 .2c-1.9 0-3.5-.7-4.7-1.9c-1.1-1.3-1.7-3.1-1.7-5.3c0-3 .7-5.8 2.1-8.6c1.4-3 3.1-4.5 5.1-4.5Zm19.6-7.3c2.6 1.9 4.4 4.4 5.5 7.4c1 2.8 1.5 6.5 1.5 11.2v9.5h-13.5c-1.4 0-2.4-.2-3.1-.8c-.8-.7-1.2-1.8-1.2-3.3c0-.9 0-1.8 .1-2.8c.1-1 .2-2.1 .4-3.1l1.1-.1c.2 .7 .6 1.2 1.1 1.6c.5 .3 1.2 .4 2 .4H1396c-.4-2.9-1.2-5.2-2.4-7c-.9-1.4-2.2-2.7-3.9-3.7ZM1234 389.9V397c-.1 0-.9 .3-2.5 .8c-2 .7-3.5 1.2-4.7 1.7c-1.6 .7-2.5 1.2-2.5 1.5c0 .2 .7 1 2.2 2.3c1.9 1.9 3.5 3.6 4.8 5.2c2.2 2.5 3.9 5.1 5.3 7.6v8.3h-63.5c-1.2 0-2.2 0-3 0c-.8 0-1.4 0-1.8-.1c-.7-.1-1.6-.3-2.5-.6c-1.7-.6-3-1.7-4-3.4c-1.1-1.7-1.6-3.6-1.6-5.7c0-.9 0-1.7 .1-2.6c.2-.9 .4-1.8 .7-2.8c.4-1.2 .9-2.3 1.4-3.2c.6-.9 1.1-1.8 1.7-2.7l1.7 1.1c-.5 .8-.8 1.5-1.1 2.2c-.3 .6-.5 1.2-.7 1.6c-.3 1-.4 1.9-.4 2.7c0 1.2 .3 2.2 1.1 3.1c.7 .9 1.7 1.5 2.8 1.8c.7 .1 1.6 .3 2.7 .4c1.1 .1 2.3 .1 3.6 .1h21.5c-.5-1.5-1-2.6-1.3-3.2c-.5-.8-1.2-1.7-2.1-2.9l2.7-6.9c1.5 2.1 2.5 4.1 2.9 5.9c.4 1.5 .6 3.8 .6 6.8v.3h13.6c-.2-1.3-.6-2.5-1.2-3.4c-.3-.5-1-1.4-2.1-2.7l2.4-7.1c1.5 1.7 2.5 3.5 3 5.3c.5 1.7 .8 3.9 .8 6.9l.1 1h17.1c-.7-.9-1.5-1.7-2.2-2.4c-.6-.6-1.4-1.2-2.4-2c-1.2-.9-2.3-1.8-3.4-2.7l-1 1.1c-1.7-1.7-2.8-2.8-3.1-3.2c-1-1.1-1.5-2.4-1.5-3.9c0-2 .1-3.4 .4-4.2c.4-1.2 1.3-2.2 2.5-3.1c1.2-.8 2.4-1.5 3.7-2.2c1.1-.5 2.4-1.1 4.1-1.8c.8-.3 2.5-1 5.1-2Zm39.5-.4l5.6 3.1l-3.1 5.8l-4.4-2.2l-2.5 4.8l-5.5-3.1l3.3-6l4.3 2.3Zm146.4-1.2c1.1 1.5 1.9 3.1 2.4 4.7c.5 1.8 .8 4.1 .8 6.9v5.8c0 4.2 .3 7.1 .8 8.7c.5 1.3 1.2 1.9 2.1 1.9h8c1.8 0 3.2-.2 4.3-.6c1.3-.6 2.2-1.6 2.8-2.9c1.1-2.5 2.5-4.6 4.3-6.2c1.6-1.5 2.9-2.2 4-2.2c1 0 2.3 1.5 3.8 4.6c1.5 3.2 2.3 6.2 2.3 8.9v6.5c-2.1 0-4.5-.4-7.3-1.2c-2.5-.7-4.7-1.6-6.6-2.5c-1.1 1.7-2.6 2.8-4.3 3.3c-.8 .3-1.9 .4-3.3 .4h-8c-2.3 0-4-.9-5-2.8c-1.2-2.1-1.8-5.7-1.8-10.7v-8.5c0-1.9-.2-3.4-.7-4.5c-.3-.5-.9-1.2-1.8-2.2Zm-118.5 0l1.7 10.5c.7 4 1.2 7.5 1.4 10.4c.2 2.3 .3 4.5 .3 6.6c0 1.7-.2 3.3-.6 4.8c-.4 1.5-1.2 3.4-2.4 5.9l-1.8-.7c.5-2.6 .7-4.6 .7-6.2c0-1.2-.1-3-.3-5.4c-.2-2.3-.4-4.6-.7-6.9c-.3-2.3-.8-5.1-1.5-8.2c-.2-1.1-.4-1.9-.4-2.3c0-.6 .4-1.7 1-3.2c.6-1.5 1.4-3.2 2.6-5.3Zm-13.8-2.4l1.3 .7c0 .1 0 .4-.1 1c0 .6 .4 1.2 1.3 1.9c.7 .5 1.9 1.2 3.5 1.8c-.2 1.3-.5 2.5-.8 3.8c-.4 1.2-.7 2.2-1.2 3.2l-1.1-.4l3.3 18.4v8.1H1263v.7c0 1.2-.7 2.8-2.1 4.8c-1.4 2-3 3.8-4.9 5.2c-2 1.7-3.8 2.5-5.3 2.5c-1.7 0-3.6-.5-5.6-1.5c-1.8-.9-4.5-2.6-8.2-5.1l1.2-1.9c1.8 1.2 3.3 2 4.3 2.4c1.2 .4 2.3 .7 3.6 .7c1.4 0 2.7-.4 4.1-1.2c1.4-.8 3.3-2.2 5.6-4.3c3.3-3 5-5.2 5-6.8c0-.8-.3-1.9-1-3.2c-.7-1.4-1.6-2.6-2.6-3.6l1.7-8.1c1.3 1.4 2.3 3 3.1 4.8c.7 1.8 1.1 3.9 1.1 6.2v.3h13.6c-.2-1.3-.6-2.5-1.2-3.4c-.3-.5-1-1.4-2.1-2.7l2.4-7.1c1.5 1.7 2.5 3.5 3 5.3c.5 1.7 .8 3.9 .8 6.9l.1 1h10.6l-3.6-20.2l-1.9-1.3c0-1.1 .2-2.3 .5-3.5c.5-1.5 1.3-3.3 2.4-5.4Z" class="g1_64"/>
<path fill-rule="evenodd" d="M1122.7 388.7h5.7c3 4.3 5.3 8.8 7 13.6c1.7 4.8 2.5 9.7 2.5 14.6c0 4.2-.7 8.6-2 13.4c-1.5 5.3-3.9 10.5-7.3 15.7h-5.8c1.6-3.5 2.8-6.2 3.5-8.1c.6-1.9 1.3-4.1 1.8-6.5c.6-2.5 1.1-4.8 1.3-7.1c.3-2.2 .4-4.5 .4-6.8c0-4.7-.5-9.2-1.5-13.4c-1-4.2-2.9-9.4-5.6-15.4Z" class="g0_64"/>
<path d="M1122.7 388.7h5.7c3 4.3 5.3 8.8 7 13.6c1.7 4.8 2.5 9.7 2.5 14.6c0 4.2-.7 8.6-2 13.4c-1.5 5.3-3.9 10.5-7.3 15.7h-5.8c1.6-3.5 2.8-6.2 3.5-8.1c.6-1.9 1.3-4.1 1.8-6.5c.6-2.5 1.1-4.8 1.3-7.1c.3-2.2 .4-4.5 .4-6.8c0-4.7-.5-9.2-1.5-13.4c-1-4.2-2.9-9.4-5.6-15.4Z" class="g1_64"/>
<path fill-rule="evenodd" d="M1101.9 402l-5.4 16.4h10.9L1102 402Zm.1-7.6c1.2 0 2.2 0 2.9 .1c.6 0 1.2 .1 1.6 .2c.4 .1 .6 .2 .8 .5c.2 .2 .3 .5 .4 .9l12 34.2c.2 .7 .4 1.2 .4 1.6c.1 .5 0 .8-.2 1c-.2 .2-.6 .3-1.2 .4c-.5 0-1.3 .1-2.3 .1c-1 0-1.8-.1-2.3-.1c-.6 0-1.1-.1-1.3-.2c-.3-.1-.5-.2-.7-.3c-.1-.2-.2-.4-.3-.7l-2.6-7.7h-14.5l-2.4 7.5c-.1 .3-.2 .5-.3 .7c-.1 .2-.3 .4-.6 .5c-.3 .1-.7 .1-1.3 .2c-.5 0-1.2 .1-2 .1c-.9 0-1.7-.1-2.2-.1c-.5-.1-.9-.2-1.1-.5c-.2-.2-.2-.5-.2-.9c.1-.5 .2-1 .5-1.7L1097 396c.1-.4 .2-.6 .4-.9c.2-.2 .4-.3 .8-.4c.3-.1 .8-.2 1.4-.2c.6-.1 1.4-.1 2.4-.1Z" class="g0_64"/>
<path d="M1101.9 402l-5.4 16.4h10.9L1102 402Zm.1-7.6c1.2 0 2.2 0 2.9 .1c.6 0 1.2 .1 1.6 .2c.4 .1 .6 .2 .8 .5c.2 .2 .3 .5 .4 .9l12 34.2c.2 .7 .4 1.2 .4 1.6c.1 .5 0 .8-.2 1c-.2 .2-.6 .3-1.2 .4c-.5 0-1.3 .1-2.3 .1c-1 0-1.8-.1-2.3-.1c-.6 0-1.1-.1-1.3-.2c-.3-.1-.5-.2-.7-.3c-.1-.2-.2-.4-.3-.7l-2.6-7.7h-14.5l-2.4 7.5c-.1 .3-.2 .5-.3 .7c-.1 .2-.3 .4-.6 .5c-.3 .1-.7 .1-1.3 .2c-.5 0-1.2 .1-2 .1c-.9 0-1.7-.1-2.2-.1c-.5-.1-.9-.2-1.1-.5c-.2-.2-.2-.5-.2-.9c.1-.5 .2-1 .5-1.7L1097 396c.1-.4 .2-.6 .4-.9c.2-.2 .4-.3 .8-.4c.3-.1 .8-.2 1.4-.2c.6-.1 1.4-.1 2.4-.1Z" class="g1_64"/>
<path fill-rule="evenodd" d="M1076 388.7h5.7c-2.7 6-4.6 11.2-5.6 15.4c-1 4.2-1.6 8.7-1.6 13.4c0 3.3 .3 6.6 .9 10c.7 3.5 1.5 6.7 2.5 9.8c.7 2 2 4.9 3.7 8.7h-5.8c-3-4.6-5.3-9.3-6.9-14.3c-1.6-4.9-2.4-9.7-2.4-14.4c0-5.7 1-11.1 3-16.3c1.7-4.4 3.9-8.5 6.5-12.3Z" class="g0_64"/>
<path d="M1076 388.7h5.7c-2.7 6-4.6 11.2-5.6 15.4c-1 4.2-1.6 8.7-1.6 13.4c0 3.3 .3 6.6 .9 10c.7 3.5 1.5 6.7 2.5 9.8c.7 2 2 4.9 3.7 8.7h-5.8c-3-4.6-5.3-9.3-6.9-14.3c-1.6-4.9-2.4-9.7-2.4-14.4c0-5.7 1-11.1 3-16.3c1.7-4.4 3.9-8.5 6.5-12.3Z" class="g1_64"/>
<path fill-rule="evenodd" d="M1036.4 426.9l6.9 3.7l-3.5 6.7l-7-3.6Zm-26-1.9c.3 1.7 1.2 3.2 2.7 4.5c1.5 1.3 3.2 1.9 4.9 1.9c.6 0 .9-.2 .9-.6c0-1.1-.6-2.2-1.9-3.2c-1.5-1.2-3.7-2.1-6.6-2.6Zm-50.6-7.6c1 0 1.9 .4 2.6 1.1c.7 .7 1 1.6 1 2.6c0 1-.3 1.9-1.1 2.6c-.7 .8-1.6 1.1-2.6 1.1c-1 0-1.8-.3-2.5-1.1c-.8-.7-1.1-1.6-1.1-2.6c0-1 .3-1.9 1.1-2.6c.7-.7 1.6-1.1 2.6-1.1Zm56.1-9.6c-.5 0-1.1 .5-1.8 1.7c-.6 1.1-1.5 2.8-2.5 5.2c2.3-.7 3.9-1.4 4.8-2c.8-.6 1.3-1.2 1.3-1.9c0-.5-.2-1.1-.6-1.9c-.4-.8-.8-1.1-1.2-1.1Zm-55.6-18.1c2.4 0 4.4 .7 6 2.1c1.7 1.3 2.5 3.1 2.5 5.3c0 1.3-.3 2.4-1 3.3c-.8 1-1.9 1.6-3.2 1.6c-1 0-1.8-.4-2.4-1c-.7-.7-1-1.4-1-2.3c0-1.4 .5-2.4 1.6-3.1c1.1-.6 1.7-1.2 1.7-1.6c0-.7-.3-1.3-1-1.7c-.6-.4-1.5-.6-2.5-.6c-1.3 0-2.4 .4-3.2 1.1c-.8 .7-1.2 1.6-1.2 2.7c0 .9 .4 2.2 1.2 3.7c1.3 2.3 2.1 3.8 2.4 4.5c.8 2 1.2 4.3 1.2 6.7c0 1.3-.1 2.8-.3 4.4h-1.8c0-.3 0-.6 0-.8l.2-1.6c0-1.1-.7-2.3-2.2-3.6c-2.5-2.2-3.9-3.5-4.1-3.8c-1.5-1.7-2.3-3.7-2.3-5.9c0-2.7 .9-4.9 2.7-6.7c1.8-1.8 4-2.7 6.7-2.7Zm31.7-1.4c1.1 1.5 1.9 3.1 2.4 4.7c.5 1.8 .8 4.1 .8 6.9v5.8c0 4.2 .3 7.1 .8 8.7c.5 1.3 1.2 1.9 2.1 1.9h4.8c1 0 2.1-.1 3.3-.3c1.2-.2 2.1-.4 2.6-.5c2.2-6 4.1-10.3 5.8-13c1.5-2.3 2.9-3.5 4.1-3.5c1 0 1.9 1 2.7 3c.6 1.7 .9 3.4 .9 5.1c0 2.3-.4 4.2-1.4 5.9c-1 1.7-2.4 3.1-4.4 3.9c1.4-.2 2.7-.4 3.9-.5c1.2 0 2.3-.1 3.3-.1h19.7c-.2-1.3-.6-2.5-1.2-3.4c-.3-.5-1-1.4-2.1-2.7l2.4-7.1c1.5 1.7 2.5 3.5 3 5.3c.6 1.9 .9 4.6 .9 8.3v7.7h-22.7c-.4 0-.9 0-1.4 0c-.4 .1-1.1 .1-2.1 .2c.7 .4 1.5 .8 2.2 1.2c.6 .5 1 1.2 1 2c0 .8-.1 1.6-.3 2.5c-.2 .5-.5 1.4-.9 2.6c-.8 2.5-1.6 4.2-2.3 5.1c-.7 .9-1.7 1.3-2.8 1.3c-2.7 0-5.1-1.4-7.1-4.4c-2-2.9-3-6.4-3-10.5h-8.9c-2.3 0-4-.9-5-2.8c-1.2-2.1-1.8-5.7-1.8-10.7v-8.5c0-1.9-.2-3.4-.8-4.5c-.2-.5-.8-1.2-1.7-2.2Z" class="g0_64"/>
<path d="M1036.4 426.9l6.9 3.7l-3.5 6.7l-7-3.6Zm-26-1.9c.3 1.7 1.2 3.2 2.7 4.5c1.5 1.3 3.2 1.9 4.9 1.9c.6 0 .9-.2 .9-.6c0-1.1-.6-2.2-1.9-3.2c-1.5-1.2-3.7-2.1-6.6-2.6Zm-50.6-7.6c1 0 1.9 .4 2.6 1.1c.7 .7 1 1.6 1 2.6c0 1-.3 1.9-1.1 2.6c-.7 .8-1.6 1.1-2.6 1.1c-1 0-1.8-.3-2.5-1.1c-.8-.7-1.1-1.6-1.1-2.6c0-1 .3-1.9 1.1-2.6c.7-.7 1.6-1.1 2.6-1.1Zm56.1-9.6c-.5 0-1.1 .5-1.8 1.7c-.6 1.1-1.5 2.8-2.5 5.2c2.3-.7 3.9-1.4 4.8-2c.8-.6 1.3-1.2 1.3-1.9c0-.5-.2-1.1-.6-1.9c-.4-.8-.8-1.1-1.2-1.1Zm-55.6-18.1c2.4 0 4.4 .7 6 2.1c1.7 1.3 2.5 3.1 2.5 5.3c0 1.3-.3 2.4-1 3.3c-.8 1-1.9 1.6-3.2 1.6c-1 0-1.8-.4-2.4-1c-.7-.7-1-1.4-1-2.3c0-1.4 .5-2.4 1.6-3.1c1.1-.6 1.7-1.2 1.7-1.6c0-.7-.3-1.3-1-1.7c-.6-.4-1.5-.6-2.5-.6c-1.3 0-2.4 .4-3.2 1.1c-.8 .7-1.2 1.6-1.2 2.7c0 .9 .4 2.2 1.2 3.7c1.3 2.3 2.1 3.8 2.4 4.5c.8 2 1.2 4.3 1.2 6.7c0 1.3-.1 2.8-.3 4.4h-1.8c0-.3 0-.6 0-.8l.2-1.6c0-1.1-.7-2.3-2.2-3.6c-2.5-2.2-3.9-3.5-4.1-3.8c-1.5-1.7-2.3-3.7-2.3-5.9c0-2.7 .9-4.9 2.7-6.7c1.8-1.8 4-2.7 6.7-2.7Zm31.7-1.4c1.1 1.5 1.9 3.1 2.4 4.7c.5 1.8 .8 4.1 .8 6.9v5.8c0 4.2 .3 7.1 .8 8.7c.5 1.3 1.2 1.9 2.1 1.9h4.8c1 0 2.1-.1 3.3-.3c1.2-.2 2.1-.4 2.6-.5c2.2-6 4.1-10.3 5.8-13c1.5-2.3 2.9-3.5 4.1-3.5c1 0 1.9 1 2.7 3c.6 1.7 .9 3.4 .9 5.1c0 2.3-.4 4.2-1.4 5.9c-1 1.7-2.4 3.1-4.4 3.9c1.4-.2 2.7-.4 3.9-.5c1.2 0 2.3-.1 3.3-.1h19.7c-.2-1.3-.6-2.5-1.2-3.4c-.3-.5-1-1.4-2.1-2.7l2.4-7.1c1.5 1.7 2.5 3.5 3 5.3c.6 1.9 .9 4.6 .9 8.3v7.7h-22.7c-.4 0-.9 0-1.4 0c-.4 .1-1.1 .1-2.1 .2c.7 .4 1.5 .8 2.2 1.2c.6 .5 1 1.2 1 2c0 .8-.1 1.6-.3 2.5c-.2 .5-.5 1.4-.9 2.6c-.8 2.5-1.6 4.2-2.3 5.1c-.7 .9-1.7 1.3-2.8 1.3c-2.7 0-5.1-1.4-7.1-4.4c-2-2.9-3-6.4-3-10.5h-8.9c-2.3 0-4-.9-5-2.8c-1.2-2.1-1.8-5.7-1.8-10.7v-8.5c0-1.9-.2-3.4-.8-4.5c-.2-.5-.8-1.2-1.7-2.2Z" class="g1_64"/>
<image clip-path="url(#c1_64)" preserveAspectRatio="none" x="1344" y="457" width="108" height="72" href="img/2.jpg"/>
<image clip-path="url(#c2_64)" preserveAspectRatio="none" x="1347" y="550" width="102" height="71" href="img/3.jpg"/>
<image clip-path="url(#c3_64)" preserveAspectRatio="none" x="1347" y="642" width="102" height="74" href="img/4.jpg"/>
<image clip-path="url(#c4_64)" preserveAspectRatio="none" x="1353" y="745" width="96" height="80" href="img/5.jpg"/>
<image clip-path="url(#c5_64)" preserveAspectRatio="none" x="19" y="354" width="764" height="450" href="img/6.jpg"/>
<path d="M620.7 756l-.3 .1c-.2 .2-.3 .6-.2 .9c.2 .3 .5 .4 .8 .4l.3-.1c.2-.1 .4-.3 .5-.6c.1-.2 0-.5-.2-.7c-.2-.2-.5-.2-.7-.1h-.2h.4H621c-.5-.1-.9 .1-1 .5c-.1 .5 .1 .9 .6 1l.3 .1l.3 .2h.3l.4 .1l-.1-.1l.3 .1c.3 .1 .6 0 .8-.2c.3-.2 .4-.5 .3-.8v-.2c-.1-.4-.4-.8-.9-.8c-.4 0-.8 .3-.9 .7c-.2 .4 0 .9 .4 1.1l.9 .4l.9 .5l1.9 1l2.2 .9l.1 .1l2.6 .8l-.1-.1l3.1 1.2h.3l3.7 .3v.1l4.3 .2l4.2 .2h.1l4.1-.2h-.2l4.5 .7h.1l3.9 .5l4.3 .5l4.2 .6h-.1l4 .6l-.2-.1l4.3 1.4l4 1.1h-.2l4.1 1.6l3.7 1.3h.1l3.5 1.2l3.3 1.1h.1l3.1 1h.1l2.8 .6l2.5 .5h.2l2.4 .2h.1l2.1 .1h.1l1.9-.1H711l.7-.2l.1-.1l.4-.1c.5-.2 .8-.6 .9-1.1c.1-.5-.2-1-.6-1.3c-.4-.2-1-.2-1.4 0l-.3 .2l.3-.1l-.8 .1c-.6 .2-.9 .7-.8 1.3c.1 .6 .6 1 1.1 .9h.9l-.5-.1l.4 .1c.5 .2 1 0 1.4-.4c.3-.4 .4-.9 .2-1.4c-.3-.5-.7-.8-1.3-.8h-.5l-.8 .1h.2h-5.8l-2.4-.2h.1l-2.4-.5l-2.7-.6v.1l-3.1-.9l-3.3-1.1h-.1l-3.5-1.1h.1l-3.8-1.4l.1 .1l-4.1-1.6h-.1l-4-1.1h.1l-4.3-1.2l-.2-.1l-4-.5l-4.2-.4l-4.3-.5l-4-.4l-4.4-.7h-.2l-4.2 .2h.1l-4.2-.2l-4.2-.2l-3.7-.3l.3 .1l-3.2-1.1v-.1l-2.6-.7h.1l-2.2-.9h.1l-2-.8h.1l-1-.5l-.8-.4c-.4-.2-.8-.1-1.1 .1c-.3 .3-.3 .7-.2 1.1v.1c.2 .5 .7 .7 1.1 .6c.4-.1 .7-.5 .7-.9c0-.5-.4-.9-.8-.9h-.9h.3l-.4-.1h-.5c-.3-.1-.6 .1-.8 .3c-.2 .3-.2 .7 0 .9c.2 .3 .5 .4 .9 .3h.1l.3-.1l.1-.1c.2-.2 .4-.5 .3-.7c0-.3-.2-.5-.4-.6c-.3-.1-.6-.1-.8 .1l-.2 .2c-.2 .1-.3 .5-.2 .7c.1 .3 .4 .5 .7 .5c.3 0 .5-.3 .6-.6l.1-.3c0-.2-.1-.4-.3-.5c-.2-.2-.4-.2-.6 0Z" class="g0_64"/>
<path d="M647.1 748.2l-1.6-1.5l.2 .1l-.2-.2c-.2-.4-.5-.6-.9-.6h-.1c-.5 0-.9 .2-1.1 .6c-.2 .3-.2 .8 0 1.1c.2 .4 .6 .6 1 .6h.2l-.5-.1l.8 .4l-.2-.1l.2 .1c.4 .3 1 .3 1.4 0c.4-.2 .6-.7 .5-1.2v-.1l-.1 .7c.1-.3 .1-.6 0-.9l-.3-.5l-.1-.1c-.3-.3-.8-.4-1.3-.3h-.1l-.3 .1l-.9 .5h-.1l-2.5 1.4l.1-.1l-1.8 .7l.2-.1l-2.3 .6l-.1 .1l-2.1 .6h-.2l-1.6 .7h-.1l-1.3 .6l-.1 .1l-.9 .5h-.1l-.8 .5l-.1 .1l-.3 .3l.4-.2h-.2c-.4 .2-.7 .4-.8 .7l-.1 .2c-.3 .5-.3 1 0 1.5c.3 .4 .7 .7 1.2 .7h.1l-1.4-1.4v.4v-.1v1.3l.2 2.9l.1 1.7v.2l.4 2l.5 2l.5 2.1l.1 .3l.9 1.7v.1l.8 1.5c.2 .2 .4 .5 .7 .6l1.3 .5l.3 .1l1.6 .2c.7 .1 1.4-.4 1.5-1.1c.1-.7-.4-1.3-1.1-1.4L635 769l.5 .1l-1.2-.7l.5 .6l-.7-1.5v.1l-.8-1.8l.1 .3l-.5-2.1l-.5-2v.1l-.4-2v.2l-.1-1.7l-.2-2.9v.1v-1.2v.1l.1-.4c0-.4-.2-.8-.4-1.1c-.3-.3-.7-.5-1.2-.5h-.1c-.7 .1-1.3 .6-1.4 1.3c-.1 .8 .4 1.5 1.1 1.7c.7 .2 1.4-.2 1.7-.9l.1-.1l-.7 .7l.2-.1l.4-.3l.3-.3l-.1 .2l.7-.6l-.1 .1l.9-.5h-.1l1.3-.6h-.1l1.7-.6h-.1l2.1-.6l2.3-.6l.1-.1l1.8-.7h.2l2.5-1.4l1-.4h-.1l.1-.1l.4-.2h.1l.3-.5V748l-.1 .3l-1.3 .5c.5 .1 .9 0 1.2-.4c.3-.3 .4-.7 .2-1.2c-.1-.4-.5-.7-.9-.7l-.2-.1l.3 .1l-.8-.4l-.5-.1h-.2c-.4 0-.8 .2-1 .6c-.2 .4-.2 .8 0 1.2c.2 .3 .6 .6 1.1 .5h.1l-.5-.1l.3 .2l-.2-.2l1.9 1.3c.3 .2 .8 .2 1-.2c.3-.3 .3-.8 0-1.1Z" class="g0_64"/>
<path d="M816.5 729.7l-.1-.2h-.1l-.3-.3l-.4-.1l-.1-.1c-.2 0-.5 0-.8 .1l-1.1 .4h.1l-3.5 1.2h.1l-2.7 .7l-.1 .1l-3.1 1.1l-3.1 1.3l-.1 .1l-3 1.6l-.2 .1l-2.8 1.9l-.2 .1l-2.4 2.3l-2.1 2.2l-.1 .1l-1.5 2l-.1 .1l-1.1 1.9l-.2 .3l-.4 1.4v.4l.1 1.2c0 .3 .1 .5 .3 .7l.9 .9l.2 .2l1.2 .8l.3 .1l1.8 .7l2 .7l.2 .1l2.6 .5l2.8 .6l2.8 .4v.1l2.9 .3l2.6 .4h-.1l2.4 .5H810l2.1 .8l-.1-.1l1.7 .8l-.2-.1l1.1 .9l-.1-.2l.8 .9l-.2-.4l.5 1.2l-.1-.3l.3 1.3l-.1-.4l-.1 1.4v-.1l-.1 1.2l.1-.4l-.5 1.4l.1-.2l-.8 1.3l.1-.2l-1 1.4l.1-.1l-1.4 1.4l.3-.2l-1.7 .9l-.2 .1l-1.4 1.2V770l-1.5 1.1l-1.5 1l-.1 .1l-1.2 1l.1-.1l-1.4 1l.1-.1l-1.2 .7h-.1l-1.1 .6h.1l-1.2 .5l.3-.1l-.9 .2l-.3 .1l-.6 .2l.6-.1h-.4c-.5 0-1 .3-1.2 .8c-.2 .5 0 1.1 .3 1.4l.1 .1c.3 .2 .6 .3 1 .3c.4 0 .7-.2 .9-.6l.1-.1v-.1l.3-.5l.1-.1l.4-.8l-.1 .1l.8-1.4l-.1 .2l1.2-1.4l-.1 .1l1.6-1.6l1.4-1.4l.1-.1l1-1.2l.9-1l.1-.1l.3-.5l-.5 .4l.8-.4l.7-.3l-.1 .1l.3-.2c.8-.2 1.1-1 .9-1.7c-.2-.7-1-1.1-1.7-.9c-.8 .2-1.2 1-1 1.7l.2 .5l-.1-.2l.1 1V768l-.1 1.9l-.1 2.3v-.1l-.2 2.7l-.4 3v.2l.2 3.1v-.2l-.1 1.9l-.2 2v.1l-.2 3l-.1 2.9l.1-.4l-1 2.1v.1l-.3 .9l.1-.2l-.4 .6l.9-.5h-1.7c-.6 0-1.1 .5-1.1 1c0 .6 .4 1.1 1 1.1l1.7 .1c.3 0 .6-.1 .8-.2l.6-.5l.3-.3l.5-.9l.1-.1l.9-2.1l.1-.5l.2-2.9l.2-3.1l.2-1.9V783l.1-1.9v-.2l-.2-3.1v.2l.3-2.9l.3-2.7v-.1l.1-2.2l.2-1.9V768l-.1-1v-.3l-.1-.5c-.1-.4-.4-.7-.7-.9c-.4-.2-.8-.2-1.2-.1l-.3 .1l-.2 .1l-.7 .3H807l-.8 .5c-.2 .1-.4 .2-.5 .4l-.3 .5l.1-.1l-.9 1l-1 1.2v-.1l-1.3 1.5v-.1l-1.6 1.7l-.1 .1l-1.1 1.4l-.2 .2l-.7 1.4v.1l-.4 .8l-.3 .5l.1-.1l-.1 .1c-.4 .6-.2 1.3 .3 1.7c.5 .4 1.2 .4 1.7-.1c.4-.5 .4-1.2 0-1.7l-.1-.1c-.4-.4-1-.5-1.5-.2c-.5 .3-.8 .9-.6 1.4c.1 .6 .6 1 1.2 1h.4l.5-.2l.5-.2l-.3 .1l1-.2l.2-.1l1.2-.5h.1l1.2-.6h-.1l1.3-.6l.2-.1l1.4-.9l.1-.1l1.3-1l-.1 .1l1.5-1.1h-.1l1.6-1l1.5-1.2l-.1 .1l1.6-.9l.4-.3l1.3-1.4l.1-.1l1.1-1.5l.1-.1l.7-1.3l.1-.2l.5-1.3v-.4l.1-1.2l.1-1.3l-.1-.4l-.2-1.2l-.1-.2l-.5-1.2l-.3-.4l-.9-.8l-.1-.1l-1.2-.9l-.2-.1l-1.7-.8h-.1l-2.1-.8l-.2-.1l-2.4-.5l-2.6-.4h-.1l-2.9-.4h.1l-2.8-.4h.1l-2.8-.5l-2.6-.6h.1l-2-.7l-1.8-.6l.2 .1l-1.2-.8l.2 .1l-.8-.9l.3 .8l-.1-1.1v.4l.4-1.4l-.1 .3l1.1-1.8v.1l1.5-2.1l-.1 .1l2.1-2.1l2.4-2.2l-.2 .1l2.9-1.9l-.1 .1l3-1.6l-.1 .1l3.1-1.3h-.1l3.1-1.1l-.1 .1l2.7-.7h.1l3.5-1.2l.1-.1l1.1-.4l-.3 .1h.1l.4-.2l.3-.3h.1l.1-.2c.3-.4 .3-1 0-1.4Z" class="g0_64"/>
<path d="M780.2 771.2l.1 .1l.1 .2l.5 .7l.3 .2l2.7 2.2l.8 .6l-.3-.3l.7 .9l.5 .4l1.2 .6l-.6-.6l.5 .9l-.1-1.1l-.4 1.3l-.3 1l.1-.3l-1 2l.2-.3l-1.5 1.8h-.1l-1.2 1.7l-1.5 1.9l.2-.2l-1.4 1.1h.1l-1.3 .9l.3-.2l-1.7 .5c-.6 .2-1 .9-.8 1.6c.1 .6 .8 1 1.5 .8l1.7-.4l.4-.2l1.4-.8l1.5-1l.3-.3l1.6-1.9l1.3-1.7l-.1 .1l1.5-1.8l.2-.3l1-2l.1-.3l.2-1l.3-1.2c.2-.3 .1-.7-.1-1l-.4-.8c-.1-.3-.4-.5-.6-.6l-1.3-.7l.5 .4l-.7-.9l-.3-.3l-.8-.5l-2.7-2.1l.2 .3l-.5-.7l-.1-.2c-.4-.5-1.2-.6-1.8-.2c-.5 .3-.7 1.1-.4 1.7Z" class="g0_64"/>
<path d="M769.7 772.7l-1.4-2.7c-.1-.3-.3-.5-.6-.6l-.3-.1l-.3-.1l-.5-.1c-.5-.1-1 .1-1.3 .5c-.3 .4-.4 1-.2 1.4c.3 .5 .7 .8 1.2 .8h.6l.6-.2l.4-.2l-.4 .1h.5l.5-.1c.7-.1 1.2-.7 1.2-1.3V770l-1.1 1.3l.4-.1c.6-.2 1.1-.8 1-1.4c0-.7-.5-1.2-1.2-1.3h-.3c-.5-.1-.9 .2-1.2 .6c-.3 .4-.3 .9-.1 1.4l.1 .2l-.1-.9l-.1 .6l.2-.5l-.7 1l-.2 .5l-.3 1.2l-.1 .1l-.3 1.6v-.1l-.5 1.8l-.1 .1l-.4 1.8l.1-.1l-.7 2.1l.1-.2l-.9 1.6l.1-.2l-1.1 1.5l.2-.2l-1.1 .9l.4-.2l-1.3 .4h-.1l-1.4 .4h.2l-1.4 .2l.5 .1l-1.3-.5c-.4-.2-.9 .1-1.1 .5c-.2 .4 0 .9 .4 1.1l1.2 .6l.4 .1l1.4 .1h.2l1.5-.2h.1l1.4-.3l.5-.2l1.1-.9l.3-.2l1.1-1.5l.1-.1l1-1.7l.1-.3l.7-2.1v-.1l.4-1.9v.1l.5-1.7v-.1l.4-1.6v.1l.4-1.3l-.2 .4l.7-1l.2-.5l.1-.6c.1-.3 0-.6-.1-.9l-.2-.3c-.3-.6-1-.9-1.6-.6c-.7 .2-1.1 .9-.9 1.6c.1 .6 .7 1.1 1.4 1h.3c.5 0 1-.4 1.1-.8c.2-.5 .1-1.1-.2-1.4c-.3-.4-.9-.6-1.4-.5l-.3 .1c-.6 .2-1 .8-1 1.4v.1l1.1-1.4l-.5 .1l-.5 .1l-.4 .1l-.4 .2l.6-.1h-.6c-.7 0-1.2 .5-1.3 1.2c-.1 .7 .4 1.4 1.2 1.5h.5l.3 .1l-.7-.4l2.1 2.1c.3 .3 .7 .3 1.1 .1c.3-.2 .4-.7 .2-1Z" class="g0_64"/>
<path d="M751.8 765.1l-.5 .5l-.2 .2l-.4 .6h-.1l-.6 .9l-.2 .4l-.3 1.2v.1l-.2 1.4l-.2 1.4l-.3 1.4v-.1l-.3 1.3l.1-.2l-.5 1.3l.3-.4l-1 1l.1-.1l-1 1l.1-.1l-1.1 .8h.1l-.8 .5h-.1l-.8 .6l.5-.2l-1.4 .3l-1.5 .4h.2l-1.3 .2l.8 .1l-1.1-.5l-.3-.1l-.8-.2h.1l-.9-.2h.1l-1-.4h.1l-1-.5l-.1-.1l-1-.4h.1l-.8-.4l-.3-.1l-.8-.2h-1.2l-.3 .1l-.6 .2c-.3 .2-.5 .4-.7 .6l-.5 .8l-.1 .4l-.3 1.1v.1l-.3 1.6v.1l-.2 1.9v2.9l.1 2.6v.1l.2 3.1l.3 3.1l.1 2.9c.1 .6 .5 1 1.1 1c.5 0 1-.5 1-1l-.1-3l-.1-3.1v-3.2v.1v-2.6l.1-2.7l-.1 .2l.3-1.9l.4-1.6l-.1 .2l.4-1.1l-.2 .4l.5-.8l-.7 .6l.6-.2l-.4 .1l.7-.1l-.5-.1l.7 .2l-.3-.1l.8 .4l.2 .1l.9 .3h-.1l.9 .5h.1l1.1 .5l.2 .1l.9 .2h.1l.8 .2l-.3-.1l1.1 .5c.2 .1 .5 .2 .7 .1l1.3-.1l.2-.1l1.5-.3l1.4-.4l.5-.2l.7-.5l.8-.5l.1-.1l1.1-.9l.2-.1l1-1v-.1l.9-1l.3-.5l.4-1.3v-.2l.3-1.3l.2-1.4l.2-1.5v.1l.3-1.4l-.1 .1l.3-1.2l-.1 .4l.5-.9l.1-.1l.3-.6l.1-.3l.2-.7c.1-.4-.1-.8-.5-1c-.3-.3-.8-.2-1.1 0Z" class="g0_64"/>
<path d="M721.7 770.9l-.1-.1v-.2l-.6-1v.1l-1.1-2.8l.1 .2l-.5-1.7l.1 .3l-.1-1.7l-.1-.5l-.7-1.8v.3l-.1-.9v.1v-.7l-.1-.4c0-.7-.6-1.2-1.2-1.2c-.7 0-1.3 .5-1.4 1.1c-.1 .7 .4 1.3 1 1.5l.6 .1c.6 .2 1.2-.1 1.4-.6l.2-.3l-1 .7l.5-.1h.2l.6-.1h-.3h.7h-.2l.6 .1l-.5-.2l.9 .5l-.6-.8l.3 1.1l.2 .6l.2 .6l-.1-.3l.2 2.8v.2l.6 3.4v-.5l-.8 4.1v.1l-.5 3v-.1l-.8 3.4V779l-1.5 3.5l-.1 .1l-1.2 3.4l.1-.2l-1.7 3.2v-.1l-1.5 2.5l-1.3 2.4l.1-.2l-1.1 1.5l-.1 .1l-.9 1.3l.4-.4l-.8 .5h1.2l-.5-.4c-.5-.3-1.1-.2-1.5 .3c-.3 .5-.2 1.1 .2 1.5l.5 .4c.3 .2 .7 .3 1 .2l.8-.3c.3 0 .5-.2 .6-.3l1.1-1.3l1.2-1.4l.1-.2l1.3-2.3l1.5-2.5l1.7-3.2l.1-.1l1.3-3.5l-.1 .1l1.6-3.5l.1-.2l.8-3.5v-.1l.5-3v.1l.8-4.1v-.5l-.6-3.5v.1l-.2-2.8v-.3l-.2-.6l-.2-.5l-.3-1.1c-.1-.3-.3-.6-.6-.8l-.9-.5l-.5-.2l-.6-.1h-.8l-.3 .1l-.6 .1h.2h-.5c-.5 0-.9 .3-1.1 .7l-.2 .3l1.5-.7l-.6-.1c-.4-.1-.8 0-1.2 .3c-.3 .3-.4 .7-.4 1.2l.1 .4v-.1v.7l.2 .9v.4l.8 1.8l-.1-.5l.1 1.8v.3l.4 1.6l.1 .2l1.1 2.8l.1 .1l.5 1l.1 .1c.1 .3 .3 .5 .6 .6l.1 .1c.5 .2 1 .1 1.4-.3c.4-.4 .5-.9 .3-1.4Z" class="g0_64"/>
<path d="M697.1 786.3l.1-.3v.1l.2-.6l.1-.2l.2-.9v.1l.7-1.8v-.1l.6-1.9l.9-2.4l.9-2.3l-.1 .1l.7-1.6l-.1 .1l.8-1.3v-.1l.3-.7l-.3 .4l.4-.4l-.3 .2l.5-.1c.5-.1 .8-.6 .7-1.1c0-.4-.5-.8-1-.7h-.2c-.5 0-.8 .4-.9 .8v.6l.1 .6v-.3v1.4v-.1l-.2 1.6l-.4 2.9v-.1l-.6 2.8v-.1l-.8 3.3l-.1 .2l-.1 3l.1-.2l-.6 2.3l.1-.2l-.8 1.8l.1-.2l-.8 1.1l.2-.2l-.9 .9l.2-.1l-1 .6l-.9 .5l.6-.1h-.8h.1l-.8-.1l.7 .3l-.7-.5l-.8-.7l.2 .3l-.6-.8l.1 .2l-.4-.9v.1l-.4-1l.1 .1l-.3-1v.2l-.1-1.2v-1.1l-.1 .4l.3-.9v.1l.2-.8l-.2 .3l.3-.4l.1-.1l.2-.5v-.1l.2-.3l-.2 .3l.2-.3l-1.8 .4h.1l-.6-1.6l-.1 .2l.1-.2l-.2 .5h-.1l-.2 .6l.1-.1l-.6 .9v.2l-.5 1.2l.1-.1l-.6 1.2l-.7 1.4v.1l-.7 1.4l.1-.2l-.9 1.3l.1-.1l-1.2 1.4l.1-.1l-1.5 1.5l.2-.1l-2 1.5v.1l-2 1.7l.3-.2l-2 1l-.1 .1l-2.1 1.6l.1-.1l-1.9 1.2l-.1 .1l-1.8 1.3l.2-.2l-1.9 .9l.5-.1l-1.6 .2h.1l-1.6 .1l-1.4 .1h.3l-1.6-.1l.7 .2l-.8-.4l-.1-.1l-.7-.4l.4 .4l-1.2-1.4l.1 .1l-1.6-2.5l.2 .3l-.8-2l-.2-.3l-1.2-1.7v.1l-.9-1.7v.2l-.6-1.6l-.7-1.5l.1 .5l.1-2v.1l.1-2v.2l.5-2.7l.7-3.2l-.1 .3l1.5-3.2c.3-.6 .1-1.2-.5-1.5c-.5-.3-1.2-.1-1.5 .5l-1.6 3.2l-.1 .2l-.9 3.1l-.7 2.7v.2l-.2 1.9v.1l-.1 2.1l.1 .6l.7 1.5l.6 1.6l.1 .2l1 1.7l1.3 1.8l-.2-.3l.8 1.9l.1 .3l1.6 2.5l.1 .1l1.2 1.4l.4 .4l.7 .4v-.1l.7 .5c.2 .1 .4 .2 .7 .2l1.5 .2h.3l1.4-.2l1.5-.1h.1l1.5-.2l.5-.1l1.9-.9l.2-.1l1.8-1.3h-.1l2-1.2l.1-.1l2-1.5l-.2 .1l1.9-.9l.3-.3l2-1.7l1.9-1.5l.1-.2l1.5-1.4l.1-.1l1.2-1.5V794l.9-1.3l.2-.2l.6-1.4l.7-1.4l.6-1.3v-.1l.5-1.2l-.1 .2l.5-1l.1-.2l.2-.6l.1-.4l.1-.4v-.2c.1-.5-.2-1-.6-1.2c-.4-.3-1-.3-1.4-.1l-.1 .1c-.2 .1-.3 .2-.4 .4l-.2 .3l-.1 .2l-.1 .4v-.1l-.2 .5l.1-.2l-.3 .5l-.1 .3l-.2 .8l-.2 .8l-.1 .4l.1 1.1l.1 1.3v.3l.3 1l.1 .2l.4 1l.5 .9l.1 .2l.6 .8l.2 .2l.8 .7h.1l.7 .5c.2 .2 .4 .3 .7 .3h1.6c.3 0 .5 0 .7-.2l.9-.5l.1-.1l.9-.6l.2-.2l.9-.9l.2-.2l.7-1.2l.1-.2l.7-1.8l.1-.2l.4-2.3v-.2l.1-3v.2l.8-3.2v-.1l.6-2.7v-.1l.3-2.9v-.1l.2-1.6v-1.8l-.2-.5v.2v-.3l-.7 1h.2c.4-.1 .6-.4 .7-.7c.1-.3 0-.7-.3-.9c-.2-.2-.6-.3-.9-.2l-.4 .2l-.3 .1l-.5 .3l-.3 .5l-.2 .7v-.2l-.7 1.3l-.1 .1l-.6 1.6l-1 2.2l-.9 2.5l-.6 1.9l-.7 1.8v.1l-.3 .9v-.1l-.2 .5c-.2 .3-.2 .6-.1 .8l.1 .3c.2 .3 .5 .6 .9 .6c.4 0 .7-.3 .8-.6Z" class="g0_64"/>
<path d="M693.7 756.2l-.1 .3c-.1 .3 0 .7 .2 .9c.2 .2 .5 .4 .8 .3h.3l.6-.2l.2-.1l.2-.2l.4-.5l-.2 .1l.7-.6l.3-.3l.3-.8v.1l.5-.8v-.2l.3-.8v-.2l.1-.5c0-.4-.2-.8-.6-1l-.3-.1l-.4-.1h-.7l-.6 .1l-1.3 .7h.1L693 753l-.3 .2l-1.8 1.5l-1.8 1.5l-.2 .1l-1.9 2.2l-2 2.3l-.2 .1l-1.3 2.1l-.1 .1l-1.1 1.9l-.7 1.1l.5-.4l-1 .6c-.5 .3-.7 .9-.5 1.4c.2 .6 .7 .9 1.3 .8c.6-.1 1-.5 1-1.1l.1-.4c0-.7-.5-1.2-1.1-1.3c-.6 0-1.2 .4-1.3 1l-.1 .4c-.1 .5 .1 .9 .5 1.2c.4 .3 .8 .3 1.2 .1l1.1-.5c.2-.1 .4-.3 .5-.5l.7-1v-.1l1.2-1.9l-.1 .1l1.4-2.2l-.1 .2l2-2.3l1.9-2.2l-.1 .1l1.8-1.5v-.1l1.8-1.5l-.2 .2l1.5-.9h.1l1.1-.8l-.4 .2l.7-.1h-.2h.3l-.9-.9v.5v-.3l-.1 .8v-.2l-.4 .8l-.4 .8l.3-.3l-.8 .5l-.1 .1l-.4 .4l.2-.1l-.2 .1l.2-.1l-.3 .1l.9 .1l-.3-.2c-.2-.1-.5-.2-.7-.1c-.3 .1-.5 .4-.5 .6Z" class="g0_64"/>
<path d="M689.3 779.4l.5 .6c.4 .4 .9 .6 1.4 .4c.5-.1 .9-.5 1.1-1c.1-.5-.1-1.1-.5-1.4v-.1c-.3-.2-.8-.4-1.2-.3c-.4 .1-.8 .3-1.1 .7l-.5 .9l-1.6 2.8l-.9 1.9l-1.2 2.1l-.1 .2l-.8 2l.1-.1l-.9 2v.1l-.5 1.8l-.1 .1l-.2 1.3v1.5l.1 .3l.2 1l.3 .5l.6 .8l.4 .4l1.2 .7l.3 .2l1 .3l.5 .1l1.5-.1l.4-.1l1.4-.5l.2-.2l1.8-1.2c.4-.4 .5-1.1 .2-1.5c-.3-.5-1-.6-1.5-.3l-1.8 1.2l.4-.1l-1.4 .3h.3l-1.5-.1l.5 .1l-1-.5l.2 .1l-1.1-.8l.3 .3l-.6-.8l.2 .5l-.2-1v.4v-1.3v.3l.3-1.3l-.1 .2l.5-1.7v.1l.8-1.9v-.1l.8-1.9l-.1 .1l1.2-2.1l1-1.9l-.1 .1l1.6-2.8l.5-1l-.3 .4c.6-.5 .7-1.4 .2-2c-.5-.6-1.4-.7-2-.2l-.7 .5c-.1 .1-.2 .3-.2 .5c0 .2 0 .4 .2 .5Z" class="g0_64"/>
<path d="M684.7 777.4l-.4 2.1v-.3l-.6 1.3c-.2 .4-.2 .8-.1 1.1l.3 .8c.2 .5 .6 .8 1.1 .9c.5 .2 1 0 1.3-.4l.4-.4l-.3 .2l.5-.2c.6-.4 .7-1.2 .4-1.9c-.4-.6-1.2-.8-1.8-.5l-.5 .3l-.2 .1l-.4 .3c-.6 .4-.7 1.3-.4 1.9c.4 .6 1.3 .9 1.9 .5c.7-.3 1-1.1 .7-1.8l-.3-.8l.1 .7l.1-1.5v-.1l-.1-2.2c-.1-.4-.4-.7-.8-.8c-.4 0-.8 .3-.9 .7Z" class="g0_64"/>
<path d="M591.4 458.6l-2.1 .8l.8 .2l-.7-.7v-.1l-.5-.4h.1l-.5-.5l.1 .1l-.4-.7v.1l-.2-.6l.1 .1l-.3-.9v-.1l-.3-.6l-.2-.4l-.2-.5l-.1 1.1c.2-.3 .3-.6 .3-.9c-.1-.5-.4-1-.9-1.2c-.5-.1-1.1 0-1.4 .4l-.9 1.1l-2.9 3.6l-.2 .2l-2.7 5l.1-.1l-3.5 5.2l-3.9 6.4v-.1l-4.5 6.7l.1-.1l-5.2 6l-5.1 6.3v-.1l-5 6l-4.7 5.4l-.1 .1l-3.6 5l-.1 .1l-2.9 4.5l.1-.2l-2.8 2.9l-.1 .1l-1.9 2.5h-.1l-.9 1.2v.1l-.5 .9c-.2 .3-.3 .7-.2 1.1c.1 .3 .4 .6 .7 .8l.1 .1c.4 .2 .9 .2 1.3 0c.5-.3 .7-.7 .7-1.2v-.4v.3l.3-1.1c.1-.2 .1-.5 0-.8l-.6-1.6l-.1 1l1-1.9l-.2 .3l1.7-2l.1-.2l1.2-2.2l-.2 .2L541 513c.2-.2 .3-.4 .3-.6l.2-1.6v-.4l-.1-1c0-.3-.2-.6-.4-.8l-1.1-.9l-.5-.3l-.6-.1c-.3-.1-.6-.1-.9 .1l-.9 .4l.4-.1l-1.5 .1c-.4 0-.7 .2-1 .5l-.7 1h.1l-.8 .8c-.1 .2-.2 .5-.3 .8V512l.2 .9c0 .2 .2 .5 .3 .7l1 1l.2 .2l1.2 .8l.3 .1l1.6 .7l.1 .1l2 .8l.3 .1l2.1 .3h.1l2 .1h2.2l2.2-.1h.1l2.8-.3l.2-.1l2.8-.8l.4-.2l2.7-2v.1l3.2-2.2c.5-.4 .7-1.1 .3-1.7c-.4-.6-1.1-.7-1.7-.3l-3.2 2l-2.8 1.9l.4-.2l-2.8 .7h.1l-2.7 .3h.1l-2.2 .1h-2h.1l-2-.1h.1l-2-.4l.3 .1l-2.1-.8h.1l-1.7-.7l.2 .1l-1.2-.8l.3 .2l-1-1l.4 .7l-.2-.8v.3l.1-.7l-.3 .8l.6-.9l.1-.1l.7-1l-1 .6l1.4-.1l.5-.1l.9-.5l-.8 .1l.6 .1l-.6-.3l1.1 .9l-.5-.8l.1 1v-.4l-.2 1.6l.3-.6l-1.5 1.9l-.2 .2l-1.1 2.1l.2-.2l-1.7 2l-.1 .3l-1 1.8c-.1 .3-.2 .7-.1 1l.6 1.7v-.9l-.4 1.1v.2l-.1 .4c-.1 .6 .2 1.2 .7 1.5c.6 .3 1.2 .2 1.6-.3c.5-.4 .5-1.1 .3-1.6l-.1-.1L536 524l.6-.9l-.1 .1l.9-1.2v.1l2-2.5l-.1 .1l2.8-2.9l.2-.2l2.9-4.6l-.1 .1l3.7-5v.1l4.6-5.5l5.1-5.9v-.1l5-6.2l5.2-6l.1-.1l4.5-6.7v-.1l4-6.3h-.1l3.4-5.2l.1-.1l2.7-5l-.1 .2l2.9-3.7l.8-1c.2-.3 .2-.5 .3-.8l-.5 1v-.1c.5-.3 .6-1 .2-1.4c-.3-.5-1-.6-1.5-.3c-.4 .3-.6 1-.3 1.5l.3 .4l.2 .4l.4 .6v-.1l.3 .8h.1l.3 .6l.4 .7l.1 .1l.6 .5v.1l.6 .4h-.1l.7 .6c.2 .2 .5 .2 .8 .1l1.9-1c.3-.1 .4-.4 .3-.7c-.1-.3-.5-.4-.7-.3Z" class="g0_64"/>
<path d="M634.7 396l.4 .7H635l.5 1.3v.1l1.1 2.5l1.6 3.4l-.1-.2l1.4 4l1.1 3.7v-.2l.4 3.2l.4 3.1v-.2l-.1 2.6l.1-.3l-.7 1.9l.3-.4l-1 1.2l.6-.4l-1.6 .7l.9-.1l-2.1-.5l-2.3-.5l.5 .2l-2.3-1.9l.1 .1l-2.3-2.3c-.2-.2-.6-.2-.9 0c-.2 .2-.3 .6-.1 .8l1.6 2.8l.2 .3l2.2 1.9l.3 .2l2.2 .9h.1l2.1 .6c.3 .1 .6 .1 .9 0l1.5-.7c.3-.1 .4-.2 .6-.4l.9-1.3l.2-.4l.6-1.9l.1-.4l.1-2.6v-.3l-.5-3v-.1l-.5-3.2v-.2l-1.2-3.7l-1.4-4v-.1l-1.6-3.3l-1.1-2.5l-.1-.2l-.9-1.2l-.2-.2l-.7-.5c-.3-.2-.7-.2-1 .1c-.2 .2-.3 .5-.2 .9Z" class="g0_64"/>
<path d="M613.5 392.4l-.6 3.9v.4l.5 2.2l.9 2.9l.8 3v-.2l.4 2.8v-.2l-.1 2v-.4l-.5 1.4l.7-.7l-1.3 .5l.5-.1l-1.5 .1l.6 .1l-2-.9l-1.8-.8l.4 .2l-1.6-1.3l-1.3-1l-.3-.2l-.9-.3l.2 .1l-.9-.5c-.3-.1-.6-.2-.9-.1l-.9 .1h.1l-1.3 .2c-.3 0-.5 .1-.8 .4l-.9 1l-.2 .3l-.9 1.7l.1-.2l-1.4 1.6l-.1 .2l-1.2 2l.4-.4l-2.2 1.6l.3-.2l-2.4 1.1l-2.2 .9h.1l-2.2 .7h.3l-1.8 .2l-1.5 .2h.5l-1.3-.2l.3 .1l-.8-.4l.5 .5l-.6-.9l.3 .6l-.2-1v.2v-1l-.1-1.2l-.1 .6l.4-.8l.1-.2l.2-.8l-.4 .7l.8-.8l-.1 .1l.8-.6l.9-.6l-.3 .2l.9-.3h-.4h.7h-.1h.7l-.8-.3l.5 .5l-.1-.2l.3 .4l-.3-.8l.1 1.2v-.2l-.1 1.4l.1-.3l-.7 2.3l.1-.1l-.9 2.7l-1 3.7V421l-1.5 3.5l.1-.3l-2.2 3.2l-.1 .1l-1.9 2.9l.2-.3l-2.1 2.1l-.1 .1l-1.8 2.2l-1.3 1.6l.1-.1l-1.4 1.4l.1-.1l-1.1 .8l.4-.2l-.9 .4l-.4 .1h.8l-.4-.2l.7 1V438c0-.6-.5-1-1-1c-.5 0-1 .4-1 1l-.1 1.2l.2 .6l.2 .4c.1 .2 .4 .4 .6 .4l.4 .2c.2 .1 .5 .1 .7 0l1-.2l.6-.2l1.1-.8l.1-.2l1.5-1.3l.1-.2l1.3-1.6l1.7-2.1l-.1 .1l2.1-2l.3-.3l1.9-3l-.1 .1l2.3-3.2l.1-.2l1.6-3.5V422l1.1-3.7l.8-2.6v-.1l.6-2.3V413l.1-1.4v-.2l-.2-1.2c0-.2-.2-.5-.4-.7l-.3-.4l-.1-.1l-.5-.4c-.2-.2-.5-.3-.8-.4h-1.7l-.4 .1l-.9 .4l-.3 .1l-.9 .6v.1l-.8 .6h-.1l-.8 .7c-.2 .2-.3 .4-.4 .7l-.2 .7l.1-.2l-.4 .9c-.1 .1-.2 .4-.2 .6l.1 1.2v1.2l.2 .9l.2 .6l.6 .8c.1 .2 .3 .3 .5 .4l.8 .4l.3 .1l1.3 .3h.5l1.5-.2l1.8-.3h.2l2.1-.8h.1l2.2-1l2.5-1.1l.2-.1l2.1-1.6l.4-.4l1.1-2l-.1 .2l1.4-1.7l.1-.2l.9-1.7l-.2 .3l1-1l-.8 .4l1.3-.1l.9-.2l-.8-.1l.9 .5l.2 .1l.8 .3l-.3-.2l1.2 1v-.1l1.6 1.3l.3 .2l1.8 .7l2 .9l.6 .1l1.4-.1l.5-.2l1.2-.5c.3-.2 .5-.4 .6-.7l.5-1.4l.1-.3l.1-2.1v-.2l-.4-2.8v-.2l-.8-3l-.9-2.9v.1l-.5-2.1v.3l.1-3.9c0-.5-.4-1-.9-1c-.5 0-1 .3-1 .8Z" class="g0_64"/>
<path d="M609.2 430.5l-.9 1.9l-.1 .1l-.7 1.8l-.5 1.4l-.5 1.4l.4-.5l-.8 .4l.3-.1L605 437c-.5 0-.8 .3-.8 .8c0 .4 .3 .8 .8 .8h1.6l1-.2c.3-.1 .5-.3 .6-.6l.6-1.3v-.1l.6-1.3l.1-.1l.6-1.9l.6-2c.1-.4-.1-.8-.5-.9c-.4-.2-.8 0-1 .3Z" class="g0_64"/>
<path d="M600 439.7l.3-.2c.4-.3 .6-.9 .5-1.4l-.1-.5l-.2-.4l-1.1-1.6c-.4-.5-1.1-.7-1.7-.3c-.5 .3-.6 1.1-.3 1.6l1 1.6l-.1-.7l-.1 .5l.8-1.1l-.4 .2c-.4 .2-.7 .7-.7 1.2c0 .5 .2 .9 .7 1.2c.4 .2 1 .2 1.4-.1Z" class="g0_64"/>
<path d="M591.3 381.5l-.1 .3c-.1 .2-.1 .4-.1 .6v.7v-.3l-.2 1.4l.1-.1l-.5 1.7l.1-.1l-1 3v-.3l-1.8 3.2l.3-.3l-3.2 3.2h.1l-4.1 3.6h.1l-5.2 4.1l-5.7 3.9l-6.3 4.3l.1-.1l-6.5 3.8l-6.2 3.9v.1l-6 3.8l-5.4 3.4v.1l-5.1 3.3l.3-.1l-4.5 1.8h.1l-4.1 1.5l.2-.1l-3.2 .5h.3h-2.1l.3 .1l-1.4-.4l.8 .5l-.7-.8l.2 1.5l.6-1.3l.1-.2l.5-1.5l-.2 .3l1.3-2l-.1 .1l1.3-1.8l-.1 .2l1.4-1.3v-.1l1.4-1.4l-.6 .4l1.4-.5h-.1l1-.3l-1.4-.3l.6 .5l-.5-.6l.5 1.2l-.1-.6l-.2 2v-.1l-.4 2.6v-.2l-.9 2.9l.1-.1l-1.2 3l-1.2 3.2l-1.2 2.9l.1-.1l-1.3 2.7l.1-.1l-1.4 2.4l.5-.6l-1.7 1.1l-.2 .2l-1.3 1.1l1-.3l-2.3-.2c-.7 0-1.3 .5-1.4 1.1c0 .7 .5 1.3 1.1 1.4l2.3 .3c.3 0 .6-.1 .9-.2l1.4-.9h-.1l1.8-.9c.3-.1 .5-.3 .6-.6l1.5-2.3v-.1l1.4-2.7v-.2l1.1-2.9l1.2-3.1h.1l1.1-3.1l.1-.1l.9-2.9V429l.4-2.6v-.1l.1-2.1c.1-.2 0-.4 0-.6l-.5-1.2c-.1-.3-.2-.5-.4-.7l-.7-.5c-.4-.3-.9-.4-1.4-.3l-1 .3l-1.4 .5c-.2 .1-.4 .2-.6 .4l-1.4 1.4h.1l-1.4 1.4l-.2 .2l-1.3 1.7l-.1 .1l-1.2 2l-.2 .4l-.4 1.6v-.2l-.6 1.3c-.2 .5-.1 1.1 .2 1.5l.7 .9c.2 .2 .5 .4 .8 .5l1.5 .3l.3 .1H524l3.2-.6h.3l4.1-1.5l4.5-1.9l.3-.1l5-3.3l5.4-3.5h.1l5.9-3.9l6.2-3.9h-.1l6.4-3.8h.1l6.3-4.4h-.1l5.8-4h.1l5.2-4.2h.1l4-3.7v-.1l3.2-3.2l.2-.3l1.8-3.1l.1-.2l1.1-2.9v-.1l.6-1.8v-.2l.2-1.3v-.6l-.1-.6l-.1-.3l-.1-.3c-.2-.4-.7-.7-1.2-.7c-.5 0-.9 .3-1.2 .7Z" class="g0_64"/>
<path d="M504.5 411.2l.7-1.1l-.1 .1l1.1-1.2v-.1l1.6-1.9l-.2 .1l1.8-1.6l-.6 .3l2.1-.6h.1l1.6-.6l-.5 .1l1.1 .1h.1l.5-.1c.7 0 1.3-.5 1.4-1.2c0-.7-.4-1.4-1.1-1.6c-.7-.2-1.4 .2-1.7 .8l-.2 .4l.3-.3l-.6 .7l.2-.2l-1.3 1l-.2 .2l-1.3 1.6l.2-.2l-2 1.5h.1l-2.2 1.4h-.1l-2.5 1.8l-2.8 1.8l-.2 .2l-2.7 2.5H497l-2.8 2.9l-2.9 2.8l-.1 .1l-2.6 3l-2.2 2.7l-1.9 2.4l-.2 .4l-1 2.3v.1l-.7 2.1l-.1 .3l-.2 1.9v.3l.1 2.3l.1 .2l.6 2.7v.2l1.2 3l.1 .2l2 3.6l.1 .2l2.5 3.4l.2 .3l3.8 3.4l4.4 4l-.1-.1l5.3 5.3c.5 .5 1.3 .5 1.8 0c.6-.5 .6-1.4 .1-1.9l-5.3-5.3l-4.3-4l-3.7-3.6l.1 .2l-2.4-3.4l.1 .1l-2.1-3.6l.1 .1l-1.1-2.9v.2l-.6-2.7l.1 .2l-.2-2.3v.3l.2-1.9v.3l.7-2.2l-.1 .1l1-2.3l-.2 .3l1.9-2.3l2.2-2.7l2.5-3l-.1 .1l2.9-2.8l2.9-2.9l-.1 .1l2.8-2.6l-.2 .2l2.8-1.9l2.6-1.7l2.2-1.5h.1l2-1.6l.2-.3l1.3-1.6l-.2 .3l1.3-1.1l.2-.2l.6-.7l.2-.3l.1-.4c.2-.4 .2-.9-.1-1.3c-.2-.4-.6-.7-1.1-.7h-.5h.1l-1.1-.1h-.6l-1.7 .6h.1L508 403c-.2 0-.4 .2-.6 .3l-1.8 1.6l-.2 .2l-1.5 2l-.2 .2l-.7 1.4l-.2 .5l-.2 1.4c0 .5 .3 .9 .7 1.1c.5 .1 1 0 1.2-.5Z" class="g0_64"/>
<path d="M796.6 480.1l2-1.2c.3-.2 .5-.7 .2-1.1c-.2-.4-.7-.6-1.1-.3l-.3 .1c-.1 .1-.3 .3-.4 .5l-.3 .9v.1l-.2 1.1l-.2 1.3l-.2 1.6v.2l.1 2l.2 1.8l.1 .2l.5 1.5v.1l.8 1.4l.2 .3l.8 .7h-.1l1 .9l.1 .2l1.9 1.2h.1l1.5 .9h.2l2.3 .7h.1l2.2 .7h.1l2 .3h.1l2.2 .1l1.7 .1h3.3l1.2-.1l.4-.2l.8-.4l.1-.1l.8-.4l.3-.4l.6-.8l.5-.7l-.4 .3l.6-.3l-.2 .1l.5-.3l.4-.2l.1-.1l-1.3 .3v.1c.5 .1 1.1 0 1.5-.4c.3-.4 .4-1 .2-1.5c-.2-.5-.6-.8-1.2-.9h-1.1l-1.4 .1l-.6 .2l-1.9 1.2l.1-.1l-2.5 1.4l-.1 .1l-2.9 2.2l.1-.1l-3.4 2.1l-.1 .1l-3.5 2.8l.3-.2l-3.7 1.8l-.3 .2l-3.3 2.5l-.1 .1l-3 2.8l.2-.2l-3.2 1.9l-.1 .2l-3 2.6l.3-.2l-2.9 1.4l.2-.1l-2.9 .8h.6l-2.5-.4h.3l-2.2-.6l.6 .4l-1.6-1.8v.1l-1.6-2l.2 .4l-1.1-2.4l-1.1-2.9l-1.1-2.8l-1.2-3l.1 .2l-.7-2.5l-.1-.2l-.8-2.3h-.1l-.9-2.4l-.8-2.1l-.1-.1l-.8-1.4l.1 .1l-.5-1.1l.1 .3v-.2c-.1-.3-.2-.6-.5-.8l-.5-.6l.1 .2l-.3-.4l-.3-.3l-.2-.2l.3 .3l-.3-.4c-.4-.5-1.1-.7-1.7-.5c-.6 .3-1 .9-1 1.5c.1 .7 .5 1.2 1.2 1.4l.3 .1l-.4-.2l.4 .3c.5 .2 1 .2 1.4 0l.1-.1c.6-.3 .8-1 .5-1.6c-.3-.6-1-.9-1.6-.6c-.6 .3-.9 1.1-.6 1.7l.2 .4l.4 .4l.4 .2c.4 .3 .9 .2 1.2-.1c.3-.4 .3-.9 0-1.3l-.3-.3l.2 1.1l.2-.4c.1-.4 .1-.9-.1-1.2l-.1-.1l-.1-.1l-.3-.4l-.5-.4l-.3-.2c-.6-.3-1.3-.2-1.8 .3c-.4 .5-.5 1.2-.2 1.8l.3 .4l.3 .4l.2 .2l-.3-.3l.4 .4l.1 .2l.6 .6l-.4-.8v.2l.1 .3l.5 1.1v.1l.8 1.4v-.1l.8 2l.9 2.4l.9 2.3l-.1-.1l.8 2.5v.1l1.2 3l1 2.8l1.2 2.9l.1 .1l1.1 2.4l.2 .4l1.7 1.9l1.7 1.8c.2 .1 .4 .3 .6 .3l2.3 .7h.2l2.4 .3h.6l2.8-.9h.2l3-1.4l.3-.3l3-2.6l-.2 .1l3.1-1.9l.2-.2l3-2.8l-.1 .1l3.3-2.5l-.2 .1l3.7-1.8l.3-.2l3.4-2.8l-.1 .1l3.4-2.1l2.9-2.2l-.1 .1l2.5-1.3l1.9-1.1l-.5 .1l1.3-.1h-.2l.9 .1c.6 .1 1.1-.2 1.4-.7c.2-.5 .2-1.1-.2-1.5c-.3-.5-.9-.7-1.5-.5c-.6 .2-.9 .6-1 1.2v.1l.6-1l-.5 .2l-.1 .1l-.5 .5l-.4 .4l-.4 .7l-.5 .9l.3-.4l-.7 .6l.1-.1l-.8 .6l.5-.2l-1.3 .1h.1l-1.3 .1h-1.7l-1.7-.1l-2.2-.1h.1l-2-.3l.1 .1l-2.2-.6l-2.3-.7l.2 .1l-1.5-.8l-1.9-1.2l.2 .1l-.9-.9v-.1l-.8-.7l.2 .3l-.8-1.5v.2l-.5-1.5l.1 .3l-.3-1.8h.1l-.2-2v.2l.2-1.6h-.1l.2-1.3v.1l.1-1v.1l.3-.9l-.1 .3l.2-.3c.2-.3 .2-.8-.1-1.1c-.3-.3-.8-.3-1.1 0l-1.8 1.4c-.2 .2-.3 .6-.1 .9c.2 .3 .6 .3 .9 .2Z" class="g0_64"/>
<path d="M752.2 516.7l.5 .3h.1l.8 .4h.2l1.4 .1h-.1l1.4 .2h-.1l1.7 .3l1.8 .3l1.6 .4h3.6l1-.3l-.4 .1h1.1l-.4-.1l.8 .4l-.6-1v1.4l.3-.8l-1.3 1.4v-.1l-1.6 1.6l.1-.1l-2.8 2.3l-2.8 2.2h.1l-2.7 2v-.1l-2.5 1.6l-.1 .1l-1.4 1.1l.2-.2l-1.3 .7H752l-.9-.5l.4 .2l-.6-.6l.3 .8v-1.7v.1v-2.1l-.1 .3l.5-2.3v.1l.8-2.5l-.1 .1l.9-2.1l.9-2l-.1 .2l.8-1.2l.2-.3l.4-1.1l.1-.5l.1-.7l-.2 .5l.2-.2l.1-.5v-.1l-1.4 1.3h.1c.5 0 1-.2 1.3-.7c.2-.4 .2-.9 0-1.4c-.2-.4-.7-.7-1.2-.7h-.1h.1h-.1h.1h-.1c-.5 0-1 .2-1.2 .7l-.4 .6l-1.7 2.8l.1-.1l-1.6 2.2l-.1 .1l-1.7 2.6l.2-.2l-2.5 2.6h.1l-2.5 2.5h.1l-2.4 2.1l.1-.1l-2.3 1.9l-.2 .1l-1.5 1.6l.1-.1l-1.4 1.1h-.1l-1 .9l.3-.2l-.9 .5l.4-.1l-.7 .1h.3l-.9-.1l.8 .3l-.8-.5l-.1-.1l-1.2-.6l.3 .2l-1.4-1.3v.1l-1.3-1.3l.2 .2l-1.4-2.1l-1.4-2.4l.1 .2l-1.2-2.7l.1 .2l-.8-2.9l-.2-.4l-1.4-2.5l-1.1-2.2l.1 .1l-.9-2.3l-.2-.3l-1.5-2.3l.1 .2l-.9-2.2l-.8-2.2v-.2l-1-1.8l.1 .1l-.7-1.6l-.6-1.4l-.1-.1l-.7-1.4v-.1l-.5-1.1v.1l-.5-1l-.1-.1l-.3-.5l-.1-.2c-.4-.6-1.2-.8-1.9-.5c-.7 .3-1 1-.8 1.8l.1 .4l.2 .2l.1 .2l.9 .9l-.1-.1l2.7 3.1l-.1-.1l2.2 2.7l-.2-.2l1.8 3.2l2.1 3.4l2.2 3.6l-.2-.3l1.3 4.3l1.6 5v-.4l.4 5.6l-.1-.1l.1 5.7v-.2l-.9 5.5v.1l-.8 5.8l.1-.3l-1.6 5.4v-.2l-2.3 5.2l-2.2 5l.2-.3l-3.3 4l.1-.1l-3.2 3.3l.1-.1l-3.2 2.7l.4-.2l-2.9 1.1l.3-.1l-3.3 .5h.6l-3-.7l.4 .1l-2.8-1.6l.3 .2l-2.4-2.5l.2 .3l-1.7-3l.1 .4l-.7-3.2l.1 .1l-.5-3.4v.3l.1-3.7v.2l.5-3.8v.1l1-4.2v.2l1.6-4l-.1 .1l2-3.7l-.1 .1l2.4-3.7l-.1 .1l3.1-3.4c.5-.5 .4-1.3-.1-1.8c-.5-.4-1.2-.4-1.7 .1l-3.2 3.4v.1l-2.7 3.6l-.1 .1l-2.1 3.7l-.1 .2l-1.7 4v.2l-1.1 4.1v.2l-.6 3.8v.2l-.2 3.7v.3l.5 3.3v.1l.7 3.3l.2 .4l1.7 3.1l.3 .3l2.5 2.5l.3 .3l2.8 1.6l.4 .2l3 .8c.2 0 .4 0 .6 0l3.4-.5l.3-.1l2.9-1.1l.5-.3l3.2-2.8l.1-.1l3.2-3.3l.1-.1l3.2-4l.2-.4l2.2-5l2.3-5.2l.1-.1l1.6-5.4l.1-.2l.7-5.8l.9-5.5v-6.1l-.4-5.6l-.1-.3l-1.6-5l-1.3-4.3l-.1-.3l-2.2-3.6l-2.1-3.4h.1l-1.8-3.1l-.1-.2l-2.2-2.7v-.1l-2.7-3l-.7-.9l.2 .4l-.1-.1l.1 .9c.2-.7-.1-1.4-.7-1.8c-.6-.3-1.4-.2-1.9 .3c-.5 .5-.5 1.3-.1 1.9v.1l.3 .5v-.1l.4 .9h.1l.5 1.1l.7 1.4l-.1-.1l.7 1.5l.7 1.6v.1l1 1.8l-.1-.2l.8 2.2v.1l.9 2.3l.1 .3l1.6 2.3l-.1-.3l.9 2.3v.1l1.1 2.3h.1l1.4 2.6l-.1-.4l.7 2.9l.1 .2l1.2 2.8l.1 .1l1.4 2.5l1.5 2.2l.2 .2l1.3 1.3l.1 .1l1.5 1.3l.3 .2l1.1 .6l-.1-.1l.8 .4c.2 .2 .4 .3 .7 .3h1.2l.7-.1l.4-.2l.9-.5l.3-.2l1.1-.9l-.1 .1l1.4-1.2l.2-.1l1.5-1.6l-.2 .2l2.4-1.9h.1l2.3-2.2l.1-.1l2.4-2.5l2.5-2.7l.1-.2l1.7-2.6v.1l1.6-2.3v-.1l1.7-2.7l.3-.7l-1.1 .7h.1h-.1h.1h-.1h.1c.5 0 1-.3 1.2-.7c.2-.5 .2-1 0-1.4c-.3-.5-.8-.7-1.3-.7h-.1c-.4 0-.8 .2-1 .5c-.2 .3-.4 .6-.3 1v.1l.1-.8l-.1 .3l-.2 .5v.8l.1-.5l-.5 1.2l.2-.3l-.9 1.3l-.1 .2l-.9 2l-.9 2.1l-.1 .2l-.7 2.5l-.1 .1l-.4 2.4l-.1 .2v2.2l.1 1.7c0 .3 .2 .6 .4 .8l.6 .6l.3 .3l1 .4c.3 .2 .8 .2 1.2 0l1.2-.6l.3-.2l1.3-1.2l-.1 .1l2.5-1.6h.1l2.6-2l.1-.1l2.8-2.3l2.7-2.2l.1-.1l1.6-1.6l1.3-1.4c.2-.2 .3-.5 .3-.8v-.9v.1v-.5c-.1-.4-.3-.7-.6-.9l-.8-.4l-.4-.1l-1.1-.1l-.4 .1l-1 .3l.3-.1h-1.5l-1.6 .1h.2l-1.7-.3l-1.8-.2l-1.7-.3l-1.4-.1h-.1l-1.4 .1h.3l-.9-.2h-.1l-.6-.1c-.3 0-.5 .2-.6 .4c-.1 .3 .1 .6 .3 .7Z" class="g0_64"/>
<path d="M818.8 519.1l.3 .7v-.4l-.1 1.3v.2l.1 2.2l.5 3.5l.4 4l.5 4.3l.7 4.5v.1l1.3 4.8l1.2 4.9v.1l1.4 4.3v.1l1.5 3.8l-.1-.2l.5 2.6v.3l.9 2.2v.1l.6 1.4l.7 1.5c.2 .5 .7 .7 1.2 .5c.5-.2 .7-.7 .6-1.2l-.5-1.5v.2l-.3-1.6v-.2l-.8-2.3l.1 .2l-.4-2.6l-.1-.3l-1.5-3.9l.1 .1l-1.4-4.3l-1.2-4.8l-1.4-4.8l.1 .1l-.8-4.4l-.6-4.3l-.5-4l-.5-3.5l-.4-2.2v.1l-.2-1.4l-.3-.5l-.5-.5c-.3-.2-.6-.2-.8 0c-.3 .2-.4 .5-.3 .8Z" class="g0_64"/>
<path d="M792.5 583.2l-1 .4l1.2 .3l-.7-.7l.2 .1l-.7-1l.2 .6l-.2-1.9l-.1-2.8v.2l.3-3.7v.1l.6-4.3l.7-4.3h-.1l.9-4.2v.1l.9-3.5l.8-3.1l.6-2.1v.1l.8-2l.5-1.2v.1l.6-1.1l-.3 .4l.6-.6l-1.5 .2l.5 .3l-.1-.1l.5 .5l-.2-.4l.6 1.2l-.1-.4l.2 1.5v-.3l-.1 1.5l.1-.1l-.2 2.1v-.3l-.7 2.1l-.8 2l-.8 1.8l-1.1 2.3l.1-.1l-1.2 2.1v-.1l-1.3 2.3v-.1l-1.4 1.9l.2-.3l-1.7 1.3l.2-.1l-1.7 1l.5-.2l-1.5 .2l-1.6 .1l.6 .1l-1.4-.5l.1 .1l-1.2-.7l.4 .3l-1.6-1.6l.2 .2l-1.3-2.1l.1 .1l-1.3-2.5v.1l-1.3-2.9l.1 .1l-1-2.9l-1-2.7v.1l-.8-2.7l-.8-2.3v-.1l-.6-1.4v.1l-.3-1.2c-.1-.2-.2-.4-.4-.6l-.3-.4l-.2-.1l-.1-.1c-.2-.2-.4-.3-.7-.3l-.1-.1c-.7-.1-1.4 .3-1.7 .9l-.2 .5l-.1 .5l-.1 1.1l-.1 1.6v2.8l.3 2.9l.2 3.6v-.1v8.9v-.1l-.2 5l-.3 5.6l-.2 6l-.3 6l-.3 5.9l-.4 5l-.4 4.3l-.4 3.3v-.1l-.5 2.7v-.1l-.4 1.3l.3-.5l-.8 .8c-.4 .5-.4 1.3 0 1.8c.5 .4 1.2 .5 1.7 .1c.5-.4 .7-1.2 .3-1.7l-1.1-1.6c-.3-.5-1.1-.7-1.6-.3c-.6 .4-.7 1.1-.4 1.7l1 1.5c.1 .3 .5 .6 .8 .6c.3 .1 .7 0 1-.2l.9-.6c.2-.2 .3-.4 .4-.6l.6-1.3l.1-.3l.6-2.8V611l.4-3.3l.4-4.4l.4-5l.3-5.9l.3-6v-.1l.2-5.9l.3-5.7l.2-5v-9l-.3-3.6V557l-.2-2.8v.1v-2.6v.1l.1-1.6l.1-1.1l-.1 .5l.2-.5l-1.8 .8h.2l-.4-.2l.2 .1l-.2-.1l.3 .3l-.3-.6l.4 1.3v.1l.6 1.4v-.1l.7 2.3l.8 2.6l.1 .1l1 2.7l-.1-.1l1 2.9l.1 .2l1.3 2.9l1.3 2.5v.1l1.3 2.2l.2 .2l1.6 1.7l.4 .3l1.2 .6h.2l1.4 .5c.2 .1 .5 .1 .7 .1l1.6-.2h.1l1.5-.2l.5-.2l1.6-1l.2-.1l1.7-1.3l.2-.2l1.5-2l.1-.1l1.3-2.3l1.2-2.1v-.1l1.1-2.2v-.1l.9-1.8v-.1l.8-2.1v-.1l.7-2.1l.1-.3l.1-2.1v-1.8l-.3-1.5l-.1-.3l-.6-1.1l-.3-.4l-.5-.5l-.2-.1l-.5-.4c-.4-.3-1-.3-1.5 0l-.7 .5l-.3 .4l-.6 1.1l-.1 .1l-.6 1.2v.1l-.8 2v.1l-.7 2.2l-.8 3.1l-.9 3.5l-.1 .1l-.8 4.2v.1l-.6 4.4l-.6 4.2v.1l-.3 3.7v.2l.1 2.8v.1l.2 1.9c.1 .2 .2 .5 .4 .7l.8 .9l.2 .2l.8 .5c.5 .3 1.1 .2 1.4-.2l.7-.8c.3-.3 .3-.7 .1-1c-.2-.3-.7-.5-1-.3Z" class="g0_64"/>
<path d="M761.4 554.7l.2 .5l.2 .3l.9 1.2l-.2-.3l.7 1.5l1 2.3l1.4 2.9l-.1-.2l1 3.1l1.1 3.4l1.1 3.2l.9 2.8l.1 .2l1 2.1l.1 .2l1.2 1.7l.2 .2l1.1 1c.4 .4 1.1 .4 1.6-.1c.4-.4 .4-1.2 0-1.6l-1.1-1l.2 .2l-1-1.8v.1l-1-2.1l.1 .1l-1-2.8l-1-3.2l-1.2-3.4l-1-3V562l-1.4-2.9v.1l-1.1-2.4l.1 .1l-.6-1.5l-.1-.2l-.8-1.3l.1 .4l-.1-.5c-.1-.5-.5-.9-1-1c-.5-.1-1.1 .1-1.4 .5c-.3 .4-.4 .9-.2 1.4Z" class="g0_64"/>
<path d="M777.6 519.3l-.4 1.1l-.1 .4l-.1 2.1v.2l.2 3v.1l.3 3.5l.5 4.1v.2l1 4.1l-.1-.2l.5 3.8v-.1l.1 2.9l.1 .4l1.1 3.6l-.1-.1l.8 3.3l.1 .2l1.4 3.1l.1 .2l2.2 3.6l.1 .2l1.7 1.9c.4 .5 1.1 .6 1.6 .2c.5-.4 .6-1.1 .2-1.6l-1.6-2.1l.1 .2l-2-3.7l.1 .1l-1.4-3.2l.1 .2l-.7-3.3v-.1l-1.1-3.6l.1 .4l-.2-2.9v-.1l-.5-3.8v-.2l-.9-4.1v.2l-.5-4.1l-.4-3.5l-.2-3l-.1-2.1l-.1-1.2c0-.5-.4-.8-.9-.9c-.4-.1-.8 .2-1 .6Z" class="g0_64"/>
<path d="M747.2 592l-.6-.2l1 .9l-.3-.9l-.2-.3l-.9-1.7l.1 .3l-.5-1.9v.2l-.3-1.9v-.1l-.4-2v.5l.3-1.4v-.4l-.2-1.6v.1l-.1-1.7l-.1 .6l.5-1c.1-.3 .1-.6 0-.9l-.2-1l-.4 1.3l.3-.3l-1 .3l.7 .1l-1-.8l.2 .7l.1 .2l.7 1l-.2-.7v2.2v-.3l-.6 2.6l-.1 .2l-.5 4.1l.1-.2l-1.4 4.6l-1.5 4.8v-.1l-1.9 4.8l.1-.1l-2.4 4.4v.1l-1.9 4.2l-1.6 3.4l-1.5 3l.2-.3l-1.3 1.7l.1-.2l-1.2 1.1l1-.4l-1.8 .2h.1l-1.3-.1l.5 .1l-2.1-.7l.2 .1l-2.3-1.3l.3 .2l-2.3-2v-.1l-2.8-2.2l-2.5-2h-.1l-2.5-1.8c-.2-.1-.4-.2-.7-.2l-2.4-.4l-.1-.1l-2.5-.2h-.4l-2.3 .4c-.4 0-.7 .1-.9 .4l-1.3 1.1l.1-.1l-.7 .6l-.1 .1l-.6 .6l-.2 .3l-2.1 3.2l-.1 .1l-1.9 3.5l-.1 .3l-1.5 4.5l-.1 .1l-1 3.5l-1.1 4.1v.2l-.8 4.6l-.8 4.6v.1l-.6 4.3c-.2 .9 .4 1.6 1.2 1.7c.8 .2 1.6-.4 1.7-1.2l.7-4.4v.1l1-4.6v-.1l.8-4.5l-.1 .1l1.1-4.1l1.1-3.5l-.1 .1l1.6-4.6l-.1 .3l1.9-3.5l-.1 .1l2.1-3.2l-.2 .3l.6-.6l-.1 .1l.7-.6l1.3-1.2l-.9 .4l2.3-.3h-.3l2.5 .3l-.1-.1l2.4 .4l-.7-.3l2.5 1.8l2.4 1.9l2.8 2.2h-.1l2.3 2l.3 .2l2.3 1.3l.3 .1l2.1 .7l.6 .1h1.3l.2-.1l1.8-.1c.3-.1 .7-.2 .9-.5l1.2-1.1l.1-.2l1.3-1.7l.2-.3l1.3-3.1l1.5-3.5l1.9-4.2l-.1 .1l2.3-4.5l.1-.1l1.8-4.9v-.1l1.5-4.7v-.1l1.4-4.6v-.2l.5-4.2l-.1 .2l.7-2.6v-2.5c0-.2 0-.4-.1-.6l-.6-1l.1 .3l-.2-.7c-.1-.4-.5-.8-1-.9l-.7-.2c-.4 0-.8 .1-1.1 .3l-.4 .3c-.4 .4-.5 .9-.4 1.4l.4 1v-.8l-.4 1l-.1 .6l.1 1.7h.1l.2 1.6V583l-.3 1.4v.5l.4 2v-.2l.1 2v.1l.5 1.9l.1 .4l.9 1.7v-.1l.4 .9c.1 .4 .5 .7 .8 .8c.4 .1 .9 0 1.2-.2l.5-.4c.3-.2 .4-.6 .4-1c-.1-.4-.4-.7-.8-.8Z" class="g0_64"/>
</svg>