<svg viewBox="0 0 1466 825" version="1.1" xmlns="http://www.w3.org/2000/svg">
<defs>
<clipPath id="c0_2"><path d="M-.2 825.3V-.2H1467V825.3Z"/></clipPath>
<clipPath id="c1_2"><path d="M1343.9 529.1V456.4H1452v72.7Z"/></clipPath>
<clipPath id="c2_2"><path d="M1346.3 621.3V549.7h102.9v71.6Z"/></clipPath>
<clipPath id="c3_2"><path d="M1346.4 716.6V641.9h103v74.7Z"/></clipPath>
<clipPath id="c4_2"><path d="M1353 825V744.6h96.2V825Z"/></clipPath>
<clipPath id="c5_2"><path d="M18.6 679.6V448.1H792.5V679.6Z"/></clipPath>
<style>
.g0_2{fill:#F00;}
.g1_2{fill:none;stroke:#000;stroke-width:1.466;stroke-linejoin:round;}
</style>
</defs>
<image clip-path="url(#c0_2)" preserveAspectRatio="none" x="0" y="-7" width="1467" height="840" href="img/1.jpg"/>
<path fill-rule="evenodd" d="M707.2 348.2l3.7 2.4l-2.9 3.3l-3.2-2l-2.3 2.5l-3.8-2l2.9-3.6l3.2 2.1Zm646.2-12.6l6.9 3.7l-3.6 6.7l-7-3.7Zm-162.1-.3l7 3.7l-3.6 6.6l-7-3.6Zm-59 0l6.9 3.7l-3.5 6.6l-7-3.6Zm-12.6-.3l5.6 3l-3.1 5.8l-4.4-2.2l-2.6 4.8l-5.4-3l3.3-6.1l4.2 2.4ZM796 335l5.5 3l-3.1 5.8l-4.4-2.2l-2.5 4.8l-5.4-3l3.2-6.1l4.3 2.4Zm595.9-15.1c-.6 0-1.1 .2-1.5 .7c-.3 .5-.5 1-.5 1.6c0 .7 .4 1.3 1.2 1.8c.7 .4 1.8 .7 3.1 .7h1.1c-.6-3.2-1.7-4.8-3.4-4.8Zm-544.1 0c-.6 0-1.1 .2-1.5 .7c-.4 .5-.6 1-.6 1.6c0 .7 .4 1.3 1.2 1.8c.8 .4 1.8 .7 3.1 .7h1.2c-.6-3.2-1.7-4.8-3.4-4.8Zm-211.4 0c-.6 0-1.1 .2-1.5 .7c-.4 .5-.5 1-.5 1.6c0 .7 .3 1.3 1.1 1.8c.8 .4 1.9 .7 3.2 .7h1.1c-.6-3.2-1.7-4.8-3.4-4.8Zm809.8-.2c-.8 0-1.4 .9-2 2.7c1.1 .4 1.8 .7 2.4 .9c1.6 .6 2.5 .9 2.7 .9c.4 0 .7-.2 .7-.5c0-.4-.5-1.2-1.3-2.2c-1-1.2-1.8-1.8-2.5-1.8Zm-628.3 0c-.8 0-1.4 .9-2 2.7c1.1 .4 1.9 .7 2.4 .9c1.6 .6 2.5 .9 2.7 .9c.4 0 .7-.2 .7-.5c0-.4-.5-1.2-1.3-2.2c-1-1.2-1.8-1.8-2.5-1.8Zm-212.3-.9c-1.3 0-2.8 .4-4.4 1.2c-1.7 .9-4.1 2.4-7.2 4.7h7.8c6.6 0 9.8-1.1 9.8-3.1c0-.9-.7-1.6-2.1-2.2c-1.2-.4-2.5-.6-3.9-.6Zm721.7-6.4c-.7 .2-1.2 .5-1.5 .7c-1.1 .5-2 1.1-2.6 1.6c-.5 .4-.9 .7-1.2 1.1c-.4 .4-.6 .7-.6 1c0 .2 .3 .5 1 .6c.7 .2 1.4 .3 2.1 .3c.4 0 .9-.2 1.4-.4c.4-.3 1.1-.7 2-1.4Zm-154.8 0c-.6 .2-1.1 .5-1.4 .7c-1.1 .5-2 1.1-2.7 1.6c-.4 .4-.8 .7-1.2 1.1c-.4 .4-.6 .7-.6 1c0 .2 .4 .5 1.1 .6c.7 .2 1.4 .3 2 .3c.5 0 .9-.2 1.4-.4c.5-.3 1.2-.7 2.1-1.4Zm-186.4 0c-.6 .2-1.1 .5-1.5 .7c-1.1 .5-2 1.1-2.6 1.6c-.5 .4-.9 .7-1.2 1.1c-.4 .4-.6 .7-.6 1c0 .2 .3 .5 1 .6c.7 .2 1.4 .3 2.1 .3c.4 0 .9-.2 1.4-.4c.4-.3 1.1-.7 2-1.4Zm407.1-.5c1.5 0 2.9 1.1 4 3.3c1.1 2.2 1.7 4.8 1.7 7.8v7.7c0 3.4-1.5 6.8-4.4 10.1c-2.9 3.4-5.7 5.1-8.6 5.1c-1.6 0-3.4-.6-5.4-1.6c-1.9-1.1-4.9-3.1-9-6.2l1.3-1.8c2.1 1.4 3.9 2.4 5.2 2.9c1.2 .4 2.5 .6 3.9 .6c1.9 0 3.8-.6 5.7-1.6c2.2-1.3 4.5-3.4 6.9-6.2c-.8 .2-1.5 .2-2.1 .2c-1.9 0-3.5-.6-4.7-1.9c-1.1-1.3-1.7-3-1.7-5.2c0-3 .7-5.9 2.1-8.7c1.4-3 3.1-4.5 5.1-4.5Zm-271.3-.4c1.5 1.6 2.5 3.4 3 5.3c.5 1.6 .8 3.9 .8 6.9v1h13.6c-.3-1.4-.7-2.5-1.2-3.5c-.3-.5-1-1.4-2.1-2.6l2.4-7.1c1.5 1.6 2.5 3.4 3 5.3c.6 1.8 .8 4.6 .8 8.2v7.8h-33v.5c-.2 1.8-.4 3.4-.8 4.6c-.5 1.7-1.4 3-2.6 4c-1.3 1-3.1 1.9-5.4 2.5c-2.4 .7-4.8 1-7.3 1c-4.8 0-8.5-.9-11.2-2.7c-2.6-1.7-3.9-4.2-3.9-7.5c0-2.7 .4-5.2 1.3-7.5c.9-2.5 2.7-5.8 5.3-9.9l1.8 1.3c-2 3.4-3.2 5.8-3.8 7.3c-.6 1.5-.9 3.1-.9 4.7c0 2.1 1.1 3.8 3.3 5.1c2.2 1.3 5.2 2 8.8 2c3.6 0 6.6-.7 9-2.1c2.5-1.4 3.7-3 3.7-5c0-1.3-.2-2.5-.6-3.7c-.5-1.2-1.4-3.1-2.8-5.8l2.6-8.1c1.4 2.6 2.3 4.3 2.6 5.3c.5 1.5 .8 3.3 .9 5.6v.3h13.6c-.3-1.4-.7-2.5-1.2-3.5c-.3-.5-1-1.4-2.1-2.6Zm-323.8 0c1.5 1.6 2.5 3.4 3.1 5.3c.4 1.6 .7 3.9 .8 6.9v1h3.7c1.8 0 3.2-.3 4.3-.7c1.3-.6 2.3-1.5 2.8-2.9c1.1-2.5 2.6-4.6 4.3-6.2c1.6-1.5 2.9-2.2 4-2.2c1 0 2.3 1.5 3.8 4.6c1.6 3.2 2.3 6.2 2.3 8.9v6.5c-2 0-4.5-.4-7.3-1.2c-2.5-.7-4.7-1.5-6.6-2.5c-1.1 1.7-2.6 2.8-4.2 3.4c-.9 .2-2 .4-3.4 .4H785.4v.7c0 1.2-.7 2.8-2.1 4.8c-1.4 2-3 3.7-4.9 5.2c-2 1.6-3.8 2.4-5.3 2.4c-1.7 0-3.6-.5-5.6-1.5c-1.7-.8-4.5-2.5-8.2-5.1l1.2-1.8c1.8 1.1 3.3 2 4.4 2.4c1.1 .4 2.2 .6 3.5 .6c1.4 0 2.8-.4 4.1-1.2c1.4-.7 3.3-2.2 5.6-4.3c3.3-2.9 5-5.2 5-6.8c0-.8-.3-1.8-1-3.1c-.7-1.5-1.6-2.7-2.6-3.7l1.7-8c1.3 1.4 2.4 3 3.1 4.8c.7 1.8 1.1 3.8 1.1 6.1v.4H799c-.2-1.4-.6-2.5-1.2-3.5c-.3-.5-1-1.4-2.1-2.6Zm-65.5-1.3c-.5 0-1.1 .3-1.6 .8c-.4 .5-.7 1.2-.7 1.9c0 .4 .2 .8 .6 1.1c.3 .3 .8 .5 1.4 .5c.4 0 .9-.1 1.4-.4c.4-.3 1-.7 1.7-1.4c-.6-.9-1-1.6-1.4-1.9c-.4-.4-.9-.6-1.4-.6ZM554 309.1c2.3 0 4.1 .6 5.6 1.8c1.4 1.3 2.1 2.8 2.1 4.8c0 1.2-.3 2.3-.9 3.3c-.6 1.2-1.5 2-2.6 2.6c1 1.1 2.2 2 3.6 2.5c1 .4 1.9 .6 2.7 .6h2.1l4.3-.1c2.3 0 4-.5 5.2-1.7c1.4-1.3 2.3-3.7 2.7-7l2 .3c0 .7-.1 1.3-.1 1.8c-.1 1.3-.1 2.3-.1 3.1c0 1.2 .3 2 .9 2.6c.6 .7 1.4 1 2.3 1c1 0 1.9-.2 2.7-.6c.9-.4 2.2-1.2 3.9-2.5l10.7-7.6c1.3-.9 2.2-1.6 2.8-2c1.5-.8 2.9-1.3 4.2-1.3c2.3 0 4 .8 5.4 2.4c1.5 1.8 2.3 4.6 2.3 8.3v11.4H584.2c-1.4 0-2.5-.4-3.4-1.1c-.8-.7-1.5-1.8-2.1-3.4c-1.3 1.7-2.5 2.9-3.6 3.6c-1.1 .6-2.5 .8-4.2 .8l-2.2 .1h-4.2c-2.8 0-5.1-.6-6.8-1.7c-1.9-1.2-3.6-3.4-5.1-6.6c-2.3 1.5-4 3.2-5.2 5.1c-1.2 1.9-1.8 3.8-1.8 5.8c0 3.5 1.5 6.1 4.6 7.8c3.2 1.7 8.1 2.5 14.8 2.5c1 0 2.1 0 3.2 0c1.2 0 2.2 0 3.2-.1l.2 1.3l-11 6.7c-6.4 0-11.1-1.2-14.1-3.6c-2.9-2.5-4.3-6.3-4.3-11.5c0-3.6 .7-6.9 2.1-9.8c1.4-2.9 3.5-5.7 6.5-8.3c-.2-1.5-.7-2.2-1.6-2.2c-.3 0-.5 .1-.7 .3c-.3 .3-.5 .5-.7 .8l-1.4-.3c0-2.8 .6-5.1 1.8-6.9c1.4-2 3.3-3 5.8-3Zm538.4-5l7 3.7l-3.6 6.7l-7-3.6Zm-359.2-1.5c2.1 0 4 1.9 5.9 5.5c1.8 3.6 2.8 7.5 2.8 11.5v13.2H720.2c-.9 0-1.5 0-1.9 0c-.4 .1-.6 .2-.6 .4c.6 .4 1.1 .6 1.6 .7c.5 .1 .9 .3 1 .5c.2 .2 .3 .6 .3 1c0 1.4-.4 3.1-1.2 5.1c-.8 1.9-1.6 3.2-2.4 3.6c-.7 .6-2.9 1.4-6.6 2.2c-3.6 .8-6.7 1.2-9.3 1.2c-3.8 0-6.8-.8-9.1-2.4c-2.3-1.5-3.4-3.5-3.4-6c0-2.5 .5-4.8 1.5-7c1.2-2.6 3.5-6 6.8-10.1l1.8 1.3c-2.1 2.5-3.5 4.5-4.3 6.1c-.9 1.6-1.2 3.2-1.2 4.7c0 2.1 .8 3.7 2.6 4.7c1.7 1.1 4.5 1.6 8.1 1.6c1.9 0 4.6-.4 8-1.1c3.3-.7 5-1.3 5-1.8c0-.2-.6-.4-1.9-.6c-1.3-.2-2.7-.3-4.3-.3c-2.2 0-3.4-.5-3.4-1.5c0-.5 .3-1.3 .8-2.5c.4-.8 .8-1.6 1.2-2.4c.7-1.7 2.1-3 4.2-4c2.1-1 4.3-1.5 6.5-1.5h19c0-1.8 0-3-.1-3.7c-.2-1.2-.5-2.2-1-3c-.6 1.2-1.5 2.2-2.5 2.8c-1.1 .7-2.3 1-3.5 1c-1.6 0-2.9-.5-4-1.5c-1.1-1.1-1.6-2.4-1.6-4c0-2.4 .7-5.1 2.1-8.4c1.6-3.5 3.2-5.3 4.8-5.3Zm510.6-1.5l5.4 3.1l-3.3 6.1l-4.2-2.4l-2.4 4.7l-5.6-3l3.1-5.8l4.5 2.2Zm85.2-2l2.8 18.6c.5 2.9 1.1 4.9 1.8 5.9c.5 .7 1.1 1.1 2 1.1h22.9c-2.4-2.5-4.6-4.3-6.6-5.4c-1.8-1-3.6-1.5-5.3-1.5c-.6 0-1 .1-1.5 .1c-.4 .1-1 .2-1.8 .4c1.1-2.6 2.3-4.4 3.6-5.6c1.4-1.2 2.9-1.8 4.6-1.8c1.3 0 2.6 .3 3.8 1c1.2 .6 2.6 1.6 4.1 3.1c1.2 1.1 2.9 2.8 5 5.2c1.5 1.6 2.7 2.7 3.5 3.2c.7 .5 1.9 .9 3.5 1.3v8.1h-35.8c-.8 0-1.4-.2-2-.5c-1.1-.6-2.1-1.6-2.9-3.1c-1.1-2.1-1.8-5-2.1-8.7c-1.4 1.7-2.4 2.9-3.2 3.6c-1.1 1-2 1.5-2.7 1.5c-.4 0-.9-.1-1.4-.2l-3.7-.7c-1.5-.3-2.5-.6-2.8-.7c-.4-.1-.6-.4-.6-.7c0-.6 .7-2.3 2.1-5.1c1.4-2.9 2.4-4.6 3-5.3c.5-.5 1.4-1.2 2.6-2.1c.8-.5 1.9-1.2 3.3-2l1.5-.9c0-.3-.1-.6-.1-.9c0-.3 0-.5 0-.8c0-.7 .1-1.7 .5-2.8c.3-1.2 1-2.6 1.9-4.3Zm-154.8 0l2.9 18.6c.4 2.9 1 4.9 1.8 5.9c.4 .7 1.1 1.1 1.9 1.1h17.5c-.2-1.4-.6-2.5-1.2-3.5c-.3-.5-1-1.4-2.1-2.6l2.4-7.1c1.5 1.6 2.5 3.4 3.1 5.3c.5 1.8 .8 4.6 .8 8.2v7.8h-20.5c-.7 0-1.3-.2-1.9-.5c-1.2-.6-2.2-1.6-3-3.1c-1-2.1-1.7-5-2-8.7c-1.4 1.7-2.4 2.9-3.2 3.6c-1.1 1-2 1.5-2.7 1.5c-.4 0-.9-.1-1.5-.2l-3.6-.7c-1.6-.3-2.5-.6-2.9-.7c-.3-.1-.5-.4-.5-.7c0-.6 .7-2.3 2.1-5.1c1.3-2.9 2.3-4.6 3-5.3c.5-.5 1.3-1.2 2.6-2.1c.8-.5 1.8-1.2 3.2-2l1.6-.9c-.1-.3-.1-.6-.1-.9c0-.3-.1-.5-.1-.8c0-.7 .2-1.7 .6-2.8c.3-1.2 .9-2.6 1.8-4.3Zm-300.1-.8v7.1c-.1 0-.9 .2-2.5 .8c-1.9 .6-3.5 1.1-4.6 1.6c-1.7 .7-2.6 1.2-2.6 1.5c0 .2 .8 1 2.2 2.4c1.9 1.8 3.5 3.5 4.8 5.1c2.2 2.6 4 5.1 5.3 7.7v8.3H854.5v.5c-.6 2.5-1.9 5-4.1 7.5c-2.9 3.4-5.8 5.1-8.6 5.1c-1.6 0-3.4-.6-5.4-1.6c-2-1.1-5-3.1-9-6.2l1.2-1.8c2.2 1.4 3.9 2.4 5.3 2.9c1.1 .4 2.4 .6 3.9 .6c1.9 0 3.8-.6 5.7-1.6c2.2-1.3 4.5-3.4 6.9-6.2c-.8 .2-1.5 .2-2.1 .2c-2 0-3.5-.6-4.7-1.9c-1.2-1.3-1.7-3-1.7-5.2c0-3 .7-5.9 2-8.7c1.5-3 3.2-4.5 5.1-4.5c1.6 0 3 1.1 4.1 3.3c1.1 2.2 1.6 4.8 1.6 7.8v1.7H872c-.8-1-1.6-1.8-2.3-2.5c-.6-.5-1.4-1.2-2.4-2c-1.2-.9-2.3-1.7-3.4-2.6l-.9 1c-1.8-1.7-2.9-2.8-3.2-3.1c-1-1.2-1.5-2.5-1.5-4c0-2 .1-3.4 .4-4.2c.4-1.1 1.3-2.2 2.6-3.1c1.1-.8 2.3-1.5 3.7-2.1c1-.5 2.4-1.2 4.1-1.8c.8-.4 2.4-1 5-2Zm389.2-.4l5.5 3l-3.1 5.8l-4.4-2.2l-2.5 4.8l-5.4-3l3.3-6.1l4.2 2.4ZM594 297.1l7 3.7l-3.6 6.6l-7-3.6Zm825.9-.5c1.1 1.6 1.9 3.2 2.4 4.7c.5 1.8 .8 4.1 .8 6.9v5.9c0 4.1 .3 7 .8 8.6c.5 1.3 1.2 2 2.1 2h8c1.8 0 3.2-.3 4.3-.7c1.3-.6 2.2-1.5 2.8-2.9c1.1-2.5 2.5-4.6 4.3-6.2c1.6-1.5 2.9-2.2 4-2.2c1 0 2.3 1.5 3.8 4.6c1.5 3.2 2.3 6.2 2.3 8.9v6.5c-2.1 0-4.5-.4-7.3-1.2c-2.5-.7-4.7-1.5-6.6-2.5c-1.1 1.7-2.6 2.8-4.3 3.4c-.8 .2-1.9 .4-3.3 .4h-8c-2.3 0-4-1-5-2.9c-1.2-2.1-1.8-5.6-1.8-10.6v-8.5c0-2-.2-3.5-.7-4.5c-.3-.5-.9-1.3-1.8-2.3Zm-128.8 0l1.8 10.5c.6 4 1.1 7.5 1.3 10.5c.2 2.2 .3 4.4 .3 6.5c0 1.8-.2 3.4-.6 4.8c-.4 1.5-1.2 3.5-2.4 5.9l-1.8-.7c.5-2.5 .7-4.6 .7-6.2c0-1.2-.1-3-.3-5.3c-.2-2.4-.4-4.7-.7-7c-.3-2.3-.8-5-1.5-8.2c-.2-1.1-.3-1.9-.3-2.3c0-.6 .3-1.7 .9-3.1c.6-1.5 1.5-3.3 2.6-5.4Zm-274.6 0c1.2 1.6 2 3.2 2.5 4.7c.5 1.8 .8 4.1 .8 6.9v5.9c0 4.1 .2 7 .8 8.6c.4 1.3 1.1 2 2.1 2H1046c-2.5-2.5-4.7-4.3-6.7-5.4c-1.8-1-3.6-1.5-5.3-1.5c-.5 0-1 .1-1.4 .1c-.5 .1-1.1 .2-1.9 .4c1.1-2.6 2.3-4.4 3.7-5.6c1.3-1.2 2.8-1.8 4.5-1.8c1.3 0 2.6 .3 3.8 1c1.2 .6 2.6 1.6 4.1 3.1c1.2 1.1 2.9 2.8 5.1 5.2c1.5 1.6 2.6 2.7 3.4 3.2c.8 .5 1.9 .9 3.5 1.3v8.1h-36.1c-2.3 0-4-1-5-2.9c-1.2-2.1-1.8-5.6-1.8-10.6v-8.5c0-2-.2-3.5-.8-4.5c-.2-.5-.8-1.3-1.8-2.3Zm-66.4 0l1.8 10.5c.6 4 1.1 7.5 1.3 10.5c.2 2.2 .3 4.4 .3 6.5c0 1.8-.2 3.4-.6 4.8c-.4 1.5-1.2 3.5-2.4 5.9l-1.8-.7c.5-2.5 .7-4.6 .7-6.2c0-1.2-.1-3-.3-5.3c-.2-2.4-.4-4.7-.7-7c-.3-2.3-.8-5-1.5-8.2c-.2-1.1-.3-1.9-.3-2.3c0-.6 .3-1.7 .9-3.1c.6-1.5 1.5-3.3 2.6-5.4Zm-284.9 0l1.8 10.5c.6 4 1.1 7.5 1.3 10.5c.2 2.2 .3 4.4 .3 6.5c0 1.8-.2 3.4-.6 4.8c-.4 1.5-1.2 3.5-2.4 5.9l-1.8-.7c.5-2.5 .7-4.6 .7-6.2c0-1.2-.1-3-.3-5.3c-.2-2.4-.4-4.7-.7-7c-.3-2.3-.8-5-1.5-8.2c-.2-1.1-.3-1.9-.3-2.3c0-.6 .3-1.7 .9-3.1c.6-1.5 1.5-3.3 2.6-5.4Zm572.7-2.3l5.5 2.8l-3 6.2l-5.6-3Zm39.4-.1l1.4 .7c0 .2-.1 .5-.1 1c0 .7 .4 1.3 1.2 1.9c.7 .6 1.9 1.2 3.5 1.9c-.2 1.2-.4 2.5-.8 3.7c-.3 1.2-.7 2.3-1.2 3.2l-1-.4l3.2 18.5v8.1h-32.9v-.1h-1c-.9-.1-1.8-.2-2.5-.4c-1.5-.3-2.9-.8-4.4-1.5c-1.1 .8-2.1 1.3-3 1.6c-.9 .2-2.3 .4-4.1 .4h-4.9c-1.3 0-2.4-.4-3.1-1.1c-.8-.7-1.5-1.8-2.1-3.4c-1.1 1.6-2.3 2.8-3.7 3.5c-1.1 .7-2.5 1-4.1 1h-6.4c-2.3 0-4-1-5-2.9c-1.2-2.1-1.7-5.6-1.7-10.6v-8.5c0-2-.3-3.5-.8-4.5c-.3-.5-.9-1.3-1.8-2.3l3.2-7.4c1.1 1.6 2 3.2 2.4 4.7c.6 1.8 .8 4.1 .8 6.9v5.9c0 4.1 .3 7 .9 8.6c.4 1.3 1.1 2 2 2h6.4c2.1 0 3.8-.6 5.2-1.8c1.8-1.5 2.7-3.9 2.7-7l2 .3c-.1 .7-.1 1.4-.2 2.2c0 .8 0 1.7 0 2.7c0 1 .3 1.9 1 2.5c.7 .7 1.5 1.1 2.4 1.1h3.7c2.4 0 4.1-.4 5.2-1.1c1.2-.8 1.8-2.3 1.8-4.5c0-.5 .2-.9 .5-1.3c.2-.2 .5-.5 1.1-1l1.1-.9c.1 .4 .1 .9 .1 1.6c0 .6 .1 1 .1 1.2c0 1.1-.2 2.6-.5 4.4c.7 .3 1.5 .7 2.4 .9c1 .3 1.9 .5 2.9 .6c0-.7-.2-1.6-.7-2.6c-.5-1.1-.7-1.8-.7-2.2c0-.5 0-.9 .2-1.2c0-.1 .2-.4 .6-.9l2.6-3.4c.5 1.2 .9 2.3 1.1 3.4c.2 1 .3 2.3 .3 3.8v3.2h13.7c-.2-1.4-.6-2.5-1.2-3.5c-.3-.5-1-1.4-2.1-2.6l2.4-7.1c1.5 1.6 2.5 3.4 3.1 5.3c.5 1.6 .7 3.9 .8 6.9v1h10.6l-3.6-20.3l-1.9-1.2c0-1.2 .2-2.4 .6-3.6c.4-1.5 1.2-3.3 2.3-5.4Zm-271 0l1.4 .7c0 .2 0 .5-.1 1c0 .7 .4 1.3 1.2 1.9c.8 .6 1.9 1.2 3.6 1.9c-.2 1.2-.5 2.5-.8 3.7c-.4 1.2-.8 2.3-1.2 3.2l-1.1-.4l3.3 18.5v8.1H994.4c-.7 0-1.4-.2-2-.5c-1.1-.6-2.1-1.6-2.9-3.1c-1.1-2.1-1.8-5-2.1-8.7c-1.3 1.7-2.4 2.9-3.2 3.6c-1 1-2 1.5-2.7 1.5c-.4 0-.8-.1-1.4-.2l-3.7-.7c-1.5-.3-2.5-.6-2.8-.7c-.4-.1-.6-.4-.6-.7c0-.6 .7-2.3 2.1-5.1c1.4-2.9 2.4-4.6 3-5.3c.5-.5 1.4-1.2 2.7-2.1c.7-.5 1.8-1.2 3.2-2l1.6-.9c-.1-.3-.1-.6-.2-.9c0-.3 0-.5 0-.8c0-.7 .2-1.7 .5-2.8c.4-1.2 1-2.6 1.9-4.3l2.8 18.6c.5 2.9 1.1 4.9 1.8 5.9c.5 .7 1.1 1.1 2 1.1H1009l-3.6-20.3l-1.9-1.2c0-1.2 .1-2.4 .5-3.6c.5-1.5 1.2-3.3 2.3-5.4Zm-70 0l1.4 .7c0 .2-.1 .5-.1 1c0 .7 .4 1.3 1.2 1.9c.7 .6 1.9 1.2 3.5 1.9c-.2 1.2-.4 2.5-.8 3.7c-.3 1.2-.7 2.3-1.2 3.2l-1-.4l3.2 18.5v8.1H926.1v-.1h-1c-.9-.1-1.8-.2-2.5-.4c-1.5-.3-2.9-.8-4.4-1.5c-1.1 .8-2.1 1.3-3 1.6c-.9 .2-2.3 .4-4.1 .4h-4.9c-1.3 0-2.4-.4-3.1-1.1c-.8-.7-1.5-1.8-2.1-3.4c-1.1 1.6-2.3 2.8-3.7 3.5c-1.1 .7-2.5 1-4.1 1h-6.4c-2.3 0-4-1-5-2.9c-1.2-2.1-1.7-5.6-1.7-10.6v-8.5c0-2-.3-3.5-.8-4.5c-.3-.5-.9-1.3-1.8-2.3l3.2-7.4c1.1 1.6 2 3.2 2.4 4.7c.6 1.8 .8 4.1 .8 6.9v5.9c0 4.1 .3 7 .9 8.6c.4 1.3 1.1 2 2 2h6.4c2.1 0 3.8-.6 5.2-1.8c1.8-1.5 2.7-3.9 2.7-7l2 .3c-.1 .7-.1 1.4-.2 2.2c0 .8 0 1.7 0 2.7c0 1 .3 1.9 1 2.5c.7 .7 1.5 1.1 2.4 1.1H910c2.4 0 4.1-.4 5.2-1.1c1.2-.8 1.8-2.3 1.8-4.5c0-.5 .2-.9 .5-1.3c.2-.2 .5-.5 1.1-1l1.1-.9c.1 .4 .1 .9 .1 1.6c0 .6 .1 1 .1 1.2c0 1.1-.2 2.6-.5 4.4c.7 .3 1.5 .7 2.4 .9c1 .3 1.9 .5 2.9 .6c0-.7-.2-1.6-.7-2.6c-.5-1.1-.7-1.8-.7-2.2c0-.5 0-.9 .2-1.2c0-.1 .2-.4 .6-.9l2.6-3.4c.5 1.2 .9 2.3 1.1 3.4c.2 1 .3 2.3 .3 3.8v3.2h10.8l-3.6-20.3l-1.9-1.2c0-1.2 .2-2.4 .6-3.6c.4-1.5 1.2-3.3 2.3-5.4Zm-284.9 0l1.4 .7c0 .2-.1 .5-.1 1c0 .7 .4 1.3 1.2 1.9c.7 .6 1.9 1.2 3.5 1.9c-.2 1.2-.4 2.5-.8 3.7c-.3 1.2-.7 2.3-1.2 3.2l-1-.4l3.2 18.5v8.1H643.1v.5c-.6 2.5-1.9 5-4.1 7.5c-2.9 3.4-5.8 5.1-8.6 5.1c-1.6 0-3.4-.6-5.4-1.6c-1.9-1.1-5-3.1-9-6.2l1.3-1.8c2.1 1.4 3.8 2.4 5.2 2.9c1.2 .4 2.4 .6 3.9 .6c1.9 0 3.8-.6 5.7-1.6c2.2-1.3 4.5-3.4 6.9-6.2c-.8 .2-1.5 .2-2.1 .2c-1.9 0-3.5-.6-4.7-1.9c-1.1-1.3-1.7-3-1.7-5.2c0-3 .7-5.9 2-8.7c1.5-3 3.2-4.5 5.1-4.5c1.6 0 3 1.1 4.1 3.3c1.1 2.2 1.7 4.8 1.7 7.8v1.7H654l-3.6-20.3l-1.9-1.2c0-1.2 .2-2.4 .6-3.6c.4-1.5 1.2-3.3 2.3-5.4Zm79.2-4.6l6.9 3.7l-3.6 6.7l-6.9-3.6Zm255.5-1.4l5.3 2.8l-3.3 5.5l-4.2-2.4l-2.4 4.7l-5.5-3l3.1-5.2l4.4 2.2Z" class="g0_2"/>
<path d="M707.2 348.2l3.7 2.4l-2.9 3.3l-3.2-2l-2.3 2.5l-3.8-2l2.9-3.6l3.2 2.1Zm646.2-12.6l6.9 3.7l-3.6 6.7l-7-3.7Zm-162.1-.3l7 3.7l-3.6 6.6l-7-3.6Zm-59 0l6.9 3.7l-3.5 6.6l-7-3.6Zm-12.6-.3l5.6 3l-3.1 5.8l-4.4-2.2l-2.6 4.8l-5.4-3l3.3-6.1l4.2 2.4ZM796 335l5.5 3l-3.1 5.8l-4.4-2.2l-2.5 4.8l-5.4-3l3.2-6.1l4.3 2.4Zm595.9-15.1c-.6 0-1.1 .2-1.5 .7c-.3 .5-.5 1-.5 1.6c0 .7 .4 1.3 1.2 1.8c.7 .4 1.8 .7 3.1 .7h1.1c-.6-3.2-1.7-4.8-3.4-4.8Zm-544.1 0c-.6 0-1.1 .2-1.5 .7c-.4 .5-.6 1-.6 1.6c0 .7 .4 1.3 1.2 1.8c.8 .4 1.8 .7 3.1 .7h1.2c-.6-3.2-1.7-4.8-3.4-4.8Zm-211.4 0c-.6 0-1.1 .2-1.5 .7c-.4 .5-.5 1-.5 1.6c0 .7 .3 1.3 1.1 1.8c.8 .4 1.9 .7 3.2 .7h1.1c-.6-3.2-1.7-4.8-3.4-4.8Zm809.8-.2c-.8 0-1.4 .9-2 2.7c1.1 .4 1.8 .7 2.4 .9c1.6 .6 2.5 .9 2.7 .9c.4 0 .7-.2 .7-.5c0-.4-.5-1.2-1.3-2.2c-1-1.2-1.8-1.8-2.5-1.8Zm-628.3 0c-.8 0-1.4 .9-2 2.7c1.1 .4 1.9 .7 2.4 .9c1.6 .6 2.5 .9 2.7 .9c.4 0 .7-.2 .7-.5c0-.4-.5-1.2-1.3-2.2c-1-1.2-1.8-1.8-2.5-1.8Zm-212.3-.9c-1.3 0-2.8 .4-4.4 1.2c-1.7 .9-4.1 2.4-7.2 4.7h7.8c6.6 0 9.8-1.1 9.8-3.1c0-.9-.7-1.6-2.1-2.2c-1.2-.4-2.5-.6-3.9-.6Zm721.7-6.4c-.7 .2-1.2 .5-1.5 .7c-1.1 .5-2 1.1-2.6 1.6c-.5 .4-.9 .7-1.2 1.1c-.4 .4-.6 .7-.6 1c0 .2 .3 .5 1 .6c.7 .2 1.4 .3 2.1 .3c.4 0 .9-.2 1.4-.4c.4-.3 1.1-.7 2-1.4Zm-154.8 0c-.6 .2-1.1 .5-1.4 .7c-1.1 .5-2 1.1-2.7 1.6c-.4 .4-.8 .7-1.2 1.1c-.4 .4-.6 .7-.6 1c0 .2 .4 .5 1.1 .6c.7 .2 1.4 .3 2 .3c.5 0 .9-.2 1.4-.4c.5-.3 1.2-.7 2.1-1.4Zm-186.4 0c-.6 .2-1.1 .5-1.5 .7c-1.1 .5-2 1.1-2.6 1.6c-.5 .4-.9 .7-1.2 1.1c-.4 .4-.6 .7-.6 1c0 .2 .3 .5 1 .6c.7 .2 1.4 .3 2.1 .3c.4 0 .9-.2 1.4-.4c.4-.3 1.1-.7 2-1.4Zm407.1-.5c1.5 0 2.9 1.1 4 3.3c1.1 2.2 1.7 4.8 1.7 7.8v7.7c0 3.4-1.5 6.8-4.4 10.1c-2.9 3.4-5.7 5.1-8.6 5.1c-1.6 0-3.4-.6-5.4-1.6c-1.9-1.1-4.9-3.1-9-6.2l1.3-1.8c2.1 1.4 3.9 2.4 5.2 2.9c1.2 .4 2.5 .6 3.9 .6c1.9 0 3.8-.6 5.7-1.6c2.2-1.3 4.5-3.4 6.9-6.2c-.8 .2-1.5 .2-2.1 .2c-1.9 0-3.5-.6-4.7-1.9c-1.1-1.3-1.7-3-1.7-5.2c0-3 .7-5.9 2.1-8.7c1.4-3 3.1-4.5 5.1-4.5Zm-271.3-.4c1.5 1.6 2.5 3.4 3 5.3c.5 1.6 .8 3.9 .8 6.9v1h13.6c-.3-1.4-.7-2.5-1.2-3.5c-.3-.5-1-1.4-2.1-2.6l2.4-7.1c1.5 1.6 2.5 3.4 3 5.3c.6 1.8 .8 4.6 .8 8.2v7.8h-33v.5c-.2 1.8-.4 3.4-.8 4.6c-.5 1.7-1.4 3-2.6 4c-1.3 1-3.1 1.9-5.4 2.5c-2.4 .7-4.8 1-7.3 1c-4.8 0-8.5-.9-11.2-2.7c-2.6-1.7-3.9-4.2-3.9-7.5c0-2.7 .4-5.2 1.3-7.5c.9-2.5 2.7-5.8 5.3-9.9l1.8 1.3c-2 3.4-3.2 5.8-3.8 7.3c-.6 1.5-.9 3.1-.9 4.7c0 2.1 1.1 3.8 3.3 5.1c2.2 1.3 5.2 2 8.8 2c3.6 0 6.6-.7 9-2.1c2.5-1.4 3.7-3 3.7-5c0-1.3-.2-2.5-.6-3.7c-.5-1.2-1.4-3.1-2.8-5.8l2.6-8.1c1.4 2.6 2.3 4.3 2.6 5.3c.5 1.5 .8 3.3 .9 5.6v.3h13.6c-.3-1.4-.7-2.5-1.2-3.5c-.3-.5-1-1.4-2.1-2.6Zm-323.8 0c1.5 1.6 2.5 3.4 3.1 5.3c.4 1.6 .7 3.9 .8 6.9v1h3.7c1.8 0 3.2-.3 4.3-.7c1.3-.6 2.3-1.5 2.8-2.9c1.1-2.5 2.6-4.6 4.3-6.2c1.6-1.5 2.9-2.2 4-2.2c1 0 2.3 1.5 3.8 4.6c1.6 3.2 2.3 6.2 2.3 8.9v6.5c-2 0-4.5-.4-7.3-1.2c-2.5-.7-4.7-1.5-6.6-2.5c-1.1 1.7-2.6 2.8-4.2 3.4c-.9 .2-2 .4-3.4 .4H785.4v.7c0 1.2-.7 2.8-2.1 4.8c-1.4 2-3 3.7-4.9 5.2c-2 1.6-3.8 2.4-5.3 2.4c-1.7 0-3.6-.5-5.6-1.5c-1.7-.8-4.5-2.5-8.2-5.1l1.2-1.8c1.8 1.1 3.3 2 4.4 2.4c1.1 .4 2.2 .6 3.5 .6c1.4 0 2.8-.4 4.1-1.2c1.4-.7 3.3-2.2 5.6-4.3c3.3-2.9 5-5.2 5-6.8c0-.8-.3-1.8-1-3.1c-.7-1.5-1.6-2.7-2.6-3.7l1.7-8c1.3 1.4 2.4 3 3.1 4.8c.7 1.8 1.1 3.8 1.1 6.1v.4H799c-.2-1.4-.6-2.5-1.2-3.5c-.3-.5-1-1.4-2.1-2.6Zm-65.5-1.3c-.5 0-1.1 .3-1.6 .8c-.4 .5-.7 1.2-.7 1.9c0 .4 .2 .8 .6 1.1c.3 .3 .8 .5 1.4 .5c.4 0 .9-.1 1.4-.4c.4-.3 1-.7 1.7-1.4c-.6-.9-1-1.6-1.4-1.9c-.4-.4-.9-.6-1.4-.6ZM554 309.1c2.3 0 4.1 .6 5.6 1.8c1.4 1.3 2.1 2.8 2.1 4.8c0 1.2-.3 2.3-.9 3.3c-.6 1.2-1.5 2-2.6 2.6c1 1.1 2.2 2 3.6 2.5c1 .4 1.9 .6 2.7 .6h2.1l4.3-.1c2.3 0 4-.5 5.2-1.7c1.4-1.3 2.3-3.7 2.7-7l2 .3c0 .7-.1 1.3-.1 1.8c-.1 1.3-.1 2.3-.1 3.1c0 1.2 .3 2 .9 2.6c.6 .7 1.4 1 2.3 1c1 0 1.9-.2 2.7-.6c.9-.4 2.2-1.2 3.9-2.5l10.7-7.6c1.3-.9 2.2-1.6 2.8-2c1.5-.8 2.9-1.3 4.2-1.3c2.3 0 4 .8 5.4 2.4c1.5 1.8 2.3 4.6 2.3 8.3v11.4H584.2c-1.4 0-2.5-.4-3.4-1.1c-.8-.7-1.5-1.8-2.1-3.4c-1.3 1.7-2.5 2.9-3.6 3.6c-1.1 .6-2.5 .8-4.2 .8l-2.2 .1h-4.2c-2.8 0-5.1-.6-6.8-1.7c-1.9-1.2-3.6-3.4-5.1-6.6c-2.3 1.5-4 3.2-5.2 5.1c-1.2 1.9-1.8 3.8-1.8 5.8c0 3.5 1.5 6.1 4.6 7.8c3.2 1.7 8.1 2.5 14.8 2.5c1 0 2.1 0 3.2 0c1.2 0 2.2 0 3.2-.1l.2 1.3l-11 6.7c-6.4 0-11.1-1.2-14.1-3.6c-2.9-2.5-4.3-6.3-4.3-11.5c0-3.6 .7-6.9 2.1-9.8c1.4-2.9 3.5-5.7 6.5-8.3c-.2-1.5-.7-2.2-1.6-2.2c-.3 0-.5 .1-.7 .3c-.3 .3-.5 .5-.7 .8l-1.4-.3c0-2.8 .6-5.1 1.8-6.9c1.4-2 3.3-3 5.8-3Zm538.4-5l7 3.7l-3.6 6.7l-7-3.6Zm-359.2-1.5c2.1 0 4 1.9 5.9 5.5c1.8 3.6 2.8 7.5 2.8 11.5v13.2H720.2c-.9 0-1.5 0-1.9 0c-.4 .1-.6 .2-.6 .4c.6 .4 1.1 .6 1.6 .7c.5 .1 .9 .3 1 .5c.2 .2 .3 .6 .3 1c0 1.4-.4 3.1-1.2 5.1c-.8 1.9-1.6 3.2-2.4 3.6c-.7 .6-2.9 1.4-6.6 2.2c-3.6 .8-6.7 1.2-9.3 1.2c-3.8 0-6.8-.8-9.1-2.4c-2.3-1.5-3.4-3.5-3.4-6c0-2.5 .5-4.8 1.5-7c1.2-2.6 3.5-6 6.8-10.1l1.8 1.3c-2.1 2.5-3.5 4.5-4.3 6.1c-.9 1.6-1.2 3.2-1.2 4.7c0 2.1 .8 3.7 2.6 4.7c1.7 1.1 4.5 1.6 8.1 1.6c1.9 0 4.6-.4 8-1.1c3.3-.7 5-1.3 5-1.8c0-.2-.6-.4-1.9-.6c-1.3-.2-2.7-.3-4.3-.3c-2.2 0-3.4-.5-3.4-1.5c0-.5 .3-1.3 .8-2.5c.4-.8 .8-1.6 1.2-2.4c.7-1.7 2.1-3 4.2-4c2.1-1 4.3-1.5 6.5-1.5h19c0-1.8 0-3-.1-3.7c-.2-1.2-.5-2.2-1-3c-.6 1.2-1.5 2.2-2.5 2.8c-1.1 .7-2.3 1-3.5 1c-1.6 0-2.9-.5-4-1.5c-1.1-1.1-1.6-2.4-1.6-4c0-2.4 .7-5.1 2.1-8.4c1.6-3.5 3.2-5.3 4.8-5.3Zm510.6-1.5l5.4 3.1l-3.3 6.1l-4.2-2.4l-2.4 4.7l-5.6-3l3.1-5.8l4.5 2.2Zm85.2-2l2.8 18.6c.5 2.9 1.1 4.9 1.8 5.9c.5 .7 1.1 1.1 2 1.1h22.9c-2.4-2.5-4.6-4.3-6.6-5.4c-1.8-1-3.6-1.5-5.3-1.5c-.6 0-1 .1-1.5 .1c-.4 .1-1 .2-1.8 .4c1.1-2.6 2.3-4.4 3.6-5.6c1.4-1.2 2.9-1.8 4.6-1.8c1.3 0 2.6 .3 3.8 1c1.2 .6 2.6 1.6 4.1 3.1c1.2 1.1 2.9 2.8 5 5.2c1.5 1.6 2.7 2.7 3.5 3.2c.7 .5 1.9 .9 3.5 1.3v8.1h-35.8c-.8 0-1.4-.2-2-.5c-1.1-.6-2.1-1.6-2.9-3.1c-1.1-2.1-1.8-5-2.1-8.7c-1.4 1.7-2.4 2.9-3.2 3.6c-1.1 1-2 1.5-2.7 1.5c-.4 0-.9-.1-1.4-.2l-3.7-.7c-1.5-.3-2.5-.6-2.8-.7c-.4-.1-.6-.4-.6-.7c0-.6 .7-2.3 2.1-5.1c1.4-2.9 2.4-4.6 3-5.3c.5-.5 1.4-1.2 2.6-2.1c.8-.5 1.9-1.2 3.3-2l1.5-.9c0-.3-.1-.6-.1-.9c0-.3 0-.5 0-.8c0-.7 .1-1.7 .5-2.8c.3-1.2 1-2.6 1.9-4.3Zm-154.8 0l2.9 18.6c.4 2.9 1 4.9 1.8 5.9c.4 .7 1.1 1.1 1.9 1.1h17.5c-.2-1.4-.6-2.5-1.2-3.5c-.3-.5-1-1.4-2.1-2.6l2.4-7.1c1.5 1.6 2.5 3.4 3.1 5.3c.5 1.8 .8 4.6 .8 8.2v7.8h-20.5c-.7 0-1.3-.2-1.9-.5c-1.2-.6-2.2-1.6-3-3.1c-1-2.1-1.7-5-2-8.7c-1.4 1.7-2.4 2.9-3.2 3.6c-1.1 1-2 1.5-2.7 1.5c-.4 0-.9-.1-1.5-.2l-3.6-.7c-1.6-.3-2.5-.6-2.9-.7c-.3-.1-.5-.4-.5-.7c0-.6 .7-2.3 2.1-5.1c1.3-2.9 2.3-4.6 3-5.3c.5-.5 1.3-1.2 2.6-2.1c.8-.5 1.8-1.2 3.2-2l1.6-.9c-.1-.3-.1-.6-.1-.9c0-.3-.1-.5-.1-.8c0-.7 .2-1.7 .6-2.8c.3-1.2 .9-2.6 1.8-4.3Zm-300.1-.8v7.1c-.1 0-.9 .2-2.5 .8c-1.9 .6-3.5 1.1-4.6 1.6c-1.7 .7-2.6 1.2-2.6 1.5c0 .2 .8 1 2.2 2.4c1.9 1.8 3.5 3.5 4.8 5.1c2.2 2.6 4 5.1 5.3 7.7v8.3H854.5v.5c-.6 2.5-1.9 5-4.1 7.5c-2.9 3.4-5.8 5.1-8.6 5.1c-1.6 0-3.4-.6-5.4-1.6c-2-1.1-5-3.1-9-6.2l1.2-1.8c2.2 1.4 3.9 2.4 5.3 2.9c1.1 .4 2.4 .6 3.9 .6c1.9 0 3.8-.6 5.7-1.6c2.2-1.3 4.5-3.4 6.9-6.2c-.8 .2-1.5 .2-2.1 .2c-2 0-3.5-.6-4.7-1.9c-1.2-1.3-1.7-3-1.7-5.2c0-3 .7-5.9 2-8.7c1.5-3 3.2-4.5 5.1-4.5c1.6 0 3 1.1 4.1 3.3c1.1 2.2 1.6 4.8 1.6 7.8v1.7H872c-.8-1-1.6-1.8-2.3-2.5c-.6-.5-1.4-1.2-2.4-2c-1.2-.9-2.3-1.7-3.4-2.6l-.9 1c-1.8-1.7-2.9-2.8-3.2-3.1c-1-1.2-1.5-2.5-1.5-4c0-2 .1-3.4 .4-4.2c.4-1.1 1.3-2.2 2.6-3.1c1.1-.8 2.3-1.5 3.7-2.1c1-.5 2.4-1.2 4.1-1.8c.8-.4 2.4-1 5-2Zm389.2-.4l5.5 3l-3.1 5.8l-4.4-2.2l-2.5 4.8l-5.4-3l3.3-6.1l4.2 2.4ZM594 297.1l7 3.7l-3.6 6.6l-7-3.6Zm825.9-.5c1.1 1.6 1.9 3.2 2.4 4.7c.5 1.8 .8 4.1 .8 6.9v5.9c0 4.1 .3 7 .8 8.6c.5 1.3 1.2 2 2.1 2h8c1.8 0 3.2-.3 4.3-.7c1.3-.6 2.2-1.5 2.8-2.9c1.1-2.5 2.5-4.6 4.3-6.2c1.6-1.5 2.9-2.2 4-2.2c1 0 2.3 1.5 3.8 4.6c1.5 3.2 2.3 6.2 2.3 8.9v6.5c-2.1 0-4.5-.4-7.3-1.2c-2.5-.7-4.7-1.5-6.6-2.5c-1.1 1.7-2.6 2.8-4.3 3.4c-.8 .2-1.9 .4-3.3 .4h-8c-2.3 0-4-1-5-2.9c-1.2-2.1-1.8-5.6-1.8-10.6v-8.5c0-2-.2-3.5-.7-4.5c-.3-.5-.9-1.3-1.8-2.3Zm-128.8 0l1.8 10.5c.6 4 1.1 7.5 1.3 10.5c.2 2.2 .3 4.4 .3 6.5c0 1.8-.2 3.4-.6 4.8c-.4 1.5-1.2 3.5-2.4 5.9l-1.8-.7c.5-2.5 .7-4.6 .7-6.2c0-1.2-.1-3-.3-5.3c-.2-2.4-.4-4.7-.7-7c-.3-2.3-.8-5-1.5-8.2c-.2-1.1-.3-1.9-.3-2.3c0-.6 .3-1.7 .9-3.1c.6-1.5 1.5-3.3 2.6-5.4Zm-274.6 0c1.2 1.6 2 3.2 2.5 4.7c.5 1.8 .8 4.1 .8 6.9v5.9c0 4.1 .2 7 .8 8.6c.4 1.3 1.1 2 2.1 2H1046c-2.5-2.5-4.7-4.3-6.7-5.4c-1.8-1-3.6-1.5-5.3-1.5c-.5 0-1 .1-1.4 .1c-.5 .1-1.1 .2-1.9 .4c1.1-2.6 2.3-4.4 3.7-5.6c1.3-1.2 2.8-1.8 4.5-1.8c1.3 0 2.6 .3 3.8 1c1.2 .6 2.6 1.6 4.1 3.1c1.2 1.1 2.9 2.8 5.1 5.2c1.5 1.6 2.6 2.7 3.4 3.2c.8 .5 1.9 .9 3.5 1.3v8.1h-36.1c-2.3 0-4-1-5-2.9c-1.2-2.1-1.8-5.6-1.8-10.6v-8.5c0-2-.2-3.5-.8-4.5c-.2-.5-.8-1.3-1.8-2.3Zm-66.4 0l1.8 10.5c.6 4 1.1 7.5 1.3 10.5c.2 2.2 .3 4.4 .3 6.5c0 1.8-.2 3.4-.6 4.8c-.4 1.5-1.2 3.5-2.4 5.9l-1.8-.7c.5-2.5 .7-4.6 .7-6.2c0-1.2-.1-3-.3-5.3c-.2-2.4-.4-4.7-.7-7c-.3-2.3-.8-5-1.5-8.2c-.2-1.1-.3-1.9-.3-2.3c0-.6 .3-1.7 .9-3.1c.6-1.5 1.5-3.3 2.6-5.4Zm-284.9 0l1.8 10.5c.6 4 1.1 7.5 1.3 10.5c.2 2.2 .3 4.4 .3 6.5c0 1.8-.2 3.4-.6 4.8c-.4 1.5-1.2 3.5-2.4 5.9l-1.8-.7c.5-2.5 .7-4.6 .7-6.2c0-1.2-.1-3-.3-5.3c-.2-2.4-.4-4.7-.7-7c-.3-2.3-.8-5-1.5-8.2c-.2-1.1-.3-1.9-.3-2.3c0-.6 .3-1.7 .9-3.1c.6-1.5 1.5-3.3 2.6-5.4Zm572.7-2.3l5.5 2.8l-3 6.2l-5.6-3Zm39.4-.1l1.4 .7c0 .2-.1 .5-.1 1c0 .7 .4 1.3 1.2 1.9c.7 .6 1.9 1.2 3.5 1.9c-.2 1.2-.4 2.5-.8 3.7c-.3 1.2-.7 2.3-1.2 3.2l-1-.4l3.2 18.5v8.1h-32.9v-.1h-1c-.9-.1-1.8-.2-2.5-.4c-1.5-.3-2.9-.8-4.4-1.5c-1.1 .8-2.1 1.3-3 1.6c-.9 .2-2.3 .4-4.1 .4h-4.9c-1.3 0-2.4-.4-3.1-1.1c-.8-.7-1.5-1.8-2.1-3.4c-1.1 1.6-2.3 2.8-3.7 3.5c-1.1 .7-2.5 1-4.1 1h-6.4c-2.3 0-4-1-5-2.9c-1.2-2.1-1.7-5.6-1.7-10.6v-8.5c0-2-.3-3.5-.8-4.5c-.3-.5-.9-1.3-1.8-2.3l3.2-7.4c1.1 1.6 2 3.2 2.4 4.7c.6 1.8 .8 4.1 .8 6.9v5.9c0 4.1 .3 7 .9 8.6c.4 1.3 1.1 2 2 2h6.4c2.1 0 3.8-.6 5.2-1.8c1.8-1.5 2.7-3.9 2.7-7l2 .3c-.1 .7-.1 1.4-.2 2.2c0 .8 0 1.7 0 2.7c0 1 .3 1.9 1 2.5c.7 .7 1.5 1.1 2.4 1.1h3.7c2.4 0 4.1-.4 5.2-1.1c1.2-.8 1.8-2.3 1.8-4.5c0-.5 .2-.9 .5-1.3c.2-.2 .5-.5 1.1-1l1.1-.9c.1 .4 .1 .9 .1 1.6c0 .6 .1 1 .1 1.2c0 1.1-.2 2.6-.5 4.4c.7 .3 1.5 .7 2.4 .9c1 .3 1.9 .5 2.9 .6c0-.7-.2-1.6-.7-2.6c-.5-1.1-.7-1.8-.7-2.2c0-.5 0-.9 .2-1.2c0-.1 .2-.4 .6-.9l2.6-3.4c.5 1.2 .9 2.3 1.1 3.4c.2 1 .3 2.3 .3 3.8v3.2h13.7c-.2-1.4-.6-2.5-1.2-3.5c-.3-.5-1-1.4-2.1-2.6l2.4-7.1c1.5 1.6 2.5 3.4 3.1 5.3c.5 1.6 .7 3.9 .8 6.9v1h10.6l-3.6-20.3l-1.9-1.2c0-1.2 .2-2.4 .6-3.6c.4-1.5 1.2-3.3 2.3-5.4Zm-271 0l1.4 .7c0 .2 0 .5-.1 1c0 .7 .4 1.3 1.2 1.9c.8 .6 1.9 1.2 3.6 1.9c-.2 1.2-.5 2.5-.8 3.7c-.4 1.2-.8 2.3-1.2 3.2l-1.1-.4l3.3 18.5v8.1H994.4c-.7 0-1.4-.2-2-.5c-1.1-.6-2.1-1.6-2.9-3.1c-1.1-2.1-1.8-5-2.1-8.7c-1.3 1.7-2.4 2.9-3.2 3.6c-1 1-2 1.5-2.7 1.5c-.4 0-.8-.1-1.4-.2l-3.7-.7c-1.5-.3-2.5-.6-2.8-.7c-.4-.1-.6-.4-.6-.7c0-.6 .7-2.3 2.1-5.1c1.4-2.9 2.4-4.6 3-5.3c.5-.5 1.4-1.2 2.7-2.1c.7-.5 1.8-1.2 3.2-2l1.6-.9c-.1-.3-.1-.6-.2-.9c0-.3 0-.5 0-.8c0-.7 .2-1.7 .5-2.8c.4-1.2 1-2.6 1.9-4.3l2.8 18.6c.5 2.9 1.1 4.9 1.8 5.9c.5 .7 1.1 1.1 2 1.1H1009l-3.6-20.3l-1.9-1.2c0-1.2 .1-2.4 .5-3.6c.5-1.5 1.2-3.3 2.3-5.4Zm-70 0l1.4 .7c0 .2-.1 .5-.1 1c0 .7 .4 1.3 1.2 1.9c.7 .6 1.9 1.2 3.5 1.9c-.2 1.2-.4 2.5-.8 3.7c-.3 1.2-.7 2.3-1.2 3.2l-1-.4l3.2 18.5v8.1H926.1v-.1h-1c-.9-.1-1.8-.2-2.5-.4c-1.5-.3-2.9-.8-4.4-1.5c-1.1 .8-2.1 1.3-3 1.6c-.9 .2-2.3 .4-4.1 .4h-4.9c-1.3 0-2.4-.4-3.1-1.1c-.8-.7-1.5-1.8-2.1-3.4c-1.1 1.6-2.3 2.8-3.7 3.5c-1.1 .7-2.5 1-4.1 1h-6.4c-2.3 0-4-1-5-2.9c-1.2-2.1-1.7-5.6-1.7-10.6v-8.5c0-2-.3-3.5-.8-4.5c-.3-.5-.9-1.3-1.8-2.3l3.2-7.4c1.1 1.6 2 3.2 2.4 4.7c.6 1.8 .8 4.1 .8 6.9v5.9c0 4.1 .3 7 .9 8.6c.4 1.3 1.1 2 2 2h6.4c2.1 0 3.8-.6 5.2-1.8c1.8-1.5 2.7-3.9 2.7-7l2 .3c-.1 .7-.1 1.4-.2 2.2c0 .8 0 1.7 0 2.7c0 1 .3 1.9 1 2.5c.7 .7 1.5 1.1 2.4 1.1H910c2.4 0 4.1-.4 5.2-1.1c1.2-.8 1.8-2.3 1.8-4.5c0-.5 .2-.9 .5-1.3c.2-.2 .5-.5 1.1-1l1.1-.9c.1 .4 .1 .9 .1 1.6c0 .6 .1 1 .1 1.2c0 1.1-.2 2.6-.5 4.4c.7 .3 1.5 .7 2.4 .9c1 .3 1.9 .5 2.9 .6c0-.7-.2-1.6-.7-2.6c-.5-1.1-.7-1.8-.7-2.2c0-.5 0-.9 .2-1.2c0-.1 .2-.4 .6-.9l2.6-3.4c.5 1.2 .9 2.3 1.1 3.4c.2 1 .3 2.3 .3 3.8v3.2h10.8l-3.6-20.3l-1.9-1.2c0-1.2 .2-2.4 .6-3.6c.4-1.5 1.2-3.3 2.3-5.4Zm-284.9 0l1.4 .7c0 .2-.1 .5-.1 1c0 .7 .4 1.3 1.2 1.9c.7 .6 1.9 1.2 3.5 1.9c-.2 1.2-.4 2.5-.8 3.7c-.3 1.2-.7 2.3-1.2 3.2l-1-.4l3.2 18.5v8.1H643.1v.5c-.6 2.5-1.9 5-4.1 7.5c-2.9 3.4-5.8 5.1-8.6 5.1c-1.6 0-3.4-.6-5.4-1.6c-1.9-1.1-5-3.1-9-6.2l1.3-1.8c2.1 1.4 3.8 2.4 5.2 2.9c1.2 .4 2.4 .6 3.9 .6c1.9 0 3.8-.6 5.7-1.6c2.2-1.3 4.5-3.4 6.9-6.2c-.8 .2-1.5 .2-2.1 .2c-1.9 0-3.5-.6-4.7-1.9c-1.1-1.3-1.7-3-1.7-5.2c0-3 .7-5.9 2-8.7c1.5-3 3.2-4.5 5.1-4.5c1.6 0 3 1.1 4.1 3.3c1.1 2.2 1.7 4.8 1.7 7.8v1.7H654l-3.6-20.3l-1.9-1.2c0-1.2 .2-2.4 .6-3.6c.4-1.5 1.2-3.3 2.3-5.4Zm79.2-4.6l6.9 3.7l-3.6 6.7l-6.9-3.6Zm255.5-1.4l5.3 2.8l-3.3 5.5l-4.2-2.4l-2.4 4.7l-5.5-3l3.1-5.2l4.4 2.2Z" class="g1_2"/>
<path fill-rule="evenodd" d="M504.7 297.1h5.7c3 4.2 5.3 8.8 7 13.6c1.6 4.7 2.5 9.6 2.5 14.5c0 4.2-.7 8.6-2 13.4c-1.5 5.3-3.9 10.6-7.4 15.8h-5.7c1.6-3.6 2.8-6.3 3.4-8.2c.7-1.9 1.3-4.1 1.9-6.5c.6-2.5 1-4.8 1.3-7c.3-2.2 .4-4.5 .4-6.8c0-4.8-.5-9.3-1.5-13.5c-1-4.2-2.9-9.3-5.6-15.3Z" class="g0_2"/>
<path d="M504.7 297.1h5.7c3 4.2 5.3 8.8 7 13.6c1.6 4.7 2.5 9.6 2.5 14.5c0 4.2-.7 8.6-2 13.4c-1.5 5.3-3.9 10.6-7.4 15.8h-5.7c1.6-3.6 2.8-6.3 3.4-8.2c.7-1.9 1.3-4.1 1.9-6.5c.6-2.5 1-4.8 1.3-7c.3-2.2 .4-4.5 .4-6.8c0-4.8-.5-9.3-1.5-13.5c-1-4.2-2.9-9.3-5.6-15.3Z" class="g1_2"/>
<path fill-rule="evenodd" d="M477.3 313.5c1.4 2.4 2.4 4.4 2.8 5.9c.4 1.4 .6 3.1 .6 5.3h2.8c3 0 5.1-.4 6.2-1.1c1.2-.7 1.8-2 1.8-3.8c0-.8 .1-1.4 .2-1.7c.2-.4 .6-.8 1.1-1.2l1.4-1c0 .4 .1 .9 .1 1.6c0 .6 0 1 0 1.2c0 1.1-.1 2.6-.5 4.4c1 .3 1.9 .6 2.8 .8c.9 .2 1.8 .4 2.6 .6c0-.8-.2-1.6-.7-2.7c-.5-1-.8-1.7-.8-2c0-.2 0-.5 .1-.7c.1-.2 .3-.5 .5-.8l2.8-4c.6 1.2 .9 2.3 1.2 3.4c.2 1 .3 2.3 .3 3.8v11.2c-2.2 0-3.7-.1-4.7-.3c-.9-.2-2.6-.7-5.2-1.6c-1.1 .8-2.2 1.3-3.1 1.6c-.9 .2-2.2 .4-4 .4h-4.9c0 4.6-1.5 7.9-4.4 9.9c-2.6 1.8-6.4 2.7-11.6 2.7c-4.8 0-8.6-.9-11.2-2.7c-2.6-1.7-3.9-4.2-3.9-7.5c0-2.7 .4-5.2 1.3-7.5c.9-2.5 2.7-5.8 5.3-9.9l1.8 1.3c-2 3.4-3.2 5.8-3.9 7.3c-.5 1.5-.9 3.1-.9 4.7c0 2.1 1.2 3.8 3.4 5.1c2.2 1.3 5.2 2 8.8 2c3.6 0 6.6-.7 9-2.1c2.5-1.4 3.7-3 3.7-5c0-1.3-.2-2.5-.6-3.7c-.5-1.2-1.4-3.1-2.8-5.8Z" class="g0_2"/>
<path d="M477.3 313.5c1.4 2.4 2.4 4.4 2.8 5.9c.4 1.4 .6 3.1 .6 5.3h2.8c3 0 5.1-.4 6.2-1.1c1.2-.7 1.8-2 1.8-3.8c0-.8 .1-1.4 .2-1.7c.2-.4 .6-.8 1.1-1.2l1.4-1c0 .4 .1 .9 .1 1.6c0 .6 0 1 0 1.2c0 1.1-.1 2.6-.5 4.4c1 .3 1.9 .6 2.8 .8c.9 .2 1.8 .4 2.6 .6c0-.8-.2-1.6-.7-2.7c-.5-1-.8-1.7-.8-2c0-.2 0-.5 .1-.7c.1-.2 .3-.5 .5-.8l2.8-4c.6 1.2 .9 2.3 1.2 3.4c.2 1 .3 2.3 .3 3.8v11.2c-2.2 0-3.7-.1-4.7-.3c-.9-.2-2.6-.7-5.2-1.6c-1.1 .8-2.2 1.3-3.1 1.6c-.9 .2-2.2 .4-4 .4h-4.9c0 4.6-1.5 7.9-4.4 9.9c-2.6 1.8-6.4 2.7-11.6 2.7c-4.8 0-8.6-.9-11.2-2.7c-2.6-1.7-3.9-4.2-3.9-7.5c0-2.7 .4-5.2 1.3-7.5c.9-2.5 2.7-5.8 5.3-9.9l1.8 1.3c-2 3.4-3.2 5.8-3.9 7.3c-.5 1.5-.9 3.1-.9 4.7c0 2.1 1.2 3.8 3.4 5.1c2.2 1.3 5.2 2 8.8 2c3.6 0 6.6-.7 9-2.1c2.5-1.4 3.7-3 3.7-5c0-1.3-.2-2.5-.6-3.7c-.5-1.2-1.4-3.1-2.8-5.8Z" class="g1_2"/>
<path fill-rule="evenodd" d="M440 297.1h5.7c-2.7 6-4.6 11.1-5.6 15.3c-1 4.2-1.5 8.7-1.5 13.5c0 3.2 .3 6.6 .9 10c.6 3.4 1.4 6.6 2.5 9.7c.7 2 1.9 5 3.6 8.8h-5.7c-3.1-4.6-5.4-9.4-7-14.3c-1.6-5-2.4-9.8-2.4-14.4c0-5.8 1-11.2 3-16.3c1.7-4.5 3.9-8.6 6.5-12.3Z" class="g0_2"/>
<path d="M440 297.1h5.7c-2.7 6-4.6 11.1-5.6 15.3c-1 4.2-1.5 8.7-1.5 13.5c0 3.2 .3 6.6 .9 10c.6 3.4 1.4 6.6 2.5 9.7c.7 2 1.9 5 3.6 8.8h-5.7c-3.1-4.6-5.4-9.4-7-14.3c-1.6-5-2.4-9.8-2.4-14.4c0-5.8 1-11.2 3-16.3c1.7-4.5 3.9-8.6 6.5-12.3Z" class="g1_2"/>
<path fill-rule="evenodd" d="M403.2 319.9c-.6 0-1.1 .2-1.5 .7c-.4 .5-.5 1-.5 1.6c0 .7 .3 1.3 1.1 1.8c.8 .4 1.9 .7 3.2 .7h1.1c-.6-3.2-1.7-4.8-3.4-4.8Zm1.2-8c1.6 0 3 1.1 4.1 3.3c1.1 2.2 1.7 4.8 1.7 7.8v7.7c0 3.4-1.5 6.8-4.4 10.1c-2.9 3.4-5.8 5.1-8.6 5.1c-1.6 0-3.4-.6-5.4-1.6c-1.9-1.1-5-3.1-9-6.2l1.3-1.8c2.1 1.4 3.8 2.4 5.2 2.9c1.2 .4 2.4 .6 3.9 .6c1.9 0 3.8-.6 5.7-1.6c2.2-1.3 4.5-3.4 6.9-6.2c-.8 .2-1.5 .2-2.1 .2c-1.9 0-3.5-.6-4.7-1.9c-1.1-1.3-1.7-3-1.7-5.2c0-3 .7-5.9 2-8.7c1.5-3 3.2-4.5 5.1-4.5Z" class="g0_2"/>
<path d="M403.2 319.9c-.6 0-1.1 .2-1.5 .7c-.4 .5-.5 1-.5 1.6c0 .7 .3 1.3 1.1 1.8c.8 .4 1.9 .7 3.2 .7h1.1c-.6-3.2-1.7-4.8-3.4-4.8Zm1.2-8c1.6 0 3 1.1 4.1 3.3c1.1 2.2 1.7 4.8 1.7 7.8v7.7c0 3.4-1.5 6.8-4.4 10.1c-2.9 3.4-5.8 5.1-8.6 5.1c-1.6 0-3.4-.6-5.4-1.6c-1.9-1.1-5-3.1-9-6.2l1.3-1.8c2.1 1.4 3.8 2.4 5.2 2.9c1.2 .4 2.4 .6 3.9 .6c1.9 0 3.8-.6 5.7-1.6c2.2-1.3 4.5-3.4 6.9-6.2c-.8 .2-1.5 .2-2.1 .2c-1.9 0-3.5-.6-4.7-1.9c-1.1-1.3-1.7-3-1.7-5.2c0-3 .7-5.9 2-8.7c1.5-3 3.2-4.5 5.1-4.5Z" class="g1_2"/>
<path fill-rule="evenodd" d="M347.2 297.1h5.7c3 4.2 5.3 8.8 7 13.6c1.7 4.7 2.5 9.6 2.5 14.5c0 4.2-.7 8.6-2 13.4c-1.5 5.3-3.9 10.6-7.3 15.8h-5.8c1.6-3.6 2.8-6.3 3.5-8.2c.6-1.9 1.3-4.1 1.8-6.5c.6-2.5 1-4.8 1.3-7c.3-2.2 .4-4.5 .4-6.8c0-4.8-.5-9.3-1.5-13.5c-1-4.2-2.9-9.3-5.6-15.3Z" class="g0_2"/>
<path d="M347.2 297.1h5.7c3 4.2 5.3 8.8 7 13.6c1.7 4.7 2.5 9.6 2.5 14.5c0 4.2-.7 8.6-2 13.4c-1.5 5.3-3.9 10.6-7.3 15.8h-5.8c1.6-3.6 2.8-6.3 3.5-8.2c.6-1.9 1.3-4.1 1.8-6.5c.6-2.5 1-4.8 1.3-7c.3-2.2 .4-4.5 .4-6.8c0-4.8-.5-9.3-1.5-13.5c-1-4.2-2.9-9.3-5.6-15.3Z" class="g1_2"/>
<path fill-rule="evenodd" d="M335 318.8c-1.3 0-2.8 .4-4.5 1.2c-1.6 .9-4 2.4-7.1 4.7h7.8c6.7 0 10-1.1 10-3.1c0-.7-.6-1.4-1.8-2c-1.2-.6-2.7-.8-4.4-.8Zm2.7-8.1c2.3 0 4 .8 5.3 2.4c1.5 1.8 2.2 4.6 2.2 8.3v11.4H313.3c0 4.6-1.5 7.9-4.4 10c-2.5 1.7-6.4 2.6-11.6 2.6c-4.8 0-8.5-.9-11.2-2.7c-2.6-1.7-3.9-4.2-3.9-7.5c0-2.7 .4-5.2 1.3-7.5c.9-2.5 2.7-5.8 5.3-9.9l1.8 1.3c-1.9 3.4-3.2 5.8-3.8 7.3c-.6 1.5-.9 3.1-.9 4.7c0 2.1 1.1 3.8 3.3 5.1c2.3 1.3 5.2 2 8.8 2c3.6 0 6.6-.7 9.1-2.1c2.4-1.4 3.6-3 3.6-5c0-1.3-.2-2.5-.6-3.7c-.5-1.2-1.4-3.1-2.8-5.8l2.6-8.1c1.1 2.2 1.8 3.4 1.9 3.7c.6 1.2 1 2.3 1.2 3.4c.2 1 .3 2.4 .3 4.1c1.3 0 2.5-.4 3.6-1c.1-.1 1.1-.8 2.9-2.1l10.7-7.6c1.7-1.2 2.9-2 3.7-2.4c1.2-.6 2.4-.9 3.5-.9Z" class="g0_2"/>
<path d="M335 318.8c-1.3 0-2.8 .4-4.5 1.2c-1.6 .9-4 2.4-7.1 4.7h7.8c6.7 0 10-1.1 10-3.1c0-.7-.6-1.4-1.8-2c-1.2-.6-2.7-.8-4.4-.8Zm2.7-8.1c2.3 0 4 .8 5.3 2.4c1.5 1.8 2.2 4.6 2.2 8.3v11.4H313.3c0 4.6-1.5 7.9-4.4 10c-2.5 1.7-6.4 2.6-11.6 2.6c-4.8 0-8.5-.9-11.2-2.7c-2.6-1.7-3.9-4.2-3.9-7.5c0-2.7 .4-5.2 1.3-7.5c.9-2.5 2.7-5.8 5.3-9.9l1.8 1.3c-1.9 3.4-3.2 5.8-3.8 7.3c-.6 1.5-.9 3.1-.9 4.7c0 2.1 1.1 3.8 3.3 5.1c2.3 1.3 5.2 2 8.8 2c3.6 0 6.6-.7 9.1-2.1c2.4-1.4 3.6-3 3.6-5c0-1.3-.2-2.5-.6-3.7c-.5-1.2-1.4-3.1-2.8-5.8l2.6-8.1c1.1 2.2 1.8 3.4 1.9 3.7c.6 1.2 1 2.3 1.2 3.4c.2 1 .3 2.4 .3 4.1c1.3 0 2.5-.4 3.6-1c.1-.1 1.1-.8 2.9-2.1l10.7-7.6c1.7-1.2 2.9-2 3.7-2.4c1.2-.6 2.4-.9 3.5-.9Z" class="g1_2"/>
<path fill-rule="evenodd" d="M272.6 297.1h5.7c-2.7 6-4.6 11.1-5.6 15.3c-1 4.2-1.5 8.7-1.5 13.5c0 3.2 .3 6.6 .9 10c.6 3.4 1.4 6.6 2.5 9.7c.7 2 1.9 5 3.6 8.8h-5.7c-3.1-4.6-5.4-9.4-7-14.3c-1.5-5-2.3-9.8-2.3-14.4c0-5.8 .9-11.2 2.9-16.3c1.7-4.5 3.9-8.6 6.5-12.3Z" class="g0_2"/>
<path d="M272.6 297.1h5.7c-2.7 6-4.6 11.1-5.6 15.3c-1 4.2-1.5 8.7-1.5 13.5c0 3.2 .3 6.6 .9 10c.6 3.4 1.4 6.6 2.5 9.7c.7 2 1.9 5 3.6 8.8h-5.7c-3.1-4.6-5.4-9.4-7-14.3c-1.5-5-2.3-9.8-2.3-14.4c0-5.8 .9-11.2 2.9-16.3c1.7-4.5 3.9-8.6 6.5-12.3Z" class="g1_2"/>
<path fill-rule="evenodd" d="M249 325.7c1.1 0 1.9 .4 2.6 1.1c.7 .8 1 1.7 1 2.7c0 1-.3 1.8-1.1 2.6c-.7 .7-1.6 1.1-2.6 1.1c-1 0-1.8-.4-2.5-1.1c-.7-.8-1.1-1.6-1.1-2.6c0-1.1 .4-1.9 1.1-2.7c.7-.7 1.6-1.1 2.6-1.1Zm.5-27.6c2.4 0 4.4 .7 6.1 2c1.6 1.4 2.5 3.2 2.5 5.4c0 1.2-.4 2.3-1.1 3.2c-.8 1.1-1.9 1.6-3.1 1.6c-1 0-1.9-.3-2.5-1c-.7-.6-1-1.4-1-2.3c0-1.3 .6-2.3 1.6-3c1.1-.7 1.7-1.3 1.7-1.7c0-.7-.3-1.2-1-1.6c-.6-.4-1.4-.7-2.5-.7c-1.3 0-2.3 .4-3.2 1.1c-.8 .8-1.2 1.6-1.2 2.7c0 1 .4 2.2 1.3 3.7c1.2 2.3 2 3.8 2.3 4.5c.8 2.1 1.2 4.3 1.2 6.8c0 1.3-.1 2.8-.3 4.4l-1.8-.1c0-.3 0-.6 .1-.8l.1-1.5c0-1.2-.7-2.4-2.2-3.7c-2.5-2.2-3.9-3.5-4.1-3.7c-1.5-1.8-2.2-3.8-2.2-6c0-2.7 .8-4.9 2.6-6.7c1.8-1.7 4-2.6 6.7-2.6Z" class="g0_2"/>
<path d="M249 325.7c1.1 0 1.9 .4 2.6 1.1c.7 .8 1 1.7 1 2.7c0 1-.3 1.8-1.1 2.6c-.7 .7-1.6 1.1-2.6 1.1c-1 0-1.8-.4-2.5-1.1c-.7-.8-1.1-1.6-1.1-2.6c0-1.1 .4-1.9 1.1-2.7c.7-.7 1.6-1.1 2.6-1.1Zm.5-27.6c2.4 0 4.4 .7 6.1 2c1.6 1.4 2.5 3.2 2.5 5.4c0 1.2-.4 2.3-1.1 3.2c-.8 1.1-1.9 1.6-3.1 1.6c-1 0-1.9-.3-2.5-1c-.7-.6-1-1.4-1-2.3c0-1.3 .6-2.3 1.6-3c1.1-.7 1.7-1.3 1.7-1.7c0-.7-.3-1.2-1-1.6c-.6-.4-1.4-.7-2.5-.7c-1.3 0-2.3 .4-3.2 1.1c-.8 .8-1.2 1.6-1.2 2.7c0 1 .4 2.2 1.3 3.7c1.2 2.3 2 3.8 2.3 4.5c.8 2.1 1.2 4.3 1.2 6.8c0 1.3-.1 2.8-.3 4.4l-1.8-.1c0-.3 0-.6 .1-.8l.1-1.5c0-1.2-.7-2.4-2.2-3.7c-2.5-2.2-3.9-3.5-4.1-3.7c-1.5-1.8-2.2-3.8-2.2-6c0-2.7 .8-4.9 2.6-6.7c1.8-1.7 4-2.6 6.7-2.6Z" class="g1_2"/>
<image clip-path="url(#c1_2)" preserveAspectRatio="none" x="1344" y="457" width="108" height="72" href="img/2.jpg"/>
<image clip-path="url(#c2_2)" preserveAspectRatio="none" x="1347" y="550" width="102" height="71" href="img/3.jpg"/>
<image clip-path="url(#c3_2)" preserveAspectRatio="none" x="1347" y="642" width="102" height="74" href="img/4.jpg"/>
<image clip-path="url(#c4_2)" preserveAspectRatio="none" x="1353" y="745" width="96" height="80" href="img/5.jpg"/>
<image clip-path="url(#c5_2)" preserveAspectRatio="none" x="19" y="448" width="773" height="231" href="img/6.jpg"/>
</svg>