<svg viewBox="0 0 909 1286" version="1.1" xmlns="http://www.w3.org/2000/svg">
<defs>
<style>
.g0_2{fill:none;stroke:#000;stroke-width:1.527;stroke-linecap:round;stroke-miterlimit:10;}
.g1_2{fill:none;stroke:#000;stroke-width:1.527;stroke-linejoin:round;}
.g2_2{fill:#000;}
</style>
</defs>
<path d="M41.2 1233.6H864V34H41.2V1233.6Z" class="g0_2"/>
<path d="M40.2 66.7H863" class="g1_2"/>
<path fill-rule="evenodd" d="M753.5 102.9h96.2v-2.2H753.5v2.2Z" class="g2_2"/>
<path fill-rule="evenodd" d="M279.4 144.1H603.8v-2.2H279.4v2.2Z" class="g2_2"/>
<path fill-rule="evenodd" d="M707.8 185.4h87.1v-2.2H707.8v2.2Z" class="g2_2"/>
<path fill-rule="evenodd" d="M735 267.9h59.9v-2.2H735v2.2Z" class="g2_2"/>
<path fill-rule="evenodd" d="M326.4 515.4H584.2v-2.2H326.4v2.2Z" class="g2_2"/>
<path fill-rule="evenodd" d="M743.8 598H796v-2.2H743.8V598Z" class="g2_2"/>
<path fill-rule="evenodd" d="M328.4 763H628.9v-2.2H328.4V763Z" class="g2_2"/>
<path fill-rule="evenodd" d="M735 804.2h59.9V802H735v2.2Z" class="g2_2"/>
<path fill-rule="evenodd" d="M403.2 845.5h62.4v-2.2H403.2v2.2Z" class="g2_2"/>
<path fill-rule="evenodd" d="M658.6 886.8h61.7v-2.2H658.6v2.2Z" class="g2_2"/>
<path fill-rule="evenodd" d="M361.2 928h31.9v-2.2H361.2V928Z" class="g2_2"/>
<path fill-rule="evenodd" d="M267.1 969.3h45.7v-2.2H267.1v2.2Z" class="g2_2"/>
<path fill-rule="evenodd" d="M633.9 1051.8H766.3v-2.2H633.9v2.2Z" class="g2_2"/>
<path fill-rule="evenodd" d="M730.2 1095.4h65.6v-2.2H730.2v2.2Z" class="g2_2"/>
</svg>