<svg viewBox="0 0 1466 825" version="1.1" xmlns="http://www.w3.org/2000/svg">
<defs>
<clipPath id="c0_73"><path d="M-.2 825.3V-.2H1467V825.3Z"/></clipPath>
<clipPath id="c1_73"><path d="M1343.9 529.1V456.4H1452v72.7Z"/></clipPath>
<clipPath id="c2_73"><path d="M1346.3 621.3V549.7h102.9v71.6Z"/></clipPath>
<clipPath id="c3_73"><path d="M1346.4 716.6V641.9h103v74.7Z"/></clipPath>
<clipPath id="c4_73"><path d="M1353 825V744.6h96.2V825Z"/></clipPath>
<clipPath id="c5_73"><path d="M9.9 825V438H832.8V825Z"/></clipPath>
<style>
.g0_73{fill:#F00;}
.g1_73{fill:none;stroke:#000;stroke-width:1.466;stroke-linejoin:round;}
</style>
</defs>
<image clip-path="url(#c0_73)" preserveAspectRatio="none" x="0" y="-7" width="1467" height="840" href="img/1.jpg"/>
<path fill-rule="evenodd" d="M1422.2 353.4l5.1 2.6l-2.4 4.5l-5.1-2.6l-2.4 4.4l-5-2.7l2.4-4.5l5 2.5ZM346.1 342.3l7.6 4.1l-3.9 7.4l-7.7-4Zm759.5-.3l6.1 3.4l-3.4 6.3l-4.9-2.4l-2.7 5.3l-6-3.3l3.6-6.7l4.6 2.6Zm-74.3 0l6.1 3.4l-3.4 6.3l-4.8-2.4l-2.8 5.3l-6-3.3l3.6-6.7l4.7 2.6Zm-156.9 0l6.1 3.4l-3.4 6.3l-4.9-2.4l-2.7 5.3l-6-3.3l3.6-6.7l4.7 2.6Zm-277.2 0l6.1 3.4l-3.4 6.3l-4.9-2.4l-2.7 5.3l-6-3.3l3.6-6.7l4.7 2.6Zm-122.7 0l6.2 3.4l-3.5 6.3l-4.8-2.4l-2.8 5.3l-6-3.3l3.7-6.7l4.6 2.6Zm366.8-1.9c.3 2 1.3 3.6 3 5.1c1.7 1.4 3.4 2.1 5.4 2.1c.6 0 1-.2 1-.7c0-1.2-.7-2.4-2.1-3.5c-1.7-1.3-4.2-2.3-7.3-3ZM528.1 325.4c-.7 0-1.2 .2-1.6 .8c-.4 .5-.6 1.1-.6 1.7c0 .8 .4 1.5 1.3 2c.8 .5 2 .7 3.4 .7h1.3c-.6-3.5-1.9-5.2-3.8-5.2Zm47.2-.2c-.8 0-1.5 1-2.1 2.9c1.1 .4 2 .8 2.6 1c1.7 .7 2.7 1 3 1c.4 0 .7-.2 .7-.5c0-.5-.5-1.3-1.4-2.5c-1.1-1.3-2-1.9-2.8-1.9Zm117.5-1.1c-1.5 0-3.1 .5-4.9 1.4c-1.8 1-4.5 2.7-7.9 5.1h8.6c7.2 0 10.8-1.1 10.8-3.3c0-.8-.8-1.5-2.4-2.2c-1.6-.6-3-1-4.2-1Zm154.6-2.9c-.6 0-1.3 .6-2 1.9c-.8 1.2-1.7 3.2-2.8 5.8c2.6-.9 4.3-1.6 5.3-2.2c.9-.7 1.4-1.4 1.4-2.1c0-.6-.2-1.3-.6-2.1c-.4-.9-.9-1.3-1.3-1.3Zm490.8-1.2c-.4 0-.8 .1-1.1 .4c-.3 .3-.5 .6-.5 1c0 1 .7 1.9 2.1 2.8c1.4 .9 3.1 1.4 5.1 1.8c-.8-1.9-1.7-3.4-2.7-4.4c-.9-1.1-1.9-1.6-2.9-1.6Zm-790.5 0c-.4 0-.8 .1-1.1 .4c-.4 .3-.5 .6-.5 1c0 1 .7 1.9 2.1 2.8c1.4 .9 3.1 1.4 5 1.8c-.8-1.9-1.6-3.4-2.6-4.4c-1-1.1-1.9-1.6-2.9-1.6Zm884.2-1.8c1.3 0 2.3 .4 3 1.4c.8 1 1.1 2.3 1.1 4c0 1.2-.1 2.2-.3 3c-.3 .8-.8 1.8-1.6 3.1c-.6-1.6-1.1-2.6-1.5-3c-.4-.5-.9-.7-1.7-.7c-1.2 0-2.8 .6-4.9 2c-2.1 1.3-3.1 2.4-3.1 3.4c0 .4 .4 .8 1.2 1c.6 .1 1.5 .2 2.8 .2c.3 0 .7 0 1 0c.3 0 .6 0 .9 0c2.4 0 4 .2 4.8 .7c.7 .4 1 1.2 1 2.4c0 2.4-.4 4.6-1.3 6.8c-1.1 2.7-2.7 4.7-4.8 5.8c-2.6 1.5-5.3 2.7-8.1 3.6c-2.8 .9-5.4 1.4-7.9 1.4c-6.8 0-10.2-3.1-10.2-9.2c0-3.1 .4-5.8 1.2-8c.8-2.5 2.6-5.9 5.4-10.1l1.5 .9c-1.6 2.8-2.8 5.2-3.6 7.3c-.8 2.2-1.3 4-1.3 5.6c0 4.2 2.4 6.3 7 6.3c1.8 0 3.5-.2 5-.5c1.6-.3 3.2-.8 4.8-1.4c1.1-.3 2.3-.8 3.7-1.4c2.1-1 3.3-1.5 3.4-1.5c1-.6 1.5-1 1.5-1.5c0-.2-.5-.3-1.6-.4c-1.1 0-1.8-.1-2.3-.1c-3.3 0-5.6-.4-6.7-1.4c-.9-.8-1.4-2.2-1.4-4.4c0-1 .3-2.2 1-3.8c.6-1.5 1.5-3 2.5-4.5c1.6-2.3 3.2-4.1 4.8-5.3c1.6-1.1 3.2-1.7 4.7-1.7Zm-360.7-1.1c-.7 .3-1.2 .6-1.6 .8c-1.2 .6-2.2 1.2-2.9 1.7c-.5 .5-1 .9-1.3 1.2c-.5 .5-.7 .9-.7 1.1c0 .3 .4 .6 1.2 .8c.7 .1 1.5 .2 2.2 .2c.5 0 1-.1 1.5-.4c.6-.3 1.3-.8 2.3-1.5Zm146.3-.8l1.8 1.2c-.5 .8-.9 1.7-1.2 2.4c-.3 .7-.5 1.3-.7 1.8c-.3 1-.5 2-.5 3c0 1.3 .4 2.4 1.2 3.4c.8 1 1.9 1.6 3.1 1.9c.8 .2 1.8 .4 3 .5c1.3 .1 2.6 .1 3.9 .1h23.8c-.6-1.7-1.2-2.9-1.5-3.5c-.5-.9-1.2-1.9-2.3-3.2l3-7.6c1.6 2.3 2.7 4.5 3.2 6.4c.5 1.8 .7 4.3 .7 7.6v9.3h-27.6c-1.3 0-2.4 0-3.3-.1c-.9 0-1.5 0-2 0c-.8-.1-1.7-.4-2.8-.7c-1.8-.7-3.3-1.9-4.4-3.8c-1.2-1.9-1.7-4-1.7-6.3c0-.9 0-1.9 .1-2.8c.2-1 .4-2 .8-3.1c.4-1.3 .9-2.5 1.5-3.5c.6-1.1 1.3-2.1 1.9-3Zm-835.5 0l1.9 1.2c-.5 .8-.9 1.7-1.2 2.4c-.3 .7-.6 1.3-.8 1.8c-.3 1-.4 2-.4 3c0 1.3 .4 2.4 1.1 3.4c.9 1 1.9 1.6 3.2 1.9c.8 .2 1.8 .4 3 .5c1.2 .1 2.5 .1 3.9 .1h23.7c-.6-1.7-1.1-2.9-1.5-3.5c-.5-.9-1.2-1.9-2.2-3.2l2.9-7.6c1.7 2.3 2.8 4.5 3.3 6.4c.4 1.8 .6 4.3 .6 7.6v9.3H392c-1.4 0-2.5 0-3.3-.1c-.9 0-1.6 0-2 0c-.9-.1-1.8-.4-2.8-.7c-1.8-.7-3.3-1.9-4.4-3.8c-1.2-1.9-1.8-4-1.8-6.3c0-.9 .1-1.9 .2-2.8c.1-1 .3-2 .7-3.1c.5-1.3 1-2.5 1.6-3.5c.6-1.1 1.2-2.1 1.8-3Zm651.7-.2c1.6 1.8 2.8 3.8 3.4 5.8c.6 2.1 .9 5.1 .9 9.1v8.6h-27.7v.7c0 1.4-.8 3.1-2.3 5.3c-1.5 2.2-3.3 4.2-5.4 5.8c-2.3 1.8-4.2 2.7-5.8 2.7c-2 0-4-.6-6.2-1.7c-2-.9-5-2.8-9.1-5.6l1.4-2.1c2 1.4 3.6 2.2 4.8 2.7c1.2 .5 2.5 .7 3.9 .7c1.5 0 3-.4 4.5-1.3c1.5-.8 3.6-2.4 6.2-4.8c3.6-3.2 5.5-5.7 5.5-7.4c0-.9-.4-2.1-1.1-3.5c-.8-1.6-1.8-3-2.9-4l1.8-8.9c1.5 1.5 2.7 3.3 3.5 5.3c.8 2 1.2 4.2 1.2 6.8v.3h24.4c-.3-1.4-.7-2.7-1.3-3.7c-.4-.6-1.1-1.6-2.3-3Zm-142.3-1.4c-.6 0-1.2 .3-1.7 .9c-.5 .6-.8 1.3-.8 2.1c0 .5 .2 .9 .6 1.2c.4 .4 .9 .5 1.6 .5c.5 0 1-.1 1.5-.4c.5-.3 1.1-.8 1.9-1.5c-.6-1.1-1.1-1.8-1.6-2.2c-.4-.4-.9-.6-1.5-.6Zm82.1-6.2c2.8 2.2 4.8 4.9 6 8.3c1.1 3 1.7 7.1 1.7 12.2v10.6H966.3c-1.5 0-2.6-.3-3.3-.9c-1-.8-1.4-2-1.4-3.7c0-1 0-2 .1-3.1c.1-1.1 .3-2.3 .4-3.4l1.3-.1c.2 .8 .6 1.4 1.2 1.7c.6 .4 1.3 .5 2.1 .5H978c-.5-3.2-1.3-5.7-2.6-7.7c-1-1.6-2.4-3-4.3-4.1Zm-37.8 0c2.9 2.2 4.9 4.9 6.1 8.3c1.1 3 1.6 7.1 1.6 12.2v10.6H928.5c-1.4 0-2.5-.3-3.3-.9c-.9-.8-1.4-2-1.4-3.7c0-1 0-2 .1-3.1c.1-1.1 .3-2.3 .5-3.4l1.2-.1c.2 .8 .6 1.4 1.2 1.7c.6 .4 1.3 .5 2.2 .5h11.3c-.5-3.2-1.4-5.7-2.7-7.7c-1-1.6-2.4-3-4.3-4.1Zm301.6-3.4l6.1 3.3l-3.4 6.4l-4.9-2.5l-2.8 5.4l-5.9-3.4l3.6-6.7l4.6 2.6Zm-835.5 0l6.1 3.3l-3.4 6.4l-4.8-2.5l-2.8 5.4l-6-3.4l3.6-6.7l4.7 2.6Zm358.5-.4l5.9 3.4l-3.6 6.7l-4.6-2.6l-2.7 5.1l-6.1-3.3l3.4-6.4l4.9 2.4Zm240.7-2.1l7.6 4.1l-3.9 7.3l-7.7-4Zm318.7-1.5l6.1 3.4l-3.4 6.3l-4.9-2.4l-2.7 5.3l-6-3.3l3.6-6.7l4.7 2.6Zm-164.3 0l6.2 3.4l-3.5 6.3l-4.8-2.4l-2.8 5.3l-6-3.3l3.7-6.7l4.6 2.6Zm-374.6-1.4l7.7 4.1l-4 7.4l-7.7-4Zm-325.4 0l7.7 4.1l-4 7.4l-7.7-4Zm-137.3 0c1.3 1.8 2.1 3.5 2.6 5.2c.6 2 .9 4.5 .9 7.6V319c0 4.6 .3 7.7 1 9.5c.4 1.4 1.2 2.1 2.3 2.1h28.9c-.3-1.4-.7-2.7-1.3-3.7c-.4-.6-1.1-1.6-2.3-3l2.6-7.8c1.6 1.8 2.8 3.8 3.4 5.8c.6 2.1 .9 5.1 .9 9.1v8.6H324.9c-2.6 0-4.5-1.1-5.6-3.2c-1.3-2.3-1.9-6.2-1.9-11.7v-9.4c0-2.1-.3-3.7-.9-4.9c-.3-.6-.9-1.4-2-2.5Zm1131.1 0l2 11.6c.7 4.4 1.2 8.3 1.5 11.5c.2 2.5 .3 4.9 .3 7.2c0 2-.2 3.7-.6 5.4c-.5 1.6-1.4 3.7-2.7 6.4l-2-.7c.5-2.9 .8-5.1 .8-6.9c0-1.3-.1-3.3-.3-5.8c-.2-2.6-.5-5.2-.8-7.7c-.4-2.6-.9-5.6-1.6-9.1c-.3-1.2-.4-2-.4-2.5c0-.7 .3-1.8 1-3.5c.6-1.6 1.6-3.6 2.8-5.9Zm-76.9 0l2 11.6c.7 4.4 1.2 8.3 1.5 11.5c.2 2.5 .4 4.9 .4 7.2c0 2-.3 3.7-.7 5.4c-.5 1.6-1.4 3.7-2.7 6.4l-2-.7c.6-2.9 .8-5.1 .8-6.9c0-1.3-.1-3.3-.3-5.8c-.2-2.6-.5-5.2-.8-7.7c-.4-2.6-.9-5.6-1.6-9.1c-.3-1.2-.4-2-.4-2.5c0-.7 .3-1.8 1-3.5c.7-1.6 1.6-3.6 2.8-5.9Zm-109 0l1.9 11.6c.8 4.4 1.3 8.3 1.5 11.5c.3 2.5 .4 4.9 .4 7.2c0 2-.3 3.7-.7 5.4c-.5 1.6-1.4 3.7-2.7 6.4l-2-.7c.6-2.9 .8-5.1 .8-6.9c0-1.3-.1-3.3-.3-5.8c-.2-2.6-.5-5.2-.8-7.7c-.3-2.6-.9-5.6-1.6-9.1c-.3-1.2-.4-2-.4-2.5c0-.7 .3-1.8 1-3.5c.7-1.6 1.6-3.6 2.9-5.9Zm-77 0l1.9 11.6c.8 4.4 1.3 8.3 1.5 11.5c.3 2.5 .4 4.9 .4 7.2c0 2-.3 3.7-.7 5.4c-.5 1.6-1.4 3.7-2.7 6.4l-2-.7c.6-2.9 .8-5.1 .8-6.9c0-1.3-.1-3.3-.3-5.8c-.2-2.6-.5-5.2-.8-7.7c-.3-2.6-.9-5.6-1.6-9.1c-.3-1.2-.4-2-.4-2.5c0-.7 .3-1.8 1-3.5c.7-1.6 1.6-3.6 2.9-5.9Zm-234.5 0l1.9 11.6c.8 4.4 1.3 8.3 1.6 11.5c.2 2.5 .3 4.9 .3 7.2c0 2-.2 3.7-.7 5.4c-.5 1.6-1.4 3.7-2.7 6.4l-1.9-.7c.5-2.9 .8-5.1 .8-6.9c0-1.3-.1-3.3-.4-5.8c-.2-2.6-.5-5.2-.8-7.7c-.3-2.6-.9-5.6-1.6-9.1c-.3-1.2-.4-2-.4-2.5c0-.7 .3-1.8 1-3.5c.7-1.6 1.7-3.6 2.9-5.9Zm-140.4 0c1.3 1.7 2.2 3.5 2.7 5.2c.6 2 .9 4.5 .9 7.6V319c0 4.6 .3 7.7 .9 9.5c.5 1.4 1.2 2.1 2.3 2.1H833c1.2 0 2.4-.1 3.6-.3c1.4-.3 2.3-.5 2.9-.6c2.4-6.6 4.6-11.4 6.4-14.3c1.7-2.6 3.2-3.8 4.6-3.8c1.1 0 2 1.1 2.9 3.2c.7 1.9 1 3.8 1 5.6c0 2.6-.5 4.7-1.5 6.5c-1.1 2-2.7 3.5-4.9 4.4c1.6-.3 3-.5 4.3-.5c1.4-.1 2.6-.2 3.7-.2h21.8c-.3-1.4-.7-2.7-1.4-3.7c-.3-.6-1.1-1.6-2.3-3l2.7-7.8c1.6 1.8 2.7 3.8 3.3 5.8c.6 1.8 .8 4.4 .9 7.7v1h17.5c0-1.9 0-3.2-.2-4c-.1-1.3-.5-2.4-1-3.3c-.7 1.4-1.7 2.4-2.9 3.1c-1.1 .8-2.4 1.1-3.7 1.1c-1.8 0-3.3-.6-4.5-1.7c-1.2-1.2-1.8-2.6-1.8-4.4c0-2.6 .8-5.6 2.4-9.2c1.7-3.9 3.5-5.8 5.2-5.8c2.3 0 4.5 2 6.5 6c2.1 4 3.1 8.2 3.1 12.7v14.5H856c-.5 0-1 0-1.6 0c-.5 0-1.3 .1-2.3 .1c.8 .5 1.6 .9 2.4 1.4c.7 .6 1.1 1.3 1.1 2.2c0 .8-.1 1.8-.4 2.7c-.1 .6-.4 1.5-.9 2.9c-.9 2.8-1.8 4.6-2.6 5.6c-.8 1-1.8 1.5-3 1.5c-3 0-5.7-1.6-7.9-4.8c-2.2-3.2-3.3-7.1-3.3-11.6H818.2c-2.6 0-4.4-1.1-5.5-3.2c-1.3-2.3-2-6.2-2-11.7v-9.4c0-2.1-.2-3.7-.8-4.9c-.3-.6-1-1.4-2-2.5Zm-103 0c1.3 1.7 2.2 3.5 2.7 5.2c.6 2 .8 4.5 .8 7.6V319c0 4.6 .4 7.7 1 9.5c.5 1.4 1.2 2.1 2.3 2.1h16.3c2.3 0 4.2-.6 5.8-1.9c2-1.7 3-4.2 3-7.7l2.1 .4c0 .7-.1 1.5-.1 2.4c-.1 .8-.1 1.8-.1 2.9c0 1.1 .4 2.1 1.2 2.8c.7 .8 1.6 1.1 2.6 1.1h4c2.7 0 4.6-.3 5.8-1.1c1.3-.9 2-2.5 2-5c0-.5 .2-1 .5-1.4c.2-.2 .6-.6 1.2-1.1l1.3-1c0 .4 .1 1 .1 1.7c0 .7 0 1.2 0 1.4c0 1.2-.2 2.8-.5 4.8c.8 .4 1.7 .7 2.7 1c1 .3 2.1 .5 3.2 .7c0-.8-.3-1.7-.8-2.9c-.6-1.2-.8-2-.8-2.4c0-.6 0-1 .2-1.3c0-.1 .3-.5 .7-1l2.8-3.8c.6 1.4 1 2.6 1.3 3.7c.2 1.2 .3 2.6 .3 4.3v3.4h15c-.3-1.4-.7-2.7-1.3-3.7c-.4-.6-1.1-1.6-2.3-3l2.6-7.8c1.6 1.8 2.8 3.8 3.4 5.8c.6 2.1 .9 5.1 .9 9.1v8.6H767.7v-.1h-1c-1-.1-2-.3-2.8-.4c-1.6-.4-3.2-1-4.8-1.7c-1.2 .9-2.4 1.5-3.4 1.8c-.9 .2-2.4 .4-4.4 .4h-5.4c-1.5 0-2.6-.4-3.5-1.2c-.8-.7-1.6-2-2.3-3.8c-1 1.6-2.2 2.8-3.5 3.6v1.4H715.2c-2.6 0-4.4-1.1-5.6-3.2c-1.2-2.3-1.9-6.2-1.9-11.7v-9.4c0-2.1-.3-3.7-.9-4.9c-.3-.6-.9-1.4-1.9-2.5Zm-64.6 0l1.9 11.6c.8 4.4 1.3 8.3 1.6 11.5c.2 2.5 .3 4.9 .3 7.2c0 2-.2 3.7-.7 5.4c-.5 1.6-1.4 3.7-2.7 6.4l-1.9-.7c.5-2.9 .8-5.1 .8-6.9c0-1.3-.2-3.3-.4-5.8c-.2-2.6-.5-5.2-.8-7.7c-.3-2.6-.9-5.6-1.6-9.1c-.3-1.2-.4-2-.4-2.5c0-.7 .3-1.8 1-3.5c.7-1.6 1.7-3.6 2.9-5.9Zm-219.9 0c1.2 1.7 2.1 3.5 2.6 5.2c.6 2 .9 4.5 .9 7.6V319c0 4.6 .3 7.7 .9 9.5c.5 1.4 1.3 2.1 2.3 2.1h29c-.3-1.4-.7-2.7-1.3-3.7c-.4-.6-1.1-1.6-2.3-3l2.6-7.8c1.6 1.8 2.7 3.8 3.3 5.8c.6 1.8 .9 4.4 .9 7.7v1h15.1c-.2-1.4-.7-2.7-1.3-3.7c-.3-.6-1.1-1.6-2.3-3l2.6-7.8c1.7 1.8 2.8 3.8 3.4 5.8c.5 1.8 .8 4.4 .9 7.7v1h19.1c-.9-1-1.7-1.9-2.5-2.6c-.7-.7-1.6-1.4-2.7-2.3c-1.2-.9-2.5-1.9-3.7-2.9l-1 1.2c-2-1.9-3.2-3.1-3.5-3.5c-1.1-1.3-1.7-2.7-1.7-4.3c0-2.2 .2-3.8 .5-4.7c.4-1.2 1.4-2.4 2.8-3.4c1.2-.8 2.6-1.6 4.1-2.4c1.1-.5 2.6-1.2 4.5-2c.9-.3 2.7-1 5.5-2.1v7.8c-.1 0-1 .3-2.7 .8c-2.2 .7-3.9 1.4-5.1 1.9c-1.9 .7-2.8 1.3-2.8 1.7c0 .2 .8 1 2.3 2.5c2.2 2.1 3.9 4 5.4 5.7c2.4 2.8 4.3 5.6 5.8 8.4v9.2H430.6c-2.5 0-4.4-1.1-5.5-3.2c-1.3-2.3-1.9-6.2-1.9-11.7v-9.4c0-2.1-.3-3.7-.9-4.9c-.3-.6-1-1.4-2-2.5Zm329.9-2.6l6.1 3.2l-3.3 6.8l-6.2-3.3Zm603.3 0l1.6 .8c0 .1-.1 .5-.2 1c0 .8 .5 1.5 1.4 2.1c.8 .7 2.1 1.3 3.9 2.1c-.2 1.4-.5 2.7-.9 4.1c-.4 1.3-.8 2.5-1.3 3.6l-1.2-.5l3.6 20.3v9h-65.3v.7c0 1.4-.8 3.1-2.3 5.3c-1.5 2.2-3.3 4.2-5.4 5.8c-2.3 1.8-4.2 2.7-5.8 2.7c-2 0-4-.6-6.3-1.7c-1.9-.9-4.9-2.8-9-5.6l1.4-2.1c2 1.4 3.6 2.2 4.8 2.7c1.2 .5 2.5 .7 3.9 .7c1.5 0 3-.4 4.5-1.3c1.5-.8 3.6-2.4 6.2-4.8c3.6-3.2 5.4-5.7 5.4-7.4c0-.9-.3-2.1-1-3.5c-.8-1.6-1.8-3-2.9-4l1.8-8.9c1.5 1.5 2.7 3.3 3.5 5.3c.8 2 1.2 4.2 1.2 6.8v.3h24.4c-.3-1.4-.7-2.7-1.3-3.7c-.4-.6-1.1-1.6-2.3-3l2.6-7.8c1.6 1.8 2.7 3.8 3.3 5.8c.6 1.8 .9 4.4 .9 7.7v1h3.7c1 0 2 .1 2.9 .2c2.4 .2 5.1 .5 8.2 .9c-3.2-.8-5.5-1.7-6.8-2.9c-1.3-1.2-2-2.9-2-5.2c0-3.4 .8-6.5 2.4-9.2c1.5-2.7 3.3-4.1 5.3-4.1c2.2 0 4.1 1.9 5.8 5.7c1.6 3.9 2.4 8.5 2.4 13.9v.7h11.9l-4-22.3L1354 307c0-1.3 .2-2.6 .6-4c.5-1.6 1.3-3.6 2.5-5.9Zm-186 0l1.5 .8c0 .1-.1 .5-.2 1c0 .8 .5 1.5 1.4 2.1c.8 .7 2.1 1.3 3.9 2.1c-.2 1.4-.5 2.7-.9 4.1c-.4 1.3-.8 2.5-1.3 3.6l-1.2-.5l3.6 20.3v9h-38.7c-2.5 0-4.4-1.1-5.5-3.2c-1.3-2.3-1.9-6.2-1.9-11.7v-9.4c0-2.1-.3-3.7-.9-4.9c-.3-.6-1-1.4-2-2.5l3.5-8.2c1.3 1.7 2.2 3.5 2.7 5.2c.6 2 .9 4.5 .9 7.6V319c0 4.6 .3 7.7 .9 9.5c.5 1.4 1.3 2.1 2.3 2.1h19.6c-.2-1.4-.7-2.7-1.3-3.7c-.3-.6-1.1-1.6-2.3-3l2.6-7.8c1.7 1.8 2.8 3.8 3.4 5.8c.5 1.8 .8 4.4 .9 7.7v1H1174l-4-22.3l-2.1-1.3c0-1.3 .2-2.6 .6-4c.5-1.6 1.3-3.6 2.6-5.9Zm-49.9 0l1.5 .8c0 .1 0 .5-.1 1c0 .8 .4 1.5 1.3 2.1c.9 .7 2.1 1.3 3.9 2.1c-.2 1.4-.5 2.7-.8 4.1c-.4 1.3-.9 2.5-1.3 3.6l-1.2-.5l3.5 20.3v9h-47.6c-.8 0-1.6-.2-2.2-.5c-1.3-.7-2.4-1.8-3.2-3.5c-1.2-2.3-2-5.5-2.3-9.5c-1.5 1.8-2.7 3.1-3.5 3.9c-1.2 1.1-2.2 1.7-3 1.7c-.5 0-1-.1-1.6-.2l-4-.8c-1.7-.4-2.8-.6-3.2-.8c-.4-.1-.6-.4-.6-.8c0-.6 .8-2.5 2.3-5.6c1.5-3.1 2.6-5.1 3.3-5.8c.6-.6 1.5-1.4 2.9-2.3c.9-.6 2.1-1.3 3.6-2.2l1.7-1c0-.4-.1-.7-.1-1c0-.3-.1-.6-.1-.9c0-.8 .2-1.9 .6-3.1c.4-1.3 1.1-2.9 2.1-4.7l3.1 20.5c.5 3.2 1.2 5.4 2 6.5c.5 .8 1.2 1.1 2.2 1.1h28.5c-.2-1.4-.6-2.7-1.3-3.7c-.3-.6-1.1-1.6-2.3-3l2.6-7.8c1.7 1.8 2.8 3.8 3.4 5.8c.5 1.8 .8 4.4 .9 7.7v1h11.9l-4-22.3L1118 307c0-1.3 .2-2.6 .6-4c.5-1.6 1.4-3.6 2.6-5.9Zm-508.4 0l1.5 .8c0 .1 0 .5-.1 1c0 .8 .4 1.5 1.4 2.1c.8 .7 2.1 1.3 3.8 2.1c-.2 1.4-.5 2.7-.8 4.1c-.4 1.3-.8 2.5-1.3 3.6l-1.2-.5l3.6 20.3h11.8l-4-22.3l-2.1-1.3c0-1.3 .2-2.6 .6-4c.5-1.6 1.4-3.6 2.6-5.9l1.5 .8c0 .1-.1 .5-.2 1c0 .8 .5 1.5 1.4 2.1c.8 .7 2.1 1.3 3.9 2.1c-.2 1.4-.5 2.7-.9 4.1c-.3 1.3-.8 2.5-1.3 3.6l-1.1-.5l3.5 20.3v9H583.3v-.2h-.4c-1.7-.2-3.4-.6-5.4-1.2c-2.7-.8-5.1-1.7-7.2-2.8c-1.3 1.9-2.9 3.2-4.7 3.8c-.9 .2-2.1 .4-3.7 .4H535.6l-.1 .5c-.6 2.8-2.1 5.6-4.5 8.4c-3.2 3.7-6.3 5.5-9.4 5.5c-1.9 0-3.9-.6-6-1.7c-2.2-1.2-5.5-3.5-10-6.9l1.4-1.9c2.4 1.6 4.3 2.6 5.8 3.1c1.3 .5 2.7 .7 4.3 .7c2.1 0 4.2-.6 6.3-1.8c2.4-1.4 5-3.6 7.6-6.7c-.9 .1-1.7 .2-2.3 .2c-2.2 0-3.9-.8-5.2-2.2c-1.2-1.4-1.9-3.3-1.9-5.7c0-3.3 .8-6.5 2.3-9.5c1.6-3.3 3.5-5 5.6-5c1.8 0 3.2 1.2 4.5 3.6c1.2 2.4 1.8 5.3 1.8 8.6v1.8h3.7c1 0 2 .1 2.9 .2c2.4 .2 5.1 .5 8.2 .9c-3.3-.8-5.5-1.7-6.8-2.9c-1.3-1.2-2-2.9-2-5.2c0-3.4 .8-6.5 2.3-9.2c1.6-2.7 3.4-4.1 5.3-4.1c2.2 0 4.2 1.9 5.8 5.7c1.7 3.9 2.5 8.5 2.5 13.9v.7h4.2c2 0 3.5-.2 4.7-.7c1.5-.6 2.5-1.7 3.1-3.2c1.2-2.7 2.8-5 4.8-6.8c1.7-1.6 3.2-2.4 4.4-2.4c1.1 0 2.5 1.7 4.1 5c1.3 2.7 2.1 5.2 2.5 7.6v.5h15.1c-.3-1.4-.7-2.7-1.4-3.7c-.3-.6-1.1-1.6-2.3-3l2.7-7.8c1.6 1.8 2.7 3.8 3.3 5.8c.6 1.8 .8 4.4 .9 7.7v1h11.9l-3.9-22.3l-2.2-1.3c0-1.3 .2-2.6 .6-4c.5-1.6 1.4-3.6 2.6-5.9Zm-342.5 0l1.6 .8c0 .1-.1 .5-.2 1c0 .8 .5 1.5 1.4 2.1c.8 .7 2.1 1.3 3.9 2.1c-.2 1.4-.5 2.7-.9 4.1c-.4 1.3-.8 2.5-1.3 3.6l-1.2-.5l3.6 20.3h1.3c.6 0 1.1 0 1.4 0c.6-.1 1.3-.1 1.9-.2c-1.1-1.6-1.8-3-2.2-4c-.4-1-.6-2.1-.6-3.4c0-3.3 1.4-6.1 4.1-8.6c2.7-2.4 5.9-3.6 9.5-3.6c2.4 0 4.7 .8 6.9 2.4c2.1 1.5 3.6 3.3 4.5 5.4l-1.4 1.2c-1.7-.7-3.1-1.1-4.1-1.3c-1-.2-2.3-.3-3.8-.3c-2.7 0-5 .2-7 .6c-2.5 .6-3.8 1.4-3.8 2.4c0 1.5 3 4 9.1 7.5l16.7-4.8l-3.7 9.3c-5.9 1.9-10.7 3.3-14.6 4.2c-3.3 .9-6.1 1.5-8.5 1.8c-1.6 .3-3.3 .4-5 .4H258.7c-.8 0-1.5 0-1.9 .2c-.5 .1-.8 .3-.8 .5c0 .2 .6 .4 1.6 .9c1.1 .4 1.6 1 1.6 1.9c0 1.2-.2 2.7-.5 4.3c-.4 1.7-.9 3.3-1.5 4.6c-.5 1.1-1.8 2.3-4 3.7c-2.4 1.4-5.1 2.6-8.1 3.6c-3.4 1.1-6.7 1.6-9.8 1.6c-3.5 0-6.2-.8-8-2.5c-1.8-1.6-2.7-4-2.7-7.1c0-3.5 .4-6.5 1.2-9.1c1-3 3.1-7 6.2-12l1.8 1.4c-2.1 3.5-3.5 6.3-4.2 8.4c-.8 2.1-1.2 4.1-1.2 6.1c0 2 .7 3.6 2 4.8c1.3 1.1 3 1.7 5.3 1.7c2.8 0 5.8-.4 9-1.3c2.9-.7 5.4-1.7 7.4-2.7c2.1-1.1 3.1-2 3.1-2.7c0-.2-.6-.4-1.8-.4c-1.2-.1-2.3-.1-3.3-.1c-2.3 0-3.8-.1-4.5-.2c-.7-.2-1-.6-1-1.3c0-1.1 .2-2.4 .6-3.7c.5-1.3 1-2.3 1.6-3c1.4-1.8 3.1-3.3 5.1-4.5c2.2-1.4 4.2-2.1 5.9-2.1h15.5l-4-22.3l-2.1-1.3c0-1.3 .2-2.6 .6-4c.5-1.6 1.3-3.6 2.5-5.9Zm1067.1-.3l7.6 4.1l-3.9 7.3l-7.7-4Zm-790.6 0l7.7 4.1l-4 7.3l-7.6-4Zm130.3-2.3l1.5 .6c0 .2-.1 .4-.2 .9c0 .8 1.1 1.7 3.3 2.7c.7 .4 1.8 .8 3.2 1.4c-.2 1.7-.5 3.3-1 4.8c-.3 .7-.7 1.9-1.3 3.4l-1.2-.4c.7 3.2 1.1 5.4 1.3 6.9c.3 1.5 .4 2.8 .4 4v.4c0 .6 0 1.1-.1 1.4c0 .4-.1 1-.2 1.7c1.1-.8 2.3-1.6 3.4-2.5c1.8-1.2 3.4-2.2 4.8-3c1.8-1 3.2-1.5 4.2-1.5c2.6 0 4.6 .7 6.2 2c1.7 1.5 2.6 3.7 2.6 6.5v15.8H666.5v-9h4.4c.5 0 2-.9 4.4-2.7c.8-.6 2-1.5 3.5-2.7c0-2.7-.1-5-.3-6.9c-.2-1.8-.5-3.8-.9-5.8c-.1-.5-.7-2.9-1.8-7.1l-1.9-1.2c.5-2.3 .9-3.9 1.2-4.9c.4-1 1-2.6 2-4.8Zm212.1-2.4l7.6 4l-3.9 7.4l-7.7-4Zm182-1.6l5.9 3l-3.6 6.1l-4.7-2.6l-2.6 5.2l-6.2-3.4l3.5-5.7l4.8 2.4Zm379.1-.2c.4 0 .7 .1 1 .4c.2 .3 .4 .6 .4 1c0 .4-.1 .7-.2 .9c-.1 .3-.3 .7-.6 1.2c-1.1-.6-1.8-.8-2.2-.8c-.4 0-.8 .1-1.2 .3c-.3 .1-.5 .3-.7 .5c0 .3 .5 .7 1.5 1.3c1.1 .6 1.9 .9 2.3 .9c.3 0 1.1-.2 2.4-.5c-.3 .6-.6 1.1-.9 1.4c-.2 .3-.6 .5-1.1 .6l-7.1 2.2c.4-.8 .8-1.3 1.1-1.6c.4-.3 1-.6 1.8-.8c-.6-.4-1-.8-1.3-1.1c-.3-.4-.4-.7-.4-1c0-.3 .1-.6 .3-1c.1-.4 .4-.7 .6-1.1c1.5-1.9 2.9-2.8 4.3-2.8Zm-1130.5 0c.4 0 .8 .1 1 .4c.3 .3 .4 .6 .4 1c0 .4 0 .7-.1 .9c-.1 .3-.3 .7-.6 1.2c-1.1-.6-1.9-.8-2.3-.8c-.4 0-.8 .1-1.2 .3c-.2 .1-.5 .3-.7 .5c0 .3 .5 .7 1.6 1.3c1 .6 1.8 .9 2.3 .9c.2 0 1-.2 2.3-.5c-.2 .6-.5 1.1-.8 1.5c-.2 .2-.6 .4-1.1 .6l-7.1 2.1c.4-.8 .8-1.3 1.1-1.6c.4-.2 1-.5 1.8-.8c-.6-.4-1.1-.8-1.4-1.1c-.2-.4-.4-.7-.4-1c0-.3 .1-.6 .3-1c.2-.4 .4-.7 .7-1.1c1.4-1.9 2.8-2.8 4.2-2.8Z" class="g0_73"/>
<path d="M1422.2 353.4l5.1 2.6l-2.4 4.5l-5.1-2.6l-2.4 4.4l-5-2.7l2.4-4.5l5 2.5ZM346.1 342.3l7.6 4.1l-3.9 7.4l-7.7-4Zm759.5-.3l6.1 3.4l-3.4 6.3l-4.9-2.4l-2.7 5.3l-6-3.3l3.6-6.7l4.6 2.6Zm-74.3 0l6.1 3.4l-3.4 6.3l-4.8-2.4l-2.8 5.3l-6-3.3l3.6-6.7l4.7 2.6Zm-156.9 0l6.1 3.4l-3.4 6.3l-4.9-2.4l-2.7 5.3l-6-3.3l3.6-6.7l4.7 2.6Zm-277.2 0l6.1 3.4l-3.4 6.3l-4.9-2.4l-2.7 5.3l-6-3.3l3.6-6.7l4.7 2.6Zm-122.7 0l6.2 3.4l-3.5 6.3l-4.8-2.4l-2.8 5.3l-6-3.3l3.7-6.7l4.6 2.6Zm366.8-1.9c.3 2 1.3 3.6 3 5.1c1.7 1.4 3.4 2.1 5.4 2.1c.6 0 1-.2 1-.7c0-1.2-.7-2.4-2.1-3.5c-1.7-1.3-4.2-2.3-7.3-3ZM528.1 325.4c-.7 0-1.2 .2-1.6 .8c-.4 .5-.6 1.1-.6 1.7c0 .8 .4 1.5 1.3 2c.8 .5 2 .7 3.4 .7h1.3c-.6-3.5-1.9-5.2-3.8-5.2Zm47.2-.2c-.8 0-1.5 1-2.1 2.9c1.1 .4 2 .8 2.6 1c1.7 .7 2.7 1 3 1c.4 0 .7-.2 .7-.5c0-.5-.5-1.3-1.4-2.5c-1.1-1.3-2-1.9-2.8-1.9Zm117.5-1.1c-1.5 0-3.1 .5-4.9 1.4c-1.8 1-4.5 2.7-7.9 5.1h8.6c7.2 0 10.8-1.1 10.8-3.3c0-.8-.8-1.5-2.4-2.2c-1.6-.6-3-1-4.2-1Zm154.6-2.9c-.6 0-1.3 .6-2 1.9c-.8 1.2-1.7 3.2-2.8 5.8c2.6-.9 4.3-1.6 5.3-2.2c.9-.7 1.4-1.4 1.4-2.1c0-.6-.2-1.3-.6-2.1c-.4-.9-.9-1.3-1.3-1.3Zm490.8-1.2c-.4 0-.8 .1-1.1 .4c-.3 .3-.5 .6-.5 1c0 1 .7 1.9 2.1 2.8c1.4 .9 3.1 1.4 5.1 1.8c-.8-1.9-1.7-3.4-2.7-4.4c-.9-1.1-1.9-1.6-2.9-1.6Zm-790.5 0c-.4 0-.8 .1-1.1 .4c-.4 .3-.5 .6-.5 1c0 1 .7 1.9 2.1 2.8c1.4 .9 3.1 1.4 5 1.8c-.8-1.9-1.6-3.4-2.6-4.4c-1-1.1-1.9-1.6-2.9-1.6Zm884.2-1.8c1.3 0 2.3 .4 3 1.4c.8 1 1.1 2.3 1.1 4c0 1.2-.1 2.2-.3 3c-.3 .8-.8 1.8-1.6 3.1c-.6-1.6-1.1-2.6-1.5-3c-.4-.5-.9-.7-1.7-.7c-1.2 0-2.8 .6-4.9 2c-2.1 1.3-3.1 2.4-3.1 3.4c0 .4 .4 .8 1.2 1c.6 .1 1.5 .2 2.8 .2c.3 0 .7 0 1 0c.3 0 .6 0 .9 0c2.4 0 4 .2 4.8 .7c.7 .4 1 1.2 1 2.4c0 2.4-.4 4.6-1.3 6.8c-1.1 2.7-2.7 4.7-4.8 5.8c-2.6 1.5-5.3 2.7-8.1 3.6c-2.8 .9-5.4 1.4-7.9 1.4c-6.8 0-10.2-3.1-10.2-9.2c0-3.1 .4-5.8 1.2-8c.8-2.5 2.6-5.9 5.4-10.1l1.5 .9c-1.6 2.8-2.8 5.2-3.6 7.3c-.8 2.2-1.3 4-1.3 5.6c0 4.2 2.4 6.3 7 6.3c1.8 0 3.5-.2 5-.5c1.6-.3 3.2-.8 4.8-1.4c1.1-.3 2.3-.8 3.7-1.4c2.1-1 3.3-1.5 3.4-1.5c1-.6 1.5-1 1.5-1.5c0-.2-.5-.3-1.6-.4c-1.1 0-1.8-.1-2.3-.1c-3.3 0-5.6-.4-6.7-1.4c-.9-.8-1.4-2.2-1.4-4.4c0-1 .3-2.2 1-3.8c.6-1.5 1.5-3 2.5-4.5c1.6-2.3 3.2-4.1 4.8-5.3c1.6-1.1 3.2-1.7 4.7-1.7Zm-360.7-1.1c-.7 .3-1.2 .6-1.6 .8c-1.2 .6-2.2 1.2-2.9 1.7c-.5 .5-1 .9-1.3 1.2c-.5 .5-.7 .9-.7 1.1c0 .3 .4 .6 1.2 .8c.7 .1 1.5 .2 2.2 .2c.5 0 1-.1 1.5-.4c.6-.3 1.3-.8 2.3-1.5Zm146.3-.8l1.8 1.2c-.5 .8-.9 1.7-1.2 2.4c-.3 .7-.5 1.3-.7 1.8c-.3 1-.5 2-.5 3c0 1.3 .4 2.4 1.2 3.4c.8 1 1.9 1.6 3.1 1.9c.8 .2 1.8 .4 3 .5c1.3 .1 2.6 .1 3.9 .1h23.8c-.6-1.7-1.2-2.9-1.5-3.5c-.5-.9-1.2-1.9-2.3-3.2l3-7.6c1.6 2.3 2.7 4.5 3.2 6.4c.5 1.8 .7 4.3 .7 7.6v9.3h-27.6c-1.3 0-2.4 0-3.3-.1c-.9 0-1.5 0-2 0c-.8-.1-1.7-.4-2.8-.7c-1.8-.7-3.3-1.9-4.4-3.8c-1.2-1.9-1.7-4-1.7-6.3c0-.9 0-1.9 .1-2.8c.2-1 .4-2 .8-3.1c.4-1.3 .9-2.5 1.5-3.5c.6-1.1 1.3-2.1 1.9-3Zm-835.5 0l1.9 1.2c-.5 .8-.9 1.7-1.2 2.4c-.3 .7-.6 1.3-.8 1.8c-.3 1-.4 2-.4 3c0 1.3 .4 2.4 1.1 3.4c.9 1 1.9 1.6 3.2 1.9c.8 .2 1.8 .4 3 .5c1.2 .1 2.5 .1 3.9 .1h23.7c-.6-1.7-1.1-2.9-1.5-3.5c-.5-.9-1.2-1.9-2.2-3.2l2.9-7.6c1.7 2.3 2.8 4.5 3.3 6.4c.4 1.8 .6 4.3 .6 7.6v9.3H392c-1.4 0-2.5 0-3.3-.1c-.9 0-1.6 0-2 0c-.9-.1-1.8-.4-2.8-.7c-1.8-.7-3.3-1.9-4.4-3.8c-1.2-1.9-1.8-4-1.8-6.3c0-.9 .1-1.9 .2-2.8c.1-1 .3-2 .7-3.1c.5-1.3 1-2.5 1.6-3.5c.6-1.1 1.2-2.1 1.8-3Zm651.7-.2c1.6 1.8 2.8 3.8 3.4 5.8c.6 2.1 .9 5.1 .9 9.1v8.6h-27.7v.7c0 1.4-.8 3.1-2.3 5.3c-1.5 2.2-3.3 4.2-5.4 5.8c-2.3 1.8-4.2 2.7-5.8 2.7c-2 0-4-.6-6.2-1.7c-2-.9-5-2.8-9.1-5.6l1.4-2.1c2 1.4 3.6 2.2 4.8 2.7c1.2 .5 2.5 .7 3.9 .7c1.5 0 3-.4 4.5-1.3c1.5-.8 3.6-2.4 6.2-4.8c3.6-3.2 5.5-5.7 5.5-7.4c0-.9-.4-2.1-1.1-3.5c-.8-1.6-1.8-3-2.9-4l1.8-8.9c1.5 1.5 2.7 3.3 3.5 5.3c.8 2 1.2 4.2 1.2 6.8v.3h24.4c-.3-1.4-.7-2.7-1.3-3.7c-.4-.6-1.1-1.6-2.3-3Zm-142.3-1.4c-.6 0-1.2 .3-1.7 .9c-.5 .6-.8 1.3-.8 2.1c0 .5 .2 .9 .6 1.2c.4 .4 .9 .5 1.6 .5c.5 0 1-.1 1.5-.4c.5-.3 1.1-.8 1.9-1.5c-.6-1.1-1.1-1.8-1.6-2.2c-.4-.4-.9-.6-1.5-.6Zm82.1-6.2c2.8 2.2 4.8 4.9 6 8.3c1.1 3 1.7 7.1 1.7 12.2v10.6H966.3c-1.5 0-2.6-.3-3.3-.9c-1-.8-1.4-2-1.4-3.7c0-1 0-2 .1-3.1c.1-1.1 .3-2.3 .4-3.4l1.3-.1c.2 .8 .6 1.4 1.2 1.7c.6 .4 1.3 .5 2.1 .5H978c-.5-3.2-1.3-5.7-2.6-7.7c-1-1.6-2.4-3-4.3-4.1Zm-37.8 0c2.9 2.2 4.9 4.9 6.1 8.3c1.1 3 1.6 7.1 1.6 12.2v10.6H928.5c-1.4 0-2.5-.3-3.3-.9c-.9-.8-1.4-2-1.4-3.7c0-1 0-2 .1-3.1c.1-1.1 .3-2.3 .5-3.4l1.2-.1c.2 .8 .6 1.4 1.2 1.7c.6 .4 1.3 .5 2.2 .5h11.3c-.5-3.2-1.4-5.7-2.7-7.7c-1-1.6-2.4-3-4.3-4.1Zm301.6-3.4l6.1 3.3l-3.4 6.4l-4.9-2.5l-2.8 5.4l-5.9-3.4l3.6-6.7l4.6 2.6Zm-835.5 0l6.1 3.3l-3.4 6.4l-4.8-2.5l-2.8 5.4l-6-3.4l3.6-6.7l4.7 2.6Zm358.5-.4l5.9 3.4l-3.6 6.7l-4.6-2.6l-2.7 5.1l-6.1-3.3l3.4-6.4l4.9 2.4Zm240.7-2.1l7.6 4.1l-3.9 7.3l-7.7-4Zm318.7-1.5l6.1 3.4l-3.4 6.3l-4.9-2.4l-2.7 5.3l-6-3.3l3.6-6.7l4.7 2.6Zm-164.3 0l6.2 3.4l-3.5 6.3l-4.8-2.4l-2.8 5.3l-6-3.3l3.7-6.7l4.6 2.6Zm-374.6-1.4l7.7 4.1l-4 7.4l-7.7-4Zm-325.4 0l7.7 4.1l-4 7.4l-7.7-4Zm-137.3 0c1.3 1.8 2.1 3.5 2.6 5.2c.6 2 .9 4.5 .9 7.6V319c0 4.6 .3 7.7 1 9.5c.4 1.4 1.2 2.1 2.3 2.1h28.9c-.3-1.4-.7-2.7-1.3-3.7c-.4-.6-1.1-1.6-2.3-3l2.6-7.8c1.6 1.8 2.8 3.8 3.4 5.8c.6 2.1 .9 5.1 .9 9.1v8.6H324.9c-2.6 0-4.5-1.1-5.6-3.2c-1.3-2.3-1.9-6.2-1.9-11.7v-9.4c0-2.1-.3-3.7-.9-4.9c-.3-.6-.9-1.4-2-2.5Zm1131.1 0l2 11.6c.7 4.4 1.2 8.3 1.5 11.5c.2 2.5 .3 4.9 .3 7.2c0 2-.2 3.7-.6 5.4c-.5 1.6-1.4 3.7-2.7 6.4l-2-.7c.5-2.9 .8-5.1 .8-6.9c0-1.3-.1-3.3-.3-5.8c-.2-2.6-.5-5.2-.8-7.7c-.4-2.6-.9-5.6-1.6-9.1c-.3-1.2-.4-2-.4-2.5c0-.7 .3-1.8 1-3.5c.6-1.6 1.6-3.6 2.8-5.9Zm-76.9 0l2 11.6c.7 4.4 1.2 8.3 1.5 11.5c.2 2.5 .4 4.9 .4 7.2c0 2-.3 3.7-.7 5.4c-.5 1.6-1.4 3.7-2.7 6.4l-2-.7c.6-2.9 .8-5.1 .8-6.9c0-1.3-.1-3.3-.3-5.8c-.2-2.6-.5-5.2-.8-7.7c-.4-2.6-.9-5.6-1.6-9.1c-.3-1.2-.4-2-.4-2.5c0-.7 .3-1.8 1-3.5c.7-1.6 1.6-3.6 2.8-5.9Zm-109 0l1.9 11.6c.8 4.4 1.3 8.3 1.5 11.5c.3 2.5 .4 4.9 .4 7.2c0 2-.3 3.7-.7 5.4c-.5 1.6-1.4 3.7-2.7 6.4l-2-.7c.6-2.9 .8-5.1 .8-6.9c0-1.3-.1-3.3-.3-5.8c-.2-2.6-.5-5.2-.8-7.7c-.3-2.6-.9-5.6-1.6-9.1c-.3-1.2-.4-2-.4-2.5c0-.7 .3-1.8 1-3.5c.7-1.6 1.6-3.6 2.9-5.9Zm-77 0l1.9 11.6c.8 4.4 1.3 8.3 1.5 11.5c.3 2.5 .4 4.9 .4 7.2c0 2-.3 3.7-.7 5.4c-.5 1.6-1.4 3.7-2.7 6.4l-2-.7c.6-2.9 .8-5.1 .8-6.9c0-1.3-.1-3.3-.3-5.8c-.2-2.6-.5-5.2-.8-7.7c-.3-2.6-.9-5.6-1.6-9.1c-.3-1.2-.4-2-.4-2.5c0-.7 .3-1.8 1-3.5c.7-1.6 1.6-3.6 2.9-5.9Zm-234.5 0l1.9 11.6c.8 4.4 1.3 8.3 1.6 11.5c.2 2.5 .3 4.9 .3 7.2c0 2-.2 3.7-.7 5.4c-.5 1.6-1.4 3.7-2.7 6.4l-1.9-.7c.5-2.9 .8-5.1 .8-6.9c0-1.3-.1-3.3-.4-5.8c-.2-2.6-.5-5.2-.8-7.7c-.3-2.6-.9-5.6-1.6-9.1c-.3-1.2-.4-2-.4-2.5c0-.7 .3-1.8 1-3.5c.7-1.6 1.7-3.6 2.9-5.9Zm-140.4 0c1.3 1.7 2.2 3.5 2.7 5.2c.6 2 .9 4.5 .9 7.6V319c0 4.6 .3 7.7 .9 9.5c.5 1.4 1.2 2.1 2.3 2.1H833c1.2 0 2.4-.1 3.6-.3c1.4-.3 2.3-.5 2.9-.6c2.4-6.6 4.6-11.4 6.4-14.3c1.7-2.6 3.2-3.8 4.6-3.8c1.1 0 2 1.1 2.9 3.2c.7 1.9 1 3.8 1 5.6c0 2.6-.5 4.7-1.5 6.5c-1.1 2-2.7 3.5-4.9 4.4c1.6-.3 3-.5 4.3-.5c1.4-.1 2.6-.2 3.7-.2h21.8c-.3-1.4-.7-2.7-1.4-3.7c-.3-.6-1.1-1.6-2.3-3l2.7-7.8c1.6 1.8 2.7 3.8 3.3 5.8c.6 1.8 .8 4.4 .9 7.7v1h17.5c0-1.9 0-3.2-.2-4c-.1-1.3-.5-2.4-1-3.3c-.7 1.4-1.7 2.4-2.9 3.1c-1.1 .8-2.4 1.1-3.7 1.1c-1.8 0-3.3-.6-4.5-1.7c-1.2-1.2-1.8-2.6-1.8-4.4c0-2.6 .8-5.6 2.4-9.2c1.7-3.9 3.5-5.8 5.2-5.8c2.3 0 4.5 2 6.5 6c2.1 4 3.1 8.2 3.1 12.7v14.5H856c-.5 0-1 0-1.6 0c-.5 0-1.3 .1-2.3 .1c.8 .5 1.6 .9 2.4 1.4c.7 .6 1.1 1.3 1.1 2.2c0 .8-.1 1.8-.4 2.7c-.1 .6-.4 1.5-.9 2.9c-.9 2.8-1.8 4.6-2.6 5.6c-.8 1-1.8 1.5-3 1.5c-3 0-5.7-1.6-7.9-4.8c-2.2-3.2-3.3-7.1-3.3-11.6H818.2c-2.6 0-4.4-1.1-5.5-3.2c-1.3-2.3-2-6.2-2-11.7v-9.4c0-2.1-.2-3.7-.8-4.9c-.3-.6-1-1.4-2-2.5Zm-103 0c1.3 1.7 2.2 3.5 2.7 5.2c.6 2 .8 4.5 .8 7.6V319c0 4.6 .4 7.7 1 9.5c.5 1.4 1.2 2.1 2.3 2.1h16.3c2.3 0 4.2-.6 5.8-1.9c2-1.7 3-4.2 3-7.7l2.1 .4c0 .7-.1 1.5-.1 2.4c-.1 .8-.1 1.8-.1 2.9c0 1.1 .4 2.1 1.2 2.8c.7 .8 1.6 1.1 2.6 1.1h4c2.7 0 4.6-.3 5.8-1.1c1.3-.9 2-2.5 2-5c0-.5 .2-1 .5-1.4c.2-.2 .6-.6 1.2-1.1l1.3-1c0 .4 .1 1 .1 1.7c0 .7 0 1.2 0 1.4c0 1.2-.2 2.8-.5 4.8c.8 .4 1.7 .7 2.7 1c1 .3 2.1 .5 3.2 .7c0-.8-.3-1.7-.8-2.9c-.6-1.2-.8-2-.8-2.4c0-.6 0-1 .2-1.3c0-.1 .3-.5 .7-1l2.8-3.8c.6 1.4 1 2.6 1.3 3.7c.2 1.2 .3 2.6 .3 4.3v3.4h15c-.3-1.4-.7-2.7-1.3-3.7c-.4-.6-1.1-1.6-2.3-3l2.6-7.8c1.6 1.8 2.8 3.8 3.4 5.8c.6 2.1 .9 5.1 .9 9.1v8.6H767.7v-.1h-1c-1-.1-2-.3-2.8-.4c-1.6-.4-3.2-1-4.8-1.7c-1.2 .9-2.4 1.5-3.4 1.8c-.9 .2-2.4 .4-4.4 .4h-5.4c-1.5 0-2.6-.4-3.5-1.2c-.8-.7-1.6-2-2.3-3.8c-1 1.6-2.2 2.8-3.5 3.6v1.4H715.2c-2.6 0-4.4-1.1-5.6-3.2c-1.2-2.3-1.9-6.2-1.9-11.7v-9.4c0-2.1-.3-3.7-.9-4.9c-.3-.6-.9-1.4-1.9-2.5Zm-64.6 0l1.9 11.6c.8 4.4 1.3 8.3 1.6 11.5c.2 2.5 .3 4.9 .3 7.2c0 2-.2 3.7-.7 5.4c-.5 1.6-1.4 3.7-2.7 6.4l-1.9-.7c.5-2.9 .8-5.1 .8-6.9c0-1.3-.2-3.3-.4-5.8c-.2-2.6-.5-5.2-.8-7.7c-.3-2.6-.9-5.6-1.6-9.1c-.3-1.2-.4-2-.4-2.5c0-.7 .3-1.8 1-3.5c.7-1.6 1.7-3.6 2.9-5.9Zm-219.9 0c1.2 1.7 2.1 3.5 2.6 5.2c.6 2 .9 4.5 .9 7.6V319c0 4.6 .3 7.7 .9 9.5c.5 1.4 1.3 2.1 2.3 2.1h29c-.3-1.4-.7-2.7-1.3-3.7c-.4-.6-1.1-1.6-2.3-3l2.6-7.8c1.6 1.8 2.7 3.8 3.3 5.8c.6 1.8 .9 4.4 .9 7.7v1h15.1c-.2-1.4-.7-2.7-1.3-3.7c-.3-.6-1.1-1.6-2.3-3l2.6-7.8c1.7 1.8 2.8 3.8 3.4 5.8c.5 1.8 .8 4.4 .9 7.7v1h19.1c-.9-1-1.7-1.9-2.5-2.6c-.7-.7-1.6-1.4-2.7-2.3c-1.2-.9-2.5-1.9-3.7-2.9l-1 1.2c-2-1.9-3.2-3.1-3.5-3.5c-1.1-1.3-1.7-2.7-1.7-4.3c0-2.2 .2-3.8 .5-4.7c.4-1.2 1.4-2.4 2.8-3.4c1.2-.8 2.6-1.6 4.1-2.4c1.1-.5 2.6-1.2 4.5-2c.9-.3 2.7-1 5.5-2.1v7.8c-.1 0-1 .3-2.7 .8c-2.2 .7-3.9 1.4-5.1 1.9c-1.9 .7-2.8 1.3-2.8 1.7c0 .2 .8 1 2.3 2.5c2.2 2.1 3.9 4 5.4 5.7c2.4 2.8 4.3 5.6 5.8 8.4v9.2H430.6c-2.5 0-4.4-1.1-5.5-3.2c-1.3-2.3-1.9-6.2-1.9-11.7v-9.4c0-2.1-.3-3.7-.9-4.9c-.3-.6-1-1.4-2-2.5Zm329.9-2.6l6.1 3.2l-3.3 6.8l-6.2-3.3Zm603.3 0l1.6 .8c0 .1-.1 .5-.2 1c0 .8 .5 1.5 1.4 2.1c.8 .7 2.1 1.3 3.9 2.1c-.2 1.4-.5 2.7-.9 4.1c-.4 1.3-.8 2.5-1.3 3.6l-1.2-.5l3.6 20.3v9h-65.3v.7c0 1.4-.8 3.1-2.3 5.3c-1.5 2.2-3.3 4.2-5.4 5.8c-2.3 1.8-4.2 2.7-5.8 2.7c-2 0-4-.6-6.3-1.7c-1.9-.9-4.9-2.8-9-5.6l1.4-2.1c2 1.4 3.6 2.2 4.8 2.7c1.2 .5 2.5 .7 3.9 .7c1.5 0 3-.4 4.5-1.3c1.5-.8 3.6-2.4 6.2-4.8c3.6-3.2 5.4-5.7 5.4-7.4c0-.9-.3-2.1-1-3.5c-.8-1.6-1.8-3-2.9-4l1.8-8.9c1.5 1.5 2.7 3.3 3.5 5.3c.8 2 1.2 4.2 1.2 6.8v.3h24.4c-.3-1.4-.7-2.7-1.3-3.7c-.4-.6-1.1-1.6-2.3-3l2.6-7.8c1.6 1.8 2.7 3.8 3.3 5.8c.6 1.8 .9 4.4 .9 7.7v1h3.7c1 0 2 .1 2.9 .2c2.4 .2 5.1 .5 8.2 .9c-3.2-.8-5.5-1.7-6.8-2.9c-1.3-1.2-2-2.9-2-5.2c0-3.4 .8-6.5 2.4-9.2c1.5-2.7 3.3-4.1 5.3-4.1c2.2 0 4.1 1.9 5.8 5.7c1.6 3.9 2.4 8.5 2.4 13.9v.7h11.9l-4-22.3L1354 307c0-1.3 .2-2.6 .6-4c.5-1.6 1.3-3.6 2.5-5.9Zm-186 0l1.5 .8c0 .1-.1 .5-.2 1c0 .8 .5 1.5 1.4 2.1c.8 .7 2.1 1.3 3.9 2.1c-.2 1.4-.5 2.7-.9 4.1c-.4 1.3-.8 2.5-1.3 3.6l-1.2-.5l3.6 20.3v9h-38.7c-2.5 0-4.4-1.1-5.5-3.2c-1.3-2.3-1.9-6.2-1.9-11.7v-9.4c0-2.1-.3-3.7-.9-4.9c-.3-.6-1-1.4-2-2.5l3.5-8.2c1.3 1.7 2.2 3.5 2.7 5.2c.6 2 .9 4.5 .9 7.6V319c0 4.6 .3 7.7 .9 9.5c.5 1.4 1.3 2.1 2.3 2.1h19.6c-.2-1.4-.7-2.7-1.3-3.7c-.3-.6-1.1-1.6-2.3-3l2.6-7.8c1.7 1.8 2.8 3.8 3.4 5.8c.5 1.8 .8 4.4 .9 7.7v1H1174l-4-22.3l-2.1-1.3c0-1.3 .2-2.6 .6-4c.5-1.6 1.3-3.6 2.6-5.9Zm-49.9 0l1.5 .8c0 .1 0 .5-.1 1c0 .8 .4 1.5 1.3 2.1c.9 .7 2.1 1.3 3.9 2.1c-.2 1.4-.5 2.7-.8 4.1c-.4 1.3-.9 2.5-1.3 3.6l-1.2-.5l3.5 20.3v9h-47.6c-.8 0-1.6-.2-2.2-.5c-1.3-.7-2.4-1.8-3.2-3.5c-1.2-2.3-2-5.5-2.3-9.5c-1.5 1.8-2.7 3.1-3.5 3.9c-1.2 1.1-2.2 1.7-3 1.7c-.5 0-1-.1-1.6-.2l-4-.8c-1.7-.4-2.8-.6-3.2-.8c-.4-.1-.6-.4-.6-.8c0-.6 .8-2.5 2.3-5.6c1.5-3.1 2.6-5.1 3.3-5.8c.6-.6 1.5-1.4 2.9-2.3c.9-.6 2.1-1.3 3.6-2.2l1.7-1c0-.4-.1-.7-.1-1c0-.3-.1-.6-.1-.9c0-.8 .2-1.9 .6-3.1c.4-1.3 1.1-2.9 2.1-4.7l3.1 20.5c.5 3.2 1.2 5.4 2 6.5c.5 .8 1.2 1.1 2.2 1.1h28.5c-.2-1.4-.6-2.7-1.3-3.7c-.3-.6-1.1-1.6-2.3-3l2.6-7.8c1.7 1.8 2.8 3.8 3.4 5.8c.5 1.8 .8 4.4 .9 7.7v1h11.9l-4-22.3L1118 307c0-1.3 .2-2.6 .6-4c.5-1.6 1.4-3.6 2.6-5.9Zm-508.4 0l1.5 .8c0 .1 0 .5-.1 1c0 .8 .4 1.5 1.4 2.1c.8 .7 2.1 1.3 3.8 2.1c-.2 1.4-.5 2.7-.8 4.1c-.4 1.3-.8 2.5-1.3 3.6l-1.2-.5l3.6 20.3h11.8l-4-22.3l-2.1-1.3c0-1.3 .2-2.6 .6-4c.5-1.6 1.4-3.6 2.6-5.9l1.5 .8c0 .1-.1 .5-.2 1c0 .8 .5 1.5 1.4 2.1c.8 .7 2.1 1.3 3.9 2.1c-.2 1.4-.5 2.7-.9 4.1c-.3 1.3-.8 2.5-1.3 3.6l-1.1-.5l3.5 20.3v9H583.3v-.2h-.4c-1.7-.2-3.4-.6-5.4-1.2c-2.7-.8-5.1-1.7-7.2-2.8c-1.3 1.9-2.9 3.2-4.7 3.8c-.9 .2-2.1 .4-3.7 .4H535.6l-.1 .5c-.6 2.8-2.1 5.6-4.5 8.4c-3.2 3.7-6.3 5.5-9.4 5.5c-1.9 0-3.9-.6-6-1.7c-2.2-1.2-5.5-3.5-10-6.9l1.4-1.9c2.4 1.6 4.3 2.6 5.8 3.1c1.3 .5 2.7 .7 4.3 .7c2.1 0 4.2-.6 6.3-1.8c2.4-1.4 5-3.6 7.6-6.7c-.9 .1-1.7 .2-2.3 .2c-2.2 0-3.9-.8-5.2-2.2c-1.2-1.4-1.9-3.3-1.9-5.7c0-3.3 .8-6.5 2.3-9.5c1.6-3.3 3.5-5 5.6-5c1.8 0 3.2 1.2 4.5 3.6c1.2 2.4 1.8 5.3 1.8 8.6v1.8h3.7c1 0 2 .1 2.9 .2c2.4 .2 5.1 .5 8.2 .9c-3.3-.8-5.5-1.7-6.8-2.9c-1.3-1.2-2-2.9-2-5.2c0-3.4 .8-6.5 2.3-9.2c1.6-2.7 3.4-4.1 5.3-4.1c2.2 0 4.2 1.9 5.8 5.7c1.7 3.9 2.5 8.5 2.5 13.9v.7h4.2c2 0 3.5-.2 4.7-.7c1.5-.6 2.5-1.7 3.1-3.2c1.2-2.7 2.8-5 4.8-6.8c1.7-1.6 3.2-2.4 4.4-2.4c1.1 0 2.5 1.7 4.1 5c1.3 2.7 2.1 5.2 2.5 7.6v.5h15.1c-.3-1.4-.7-2.7-1.4-3.7c-.3-.6-1.1-1.6-2.3-3l2.7-7.8c1.6 1.8 2.7 3.8 3.3 5.8c.6 1.8 .8 4.4 .9 7.7v1h11.9l-3.9-22.3l-2.2-1.3c0-1.3 .2-2.6 .6-4c.5-1.6 1.4-3.6 2.6-5.9Zm-342.5 0l1.6 .8c0 .1-.1 .5-.2 1c0 .8 .5 1.5 1.4 2.1c.8 .7 2.1 1.3 3.9 2.1c-.2 1.4-.5 2.7-.9 4.1c-.4 1.3-.8 2.5-1.3 3.6l-1.2-.5l3.6 20.3h1.3c.6 0 1.1 0 1.4 0c.6-.1 1.3-.1 1.9-.2c-1.1-1.6-1.8-3-2.2-4c-.4-1-.6-2.1-.6-3.4c0-3.3 1.4-6.1 4.1-8.6c2.7-2.4 5.9-3.6 9.5-3.6c2.4 0 4.7 .8 6.9 2.4c2.1 1.5 3.6 3.3 4.5 5.4l-1.4 1.2c-1.7-.7-3.1-1.1-4.1-1.3c-1-.2-2.3-.3-3.8-.3c-2.7 0-5 .2-7 .6c-2.5 .6-3.8 1.4-3.8 2.4c0 1.5 3 4 9.1 7.5l16.7-4.8l-3.7 9.3c-5.9 1.9-10.7 3.3-14.6 4.2c-3.3 .9-6.1 1.5-8.5 1.8c-1.6 .3-3.3 .4-5 .4H258.7c-.8 0-1.5 0-1.9 .2c-.5 .1-.8 .3-.8 .5c0 .2 .6 .4 1.6 .9c1.1 .4 1.6 1 1.6 1.9c0 1.2-.2 2.7-.5 4.3c-.4 1.7-.9 3.3-1.5 4.6c-.5 1.1-1.8 2.3-4 3.7c-2.4 1.4-5.1 2.6-8.1 3.6c-3.4 1.1-6.7 1.6-9.8 1.6c-3.5 0-6.2-.8-8-2.5c-1.8-1.6-2.7-4-2.7-7.1c0-3.5 .4-6.5 1.2-9.1c1-3 3.1-7 6.2-12l1.8 1.4c-2.1 3.5-3.5 6.3-4.2 8.4c-.8 2.1-1.2 4.1-1.2 6.1c0 2 .7 3.6 2 4.8c1.3 1.1 3 1.7 5.3 1.7c2.8 0 5.8-.4 9-1.3c2.9-.7 5.4-1.7 7.4-2.7c2.1-1.1 3.1-2 3.1-2.7c0-.2-.6-.4-1.8-.4c-1.2-.1-2.3-.1-3.3-.1c-2.3 0-3.8-.1-4.5-.2c-.7-.2-1-.6-1-1.3c0-1.1 .2-2.4 .6-3.7c.5-1.3 1-2.3 1.6-3c1.4-1.8 3.1-3.3 5.1-4.5c2.2-1.4 4.2-2.1 5.9-2.1h15.5l-4-22.3l-2.1-1.3c0-1.3 .2-2.6 .6-4c.5-1.6 1.3-3.6 2.5-5.9Zm1067.1-.3l7.6 4.1l-3.9 7.3l-7.7-4Zm-790.6 0l7.7 4.1l-4 7.3l-7.6-4Zm130.3-2.3l1.5 .6c0 .2-.1 .4-.2 .9c0 .8 1.1 1.7 3.3 2.7c.7 .4 1.8 .8 3.2 1.4c-.2 1.7-.5 3.3-1 4.8c-.3 .7-.7 1.9-1.3 3.4l-1.2-.4c.7 3.2 1.1 5.4 1.3 6.9c.3 1.5 .4 2.8 .4 4v.4c0 .6 0 1.1-.1 1.4c0 .4-.1 1-.2 1.7c1.1-.8 2.3-1.6 3.4-2.5c1.8-1.2 3.4-2.2 4.8-3c1.8-1 3.2-1.5 4.2-1.5c2.6 0 4.6 .7 6.2 2c1.7 1.5 2.6 3.7 2.6 6.5v15.8H666.5v-9h4.4c.5 0 2-.9 4.4-2.7c.8-.6 2-1.5 3.5-2.7c0-2.7-.1-5-.3-6.9c-.2-1.8-.5-3.8-.9-5.8c-.1-.5-.7-2.9-1.8-7.1l-1.9-1.2c.5-2.3 .9-3.9 1.2-4.9c.4-1 1-2.6 2-4.8Zm212.1-2.4l7.6 4l-3.9 7.4l-7.7-4Zm182-1.6l5.9 3l-3.6 6.1l-4.7-2.6l-2.6 5.2l-6.2-3.4l3.5-5.7l4.8 2.4Zm379.1-.2c.4 0 .7 .1 1 .4c.2 .3 .4 .6 .4 1c0 .4-.1 .7-.2 .9c-.1 .3-.3 .7-.6 1.2c-1.1-.6-1.8-.8-2.2-.8c-.4 0-.8 .1-1.2 .3c-.3 .1-.5 .3-.7 .5c0 .3 .5 .7 1.5 1.3c1.1 .6 1.9 .9 2.3 .9c.3 0 1.1-.2 2.4-.5c-.3 .6-.6 1.1-.9 1.4c-.2 .3-.6 .5-1.1 .6l-7.1 2.2c.4-.8 .8-1.3 1.1-1.6c.4-.3 1-.6 1.8-.8c-.6-.4-1-.8-1.3-1.1c-.3-.4-.4-.7-.4-1c0-.3 .1-.6 .3-1c.1-.4 .4-.7 .6-1.1c1.5-1.9 2.9-2.8 4.3-2.8Zm-1130.5 0c.4 0 .8 .1 1 .4c.3 .3 .4 .6 .4 1c0 .4 0 .7-.1 .9c-.1 .3-.3 .7-.6 1.2c-1.1-.6-1.9-.8-2.3-.8c-.4 0-.8 .1-1.2 .3c-.2 .1-.5 .3-.7 .5c0 .3 .5 .7 1.6 1.3c1 .6 1.8 .9 2.3 .9c.2 0 1-.2 2.3-.5c-.2 .6-.5 1.1-.8 1.5c-.2 .2-.6 .4-1.1 .6l-7.1 2.1c.4-.8 .8-1.3 1.1-1.6c.4-.2 1-.5 1.8-.8c-.6-.4-1.1-.8-1.4-1.1c-.2-.4-.4-.7-.4-1c0-.3 .1-.6 .3-1c.2-.4 .4-.7 .7-1.1c1.4-1.9 2.8-2.8 4.2-2.8Z" class="g1_73"/>
<path fill-rule="evenodd" d="M59.7 331.8c1.1 0 2 .4 2.8 1.2c.8 .8 1.1 1.8 1.1 2.9c0 1.2-.4 2.1-1.2 2.9c-.8 .8-1.7 1.2-2.9 1.2c-1 0-2-.4-2.8-1.2c-.8-.8-1.1-1.8-1.1-2.9c0-1.1 .4-2.1 1.2-2.9c.7-.8 1.7-1.2 2.9-1.2Zm135.6-6.6c-.9 0-1.6 1-2.2 2.9c1.2 .4 2 .8 2.6 1c1.8 .7 2.8 1 3 1c.5 0 .7-.2 .7-.5c0-.5-.4-1.3-1.4-2.5c-1-1.3-1.9-1.9-2.7-1.9Zm-59.1-16.7c2.8 2.2 4.9 4.9 6 8.3c1.1 3 1.7 7.1 1.7 12.2v1.6h10.7c1.8 0 3.1-.1 3.8-.2c.8-.2 1.8-.6 3-1.3c-.7-1.3-1.2-2.2-1.7-2.8c-.6-.7-1.2-1-1.8-1c-.3 0-.5 .1-.7 .2c-.2 .2-.5 .5-.7 1l-1.5-.2c0-4 .7-6.8 2.1-8.5c1.3-1.7 3.5-2.6 6.5-2.6c3 0 5.4 .6 7.1 1.8c1.8 1.2 2.7 2.9 2.7 4.9c0 1.1-.3 2.2-.7 3.2c-.5 1.1-1.4 2.4-2.6 4.2c.3 .4 .7 .7 1.2 1c.5 .2 1 .3 1.5 .3h9.1c1.9 0 3.5-.2 4.7-.7c1.4-.6 2.5-1.7 3-3.2c1.3-2.7 2.9-5 4.8-6.8c1.8-1.6 3.2-2.4 4.4-2.4c1.2 0 2.5 1.7 4.2 5c1.7 3.6 2.6 6.9 2.6 9.9v7.1c-2.3 0-5-.4-8.1-1.3c-2.8-.8-5.2-1.7-7.3-2.8c-1.2 1.9-2.8 3.2-4.7 3.8c-.9 .2-2.1 .4-3.6 .4h-9.1c-1.7 0-3.2-.4-4.5-1.1c-1.3-.7-2.4-1.8-3.2-3.4c-1.1 1.4-2.4 2.4-3.9 3.1l-.4 .2v1.2H129c-1.4 0-2.6-.3-3.3-.9c-1-.8-1.4-2-1.4-3.7c0-1 0-2 .1-3.1c.1-1.1 .3-2.3 .5-3.4l1.2-.1c.2 .8 .6 1.4 1.2 1.7c.6 .4 1.3 .5 2.2 .5h11.3c-.5-3.2-1.4-5.7-2.7-7.7c-1-1.6-2.4-3-4.3-4.1Zm-76-7.2c2.6 0 4.8 .8 6.7 2.3c1.8 1.5 2.7 3.5 2.7 5.9c0 1.3-.4 2.5-1.2 3.6c-.9 1.1-2 1.7-3.4 1.7c-1.1 0-2-.4-2.7-1.1c-.8-.7-1.1-1.5-1.1-2.5c0-1.5 .6-2.6 1.8-3.4c1.2-.7 1.8-1.3 1.8-1.8c0-.7-.4-1.3-1.1-1.8c-.7-.5-1.6-.7-2.7-.7c-1.5 0-2.6 .4-3.5 1.2c-.9 .8-1.4 1.8-1.4 2.9c0 1.1 .5 2.5 1.4 4.2c1.4 2.5 2.2 4.1 2.6 4.9c.9 2.3 1.3 4.8 1.3 7.4c0 1.5-.1 3.1-.3 4.9h-2c0-.4 0-.7 0-1l.2-1.7c0-1.2-.8-2.5-2.4-4c-2.8-2.4-4.3-3.8-4.6-4.1c-1.6-1.9-2.4-4.2-2.4-6.6c0-2.9 1-5.4 2.9-7.3c2-2 4.4-3 7.4-3Zm53.8-4.1l1.5 .7c-.1 .3-.1 .6-.1 1c0 .9 .4 1.6 1.3 2.2c1.4 .7 2.6 1.4 3.8 2.1c-.2 1.9-.5 3.2-.7 4.1c-.3 .8-.8 2-1.5 3.6l-1-.4c0 .3 .3 2.2 .9 5.6c.7 3.4 1.2 6.4 1.6 8.8c.6 3.6 .9 5.7 .9 6.5v7.4c0 3.3-1.7 6.3-5.2 8.9c-3.5 2.6-7.5 3.9-12 3.9c-3.8 0-6.7-.9-8.8-2.8c-2.1-1.9-3.2-4.5-3.2-7.9c0-3.2 .4-6 1.2-8.3c.9-2.7 2.7-6 5.3-9.9l2 1.4c-1.7 2.6-2.9 4.8-3.6 6.7c-.8 1.9-1.1 3.7-1.1 5.6c0 2 .7 3.5 2.2 4.6c1.5 1.1 3.6 1.6 6.3 1.6c3.8 0 6.9-.7 9.4-2.2c2.4-1.5 3.6-3.4 3.6-5.8c0-.5 0-.8 0-1c0-.3 0-.5 0-.6c0-.8-.1-1.8-.2-2.8c-.2-1-.6-3.2-1.1-6.4c-1-5.2-1.9-10.4-2.9-15.6L111 307c0-2.1 1-5.4 3-9.8Z" class="g0_73"/>
<path d="M59.7 331.8c1.1 0 2 .4 2.8 1.2c.8 .8 1.1 1.8 1.1 2.9c0 1.2-.4 2.1-1.2 2.9c-.8 .8-1.7 1.2-2.9 1.2c-1 0-2-.4-2.8-1.2c-.8-.8-1.1-1.8-1.1-2.9c0-1.1 .4-2.1 1.2-2.9c.7-.8 1.7-1.2 2.9-1.2Zm135.6-6.6c-.9 0-1.6 1-2.2 2.9c1.2 .4 2 .8 2.6 1c1.8 .7 2.8 1 3 1c.5 0 .7-.2 .7-.5c0-.5-.4-1.3-1.4-2.5c-1-1.3-1.9-1.9-2.7-1.9Zm-59.1-16.7c2.8 2.2 4.9 4.9 6 8.3c1.1 3 1.7 7.1 1.7 12.2v1.6h10.7c1.8 0 3.1-.1 3.8-.2c.8-.2 1.8-.6 3-1.3c-.7-1.3-1.2-2.2-1.7-2.8c-.6-.7-1.2-1-1.8-1c-.3 0-.5 .1-.7 .2c-.2 .2-.5 .5-.7 1l-1.5-.2c0-4 .7-6.8 2.1-8.5c1.3-1.7 3.5-2.6 6.5-2.6c3 0 5.4 .6 7.1 1.8c1.8 1.2 2.7 2.9 2.7 4.9c0 1.1-.3 2.2-.7 3.2c-.5 1.1-1.4 2.4-2.6 4.2c.3 .4 .7 .7 1.2 1c.5 .2 1 .3 1.5 .3h9.1c1.9 0 3.5-.2 4.7-.7c1.4-.6 2.5-1.7 3-3.2c1.3-2.7 2.9-5 4.8-6.8c1.8-1.6 3.2-2.4 4.4-2.4c1.2 0 2.5 1.7 4.2 5c1.7 3.6 2.6 6.9 2.6 9.9v7.1c-2.3 0-5-.4-8.1-1.3c-2.8-.8-5.2-1.7-7.3-2.8c-1.2 1.9-2.8 3.2-4.7 3.8c-.9 .2-2.1 .4-3.6 .4h-9.1c-1.7 0-3.2-.4-4.5-1.1c-1.3-.7-2.4-1.8-3.2-3.4c-1.1 1.4-2.4 2.4-3.9 3.1l-.4 .2v1.2H129c-1.4 0-2.6-.3-3.3-.9c-1-.8-1.4-2-1.4-3.7c0-1 0-2 .1-3.1c.1-1.1 .3-2.3 .5-3.4l1.2-.1c.2 .8 .6 1.4 1.2 1.7c.6 .4 1.3 .5 2.2 .5h11.3c-.5-3.2-1.4-5.7-2.7-7.7c-1-1.6-2.4-3-4.3-4.1Zm-76-7.2c2.6 0 4.8 .8 6.7 2.3c1.8 1.5 2.7 3.5 2.7 5.9c0 1.3-.4 2.5-1.2 3.6c-.9 1.1-2 1.7-3.4 1.7c-1.1 0-2-.4-2.7-1.1c-.8-.7-1.1-1.5-1.1-2.5c0-1.5 .6-2.6 1.8-3.4c1.2-.7 1.8-1.3 1.8-1.8c0-.7-.4-1.3-1.1-1.8c-.7-.5-1.6-.7-2.7-.7c-1.5 0-2.6 .4-3.5 1.2c-.9 .8-1.4 1.8-1.4 2.9c0 1.1 .5 2.5 1.4 4.2c1.4 2.5 2.2 4.1 2.6 4.9c.9 2.3 1.3 4.8 1.3 7.4c0 1.5-.1 3.1-.3 4.9h-2c0-.4 0-.7 0-1l.2-1.7c0-1.2-.8-2.5-2.4-4c-2.8-2.4-4.3-3.8-4.6-4.1c-1.6-1.9-2.4-4.2-2.4-6.6c0-2.9 1-5.4 2.9-7.3c2-2 4.4-3 7.4-3Zm53.8-4.1l1.5 .7c-.1 .3-.1 .6-.1 1c0 .9 .4 1.6 1.3 2.2c1.4 .7 2.6 1.4 3.8 2.1c-.2 1.9-.5 3.2-.7 4.1c-.3 .8-.8 2-1.5 3.6l-1-.4c0 .3 .3 2.2 .9 5.6c.7 3.4 1.2 6.4 1.6 8.8c.6 3.6 .9 5.7 .9 6.5v7.4c0 3.3-1.7 6.3-5.2 8.9c-3.5 2.6-7.5 3.9-12 3.9c-3.8 0-6.7-.9-8.8-2.8c-2.1-1.9-3.2-4.5-3.2-7.9c0-3.2 .4-6 1.2-8.3c.9-2.7 2.7-6 5.3-9.9l2 1.4c-1.7 2.6-2.9 4.8-3.6 6.7c-.8 1.9-1.1 3.7-1.1 5.6c0 2 .7 3.5 2.2 4.6c1.5 1.1 3.6 1.6 6.3 1.6c3.8 0 6.9-.7 9.4-2.2c2.4-1.5 3.6-3.4 3.6-5.8c0-.5 0-.8 0-1c0-.3 0-.5 0-.6c0-.8-.1-1.8-.2-2.8c-.2-1-.6-3.2-1.1-6.4c-1-5.2-1.9-10.4-2.9-15.6L111 307c0-2.1 1-5.4 3-9.8Z" class="g1_73"/>
<image clip-path="url(#c1_73)" preserveAspectRatio="none" x="1344" y="457" width="108" height="72" href="img/2.jpg"/>
<image clip-path="url(#c2_73)" preserveAspectRatio="none" x="1347" y="550" width="102" height="71" href="img/3.jpg"/>
<image clip-path="url(#c3_73)" preserveAspectRatio="none" x="1347" y="642" width="102" height="74" href="img/4.jpg"/>
<image clip-path="url(#c4_73)" preserveAspectRatio="none" x="1353" y="745" width="96" height="80" href="img/5.jpg"/>
<image clip-path="url(#c5_73)" preserveAspectRatio="none" x="10" y="438" width="823" height="387" href="img/6.jpg"/>
</svg>