<svg viewBox="0 0 1466 825" version="1.1" xmlns="http://www.w3.org/2000/svg">
<defs>
<clipPath id="c0_29"><path d="M-.2 825.3V-.2H1467V825.3Z"/></clipPath>
<clipPath id="c1_29"><path d="M1343.9 529.1V456.4H1452v72.7Z"/></clipPath>
<clipPath id="c2_29"><path d="M1346.3 621.3V549.7h102.9v71.6Z"/></clipPath>
<clipPath id="c3_29"><path d="M1346.4 716.6V641.9h103v74.7Z"/></clipPath>
<clipPath id="c4_29"><path d="M1353 825V744.6h96.2V825Z"/></clipPath>
<clipPath id="c5_29"><path d="M18.9 823.7V449.8H660.5V823.7Z"/></clipPath>
<style>
.g0_29{fill:#F00;}
.g1_29{fill:none;stroke:#000;stroke-width:1.466;stroke-linejoin:round;}
.g2_29{fill:none;stroke:#F00;stroke-width:9.166;stroke-miterlimit:8;}
</style>
</defs>
<image clip-path="url(#c0_29)" preserveAspectRatio="none" x="0" y="-7" width="1467" height="840" href="img/1.jpg"/>
<path fill-rule="evenodd" d="M1241.5 343.3l3.4 2.2l-2.6 3l-2.9-1.8l-2.1 2.2l-3.4-1.8l2.6-3.3l2.9 1.9Zm-112.5 0l3.3 2.2l-2.6 3l-2.8-1.8l-2.1 2.2l-3.4-1.8l2.5-3.3l3 1.9Zm-543.7-2.6l4.2 2.2l-2 3.6l-4.1-2.1l-2 3.6l-4.1-2.2l2-3.7l4.1 2.1Zm719.2-9l6.3 3.3l-3.3 6l-6.2-3.3Zm-251.9 0l6.3 3.3l-3.3 6l-6.2-3.3Zm240.6-.3l5 2.8l-2.8 5.2l-4-2l-2.2 4.3l-4.9-2.7l2.9-5.5l3.9 2.2Zm-202.4 0l5 2.8l-2.8 5.2l-4-2l-2.2 4.3l-4.9-2.7l2.9-5.5l3.9 2.2Zm-650.1-4.9l6.3 3.3l-3.3 6.1l-6.3-3.3Zm296.7-8.7c-.6 0-1 .2-1.3 .7c-.4 .4-.6 .9-.6 1.4c0 .6 .4 1.2 1.1 1.6c.7 .4 1.7 .6 2.8 .6h1c-.5-2.9-1.5-4.3-3-4.3Zm20.6-.2c-.7 0-1.3 .8-1.7 2.5c.9 .3 1.6 .6 2.1 .7c1.4 .6 2.2 .9 2.4 .9c.4 0 .6-.2 .6-.4c0-.4-.4-1.1-1.1-2.1c-.9-1-1.7-1.6-2.3-1.6Zm149.6-4.2c-.3 0-.6 .1-.9 .3c-.3 .3-.4 .5-.4 .9c0 .7 .6 1.5 1.7 2.2c1.2 .7 2.6 1.2 4.1 1.5c-.6-1.6-1.3-2.8-2.1-3.6c-.8-.9-1.6-1.3-2.4-1.3Zm-255.9 0c-.4 0-.7 .1-.9 .3c-.3 .3-.4 .5-.4 .9c0 .7 .5 1.5 1.7 2.2c1.1 .7 2.5 1.2 4.1 1.5c-.6-1.6-1.3-2.8-2.1-3.6c-.8-.9-1.6-1.3-2.4-1.3Zm-17.8 0c-.3 0-.7 .1-.9 .3c-.3 .3-.4 .5-.4 .9c0 .7 .6 1.5 1.7 2.2c1.2 .7 2.5 1.2 4.1 1.5c-.6-1.6-1.3-2.8-2.1-3.6c-.8-.9-1.6-1.3-2.4-1.3Zm771.6-.6c.5 1.1 .8 2.1 1 3c.2 .9 .3 2.1 .3 3.5v10.1c-2 0-3.7-.1-5-.4c-1.3-.3-2.6-.8-3.9-1.4c-1 .8-2 1.2-2.8 1.5c-.8 .2-2 .3-3.6 .3h-4.4c-1.2 0-2.2-.3-2.9-.9c-.7-.6-1.3-1.7-1.9-3.1c-.9 1.5-2 2.5-3.3 3.2c-1 .5-2.2 .8-3.7 .8h-5.4c-3.3 0-6.2 .3-8.7 .8c-2.5 .6-3.8 1.2-3.8 1.9c.7 2.2 1.3 4.2 1.9 6.1c.5 1.9 .8 3.6 .8 5.3c0 1.2-.1 2.2-.4 3c-.2 .7-.7 1.5-1.3 2.4c-.2-2.3-.7-4.8-1.4-7.4c-.2-.9-.8-2.8-1.7-5.8c-.6-1.8-.9-3-.9-3.6c0-.8 .3-1.9 .7-3.1c.4-1 .8-1.9 1.3-2.7c.6-.9 1.6-1.6 3-2.1c1.4-.6 3.6-1 6.5-1.3c-1.4-2-2.6-3-3.7-3c-.5 0-.9 .2-1.3 .5c-.5 .4-1.1 1.2-2.1 2.4l-1.2-.7c.7-2.7 1.7-4.8 2.9-6.3c1.1-1.5 2.4-2.2 3.8-2.2c1.2 0 2.5 .7 4 2.1c1.4 1.3 3.1 3.5 5.1 6.4h1.9c1.9 0 3.5-.5 4.7-1.6c1.6-1.3 2.5-3.4 2.5-6.3l1.7 .3c0 .6 0 1.2-.1 2c0 .7 0 1.5 0 2.4c0 .9 .3 1.7 .9 2.3c.6 .6 1.4 .9 2.2 .9h3.3c2.1 0 3.7-.3 4.6-.9c1.2-.7 1.7-2.1 1.7-4.1c0-.4 .2-.8 .4-1.2c.2-.2 .5-.5 1-.8l1-.9c.1 .4 .1 .8 .1 1.4c0 .6 .1 1 .1 1.2c0 1-.2 2.3-.5 3.9c.7 .3 1.4 .6 2.2 .8c.9 .3 1.7 .4 2.7 .6c0-.6-.3-1.4-.7-2.4c-.5-1-.7-1.6-.7-2c0-.4 .1-.8 .2-1c0-.1 .2-.4 .6-.9Zm-812.2-.9c1 0 1.8 .4 2.4 1.2c.6 .8 .9 1.9 .9 3.2c0 1 0 1.8-.2 2.5c-.2 .6-.7 1.5-1.3 2.5c-.5-1.2-.9-2.1-1.2-2.5c-.4-.3-.8-.5-1.5-.5c-.9 0-2.3 .5-4 1.6c-1.7 1.1-2.5 2-2.5 2.8c0 .4 .3 .7 1 .8c.5 .1 1.2 .2 2.3 .2c.2 0 .5 0 .8 0c.2 0 .5 0 .8 0c1.9 0 3.2 .2 3.9 .6c.5 .3 .8 1 .8 2c0 1.9-.4 3.7-1.1 5.5c-.9 2.2-2.2 3.8-3.9 4.8c-2.1 1.2-4.3 2.2-6.6 2.9c-2.3 .7-4.5 1.1-6.5 1.1c-5.5 0-8.3-2.5-8.3-7.5c0-2.5 .3-4.7 .9-6.5c.7-2.1 2.2-4.8 4.5-8.3l1.2 .8c-1.3 2.2-2.3 4.2-3 6c-.7 1.7-1 3.2-1 4.5c0 3.4 1.9 5.1 5.7 5.1c1.5 0 2.8-.1 4.1-.4c1.3-.2 2.6-.6 3.9-1.1c.9-.3 1.9-.7 3-1.2c1.8-.7 2.7-1.2 2.8-1.2c.8-.4 1.2-.8 1.2-1.2c0-.1-.4-.3-1.3-.3c-.8 0-1.5-.1-1.8-.1c-2.8 0-4.6-.4-5.6-1.2c-.7-.6-1.1-1.8-1.1-3.5c0-.8 .3-1.9 .8-3.1c.5-1.3 1.2-2.5 2.1-3.8c1.3-1.9 2.6-3.3 3.9-4.2c1.3-1 2.6-1.5 3.9-1.5Zm238.2-1.5l1.6 .9c-.4 .8-.8 1.4-1 2c-.3 .6-.5 1.1-.6 1.5c-.3 .9-.4 1.7-.4 2.5c0 1 .3 1.9 .9 2.7c.7 .8 1.6 1.4 2.6 1.6c.6 .2 1.4 .3 2.5 .4c.9 .1 2 .1 3.1 .1h19.5c-.6-1.4-1-2.4-1.3-2.9c-.4-.7-1-1.5-1.8-2.6l2.4-6.2c1.4 1.9 2.2 3.6 2.7 5.2c.3 1.5 .5 3.5 .5 6.2v7.6H839.7c-1.1 0-2 0-2.8 0c-.7 0-1.2-.1-1.6-.1c-.6-.1-1.4-.2-2.2-.6c-1.5-.5-2.8-1.5-3.7-3c-.9-1.6-1.4-3.3-1.4-5.2c0-.7 0-1.5 .1-2.3c.1-.8 .4-1.6 .6-2.5c.4-1.1 .8-2 1.3-2.9c.5-.8 1-1.7 1.5-2.4Zm436-.2c1.3 1.5 2.2 3.1 2.7 4.8c.5 1.7 .7 4.1 .7 7.4v7h-17.6c-.8 0-1.4 0-1.8 .1c-.3 0-.5 .1-.5 .3c.5 .3 1 .5 1.5 .7c.4 .1 .7 .2 .9 .4c.1 .2 .2 .5 .2 .9c0 1.3-.4 2.8-1.1 4.6c-.7 1.7-1.4 2.8-2.1 3.3c-.7 .5-2.6 1.1-5.9 1.9c-3.3 .7-6.1 1.1-8.5 1.1c-3.3 0-6-.7-8.1-2.1c-2.1-1.4-3.1-3.3-3.1-5.5c0-2.2 .4-4.3 1.3-6.3c1.1-2.4 3.2-5.4 6.2-9.1l1.6 1.1c-1.9 2.3-3.2 4.2-3.9 5.6c-.8 1.4-1.1 2.9-1.1 4.2c0 2 .8 3.4 2.4 4.3c1.6 .9 4 1.4 7.3 1.4c1.7 0 4.1-.3 7.2-1c3-.6 4.5-1.1 4.5-1.6c0-.2-.6-.4-1.7-.6c-1.2-.2-2.5-.3-3.9-.3c-2 0-3-.4-3-1.3c0-.4 .2-1.2 .7-2.2c.3-.8 .7-1.5 1-2.2c.7-1.5 2-2.7 3.8-3.6c1.9-.9 3.9-1.4 5.9-1.4h15.2c-.2-1.2-.6-2.2-1.1-3.1c-.3-.4-.9-1.2-1.9-2.4Zm-197.7-.7c2.5 0 4.4 .5 5.8 1.5c1.5 1 2.2 2.3 2.2 4c0 .9-.2 1.8-.6 2.6c-.4 .9-1.1 2-2.1 3.4c.2 .4 .6 .6 1 .8c.4 .2 .8 .3 1.2 .3h16.3c-.2-1.2-.6-2.2-1.1-3.1c-.3-.4-.9-1.2-1.9-2.4l2.1-6.4c1.4 1.5 2.3 3.1 2.8 4.8c.5 1.7 .7 4.1 .7 7.4v7h-18.9c-1.4 0-2.6-.3-3.7-.8c-1.1-.6-1.9-1.5-2.6-2.8c-1.2 1.4-2.7 2.4-4.5 3c-1.3 .4-2.6 .6-4.1 .6h-15.8v.6c0 1.1-.6 2.6-1.9 4.4c-1.2 1.8-2.7 3.3-4.4 4.7c-1.8 1.4-3.4 2.2-4.8 2.2c-1.5 0-3.2-.5-5-1.4c-1.6-.7-4.1-2.3-7.4-4.6l1.1-1.7c1.6 1.1 2.9 1.8 3.9 2.2c1 .4 2.1 .6 3.2 .6c1.2 0 2.5-.4 3.7-1.1c1.2-.7 2.9-2 5.1-3.9c2.9-2.6 4.4-4.7 4.4-6.1c0-.7-.3-1.6-.8-2.8c-.7-1.3-1.5-2.4-2.4-3.3l1.5-7.3c1.2 1.3 2.2 2.7 2.8 4.4c.7 1.6 1 3.4 1 5.5v.3h12.3c-.2-1.2-.6-2.2-1.1-3.1c-.2-.4-.9-1.2-1.9-2.4l2.2-6.4c1.3 1.5 2.3 3.1 2.7 4.8c.5 1.5 .7 3.5 .8 6.2v.9h.8c1.5 0 2.6-.1 3.2-.2c.6-.2 1.4-.5 2.4-1.1c-.5-1-1-1.8-1.4-2.2c-.5-.6-1-.9-1.5-.9c-.2 0-.4 .1-.5 .2c-.2 .2-.4 .4-.6 .8l-1.2-.2c0-3.2 .5-5.5 1.7-6.9c1.1-1.4 2.9-2.1 5.3-2.1Zm-145.6-.4c-.5 0-1 .2-1.4 .7c-.5 .5-.7 1.1-.7 1.7c0 .4 .2 .8 .5 1c.3 .3 .8 .5 1.3 .5c.4 0 .8-.2 1.2-.4c.5-.2 1-.7 1.6-1.3c-.5-.8-.9-1.4-1.3-1.7c-.4-.3-.8-.5-1.2-.5Zm-484.5-.8c.7 0 1.9 .1 3.8 .3c1.8 .2 3.5 .4 4.9 .5c2.8 .2 5.4 .3 8.1 .3l-1.6 6.5c-1.1 0-2 0-2.8 .2c-1 .2-1.9 .3-2.7 .5c0 .4-.1 .7-.1 1.2c-.1 .4-.1 .7-.1 1c0 1.2 .4 2.1 1.3 2.6c.8 .5 2.4 .7 4.6 .7h16.6c-.2-1.2-.6-2.2-1.1-3.1c-.3-.4-.9-1.2-1.9-2.4l2.2-6.4c1.3 1.5 2.2 3.1 2.7 4.8c.5 1.5 .7 3.5 .8 6.2v.9h12.1c-.2-1.2-.5-2.2-1-3.1c-.3-.4-.9-1.2-1.9-2.4l2.1-6.4c1.4 1.5 2.3 3.1 2.8 4.8c.4 1.5 .6 3.5 .7 6.2v.9h12.2c-.2-1.2-.6-2.2-1.1-3.1c-.3-.4-.9-1.2-1.9-2.4l2.2-6.4c1.3 1.5 2.2 3.1 2.7 4.8c.5 1.5 .7 3.5 .8 6.2v.9h1.8c1.9 0 3.5-.5 4.7-1.6c1.7-1.3 2.5-3.4 2.5-6.3l1.8 .3c-.1 .6-.1 1.2-.1 2c-.1 .7-.1 1.5-.1 2.4c0 .9 .3 1.7 .9 2.3c.7 .6 1.4 .9 2.2 .9h3.3c2.2 0 3.7-.3 4.7-.9c1.1-.7 1.6-2.1 1.6-4.1c0-.4 .2-.8 .5-1.2c.1-.2 .5-.5 1-.8l1-.9c0 .4 0 .8 .1 1.4c0 .6 0 1 0 1.2c0 1-.2 2.3-.5 3.9c.7 .3 1.4 .6 2.3 .8c.8 .3 1.7 .4 2.6 .6c0-.6-.2-1.4-.7-2.4c-.4-1-.7-1.6-.7-2c0-.4 .1-.8 .2-1c.1-.1 .3-.4 .6-.9l2.3-3c.5 1.1 .8 2.1 1 3c.3 .9 .3 2.1 .3 3.5v10.1c-2 0-3.6-.1-5-.4c-1.3-.3-2.6-.8-3.9-1.4c-1 .8-1.9 1.2-2.7 1.5c-.9 .2-2.1 .3-3.7 .3h-4.4c-1.2 0-2.1-.3-2.8-.9c-.7-.6-1.4-1.7-1.9-3.1c-1 1.5-2.1 2.5-3.3 3.2c-1.1 .5-2.3 .8-3.8 .8H455.2c-3.2 0-5.3-.4-6.5-1.4c-1.1-.9-1.7-2.6-1.7-5.1c0-1.1 .1-2.2 .2-3.3c.1-.3 .2-1.2 .5-2.5c-4.1 .9-7.4 2.6-9.9 4.9c-2.6 2.4-3.9 5.1-3.9 8.2c0 3.6 1.5 6.3 4.6 8.3c3.1 1.9 7.5 2.9 13.3 2.9c1.7 0 4.1-.2 7.3-.5l.5 .8l-10.2 6.6h-2.6c-5.3 0-9.3-1.3-12.1-3.9c-2.9-2.7-4.3-6.5-4.3-11.4c0-3.7 .9-7.2 2.6-10.4c1.7-3.2 3.9-5.5 6.5-7h-.6c-1.6 0-3 .2-4.1 .5c-1.1 .3-2.7 1.1-4.9 2.2c.8-6.7 4.1-10 9.8-10Zm550.4-2.4c2 0 3.9 .6 5.7 1.9c1.7 1.3 2.9 2.7 3.6 4.5l-1.1 .9c-1.4-.5-2.5-.9-3.4-1c-.8-.2-1.8-.3-3-.3c-2.3 0-4.2 .2-5.8 .6c-2.1 .4-3.1 1.1-3.1 1.9c0 1.2 2.5 3.3 7.5 6.1l13.6-3.9l-3 7.6c-4.8 1.5-8.8 2.7-11.9 3.5c-2.8 .7-5.1 1.2-7 1.4c-1.4 .2-2.7 .3-4.1 .3h-.5l-.1 .5c0 1.6-.3 3-.6 4.1c-.5 1.5-1.3 2.8-2.4 3.7c-1.1 .9-2.7 1.6-4.9 2.2c-2.1 .6-4.3 .9-6.5 .9c-4.4 0-7.7-.8-10.1-2.4c-2.3-1.6-3.5-3.8-3.5-6.8c0-2.4 .4-4.7 1.1-6.8c.9-2.2 2.5-5.2 4.9-8.8l1.6 1.1c-1.8 3-3 5.2-3.5 6.6c-.6 1.3-.8 2.7-.8 4.2c0 1.9 1 3.4 3 4.6c2 1.2 4.7 1.8 7.9 1.8c3.3 0 6-.6 8.2-1.9c2.2-1.2 3.3-2.7 3.3-4.5c0-1.1-.2-2.2-.6-3.3c-.4-1.1-1.2-2.8-2.5-5.2l2.4-7.3c1.2 2.3 2 3.8 2.3 4.7c.5 1.4 .7 3 .8 5.1v.2h1c.5 0 .9 0 1.1 0c.6-.1 1.1-.1 1.6-.2c-.9-1.3-1.5-2.4-1.8-3.2c-.3-.9-.5-1.8-.5-2.8c0-2.7 1.1-5 3.4-7c2.2-2 4.7-3 7.7-3ZM712.5 304c2.4 1.8 4 4 5 6.7c.9 2.6 1.3 5.9 1.3 10.1v8.6H706.7c-1.2 0-2.1-.2-2.8-.7c-.7-.6-1.1-1.6-1.1-3c0-.8 0-1.6 .1-2.6c.1-.9 .2-1.8 .4-2.7l1-.1c.1 .6 .4 1.1 .9 1.4c.5 .3 1.1 .4 1.8 .4h9.3c-.4-2.6-1.2-4.7-2.2-6.3c-.8-1.3-2-2.4-3.5-3.4Zm250-.4l6.2 3.4l-3.2 6l-6.3-3.3Zm-37.8-1.3c1.9 0 3.6 1.6 5.3 4.9c1.7 3.3 2.5 6.7 2.5 10.4v11.8H897.9v.6c0 1.1-.6 2.6-1.9 4.4c-1.2 1.8-2.7 3.3-4.4 4.7c-1.8 1.4-3.4 2.2-4.7 2.2c-1.6 0-3.3-.5-5.1-1.4c-1.6-.7-4-2.3-7.4-4.6l1.1-1.7c1.6 1.1 2.9 1.8 3.9 2.2c1 .4 2.1 .6 3.2 .6c1.3 0 2.5-.4 3.7-1.1c1.3-.7 2.9-2 5.1-3.9c2.9-2.6 4.4-4.7 4.4-6.1c0-.7-.2-1.6-.8-2.8c-.7-1.3-1.5-2.4-2.4-3.3l1.5-7.3c1.2 1.3 2.2 2.7 2.8 4.4c.7 1.6 1 3.4 1 5.5v.3h3c.8 0 1.6 0 2.4 .1c1.9 .2 4.2 .5 6.7 .8c-2.7-.6-4.5-1.4-5.6-2.4c-1.1-1-1.6-2.4-1.6-4.3c0-2.7 .6-5.2 1.9-7.5c1.3-2.2 2.7-3.3 4.3-3.3c1.8 0 3.4 1.6 4.8 4.7c1.3 3.1 2 6.9 2 11.3v.6H930c0-1.5-.1-2.7-.1-3.3c-.2-1-.5-1.9-.9-2.7c-.6 1.1-1.4 2-2.3 2.6c-1 .6-2 .9-3.1 .9c-1.5 0-2.7-.5-3.7-1.5c-.9-.9-1.4-2.1-1.4-3.5c0-2.1 .6-4.6 1.9-7.5c1.4-3.2 2.8-4.8 4.3-4.8Zm-77-1.1l5 2.7l-2.8 5.2l-4-1.9l-2.2 4.3l-4.9-2.7l2.9-5.5l3.9 2.1Zm330.9-3.2l5 2.7l-2.8 5.2l-4-2l-2.2 4.4l-4.9-2.8l3-5.4l3.8 2.1Zm-680 0l5 2.7l-2.8 5.2l-3.9-2l-2.3 4.4l-4.9-2.8l3-5.4l3.8 2.1Zm-29.7 0l5 2.7l-2.8 5.2l-3.9-2l-2.3 4.4l-4.9-2.8l3-5.4l3.8 2.1Zm795.9-1.2l6.3 3.4l-3.2 6l-6.3-3.3Zm-781.7 0l6.3 3.4l-3.2 6l-6.3-3.3Zm967.3 0l1.6 9.5c.6 3.6 1 6.8 1.2 9.4c.2 2.1 .3 4 .3 5.9c0 1.6-.2 3.1-.6 4.4c-.3 1.3-1.1 3.1-2.1 5.3l-1.6-.7c.4-2.3 .6-4.1 .6-5.5c0-1.1-.1-2.8-.3-4.9c-.1-2.1-.4-4.2-.6-6.2c-.3-2.1-.7-4.6-1.4-7.4c-.2-1-.3-1.7-.3-2.1c0-.5 .3-1.5 .9-2.8c.5-1.4 1.3-3 2.3-4.9Zm-117.4 0l1.7 9.5c.6 3.6 1 6.8 1.2 9.4c.2 2.1 .3 4 .3 5.9c0 1.6-.2 3.1-.6 4.4c-.4 1.3-1.1 3.1-2.2 5.3l-1.6-.7c.5-2.3 .7-4.1 .7-5.5c0-1.1-.1-2.8-.3-4.9c-.2-2.1-.4-4.2-.7-6.2c-.2-2.1-.7-4.6-1.3-7.4c-.2-1-.3-1.7-.3-2.1c0-.5 .3-1.5 .8-2.8c.6-1.4 1.4-3 2.3-4.9Zm-129.4 0l1.6 9.5c.6 3.6 1 6.8 1.3 9.4c.2 2.1 .2 4 .2 5.9c0 1.6-.2 3.1-.5 4.4c-.4 1.3-1.1 3.1-2.2 5.3l-1.6-.7c.4-2.3 .6-4.1 .6-5.5c0-1.1-.1-2.8-.2-4.9c-.2-2.1-.4-4.2-.7-6.2c-.3-2.1-.7-4.6-1.3-7.4c-.2-1-.3-1.7-.3-2.1c0-.5 .2-1.5 .8-2.8c.5-1.4 1.3-3 2.3-4.9Zm-334.6 0l1.7 9.5c.5 3.6 1 6.8 1.2 9.4c.2 2.1 .2 4 .2 5.9c0 1.6-.1 3.1-.5 4.4c-.4 1.3-1.1 3.1-2.2 5.3l-1.6-.7c.4-2.3 .7-4.1 .7-5.5c0-1.1-.1-2.8-.3-4.9c-.2-2.1-.4-4.2-.7-6.2c-.3-2.1-.7-4.6-1.3-7.4c-.2-1-.3-1.7-.3-2.1c0-.5 .2-1.5 .8-2.8c.6-1.4 1.3-3 2.3-4.9Zm-63 0l1.6 9.5c.6 3.6 1 6.8 1.2 9.4c.2 2.1 .3 4 .3 5.9c0 1.6-.2 3.1-.6 4.4c-.4 1.3-1.1 3.1-2.2 5.3l-1.6-.7c.5-2.3 .7-4.1 .7-5.5c0-1.1-.1-2.8-.3-4.9c-.2-2.1-.4-4.2-.7-6.2c-.2-2.1-.7-4.6-1.3-7.4c-.2-1-.3-1.7-.3-2.1c0-.5 .3-1.5 .8-2.8c.6-1.4 1.4-3 2.4-4.9Zm-126.5 0l1.6 9.5c.6 3.6 1 6.8 1.2 9.4c.2 2.1 .3 4 .3 5.9c0 1.6-.2 3.1-.6 4.4c-.4 1.3-1.1 3.1-2.2 5.3l-1.6-.7c.5-2.3 .7-4.1 .7-5.5c0-1.1-.1-2.8-.3-4.9c-.2-2.1-.4-4.2-.7-6.2c-.2-2.1-.7-4.6-1.3-7.4c-.2-1-.3-1.7-.3-2.1c0-.5 .3-1.5 .8-2.8c.6-1.4 1.4-3 2.4-4.9Zm-135.2 0l1.7 9.5c.6 3.6 1 6.8 1.2 9.4c.2 2.1 .3 4 .3 5.9c0 1.6-.2 3.1-.6 4.4c-.4 1.3-1.1 3.1-2.2 5.3l-1.6-.7c.5-2.3 .7-4.1 .7-5.5c0-1.1-.1-2.8-.3-4.9c-.2-2.1-.4-4.2-.7-6.2c-.2-2.1-.7-4.6-1.3-7.4c-.2-1-.3-1.7-.3-2.1c0-.5 .3-1.5 .8-2.8c.6-1.4 1.4-3 2.3-4.9Zm893.7-2.1l1.2 .6c0 .2 0 .4-.1 .9c0 .6 .4 1.2 1.2 1.7c.6 .5 1.7 1.1 3.1 1.7c-.1 1.1-.4 2.2-.7 3.3c-.3 1.1-.6 2.1-1 3l-1-.4l2.9 16.6v7.3h-12.9v.6c0 1.1-.6 2.6-1.9 4.4c-1.2 1.8-2.7 3.3-4.4 4.7c-1.9 1.4-3.4 2.2-4.8 2.2c-1.5 0-3.2-.5-5-1.4c-1.6-.7-4.1-2.3-7.4-4.6l1.1-1.7c1.6 1.1 2.9 1.8 3.9 2.2c1 .4 2 .6 3.2 .6c1.2 0 2.5-.4 3.7-1.1c1.2-.7 2.9-2 5-3.9c3-2.6 4.5-4.7 4.5-6.1c0-.7-.3-1.6-.9-2.8c-.6-1.3-1.4-2.4-2.3-3.3l1.5-7.3c1.2 1.3 2.1 2.7 2.8 4.4c.7 1.6 1 3.4 1 5.5v.3h9.7l-3.2-18.2l-1.8-1.1c0-1.1 .2-2.2 .5-3.2c.4-1.4 1.1-3 2.1-4.9Zm-117.3 0l1.2 .6c0 .2 0 .4-.1 .9c0 .6 .4 1.2 1.1 1.7c.7 .5 1.8 1.1 3.2 1.7c-.2 1.1-.4 2.2-.7 3.3c-.3 1.1-.7 2.1-1.1 3l-.9-.4l2.9 16.6v7.3H1280c-2.1 0-3.6-.8-4.5-2.6c-1.1-1.9-1.6-5-1.6-9.5v-7.7c0-1.7-.2-3.1-.7-4.1c-.3-.4-.8-1.1-1.6-2l2.9-6.7c1 1.5 1.7 2.9 2.1 4.3c.5 1.6 .8 3.7 .8 6.2v5.3c0 3.7 .2 6.3 .7 7.8c.4 1.1 1 1.7 1.9 1.7h16c-.2-1.2-.6-2.2-1.1-3.1c-.3-.4-.9-1.2-1.9-2.4l2.1-6.4c1.4 1.5 2.3 3.1 2.8 4.8c.4 1.5 .7 3.5 .7 6.2v.9h12.2c-.2-1.2-.6-2.2-1.1-3.1c-.2-.4-.9-1.2-1.9-2.4l2.2-6.4c1.3 1.5 2.3 3.1 2.7 4.8c.5 1.5 .7 3.5 .8 6.2v.9h9.6l-3.3-18.2l-1.7-1.1c0-1.1 .2-2.2 .5-3.2c.4-1.4 1.1-3 2.1-4.9Zm-129.5 0l1.3 .6c0 .2-.1 .4-.1 .9c0 .6 .4 1.2 1.1 1.7c.7 .5 1.7 1.1 3.2 1.7c-.2 1.1-.4 2.2-.7 3.3c-.4 1.1-.7 2.1-1.1 3l-1-.4l3 16.6v7.3h-31.5c-2.1 0-3.6-.8-4.5-2.6c-1.1-1.9-1.6-5-1.6-9.5v-7.7c0-1.7-.2-3.1-.7-4.1c-.2-.4-.8-1.1-1.6-2l2.9-6.7c1 1.5 1.7 2.9 2.2 4.3c.4 1.6 .7 3.7 .7 6.2v5.3c0 3.7 .2 6.3 .7 7.8c.4 1.1 1 1.7 1.9 1.7h16c-.2-1.2-.6-2.2-1.1-3.1c-.3-.4-.9-1.2-1.9-2.4l2.2-6.4c1.3 1.5 2.2 3.1 2.7 4.8c.4 1.5 .7 3.5 .7 6.2v.9h9.6l-3.2-18.2l-1.7-1.1c0-1.1 .1-2.2 .4-3.2c.5-1.4 1.2-3 2.1-4.9Zm-40.5 0l1.3 .6c0 .2-.1 .4-.1 .9c0 .6 .3 1.2 1.1 1.7c.6 .5 1.7 1.1 3.1 1.7c-.1 1.1-.4 2.2-.7 3.3c-.3 1.1-.6 2.1-1 3l-1-.4l2.9 16.6v7.3h-15.6c-.8 0-1.4 0-1.7 .1c-.4 0-.5 .1-.5 .3c.5 .3 1 .5 1.4 .7c.5 .1 .8 .2 .9 .4c.2 .2 .2 .5 .2 .9c0 1.3-.3 2.8-1 4.6c-.8 1.7-1.5 2.8-2.2 3.3c-.7 .5-2.6 1.1-5.9 1.9c-3.3 .7-6.1 1.1-8.4 1.1c-3.4 0-6.1-.7-8.2-2.1c-2.1-1.4-3.1-3.3-3.1-5.5c0-2.2 .5-4.3 1.4-6.3c1.1-2.4 3.1-5.4 6.1-9.1l1.6 1.1c-1.9 2.3-3.2 4.2-3.9 5.6c-.7 1.4-1.1 2.9-1.1 4.2c0 2 .8 3.4 2.4 4.3c1.6 .9 4 1.4 7.3 1.4c1.8 0 4.1-.3 7.2-1c3-.6 4.6-1.1 4.6-1.6c0-.2-.6-.4-1.8-.6c-1.2-.2-2.4-.3-3.8-.3c-2.1 0-3.1-.4-3.1-1.3c0-.4 .2-1.2 .7-2.2c.4-.8 .7-1.5 1.1-2.2c.6-1.5 1.9-2.7 3.8-3.6c1.9-.9 3.8-1.4 5.8-1.4h12.6l-3.2-18.2l-1.7-1.1c0-1.1 .1-2.2 .4-3.2c.4-1.4 1.1-3 2.1-4.9Zm-357.1 0l1.2 .6c0 .2 0 .4-.1 .9c0 .6 .4 1.2 1.1 1.7c.7 .5 1.8 1.1 3.2 1.7c-.1 1.1-.4 2.2-.7 3.3c-.3 1.1-.7 2.1-1.1 3l-.9-.4l2.9 16.6v7.3H782.4c-1.4 0-2.7-.3-3.8-.8c-1.1-.6-1.9-1.5-2.6-2.8c-1.1 1.4-2.7 2.4-4.5 3c-1.3 .4-2.6 .6-4 .6h-2.9v-.1l-.4-.1c-1.3-.1-2.8-.5-4.4-.9c-2.3-.7-4.2-1.4-5.9-2.3c-1.1 1.6-2.3 2.6-3.9 3.1c-.7 .2-1.7 .3-3 .3h-3.7l-.6 2.8c-.7 1.5-1.7 3-2.9 4.5c-2.7 3-5.2 4.5-7.8 4.5c-1.5 0-3.1-.5-4.9-1.4c-1.7-1-4.4-2.8-8.1-5.6l1.1-1.6c2 1.3 3.6 2.2 4.8 2.6c1 .4 2.2 .5 3.5 .5c1.7 0 3.4-.4 5.1-1.4c2-1.2 4.1-3 6.3-5.6c-.8 .2-1.4 .2-1.9 .2c-1.8 0-3.2-.6-4.3-1.7c-1-1.2-1.5-2.7-1.5-4.7c0-2.7 .6-5.3 1.8-7.8c1.4-2.7 2.9-4.1 4.6-4.1c1.4 0 2.7 1 3.7 3c1 1.9 1.5 4.3 1.5 7v1.5H747c1.6 0 2.9-.2 3.9-.6c1.2-.5 2-1.3 2.5-2.6c1-2.3 2.3-4.1 3.9-5.6c1.4-1.3 2.6-2 3.6-2c.9 0 2.1 1.4 3.4 4.2c1.1 2.2 1.7 4.2 2 6.2v.4h1.2c1.4 0 2.5-.1 3.1-.2c.6-.2 1.4-.5 2.4-1.1c-.5-1-1-1.8-1.4-2.2c-.5-.6-1-.9-1.5-.9c-.2 0-.4 .1-.5 .2c-.2 .2-.4 .4-.6 .8l-1.2-.2c0-3.2 .6-5.5 1.7-6.9c1.1-1.4 2.9-2.1 5.3-2.1c2.5 0 4.4 .5 5.8 1.5c1.5 1 2.2 2.3 2.2 4c0 .9-.2 1.8-.6 2.6c-.3 .9-1.1 2-2.1 3.4c.3 .4 .6 .6 1 .8c.5 .2 .9 .3 1.3 .3H796l-3.3-18.2l-1.7-1.1c0-1.1 .2-2.2 .5-3.2c.4-1.4 1.1-3 2.1-4.9Zm-126.5 0l1.2 .6c0 .2 0 .4-.1 .9c0 .6 .4 1.2 1.1 1.7c.7 .5 1.8 1.1 3.2 1.7c-.1 1.1-.4 2.2-.7 3.3c-.3 1.1-.7 2.1-1.1 3l-.9-.4l2.9 16.6v7.3H624.2v.6c0 1.1-.6 2.6-1.9 4.4c-1.2 1.8-2.7 3.3-4.4 4.7c-1.8 1.4-3.4 2.2-4.8 2.2c-1.5 0-3.2-.5-5-1.4c-1.6-.7-4.1-2.3-7.4-4.6l1.1-1.7c1.6 1.1 2.9 1.8 3.9 2.2c1 .4 2 .6 3.2 .6c1.2 0 2.5-.4 3.7-1.1c1.2-.7 2.9-2 5.1-3.9c2.9-2.6 4.4-4.7 4.4-6.1c0-.7-.3-1.6-.8-2.8c-.7-1.3-1.5-2.4-2.4-3.3l1.5-7.3c1.2 1.3 2.2 2.7 2.8 4.4c.7 1.6 1 3.4 1 5.5v.3h3c.8 0 1.6 0 2.3 .1c2 .2 4.3 .5 6.8 .8c-2.7-.6-4.5-1.4-5.6-2.4c-1.1-1-1.6-2.4-1.6-4.3c0-2.7 .6-5.2 1.9-7.5c1.3-2.2 2.7-3.3 4.3-3.3c1.8 0 3.4 1.6 4.7 4.7c1.4 3.1 2.1 6.9 2.1 11.3v.6H645c.8 0 1.6 0 2.3 .1c2 .2 4.2 .5 6.8 .8c-2.7-.6-4.6-1.4-5.6-2.4c-1.1-1-1.6-2.4-1.6-4.3c0-2.7 .6-5.2 1.9-7.5c1.3-2.2 2.7-3.3 4.3-3.3c1.8 0 3.4 1.6 4.7 4.7c1.4 3.1 2.1 6.9 2.1 11.3v.6h9.6l-3.3-18.2l-1.7-1.1c0-1.1 .2-2.2 .5-3.2c.4-1.4 1.1-3 2.1-4.9Zm-16.1-.3l6.2 3.4l-3.2 6l-6.3-3.3Zm256.5 0l5 2.7l-2.8 5.2l-4-2l-2.2 4.4l-4.9-2.7l2.9-5.5l3.8 2.1Zm-273.7 0l4.9 2.7l-2.7 5.2l-4-2l-2.3 4.4l-4.9-2.7l3-5.5l3.8 2.1Zm288.5-3.8l6.3 3.3l-3.2 6l-6.3-3.3Z" class="g0_29"/>
<path d="M1241.5 343.3l3.4 2.2l-2.6 3l-2.9-1.8l-2.1 2.2l-3.4-1.8l2.6-3.3l2.9 1.9Zm-112.5 0l3.3 2.2l-2.6 3l-2.8-1.8l-2.1 2.2l-3.4-1.8l2.5-3.3l3 1.9Zm-543.7-2.6l4.2 2.2l-2 3.6l-4.1-2.1l-2 3.6l-4.1-2.2l2-3.7l4.1 2.1Zm719.2-9l6.3 3.3l-3.3 6l-6.2-3.3Zm-251.9 0l6.3 3.3l-3.3 6l-6.2-3.3Zm240.6-.3l5 2.8l-2.8 5.2l-4-2l-2.2 4.3l-4.9-2.7l2.9-5.5l3.9 2.2Zm-202.4 0l5 2.8l-2.8 5.2l-4-2l-2.2 4.3l-4.9-2.7l2.9-5.5l3.9 2.2Zm-650.1-4.9l6.3 3.3l-3.3 6.1l-6.3-3.3Zm296.7-8.7c-.6 0-1 .2-1.3 .7c-.4 .4-.6 .9-.6 1.4c0 .6 .4 1.2 1.1 1.6c.7 .4 1.7 .6 2.8 .6h1c-.5-2.9-1.5-4.3-3-4.3Zm20.6-.2c-.7 0-1.3 .8-1.7 2.5c.9 .3 1.6 .6 2.1 .7c1.4 .6 2.2 .9 2.4 .9c.4 0 .6-.2 .6-.4c0-.4-.4-1.1-1.1-2.1c-.9-1-1.7-1.6-2.3-1.6Zm149.6-4.2c-.3 0-.6 .1-.9 .3c-.3 .3-.4 .5-.4 .9c0 .7 .6 1.5 1.7 2.2c1.2 .7 2.6 1.2 4.1 1.5c-.6-1.6-1.3-2.8-2.1-3.6c-.8-.9-1.6-1.3-2.4-1.3Zm-255.9 0c-.4 0-.7 .1-.9 .3c-.3 .3-.4 .5-.4 .9c0 .7 .5 1.5 1.7 2.2c1.1 .7 2.5 1.2 4.1 1.5c-.6-1.6-1.3-2.8-2.1-3.6c-.8-.9-1.6-1.3-2.4-1.3Zm-17.8 0c-.3 0-.7 .1-.9 .3c-.3 .3-.4 .5-.4 .9c0 .7 .6 1.5 1.7 2.2c1.2 .7 2.5 1.2 4.1 1.5c-.6-1.6-1.3-2.8-2.1-3.6c-.8-.9-1.6-1.3-2.4-1.3Zm771.6-.6c.5 1.1 .8 2.1 1 3c.2 .9 .3 2.1 .3 3.5v10.1c-2 0-3.7-.1-5-.4c-1.3-.3-2.6-.8-3.9-1.4c-1 .8-2 1.2-2.8 1.5c-.8 .2-2 .3-3.6 .3h-4.4c-1.2 0-2.2-.3-2.9-.9c-.7-.6-1.3-1.7-1.9-3.1c-.9 1.5-2 2.5-3.3 3.2c-1 .5-2.2 .8-3.7 .8h-5.4c-3.3 0-6.2 .3-8.7 .8c-2.5 .6-3.8 1.2-3.8 1.9c.7 2.2 1.3 4.2 1.9 6.1c.5 1.9 .8 3.6 .8 5.3c0 1.2-.1 2.2-.4 3c-.2 .7-.7 1.5-1.3 2.4c-.2-2.3-.7-4.8-1.4-7.4c-.2-.9-.8-2.8-1.7-5.8c-.6-1.8-.9-3-.9-3.6c0-.8 .3-1.9 .7-3.1c.4-1 .8-1.9 1.3-2.7c.6-.9 1.6-1.6 3-2.1c1.4-.6 3.6-1 6.5-1.3c-1.4-2-2.6-3-3.7-3c-.5 0-.9 .2-1.3 .5c-.5 .4-1.1 1.2-2.1 2.4l-1.2-.7c.7-2.7 1.7-4.8 2.9-6.3c1.1-1.5 2.4-2.2 3.8-2.2c1.2 0 2.5 .7 4 2.1c1.4 1.3 3.1 3.5 5.1 6.4h1.9c1.9 0 3.5-.5 4.7-1.6c1.6-1.3 2.5-3.4 2.5-6.3l1.7 .3c0 .6 0 1.2-.1 2c0 .7 0 1.5 0 2.4c0 .9 .3 1.7 .9 2.3c.6 .6 1.4 .9 2.2 .9h3.3c2.1 0 3.7-.3 4.6-.9c1.2-.7 1.7-2.1 1.7-4.1c0-.4 .2-.8 .4-1.2c.2-.2 .5-.5 1-.8l1-.9c.1 .4 .1 .8 .1 1.4c0 .6 .1 1 .1 1.2c0 1-.2 2.3-.5 3.9c.7 .3 1.4 .6 2.2 .8c.9 .3 1.7 .4 2.7 .6c0-.6-.3-1.4-.7-2.4c-.5-1-.7-1.6-.7-2c0-.4 .1-.8 .2-1c0-.1 .2-.4 .6-.9Zm-812.2-.9c1 0 1.8 .4 2.4 1.2c.6 .8 .9 1.9 .9 3.2c0 1 0 1.8-.2 2.5c-.2 .6-.7 1.5-1.3 2.5c-.5-1.2-.9-2.1-1.2-2.5c-.4-.3-.8-.5-1.5-.5c-.9 0-2.3 .5-4 1.6c-1.7 1.1-2.5 2-2.5 2.8c0 .4 .3 .7 1 .8c.5 .1 1.2 .2 2.3 .2c.2 0 .5 0 .8 0c.2 0 .5 0 .8 0c1.9 0 3.2 .2 3.9 .6c.5 .3 .8 1 .8 2c0 1.9-.4 3.7-1.1 5.5c-.9 2.2-2.2 3.8-3.9 4.8c-2.1 1.2-4.3 2.2-6.6 2.9c-2.3 .7-4.5 1.1-6.5 1.1c-5.5 0-8.3-2.5-8.3-7.5c0-2.5 .3-4.7 .9-6.5c.7-2.1 2.2-4.8 4.5-8.3l1.2 .8c-1.3 2.2-2.3 4.2-3 6c-.7 1.7-1 3.2-1 4.5c0 3.4 1.9 5.1 5.7 5.1c1.5 0 2.8-.1 4.1-.4c1.3-.2 2.6-.6 3.9-1.1c.9-.3 1.9-.7 3-1.2c1.8-.7 2.7-1.2 2.8-1.2c.8-.4 1.2-.8 1.2-1.2c0-.1-.4-.3-1.3-.3c-.8 0-1.5-.1-1.8-.1c-2.8 0-4.6-.4-5.6-1.2c-.7-.6-1.1-1.8-1.1-3.5c0-.8 .3-1.9 .8-3.1c.5-1.3 1.2-2.5 2.1-3.8c1.3-1.9 2.6-3.3 3.9-4.2c1.3-1 2.6-1.5 3.9-1.5Zm238.2-1.5l1.6 .9c-.4 .8-.8 1.4-1 2c-.3 .6-.5 1.1-.6 1.5c-.3 .9-.4 1.7-.4 2.5c0 1 .3 1.9 .9 2.7c.7 .8 1.6 1.4 2.6 1.6c.6 .2 1.4 .3 2.5 .4c.9 .1 2 .1 3.1 .1h19.5c-.6-1.4-1-2.4-1.3-2.9c-.4-.7-1-1.5-1.8-2.6l2.4-6.2c1.4 1.9 2.2 3.6 2.7 5.2c.3 1.5 .5 3.5 .5 6.2v7.6H839.7c-1.1 0-2 0-2.8 0c-.7 0-1.2-.1-1.6-.1c-.6-.1-1.4-.2-2.2-.6c-1.5-.5-2.8-1.5-3.7-3c-.9-1.6-1.4-3.3-1.4-5.2c0-.7 0-1.5 .1-2.3c.1-.8 .4-1.6 .6-2.5c.4-1.1 .8-2 1.3-2.9c.5-.8 1-1.7 1.5-2.4Zm436-.2c1.3 1.5 2.2 3.1 2.7 4.8c.5 1.7 .7 4.1 .7 7.4v7h-17.6c-.8 0-1.4 0-1.8 .1c-.3 0-.5 .1-.5 .3c.5 .3 1 .5 1.5 .7c.4 .1 .7 .2 .9 .4c.1 .2 .2 .5 .2 .9c0 1.3-.4 2.8-1.1 4.6c-.7 1.7-1.4 2.8-2.1 3.3c-.7 .5-2.6 1.1-5.9 1.9c-3.3 .7-6.1 1.1-8.5 1.1c-3.3 0-6-.7-8.1-2.1c-2.1-1.4-3.1-3.3-3.1-5.5c0-2.2 .4-4.3 1.3-6.3c1.1-2.4 3.2-5.4 6.2-9.1l1.6 1.1c-1.9 2.3-3.2 4.2-3.9 5.6c-.8 1.4-1.1 2.9-1.1 4.2c0 2 .8 3.4 2.4 4.3c1.6 .9 4 1.4 7.3 1.4c1.7 0 4.1-.3 7.2-1c3-.6 4.5-1.1 4.5-1.6c0-.2-.6-.4-1.7-.6c-1.2-.2-2.5-.3-3.9-.3c-2 0-3-.4-3-1.3c0-.4 .2-1.2 .7-2.2c.3-.8 .7-1.5 1-2.2c.7-1.5 2-2.7 3.8-3.6c1.9-.9 3.9-1.4 5.9-1.4h15.2c-.2-1.2-.6-2.2-1.1-3.1c-.3-.4-.9-1.2-1.9-2.4Zm-197.7-.7c2.5 0 4.4 .5 5.8 1.5c1.5 1 2.2 2.3 2.2 4c0 .9-.2 1.8-.6 2.6c-.4 .9-1.1 2-2.1 3.4c.2 .4 .6 .6 1 .8c.4 .2 .8 .3 1.2 .3h16.3c-.2-1.2-.6-2.2-1.1-3.1c-.3-.4-.9-1.2-1.9-2.4l2.1-6.4c1.4 1.5 2.3 3.1 2.8 4.8c.5 1.7 .7 4.1 .7 7.4v7h-18.9c-1.4 0-2.6-.3-3.7-.8c-1.1-.6-1.9-1.5-2.6-2.8c-1.2 1.4-2.7 2.4-4.5 3c-1.3 .4-2.6 .6-4.1 .6h-15.8v.6c0 1.1-.6 2.6-1.9 4.4c-1.2 1.8-2.7 3.3-4.4 4.7c-1.8 1.4-3.4 2.2-4.8 2.2c-1.5 0-3.2-.5-5-1.4c-1.6-.7-4.1-2.3-7.4-4.6l1.1-1.7c1.6 1.1 2.9 1.8 3.9 2.2c1 .4 2.1 .6 3.2 .6c1.2 0 2.5-.4 3.7-1.1c1.2-.7 2.9-2 5.1-3.9c2.9-2.6 4.4-4.7 4.4-6.1c0-.7-.3-1.6-.8-2.8c-.7-1.3-1.5-2.4-2.4-3.3l1.5-7.3c1.2 1.3 2.2 2.7 2.8 4.4c.7 1.6 1 3.4 1 5.5v.3h12.3c-.2-1.2-.6-2.2-1.1-3.1c-.2-.4-.9-1.2-1.9-2.4l2.2-6.4c1.3 1.5 2.3 3.1 2.7 4.8c.5 1.5 .7 3.5 .8 6.2v.9h.8c1.5 0 2.6-.1 3.2-.2c.6-.2 1.4-.5 2.4-1.1c-.5-1-1-1.8-1.4-2.2c-.5-.6-1-.9-1.5-.9c-.2 0-.4 .1-.5 .2c-.2 .2-.4 .4-.6 .8l-1.2-.2c0-3.2 .5-5.5 1.7-6.9c1.1-1.4 2.9-2.1 5.3-2.1Zm-145.6-.4c-.5 0-1 .2-1.4 .7c-.5 .5-.7 1.1-.7 1.7c0 .4 .2 .8 .5 1c.3 .3 .8 .5 1.3 .5c.4 0 .8-.2 1.2-.4c.5-.2 1-.7 1.6-1.3c-.5-.8-.9-1.4-1.3-1.7c-.4-.3-.8-.5-1.2-.5Zm-484.5-.8c.7 0 1.9 .1 3.8 .3c1.8 .2 3.5 .4 4.9 .5c2.8 .2 5.4 .3 8.1 .3l-1.6 6.5c-1.1 0-2 0-2.8 .2c-1 .2-1.9 .3-2.7 .5c0 .4-.1 .7-.1 1.2c-.1 .4-.1 .7-.1 1c0 1.2 .4 2.1 1.3 2.6c.8 .5 2.4 .7 4.6 .7h16.6c-.2-1.2-.6-2.2-1.1-3.1c-.3-.4-.9-1.2-1.9-2.4l2.2-6.4c1.3 1.5 2.2 3.1 2.7 4.8c.5 1.5 .7 3.5 .8 6.2v.9h12.1c-.2-1.2-.5-2.2-1-3.1c-.3-.4-.9-1.2-1.9-2.4l2.1-6.4c1.4 1.5 2.3 3.1 2.8 4.8c.4 1.5 .6 3.5 .7 6.2v.9h12.2c-.2-1.2-.6-2.2-1.1-3.1c-.3-.4-.9-1.2-1.9-2.4l2.2-6.4c1.3 1.5 2.2 3.1 2.7 4.8c.5 1.5 .7 3.5 .8 6.2v.9h1.8c1.9 0 3.5-.5 4.7-1.6c1.7-1.3 2.5-3.4 2.5-6.3l1.8 .3c-.1 .6-.1 1.2-.1 2c-.1 .7-.1 1.5-.1 2.4c0 .9 .3 1.7 .9 2.3c.7 .6 1.4 .9 2.2 .9h3.3c2.2 0 3.7-.3 4.7-.9c1.1-.7 1.6-2.1 1.6-4.1c0-.4 .2-.8 .5-1.2c.1-.2 .5-.5 1-.8l1-.9c0 .4 0 .8 .1 1.4c0 .6 0 1 0 1.2c0 1-.2 2.3-.5 3.9c.7 .3 1.4 .6 2.3 .8c.8 .3 1.7 .4 2.6 .6c0-.6-.2-1.4-.7-2.4c-.4-1-.7-1.6-.7-2c0-.4 .1-.8 .2-1c.1-.1 .3-.4 .6-.9l2.3-3c.5 1.1 .8 2.1 1 3c.3 .9 .3 2.1 .3 3.5v10.1c-2 0-3.6-.1-5-.4c-1.3-.3-2.6-.8-3.9-1.4c-1 .8-1.9 1.2-2.7 1.5c-.9 .2-2.1 .3-3.7 .3h-4.4c-1.2 0-2.1-.3-2.8-.9c-.7-.6-1.4-1.7-1.9-3.1c-1 1.5-2.1 2.5-3.3 3.2c-1.1 .5-2.3 .8-3.8 .8H455.2c-3.2 0-5.3-.4-6.5-1.4c-1.1-.9-1.7-2.6-1.7-5.1c0-1.1 .1-2.2 .2-3.3c.1-.3 .2-1.2 .5-2.5c-4.1 .9-7.4 2.6-9.9 4.9c-2.6 2.4-3.9 5.1-3.9 8.2c0 3.6 1.5 6.3 4.6 8.3c3.1 1.9 7.5 2.9 13.3 2.9c1.7 0 4.1-.2 7.3-.5l.5 .8l-10.2 6.6h-2.6c-5.3 0-9.3-1.3-12.1-3.9c-2.9-2.7-4.3-6.5-4.3-11.4c0-3.7 .9-7.2 2.6-10.4c1.7-3.2 3.9-5.5 6.5-7h-.6c-1.6 0-3 .2-4.1 .5c-1.1 .3-2.7 1.1-4.9 2.2c.8-6.7 4.1-10 9.8-10Zm550.4-2.4c2 0 3.9 .6 5.7 1.9c1.7 1.3 2.9 2.7 3.6 4.5l-1.1 .9c-1.4-.5-2.5-.9-3.4-1c-.8-.2-1.8-.3-3-.3c-2.3 0-4.2 .2-5.8 .6c-2.1 .4-3.1 1.1-3.1 1.9c0 1.2 2.5 3.3 7.5 6.1l13.6-3.9l-3 7.6c-4.8 1.5-8.8 2.7-11.9 3.5c-2.8 .7-5.1 1.2-7 1.4c-1.4 .2-2.7 .3-4.1 .3h-.5l-.1 .5c0 1.6-.3 3-.6 4.1c-.5 1.5-1.3 2.8-2.4 3.7c-1.1 .9-2.7 1.6-4.9 2.2c-2.1 .6-4.3 .9-6.5 .9c-4.4 0-7.7-.8-10.1-2.4c-2.3-1.6-3.5-3.8-3.5-6.8c0-2.4 .4-4.7 1.1-6.8c.9-2.2 2.5-5.2 4.9-8.8l1.6 1.1c-1.8 3-3 5.2-3.5 6.6c-.6 1.3-.8 2.7-.8 4.2c0 1.9 1 3.4 3 4.6c2 1.2 4.7 1.8 7.9 1.8c3.3 0 6-.6 8.2-1.9c2.2-1.2 3.3-2.7 3.3-4.5c0-1.1-.2-2.2-.6-3.3c-.4-1.1-1.2-2.8-2.5-5.2l2.4-7.3c1.2 2.3 2 3.8 2.3 4.7c.5 1.4 .7 3 .8 5.1v.2h1c.5 0 .9 0 1.1 0c.6-.1 1.1-.1 1.6-.2c-.9-1.3-1.5-2.4-1.8-3.2c-.3-.9-.5-1.8-.5-2.8c0-2.7 1.1-5 3.4-7c2.2-2 4.7-3 7.7-3ZM712.5 304c2.4 1.8 4 4 5 6.7c.9 2.6 1.3 5.9 1.3 10.1v8.6H706.7c-1.2 0-2.1-.2-2.8-.7c-.7-.6-1.1-1.6-1.1-3c0-.8 0-1.6 .1-2.6c.1-.9 .2-1.8 .4-2.7l1-.1c.1 .6 .4 1.1 .9 1.4c.5 .3 1.1 .4 1.8 .4h9.3c-.4-2.6-1.2-4.7-2.2-6.3c-.8-1.3-2-2.4-3.5-3.4Zm250-.4l6.2 3.4l-3.2 6l-6.3-3.3Zm-37.8-1.3c1.9 0 3.6 1.6 5.3 4.9c1.7 3.3 2.5 6.7 2.5 10.4v11.8H897.9v.6c0 1.1-.6 2.6-1.9 4.4c-1.2 1.8-2.7 3.3-4.4 4.7c-1.8 1.4-3.4 2.2-4.7 2.2c-1.6 0-3.3-.5-5.1-1.4c-1.6-.7-4-2.3-7.4-4.6l1.1-1.7c1.6 1.1 2.9 1.8 3.9 2.2c1 .4 2.1 .6 3.2 .6c1.3 0 2.5-.4 3.7-1.1c1.3-.7 2.9-2 5.1-3.9c2.9-2.6 4.4-4.7 4.4-6.1c0-.7-.2-1.6-.8-2.8c-.7-1.3-1.5-2.4-2.4-3.3l1.5-7.3c1.2 1.3 2.2 2.7 2.8 4.4c.7 1.6 1 3.4 1 5.5v.3h3c.8 0 1.6 0 2.4 .1c1.9 .2 4.2 .5 6.7 .8c-2.7-.6-4.5-1.4-5.6-2.4c-1.1-1-1.6-2.4-1.6-4.3c0-2.7 .6-5.2 1.9-7.5c1.3-2.2 2.7-3.3 4.3-3.3c1.8 0 3.4 1.6 4.8 4.7c1.3 3.1 2 6.9 2 11.3v.6H930c0-1.5-.1-2.7-.1-3.3c-.2-1-.5-1.9-.9-2.7c-.6 1.1-1.4 2-2.3 2.6c-1 .6-2 .9-3.1 .9c-1.5 0-2.7-.5-3.7-1.5c-.9-.9-1.4-2.1-1.4-3.5c0-2.1 .6-4.6 1.9-7.5c1.4-3.2 2.8-4.8 4.3-4.8Zm-77-1.1l5 2.7l-2.8 5.2l-4-1.9l-2.2 4.3l-4.9-2.7l2.9-5.5l3.9 2.1Zm330.9-3.2l5 2.7l-2.8 5.2l-4-2l-2.2 4.4l-4.9-2.8l3-5.4l3.8 2.1Zm-680 0l5 2.7l-2.8 5.2l-3.9-2l-2.3 4.4l-4.9-2.8l3-5.4l3.8 2.1Zm-29.7 0l5 2.7l-2.8 5.2l-3.9-2l-2.3 4.4l-4.9-2.8l3-5.4l3.8 2.1Zm795.9-1.2l6.3 3.4l-3.2 6l-6.3-3.3Zm-781.7 0l6.3 3.4l-3.2 6l-6.3-3.3Zm967.3 0l1.6 9.5c.6 3.6 1 6.8 1.2 9.4c.2 2.1 .3 4 .3 5.9c0 1.6-.2 3.1-.6 4.4c-.3 1.3-1.1 3.1-2.1 5.3l-1.6-.7c.4-2.3 .6-4.1 .6-5.5c0-1.1-.1-2.8-.3-4.9c-.1-2.1-.4-4.2-.6-6.2c-.3-2.1-.7-4.6-1.4-7.4c-.2-1-.3-1.7-.3-2.1c0-.5 .3-1.5 .9-2.8c.5-1.4 1.3-3 2.3-4.9Zm-117.4 0l1.7 9.5c.6 3.6 1 6.8 1.2 9.4c.2 2.1 .3 4 .3 5.9c0 1.6-.2 3.1-.6 4.4c-.4 1.3-1.1 3.1-2.2 5.3l-1.6-.7c.5-2.3 .7-4.1 .7-5.5c0-1.1-.1-2.8-.3-4.9c-.2-2.1-.4-4.2-.7-6.2c-.2-2.1-.7-4.6-1.3-7.4c-.2-1-.3-1.7-.3-2.1c0-.5 .3-1.5 .8-2.8c.6-1.4 1.4-3 2.3-4.9Zm-129.4 0l1.6 9.5c.6 3.6 1 6.8 1.3 9.4c.2 2.1 .2 4 .2 5.9c0 1.6-.2 3.1-.5 4.4c-.4 1.3-1.1 3.1-2.2 5.3l-1.6-.7c.4-2.3 .6-4.1 .6-5.5c0-1.1-.1-2.8-.2-4.9c-.2-2.1-.4-4.2-.7-6.2c-.3-2.1-.7-4.6-1.3-7.4c-.2-1-.3-1.7-.3-2.1c0-.5 .2-1.5 .8-2.8c.5-1.4 1.3-3 2.3-4.9Zm-334.6 0l1.7 9.5c.5 3.6 1 6.8 1.2 9.4c.2 2.1 .2 4 .2 5.9c0 1.6-.1 3.1-.5 4.4c-.4 1.3-1.1 3.1-2.2 5.3l-1.6-.7c.4-2.3 .7-4.1 .7-5.5c0-1.1-.1-2.8-.3-4.9c-.2-2.1-.4-4.2-.7-6.2c-.3-2.1-.7-4.6-1.3-7.4c-.2-1-.3-1.7-.3-2.1c0-.5 .2-1.5 .8-2.8c.6-1.4 1.3-3 2.3-4.9Zm-63 0l1.6 9.5c.6 3.6 1 6.8 1.2 9.4c.2 2.1 .3 4 .3 5.9c0 1.6-.2 3.1-.6 4.4c-.4 1.3-1.1 3.1-2.2 5.3l-1.6-.7c.5-2.3 .7-4.1 .7-5.5c0-1.1-.1-2.8-.3-4.9c-.2-2.1-.4-4.2-.7-6.2c-.2-2.1-.7-4.6-1.3-7.4c-.2-1-.3-1.7-.3-2.1c0-.5 .3-1.5 .8-2.8c.6-1.4 1.4-3 2.4-4.9Zm-126.5 0l1.6 9.5c.6 3.6 1 6.8 1.2 9.4c.2 2.1 .3 4 .3 5.9c0 1.6-.2 3.1-.6 4.4c-.4 1.3-1.1 3.1-2.2 5.3l-1.6-.7c.5-2.3 .7-4.1 .7-5.5c0-1.1-.1-2.8-.3-4.9c-.2-2.1-.4-4.2-.7-6.2c-.2-2.1-.7-4.6-1.3-7.4c-.2-1-.3-1.7-.3-2.1c0-.5 .3-1.5 .8-2.8c.6-1.4 1.4-3 2.4-4.9Zm-135.2 0l1.7 9.5c.6 3.6 1 6.8 1.2 9.4c.2 2.1 .3 4 .3 5.9c0 1.6-.2 3.1-.6 4.4c-.4 1.3-1.1 3.1-2.2 5.3l-1.6-.7c.5-2.3 .7-4.1 .7-5.5c0-1.1-.1-2.8-.3-4.9c-.2-2.1-.4-4.2-.7-6.2c-.2-2.1-.7-4.6-1.3-7.4c-.2-1-.3-1.7-.3-2.1c0-.5 .3-1.5 .8-2.8c.6-1.4 1.4-3 2.3-4.9Zm893.7-2.1l1.2 .6c0 .2 0 .4-.1 .9c0 .6 .4 1.2 1.2 1.7c.6 .5 1.7 1.1 3.1 1.7c-.1 1.1-.4 2.2-.7 3.3c-.3 1.1-.6 2.1-1 3l-1-.4l2.9 16.6v7.3h-12.9v.6c0 1.1-.6 2.6-1.9 4.4c-1.2 1.8-2.7 3.3-4.4 4.7c-1.9 1.4-3.4 2.2-4.8 2.2c-1.5 0-3.2-.5-5-1.4c-1.6-.7-4.1-2.3-7.4-4.6l1.1-1.7c1.6 1.1 2.9 1.8 3.9 2.2c1 .4 2 .6 3.2 .6c1.2 0 2.5-.4 3.7-1.1c1.2-.7 2.9-2 5-3.9c3-2.6 4.5-4.7 4.5-6.1c0-.7-.3-1.6-.9-2.8c-.6-1.3-1.4-2.4-2.3-3.3l1.5-7.3c1.2 1.3 2.1 2.7 2.8 4.4c.7 1.6 1 3.4 1 5.5v.3h9.7l-3.2-18.2l-1.8-1.1c0-1.1 .2-2.2 .5-3.2c.4-1.4 1.1-3 2.1-4.9Zm-117.3 0l1.2 .6c0 .2 0 .4-.1 .9c0 .6 .4 1.2 1.1 1.7c.7 .5 1.8 1.1 3.2 1.7c-.2 1.1-.4 2.2-.7 3.3c-.3 1.1-.7 2.1-1.1 3l-.9-.4l2.9 16.6v7.3H1280c-2.1 0-3.6-.8-4.5-2.6c-1.1-1.9-1.6-5-1.6-9.5v-7.7c0-1.7-.2-3.1-.7-4.1c-.3-.4-.8-1.1-1.6-2l2.9-6.7c1 1.5 1.7 2.9 2.1 4.3c.5 1.6 .8 3.7 .8 6.2v5.3c0 3.7 .2 6.3 .7 7.8c.4 1.1 1 1.7 1.9 1.7h16c-.2-1.2-.6-2.2-1.1-3.1c-.3-.4-.9-1.2-1.9-2.4l2.1-6.4c1.4 1.5 2.3 3.1 2.8 4.8c.4 1.5 .7 3.5 .7 6.2v.9h12.2c-.2-1.2-.6-2.2-1.1-3.1c-.2-.4-.9-1.2-1.9-2.4l2.2-6.4c1.3 1.5 2.3 3.1 2.7 4.8c.5 1.5 .7 3.5 .8 6.2v.9h9.6l-3.3-18.2l-1.7-1.1c0-1.1 .2-2.2 .5-3.2c.4-1.4 1.1-3 2.1-4.9Zm-129.5 0l1.3 .6c0 .2-.1 .4-.1 .9c0 .6 .4 1.2 1.1 1.7c.7 .5 1.7 1.1 3.2 1.7c-.2 1.1-.4 2.2-.7 3.3c-.4 1.1-.7 2.1-1.1 3l-1-.4l3 16.6v7.3h-31.5c-2.1 0-3.6-.8-4.5-2.6c-1.1-1.9-1.6-5-1.6-9.5v-7.7c0-1.7-.2-3.1-.7-4.1c-.2-.4-.8-1.1-1.6-2l2.9-6.7c1 1.5 1.7 2.9 2.2 4.3c.4 1.6 .7 3.7 .7 6.2v5.3c0 3.7 .2 6.3 .7 7.8c.4 1.1 1 1.7 1.9 1.7h16c-.2-1.2-.6-2.2-1.1-3.1c-.3-.4-.9-1.2-1.9-2.4l2.2-6.4c1.3 1.5 2.2 3.1 2.7 4.8c.4 1.5 .7 3.5 .7 6.2v.9h9.6l-3.2-18.2l-1.7-1.1c0-1.1 .1-2.2 .4-3.2c.5-1.4 1.2-3 2.1-4.9Zm-40.5 0l1.3 .6c0 .2-.1 .4-.1 .9c0 .6 .3 1.2 1.1 1.7c.6 .5 1.7 1.1 3.1 1.7c-.1 1.1-.4 2.2-.7 3.3c-.3 1.1-.6 2.1-1 3l-1-.4l2.9 16.6v7.3h-15.6c-.8 0-1.4 0-1.7 .1c-.4 0-.5 .1-.5 .3c.5 .3 1 .5 1.4 .7c.5 .1 .8 .2 .9 .4c.2 .2 .2 .5 .2 .9c0 1.3-.3 2.8-1 4.6c-.8 1.7-1.5 2.8-2.2 3.3c-.7 .5-2.6 1.1-5.9 1.9c-3.3 .7-6.1 1.1-8.4 1.1c-3.4 0-6.1-.7-8.2-2.1c-2.1-1.4-3.1-3.3-3.1-5.5c0-2.2 .5-4.3 1.4-6.3c1.1-2.4 3.1-5.4 6.1-9.1l1.6 1.1c-1.9 2.3-3.2 4.2-3.9 5.6c-.7 1.4-1.1 2.9-1.1 4.2c0 2 .8 3.4 2.4 4.3c1.6 .9 4 1.4 7.3 1.4c1.8 0 4.1-.3 7.2-1c3-.6 4.6-1.1 4.6-1.6c0-.2-.6-.4-1.8-.6c-1.2-.2-2.4-.3-3.8-.3c-2.1 0-3.1-.4-3.1-1.3c0-.4 .2-1.2 .7-2.2c.4-.8 .7-1.5 1.1-2.2c.6-1.5 1.9-2.7 3.8-3.6c1.9-.9 3.8-1.4 5.8-1.4h12.6l-3.2-18.2l-1.7-1.1c0-1.1 .1-2.2 .4-3.2c.4-1.4 1.1-3 2.1-4.9Zm-357.1 0l1.2 .6c0 .2 0 .4-.1 .9c0 .6 .4 1.2 1.1 1.7c.7 .5 1.8 1.1 3.2 1.7c-.1 1.1-.4 2.2-.7 3.3c-.3 1.1-.7 2.1-1.1 3l-.9-.4l2.9 16.6v7.3H782.4c-1.4 0-2.7-.3-3.8-.8c-1.1-.6-1.9-1.5-2.6-2.8c-1.1 1.4-2.7 2.4-4.5 3c-1.3 .4-2.6 .6-4 .6h-2.9v-.1l-.4-.1c-1.3-.1-2.8-.5-4.4-.9c-2.3-.7-4.2-1.4-5.9-2.3c-1.1 1.6-2.3 2.6-3.9 3.1c-.7 .2-1.7 .3-3 .3h-3.7l-.6 2.8c-.7 1.5-1.7 3-2.9 4.5c-2.7 3-5.2 4.5-7.8 4.5c-1.5 0-3.1-.5-4.9-1.4c-1.7-1-4.4-2.8-8.1-5.6l1.1-1.6c2 1.3 3.6 2.2 4.8 2.6c1 .4 2.2 .5 3.5 .5c1.7 0 3.4-.4 5.1-1.4c2-1.2 4.1-3 6.3-5.6c-.8 .2-1.4 .2-1.9 .2c-1.8 0-3.2-.6-4.3-1.7c-1-1.2-1.5-2.7-1.5-4.7c0-2.7 .6-5.3 1.8-7.8c1.4-2.7 2.9-4.1 4.6-4.1c1.4 0 2.7 1 3.7 3c1 1.9 1.5 4.3 1.5 7v1.5H747c1.6 0 2.9-.2 3.9-.6c1.2-.5 2-1.3 2.5-2.6c1-2.3 2.3-4.1 3.9-5.6c1.4-1.3 2.6-2 3.6-2c.9 0 2.1 1.4 3.4 4.2c1.1 2.2 1.7 4.2 2 6.2v.4h1.2c1.4 0 2.5-.1 3.1-.2c.6-.2 1.4-.5 2.4-1.1c-.5-1-1-1.8-1.4-2.2c-.5-.6-1-.9-1.5-.9c-.2 0-.4 .1-.5 .2c-.2 .2-.4 .4-.6 .8l-1.2-.2c0-3.2 .6-5.5 1.7-6.9c1.1-1.4 2.9-2.1 5.3-2.1c2.5 0 4.4 .5 5.8 1.5c1.5 1 2.2 2.3 2.2 4c0 .9-.2 1.8-.6 2.6c-.3 .9-1.1 2-2.1 3.4c.3 .4 .6 .6 1 .8c.5 .2 .9 .3 1.3 .3H796l-3.3-18.2l-1.7-1.1c0-1.1 .2-2.2 .5-3.2c.4-1.4 1.1-3 2.1-4.9Zm-126.5 0l1.2 .6c0 .2 0 .4-.1 .9c0 .6 .4 1.2 1.1 1.7c.7 .5 1.8 1.1 3.2 1.7c-.1 1.1-.4 2.2-.7 3.3c-.3 1.1-.7 2.1-1.1 3l-.9-.4l2.9 16.6v7.3H624.2v.6c0 1.1-.6 2.6-1.9 4.4c-1.2 1.8-2.7 3.3-4.4 4.7c-1.8 1.4-3.4 2.2-4.8 2.2c-1.5 0-3.2-.5-5-1.4c-1.6-.7-4.1-2.3-7.4-4.6l1.1-1.7c1.6 1.1 2.9 1.8 3.9 2.2c1 .4 2 .6 3.2 .6c1.2 0 2.5-.4 3.7-1.1c1.2-.7 2.9-2 5.1-3.9c2.9-2.6 4.4-4.7 4.4-6.1c0-.7-.3-1.6-.8-2.8c-.7-1.3-1.5-2.4-2.4-3.3l1.5-7.3c1.2 1.3 2.2 2.7 2.8 4.4c.7 1.6 1 3.4 1 5.5v.3h3c.8 0 1.6 0 2.3 .1c2 .2 4.3 .5 6.8 .8c-2.7-.6-4.5-1.4-5.6-2.4c-1.1-1-1.6-2.4-1.6-4.3c0-2.7 .6-5.2 1.9-7.5c1.3-2.2 2.7-3.3 4.3-3.3c1.8 0 3.4 1.6 4.7 4.7c1.4 3.1 2.1 6.9 2.1 11.3v.6H645c.8 0 1.6 0 2.3 .1c2 .2 4.2 .5 6.8 .8c-2.7-.6-4.6-1.4-5.6-2.4c-1.1-1-1.6-2.4-1.6-4.3c0-2.7 .6-5.2 1.9-7.5c1.3-2.2 2.7-3.3 4.3-3.3c1.8 0 3.4 1.6 4.7 4.7c1.4 3.1 2.1 6.9 2.1 11.3v.6h9.6l-3.3-18.2l-1.7-1.1c0-1.1 .2-2.2 .5-3.2c.4-1.4 1.1-3 2.1-4.9Zm-16.1-.3l6.2 3.4l-3.2 6l-6.3-3.3Zm256.5 0l5 2.7l-2.8 5.2l-4-2l-2.2 4.4l-4.9-2.7l2.9-5.5l3.8 2.1Zm-273.7 0l4.9 2.7l-2.7 5.2l-4-2l-2.3 4.4l-4.9-2.7l3-5.5l3.8 2.1Zm288.5-3.8l6.3 3.3l-3.2 6l-6.3-3.3Z" class="g1_29"/>
<path fill-rule="evenodd" d="M400.5 329.7H408v7.6h-7.5Zm0-20.9H408v7.5h-7.5Z" class="g0_29"/>
<path d="M400.5 329.7H408v7.6h-7.5Zm0-20.9H408v7.5h-7.5Z" class="g1_29"/>
<path fill-rule="evenodd" d="M946.8 419.6l3 2l-2.3 2.6l-2.5-1.5l-1.9 2l-3-1.7l2.2-2.9l2.7 1.7Zm-78.5-10.1l5.5 3l-2.9 5.3l-5.6-2.9Zm-558.3 0l5.6 3l-2.9 5.3l-5.6-2.9Zm508.8-.2l5.5 3l-2.8 5.3l-5.6-2.9Zm-115.4 0l5.6 3l-2.9 5.3l-5.6-2.9Zm209.8-.2l4.5 2.4l-2.5 4.6l-3.6-1.7l-2 3.8l-4.3-2.4l2.6-4.9l3.4 1.9Zm-104.5 0l4.5 2.4l-2.5 4.6l-3.6-1.7l-2 3.8l-4.3-2.4l2.6-4.9l3.4 1.9Zm-416 0l4.5 2.4l-2.5 4.6l-3.5-1.7l-2.1 3.8l-4.3-2.4l2.6-4.9l3.4 1.9Zm378.9-1.4c.2 1.4 .9 2.6 2.1 3.7c1.3 1 2.6 1.5 4 1.5c.4 0 .7-.2 .7-.5c0-.9-.5-1.8-1.5-2.6c-1.3-.9-3-1.6-5.3-2.1Zm-513.4-6c.8 0 1.5 .2 2.1 .8c.6 .6 .8 1.3 .8 2.1c0 .8-.3 1.5-.8 2.1c-.6 .6-1.3 .9-2.2 .9c-.7 0-1.4-.3-2-.9c-.6-.6-.9-1.3-.9-2.1c0-.8 .4-1.5 .9-2.1c.6-.6 1.3-.8 2.1-.8Zm641-4.8c-.5 0-.9 .2-1.1 .6c-.3 .4-.5 .8-.5 1.3c0 .6 .3 1.1 1 1.4c.6 .4 1.4 .6 2.5 .6h.9c-.5-2.6-1.4-3.9-2.8-3.9Zm-470.4 0c-.5 0-.9 .2-1.2 .6c-.3 .4-.4 .8-.4 1.3c0 .6 .3 1.1 .9 1.4c.7 .4 1.5 .6 2.5 .6h.9c-.4-2.6-1.3-3.9-2.7-3.9Zm1019.2-.1c-.7 0-1.2 .7-1.6 2.1c.8 .4 1.4 .6 1.9 .8c1.3 .4 2 .7 2.2 .7c.3 0 .5-.1 .5-.4c0-.3-.4-.9-1-1.8c-.8-.9-1.5-1.4-2-1.4Zm-814.6 0c-.6 0-1.1 .7-1.6 2.1c.9 .4 1.5 .6 1.9 .8c1.3 .4 2 .7 2.2 .7c.4 0 .5-.1 .5-.4c0-.3-.3-.9-1-1.8c-.8-.9-1.4-1.4-2-1.4Zm-342.1 0c-.6 0-1.1 .7-1.6 2.1c.9 .4 1.5 .6 1.9 .8c1.3 .4 2 .7 2.2 .7c.4 0 .5-.1 .5-.4c0-.3-.3-.9-1-1.8c-.8-.9-1.4-1.4-2-1.4Zm293.6-.7c-1.1 0-2.3 .3-3.6 1c-1.3 .6-3.2 1.9-5.7 3.7h6.3c5.2 0 7.8-.8 7.8-2.4c0-.8-.5-1.3-1.7-1.8c-.9-.4-2-.5-3.1-.5Zm-99.8 0c-1 0-2.2 .3-3.5 1c-1.3 .6-3.2 1.9-5.7 3.7h6.2c5.3 0 7.9-.8 7.9-2.4c0-.8-.6-1.3-1.7-1.8c-.9-.4-2-.5-3.2-.5Zm849.3-2.2c-.3 0-.6 .1-.8 .4c-.2 .2-.3 .5-.3 .9c0 .5 .3 .9 1 1.3c.7 .5 1.7 .9 2.9 1.3c-.5-1.6-1-2.6-1.4-3.1c-.3-.5-.8-.8-1.4-.8Zm-558.4 0c-.4 0-.9 .5-1.4 1.4c-.6 .9-1.3 2.3-2 4.2c1.8-.6 3.1-1.2 3.7-1.6c.7-.5 1.1-1 1.1-1.5c0-.4-.2-1-.5-1.6c-.3-.6-.6-.9-.9-.9Zm320.9-.9c-.4 0-.6 .1-.9 .3c-.2 .2-.3 .5-.3 .8c0 .6 .5 1.3 1.5 2c1 .6 2.3 1 3.7 1.3c-.6-1.4-1.2-2.5-1.9-3.2c-.7-.8-1.4-1.2-2.1-1.2Zm-16 0c-.3 0-.6 .1-.8 .3c-.3 .2-.4 .5-.4 .8c0 .6 .5 1.3 1.6 2c1 .6 2.2 1 3.6 1.3c-.5-1.4-1.2-2.5-1.9-3.2c-.7-.8-1.4-1.2-2.1-1.2Zm-467.7 0c-.3 0-.6 .1-.8 .3c-.2 .2-.4 .5-.4 .8c0 .6 .6 1.3 1.6 2c1 .6 2.2 1 3.7 1.3c-.6-1.4-1.3-2.5-2-3.2c-.7-.8-1.4-1.2-2.1-1.2Zm-238.7-2.1c-.5 .3-1 .4-1.2 .6c-.9 .5-1.6 .9-2.1 1.3c-.4 .3-.7 .6-1 .9c-.3 .3-.5 .6-.5 .8c0 .2 .3 .4 .9 .5c.5 .1 1.1 .2 1.6 .2c.4 0 .7-.1 1.1-.3c.4-.2 .9-.6 1.6-1.1Zm55.3-.3c1.3 0 2.4 .8 3.3 2.6c.9 1.7 1.3 3.8 1.3 6.3v6.1c0 2.8-1.2 5.5-3.5 8.2c-2.3 2.6-4.6 4-6.9 4c-1.3 0-2.7-.4-4.3-1.3c-1.6-.8-4-2.5-7.2-5l1-1.4c1.7 1.2 3.1 1.9 4.2 2.3c.9 .3 1.9 .5 3.1 .5c1.5 0 3.1-.4 4.6-1.3c1.8-1 3.6-2.6 5.5-4.9c-.7 .1-1.2 .1-1.7 .1c-1.5 0-2.8-.5-3.7-1.5c-1-1-1.4-2.4-1.4-4.2c0-2.4 .5-4.7 1.6-6.9c1.2-2.4 2.6-3.6 4.1-3.6Zm583.4-.3l1.4 .9c-.4 .6-.7 1.2-.9 1.7c-.2 .6-.4 1-.6 1.4c-.2 .7-.3 1.5-.3 2.2c0 .9 .3 1.7 .8 2.4c.6 .8 1.4 1.2 2.3 1.4c.6 .2 1.3 .3 2.2 .4c.9 .1 1.9 .1 2.9 .1h17.2c-.4-1.3-.8-2.1-1.1-2.6c-.3-.6-.9-1.4-1.6-2.3l2.2-5.6c1.2 1.7 1.9 3.3 2.3 4.7c.3 1.3 .5 3.1 .5 5.5v6.8h-20.1c-.9 0-1.7 0-2.4 0c-.6-.1-1.1-.1-1.4-.1c-.6-.1-1.3-.2-2-.5c-1.4-.5-2.4-1.4-3.3-2.7c-.8-1.4-1.2-2.9-1.2-4.6c0-.7 0-1.4 .1-2.1c.1-.7 .3-1.4 .5-2.2c.4-1 .7-1.8 1.2-2.6c.4-.7 .8-1.5 1.3-2.2Zm-98.3-.1c1.2 1.4 2 2.8 2.5 4.3c.4 1.4 .6 3.6 .6 6.5v6.3H904.5l-.5 2.4c-.6 1.4-1.5 2.7-2.7 4.1c-2.3 2.6-4.6 4-6.8 4c-1.4 0-2.8-.4-4.4-1.3c-1.5-.8-4-2.5-7.2-5l1-1.4c1.7 1.2 3.1 1.9 4.2 2.3c.9 .3 2 .5 3.1 .5c1.6 0 3.1-.4 4.6-1.3c1.8-1 3.6-2.6 5.5-4.9c-.6 .1-1.2 .1-1.6 .1c-1.6 0-2.9-.5-3.8-1.5c-.9-1-1.4-2.4-1.4-4.2c0-2.4 .6-4.7 1.7-6.9c1.2-2.4 2.5-3.6 4-3.6c1.3 0 2.4 .8 3.3 2.6c.9 1.7 1.3 3.8 1.3 6.3v1.3h10.8c-.1-1.1-.4-2-.9-2.8c-.2-.4-.8-1.1-1.7-2.1Zm-509.9-1c-.5 0-.9 .2-1.3 .6c-.4 .5-.6 1-.6 1.5c0 .4 .2 .7 .5 1c.3 .2 .7 .3 1.1 .3c.4 0 .7-.1 1.1-.3c.4-.2 .8-.6 1.4-1.1c-.4-.7-.8-1.3-1.1-1.6c-.4-.3-.7-.4-1.1-.4Zm931.3-1.8c1.6 0 2.9 1.2 3.6 3.6c.7 2.1 1.1 5.4 1.1 9.8v6.5h-3.2c-2.8 0-6 .1-9.5 .2c-2.2 .1-4.9 .2-8.3 .3c-3.5 .2-5.3 .3-5.5 .3c-3.4 0-5.9-.6-7.4-1.8c-1.4-1.1-2.1-2.9-2.1-5.2c0-1.8 .2-3.4 .5-4.8c.4-1.3 1.2-3.5 2.5-6.5l1.5 .7c-1.1 2.7-1.7 4.7-1.7 6c0 1.6 .7 2.8 1.9 3.5c1.5 .8 4 1.2 7.5 1.2c2.4-.2 4.8-.3 7.1-.4c2.3-.1 4.5-.1 6.7-.1c-.7-.3-1.2-.7-1.4-1.1c-.2-.4-.4-1-.4-1.7c0-2.3 .7-4.6 2.1-6.8c1.5-2.4 3.2-3.7 5-3.7Zm-831.8-1.1c1.8 0 3.5 .6 5.1 1.8c1.5 1.1 2.6 2.4 3.3 3.9l-1 .9c-1.3-.5-2.3-.8-3-1c-.8-.1-1.7-.2-2.8-.2c-2 0-3.7 .2-5.1 .5c-1.9 .4-2.8 1-2.8 1.7c0 1.1 2.2 2.9 6.7 5.5l12.1-3.5l-2.7 6.8c-4.3 1.3-7.8 2.3-10.6 3c-2.4 .7-4.5 1.1-6.2 1.3c-1.2 .2-2.4 .3-3.7 .3H468c-1.1 0-2-.3-2.7-.9c-.7-.5-1.2-1.4-1.7-2.7c-1 1.4-2 2.4-2.9 2.9c-.9 .4-2 .7-3.4 .7h-1.8v.5c0 1-.6 2.3-1.7 3.9c-1.1 1.6-2.4 3-3.9 4.2c-1.7 1.3-3.1 1.9-4.2 1.9c-1.5 0-3-.4-4.6-1.2c-1.4-.6-3.6-2-6.5-4.1l1-1.5c1.4 1 2.6 1.6 3.4 2c.9 .3 1.9 .5 2.9 .5c1.1 0 2.2-.3 3.3-1c1.1-.6 2.6-1.7 4.5-3.4c2.6-2.4 3.9-4.2 3.9-5.5c0-.6-.2-1.4-.7-2.5c-.6-1.2-1.3-2.1-2.1-2.9l1.3-6.5c1.1 1.1 1.9 2.4 2.5 3.9c.6 1.4 .9 3.1 .9 4.9v.3h1.8c1.9 0 3.3-.5 4.2-1.4c1.2-1.1 1.9-3 2.2-5.6l1.6 .2c0 .6-.1 1.1-.1 1.4c-.1 1.1-.1 1.9-.1 2.5c0 1 .3 1.6 .7 2.1c.5 .5 1.2 .8 1.9 .8c.8 0 1.5-.2 2.2-.5c.7-.3 1.7-1 3.1-2l8.6-6.1c1-.7 1.7-1.2 2.2-1.5c1.2-.7 2.3-1.1 3.4-1.1c1.8 0 3.2 .7 4.3 1.9c1.2 1.5 1.9 3.7 1.9 6.6v2.7h.9c.4 0 .8 0 1 0c.5-.1 .9-.2 1.4-.2c-.8-1.2-1.3-2.1-1.6-2.9c-.3-.7-.4-1.6-.4-2.5c0-2.4 1-4.4 2.9-6.2c2-1.8 4.3-2.7 6.9-2.7Zm346.9-1.6c2.1 1.6 3.5 3.5 4.4 6c.8 2.2 1.2 5.2 1.2 8.9v1.2h15.4c-1.9-2-3.7-3.4-5.4-4.3c-1.4-.8-2.8-1.2-4.2-1.2c-.4 0-.8 0-1.1 .1c-.4 0-.9 .1-1.5 .2c.8-2 1.8-3.5 2.9-4.4c1.1-1 2.3-1.4 3.7-1.4c1 0 2 .2 3 .7c1 .5 2.1 1.4 3.3 2.5c.9 .9 2.3 2.3 4 4.2c1.2 1.3 2.2 2.2 2.8 2.6c.6 .4 1.6 .7 2.8 1v6.5H846.2c-1.1 0-1.9-.2-2.4-.7c-.7-.5-1.1-1.4-1.1-2.6c0-.7 .1-1.5 .1-2.3c.1-.8 .2-1.6 .4-2.5h.9c.1 .5 .4 1 .8 1.2c.5 .3 1 .4 1.6 .4h8.2c-.3-2.4-1-4.2-1.9-5.6c-.7-1.2-1.8-2.2-3.1-3.1Zm176.2-2.5l4.4 2.4l-2.4 4.6l-3.6-1.7l-2 3.8l-4.3-2.4l2.6-4.9l3.4 1.9Zm-651.8-1.9l2.3 14.9c.4 2.4 .8 3.9 1.4 4.8c.4 .5 .9 .8 1.6 .8h14.1c-.2-1.1-.5-2-1-2.8c-.2-.4-.8-1.1-1.7-2.1l1.9-5.7c1.2 1.4 2.1 2.8 2.5 4.3c.4 1.3 .6 3.1 .6 5.5l.1 .8h12.5c0-1.4 0-2.4-.1-3c-.1-.9-.4-1.7-.8-2.4c-.5 1-1.2 1.8-2 2.3c-.9 .5-1.8 .8-2.8 .8c-1.2 0-2.3-.4-3.2-1.2c-.9-.9-1.3-2-1.3-3.2c0-1.9 .6-4.1 1.7-6.7c1.3-2.9 2.5-4.3 3.8-4.3c1.7 0 3.3 1.5 4.8 4.4c1.4 2.9 2.2 6 2.2 9.2v10.6H381.1c-.6 0-1.1-.1-1.6-.4c-.9-.4-1.7-1.3-2.3-2.5c-.9-1.7-1.4-4-1.7-6.9c-1.1 1.3-1.9 2.2-2.5 2.8c-.9 .8-1.6 1.2-2.2 1.2c-.3 0-.7 0-1.2-.1l-2.9-.6c-1.2-.2-2-.4-2.3-.5c-.3-.1-.4-.3-.4-.6c0-.5 .5-1.8 1.6-4.1c1.2-2.3 2-3.7 2.5-4.3c.4-.4 1.1-.9 2.1-1.6c.6-.4 1.4-1 2.6-1.6l1.2-.8c0-.2-.1-.4-.1-.7c0-.2 0-.4 0-.6c0-.6 .1-1.4 .4-2.3c.3-.9 .8-2 1.5-3.4Zm351.1-.7v5.7c-.1 0-.8 .2-2 .6c-1.6 .6-2.8 1-3.7 1.4c-1.4 .5-2 .9-2 1.2c0 .2 .5 .8 1.7 1.9c1.5 1.5 2.8 2.8 3.8 4.1c1.8 2 3.2 4.1 4.3 6.1v6.7H698v.5c0 1-.5 2.3-1.6 3.9c-1.1 1.6-2.5 3-4 4.2c-1.6 1.3-3 1.9-4.2 1.9c-1.4 0-2.9-.4-4.5-1.2c-1.4-.6-3.6-2-6.6-4.1l1-1.5c1.4 1 2.6 1.6 3.5 2c.9 .3 1.8 .5 2.8 .5c1.1 0 2.2-.3 3.3-1c1.1-.6 2.6-1.7 4.5-3.4c2.7-2.4 4-4.2 4-5.5c0-.6-.3-1.4-.8-2.5c-.6-1.2-1.3-2.1-2.1-2.9l1.3-6.5c1.1 1.1 2 2.4 2.6 3.9c.6 1.4 .8 3.1 .8 4.9v.3h11c-.1-1.1-.5-2-.9-2.8c-.3-.4-.8-1.1-1.7-2.1l1.9-5.7c1.2 1.4 2 2.8 2.5 4.3c.4 1.3 .6 3.1 .6 5.5v.8h13.8c-.7-.8-1.2-1.4-1.8-2c-.5-.4-1.2-1-2-1.6c-.9-.7-1.8-1.4-2.7-2.1l-.8 .9c-1.4-1.5-2.2-2.3-2.5-2.6c-.8-.9-1.2-2-1.2-3.1c0-1.6 .1-2.8 .4-3.4c.3-1 .9-1.8 2-2.5c.9-.6 1.9-1.2 3-1.7c.8-.4 1.9-.9 3.3-1.5c.6-.2 1.9-.8 4-1.6Zm-468.3-.1c1.9 0 3.5 .5 4.9 1.6c1.3 1.1 2 2.5 2 4.3c0 1-.3 1.8-.9 2.6c-.6 .8-1.5 1.3-2.5 1.3c-.8 0-1.4-.3-2-.8c-.5-.6-.8-1.2-.8-1.9c0-1.1 .5-1.9 1.4-2.4c.8-.5 1.3-1 1.3-1.3c0-.6-.3-1-.8-1.4c-.5-.3-1.2-.5-2-.5c-1 0-1.9 .3-2.5 .9c-.7 .6-1 1.3-1 2.2c0 .7 .3 1.7 1 2.9c1 1.9 1.6 3.1 1.8 3.6c.7 1.7 1 3.5 1 5.5c0 1-.1 2.2-.2 3.5h-1.5c0-.3 0-.5 .1-.7l.1-1.2c0-.9-.6-1.9-1.8-3c-2-1.7-3.1-2.7-3.3-3c-1.2-1.4-1.8-3-1.8-4.8c0-2.1 .7-3.9 2.2-5.3c1.4-1.4 3.2-2.1 5.3-2.1Zm709.6-.2l4.5 2.4l-2.5 4.7l-3.6-1.8l-2 3.9l-4.3-2.5l2.6-4.8l3.4 1.9Zm-492.3-.6l5.5 2.9l-2.8 5.4l-5.6-2.9Zm319-.4l5.6 3l-2.9 5.3l-5.6-2.9Zm631.9 0c.9 1.2 1.5 2.5 1.9 3.8c.5 1.4 .7 3.3 .7 5.5v4.7c0 3.3 .2 5.6 .6 6.9c.4 1.1 .9 1.6 1.7 1.6h6.5c1.4 0 2.6-.2 3.4-.5c1.1-.5 1.8-1.3 2.3-2.4c.9-2 2-3.6 3.4-5c1.3-1.1 2.4-1.7 3.2-1.7c.9 0 1.9 1.2 3.1 3.7c1.2 2.6 1.9 5 1.9 7.2v5.2c-1.7 0-3.7-.4-6-1c-1.9-.6-3.7-1.3-5.2-2c-.9 1.3-2.1 2.2-3.4 2.7c-.7 .2-1.6 .3-2.7 .3h-6.5c-1.9 0-3.2-.8-4-2.3c-1-1.7-1.4-4.5-1.4-8.5v-6.9c0-1.5-.2-2.7-.7-3.6c-.2-.4-.6-1-1.4-1.7Zm-21.4 0l1.5 8.4c.5 3.2 .9 6 1.1 8.4c.2 1.8 .2 3.6 .2 5.2c0 1.4-.1 2.7-.5 3.9c-.3 1.2-1 2.8-1.9 4.7l-1.5-.5c.4-2.1 .6-3.7 .6-5c0-1 0-2.4-.2-4.3c-.2-1.9-.4-3.7-.6-5.6c-.2-1.8-.6-4-1.2-6.6c-.2-.8-.3-1.5-.3-1.8c0-.5 .3-1.3 .8-2.5c.5-1.2 1.2-2.6 2-4.3Zm-119.7 0l1.5 8.4c.5 3.2 .9 6 1.1 8.4c.1 1.8 .2 3.6 .2 5.2c0 1.4-.2 2.7-.5 3.9c-.3 1.2-1 2.8-1.9 4.7l-1.5-.5c.4-2.1 .6-3.7 .6-5c0-1-.1-2.4-.2-4.3c-.2-1.9-.4-3.7-.6-5.6c-.3-1.8-.7-4-1.2-6.6c-.2-.8-.3-1.5-.3-1.8c0-.5 .3-1.3 .8-2.5c.5-1.2 1.1-2.6 2-4.3Zm-39 0l1.4 8.4c.6 3.2 .9 6 1.1 8.4c.2 1.8 .3 3.6 .3 5.2c0 1.4-.2 2.7-.5 3.9c-.4 1.2-1 2.8-2 4.7l-1.4-.5c.4-2.1 .6-3.7 .6-5c0-1-.1-2.4-.3-4.3c-.1-1.9-.3-3.7-.6-5.6c-.2-1.8-.6-4-1.1-6.6c-.2-.8-.3-1.5-.3-1.8c0-.5 .2-1.3 .7-2.5c.5-1.2 1.2-2.6 2.1-4.3Zm-124.9 0l1.5 8.4c.5 3.2 .9 6 1.1 8.4c.1 1.8 .2 3.6 .2 5.2c0 1.4-.2 2.7-.5 3.9c-.3 1.2-1 2.8-1.9 4.7l-1.5-.5c.4-2.1 .6-3.7 .6-5c0-1-.1-2.4-.2-4.3c-.2-1.9-.4-3.7-.6-5.6c-.3-1.8-.7-4-1.2-6.6c-.2-.8-.3-1.5-.3-1.8c0-.5 .3-1.3 .8-2.5c.5-1.2 1.1-2.6 2-4.3Zm-75.3 0l1.4 8.4c.6 3.2 .9 6 1.1 8.4c.2 1.8 .3 3.6 .3 5.2c0 1.4-.2 2.7-.5 3.9c-.4 1.2-1 2.8-2 4.7l-1.4-.5c.4-2.1 .6-3.7 .6-5c0-1-.1-2.4-.3-4.3c-.1-1.9-.3-3.7-.6-5.6c-.2-1.8-.6-4-1.1-6.6c-.2-.8-.3-1.5-.3-1.8c0-.5 .2-1.3 .7-2.5c.5-1.2 1.2-2.6 2.1-4.3Zm-55.9 0l1.4 8.4c.5 3.2 .9 6 1.1 8.4c.2 1.8 .2 3.6 .2 5.2c0 1.4-.1 2.7-.5 3.9c-.3 1.2-.9 2.8-1.9 4.7l-1.4-.5c.3-2.1 .5-3.7 .5-5c0-1 0-2.4-.2-4.3c-.2-1.9-.3-3.7-.6-5.6c-.2-1.8-.6-4-1.2-6.6c-.2-.8-.2-1.5-.2-1.8c0-.5 .2-1.3 .7-2.5c.5-1.2 1.2-2.6 2.1-4.3Zm-233.9 0c.9 1.2 1.6 2.5 1.9 3.8c.5 1.4 .7 3.3 .7 5.5v4.7c0 3.3 .2 5.6 .6 6.9c.4 1.1 1 1.6 1.7 1.6h3.9c.9 0 1.8-.1 2.7-.2c1-.3 1.7-.4 2.1-.5c1.7-4.8 3.3-8.3 4.6-10.4c1.2-1.9 2.3-2.8 3.3-2.8c.9 0 1.6 .8 2.1 2.4c.6 1.4 .8 2.7 .8 4.1c0 1.8-.4 3.4-1.1 4.7c-.8 1.4-2 2.5-3.6 3.1c1.2-.2 2.2-.3 3.2-.3c1-.1 1.8-.1 2.7-.1h15.6c-.1-1.1-.4-2-.9-2.8c-.2-.4-.8-1.1-1.7-2.1l1.9-5.7c1.2 1.4 2 2.8 2.5 4.3c.4 1.3 .6 3.1 .6 5.5v.8h10.8c-.1-1.1-.4-2-.9-2.8c-.2-.4-.8-1.1-1.7-2.1l1.9-5.7c1.2 1.4 2 2.8 2.5 4.3c.4 1.3 .6 3.1 .6 5.5v.8h10.8c-.1-1.1-.4-2-.9-2.8c-.2-.4-.8-1.1-1.7-2.1l1.9-5.7c1.2 1.4 2 2.8 2.5 4.3c.4 1.4 .6 3.6 .6 6.5v6.3H782.3c-.4 0-.8 0-1.2 0c-.3 0-.9 0-1.7 .1c.6 .3 1.2 .7 1.8 1c.5 .4 .8 .9 .8 1.6c0 .6-.1 1.3-.3 2c-.1 .4-.3 1.1-.7 2.1c-.7 2-1.3 3.3-1.8 4.1c-.6 .7-1.3 1-2.2 1c-2.3 0-4.2-1.2-5.8-3.5c-1.6-2.3-2.4-5.1-2.4-8.4h-7.2c-1.8 0-3.2-.8-4-2.3c-.9-1.7-1.4-4.5-1.4-8.5v-6.9c0-1.5-.2-2.7-.6-3.6c-.3-.4-.7-1-1.5-1.7Zm-21.7 0l1.4 8.4c.6 3.2 .9 6 1.1 8.4c.2 1.8 .3 3.6 .3 5.2c0 1.4-.2 2.7-.5 3.9c-.4 1.2-1 2.8-2 4.7l-1.4-.5c.4-2.1 .6-3.7 .6-5c0-1-.1-2.4-.3-4.3c-.1-1.9-.3-3.7-.6-5.6c-.2-1.8-.6-4-1.1-6.6c-.2-.8-.3-1.5-.3-1.8c0-.5 .2-1.3 .7-2.5c.5-1.2 1.2-2.6 2.1-4.3Zm-76.5 0l1.5 8.4c.5 3.2 .9 6 1.1 8.4c.2 1.8 .2 3.6 .2 5.2c0 1.4-.1 2.7-.5 3.9c-.3 1.2-1 2.8-1.9 4.7l-1.5-.5c.4-2.1 .6-3.7 .6-5c0-1 0-2.4-.2-4.3c-.2-1.9-.4-3.7-.6-5.6c-.2-1.8-.6-4-1.2-6.6c-.2-.8-.3-1.5-.3-1.8c0-.5 .3-1.3 .8-2.5c.5-1.2 1.2-2.6 2-4.3Zm-388.4 0c1 1.2 1.6 2.5 2 3.8c.4 1.4 .6 3.3 .6 5.5v4.7c0 3.3 .2 5.6 .7 6.9c.3 1.1 .9 1.6 1.7 1.6h6.4c1.5 0 2.6-.2 3.5-.5c1-.5 1.8-1.3 2.2-2.4c.9-2 2.1-3.6 3.5-5c1.3-1.1 2.3-1.7 3.2-1.7c.8 0 1.8 1.2 3 3.7c1 1.9 1.6 3.8 1.8 5.5v.4h15.5c-2-2-3.8-3.4-5.4-4.3c-1.5-.8-2.9-1.2-4.3-1.2c-.4 0-.7 0-1.1 .1c-.3 0-.8 .1-1.5 .2c.9-2 1.9-3.5 2.9-4.4c1.1-1 2.3-1.4 3.7-1.4c1.1 0 2.1 .2 3 .7c1 .5 2.1 1.4 3.3 2.5c1 .9 2.3 2.3 4.1 4.2c1.2 1.3 2.1 2.2 2.7 2.6c.7 .4 1.6 .7 2.9 1h15.3c-1.9-2-3.7-3.4-5.3-4.3c-1.5-.8-2.9-1.2-4.3-1.2c-.4 0-.8 0-1.1 .1c-.4 0-.9 .1-1.5 .2c.9-2 1.8-3.5 2.9-4.4c1.1-1 2.3-1.4 3.7-1.4c1 0 2 .2 3 .7c1 .5 2.1 1.4 3.3 2.5c.9 .9 2.3 2.3 4.1 4.2c1.2 1.3 2.1 2.2 2.7 2.6c.6 .4 1.6 .7 2.8 1v6.5H297.2v-.1l-1.1-.2c-1-.1-2.1-.4-3.2-.7c-2-.6-3.8-1.3-5.3-2c-.9 1.3-2 2.2-3.4 2.7c-.6 .2-1.5 .3-2.7 .3h-6.4c-1.9 0-3.2-.8-4.1-2.3c-.9-1.7-1.4-4.5-1.4-8.5v-6.9c0-1.5-.2-2.7-.6-3.6c-.2-.4-.7-1-1.4-1.7Zm965.7-1.9l1.1 .6c-.1 .2-.1 .4-.1 .7c0 .7 .3 1.2 1 1.6c1 .5 1.9 1 2.7 1.5c-.1 1.4-.3 2.4-.5 3c-.2 .6-.5 1.4-1.1 2.6l-.7-.3c0 .3 .2 1.6 .7 4.1c.4 2.5 .8 4.6 1.1 6.4c.5 2.6 .7 4.2 .7 4.7v5.4c0 2.4-1.3 4.6-3.8 6.5c-2.6 1.9-5.5 2.9-8.7 2.9c-2.8 0-4.9-.7-6.4-2.1c-1.6-1.4-2.3-3.3-2.3-5.8c0-2.3 .2-4.3 .8-6c.7-2 1.9-4.4 3.8-7.2l1.5 1c-1.2 1.9-2.1 3.5-2.6 4.9c-.6 1.3-.8 2.7-.8 4.1c0 1.4 .5 2.5 1.6 3.3c1.1 .8 2.6 1.2 4.5 1.2c2.8 0 5.1-.5 6.9-1.6c1.7-1.1 2.6-2.5 2.6-4.3c0-.3 0-.5 0-.7c0-.2 0-.3 0-.4c0-.6 0-1.3-.1-2.1c-.2-.7-.4-2.2-.8-4.6c-.7-3.8-1.4-7.5-2.1-11.3l-1.2-.9c0-1.6 .7-3.9 2.2-7.2Zm-685.3 0l1.1 .6c-.1 .2-.1 .4-.1 .7c0 .7 .3 1.2 1 1.6c1 .5 1.9 1 2.7 1.5c-.1 1.4-.3 2.4-.5 3c-.2 .6-.5 1.4-1.1 2.6l-.7-.3c0 .3 .2 1.6 .7 4.1c.4 2.5 .8 4.6 1.1 6.4c.4 2 .6 3.3 .7 4.1v.1h1.7c1.8 0 3.2-.5 4.2-1.4c1.1-1.1 1.8-3 2.1-5.6l1.6 .2c0 .6 0 1.1-.1 1.4c0 1.1 0 1.9 0 2.5c0 1 .2 1.6 .7 2.1c.4 .5 1.1 .8 1.9 .8c.7 0 1.5-.2 2.1-.5c.7-.3 1.7-1 3.1-2l8.6-6.1c1-.7 1.8-1.2 2.3-1.5c1.1-.7 2.3-1.1 3.3-1.1c1.8 0 3.3 .7 4.3 1.9c1.3 1.5 1.9 3.7 1.9 6.6v9.2H567.8c-1.2 0-2.1-.3-2.7-.9c-.7-.5-1.3-1.4-1.8-2.7c-1 1.4-2 2.4-2.9 2.9c-.8 .4-2 .7-3.3 .7h-1.8l-.1 1.2c-.5 1.7-1.7 3.3-3.6 4.7c-2.6 1.9-5.5 2.9-8.7 2.9c-2.8 0-4.9-.7-6.4-2.1c-1.6-1.4-2.3-3.3-2.3-5.8c0-2.3 .2-4.3 .8-6c.7-2 1.9-4.4 3.8-7.2l1.5 1c-1.2 1.9-2.1 3.5-2.6 4.9c-.6 1.3-.8 2.7-.8 4.1c0 1.4 .5 2.5 1.6 3.3c1.1 .8 2.6 1.2 4.5 1.2c2.8 0 5.1-.5 6.9-1.6c1.7-1.1 2.6-2.5 2.6-4.3c0-.3 0-.5 0-.7c0-.2 0-.3 0-.4c0-.6 0-1.3-.1-2.1c-.2-.7-.4-2.2-.8-4.6c-.7-3.8-1.4-7.5-2.1-11.3l-1.2-.9c0-1.6 .7-3.9 2.2-7.2Zm843.8 0l1.1 .6c0 .1 0 .3-.1 .7c0 .5 .4 1.1 1 1.6c.6 .4 1.6 .9 2.8 1.4c-.1 1-.3 2.1-.6 3c-.3 1-.6 1.9-.9 2.6l-.9-.3l2.6 14.8v6.5h-37.2v.5c0 1-.6 2.3-1.7 3.9c-1.1 1.6-2.4 3-3.9 4.2c-1.7 1.3-3.1 1.9-4.3 1.9c-1.4 0-2.9-.4-4.5-1.2c-1.4-.6-3.6-2-6.6-4.1l1-1.5c1.5 1 2.6 1.6 3.5 2c.9 .3 1.8 .5 2.8 .5c1.1 0 2.2-.3 3.3-1c1.1-.6 2.6-1.7 4.5-3.4c2.7-2.4 4-4.2 4-5.5c0-.6-.2-1.4-.8-2.5c-.5-1.2-1.2-2.1-2.1-2.9l1.4-6.5c1.1 1.1 1.9 2.4 2.5 3.9c.6 1.4 .9 3.1 .9 4.9v.3h15.4c-1.9-2-3.7-3.4-5.4-4.3c-1.4-.8-2.8-1.2-4.2-1.2c-.4 0-.8 0-1.2 .1c-.3 0-.8 .1-1.4 .2c.8-2 1.8-3.5 2.9-4.4c1.1-1 2.3-1.4 3.7-1.4c1 0 2 .2 3 .7c1 .5 2 1.4 3.3 2.5c.9 .9 2.3 2.3 4 4.2c1.2 1.3 2.1 2.2 2.8 2.6c.6 .4 1.5 .7 2.8 1h8.6l-2.9-16.2l-1.5-1.1c0-.9 .2-1.8 .4-2.8c.4-1.2 1-2.7 1.9-4.3Zm-119.7 0l1.1 .6c0 .1 0 .3-.1 .7c0 .5 .3 1.1 1 1.6c.6 .4 1.5 .9 2.8 1.4c-.1 1-.3 2.1-.6 3c-.3 1-.6 1.9-1 2.6l-.8-.3l2.6 14.8v6.5h-22.4c-1 0-1.9-.2-2.4-.7c-.7-.5-1-1.4-1-2.6c0-.7 0-1.5 .1-2.3c0-.8 .1-1.6 .3-2.5h.9c.1 .5 .4 1 .8 1.2c.5 .3 1 .4 1.6 .4h8.3c-.4-2.4-1-4.2-2-5.6c-.7-1.2-1.7-2.2-3.1-3.1l1.7-7.4c2.1 1.6 3.6 3.5 4.4 6c.8 2.2 1.2 5.2 1.2 8.9v1.2h8.7l-2.9-16.2l-1.5-1.1c0-.9 .1-1.8 .4-2.8c.4-1.2 1-2.7 1.9-4.3Zm-101 0l1.1 .6c0 .1-.1 .3-.1 .7c0 .5 .3 1.1 1 1.6c.6 .4 1.5 .9 2.8 1.4c-.1 1-.3 2.1-.6 3c-.3 1-.6 1.9-1 2.6l-.8-.3l2.6 14.8h1c.4 0 .8 0 1 0c.5-.1 .9-.2 1.4-.2c-.8-1.2-1.3-2.1-1.6-2.9c-.3-.7-.4-1.6-.4-2.5c0-2.4 1-4.4 2.9-6.2c2-1.8 4.3-2.7 6.9-2.7c1.8 0 3.5 .6 5.1 1.8c1.5 1.1 2.6 2.4 3.3 3.9l-1 .9c-1.3-.5-2.3-.8-3-1c-.8-.1-1.7-.2-2.8-.2c-2 0-3.7 .2-5.1 .5c-1.9 .4-2.8 1-2.8 1.7c0 1.1 2.2 2.9 6.7 5.5l12.1-3.5l-2.7 6.8c-4.3 1.3-7.8 2.3-10.6 3c-2.4 .7-4.5 1.1-6.2 1.3c-1.2 .2-2.4 .3-3.7 .3h-14c-.6 0-1.1 0-1.5 .1c-.3 .1-.5 .3-.5 .4c0 .1 .4 .3 1.2 .6c.8 .3 1.2 .8 1.2 1.4c0 .9-.2 2-.4 3.2c-.3 1.2-.7 2.4-1.1 3.3c-.4 .8-1.4 1.7-3 2.7c-1.7 1-3.6 1.9-5.8 2.6c-2.5 .8-4.9 1.2-7.2 1.2c-2.5 0-4.5-.6-5.8-1.8c-1.3-1.2-2-2.9-2-5.2c0-2.6 .3-4.7 .9-6.6c.7-2.2 2.2-5.1 4.5-8.7l1.3 1c-1.4 2.5-2.5 4.6-3 6.1c-.6 1.5-.9 3-.9 4.4c0 1.5 .5 2.7 1.4 3.5c1 .8 2.3 1.3 3.9 1.3c2.1 0 4.2-.3 6.6-1c2.1-.5 3.9-1.2 5.4-2c1.5-.8 2.2-1.4 2.2-1.9c0-.2-.4-.3-1.3-.3c-.9 0-1.7-.1-2.4-.1c-1.7 0-2.8 0-3.3-.1c-.5-.2-.7-.5-.7-.9c0-.9 .1-1.8 .4-2.8c.4-.9 .7-1.6 1.2-2.2c1-1.2 2.3-2.3 3.7-3.2c1.6-1 3-1.5 4.3-1.5h11.3l-2.9-16.2l-1.5-1.1c0-.9 .1-1.8 .4-2.8c.4-1.2 1-2.7 1.9-4.3Zm-62.9 0l1.1 .6c0 .1 0 .3-.1 .7c0 .5 .3 1.1 1 1.6c.6 .4 1.5 .9 2.8 1.4c-.1 1-.3 2.1-.6 3c-.3 1-.6 1.9-1 2.6l-.8-.3l2.6 14.8v6.5h-43.5v.5c0 1-.5 2.3-1.6 3.9c-1.2 1.6-2.5 3-4 4.2c-1.6 1.3-3 1.9-4.2 1.9c-1.4 0-2.9-.4-4.5-1.2c-1.4-.6-3.6-2-6.6-4.1l1-1.5c1.4 1 2.6 1.6 3.5 2c.8 .3 1.8 .5 2.8 .5c1.1 0 2.2-.3 3.3-1c1.1-.6 2.6-1.7 4.5-3.4c2.6-2.4 4-4.2 4-5.5c0-.6-.3-1.4-.8-2.5c-.6-1.2-1.3-2.1-2.1-2.9l1.3-6.5c1.1 1.1 2 2.4 2.5 3.9c.6 1.4 .9 3.1 .9 4.9v.3h2.7c.8 0 1.5 0 2.1 .1c1.8 .2 3.8 .4 6 .6c-2.4-.5-4-1.2-5-2.1c-.9-.8-1.4-2.1-1.4-3.8c0-2.4 .6-4.7 1.7-6.6c1.2-2 2.5-3 3.9-3c1.6 0 3 1.4 4.2 4.2c1.2 2.7 1.8 6.1 1.8 10v.6h2.7c.7 0 1.4 0 2.1 .1c1.7 .2 3.7 .4 6 .6c-2.4-.5-4.1-1.2-5-2.1c-1-.8-1.4-2.1-1.4-3.8c0-2.4 .5-4.7 1.7-6.6c1.1-2 2.4-3 3.8-3c1.6 0 3 1.4 4.2 4.2c1.2 2.7 1.8 6.1 1.8 10v.6h8.7l-2.9-16.2l-1.5-1.1c0-.9 .1-1.8 .4-2.8c.4-1.2 1-2.7 1.9-4.3Zm-131.3 0l1.1 .6c0 .1 0 .3-.1 .7c0 .5 .4 1.1 1 1.6c.6 .4 1.6 .9 2.9 1.4c-.2 1-.4 2.1-.7 3c-.3 1-.6 1.9-.9 2.6l-.9-.3l2.6 14.8v6.5H957.3c-.7 0-1.2 0-1.5 0c-.3 .1-.5 .2-.5 .3c.5 .3 .9 .5 1.3 .6c.4 .1 .7 .3 .8 .4c.1 .2 .2 .4 .2 .8c0 1.1-.3 2.5-1 4.1c-.6 1.5-1.2 2.5-1.9 2.9c-.6 .5-2.3 1-5.2 1.7c-2.9 .6-5.4 1-7.5 1c-3 0-5.5-.7-7.3-1.9c-1.9-1.2-2.8-2.9-2.8-4.9c0-1.9 .4-3.8 1.2-5.5c1-2.2 2.8-4.9 5.5-8.1l1.5 1c-1.7 2-2.9 3.6-3.5 4.9c-.7 1.3-1 2.5-1 3.8c0 1.7 .7 2.9 2.1 3.7c1.4 .9 3.6 1.3 6.6 1.3c1.5 0 3.6-.3 6.3-.9c2.7-.5 4.1-1 4.1-1.4c0-.2-.5-.4-1.6-.5c-1-.2-2.1-.3-3.4-.3c-1.8 0-2.7-.4-2.7-1.2c0-.3 .2-1 .6-1.9c.3-.7 .6-1.3 1-2c.5-1.3 1.7-2.4 3.3-3.2c1.7-.8 3.5-1.2 5.3-1.2h13.4c-.1-1.1-.4-2-.9-2.8c-.2-.4-.8-1.1-1.7-2.1l1.9-5.7c1.2 1.4 2 2.8 2.5 4.3c.4 1.3 .6 3.1 .6 5.5v.8h8.6l-2.9-16.2l-1.6-1.1c0-.9 .2-1.8 .5-2.8c.3-1.2 1-2.7 1.8-4.3Zm-332 0l1.1 .6c0 .1 0 .3-.1 .7c0 .5 .4 1.1 1 1.6c.6 .4 1.6 .9 2.8 1.4c-.1 1-.3 2.1-.6 3c-.3 1-.6 1.9-.9 2.6l-.9-.3l2.6 14.8v6.5H639.3v-.1l-1.1-.2c-1-.1-2.1-.4-3.2-.7c-2-.6-3.8-1.3-5.3-2c-.9 1.3-2 2.2-3.4 2.7c-.6 .2-1.5 .3-2.7 .3H601.2c-1.9 0-3.2-.8-4-2.3c-1-1.7-1.4-4.5-1.4-8.5v-6.9c0-1.5-.2-2.7-.7-3.6c-.2-.4-.6-1-1.4-1.7l2.6-6c.9 1.2 1.6 2.5 1.9 3.8c.5 1.4 .7 3.3 .7 5.5v4.7c0 3.3 .2 5.6 .6 6.9c.4 1.1 .9 1.6 1.7 1.6h6.1c.7 0 1.4 0 2 .1c1.8 .2 3.8 .4 6 .6c-2.3-.5-4-1.2-4.9-2.1c-1-.8-1.5-2.1-1.5-3.8c0-2.4 .6-4.7 1.7-6.6c1.2-2 2.5-3 3.9-3c1.6 0 3 1.4 4.2 4.2c1.2 2.7 1.8 6.1 1.8 10v.6h3.1c1.5 0 2.6-.2 3.5-.5c1-.5 1.8-1.3 2.2-2.4c.9-2 2.1-3.6 3.5-5c1.3-1.1 2.3-1.7 3.2-1.7c.8 0 1.8 1.2 3 3.7c1 1.9 1.6 3.8 1.8 5.5v.4h8.7l-2.9-16.2l-1.5-1.1c0-.9 .2-1.8 .4-2.8c.4-1.2 1-2.7 1.9-4.3Zm686.1-.3l5.6 3l-2.9 5.4l-5.6-3Zm-237.3 0l5.6 3l-2.9 5.4l-5.6-3Zm-483.6 0l5.6 3l-2.9 5.4l-5.6-3Zm468.2 0l4.4 2.4l-2.5 4.7l-3.5-1.8l-2 3.9l-4.4-2.5l2.7-4.8l3.4 1.9Zm-579.1-1l5.6 3l-2.9 5.4l-5.6-3Zm-98.4-2.4l5.6 3l-2.8 5.3l-5.6-2.9Zm-28.9-1.1l4.3 2.2l-2.6 4.4l-3.4-1.9l-1.9 3.8l-4.5-2.4l2.5-4.2l3.6 1.7Z" class="g0_29"/>
<path d="M946.8 419.6l3 2l-2.3 2.6l-2.5-1.5l-1.9 2l-3-1.7l2.2-2.9l2.7 1.7Zm-78.5-10.1l5.5 3l-2.9 5.3l-5.6-2.9Zm-558.3 0l5.6 3l-2.9 5.3l-5.6-2.9Zm508.8-.2l5.5 3l-2.8 5.3l-5.6-2.9Zm-115.4 0l5.6 3l-2.9 5.3l-5.6-2.9Zm209.8-.2l4.5 2.4l-2.5 4.6l-3.6-1.7l-2 3.8l-4.3-2.4l2.6-4.9l3.4 1.9Zm-104.5 0l4.5 2.4l-2.5 4.6l-3.6-1.7l-2 3.8l-4.3-2.4l2.6-4.9l3.4 1.9Zm-416 0l4.5 2.4l-2.5 4.6l-3.5-1.7l-2.1 3.8l-4.3-2.4l2.6-4.9l3.4 1.9Zm378.9-1.4c.2 1.4 .9 2.6 2.1 3.7c1.3 1 2.6 1.5 4 1.5c.4 0 .7-.2 .7-.5c0-.9-.5-1.8-1.5-2.6c-1.3-.9-3-1.6-5.3-2.1Zm-513.4-6c.8 0 1.5 .2 2.1 .8c.6 .6 .8 1.3 .8 2.1c0 .8-.3 1.5-.8 2.1c-.6 .6-1.3 .9-2.2 .9c-.7 0-1.4-.3-2-.9c-.6-.6-.9-1.3-.9-2.1c0-.8 .4-1.5 .9-2.1c.6-.6 1.3-.8 2.1-.8Zm641-4.8c-.5 0-.9 .2-1.1 .6c-.3 .4-.5 .8-.5 1.3c0 .6 .3 1.1 1 1.4c.6 .4 1.4 .6 2.5 .6h.9c-.5-2.6-1.4-3.9-2.8-3.9Zm-470.4 0c-.5 0-.9 .2-1.2 .6c-.3 .4-.4 .8-.4 1.3c0 .6 .3 1.1 .9 1.4c.7 .4 1.5 .6 2.5 .6h.9c-.4-2.6-1.3-3.9-2.7-3.9Zm1019.2-.1c-.7 0-1.2 .7-1.6 2.1c.8 .4 1.4 .6 1.9 .8c1.3 .4 2 .7 2.2 .7c.3 0 .5-.1 .5-.4c0-.3-.4-.9-1-1.8c-.8-.9-1.5-1.4-2-1.4Zm-814.6 0c-.6 0-1.1 .7-1.6 2.1c.9 .4 1.5 .6 1.9 .8c1.3 .4 2 .7 2.2 .7c.4 0 .5-.1 .5-.4c0-.3-.3-.9-1-1.8c-.8-.9-1.4-1.4-2-1.4Zm-342.1 0c-.6 0-1.1 .7-1.6 2.1c.9 .4 1.5 .6 1.9 .8c1.3 .4 2 .7 2.2 .7c.4 0 .5-.1 .5-.4c0-.3-.3-.9-1-1.8c-.8-.9-1.4-1.4-2-1.4Zm293.6-.7c-1.1 0-2.3 .3-3.6 1c-1.3 .6-3.2 1.9-5.7 3.7h6.3c5.2 0 7.8-.8 7.8-2.4c0-.8-.5-1.3-1.7-1.8c-.9-.4-2-.5-3.1-.5Zm-99.8 0c-1 0-2.2 .3-3.5 1c-1.3 .6-3.2 1.9-5.7 3.7h6.2c5.3 0 7.9-.8 7.9-2.4c0-.8-.6-1.3-1.7-1.8c-.9-.4-2-.5-3.2-.5Zm849.3-2.2c-.3 0-.6 .1-.8 .4c-.2 .2-.3 .5-.3 .9c0 .5 .3 .9 1 1.3c.7 .5 1.7 .9 2.9 1.3c-.5-1.6-1-2.6-1.4-3.1c-.3-.5-.8-.8-1.4-.8Zm-558.4 0c-.4 0-.9 .5-1.4 1.4c-.6 .9-1.3 2.3-2 4.2c1.8-.6 3.1-1.2 3.7-1.6c.7-.5 1.1-1 1.1-1.5c0-.4-.2-1-.5-1.6c-.3-.6-.6-.9-.9-.9Zm320.9-.9c-.4 0-.6 .1-.9 .3c-.2 .2-.3 .5-.3 .8c0 .6 .5 1.3 1.5 2c1 .6 2.3 1 3.7 1.3c-.6-1.4-1.2-2.5-1.9-3.2c-.7-.8-1.4-1.2-2.1-1.2Zm-16 0c-.3 0-.6 .1-.8 .3c-.3 .2-.4 .5-.4 .8c0 .6 .5 1.3 1.6 2c1 .6 2.2 1 3.6 1.3c-.5-1.4-1.2-2.5-1.9-3.2c-.7-.8-1.4-1.2-2.1-1.2Zm-467.7 0c-.3 0-.6 .1-.8 .3c-.2 .2-.4 .5-.4 .8c0 .6 .6 1.3 1.6 2c1 .6 2.2 1 3.7 1.3c-.6-1.4-1.3-2.5-2-3.2c-.7-.8-1.4-1.2-2.1-1.2Zm-238.7-2.1c-.5 .3-1 .4-1.2 .6c-.9 .5-1.6 .9-2.1 1.3c-.4 .3-.7 .6-1 .9c-.3 .3-.5 .6-.5 .8c0 .2 .3 .4 .9 .5c.5 .1 1.1 .2 1.6 .2c.4 0 .7-.1 1.1-.3c.4-.2 .9-.6 1.6-1.1Zm55.3-.3c1.3 0 2.4 .8 3.3 2.6c.9 1.7 1.3 3.8 1.3 6.3v6.1c0 2.8-1.2 5.5-3.5 8.2c-2.3 2.6-4.6 4-6.9 4c-1.3 0-2.7-.4-4.3-1.3c-1.6-.8-4-2.5-7.2-5l1-1.4c1.7 1.2 3.1 1.9 4.2 2.3c.9 .3 1.9 .5 3.1 .5c1.5 0 3.1-.4 4.6-1.3c1.8-1 3.6-2.6 5.5-4.9c-.7 .1-1.2 .1-1.7 .1c-1.5 0-2.8-.5-3.7-1.5c-1-1-1.4-2.4-1.4-4.2c0-2.4 .5-4.7 1.6-6.9c1.2-2.4 2.6-3.6 4.1-3.6Zm583.4-.3l1.4 .9c-.4 .6-.7 1.2-.9 1.7c-.2 .6-.4 1-.6 1.4c-.2 .7-.3 1.5-.3 2.2c0 .9 .3 1.7 .8 2.4c.6 .8 1.4 1.2 2.3 1.4c.6 .2 1.3 .3 2.2 .4c.9 .1 1.9 .1 2.9 .1h17.2c-.4-1.3-.8-2.1-1.1-2.6c-.3-.6-.9-1.4-1.6-2.3l2.2-5.6c1.2 1.7 1.9 3.3 2.3 4.7c.3 1.3 .5 3.1 .5 5.5v6.8h-20.1c-.9 0-1.7 0-2.4 0c-.6-.1-1.1-.1-1.4-.1c-.6-.1-1.3-.2-2-.5c-1.4-.5-2.4-1.4-3.3-2.7c-.8-1.4-1.2-2.9-1.2-4.6c0-.7 0-1.4 .1-2.1c.1-.7 .3-1.4 .5-2.2c.4-1 .7-1.8 1.2-2.6c.4-.7 .8-1.5 1.3-2.2Zm-98.3-.1c1.2 1.4 2 2.8 2.5 4.3c.4 1.4 .6 3.6 .6 6.5v6.3H904.5l-.5 2.4c-.6 1.4-1.5 2.7-2.7 4.1c-2.3 2.6-4.6 4-6.8 4c-1.4 0-2.8-.4-4.4-1.3c-1.5-.8-4-2.5-7.2-5l1-1.4c1.7 1.2 3.1 1.9 4.2 2.3c.9 .3 2 .5 3.1 .5c1.6 0 3.1-.4 4.6-1.3c1.8-1 3.6-2.6 5.5-4.9c-.6 .1-1.2 .1-1.6 .1c-1.6 0-2.9-.5-3.8-1.5c-.9-1-1.4-2.4-1.4-4.2c0-2.4 .6-4.7 1.7-6.9c1.2-2.4 2.5-3.6 4-3.6c1.3 0 2.4 .8 3.3 2.6c.9 1.7 1.3 3.8 1.3 6.3v1.3h10.8c-.1-1.1-.4-2-.9-2.8c-.2-.4-.8-1.1-1.7-2.1Zm-509.9-1c-.5 0-.9 .2-1.3 .6c-.4 .5-.6 1-.6 1.5c0 .4 .2 .7 .5 1c.3 .2 .7 .3 1.1 .3c.4 0 .7-.1 1.1-.3c.4-.2 .8-.6 1.4-1.1c-.4-.7-.8-1.3-1.1-1.6c-.4-.3-.7-.4-1.1-.4Zm931.3-1.8c1.6 0 2.9 1.2 3.6 3.6c.7 2.1 1.1 5.4 1.1 9.8v6.5h-3.2c-2.8 0-6 .1-9.5 .2c-2.2 .1-4.9 .2-8.3 .3c-3.5 .2-5.3 .3-5.5 .3c-3.4 0-5.9-.6-7.4-1.8c-1.4-1.1-2.1-2.9-2.1-5.2c0-1.8 .2-3.4 .5-4.8c.4-1.3 1.2-3.5 2.5-6.5l1.5 .7c-1.1 2.7-1.7 4.7-1.7 6c0 1.6 .7 2.8 1.9 3.5c1.5 .8 4 1.2 7.5 1.2c2.4-.2 4.8-.3 7.1-.4c2.3-.1 4.5-.1 6.7-.1c-.7-.3-1.2-.7-1.4-1.1c-.2-.4-.4-1-.4-1.7c0-2.3 .7-4.6 2.1-6.8c1.5-2.4 3.2-3.7 5-3.7Zm-831.8-1.1c1.8 0 3.5 .6 5.1 1.8c1.5 1.1 2.6 2.4 3.3 3.9l-1 .9c-1.3-.5-2.3-.8-3-1c-.8-.1-1.7-.2-2.8-.2c-2 0-3.7 .2-5.1 .5c-1.9 .4-2.8 1-2.8 1.7c0 1.1 2.2 2.9 6.7 5.5l12.1-3.5l-2.7 6.8c-4.3 1.3-7.8 2.3-10.6 3c-2.4 .7-4.5 1.1-6.2 1.3c-1.2 .2-2.4 .3-3.7 .3H468c-1.1 0-2-.3-2.7-.9c-.7-.5-1.2-1.4-1.7-2.7c-1 1.4-2 2.4-2.9 2.9c-.9 .4-2 .7-3.4 .7h-1.8v.5c0 1-.6 2.3-1.7 3.9c-1.1 1.6-2.4 3-3.9 4.2c-1.7 1.3-3.1 1.9-4.2 1.9c-1.5 0-3-.4-4.6-1.2c-1.4-.6-3.6-2-6.5-4.1l1-1.5c1.4 1 2.6 1.6 3.4 2c.9 .3 1.9 .5 2.9 .5c1.1 0 2.2-.3 3.3-1c1.1-.6 2.6-1.7 4.5-3.4c2.6-2.4 3.9-4.2 3.9-5.5c0-.6-.2-1.4-.7-2.5c-.6-1.2-1.3-2.1-2.1-2.9l1.3-6.5c1.1 1.1 1.9 2.4 2.5 3.9c.6 1.4 .9 3.1 .9 4.9v.3h1.8c1.9 0 3.3-.5 4.2-1.4c1.2-1.1 1.9-3 2.2-5.6l1.6 .2c0 .6-.1 1.1-.1 1.4c-.1 1.1-.1 1.9-.1 2.5c0 1 .3 1.6 .7 2.1c.5 .5 1.2 .8 1.9 .8c.8 0 1.5-.2 2.2-.5c.7-.3 1.7-1 3.1-2l8.6-6.1c1-.7 1.7-1.2 2.2-1.5c1.2-.7 2.3-1.1 3.4-1.1c1.8 0 3.2 .7 4.3 1.9c1.2 1.5 1.9 3.7 1.9 6.6v2.7h.9c.4 0 .8 0 1 0c.5-.1 .9-.2 1.4-.2c-.8-1.2-1.3-2.1-1.6-2.9c-.3-.7-.4-1.6-.4-2.5c0-2.4 1-4.4 2.9-6.2c2-1.8 4.3-2.7 6.9-2.7Zm346.9-1.6c2.1 1.6 3.5 3.5 4.4 6c.8 2.2 1.2 5.2 1.2 8.9v1.2h15.4c-1.9-2-3.7-3.4-5.4-4.3c-1.4-.8-2.8-1.2-4.2-1.2c-.4 0-.8 0-1.1 .1c-.4 0-.9 .1-1.5 .2c.8-2 1.8-3.5 2.9-4.4c1.1-1 2.3-1.4 3.7-1.4c1 0 2 .2 3 .7c1 .5 2.1 1.4 3.3 2.5c.9 .9 2.3 2.3 4 4.2c1.2 1.3 2.2 2.2 2.8 2.6c.6 .4 1.6 .7 2.8 1v6.5H846.2c-1.1 0-1.9-.2-2.4-.7c-.7-.5-1.1-1.4-1.1-2.6c0-.7 .1-1.5 .1-2.3c.1-.8 .2-1.6 .4-2.5h.9c.1 .5 .4 1 .8 1.2c.5 .3 1 .4 1.6 .4h8.2c-.3-2.4-1-4.2-1.9-5.6c-.7-1.2-1.8-2.2-3.1-3.1Zm176.2-2.5l4.4 2.4l-2.4 4.6l-3.6-1.7l-2 3.8l-4.3-2.4l2.6-4.9l3.4 1.9Zm-651.8-1.9l2.3 14.9c.4 2.4 .8 3.9 1.4 4.8c.4 .5 .9 .8 1.6 .8h14.1c-.2-1.1-.5-2-1-2.8c-.2-.4-.8-1.1-1.7-2.1l1.9-5.7c1.2 1.4 2.1 2.8 2.5 4.3c.4 1.3 .6 3.1 .6 5.5l.1 .8h12.5c0-1.4 0-2.4-.1-3c-.1-.9-.4-1.7-.8-2.4c-.5 1-1.2 1.8-2 2.3c-.9 .5-1.8 .8-2.8 .8c-1.2 0-2.3-.4-3.2-1.2c-.9-.9-1.3-2-1.3-3.2c0-1.9 .6-4.1 1.7-6.7c1.3-2.9 2.5-4.3 3.8-4.3c1.7 0 3.3 1.5 4.8 4.4c1.4 2.9 2.2 6 2.2 9.2v10.6H381.1c-.6 0-1.1-.1-1.6-.4c-.9-.4-1.7-1.3-2.3-2.5c-.9-1.7-1.4-4-1.7-6.9c-1.1 1.3-1.9 2.2-2.5 2.8c-.9 .8-1.6 1.2-2.2 1.2c-.3 0-.7 0-1.2-.1l-2.9-.6c-1.2-.2-2-.4-2.3-.5c-.3-.1-.4-.3-.4-.6c0-.5 .5-1.8 1.6-4.1c1.2-2.3 2-3.7 2.5-4.3c.4-.4 1.1-.9 2.1-1.6c.6-.4 1.4-1 2.6-1.6l1.2-.8c0-.2-.1-.4-.1-.7c0-.2 0-.4 0-.6c0-.6 .1-1.4 .4-2.3c.3-.9 .8-2 1.5-3.4Zm351.1-.7v5.7c-.1 0-.8 .2-2 .6c-1.6 .6-2.8 1-3.7 1.4c-1.4 .5-2 .9-2 1.2c0 .2 .5 .8 1.7 1.9c1.5 1.5 2.8 2.8 3.8 4.1c1.8 2 3.2 4.1 4.3 6.1v6.7H698v.5c0 1-.5 2.3-1.6 3.9c-1.1 1.6-2.5 3-4 4.2c-1.6 1.3-3 1.9-4.2 1.9c-1.4 0-2.9-.4-4.5-1.2c-1.4-.6-3.6-2-6.6-4.1l1-1.5c1.4 1 2.6 1.6 3.5 2c.9 .3 1.8 .5 2.8 .5c1.1 0 2.2-.3 3.3-1c1.1-.6 2.6-1.7 4.5-3.4c2.7-2.4 4-4.2 4-5.5c0-.6-.3-1.4-.8-2.5c-.6-1.2-1.3-2.1-2.1-2.9l1.3-6.5c1.1 1.1 2 2.4 2.6 3.9c.6 1.4 .8 3.1 .8 4.9v.3h11c-.1-1.1-.5-2-.9-2.8c-.3-.4-.8-1.1-1.7-2.1l1.9-5.7c1.2 1.4 2 2.8 2.5 4.3c.4 1.3 .6 3.1 .6 5.5v.8h13.8c-.7-.8-1.2-1.4-1.8-2c-.5-.4-1.2-1-2-1.6c-.9-.7-1.8-1.4-2.7-2.1l-.8 .9c-1.4-1.5-2.2-2.3-2.5-2.6c-.8-.9-1.2-2-1.2-3.1c0-1.6 .1-2.8 .4-3.4c.3-1 .9-1.8 2-2.5c.9-.6 1.9-1.2 3-1.7c.8-.4 1.9-.9 3.3-1.5c.6-.2 1.9-.8 4-1.6Zm-468.3-.1c1.9 0 3.5 .5 4.9 1.6c1.3 1.1 2 2.5 2 4.3c0 1-.3 1.8-.9 2.6c-.6 .8-1.5 1.3-2.5 1.3c-.8 0-1.4-.3-2-.8c-.5-.6-.8-1.2-.8-1.9c0-1.1 .5-1.9 1.4-2.4c.8-.5 1.3-1 1.3-1.3c0-.6-.3-1-.8-1.4c-.5-.3-1.2-.5-2-.5c-1 0-1.9 .3-2.5 .9c-.7 .6-1 1.3-1 2.2c0 .7 .3 1.7 1 2.9c1 1.9 1.6 3.1 1.8 3.6c.7 1.7 1 3.5 1 5.5c0 1-.1 2.2-.2 3.5h-1.5c0-.3 0-.5 .1-.7l.1-1.2c0-.9-.6-1.9-1.8-3c-2-1.7-3.1-2.7-3.3-3c-1.2-1.4-1.8-3-1.8-4.8c0-2.1 .7-3.9 2.2-5.3c1.4-1.4 3.2-2.1 5.3-2.1Zm709.6-.2l4.5 2.4l-2.5 4.7l-3.6-1.8l-2 3.9l-4.3-2.5l2.6-4.8l3.4 1.9Zm-492.3-.6l5.5 2.9l-2.8 5.4l-5.6-2.9Zm319-.4l5.6 3l-2.9 5.3l-5.6-2.9Zm631.9 0c.9 1.2 1.5 2.5 1.9 3.8c.5 1.4 .7 3.3 .7 5.5v4.7c0 3.3 .2 5.6 .6 6.9c.4 1.1 .9 1.6 1.7 1.6h6.5c1.4 0 2.6-.2 3.4-.5c1.1-.5 1.8-1.3 2.3-2.4c.9-2 2-3.6 3.4-5c1.3-1.1 2.4-1.7 3.2-1.7c.9 0 1.9 1.2 3.1 3.7c1.2 2.6 1.9 5 1.9 7.2v5.2c-1.7 0-3.7-.4-6-1c-1.9-.6-3.7-1.3-5.2-2c-.9 1.3-2.1 2.2-3.4 2.7c-.7 .2-1.6 .3-2.7 .3h-6.5c-1.9 0-3.2-.8-4-2.3c-1-1.7-1.4-4.5-1.4-8.5v-6.9c0-1.5-.2-2.7-.7-3.6c-.2-.4-.6-1-1.4-1.7Zm-21.4 0l1.5 8.4c.5 3.2 .9 6 1.1 8.4c.2 1.8 .2 3.6 .2 5.2c0 1.4-.1 2.7-.5 3.9c-.3 1.2-1 2.8-1.9 4.7l-1.5-.5c.4-2.1 .6-3.7 .6-5c0-1 0-2.4-.2-4.3c-.2-1.9-.4-3.7-.6-5.6c-.2-1.8-.6-4-1.2-6.6c-.2-.8-.3-1.5-.3-1.8c0-.5 .3-1.3 .8-2.5c.5-1.2 1.2-2.6 2-4.3Zm-119.7 0l1.5 8.4c.5 3.2 .9 6 1.1 8.4c.1 1.8 .2 3.6 .2 5.2c0 1.4-.2 2.7-.5 3.9c-.3 1.2-1 2.8-1.9 4.7l-1.5-.5c.4-2.1 .6-3.7 .6-5c0-1-.1-2.4-.2-4.3c-.2-1.9-.4-3.7-.6-5.6c-.3-1.8-.7-4-1.2-6.6c-.2-.8-.3-1.5-.3-1.8c0-.5 .3-1.3 .8-2.5c.5-1.2 1.1-2.6 2-4.3Zm-39 0l1.4 8.4c.6 3.2 .9 6 1.1 8.4c.2 1.8 .3 3.6 .3 5.2c0 1.4-.2 2.7-.5 3.9c-.4 1.2-1 2.8-2 4.7l-1.4-.5c.4-2.1 .6-3.7 .6-5c0-1-.1-2.4-.3-4.3c-.1-1.9-.3-3.7-.6-5.6c-.2-1.8-.6-4-1.1-6.6c-.2-.8-.3-1.5-.3-1.8c0-.5 .2-1.3 .7-2.5c.5-1.2 1.2-2.6 2.1-4.3Zm-124.9 0l1.5 8.4c.5 3.2 .9 6 1.1 8.4c.1 1.8 .2 3.6 .2 5.2c0 1.4-.2 2.7-.5 3.9c-.3 1.2-1 2.8-1.9 4.7l-1.5-.5c.4-2.1 .6-3.7 .6-5c0-1-.1-2.4-.2-4.3c-.2-1.9-.4-3.7-.6-5.6c-.3-1.8-.7-4-1.2-6.6c-.2-.8-.3-1.5-.3-1.8c0-.5 .3-1.3 .8-2.5c.5-1.2 1.1-2.6 2-4.3Zm-75.3 0l1.4 8.4c.6 3.2 .9 6 1.1 8.4c.2 1.8 .3 3.6 .3 5.2c0 1.4-.2 2.7-.5 3.9c-.4 1.2-1 2.8-2 4.7l-1.4-.5c.4-2.1 .6-3.7 .6-5c0-1-.1-2.4-.3-4.3c-.1-1.9-.3-3.7-.6-5.6c-.2-1.8-.6-4-1.1-6.6c-.2-.8-.3-1.5-.3-1.8c0-.5 .2-1.3 .7-2.5c.5-1.2 1.2-2.6 2.1-4.3Zm-55.9 0l1.4 8.4c.5 3.2 .9 6 1.1 8.4c.2 1.8 .2 3.6 .2 5.2c0 1.4-.1 2.7-.5 3.9c-.3 1.2-.9 2.8-1.9 4.7l-1.4-.5c.3-2.1 .5-3.7 .5-5c0-1 0-2.4-.2-4.3c-.2-1.9-.3-3.7-.6-5.6c-.2-1.8-.6-4-1.2-6.6c-.2-.8-.2-1.5-.2-1.8c0-.5 .2-1.3 .7-2.5c.5-1.2 1.2-2.6 2.1-4.3Zm-233.9 0c.9 1.2 1.6 2.5 1.9 3.8c.5 1.4 .7 3.3 .7 5.5v4.7c0 3.3 .2 5.6 .6 6.9c.4 1.1 1 1.6 1.7 1.6h3.9c.9 0 1.8-.1 2.7-.2c1-.3 1.7-.4 2.1-.5c1.7-4.8 3.3-8.3 4.6-10.4c1.2-1.9 2.3-2.8 3.3-2.8c.9 0 1.6 .8 2.1 2.4c.6 1.4 .8 2.7 .8 4.1c0 1.8-.4 3.4-1.1 4.7c-.8 1.4-2 2.5-3.6 3.1c1.2-.2 2.2-.3 3.2-.3c1-.1 1.8-.1 2.7-.1h15.6c-.1-1.1-.4-2-.9-2.8c-.2-.4-.8-1.1-1.7-2.1l1.9-5.7c1.2 1.4 2 2.8 2.5 4.3c.4 1.3 .6 3.1 .6 5.5v.8h10.8c-.1-1.1-.4-2-.9-2.8c-.2-.4-.8-1.1-1.7-2.1l1.9-5.7c1.2 1.4 2 2.8 2.5 4.3c.4 1.3 .6 3.1 .6 5.5v.8h10.8c-.1-1.1-.4-2-.9-2.8c-.2-.4-.8-1.1-1.7-2.1l1.9-5.7c1.2 1.4 2 2.8 2.5 4.3c.4 1.4 .6 3.6 .6 6.5v6.3H782.3c-.4 0-.8 0-1.2 0c-.3 0-.9 0-1.7 .1c.6 .3 1.2 .7 1.8 1c.5 .4 .8 .9 .8 1.6c0 .6-.1 1.3-.3 2c-.1 .4-.3 1.1-.7 2.1c-.7 2-1.3 3.3-1.8 4.1c-.6 .7-1.3 1-2.2 1c-2.3 0-4.2-1.2-5.8-3.5c-1.6-2.3-2.4-5.1-2.4-8.4h-7.2c-1.8 0-3.2-.8-4-2.3c-.9-1.7-1.4-4.5-1.4-8.5v-6.9c0-1.5-.2-2.7-.6-3.6c-.3-.4-.7-1-1.5-1.7Zm-21.7 0l1.4 8.4c.6 3.2 .9 6 1.1 8.4c.2 1.8 .3 3.6 .3 5.2c0 1.4-.2 2.7-.5 3.9c-.4 1.2-1 2.8-2 4.7l-1.4-.5c.4-2.1 .6-3.7 .6-5c0-1-.1-2.4-.3-4.3c-.1-1.9-.3-3.7-.6-5.6c-.2-1.8-.6-4-1.1-6.6c-.2-.8-.3-1.5-.3-1.8c0-.5 .2-1.3 .7-2.5c.5-1.2 1.2-2.6 2.1-4.3Zm-76.5 0l1.5 8.4c.5 3.2 .9 6 1.1 8.4c.2 1.8 .2 3.6 .2 5.2c0 1.4-.1 2.7-.5 3.9c-.3 1.2-1 2.8-1.9 4.7l-1.5-.5c.4-2.1 .6-3.7 .6-5c0-1 0-2.4-.2-4.3c-.2-1.9-.4-3.7-.6-5.6c-.2-1.8-.6-4-1.2-6.6c-.2-.8-.3-1.5-.3-1.8c0-.5 .3-1.3 .8-2.5c.5-1.2 1.2-2.6 2-4.3Zm-388.4 0c1 1.2 1.6 2.5 2 3.8c.4 1.4 .6 3.3 .6 5.5v4.7c0 3.3 .2 5.6 .7 6.9c.3 1.1 .9 1.6 1.7 1.6h6.4c1.5 0 2.6-.2 3.5-.5c1-.5 1.8-1.3 2.2-2.4c.9-2 2.1-3.6 3.5-5c1.3-1.1 2.3-1.7 3.2-1.7c.8 0 1.8 1.2 3 3.7c1 1.9 1.6 3.8 1.8 5.5v.4h15.5c-2-2-3.8-3.4-5.4-4.3c-1.5-.8-2.9-1.2-4.3-1.2c-.4 0-.7 0-1.1 .1c-.3 0-.8 .1-1.5 .2c.9-2 1.9-3.5 2.9-4.4c1.1-1 2.3-1.4 3.7-1.4c1.1 0 2.1 .2 3 .7c1 .5 2.1 1.4 3.3 2.5c1 .9 2.3 2.3 4.1 4.2c1.2 1.3 2.1 2.2 2.7 2.6c.7 .4 1.6 .7 2.9 1h15.3c-1.9-2-3.7-3.4-5.3-4.3c-1.5-.8-2.9-1.2-4.3-1.2c-.4 0-.8 0-1.1 .1c-.4 0-.9 .1-1.5 .2c.9-2 1.8-3.5 2.9-4.4c1.1-1 2.3-1.4 3.7-1.4c1 0 2 .2 3 .7c1 .5 2.1 1.4 3.3 2.5c.9 .9 2.3 2.3 4.1 4.2c1.2 1.3 2.1 2.2 2.7 2.6c.6 .4 1.6 .7 2.8 1v6.5H297.2v-.1l-1.1-.2c-1-.1-2.1-.4-3.2-.7c-2-.6-3.8-1.3-5.3-2c-.9 1.3-2 2.2-3.4 2.7c-.6 .2-1.5 .3-2.7 .3h-6.4c-1.9 0-3.2-.8-4.1-2.3c-.9-1.7-1.4-4.5-1.4-8.5v-6.9c0-1.5-.2-2.7-.6-3.6c-.2-.4-.7-1-1.4-1.7Zm965.7-1.9l1.1 .6c-.1 .2-.1 .4-.1 .7c0 .7 .3 1.2 1 1.6c1 .5 1.9 1 2.7 1.5c-.1 1.4-.3 2.4-.5 3c-.2 .6-.5 1.4-1.1 2.6l-.7-.3c0 .3 .2 1.6 .7 4.1c.4 2.5 .8 4.6 1.1 6.4c.5 2.6 .7 4.2 .7 4.7v5.4c0 2.4-1.3 4.6-3.8 6.5c-2.6 1.9-5.5 2.9-8.7 2.9c-2.8 0-4.9-.7-6.4-2.1c-1.6-1.4-2.3-3.3-2.3-5.8c0-2.3 .2-4.3 .8-6c.7-2 1.9-4.4 3.8-7.2l1.5 1c-1.2 1.9-2.1 3.5-2.6 4.9c-.6 1.3-.8 2.7-.8 4.1c0 1.4 .5 2.5 1.6 3.3c1.1 .8 2.6 1.2 4.5 1.2c2.8 0 5.1-.5 6.9-1.6c1.7-1.1 2.6-2.5 2.6-4.3c0-.3 0-.5 0-.7c0-.2 0-.3 0-.4c0-.6 0-1.3-.1-2.1c-.2-.7-.4-2.2-.8-4.6c-.7-3.8-1.4-7.5-2.1-11.3l-1.2-.9c0-1.6 .7-3.9 2.2-7.2Zm-685.3 0l1.1 .6c-.1 .2-.1 .4-.1 .7c0 .7 .3 1.2 1 1.6c1 .5 1.9 1 2.7 1.5c-.1 1.4-.3 2.4-.5 3c-.2 .6-.5 1.4-1.1 2.6l-.7-.3c0 .3 .2 1.6 .7 4.1c.4 2.5 .8 4.6 1.1 6.4c.4 2 .6 3.3 .7 4.1v.1h1.7c1.8 0 3.2-.5 4.2-1.4c1.1-1.1 1.8-3 2.1-5.6l1.6 .2c0 .6 0 1.1-.1 1.4c0 1.1 0 1.9 0 2.5c0 1 .2 1.6 .7 2.1c.4 .5 1.1 .8 1.9 .8c.7 0 1.5-.2 2.1-.5c.7-.3 1.7-1 3.1-2l8.6-6.1c1-.7 1.8-1.2 2.3-1.5c1.1-.7 2.3-1.1 3.3-1.1c1.8 0 3.3 .7 4.3 1.9c1.3 1.5 1.9 3.7 1.9 6.6v9.2H567.8c-1.2 0-2.1-.3-2.7-.9c-.7-.5-1.3-1.4-1.8-2.7c-1 1.4-2 2.4-2.9 2.9c-.8 .4-2 .7-3.3 .7h-1.8l-.1 1.2c-.5 1.7-1.7 3.3-3.6 4.7c-2.6 1.9-5.5 2.9-8.7 2.9c-2.8 0-4.9-.7-6.4-2.1c-1.6-1.4-2.3-3.3-2.3-5.8c0-2.3 .2-4.3 .8-6c.7-2 1.9-4.4 3.8-7.2l1.5 1c-1.2 1.9-2.1 3.5-2.6 4.9c-.6 1.3-.8 2.7-.8 4.1c0 1.4 .5 2.5 1.6 3.3c1.1 .8 2.6 1.2 4.5 1.2c2.8 0 5.1-.5 6.9-1.6c1.7-1.1 2.6-2.5 2.6-4.3c0-.3 0-.5 0-.7c0-.2 0-.3 0-.4c0-.6 0-1.3-.1-2.1c-.2-.7-.4-2.2-.8-4.6c-.7-3.8-1.4-7.5-2.1-11.3l-1.2-.9c0-1.6 .7-3.9 2.2-7.2Zm843.8 0l1.1 .6c0 .1 0 .3-.1 .7c0 .5 .4 1.1 1 1.6c.6 .4 1.6 .9 2.8 1.4c-.1 1-.3 2.1-.6 3c-.3 1-.6 1.9-.9 2.6l-.9-.3l2.6 14.8v6.5h-37.2v.5c0 1-.6 2.3-1.7 3.9c-1.1 1.6-2.4 3-3.9 4.2c-1.7 1.3-3.1 1.9-4.3 1.9c-1.4 0-2.9-.4-4.5-1.2c-1.4-.6-3.6-2-6.6-4.1l1-1.5c1.5 1 2.6 1.6 3.5 2c.9 .3 1.8 .5 2.8 .5c1.1 0 2.2-.3 3.3-1c1.1-.6 2.6-1.7 4.5-3.4c2.7-2.4 4-4.2 4-5.5c0-.6-.2-1.4-.8-2.5c-.5-1.2-1.2-2.1-2.1-2.9l1.4-6.5c1.1 1.1 1.9 2.4 2.5 3.9c.6 1.4 .9 3.1 .9 4.9v.3h15.4c-1.9-2-3.7-3.4-5.4-4.3c-1.4-.8-2.8-1.2-4.2-1.2c-.4 0-.8 0-1.2 .1c-.3 0-.8 .1-1.4 .2c.8-2 1.8-3.5 2.9-4.4c1.1-1 2.3-1.4 3.7-1.4c1 0 2 .2 3 .7c1 .5 2 1.4 3.3 2.5c.9 .9 2.3 2.3 4 4.2c1.2 1.3 2.1 2.2 2.8 2.6c.6 .4 1.5 .7 2.8 1h8.6l-2.9-16.2l-1.5-1.1c0-.9 .2-1.8 .4-2.8c.4-1.2 1-2.7 1.9-4.3Zm-119.7 0l1.1 .6c0 .1 0 .3-.1 .7c0 .5 .3 1.1 1 1.6c.6 .4 1.5 .9 2.8 1.4c-.1 1-.3 2.1-.6 3c-.3 1-.6 1.9-1 2.6l-.8-.3l2.6 14.8v6.5h-22.4c-1 0-1.9-.2-2.4-.7c-.7-.5-1-1.4-1-2.6c0-.7 0-1.5 .1-2.3c0-.8 .1-1.6 .3-2.5h.9c.1 .5 .4 1 .8 1.2c.5 .3 1 .4 1.6 .4h8.3c-.4-2.4-1-4.2-2-5.6c-.7-1.2-1.7-2.2-3.1-3.1l1.7-7.4c2.1 1.6 3.6 3.5 4.4 6c.8 2.2 1.2 5.2 1.2 8.9v1.2h8.7l-2.9-16.2l-1.5-1.1c0-.9 .1-1.8 .4-2.8c.4-1.2 1-2.7 1.9-4.3Zm-101 0l1.1 .6c0 .1-.1 .3-.1 .7c0 .5 .3 1.1 1 1.6c.6 .4 1.5 .9 2.8 1.4c-.1 1-.3 2.1-.6 3c-.3 1-.6 1.9-1 2.6l-.8-.3l2.6 14.8h1c.4 0 .8 0 1 0c.5-.1 .9-.2 1.4-.2c-.8-1.2-1.3-2.1-1.6-2.9c-.3-.7-.4-1.6-.4-2.5c0-2.4 1-4.4 2.9-6.2c2-1.8 4.3-2.7 6.9-2.7c1.8 0 3.5 .6 5.1 1.8c1.5 1.1 2.6 2.4 3.3 3.9l-1 .9c-1.3-.5-2.3-.8-3-1c-.8-.1-1.7-.2-2.8-.2c-2 0-3.7 .2-5.1 .5c-1.9 .4-2.8 1-2.8 1.7c0 1.1 2.2 2.9 6.7 5.5l12.1-3.5l-2.7 6.8c-4.3 1.3-7.8 2.3-10.6 3c-2.4 .7-4.5 1.1-6.2 1.3c-1.2 .2-2.4 .3-3.7 .3h-14c-.6 0-1.1 0-1.5 .1c-.3 .1-.5 .3-.5 .4c0 .1 .4 .3 1.2 .6c.8 .3 1.2 .8 1.2 1.4c0 .9-.2 2-.4 3.2c-.3 1.2-.7 2.4-1.1 3.3c-.4 .8-1.4 1.7-3 2.7c-1.7 1-3.6 1.9-5.8 2.6c-2.5 .8-4.9 1.2-7.2 1.2c-2.5 0-4.5-.6-5.8-1.8c-1.3-1.2-2-2.9-2-5.2c0-2.6 .3-4.7 .9-6.6c.7-2.2 2.2-5.1 4.5-8.7l1.3 1c-1.4 2.5-2.5 4.6-3 6.1c-.6 1.5-.9 3-.9 4.4c0 1.5 .5 2.7 1.4 3.5c1 .8 2.3 1.3 3.9 1.3c2.1 0 4.2-.3 6.6-1c2.1-.5 3.9-1.2 5.4-2c1.5-.8 2.2-1.4 2.2-1.9c0-.2-.4-.3-1.3-.3c-.9 0-1.7-.1-2.4-.1c-1.7 0-2.8 0-3.3-.1c-.5-.2-.7-.5-.7-.9c0-.9 .1-1.8 .4-2.8c.4-.9 .7-1.6 1.2-2.2c1-1.2 2.3-2.3 3.7-3.2c1.6-1 3-1.5 4.3-1.5h11.3l-2.9-16.2l-1.5-1.1c0-.9 .1-1.8 .4-2.8c.4-1.2 1-2.7 1.9-4.3Zm-62.9 0l1.1 .6c0 .1 0 .3-.1 .7c0 .5 .3 1.1 1 1.6c.6 .4 1.5 .9 2.8 1.4c-.1 1-.3 2.1-.6 3c-.3 1-.6 1.9-1 2.6l-.8-.3l2.6 14.8v6.5h-43.5v.5c0 1-.5 2.3-1.6 3.9c-1.2 1.6-2.5 3-4 4.2c-1.6 1.3-3 1.9-4.2 1.9c-1.4 0-2.9-.4-4.5-1.2c-1.4-.6-3.6-2-6.6-4.1l1-1.5c1.4 1 2.6 1.6 3.5 2c.8 .3 1.8 .5 2.8 .5c1.1 0 2.2-.3 3.3-1c1.1-.6 2.6-1.7 4.5-3.4c2.6-2.4 4-4.2 4-5.5c0-.6-.3-1.4-.8-2.5c-.6-1.2-1.3-2.1-2.1-2.9l1.3-6.5c1.1 1.1 2 2.4 2.5 3.9c.6 1.4 .9 3.1 .9 4.9v.3h2.7c.8 0 1.5 0 2.1 .1c1.8 .2 3.8 .4 6 .6c-2.4-.5-4-1.2-5-2.1c-.9-.8-1.4-2.1-1.4-3.8c0-2.4 .6-4.7 1.7-6.6c1.2-2 2.5-3 3.9-3c1.6 0 3 1.4 4.2 4.2c1.2 2.7 1.8 6.1 1.8 10v.6h2.7c.7 0 1.4 0 2.1 .1c1.7 .2 3.7 .4 6 .6c-2.4-.5-4.1-1.2-5-2.1c-1-.8-1.4-2.1-1.4-3.8c0-2.4 .5-4.7 1.7-6.6c1.1-2 2.4-3 3.8-3c1.6 0 3 1.4 4.2 4.2c1.2 2.7 1.8 6.1 1.8 10v.6h8.7l-2.9-16.2l-1.5-1.1c0-.9 .1-1.8 .4-2.8c.4-1.2 1-2.7 1.9-4.3Zm-131.3 0l1.1 .6c0 .1 0 .3-.1 .7c0 .5 .4 1.1 1 1.6c.6 .4 1.6 .9 2.9 1.4c-.2 1-.4 2.1-.7 3c-.3 1-.6 1.9-.9 2.6l-.9-.3l2.6 14.8v6.5H957.3c-.7 0-1.2 0-1.5 0c-.3 .1-.5 .2-.5 .3c.5 .3 .9 .5 1.3 .6c.4 .1 .7 .3 .8 .4c.1 .2 .2 .4 .2 .8c0 1.1-.3 2.5-1 4.1c-.6 1.5-1.2 2.5-1.9 2.9c-.6 .5-2.3 1-5.2 1.7c-2.9 .6-5.4 1-7.5 1c-3 0-5.5-.7-7.3-1.9c-1.9-1.2-2.8-2.9-2.8-4.9c0-1.9 .4-3.8 1.2-5.5c1-2.2 2.8-4.9 5.5-8.1l1.5 1c-1.7 2-2.9 3.6-3.5 4.9c-.7 1.3-1 2.5-1 3.8c0 1.7 .7 2.9 2.1 3.7c1.4 .9 3.6 1.3 6.6 1.3c1.5 0 3.6-.3 6.3-.9c2.7-.5 4.1-1 4.1-1.4c0-.2-.5-.4-1.6-.5c-1-.2-2.1-.3-3.4-.3c-1.8 0-2.7-.4-2.7-1.2c0-.3 .2-1 .6-1.9c.3-.7 .6-1.3 1-2c.5-1.3 1.7-2.4 3.3-3.2c1.7-.8 3.5-1.2 5.3-1.2h13.4c-.1-1.1-.4-2-.9-2.8c-.2-.4-.8-1.1-1.7-2.1l1.9-5.7c1.2 1.4 2 2.8 2.5 4.3c.4 1.3 .6 3.1 .6 5.5v.8h8.6l-2.9-16.2l-1.6-1.1c0-.9 .2-1.8 .5-2.8c.3-1.2 1-2.7 1.8-4.3Zm-332 0l1.1 .6c0 .1 0 .3-.1 .7c0 .5 .4 1.1 1 1.6c.6 .4 1.6 .9 2.8 1.4c-.1 1-.3 2.1-.6 3c-.3 1-.6 1.9-.9 2.6l-.9-.3l2.6 14.8v6.5H639.3v-.1l-1.1-.2c-1-.1-2.1-.4-3.2-.7c-2-.6-3.8-1.3-5.3-2c-.9 1.3-2 2.2-3.4 2.7c-.6 .2-1.5 .3-2.7 .3H601.2c-1.9 0-3.2-.8-4-2.3c-1-1.7-1.4-4.5-1.4-8.5v-6.9c0-1.5-.2-2.7-.7-3.6c-.2-.4-.6-1-1.4-1.7l2.6-6c.9 1.2 1.6 2.5 1.9 3.8c.5 1.4 .7 3.3 .7 5.5v4.7c0 3.3 .2 5.6 .6 6.9c.4 1.1 .9 1.6 1.7 1.6h6.1c.7 0 1.4 0 2 .1c1.8 .2 3.8 .4 6 .6c-2.3-.5-4-1.2-4.9-2.1c-1-.8-1.5-2.1-1.5-3.8c0-2.4 .6-4.7 1.7-6.6c1.2-2 2.5-3 3.9-3c1.6 0 3 1.4 4.2 4.2c1.2 2.7 1.8 6.1 1.8 10v.6h3.1c1.5 0 2.6-.2 3.5-.5c1-.5 1.8-1.3 2.2-2.4c.9-2 2.1-3.6 3.5-5c1.3-1.1 2.3-1.7 3.2-1.7c.8 0 1.8 1.2 3 3.7c1 1.9 1.6 3.8 1.8 5.5v.4h8.7l-2.9-16.2l-1.5-1.1c0-.9 .2-1.8 .4-2.8c.4-1.2 1-2.7 1.9-4.3Zm686.1-.3l5.6 3l-2.9 5.4l-5.6-3Zm-237.3 0l5.6 3l-2.9 5.4l-5.6-3Zm-483.6 0l5.6 3l-2.9 5.4l-5.6-3Zm468.2 0l4.4 2.4l-2.5 4.7l-3.5-1.8l-2 3.9l-4.4-2.5l2.7-4.8l3.4 1.9Zm-579.1-1l5.6 3l-2.9 5.4l-5.6-3Zm-98.4-2.4l5.6 3l-2.8 5.3l-5.6-2.9Zm-28.9-1.1l4.3 2.2l-2.6 4.4l-3.4-1.9l-1.9 3.8l-4.5-2.4l2.5-4.2l3.6 1.7Z" class="g1_29"/>
<image clip-path="url(#c1_29)" preserveAspectRatio="none" x="1344" y="457" width="108" height="72" href="img/2.jpg"/>
<image clip-path="url(#c2_29)" preserveAspectRatio="none" x="1347" y="550" width="102" height="71" href="img/3.jpg"/>
<image clip-path="url(#c3_29)" preserveAspectRatio="none" x="1347" y="642" width="102" height="74" href="img/4.jpg"/>
<image clip-path="url(#c4_29)" preserveAspectRatio="none" x="1353" y="745" width="96" height="80" href="img/5.jpg"/>
<image clip-path="url(#c5_29)" preserveAspectRatio="none" x="19" y="450" width="641" height="373" href="img/6.jpg"/>
<path d="M1039.3 562c0-8.6 6.9-15.5 15.5-15.5h381.4c8.5 0 15.4 6.9 15.4 15.5v61.8c0 8.6-6.9 15.5-15.4 15.5H1054.8c-8.6 0-15.5-6.9-15.5-15.5Z" class="g2_29"/>
</svg>