<svg viewBox="0 0 1466 825" version="1.1" xmlns="http://www.w3.org/2000/svg">
<defs>
<clipPath id="c0_82"><path d="M-.2 825.3V-.2H1467V825.3Z"/></clipPath>
<clipPath id="c1_82"><path d="M1343.9 529.1V456.4H1452v72.7Z"/></clipPath>
<clipPath id="c2_82"><path d="M1346.3 621.3V549.7h102.9v71.6Z"/></clipPath>
<clipPath id="c3_82"><path d="M1346.4 716.6V641.9h103v74.7Z"/></clipPath>
<clipPath id="c4_82"><path d="M1353 825V744.6h96.2V825Z"/></clipPath>
<style>
.g0_82{fill:#F00;}
.g1_82{fill:none;stroke:#000;stroke-width:1.466;stroke-linejoin:round;}
.g2_82{fill:#606;}
</style>
</defs>
<image clip-path="url(#c0_82)" preserveAspectRatio="none" x="0" y="-7" width="1467" height="840" href="img/1.jpg"/>
<path fill-rule="evenodd" d="M1195.1 347l4.7 2.4l-2.2 4l-4.6-2.3l-2.2 3.9l-4.6-2.4l2.3-4.1l4.4 2.3Zm-670-9.8l6.9 3.7l-3.6 6.7l-7-3.6Zm177.4-.3l7 3.7l-3.6 6.7l-7-3.6Zm447.1-.3l5.6 3.1l-3.1 5.7l-4.5-2.2l-2.5 4.9l-5.4-3.1l3.3-6l4.2 2.3Zm-644.4 0l5.5 3.1l-3.1 5.7l-4.4-2.2l-2.5 4.9l-5.4-3.1l3.3-6l4.2 2.3ZM1076 321.5c-.6 0-1.1 .3-1.5 .7c-.3 .5-.5 1.1-.5 1.6c0 .8 .4 1.3 1.2 1.8c.8 .5 1.8 .7 3.1 .7h1.1c-.5-3.2-1.7-4.8-3.4-4.8Zm370.2-.2c-.8 0-1.4 .9-2 2.7c1.1 .4 1.8 .7 2.4 .9c1.6 .6 2.5 .9 2.7 .9c.4 0 .7-.1 .7-.4c0-.4-.5-1.2-1.3-2.3c-1-1.2-1.8-1.8-2.5-1.8Zm-801.9 0c-.8 0-1.4 .9-2 2.7c1.1 .4 1.8 .7 2.4 .9c1.6 .6 2.5 .9 2.7 .9c.4 0 .7-.1 .7-.4c0-.4-.5-1.2-1.3-2.3c-1-1.2-1.8-1.8-2.5-1.8Zm559.6-6.3c1.2 0 2.1 .4 2.8 1.3c.6 .9 1 2.1 1 3.6c0 1.1-.1 2-.3 2.7c-.3 .7-.7 1.7-1.4 2.8c-.6-1.4-1-2.3-1.4-2.7c-.4-.4-.9-.6-1.6-.6c-1.1 0-2.5 .6-4.4 1.8c-1.9 1.2-2.8 2.2-2.8 3.1c0 .4 .3 .7 1.1 .9c.5 .1 1.4 .2 2.5 .2c.3 0 .6 0 .9 0c.3 0 .6 0 .9-.1c2.1 0 3.6 .3 4.3 .7c.6 .4 .9 1.1 .9 2.2c0 2.2-.4 4.2-1.2 6.2c-1 2.5-2.4 4.2-4.3 5.3c-2.4 1.3-4.8 2.4-7.4 3.2c-2.5 .8-4.9 1.2-7.1 1.2c-6.2 0-9.3-2.7-9.3-8.3c0-2.8 .3-5.2 1-7.2c.8-2.3 2.5-5.4 5-9.2l1.3 .8c-1.4 2.5-2.5 4.7-3.3 6.7c-.7 1.9-1.1 3.6-1.1 5.1c0 3.7 2.1 5.6 6.4 5.6c1.6 0 3.1-.2 4.5-.4c1.4-.3 2.9-.7 4.4-1.2c.9-.4 2-.8 3.2-1.4c2-.8 3.1-1.3 3.2-1.4c.9-.4 1.3-.9 1.3-1.2c0-.2-.5-.4-1.4-.4c-1-.1-1.7-.1-2.1-.1c-3 0-5.1-.4-6.1-1.3c-.9-.7-1.3-2-1.3-4c0-.9 .3-2 .9-3.4c.6-1.4 1.4-2.8 2.3-4.2c1.5-2.1 2.9-3.6 4.4-4.7c1.4-1.1 2.8-1.6 4.2-1.6Zm-156.5 0c1.1 0 2 .4 2.7 1.3c.7 .9 1 2.1 1 3.6c0 1.1-.1 2-.3 2.7c-.2 .7-.7 1.7-1.4 2.8c-.5-1.4-1-2.3-1.4-2.7c-.3-.4-.9-.6-1.6-.6c-1 0-2.5 .6-4.4 1.8c-1.9 1.2-2.8 2.2-2.8 3.1c0 .4 .4 .7 1.1 .9c.6 .1 1.4 .2 2.5 .2c.3 0 .6 0 .9 0c.3 0 .6 0 .9-.1c2.2 0 3.6 .3 4.3 .7c.6 .4 .9 1.1 .9 2.2c0 2.2-.4 4.2-1.1 6.2c-1 2.5-2.5 4.2-4.4 5.3c-2.3 1.3-4.8 2.4-7.4 3.2c-2.5 .8-4.9 1.2-7.1 1.2c-6.2 0-9.3-2.7-9.3-8.3c0-2.8 .4-5.2 1.1-7.2c.8-2.3 2.4-5.4 4.9-9.2l1.4 .8c-1.5 2.5-2.6 4.7-3.3 6.7c-.8 1.9-1.1 3.6-1.1 5.1c0 3.7 2.1 5.6 6.3 5.6c1.6 0 3.1-.2 4.5-.4c1.5-.3 2.9-.7 4.4-1.2c.9-.4 2-.8 3.3-1.4c1.9-.8 3-1.3 3.1-1.4c.9-.4 1.3-.9 1.3-1.2c0-.2-.4-.4-1.4-.4c-1-.1-1.7-.1-2-.1c-3.1 0-5.1-.4-6.2-1.3c-.8-.7-1.2-2-1.2-4c0-.9 .2-2 .8-3.4c.6-1.4 1.4-2.8 2.4-4.2c1.4-2.1 2.9-3.6 4.3-4.7c1.5-1.1 2.9-1.6 4.3-1.6Zm-399.9-.6c1 0 2.3 1.5 3.8 4.6c1.5 3.2 2.3 6.2 2.3 8.9v6.5c-2.1 0-4.5-.4-7.3-1.2c-2.5-.7-4.7-1.6-6.6-2.6c-1 1.6-2.2 2.6-3.6 3.2l-.2 .1v.5H620.6v.5c-.1 1.9-.4 3.4-.8 4.7c-.5 1.6-1.4 3-2.6 4c-1.2 1-3 1.8-5.4 2.5c-2.4 .6-4.8 .9-7.3 .9c-4.8 0-8.5-.9-11.1-2.6c-2.7-1.8-4-4.3-4-7.5c0-2.8 .4-5.3 1.3-7.6c.9-2.5 2.7-5.8 5.3-9.8l1.8 1.2c-1.9 3.4-3.2 5.8-3.8 7.3c-.6 1.6-.9 3.1-.9 4.7c0 2.1 1.1 3.8 3.3 5.1c2.3 1.4 5.2 2 8.8 2c3.6 0 6.6-.7 9.1-2c2.4-1.4 3.6-3.1 3.6-5.1c0-1.2-.2-2.4-.6-3.6c-.4-1.3-1.4-3.2-2.8-5.9l2.7-8c1.4 2.5 2.2 4.3 2.5 5.2c.5 1.5 .8 3.4 .9 5.6v.3h11.5c1.8 0 3.2-.2 4.3-.6c1.3-.6 2.2-1.6 2.8-2.9c1.1-2.6 2.5-4.6 4.3-6.3c1.6-1.4 2.9-2.1 4-2.1Zm36.3-.4c-.7 .3-1.2 .5-1.5 .7c-1.1 .6-2 1.1-2.6 1.6c-.5 .4-.9 .8-1.2 1.1c-.4 .5-.6 .8-.6 1c0 .3 .3 .5 1 .7c.7 .1 1.4 .2 2.1 .2c.4 0 .9-.1 1.4-.4c.4-.2 1.1-.7 2-1.3Zm-261.6-.7l1.6 1.1c-.4 .8-.8 1.5-1 2.1c-.3 .7-.6 1.2-.7 1.7c-.3 .9-.5 1.8-.5 2.7c0 1.2 .4 2.2 1.1 3.1c.8 .9 1.7 1.5 2.9 1.8c.7 .1 1.6 .3 2.7 .4c1.1 .1 2.3 .1 3.5 .1h21.6c-.6-1.6-1.1-2.6-1.4-3.2c-.4-.8-1.1-1.7-2-2.9l2.7-6.9c1.4 2.1 2.4 4.1 2.9 5.8c.4 1.6 .6 3.9 .6 6.9v8.4h-25c-1.2 0-2.2 0-3 0c-.8 0-1.4-.1-1.8-.1c-.8-.1-1.6-.3-2.6-.6c-1.6-.6-3-1.7-4-3.4c-1-1.7-1.6-3.6-1.6-5.7c0-.9 .1-1.7 .2-2.6c.1-.9 .3-1.8 .7-2.8c.4-1.2 .8-2.3 1.4-3.2c.5-1 1.1-1.9 1.7-2.7Zm908.8-.2c1.5 1.7 2.6 3.5 3.1 5.3c.6 1.9 .8 4.6 .8 8.2v7.8h-16.6v.5c-.1 1.9-.3 3.4-.7 4.7c-.6 1.6-1.4 3-2.7 4c-1.2 1-3 1.8-5.3 2.5c-2.4 .6-4.8 .9-7.3 .9c-4.9 0-8.6-.9-11.2-2.6c-2.6-1.8-3.9-4.3-3.9-7.5c0-2.8 .4-5.3 1.3-7.6c.9-2.5 2.7-5.8 5.3-9.8l1.8 1.2c-2 3.4-3.3 5.8-3.8 7.3c-.7 1.6-1 3.1-1 4.7c0 2.1 1.2 3.8 3.4 5.1c2.2 1.4 5.2 2 8.8 2c3.6 0 6.6-.7 9-2c2.5-1.4 3.7-3.1 3.7-5.1c0-1.2-.2-2.4-.6-3.6c-.5-1.3-1.4-3.2-2.8-5.9l2.6-8c1.4 2.5 2.3 4.3 2.6 5.2c.5 1.5 .8 3.4 .9 5.6v.3h13.5c-.2-1.3-.6-2.5-1.1-3.4c-.3-.5-1-1.4-2.1-2.7Zm-211.8-.5c1.3 0 2.6 .3 3.8 .9c1.2 .7 2.6 1.7 4.1 3.1c1.2 1.1 2.9 2.8 5.1 5.2c1.5 1.7 2.6 2.8 3.4 3.3c.8 .5 1.9 .9 3.5 1.2h13.5c-.2-1.3-.6-2.5-1.1-3.4c-.4-.5-1-1.4-2.1-2.7l2.3-7.1c1.5 1.7 2.6 3.5 3.1 5.3c.6 1.9 .8 4.6 .8 8.2v7.8h-73l-.7 3.1c-.7 1.7-1.8 3.3-3.3 5c-2.9 3.3-5.7 5-8.5 5c-1.7 0-3.5-.5-5.5-1.6c-1.9-1-4.9-3.1-9-6.2l1.3-1.7c2.1 1.4 3.9 2.4 5.3 2.8c1.1 .4 2.4 .6 3.8 .6c1.9 0 3.8-.5 5.7-1.6c2.3-1.3 4.6-3.3 6.9-6.1c-.8 .1-1.5 .1-2.1 .1c-1.9 0-3.5-.6-4.6-1.9c-1.2-1.2-1.8-3-1.8-5.2c0-3 .7-5.9 2.1-8.6c1.5-3 3.2-4.5 5.1-4.5c1.6 0 2.9 1.1 4 3.2c1.1 2.2 1.7 4.8 1.7 7.9v1.6h21.2c-.2-1.3-.6-2.5-1.1-3.4c-.4-.5-1-1.4-2.1-2.7l2.3-7.1c1.5 1.7 2.6 3.5 3.1 5.3c.5 1.6 .7 3.9 .8 6.9v1h19.1c-2.5-2.5-4.7-4.3-6.7-5.3c-1.8-1-3.6-1.5-5.3-1.5c-.5 0-1 0-1.4 .1c-.5 0-1.1 .1-1.9 .3c1.1-2.5 2.3-4.4 3.7-5.5c1.3-1.2 2.8-1.8 4.5-1.8Zm182.4-6.8l7 3.7l-3.6 6.7l-7-3.7Zm-697.7 0l6.9 3.7l-3.6 6.7l-7-3.7Zm-163.8-2.7l5.6 3l-3.1 5.8l-4.4-2.2l-2.6 4.8l-5.4-3l3.3-6.1l4.2 2.4Zm891.5-.3c.4 0 .7 .1 .9 .4c.2 .2 .3 .5 .3 .9c0 .4 0 .6-.1 .9c-.1 .2-.3 .5-.6 1c-.9-.5-1.6-.8-2-.8c-.3 0-.7 .1-1.1 .3c-.2 .1-.4 .3-.6 .5c0 .2 .5 .6 1.4 1.2c1 .5 1.7 .8 2.1 .8c.2 0 1-.2 2.1-.5c-.1 .7-.4 1.1-.7 1.4c-.2 .3-.5 .4-1 .6l-6.4 1.9c.4-.7 .7-1.2 1-1.4c.3-.3 .8-.6 1.5-.9c-.5-.3-.9-.6-1.2-.9c-.2-.4-.3-.7-.3-1c0-.2 .1-.5 .2-.9c.2-.3 .4-.6 .6-.9c1.3-1.7 2.6-2.6 3.9-2.6Zm-646.1-2l2.8 18.6c.5 2.9 1.1 4.9 1.8 5.9c.5 .7 1.1 1 2 1h17.4c-.2-1.3-.6-2.5-1.2-3.4c-.3-.5-1-1.4-2.1-2.7l2.4-7.1c1.5 1.7 2.5 3.5 3.1 5.3c.5 1.6 .7 3.9 .8 6.9v1h9.8c2.1 0 3.8-.6 5.2-1.7c1.8-1.6 2.7-3.9 2.7-7l2 .3c0 .6-.1 1.3-.1 2.2c0 .8-.1 1.7-.1 2.7c0 1 .4 1.8 1.1 2.5c.7 .7 1.5 1 2.4 1h3.6c2.5 0 4.2-.3 5.2-1c1.3-.8 1.9-2.3 1.9-4.6c0-.4 .1-.9 .4-1.2c.2-.3 .6-.6 1.1-1l1.2-.9c0 .4 0 .9 .1 1.5c0 .7 0 1.1 0 1.3c0 1.1-.2 2.5-.5 4.3c.8 .4 1.6 .7 2.5 1c.9 .2 1.9 .4 2.9 .6c0-.7-.3-1.6-.8-2.7c-.5-1-.7-1.8-.7-2.1c0-.6 .1-1 .2-1.2c0-.1 .3-.4 .7-1l2.5-3.4c.5 1.3 .9 2.4 1.1 3.4c.3 1 .4 2.3 .4 3.9v3.1h13.6c-.2-1.3-.6-2.5-1.1-3.4c-.3-.5-1-1.4-2.1-2.7l2.3-7.1c1.5 1.7 2.6 3.5 3.1 5.3c.6 1.9 .8 4.6 .8 8.2v7.8H755.3l-1.1-.1c-.9-.1-1.7-.2-2.5-.4c-1.4-.3-2.9-.8-4.3-1.5c-1.2 .8-2.2 1.4-3.1 1.6c-.9 .3-2.3 .4-4.1 .4h-4.8c-1.4 0-2.4-.3-3.2-1c-.8-.7-1.5-1.9-2.1-3.5c-.7 1.1-1.4 1.9-2.2 2.6l-.1 .1v1.8H692.1c-.8 0-1.4-.1-2-.4c-1.1-.6-2.1-1.6-2.9-3.2c-1.1-2.1-1.8-5-2.1-8.6c-1.4 1.6-2.4 2.8-3.2 3.5c-1.1 1-2 1.5-2.7 1.5c-.4 0-.9 0-1.4-.1l-3.7-.8c-1.5-.3-2.5-.5-2.8-.6c-.4-.2-.6-.4-.6-.8c0-.5 .7-2.2 2.1-5.1c1.4-2.8 2.4-4.6 3-5.3c.5-.5 1.4-1.2 2.6-2.1c.8-.5 1.9-1.1 3.3-1.9l1.5-1c0-.2-.1-.5-.1-.8c0-.3 0-.6 0-.8c0-.8 .1-1.7 .5-2.9c.3-1.1 1-2.5 1.9-4.2Zm415.7-1.3l5.6 3.1l-3.1 5.7l-4.5-2.2l-2.5 4.9l-5.4-3.1l3.3-6.1l4.2 2.4Zm-334-1.2l6.9 3.7l-3.6 6.6l-6.9-3.6Zm-279.3 0l7 3.7l-3.6 6.6l-7-3.6Zm932-.1c1.1 1.6 1.9 3.2 2.4 4.7c.5 1.8 .8 4.2 .8 7v5.8c0 4.2 .3 7.1 .8 8.7c.5 1.3 1.2 1.9 2.1 1.9h8c1.8 0 3.2-.2 4.3-.6c1.3-.6 2.2-1.6 2.8-2.9c1.1-2.6 2.5-4.6 4.3-6.3c1.6-1.4 2.9-2.1 4-2.1c1 0 2.3 1.5 3.8 4.6c1.5 3.2 2.3 6.2 2.3 8.9v6.5c-2.1 0-4.5-.4-7.3-1.2c-2.5-.7-4.7-1.6-6.6-2.6c-1.1 1.8-2.6 2.9-4.3 3.4c-.8 .3-1.9 .4-3.3 .4h-8c-2.3 0-4-.9-5-2.8c-1.2-2.1-1.8-5.7-1.8-10.7v-8.5c0-1.9-.2-3.4-.7-4.5c-.3-.5-.9-1.2-1.8-2.2Zm-26.9 0l1.8 10.6c.7 4 1.1 7.5 1.4 10.4c.2 2.3 .3 4.5 .3 6.6c0 1.7-.2 3.3-.6 4.8c-.5 1.4-1.3 3.4-2.5 5.9l-1.7-.7c.4-2.6 .7-4.6 .7-6.2c0-1.2-.1-3-.3-5.4c-.2-2.3-.5-4.6-.8-6.9c-.3-2.3-.8-5.1-1.4-8.2c-.3-1.2-.4-1.9-.4-2.3c0-.7 .3-1.7 .9-3.2c.6-1.5 1.5-3.3 2.6-5.4Zm-130.5 0l1.8 10.6c.6 4 1.1 7.5 1.3 10.4c.2 2.3 .3 4.5 .3 6.6c0 1.7-.2 3.3-.6 4.8c-.4 1.4-1.2 3.4-2.4 5.9l-1.8-.7c.5-2.6 .7-4.6 .7-6.2c0-1.2-.1-3-.3-5.4c-.2-2.3-.4-4.6-.7-6.9c-.3-2.3-.8-5.1-1.5-8.2c-.2-1.2-.3-1.9-.3-2.3c0-.7 .3-1.7 .9-3.2c.6-1.5 1.5-3.3 2.6-5.4Zm-375 0l1.7 10.6c.7 4 1.1 7.5 1.4 10.4c.2 2.3 .3 4.5 .3 6.6c0 1.7-.2 3.3-.6 4.8c-.4 1.4-1.2 3.4-2.4 5.9l-1.8-.7c.5-2.6 .7-4.6 .7-6.2c0-1.2-.1-3-.3-5.4c-.2-2.3-.4-4.6-.8-6.9c-.2-2.3-.7-5.1-1.4-8.2c-.3-1.2-.4-1.9-.4-2.3c0-.7 .3-1.7 1-3.2c.6-1.5 1.4-3.3 2.6-5.4Zm-322.6 0l1.8 10.6c.7 4 1.1 7.5 1.4 10.4c.2 2.3 .3 4.5 .3 6.6c0 1.7-.2 3.3-.7 4.8c-.4 1.4-1.2 3.4-2.4 5.9l-1.8-.7c.5-2.6 .8-4.6 .8-6.2c0-1.2-.2-3-.4-5.4c-.1-2.3-.4-4.6-.7-6.9c-.3-2.3-.8-5.1-1.5-8.2c-.2-1.2-.3-1.9-.3-2.3c0-.7 .3-1.7 .9-3.2c.6-1.5 1.5-3.3 2.6-5.4Zm814.3-2.3l1.4 .7c0 .1 0 .4-.1 1c0 .6 .4 1.2 1.2 1.9c.8 .5 1.9 1.1 3.6 1.8c-.2 1.3-.5 2.5-.8 3.7c-.4 1.2-.8 2.3-1.2 3.3l-1.1-.4l3.3 18.4v8.1H1345c-2.3 0-4-.9-5-2.8c-1.2-2.1-1.8-5.7-1.8-10.7v-8.5c0-1.9-.2-3.4-.8-4.5c-.2-.5-.8-1.2-1.8-2.2l3.2-7.5c1.2 1.6 2 3.2 2.5 4.7c.5 1.8 .8 4.2 .8 7v5.8c0 4.2 .2 7.1 .8 8.7c.4 1.3 1.1 1.9 2.1 1.9h21.4c-.8-.9-1.5-1.7-2.3-2.4c-.6-.6-1.4-1.3-2.4-2.1c-1.1-.8-2.2-1.7-3.3-2.6l-1 1.1c-1.8-1.8-2.8-2.8-3.1-3.2c-1-1.1-1.5-2.4-1.5-3.9c0-2 .1-3.4 .4-4.2c.4-1.2 1.2-2.2 2.5-3.1c1.2-.8 2.4-1.5 3.7-2.2c1-.5 2.4-1.1 4.1-1.8c.8-.3 2.5-1 5.1-2V307c-.1 0-1 .3-2.6 .8c-1.9 .6-3.5 1.2-4.6 1.7c-1.7 .7-2.5 1.2-2.5 1.5c0 .2 .7 .9 2.1 2.3c1.9 1.9 3.6 3.6 4.9 5.2c2.1 2.5 3.9 5.1 5.2 7.6v.2h10.8l-3.6-20.2l-1.9-1.3c0-1.2 .1-2.3 .5-3.5c.5-1.5 1.2-3.3 2.3-5.4Zm-130.5 0l1.4 .7c0 .1-.1 .4-.1 1c0 .6 .4 1.2 1.2 1.9c.7 .5 1.9 1.1 3.5 1.8c-.2 1.3-.4 2.5-.8 3.7c-.3 1.2-.7 2.3-1.2 3.3l-1-.4l3.2 18.4v8.1h-35.5c-1.3 0-2.3-.3-3-.8c-.8-.7-1.3-1.8-1.3-3.3c0-.9 .1-1.8 .2-2.9c.1-1 .2-2 .4-3l1.1-.1c.2 .7 .5 1.2 1.1 1.5c.5 .4 1.2 .5 2 .5h10.2c-.5-2.9-1.2-5.2-2.4-7c-.9-1.4-2.2-2.7-3.9-3.8l2.2-9.2c2.5 1.9 4.4 4.4 5.4 7.4c1 2.8 1.5 6.5 1.5 11.2v1.4h18.4l-3.6-20.2l-1.9-1.3c0-1.2 .2-2.3 .6-3.5c.4-1.5 1.2-3.3 2.3-5.4Zm-288.9 0l1.3 .7c0 .1 0 .4-.1 1c0 .6 .4 1.2 1.3 1.9c.7 .5 1.9 1.1 3.5 1.8c-.2 1.3-.5 2.5-.8 3.7c-.4 1.2-.7 2.3-1.2 3.3l-1.1-.4l3.3 18.4h1.1c.6 0 1 0 1.3 0c.6-.1 1.2-.1 1.8-.2c-1-1.5-1.7-2.7-2-3.6c-.4-.9-.6-2-.6-3.1c0-3 1.3-5.6 3.7-7.8c2.5-2.2 5.4-3.3 8.6-3.3c2.2 0 4.3 .7 6.4 2.2c1.8 1.3 3.2 3 4 4.9l-1.2 1c-1.6-.5-2.9-.9-3.8-1.1c-.9-.2-2.1-.3-3.4-.3c-2.5 0-4.6 .2-6.4 .6c-2.3 .5-3.4 1.2-3.4 2.2c0 1.3 2.7 3.6 8.2 6.8l15.2-4.4l-3.3 8.5c-5.4 1.6-9.8 2.9-13.3 3.8c-3 .8-5.6 1.3-7.7 1.6c-1.5 .2-3.1 .3-4.6 .3H941.4c-.8 0-1.4 .1-1.8 .2c-.5 .1-.7 .3-.7 .5c0 .1 .5 .4 1.5 .8c1 .3 1.4 .9 1.4 1.7c0 1.1-.1 2.4-.4 4c-.4 1.5-.8 2.9-1.4 4.1c-.4 1-1.7 2.1-3.7 3.3c-2.1 1.3-4.6 2.4-7.3 3.3c-3.1 1-6.1 1.5-8.8 1.5c-3.3 0-5.7-.8-7.4-2.3c-1.6-1.5-2.4-3.6-2.4-6.5c0-3.1 .3-5.9 1.1-8.2c.9-2.8 2.8-6.4 5.6-10.9l1.7 1.3c-1.9 3.2-3.2 5.7-3.9 7.6c-.7 1.9-1 3.7-1 5.6c0 1.8 .6 3.2 1.7 4.3c1.2 1 2.8 1.6 4.9 1.6c2.5 0 5.2-.4 8.1-1.2c2.7-.7 4.9-1.5 6.8-2.5c1.9-1 2.8-1.8 2.8-2.5c0-.2-.6-.3-1.7-.3c-1.1-.1-2.1-.1-2.9-.1c-2.1 0-3.5 0-4.1-.2c-.6-.2-.9-.5-.9-1.1c0-1.1 .1-2.2 .5-3.4c.4-1.2 .9-2.1 1.4-2.8c1.3-1.5 2.9-2.9 4.7-4c2-1.3 3.8-1.9 5.4-1.9h21.8l-3.6-20.2l-1.9-1.3c0-1.2 .2-2.3 .5-3.5c.5-1.5 1.3-3.3 2.4-5.4Zm-119.2 0l1.4 .7c0 .1-.1 .4-.1 1c0 .6 .4 1.2 1.2 1.9c.7 .5 1.9 1.1 3.5 1.8c-.2 1.3-.4 2.5-.8 3.7c-.3 1.2-.7 2.3-1.2 3.3l-1-.4l3.2 18.4h1.1c.6 0 1.1 0 1.3 0c.6-.1 1.2-.1 1.8-.2c-1-1.5-1.7-2.7-2-3.6c-.4-.9-.5-2-.5-3.1c0-3 1.2-5.6 3.7-7.8c2.4-2.2 5.3-3.3 8.6-3.3c2.2 0 4.3 .7 6.3 2.2c1.8 1.3 3.2 3 4 4.9l-1.2 1c-1.6-.5-2.8-.9-3.8-1.1c-.9-.2-2-.3-3.4-.3c-2.4 0-4.6 .2-6.4 .6c-2.3 .5-3.4 1.2-3.4 2.2c0 1.3 2.8 3.6 8.3 6.8l15.1-4.4l-3.3 8.5c-5.4 1.6-9.8 2.9-13.3 3.8c-3 .8-5.6 1.3-7.7 1.6c-1.5 .2-3 .3-4.6 .3H822.2c-.7 0-1.3 .1-1.8 .2c-.4 .1-.6 .3-.6 .5c0 .1 .4 .4 1.4 .8c1 .3 1.5 .9 1.5 1.7c0 1.1-.2 2.4-.5 4c-.3 1.5-.8 2.9-1.4 4.1c-.4 1-1.6 2.1-3.6 3.3c-2.2 1.3-4.6 2.4-7.3 3.3c-3.2 1-6.1 1.5-8.9 1.5c-3.2 0-5.7-.8-7.3-2.3c-1.7-1.5-2.5-3.6-2.5-6.5c0-3.1 .4-5.9 1.1-8.2c.9-2.8 2.8-6.4 5.6-10.9l1.7 1.3c-1.9 3.2-3.1 5.7-3.8 7.6c-.7 1.9-1.1 3.7-1.1 5.6c0 1.8 .6 3.2 1.8 4.3c1.2 1 2.8 1.6 4.8 1.6c2.6 0 5.3-.4 8.2-1.2c2.6-.7 4.9-1.5 6.7-2.5c1.9-1 2.8-1.8 2.8-2.5c0-.2-.5-.3-1.6-.3c-1.1-.1-2.1-.1-3-.1c-2.1 0-3.5 0-4.1-.2c-.6-.2-.9-.5-.9-1.1c0-1.1 .2-2.2 .6-3.4c.3-1.2 .8-2.1 1.4-2.8c1.3-1.5 2.8-2.9 4.6-4c2-1.3 3.8-1.9 5.4-1.9h21.8l-3.6-20.2l-1.9-1.3c0-1.2 .2-2.3 .6-3.5c.4-1.5 1.2-3.3 2.3-5.4Zm-289.5 0l1.4 .7c0 .1-.1 .4-.1 1c0 .6 .4 1.2 1.2 1.9c.8 .5 1.9 1.1 3.5 1.8c-.1 1.3-.4 2.5-.8 3.7c-.3 1.2-.7 2.3-1.1 3.3l-1.1-.4l3.2 18.4v8.1h-91c-2.4 0-4-.9-5.1-2.8c-1.1-2.1-1.7-5.7-1.7-10.7v-8.5c0-1.9-.3-3.4-.8-4.5c-.3-.5-.9-1.2-1.8-2.2l3.2-7.5c1.2 1.6 2 3.2 2.5 4.7c.5 1.8 .7 4.2 .7 7v5.8c0 4.2 .3 7.1 .9 8.7c.4 1.3 1.1 1.9 2.1 1.9h25.4c-.2-1.3-.6-2.5-1.2-3.4c-.3-.5-1-1.4-2.1-2.7l2.4-7.1c1.5 1.7 2.5 3.5 3.1 5.3c.5 1.6 .7 3.9 .8 6.9v1h13.5c-.2-1.3-.6-2.5-1.2-3.4c-.3-.5-1-1.4-2.1-2.7l2.4-7.1c1.5 1.7 2.5 3.5 3.1 5.3c.5 1.6 .7 3.9 .8 6.9v1h19c-2.4-2.5-4.6-4.3-6.6-5.3c-1.8-1-3.6-1.5-5.3-1.5c-.6 0-1 0-1.5 .1c-.4 0-1 .1-1.8 .3c1.1-2.5 2.3-4.4 3.6-5.5c1.4-1.2 2.9-1.8 4.6-1.8c1.3 0 2.6 .3 3.8 .9c1.2 .7 2.6 1.7 4.1 3.1c1.2 1.1 2.9 2.8 5 5.2c1.5 1.7 2.7 2.8 3.5 3.3c.7 .5 1.9 .9 3.5 1.2h10.7l-3.6-20.2l-2-1.3c0-1.2 .2-2.3 .6-3.5c.5-1.5 1.2-3.3 2.3-5.4Zm669.8-4.3l6.9 3.7l-3.5 6.6l-7-3.6Zm-537.1-1.7l5.3 2.7l-3.3 5.6l-4.2-2.4l-2.4 4.7l-5.6-3l3.1-5.3l4.5 2.2Zm204.6-.2c.4 0 .7 .1 .9 .3c.2 .3 .4 .6 .4 1c0 .3-.1 .6-.2 .8c-.1 .3-.3 .6-.5 1.1c-1-.5-1.7-.8-2.1-.8c-.3 0-.7 .1-1 .3c-.3 .1-.5 .3-.7 .5c0 .2 .5 .6 1.4 1.2c1 .5 1.7 .8 2.1 .8c.3 0 1-.2 2.1-.5c-.2 .6-.4 1-.7 1.3c-.2 .2-.6 .4-1 .6l-6.5 1.9c.4-.7 .8-1.2 1.1-1.4c.3-.3 .8-.5 1.6-.8c-.6-.3-1-.7-1.2-1c-.3-.3-.4-.6-.4-.9c0-.2 .1-.5 .2-.9c.2-.3 .4-.6 .7-.9c1.3-1.8 2.5-2.6 3.8-2.6Z" class="g0_82"/>
<path d="M1195.1 347l4.7 2.4l-2.2 4l-4.6-2.3l-2.2 3.9l-4.6-2.4l2.3-4.1l4.4 2.3Zm-670-9.8l6.9 3.7l-3.6 6.7l-7-3.6Zm177.4-.3l7 3.7l-3.6 6.7l-7-3.6Zm447.1-.3l5.6 3.1l-3.1 5.7l-4.5-2.2l-2.5 4.9l-5.4-3.1l3.3-6l4.2 2.3Zm-644.4 0l5.5 3.1l-3.1 5.7l-4.4-2.2l-2.5 4.9l-5.4-3.1l3.3-6l4.2 2.3ZM1076 321.5c-.6 0-1.1 .3-1.5 .7c-.3 .5-.5 1.1-.5 1.6c0 .8 .4 1.3 1.2 1.8c.8 .5 1.8 .7 3.1 .7h1.1c-.5-3.2-1.7-4.8-3.4-4.8Zm370.2-.2c-.8 0-1.4 .9-2 2.7c1.1 .4 1.8 .7 2.4 .9c1.6 .6 2.5 .9 2.7 .9c.4 0 .7-.1 .7-.4c0-.4-.5-1.2-1.3-2.3c-1-1.2-1.8-1.8-2.5-1.8Zm-801.9 0c-.8 0-1.4 .9-2 2.7c1.1 .4 1.8 .7 2.4 .9c1.6 .6 2.5 .9 2.7 .9c.4 0 .7-.1 .7-.4c0-.4-.5-1.2-1.3-2.3c-1-1.2-1.8-1.8-2.5-1.8Zm559.6-6.3c1.2 0 2.1 .4 2.8 1.3c.6 .9 1 2.1 1 3.6c0 1.1-.1 2-.3 2.7c-.3 .7-.7 1.7-1.4 2.8c-.6-1.4-1-2.3-1.4-2.7c-.4-.4-.9-.6-1.6-.6c-1.1 0-2.5 .6-4.4 1.8c-1.9 1.2-2.8 2.2-2.8 3.1c0 .4 .3 .7 1.1 .9c.5 .1 1.4 .2 2.5 .2c.3 0 .6 0 .9 0c.3 0 .6 0 .9-.1c2.1 0 3.6 .3 4.3 .7c.6 .4 .9 1.1 .9 2.2c0 2.2-.4 4.2-1.2 6.2c-1 2.5-2.4 4.2-4.3 5.3c-2.4 1.3-4.8 2.4-7.4 3.2c-2.5 .8-4.9 1.2-7.1 1.2c-6.2 0-9.3-2.7-9.3-8.3c0-2.8 .3-5.2 1-7.2c.8-2.3 2.5-5.4 5-9.2l1.3 .8c-1.4 2.5-2.5 4.7-3.3 6.7c-.7 1.9-1.1 3.6-1.1 5.1c0 3.7 2.1 5.6 6.4 5.6c1.6 0 3.1-.2 4.5-.4c1.4-.3 2.9-.7 4.4-1.2c.9-.4 2-.8 3.2-1.4c2-.8 3.1-1.3 3.2-1.4c.9-.4 1.3-.9 1.3-1.2c0-.2-.5-.4-1.4-.4c-1-.1-1.7-.1-2.1-.1c-3 0-5.1-.4-6.1-1.3c-.9-.7-1.3-2-1.3-4c0-.9 .3-2 .9-3.4c.6-1.4 1.4-2.8 2.3-4.2c1.5-2.1 2.9-3.6 4.4-4.7c1.4-1.1 2.8-1.6 4.2-1.6Zm-156.5 0c1.1 0 2 .4 2.7 1.3c.7 .9 1 2.1 1 3.6c0 1.1-.1 2-.3 2.7c-.2 .7-.7 1.7-1.4 2.8c-.5-1.4-1-2.3-1.4-2.7c-.3-.4-.9-.6-1.6-.6c-1 0-2.5 .6-4.4 1.8c-1.9 1.2-2.8 2.2-2.8 3.1c0 .4 .4 .7 1.1 .9c.6 .1 1.4 .2 2.5 .2c.3 0 .6 0 .9 0c.3 0 .6 0 .9-.1c2.2 0 3.6 .3 4.3 .7c.6 .4 .9 1.1 .9 2.2c0 2.2-.4 4.2-1.1 6.2c-1 2.5-2.5 4.2-4.4 5.3c-2.3 1.3-4.8 2.4-7.4 3.2c-2.5 .8-4.9 1.2-7.1 1.2c-6.2 0-9.3-2.7-9.3-8.3c0-2.8 .4-5.2 1.1-7.2c.8-2.3 2.4-5.4 4.9-9.2l1.4 .8c-1.5 2.5-2.6 4.7-3.3 6.7c-.8 1.9-1.1 3.6-1.1 5.1c0 3.7 2.1 5.6 6.3 5.6c1.6 0 3.1-.2 4.5-.4c1.5-.3 2.9-.7 4.4-1.2c.9-.4 2-.8 3.3-1.4c1.9-.8 3-1.3 3.1-1.4c.9-.4 1.3-.9 1.3-1.2c0-.2-.4-.4-1.4-.4c-1-.1-1.7-.1-2-.1c-3.1 0-5.1-.4-6.2-1.3c-.8-.7-1.2-2-1.2-4c0-.9 .2-2 .8-3.4c.6-1.4 1.4-2.8 2.4-4.2c1.4-2.1 2.9-3.6 4.3-4.7c1.5-1.1 2.9-1.6 4.3-1.6Zm-399.9-.6c1 0 2.3 1.5 3.8 4.6c1.5 3.2 2.3 6.2 2.3 8.9v6.5c-2.1 0-4.5-.4-7.3-1.2c-2.5-.7-4.7-1.6-6.6-2.6c-1 1.6-2.2 2.6-3.6 3.2l-.2 .1v.5H620.6v.5c-.1 1.9-.4 3.4-.8 4.7c-.5 1.6-1.4 3-2.6 4c-1.2 1-3 1.8-5.4 2.5c-2.4 .6-4.8 .9-7.3 .9c-4.8 0-8.5-.9-11.1-2.6c-2.7-1.8-4-4.3-4-7.5c0-2.8 .4-5.3 1.3-7.6c.9-2.5 2.7-5.8 5.3-9.8l1.8 1.2c-1.9 3.4-3.2 5.8-3.8 7.3c-.6 1.6-.9 3.1-.9 4.7c0 2.1 1.1 3.8 3.3 5.1c2.3 1.4 5.2 2 8.8 2c3.6 0 6.6-.7 9.1-2c2.4-1.4 3.6-3.1 3.6-5.1c0-1.2-.2-2.4-.6-3.6c-.4-1.3-1.4-3.2-2.8-5.9l2.7-8c1.4 2.5 2.2 4.3 2.5 5.2c.5 1.5 .8 3.4 .9 5.6v.3h11.5c1.8 0 3.2-.2 4.3-.6c1.3-.6 2.2-1.6 2.8-2.9c1.1-2.6 2.5-4.6 4.3-6.3c1.6-1.4 2.9-2.1 4-2.1Zm36.3-.4c-.7 .3-1.2 .5-1.5 .7c-1.1 .6-2 1.1-2.6 1.6c-.5 .4-.9 .8-1.2 1.1c-.4 .5-.6 .8-.6 1c0 .3 .3 .5 1 .7c.7 .1 1.4 .2 2.1 .2c.4 0 .9-.1 1.4-.4c.4-.2 1.1-.7 2-1.3Zm-261.6-.7l1.6 1.1c-.4 .8-.8 1.5-1 2.1c-.3 .7-.6 1.2-.7 1.7c-.3 .9-.5 1.8-.5 2.7c0 1.2 .4 2.2 1.1 3.1c.8 .9 1.7 1.5 2.9 1.8c.7 .1 1.6 .3 2.7 .4c1.1 .1 2.3 .1 3.5 .1h21.6c-.6-1.6-1.1-2.6-1.4-3.2c-.4-.8-1.1-1.7-2-2.9l2.7-6.9c1.4 2.1 2.4 4.1 2.9 5.8c.4 1.6 .6 3.9 .6 6.9v8.4h-25c-1.2 0-2.2 0-3 0c-.8 0-1.4-.1-1.8-.1c-.8-.1-1.6-.3-2.6-.6c-1.6-.6-3-1.7-4-3.4c-1-1.7-1.6-3.6-1.6-5.7c0-.9 .1-1.7 .2-2.6c.1-.9 .3-1.8 .7-2.8c.4-1.2 .8-2.3 1.4-3.2c.5-1 1.1-1.9 1.7-2.7Zm908.8-.2c1.5 1.7 2.6 3.5 3.1 5.3c.6 1.9 .8 4.6 .8 8.2v7.8h-16.6v.5c-.1 1.9-.3 3.4-.7 4.7c-.6 1.6-1.4 3-2.7 4c-1.2 1-3 1.8-5.3 2.5c-2.4 .6-4.8 .9-7.3 .9c-4.9 0-8.6-.9-11.2-2.6c-2.6-1.8-3.9-4.3-3.9-7.5c0-2.8 .4-5.3 1.3-7.6c.9-2.5 2.7-5.8 5.3-9.8l1.8 1.2c-2 3.4-3.3 5.8-3.8 7.3c-.7 1.6-1 3.1-1 4.7c0 2.1 1.2 3.8 3.4 5.1c2.2 1.4 5.2 2 8.8 2c3.6 0 6.6-.7 9-2c2.5-1.4 3.7-3.1 3.7-5.1c0-1.2-.2-2.4-.6-3.6c-.5-1.3-1.4-3.2-2.8-5.9l2.6-8c1.4 2.5 2.3 4.3 2.6 5.2c.5 1.5 .8 3.4 .9 5.6v.3h13.5c-.2-1.3-.6-2.5-1.1-3.4c-.3-.5-1-1.4-2.1-2.7Zm-211.8-.5c1.3 0 2.6 .3 3.8 .9c1.2 .7 2.6 1.7 4.1 3.1c1.2 1.1 2.9 2.8 5.1 5.2c1.5 1.7 2.6 2.8 3.4 3.3c.8 .5 1.9 .9 3.5 1.2h13.5c-.2-1.3-.6-2.5-1.1-3.4c-.4-.5-1-1.4-2.1-2.7l2.3-7.1c1.5 1.7 2.6 3.5 3.1 5.3c.6 1.9 .8 4.6 .8 8.2v7.8h-73l-.7 3.1c-.7 1.7-1.8 3.3-3.3 5c-2.9 3.3-5.7 5-8.5 5c-1.7 0-3.5-.5-5.5-1.6c-1.9-1-4.9-3.1-9-6.2l1.3-1.7c2.1 1.4 3.9 2.4 5.3 2.8c1.1 .4 2.4 .6 3.8 .6c1.9 0 3.8-.5 5.7-1.6c2.3-1.3 4.6-3.3 6.9-6.1c-.8 .1-1.5 .1-2.1 .1c-1.9 0-3.5-.6-4.6-1.9c-1.2-1.2-1.8-3-1.8-5.2c0-3 .7-5.9 2.1-8.6c1.5-3 3.2-4.5 5.1-4.5c1.6 0 2.9 1.1 4 3.2c1.1 2.2 1.7 4.8 1.7 7.9v1.6h21.2c-.2-1.3-.6-2.5-1.1-3.4c-.4-.5-1-1.4-2.1-2.7l2.3-7.1c1.5 1.7 2.6 3.5 3.1 5.3c.5 1.6 .7 3.9 .8 6.9v1h19.1c-2.5-2.5-4.7-4.3-6.7-5.3c-1.8-1-3.6-1.5-5.3-1.5c-.5 0-1 0-1.4 .1c-.5 0-1.1 .1-1.9 .3c1.1-2.5 2.3-4.4 3.7-5.5c1.3-1.2 2.8-1.8 4.5-1.8Zm182.4-6.8l7 3.7l-3.6 6.7l-7-3.7Zm-697.7 0l6.9 3.7l-3.6 6.7l-7-3.7Zm-163.8-2.7l5.6 3l-3.1 5.8l-4.4-2.2l-2.6 4.8l-5.4-3l3.3-6.1l4.2 2.4Zm891.5-.3c.4 0 .7 .1 .9 .4c.2 .2 .3 .5 .3 .9c0 .4 0 .6-.1 .9c-.1 .2-.3 .5-.6 1c-.9-.5-1.6-.8-2-.8c-.3 0-.7 .1-1.1 .3c-.2 .1-.4 .3-.6 .5c0 .2 .5 .6 1.4 1.2c1 .5 1.7 .8 2.1 .8c.2 0 1-.2 2.1-.5c-.1 .7-.4 1.1-.7 1.4c-.2 .3-.5 .4-1 .6l-6.4 1.9c.4-.7 .7-1.2 1-1.4c.3-.3 .8-.6 1.5-.9c-.5-.3-.9-.6-1.2-.9c-.2-.4-.3-.7-.3-1c0-.2 .1-.5 .2-.9c.2-.3 .4-.6 .6-.9c1.3-1.7 2.6-2.6 3.9-2.6Zm-646.1-2l2.8 18.6c.5 2.9 1.1 4.9 1.8 5.9c.5 .7 1.1 1 2 1h17.4c-.2-1.3-.6-2.5-1.2-3.4c-.3-.5-1-1.4-2.1-2.7l2.4-7.1c1.5 1.7 2.5 3.5 3.1 5.3c.5 1.6 .7 3.9 .8 6.9v1h9.8c2.1 0 3.8-.6 5.2-1.7c1.8-1.6 2.7-3.9 2.7-7l2 .3c0 .6-.1 1.3-.1 2.2c0 .8-.1 1.7-.1 2.7c0 1 .4 1.8 1.1 2.5c.7 .7 1.5 1 2.4 1h3.6c2.5 0 4.2-.3 5.2-1c1.3-.8 1.9-2.3 1.9-4.6c0-.4 .1-.9 .4-1.2c.2-.3 .6-.6 1.1-1l1.2-.9c0 .4 0 .9 .1 1.5c0 .7 0 1.1 0 1.3c0 1.1-.2 2.5-.5 4.3c.8 .4 1.6 .7 2.5 1c.9 .2 1.9 .4 2.9 .6c0-.7-.3-1.6-.8-2.7c-.5-1-.7-1.8-.7-2.1c0-.6 .1-1 .2-1.2c0-.1 .3-.4 .7-1l2.5-3.4c.5 1.3 .9 2.4 1.1 3.4c.3 1 .4 2.3 .4 3.9v3.1h13.6c-.2-1.3-.6-2.5-1.1-3.4c-.3-.5-1-1.4-2.1-2.7l2.3-7.1c1.5 1.7 2.6 3.5 3.1 5.3c.6 1.9 .8 4.6 .8 8.2v7.8H755.3l-1.1-.1c-.9-.1-1.7-.2-2.5-.4c-1.4-.3-2.9-.8-4.3-1.5c-1.2 .8-2.2 1.4-3.1 1.6c-.9 .3-2.3 .4-4.1 .4h-4.8c-1.4 0-2.4-.3-3.2-1c-.8-.7-1.5-1.9-2.1-3.5c-.7 1.1-1.4 1.9-2.2 2.6l-.1 .1v1.8H692.1c-.8 0-1.4-.1-2-.4c-1.1-.6-2.1-1.6-2.9-3.2c-1.1-2.1-1.8-5-2.1-8.6c-1.4 1.6-2.4 2.8-3.2 3.5c-1.1 1-2 1.5-2.7 1.5c-.4 0-.9 0-1.4-.1l-3.7-.8c-1.5-.3-2.5-.5-2.8-.6c-.4-.2-.6-.4-.6-.8c0-.5 .7-2.2 2.1-5.1c1.4-2.8 2.4-4.6 3-5.3c.5-.5 1.4-1.2 2.6-2.1c.8-.5 1.9-1.1 3.3-1.9l1.5-1c0-.2-.1-.5-.1-.8c0-.3 0-.6 0-.8c0-.8 .1-1.7 .5-2.9c.3-1.1 1-2.5 1.9-4.2Zm415.7-1.3l5.6 3.1l-3.1 5.7l-4.5-2.2l-2.5 4.9l-5.4-3.1l3.3-6.1l4.2 2.4Zm-334-1.2l6.9 3.7l-3.6 6.6l-6.9-3.6Zm-279.3 0l7 3.7l-3.6 6.6l-7-3.6Zm932-.1c1.1 1.6 1.9 3.2 2.4 4.7c.5 1.8 .8 4.2 .8 7v5.8c0 4.2 .3 7.1 .8 8.7c.5 1.3 1.2 1.9 2.1 1.9h8c1.8 0 3.2-.2 4.3-.6c1.3-.6 2.2-1.6 2.8-2.9c1.1-2.6 2.5-4.6 4.3-6.3c1.6-1.4 2.9-2.1 4-2.1c1 0 2.3 1.5 3.8 4.6c1.5 3.2 2.3 6.2 2.3 8.9v6.5c-2.1 0-4.5-.4-7.3-1.2c-2.5-.7-4.7-1.6-6.6-2.6c-1.1 1.8-2.6 2.9-4.3 3.4c-.8 .3-1.9 .4-3.3 .4h-8c-2.3 0-4-.9-5-2.8c-1.2-2.1-1.8-5.7-1.8-10.7v-8.5c0-1.9-.2-3.4-.7-4.5c-.3-.5-.9-1.2-1.8-2.2Zm-26.9 0l1.8 10.6c.7 4 1.1 7.5 1.4 10.4c.2 2.3 .3 4.5 .3 6.6c0 1.7-.2 3.3-.6 4.8c-.5 1.4-1.3 3.4-2.5 5.9l-1.7-.7c.4-2.6 .7-4.6 .7-6.2c0-1.2-.1-3-.3-5.4c-.2-2.3-.5-4.6-.8-6.9c-.3-2.3-.8-5.1-1.4-8.2c-.3-1.2-.4-1.9-.4-2.3c0-.7 .3-1.7 .9-3.2c.6-1.5 1.5-3.3 2.6-5.4Zm-130.5 0l1.8 10.6c.6 4 1.1 7.5 1.3 10.4c.2 2.3 .3 4.5 .3 6.6c0 1.7-.2 3.3-.6 4.8c-.4 1.4-1.2 3.4-2.4 5.9l-1.8-.7c.5-2.6 .7-4.6 .7-6.2c0-1.2-.1-3-.3-5.4c-.2-2.3-.4-4.6-.7-6.9c-.3-2.3-.8-5.1-1.5-8.2c-.2-1.2-.3-1.9-.3-2.3c0-.7 .3-1.7 .9-3.2c.6-1.5 1.5-3.3 2.6-5.4Zm-375 0l1.7 10.6c.7 4 1.1 7.5 1.4 10.4c.2 2.3 .3 4.5 .3 6.6c0 1.7-.2 3.3-.6 4.8c-.4 1.4-1.2 3.4-2.4 5.9l-1.8-.7c.5-2.6 .7-4.6 .7-6.2c0-1.2-.1-3-.3-5.4c-.2-2.3-.4-4.6-.8-6.9c-.2-2.3-.7-5.1-1.4-8.2c-.3-1.2-.4-1.9-.4-2.3c0-.7 .3-1.7 1-3.2c.6-1.5 1.4-3.3 2.6-5.4Zm-322.6 0l1.8 10.6c.7 4 1.1 7.5 1.4 10.4c.2 2.3 .3 4.5 .3 6.6c0 1.7-.2 3.3-.7 4.8c-.4 1.4-1.2 3.4-2.4 5.9l-1.8-.7c.5-2.6 .8-4.6 .8-6.2c0-1.2-.2-3-.4-5.4c-.1-2.3-.4-4.6-.7-6.9c-.3-2.3-.8-5.1-1.5-8.2c-.2-1.2-.3-1.9-.3-2.3c0-.7 .3-1.7 .9-3.2c.6-1.5 1.5-3.3 2.6-5.4Zm814.3-2.3l1.4 .7c0 .1 0 .4-.1 1c0 .6 .4 1.2 1.2 1.9c.8 .5 1.9 1.1 3.6 1.8c-.2 1.3-.5 2.5-.8 3.7c-.4 1.2-.8 2.3-1.2 3.3l-1.1-.4l3.3 18.4v8.1H1345c-2.3 0-4-.9-5-2.8c-1.2-2.1-1.8-5.7-1.8-10.7v-8.5c0-1.9-.2-3.4-.8-4.5c-.2-.5-.8-1.2-1.8-2.2l3.2-7.5c1.2 1.6 2 3.2 2.5 4.7c.5 1.8 .8 4.2 .8 7v5.8c0 4.2 .2 7.1 .8 8.7c.4 1.3 1.1 1.9 2.1 1.9h21.4c-.8-.9-1.5-1.7-2.3-2.4c-.6-.6-1.4-1.3-2.4-2.1c-1.1-.8-2.2-1.7-3.3-2.6l-1 1.1c-1.8-1.8-2.8-2.8-3.1-3.2c-1-1.1-1.5-2.4-1.5-3.9c0-2 .1-3.4 .4-4.2c.4-1.2 1.2-2.2 2.5-3.1c1.2-.8 2.4-1.5 3.7-2.2c1-.5 2.4-1.1 4.1-1.8c.8-.3 2.5-1 5.1-2V307c-.1 0-1 .3-2.6 .8c-1.9 .6-3.5 1.2-4.6 1.7c-1.7 .7-2.5 1.2-2.5 1.5c0 .2 .7 .9 2.1 2.3c1.9 1.9 3.6 3.6 4.9 5.2c2.1 2.5 3.9 5.1 5.2 7.6v.2h10.8l-3.6-20.2l-1.9-1.3c0-1.2 .1-2.3 .5-3.5c.5-1.5 1.2-3.3 2.3-5.4Zm-130.5 0l1.4 .7c0 .1-.1 .4-.1 1c0 .6 .4 1.2 1.2 1.9c.7 .5 1.9 1.1 3.5 1.8c-.2 1.3-.4 2.5-.8 3.7c-.3 1.2-.7 2.3-1.2 3.3l-1-.4l3.2 18.4v8.1h-35.5c-1.3 0-2.3-.3-3-.8c-.8-.7-1.3-1.8-1.3-3.3c0-.9 .1-1.8 .2-2.9c.1-1 .2-2 .4-3l1.1-.1c.2 .7 .5 1.2 1.1 1.5c.5 .4 1.2 .5 2 .5h10.2c-.5-2.9-1.2-5.2-2.4-7c-.9-1.4-2.2-2.7-3.9-3.8l2.2-9.2c2.5 1.9 4.4 4.4 5.4 7.4c1 2.8 1.5 6.5 1.5 11.2v1.4h18.4l-3.6-20.2l-1.9-1.3c0-1.2 .2-2.3 .6-3.5c.4-1.5 1.2-3.3 2.3-5.4Zm-288.9 0l1.3 .7c0 .1 0 .4-.1 1c0 .6 .4 1.2 1.3 1.9c.7 .5 1.9 1.1 3.5 1.8c-.2 1.3-.5 2.5-.8 3.7c-.4 1.2-.7 2.3-1.2 3.3l-1.1-.4l3.3 18.4h1.1c.6 0 1 0 1.3 0c.6-.1 1.2-.1 1.8-.2c-1-1.5-1.7-2.7-2-3.6c-.4-.9-.6-2-.6-3.1c0-3 1.3-5.6 3.7-7.8c2.5-2.2 5.4-3.3 8.6-3.3c2.2 0 4.3 .7 6.4 2.2c1.8 1.3 3.2 3 4 4.9l-1.2 1c-1.6-.5-2.9-.9-3.8-1.1c-.9-.2-2.1-.3-3.4-.3c-2.5 0-4.6 .2-6.4 .6c-2.3 .5-3.4 1.2-3.4 2.2c0 1.3 2.7 3.6 8.2 6.8l15.2-4.4l-3.3 8.5c-5.4 1.6-9.8 2.9-13.3 3.8c-3 .8-5.6 1.3-7.7 1.6c-1.5 .2-3.1 .3-4.6 .3H941.4c-.8 0-1.4 .1-1.8 .2c-.5 .1-.7 .3-.7 .5c0 .1 .5 .4 1.5 .8c1 .3 1.4 .9 1.4 1.7c0 1.1-.1 2.4-.4 4c-.4 1.5-.8 2.9-1.4 4.1c-.4 1-1.7 2.1-3.7 3.3c-2.1 1.3-4.6 2.4-7.3 3.3c-3.1 1-6.1 1.5-8.8 1.5c-3.3 0-5.7-.8-7.4-2.3c-1.6-1.5-2.4-3.6-2.4-6.5c0-3.1 .3-5.9 1.1-8.2c.9-2.8 2.8-6.4 5.6-10.9l1.7 1.3c-1.9 3.2-3.2 5.7-3.9 7.6c-.7 1.9-1 3.7-1 5.6c0 1.8 .6 3.2 1.7 4.3c1.2 1 2.8 1.6 4.9 1.6c2.5 0 5.2-.4 8.1-1.2c2.7-.7 4.9-1.5 6.8-2.5c1.9-1 2.8-1.8 2.8-2.5c0-.2-.6-.3-1.7-.3c-1.1-.1-2.1-.1-2.9-.1c-2.1 0-3.5 0-4.1-.2c-.6-.2-.9-.5-.9-1.1c0-1.1 .1-2.2 .5-3.4c.4-1.2 .9-2.1 1.4-2.8c1.3-1.5 2.9-2.9 4.7-4c2-1.3 3.8-1.9 5.4-1.9h21.8l-3.6-20.2l-1.9-1.3c0-1.2 .2-2.3 .5-3.5c.5-1.5 1.3-3.3 2.4-5.4Zm-119.2 0l1.4 .7c0 .1-.1 .4-.1 1c0 .6 .4 1.2 1.2 1.9c.7 .5 1.9 1.1 3.5 1.8c-.2 1.3-.4 2.5-.8 3.7c-.3 1.2-.7 2.3-1.2 3.3l-1-.4l3.2 18.4h1.1c.6 0 1.1 0 1.3 0c.6-.1 1.2-.1 1.8-.2c-1-1.5-1.7-2.7-2-3.6c-.4-.9-.5-2-.5-3.1c0-3 1.2-5.6 3.7-7.8c2.4-2.2 5.3-3.3 8.6-3.3c2.2 0 4.3 .7 6.3 2.2c1.8 1.3 3.2 3 4 4.9l-1.2 1c-1.6-.5-2.8-.9-3.8-1.1c-.9-.2-2-.3-3.4-.3c-2.4 0-4.6 .2-6.4 .6c-2.3 .5-3.4 1.2-3.4 2.2c0 1.3 2.8 3.6 8.3 6.8l15.1-4.4l-3.3 8.5c-5.4 1.6-9.8 2.9-13.3 3.8c-3 .8-5.6 1.3-7.7 1.6c-1.5 .2-3 .3-4.6 .3H822.2c-.7 0-1.3 .1-1.8 .2c-.4 .1-.6 .3-.6 .5c0 .1 .4 .4 1.4 .8c1 .3 1.5 .9 1.5 1.7c0 1.1-.2 2.4-.5 4c-.3 1.5-.8 2.9-1.4 4.1c-.4 1-1.6 2.1-3.6 3.3c-2.2 1.3-4.6 2.4-7.3 3.3c-3.2 1-6.1 1.5-8.9 1.5c-3.2 0-5.7-.8-7.3-2.3c-1.7-1.5-2.5-3.6-2.5-6.5c0-3.1 .4-5.9 1.1-8.2c.9-2.8 2.8-6.4 5.6-10.9l1.7 1.3c-1.9 3.2-3.1 5.7-3.8 7.6c-.7 1.9-1.1 3.7-1.1 5.6c0 1.8 .6 3.2 1.8 4.3c1.2 1 2.8 1.6 4.8 1.6c2.6 0 5.3-.4 8.2-1.2c2.6-.7 4.9-1.5 6.7-2.5c1.9-1 2.8-1.8 2.8-2.5c0-.2-.5-.3-1.6-.3c-1.1-.1-2.1-.1-3-.1c-2.1 0-3.5 0-4.1-.2c-.6-.2-.9-.5-.9-1.1c0-1.1 .2-2.2 .6-3.4c.3-1.2 .8-2.1 1.4-2.8c1.3-1.5 2.8-2.9 4.6-4c2-1.3 3.8-1.9 5.4-1.9h21.8l-3.6-20.2l-1.9-1.3c0-1.2 .2-2.3 .6-3.5c.4-1.5 1.2-3.3 2.3-5.4Zm-289.5 0l1.4 .7c0 .1-.1 .4-.1 1c0 .6 .4 1.2 1.2 1.9c.8 .5 1.9 1.1 3.5 1.8c-.1 1.3-.4 2.5-.8 3.7c-.3 1.2-.7 2.3-1.1 3.3l-1.1-.4l3.2 18.4v8.1h-91c-2.4 0-4-.9-5.1-2.8c-1.1-2.1-1.7-5.7-1.7-10.7v-8.5c0-1.9-.3-3.4-.8-4.5c-.3-.5-.9-1.2-1.8-2.2l3.2-7.5c1.2 1.6 2 3.2 2.5 4.7c.5 1.8 .7 4.2 .7 7v5.8c0 4.2 .3 7.1 .9 8.7c.4 1.3 1.1 1.9 2.1 1.9h25.4c-.2-1.3-.6-2.5-1.2-3.4c-.3-.5-1-1.4-2.1-2.7l2.4-7.1c1.5 1.7 2.5 3.5 3.1 5.3c.5 1.6 .7 3.9 .8 6.9v1h13.5c-.2-1.3-.6-2.5-1.2-3.4c-.3-.5-1-1.4-2.1-2.7l2.4-7.1c1.5 1.7 2.5 3.5 3.1 5.3c.5 1.6 .7 3.9 .8 6.9v1h19c-2.4-2.5-4.6-4.3-6.6-5.3c-1.8-1-3.6-1.5-5.3-1.5c-.6 0-1 0-1.5 .1c-.4 0-1 .1-1.8 .3c1.1-2.5 2.3-4.4 3.6-5.5c1.4-1.2 2.9-1.8 4.6-1.8c1.3 0 2.6 .3 3.8 .9c1.2 .7 2.6 1.7 4.1 3.1c1.2 1.1 2.9 2.8 5 5.2c1.5 1.7 2.7 2.8 3.5 3.3c.7 .5 1.9 .9 3.5 1.2h10.7l-3.6-20.2l-2-1.3c0-1.2 .2-2.3 .6-3.5c.5-1.5 1.2-3.3 2.3-5.4Zm669.8-4.3l6.9 3.7l-3.5 6.6l-7-3.6Zm-537.1-1.7l5.3 2.7l-3.3 5.6l-4.2-2.4l-2.4 4.7l-5.6-3l3.1-5.3l4.5 2.2Zm204.6-.2c.4 0 .7 .1 .9 .3c.2 .3 .4 .6 .4 1c0 .3-.1 .6-.2 .8c-.1 .3-.3 .6-.5 1.1c-1-.5-1.7-.8-2.1-.8c-.3 0-.7 .1-1 .3c-.3 .1-.5 .3-.7 .5c0 .2 .5 .6 1.4 1.2c1 .5 1.7 .8 2.1 .8c.3 0 1-.2 2.1-.5c-.2 .6-.4 1-.7 1.3c-.2 .2-.6 .4-1 .6l-6.5 1.9c.4-.7 .8-1.2 1.1-1.4c.3-.3 .8-.5 1.6-.8c-.6-.3-1-.7-1.2-1c-.3-.3-.4-.6-.4-.9c0-.2 .1-.5 .2-.9c.2-.3 .4-.6 .7-.9c1.3-1.8 2.5-2.6 3.8-2.6Z" class="g1_82"/>
<path fill-rule="evenodd" d="M360.5 336.6l5.6 3.1l-3.1 5.7l-4.4-2.2l-2.5 4.9l-5.5-3.1l3.3-6l4.3 2.3Zm-154.5 0l5.5 3.1l-3.1 5.7l-4.4-2.2l-2.5 4.9l-5.4-3.1l3.3-6l4.2 2.3Zm-36.3 0l5.5 3.1l-3.1 5.7l-4.4-2.2l-2.5 4.9l-5.4-3.1l3.3-6l4.2 2.3Zm94.7-15.1c-.6 0-1.1 .3-1.5 .7c-.3 .5-.5 1.1-.5 1.6c0 .8 .4 1.3 1.2 1.8c.7 .5 1.8 .7 3.1 .7h1.1c-.6-3.2-1.7-4.8-3.4-4.8Zm-30.7-1.1c-1.3 0-2.8 .4-4.5 1.3c-1.6 .8-4 2.4-7.1 4.6h7.8c6.6 0 9.8-1 9.8-3c0-.7-.7-1.4-2.2-2c-1.4-.6-2.7-.9-3.8-.9Zm-47.3-3.8c-.4 0-.8 .2-1.1 .4c-.3 .3-.4 .6-.4 .9c0 .9 .6 1.7 1.9 2.5c1.3 .8 2.8 1.4 4.6 1.7c-.7-1.8-1.5-3.1-2.4-4c-.9-1-1.8-1.5-2.6-1.5Zm194-8.3c2.2 0 4.3 .7 6.4 2.2c1.8 1.3 3.2 3 4 4.9l-1.2 1c-1.6-.5-2.9-.9-3.8-1.1c-.9-.2-2.1-.3-3.4-.3c-2.5 0-4.6 .2-6.4 .6c-2.3 .5-3.4 1.2-3.4 2.2c0 1.3 2.7 3.6 8.2 6.8l15.2-4.4l-3.3 8.5c-5.4 1.6-9.8 2.9-13.3 3.8c-3 .8-5.6 1.3-7.7 1.6c-1.5 .2-3.1 .3-4.6 .3H342.3v.7c0 1.2-.7 2.8-2.1 4.8c-1.4 2-3 3.8-4.9 5.2c-2 1.7-3.8 2.5-5.3 2.5c-1.7 0-3.6-.5-5.6-1.5c-1.8-.9-4.5-2.6-8.2-5.1l1.2-1.9c1.8 1.2 3.3 2 4.4 2.4c1.1 .4 2.2 .6 3.5 .6c1.4 0 2.7-.4 4.1-1.1c1.4-.8 3.3-2.2 5.6-4.3c3.3-3 5-5.2 5-6.8c0-.8-.3-1.9-1-3.2c-.7-1.4-1.6-2.7-2.6-3.6l1.7-8.1c1.3 1.4 2.3 3 3.1 4.8c.7 1.8 1.1 3.9 1.1 6.2v.3h21.3c-.2-1.3-.6-2.5-1.2-3.4c-.3-.5-1-1.4-2.1-2.7l2.4-7.1c1.5 1.7 2.5 3.5 3 5.3c.5 1.6 .8 3.9 .8 6.9l.1 1h1c.6 0 1 0 1.3 0c.6-.1 1.2-.1 1.8-.2c-1-1.5-1.7-2.7-2-3.6c-.4-.9-.6-2-.6-3.1c0-3 1.3-5.6 3.7-7.8c2.5-2.2 5.4-3.3 8.6-3.3Zm-148.1-9.6l6.9 3.7l-3.5 6.7l-7-3.7Zm60.9-.5l1.8 10.6c.7 4 1.1 7.5 1.4 10.4c.2 2.3 .3 4.5 .3 6.6c0 1.7-.3 3.3-.7 4.8c-.4 1.4-1.2 3.4-2.4 5.9l-1.8-.7c.5-2.6 .8-4.6 .8-6.2c0-1.2-.2-3-.4-5.4c-.1-2.3-.4-4.6-.7-6.9c-.3-2.3-.8-5.1-1.5-8.2c-.2-1.2-.3-1.9-.3-2.3c0-.7 .3-1.7 .9-3.2c.6-1.5 1.5-3.3 2.6-5.4Zm-13.8-2.3l1.4 .7c0 .1-.1 .4-.1 1c0 .6 .4 1.2 1.2 1.9c.8 .5 1.9 1.1 3.5 1.8c-.1 1.3-.4 2.5-.8 3.7c-.3 1.2-.7 2.3-1.1 3.3l-1.1-.4l3.2 18.4v8.1H271.2l-.1 .5c-.5 2.6-1.9 5.1-4.1 7.6c-2.9 3.3-5.7 5-8.6 5c-1.6 0-3.4-.5-5.4-1.6c-1.9-1-4.9-3.1-9-6.2l1.3-1.7c2.1 1.4 3.9 2.4 5.2 2.8c1.2 .4 2.5 .6 3.9 .6c1.9 0 3.8-.5 5.7-1.6c2.2-1.3 4.5-3.3 6.9-6.1c-.8 .1-1.5 .1-2.1 .1c-1.9 0-3.5-.6-4.7-1.9c-1.1-1.2-1.7-3-1.7-5.2c0-3 .7-5.9 2.1-8.6c1.4-3 3.1-4.5 5.1-4.5c1.5 0 2.9 1.1 4 3.2c1.1 2.2 1.7 4.8 1.7 7.9v1.6h10.7l-3.6-20.2l-2-1.3c0-1.2 .2-2.3 .6-3.5c.5-1.5 1.2-3.3 2.3-5.4Zm-93.8-.3l6.9 3.7l-3.6 6.7l-6.9-3.7Zm191.3-1.3l7 3.7l-3.6 6.7l-7-3.6Zm-157.5-.8l1.4 .6c0 .1-.1 .4-.1 .8c0 .7 1 1.5 2.9 2.4c.7 .4 1.7 .8 3 1.3c-.2 1.5-.5 3-1 4.3c-.2 .7-.6 1.7-1.2 3.2l-1.1-.4c.7 2.8 1.1 4.9 1.3 6.3c.2 1.3 .3 2.5 .3 3.5v.4c0 .6 0 1 0 1.3c-.1 .4-.2 .9-.3 1.6c1-.8 2.1-1.5 3.1-2.3c1.6-1.1 3.1-2 4.4-2.7c1.6-1 2.9-1.4 3.8-1.4c2.3 0 4.2 .6 5.6 1.8c1.6 1.4 2.4 3.4 2.4 5.9v14.3H149.3v-8.1h23.4c-.2-1.3-.6-2.5-1.2-3.4c-.3-.5-1-1.4-2.1-2.7l2.4-7.1c1.5 1.7 2.5 3.5 3.1 5.3c.5 1.6 .7 3.9 .8 6.9v1h3.2c.9 0 1.8 0 2.6 .1c2.2 .3 4.7 .5 7.5 .8c-3-.6-5-1.5-6.2-2.6c-1.2-1-1.8-2.6-1.8-4.7c0-3.1 .7-5.9 2.1-8.3c1.5-2.5 3-3.7 4.8-3.7c2 0 3.8 1.7 5.3 5.2c1.5 3.4 2.2 7.6 2.2 12.5v.7H209c-.2-1.3-.6-2.5-1.2-3.4c-.3-.5-1-1.4-2.1-2.7l2.4-7.1c1.5 1.7 2.5 3.5 3.1 5.3c.5 1.6 .7 3.9 .8 6.9v1h1.8c.5 0 1.8-.8 4-2.5c.8-.5 1.8-1.3 3.2-2.5c0-2.4-.1-4.5-.2-6.2c-.2-1.6-.5-3.4-.9-5.2c-.1-.5-.6-2.6-1.6-6.5l-1.8-1.1c.5-2.1 .9-3.6 1.2-4.5c.3-.9 .9-2.3 1.7-4.3Z" class="g2_82"/>
<path d="M360.5 336.6l5.6 3.1l-3.1 5.7l-4.4-2.2l-2.5 4.9l-5.5-3.1l3.3-6l4.3 2.3Zm-154.5 0l5.5 3.1l-3.1 5.7l-4.4-2.2l-2.5 4.9l-5.4-3.1l3.3-6l4.2 2.3Zm-36.3 0l5.5 3.1l-3.1 5.7l-4.4-2.2l-2.5 4.9l-5.4-3.1l3.3-6l4.2 2.3Zm94.7-15.1c-.6 0-1.1 .3-1.5 .7c-.3 .5-.5 1.1-.5 1.6c0 .8 .4 1.3 1.2 1.8c.7 .5 1.8 .7 3.1 .7h1.1c-.6-3.2-1.7-4.8-3.4-4.8Zm-30.7-1.1c-1.3 0-2.8 .4-4.5 1.3c-1.6 .8-4 2.4-7.1 4.6h7.8c6.6 0 9.8-1 9.8-3c0-.7-.7-1.4-2.2-2c-1.4-.6-2.7-.9-3.8-.9Zm-47.3-3.8c-.4 0-.8 .2-1.1 .4c-.3 .3-.4 .6-.4 .9c0 .9 .6 1.7 1.9 2.5c1.3 .8 2.8 1.4 4.6 1.7c-.7-1.8-1.5-3.1-2.4-4c-.9-1-1.8-1.5-2.6-1.5Zm194-8.3c2.2 0 4.3 .7 6.4 2.2c1.8 1.3 3.2 3 4 4.9l-1.2 1c-1.6-.5-2.9-.9-3.8-1.1c-.9-.2-2.1-.3-3.4-.3c-2.5 0-4.6 .2-6.4 .6c-2.3 .5-3.4 1.2-3.4 2.2c0 1.3 2.7 3.6 8.2 6.8l15.2-4.4l-3.3 8.5c-5.4 1.6-9.8 2.9-13.3 3.8c-3 .8-5.6 1.3-7.7 1.6c-1.5 .2-3.1 .3-4.6 .3H342.3v.7c0 1.2-.7 2.8-2.1 4.8c-1.4 2-3 3.8-4.9 5.2c-2 1.7-3.8 2.5-5.3 2.5c-1.7 0-3.6-.5-5.6-1.5c-1.8-.9-4.5-2.6-8.2-5.1l1.2-1.9c1.8 1.2 3.3 2 4.4 2.4c1.1 .4 2.2 .6 3.5 .6c1.4 0 2.7-.4 4.1-1.1c1.4-.8 3.3-2.2 5.6-4.3c3.3-3 5-5.2 5-6.8c0-.8-.3-1.9-1-3.2c-.7-1.4-1.6-2.7-2.6-3.6l1.7-8.1c1.3 1.4 2.3 3 3.1 4.8c.7 1.8 1.1 3.9 1.1 6.2v.3h21.3c-.2-1.3-.6-2.5-1.2-3.4c-.3-.5-1-1.4-2.1-2.7l2.4-7.1c1.5 1.7 2.5 3.5 3 5.3c.5 1.6 .8 3.9 .8 6.9l.1 1h1c.6 0 1 0 1.3 0c.6-.1 1.2-.1 1.8-.2c-1-1.5-1.7-2.7-2-3.6c-.4-.9-.6-2-.6-3.1c0-3 1.3-5.6 3.7-7.8c2.5-2.2 5.4-3.3 8.6-3.3Zm-148.1-9.6l6.9 3.7l-3.5 6.7l-7-3.7Zm60.9-.5l1.8 10.6c.7 4 1.1 7.5 1.4 10.4c.2 2.3 .3 4.5 .3 6.6c0 1.7-.3 3.3-.7 4.8c-.4 1.4-1.2 3.4-2.4 5.9l-1.8-.7c.5-2.6 .8-4.6 .8-6.2c0-1.2-.2-3-.4-5.4c-.1-2.3-.4-4.6-.7-6.9c-.3-2.3-.8-5.1-1.5-8.2c-.2-1.2-.3-1.9-.3-2.3c0-.7 .3-1.7 .9-3.2c.6-1.5 1.5-3.3 2.6-5.4Zm-13.8-2.3l1.4 .7c0 .1-.1 .4-.1 1c0 .6 .4 1.2 1.2 1.9c.8 .5 1.9 1.1 3.5 1.8c-.1 1.3-.4 2.5-.8 3.7c-.3 1.2-.7 2.3-1.1 3.3l-1.1-.4l3.2 18.4v8.1H271.2l-.1 .5c-.5 2.6-1.9 5.1-4.1 7.6c-2.9 3.3-5.7 5-8.6 5c-1.6 0-3.4-.5-5.4-1.6c-1.9-1-4.9-3.1-9-6.2l1.3-1.7c2.1 1.4 3.9 2.4 5.2 2.8c1.2 .4 2.5 .6 3.9 .6c1.9 0 3.8-.5 5.7-1.6c2.2-1.3 4.5-3.3 6.9-6.1c-.8 .1-1.5 .1-2.1 .1c-1.9 0-3.5-.6-4.7-1.9c-1.1-1.2-1.7-3-1.7-5.2c0-3 .7-5.9 2.1-8.6c1.4-3 3.1-4.5 5.1-4.5c1.5 0 2.9 1.1 4 3.2c1.1 2.2 1.7 4.8 1.7 7.9v1.6h10.7l-3.6-20.2l-2-1.3c0-1.2 .2-2.3 .6-3.5c.5-1.5 1.2-3.3 2.3-5.4Zm-93.8-.3l6.9 3.7l-3.6 6.7l-6.9-3.7Zm191.3-1.3l7 3.7l-3.6 6.7l-7-3.6Zm-157.5-.8l1.4 .6c0 .1-.1 .4-.1 .8c0 .7 1 1.5 2.9 2.4c.7 .4 1.7 .8 3 1.3c-.2 1.5-.5 3-1 4.3c-.2 .7-.6 1.7-1.2 3.2l-1.1-.4c.7 2.8 1.1 4.9 1.3 6.3c.2 1.3 .3 2.5 .3 3.5v.4c0 .6 0 1 0 1.3c-.1 .4-.2 .9-.3 1.6c1-.8 2.1-1.5 3.1-2.3c1.6-1.1 3.1-2 4.4-2.7c1.6-1 2.9-1.4 3.8-1.4c2.3 0 4.2 .6 5.6 1.8c1.6 1.4 2.4 3.4 2.4 5.9v14.3H149.3v-8.1h23.4c-.2-1.3-.6-2.5-1.2-3.4c-.3-.5-1-1.4-2.1-2.7l2.4-7.1c1.5 1.7 2.5 3.5 3.1 5.3c.5 1.6 .7 3.9 .8 6.9v1h3.2c.9 0 1.8 0 2.6 .1c2.2 .3 4.7 .5 7.5 .8c-3-.6-5-1.5-6.2-2.6c-1.2-1-1.8-2.6-1.8-4.7c0-3.1 .7-5.9 2.1-8.3c1.5-2.5 3-3.7 4.8-3.7c2 0 3.8 1.7 5.3 5.2c1.5 3.4 2.2 7.6 2.2 12.5v.7H209c-.2-1.3-.6-2.5-1.2-3.4c-.3-.5-1-1.4-2.1-2.7l2.4-7.1c1.5 1.7 2.5 3.5 3.1 5.3c.5 1.6 .7 3.9 .8 6.9v1h1.8c.5 0 1.8-.8 4-2.5c.8-.5 1.8-1.3 3.2-2.5c0-2.4-.1-4.5-.2-6.2c-.2-1.6-.5-3.4-.9-5.2c-.1-.5-.6-2.6-1.6-6.5l-1.8-1.1c.5-2.1 .9-3.6 1.2-4.5c.3-.9 .9-2.3 1.7-4.3Z" class="g1_82"/>
<path fill-rule="evenodd" d="M139.3 314c-.7 .3-1.2 .5-1.5 .7c-1.1 .6-2 1.1-2.6 1.6c-.5 .4-.9 .8-1.2 1.1c-.4 .5-.6 .8-.6 1c0 .3 .3 .5 1 .7c.7 .1 1.4 .2 2.1 .2c.4 0 .9-.1 1.3-.4c.5-.2 1.2-.7 2.1-1.3Zm1.6-13.2l2.9 18.6c.5 2.9 1.1 4.9 1.8 5.9c.5 .7 1.1 1 2 1h3.9v8.1h-3.9c-.7 0-1.4-.1-2-.4c-1.2-.6-2.1-1.6-2.9-3.2c-1.1-2.1-1.8-5-2.1-8.6c-1.4 1.6-2.4 2.8-3.2 3.5c-1.1 1-2 1.5-2.7 1.5c-.4 0-.9 0-1.4-.1l-3.7-.8c-1.5-.3-2.5-.5-2.8-.6c-.4-.2-.6-.4-.6-.8c0-.5 .7-2.2 2.1-5.1c1.4-2.8 2.4-4.6 3-5.3c.5-.5 1.4-1.2 2.6-2.1c.8-.5 1.9-1.1 3.3-1.9l1.5-1c0-.2-.1-.5-.1-.8c0-.3 0-.6 0-.8c0-.8 .1-1.7 .5-2.9c.3-1.1 1-2.5 1.8-4.2Zm-1.7-10.9l5.4 2.7l-3.3 5.6l-4.2-2.4l-2.4 4.7l-5.6-3l3.1-5.3l4.5 2.2Z" class="g2_82"/>
<path d="M139.3 314c-.7 .3-1.2 .5-1.5 .7c-1.1 .6-2 1.1-2.6 1.6c-.5 .4-.9 .8-1.2 1.1c-.4 .5-.6 .8-.6 1c0 .3 .3 .5 1 .7c.7 .1 1.4 .2 2.1 .2c.4 0 .9-.1 1.3-.4c.5-.2 1.2-.7 2.1-1.3Zm1.6-13.2l2.9 18.6c.5 2.9 1.1 4.9 1.8 5.9c.5 .7 1.1 1 2 1h3.9v8.1h-3.9c-.7 0-1.4-.1-2-.4c-1.2-.6-2.1-1.6-2.9-3.2c-1.1-2.1-1.8-5-2.1-8.6c-1.4 1.6-2.4 2.8-3.2 3.5c-1.1 1-2 1.5-2.7 1.5c-.4 0-.9 0-1.4-.1l-3.7-.8c-1.5-.3-2.5-.5-2.8-.6c-.4-.2-.6-.4-.6-.8c0-.5 .7-2.2 2.1-5.1c1.4-2.8 2.4-4.6 3-5.3c.5-.5 1.4-1.2 2.6-2.1c.8-.5 1.9-1.1 3.3-1.9l1.5-1c0-.2-.1-.5-.1-.8c0-.3 0-.6 0-.8c0-.8 .1-1.7 .5-2.9c.3-1.1 1-2.5 1.8-4.2Zm-1.7-10.9l5.4 2.7l-3.3 5.6l-4.2-2.4l-2.4 4.7l-5.6-3l3.1-5.3l4.5 2.2Z" class="g1_82"/>
<path fill-rule="evenodd" d="M66.8 349.8l3.7 2.4l-2.9 3.4l-3.2-2l-2.3 2.5L58.4 354l2.8-3.6l3.2 2.1Zm33.2-38c-.6 0-1.2 .3-1.7 .9c-.4 .5-.7 1.1-.7 1.8c0 .5 .2 .9 .6 1.2c.4 .3 .8 .4 1.4 .4c.5 0 .9-.1 1.4-.4c.5-.2 1-.7 1.7-1.3c-.5-1-1-1.6-1.4-2c-.4-.4-.9-.6-1.3-.6Zm.5-7.5c2.1 0 4 1.8 5.9 5.4c1.8 3.7 2.8 7.5 2.8 11.6v13.1H79.8c-.9 0-1.5 0-1.9 .1c-.4 0-.6 .1-.6 .4c.6 .3 1.1 .5 1.7 .7c.5 .1 .8 .3 1 .5c.1 .2 .2 .5 .2 1c0 1.4-.4 3.1-1.2 5c-.8 2-1.6 3.2-2.4 3.7c-.7 .6-2.9 1.3-6.5 2.1c-3.7 .8-6.8 1.2-9.4 1.2c-3.7 0-6.8-.8-9.1-2.3c-2.3-1.6-3.4-3.6-3.4-6.1c0-2.4 .5-4.7 1.5-6.9c1.2-2.7 3.5-6.1 6.8-10.1l1.8 1.2c-2.1 2.5-3.5 4.6-4.3 6.2c-.8 1.6-1.2 3.1-1.2 4.7c0 2.1 .8 3.7 2.6 4.7c1.8 1 4.5 1.5 8.2 1.5c1.9 0 4.5-.3 7.9-1c3.4-.7 5.1-1.3 5.1-1.8c0-.3-.7-.5-2-.7c-1.3-.2-2.7-.3-4.2-.3c-2.3 0-3.4-.5-3.4-1.5c0-.4 .2-1.3 .8-2.4c.3-.8 .7-1.7 1.1-2.5c.8-1.6 2.2-2.9 4.2-4c2.1-1 4.3-1.5 6.6-1.5h26.7c0-1.7-.1-2.9-.2-3.7c-.1-1.1-.5-2.1-1-2.9c-.6 1.2-1.5 2.1-2.5 2.8c-1.1 .7-2.2 1-3.5 1c-1.5 0-2.9-.5-4-1.6c-1.1-1.1-1.6-2.4-1.6-4c0-2.3 .7-5.1 2.1-8.3c1.6-3.5 3.2-5.3 4.8-5.3Zm-2.6-13l6.9 3.7l-3.5 6.7l-7-3.7Z" class="g0_82"/>
<path d="M66.8 349.8l3.7 2.4l-2.9 3.4l-3.2-2l-2.3 2.5L58.4 354l2.8-3.6l3.2 2.1Zm33.2-38c-.6 0-1.2 .3-1.7 .9c-.4 .5-.7 1.1-.7 1.8c0 .5 .2 .9 .6 1.2c.4 .3 .8 .4 1.4 .4c.5 0 .9-.1 1.4-.4c.5-.2 1-.7 1.7-1.3c-.5-1-1-1.6-1.4-2c-.4-.4-.9-.6-1.3-.6Zm.5-7.5c2.1 0 4 1.8 5.9 5.4c1.8 3.7 2.8 7.5 2.8 11.6v13.1H79.8c-.9 0-1.5 0-1.9 .1c-.4 0-.6 .1-.6 .4c.6 .3 1.1 .5 1.7 .7c.5 .1 .8 .3 1 .5c.1 .2 .2 .5 .2 1c0 1.4-.4 3.1-1.2 5c-.8 2-1.6 3.2-2.4 3.7c-.7 .6-2.9 1.3-6.5 2.1c-3.7 .8-6.8 1.2-9.4 1.2c-3.7 0-6.8-.8-9.1-2.3c-2.3-1.6-3.4-3.6-3.4-6.1c0-2.4 .5-4.7 1.5-6.9c1.2-2.7 3.5-6.1 6.8-10.1l1.8 1.2c-2.1 2.5-3.5 4.6-4.3 6.2c-.8 1.6-1.2 3.1-1.2 4.7c0 2.1 .8 3.7 2.6 4.7c1.8 1 4.5 1.5 8.2 1.5c1.9 0 4.5-.3 7.9-1c3.4-.7 5.1-1.3 5.1-1.8c0-.3-.7-.5-2-.7c-1.3-.2-2.7-.3-4.2-.3c-2.3 0-3.4-.5-3.4-1.5c0-.4 .2-1.3 .8-2.4c.3-.8 .7-1.7 1.1-2.5c.8-1.6 2.2-2.9 4.2-4c2.1-1 4.3-1.5 6.6-1.5h26.7c0-1.7-.1-2.9-.2-3.7c-.1-1.1-.5-2.1-1-2.9c-.6 1.2-1.5 2.1-2.5 2.8c-1.1 .7-2.2 1-3.5 1c-1.5 0-2.9-.5-4-1.6c-1.1-1.1-1.6-2.4-1.6-4c0-2.3 .7-5.1 2.1-8.3c1.6-3.5 3.2-5.3 4.8-5.3Zm-2.6-13l6.9 3.7l-3.5 6.7l-7-3.7Z" class="g1_82"/>
<path fill-rule="evenodd" d="M1375.8 408.3l5.6 3.1l-3.1 5.7l-4.4-2.2l-2.5 4.9l-5.5-3.1l3.3-6.1l4.3 2.4Zm-64.2-9.2c1.1 0 1.9 .3 2.6 1.1c.7 .7 1 1.6 1 2.6c0 1-.3 1.9-1.1 2.6c-.7 .7-1.6 1.1-2.6 1.1c-1 0-1.8-.4-2.5-1.1c-.7-.7-1.1-1.6-1.1-2.6c0-1 .4-1.9 1.1-2.6c.7-.8 1.6-1.1 2.6-1.1Zm41.5-13.4c-.6 .3-1.1 .5-1.5 .7c-1.1 .6-1.9 1.1-2.6 1.6c-.5 .4-.9 .8-1.2 1.1c-.4 .5-.6 .8-.6 1c0 .3 .4 .5 1.1 .7c.7 .1 1.4 .2 2 .2c.5 0 .9-.1 1.4-.4c.5-.2 1.1-.7 2-1.3Zm-41-14.3c2.4 0 4.4 .7 6.1 2.1c1.6 1.3 2.5 3.1 2.5 5.3c0 1.2-.4 2.3-1.1 3.3c-.8 1-1.9 1.5-3.1 1.5c-1 0-1.9-.3-2.5-1c-.7-.6-1-1.4-1-2.2c0-1.4 .6-2.4 1.6-3.1c1.1-.7 1.7-1.2 1.7-1.7c0-.6-.3-1.2-1-1.6c-.6-.4-1.4-.6-2.5-.6c-1.3 0-2.3 .3-3.2 1.1c-.8 .7-1.2 1.6-1.2 2.6c0 1 .4 2.2 1.3 3.8c1.2 2.3 2 3.7 2.3 4.4c.8 2.1 1.2 4.4 1.2 6.8c0 1.3-.1 2.8-.3 4.4h-1.8c0-.4 0-.7 .1-.9l.1-1.5c0-1.1-.7-2.3-2.2-3.6c-2.5-2.3-3.9-3.5-4.1-3.8c-1.5-1.8-2.2-3.8-2.2-6c0-2.7 .8-4.9 2.6-6.6c1.8-1.8 4-2.7 6.7-2.7Zm97-.7l7 3.7l-3.6 6.6l-7-3.6Zm40.8-.8l1.7 10.6c.7 4 1.2 7.5 1.4 10.4c.2 2.3 .3 4.4 .3 6.5c0 1.8-.2 3.4-.6 4.9c-.4 1.4-1.2 3.4-2.4 5.9l-1.8-.8c.5-2.5 .7-4.6 .7-6.2c0-1.2-.1-2.9-.3-5.3c-.2-2.3-.4-4.7-.7-6.9c-.3-2.4-.8-5.1-1.5-8.3c-.2-1.1-.4-1.8-.4-2.3c0-.6 .4-1.6 1-3.1c.6-1.5 1.4-3.3 2.6-5.4Zm-60-2.3l1.3 .7c0 .1 0 .4-.1 .9c0 .7 .4 1.3 1.3 1.9c.7 .6 1.9 1.2 3.5 1.9c-.2 1.3-.5 2.5-.8 3.7c-.4 1.2-.7 2.3-1.2 3.3l-1.1-.5l3.3 18.5h19.1c-2.4-2.5-4.6-4.3-6.7-5.4c-1.8-.9-3.6-1.4-5.3-1.4c-.5 0-1 0-1.4 0c-.4 .1-1.1 .2-1.9 .4c1.1-2.5 2.3-4.4 3.7-5.6c1.3-1.2 2.8-1.7 4.6-1.7c1.3 0 2.5 .3 3.7 .9c1.2 .6 2.6 1.7 4.1 3.1c1.2 1.1 2.9 2.8 5.1 5.2c1.5 1.7 2.6 2.7 3.4 3.2c.8 .5 2 1 3.5 1.3h10.7l-3.6-20.2l-1.9-1.3c0-1.2 .2-2.3 .5-3.5c.5-1.6 1.3-3.4 2.4-5.4l1.3 .7c0 .1 0 .4-.1 .9c0 .7 .4 1.3 1.3 1.9c.7 .6 1.9 1.2 3.5 1.9c-.2 1.3-.5 2.5-.8 3.7c-.4 1.2-.7 2.3-1.2 3.3l-1.1-.5l3.3 18.5v8.1h-80.9c-.7 0-1.4-.1-2-.4c-1.1-.6-2.1-1.7-2.9-3.2c-1-2.1-1.7-5-2.1-8.6c-1.3 1.6-2.4 2.8-3.1 3.5c-1.1 1-2 1.5-2.8 1.5c-.3 0-.8 0-1.4-.1l-3.6-.8c-1.6-.3-2.5-.5-2.9-.7c-.3-.1-.5-.4-.5-.7c0-.5 .7-2.2 2-5.1c1.4-2.8 2.4-4.6 3-5.3c.5-.5 1.4-1.2 2.7-2.1c.8-.5 1.8-1.1 3.2-2l1.6-.9c-.1-.3-.1-.5-.1-.8c-.1-.3-.1-.6-.1-.9c0-.7 .2-1.7 .5-2.8c.4-1.1 1-2.6 1.9-4.2l2.9 18.5c.4 3 1 5 1.7 6c.5 .7 1.2 1 2 1h17.5c-.2-1.4-.6-2.5-1.2-3.4c-.3-.5-1-1.4-2.1-2.7l2.4-7.1c1.5 1.7 2.5 3.5 3 5.3c.5 1.6 .8 3.9 .8 6.9l.1 1h10.6l-3.6-20.2l-1.9-1.3c0-1.2 .2-2.3 .5-3.5c.5-1.6 1.3-3.4 2.4-5.4Zm-36.8-6.1l5.3 2.8l-3.2 5.6l-4.3-2.4l-2.4 4.7l-5.5-3.1l3.1-5.2l4.4 2.2Z" class="g0_82"/>
<path d="M1375.8 408.3l5.6 3.1l-3.1 5.7l-4.4-2.2l-2.5 4.9l-5.5-3.1l3.3-6.1l4.3 2.4Zm-64.2-9.2c1.1 0 1.9 .3 2.6 1.1c.7 .7 1 1.6 1 2.6c0 1-.3 1.9-1.1 2.6c-.7 .7-1.6 1.1-2.6 1.1c-1 0-1.8-.4-2.5-1.1c-.7-.7-1.1-1.6-1.1-2.6c0-1 .4-1.9 1.1-2.6c.7-.8 1.6-1.1 2.6-1.1Zm41.5-13.4c-.6 .3-1.1 .5-1.5 .7c-1.1 .6-1.9 1.1-2.6 1.6c-.5 .4-.9 .8-1.2 1.1c-.4 .5-.6 .8-.6 1c0 .3 .4 .5 1.1 .7c.7 .1 1.4 .2 2 .2c.5 0 .9-.1 1.4-.4c.5-.2 1.1-.7 2-1.3Zm-41-14.3c2.4 0 4.4 .7 6.1 2.1c1.6 1.3 2.5 3.1 2.5 5.3c0 1.2-.4 2.3-1.1 3.3c-.8 1-1.9 1.5-3.1 1.5c-1 0-1.9-.3-2.5-1c-.7-.6-1-1.4-1-2.2c0-1.4 .6-2.4 1.6-3.1c1.1-.7 1.7-1.2 1.7-1.7c0-.6-.3-1.2-1-1.6c-.6-.4-1.4-.6-2.5-.6c-1.3 0-2.3 .3-3.2 1.1c-.8 .7-1.2 1.6-1.2 2.6c0 1 .4 2.2 1.3 3.8c1.2 2.3 2 3.7 2.3 4.4c.8 2.1 1.2 4.4 1.2 6.8c0 1.3-.1 2.8-.3 4.4h-1.8c0-.4 0-.7 .1-.9l.1-1.5c0-1.1-.7-2.3-2.2-3.6c-2.5-2.3-3.9-3.5-4.1-3.8c-1.5-1.8-2.2-3.8-2.2-6c0-2.7 .8-4.9 2.6-6.6c1.8-1.8 4-2.7 6.7-2.7Zm97-.7l7 3.7l-3.6 6.6l-7-3.6Zm40.8-.8l1.7 10.6c.7 4 1.2 7.5 1.4 10.4c.2 2.3 .3 4.4 .3 6.5c0 1.8-.2 3.4-.6 4.9c-.4 1.4-1.2 3.4-2.4 5.9l-1.8-.8c.5-2.5 .7-4.6 .7-6.2c0-1.2-.1-2.9-.3-5.3c-.2-2.3-.4-4.7-.7-6.9c-.3-2.4-.8-5.1-1.5-8.3c-.2-1.1-.4-1.8-.4-2.3c0-.6 .4-1.6 1-3.1c.6-1.5 1.4-3.3 2.6-5.4Zm-60-2.3l1.3 .7c0 .1 0 .4-.1 .9c0 .7 .4 1.3 1.3 1.9c.7 .6 1.9 1.2 3.5 1.9c-.2 1.3-.5 2.5-.8 3.7c-.4 1.2-.7 2.3-1.2 3.3l-1.1-.5l3.3 18.5h19.1c-2.4-2.5-4.6-4.3-6.7-5.4c-1.8-.9-3.6-1.4-5.3-1.4c-.5 0-1 0-1.4 0c-.4 .1-1.1 .2-1.9 .4c1.1-2.5 2.3-4.4 3.7-5.6c1.3-1.2 2.8-1.7 4.6-1.7c1.3 0 2.5 .3 3.7 .9c1.2 .6 2.6 1.7 4.1 3.1c1.2 1.1 2.9 2.8 5.1 5.2c1.5 1.7 2.6 2.7 3.4 3.2c.8 .5 2 1 3.5 1.3h10.7l-3.6-20.2l-1.9-1.3c0-1.2 .2-2.3 .5-3.5c.5-1.6 1.3-3.4 2.4-5.4l1.3 .7c0 .1 0 .4-.1 .9c0 .7 .4 1.3 1.3 1.9c.7 .6 1.9 1.2 3.5 1.9c-.2 1.3-.5 2.5-.8 3.7c-.4 1.2-.7 2.3-1.2 3.3l-1.1-.5l3.3 18.5v8.1h-80.9c-.7 0-1.4-.1-2-.4c-1.1-.6-2.1-1.7-2.9-3.2c-1-2.1-1.7-5-2.1-8.6c-1.3 1.6-2.4 2.8-3.1 3.5c-1.1 1-2 1.5-2.8 1.5c-.3 0-.8 0-1.4-.1l-3.6-.8c-1.6-.3-2.5-.5-2.9-.7c-.3-.1-.5-.4-.5-.7c0-.5 .7-2.2 2-5.1c1.4-2.8 2.4-4.6 3-5.3c.5-.5 1.4-1.2 2.7-2.1c.8-.5 1.8-1.1 3.2-2l1.6-.9c-.1-.3-.1-.5-.1-.8c-.1-.3-.1-.6-.1-.9c0-.7 .2-1.7 .5-2.8c.4-1.1 1-2.6 1.9-4.2l2.9 18.5c.4 3 1 5 1.7 6c.5 .7 1.2 1 2 1h17.5c-.2-1.4-.6-2.5-1.2-3.4c-.3-.5-1-1.4-2.1-2.7l2.4-7.1c1.5 1.7 2.5 3.5 3 5.3c.5 1.6 .8 3.9 .8 6.9l.1 1h10.6l-3.6-20.2l-1.9-1.3c0-1.2 .2-2.3 .5-3.5c.5-1.6 1.3-3.4 2.4-5.4Zm-36.8-6.1l5.3 2.8l-3.2 5.6l-4.3-2.4l-2.4 4.7l-5.5-3.1l3.1-5.2l4.4 2.2Z" class="g1_82"/>
<image clip-path="url(#c1_82)" preserveAspectRatio="none" x="1344" y="457" width="108" height="72" href="img/2.jpg"/>
<image clip-path="url(#c2_82)" preserveAspectRatio="none" x="1347" y="550" width="102" height="71" href="img/3.jpg"/>
<image clip-path="url(#c3_82)" preserveAspectRatio="none" x="1347" y="642" width="102" height="74" href="img/4.jpg"/>
<image clip-path="url(#c4_82)" preserveAspectRatio="none" x="1353" y="745" width="96" height="80" href="img/5.jpg"/>
</svg>