<svg viewBox="0 0 1466 825" version="1.1" xmlns="http://www.w3.org/2000/svg">
<defs>
<clipPath id="c0_19"><path d="M-.2 825.3V-.2H1467V825.3Z"/></clipPath>
<clipPath id="c1_19"><path d="M1346.3 717.2V644.5h108v72.7Z"/></clipPath>
<clipPath id="c2_19"><path d="M1356.3 810.8V739.2h103v71.6Z"/></clipPath>
<clipPath id="c3_19"><path d="M497.4 717.2v-81h103v81Z"/></clipPath>
<clipPath id="c4_19"><path d="M504.2 818.9V738.3h96.2v80.6Z"/></clipPath>
<clipPath id="c5_19"><path d="M124 636.9v-272H1325.1v272Z"/></clipPath>
<style>
.g0_19{fill:#F00;}
.g1_19{fill:none;stroke:#000;stroke-width:1.466;stroke-linejoin:round;}
.g2_19{fill:#606;}
</style>
</defs>
<image clip-path="url(#c0_19)" preserveAspectRatio="none" x="0" y="-7" width="1467" height="840" href="img/1.jpg"/>
<path fill-rule="evenodd" d="M1345.6 339.1l4.2 2.1l-2 3.7l-4.1-2.1l-2 3.5l-4.1-2.2l2-3.7l4 2.1ZM1447 316c-.7 0-1.3 .8-1.8 2.4c.9 .4 1.7 .6 2.1 .8c1.5 .5 2.3 .8 2.5 .8c.4 0 .6-.1 .6-.4c0-.4-.4-1-1.2-2c-.8-1.1-1.6-1.6-2.2-1.6Zm-93.5-5.7c1.1 0 1.9 .4 2.5 1.2c.6 .8 .9 1.8 .9 3.2c0 1-.1 1.8-.3 2.4c-.2 .7-.6 1.5-1.2 2.6c-.5-1.3-.9-2.1-1.3-2.5c-.3-.4-.8-.6-1.4-.6c-1 0-2.3 .6-4 1.7c-1.7 1.1-2.5 2-2.5 2.8c0 .3 .3 .6 1 .8c.5 .1 1.2 .2 2.3 .2c.2 0 .5 0 .7 0c.3 0 .6-.1 .8-.1c2 0 3.3 .2 3.9 .6c.6 .4 .9 1 .9 2c0 1.9-.4 3.8-1.1 5.6c-.9 2.2-2.2 3.8-3.9 4.7c-2.1 1.2-4.3 2.2-6.6 2.9c-2.3 .8-4.5 1.1-6.5 1.1c-5.5 0-8.3-2.5-8.3-7.4c0-2.6 .3-4.8 .9-6.6c.7-2 2.2-4.8 4.4-8.3l1.3 .8c-1.3 2.3-2.3 4.3-3 6c-.7 1.8-1 3.3-1 4.6c0 3.4 1.9 5.1 5.7 5.1c1.5 0 2.8-.2 4.1-.4c1.3-.3 2.6-.7 3.9-1.1c.9-.3 1.9-.7 3-1.2c1.7-.8 2.7-1.2 2.8-1.3c.8-.4 1.2-.8 1.2-1.1c0-.2-.4-.3-1.3-.4c-.9 0-1.5 0-1.8 0c-2.8 0-4.6-.4-5.6-1.2c-.7-.6-1.1-1.8-1.1-3.6c0-.8 .3-1.8 .8-3.1c.5-1.2 1.2-2.5 2.1-3.7c1.3-1.9 2.6-3.3 3.9-4.3c1.3-1 2.6-1.4 3.8-1.4Zm69.8-15.1c1.1 1.4 1.8 2.8 2.2 4.2c.5 1.6 .7 3.7 .7 6.2v5.3c0 3.8 .3 6.4 .8 7.8c.4 1.2 1 1.8 1.9 1.8h7.1c1.6 0 2.9-.2 3.8-.6c1.3-.5 2.1-1.4 2.6-2.6c1-2.3 2.3-4.2 3.9-5.6c1.4-1.3 2.6-2 3.6-2c.9 0 2 1.4 3.4 4.1c1.4 3 2.1 5.6 2.1 8.1v5.8c-1.9 0-4.1-.3-6.6-1.1c-2.3-.6-4.2-1.4-6-2.2c-1 1.5-2.3 2.5-3.8 3c-.7 .3-1.7 .4-3 .4h-7.1c-2.1 0-3.6-.9-4.6-2.6c-1-1.9-1.5-5.1-1.5-9.6V308c0-1.8-.3-3.1-.8-4.1c-.2-.5-.7-1.1-1.6-2Zm-24.1 0l1.6 9.5c.6 3.6 1.1 6.7 1.3 9.4c.2 2 .2 4 .2 5.9c0 1.6-.1 3-.5 4.3c-.4 1.3-1.1 3.1-2.2 5.3l-1.6-.6c.4-2.3 .6-4.2 .6-5.6c0-1.1 0-2.7-.2-4.8c-.2-2.1-.4-4.2-.7-6.3c-.3-2.1-.7-4.5-1.3-7.4c-.2-1-.3-1.7-.3-2c0-.6 .2-1.5 .8-2.9c.6-1.3 1.3-2.9 2.3-4.8Zm-12.3-2.2l1.2 .7c0 .1 0 .4-.1 .9c0 .5 .4 1.1 1.1 1.7c.7 .5 1.7 1 3.2 1.6c-.2 1.2-.4 2.3-.7 3.4c-.3 1.1-.7 2.1-1.1 2.9l-1-.4l3 16.7v7.3h-25.1c-1.2 0-2.1-.3-2.7-.8c-.8-.6-1.2-1.6-1.2-3c0-.8 .1-1.6 .1-2.5c.1-.9 .2-1.8 .4-2.8h1c.2 .6 .5 1 1 1.3c.5 .3 1.1 .5 1.8 .5h9.2c-.4-2.7-1.1-4.8-2.2-6.3c-.8-1.4-2-2.5-3.5-3.4l2-8.4c2.3 1.7 3.9 4 4.9 6.7c.9 2.5 1.4 5.9 1.4 10.1v1.3h9.7l-3.3-18.3l-1.7-1.1c0-1.1 .1-2.1 .5-3.2c.4-1.4 1.1-3 2.1-4.9Zm-18.2-3.9l6.3 3.4l-3.3 6l-6.2-3.3Z" class="g0_19"/>
<path d="M1345.6 339.1l4.2 2.1l-2 3.7l-4.1-2.1l-2 3.5l-4.1-2.2l2-3.7l4 2.1ZM1447 316c-.7 0-1.3 .8-1.8 2.4c.9 .4 1.7 .6 2.1 .8c1.5 .5 2.3 .8 2.5 .8c.4 0 .6-.1 .6-.4c0-.4-.4-1-1.2-2c-.8-1.1-1.6-1.6-2.2-1.6Zm-93.5-5.7c1.1 0 1.9 .4 2.5 1.2c.6 .8 .9 1.8 .9 3.2c0 1-.1 1.8-.3 2.4c-.2 .7-.6 1.5-1.2 2.6c-.5-1.3-.9-2.1-1.3-2.5c-.3-.4-.8-.6-1.4-.6c-1 0-2.3 .6-4 1.7c-1.7 1.1-2.5 2-2.5 2.8c0 .3 .3 .6 1 .8c.5 .1 1.2 .2 2.3 .2c.2 0 .5 0 .7 0c.3 0 .6-.1 .8-.1c2 0 3.3 .2 3.9 .6c.6 .4 .9 1 .9 2c0 1.9-.4 3.8-1.1 5.6c-.9 2.2-2.2 3.8-3.9 4.7c-2.1 1.2-4.3 2.2-6.6 2.9c-2.3 .8-4.5 1.1-6.5 1.1c-5.5 0-8.3-2.5-8.3-7.4c0-2.6 .3-4.8 .9-6.6c.7-2 2.2-4.8 4.4-8.3l1.3 .8c-1.3 2.3-2.3 4.3-3 6c-.7 1.8-1 3.3-1 4.6c0 3.4 1.9 5.1 5.7 5.1c1.5 0 2.8-.2 4.1-.4c1.3-.3 2.6-.7 3.9-1.1c.9-.3 1.9-.7 3-1.2c1.7-.8 2.7-1.2 2.8-1.3c.8-.4 1.2-.8 1.2-1.1c0-.2-.4-.3-1.3-.4c-.9 0-1.5 0-1.8 0c-2.8 0-4.6-.4-5.6-1.2c-.7-.6-1.1-1.8-1.1-3.6c0-.8 .3-1.8 .8-3.1c.5-1.2 1.2-2.5 2.1-3.7c1.3-1.9 2.6-3.3 3.9-4.3c1.3-1 2.6-1.4 3.8-1.4Zm69.8-15.1c1.1 1.4 1.8 2.8 2.2 4.2c.5 1.6 .7 3.7 .7 6.2v5.3c0 3.8 .3 6.4 .8 7.8c.4 1.2 1 1.8 1.9 1.8h7.1c1.6 0 2.9-.2 3.8-.6c1.3-.5 2.1-1.4 2.6-2.6c1-2.3 2.3-4.2 3.9-5.6c1.4-1.3 2.6-2 3.6-2c.9 0 2 1.4 3.4 4.1c1.4 3 2.1 5.6 2.1 8.1v5.8c-1.9 0-4.1-.3-6.6-1.1c-2.3-.6-4.2-1.4-6-2.2c-1 1.5-2.3 2.5-3.8 3c-.7 .3-1.7 .4-3 .4h-7.1c-2.1 0-3.6-.9-4.6-2.6c-1-1.9-1.5-5.1-1.5-9.6V308c0-1.8-.3-3.1-.8-4.1c-.2-.5-.7-1.1-1.6-2Zm-24.1 0l1.6 9.5c.6 3.6 1.1 6.7 1.3 9.4c.2 2 .2 4 .2 5.9c0 1.6-.1 3-.5 4.3c-.4 1.3-1.1 3.1-2.2 5.3l-1.6-.6c.4-2.3 .6-4.2 .6-5.6c0-1.1 0-2.7-.2-4.8c-.2-2.1-.4-4.2-.7-6.3c-.3-2.1-.7-4.5-1.3-7.4c-.2-1-.3-1.7-.3-2c0-.6 .2-1.5 .8-2.9c.6-1.3 1.3-2.9 2.3-4.8Zm-12.3-2.2l1.2 .7c0 .1 0 .4-.1 .9c0 .5 .4 1.1 1.1 1.7c.7 .5 1.7 1 3.2 1.6c-.2 1.2-.4 2.3-.7 3.4c-.3 1.1-.7 2.1-1.1 2.9l-1-.4l3 16.7v7.3h-25.1c-1.2 0-2.1-.3-2.7-.8c-.8-.6-1.2-1.6-1.2-3c0-.8 .1-1.6 .1-2.5c.1-.9 .2-1.8 .4-2.8h1c.2 .6 .5 1 1 1.3c.5 .3 1.1 .5 1.8 .5h9.2c-.4-2.7-1.1-4.8-2.2-6.3c-.8-1.4-2-2.5-3.5-3.4l2-8.4c2.3 1.7 3.9 4 4.9 6.7c.9 2.5 1.4 5.9 1.4 10.1v1.3h9.7l-3.3-18.3l-1.7-1.1c0-1.1 .1-2.1 .5-3.2c.4-1.4 1.1-3 2.1-4.9Zm-18.2-3.9l6.3 3.4l-3.3 6l-6.2-3.3Z" class="g1_19"/>
<path fill-rule="evenodd" d="M1224.2 330l6.3 3.4l-3.3 6l-6.2-3.3Zm38.2-.2l5 2.7l-2.8 5.2l-4-2l-2.2 4.4l-4.9-2.8l2.9-5.5l3.9 2.2Zm38.1-9.2c-.8 .9-1.4 1.5-1.8 1.9c-.4 .3-1.1 .9-2.2 1.6c1.4-.1 2.3-.3 2.9-.4c.6-.2 1.4-.6 2.4-1.1Zm-59.1-12.7c2.5 0 4.4 .5 5.8 1.4c1.5 1 2.2 2.4 2.2 4c0 1-.2 1.8-.6 2.7c-.4 .8-1.1 1.9-2.1 3.4c.2 .3 .6 .6 1 .8c.4 .2 .8 .3 1.2 .3h16.3c-.2-1.3-.6-2.3-1.1-3.1c-.3-.5-.9-1.3-1.9-2.4l2.1-6.4c1.4 1.5 2.3 3.1 2.8 4.7c.5 1.7 .7 4.2 .7 7.5v7h-18.9c-1.4 0-2.6-.3-3.7-.9c-1.1-.6-1.9-1.5-2.6-2.8c-1.2 1.5-2.7 2.5-4.5 3.1c-1.3 .4-2.6 .6-4.1 .6h-15.8v.6c0 1.1-.6 2.5-1.9 4.3c-1.2 1.8-2.7 3.4-4.4 4.7c-1.8 1.5-3.4 2.2-4.8 2.2c-1.5 0-3.2-.4-5-1.3c-1.6-.8-4.1-2.3-7.4-4.6l1.1-1.7c1.6 1.1 2.9 1.8 3.9 2.2c1 .3 2 .5 3.2 .5c1.2 0 2.5-.3 3.7-1c1.2-.7 2.9-2 5.1-3.9c2.9-2.7 4.4-4.7 4.4-6.1c0-.8-.3-1.7-.8-2.9c-.7-1.3-1.5-2.4-2.4-3.3l1.5-7.2c1.2 1.2 2.2 2.7 2.8 4.3c.7 1.6 1 3.5 1 5.6v.3h12.3c-.2-1.3-.6-2.3-1.1-3.1c-.2-.5-.9-1.3-1.9-2.4l2.2-6.4c1.3 1.5 2.3 3.1 2.7 4.7c.5 1.5 .7 3.6 .8 6.3v.9h.8c1.5 0 2.6-.1 3.2-.3c.6-.1 1.4-.5 2.4-1c-.5-1.1-1-1.8-1.4-2.3c-.5-.5-1-.8-1.5-.8c-.2 0-.4 .1-.5 .2c-.2 .1-.4 .4-.6 .8l-1.2-.2c0-3.2 .5-5.6 1.7-6.9c1.1-1.4 2.9-2.1 5.3-2.1Zm61.2-12.9l1.2 .4c0 1.1 .2 1.9 .8 2.2c.4 .3 1.8 .9 4.3 1.6c0 1.3-.2 2.5-.4 3.8c-.1 .6-.4 1.5-.8 2.9l-1.9-.7c0 2.1-.3 4.2-.8 6.3c-.5 2.1-1.3 4.2-2.4 6.2c1 1.8 1.6 2.8 1.7 3.1c.5 .8 .7 1.6 .7 2.2v.9c0 .4-.2 2.3-.4 5.5c-2.1 .9-3.9 1.5-5.5 1.8c-1.6 .3-4 .5-7.2 .5v-8c1.8-.9 3.1-1.7 3.9-2.3c.8-.7 1.8-1.8 3.1-3.3c-2.1-2.6-3.6-4.4-4.5-5.5c-.7-.8-1.7-1.8-2.9-3c-.3 .6-.5 1-.6 1.2c-.2 .2-.3 .3-.4 .3c-.4 0-1.3-.4-2.4-1.1c-1.1-.7-1.9-1.3-2.5-1.8c-.5-.5-1-1.5-1.3-2.9c-.3-1.4-.4-3.2-.4-5.4c0-1 0-1.7 .2-2c.1-.4 .3-.6 .7-.6c.7 0 2.1 1 4.2 3c1.9 1.7 3.5 3.4 4.9 5.1c1.2 1.3 2.2 2.5 3.1 3.8c.8 1 2.1 2.9 3.9 5.6c.8-1.5 1.3-3.5 1.6-5.8c.2-1.5 .3-3.2 .3-5.2c-.7-.3-1.1-.6-1.3-.9c-.3-.2-.4-.6-.4-1.1c0-1.1 .1-2.2 .4-3.3c.2-1.1 .6-2.3 1.1-3.5Z" class="g2_19"/>
<path d="M1224.2 330l6.3 3.4l-3.3 6l-6.2-3.3Zm38.2-.2l5 2.7l-2.8 5.2l-4-2l-2.2 4.4l-4.9-2.8l2.9-5.5l3.9 2.2Zm38.1-9.2c-.8 .9-1.4 1.5-1.8 1.9c-.4 .3-1.1 .9-2.2 1.6c1.4-.1 2.3-.3 2.9-.4c.6-.2 1.4-.6 2.4-1.1Zm-59.1-12.7c2.5 0 4.4 .5 5.8 1.4c1.5 1 2.2 2.4 2.2 4c0 1-.2 1.8-.6 2.7c-.4 .8-1.1 1.9-2.1 3.4c.2 .3 .6 .6 1 .8c.4 .2 .8 .3 1.2 .3h16.3c-.2-1.3-.6-2.3-1.1-3.1c-.3-.5-.9-1.3-1.9-2.4l2.1-6.4c1.4 1.5 2.3 3.1 2.8 4.7c.5 1.7 .7 4.2 .7 7.5v7h-18.9c-1.4 0-2.6-.3-3.7-.9c-1.1-.6-1.9-1.5-2.6-2.8c-1.2 1.5-2.7 2.5-4.5 3.1c-1.3 .4-2.6 .6-4.1 .6h-15.8v.6c0 1.1-.6 2.5-1.9 4.3c-1.2 1.8-2.7 3.4-4.4 4.7c-1.8 1.5-3.4 2.2-4.8 2.2c-1.5 0-3.2-.4-5-1.3c-1.6-.8-4.1-2.3-7.4-4.6l1.1-1.7c1.6 1.1 2.9 1.8 3.9 2.2c1 .3 2 .5 3.2 .5c1.2 0 2.5-.3 3.7-1c1.2-.7 2.9-2 5.1-3.9c2.9-2.7 4.4-4.7 4.4-6.1c0-.8-.3-1.7-.8-2.9c-.7-1.3-1.5-2.4-2.4-3.3l1.5-7.2c1.2 1.2 2.2 2.7 2.8 4.3c.7 1.6 1 3.5 1 5.6v.3h12.3c-.2-1.3-.6-2.3-1.1-3.1c-.2-.5-.9-1.3-1.9-2.4l2.2-6.4c1.3 1.5 2.3 3.1 2.7 4.7c.5 1.5 .7 3.6 .8 6.3v.9h.8c1.5 0 2.6-.1 3.2-.3c.6-.1 1.4-.5 2.4-1c-.5-1.1-1-1.8-1.4-2.3c-.5-.5-1-.8-1.5-.8c-.2 0-.4 .1-.5 .2c-.2 .1-.4 .4-.6 .8l-1.2-.2c0-3.2 .5-5.6 1.7-6.9c1.1-1.4 2.9-2.1 5.3-2.1Zm61.2-12.9l1.2 .4c0 1.1 .2 1.9 .8 2.2c.4 .3 1.8 .9 4.3 1.6c0 1.3-.2 2.5-.4 3.8c-.1 .6-.4 1.5-.8 2.9l-1.9-.7c0 2.1-.3 4.2-.8 6.3c-.5 2.1-1.3 4.2-2.4 6.2c1 1.8 1.6 2.8 1.7 3.1c.5 .8 .7 1.6 .7 2.2v.9c0 .4-.2 2.3-.4 5.5c-2.1 .9-3.9 1.5-5.5 1.8c-1.6 .3-4 .5-7.2 .5v-8c1.8-.9 3.1-1.7 3.9-2.3c.8-.7 1.8-1.8 3.1-3.3c-2.1-2.6-3.6-4.4-4.5-5.5c-.7-.8-1.7-1.8-2.9-3c-.3 .6-.5 1-.6 1.2c-.2 .2-.3 .3-.4 .3c-.4 0-1.3-.4-2.4-1.1c-1.1-.7-1.9-1.3-2.5-1.8c-.5-.5-1-1.5-1.3-2.9c-.3-1.4-.4-3.2-.4-5.4c0-1 0-1.7 .2-2c.1-.4 .3-.6 .7-.6c.7 0 2.1 1 4.2 3c1.9 1.7 3.5 3.4 4.9 5.1c1.2 1.3 2.2 2.5 3.1 3.8c.8 1 2.1 2.9 3.9 5.6c.8-1.5 1.3-3.5 1.6-5.8c.2-1.5 .3-3.2 .3-5.2c-.7-.3-1.1-.6-1.3-.9c-.3-.2-.4-.6-.4-1.1c0-1.1 .1-2.2 .4-3.3c.2-1.1 .6-2.3 1.1-3.5Z" class="g1_19"/>
<path fill-rule="evenodd" d="M953.6 330.3l6.2 3.3l-3.2 6l-6.3-3.2Zm-136.1-.5l4.9 2.7l-2.7 5.2l-4-2l-2.3 4.4l-4.9-2.8l3-5.5l3.8 2.2Zm-42.3-8.4c.9 0 1.7 .4 2.3 1c.7 .7 1 1.5 1 2.4c0 .9-.4 1.7-1 2.3c-.7 .7-1.5 1-2.4 1c-.9 0-1.6-.3-2.3-1c-.6-.6-.9-1.4-.9-2.3c0-.9 .3-1.7 .9-2.4c.7-.6 1.5-1 2.4-1Zm212.2-.8c-.8 .9-1.4 1.5-1.8 1.9c-.4 .3-1.2 .9-2.2 1.6c1.3-.1 2.3-.3 2.9-.4c.6-.2 1.4-.6 2.4-1.1Zm43.7-5.6c-1.1 1.8-1.7 3.3-1.7 4.5c0 .5 .2 1 .7 1.5c.5 .4 1 .6 1.7 .6c.9 0 1.9-.2 3.1-.7c1.2-.4 1.7-.7 1.7-1c0-.4-.6-1.1-1.8-2.2c-1.3-1.1-2.5-2-3.7-2.7Zm-116-5.6c-.5 .2-1 .5-1.3 .6c-1 .5-1.8 1-2.4 1.5c-.4 .3-.8 .7-1.1 1c-.3 .4-.5 .6-.5 .8c0 .3 .3 .5 1 .6c.6 .2 1.2 .3 1.8 .3c.4 0 .8-.2 1.2-.4c.5-.2 1.1-.6 1.9-1.2Zm-118.2 0c-.6 .2-1.1 .5-1.4 .6c-.9 .5-1.7 1-2.3 1.5c-.5 .3-.8 .7-1.1 1c-.4 .4-.5 .6-.5 .8c0 .3 .3 .5 .9 .6c.6 .2 1.2 .3 1.9 .3c.4 0 .8-.2 1.2-.4c.4-.2 1-.6 1.8-1.2Zm234-2.3l2.6 1.6c1.1 .7 2.2 1.4 3.2 2.2c1.5 1.1 2.5 2.2 3.1 3.2c.5 .9 .8 2.2 .8 3.6c0 1.1-.1 2.2-.2 3.3c-.2 1.1-.4 2-.7 2.7c-.5 1.3-1.7 2.5-3.7 3.6c-1.8 .9-3.5 1.4-5.1 1.4c-1.5 0-2.6-.5-3.4-1.4c-.8-1-1.2-2.3-1.2-3.9c0-1.5 .2-2.9 .6-4.3c.4-1.4 1.2-3.2 2.3-5.4l-1-.6c.3-.8 .7-1.8 1.2-3c.6-1.2 1-2.2 1.5-3Zm131-2.9c2 0 3.9 .7 5.7 2c1.6 1.2 2.9 2.7 3.6 4.4l-1.1 1c-1.4-.6-2.5-.9-3.4-1.1c-.8-.1-1.8-.2-3-.2c-2.3 0-4.2 .2-5.8 .5c-2.1 .5-3.1 1.1-3.1 2c0 1.2 2.5 3.2 7.5 6.1l13.6-3.9l-3 7.6c-4.8 1.5-8.8 2.6-12 3.4c-2.7 .7-5 1.2-6.9 1.5c-1.4 .2-2.7 .3-4.1 .3h-.6v.4c-.1 1.7-.3 3.1-.7 4.2c-.4 1.5-1.2 2.7-2.3 3.6c-1.1 .9-2.7 1.7-4.9 2.3c-2.1 .5-4.3 .8-6.5 .8c-4.4 0-7.7-.8-10.1-2.3c-2.3-1.6-3.5-3.9-3.5-6.8c0-2.5 .4-4.8 1.1-6.8c.8-2.3 2.4-5.3 4.8-8.9l1.7 1.1c-1.8 3.1-3 5.3-3.5 6.6c-.6 1.4-.8 2.8-.8 4.2c0 1.9 1 3.4 3 4.6c2 1.2 4.6 1.8 7.9 1.8c3.2 0 5.9-.6 8.1-1.8c2.2-1.3 3.3-2.8 3.3-4.6c0-1.1-.1-2.2-.5-3.3c-.4-1.1-1.2-2.8-2.5-5.2l2.4-7.3c1.2 2.3 2 3.9 2.3 4.8c.4 1.3 .7 3 .8 5v.3h.9c.6 0 .9 0 1.2-.1c.5 0 1.1-.1 1.6-.1c-.9-1.4-1.5-2.4-1.8-3.3c-.3-.8-.5-1.8-.5-2.8c0-2.7 1.1-5 3.3-7c2.2-2 4.8-3 7.8-3Zm-27.6-2.2l6.2 3.3l-3.2 6l-6.3-3.2Zm-53.2-2.7l4.9 2.7l-3 5.5l-3.8-2.2l-2.1 4.3l-5-2.7l2.8-5.3l3.9 2Zm-164.5-1.8l2.6 16.7c.4 2.6 1 4.4 1.6 5.4c.5 .6 1 .9 1.8 .9h15.9c-.2-1.3-.6-2.3-1.1-3.1c-.3-.5-.9-1.3-1.9-2.4l2.1-6.4c1.4 1.5 2.3 3.1 2.8 4.7c.4 1.5 .7 3.6 .7 6.3v.9h17.2c-2.2-2.3-4.2-3.9-6.1-4.9c-1.6-.8-3.2-1.3-4.7-1.3c-.5 0-.9 0-1.3 .1c-.4 0-.9 .1-1.7 .3c1-2.3 2.1-3.9 3.3-5c1.2-1.1 2.6-1.6 4.1-1.6c1.2 0 2.3 .3 3.4 .8c1.1 .6 2.4 1.5 3.7 2.8c1.1 1 2.6 2.6 4.6 4.7c1.3 1.5 2.4 2.5 3.1 2.9c.7 .5 1.7 .9 3.1 1.2v7.3H922.6c-.6 0-1.2-.2-1.8-.4c-1-.5-1.9-1.5-2.6-2.9c-1-1.9-1.6-4.5-1.9-7.8c-1.2 1.5-2.2 2.6-2.8 3.2c-1 .9-1.8 1.4-2.5 1.4c-.4 0-.8-.1-1.3-.2l-3.3-.6c-1.4-.3-2.2-.5-2.6-.6c-.3-.2-.4-.4-.4-.7c0-.5 .6-2 1.8-4.6c1.3-2.5 2.2-4.1 2.7-4.7c.5-.5 1.3-1.2 2.4-1.9c.7-.5 1.7-1.1 2.9-1.8l1.4-.9c0-.2-.1-.5-.1-.7c0-.3 0-.5 0-.8c0-.6 .1-1.5 .5-2.5c.3-1 .8-2.3 1.6-3.8Zm-141-1c2.2 0 4 .6 5.5 1.8c1.5 1.3 2.3 2.9 2.3 4.9c0 1.1-.4 2.1-1 2.9c-.7 1-1.7 1.4-2.8 1.4c-.9 0-1.7-.3-2.3-.9c-.5-.6-.9-1.2-.9-2c0-1.2 .6-2.2 1.5-2.8c1-.6 1.5-1.1 1.5-1.5c0-.6-.3-1.1-.8-1.5c-.6-.3-1.4-.5-2.3-.5c-1.2 0-2.1 .3-2.9 1c-.7 .6-1.1 1.4-1.1 2.4c0 .8 .4 2 1.2 3.3c1.1 2.1 1.8 3.4 2 4.1c.8 1.8 1.2 3.9 1.2 6.1c0 1.1-.1 2.5-.3 3.9h-1.6c0-.3 0-.6 0-.8l.1-1.3c0-1.1-.6-2.1-2-3.3c-2.2-2-3.4-3.2-3.7-3.4c-1.3-1.6-2-3.4-2-5.4c0-2.4 .8-4.4 2.4-6c1.6-1.6 3.6-2.4 6-2.4Zm82.4-.2l5 2.8l-2.8 5.2l-4-2l-2.2 4.3l-4.9-2.7l2.9-5.5l3.8 2.2Zm240-1.1l6.3 3.3l-3.2 6l-6.3-3.2Zm-51.6 0c1 1.4 1.8 2.8 2.2 4.2c.5 1.6 .7 3.7 .7 6.2v5.3c0 3.8 .3 6.4 .8 7.8c.3 1.2 1 1.8 1.8 1.8h5.7c1.9 0 3.4-.6 4.7-1.6c1.6-1.4 2.4-3.5 2.4-6.3l1.8 .3c0 .5-.1 1.2-.1 1.9c0 .8-.1 1.6-.1 2.5c0 .9 .4 1.6 1 2.3c.6 .6 1.3 .9 2.1 .9h3.3c2.2 0 3.8-.3 4.7-.9c1.1-.8 1.7-2.1 1.7-4.2c0-.4 .1-.8 .4-1.1c.2-.2 .5-.5 1-.9l1-.8c.1 .3 .1 .8 .1 1.4c0 .6 0 .9 0 1.1c0 1-.1 2.3-.4 3.9c.7 .4 1.4 .6 2.2 .9c.8 .2 1.7 .4 2.6 .5c0-.6-.2-1.4-.6-2.3c-.5-1-.7-1.7-.7-2c0-.5 .1-.8 .2-1.1c0-.1 .2-.4 .6-.8l2.2-3.1c.5 1.1 .9 2.1 1.1 3.1c.2 .9 .3 2 .3 3.4v2.9h12.3c-.2-1.3-.5-2.3-1-3.1c-.3-.5-.9-1.3-1.9-2.4l2.1-6.4c1.4 1.5 2.3 3.1 2.8 4.7c.5 1.7 .7 4.2 .7 7.5v7h-16.8v-.1h-1c-.8-.1-1.5-.2-2.2-.4c-1.3-.2-2.6-.7-3.9-1.3c-1.1 .7-2 1.2-2.8 1.4c-.8 .3-2 .4-3.7 .4h-4.3c-1.2 0-2.2-.3-2.9-1c-.7-.6-1.3-1.6-1.9-3.1c-1 1.5-2.1 2.6-3.3 3.2c-1 .6-2.3 .9-3.7 .9h-5.7c-2.1 0-3.6-.9-4.5-2.6c-1-1.9-1.6-5.1-1.6-9.6V308c0-1.8-.2-3.1-.7-4.1c-.2-.5-.8-1.1-1.6-2Zm-111.4 0l6.3 3.3l-3.2 6l-6.3-3.2Zm68.4 0l1.6 9.5c.6 3.6 1 6.7 1.3 9.4c.2 2 .2 4 .2 5.9c0 1.6-.2 3-.5 4.3c-.4 1.3-1.1 3.1-2.2 5.3l-1.6-.6c.4-2.3 .6-4.2 .6-5.6c0-1.1-.1-2.7-.2-4.8c-.2-2.1-.4-4.2-.7-6.3c-.3-2.1-.7-4.5-1.3-7.4c-.2-1-.3-1.7-.3-2c0-.6 .2-1.5 .8-2.9c.5-1.3 1.3-2.9 2.3-4.8Zm-120.4 0l1.6 9.5c.6 3.6 1 6.7 1.2 9.4c.2 2 .3 4 .3 5.9c0 1.6-.2 3-.6 4.3c-.4 1.3-1.1 3.1-2.2 5.3l-1.6-.6c.5-2.3 .7-4.2 .7-5.6c0-1.1-.1-2.7-.3-4.8c-.2-2.1-.4-4.2-.7-6.3c-.2-2.1-.7-4.5-1.3-7.4c-.2-1-.3-1.7-.3-2c0-.6 .3-1.5 .8-2.9c.6-1.3 1.4-2.9 2.4-4.8Zm106.5-.2l1.1 .4c0 1.1 .3 1.9 .8 2.2c.4 .3 1.9 .9 4.3 1.6c0 1.3-.1 2.5-.4 3.8c-.1 .6-.3 1.5-.7 2.9l-1.9-.7c0 2.1-.3 4.2-.8 6.3c-.5 2.1-1.3 4.2-2.4 6.2c1 1.8 1.6 2.8 1.7 3.1c.4 .8 .6 1.6 .6 2.2v.9c0 .4-.1 2.3-.4 5.5c-2 .9-3.8 1.5-5.4 1.8c-1.6 .3-4 .5-7.2 .5v-8c1.8-.9 3.1-1.7 3.9-2.3c.8-.7 1.8-1.8 3-3.3c-2-2.6-3.5-4.4-4.4-5.5c-.8-.8-1.8-1.8-2.9-3c-.3 .6-.5 1-.7 1.2c-.1 .2-.2 .3-.4 .3c-.4 0-1.2-.4-2.4-1.1c-1-.7-1.8-1.3-2.4-1.8c-.6-.5-1-1.5-1.3-2.9c-.3-1.4-.4-3.2-.4-5.4c0-1 0-1.7 .1-2c.1-.4 .4-.6 .8-.6c.7 0 2.1 1 4.2 3c1.8 1.7 3.5 3.4 4.9 5.1c1.1 1.3 2.1 2.5 3.1 3.8c.8 1 2.1 2.9 3.8 5.6c.8-1.5 1.4-3.5 1.7-5.8c.2-1.5 .2-3.2 .2-5.2c-.6-.3-1-.6-1.3-.9c-.2-.2-.3-.6-.3-1.1c0-1.1 .1-2.2 .3-3.3c.3-1.1 .7-2.3 1.2-3.5Zm44.9-1.3l4.9 2.7l-3 5.5l-3.8-2.2l-2.1 4.3l-5-2.8l2.8-5.2l3.9 2Zm41.4-.6l5 2.6l-2.7 5.5l-5.1-2.6ZM870.6 293l1.2 .7c0 .1 0 .4-.1 .9c0 .5 .4 1.1 1.2 1.7c.6 .5 1.7 1 3.1 1.6c-.1 1.2-.4 2.3-.7 3.4c-.3 1.1-.7 2.1-1.1 2.9l-.9-.4l2.9 16.7v7.3H844.8c-2.1 0-3.6-.9-4.6-2.6c-1-1.9-1.5-5.1-1.5-9.6V308c0-1.8-.3-3.1-.8-4.1c-.2-.5-.7-1.1-1.6-2l2.9-6.7c1.1 1.4 1.8 2.8 2.2 4.2c.5 1.6 .7 3.7 .7 6.2v5.3c0 3.8 .3 6.4 .8 7.8c.4 1.2 1 1.8 1.9 1.8h15.9c-.2-1.3-.5-2.3-1.1-3.1c-.2-.5-.9-1.3-1.8-2.4l2.1-6.4c1.4 1.5 2.3 3.1 2.8 4.7c.4 1.5 .6 3.6 .7 6.3v.9H873l-3.3-18.3l-1.7-1.1c0-1.1 .2-2.1 .5-3.2c.4-1.4 1.1-3 2.1-4.9Zm-40.5 0l1.2 .7c0 .1 0 .4-.1 .9c0 .5 .4 1.1 1.1 1.7c.7 .5 1.8 1 3.2 1.6c-.2 1.2-.4 2.3-.7 3.4c-.3 1.1-.7 2.1-1.1 2.9l-.9-.4l2.9 16.7v7.3H804.3c-.6 0-1.2-.2-1.7-.4c-1.1-.5-2-1.5-2.7-2.9c-.9-1.9-1.6-4.5-1.8-7.8c-1.3 1.5-2.2 2.6-2.9 3.2c-1 .9-1.8 1.4-2.5 1.4c-.3 0-.7-.1-1.3-.2l-3.2-.6c-1.4-.3-2.3-.5-2.6-.6c-.3-.2-.5-.4-.5-.7c0-.5 .6-2 1.9-4.6c1.2-2.5 2.1-4.1 2.7-4.7c.4-.5 1.2-1.2 2.4-1.9c.6-.5 1.6-1.1 2.9-1.8l1.4-.9c-.1-.2-.1-.5-.1-.7c-.1-.3-.1-.5-.1-.8c0-.6 .2-1.5 .5-2.5c.3-1 .9-2.3 1.7-3.8l2.6 16.7c.4 2.6 .9 4.4 1.6 5.4c.4 .6 1 .9 1.7 .9h15.9c-.2-1.3-.6-2.3-1.1-3.1c-.2-.5-.9-1.3-1.9-2.4l2.2-6.4c1.3 1.5 2.3 3.1 2.7 4.7c.5 1.5 .7 3.6 .8 6.3v.9h9.6l-3.3-18.3l-1.7-1.1c0-1.1 .2-2.1 .5-3.2c.4-1.4 1.1-3 2.1-4.9Zm85-5.4l4.8 2.5l-2.9 5l-3.9-2.1l-2.1 4.2l-5-2.7l2.8-4.8l4 2Zm-118.3 0l4.9 2.5l-3 5l-3.8-2.1l-2.2 4.2l-4.9-2.7l2.7-4.8l4 2Zm179.9-.1c.3 0 .6 .1 .8 .3c.2 .2 .3 .5 .3 .9c0 .3 0 .5-.1 .7c-.1 .2-.3 .6-.5 1c-.9-.5-1.5-.7-1.8-.7c-.4 0-.7 .1-1 .2c-.2 .1-.4 .3-.6 .5c0 .2 .4 .6 1.3 1c.9 .5 1.5 .8 1.9 .8c.2 0 .8-.2 1.9-.4c-.2 .5-.4 .9-.7 1.1c-.2 .2-.5 .4-.9 .5l-5.8 1.8c.3-.6 .6-1.1 .9-1.3c.3-.3 .8-.5 1.5-.7c-.5-.3-.9-.6-1.1-.9c-.2-.3-.4-.5-.4-.8c0-.2 .1-.5 .3-.8c.1-.3 .3-.6 .5-.9c1.2-1.5 2.3-2.3 3.5-2.3Zm71.1 0c.4 0 .6 .1 .8 .3c.3 .2 .4 .5 .4 .9c0 .3-.1 .5-.2 .7c-.1 .2-.2 .5-.5 .9c-.9-.4-1.5-.6-1.8-.6c-.3 0-.6 0-1 .2c-.2 .1-.4 .3-.5 .4c0 .3 .4 .6 1.2 1.1c.9 .5 1.5 .7 1.9 .7c.2 0 .9-.1 1.9-.4c-.2 .6-.4 1-.6 1.2c-.2 .2-.5 .4-1 .5l-5.8 1.8c.4-.6 .7-1.1 1-1.3c.3-.2 .7-.5 1.4-.7c-.5-.3-.9-.6-1.1-.9c-.2-.3-.3-.6-.3-.8c0-.3 .1-.5 .2-.8c.1-.3 .3-.6 .6-.9c1.1-1.6 2.3-2.3 3.4-2.3Z" class="g0_19"/>
<path d="M953.6 330.3l6.2 3.3l-3.2 6l-6.3-3.2Zm-136.1-.5l4.9 2.7l-2.7 5.2l-4-2l-2.3 4.4l-4.9-2.8l3-5.5l3.8 2.2Zm-42.3-8.4c.9 0 1.7 .4 2.3 1c.7 .7 1 1.5 1 2.4c0 .9-.4 1.7-1 2.3c-.7 .7-1.5 1-2.4 1c-.9 0-1.6-.3-2.3-1c-.6-.6-.9-1.4-.9-2.3c0-.9 .3-1.7 .9-2.4c.7-.6 1.5-1 2.4-1Zm212.2-.8c-.8 .9-1.4 1.5-1.8 1.9c-.4 .3-1.2 .9-2.2 1.6c1.3-.1 2.3-.3 2.9-.4c.6-.2 1.4-.6 2.4-1.1Zm43.7-5.6c-1.1 1.8-1.7 3.3-1.7 4.5c0 .5 .2 1 .7 1.5c.5 .4 1 .6 1.7 .6c.9 0 1.9-.2 3.1-.7c1.2-.4 1.7-.7 1.7-1c0-.4-.6-1.1-1.8-2.2c-1.3-1.1-2.5-2-3.7-2.7Zm-116-5.6c-.5 .2-1 .5-1.3 .6c-1 .5-1.8 1-2.4 1.5c-.4 .3-.8 .7-1.1 1c-.3 .4-.5 .6-.5 .8c0 .3 .3 .5 1 .6c.6 .2 1.2 .3 1.8 .3c.4 0 .8-.2 1.2-.4c.5-.2 1.1-.6 1.9-1.2Zm-118.2 0c-.6 .2-1.1 .5-1.4 .6c-.9 .5-1.7 1-2.3 1.5c-.5 .3-.8 .7-1.1 1c-.4 .4-.5 .6-.5 .8c0 .3 .3 .5 .9 .6c.6 .2 1.2 .3 1.9 .3c.4 0 .8-.2 1.2-.4c.4-.2 1-.6 1.8-1.2Zm234-2.3l2.6 1.6c1.1 .7 2.2 1.4 3.2 2.2c1.5 1.1 2.5 2.2 3.1 3.2c.5 .9 .8 2.2 .8 3.6c0 1.1-.1 2.2-.2 3.3c-.2 1.1-.4 2-.7 2.7c-.5 1.3-1.7 2.5-3.7 3.6c-1.8 .9-3.5 1.4-5.1 1.4c-1.5 0-2.6-.5-3.4-1.4c-.8-1-1.2-2.3-1.2-3.9c0-1.5 .2-2.9 .6-4.3c.4-1.4 1.2-3.2 2.3-5.4l-1-.6c.3-.8 .7-1.8 1.2-3c.6-1.2 1-2.2 1.5-3Zm131-2.9c2 0 3.9 .7 5.7 2c1.6 1.2 2.9 2.7 3.6 4.4l-1.1 1c-1.4-.6-2.5-.9-3.4-1.1c-.8-.1-1.8-.2-3-.2c-2.3 0-4.2 .2-5.8 .5c-2.1 .5-3.1 1.1-3.1 2c0 1.2 2.5 3.2 7.5 6.1l13.6-3.9l-3 7.6c-4.8 1.5-8.8 2.6-12 3.4c-2.7 .7-5 1.2-6.9 1.5c-1.4 .2-2.7 .3-4.1 .3h-.6v.4c-.1 1.7-.3 3.1-.7 4.2c-.4 1.5-1.2 2.7-2.3 3.6c-1.1 .9-2.7 1.7-4.9 2.3c-2.1 .5-4.3 .8-6.5 .8c-4.4 0-7.7-.8-10.1-2.3c-2.3-1.6-3.5-3.9-3.5-6.8c0-2.5 .4-4.8 1.1-6.8c.8-2.3 2.4-5.3 4.8-8.9l1.7 1.1c-1.8 3.1-3 5.3-3.5 6.6c-.6 1.4-.8 2.8-.8 4.2c0 1.9 1 3.4 3 4.6c2 1.2 4.6 1.8 7.9 1.8c3.2 0 5.9-.6 8.1-1.8c2.2-1.3 3.3-2.8 3.3-4.6c0-1.1-.1-2.2-.5-3.3c-.4-1.1-1.2-2.8-2.5-5.2l2.4-7.3c1.2 2.3 2 3.9 2.3 4.8c.4 1.3 .7 3 .8 5v.3h.9c.6 0 .9 0 1.2-.1c.5 0 1.1-.1 1.6-.1c-.9-1.4-1.5-2.4-1.8-3.3c-.3-.8-.5-1.8-.5-2.8c0-2.7 1.1-5 3.3-7c2.2-2 4.8-3 7.8-3Zm-27.6-2.2l6.2 3.3l-3.2 6l-6.3-3.2Zm-53.2-2.7l4.9 2.7l-3 5.5l-3.8-2.2l-2.1 4.3l-5-2.7l2.8-5.3l3.9 2Zm-164.5-1.8l2.6 16.7c.4 2.6 1 4.4 1.6 5.4c.5 .6 1 .9 1.8 .9h15.9c-.2-1.3-.6-2.3-1.1-3.1c-.3-.5-.9-1.3-1.9-2.4l2.1-6.4c1.4 1.5 2.3 3.1 2.8 4.7c.4 1.5 .7 3.6 .7 6.3v.9h17.2c-2.2-2.3-4.2-3.9-6.1-4.9c-1.6-.8-3.2-1.3-4.7-1.3c-.5 0-.9 0-1.3 .1c-.4 0-.9 .1-1.7 .3c1-2.3 2.1-3.9 3.3-5c1.2-1.1 2.6-1.6 4.1-1.6c1.2 0 2.3 .3 3.4 .8c1.1 .6 2.4 1.5 3.7 2.8c1.1 1 2.6 2.6 4.6 4.7c1.3 1.5 2.4 2.5 3.1 2.9c.7 .5 1.7 .9 3.1 1.2v7.3H922.6c-.6 0-1.2-.2-1.8-.4c-1-.5-1.9-1.5-2.6-2.9c-1-1.9-1.6-4.5-1.9-7.8c-1.2 1.5-2.2 2.6-2.8 3.2c-1 .9-1.8 1.4-2.5 1.4c-.4 0-.8-.1-1.3-.2l-3.3-.6c-1.4-.3-2.2-.5-2.6-.6c-.3-.2-.4-.4-.4-.7c0-.5 .6-2 1.8-4.6c1.3-2.5 2.2-4.1 2.7-4.7c.5-.5 1.3-1.2 2.4-1.9c.7-.5 1.7-1.1 2.9-1.8l1.4-.9c0-.2-.1-.5-.1-.7c0-.3 0-.5 0-.8c0-.6 .1-1.5 .5-2.5c.3-1 .8-2.3 1.6-3.8Zm-141-1c2.2 0 4 .6 5.5 1.8c1.5 1.3 2.3 2.9 2.3 4.9c0 1.1-.4 2.1-1 2.9c-.7 1-1.7 1.4-2.8 1.4c-.9 0-1.7-.3-2.3-.9c-.5-.6-.9-1.2-.9-2c0-1.2 .6-2.2 1.5-2.8c1-.6 1.5-1.1 1.5-1.5c0-.6-.3-1.1-.8-1.5c-.6-.3-1.4-.5-2.3-.5c-1.2 0-2.1 .3-2.9 1c-.7 .6-1.1 1.4-1.1 2.4c0 .8 .4 2 1.2 3.3c1.1 2.1 1.8 3.4 2 4.1c.8 1.8 1.2 3.9 1.2 6.1c0 1.1-.1 2.5-.3 3.9h-1.6c0-.3 0-.6 0-.8l.1-1.3c0-1.1-.6-2.1-2-3.3c-2.2-2-3.4-3.2-3.7-3.4c-1.3-1.6-2-3.4-2-5.4c0-2.4 .8-4.4 2.4-6c1.6-1.6 3.6-2.4 6-2.4Zm82.4-.2l5 2.8l-2.8 5.2l-4-2l-2.2 4.3l-4.9-2.7l2.9-5.5l3.8 2.2Zm240-1.1l6.3 3.3l-3.2 6l-6.3-3.2Zm-51.6 0c1 1.4 1.8 2.8 2.2 4.2c.5 1.6 .7 3.7 .7 6.2v5.3c0 3.8 .3 6.4 .8 7.8c.3 1.2 1 1.8 1.8 1.8h5.7c1.9 0 3.4-.6 4.7-1.6c1.6-1.4 2.4-3.5 2.4-6.3l1.8 .3c0 .5-.1 1.2-.1 1.9c0 .8-.1 1.6-.1 2.5c0 .9 .4 1.6 1 2.3c.6 .6 1.3 .9 2.1 .9h3.3c2.2 0 3.8-.3 4.7-.9c1.1-.8 1.7-2.1 1.7-4.2c0-.4 .1-.8 .4-1.1c.2-.2 .5-.5 1-.9l1-.8c.1 .3 .1 .8 .1 1.4c0 .6 0 .9 0 1.1c0 1-.1 2.3-.4 3.9c.7 .4 1.4 .6 2.2 .9c.8 .2 1.7 .4 2.6 .5c0-.6-.2-1.4-.6-2.3c-.5-1-.7-1.7-.7-2c0-.5 .1-.8 .2-1.1c0-.1 .2-.4 .6-.8l2.2-3.1c.5 1.1 .9 2.1 1.1 3.1c.2 .9 .3 2 .3 3.4v2.9h12.3c-.2-1.3-.5-2.3-1-3.1c-.3-.5-.9-1.3-1.9-2.4l2.1-6.4c1.4 1.5 2.3 3.1 2.8 4.7c.5 1.7 .7 4.2 .7 7.5v7h-16.8v-.1h-1c-.8-.1-1.5-.2-2.2-.4c-1.3-.2-2.6-.7-3.9-1.3c-1.1 .7-2 1.2-2.8 1.4c-.8 .3-2 .4-3.7 .4h-4.3c-1.2 0-2.2-.3-2.9-1c-.7-.6-1.3-1.6-1.9-3.1c-1 1.5-2.1 2.6-3.3 3.2c-1 .6-2.3 .9-3.7 .9h-5.7c-2.1 0-3.6-.9-4.5-2.6c-1-1.9-1.6-5.1-1.6-9.6V308c0-1.8-.2-3.1-.7-4.1c-.2-.5-.8-1.1-1.6-2Zm-111.4 0l6.3 3.3l-3.2 6l-6.3-3.2Zm68.4 0l1.6 9.5c.6 3.6 1 6.7 1.3 9.4c.2 2 .2 4 .2 5.9c0 1.6-.2 3-.5 4.3c-.4 1.3-1.1 3.1-2.2 5.3l-1.6-.6c.4-2.3 .6-4.2 .6-5.6c0-1.1-.1-2.7-.2-4.8c-.2-2.1-.4-4.2-.7-6.3c-.3-2.1-.7-4.5-1.3-7.4c-.2-1-.3-1.7-.3-2c0-.6 .2-1.5 .8-2.9c.5-1.3 1.3-2.9 2.3-4.8Zm-120.4 0l1.6 9.5c.6 3.6 1 6.7 1.2 9.4c.2 2 .3 4 .3 5.9c0 1.6-.2 3-.6 4.3c-.4 1.3-1.1 3.1-2.2 5.3l-1.6-.6c.5-2.3 .7-4.2 .7-5.6c0-1.1-.1-2.7-.3-4.8c-.2-2.1-.4-4.2-.7-6.3c-.2-2.1-.7-4.5-1.3-7.4c-.2-1-.3-1.7-.3-2c0-.6 .3-1.5 .8-2.9c.6-1.3 1.4-2.9 2.4-4.8Zm106.5-.2l1.1 .4c0 1.1 .3 1.9 .8 2.2c.4 .3 1.9 .9 4.3 1.6c0 1.3-.1 2.5-.4 3.8c-.1 .6-.3 1.5-.7 2.9l-1.9-.7c0 2.1-.3 4.2-.8 6.3c-.5 2.1-1.3 4.2-2.4 6.2c1 1.8 1.6 2.8 1.7 3.1c.4 .8 .6 1.6 .6 2.2v.9c0 .4-.1 2.3-.4 5.5c-2 .9-3.8 1.5-5.4 1.8c-1.6 .3-4 .5-7.2 .5v-8c1.8-.9 3.1-1.7 3.9-2.3c.8-.7 1.8-1.8 3-3.3c-2-2.6-3.5-4.4-4.4-5.5c-.8-.8-1.8-1.8-2.9-3c-.3 .6-.5 1-.7 1.2c-.1 .2-.2 .3-.4 .3c-.4 0-1.2-.4-2.4-1.1c-1-.7-1.8-1.3-2.4-1.8c-.6-.5-1-1.5-1.3-2.9c-.3-1.4-.4-3.2-.4-5.4c0-1 0-1.7 .1-2c.1-.4 .4-.6 .8-.6c.7 0 2.1 1 4.2 3c1.8 1.7 3.5 3.4 4.9 5.1c1.1 1.3 2.1 2.5 3.1 3.8c.8 1 2.1 2.9 3.8 5.6c.8-1.5 1.4-3.5 1.7-5.8c.2-1.5 .2-3.2 .2-5.2c-.6-.3-1-.6-1.3-.9c-.2-.2-.3-.6-.3-1.1c0-1.1 .1-2.2 .3-3.3c.3-1.1 .7-2.3 1.2-3.5Zm44.9-1.3l4.9 2.7l-3 5.5l-3.8-2.2l-2.1 4.3l-5-2.8l2.8-5.2l3.9 2Zm41.4-.6l5 2.6l-2.7 5.5l-5.1-2.6ZM870.6 293l1.2 .7c0 .1 0 .4-.1 .9c0 .5 .4 1.1 1.2 1.7c.6 .5 1.7 1 3.1 1.6c-.1 1.2-.4 2.3-.7 3.4c-.3 1.1-.7 2.1-1.1 2.9l-.9-.4l2.9 16.7v7.3H844.8c-2.1 0-3.6-.9-4.6-2.6c-1-1.9-1.5-5.1-1.5-9.6V308c0-1.8-.3-3.1-.8-4.1c-.2-.5-.7-1.1-1.6-2l2.9-6.7c1.1 1.4 1.8 2.8 2.2 4.2c.5 1.6 .7 3.7 .7 6.2v5.3c0 3.8 .3 6.4 .8 7.8c.4 1.2 1 1.8 1.9 1.8h15.9c-.2-1.3-.5-2.3-1.1-3.1c-.2-.5-.9-1.3-1.8-2.4l2.1-6.4c1.4 1.5 2.3 3.1 2.8 4.7c.4 1.5 .6 3.6 .7 6.3v.9H873l-3.3-18.3l-1.7-1.1c0-1.1 .2-2.1 .5-3.2c.4-1.4 1.1-3 2.1-4.9Zm-40.5 0l1.2 .7c0 .1 0 .4-.1 .9c0 .5 .4 1.1 1.1 1.7c.7 .5 1.8 1 3.2 1.6c-.2 1.2-.4 2.3-.7 3.4c-.3 1.1-.7 2.1-1.1 2.9l-.9-.4l2.9 16.7v7.3H804.3c-.6 0-1.2-.2-1.7-.4c-1.1-.5-2-1.5-2.7-2.9c-.9-1.9-1.6-4.5-1.8-7.8c-1.3 1.5-2.2 2.6-2.9 3.2c-1 .9-1.8 1.4-2.5 1.4c-.3 0-.7-.1-1.3-.2l-3.2-.6c-1.4-.3-2.3-.5-2.6-.6c-.3-.2-.5-.4-.5-.7c0-.5 .6-2 1.9-4.6c1.2-2.5 2.1-4.1 2.7-4.7c.4-.5 1.2-1.2 2.4-1.9c.6-.5 1.6-1.1 2.9-1.8l1.4-.9c-.1-.2-.1-.5-.1-.7c-.1-.3-.1-.5-.1-.8c0-.6 .2-1.5 .5-2.5c.3-1 .9-2.3 1.7-3.8l2.6 16.7c.4 2.6 .9 4.4 1.6 5.4c.4 .6 1 .9 1.7 .9h15.9c-.2-1.3-.6-2.3-1.1-3.1c-.2-.5-.9-1.3-1.9-2.4l2.2-6.4c1.3 1.5 2.3 3.1 2.7 4.7c.5 1.5 .7 3.6 .8 6.3v.9h9.6l-3.3-18.3l-1.7-1.1c0-1.1 .2-2.1 .5-3.2c.4-1.4 1.1-3 2.1-4.9Zm85-5.4l4.8 2.5l-2.9 5l-3.9-2.1l-2.1 4.2l-5-2.7l2.8-4.8l4 2Zm-118.3 0l4.9 2.5l-3 5l-3.8-2.1l-2.2 4.2l-4.9-2.7l2.7-4.8l4 2Zm179.9-.1c.3 0 .6 .1 .8 .3c.2 .2 .3 .5 .3 .9c0 .3 0 .5-.1 .7c-.1 .2-.3 .6-.5 1c-.9-.5-1.5-.7-1.8-.7c-.4 0-.7 .1-1 .2c-.2 .1-.4 .3-.6 .5c0 .2 .4 .6 1.3 1c.9 .5 1.5 .8 1.9 .8c.2 0 .8-.2 1.9-.4c-.2 .5-.4 .9-.7 1.1c-.2 .2-.5 .4-.9 .5l-5.8 1.8c.3-.6 .6-1.1 .9-1.3c.3-.3 .8-.5 1.5-.7c-.5-.3-.9-.6-1.1-.9c-.2-.3-.4-.5-.4-.8c0-.2 .1-.5 .3-.8c.1-.3 .3-.6 .5-.9c1.2-1.5 2.3-2.3 3.5-2.3Zm71.1 0c.4 0 .6 .1 .8 .3c.3 .2 .4 .5 .4 .9c0 .3-.1 .5-.2 .7c-.1 .2-.2 .5-.5 .9c-.9-.4-1.5-.6-1.8-.6c-.3 0-.6 0-1 .2c-.2 .1-.4 .3-.5 .4c0 .3 .4 .6 1.2 1.1c.9 .5 1.5 .7 1.9 .7c.2 0 .9-.1 1.9-.4c-.2 .6-.4 1-.6 1.2c-.2 .2-.5 .4-1 .5l-5.8 1.8c.4-.6 .7-1.1 1-1.3c.3-.2 .7-.5 1.4-.7c-.5-.3-.9-.6-1.1-.9c-.2-.3-.3-.6-.3-.8c0-.3 .1-.5 .2-.8c.1-.3 .3-.6 .6-.9c1.1-1.6 2.3-2.3 3.4-2.3Z" class="g1_19"/>
<image clip-path="url(#c1_19)" preserveAspectRatio="none" x="1347" y="645" width="107" height="72" href="img/2.jpg"/>
<image clip-path="url(#c2_19)" preserveAspectRatio="none" x="1357" y="740" width="102" height="71" href="img/3.jpg"/>
<image clip-path="url(#c3_19)" preserveAspectRatio="none" x="498" y="637" width="102" height="80" href="img/4.jpg"/>
<image clip-path="url(#c4_19)" preserveAspectRatio="none" x="505" y="739" width="95" height="80" href="img/5.jpg"/>
<image clip-path="url(#c5_19)" preserveAspectRatio="none" x="124" y="365" width="1201" height="272" href="img/6.jpg"/>
</svg>