<svg viewBox="0 0 1466 825" version="1.1" xmlns="http://www.w3.org/2000/svg">
<defs>
<clipPath id="c0_62"><path d="M-.2 825.3V-.2H1467V825.3Z"/></clipPath>
<clipPath id="c1_62"><path d="M1343.9 529.1V456.4H1452v72.7Z"/></clipPath>
<clipPath id="c2_62"><path d="M1346.3 621.3V549.7h102.9v71.6Z"/></clipPath>
<clipPath id="c3_62"><path d="M1346.4 716.6V641.9h103v74.7Z"/></clipPath>
<clipPath id="c4_62"><path d="M1353 825V744.6h96.2V825Z"/></clipPath>
<style>
.g0_62{fill:#F00;}
.g1_62{fill:none;stroke:#000;stroke-width:1.466;stroke-linejoin:round;}
</style>
</defs>
<image clip-path="url(#c0_62)" preserveAspectRatio="none" x="0" y="-7" width="1467" height="840" href="img/1.jpg"/>
<path fill-rule="evenodd" d="M636.6 362c1 0 1.9 .3 2.5 1.1c.7 .7 1.1 1.6 1.1 2.6c0 1-.4 1.9-1.1 2.6c-.7 .7-1.6 1.1-2.6 1.1c-1 0-1.8-.4-2.6-1.1c-.7-.7-1-1.6-1-2.6c0-1 .3-1.9 1.1-2.6c.7-.8 1.6-1.1 2.6-1.1Zm.4-27.7c2.4 0 4.4 .7 6.1 2.1c1.7 1.3 2.5 3.1 2.5 5.3c0 1.2-.3 2.3-1.1 3.3c-.8 1-1.8 1.5-3.1 1.5c-1 0-1.8-.3-2.5-.9c-.6-.7-.9-1.5-.9-2.3c0-1.4 .5-2.4 1.6-3.1c1.1-.7 1.6-1.2 1.6-1.7c0-.6-.3-1.2-.9-1.6c-.7-.4-1.5-.6-2.5-.6c-1.3 0-2.4 .3-3.2 1.1c-.8 .7-1.2 1.6-1.2 2.6c0 1 .4 2.3 1.2 3.8c1.3 2.3 2.1 3.8 2.3 4.4c.9 2.1 1.3 4.4 1.3 6.8c0 1.3-.1 2.8-.3 4.4h-1.8c0-.4 0-.6 0-.8l.2-1.6c0-1.1-.8-2.3-2.3-3.6c-2.4-2.3-3.8-3.5-4.1-3.8c-1.4-1.8-2.2-3.8-2.2-6c0-2.6 .9-4.9 2.7-6.6c1.8-1.8 4-2.7 6.6-2.7Z" class="g0_62"/>
<path d="M636.6 362c1 0 1.9 .3 2.5 1.1c.7 .7 1.1 1.6 1.1 2.6c0 1-.4 1.9-1.1 2.6c-.7 .7-1.6 1.1-2.6 1.1c-1 0-1.8-.4-2.6-1.1c-.7-.7-1-1.6-1-2.6c0-1 .3-1.9 1.1-2.6c.7-.8 1.6-1.1 2.6-1.1Zm.4-27.7c2.4 0 4.4 .7 6.1 2.1c1.7 1.3 2.5 3.1 2.5 5.3c0 1.2-.3 2.3-1.1 3.3c-.8 1-1.8 1.5-3.1 1.5c-1 0-1.8-.3-2.5-.9c-.6-.7-.9-1.5-.9-2.3c0-1.4 .5-2.4 1.6-3.1c1.1-.7 1.6-1.2 1.6-1.7c0-.6-.3-1.2-.9-1.6c-.7-.4-1.5-.6-2.5-.6c-1.3 0-2.4 .3-3.2 1.1c-.8 .7-1.2 1.6-1.2 2.6c0 1 .4 2.3 1.2 3.8c1.3 2.3 2.1 3.8 2.3 4.4c.9 2.1 1.3 4.4 1.3 6.8c0 1.3-.1 2.8-.3 4.4h-1.8c0-.4 0-.6 0-.8l.2-1.6c0-1.1-.8-2.3-2.3-3.6c-2.4-2.3-3.8-3.5-4.1-3.8c-1.4-1.8-2.2-3.8-2.2-6c0-2.6 .9-4.9 2.7-6.6c1.8-1.8 4-2.7 6.6-2.7Z" class="g1_62"/>
<image clip-path="url(#c1_62)" preserveAspectRatio="none" x="1344" y="457" width="108" height="72" href="img/2.jpg"/>
<image clip-path="url(#c2_62)" preserveAspectRatio="none" x="1347" y="550" width="102" height="71" href="img/3.jpg"/>
<image clip-path="url(#c3_62)" preserveAspectRatio="none" x="1347" y="642" width="102" height="74" href="img/4.jpg"/>
<image clip-path="url(#c4_62)" preserveAspectRatio="none" x="1353" y="745" width="96" height="80" href="img/5.jpg"/>
<path d="M1060.2 429.7l1.9-1.2l.1-.2l.2-.3l.2-.3l-.6 .3h.2l.5-.2l.2-.1l.1-.3l.1-.3l.1-.3c.1-.3 0-.6-.3-.8c-.2-.1-.5-.2-.8 0c-.3 .2-.5 .6-.4 1c.2 .3 .5 .5 .9 .5c.4-.1 .7-.4 .7-.7v-.4l-.1-.4v-.2l-.2 1c.2-.2 .3-.5 .3-.8v-.5c-.1-.4-.3-.7-.6-.9c-.4-.1-.8-.1-1.1 .1c-.3 .3-.5 .6-.4 1v.3l.1 .1v.5c.1 .5 .5 .8 1 .9c.5 .1 1-.2 1.2-.6c.2-.5 .1-1-.3-1.3v-.1l-.3-.1l-.2-.1l.6 .8v-.4c-.1-.2-.2-.4-.3-.5l-.2-.2l-.2-.2l-.2-.2c-.3-.2-.7-.2-1.1-.1c-.3 .1-.6 .4-.7 .8l-.1 .2l.9-.8l-.2 .1l1.3 .6l-.3-.6c-.2-.3-.5-.5-.9-.6h-.3l1 .8l-.2-.5l-.2-.5c-.1-.6-.7-1-1.3-.9c-.6 .1-1.1 .6-1.1 1.2v.3c0 .4 .2 .8 .5 1c.3 .3 .8 .3 1.1 .2h.2l-1.5-.7l.1 .2c.2 .5 .8 .8 1.4 .7c.5-.2 .9-.7 .9-1.3c0-.7-.6-1.2-1.3-1.2l.9 .3l-.1-.1c-.2-.2-.5-.3-.8-.3h-.1l1.2 1.3v-.5c-.1-.6-.5-1.1-1.1-1.2l.7 .5v-.1c-.2-.3-.6-.5-.9-.5h-.1l.8 .4c-.2-.3-.5-.4-.9-.5h-.5h.2l-2.5-.5h-.1l-1.4-.3l-1.4-.2h-.5l-1.1 .1h.2h-1.3l-1 .2h-.1l-.9 .2l-.4 .1l-.9 .5l.2-.1l-.8 .2h.4h-.7h.2l-.7-.1l.4 .1l-.8-.4c-.5-.2-1.2-.1-1.6 .3l-.3 .3c-.1 .2-.2 .3-.3 .5l-.2 .6v.1l-.2 1l.7-.9l-.4 .2c-.3 .2-.5 .4-.6 .6l-.3 .6l.1-.2l-.2 .4l-.1 .2l-.2 .4l-.1 .6v.6l.3-.9l-.2 .3c-.2 .2-.3 .4-.3 .7l-.1 .6v.6v-.1v1.2l.2 .9l.2 .7l.1 .2l.3 .8l.1 .2l.4 .8l.1 .1l.7 1v.1l.8 1.2l.2 .1l1.4 1.4l1.6 1.5l.1 .1l1.7 1.4h-.1l2.1 1.8l1.7 1.6l.1 .1l1.7 1.5v-.1l1.7 1.7l1.5 1.2h-.1l1.2 1.2l-.1-.1l1 1.2l.8 1l-.1-.2l.6 .9l-.1-.1l.3 .5l.2 .4c.4 .5 1 .8 1.6 .6c.7-.1 1.1-.7 1.1-1.3v-.1l-1.5 1.4h.2l-1.1-.5l.1 .1c.4 .6 1.2 .7 1.8 .3c.6-.3 .9-1.1 .6-1.8c-.2-.5-.6-.8-1.1-.9l1 .8l-.2-.5c-.3-.7-1.1-1-1.8-.7c-.7 .3-1 1.1-.8 1.8l.2 .5v-.3v.1l.1-.8h-.1c-.2 .7 .1 1.5 .7 1.9c.6 .3 1.5 .1 1.9-.5c.4-.6 .3-1.4-.3-1.9l-.1-.1c-.2-.2-.6-.3-.9-.3h-.2c-.3 0-.7 .1-1 .4c-.2 .3-.4 .7-.4 1v.1c0 .6 .4 1.1 1 1.3c.6 .2 1.2 0 1.6-.5c.4-.5 .4-1.1 .1-1.6l-.2-.4v.1l-.3-.5V451l-.6-.8l-.1-.2l-.8-1l-1-1.1l-.1-.1l-1.2-1.2l-.1-.1l-1.4-1.2l-1.7-1.6l-.1-.1l-1.7-1.5v.1l-1.7-1.6l-2.1-1.9l-1.8-1.5l.1 .1l-1.6-1.5l-1.4-1.4l.1 .2l-.8-1.1v.1l-.6-1.1v.1l-.5-.9l.1 .2l-.3-.8v.2l-.1-.8l-.2-.9v.4v-.8l.1-.5l-.1 .1l.1-.5l-.3 .7l.2-.2c.2-.3 .3-.6 .3-.9v-.6l-.1 .5l.2-.4l-.1 .2l.2-.3l.1-.2l.3-.6l-.6 .6l.4-.2c.4-.2 .6-.5 .7-.9l.2-1v.2l.1-.6l-.3 .6l.3-.3l-1.6 .2l.8 .4l.5 .2h1.9l.8-.3l.3-.1l.9-.5l-.4 .2l.9-.2h-.1l1-.1h-.1h1.3l1.1-.1h-.4l1.4 .2h.1l1.4 .3l-.1-.1l2.4 .6l.2 .1h.6l-.9-.4c.4 .3 .8 .5 1.2 .4h.1l-1.1-.3c.4 .3 .8 .4 1.3 .3h-.1h.2c.6-.1 1.1-.7 1-1.4c-.1-.6-.7-1.1-1.3-1.1c-.7 .1-1.2 .7-1.2 1.3v.2c0 .3 .2 .6 .4 .8c.3 .3 .6 .4 .9 .4h.1l-.9-.4v.1c.3 .2 .6 .3 .9 .3c.7 .1 1.3-.5 1.3-1.2c0-.7-.5-1.2-1.2-1.2c-.7-.1-1.2 .5-1.3 1.2c0 .5 .3 1 .8 1.2c.5 .2 1 .1 1.4-.3c.3-.4 .4-.9 .2-1.4l-.1-.2c-.3-.5-.9-.8-1.5-.6l-.2 .1c-.5 .2-.9 .8-.7 1.4c.1 .6 .7 1 1.3 1c.6-.1 1.1-.7 1.1-1.3v-.3c0-.4-.3-.9-.7-1.1c-.5-.2-1-.1-1.4 .3c-.3 .3-.5 .8-.3 1.3l.2 .5l.2 .5c.1 .4 .5 .8 .9 .8h.4l-.9-.5l.3 .5c.2 .4 .7 .7 1.2 .6l.3-.1c.4-.1 .7-.4 .9-.8l.1-.3c.2-.6-.1-1.2-.7-1.5c-.6-.2-1.3 .1-1.6 .6c-.3 .6 0 1.3 .5 1.6l.2 .1l-.2-.1l.2 .1l-.3-.5l.1 .4c.1 .3 .4 .6 .8 .7l.2 .1c.4 .1 .8 0 1.1-.3c.3-.3 .4-.7 .3-1.1l-.2-.6v-.1l-.1-.2c-.2-.5-.8-.8-1.3-.6c-.5 .2-.8 .7-.7 1.2l.1 .5l.3 .5l.3 .2l.2 .1l-.5-.5l.1 .3c.1 .4 .5 .6 .8 .6c.4 0 .7-.3 .8-.6c0-.3-.1-.7-.4-.9c-.3-.2-.6-.1-.8 0c-.3 .2-.4 .5-.3 .8l.1 .3l-.1-.2l.1 .3v-.3l-.1 .2l.4-.2h-.2l-.4 .4l-.1 .3l-.1 .3l.1-.2l-1.8 1.4c-.1 .1-.2 .4 0 .6c.1 .1 .3 .2 .5 0Z" class="g0_62"/>
<path d="M1022.1 430.6l-1.6 3.9v.4l.1 .5v.3l.4 .7v-.2l.1 1.1l.1 .1l.3 1l.3 .9l.1 .2l.5 .9l.8 1.1v.1l.6 .7l-.1-.1l.6 .8l.7 1l.1 .1l.4 .5l-.1-.2l.4 1v-.1l.4 1.1v-.1l.2 1v-.2l-.1 1.6l.1-.1l-.2 1.4l.1-.4l-.8 1.5l.1-.2l-1 1.2l.2-.2l-1.3 1l-1.2 .9l.3-.2l-1.3 .5l-1.2 .4h.3l-1.3 .1h.2l-1.6-.1l.3 .1l-1.7-.5l.3 .2l-1.2-.7h.1l-2-1.2l.2 .1l-1.4-1.3v.1l-1.5-1.3v-.1l-2.2-1.8l.2 .2l-1.2-1.6l-1.5-1.9l.1 .3l-.9-2.1l.1 .1l-.7-2l.1 .2l-.4-2.2v.2v-4v.2l.3-1.8v.2l.5-1.8V432l.4-2c.1-.4-.2-.8-.6-1c-.4-.1-.9 .2-1 .6l-.5 2v-.2l-.7 1.8l-.1 .1l-.4 1.7v.2l-.3 2v2.2l.2 2.2l.1 .2l.5 2.1l.1 .1l.8 2.2l.2 .3l1.4 1.9l1.3 1.6l.2 .3l2.1 1.8l1.4 1.3l1.5 1.3l.1 .1l2 1.3h.1l1.3 .7l.3 .1l1.8 .4h2l1.3-.2l.4-.1l1.2-.5l1.2-.6l.3-.1l1.2-1l1.3-1l.1-.2l1-1.2l.1-.2l.8-1.6l.1-.3l.2-1.5v-.1l-.1-1.6v-.2l-.2-1.1v-.1l-.5-1.2l-.5-1l-.2-.3l-.5-.5l.1 .1l-.7-1l-.7-.8v-.1l-.7-.6h.1l-.8-1v.1l-.5-.8v.1l-.4-.9l.1 .1l-.5-1.1l.1 .2l-.3-1.1l-.1-.3l-.4-.7v.1l-.2-.5v.5l1.3-4.1c.1-.2 0-.5-.3-.6c-.2-.1-.5 0-.6 .3Z" class="g0_62"/>
<path d="M1007.8 422.6l.2 .6l.3 .7l.2 .7l.2 .4l.9 1l-.2-.2l.6 1c.1 .2 .2 .4 .4 .5l.7 .4l.3 .1l.8 .2c.5 .1 .9 0 1.2-.4c.3-.3 .3-.8 .1-1.2l-.4-.8v1l.5-.9v-.1l.8-2.2c.1-.6-.2-1.2-.7-1.4c-.6-.1-1.2 .2-1.4 .7l-.7 2.2l.1-.2l-.5 .8c-.2 .3-.3 .7-.1 1.1l.4 .8c.2 .5 .7 .7 1.2 .6c.6-.1 .9-.5 1-1.1c0-.5-.4-1-.9-1.1l-.9-.2l.3 .1l-.6-.4l.4 .5l-.5-1l-.1-.2l-.8-1.1l.2 .5l-.2-.8v-.1l-.2-.7c-.1-.3-.3-.5-.6-.7l-.5-.3c-.4-.3-.9-.2-1.2 .1c-.3 .2-.5 .7-.3 1.1Z" class="g0_62"/>
<path d="M529.8 430l3.1-3c.2-.2 .3-.4 .3-.6V426c0-.4-.3-.8-.7-1c-.4-.2-.9-.1-1.3 .1c-.3 .3-.5 .8-.4 1.2l.1 .4v.1l.3 1.2l.7 2.4v.1l.5 1.3l.1 .3l.6 1l-.2-.3l.3 .8v.1l.5 1.1l-.1-.3l.1 1l.1-.6l-.5 1.4v.4l.1 2l.4-1l-1.6 1.3h-.1l-1.8 1.6l.1-.1l-2.5 1.7l.5-.2l-3.7 .6l-.3 .1l-3.2 1.4l.2-.1l-3.5 1.1l.3-.1l-3.2 .3h-.1l-2.7 .5h.4l-2.4-.4l-2-.4l.2 .1l-1.7-.6l.2 .1l-1.7-.9l.2 .1l-2.1-1.5h.1l-1.4-1.1l.1 .1l-1.6-1.7l-1.8-1.7l.4 .6l-.3-1.1h-.1l-.6-2.1v.9l.6-1.8l-.1 .2l1.1-2.1v-.1l1-2.5l-.1 .2l1.4-2.2l.1-.4l.7-3.5v.2l1.2-3.1c.2-.4 0-.9-.5-1.1c-.5-.2-1 0-1.2 .4l-1.4 3v.1l-1.1 3.5l.2-.4l-1.5 2.1l-.1 .2l-1.1 2.5v-.1l-1.1 2l-.1 .2l-.6 1.8c-.1 .3-.1 .6 0 .8l.6 2.1v-.1l.3 1.1c0 .3 .2 .5 .3 .7l1.8 1.7l1.5 1.6l.1 .1l1.4 1.2l.1 .1l2.1 1.5l.2 .1l1.7 .9l.1 .1l1.8 .6l.2 .1l2.1 .2l2.4 .4h.4l2.8-.5l-.2 .1l3.3-.3l.3-.1l3.4-1.1h.1l3.1-1.4l-.2 .1l3.7-.7l.5-.2l2.5-1.7l.1-.1l1.8-1.7v.1l1.6-1.4c.3-.2 .5-.6 .5-1l-.1-2l-.1 .5l.4-1.4l.1-.6l-.1-1l-.1-.3l-.5-1.1v.2l-.3-.8l-.1-.3l-.6-1l.1 .3l-.5-1.4l.1 .1l-.7-2.4l-.3-1.3v.3V426v.2c0-.7-.4-1.2-1.1-1.3c-.6 0-1.2 .4-1.2 1c-.1 .7 .3 1.2 .9 1.3l.2 .1c.5 .1 1-.2 1.1-.7c.2-.4 0-.9-.5-1.2c-.4-.2-.9-.1-1.2 .3l-2.5 3.5c-.2 .3-.2 .6 .1 .8c.2 .2 .6 .2 .8 0Z" class="g0_62"/>
<path d="M514.7 408l-.2 .5c-.1 .2-.1 .5-.1 .7l.1 .5l.2 .3l.4 .8l-.1-.2l.4 1l.2 .3l.6 .8l.4 .4c.3 .3 .7 .5 1.1 .3c.4-.1 .7-.4 .8-.8c.1-.4-.1-.8-.4-1.1l-.2-.1l.3 .4l-.2-.4c-.2-.5-.7-.7-1.2-.5c-.5 .2-.7 .7-.5 1.2l.1 .4v-.3l-.1 .2c0 .5 .3 .9 .8 1c.4 .2 .9 0 1.2-.4c.3-.3 .3-.9 0-1.2l-.4-.5v-.1l-.6-.7l.2 .4l-.3-1v-.1l-.3-.8v.1l-.1-.5l-.1 .8l.2-.5c.2-.4 .2-.8-.1-1.2c-.3-.4-.7-.6-1.1-.5c-.5 .1-.9 .4-1 .8Z" class="g0_62"/>
<path d="M478.1 422.4l-1 .8l-.3 .4l-.5 1.5l-.1 .3l-.1 1.8v-.1l-.1 1.6l.1 .3l.3 2v-.2v1.9l.1 .1l.3 2.6v-.2v3.1l.3 3.8l.6 4.6l.5 4.1l.1 .2l1.1 4l.9 3.5v.3l1.3 2.6l1.3 2.7l.1 .2l1.6 2.2l.1 .2l1.9 1.7l.3 .2l2.2 .8c.5 .2 1.1 0 1.3-.6c.2-.5 0-1.1-.5-1.3l-2.2-.9l.3 .2l-1.7-1.7l.1 .1l-1.6-2.2l.1 .2l-1.2-2.8l-1.2-2.6v.2l-.8-3.6h-.1l-1.1-4.1v.2l-.6-4.1l-.5-4.6v.1l-.3-3.7v-3l-.1-.2l-.4-2.5l.1 .1l-.1-1.9v-.1l-.4-2v.2v-3.4v.3l.4-1.5l-.1 .2l.7-1.1c.2-.3 .2-.7-.1-.9c-.2-.3-.7-.3-1 0Z" class="g0_62"/>
<path d="M534.7 417.9l.1 1.5l.1 .5l1.7 3.2l2.2 3.8l2.1 3.7l.1 .1l3.5 5l-.1-.3l1.4 3.9l-.1-.2l.9 4.1v-.4l-.5 4l.1-.2l-1.1 4l.2-.5l-2.6 3.8l.1-.1l-3.1 3.4l.1-.1l-3.9 3.4c-.5 .4-.6 1.1-.2 1.6c.5 .5 1.2 .6 1.7 .2l4-3.4v-.1l3.2-3.3l.1-.2l2.7-3.6l.3-.5l1-3.9v-.2l.5-4.1l-.1-.4l-.8-4l-.1-.2l-1.4-3.9l-.2-.3l-3.5-5v.1l-2.1-3.7l-2.2-3.8v.1l-1.9-3.1l.1 .2l-.5-1.4c-.2-.4-.6-.7-1.1-.6c-.4 .1-.7 .5-.7 .9Z" class="g0_62"/>
<path d="M973.3 423.1l-.1 .2c-.3 .3-.4 .7-.3 1.1l.1 .8v-.1v1.2l.1 .1l.2 1.9v.2l.5 2v-.1l.3 1.7v.2l.7 2v.1l.9 2.2l-.1-.1l.8 2.4v.1l1.1 3.4l.9 3.4l1.2 3.7v.1l1.4 3.3l.2 .3l2.6 3.1l.2 .2l3.5 3l.2 .1l4.4 2.6l5.2 2.8l.2 .1l5.7 1.7c.5 .2 1.1-.1 1.2-.7c.2-.5-.1-1-.6-1.2l-5.7-1.8l.2 .1l-5.1-2.8l-4.3-2.7l.1 .1l-3.5-3.1l.1 .2l-2.6-3.2l.1 .3l-1.4-3.3l.1 .1l-1.2-3.7l-.9-3.3v-.1l-1.1-3.4l-.7-2.5l-.1-.1l-.8-2.2v.1l-.7-2l.1 .2l-.3-1.7V430l-.4-2.1v.2l-.2-2v.1v-1.3l-.2-.9c0-.2-.1-.5-.3-.7l-.1-.2c-.2-.2-.5-.3-.8-.3c-.3 0-.6 .1-.8 .3Z" class="g0_62"/>
<path d="M1108.1 421.9l1.1 2.2l.1 .1l1.1 1.6l1.5 1.9l2.4 3.1h-.1l2.7 4l-.1-.3l1.7 4.7V439l1 4.7v-.3l-.4 4.7l.1-.2l-1.3 4.3l.1-.3l-2.3 3.8l.1-.1l-2 2.6l-.1 .1l-1.8 2.7l.2-.2l-4.7 4.4l.1-.1l-6.9 4.4c-.6 .4-.7 1.1-.4 1.7c.4 .5 1.1 .7 1.6 .3l7-4.4l.2-.2l4.7-4.4l.1-.1l2-2.7l2-2.6V457l2.4-3.8l.1-.3l1.2-4.3l.1-.3l.3-4.8v-.3l-1-4.7v-.2l-1.8-4.6l-.1-.3l-2.7-4l-.1-.1l-2.4-3.1v-.1l-1.6-1.8v-.1l-1.4-1.3v.1l-1.4-1.9c-.3-.3-.7-.3-1-.1c-.3 .2-.4 .6-.3 .9Z" class="g0_62"/>
<path d="M60.1 449.7H58.9l-.2 .1l-1.9 .5h-.3l-1.9 1l-.2 .1l-1.6 1.2l-.3 .3L51.1 455l-1.4 2.4L48 460.7l-2.1 4.2l-2.5 4.5L41 473.9l-2.5 4.7h-.1l-2.2 4.5L34 487.7l-2.1 4l-.1 .2l-1.3 3.6h.1l-1.2 3v.1l-.7 2.1v.1l-.3 2.2v-.3l-.3 1l-.1 .2l-.1 .5c-.1 .6 .2 1.1 .7 1.3c.5 .2 1.1 0 1.4-.5c.3-.5 .2-1-.2-1.4l-.5-.4l.3 .3l-.6-1.1l.1 .2l-.6-1.9l-.3-1v.1l-.2-1v.1l-.9-4.6v.1l-1-5.4l-1-5.5l.1 .3l.1-3.7v-3.2l.1-2.4l-.1-2.3v-2.3l-.1 .5l.3-.4l-1 .4l.3 .1c.6 0 1.2-.5 1.2-1.1c0-.6-.4-1.2-1.1-1.2h-1l-.1 .1l-.5 .2l-.2 .2c-.3 .3-.5 .6-.4 1c0 .4 .2 .7 .5 .9l.6 .4v.1l1.5 1l-.2-.2l1.5 1.4h.1l2.4 2.2l-.1-.1l2.5 3.2v-.1l3 4.3l3.4 5.1v.1l4.4 6l4 6.7l.1 .1l5.5 7.2H52l6.3 7.1c.3 .3 .7 .5 1.2 .4c.4-.1 .8-.4 .9-.9c.1-.4 0-.9-.3-1.2l-6.3-7l.1 .1l-5.6-7.2l.1 .1l-4-6.7l-.1-.1l-4.4-6.1v.1l-3.4-5.1v-.1l-3-4.2l-.1-.1l-2.5-3.2l-.2-.1l-2.5-2.3l.1 .1l-1.6-1.4l-.1-.1l-1.5-1h.1l-.6-.4c-.5-.4-1.2-.3-1.7 .1c-.4 .5-.3 1.2 .1 1.7c.4 .4 1.1 .5 1.6 .1l.3-.3l-.1 .1l.2-.1l-.6 .2h.5c.5-.1 .9-.4 1-.8c.2-.4 .1-.8-.2-1.1c-.3-.4-.8-.5-1.2-.4l-.3 .1c-.3 .1-.5 .4-.6 .6l-.3 .5v2.9l.1 2.2l-.1 2.4v3.1l-.1 3.7v.2l1 5.5l.9 5.3l.9 4.6l.1 .1l.2 .9l.2 .9l.5 2l.1 .1l.5 1.1l.2 .3l.4 .5c.3 .3 .7 .4 1.1 .3c.5-.1 .8-.5 .8-.9l.1-.5l-.1 .2l.4-.9l.1-.3l.3-2.1v.1l.6-2.1v.1l1.2-3v-.1l1.3-3.6l-.1 .2l2.1-4.1h.1l2.1-4.6l2.3-4.5l-.1 .1L43 475l2.4-4.6v.1l2.5-4.5l2.1-4.3l1.7-3.3v.1l1.3-2.3v.1l1.4-2.1l-.3 .3l1.7-1.2l-.2 .1l2-1.1h-.1l1.8-.8l1.1-.5c.3-.2 .5-.5 .4-.8c-.1-.4-.4-.6-.7-.5Z" class="g0_62"/>
<path d="M1083 554.2l-.2 .6v.4l.1 .6v.3l.1 .3l.2 .4v-.4l-.1 .1l.3 .6h.1c.2 0 .4 0 .5-.2c.1-.1 .1-.3 0-.4c-.1-.2-.3-.2-.5-.2h-.1l.4 .2l-.1-.1l-.2-.3l.1 .1l-.1-.2v-.3l-.1-.6v.1v-.4v.1l.1-.6c0-.1 0-.3-.2-.3c-.2 0-.3 .1-.3 .2Z" class="g0_62"/>
<path d="M1085.4 555.9l3-1.3h-.1l.5-.1h-.1l.5 .1h.6h-.1l.5 .1h.6l.2-.1l.3-.2l.1-.1l.3-.5v.1l.4-.3h.1l.5-.4h-.1l.5-.3v.1l.7-.3c.1 0 .2-.1 .2-.3c0-.1-.1-.2-.2-.3c0-.1-.2-.1-.3-.1l-.6 .3h-.1l-.5 .3h-.1l-.5 .5V553l-.4 .3l-.1 .1l-.4 .5l.2-.1l-.4 .1h.2h-.5h.1l-.5-.1h-.6h.1l-.6-.1h-.2l-.5 .1v.1l-3 1.3c-.1 .1-.2 .3-.1 .5c0 .2 .2 .2 .4 .2Z" class="g0_62"/>
<path d="M1096.4 552l3.2 .1c.2 0 .5-.1 .7-.3h.1c.3-.3 .5-.8 .4-1.3c-.1-.2-.2-.4-.3-.6l-.2-.2l.4 .6v-.1c-.1-.2-.3-.4-.4-.6h-.1l.5 .9c0-.6-.4-1.1-.9-1.3h-.2l-.2-.1l-1.2-.4h-.2l-2.9-.6h.1l-1.9-.5h-.1l-1.2-.2l-.4-.1l-1.2 .1l-.4 .1l-1 .3h.2l-.8 .1l-.5 .3l-.6 .3l.9-.2l-.9-.1l.2 .1l-.6-.2c-.4-.1-.8 0-1.1 .3l-.6 .4l-.2 .1l-.4 .5c-.3 .2-.4 .5-.5 .9l-.1 .8l.7-1.1l-.4 .3l1.9 .2l-.2-.2c-.3-.4-.9-.5-1.4-.4c-.5 .1-.9 .5-1.1 1l-.1 .3l1.4-1.1l-.2 .1l1 .2h-.1c-.4-.3-.8-.4-1.3-.2c-.6 .2-1 .8-1 1.4v1.1l.5 2.6l.1 .5l.5 .9l.2 .2l1 1.3l.1 .1l1.1 1.1l.1 .1l1.6 1.3h.1l1.7 1.3l1.7 1.1l.1 .1l2.2 1.2l-.3-.1l1.3 1l1.3 1.1l-.3-.2l1.1 1.4l-.1-.2l.6 1.3l.1 .2l.8 1.2l-.1-.3l.6 1.4l.1 .2l.4 .5l-.2-.3l.3 .8l.2 .4l.3 .3l.3 .4h.1l-.7-1.1v.3c.1 .6 .5 1.1 1 1.2c.6 .2 1.2 0 1.6-.4c.3-.4 .4-1 .1-1.6l-.1-.1l-.7-1.3c-.3-.5-1-.7-1.5-.5c-.6 .3-.8 .9-.7 1.4l.4 1.5l.1-1c-.3 .6-.2 1.2 .2 1.6c.4 .4 1 .6 1.5 .4c.5-.1 .9-.6 1-1.2v-.3c0-.3 0-.7-.2-.9l-.1-.1l-.2-.4l.2 .4l-.3-.8l-.2-.3l-.4-.6l.2 .2l-.6-1.3l-.2-.2l-.8-1.2l.1 .2l-.6-1.3l-.1-.2l-1.1-1.4l-.2-.3l-1.3-1.1l-1.3-1.1l-.2-.1l-2.2-1.2h.2l-1.7-1.1l-1.8-1.3l.1 .1l-1.6-1.3l.1 .2l-1.1-1.1l.2 .1l-1-1.3l.1 .2l-.5-.9l.1 .4l-.4-2.6v.2v-.8c0-.7-.5-1.4-1.3-1.5c-.7-.1-1.4 .4-1.6 1.2c-.1 .7 .3 1.5 1 1.7l-.7-.6c.2 .4 .7 .7 1.1 .7h.2c.6 .1 1.3-.3 1.5-.9l.1-.3c.2-.7-.1-1.5-.7-1.9c-.7-.3-1.5-.1-1.9 .5c-.5 .6-.4 1.4 .1 1.9l.2 .2c.5 .5 1.3 .6 1.9 .2l.4-.2c.3-.3 .6-.7 .6-1.2l.1-.8l-.4 .9l.4-.4l-.2 .1l.6-.4l-1.2 .3l.6 .1h.3l.9 .1c.3 0 .6-.1 .9-.3l.5-.4l-.5 .2l.8-.1l.2-.1l1-.4l-.4 .1l1.2-.1h-.4l1.3 .3l-.1-.1l1.8 .5h.1l2.9 .7l-.1-.1l1.1 .4l.3 .1c.3 .1 .6 .1 .9 0h.2h-.7h.1h-.2h.1h-.2h.1c.5 .2 .9 .1 1.3-.2l.2-.1l-1.2 .3l-.4-.2c.5 .4 1.1 .3 1.6-.1c.4-.4 .4-1.1 .1-1.5c-.4-.5-1-.7-1.5-.4l-2.8 1.4c-.2 .1-.3 .3-.3 .5c.1 .1 .2 .3 .4 .3Z" class="g0_62"/>
<path d="M1065.1 546.5l-2.6 .8c-.5 .1-.8 .6-.7 1.2l.1 .5l.5 2.4v-.1l.2 1.4l.2 1.7v-.1v3l.1 1.4v-.3l-.3 1.1l.1-.1l-.3 .8l.5-.7l-.8 .6l.1-.1l-1.3 .7l.2-.1l-1.9 .5l-2.6 .6l-2.3 .8l.3-.1l-2.6 .2l-2.1 .1l-1.6 .1h.4l-1.7-.3h.2l-1.2-.2l.4 .1l-.9-.6l-.2-.1l-1-.4l.5 .3l-.9-1.1l.1 .2l-.7-1.2v.1l-.6-1.1l.2 .3l-.6-1.6l.1 .1l-.4-1.4v.2l-.3-1.5v.2V553l-.1-2v.1l.1-2.6l.2-2.5v.1l.5-2.2c.1-.6-.3-1.2-.8-1.3c-.6-.2-1.2 .2-1.3 .7l-.6 2.3l-.1 .1l-.4 2.6l-.3 2.5l-.1 .2v4.1l.3 1.5v.2l.4 1.3v.1l.5 1.5l.2 .3l.6 1.1v.1l.8 1.1l.1 .1l.9 1.1l.5 .4l1 .4h-.1l1 .6l.4 .1l1.1 .3h.1l1.6 .2h.3l1.6-.1l2-.2l2.6-.2h.4l2.3-.8l-.1 .1l2.5-.7l2-.6l.2-.1l1.4-.7l.2-.1l.8-.6c.2-.2 .3-.4 .4-.7l.2-.8v-.1l.2-1.1v-.3l-.1-1.3v.1v-1.5l-.1-1.6v-.1l-.2-1.7l-.3-1.4v-.1l-.6-2.4l-.1-.5l-.3 1l1.9-1.8c.2-.1 .2-.3 .1-.5c-.1-.1-.3-.2-.4-.2Z" class="g0_62"/>
<path d="M1045.9 531.5c-.5 .3-.6 .8-.4 1.3l.1 .4v.1l.5 .8l.2 .4l.7 .6l-.2-.3l.6 1.1v.1l.5 .6l.4 .4l.4 .2c.5 .2 1 0 1.3-.4c.2-.4 .2-1-.2-1.3l-.5-.5c-.3-.3-.7-.3-1-.1c-.4 .2-.5 .6-.4 1l.2 .7c.2 .4 .6 .7 1.1 .6c.5 0 .8-.3 .9-.8c.1-.5-.1-.9-.6-1.1l-.3-.2l.4 .4l-.5-.7l.1 .1l-.6-1.1l-.1-.2l-.7-.7l.2 .3l-.3-.8l-.1-.1l-.1-.4c-.2-.3-.5-.5-.8-.6h-.1c-.2 0-.5 0-.7 .2Z" class="g0_62"/>
<path d="M1023.1 535l3.2-1.8l.3-.3l.2-.4l.1-.1l.1-.2V532l.1-.2c0-.3-.1-.7-.3-.9c-.3-.2-.6-.2-.9-.1c-.3 .1-.5 .4-.6 .7v.2l.1-.2l-.2 .4l.1-.1l-.2 .3l.1-.2l-.5 .7l-.2 .3l-.6 1.3l-.6 1.6v.1l-.8 2.4l-.1 .2l-.4 2.5v.1l-.3 3.1v.1l-.1 3.7v.3l.5 4l.8 4l.1 .4l1.7 3.4l.1 .2l2.1 3.1l.1 .1l2.5 2.6l.1 .1l2.9 2.5l.2 .2l3.5 2.1h.1l3.7 1.8l4.6 1.8c.4 .2 1 0 1.2-.5c.2-.4 0-1-.5-1.2l-4.5-2l.1 .1l-3.4-2.1l-3.4-2.3l.1 .2l-2.8-2.6l.1 .1l-2.4-2.7l.1 .2l-2.1-3.1l.1 .2l-1.7-3.5l.1 .4l-.7-4v.1l-.6-4v.2l.2-3.7l.2-3l.3-2.5v.2l.7-2.5l.5-1.5V535l.4-1.4v.2l.4-.8l.1-.4v-.4v.1v-.8c-.1-.4-.4-.7-.9-.8c-.4 0-.8 .3-.9 .8v.2v-.2l-.1 .3v.4l.1 .4l.3-.7l-3.1 2.1c-.2 .2-.3 .5-.2 .8c.2 .3 .5 .3 .8 .2Z" class="g0_62"/>
<path d="M1117 542.8h.3c.5 .1 1-.2 1.2-.7c.2-.4 .1-1-.2-1.3c-.4-.4-.9-.5-1.4-.2h-.1c-.5 .3-.7 .9-.5 1.4c.2 .5 .7 .8 1.3 .6c.5-.1 .8-.7 .7-1.2v-.1c-.1-.4-.3-.7-.6-.9c-.3-.2-.7-.3-1-.2c-.6 .1-1.1 .6-1.1 1.2v.4l-.1 1.3l.1 5.1v.1l.4 4v.1l.8 4.1v-.1l.4 3.9l.7 4.1v-.1l.3 3.9V568l-.2 3.9v-.2l-.8 3.5l.4-.7l-2.5 2.4l.3-.2l-3.3 2c-.6 .3-.8 1.1-.5 1.7c.3 .6 1.1 .8 1.7 .4l3.4-1.9l.2-.1l2.5-2.3c.2-.2 .4-.4 .4-.7l.9-3.5V572l.2-3.8V568l-.4-3.9V564l-.7-4.1v.1l-.4-3.9l-.1-.1l-.8-4.1l.1 .1l-.5-4v.2v-5.1v.1l.1-1.3v.2v-.2l-1.5 1c.6 .1 1.2-.2 1.5-.7v-.1c.3-.5 .1-1.1-.3-1.4c-.4-.3-1-.2-1.4 .1c-.4 .4-.4 1-.1 1.4l.1 .1c.3 .5 .9 .6 1.4 .4c.5-.1 .8-.7 .7-1.2c0-.5-.4-1-1-1l-.3-.1c-.5 0-.9 .1-1.2 .5c-.2 .3-.3 .8-.1 1.2c.2 .4 .5 .6 1 .7Z" class="g0_62"/>
<path d="M676.3 540l.4 .4l-.2-.9v.2v-.1v.1c-.2 .3-.2 .7 0 1c.2 .3 .5 .5 .9 .5h.1c.4 0 .8-.2 1-.5c.2-.4 .1-.8-.1-1.1c-.2-.4-.6-.5-1-.5h.2c-.5-.1-1.1 .3-1.2 .8l-.1 .7v-.1l-.8 2.6l-.5 1.6v-.1l-.7 1.9l-.9 2.2v.1l-.8 2.5v-.1l-1 2.7l.1-.2l-1.5 2.5l.1-.2l-1.9 2.2l.1-.1l-2.5 2.1l.2-.1l-2.6 1.7l.2-.1l-3 1.1h.1l-2.9 .8l.4-.1l-2.8-.1h.3l-2.5-.6l.5 .2l-1.9-1.4l.2 .2l-1.8-1.8l.1 .2l-1.6-2.2l-1.5-2h.1l-1.4-2.1l.1 .2l-1-1.9l-1-2.2h-.1l-1.2-2.2l.2 .8l.1-1.6v-.5l-.4-1.5l-.1 .8l.4-1l-.2 .3l.6-.9l.2-.4l.3-1.2l-.3 .5l1.2-1.2l1.5-1.3l1.9-1.6v.1l1.8-1.3c.4-.3 .5-.8 .2-1.2c-.2-.3-.7-.5-1.1-.2l-1.9 1.2l-2.1 1.3l-1.8 1.2l-.1 .1l-1.3 1.2l-.3 .5l-.5 1.1l.2-.3l-.6 .8l-.2 .3l-.4 1c-.1 .3-.1 .6 0 .8l.3 1.6v-.5l-.2 1.7c0 .2 .1 .5 .2 .7l1.2 2.2v-.1l1 2.2l1 1.9l.1 .2l1.4 2.1l1.4 2l.1 .1l1.6 2.1l.1 .2l1.8 1.7l.2 .2l1.9 1.4l.5 .2l2.4 .6h.3l2.8 .2l.4-.1l2.9-.8l.1-.1l3.1-1.2l.2-.1l2.7-1.7l.1-.1l2.4-2.2l.1-.1l2-2.2l.1-.2l1.5-2.5l.1-.2l1-2.7V552l.7-2.5v.1l.8-2.3h.1l.6-1.9l.5-1.7l.7-2.6V541l.1-.7l-.9 .9h-.2c.4 .1 .8-.1 1-.4c.2-.4 .3-.8 .1-1.1c-.2-.4-.6-.6-1-.6h-.1l.9 .6v-.1l-.1-.2l-.1-.2c-.2-.1-.4-.3-.6-.3l-.6-.1c-.3 0-.5 .2-.7 .4c-.1 .3-.1 .6 .1 .8Z" class="g0_62"/>
<path d="M654.4 528.1l1.5 1c.3 .2 .7 .2 1.1 0c.3-.2 .5-.6 .4-1c0-.3-.3-.7-.7-.8l-.5-.1h-.1l-.6-.1c-.3 0-.7 .1-1 .4c-.2 .2-.4 .6-.4 .9v.8l.1 .5v-.2v.6l.1 .1l.1 .7l.2 .5l.2 .3l.1 .1c.2 .4 .7 .5 1.1 .5l.3-.1l.5-.2l.4-.3c.3-.2 .4-.5 .4-.8l-.1-1.1c0-.5-.4-.9-.9-.9c-.5 0-.9 .4-.9 .9l-.1 1.1l.9-.9l-.5 .1h.6l-.3-.1l.7 .8l-.1-.2l-.1-.3l-.2-.3l.2 .6l-.1-.7v.2l.1-.6v-.2l-.1-.6v.2v-.5l-.9 1.3l.5-.2l.3-.1l.4-.3c.3-.2 .5-.6 .4-.9c0-.4-.3-.7-.7-.8l-1.6-.6c-.4-.1-.8 .1-.9 .4c-.2 .3-.1 .7 .2 .9Z" class="g0_62"/>
<path d="M626.9 540.2l-1.1 .8l-.3 .3l-1.1 1.8V543l-1.5 1.8l-.1 .2l-1.2 2.6l-.1 .2l-.8 2.9l-.8 2.6v3.5l.4 2.4l.4 2.2l.2 .5l1.4 2.4l.1 .1l1.6 2.5v.1l1.9 2.5l2.1 2.7l2.1 2.3l.1 .1l2.3 2l.4 .2l2.8 1.2h.2l3.2 .6h.3l3.4-.3h.1l3.4-.9h.1l3.5-1.5c.4-.1 .6-.6 .4-.9c-.1-.4-.5-.6-.9-.4l-3.6 1.3h.1l-3.3 .6h.1h-3.4l.2 .1l-3.1-.8h.2l-2.8-1.2l.3 .2l-2.3-2.1l.1 .1l-2-2.3l.1 .1l-2.1-2.6l-1.8-2.5v.1l-1.6-2.6l-1.4-2.4l.1 .4l-.4-2.2l-.4-2.4v.1l-.1-2.9l-.1 .4l.8-2.7l.7-2.9l-.1 .2l1.2-2.6l-.1 .2l1.4-1.9l.1-.1l1-2l-.1 .2l.9-1.1c.2-.3 .2-.7 0-1c-.3-.3-.7-.4-1.1-.1Z" class="g0_62"/>
<path d="M690.7 521.2l.5 2.1v-.1l.4 2.4l.5 3.2v-.1l.5 4v-.1l.3 3.9v-.1v4.4l-.1 4.6v-.1l-.3 4.6v.1l-.1 4.5l-.4 3.8l.1-.1l-.4 3.4v-.2l-.7 3l.1-.2l-1.1 2.5l.1-.2l-2.2 3.6l.5-.5l-4.4 2.3c-.7 .3-1 1.2-.6 1.8c.3 .7 1.1 1 1.8 .6l4.4-2.2c.3-.1 .4-.3 .6-.5l2.3-3.6l.1-.1l1.2-2.5l.1-.3l.8-3v-.2l.4-3.4l.3-3.8v-4.6l.3-4.7v-.1l-.2-4.5l-.1-4.4v-.1l-.4-3.9v-.1l-.7-3.9v-.1l-.8-3.1v-.1l-.7-2.3v-.1l-.9-1.9c-.1-.3-.5-.5-.8-.3c-.3 .1-.5 .4-.4 .7Z" class="g0_62"/>
<path d="M172.3 549.4l-1.6 .9l-1.4 .9v.1l-1.6 1.1h-.1l-1.4 1.3h-.1l-1.3 1.3l-1.3 1.2l.1-.1l-1.2 1.1v-.1l-1.3 1.1l-.1 .1l-1.2 1.2v-.1l-1.4 1.4l-.2 .3l-1 2.5l-1.2 2.7v.1l-1 4.1l-1.1 4.4l-1.2 4.5l-1.3 5.5v-.1l-1.9 5.5v-.1l-2.4 5.5v-.1l-2.5 5.2v-.1l-2.5 4.5v-.1l-2.3 3.8l-.1 .1l-1.8 3.5l.1-.1l-1.8 2.4v.1l-1.4 2.2l.4-.4l-.9 .5l1.1-.1l-.6-.2l.9 .8l-.4-1l.1 .2l-.5-2.1v.2l-.2-3.2l-.3-3.4v.1l.2-4.1l.2-4.1l.4-4.3l.5-4.3l.4-3.9l.4-3.4v-.1l.4-2.6v.1l.5-2.3l-.1 .2l.6-1.7h.1l.5-1.6l-.1 .3l.4-.7l-.2 .2l.3-.4l-1.8 .2l.5 .4l-.1-.1l.8 .8h-.1l1.4 1.6v.1l1.8 2h.1l2.4 2.4l-.1-.1l2.6 2.7l-.1-.1l2.8 3.6l.1 .1l3.2 4l3.7 4.5l4.2 4.7h.1l4.9 4.6l-.1-.1l4.5 5l.1 .1l5.5 4.7l5.6 4.7l.1 .1l5.1 3.2c.4 .3 1 .3 1.4 .1c.5-.2 .7-.7 .8-1.2c0-.5-.3-1-.7-1.2l-5.1-3.2l.1 .1l-5.5-4.7l-5.5-4.7l.2 .1l-4.5-5l-.1-.1l-4.9-4.5l.1 .1l-4.2-4.7v.1l-3.6-4.5l-3.3-4l-2.8-3.6l-.1-.1l-2.6-2.7l-2.4-2.3l-1.8-2l.1 .1l-1.4-1.7l-.9-.9l-.1-.1l-.6-.5c-.5-.4-1.3-.4-1.8 .2l-.4 .3l-.2 .3l-.4 .7l-.1 .2l-.5 1.6l-.6 1.6v.2l-.6 2.3v.1l-.3 2.7l-.5 3.4v.1l-.4 3.9l-.5 4.3l-.4 4.4l-.2 4.2l-.2 4.2v.1l.3 3.4l.2 3.2v.2l.5 2.1l.1 .2l.4 1.1c.2 .4 .6 .7 1.1 .8l.7 .1c.3 .1 .7 0 1-.2l.8-.7l.4-.4l1.2-2.2l1.6-2.5l.1-.1l1.8-3.6l-.1 .1l2.3-3.9l2.5-4.5l2.4-5.2l2.5-5.4V591l1.9-5.5v-.1l1.4-5.5l1.2-4.5L157 571l1-4.1l-.1 .2l1.1-2.7l1.1-2.5l-.2 .3l1.3-1.3l1.2-1.2l-.1 .1l1.3-1.1h.1l1.2-1.1l1.2-1.2h.1l1.3-1.3l1.4-1.2h-.1l1.6-1.1l1.3-1l.1-.1l1.4-1.2c.2-.2 .3-.6 .1-.9c-.2-.3-.6-.4-1-.2Z" class="g0_62"/>
<path d="M1067.2 633.4l-.1 .5v-.1l-.1 .3v.2l-.1 .6v.1l-.1 1.4v1.4l.1 1.3V639l-.1 1.6V642l-.1 1.6l.1-.3l-.4 1.6l-.5 2v-.2l-.7 1.9v-.1l-.9 2.1l-1.1 2.5l.2-.3l-1.6 2.1l-1.8 2.2l.1-.1l-2.1 1.9l.4-.3l-2.6 1.2l.1-.1l-2.6 1l.1-.1l-2.6 .6h.2l-2.6 .1l-2.1 .1h.3l-1.7-.2h.1l-1.3-.2h.2l-1.2-.3l.3 .1l-1.1-.6l.2 .1l-1-.8v.1l-.9-.8l.2 .1l-1.2-1.4l.1 .1l-1-1.4l.2 .5l-.4-1.7l-.1-.2l-.7-1.8v.4v-1.8l-.3-2v.2l.1-2.1l-.1 .3l.7-2.1l1.1-2.7c.2-.5 0-1.1-.6-1.3c-.5-.2-1.1 0-1.3 .5l-1.2 2.7h.1l-1 2.1l-.1 .3l-.3 2.1v.3l.2 2v-.1v1.7l.1 .5l.7 1.9v-.2l.4 1.7l.2 .4l.9 1.4l.1 .1l1.2 1.5l.1 .1l.9 .9h.1l1 .9l.2 .1l1.1 .6l.3 .1l1.1 .4h.1l1.3 .3h.1l1.7 .2l.3 .1l2.1-.2l2.6-.1l.2-.1l2.7-.6h.1l2.7-1h.1l2.6-1.2l.4-.3l2.1-1.9l.1-.2l1.9-2.3l1.5-2.1l.2-.3l1-2.6v.1l.9-2.1v-.1l.6-1.9l.1-.1l.4-2v-.1l.3-1.6v-.2l-.1-1.6v-1.4l-.1-1.6l-.2-1.4v.1v-3.2l-.1-.4l-.1-.3v.1l-.1-.5c-.1-.2-.3-.4-.6-.4c-.2 0-.5 .2-.6 .4Z" class="g0_62"/>
<path d="M1044.6 626.4l3.3-.6l-1.1-.5l.3 .5v.1l.2 .2c.3 .4 .9 .6 1.4 .5h.1c.7-.2 1.1-.8 1.1-1.5c-.1-.7-.7-1.3-1.5-1.2c-.7 .1-1.2 .7-1.2 1.4c.1 .8 .7 1.3 1.4 1.2l1.4-.1h-.1l3.8 .2h.3l2.8-.8l.2-.1l2.3-1.3c.4-.2 .6-.8 .3-1.2c-.2-.5-.8-.7-1.2-.4l-2.3 1.2l.2-.1l-2.8 .7h.4l-3.8-.4l-1.3-.3h-.2h.2h-.1l.3 .1l-.3-.1h.1l-.5-.3c-.3-.1-.7-.1-1 0l-3.1 1.1c-.5 .2-.7 .7-.6 1.1c.1 .4 .6 .7 1 .6Z" class="g0_62"/>
<path d="M754.1 623H754c-.2 .1-.4 .4-.5 .7v.3l-.1 1.2l-.3 3.2v-.1l-.6 2.6h.1l-.7 2.7v-.1l-.9 3.1l-.8 3.1v-.3l-1.3 2.6l.1-.1l-1.6 2.1l.1-.2l-1.9 1.9l.2-.2l-2.4 1.5l.3-.2l-2.6 1l-2.5 .9l.2-.1l-2.3 .4h.1l-2 .1h.4l-1.6-.4l.3 .1l-1.2-.6l.3 .2l-1.1-1l.2 .1l-1-1.2l.1 .2l-.9-1.3l.1 .1l-.9-1.6l.1 .2l-.8-1.9l.1 .3l-.3-2.2v.1l-.2-2.7v-.1l-.3-2.8v.1l-.1-3v-.1l-.3-2.8v.2v-2.4v.2l.5-2.5c.1-.5-.2-1.1-.8-1.2c-.5-.1-1.1 .2-1.2 .8l-.7 2.4v.1l-.3 2.4l-.1 .2l.2 2.8v-.1v3.2l.2 2.8v-.1l.1 2.8l.1 .2l.3 2.1l.1 .3l.7 2l.1 .2l.8 1.5l.1 .1l.9 1.3l.1 .2l1 1.1l.1 .2l1.1 1l.3 .2l1.3 .6l.3 .1l1.7 .4h.4l2.1-.2h.1l2.2-.4h.3l2.6-1l2.5-1l.2-.1l2.4-1.5l.2-.2l1.9-1.8l.2-.2l1.6-2.1l.1-.2l1.3-2.6l.1-.2l.8-3.1l.8-3.1v-.1l.6-2.7v-.1l.4-2.6v-.1l.3-3.3v-.1l-.1-1.2v-.3c-.1-.3-.3-.6-.5-.7h-.1c-.2-.2-.5-.2-.7 0Z" class="g0_62"/>
<path d="M737.3 611.6l.1 1.2v-.3l-.3 1.1v.1l-.2 1.4v.3l.1 1.6v-.1v1.3l.2 .5l.4 .9l-.1-.1l.2 .7c.2 .4 .6 .8 1 .8c.5 .1 1-.1 1.2-.5c.3-.5 .3-1 0-1.4l-.3-.4c-.3-.5-1-.7-1.6-.4c-.5 .4-.7 1.1-.4 1.6l.2 .5c.3 .5 .9 .7 1.4 .6c.6-.2 1-.7 .9-1.3V619l-.1-.3l-.4-1l.1 .5v-1.5l-.2-1.6v.3l.1-1.4l.1-.1v-1.1l-.2-.5l-.5-1.1c-.2-.4-.6-.5-1-.4c-.4 .1-.7 .4-.7 .8Z" class="g0_62"/>
<path d="M1009.6 722l.3 .4c.2 .3 .7 .4 1 .2v-.1c.4-.2 .5-.7 .3-1.1l-.3-.4l.1 .4V721l-.3 .7l.2-.2c.2-.2 .3-.5 .2-.8l-.1-.4l-.1 .7l.3-.5l-1 .4l.5 .2c.3 0 .6-.1 .9-.3c.2-.3 .3-.6 .2-1l-.1-.2v.6l.1-.1c.1-.4-.1-.9-.5-1.2l-.4-.3l.3 .4l-.2-.3l-.2-.3l-.4-.4c-.3-.3-.8-.3-1.2-.1c-.5 .2-.7 .6-.7 1.1c0 .4 .4 .8 .8 1l.6 .2c.6 .2 1.2-.1 1.4-.7c.3-.6 0-1.2-.5-1.5l-.4-.2c-.5-.2-1.1-.1-1.5 .4c-.3 .4-.3 1 .1 1.4l.3 .4c.3 .5 .9 .6 1.4 .4c.5-.2 .8-.7 .7-1.2c0-.6-.4-1-1-1.1l-.3-.1c-.6-.1-1.1 .2-1.4 .8c-.2 .5 0 1.1 .5 1.4l.3 .3c.4 .3 1 .3 1.4 0c.5-.3 .7-.9 .5-1.4c-.1-.5-.6-.9-1.1-.9h-.6h.3l-1.3-.4h-.2l-1.7-.3l-2.1-.3h-.4l-1.3 .2l-.3 .1l-1.2 .5h.1l-1.1 .3h.3l-1.1 .1h-.2l-.8 .3l.6-.1l-.8-.1c-.3-.1-.6 0-.9 .1l-.5 .3l.2-.1l-.8 .3l1.2 .1l-.8-.4l-.6-.2l-.6-.1l1 .5l-.3-.4c-.4-.4-1-.6-1.5-.4c-.6 .1-1 .5-1.1 1.1c-.1 .6 .1 1.1 .5 1.5l.2 .2l-.3-.3l.4 .5c.3 .4 .8 .6 1.3 .6l.2-.1l-1.3-.5l.2 .2l-.3-.8v.3l.1 .3l.3 1.2l.1 .1l.7 1.7l1 2l.1 .2l1.2 2l.1 .1l1.3 1.8l1.4 1.7v.1l1.6 1.7l1.6 1.7l1.9 1.9h-.1l1.6 1.7h-.1l1.3 1.5l.7 .8l.7 .8l-.1-.2l.6 .9l.3 .3l1.4 1l-.1-.1l.4 .4l-.3-.3l.1 .1c.2 .3 .5 .6 .8 .7l.5 .1c.6 .2 1.2-.1 1.5-.7c.2-.7-.1-1.3-.7-1.6l-.6-.2c-.5-.2-1.2 .1-1.4 .6c-.3 .5-.1 1.2 .4 1.5l.5 .3c.5 .3 1.1 .2 1.5-.2c.4-.5 .4-1.1 .1-1.6l-.3-.3l.1 1.4l.1-.1c.3-.5 .2-1.1-.1-1.6l-.4-.4l-.2-.3l-1.4-1.1l.3 .3l-.7-.9l-.1-.1l-.7-.8l.1 .1l-.7-.8v.1l-1.2-1.6h-.1l-1.5-1.7l-.1-.1l-1.8-1.9l-1.6-1.6l-1.6-1.7h.1l-1.4-1.6l-1.3-1.8v.2l-1.2-2l.1 .1l-1-2l-.7-1.6l.1 .2l-.4-1.2l.1 .5v-.3c0-.2 0-.5-.1-.7l-.2-.3c-.2-.4-.6-.8-1.2-.8h-.2l1.1 .6l-.3-.5l-.3-.3l-.2-.2c-.7-.4-1.5-.4-2.1 .2c-.5 .6-.5 1.5 0 2l.4 .4c.3 .3 .6 .5 1 .5h.6l-.5-.1l.7 .4c.4 .1 .8 .2 1.2 0l.7-.3l.2-.1l.6-.3l-.9 .2l.8 .1c.2 0 .5 0 .7-.1l.7-.2h-.2l1.1-.1l.2-.1l1.1-.4l.1-.1l1.2-.6l-.3 .1l1.3-.3h-.4l2.1 .3h-.1l1.7 .3h-.1l1.2 .4l.3 .1h.6c.6 0 1.2-.3 1.3-.9c.2-.6-.1-1.2-.6-1.4l-.3-.2c-.5-.3-1-.2-1.4 .1c-.4 .3-.5 .8-.4 1.3c.2 .5 .6 .8 1.1 .9h.4c.4 0 .9-.3 1.1-.7c.2-.5 .1-1-.2-1.3l-.4-.4c-.3-.4-.8-.5-1.3-.3c-.4 .2-.7 .6-.7 1.1c0 .5 .3 .9 .7 1.1l.4 .1c.4 .2 .9 .1 1.2-.2c.4-.2 .5-.7 .4-1.1c-.1-.4-.5-.8-.9-.9l-.6-.1c-.5-.1-1 .1-1.3 .6c-.2 .5-.1 1.1 .4 1.4l.4 .3l-.2-.1l.3 .2l.4 .3l.5 .2l-.6-.6v.1l.2 .3l.1 .2c.3 .3 .7 .5 1.1 .3c.4-.2 .7-.6 .6-1c0-.5-.4-.8-.8-.9h-.5c-.4-.1-.8 .1-1 .5l-.2 .5c-.1 .2-.2 .5-.1 .7l.2 .4v-.7l-.1 .1c-.1 .2-.1 .5-.1 .7l.2 .4l.2 .4l.3 .3l.1 .1l.1 .1c.2 .1 .5 .2 .7 0c.3-.1 .4-.4 .4-.7c0-.2-.2-.5-.4-.6l-.5-.2c-.3-.1-.5-.1-.7 .1c-.2 .3-.2 .6 0 .8Z" class="g0_62"/>
<path d="M976.8 733.1v.2c0 .4 .4 .8 .9 .9h.2c.6 0 1.1-.3 1.2-.8c.1-.6-.2-1.1-.7-1.3c-.5-.1-1.1 .1-1.3 .6v.1c-.3 .5-.1 1 .3 1.3c.5 .3 1.1 .3 1.5-.2c.3-.4 .3-1 0-1.4l-.1-.1c-.4-.5-1.1-.6-1.6-.4c-.6 .3-.9 .8-.8 1.4l.1 1l.5 2.9l.2 1.8l.1 2.2v-.1l.1 1.6v-.2l-.1 1.3l-.2 1.6l.1-.4l-.5 1l.1-.1l-.8 1.2l.2-.3l-1.4 1.3l.2-.1l-1.1 .7l.4-.2l-1.9 .7l.1-.1l-1.4 .4h.4H970l-2 .1h.5l-1-.2h-.2l-1.4-.3l.3 .1l-1-.3l.7 .4l-.8-.8l-.1-.1l-1-1l.2 .3l-.9-1.4l.1 .2l-.8-1.8l-.8-1.8l.1 .2l-.5-2.3l-.5-2.4v.1l-.3-2.3v.1l-.2-2.2v.1v-1.8v.1l.3-1.8v.1l.3-2c.1-.5-.2-.9-.7-1.1c-.4-.1-.9 .2-1 .7l-.5 1.9l-.5 1.7l-.1 .2l-.2 1.9v2.4l.2 2.3v.1l.4 2.4v.1l.5 2.4l.1 .2l.7 1.8v.1l.8 1.8l.1 .2l.9 1.4l.3 .3l1 1l-.1-.1l.8 .8c.2 .2 .4 .4 .6 .4l.9 .3l.3 .1l1.4 .2h-.2l1 .3h.5l2-.1h-.1h1.4l.5-.1l1.3-.4h.1l1.9-.7l.4-.2l1-.8l.2-.1l1.3-1.3l.2-.2l.8-1.2l.1-.2l.5-1.1l.1-.5l.2-1.6l.1-1.3v-.2l-.1-1.6V741l-.2-2.1v-.1l-.2-1.8v-.1l-.5-2.9l-.1-.9l-.1 .7v-.1c.2-.3 .2-.7 0-.9v-.1c-.1-.3-.3-.5-.6-.6c-.3 0-.6 0-.8 .1l-.2 .1l.3-.1h-.2c-.5 .1-.7 .5-.7 .9Z" class="g0_62"/>
<path d="M962.9 717.7l1.3-.9c.4-.2 .5-.6 .5-1c-.1-.4-.3-.7-.7-.8c-.3-.2-.7-.1-1 .2h-.1c-.3 .3-.4 .7-.4 1v.2l.2 .5l.1 .1c.1 .3 .4 .4 .6 .5l.2 .1l-.4-.2l.6 .4v.1l1.4 1.1c.3 .2 .7 .3 1 .2h.2c.5-.1 .9-.6 .9-1.1c0-.6-.4-1-.9-1.2h-.2l.5 .2l-1.3-1.1l-.5-.4l-.4-.3h-.2l.5 .3l-.1-.1l.1 .1l-.1-.1c-.2-.3-.4-.5-.7-.5l-.1-.1c-.4-.1-.8 .1-1 .4l-1 1.2c-.3 .3-.3 .8 0 1.1c.3 .3 .7 .3 1 .1Z" class="g0_62"/>
<path d="M399.3 713.9l-.1-.1c-.3-.1-.6-.2-.9-.1c-.3 .1-.6 .4-.7 .7v.2c-.2 .4-.1 .9 .2 1.2l.1 .1l-.3-.5l.1 .5v-.2l.3 2.4v-.2l.1 1.6V721l.1-.2l-.3 2.2v-.1l-.4 2.1l.1-.2l-.8 2.3l.1-.2l-1.3 2.6v-.1L394 732v-.1l-2 2.9l.1-.1l-2.7 2.8l-2.5 2.8l.1-.1l-2.5 2.5l.1-.1l-2.4 1.8l-1.8 1.3l.2-.1l-1.7 .8l.3-.1l-1.2 .2h.1l-1.1 .2h.6l-1.2-.3l.7 .3l-.8-.6l.1 .1l-1.2-1.3l.2 .3l-1.1-1.9l.2 .5l-.5-2.4v.1l-.4-2.6v.6l.6-2.4l-.1 .1l.8-2.4l.8-2.3l.6-2.2v.1l.9-2.6c.2-.5-.1-1.1-.6-1.3c-.6-.2-1.2 .1-1.4 .6l-.9 2.5l-.9 2.1l-.9 2.2l-.1 .1l-.8 2.3l-.1 .1l-.6 2.4v.5l.3 2.6v.1l.4 2.3l.1 .4l1.1 2l.2 .3l1.2 1.3l.1 .1l.8 .7c.2 .2 .4 .3 .7 .3l1.1 .3h.6l1.1-.1l.1-.1l1.2-.2l.3-.2l1.7-.8l.2-.1l1.9-1.4l2.4-2l.1-.1l2.5-2.5v-.1l2.5-2.8l2.5-2.8l.2-.2l2-2.8v-.1l1.6-2.6l.1-.1l1.3-2.6l.1-.1l.7-2.3l.1-.2l.3-2.2l.3-2.2v-.2l-.1-1.5v-1.5l-.1-.2l-.3-2.4v-.1l-.2-.5c-.1-.6-.7-1-1.4-.9h-.1l1.1 .4l-.1-.1l.2 .3l-.1-.2c0-.1-.1-.2-.3-.3Z" class="g0_62"/>
<path d="M378.9 716.3l-.4 1.2l.2-.3l-.5 .7l-.2 .3l-.7 1.8c0 .2-.1 .5 0 .7l.2 1.4c0 .3 .2 .6 .4 .7l.2 .2c.4 .3 1 .3 1.5 0c.4-.3 .6-.9 .4-1.4l-.1-.2l.1 .6l.1-1.4l-.1 .4l.6-1.8l-.1 .3l.5-.8l.2-.4l.3-1.3c.2-.8-.3-1.5-1-1.7c-.7-.2-1.4 .3-1.6 1Z" class="g0_62"/>
</svg>