<svg viewBox="0 0 909 1286" version="1.1" xmlns="http://www.w3.org/2000/svg">
<defs>
<style>
.g0_3{fill:none;stroke:#000;stroke-width:1.527;stroke-linecap:round;stroke-miterlimit:10;}
.g1_3{fill:none;stroke:#000;stroke-width:1.527;stroke-linejoin:round;}
.g2_3{fill:#000;}
</style>
</defs>
<path d="M41.2 1233.6H864V34H41.2V1233.6Z" class="g0_3"/>
<path d="M40.2 66.7H863" class="g1_3"/>
<path fill-rule="evenodd" d="M753.7 105.2h97.7V103H753.7v2.2Z" class="g2_3"/>
<path fill-rule="evenodd" d="M78.3 156h2.2v-2.3H78.3V156Z" class="g2_3"/>
<path fill-rule="evenodd" d="M78.3 155.9h2.2v-2.2H78.3v2.2Z" class="g2_3"/>
<path fill-rule="evenodd" d="M80.5 155.9H578.9v-2.2H80.5v2.2Z" class="g2_3"/>
<path fill-rule="evenodd" d="M578.9 156h2.2v-.1h-2.2v.1Z" class="g2_3"/>
<path fill-rule="evenodd" d="M578.9 155.9h2.2v-2.2h-2.2v2.2Z" class="g2_3"/>
<path fill-rule="evenodd" d="M581.1 155.9H771.2v-2.2H581.1v2.2Z" class="g2_3"/>
<path fill-rule="evenodd" d="M771.3 156h2.2v-2.3h-2.2V156Z" class="g2_3"/>
<path fill-rule="evenodd" d="M771.3 155.9h2.2v-2.2h-2.2v2.2Z" class="g2_3"/>
<path fill-rule="evenodd" d="M78.3 200.2h2.2V156H78.3v44.2Z" class="g2_3"/>
<path fill-rule="evenodd" d="M578.9 200.2h2.2V156h-2.2v44.2Z" class="g2_3"/>
<path fill-rule="evenodd" d="M771.3 200.2h2.2V156h-2.2v44.2Z" class="g2_3"/>
<path fill-rule="evenodd" d="M78.3 202.6h2.2v-2.4H78.3v2.4Z" class="g2_3"/>
<path fill-rule="evenodd" d="M80.5 202.4H578.9v-2.2H80.5v2.2Z" class="g2_3"/>
<path fill-rule="evenodd" d="M578.9 202.6h2.2v-2.4h-2.2v2.4Z" class="g2_3"/>
<path fill-rule="evenodd" d="M581.1 202.4H771.2v-2.2H581.1v2.2Z" class="g2_3"/>
<path fill-rule="evenodd" d="M771.3 202.6h2.2v-2.4h-2.2v2.4Z" class="g2_3"/>
<path fill-rule="evenodd" d="M78.3 473.6h2.2v-271H78.3v271Z" class="g2_3"/>
<path fill-rule="evenodd" d="M78.3 475.8h2.2v-2.2H78.3v2.2Z" class="g2_3"/>
<path fill-rule="evenodd" d="M78.3 475.8h2.2v-2.2H78.3v2.2Z" class="g2_3"/>
<path fill-rule="evenodd" d="M80.5 475.8H578.9v-2.2H80.5v2.2Z" class="g2_3"/>
<path fill-rule="evenodd" d="M578.9 473.6h2.2v-271h-2.2v271Z" class="g2_3"/>
<path fill-rule="evenodd" d="M578.9 475.8h2.2v-2.2h-2.2v2.2Z" class="g2_3"/>
<path fill-rule="evenodd" d="M581.1 475.8H771.2v-2.2H581.1v2.2Z" class="g2_3"/>
<path fill-rule="evenodd" d="M771.3 473.6h2.2v-271h-2.2v271Z" class="g2_3"/>
<path fill-rule="evenodd" d="M771.3 475.8h2.2v-2.2h-2.2v2.2Z" class="g2_3"/>
<path fill-rule="evenodd" d="M771.3 475.8h2.2v-2.2h-2.2v2.2Z" class="g2_3"/>
<path fill-rule="evenodd" d="M88 516H380.1v-2.2H88V516Z" class="g2_3"/>
<path fill-rule="evenodd" d="M735 560.5h61.7v-2.2H735v2.2Z" class="g2_3"/>
<path fill-rule="evenodd" d="M680.3 826.4H794.9v-2.2H680.3v2.2Z" class="g2_3"/>
</svg>