<svg viewBox="0 0 909 1286" version="1.1" xmlns="http://www.w3.org/2000/svg">
<defs>
<style>
.g0_2{fill:#000;}
</style>
</defs>
<path fill-rule="evenodd" d="M675 134.2h97.2v-2H675v2Z" class="g0_2"/>
<path fill-rule="evenodd" d="M259.7 162.5H772.2v-2.1H259.7v2.1Z" class="g0_2"/>
<path fill-rule="evenodd" d="M679.6 190.3h92.6v-1.8H679.6v1.8Z" class="g0_2"/>
<path fill-rule="evenodd" d="M698.5 247.3h73.7v-2H698.5v2Z" class="g0_2"/>
<path fill-rule="evenodd" d="M289 643.6H772.2v-2H289v2Z" class="g0_2"/>
<path fill-rule="evenodd" d="M420.3 698.8h71.9v-1.1H420.3v1.1Z" class="g0_2"/>
<path fill-rule="evenodd" d="M673.7 869.8h98.5v-2H673.7v2Z" class="g0_2"/>
<path fill-rule="evenodd" d="M128.9 911.5h.8v-.8h-.8v.8Z" class="g0_2"/>
<path fill-rule="evenodd" d="M128.9 911.5h.8v-.8h-.8v.8Z" class="g0_2"/>
<path fill-rule="evenodd" d="M129.7 911.5H542.8v-.8H129.7v.8Z" class="g0_2"/>
<path fill-rule="evenodd" d="M542.8 911.5h.7v-.8h-.7v.8Z" class="g0_2"/>
<path fill-rule="evenodd" d="M543.5 911.5H751.1v-.8H543.5v.8Z" class="g0_2"/>
<path fill-rule="evenodd" d="M751.1 911.5h.7v-.8h-.7v.8Z" class="g0_2"/>
<path fill-rule="evenodd" d="M751.1 911.5h.7v-.8h-.7v.8Z" class="g0_2"/>
<path fill-rule="evenodd" d="M128.9 948.5h.8v-37h-.8v37Z" class="g0_2"/>
<path fill-rule="evenodd" d="M542.8 948.5h.7v-37h-.7v37Z" class="g0_2"/>
<path fill-rule="evenodd" d="M751.1 948.5h.7v-37h-.7v37Z" class="g0_2"/>
<path fill-rule="evenodd" d="M128.9 949.2h.8v-.7h-.8v.7Z" class="g0_2"/>
<path fill-rule="evenodd" d="M129.7 949.2H542.8v-.7H129.7v.7Z" class="g0_2"/>
<path fill-rule="evenodd" d="M542.8 949.2h.7v-.7h-.7v.7Z" class="g0_2"/>
<path fill-rule="evenodd" d="M543.5 949.2H751.1v-.7H543.5v.7Z" class="g0_2"/>
<path fill-rule="evenodd" d="M751.1 949.2h.7v-.7h-.7v.7Z" class="g0_2"/>
<path fill-rule="evenodd" d="M128.9 1023h.8V949.2h-.8V1023Z" class="g0_2"/>
<path fill-rule="evenodd" d="M542.8 1023h.7V949.2h-.7V1023Z" class="g0_2"/>
<path fill-rule="evenodd" d="M751.1 1023h.7V949.2h-.7V1023Z" class="g0_2"/>
<path fill-rule="evenodd" d="M128.9 1023.7h.8v-.7h-.8v.7Z" class="g0_2"/>
<path fill-rule="evenodd" d="M129.7 1023.7H542.8v-.7H129.7v.7Z" class="g0_2"/>
<path fill-rule="evenodd" d="M542.8 1023.7h.7v-.7h-.7v.7Z" class="g0_2"/>
<path fill-rule="evenodd" d="M543.5 1023.7H751.1v-.7H543.5v.7Z" class="g0_2"/>
<path fill-rule="evenodd" d="M751.1 1023.7h.7v-.7h-.7v.7Z" class="g0_2"/>
<path fill-rule="evenodd" d="M128.9 1060.7h.8v-37h-.8v37Z" class="g0_2"/>
<path fill-rule="evenodd" d="M542.8 1060.7h.7v-37h-.7v37Z" class="g0_2"/>
<path fill-rule="evenodd" d="M751.1 1060.7h.7v-37h-.7v37Z" class="g0_2"/>
<path fill-rule="evenodd" d="M128.9 1061.5h.8v-.8h-.8v.8Z" class="g0_2"/>
<path fill-rule="evenodd" d="M129.7 1061.5H542.8v-.8H129.7v.8Z" class="g0_2"/>
<path fill-rule="evenodd" d="M542.8 1061.5h.7v-.8h-.7v.8Z" class="g0_2"/>
<path fill-rule="evenodd" d="M543.5 1061.5H751.1v-.8H543.5v.8Z" class="g0_2"/>
<path fill-rule="evenodd" d="M751.1 1061.5h.7v-.8h-.7v.8Z" class="g0_2"/>
<path fill-rule="evenodd" d="M128.9 1098.3h.8v-36.8h-.8v36.8Z" class="g0_2"/>
<path fill-rule="evenodd" d="M542.8 1098.3h.7v-36.8h-.7v36.8Z" class="g0_2"/>
<path fill-rule="evenodd" d="M751.1 1098.3h.7v-36.8h-.7v36.8Z" class="g0_2"/>
<path fill-rule="evenodd" d="M128.9 1099.1h.8v-.8h-.8v.8Z" class="g0_2"/>
<path fill-rule="evenodd" d="M129.7 1099.1H542.8v-.8H129.7v.8Z" class="g0_2"/>
<path fill-rule="evenodd" d="M542.8 1099.1h.7v-.8h-.7v.8Z" class="g0_2"/>
<path fill-rule="evenodd" d="M543.5 1099.1H751.1v-.8H543.5v.8Z" class="g0_2"/>
<path fill-rule="evenodd" d="M751.1 1099.1h.7v-.8h-.7v.8Z" class="g0_2"/>
<path fill-rule="evenodd" d="M128.9 1135.9h.8V1099h-.8v36.9Z" class="g0_2"/>
<path fill-rule="evenodd" d="M542.8 1135.9h.7V1099h-.7v36.9Z" class="g0_2"/>
<path fill-rule="evenodd" d="M751.1 1135.9h.7V1099h-.7v36.9Z" class="g0_2"/>
<path fill-rule="evenodd" d="M128.9 1136.6h.8v-.7h-.8v.7Z" class="g0_2"/>
<path fill-rule="evenodd" d="M129.7 1136.6H542.8v-.7H129.7v.7Z" class="g0_2"/>
<path fill-rule="evenodd" d="M542.8 1136.6h.7v-.7h-.7v.7Z" class="g0_2"/>
<path fill-rule="evenodd" d="M543.5 1136.6H751.1v-.7H543.5v.7Z" class="g0_2"/>
<path fill-rule="evenodd" d="M751.1 1136.6h.7v-.7h-.7v.7Z" class="g0_2"/>
<path fill-rule="evenodd" d="M128.9 1173.7h.8v-37.1h-.8v37.1Z" class="g0_2"/>
<path fill-rule="evenodd" d="M128.9 1174.4h.8v-.7h-.8v.7Z" class="g0_2"/>
<path fill-rule="evenodd" d="M128.9 1174.4h.8v-.7h-.8v.7Z" class="g0_2"/>
<path fill-rule="evenodd" d="M129.7 1174.4H542.8v-.7H129.7v.7Z" class="g0_2"/>
<path fill-rule="evenodd" d="M542.8 1173.7h.7v-37.1h-.7v37.1Z" class="g0_2"/>
<path fill-rule="evenodd" d="M542.8 1174.4h.7v-.7h-.7v.7Z" class="g0_2"/>
<path fill-rule="evenodd" d="M543.5 1174.4H751.1v-.7H543.5v.7Z" class="g0_2"/>
<path fill-rule="evenodd" d="M751.1 1173.7h.7v-37.1h-.7v37.1Z" class="g0_2"/>
<path fill-rule="evenodd" d="M751.1 1174.4h.7v-.7h-.7v.7Z" class="g0_2"/>
<path fill-rule="evenodd" d="M751.1 1174.4h.7v-.7h-.7v.7Z" class="g0_2"/>
</svg>