<svg viewBox="0 0 1466 825" version="1.1" xmlns="http://www.w3.org/2000/svg">
<defs>
<clipPath id="c0_101"><path d="M-.2 825.3V-.2H1467V825.3Z"/></clipPath>
<clipPath id="c1_101"><path d="M1343.9 529.1V456.4H1452v72.7Z"/></clipPath>
<clipPath id="c2_101"><path d="M1346.3 621.3V549.7h102.9v71.6Z"/></clipPath>
<clipPath id="c3_101"><path d="M1346.4 716.6V641.9h103v74.7Z"/></clipPath>
<clipPath id="c4_101"><path d="M1353 825V744.6h96.2V825Z"/></clipPath>
<style>
.g0_101{fill:#F00;}
</style>
</defs>
<image clip-path="url(#c0_101)" preserveAspectRatio="none" x="0" y="-7" width="1467" height="840" href="img/1.jpg"/>
<image clip-path="url(#c1_101)" preserveAspectRatio="none" x="1344" y="457" width="108" height="72" href="img/2.jpg"/>
<image clip-path="url(#c2_101)" preserveAspectRatio="none" x="1347" y="550" width="102" height="71" href="img/3.jpg"/>
<image clip-path="url(#c3_101)" preserveAspectRatio="none" x="1347" y="642" width="102" height="74" href="img/4.jpg"/>
<image clip-path="url(#c4_101)" preserveAspectRatio="none" x="1353" y="745" width="96" height="80" href="img/5.jpg"/>
<path d="M685.1 338.7l.1-.1l-.1-.5V338c-.1-.3-.4-.6-.7-.6h-.1c-.4-.1-.8 .2-.9 .7c-.1 .4 .2 .9 .6 1c.4 .1 .9-.1 1.1-.5v-.1c.1-.4 0-.9-.3-1.2c-.3-.3-.7-.5-1.2-.3c-.4 .1-.7 .5-.8 .9l-.1 1.3v-.1l-.7 3.6l.2-.6l-1.9 2.5v-.1l-2.4 2.7l-.1 .2l-2.1 3.4l-2.4 3.7l-.1 .2l-2 4.9l-2.2 5.1h-.1l-2.3 5.8v-.1l-3.4 6.2v-.1l-3.5 6l-3.5 6.5l-3.6 6.5l-.1 .1l-3 6.5l-3.4 6.4v.1l-3.3 6.5V415l-3.6 6.2l.1-.1l-4 5.8l-4 5.7l-4.1 5.8h.1l-3.9 5.2l-3.6 4.9l-3.2 4.3v-.1l-2.8 3.2l.2-.1l-2.3 2l-.2 .2l-1.4 1.8l-.1 .1l-.6 1l.1-.2l-.5 .5c-.3 .3-.4 .6-.4 1v.5c.1 .7 .8 1.2 1.5 1.2c.7-.1 1.3-.6 1.3-1.3l.1-1.1v.1l.2-1.5v.1l.4-2.3l-.1 .2l.8-2.3h-.1l.8-2.1l.9-2.1l-.1 .1l.9-1.7v-.1l.7-1.7h.1l.5-1.4l.4-1.1l-.2 .3l.4-.5c.1-.2 .2-.4 .2-.6l.2-.7l-.7 1h.1l-1.8-.1c.7 .5 1.5 .5 2.1-.1c.6-.5 .6-1.4 .1-2l-.1-.2l.2 .3l-.1-.1c-.2-.4-.5-.6-.9-.7v-.1h-.1c-.7-.2-1.4 .1-1.8 .7l-.1 .2l-.2 .5l-.3 1.2v.2l-.3 3.7v.4l.3 2c.1 .3 .2 .5 .3 .7l1.5 1.9l-.1-.1l1.1 1.7h.1l1 1.4l.3 .3l1.8 1.5h-.1l1.4 1.1l.3 .3l1.5 .7l.5 .1l1.8 .3h.4l1.3-.2c.3 0 .6-.1 .8-.3l1.1-.9h-.1l1.3-1l.4-.4l1.3-1.9l.2-.2l1.3-2.5l.1-.3l1.3-4.3c.2-.8-.3-1.5-1-1.7c-.7-.3-1.5 .2-1.7 .9l-1.3 4.3l.2-.4l-1.6 2.5l.1-.2l-1.5 1.9l.3-.3l-1.4 1.1l-1.1 .9l.9-.4l-1.2 .1h.3l-1.8-.2l.6 .1l-1.5-.7l.3 .2l-1.4-1.1l-1.7-1.5l.2 .3l-1-1.4l-1.1-1.6l-.1-.1l-1.4-1.8l.3 .7l-.3-2.1v.5l.3-3.7v.2l.2-1.3v.4v-.2l-1 .9h.1v-.1l-1.2-.1h.1l-.3-.1l.2 .1c.6 .5 1.5 .4 2.1-.1c.5-.6 .5-1.5-.1-2.1c-.5-.6-1.4-.7-2.1-.1l-.3 .3v.1c-.2 .2-.3 .4-.3 .7v.6l.2-.6l-.4 .5l-.1 .2l-.4 1.1v.1l-.5 1.4v-.1l-.7 1.7v-.1l-.8 1.7l-.1 .1l-.8 2.2l-.8 2.1l-.1 .1l-.7 2.3v.2l-.4 2.3l-.2 1.6l-.1 1.1c0 .7 .5 1.4 1.3 1.4c.7 .1 1.4-.4 1.5-1.1v-.5l-.3 .9l.5-.5l.1-.2l.7-1l-.1 .1l1.4-1.8l-.1 .2l2.2-2.1l.1-.1l2.8-3.2v-.1l3.2-4.3l3.7-4.9l3.8-5.2l4.1-5.9l3.9-5.7l4-5.8l.1-.1l3.6-6.2l.1-.1l3.2-6.5v.1l3.4-6.5v-.1l3.1-6.5l3.5-6.5l3.6-6.4l3.4-6h.1l3.4-6.1v-.2l2.4-5.8l2.3-5.1l2-4.9l-.1 .2l2.3-3.8l2.2-3.4l-.2 .2l2.4-2.7h.1l1.9-2.6l.2-.5l.7-3.6v-.1l.1-1.2l-.4 .7l-.5 .2h.1l-.7-.2l.1 .1c.3 .2 .6 .3 1 .1h.1c.1-.1 .2-.2 .2-.4Z" class="g0_101"/>
<path d="M563.6 479.7l-3.2-3.6l.2 .5v-.2l-.2 .4l.2-.2c.2-.3 .2-.6 0-.9c-.1-.3-.5-.5-.8-.5c-.4 .1-.7 .3-.8 .6v.3c-.1 .2-.1 .5 .1 .8c.1 .2 .4 .3 .7 .4h.3l-.4-.1l.3 .1c.3 .2 .7 .2 1-.1c.4-.2 .5-.6 .3-1c-.1-.4-.4-.6-.8-.7h-.4c-.5 0-.9 .4-1 .9c0 .5 .3 1 .8 1l.1 .1l-.8-.9v.3l.1 .9v.3l.4 1.4l.9 2.7h-.1l.9 3.1v-.1l.8 3.8v.1l1.3 4.2l-.1-.1l.9 3.9l.9 4.3l.9 4.3v-.1l.6 4.4v-.1l.3 3.9l.3 3.2h-.1l.2 2.5v.1l.2 2v-.1l.1 1.3l.1 .2l.2 .7v.3l.1 .2c.3 .5 .8 .8 1.3 .7c.6 0 1.1-.4 1.2-.9c.2-.5 0-1.1-.4-1.4l-.1-.1l.4 .6l-.3-.9v.1l-.2-1.2v.2l-.1-1.9c0-.5-.4-.9-.9-.9c-.5 0-.9 .4-.9 .9l-.1 1.9v2.2l.1-.3l-.1 .1c-.1 .5 .1 1 .5 1.4c.4 .3 .9 .3 1.4 .1c.5-.2 .8-.6 .8-1.1v-.6l-.2-.7v.1l-.1-1.3l-.2-1.9v.1l-.1-2.6l-.3-3.2l-.4-3.9v-.1l-.6-4.4v-.1l-1-4.2v-.1l-.9-4.2v-.1l-1-3.9v-.1l-1.3-4.1v.1l-.9-3.8v-.1l-1-3v-.1l-.9-2.7l-.5-1.4v.3l-.1-1l-.1-.4c-.1-.5-.6-.9-1.1-.8h-.1c-.5 .1-.8 .6-.8 1.1c.1 .5 .5 .9 1 .9l.4-.1c.4 0 .8-.3 .9-.7c.1-.5-.2-.9-.6-1.1l-.3-.1l-.4-.1h-.3c-.5 .1-.9 .5-.9 1c0 .5 .4 .9 .9 .9c.5 0 .9-.4 .9-.9l.1-.3c0-.3-.2-.6-.5-.8c-.2-.1-.6-.1-.9 0c-.2 .2-.4 .5-.4 .8v.3c0 .2 .1 .4 .2 .5l.2 .2l3.4 3.4c.2 .2 .6 .2 .8 0c.2-.2 .2-.6 0-.8Z" class="g0_101"/>
<path d="M559.7 480.9l-.1 .2c-.1 .5 0 .9 .4 1.2c.4 .2 .9 .1 1.2-.2l.1-.2c.3-.3 .4-.7 .2-1.1l-.4-.9l.1 .6l.2-1.2v-.4l-.2-1.3l-.1 .5l.4-1.1v-.1l.2-1.1l-.2 .5l.7-.9l.9-1.3l.9-1.3l-.2 .2l1.5-1.2l.2-.2l.8-1.1l-.2 .1l.9-.9l-.1 .1l.9-.7l.9-.7l-.6 .2h1.6l-.6-.2l.9 .6l-.3-.3l.9 1.1v-.1l.8 1.3l-.1-.2l.6 1.6h.1l.9 2.1l-.1-.2l.5 1.9v.1l.8 2.1l-.1-.2l.3 2.1v-.2v4.5l.2-.7l-.8 1.3l-.1 .4l-.5 1.7l.5-.7l-1.2 .9h.1l-1.2 1h-.1l-1.2 1.1l.3-.2l-1.3 .7l-.1 .1l-.8 .6l-.4 .3l-.3 .5c-.2 .4-.3 .8-.2 1.1c.1 .4 .3 .7 .6 .9l.1 .1c.6 .3 1.3 .2 1.8-.3c.4-.5 .4-1.3 0-1.8c-.4-.5-1.2-.7-1.8-.3c-.7 .3-.9 1.2-.5 1.8c.3 .7 1.1 .9 1.8 .6l.4-.2l-.4 .1h.4h-.4l1.1 .1h.1l1.5 .2H574l1.3-.3l1.3-.2h-.2H578h-.2l1.6 .3h-.1l2.1 .5h-.2l2 .7v-.1l1.5 .7l-.1-.1l1.3 .7l-.2-.1l1.2 .9l-.2-.2l1 1l-.1-.1l.7 1l-.2-.3l.6 1.3l-.1-.1l.4 1.6v-.4l-.1 1.9l.1-.3l-.4 2.3v-.1l-.7 2.9l.1-.3l-1.2 2.7l.2-.4l-2.2 2.5l.1-.1l-2.4 2.4l.3-.2l-2.7 1.7h.1l-2.8 1.5l.2-.1l-2.7 1l.3-.1l-2.8 .3h.2l-2.7-.1h.3l-2.5-.4l.4 .1l-2-1.1l.2 .2l-1.5-1.6c-.4-.5-1.1-.5-1.6-.1c-.4 .4-.5 1.1-.1 1.6l1.4 1.7l.2 .2l1.8 1.5l.5 .3l2.5 .6l.2 .1l2.7 .2h.3l2.9-.3h.3l2.8-1l.2-.1l2.8-1.6h.1l2.7-1.8l.3-.2l2.4-2.4V514l2.2-2.5l.2-.4l1.2-2.7l.1-.3l.6-3V505l.3-2.2l.1-.2l-.1-1.9v-.4l-.5-1.6v-.1l-.6-1.3l-.1-.3l-.8-1l-.1-.1l-.9-1.1l-.3-.2l-1.2-.8l-.1-.1l-1.4-.7l-.1-.1l-1.5-.6h-.1l-2-.7H582l-2-.5h-.1l-1.6-.3l-.3-.1h-1.6l-.3 .1l-1.3 .2l-1.3 .3h.3l-1.7-.1h.1l-1.6-.1h.1l-1.1-.2h-.3l-.4 .1h-.4l-.4 .2c-.5 .2-.9 .6-.9 1.2c0 .5 .2 1 .7 1.3c.6 .3 1.3 .2 1.7-.3c.5-.4 .5-1.1 .2-1.7v1.5l.3-.5l-.3 .3l.7-.5l-.1 .1l1.2-.7l.3-.2l1.2-1.1l1.1-.9l1.2-1c.2-.2 .3-.4 .4-.7l.4-1.8l-.1 .4l.8-1.3c.1-.2 .2-.5 .1-.7v-4.7l-.4-2.1v-.2l-.8-2.2l.1 .1l-.6-1.9l-.1-.2l-1-2.1v.1l-.6-1.5l-.2-.3l-.9-1.2v-.1l-1-1.2l-.3-.2l-1-.5l-.5-.2H568c-.3 .1-.5 .1-.7 .3l-1 .7l-.9 .7l-.1 .1l-.9 .9l-.1 .2l-.8 1.1l.2-.2l-1.4 1.2l-.2 .3l-.9 1.3l-.9 1.3h.1l-.7 .9l-.2 .5l-.1 1v-.1l-.3 1.1l-.1 .4l.2 1.4V479l-.2 1.1c0 .3 .1 .5 .2 .7l.5 .9l-.2-.4l.1 .2c0 .5 .3 .8 .7 .9c.4 0 .8-.2 1-.5c.2-.4 .1-.9-.2-1.1l-.3-.2c-.1-.2-.4-.2-.6-.2c-.2 .1-.4 .3-.5 .5Z" class="g0_101"/>
<path d="M518.5 495.6l-2.8-.1c-.3-.1-.7 .2-.8 .5v.2c-.1 .2-.1 .4 0 .6c.1 .2 .3 .4 .5 .5l.8 .2l-.3-.1l.6 .3l.1 .1l1.7 .8l1.6 .7l-.4-.3l.6 .8l.3 .2l1.1 .8l-.4-.4l.4 .8V501l.3 1.1V502l.4 1.6l-.1-.3l.1 1.5v.1l.1 2.1v-.2v1.7v-.2l-.3 1.3l.1-.1l-.5 1.6l.6-.9l-1.1 .8l.2-.1l-1.6 .7l.1-.1l-1.3 .6l.2-.1l-1.6 .4h.1l-1.5 .2h.4l-1.3-.2l.2 .1l-1.7-.6l.5 .4l-1.2-1.9c-.3-.5-1-.6-1.4-.3c-.5 .3-.6 .9-.4 1.4l1.2 2l.4 .4l1.6 .8l.2 .1l1.3 .4l.6 .1l1.5-.2h.1l1.6-.3l.3-.1l1.3-.5l1.5-.7l.2-.2l1.2-.7c.2-.2 .4-.5 .5-.8l.5-1.6v-.1l.2-1.3l.1-.2v-1.9l-.3-2.1v.1l-.1-1.5v-.3l-.5-1.5v-.1l-.4-1.1l-.1-.2l-.5-.7l-.4-.4l-1.2-.8l.2 .2l-.7-.7l-.4-.3l-1.6-.6l-1.7-.6h.1l-.6-.3l-.3-.1l-.8-.1l.7 .6l-.1-.2c-.1-.4-.5-.6-.9-.5c-.4 .1-.7 .4-.6 .8c0 .4 .4 .7 .8 .7l2.8-.1c.3 0 .6-.3 .6-.6c0-.4-.3-.6-.6-.7Z" class="g0_101"/>
<path d="M515 476.1l-.1 .5l-.1 .3v.5l.1-.2l-.1 .5v.8l.1-.7l-.1 .3l1.1-.8h-.3l.9 .4l-.3-.3l-.1-.1l-1.1-.8c-.6-.4-1.3-.3-1.7 .2c-.4 .5-.3 1.3 .2 1.7l1.1 .8l-.3-.2l.3 .3c.2 .4 .6 .6 1 .6h.3c.5 0 1-.3 1.3-.8l.1-.3c.1-.2 .1-.4 .1-.6l-.1-.4v.3l.1-.5v-.4l-.1-.5l-.3-.6l-.3-.4c-.2-.3-.6-.4-1-.3c-.3 .1-.6 .4-.7 .7Z" class="g0_101"/>
<path d="M490.1 473.2l-.4 .7l-.1 .1l-.5 1.1c-.1 .2-.1 .5-.1 .7l.2 1.6l.1 .3l.7 1.9v.1l1.3 3.1l.1 .1l1.6 3.3v-.1l1.3 3.3l-.1-.1l1 3.2l.6 2.3l.1 .1l.6 2l.1 .1l.8 1.8l-.1-.1l.5 1.5v.1l.4 1.2v-.1l.2 1.1v-.1l.1 .6c0 .6 .5 1.1 1.2 1.1c.6 0 1.2-.5 1.2-1.1v-2.2l-.3-1.3v-.1l-.5-1.6l-.1-.2l-.8-1.8v.1l-.7-2l.1 .1l-.7-2.3l-.1-.1l-1-3.1v-.1l-1.4-3.3l-.1-.1l-1.6-3.2l-1.4-3.1l.1 .1l-.8-2l.1 .2l-.3-1.6v.4l.1-1.2l.1-.2l-.1-.8c0-.3-.2-.6-.5-.7c-.4-.1-.7 0-.9 .3Z" class="g0_101"/>
<path d="M475.9 452.6l-1.3 .7l.1-.1l-2 .8c-.2 .1-.3 .2-.5 .3l-1.2 1.5l.1-.1l-1.9 1.6l-.1 .1l-1.9 2.1l-.1 .2l-1.8 2.5v-.1l-2.1 2.8l.1-.1l-2.2 2.4l-.1 .1l-1.6 2.1l.2-.2l-2 1.6l.2-.1l-1.1 .7c-.4 .2-.6 .6-.6 1.1l-.1 .8v.9c.1 .4 .3 .8 .6 1l.7 .6l1.3 1l1.2 1l.2 .1l1.7 1.1l1.9 1.3h.1l2.1 1.4l-.1-.1l1.9 1.4l-.2-.1l1.8 1.8h-.1L471 487l-.1-.1l1.4 2.2l-.1-.2l.9 2.3l-.1-.3l.3 2.1v-.2l.1 1.9v-.3L473 496l.1-.1l-.7 1.7v.6l.2 2v-.1l-.1 2.1l.1-.5l-.7 2.2l-.1 .1l-.5 2.3l.2-.5l-1.6 2.2l.2-.2l-1.8 1.9l-.2 .2l-1.1 1.9h.1l-1.2 1.7l-1 1.4v.2l-.8 1.4l-.1 .2l-.5 1.4l-.1 .2l-.3 1.3l-.1 .2l-.1 1.4V521l-.3 1.3l-.2 1.2L462 525l.3-.6l-.6 .8l-.3 .5l-.4 1.2l-.5 1.3l.3-.5l-.8 .7l-.2 .2l-.9 1.3l.6-.5l-1.4 .6l.5-.1l-2 .2h-.4l-1.9 .7l.4-.1l-2.1 .1h.1l-1.9-.1h.2l-1.6-.5c-.5-.2-1.1 0-1.3 .5c-.2 .5 0 1.1 .5 1.3l1.7 .7l.1 .1l1.9 .5h.2l2.1 .2h.5l2-.6l-.3 .1l2-.1l.4-.1l1.5-.5c.2-.1 .5-.3 .7-.5l.9-1.2l-.1 .1l.8-.7c.1-.2 .3-.4 .4-.6l.5-1.3l.1-.1l.4-1.3l-.3 .5l.7-.8c.1-.2 .2-.4 .3-.7l.3-1.5l.3-1.2l.3-1.3v-.2l.2-1.4l-.1 .3l.4-1.3l-.1 .1l.6-1.4l-.1 .1l.7-1.4l-.1 .2l1-1.5l1.2-1.8l1.1-1.9l-.2 .2l1.7-1.8l.1-.2l1.6-2.2l.2-.6l.5-2.2l-.1 .1l.8-2.1v-2.8l-.2-2l-.1 .6l.6-1.7v-.2l.4-1.6v-.4l-.1-1.9v-.1l-.3-2.1l-.1-.3l-.9-2.3l-.1-.2l-1.4-2.3l-.1-.1l-1.9-2.3v-.1l-1.8-1.9l-.2-.1l-1.9-1.4l-.1-.1l-2.1-1.3l-1.9-1.3l-1.8-1.2l.2 .1l-1.2-1l-1.3-1.1v.1l-.7-.7l.5 1.1l-.1-.7v.2l.1-.9l-.6 1.1l1.1-.8h.1l1.9-1.6l.2-.3l1.7-2.1l-.1 .1l2.1-2.4l.1-.1l2.1-2.8l1.8-2.5v.1l1.9-2.1l-.2 .1l1.9-1.7l.2-.2l1.1-1.5l-.3 .3l1.8-1l.3-.3l.9-1c.3-.3 .3-.8 0-1.1c-.2-.4-.7-.5-1-.3Z" class="g0_101"/>
<path d="M431 500.2l-.5 .8l-.1 .3l-.3 1v-.1l-.7 1.8l.2-.3l-1.4 1.9l-.2 .2l-.9 1.9l-1 1.8l-.1 .2l-.4 1.4v1.1l.1 .1v.4l.1 .4c.1 .3 .4 .7 .8 .8l1.1 .6c.3 .1 .6 .1 .8 .1l1.1-.2h.1l2.2-.5l.4-.1l1.9-1c.2-.1 .4-.3 .5-.5l1.1-1.6l-.3 .3l1.8-1.3l.4-.5l.7-1.3v-.1l.5-1.3v.1l.4-.8c.1-.3 .1-.7 0-1l-.4-1l-.2-.3l-1-1.4l-1-1.5l.1 .2l-.8-2l-.8-2l-1.3-3.1c-.2-.5-.8-.8-1.3-.5c-.5 .2-.8 .8-.6 1.3l1.2 3.1v-.1l.6 2.1l.7 2.1l.1 .3l1 1.5l1 1.5l-.2-.2l.4 1v-1l-.3 .7v.1l-.5 1.3l.1-.2l-.7 1.3l.3-.4l-1.7 1.3l-.3 .3l-1.2 1.7l.5-.5l-1.9 1l.3-.1l-2.3 .5h.1l-1.1 .1l.8 .2l-1.2-.6l.8 .9l-.1-.3v-.2h-.1v-.6l-.1 .5l.4-1.4l-.1 .3l.9-1.8l.9-2l-.1 .2l1.4-1.9l.1-.3l.7-1.8l.1-.1l.2-1l-.1 .3l.5-.8c.3-.6 .1-1.3-.4-1.7c-.6-.3-1.4-.2-1.7 .4Z" class="g0_101"/>
<path d="M426.7 474.3l-.5-.1c-.4-.1-.9 .2-1.1 .5l-2.1 3l-.2 .2l-.9 2.1l-.1 .2l-.8 2.9v-.2l-1.2 2.9l.1-.2l-1.5 2.6l.1-.2l-1.9 2.5l.4-.3l-2.2 1.1h.2l-2.9 1l.2-.1l-3.3 .7c-.5 .1-.8 .4-.8 .9c0 .4 .3 .8 .8 .9l3.3 .6c.3 0 .6 0 .8-.1l2.9-1.1l.3-.2l2.1-1.4l.3-.3l2-2.5l.1-.1l1.5-2.6l.1-.2l1.2-2.8v-.2l.9-2.9l-.1 .2l.9-2.1l-.1 .2l2-3.1l-.1 .1l.3-.4c.2-.2 .3-.6 .1-1c-.1-.3-.4-.5-.8-.5Z" class="g0_101"/>
<path d="M657 384.4l1-2.7v-.1l.6-2.5l.3-1.4l.3-1.3l-.3 .5l.3-.3l-.8 .2l.7 .2c.4 .1 .8-.1 1-.6c.2-.4 .1-.8-.3-1.1c-.3-.3-.8-.2-1.2 .1c-.2 .2-.3 .4-.4 .7v.6l.1-.3l-.5 1.4v.1l-.5 2v3.6v-.1V387l.2 4.5v-.1l.1 5v-.1l-.1 5.9v6.7v-.1l-.6 7.8l-.7 7.9l-1 8.8v-.1l-1.2 8.9l-1.6 9.1l-1.5 9.4v.1l-1.4 9.4l-1.6 9.5l-1.3 8.9v.1l-1 9.1l-.8 8v.1l-.5 7.5v-.1l-.8 6.5v-.1l-1 5.6v.2l-.1 5l.1-.1l-.2 4.2v.2l.2 2.8v-.1v2.2l.6-1.2l-.9 .7l-.3 .3l-.5 .6l1.3-.6h-1.4l.5 .1l-1.2-.5h.1l-1.5-.7l.1 .1l-2-1.3l.3 .2l-1.4-1.4h.1l-1.5-1.7l.1 .1l-1.5-2.2l.1 .1l-1.2-2v.1l-.6-1.5h-.1l-.4-.8l.1 .4V528c-.1-.5-.4-.8-.9-1c-.4-.2-.9-.1-1.2 .1c-.4 .2-.6 .6-.7 1.1v.3l1.4-1.3c-.7 0-1.3 .5-1.4 1.1v1.2c0 .3 .2 .7 .4 .9l2.2 2.2c.2 .2 .5 .3 .9 .4l1.4 .1h-.3l1.8 .4l.2 .1l1.7 .1l1.8 .2l-.2-.1l1.5 .4h1c.6-.1 1.1-.5 1.3-1.1c.2-.6-.1-1.2-.6-1.6c-.5-.3-1.2-.3-1.7 .1v.1c-.5 .4-.7 1.1-.4 1.7c.3 .6 1 .9 1.6 .7h.2c.6-.2 1-.7 1-1.3c0-.7-.4-1.2-1-1.4h-.2c-.6-.2-1.3 .1-1.6 .7c-.3 .6-.1 1.3 .4 1.7v.1c.5 .4 1.2 .4 1.7 0c.6-.4 .8-1 .6-1.6c-.3-.6-.9-1-1.5-1h-.6l.5 .1l-1.5-.4h-.2l-1.8-.2l-1.8-.1h.3l-1.8-.4h-.2l-1.4-.1l.9 .4l-2.2-2.2l.4 .9l-.1-.8v-.2c-.1-.7-.8-1.2-1.5-1.1c-.7 .1-1.3 .8-1.2 1.5c0 .7 .6 1.3 1.4 1.3c.4 0 .7-.2 1-.5c.3-.2 .4-.6 .4-1v-.3l-.9 1.3c.7-.3 1-1 .8-1.7c-.2-.7-1-1.1-1.6-.8c-.7 .2-1.1 .9-1 1.6l.1 .4l.2 .3l.4 .8V530l.6 1.5h.1l1.2 2v.1l1.4 2.2l.1 .1l1.5 1.8l1.4 1.5l.2 .2l2 1.3l.1 .1l1.4 .8h.2l1.2 .6l.5 .1l1.3 .1c.5 .1 1-.1 1.3-.5l.5-.6l-.2 .2l.8-.7c.4-.2 .6-.7 .6-1.2v-2.3l-.2-2.8v.2l.2-4.2v-5.1v.3l1-5.6l.8-6.5v-.1l.5-7.5l.8-8l.8-9.2v.1l1.4-8.9l1.4-9.5l1.4-9.5v.1l1.4-9.4l1.5-9.2l1.1-8.9v-.1l1-8.8l.6-7.9l.5-7.8v-6.8l.1-5.8v-.1l-.1-4.9v-.1l-.3-4.4v.1v-3.6l-.1-3.3v.3l.5-2l.4-1.4v-.9v.1v-.1c0-.2-.1-.5-.2-.7c-.2-.1-.4-.3-.7-.3h-.6c-.4 0-.7 .1-.8 .4l-.3 .4l-.1 .3v1.3v-.1l-.2 1.5l-.4 2.5v-.1l-.8 2.8c-.1 .2 .1 .5 .3 .5c.2 .1 .5 0 .6-.2Z" class="g0_101"/>
<path d="M571.4 564.4l-1.5-.2l.6 .9l.4-1.3l-.1 .2l.7-1l-.1 .1l.5-.4l.3-.3c.2-.2 .3-.6 .1-.9c-.2-.3-.5-.5-.9-.4c-.3 0-.6 .3-.6 .7v.2c0 .4 .3 .8 .7 .9c.5 0 .9-.3 1-.7c.1-.5-.2-.9-.7-1c-.4-.1-.8 0-1 .3l-.1 .2c-.2 .2-.2 .5-.2 .7l.1 .8v.2l.9 3.6v-.1l.7 3.3v.1l1.2 3.9v-.1l1 4.1l1.1 4v-.1l1 4.9v-.1l.4 2.9l.1 1.5l.2 1.5v.1l.9 4.9v.1l.9 4v-.4v1.9c0 .8 .6 1.4 1.4 1.5h.3c.5 0 .9-.2 1.2-.6c.3-.3 .4-.8 .2-1.2l-.5-1.4v-.2l-1-2c-.3-.6-1-.8-1.6-.5c-.6 .2-.9 .9-.6 1.5l.9 2.1l-.1-.3l.2 1.4c.1 .7 .7 1.2 1.3 1.2c.7 0 1.3-.4 1.4-1.1c.2-.6-.1-1.3-.7-1.5l-.3-.2l.8 1.4l.1-1.9v-.4l-1-4l.1 .1l-.9-5v.1l-.2-1.5l-.2-1.5l-.5-2.9v-.1l-1.2-4.9l-1.2-4h.1l-1.1-4l-.1-.1l-1.3-3.9v.1l-.8-3.2l-1-3.5l-.2-.8V562l-.1-.2v.6c.2-.3 .1-.6 0-.8l-.1-.2c-.2-.2-.4-.3-.7-.4c-.2 0-.5 .2-.7 .4l-.1 .3l.1-.1l-.5 .4l-.1 .1l-.7 1l-.1 .3l-.3 1.3c-.1 .3 0 .5 .1 .7c.1 .1 .3 .2 .5 .2h1.5c.3 0 .6-.3 .6-.6c0-.3-.2-.5-.5-.6Z" class="g0_101"/>
<path d="M555.2 558.8l-.7 .4c-.3 0-.5 .2-.6 .4l-.3 .6l-.2 .3l-.2 .5c-.1 .5 0 1 .3 1.4l.4 .4v.1l.6 .7l.3 .2l.7 .4c.2 .2 .5 .2 .9 .2l1.3-.2h.2l1.3-.3l.3-.1l2.6-1.3l2.7-1.6l3.6-2h-.1l4.3-2.3l4.1-2.3L581 552l4-1.8l3.7-1.6l-.1 .1l3-1.1l-.3 .1l2.7-.3h-.2h3.1l-.9-.3l.8 .5c.5 .4 1.1 .4 1.6 0c.6-.3 .8-.9 .7-1.5V546c-.2-.8-.8-1.3-1.5-1.3c-.8 0-1.4 .6-1.5 1.3c-.1 .7 .3 1.4 1 1.6l.4 .2c.8 .2 1.6-.2 1.9-.9c.3-.6 .1-1.5-.6-1.9l-.6-.4c-.5-.3-1-.3-1.4-.1c-.5 .1-.8 .5-1 1v.3l1.5-1.1l-1.8-.1h-.3l-1.5 .2c-.7 .1-1.2 .7-1.1 1.4c.1 .7 .7 1.2 1.4 1.1l1.5-.1h-.4l1.8 .4c.6 .1 1.2-.1 1.5-.6l.2-.3c.5-.7 .3-1.7-.4-2.1c-.7-.5-1.7-.3-2.1 .4c-.5 .7-.3 1.7 .4 2.1l.6 .5c.5 .3 1.2 .3 1.7 0c.6-.4 .8-1 .7-1.6c-.2-.7-.7-1.1-1.3-1.2l-.4-.1c-.5 0-1 .2-1.4 .5c-.3 .4-.4 1-.2 1.5v.1c.2 .7 .8 1.1 1.4 1.1c.7 0 1.3-.5 1.5-1.1c.2-.6-.1-1.3-.6-1.6l-.8-.5c-.2-.2-.5-.3-.9-.3h-1.3h.1h-1.8l-.2 .1l-2.7 .3l-.2 .1l-3.1 1l-.1 .1l-3.7 1.6l-4 1.8h-.1l-4.4 2.4l-4.1 2.2l-4.2 2.3l-.1 .1l-3.5 2l-2.7 1.6h.1l-2.6 1.3l.3-.1l-1.3 .3h.2l-1.4 .1l.9 .2l-.6-.4l.3 .3l-.6-.7l-.4-.4l.3 1.3l.1-.6v-.1l.2-.7l-.1 .4l.3-.7c.2-.4 .2-.8-.1-1.1c-.3-.3-.7-.4-1.1-.3Z" class="g0_101"/>
<path d="M510.5 588.2l-.5-.3l.2 .8l.6-1.4l-.1 .2l1.1-1.2l.7-.8l-.3 .2l1.2-.5l-.3 .1l1.4-.1h1.2h-.2l1 .2l-.3-.1l1.3 .5h-.1l1.2 .6l-.4-.3l1.2 1.4l.2 .3l1.5 1l-.5-.7l.6 2.2l-.1-.2l.2 2.3l.1-.5l-.6 2.5l-.1 .1l-.6 3.1l.2-.5l-1.5 2.3l.2-.3l-2.2 2.2l.2-.2l-2.4 1.7l.2-.2l-2.8 1.2l.5-.1l-2.7 .2h.3l-1.9-.3l.7 .4l-1.5-1.7c-.4-.5-1.2-.5-1.7-.1c-.5 .4-.5 1.2-.1 1.7l1.4 1.7c.2 .3 .4 .4 .7 .5l1.8 .5h.4l2.7-.1l.5-.1l2.8-1.1l.2-.1l2.5-1.6l.2-.2l2.3-2.2l.2-.2l1.5-2.3l.2-.5l.6-3.2v.1l.5-2.5l.1-.5l-.3-2.3l-.1-.2l-.6-2.2c-.1-.3-.3-.6-.6-.8l-1.5-1l.3 .2l-1.3-1.4l-.4-.3l-1.3-.5h-.1l-1.3-.4l-.3-.1h-1.2l-1.2 .1l-1.4 .2l-.3 .1l-1.1 .6l-.3 .3l-.7 .9l-1 1.2l-.1 .3l-.3 1.5c-.1 .2 0 .4 .1 .5c.1 .2 .3 .3 .4 .3h.7c.2 0 .4-.1 .5-.4c.1-.2 0-.4-.3-.5Z" class="g0_101"/>
<path d="M515.7 559.6l-.8 .1c-.5 0-.9 .3-1.2 .7c-.2 .4-.3 .8-.1 1.3v.2l.9-1.9l-.7 .3l1.1-.1l-.8-.3l.5 .3l-.7-.7h-.1l-1.7-1.5c-.4-.3-1.1-.3-1.5 .1c-.4 .5-.3 1.1 .1 1.5l1.6 1.6l-.3-.4l.3 .8c.1 .3 .3 .5 .5 .7l.7 .5c.4 .3 .9 .4 1.3 .3l.7-.3c.8-.2 1.2-.9 1.1-1.7v-.2c-.2-.8-.9-1.4-1.8-1.2c-.8 .1-1.4 .9-1.3 1.7c.1 .8 .9 1.4 1.7 1.3h.8c.5-.1 1-.5 1.2-1c.3-.5 .2-1.1-.1-1.5c-.3-.5-.9-.7-1.4-.6Z" class="g0_101"/>
<path d="M481.7 557.8l-1 1l-.1 .2l-.9 1.4c-.1 .2-.2 .4-.2 .7l.1 2.1v.1l.3 2.4l.1 .2l.8 2.9v.1l1 2.9h.1l.9 2.5v.2L484 577l.1 .1l1.6 2.3l1.6 2.2v.1l1.7 1.9l1.6 1.7v-.1l1.3 1.6l-.1-.1l1.2 1.5l-.3-.6l.2 1.1v-.1l.2 1.3c.1 .5 .6 .9 1.2 .9c.5-.1 1-.6 .9-1.2v-1.2v.3l.2-1.1c0-.3 0-.6-.2-.9l-1-1.6l-.1-.1l-1.2-1.6l-.1-.1l-1.6-1.7h.1l-1.7-1.9l.1 .1l-1.6-2.1l-1.6-2.2l.1 .2l-1.2-2.5l.1 .1l-1-2.5l-1.1-2.9v.1l-.8-2.9v.3l-.3-2.4v.1l-.1-2.1l-.1 .6l.6-1.4l.6-1.4c.2-.4 .1-.9-.3-1.2c-.4-.2-.9-.2-1.3 .2Z" class="g0_101"/>
<path d="M464.4 536.8l-.8 1.3l-1.1 1.9v.1l-1.2 2.4l-1.5 3.8l.1-.2l-2.3 3.8v-.1l-2.8 4.2l.1-.1l-3.2 3.9l.3-.2l-3.6 2.8l-.2 .1l-3 3.3h-.1l-2.5 2.8v.1l-2.2 2.5l-.2 .4l-1.1 2.4v.2l-.6 2l-.1 .6l.2 1.4l.2 .6l1.1 1.7l.3 .4l1.5 1.3l.2 .1l1.9 1l.2 .1l2.5 .9l.2 .1l2.7 .5l2.8 .5h.1l3 .4l-.1-.1l2.9 .6l2.4 .4l2.1 .4h-.1l1.6 .6l-.2-.1l1.1 .6l-.2-.2l.9 .8l-.3-.4l.4 .9l-.1-.5l.1 1l.1-.6l-.5 1.5l.1-.1l-.7 1.7l.1-.2l-1.6 2.5l-1.8 2.9l.2-.2l-2.8 2.8l-2.8 2.9l-2.7 3l-2.8 3l-.3 .3l-1.7 3.4h-.1l-1.7 3.6v.2l-1.1 3.1v.1l-.7 2.8l-.1 .3l-.1 2.5v.1l.1 2.2v.5l.6 2l.7 2.2l.6 1.8l.4 1.6v-.2l.2 1.6v-.4l-.2 1.2l.1-.3l-.5 1.5l.1-.2l-.6 1.3l.2-.4l-1 1.2l-1 1.3l.3-.2l-1.1 .9l-.1 .1l-1 .9l.3-.2l-1.1 .5l.5-.1l-1.6 .1h.4l-1.7-.4c-.7-.1-1.3 .3-1.5 1c-.1 .6 .3 1.3 .9 1.4l1.7 .5h.2l1.6 .1l.5-.1l1.2-.3l.4-.3l1.2-.8h-.1l1.2-.9l.3-.3l1-1.3l-.1 .1l1-1.2l.3-.3l.6-1.3V638l.5-1.4l.1-.3l.1-1.2v-.4l-.2-1.6v-.2l-.5-1.7l-.6-1.9l-.6-2.1l-.6-2.1v.5v-2.3v.1l.1-2.5l-.1 .3l.7-2.8v.2l1-3.1l-.1 .1l1.7-3.6v.1l1.7-3.4l-.2 .4l2.8-3l2.7-3l2.8-2.9l2.7-2.8l.2-.3l1.8-2.9l1.6-2.6l.1-.2l.7-1.7v-.2l.4-1.5l.1-.6l-.2-1l-.1-.5l-.5-.9l-.4-.4l-.9-.7l-.2-.2l-1.1-.6l-.3-.1l-1.7-.6h-.2L461 582l-2.5-.4l-2.8-.5h-.1l-3-.4l.1 .1l-2.8-.5l-2.7-.5h.2l-2.5-.9l.2 .1l-1.8-1l.2 .1l-1.5-1.3l.2 .3l-1-1.8l.2 .6l-.2-1.5l-.1 .6l.7-2l-.1 .1l1-2.4l-.2 .3l2.2-2.5l2.5-2.9v.1l3-3.2l-.1 .1l3.6-2.8l.2-.3l3.2-3.9v-.1l2.8-4.1l.1-.1l2.2-3.8l.1-.2l1.5-3.8v.1l1-2.5l.9-2l.1-.2l.2-1.5c.1-.5-.1-.9-.5-1c-.5-.2-.9 0-1.1 .4Z" class="g0_101"/>
<path d="M413.6 603.9l-5.4 2.6c-.2 .1-.4 .3-.6 .5l-1.3 2.5v.1l-1.1 2.3l-.1 .4l-.4 2.4v-.1l-.4 2.1v.3l.1 1.9v.1l.3 1.6c0 .2 .1 .4 .2 .6l.7 .8l.3 .4l.9 .5c.2 .1 .4 .2 .6 .2l1.3 .1h1.8l2.4-.4h.2l2.1-.8h.1l2-.8v-.1l1.8-.9c.2-.1 .4-.3 .5-.6l.5-1l.1-.1l.3-.9c.1-.3 .1-.6 0-.9l-.2-.9l-.1-.2l-.4-.8l-.1-.3l-.6-.9l-.1-.1l-.9-1.3H418l-1.3-1.5h.1l-1.4-1.8l-1.3-1.7l.1 .1l-1-1.6l-.2-.2l-1.3-1.2l-.1-.1l-1.5-1.2l-.1-.1l-1.8-1.1c-.5-.3-1.2-.2-1.5 .3c-.4 .5-.2 1.2 .3 1.5l1.7 1.2l-.2-.1l1.4 1.4l-.1-.1l1.2 1.4l-.1-.2l.9 1.6l.1 .1l1.2 1.7l1.4 1.8l.1 .1l1.3 1.5l1 1.2l-.1-.1l.7 1l-.1-.2l.4 .8l-.1-.1l.4 .9v-.8l-.4 .9l.1-.1l-.5 1l.6-.6l-1.8 .9h.1l-1.9 .8h.1l-2.2 .7l.3-.1l-2.4 .4h.2h-1.5h.1l-1.3-.2l.7 .3l-.9-.6l.3 .3l-.6-.9l.2 .6l-.2-1.5v.1l-.1-1.8v.3l.4-2.1l.4-2.4l-.1 .3l1-2.3l1.1-2.6l-.5 .5l5.2-3c.5-.2 .6-.8 .4-1.2c-.2-.5-.8-.7-1.3-.5Z" class="g0_101"/>
<path d="M401.6 592.5l.6 .5l-.4-1.2l-.6 2v-.1l-.9 2.3l.2-.3l-1.7 2.4l-.1 .2l-1.4 2.8l.3-.4l-2.3 2.3l.2-.2l-3 1.8l.3-.1l-3 1l.2-.1l-3.2 .4l.5 .1l-2.7-.8c-.6-.1-1.3 .2-1.5 .9c-.2 .6 .2 1.3 .8 1.5l2.7 .8l.4 .1l3.3-.3h.3l3.1-1l.3-.1l2.9-1.8l.3-.2l2.4-2.3l.3-.4l1.3-2.8l-.1 .1l1.6-2.4l.2-.3l.7-2.3l.1-.2l.4-2c0-.4 0-.7-.3-1c-.2-.3-.5-.4-.8-.4l-.8-.1c-.4 0-.8 .2-.9 .6c-.1 .3 0 .8 .3 1Z" class="g0_101"/>
<path d="M589.4 429.9l.2-.7v-.3l-.3-1.1l-.1-.3l-.3-.4l-.1-.1l-.3-.3c-.2-.2-.5-.3-.7-.3H587l-.5 .2l-.9 .5l.1-.1l-1.2 .6l-1.3 .5l-2 .5l-2.2 .6h.1l-2.8 .7l-3.3 .6l-3.2 .6h.1l-3.6 .6l-4.4 .8h.1l-5.1 .6l-5.7 .8h.1l-6.5 .7h-.1l-6.5 .9l-6.7 1l-7.8 1.1h-.1l-7.8 1.7h.1l-8.7 1.7l-8.9 1.6l-9.2 2l-9.9 1.7l-10 2l-10.3 2.1l-9.7 2l-9.4 2.2l-8.8 2.2h-.1l-8.4 2.6l-8.2 2.2l-.2 .1l-7.4 3l-7 2.9l-6.9 2.6l-.2 .1l-5.8 3l.1-.1l-6.2 2.4h-.1l-5.5 2.6l-.1 .1l-4.9 2.8l-4.7 3l-.1 .1l-3.9 3.2h-.1l-3.3 2.9h.1l-3.2 2.7l-.2 .1l-2.3 2.7v-.1l-2.3 2.6l-.3 .5l-1.4 3.3l-.1 .3l-.9 4.1l-.1 .2l-.4 4.4v5.3l.8 6l.8 6.2l.9 6.8v.1l1.9 8.2l1.5 8.5l-.1-.1l1.6 9.3l1.7 10.5v-.1l.7 10.1l.6 10.5l.8 10.8l1 10.7l1.3 10.3v.1l1.7 9.7l.1 .1l2.3 9.2l2.5 8.6v.1l2.9 7.7l.1 .1l3.2 7.2l3 6.4l.1 .2l3.1 4.9l3.2 4.7l.2 .2l2.7 2.8l.2 .2l2.6 2.1l.4 .2l3.1 1.5h.1l2.4 1l2.6 1l.1 .1l2.6 .8h-.1l2.2 .8h.1l2.4 .7l.2 .1l2.7 .4h.1l2.9 .2l.2-.1l3.9-.3v-.1l4.2-.6h.1l5.5-1.1V693l6.3-1.3l6.6-1.9l7.5-2.1h.1l7.6-2.7l8.4-3.1h-.1l9.6-3.3l9.6-3.4l10.8-3.3l11-3.2l11.1-3.4l11.5-3.4h-.1l11.5-3.1l11.4-3.4l11.1-3l11.3-2.7h.1l10.7-2.8l10.6-2.7v-.1l9.7-2.8l8.9-2.7h.1l7.9-2.7l7.2-2.7v.1l7.1-2.3h.2l6.3-2.6l5.7-2.4h.1l5.2-2.5h.1l4.4-2.4l.1-.1l4.1-2.7l.3-.2l3-3l.3-.3L663 612l.9-1.4l-.1 .1l1-1.4l.2-.6l1.9-7v-.1l1.7-7.5l.1-.2l1-8.8v-7.2l-.5-7v-.1l-.8-6.9v-.1l-1.6-7.3l-1.5-7v-.1l-1.9-7v-.1l-2-7.2l-1.9-6.7v-.1l-2.2-6.7l-2.5-6.4v-.1l-2.6-6l-.1-.2l-3-5.6l-3.1-5.5l-.1-.1l-3.6-5.3l-3.5-5h-.1l-3.5-4.7l-3.2-4.4l-2.4-3.5c-.5-.7-1.4-.9-2.1-.4c-.7 .5-.9 1.4-.4 2.1l2.5 3.5v.1l3.1 4.4l3.3 4.8l3.3 5.1l3.5 5.3v-.1l3.1 5.5l3 5.6l-.1-.2l2.6 6l2.4 6.4v-.1l2.2 6.7v-.1l1.9 6.7l2 7.2l1.8 7v-.1l1.6 7.1l1.5 7.2v-.1l.8 6.9v-.2l.5 7.1l-.1-.1v6.8l.1-.2l-1 8.8v-.2l-1.7 7.5v-.1l-1.9 7.1l.2-.5l-.9 1.4l-.9 1.5v-.1l-1.7 2.8l.3-.3l-3 2.9l.3-.2l-4.2 2.7h.2l-4.4 2.4l.1-.1l-5.2 2.5h.1l-5.8 2.4l-6.2 2.6l.1-.1l-7.2 2.3v.1l-7.2 2.6l-7.9 2.8l.1-.1l-8.9 2.8l-9.7 2.8h.1l-10.6 2.7l-10.8 2.9h.1l-11.4 2.6l-11.2 3.1l-11.4 3.3l-11.4 3.2H523l-11.4 3.4l-11.1 3.4l-11 3.2l-10.9 3.3h-.1l-9.6 3.5v-.1l-9.5 3.3l-8.4 3.1l-7.6 2.8l.1-.1l-7.4 2.1H436l-6.5 1.9l.1-.1l-6.2 1.4l-5.6 1.1h.1l-4.1 .6L410 692h.3l-2.9-.2h.2l-2.7-.3h.2l-2.4-.7h.1l-2.1-.8h-.1l-2.6-.9l.1 .1l-2.5-1.1v.1l-2.5-1.1l.1 .1l-3.1-1.5l.3 .2l-2.6-2.1l.1 .1l-2.7-2.8l.2 .2l-3.2-4.7l.1 .1l-3.1-4.9l.1 .1l-3-6.4l-3.3-7.1l.1 .1l-2.9-7.7v.2l-2.5-8.6v.1l-2.3-9.2v.1l-1.8-9.7v.1l-1.3-10.3v.1l-1.1-10.7v.1l-.7-10.8l-.7-10.5l-.7-10.1v-.2l-1.7-10.5l-1.6-9.3l-1.5-8.5l-1.8-8.2v.1l-1-6.8l-.8-6.2l-.8-6v.2v-4.9v.1l.4-4.5v.2l.9-4l-.1 .2l1.4-3.4l-.2 .5l2.3-2.6l2.4-2.7l-.2 .2l3.2-2.7l3.3-2.9h-.1l4-3.2l-.2 .1l4.7-3l-.1 .1l4.9-2.9l-.1 .1l5.5-2.7l-.2 .1l6.2-2.4h.2l5.8-3.1h-.1l6.9-2.6l7.1-2.9l7.3-3H415l8.3-2.2l8.5-2.7l-.1 .1l8.8-2.2h-.1l9.4-2.2l9.7-2l10.2-2.1l10.1-2l-.1 .1l9.9-1.8h.1l9.1-2l8.9-1.6l8.7-1.7l7.8-1.7l-.1 .1l7.8-1.2l6.7-.9l6.5-.9l6.5-.8l5.7-.8h-.1l5.1-.6h.1l4.4-.9v.1l3.5-.6h.1l3.2-.7l3.3-.7l2.8-.7h.1l2.1-.7l2-.8h.2l1.3-.6v-.1l1.2-.6l.2-.1l.8-.6l-.4 .2l.8-.1l-.6-.2l.3 .2l-.1-.1l.3 .4l-.1-.2l.5 .9l-.1-.1l.1 .7c.1 .3 .3 .5 .6 .5c.2 0 .5-.2 .5-.5Z" class="g0_101"/>
<path d="M406.9 506.3l-.5 .8l.6-.5l-1 .5l-.3 .1l-1.2 1h-.1l-1.6 1.3l.4-.2l-2.2 .9l-2.9 1.3l-4 1.5h.1l-5.1 1.4l-5.8 1.4l.2-.1l-7.5 1h.1l-7.1 .9l-7.6 .9l-7.8 .9l-6.9 .9l-6.8 .8h.2l-6.2 .3l-5.4 .2h.1l-4.3 .1l-3.6 .1h.1l-2.6-.1h.1l-1.9-.2h.4l-1-.3l.6 .4l-.5-.6l.4 1.7l.3-1l-.3 .5l.8-1l1.2-1.8l1.5-2.2l-.1 .1l1.7-2.2l1.7-2.3v-.1l1.7-2.4v-.1l1.5-2.4l-.3 .4l1.4-1.2l.1-.1l1.2-1.2l.2-.2l.3-.5c.5-.7 .3-1.7-.5-2.1c-.7-.5-1.6-.3-2.1 .4c-.5 .7-.3 1.7 .4 2.1l.2 .2c.6 .4 1.3 .4 1.9 0c.5-.5 .7-1.2 .5-1.8c-.2-.7-.9-1.1-1.6-1.1h-.5c-.3 0-.7 .1-.9 .3l-1 .8l-1.5 1.1l.2-.1l-1.8 1l-.4 .4l-1.8 2.3l.1-.1l-1.8 1.9l-.3 .5l-1 2.3v.1l-.9 2.1l-.1 .5l-.1 1.5v.3l.1 1.5l.1 .5l.7 1.6l.1 .2l1 1.7l.1 .1l1.1 1.6l.1 .2l1.3 1.5l.2 .2l2 1.5v.1l1.6 1.3h.1l2.1 1.4h-.1l2.3 1.6l2.1 1.5l-.2-.2l1.6 1.7l1.9 2c.5 .6 1.4 .6 1.9 .1c.6-.5 .7-1.4 .1-1.9l-1.8-2.1h.1l-1.5-1.8l-.2-.2l-2.1-1.7l-2.2-1.7l-2.1-1.4h.1l-1.6-1.3l-1.9-1.5l.2 .2l-1.4-1.6l.2 .2l-1.1-1.6v.1l-1-1.7l.1 .2l-.6-1.6l.1 .5l-.1-1.5v.3l.1-1.5l-.1 .4l.8-2.1l1-2.3l-.3 .5l1.8-1.9l.1-.1l1.7-2.3l-.4 .4l1.8-1.1l.1-.1l1.4-1.2v.1l.9-.8l-.8 .3h.6c.7-.1 1.2-.6 1.3-1.3c.2-.7-.2-1.4-.8-1.7l-.2-.1c-.7-.4-1.6-.2-2.1 .5l-.3 .5l.3-.3l-1.2 1.2l.1-.1l-1.4 1.2l-.4 .4l-1.4 2.4v-.1l-1.6 2.5l-1.7 2.2l-1.7 2.2v.1l-1.5 2.2l.1-.1l-1.2 1.8v-.1l-.7 1l-.3 .5l-.3 1c-.2 .5 0 1.2 .4 1.6l.6 .5c.1 .1 .3 .3 .5 .3l.9 .3l.4 .1l1.8 .2l.2 .1l2.5 .1h.1l3.7-.1l4.2-.1h.1l5.4-.3l6.1-.3h.1l6.7-.8l7-.9l7.8-.9l7.5-.9l7.1-.9h.1l7.4-1h.2l5.8-1.4l5.2-1.5h.1l4-1.6l3-1.3l2.1-1l.4-.2l1.6-1.4l1.2-1l-.1 .1l.9-.7c.3-.2 .5-.7 .5-1.1l-.1-.9c0-.5-.3-.8-.7-.9c-.5-.1-.9 0-1.1 .4Z" class="g0_101"/>
<path d="M231.5 524.7l-1.7 2.9l.2-.2l-2.2 2.1l-.3 .3l-1.2 2.3l-.1 .4l-.4 2l.2-.4l-.9 1.5c-.2 .3-.2 .7-.2 1l.4 1.8v.1l.4 1.4v-.3v1.2c0 .2 0 .4 .2 .6l.6 1.2l.1 .1l1 1.5l1.1 1.7l.2 .2l1.8 1.9v-.1l1.7 2l.2 .1l2 1.7l2 1.4l.4 .2l2.3 .7h.2l2.5 .4h.3l2.7-.3l.2-.1l2.5-.7l.3-.1l2.3-1.3l.1-.1l2.2-1.5l.2-.2l1.6-2v.1l1.8-2.1c.3-.4 .3-.9-.1-1.3c-.4-.3-1-.3-1.3 .1l-1.8 2v-.1l-1.8 1.8l.1-.2l-2.2 1.4h.1l-2.4 1.1l.2-.1l-2.5 .7h.2l-2.6 .2h.3l-2.5-.4l.2 .1l-2.3-.7l.4 .2l-1.9-1.4l-1.9-1.6l.1 .1l-1.7-2h-.1l-1.8-1.9l.1 .2l-1.1-1.7l-1-1.5l.1 .1l-.7-1.1l.2 .7v-1.6l-.4-1.5v.1l-.4-1.8l-.2 1l.9-1.5l.2-.5l.4-2l-.2 .4L230 531l-.3 .4l2.1-2.3l.2-.4l1.3-3.2c.2-.4 0-1-.5-1.2c-.5-.2-1-.1-1.3 .4Z" class="g0_101"/>
<path fill-rule="evenodd" d="M261.8 535.4c0 .8-.7 1.5-1.5 1.5c-.8 0-1.4-.7-1.4-1.5c0-.8 .6-1.4 1.4-1.4c.8 0 1.5 .6 1.5 1.4Z" class="g0_101"/>
<path d="M201.4 547.3l-.7-.1h.1l-1.2-.5l.1 .1l-1.2-.6l-.3-.1l-1.3-.4h-.3l-1.5-.2h-.2l-2.4 .1h-.3l-3.1 .7H189l-4 1.1h-.1l-4.2 1.6h-.1l-4.7 1.9h-.1l-4.7 2.2l-4.7 2.2l.1-.1l-4.8 1.9l-3.8 1.5l-3.2 1.1h.2l-2.3 .6l-1.7 .4l.3-.1h-1l-.7 .1c-.8 0-1.4 .5-1.5 1.2c-.2 .8 .2 1.5 .9 1.8c.6 .3 1.4 .1 1.9-.5l.1-.2c.2-.3 .3-.6 .3-1l-.1-.4l-.4 1.1l.6-.5l.1-.2l.6-.8l-.1 .2l.8-.8l-.2 .2l1.2-.8l.9-.7l-.1 .1l.9-.5l.5-.3l-.2 .1l.6-.3H155h.1l.4 .1l.2 .1c.7 .2 1.4-.2 1.7-.9c.3-.7 0-1.5-.7-1.8c-.6-.4-1.4-.2-1.9 .4v.1l1.8-.5c-.4-.2-.8-.2-1.2-.1c-.5 .2-.8 .5-.9 .9l-.2 .5l.3-.5l-2 2.1l-.8 .9l-.8 .9l.3-.2l-1 .7c-.3 .2-.5 .5-.5 .8l-.4 1.1l.1-.1l-.3 .8l.2-.4l-.4 .5c-.3 .4-.3 .9-.2 1.4l.2 .7l.2 .3l.4 .7l.1 .2l.8 .9l.2 .2l1.2 1.1l-.1-.1l1.1 1.1l.3 .2l1.2 .9h.2l1.3 .8h.1l1.5 .8l1.7 .8v-.1l1.7 .9h.1l.9 .4h.1l.6 .2l.4 .1c.5 .2 1.1-.1 1.4-.6c.2-.5 .1-1.1-.4-1.4l-.3-.2l.1 .1l-.5-.5l-.2-.2l-.9-.4V572l-1.6-.9h-.1l-1.7-.8h.1l-1.6-.8h.1l-1.4-.7l.2 .1l-1.3-.9l.2 .2L154 567l-.1-.1l-1.2-1.1l.2 .2l-.8-.9l.2 .3l-.4-.7l.1 .2l-.2-.6l-.2 1.3l.3-.4l.2-.4l.3-.8l.1-.1l.3-1.1l-.6 .8l1-.7l.2-.3l.8-.8l.7-1v.1l1.9-2.1c.2-.1 .3-.4 .4-.6l.2-.5l-.8 .9c.4-.2 .7-.5 .8-.9v-.1c.2-.4 .1-.8-.1-1.2c-.2-.4-.6-.6-1-.7H156l.4 .1h-.1c-.3-.2-.8-.2-1.2-.1l-.5 .3l-.3 .1l-.4 .3l-.9 .5l-.1 .1l-.9 .6h.1l-1.2 .7l-.1 .2l-.9 .7l-.1 .2l-.7 .7l.2-.1l-.7 .5c-.3 .3-.5 .7-.5 1.1v.4l.6-1.1l-.1 .1c-.6 .4-.8 1.1-.6 1.7c.2 .7 .8 1.1 1.5 1.1h2.2l1.6-.4l2.4-.6h.1l3.2-1.2l3.9-1.5l4.7-1.9h.1l4.8-2.2l4.6-2.1l4.7-2l-.1 .1l4.2-1.6l-.1 .1l4-1.1l3.1-.7h-.3l2.4-.1h-.2l1.6 .1h-.2l1.3 .3l-.2-.1l1.3 .5l.3 .1l1.4 .1c.3 0 .5 0 .7-.1l.7-.4c.3-.2 .5-.6 .5-1c-.1-.4-.4-.7-.8-.8Z" class="g0_101"/>
<path d="M119.8 555.1l-2.4 1.6l-.3 .2l-.4 .6l-.2 .4l-.3 1v2.9l.1 1.5l.1 1.5l.1-.4l-.2 .9v-.2l-.3 .9l.1-.2l-.4 .8l.5-.6l-.7 .4l-.1 .1l-.8 .5l.4-.1l-.7 .2h.1l-1 .2l-.2 .1l-.9 .5l.2-.1l-1 .3l-.2 .1l-1.1 .6l.1-.1l-1.2 .6H109l-1.1 .6l.2-.1l-1.5 .5l.2-.1l-1.6 .3h-.1l-1.2 .4v-.1l-1.2 .3h.3h-.7c-.2 0-.5 0-.8 .2l-.4 .2h1.6l-.6-.4h-.2l-.6-.3l.3 .2l-.5-.4v.1l-.9-.7l.1 .1l-.5-.4l.3 .3l-.5-.8l-.2-.2l-.4-.4l.2 .3l-.1-.3c-.3-.4-.7-.7-1.2-.7h-.1h.3h-.2c-.5-.2-1 0-1.4 .3c-.4 .4-.5 .9-.4 1.4v.2c.1 .6 .6 1 1.1 1.2c.6 .1 1.2-.1 1.5-.6c.4-.4 .4-1.1 .2-1.6l-.1-.1c-.3-.5-.9-.9-1.6-.7c-.6 .1-1.1 .6-1.1 1.3c-.1 .6 .2 1.2 .8 1.5l.4 .1l-.5-.3l1.3 1.2v.1l3.5 2.9l1.9 1.6l2.3 1.8h-.1l1.8 1.5l1.8 1.5l1.9 1.7l-.1-.1l1.7 1.6l1.4 1.5l-.1-.1l1.5 1.8l1.6 1.9l.1 .2l1.1 .9h-.1l1.5 1.5c.4 .4 1.1 .4 1.5 0c.4-.4 .4-1 .1-1.4l-1.4-1.6l.1 .1l-.7-1.2l-.1-.1l-1.4-2l-1.5-1.9l-.1-.1l-1.4-1.5l-.1-.1l-1.6-1.6h-.1l-1.9-1.7l-1.8-1.5l-1.7-1.5l-.1-.1l-2.3-1.8v.1l-1.8-1.6l-3.5-2.9l.1 .1l-1.2-1.2l-.3-.3l-.3-.2c-.6-.3-1.3-.2-1.8 .2c-.5 .5-.6 1.2-.3 1.7v.1c.3 .7 1.1 1.1 1.8 .8c.7-.2 1.2-.9 1-1.7V569c-.2-.7-.8-1.2-1.6-1.2c-.7 .1-1.3 .6-1.4 1.4c0 .7 .5 1.4 1.2 1.5l.2 .1h.5l-1.4-.7l.2 .3l.2 .3l.4 .4l-.2-.2l.6 .7l.2 .4l.5 .3l.1 .1l.9 .6v.1l.6 .3l.2 .2l.6 .2l-.2-.1l.6 .3c.5 .3 1.1 .3 1.6 0l.3-.3l-.8 .3l.7-.1h.3l1.2-.3h.1l1.2-.3h-.1l1.5-.3h.2l1.6-.5l.2-.1l1.1-.6l1.1-.5h.1l1.1-.7l-.2 .1l.9-.3h.3l.9-.5l-.3 .1l.9-.3l.1-.1l.7-.2l.3-.2l.8-.6l-.2 .1l.6-.3c.3-.2 .4-.3 .6-.6l.4-.7l.1-.2l.2-.9l.1-.2l.1-.9l.1-.4l-.2-1.4l-.1-1.5v.1l-.1-1.4v.1l.1-1.1v.1l.2-.9l-.1 .1l.2-.6l-.2 .4l2.1-2c.3-.3 .3-.8 0-1.2c-.3-.3-.8-.4-1.1-.1Z" class="g0_101"/>
<path d="M126.5 583.2l-.1 .1c-.1 .3-.1 .7 .1 1c.1 .3 .4 .5 .7 .6l.6 .2l-.2-.1l.4 .3l.2 .1l1.1 .4l.2 .1l.5 .1c.6 .2 1.3-.1 1.5-.8c.2-.6-.1-1.3-.8-1.5l-.4-.2l.7 .6l-.2-.5c-.3-.5-.8-.7-1.4-.6c-.5 .2-.8 .8-.7 1.3l.2 .5l.2 .5l.3 .4c.3 .3 .8 .5 1.3 .3c.5-.1 .8-.5 .9-1c0-.5-.2-1-.7-1.3l-.4-.2l-.1-.1l-1.1-.5l.1 .1l-.5-.3l-.3-.1l-.6-.1c-.4-.1-.7-.1-1 .1l-.1 .1c-.2 .1-.3 .3-.4 .5Z" class="g0_101"/>
<path d="M111.7 530.6l-.2 .1l.9-.1l-.3-.1c-.4-.1-.8 .1-1.1 .4l-.4 .4l-.3 .4l-.7 1.3v.1l-.7 1.7l.1-.2l-1.7 2.7l.1-.1l-2.2 2.7h-.1l-2.6 3.6l.1-.1l-3.3 3.3v.1l-3.2 3.6v-.1l-3.2 3.6l.3-.2l-3.8 2.5l-.1 .1L86.1 559v-.1l-2.8 2.2l-.1 .1l-2.4 2.4l-1.9 1.8l-2 1.8l.1-.1l-1.6 1.2l-1.6 1.1l-.3 .2l-.8 .9l.7-.4l-.8 .3l-.5 .2l-.3 .3l.8-.3h-.2l1.5 1.1l-.1-.3l-.1-.3v.2v-.5l-.1-.5l-.1-.2l.1 .4v-.2c0-.5-.3-.9-.8-1.1l-.2-.1c-.4-.2-.9-.2-1.3 .1c-.4 .2-.6 .6-.6 1.1v.8l.1 .4l.1 .3v-.5l-.1 1.3v.1l-.1 1.5l.1-.5l-.5 1.5v-.1l-.9 1.7l.2-.2L68.5 578l-1.1 1.5l.3-.3l-1.6 1v.1l-1.4 .9l.1-.1l-1.2 .6h-.1l-1.2 .7h.1l-.5 .2l.6-.2l-.8 .1l.7 .1l-.3-.1l-.2-.1l-.7-.2l.2 .1l-.9-.5l.2 .2l-.7-.7l-.1-.1l-1.4-.9l.5 .5l-.7-1.2l-.1-.1l-.8-1.1l.2 .3l-.5-1.5L57 577l-.5-1h-.1l-.7-1.1l-.1-.1l-.7-.9c-.2-.2-.4-.4-.8-.5l-.7-.1l.6 .3l-.6-.6c-.4-.3-.9-.4-1.4-.3l-.7 .2c-.2 .1-.4 .2-.6 .4l-.6 .6l.1-.1l-.6 .5l-.3 .4l-.5 .9l-.1 .1l-.4 1l-.1 .5v2.2l.2 1.1l.1 .4l.5 .8l.1 .2l.5 .7v.1l.7 .8l.4 .3l.8 .6h.1l.8 .5l.4 .1l1 .2l.3 .1h1.1l.4-.1l1.1-.3l.3-.1l1.3-.6l.1-.1l1.6-1l.1-.1l2.1-1.6l.1-.1l2.3-2.3c.4-.5 .4-1.2 0-1.6c-.5-.5-1.2-.5-1.6 0l-2.4 2.3l.2-.2L58.7 581l.1-.1l-1.8 1l.1-.1l-1.3 .6l.3-.1l-1.2 .3h.3H54.1h.3l-1-.2l.4 .1L53 582v.1l-.8-.6l.3 .2l-.7-.8l.1 .1l-.6-.7l.1 .1l-.4-.8l.1 .4l-.1-1v.2v-1.1v.1l.1-.9l-.2 .5l.4-.9v.1l.5-.9l-.3 .4l.5-.5h.1l.6-.6l-.5 .3l.7-.2l-1.4-.3l.6 .5c.2 .2 .4 .3 .6 .4l.8 .1l-.8-.4l.7 .8l-.1-.2l.7 1.1l.5 .9l-.1-.3l.5 1.5l.2 .4l.7 1.1l.7 1.1l.4 .5l1.4 .9l-.2-.1l.7 .6l.3 .2l.9 .5l.2 .1l.8 .3l-.2-.1l.3 .1c.2 .2 .5 .2 .7 .2l.9-.1l.5-.1l.5-.2v-.1l1.2-.6l1.2-.7h.2l1.4-1h-.1l1.7-1.1l.3-.3l1.1-1.5l1.1-1.5l.1-.2l.9-1.7v-.1l.6-1.5l.1-.5l-.1-1.5v.1l.1-1.4l-.1-.5l-.1-.4l.1 .4l-.1-.7c0-.7-.5-1.2-1.1-1.3c-.7 0-1.3 .4-1.4 1c-.2 .6 0 1.2 .6 1.5l.3 .1l-.7-1.2l-.1 .2l.1 .4v.3v-.4v1.3c0 .7 .6 1.3 1.4 1.4h.2c.4 0 .7-.1 1-.3l.3-.2l-.4 .2l.8-.3c.2-.1 .5-.2 .6-.4l.8-.9l-.3 .3l1.7-1.2h.1l1.6-1.3l.1-.1l2-1.8l1.9-1.8h.1l2.4-2.4l-.2 .1l2.8-2.2H88l3.2-2.7l-.1 .1l3.7-2.5l.2-.2l3.3-3.6l3.2-3.6h-.1l3.3-3.3l.1-.2l2.7-3.6l-.1 .1l2.2-2.7l.1-.2l1.7-2.7l.1-.2l.7-1.7l.6-1.4v.1l.3-.5l.1-.3v-.3c.1-.4 0-.8-.4-1.1l-.2-.1c-.2-.2-.6-.2-.9 0Z" class="g0_101"/>
<path d="M61.8 559.1l-.3-1.8l-.1 .6h.1l-1.6 .7l.3 .1c.4 .1 .9 0 1.3-.3l.2-.2c.3-.3 .5-.7 .4-1.2v-.1c-.1-.7-.8-1.2-1.5-1.2c-.7 .1-1.2 .7-1.3 1.4c0 .7 .5 1.3 1.3 1.4l.6 .1c.7 0 1.3-.4 1.5-1c.2-.7-.2-1.4-.8-1.6l-.1-.1h-.2l-.7-.2l-.1-.1l-1.2-.2c-.6-.1-1.2 .3-1.4 .9c-.1 .7 .3 1.3 .9 1.5l1.2 .3L60 558l.7 .3l-.6-.6v.1c.3 .6 .9 .9 1.6 .7c.6-.1 1.1-.7 1-1.3c0-.7-.5-1.2-1.1-1.3l-.7-.1c-.3-.1-.7 0-1 .2c-.3 .2-.5 .6-.6 .9v.1l.4-.7l-.2 .1l1.1-.4h-.3c-.6 0-1.1 .3-1.3 .8c-.2 .5-.1 1.1 .3 1.5c.4 .4 .9 .5 1.5 .3l-1.4-.6l.9 1.7c.2 .4 .6 .5 1 .4c.4-.1 .6-.6 .5-1Z" class="g0_101"/>
<path d="M46.9 561.3l-1.9 2l-.2 .2l-1.2 2.2l-.6 1l-.1 .1l-.5 1.2l-2.2 4.3L38 576.5l-2 3.9l.6-.6l-2.1 1.3l.7-.3l-2.3 .2c-.5 0-1.1 .3-1.3 .8c-.3 .5-.2 1.1 .1 1.6c.3 .5 .9 .7 1.5 .7l2.2-.3c.2 0 .5-.1 .6-.2l2.1-1.3c.2-.2 .4-.4 .6-.6l1.8-3.9l2.2-4.2v-.1l2.1-4.3l.1-.1l.5-1.2l-.1 .1l.6-1.1v-.1l.9-2.3l-.1 .2l1.6-2.3c.2-.4 .1-.8-.2-1.1c-.4-.3-.8-.3-1.2 0Z" class="g0_101"/>
<path d="M384.3 614.9l-1.5 1.8l-1.8 2.1l.1-.1l-2 1.8l-1.8 1.8l.1-.1l-2.5 1.6l.1-.1l-2.7 1.4l-.2 .1l-2.6 1.9l-3.1 2.1l-3.3 2.3h.1l-3.7 2.4l-4.5 2.7l-4.8 2.8l-5.2 3.2l-5.2 3.3l-5.5 3.2l-5.5 3.1h.1l-5 2.4l.1-.1l-4.9 1.8l.1-.1l-3.8 1.1h.3l-3.3 .3h.4l-2.4-.3l.4 .1l-1.8-.9l.6 .7l-.8-1.7l.1 .3l-.3-1.9v.4l.2-2.2l-.2 .6l1.2-1.8l.2-.3l.6-1.8l-.2 .2l.8-1.3l.1-.2l.3-.9l.1-.1V646l-1 1l.3-.1l-.9-.1h.1h-.1h.1c.4 .3 1 .3 1.5 .1c.5-.3 .8-.8 .7-1.4c0-.5-.3-1-.8-1.2l-.1-.1l.3 .2c-.4-.3-.9-.4-1.4-.2c-.4 .1-.8 .4-1 .9l-.2 .5v.1l-.7 2.4l-.1 .5l.2 1.6v-.3l-.3 1.9v.3l.2 2.2l.1 1.6l.2 1.6v-.4l-.4 2.8l.1 .6l.8 2.8v.1l.7 2.2c.1 .2 .2 .4 .4 .6l.8 .7l.5 .4l1.9 .6l.4 .1l1.1 .1h.1l1.3 .1h.1l1.1-.1h.3l.6-.2c.4-.1 .6-.3 .8-.6l.2-.2c.2-.4 .2-1-.1-1.4l-.1-.1l-.3-.3l-.5-.2c-.3-.2-.8-.1-1.1 .2c-.2 .4-.2 .8 .1 1.2l.3 .3c.3 .4 .9 .4 1.3 .2c.4-.3 .5-.8 .3-1.3c-.3-.4-.8-.6-1.2-.4h-.2h.5l-.2-.1h-.8l.2 .1l-1.1-.2l-1.3-.1l-1.1-.1l.4 .1l-1.9-.7l.6 .4l-.8-.8l.4 .6l-.7-2.1v.1l-.8-2.8l.1 .6l.3-2.8v-.3l-.1-1.6l-.2-1.6l-.2-2.2v.4l.3-1.9V650l-.2-1.6v.5l.7-2.4l-.1 .1l.2-.6l-.5 .8l-.3 .2l.1-.1c.6-.2 .9-.9 .8-1.5c-.1-.7-.6-1.2-1.3-1.2c-.7-.1-1.3 .3-1.5 .9v.1l.6-.7h-.1h.1l-.2 .1c-.4 .2-.7 .5-.7 .9l-.1 .6v-.2l-.2 .8l.1-.3l-.8 1.3l-.1 .3l-.6 1.8l.1-.3l-1.2 1.7l-.2 .6l-.3 2.1v.4l.2 2l.1 .3l.8 1.8c.1 .3 .3 .5 .6 .7l1.7 .9l.5 .2l2.4 .5h.4l3.3-.3h.2l3.9-1h.1l4.9-1.8h.2l5.1-2.4l.1-.1l5.4-3.1l5.6-3.2v-.1l5.3-3.3l5.1-3.2l4.7-2.8l4.6-2.8l.1-.1l3.6-2.5l3.2-2.4l3-2.3l.1-.1l2.5-2l-.2 .1l2.6-1.5l.1-.1l2.4-1.8l.2-.2l1.7-1.9v.1l1.8-2l.1-.1l1.5-2.3l1.3-1.9c.1-.3 0-.6-.2-.7c-.2-.2-.5-.2-.7 0Z" class="g0_101"/>
<path d="M270.4 641.2l-1.8 .6l-1.8 .5l-.1 .1l-1.8 .6l-1.5 .7h-.1l-1.4 .6c-.3 .2-.5 .3-.6 .6l-.6 1l.1-.1l-.6 .8v.1l-.4 .7l-.2 .5v.7c-.1 .2 0 .5 .1 .7l.4 .6l.2 .4l.7 .6l.2 .2l1.3 .8l.2 .1l1.1 .4l.4 .1l1.4 .1h1.5l1.1-.1H268l1.3 .2l-.2-.1l.5 .2l-.1-.1l.6 .3l-.4-.3l.3 .3c.3 .4 .9 .5 1.3 .3c.5-.1 .9-.6 .9-1.1c.1-.5-.2-1-.6-1.2l-.1-.1c-.2-.1-.4-.1-.7-.1h-.2c-.5 0-1 .3-1.2 .8l-.3 .6l.4-.4l-.7 .6l.2-.2l-1.1 .8c-.1 .1-.3 .3-.4 .5l-.9 1.6l.7-.6l-1.9 .9l-2.7 1.3l-.2 .2l-2.3 1.7l.2-.1l-3.4 1.6h-.1l-3.5 1.9h.1l-4.2 1.9v.1l-4.2 2.2l-.2 .1l-4 2.7h-.1l-4 2.8l-.2 .1l-3.6 3.3l-.1 .1l-3.3 3.5l-3.1 3.2l-.1 .1l-2.8 3.2l-.1 .1l-2.3 2.9l-2 2.7l-.1 .1l-1.5 2.4l-1.4 2.1h-.1l-1 1.7l.1-.2l-1 1.2l.1-.1l-.9 .9h-.1l-.7 .8l.3-.2l-.9 .5l.5-.2l-.9 .2l.9 .1l-1-.4l.4 .1l-1.1-.8l.3 .4l-1.1-1.7l-1-1.7l.1 .2l-.7-2l.1 .3l-.2-2.4v.3l.5-2.4c.1-.4-.2-.8-.6-.9c-.4-.1-.8 .1-1 .5l-.6 2.3v.2l-.2 2.4v.3l.4 2.1l.1 .2l.8 1.8v.1l1 1.8l.3 .4l.9 .9l.4 .2l.9 .5c.3 .2 .7 .2 1 .2l.9-.2l.5-.1l.9-.6l.4-.2l.7-.8l-.1 .1l1-.9l.1-.2l1-1.2l.2-.2l1-1.6l1.4-2.1l1.5-2.4v.1l2-2.6l2.3-3l-.1 .1l2.9-3.3l-.1 .1l3.1-3.3h.1l3.2-3.5l-.1 .1l3.7-3.4l-.2 .2l4-2.8l4.1-2.7l-.1 .1l4.2-2.3l-.1 .1l4.2-2l3.5-1.9l3.4-1.6l.3-.2l2.3-1.7l-.3 .1l2.7-1.3h.1l1.8-1c.3-.1 .5-.3 .7-.6l.8-1.6l-.4 .4l1-.8l.2-.2l.6-.6l.3-.6l.2-.6l-.9 .9h.2l.2-.1l.1-.1c.3-.2 .6-.5 .6-.9c.1-.5-.1-.9-.4-1.2l-.3-.3l-.4-.2l-.6-.3h-.1l-.6-.2h-.2l-1.3-.2H268l-1.1 .1h.2h-1.5h.1l-1.4-.1l.5 .1l-1.1-.4l.2 .1l-1.3-.8l.2 .2l-.6-.7l.2 .3l-.4-.6l.2 .7v-.7l-.1 .5l.4-.7l-.1 .1l.5-.8l.1-.1l.5-1l-.6 .6l1.5-.7l1.5-.7h-.1l1.8-.7l1.7-.7l.2-.1l1.6-1c.4-.2 .5-.7 .3-1.1c-.2-.4-.6-.6-1-.5Z" class="g0_101"/>
<path d="M245.3 640.3l1-1.1l-.6 .3h.4c.5-.1 .9-.5 .9-1l.1-.7c.1-.5-.1-1-.5-1.3l-1-.6l-.1-.1l-1-.5l-.4-.1l-1.9-.5h-.5l-1.7 .2h-.1l-1.8 .4h-.3l-1.6 .7l-.2 .1l-1.3 .7l.1-.1l-1.4 .6l-.1 .1l-1.2 .5h.1l-1.4 .5c-.3 .2-.6 .5-.7 .9l-.4 1l-.5 1.4v.6l.2 1.6l.2 2v-.4l-.7 2.2l-.1 .3l-.2 2.7v-.3l-1.2 2.8v.4l.1 2.9v.2l.4 2.1c.1 .3 .4 .6 .8 .5c.3-.1 .6-.4 .5-.8l-.3-2.1v.1l.2-2.9l-.1 .3l1.4-2.7l.2-.3l.4-2.6l-.1 .2l.9-2.2l.1-.5l-.1-2.1l-.1-1.7l-.1 .6l.6-1.3v.1l.5-1l-.9 .7l1.4-.5h.2l1.2-.6h-.1l1.4-.5l.2-.1l1.3-.7h-.1l1.6-.6l-.2 .1l1.8-.4h-.1l1.6-.2h-.4l2 .4l-.3-.1l1 .4l1 .4l-.7-.8l.2 .7l.1-.8l-.2 .3l-.1 .1l-.5 1.4c-.1 .3 0 .7 .3 .9c.3 .2 .7 .1 .9-.2Z" class="g0_101"/>
<path d="M199.3 640l-.2-.3l-.1-.1l-.5-.5l-.2-.1l-.4-.3c-.2-.1-.4-.2-.7-.2h-.5l-.6 .1l-.2 .1c-.4 .1-.7 .4-.8 .8c-.2 .3-.2 .7 0 1.1v.1c.1 .2 .2 .4 .4 .6l.3 .3l.2 .1l.7 .5h-.1l1.2 .8l-.1-.1l1.3 1.2l1.7 1.5l-.1-.1l1.5 1.9l-.1-.2l1.4 2.5v-.1l1.3 2.8l-.1-.3l.9 3.2v-.1l.4 2.8v-.2l-.1 2.6c0 .6 .5 1.1 1 1.2c.6 0 1.2-.5 1.2-1l.3-2.6v-.2l-.2-2.9v-.2l-.8-3.3l-.1-.2l-1.2-2.8l-.1-.1l-1.4-2.5l-.2-.2l-1.5-1.9l-.2-.2l-1.7-1.6l-1.4-1.1v-.1l-1.2-.8h.1l-.7-.5l.2 .1l-.3-.3l.3 .6v-.1l-.7 1.6l.2-.1l-.3 .2l.5-.2l.3-.1l.4-.3l-.7 .1l.7 .1l.5-.1l.3-.1c.1-.1 .2-.2 .2-.4c.1-.2 0-.3 0-.4Z" class="g0_101"/>
<path d="M193.4 668.3L192 670l-1.5 2.1v.1l-1.5 2.2v.1l-1.2 2.2h-.1l-1.2 2.6l.1-.2l-1.5 2.3l.1-.2l-1.9 2.1l.2-.2l-2.5 2l-2.5 1.8l.1-.1l-2.8 1.7l-2.9 1.7l.3-.1l-3.2 1.1l-3.3 1.2l.3-.1l-3.5 .7l.2-.1l-3.2 .4l.2-.1l-2.8-.1l.3 .1l-2.4-.5l.5 .2l-1.7-1l.3 .3l-1.4-1.6l.2 .5l-.7-2.3v.2l-.4-2.9v.2l.2-4.3l.2-5.3c0-.3-.2-.6-.5-.6c-.3 0-.6 .2-.7 .5l-.8 5.2v.1l-.4 4.2v.1l.1 3v.2l.5 2.4l.2 .5l1.3 1.7l.3 .3l1.6 1.2l.6 .2l2.4 .5l.2 .1l2.7 .1h.3l3.2-.3h.1l3.4-.6l.3-.1l3.3-1.2l3.2-1.2l.2-.1l2.9-1.7l2.8-1.7l.2-.1l2.4-1.9l2.6-2.1l.2-.2l1.7-2.2l.1-.1l1.5-2.3l.1-.2l1.1-2.6l1-2.2v.1l1.3-2.4v-.1l1.1-2.3v.1l1-2c.2-.3 .1-.6-.2-.8c-.3-.2-.7-.2-.9 .1Z" class="g0_101"/>
<path d="M164.6 642.6l-.2 .5l.6-.6l-1.1 .5h-.2l-1.4 .8v.1l-1.8 1.1h-.2l-1.7 1.4l-.2 .2l-1.5 1.5l.1-.1l-1.8 1.6l.3-.3l-2.3 1.2h-.1l-2.3 1.4l.4-.2l-4 .9c-.7 .2-1.2 .9-1 1.7c.2 .7 .9 1.2 1.6 1l4-.8l.5-.2l2.2-1.4l-.2 .1l2.4-1l.4-.2l1.8-1.5l.1-.1l1.5-1.6l-.1 .2l1.7-1.4H162l1.8-1.1l.1-.1l1.3-1l.1-.1l.9-.8c.4-.4 .4-1.1 .1-1.5l-.4-.4c-.1-.2-.4-.3-.7-.2c-.3 0-.5 .2-.6 .4Z" class="g0_101"/>
<path d="M131 694l.8 4.1l.1 .1l1.3 4.2v.1l1.5 3.9l.1 .2l1.9 3.5l.1 .2l2.9 3.5h-.1l2.2 3l2.4 3l.1 .1l2 2.2h.1l1.4 1.5c.1 .2 .3 .3 .6 .4l.8 .2c.5 .1 1.1-.2 1.3-.7l.3-.8c.1-.5-.1-1.1-.6-1.3c-.5-.2-1.1 0-1.3 .5l-.4 .7c-.3 .5-.1 1.2 .4 1.5c.5 .3 1.2 .1 1.5-.4c.3-.5 .1-1.2-.3-1.5l-.7-.5l.2 .3l-1.2-1.6l-.1-.1l-1.9-2.3v.1l-2.4-3h.1l-2.2-3l-2.9-3.6l.2 .3l-2-3.5l.1 .1l-1.7-3.9v.1l-1.6-4.2v.1l-1.3-3.9c-.2-.5-.6-.7-1.1-.6c-.4 .1-.7 .6-.6 1Z" class="g0_101"/>
<path d="M108.4 650l-.2 .3c-.2 .4-.2 .9-.1 1.3c.2 .5 .6 .8 1 .9l.3 .1c.4 .1 .7 .1 1-.1l-1.5-.2l1.1 .9l-.2-.2l2.3 2.9l-.1-.2l1.1 1.9l-.1-.2l.8 2.8V660l.5 2.9v-.2l.1 3.5l-.1 3.8v-.3l-1 4.3l-1.3 4.8l.1-.2l-2 4.8l.1-.1l-2.2 4.8l.1-.2l-2.7 4.7l.1-.1l-3.2 4.4l.1-.1l-3.3 4l.1-.1l-3.5 3.5l.2-.2l-3.4 2.5h-.1l-2.9 2.2l.2-.1l-2.6 1.3l.1-.1L84.3 711l.3-.1l-2.3 .4h.1l-2.1 .2h.2l-1.7-.1l.2 .1l-1-.2l.6 .2l-.8-.5l.4 .4l-.6-.7l.3 .5l-.2-.8v.4l.1-.8l-.1 .4l.3-.9l-.1 .1l.4-.8l-.5 .6l.7-.5l.1-.1l.4-.4l-1.4 .3l.3 .1l-1-1.2v.3l.1-.5l-.3 .7l.1-.2l-.4 .9l.1-.2l-.8 1.2l.1-.1l-.8 1.1l.1-.2l-1.1 1l.1-.1l-1.2 1l.3-.2l-1.3 .5l-.1 .1l-1.1 .6l.5-.2l-1.3 .2h.2H68.7l-1.1 .2v-.1l-1 .2l-.3 .1l-1 .3c-.3 .1-.5 .2-.7 .4l-.6 .7l.2-.2l-1 .8l-.2 .2l-.8 1l-.3 .5l-.5 1.5l.1-.4l-.8 1.5l-.1 .3l-.5 1.3l.1-.2l-.7 1.2l.5-.5l-.9 .6l.2-.1l-1 .4l.5-.1l-1 .1H58l-.9-.1l-.6-.1l.5 .2l-.4-.2l-.6-.1h-.1c-.4 0-.7 .1-1 .4c-.3 .3-.4 .7-.4 1.1v.1c0 .4 .2 .8 .4 1.1l.2 .1l-.4-.6l.2 .6v-.1l.6 2.4l-.1-.2l.2 1.5v.1l.1 1.6l.1-.4l-.3 1.6l.1-.3l-.6 1.5l.1-.2l-1 1.5l.2-.2l-1.1 1.2l.2-.1l-1.2 1l-1.1 .9l.6-.3l-1.1 .3l-1.1 .2h.6l-1.3-.2l.2 .1l-1.4-.4l-1.4-.4h.1l-1.9-.6l.3 .1l-1.3-.8h-.1l-1-.5l.2 .1l-.8-.5l-.5-.4c-.5-.3-1.2-.3-1.7 0l-.7 .4l.5-.2l-1 .2c-.3 0-.5 .1-.8 .3l-.9 .9l-.1 .1l-.7 .9l-.3 .5l-.5 1.4v.4l-.1 2l.1 .3l.5 2.3v.2l1 2.5v.1l1.1 2.5l.2 .2l1.9 2.3c.3 .4 .9 .5 1.3 .2c.4-.4 .5-.9 .1-1.3l-1.8-2.5l.2 .4l-.8-2.6v-.1l-.8-2.5l.1 .1l-.4-2.3v.3l.2-2l-.1 .4l.5-1.3l-.3 .4l.8-.8l-.1 .2l1-.8l-.8 .3l1-.2l.5-.1l.7-.4l-1.6-.1l.5 .4H40l.8 .5l.1 .1l1 .5h-.1l1.3 .7l.3 .1l1.8 .6l.1 .1l1.5 .4l1.4 .4h.2l1.2 .2l.6-.1l1.1-.2l.1-.1l1.1-.3c.2 0 .4-.1 .5-.3l1.1-.9l1.2-1l.2-.2l1.1-1.2l.1-.2l.9-1.6l.1-.2l.6-1.5l.1-.3l.3-1.6v-.4l-.2-1.6l-.1-1.6l-.1-.2l-.6-2.4v-.1l-.2-.5c0-.3-.2-.5-.3-.6l-.2-.2l.4 1v-.1l-1.5 1.4H56l-.6-.1l.4 .2l.5 .1h.6h-.1l.9 .1h1.2l.5-.1l1-.4l.3-.1l1-.7c.2-.1 .4-.3 .5-.5l.7-1.2l.1-.2l.5-1.4l-.2 .3l.9-1.5l.1-.3l.5-1.5l-.3 .6l.8-1l-.2 .2l1-.7l.2-.2l.6-.7l-.6 .4l1-.3l-.3 .1l1-.2h.1l1-.1h-.2h1.4l1.3-.2l.5-.2l1.2-.6l-.1 .1l1.3-.6l.3-.2l1.2-1l.1-.1l1.1-1l.2-.2l.8-1.1l.8-1.2l.1-.2l.4-.9l.1-.3l.2-.7v-1c-.1-.6-.5-1-1.1-1.2h-.3c-.5-.2-1 0-1.3 .3l-.5 .4l.2-.1l-.7 .5c-.2 .1-.4 .3-.5 .6l-.3 .8l-.1 .1l-.3 .8l-.1 .4v1.3l.2 .8l.3 .6l.5 .7l.3 .3l.7 .5c.2 .2 .4 .3 .7 .3l1 .2h.2l1.6 .1h.3l2.1-.2h.1l2.4-.4l.3-.1l2.9-1.1l.1-.1l2.6-1.3l.3-.2l2.9-2.2l3.4-2.5l.2-.1l3.4-3.5l.1-.1l3.4-4v-.1l3.2-4.4l.1-.2l2.6-4.7l.1-.1l2.1-4.7l.1-.1l1.9-4.8l.1-.2l1.2-4.8l1-4.3l.1-.3l.1-3.8v-.1l-.1-3.6v-.2l-.6-2.9l-.1-.2l-.8-2.8l-.1-.3l-1.1-1.9l-.2-.3l-2.3-2.9l-.2-.2l-1.1-.9l-.4-.2l-.1-.1l-.3-.1l.2 .1l-.4-.2c-.5-.2-1.1 0-1.4 .5Z" class="g0_101"/>
<path d="M56.5 683.2l-.3 .4l.2-.2l-.7 .7l-.1 .1L55 685l-.5 .7l-.2 .4l-.2 .6c0 .3-.1 .5 0 .8l.1 .6v.1l.1 .4l.2 .5l.3 .4c.4 .5 1 .7 1.6 .5c.5-.2 .9-.7 .8-1.3v-.5v.2v-.8l-.1-.6v.7l.2-.6l-.1 .2l.4-.7v-.1l.4-.8l.1-.3l.3-.8c0-.4 0-.7-.2-1l-.2-.4c-.2-.3-.5-.5-.8-.5c-.3 0-.6 .2-.7 .5Z" class="g0_101"/>
<path d="M83.7 736.5v4.1l.1-.5l-1.7 3.8v-.1l-2 3.2l.3-.3L78 748.5l-2.2 1.8c-.6 .4-.7 1.2-.3 1.8c.4 .6 1.3 .7 1.9 .3l2.3-1.7h-.1l2.5-1.8l.4-.4l1.9-3.4l.1-.2l1.4-3.9v-.5l-.6-4.1c0-.4-.4-.8-.8-.7c-.5 0-.8 .4-.8 .8Z" class="g0_101"/>
<path d="M915 452.5l-1.9-2.6c-.2-.3-.5-.4-.8-.4c-.3 0-.6 .1-.8 .3l-.9 1.2l.2-.2l-1.3 1c-.2 .1-.4 .4-.4 .7l-.4 2.2l-.5 2.5l.1-.3l-1.2 2.7v.1l-1.1 3.4l-1.4 4.1l-1.3 4.2l-.1 .3l-.6 5.8l-.8 6.1v-.1l-1.5 6.6v.1l-1.4 7.4v-.1l-1.7 7.9l-2 8.1l-1.9 9.1l-2.1 9.3l-.1 .1l-1.9 9.9l-1 6.7l-1.1 6.7l-1.8 11v.1l-2 12.4l-1.9 10v-.2l-2 7.2l-1.8 7.1l-1.6 5.6l-1.3 5.2v.1l-.9 3.9v.1l-.6 2.9v.1l-.2 1.5v1.1c0 1 .8 1.8 1.8 1.8c1 0 1.8-.7 1.8-1.7l.1-.5v-2.6v.1l.2-3.8l.4-6.1c.1-.7-.4-1.3-1.1-1.3c-.7-.1-1.3 .4-1.3 1.1l-.5 6.1v-.1l-.5 3.8l-.4 2.5l.6-1.1l-.4 .3c-.7 .5-.9 1.4-.6 2.2c.3 .7 1.1 1.2 2 1.1c.8-.1 1.4-.8 1.5-1.6l.1-.9v.1l.2-1.5v.1l.6-2.9v.1l.9-3.9l1.3-5.2l1.6-5.6v-.1l1.8-7.1v.1l2-7.2v-.1l1.9-10v-.1l1.9-12.5l1.8-11v-.1l1-6.7l.9-6.7v.1l1.8-9.9l2-9.4l1.9-9.1v.1l1.8-8.1V506l1.7-7.9l1.3-7.4l1.4-6.7v-.1l.7-6.1l.6-5.9v.3l1.2-4.3l1.3-4.1l.9-3.4v.1l1.1-2.7l.1-.2l.4-2.5l.1-.1l.3-2.2l-.4 .7l1.3-1l.2-.3l.8-1.2l-1.5 .1l2.1 2.4c.3 .3 .8 .3 1.1 .1c.4-.3 .4-.8 .2-1.1Z" class="g0_101"/>
<path d="M875.1 461.1l1.4-.8c.4-.3 .6-.9 .3-1.4c-.3-.5-.8-.7-1.3-.4c-.5 .2-.7 .8-.5 1.3l.4 .9l.2 .3l1.1 1.3l-.1-.1l1.3 2l2 3.3v-.1l1.8 3.3v-.1l1.7 3.9l.1 .1l2.4 4.3v-.1l2 4.7l2.1 5.2l.1 .1l2.6 5.6l-.1-.1l2 5.8l.1 .2l2.8 6.2l3.3 6.3l3.3 6.9l3.9 7.4V527l3.7 7.9h-.1l3.6 8.2V543l3.8 9.2l3.6 9.6v-.1l3.4 10l3.5 10.3v-.1l3 10.1v-.1l2.8 9.4v.1l2.8 8.7l2.4 7.9l2.1 6.3v.1l1.8 5.1l1 3v.1l1 2.3v.2l.3 .5c.4 .9 1.4 1.2 2.3 .9c.9-.3 1.3-1.3 1.1-2.2l-.5-1.5v-.1l-1.1-3.1h.1l-1.6-5.2c-.2-.7-.9-1.2-1.6-1c-.7 .2-1.2 1-1 1.7l1.5 5.3l.8 3.2v-.5l-.2 1.6c0 .7 .3 1.4 1 1.7c.6 .3 1.4 .3 1.9-.1c.6-.5 .8-1.2 .7-1.9l-.1-.6l-.1-.3l-1-2.3l.1 .1l-1-3l-1.8-5.2l-2.1-6.3v.1l-2.4-7.9l-2.8-8.8v.1l-2.8-9.4l-3.2-10v-.1l-3.6-10.2l-3.5-10v-.1l-3.7-9.5v-.1l-3.9-9.1v-.1l-3.6-8.1v-.1l-3.7-7.9l-3.9-7.4v.1l-3.4-6.9l-3.3-6.3l-2.9-6.1l.1 .2l-2.1-5.9v-.1l-2.7-5.7v.1l-2.2-5.2l-2.1-4.7l-.1-.2l-2.5-4.3v.2l-1.8-3.9l-.1-.1l-1.9-3.2l-2.2-3.3l-1.3-2l-.1-.1l-1.1-1.3v.1l-.6-.8c-.2-.3-.4-.4-.7-.4c-.3-.1-.6 .1-.8 .3l-1.1 1.1c-.3 .3-.3 .8 0 1.1c.2 .3 .7 .4 1 .2Z" class="g0_101"/>
</svg>