<svg viewBox="0 0 1466 825" version="1.1" xmlns="http://www.w3.org/2000/svg">
<defs>
<clipPath id="c0_53"><path d="M-.2 825.3V-.2H1467V825.3Z"/></clipPath>
<clipPath id="c1_53"><path d="M1343.9 529.1V456.4H1452v72.7Z"/></clipPath>
<clipPath id="c2_53"><path d="M1346.3 621.3V549.7h102.9v71.6Z"/></clipPath>
<clipPath id="c3_53"><path d="M1346.4 716.6V641.9h103v74.7Z"/></clipPath>
<clipPath id="c4_53"><path d="M1353 825V744.6h96.2V825Z"/></clipPath>
<clipPath id="c5_53"><path d="M47 825.3V370.7H677.4V825.3Z"/></clipPath>
<style>
.g0_53{fill:#F00;}
.g1_53{fill:none;stroke:#000;stroke-width:1.466;stroke-linejoin:round;}
</style>
</defs>
<image clip-path="url(#c0_53)" preserveAspectRatio="none" x="0" y="-7" width="1467" height="840" href="img/1.jpg"/>
<path fill-rule="evenodd" d="M766.4 349.8l3.7 2.4l-2.9 3.4l-3.1-2l-2.4 2.5L758 354l2.8-3.6l3.3 2.1ZM578.8 336.9l6.9 3.7l-3.5 6.7l-7-3.6Zm-392.5 0l6.9 3.7l-3.5 6.7l-7-3.6Zm-40.1-.3l5.6 3.1l-3.1 5.7l-4.4-2.2l-2.6 4.9l-5.4-3.1l3.3-6l4.2 2.3Zm406.6-1.7c.3 1.8 1.2 3.3 2.7 4.6c1.5 1.3 3.2 1.9 4.9 1.9c.6 0 .9-.2 .9-.6c0-1.1-.6-2.2-1.9-3.2c-1.5-1.2-3.7-2.1-6.6-2.7Zm-298.7-3.7l7 3.7l-3.6 6.7l-7-3.7Zm-81.4-9.7c-.6 0-1.1 .3-1.4 .7c-.4 .5-.6 1.1-.6 1.6c0 .8 .4 1.3 1.2 1.8c.8 .5 1.8 .7 3.1 .7h1.1c-.5-3.2-1.7-4.8-3.4-4.8Zm1273.5-.2c-.8 0-1.4 .9-2 2.7c1.1 .4 1.8 .7 2.4 .9c1.6 .6 2.5 .9 2.7 .9c.4 0 .7-.1 .7-.4c0-.4-.5-1.2-1.3-2.3c-1-1.2-1.8-1.8-2.5-1.8Zm-462 0c-.8 0-1.4 .9-2 2.7c1.1 .4 1.8 .7 2.4 .9c1.6 .6 2.5 .9 2.7 .9c.4 0 .7-.1 .7-.4c0-.4-.5-1.2-1.3-2.3c-1-1.2-1.8-1.8-2.5-1.8Zm-495.6 0c-.7 0-1.4 .9-1.9 2.7c1 .4 1.8 .7 2.3 .9c1.6 .6 2.5 .9 2.7 .9c.5 0 .7-.1 .7-.4c0-.4-.4-1.2-1.3-2.3c-.9-1.2-1.8-1.8-2.5-1.8Zm452.9-.9c-1.3 0-2.8 .4-4.4 1.3c-1.7 .8-4 2.4-7.2 4.6h7.9c6.5 0 9.8-1 9.8-3c0-.7-.7-1.4-2.2-2c-1.5-.6-2.8-.9-3.9-.9Zm-816.1 0c-1.3 0-2.8 .4-4.4 1.3c-1.6 .8-4 2.4-7.1 4.6h7.8c6.5 0 9.8-1 9.8-3c0-.9-.7-1.6-2.1-2.2c-1.2-.5-2.5-.7-4-.7Zm432.9-2.6c-.5 0-1.1 .5-1.8 1.6c-.6 1.2-1.5 2.9-2.5 5.3c2.3-.8 3.9-1.4 4.8-2c.8-.6 1.3-1.2 1.3-1.9c0-.5-.2-1.2-.6-1.9c-.4-.8-.8-1.1-1.2-1.1Zm352.4-1.2c-.4 0-.7 .2-1 .4c-.3 .3-.5 .6-.5 .9c0 .9 .7 1.7 2 2.5c1.2 .8 2.7 1.4 4.5 1.7c-.7-1.8-1.5-3.1-2.4-4c-.8-1-1.7-1.5-2.6-1.5Zm-595.3 0c-.4 0-.7 .2-1 .4c-.3 .3-.5 .6-.5 .9c0 .9 .7 1.7 2 2.5c1.3 .8 2.8 1.4 4.5 1.7c-.7-1.8-1.5-3.1-2.3-4c-.9-1-1.8-1.5-2.7-1.5Zm176.5-2.2c1 0 2.2 1.5 3.7 4.6c1.6 3.2 2.4 6.2 2.4 8.9v6.5c-2.1 0-4.6-.4-7.4-1.2c-2.5-.7-4.7-1.6-6.6-2.6c-1.1 1.8-2.5 2.9-4.2 3.4c-.8 .3-1.9 .4-3.3 .4h-3.9v.7c0 1.2-.7 2.8-2 4.8c-1.4 2-3.1 3.8-4.9 5.2c-2.1 1.7-3.9 2.5-5.3 2.5c-1.8 0-3.7-.5-5.7-1.5c-1.7-.9-4.4-2.6-8.2-5.1l1.3-1.9c1.8 1.2 3.2 2 4.3 2.4c1.1 .4 2.3 .6 3.6 .6c1.3 0 2.7-.4 4.1-1.1c1.3-.8 3.2-2.2 5.6-4.3c3.3-3 4.9-5.2 4.9-6.8c0-.8-.3-1.9-.9-3.2c-.8-1.4-1.6-2.7-2.7-3.6l1.7-8.1c1.4 1.4 2.4 3 3.1 4.8c.8 1.8 1.1 3.9 1.1 6.2v.3h3.9c1.7 0 3.2-.2 4.2-.6c1.4-.6 2.3-1.6 2.8-2.9c1.1-2.6 2.6-4.6 4.4-6.3c1.5-1.4 2.9-2.1 4-2.1Zm380.3-.4c-.6 .3-1.1 .5-1.4 .7c-1.1 .6-2 1.1-2.7 1.6c-.4 .4-.8 .8-1.2 1.1c-.4 .5-.6 .8-.6 1c0 .3 .4 .5 1.1 .7c.7 .1 1.4 .2 2 .2c.5 0 .9-.1 1.4-.4c.5-.2 1.2-.7 2-1.3ZM60.8 314c-.6 .3-1.1 .5-1.5 .7c-1.1 .6-1.9 1.1-2.6 1.6c-.5 .4-.9 .8-1.2 1.1c-.4 .5-.6 .8-.6 1c0 .3 .4 .5 1.1 .7c.7 .1 1.3 .2 2 .2c.4 0 .9-.1 1.4-.4c.5-.2 1.1-.7 2-1.3Zm550.6-.7l1.6 1.1c-.4 .8-.8 1.5-1 2.1c-.3 .7-.6 1.2-.7 1.7c-.3 .9-.5 1.8-.5 2.7c0 1.2 .4 2.2 1.1 3.1c.8 .9 1.7 1.5 2.9 1.8c.7 .1 1.6 .3 2.7 .4c1.1 .1 2.3 .1 3.5 .1h21.6c-.6-1.6-1.1-2.6-1.4-3.2c-.4-.8-1.1-1.7-2-2.9l2.7-6.9c1.4 2.1 2.4 4.1 2.9 5.8c.4 1.6 .6 3.9 .6 6.9v8.4h-25c-1.2 0-2.2 0-3 0c-.8 0-1.4-.1-1.8-.1c-.8-.1-1.6-.3-2.6-.6c-1.6-.6-3-1.7-4-3.4c-1-1.7-1.6-3.6-1.6-5.7c0-.9 .1-1.7 .2-2.6c.1-.9 .3-1.8 .7-2.8c.4-1.2 .8-2.3 1.4-3.2c.5-1 1.1-1.9 1.7-2.7Zm693.4-1.5c-.6 0-1.1 .3-1.6 .9c-.5 .5-.7 1.1-.7 1.8c0 .5 .2 .9 .6 1.2c.3 .3 .8 .4 1.4 .4c.4 0 .9-.1 1.4-.4c.4-.2 1-.7 1.7-1.3c-.6-1-1-1.6-1.5-2c-.4-.4-.8-.6-1.3-.6Zm-645.5-5.5c2.6 1.9 4.4 4.4 5.5 7.4c1 2.8 1.5 6.5 1.5 11.2v1.4h34.6c-2.4-2.5-4.6-4.3-6.6-5.3c-1.9-1-3.6-1.5-5.4-1.5c-.5 0-.9 0-1.4 .1c-.4 0-1 .1-1.8 .3c1.1-2.5 2.3-4.4 3.6-5.5c1.4-1.2 2.9-1.8 4.6-1.8c1.3 0 2.6 .3 3.8 .9c1.2 .7 2.5 1.7 4.1 3.1c1.1 1.1 2.8 2.8 5 5.2c1.5 1.7 2.7 2.8 3.4 3.3c.8 .5 2 .9 3.6 1.2h13.5c-.2-1.3-.6-2.5-1.2-3.4c-.3-.5-1-1.4-2.1-2.7l2.4-7.1c1.5 1.7 2.5 3.5 3.1 5.3c.5 1.9 .8 4.6 .8 8.2v7.8H652.8c-1.4 0-2.4-.3-3.1-.8c-.8-.7-1.2-1.8-1.2-3.3c0-.9 0-1.8 .1-2.9c.1-1 .2-2 .4-3l1.1-.1c.2 .7 .6 1.2 1.1 1.5c.5 .4 1.2 .5 2 .5h10.2c-.4-2.9-1.2-5.2-2.4-7c-.9-1.4-2.2-2.7-3.9-3.8Zm646.1-2c2 0 4 1.8 5.9 5.4c1.8 3.7 2.7 7.5 2.7 11.6v13.1h-22.4c-3.7 0-6.9 .3-9.7 .9c-2.8 .6-4.2 1.3-4.2 2.1c.8 2.4 1.5 4.7 2.1 6.7c.6 2.1 .9 4.1 .9 6c0 1.3-.2 2.4-.4 3.2c-.3 .9-.8 1.8-1.5 2.8c-.2-2.6-.7-5.4-1.5-8.3c-.2-1-.9-3.1-1.9-6.4c-.7-2-1-3.3-1-4c0-.9 .3-2.1 .8-3.5c.4-1.1 .9-2.1 1.4-3c.7-1 1.8-1.7 3.3-2.3c1.6-.6 4-1.1 7.3-1.4c-1.6-2.2-3-3.4-4.2-3.4c-.5 0-1 .2-1.5 .6c-.4 .4-1.2 1.3-2.2 2.7l-1.4-.8c.9-3 1.9-5.3 3.2-7c1.3-1.6 2.7-2.4 4.2-2.4c1.4 0 2.8 .7 4.5 2.3c1.6 1.5 3.5 3.9 5.6 7.1h15.8c0-1.7 0-2.9-.1-3.7c-.2-1.1-.5-2.1-1-2.9c-.6 1.2-1.5 2.1-2.6 2.8c-1 .7-2.2 1-3.4 1c-1.6 0-2.9-.5-4-1.6c-1.1-1.1-1.7-2.4-1.7-4c0-2.3 .8-5.1 2.2-8.3c1.6-3.5 3.1-5.3 4.8-5.3Zm-676-1l5.4 3l-3.3 6.1l-4.2-2.4l-2.4 4.7l-5.5-3l3.1-5.8l4.4 2.2ZM62.5 300.8l2.8 18.6c.5 2.9 1.1 4.9 1.8 5.9c.5 .7 1.2 1 2 1H90.7c2.3 0 4.1-.6 5.3-1.7c1.4-1.4 2.3-3.7 2.7-7l2 .3c-.1 .7-.1 1.3-.1 1.7c-.1 1.3-.2 2.4-.2 3.2c0 1.1 .3 2 .9 2.6c.6 .6 1.4 .9 2.4 .9c1 0 1.9-.2 2.7-.6c.8-.4 2.1-1.2 3.9-2.5l10.7-7.6c1.2-.9 2.1-1.5 2.8-1.9c1.4-.9 2.8-1.3 4.2-1.3c2.2 0 4 .8 5.3 2.4c1.6 1.8 2.3 4.5 2.3 8.2v3.3h13.7c-.3-1.3-.7-2.5-1.2-3.4c-.3-.5-1-1.4-2.1-2.7l2.4-7.1c1.5 1.7 2.5 3.5 3 5.3c.6 1.9 .8 4.6 .8 8.2v7.8H104.1c-1.4 0-2.6-.3-3.4-1c-.8-.7-1.6-1.9-2.2-3.5c-.8 1.1-1.5 2-2.3 2.7l-.4 .3v1.5H69.1c-.7 0-1.4-.1-2-.4c-1.1-.6-2.1-1.6-2.9-3.2c-1.1-2.1-1.8-5-2.1-8.6c-1.3 1.6-2.4 2.8-3.1 3.5c-1.1 1-2 1.5-2.8 1.5c-.4 0-.8 0-1.4-.1l-3.6-.8c-1.6-.3-2.5-.5-2.9-.6c-.4-.2-.5-.4-.5-.8c0-.5 .6-2.2 2-5.1c1.4-2.8 2.4-4.6 3-5.3c.5-.5 1.4-1.2 2.7-2.1c.7-.5 1.8-1.1 3.2-1.9l1.6-1c-.1-.2-.1-.5-.2-.8c0-.3 0-.6 0-.8c0-.8 .2-1.7 .5-2.9c.4-1.1 1-2.5 1.9-4.2Zm746.1-1.3l5.6 3.1l-3.1 5.7l-4.5-2.2l-2.5 4.9l-5.4-3.1l3.3-6.1l4.2 2.4Zm-84.3 0l5.5 3.1l-3.1 5.7l-4.4-2.2l-2.5 4.9l-5.4-3.1l3.3-6.1l4.2 2.4Zm-389.2 0l5.5 3.1l-3.1 5.7l-4.4-2.2l-2.5 4.9l-5.4-3.1l3.2-6.1l4.3 2.4Zm-221.2-.8l6.9 3.7l-3.6 6.7l-6.9-3.7Zm847.6-.4l6.9 3.7l-3.5 6.6l-7-3.6Zm443-.1c1.1 1.6 1.9 3.2 2.4 4.7c.5 1.8 .8 4.2 .8 7v5.8c0 4.2 .3 7.1 .8 8.7c.5 1.3 1.2 1.9 2.1 1.9H1434c1.8 0 3.2-.2 4.3-.6c1.3-.6 2.2-1.6 2.8-2.9c1.1-2.6 2.5-4.6 4.3-6.3c1.6-1.4 2.9-2.1 4-2.1c1 0 2.3 1.5 3.8 4.6c1.5 3.2 2.3 6.2 2.3 8.9v6.5c-2.1 0-4.5-.4-7.3-1.2c-2.5-.7-4.7-1.6-6.6-2.6c-1 1.6-2.2 2.6-3.6 3.2l-.4 .1v.5h-27c-2.3 0-4-.9-5-2.8c-1.2-2.1-1.8-5.7-1.8-10.7v-8.5c0-1.9-.2-3.4-.8-4.5c-.2-.5-.8-1.2-1.7-2.2Zm-26.7 0l1.8 10.6c.7 4 1.1 7.5 1.4 10.4c.2 2.3 .3 4.5 .3 6.6c0 1.7-.2 3.3-.7 4.8c-.4 1.4-1.2 3.4-2.4 5.9l-1.8-.7c.5-2.6 .8-4.6 .8-6.2c0-1.2-.2-3-.4-5.4c-.1-2.3-.4-4.6-.7-6.9c-.3-2.3-.8-5.1-1.5-8.2c-.2-1.2-.3-1.9-.3-2.3c0-.7 .3-1.7 .9-3.2c.6-1.5 1.5-3.3 2.6-5.4Zm-127 0l1.7 10.6c.7 4 1.2 7.5 1.4 10.4c.2 2.3 .3 4.5 .3 6.6c0 1.7-.2 3.3-.6 4.8c-.4 1.4-1.2 3.4-2.4 5.9l-1.8-.7c.5-2.6 .7-4.6 .7-6.2c0-1.2-.1-3-.3-5.4c-.2-2.3-.4-4.6-.7-6.9c-.3-2.3-.8-5.1-1.5-8.2c-.2-1.2-.4-1.9-.4-2.3c0-.7 .4-1.7 1-3.2c.6-1.5 1.4-3.3 2.6-5.4Zm-64 0l1.8 10.6c.6 4 1.1 7.5 1.3 10.4c.2 2.3 .3 4.5 .3 6.6c0 1.7-.2 3.3-.6 4.8c-.4 1.4-1.2 3.4-2.4 5.9l-1.8-.7c.5-2.6 .7-4.6 .7-6.2c0-1.2-.1-3-.3-5.4c-.2-2.3-.4-4.6-.7-6.9c-.3-2.3-.8-5.1-1.5-8.2c-.2-1.2-.4-1.9-.4-2.3c0-.7 .4-1.7 1-3.2c.6-1.5 1.5-3.3 2.6-5.4Zm-171.4 0l1.7 10.6c.7 4 1.2 7.5 1.4 10.4c.2 2.3 .3 4.5 .3 6.6c0 1.7-.2 3.3-.6 4.8c-.4 1.4-1.2 3.4-2.4 5.9l-1.8-.7c.5-2.6 .7-4.6 .7-6.2c0-1.2-.1-3-.3-5.4c-.2-2.3-.4-4.6-.8-6.9c-.2-2.3-.7-5.1-1.4-8.2c-.2-1.2-.4-1.9-.4-2.3c0-.7 .4-1.7 1-3.2c.6-1.5 1.4-3.3 2.6-5.4Zm-179 0l1.8 10.6c.7 4 1.1 7.5 1.4 10.4c.2 2.3 .3 4.5 .3 6.6c0 1.7-.2 3.3-.6 4.8c-.5 1.4-1.3 3.4-2.5 5.9l-1.7-.7c.4-2.6 .7-4.6 .7-6.2c0-1.2-.1-3-.3-5.4c-.2-2.3-.5-4.6-.8-6.9c-.3-2.3-.8-5.1-1.4-8.2c-.3-1.2-.4-1.9-.4-2.3c0-.7 .3-1.7 .9-3.2c.6-1.5 1.5-3.3 2.6-5.4Zm-317.4 0c1.1 1.6 1.9 3.2 2.4 4.7c.5 1.8 .8 4.2 .8 7v5.8c0 4.2 .3 7.1 .8 8.7c.5 1.3 1.2 1.9 2.1 1.9h20.2c1 0 2.1-.1 3.3-.3c1.2-.3 2.1-.4 2.6-.6c2.2-5.9 4.1-10.2 5.8-12.9c1.5-2.3 2.9-3.5 4.1-3.5c1 0 1.9 1 2.7 3c.6 1.7 .9 3.4 .9 5c0 2.4-.4 4.3-1.4 5.9c-1 1.8-2.4 3.1-4.4 4c1.4-.3 2.7-.4 3.9-.5c1.2-.1 2.3-.1 3.3-.1h19.7c-.2-1.3-.6-2.5-1.2-3.4c-.3-.5-1-1.4-2.1-2.7l2.4-7.1c1.5 1.7 2.5 3.5 3 5.3c.6 1.9 .9 4.6 .9 8.2v7.8H566.1c-.4 0-.9 0-1.4 0c-.4 0-1.1 .1-2.1 .2c.7 .4 1.5 .8 2.2 1.2c.6 .5 1 1.2 1 2c0 .8-.1 1.6-.3 2.5c-.2 .5-.5 1.3-.9 2.6c-.8 2.5-1.6 4.2-2.3 5.1c-.7 .9-1.7 1.3-2.8 1.3c-2.7 0-5.1-1.5-7.1-4.4c-2-2.9-3-6.4-3-10.5H525.1c-2.3 0-4-.9-5-2.8c-1.2-2.1-1.8-5.7-1.8-10.7v-8.5c0-1.9-.2-3.4-.7-4.5c-.3-.5-.9-1.2-1.8-2.2Zm-78.4 0l1.8 10.6c.7 4 1.1 7.5 1.4 10.4c.2 2.3 .3 4.5 .3 6.6c0 1.7-.3 3.3-.7 4.8c-.4 1.4-1.2 3.4-2.4 5.9l-1.8-.7c.5-2.6 .8-4.6 .8-6.2c0-1.2-.2-3-.4-5.4c-.1-2.3-.4-4.6-.7-6.9c-.3-2.3-.8-5.1-1.5-8.2c-.2-1.2-.3-1.9-.3-2.3c0-.7 .3-1.7 .9-3.2c.6-1.5 1.5-3.3 2.6-5.4Zm-222.6 0l1.8 10.6c.7 4 1.1 7.5 1.4 10.4c.2 2.3 .3 4.5 .3 6.6c0 1.7-.2 3.3-.6 4.8c-.4 1.4-1.3 3.4-2.4 5.9l-1.8-.7c.4-2.6 .7-4.6 .7-6.2c0-1.2-.1-3-.3-5.4c-.2-2.3-.5-4.6-.8-6.9c-.3-2.3-.7-5.1-1.4-8.2c-.3-1.2-.4-1.9-.4-2.3c0-.7 .3-1.7 .9-3.2c.7-1.5 1.5-3.3 2.6-5.4Zm405.5-1.8l5.5 2.8l-3 6.2l-5.6-2.9Zm549.6-.5l1.4 .7c-.1 .3-.1 .6-.1 1c0 .7 .4 1.4 1.2 1.9c1.2 .7 2.4 1.3 3.4 1.9c-.2 1.7-.4 2.9-.6 3.7c-.2 .7-.7 1.8-1.4 3.3l-.9-.4c0 .3 .3 2 .9 5.1c.5 3.1 1 5.8 1.4 8c.6 3.2 .8 5.2 .8 5.9v6.7c0 3-1.5 5.8-4.7 8.1c-3.2 2.4-6.8 3.6-10.9 3.6c-3.4 0-6.1-.9-8-2.6c-1.9-1.7-2.9-4.1-2.9-7.2c0-2.9 .4-5.4 1.1-7.6c.8-2.4 2.4-5.3 4.8-8.9l1.8 1.3c-1.5 2.3-2.6 4.3-3.3 6c-.6 1.7-1 3.4-1 5.1c0 1.8 .7 3.2 2 4.2c1.4 1 3.3 1.5 5.7 1.5c3.5 0 6.4-.7 8.6-2c2.1-1.4 3.2-3.2 3.2-5.3c0-.4 0-.7 0-.9c0-.3 0-.4 0-.5c0-.8 0-1.7-.2-2.6c-.1-.9-.4-2.9-1-5.8c-.8-4.7-1.7-9.4-2.5-14.1l-1.5-1.1c0-2 .9-5 2.7-9Zm-793.6 0l1.4 .7c-.1 .3-.2 .6-.2 1c0 .7 .4 1.4 1.3 1.9c1.2 .7 2.3 1.3 3.4 1.9c-.2 1.7-.4 2.9-.7 3.7c-.2 .7-.6 1.8-1.3 3.3l-.9-.4c0 .3 .3 2 .8 5.1c.6 3.1 1.1 5.8 1.5 8c.4 2.4 .6 4.1 .7 5.1l.1 .1h34.6c-2.4-2.5-4.6-4.3-6.6-5.3c-1.8-1-3.6-1.5-5.3-1.5c-.6 0-1 0-1.5 .1c-.4 0-1 .1-1.8 .3c1.1-2.5 2.3-4.4 3.6-5.5c1.4-1.2 2.9-1.8 4.6-1.8c1.3 0 2.6 .3 3.8 .9c1.2 .7 2.6 1.7 4.1 3.1c1.2 1.1 2.9 2.8 5 5.2c1.5 1.7 2.7 2.8 3.5 3.3c.7 .5 1.9 .9 3.5 1.2v8.1H385.5l-.2 1.5c-.6 2.2-2.1 4.1-4.5 5.9c-3.1 2.4-6.8 3.6-10.8 3.6c-3.5 0-6.1-.9-8-2.6c-1.9-1.7-2.9-4.1-2.9-7.2c0-2.9 .4-5.4 1.1-7.6c.8-2.4 2.4-5.3 4.7-8.9l1.9 1.3c-1.6 2.3-2.7 4.3-3.3 6c-.7 1.7-1 3.4-1 5.1c0 1.8 .7 3.2 2 4.2c1.3 1 3.2 1.5 5.7 1.5c3.5 0 6.3-.7 8.5-2c2.2-1.4 3.3-3.2 3.3-5.3c0-.4 0-.7 0-.9c0-.3 0-.4 0-.5c0-.8-.1-1.7-.2-2.6c-.1-.9-.5-2.9-1-5.8c-.9-4.7-1.7-9.4-2.6-14.1l-1.5-1.1c0-2 1-5 2.8-9Zm984.5 0l1.4 .7c0 .1-.1 .4-.1 1c0 .6 .4 1.2 1.2 1.9c.8 .5 1.9 1.1 3.5 1.8c-.1 1.3-.4 2.5-.8 3.7c-.3 1.2-.7 2.3-1.1 3.3l-1.1-.4l3.2 18.4v8.1h-29.8v.7c0 1.2-.7 2.8-2.1 4.8c-1.4 2-3.1 3.8-4.9 5.2c-2.1 1.7-3.9 2.5-5.3 2.5c-1.8 0-3.7-.5-5.7-1.5c-1.7-.9-4.4-2.6-8.1-5.1l1.2-1.9c1.8 1.2 3.2 2 4.3 2.4c1.1 .4 2.3 .6 3.6 .6c1.3 0 2.7-.4 4.1-1.1c1.4-.8 3.2-2.2 5.6-4.3c3.3-3 4.9-5.2 4.9-6.8c0-.8-.3-1.9-.9-3.2c-.7-1.4-1.6-2.7-2.6-3.6l1.6-8.1c1.4 1.4 2.4 3 3.2 4.8c.7 1.8 1.1 3.9 1.1 6.2v.3h26.3l-3.6-20.2l-2-1.3c0-1.2 .2-2.3 .6-3.5c.5-1.5 1.2-3.3 2.3-5.4Zm-127 0l1.3 .7c0 .1 0 .4-.1 1c0 .6 .4 1.2 1.3 1.9c.7 .5 1.9 1.1 3.5 1.8c-.2 1.3-.5 2.5-.8 3.7c-.4 1.2-.7 2.3-1.2 3.3l-1.1-.4l3.3 18.4v8.1h-43.4c-1.3 0-2.3-.3-3-.8c-.8-.7-1.3-1.8-1.3-3.3c0-.9 .1-1.8 .2-2.9c.1-1 .2-2 .4-3l1.1-.1c.2 .7 .5 1.2 1.1 1.5c.5 .4 1.2 .5 1.9 .5h10.3c-.5-2.9-1.3-5.2-2.4-7c-.9-1.4-2.2-2.7-3.9-3.8l2.1-9.2c2.6 1.9 4.5 4.4 5.5 7.4c1 2.8 1.5 6.5 1.5 11.2v1.4h26.3l-3.6-20.2l-1.9-1.3c0-1.2 .2-2.3 .5-3.5c.5-1.5 1.3-3.3 2.4-5.4Zm-141.6 0l1.4 .7c0 .1 0 .4-.1 1c0 .6 .4 1.2 1.2 1.9c.8 .5 1.9 1.1 3.6 1.8c-.2 1.3-.5 2.5-.8 3.7c-.4 1.2-.8 2.3-1.2 3.3l-1.1-.4l3.3 18.4h1.1c.6 0 1 0 1.3 0c.6-.1 1.1-.1 1.7-.2c-1-1.5-1.6-2.7-2-3.6c-.3-.9-.5-2-.5-3.1c0-3 1.3-5.6 3.7-7.8c2.5-2.2 5.3-3.3 8.6-3.3c2.2 0 4.3 .7 6.3 2.2c1.9 1.3 3.2 3 4.1 4.9l-1.3 1c-1.6-.5-2.8-.9-3.7-1.1c-.9-.2-2.1-.3-3.4-.3c-2.5 0-4.6 .2-6.4 .6c-2.3 .5-3.5 1.2-3.5 2.2c0 1.3 2.8 3.6 8.3 6.8l15.2-4.4l-3.4 8.5c-5.3 1.6-9.7 2.9-13.2 3.8c-3.1 .8-5.6 1.3-7.7 1.6c-1.6 .2-3.1 .3-4.7 .3h-32.9c-.7 0-1.3 .1-1.7 .2c-.5 .1-.7 .3-.7 .5c0 .1 .5 .4 1.4 .8c1 .3 1.5 .9 1.5 1.7c0 1.1-.2 2.4-.5 4c-.3 1.5-.8 2.9-1.3 4.1c-.5 1-1.7 2.1-3.7 3.3c-2.1 1.3-4.6 2.4-7.3 3.3c-3.1 1-6.1 1.5-8.9 1.5c-3.2 0-5.7-.8-7.3-2.3c-1.7-1.5-2.5-3.6-2.5-6.5c0-3.1 .4-5.9 1.2-8.2c.9-2.8 2.8-6.4 5.6-10.9l1.6 1.3c-1.8 3.2-3.1 5.7-3.8 7.6c-.7 1.9-1 3.7-1 5.6c0 1.8 .5 3.2 1.7 4.3c1.2 1 2.8 1.6 4.9 1.6c2.5 0 5.2-.4 8.1-1.2c2.6-.7 4.9-1.5 6.8-2.5c1.8-1 2.8-1.8 2.8-2.5c0-.2-.6-.3-1.7-.3c-1.1-.1-2.1-.1-3-.1c-2.1 0-3.4 0-4.1-.2c-.6-.2-.9-.5-.9-1.1c0-1.1 .2-2.2 .6-3.4c.4-1.2 .8-2.1 1.4-2.8c1.3-1.5 2.8-2.9 4.6-4c2-1.3 3.8-1.9 5.4-1.9h29.6l-3.6-20.2l-1.9-1.3c0-1.2 .1-2.3 .5-3.5c.5-1.5 1.2-3.3 2.3-5.4Zm-272.8 0l1.4 .7c0 .1 0 .4-.1 1c0 .6 .4 1.2 1.2 1.9c.8 .5 1.9 1.1 3.6 1.8c-.2 1.3-.5 2.5-.8 3.7c-.4 1.2-.8 2.3-1.2 3.3l-1.1-.4l3.3 18.4v8.1H779.4c-.9 0-1.5 0-1.9 .1c-.4 0-.6 .1-.6 .4c.6 .3 1.2 .5 1.7 .7c.5 .1 .8 .3 .9 .5c.2 .2 .3 .5 .3 1c0 1.4-.4 3.1-1.2 5c-.8 2-1.6 3.2-2.4 3.7c-.7 .6-2.9 1.3-6.5 2.1c-3.7 .8-6.8 1.2-9.4 1.2c-3.7 0-6.8-.8-9.1-2.3c-2.3-1.6-3.4-3.6-3.4-6.1c0-2.4 .5-4.7 1.5-6.9c1.2-2.7 3.5-6.1 6.8-10.1l1.8 1.2c-2.1 2.5-3.5 4.6-4.3 6.2c-.8 1.6-1.2 3.1-1.2 4.7c0 2.1 .8 3.7 2.6 4.7c1.8 1 4.5 1.5 8.2 1.5c1.9 0 4.5-.3 7.9-1c3.4-.7 5.1-1.3 5.1-1.8c0-.3-.7-.5-2-.7c-1.3-.2-2.7-.3-4.2-.3c-2.3 0-3.5-.5-3.5-1.5c0-.4 .3-1.3 .9-2.4c.3-.8 .7-1.7 1.1-2.5c.8-1.6 2.2-2.9 4.2-4c2.1-1 4.3-1.5 6.6-1.5h32.3c-.2-1.3-.6-2.5-1.1-3.4c-.3-.5-1-1.4-2.1-2.7l2.3-7.1c1.5 1.7 2.6 3.5 3.1 5.3c.5 1.6 .7 3.9 .8 6.9v1h10.7l-3.6-20.2l-1.9-1.3c0-1.2 .1-2.3 .5-3.5c.5-1.5 1.2-3.3 2.3-5.4Zm-524.1 0l1.4 .7c0 .1-.1 .4-.2 1c0 .6 .4 1.2 1.3 1.9c.7 .5 1.9 1.1 3.5 1.8c-.2 1.3-.4 2.5-.8 3.7c-.3 1.2-.7 2.3-1.2 3.3l-1-.4l3.2 18.4H308c.9 0 1.8 0 2.6 .1c2.2 .3 4.7 .5 7.5 .8c-3-.6-5.1-1.5-6.3-2.6c-1.1-1-1.7-2.6-1.7-4.7c0-3.1 .7-5.9 2.1-8.3c1.4-2.5 3-3.7 4.8-3.7c2 0 3.7 1.7 5.2 5.2c1.5 3.4 2.3 7.6 2.3 12.5v.7h13.6c-.2-1.3-.6-2.5-1.2-3.4c-.3-.5-1-1.4-2.1-2.7l2.4-7.1c1.5 1.7 2.5 3.5 3.1 5.3c.5 1.9 .8 4.6 .8 8.2v7.8H270.2c-3.5 0-5.9-.5-7.2-1.5c-1.3-1-1.9-2.9-1.9-5.7c0-1.3 .1-2.5 .2-3.6c.1-.4 .3-1.4 .5-2.9c-4.5 1.1-8.2 2.9-11 5.5c-2.8 2.7-4.2 5.7-4.2 9.1c0 4 1.7 7 5.1 9.2c3.4 2.1 8.3 3.2 14.7 3.2c1.9 0 4.6-.2 8.1-.5l.6 .9l-11.4 7.3h-2.8c-5.9 0-10.3-1.4-13.5-4.4c-3.1-2.9-4.7-7.1-4.7-12.6c0-4.2 .9-8 2.8-11.6c1.9-3.5 4.4-6.1 7.3-7.7h-.6c-1.9 0-3.4 .2-4.6 .6c-1.2 .3-3 1.1-5.4 2.4c.8-7.4 4.5-11.1 10.8-11.1c.7 0 2.1 .1 4.2 .3c2.1 .2 3.9 .4 5.5 .5c3 .2 6 .4 8.9 .4l-1.8 7.2c-1.2 0-2.2 0-3 .2c-1.1 .2-2.1 .4-3 .6c-.1 .4-.1 .8-.2 1.3c0 .5 0 .8 0 1.1c0 1.4 .4 2.4 1.3 2.9c1 .5 2.7 .8 5.2 .8h31l-3.6-20.2l-1.9-1.3c0-1.2 .2-2.3 .6-3.5c.4-1.5 1.2-3.3 2.3-5.4Zm-94.3 0l1.4 .7c0 .1 0 .4-.1 1c0 .6 .4 1.2 1.3 1.9c.7 .5 1.9 1.1 3.5 1.8c-.2 1.3-.5 2.5-.8 3.7c-.4 1.2-.8 2.3-1.2 3.3l-1.1-.4l3.3 18.4v8.1H179.3l-.7 3.1c-.7 1.7-1.8 3.3-3.2 5c-2.9 3.3-5.8 5-8.6 5c-1.7 0-3.5-.5-5.4-1.6c-2-1-5-3.1-9.1-6.2l1.3-1.7c2.1 1.4 3.9 2.4 5.3 2.8c1.1 .4 2.4 .6 3.8 .6c1.9 0 3.9-.5 5.7-1.6c2.3-1.3 4.6-3.3 7-6.1c-.9 .1-1.6 .1-2.1 .1c-2 0-3.6-.6-4.7-1.9c-1.2-1.2-1.8-3-1.8-5.2c0-3 .7-5.9 2.1-8.6c1.5-3 3.2-4.5 5.1-4.5c1.6 0 2.9 1.1 4 3.2c1.1 2.2 1.7 4.8 1.7 7.9v1.6h13.6c-.3-1.3-.7-2.5-1.2-3.4c-.3-.5-1-1.4-2.1-2.7l2.4-7.1c1.5 1.7 2.5 3.5 3 5.3c.5 1.6 .8 3.9 .8 6.9v1h10.7l-3.6-20.2l-1.9-1.3c0-1.2 .2-2.3 .5-3.5c.5-1.5 1.2-3.3 2.3-5.4Zm110.4-.3l7 3.7L318 306l-7-3.7Zm595.9-.1l5.6 3.1l-3.1 5.7l-4.4-2.2l-2.5 4.9l-5.5-3.1l3.3-6.1l4.3 2.4Zm16.8-2l1.3 .6c0 .1 0 .4-.1 .8c0 .7 1 1.5 3 2.4c.6 .4 1.6 .8 2.9 1.3c-.2 1.5-.5 3-.9 4.3c-.3 .7-.7 1.7-1.2 3.2l-1.1-.4c.6 2.8 1 4.9 1.2 6.3c.2 1.3 .4 2.5 .4 3.5v.4c0 .6-.1 1-.1 1.3c0 .4-.1 .9-.3 1.6c1.1-.8 2.1-1.5 3.2-2.3c1.6-1.1 3-2 4.3-2.7c1.7-1 3-1.4 3.8-1.4c2.4 0 4.2 .6 5.7 1.8c1.6 1.4 2.3 3.4 2.3 5.9v6.2h13.6c-.2-1.3-.6-2.5-1.2-3.4c-.3-.5-1-1.4-2.1-2.7l2.4-7.1c1.5 1.7 2.5 3.5 3 5.3c.5 1.6 .8 3.9 .8 6.9l.1 1H972c1.8 0 3.2-.2 4.3-.6c1.3-.6 2.2-1.6 2.8-2.9c1.1-2.6 2.5-4.6 4.3-6.3c1.6-1.4 2.9-2.1 4-2.1c1 0 2.3 1.5 3.8 4.6c1.1 2.4 1.9 4.7 2.2 6.8v.5h10.8l-3.6-20.2l-1.9-1.3c0-1.2 .2-2.3 .5-3.5c.5-1.5 1.3-3.3 2.4-5.4l1.3 .7c0 .1 0 .4-.1 1c0 .6 .4 1.2 1.3 1.9c.7 .5 1.9 1.1 3.5 1.8c-.2 1.3-.5 2.5-.8 3.7c-.4 1.2-.7 2.3-1.2 3.3l-1.1-.4l3.3 18.4v8.1H991.4v-.1l-.4-.1c-1.5-.2-3.1-.5-4.8-1c-2.5-.7-4.7-1.6-6.6-2.6c-1.1 1.8-2.6 2.9-4.3 3.4c-.8 .3-1.9 .4-3.3 .4H880.5c-.7 0-1.3-.1-1.9-.4c-1.2-.6-2.2-1.6-3-3.2c-1-2.1-1.7-5-2-8.6c-1.4 1.6-2.4 2.8-3.2 3.5c-1.1 1-2 1.5-2.7 1.5c-.4 0-.9 0-1.5-.1l-3.6-.8c-1.6-.3-2.5-.5-2.9-.6c-.3-.2-.5-.4-.5-.8c0-.5 .7-2.2 2.1-5.1c1.3-2.8 2.3-4.6 3-5.3c.5-.5 1.3-1.2 2.6-2.1c.8-.5 1.8-1.1 3.2-1.9l1.6-1c-.1-.2-.1-.5-.1-.8c0-.3-.1-.6-.1-.8c0-.8 .2-1.7 .6-2.9c.3-1.1 .9-2.5 1.8-4.2l2.9 18.6c.4 2.9 1 4.9 1.8 5.9c.4 .7 1.1 1 1.9 1h26.8v.3l2.1 .2c1.2 .1 2.5 .3 3.9 .4c-2.9-.6-5-1.5-6.2-2.6c-1.2-1-1.8-2.6-1.8-4.7c0-3.1 .8-5.9 2.2-8.3c1.4-2.5 3-3.7 4.8-3.7c2 0 3.7 1.7 5.2 5.2c1.5 3.4 2.3 7.6 2.3 12.5v.7h1.9c.4 0 1.8-.8 4-2.5c.7-.5 1.8-1.3 3.2-2.5c0-2.4-.1-4.5-.3-6.2c-.2-1.6-.5-3.4-.9-5.2c-.1-.5-.6-2.6-1.6-6.5l-1.7-1.1c.5-2.1 .8-3.6 1.1-4.5c.3-.9 .9-2.3 1.8-4.3Zm378.4-1.8l5.5 3l-3.1 5.8l-4.4-2.2l-2.5 4.8l-5.4-3l3.3-6.1l4.2 2.4Zm-433.5-1.8l5.4 2.7l-3.3 5.6l-4.3-2.4l-2.3 4.7l-5.6-3l3.1-5.3l4.4 2.2Zm-811.4 0l5.3 2.7l-3.3 5.6l-4.2-2.4l-2.4 4.7l-5.5-3l3.1-5.3l4.4 2.2Z" class="g0_53"/>
<path d="M766.4 349.8l3.7 2.4l-2.9 3.4l-3.1-2l-2.4 2.5L758 354l2.8-3.6l3.3 2.1ZM578.8 336.9l6.9 3.7l-3.5 6.7l-7-3.6Zm-392.5 0l6.9 3.7l-3.5 6.7l-7-3.6Zm-40.1-.3l5.6 3.1l-3.1 5.7l-4.4-2.2l-2.6 4.9l-5.4-3.1l3.3-6l4.2 2.3Zm406.6-1.7c.3 1.8 1.2 3.3 2.7 4.6c1.5 1.3 3.2 1.9 4.9 1.9c.6 0 .9-.2 .9-.6c0-1.1-.6-2.2-1.9-3.2c-1.5-1.2-3.7-2.1-6.6-2.7Zm-298.7-3.7l7 3.7l-3.6 6.7l-7-3.7Zm-81.4-9.7c-.6 0-1.1 .3-1.4 .7c-.4 .5-.6 1.1-.6 1.6c0 .8 .4 1.3 1.2 1.8c.8 .5 1.8 .7 3.1 .7h1.1c-.5-3.2-1.7-4.8-3.4-4.8Zm1273.5-.2c-.8 0-1.4 .9-2 2.7c1.1 .4 1.8 .7 2.4 .9c1.6 .6 2.5 .9 2.7 .9c.4 0 .7-.1 .7-.4c0-.4-.5-1.2-1.3-2.3c-1-1.2-1.8-1.8-2.5-1.8Zm-462 0c-.8 0-1.4 .9-2 2.7c1.1 .4 1.8 .7 2.4 .9c1.6 .6 2.5 .9 2.7 .9c.4 0 .7-.1 .7-.4c0-.4-.5-1.2-1.3-2.3c-1-1.2-1.8-1.8-2.5-1.8Zm-495.6 0c-.7 0-1.4 .9-1.9 2.7c1 .4 1.8 .7 2.3 .9c1.6 .6 2.5 .9 2.7 .9c.5 0 .7-.1 .7-.4c0-.4-.4-1.2-1.3-2.3c-.9-1.2-1.8-1.8-2.5-1.8Zm452.9-.9c-1.3 0-2.8 .4-4.4 1.3c-1.7 .8-4 2.4-7.2 4.6h7.9c6.5 0 9.8-1 9.8-3c0-.7-.7-1.4-2.2-2c-1.5-.6-2.8-.9-3.9-.9Zm-816.1 0c-1.3 0-2.8 .4-4.4 1.3c-1.6 .8-4 2.4-7.1 4.6h7.8c6.5 0 9.8-1 9.8-3c0-.9-.7-1.6-2.1-2.2c-1.2-.5-2.5-.7-4-.7Zm432.9-2.6c-.5 0-1.1 .5-1.8 1.6c-.6 1.2-1.5 2.9-2.5 5.3c2.3-.8 3.9-1.4 4.8-2c.8-.6 1.3-1.2 1.3-1.9c0-.5-.2-1.2-.6-1.9c-.4-.8-.8-1.1-1.2-1.1Zm352.4-1.2c-.4 0-.7 .2-1 .4c-.3 .3-.5 .6-.5 .9c0 .9 .7 1.7 2 2.5c1.2 .8 2.7 1.4 4.5 1.7c-.7-1.8-1.5-3.1-2.4-4c-.8-1-1.7-1.5-2.6-1.5Zm-595.3 0c-.4 0-.7 .2-1 .4c-.3 .3-.5 .6-.5 .9c0 .9 .7 1.7 2 2.5c1.3 .8 2.8 1.4 4.5 1.7c-.7-1.8-1.5-3.1-2.3-4c-.9-1-1.8-1.5-2.7-1.5Zm176.5-2.2c1 0 2.2 1.5 3.7 4.6c1.6 3.2 2.4 6.2 2.4 8.9v6.5c-2.1 0-4.6-.4-7.4-1.2c-2.5-.7-4.7-1.6-6.6-2.6c-1.1 1.8-2.5 2.9-4.2 3.4c-.8 .3-1.9 .4-3.3 .4h-3.9v.7c0 1.2-.7 2.8-2 4.8c-1.4 2-3.1 3.8-4.9 5.2c-2.1 1.7-3.9 2.5-5.3 2.5c-1.8 0-3.7-.5-5.7-1.5c-1.7-.9-4.4-2.6-8.2-5.1l1.3-1.9c1.8 1.2 3.2 2 4.3 2.4c1.1 .4 2.3 .6 3.6 .6c1.3 0 2.7-.4 4.1-1.1c1.3-.8 3.2-2.2 5.6-4.3c3.3-3 4.9-5.2 4.9-6.8c0-.8-.3-1.9-.9-3.2c-.8-1.4-1.6-2.7-2.7-3.6l1.7-8.1c1.4 1.4 2.4 3 3.1 4.8c.8 1.8 1.1 3.9 1.1 6.2v.3h3.9c1.7 0 3.2-.2 4.2-.6c1.4-.6 2.3-1.6 2.8-2.9c1.1-2.6 2.6-4.6 4.4-6.3c1.5-1.4 2.9-2.1 4-2.1Zm380.3-.4c-.6 .3-1.1 .5-1.4 .7c-1.1 .6-2 1.1-2.7 1.6c-.4 .4-.8 .8-1.2 1.1c-.4 .5-.6 .8-.6 1c0 .3 .4 .5 1.1 .7c.7 .1 1.4 .2 2 .2c.5 0 .9-.1 1.4-.4c.5-.2 1.2-.7 2-1.3ZM60.8 314c-.6 .3-1.1 .5-1.5 .7c-1.1 .6-1.9 1.1-2.6 1.6c-.5 .4-.9 .8-1.2 1.1c-.4 .5-.6 .8-.6 1c0 .3 .4 .5 1.1 .7c.7 .1 1.3 .2 2 .2c.4 0 .9-.1 1.4-.4c.5-.2 1.1-.7 2-1.3Zm550.6-.7l1.6 1.1c-.4 .8-.8 1.5-1 2.1c-.3 .7-.6 1.2-.7 1.7c-.3 .9-.5 1.8-.5 2.7c0 1.2 .4 2.2 1.1 3.1c.8 .9 1.7 1.5 2.9 1.8c.7 .1 1.6 .3 2.7 .4c1.1 .1 2.3 .1 3.5 .1h21.6c-.6-1.6-1.1-2.6-1.4-3.2c-.4-.8-1.1-1.7-2-2.9l2.7-6.9c1.4 2.1 2.4 4.1 2.9 5.8c.4 1.6 .6 3.9 .6 6.9v8.4h-25c-1.2 0-2.2 0-3 0c-.8 0-1.4-.1-1.8-.1c-.8-.1-1.6-.3-2.6-.6c-1.6-.6-3-1.7-4-3.4c-1-1.7-1.6-3.6-1.6-5.7c0-.9 .1-1.7 .2-2.6c.1-.9 .3-1.8 .7-2.8c.4-1.2 .8-2.3 1.4-3.2c.5-1 1.1-1.9 1.7-2.7Zm693.4-1.5c-.6 0-1.1 .3-1.6 .9c-.5 .5-.7 1.1-.7 1.8c0 .5 .2 .9 .6 1.2c.3 .3 .8 .4 1.4 .4c.4 0 .9-.1 1.4-.4c.4-.2 1-.7 1.7-1.3c-.6-1-1-1.6-1.5-2c-.4-.4-.8-.6-1.3-.6Zm-645.5-5.5c2.6 1.9 4.4 4.4 5.5 7.4c1 2.8 1.5 6.5 1.5 11.2v1.4h34.6c-2.4-2.5-4.6-4.3-6.6-5.3c-1.9-1-3.6-1.5-5.4-1.5c-.5 0-.9 0-1.4 .1c-.4 0-1 .1-1.8 .3c1.1-2.5 2.3-4.4 3.6-5.5c1.4-1.2 2.9-1.8 4.6-1.8c1.3 0 2.6 .3 3.8 .9c1.2 .7 2.5 1.7 4.1 3.1c1.1 1.1 2.8 2.8 5 5.2c1.5 1.7 2.7 2.8 3.4 3.3c.8 .5 2 .9 3.6 1.2h13.5c-.2-1.3-.6-2.5-1.2-3.4c-.3-.5-1-1.4-2.1-2.7l2.4-7.1c1.5 1.7 2.5 3.5 3.1 5.3c.5 1.9 .8 4.6 .8 8.2v7.8H652.8c-1.4 0-2.4-.3-3.1-.8c-.8-.7-1.2-1.8-1.2-3.3c0-.9 0-1.8 .1-2.9c.1-1 .2-2 .4-3l1.1-.1c.2 .7 .6 1.2 1.1 1.5c.5 .4 1.2 .5 2 .5h10.2c-.4-2.9-1.2-5.2-2.4-7c-.9-1.4-2.2-2.7-3.9-3.8Zm646.1-2c2 0 4 1.8 5.9 5.4c1.8 3.7 2.7 7.5 2.7 11.6v13.1h-22.4c-3.7 0-6.9 .3-9.7 .9c-2.8 .6-4.2 1.3-4.2 2.1c.8 2.4 1.5 4.7 2.1 6.7c.6 2.1 .9 4.1 .9 6c0 1.3-.2 2.4-.4 3.2c-.3 .9-.8 1.8-1.5 2.8c-.2-2.6-.7-5.4-1.5-8.3c-.2-1-.9-3.1-1.9-6.4c-.7-2-1-3.3-1-4c0-.9 .3-2.1 .8-3.5c.4-1.1 .9-2.1 1.4-3c.7-1 1.8-1.7 3.3-2.3c1.6-.6 4-1.1 7.3-1.4c-1.6-2.2-3-3.4-4.2-3.4c-.5 0-1 .2-1.5 .6c-.4 .4-1.2 1.3-2.2 2.7l-1.4-.8c.9-3 1.9-5.3 3.2-7c1.3-1.6 2.7-2.4 4.2-2.4c1.4 0 2.8 .7 4.5 2.3c1.6 1.5 3.5 3.9 5.6 7.1h15.8c0-1.7 0-2.9-.1-3.7c-.2-1.1-.5-2.1-1-2.9c-.6 1.2-1.5 2.1-2.6 2.8c-1 .7-2.2 1-3.4 1c-1.6 0-2.9-.5-4-1.6c-1.1-1.1-1.7-2.4-1.7-4c0-2.3 .8-5.1 2.2-8.3c1.6-3.5 3.1-5.3 4.8-5.3Zm-676-1l5.4 3l-3.3 6.1l-4.2-2.4l-2.4 4.7l-5.5-3l3.1-5.8l4.4 2.2ZM62.5 300.8l2.8 18.6c.5 2.9 1.1 4.9 1.8 5.9c.5 .7 1.2 1 2 1H90.7c2.3 0 4.1-.6 5.3-1.7c1.4-1.4 2.3-3.7 2.7-7l2 .3c-.1 .7-.1 1.3-.1 1.7c-.1 1.3-.2 2.4-.2 3.2c0 1.1 .3 2 .9 2.6c.6 .6 1.4 .9 2.4 .9c1 0 1.9-.2 2.7-.6c.8-.4 2.1-1.2 3.9-2.5l10.7-7.6c1.2-.9 2.1-1.5 2.8-1.9c1.4-.9 2.8-1.3 4.2-1.3c2.2 0 4 .8 5.3 2.4c1.6 1.8 2.3 4.5 2.3 8.2v3.3h13.7c-.3-1.3-.7-2.5-1.2-3.4c-.3-.5-1-1.4-2.1-2.7l2.4-7.1c1.5 1.7 2.5 3.5 3 5.3c.6 1.9 .8 4.6 .8 8.2v7.8H104.1c-1.4 0-2.6-.3-3.4-1c-.8-.7-1.6-1.9-2.2-3.5c-.8 1.1-1.5 2-2.3 2.7l-.4 .3v1.5H69.1c-.7 0-1.4-.1-2-.4c-1.1-.6-2.1-1.6-2.9-3.2c-1.1-2.1-1.8-5-2.1-8.6c-1.3 1.6-2.4 2.8-3.1 3.5c-1.1 1-2 1.5-2.8 1.5c-.4 0-.8 0-1.4-.1l-3.6-.8c-1.6-.3-2.5-.5-2.9-.6c-.4-.2-.5-.4-.5-.8c0-.5 .6-2.2 2-5.1c1.4-2.8 2.4-4.6 3-5.3c.5-.5 1.4-1.2 2.7-2.1c.7-.5 1.8-1.1 3.2-1.9l1.6-1c-.1-.2-.1-.5-.2-.8c0-.3 0-.6 0-.8c0-.8 .2-1.7 .5-2.9c.4-1.1 1-2.5 1.9-4.2Zm746.1-1.3l5.6 3.1l-3.1 5.7l-4.5-2.2l-2.5 4.9l-5.4-3.1l3.3-6.1l4.2 2.4Zm-84.3 0l5.5 3.1l-3.1 5.7l-4.4-2.2l-2.5 4.9l-5.4-3.1l3.3-6.1l4.2 2.4Zm-389.2 0l5.5 3.1l-3.1 5.7l-4.4-2.2l-2.5 4.9l-5.4-3.1l3.2-6.1l4.3 2.4Zm-221.2-.8l6.9 3.7l-3.6 6.7l-6.9-3.7Zm847.6-.4l6.9 3.7l-3.5 6.6l-7-3.6Zm443-.1c1.1 1.6 1.9 3.2 2.4 4.7c.5 1.8 .8 4.2 .8 7v5.8c0 4.2 .3 7.1 .8 8.7c.5 1.3 1.2 1.9 2.1 1.9H1434c1.8 0 3.2-.2 4.3-.6c1.3-.6 2.2-1.6 2.8-2.9c1.1-2.6 2.5-4.6 4.3-6.3c1.6-1.4 2.9-2.1 4-2.1c1 0 2.3 1.5 3.8 4.6c1.5 3.2 2.3 6.2 2.3 8.9v6.5c-2.1 0-4.5-.4-7.3-1.2c-2.5-.7-4.7-1.6-6.6-2.6c-1 1.6-2.2 2.6-3.6 3.2l-.4 .1v.5h-27c-2.3 0-4-.9-5-2.8c-1.2-2.1-1.8-5.7-1.8-10.7v-8.5c0-1.9-.2-3.4-.8-4.5c-.2-.5-.8-1.2-1.7-2.2Zm-26.7 0l1.8 10.6c.7 4 1.1 7.5 1.4 10.4c.2 2.3 .3 4.5 .3 6.6c0 1.7-.2 3.3-.7 4.8c-.4 1.4-1.2 3.4-2.4 5.9l-1.8-.7c.5-2.6 .8-4.6 .8-6.2c0-1.2-.2-3-.4-5.4c-.1-2.3-.4-4.6-.7-6.9c-.3-2.3-.8-5.1-1.5-8.2c-.2-1.2-.3-1.9-.3-2.3c0-.7 .3-1.7 .9-3.2c.6-1.5 1.5-3.3 2.6-5.4Zm-127 0l1.7 10.6c.7 4 1.2 7.5 1.4 10.4c.2 2.3 .3 4.5 .3 6.6c0 1.7-.2 3.3-.6 4.8c-.4 1.4-1.2 3.4-2.4 5.9l-1.8-.7c.5-2.6 .7-4.6 .7-6.2c0-1.2-.1-3-.3-5.4c-.2-2.3-.4-4.6-.7-6.9c-.3-2.3-.8-5.1-1.5-8.2c-.2-1.2-.4-1.9-.4-2.3c0-.7 .4-1.7 1-3.2c.6-1.5 1.4-3.3 2.6-5.4Zm-64 0l1.8 10.6c.6 4 1.1 7.5 1.3 10.4c.2 2.3 .3 4.5 .3 6.6c0 1.7-.2 3.3-.6 4.8c-.4 1.4-1.2 3.4-2.4 5.9l-1.8-.7c.5-2.6 .7-4.6 .7-6.2c0-1.2-.1-3-.3-5.4c-.2-2.3-.4-4.6-.7-6.9c-.3-2.3-.8-5.1-1.5-8.2c-.2-1.2-.4-1.9-.4-2.3c0-.7 .4-1.7 1-3.2c.6-1.5 1.5-3.3 2.6-5.4Zm-171.4 0l1.7 10.6c.7 4 1.2 7.5 1.4 10.4c.2 2.3 .3 4.5 .3 6.6c0 1.7-.2 3.3-.6 4.8c-.4 1.4-1.2 3.4-2.4 5.9l-1.8-.7c.5-2.6 .7-4.6 .7-6.2c0-1.2-.1-3-.3-5.4c-.2-2.3-.4-4.6-.8-6.9c-.2-2.3-.7-5.1-1.4-8.2c-.2-1.2-.4-1.9-.4-2.3c0-.7 .4-1.7 1-3.2c.6-1.5 1.4-3.3 2.6-5.4Zm-179 0l1.8 10.6c.7 4 1.1 7.5 1.4 10.4c.2 2.3 .3 4.5 .3 6.6c0 1.7-.2 3.3-.6 4.8c-.5 1.4-1.3 3.4-2.5 5.9l-1.7-.7c.4-2.6 .7-4.6 .7-6.2c0-1.2-.1-3-.3-5.4c-.2-2.3-.5-4.6-.8-6.9c-.3-2.3-.8-5.1-1.4-8.2c-.3-1.2-.4-1.9-.4-2.3c0-.7 .3-1.7 .9-3.2c.6-1.5 1.5-3.3 2.6-5.4Zm-317.4 0c1.1 1.6 1.9 3.2 2.4 4.7c.5 1.8 .8 4.2 .8 7v5.8c0 4.2 .3 7.1 .8 8.7c.5 1.3 1.2 1.9 2.1 1.9h20.2c1 0 2.1-.1 3.3-.3c1.2-.3 2.1-.4 2.6-.6c2.2-5.9 4.1-10.2 5.8-12.9c1.5-2.3 2.9-3.5 4.1-3.5c1 0 1.9 1 2.7 3c.6 1.7 .9 3.4 .9 5c0 2.4-.4 4.3-1.4 5.9c-1 1.8-2.4 3.1-4.4 4c1.4-.3 2.7-.4 3.9-.5c1.2-.1 2.3-.1 3.3-.1h19.7c-.2-1.3-.6-2.5-1.2-3.4c-.3-.5-1-1.4-2.1-2.7l2.4-7.1c1.5 1.7 2.5 3.5 3 5.3c.6 1.9 .9 4.6 .9 8.2v7.8H566.1c-.4 0-.9 0-1.4 0c-.4 0-1.1 .1-2.1 .2c.7 .4 1.5 .8 2.2 1.2c.6 .5 1 1.2 1 2c0 .8-.1 1.6-.3 2.5c-.2 .5-.5 1.3-.9 2.6c-.8 2.5-1.6 4.2-2.3 5.1c-.7 .9-1.7 1.3-2.8 1.3c-2.7 0-5.1-1.5-7.1-4.4c-2-2.9-3-6.4-3-10.5H525.1c-2.3 0-4-.9-5-2.8c-1.2-2.1-1.8-5.7-1.8-10.7v-8.5c0-1.9-.2-3.4-.7-4.5c-.3-.5-.9-1.2-1.8-2.2Zm-78.4 0l1.8 10.6c.7 4 1.1 7.5 1.4 10.4c.2 2.3 .3 4.5 .3 6.6c0 1.7-.3 3.3-.7 4.8c-.4 1.4-1.2 3.4-2.4 5.9l-1.8-.7c.5-2.6 .8-4.6 .8-6.2c0-1.2-.2-3-.4-5.4c-.1-2.3-.4-4.6-.7-6.9c-.3-2.3-.8-5.1-1.5-8.2c-.2-1.2-.3-1.9-.3-2.3c0-.7 .3-1.7 .9-3.2c.6-1.5 1.5-3.3 2.6-5.4Zm-222.6 0l1.8 10.6c.7 4 1.1 7.5 1.4 10.4c.2 2.3 .3 4.5 .3 6.6c0 1.7-.2 3.3-.6 4.8c-.4 1.4-1.3 3.4-2.4 5.9l-1.8-.7c.4-2.6 .7-4.6 .7-6.2c0-1.2-.1-3-.3-5.4c-.2-2.3-.5-4.6-.8-6.9c-.3-2.3-.7-5.1-1.4-8.2c-.3-1.2-.4-1.9-.4-2.3c0-.7 .3-1.7 .9-3.2c.7-1.5 1.5-3.3 2.6-5.4Zm405.5-1.8l5.5 2.8l-3 6.2l-5.6-2.9Zm549.6-.5l1.4 .7c-.1 .3-.1 .6-.1 1c0 .7 .4 1.4 1.2 1.9c1.2 .7 2.4 1.3 3.4 1.9c-.2 1.7-.4 2.9-.6 3.7c-.2 .7-.7 1.8-1.4 3.3l-.9-.4c0 .3 .3 2 .9 5.1c.5 3.1 1 5.8 1.4 8c.6 3.2 .8 5.2 .8 5.9v6.7c0 3-1.5 5.8-4.7 8.1c-3.2 2.4-6.8 3.6-10.9 3.6c-3.4 0-6.1-.9-8-2.6c-1.9-1.7-2.9-4.1-2.9-7.2c0-2.9 .4-5.4 1.1-7.6c.8-2.4 2.4-5.3 4.8-8.9l1.8 1.3c-1.5 2.3-2.6 4.3-3.3 6c-.6 1.7-1 3.4-1 5.1c0 1.8 .7 3.2 2 4.2c1.4 1 3.3 1.5 5.7 1.5c3.5 0 6.4-.7 8.6-2c2.1-1.4 3.2-3.2 3.2-5.3c0-.4 0-.7 0-.9c0-.3 0-.4 0-.5c0-.8 0-1.7-.2-2.6c-.1-.9-.4-2.9-1-5.8c-.8-4.7-1.7-9.4-2.5-14.1l-1.5-1.1c0-2 .9-5 2.7-9Zm-793.6 0l1.4 .7c-.1 .3-.2 .6-.2 1c0 .7 .4 1.4 1.3 1.9c1.2 .7 2.3 1.3 3.4 1.9c-.2 1.7-.4 2.9-.7 3.7c-.2 .7-.6 1.8-1.3 3.3l-.9-.4c0 .3 .3 2 .8 5.1c.6 3.1 1.1 5.8 1.5 8c.4 2.4 .6 4.1 .7 5.1l.1 .1h34.6c-2.4-2.5-4.6-4.3-6.6-5.3c-1.8-1-3.6-1.5-5.3-1.5c-.6 0-1 0-1.5 .1c-.4 0-1 .1-1.8 .3c1.1-2.5 2.3-4.4 3.6-5.5c1.4-1.2 2.9-1.8 4.6-1.8c1.3 0 2.6 .3 3.8 .9c1.2 .7 2.6 1.7 4.1 3.1c1.2 1.1 2.9 2.8 5 5.2c1.5 1.7 2.7 2.8 3.5 3.3c.7 .5 1.9 .9 3.5 1.2v8.1H385.5l-.2 1.5c-.6 2.2-2.1 4.1-4.5 5.9c-3.1 2.4-6.8 3.6-10.8 3.6c-3.5 0-6.1-.9-8-2.6c-1.9-1.7-2.9-4.1-2.9-7.2c0-2.9 .4-5.4 1.1-7.6c.8-2.4 2.4-5.3 4.7-8.9l1.9 1.3c-1.6 2.3-2.7 4.3-3.3 6c-.7 1.7-1 3.4-1 5.1c0 1.8 .7 3.2 2 4.2c1.3 1 3.2 1.5 5.7 1.5c3.5 0 6.3-.7 8.5-2c2.2-1.4 3.3-3.2 3.3-5.3c0-.4 0-.7 0-.9c0-.3 0-.4 0-.5c0-.8-.1-1.7-.2-2.6c-.1-.9-.5-2.9-1-5.8c-.9-4.7-1.7-9.4-2.6-14.1l-1.5-1.1c0-2 1-5 2.8-9Zm984.5 0l1.4 .7c0 .1-.1 .4-.1 1c0 .6 .4 1.2 1.2 1.9c.8 .5 1.9 1.1 3.5 1.8c-.1 1.3-.4 2.5-.8 3.7c-.3 1.2-.7 2.3-1.1 3.3l-1.1-.4l3.2 18.4v8.1h-29.8v.7c0 1.2-.7 2.8-2.1 4.8c-1.4 2-3.1 3.8-4.9 5.2c-2.1 1.7-3.9 2.5-5.3 2.5c-1.8 0-3.7-.5-5.7-1.5c-1.7-.9-4.4-2.6-8.1-5.1l1.2-1.9c1.8 1.2 3.2 2 4.3 2.4c1.1 .4 2.3 .6 3.6 .6c1.3 0 2.7-.4 4.1-1.1c1.4-.8 3.2-2.2 5.6-4.3c3.3-3 4.9-5.2 4.9-6.8c0-.8-.3-1.9-.9-3.2c-.7-1.4-1.6-2.7-2.6-3.6l1.6-8.1c1.4 1.4 2.4 3 3.2 4.8c.7 1.8 1.1 3.9 1.1 6.2v.3h26.3l-3.6-20.2l-2-1.3c0-1.2 .2-2.3 .6-3.5c.5-1.5 1.2-3.3 2.3-5.4Zm-127 0l1.3 .7c0 .1 0 .4-.1 1c0 .6 .4 1.2 1.3 1.9c.7 .5 1.9 1.1 3.5 1.8c-.2 1.3-.5 2.5-.8 3.7c-.4 1.2-.7 2.3-1.2 3.3l-1.1-.4l3.3 18.4v8.1h-43.4c-1.3 0-2.3-.3-3-.8c-.8-.7-1.3-1.8-1.3-3.3c0-.9 .1-1.8 .2-2.9c.1-1 .2-2 .4-3l1.1-.1c.2 .7 .5 1.2 1.1 1.5c.5 .4 1.2 .5 1.9 .5h10.3c-.5-2.9-1.3-5.2-2.4-7c-.9-1.4-2.2-2.7-3.9-3.8l2.1-9.2c2.6 1.9 4.5 4.4 5.5 7.4c1 2.8 1.5 6.5 1.5 11.2v1.4h26.3l-3.6-20.2l-1.9-1.3c0-1.2 .2-2.3 .5-3.5c.5-1.5 1.3-3.3 2.4-5.4Zm-141.6 0l1.4 .7c0 .1 0 .4-.1 1c0 .6 .4 1.2 1.2 1.9c.8 .5 1.9 1.1 3.6 1.8c-.2 1.3-.5 2.5-.8 3.7c-.4 1.2-.8 2.3-1.2 3.3l-1.1-.4l3.3 18.4h1.1c.6 0 1 0 1.3 0c.6-.1 1.1-.1 1.7-.2c-1-1.5-1.6-2.7-2-3.6c-.3-.9-.5-2-.5-3.1c0-3 1.3-5.6 3.7-7.8c2.5-2.2 5.3-3.3 8.6-3.3c2.2 0 4.3 .7 6.3 2.2c1.9 1.3 3.2 3 4.1 4.9l-1.3 1c-1.6-.5-2.8-.9-3.7-1.1c-.9-.2-2.1-.3-3.4-.3c-2.5 0-4.6 .2-6.4 .6c-2.3 .5-3.5 1.2-3.5 2.2c0 1.3 2.8 3.6 8.3 6.8l15.2-4.4l-3.4 8.5c-5.3 1.6-9.7 2.9-13.2 3.8c-3.1 .8-5.6 1.3-7.7 1.6c-1.6 .2-3.1 .3-4.7 .3h-32.9c-.7 0-1.3 .1-1.7 .2c-.5 .1-.7 .3-.7 .5c0 .1 .5 .4 1.4 .8c1 .3 1.5 .9 1.5 1.7c0 1.1-.2 2.4-.5 4c-.3 1.5-.8 2.9-1.3 4.1c-.5 1-1.7 2.1-3.7 3.3c-2.1 1.3-4.6 2.4-7.3 3.3c-3.1 1-6.1 1.5-8.9 1.5c-3.2 0-5.7-.8-7.3-2.3c-1.7-1.5-2.5-3.6-2.5-6.5c0-3.1 .4-5.9 1.2-8.2c.9-2.8 2.8-6.4 5.6-10.9l1.6 1.3c-1.8 3.2-3.1 5.7-3.8 7.6c-.7 1.9-1 3.7-1 5.6c0 1.8 .5 3.2 1.7 4.3c1.2 1 2.8 1.6 4.9 1.6c2.5 0 5.2-.4 8.1-1.2c2.6-.7 4.9-1.5 6.8-2.5c1.8-1 2.8-1.8 2.8-2.5c0-.2-.6-.3-1.7-.3c-1.1-.1-2.1-.1-3-.1c-2.1 0-3.4 0-4.1-.2c-.6-.2-.9-.5-.9-1.1c0-1.1 .2-2.2 .6-3.4c.4-1.2 .8-2.1 1.4-2.8c1.3-1.5 2.8-2.9 4.6-4c2-1.3 3.8-1.9 5.4-1.9h29.6l-3.6-20.2l-1.9-1.3c0-1.2 .1-2.3 .5-3.5c.5-1.5 1.2-3.3 2.3-5.4Zm-272.8 0l1.4 .7c0 .1 0 .4-.1 1c0 .6 .4 1.2 1.2 1.9c.8 .5 1.9 1.1 3.6 1.8c-.2 1.3-.5 2.5-.8 3.7c-.4 1.2-.8 2.3-1.2 3.3l-1.1-.4l3.3 18.4v8.1H779.4c-.9 0-1.5 0-1.9 .1c-.4 0-.6 .1-.6 .4c.6 .3 1.2 .5 1.7 .7c.5 .1 .8 .3 .9 .5c.2 .2 .3 .5 .3 1c0 1.4-.4 3.1-1.2 5c-.8 2-1.6 3.2-2.4 3.7c-.7 .6-2.9 1.3-6.5 2.1c-3.7 .8-6.8 1.2-9.4 1.2c-3.7 0-6.8-.8-9.1-2.3c-2.3-1.6-3.4-3.6-3.4-6.1c0-2.4 .5-4.7 1.5-6.9c1.2-2.7 3.5-6.1 6.8-10.1l1.8 1.2c-2.1 2.5-3.5 4.6-4.3 6.2c-.8 1.6-1.2 3.1-1.2 4.7c0 2.1 .8 3.7 2.6 4.7c1.8 1 4.5 1.5 8.2 1.5c1.9 0 4.5-.3 7.9-1c3.4-.7 5.1-1.3 5.1-1.8c0-.3-.7-.5-2-.7c-1.3-.2-2.7-.3-4.2-.3c-2.3 0-3.5-.5-3.5-1.5c0-.4 .3-1.3 .9-2.4c.3-.8 .7-1.7 1.1-2.5c.8-1.6 2.2-2.9 4.2-4c2.1-1 4.3-1.5 6.6-1.5h32.3c-.2-1.3-.6-2.5-1.1-3.4c-.3-.5-1-1.4-2.1-2.7l2.3-7.1c1.5 1.7 2.6 3.5 3.1 5.3c.5 1.6 .7 3.9 .8 6.9v1h10.7l-3.6-20.2l-1.9-1.3c0-1.2 .1-2.3 .5-3.5c.5-1.5 1.2-3.3 2.3-5.4Zm-524.1 0l1.4 .7c0 .1-.1 .4-.2 1c0 .6 .4 1.2 1.3 1.9c.7 .5 1.9 1.1 3.5 1.8c-.2 1.3-.4 2.5-.8 3.7c-.3 1.2-.7 2.3-1.2 3.3l-1-.4l3.2 18.4H308c.9 0 1.8 0 2.6 .1c2.2 .3 4.7 .5 7.5 .8c-3-.6-5.1-1.5-6.3-2.6c-1.1-1-1.7-2.6-1.7-4.7c0-3.1 .7-5.9 2.1-8.3c1.4-2.5 3-3.7 4.8-3.7c2 0 3.7 1.7 5.2 5.2c1.5 3.4 2.3 7.6 2.3 12.5v.7h13.6c-.2-1.3-.6-2.5-1.2-3.4c-.3-.5-1-1.4-2.1-2.7l2.4-7.1c1.5 1.7 2.5 3.5 3.1 5.3c.5 1.9 .8 4.6 .8 8.2v7.8H270.2c-3.5 0-5.9-.5-7.2-1.5c-1.3-1-1.9-2.9-1.9-5.7c0-1.3 .1-2.5 .2-3.6c.1-.4 .3-1.4 .5-2.9c-4.5 1.1-8.2 2.9-11 5.5c-2.8 2.7-4.2 5.7-4.2 9.1c0 4 1.7 7 5.1 9.2c3.4 2.1 8.3 3.2 14.7 3.2c1.9 0 4.6-.2 8.1-.5l.6 .9l-11.4 7.3h-2.8c-5.9 0-10.3-1.4-13.5-4.4c-3.1-2.9-4.7-7.1-4.7-12.6c0-4.2 .9-8 2.8-11.6c1.9-3.5 4.4-6.1 7.3-7.7h-.6c-1.9 0-3.4 .2-4.6 .6c-1.2 .3-3 1.1-5.4 2.4c.8-7.4 4.5-11.1 10.8-11.1c.7 0 2.1 .1 4.2 .3c2.1 .2 3.9 .4 5.5 .5c3 .2 6 .4 8.9 .4l-1.8 7.2c-1.2 0-2.2 0-3 .2c-1.1 .2-2.1 .4-3 .6c-.1 .4-.1 .8-.2 1.3c0 .5 0 .8 0 1.1c0 1.4 .4 2.4 1.3 2.9c1 .5 2.7 .8 5.2 .8h31l-3.6-20.2l-1.9-1.3c0-1.2 .2-2.3 .6-3.5c.4-1.5 1.2-3.3 2.3-5.4Zm-94.3 0l1.4 .7c0 .1 0 .4-.1 1c0 .6 .4 1.2 1.3 1.9c.7 .5 1.9 1.1 3.5 1.8c-.2 1.3-.5 2.5-.8 3.7c-.4 1.2-.8 2.3-1.2 3.3l-1.1-.4l3.3 18.4v8.1H179.3l-.7 3.1c-.7 1.7-1.8 3.3-3.2 5c-2.9 3.3-5.8 5-8.6 5c-1.7 0-3.5-.5-5.4-1.6c-2-1-5-3.1-9.1-6.2l1.3-1.7c2.1 1.4 3.9 2.4 5.3 2.8c1.1 .4 2.4 .6 3.8 .6c1.9 0 3.9-.5 5.7-1.6c2.3-1.3 4.6-3.3 7-6.1c-.9 .1-1.6 .1-2.1 .1c-2 0-3.6-.6-4.7-1.9c-1.2-1.2-1.8-3-1.8-5.2c0-3 .7-5.9 2.1-8.6c1.5-3 3.2-4.5 5.1-4.5c1.6 0 2.9 1.1 4 3.2c1.1 2.2 1.7 4.8 1.7 7.9v1.6h13.6c-.3-1.3-.7-2.5-1.2-3.4c-.3-.5-1-1.4-2.1-2.7l2.4-7.1c1.5 1.7 2.5 3.5 3 5.3c.5 1.6 .8 3.9 .8 6.9v1h10.7l-3.6-20.2l-1.9-1.3c0-1.2 .2-2.3 .5-3.5c.5-1.5 1.2-3.3 2.3-5.4Zm110.4-.3l7 3.7L318 306l-7-3.7Zm595.9-.1l5.6 3.1l-3.1 5.7l-4.4-2.2l-2.5 4.9l-5.5-3.1l3.3-6.1l4.3 2.4Zm16.8-2l1.3 .6c0 .1 0 .4-.1 .8c0 .7 1 1.5 3 2.4c.6 .4 1.6 .8 2.9 1.3c-.2 1.5-.5 3-.9 4.3c-.3 .7-.7 1.7-1.2 3.2l-1.1-.4c.6 2.8 1 4.9 1.2 6.3c.2 1.3 .4 2.5 .4 3.5v.4c0 .6-.1 1-.1 1.3c0 .4-.1 .9-.3 1.6c1.1-.8 2.1-1.5 3.2-2.3c1.6-1.1 3-2 4.3-2.7c1.7-1 3-1.4 3.8-1.4c2.4 0 4.2 .6 5.7 1.8c1.6 1.4 2.3 3.4 2.3 5.9v6.2h13.6c-.2-1.3-.6-2.5-1.2-3.4c-.3-.5-1-1.4-2.1-2.7l2.4-7.1c1.5 1.7 2.5 3.5 3 5.3c.5 1.6 .8 3.9 .8 6.9l.1 1H972c1.8 0 3.2-.2 4.3-.6c1.3-.6 2.2-1.6 2.8-2.9c1.1-2.6 2.5-4.6 4.3-6.3c1.6-1.4 2.9-2.1 4-2.1c1 0 2.3 1.5 3.8 4.6c1.1 2.4 1.9 4.7 2.2 6.8v.5h10.8l-3.6-20.2l-1.9-1.3c0-1.2 .2-2.3 .5-3.5c.5-1.5 1.3-3.3 2.4-5.4l1.3 .7c0 .1 0 .4-.1 1c0 .6 .4 1.2 1.3 1.9c.7 .5 1.9 1.1 3.5 1.8c-.2 1.3-.5 2.5-.8 3.7c-.4 1.2-.7 2.3-1.2 3.3l-1.1-.4l3.3 18.4v8.1H991.4v-.1l-.4-.1c-1.5-.2-3.1-.5-4.8-1c-2.5-.7-4.7-1.6-6.6-2.6c-1.1 1.8-2.6 2.9-4.3 3.4c-.8 .3-1.9 .4-3.3 .4H880.5c-.7 0-1.3-.1-1.9-.4c-1.2-.6-2.2-1.6-3-3.2c-1-2.1-1.7-5-2-8.6c-1.4 1.6-2.4 2.8-3.2 3.5c-1.1 1-2 1.5-2.7 1.5c-.4 0-.9 0-1.5-.1l-3.6-.8c-1.6-.3-2.5-.5-2.9-.6c-.3-.2-.5-.4-.5-.8c0-.5 .7-2.2 2.1-5.1c1.3-2.8 2.3-4.6 3-5.3c.5-.5 1.3-1.2 2.6-2.1c.8-.5 1.8-1.1 3.2-1.9l1.6-1c-.1-.2-.1-.5-.1-.8c0-.3-.1-.6-.1-.8c0-.8 .2-1.7 .6-2.9c.3-1.1 .9-2.5 1.8-4.2l2.9 18.6c.4 2.9 1 4.9 1.8 5.9c.4 .7 1.1 1 1.9 1h26.8v.3l2.1 .2c1.2 .1 2.5 .3 3.9 .4c-2.9-.6-5-1.5-6.2-2.6c-1.2-1-1.8-2.6-1.8-4.7c0-3.1 .8-5.9 2.2-8.3c1.4-2.5 3-3.7 4.8-3.7c2 0 3.7 1.7 5.2 5.2c1.5 3.4 2.3 7.6 2.3 12.5v.7h1.9c.4 0 1.8-.8 4-2.5c.7-.5 1.8-1.3 3.2-2.5c0-2.4-.1-4.5-.3-6.2c-.2-1.6-.5-3.4-.9-5.2c-.1-.5-.6-2.6-1.6-6.5l-1.7-1.1c.5-2.1 .8-3.6 1.1-4.5c.3-.9 .9-2.3 1.8-4.3Zm378.4-1.8l5.5 3l-3.1 5.8l-4.4-2.2l-2.5 4.8l-5.4-3l3.3-6.1l4.2 2.4Zm-433.5-1.8l5.4 2.7l-3.3 5.6l-4.3-2.4l-2.3 4.7l-5.6-3l3.1-5.3l4.4 2.2Zm-811.4 0l5.3 2.7l-3.3 5.6l-4.2-2.4l-2.4 4.7l-5.5-3l3.1-5.3l4.4 2.2Z" class="g1_53"/>
<path fill-rule="evenodd" d="M1313.8 408.6l6.9 3.7l-3.5 6.7l-7-3.7Zm-60.5-9.5c1.1 0 1.9 .3 2.6 1.1c.7 .7 1 1.6 1 2.6c0 1-.3 1.9-1.1 2.6c-.7 .7-1.6 1.1-2.6 1.1c-1 0-1.8-.4-2.5-1.1c-.7-.7-1.1-1.6-1.1-2.6c0-1 .4-1.9 1.1-2.6c.7-.8 1.6-1.1 2.6-1.1Zm165.4-6.1c-.8 0-1.4 .9-2 2.7c1.1 .4 1.8 .7 2.4 .9c1.6 .6 2.5 .9 2.7 .9c.4 0 .7-.2 .7-.4c0-.5-.5-1.2-1.3-2.3c-1-1.2-1.8-1.8-2.5-1.8Zm-58.2-.9c-1.3 0-2.7 .4-4.4 1.3c-1.6 .8-4 2.4-7.1 4.6h7.8c6.5 0 9.8-1 9.8-3c0-.9-.7-1.7-2.1-2.2c-1.2-.5-2.5-.7-4-.7Zm-65.5-6.4c-.6 .3-1.1 .5-1.5 .7c-1.1 .6-1.9 1.1-2.6 1.6c-.5 .4-.9 .8-1.2 1.1c-.4 .5-.6 .8-.6 1c0 .3 .4 .5 1 .7c.7 .1 1.4 .2 2.1 .2c.5 0 .9-.1 1.4-.4c.5-.2 1.1-.7 2-1.3Zm-41.2-14.3c2.4 0 4.4 .7 6.1 2.1c1.6 1.3 2.5 3.1 2.5 5.3c0 1.2-.4 2.3-1.1 3.3c-.8 1-1.9 1.5-3.1 1.5c-1 0-1.9-.3-2.5-1c-.7-.6-1-1.4-1-2.2c0-1.4 .6-2.4 1.6-3.1c1.1-.7 1.7-1.2 1.7-1.7c0-.6-.3-1.2-1-1.6c-.6-.4-1.4-.6-2.5-.6c-1.3 0-2.3 .3-3.2 1.1c-.8 .7-1.2 1.6-1.2 2.6c0 1 .4 2.2 1.3 3.8c1.2 2.3 2 3.7 2.3 4.4c.8 2.1 1.2 4.4 1.2 6.8c0 1.3-.1 2.8-.3 4.4h-1.8c0-.4 0-.7 .1-.9l.1-1.5c0-1.1-.7-2.3-2.2-3.6c-2.5-2.3-3.9-3.5-4.1-3.8c-1.5-1.8-2.2-3.8-2.2-6c0-2.7 .8-4.9 2.6-6.6c1.8-1.8 4-2.7 6.7-2.7Zm130-.7l7 3.7l-3.6 6.6l-7-3.6Zm66.1-.8l1.7 10.6c.7 4 1.2 7.5 1.4 10.4c.2 2.3 .3 4.4 .3 6.5c0 1.8-.2 3.4-.6 4.9c-.4 1.4-1.2 3.4-2.4 5.9l-1.8-.8c.5-2.5 .7-4.6 .7-6.2c0-1.2-.1-2.9-.3-5.3c-.2-2.3-.4-4.7-.7-6.9c-.3-2.4-.8-5.1-1.5-8.3c-.2-1.1-.4-1.8-.4-2.3c0-.6 .4-1.6 1-3.1c.6-1.5 1.4-3.3 2.6-5.4Zm-13.8-2.3l1.3 .7c0 .1 0 .4-.1 .9c0 .7 .4 1.3 1.3 1.9c.7 .6 1.9 1.2 3.5 1.9c-.2 1.3-.5 2.5-.8 3.7c-.4 1.2-.7 2.3-1.2 3.3l-1.1-.5l3.3 18.5v8.1h-16.4v-.2h-.4c-1.5-.2-3.1-.5-4.8-1c-2.5-.8-4.7-1.6-6.6-2.6c-1.1 1.8-2.6 2.9-4.3 3.4c-.8 .3-1.9 .4-3.3 .4h-67.3c-1.4 0-2.5-.4-3.4-1.1c-.8-.7-1.5-1.8-2.1-3.4c-1.3 1.8-2.5 3-3.7 3.6c-1 .6-2.4 .9-4.2 .9h-22.5c-.7 0-1.4-.1-2-.4c-1.1-.6-2.1-1.7-2.9-3.2c-1.1-2.1-1.8-5-2.1-8.6c-1.3 1.6-2.4 2.8-3.1 3.5c-1.1 1-2 1.5-2.8 1.5c-.4 0-.8 0-1.4-.1l-3.6-.8c-1.6-.3-2.6-.5-2.9-.7c-.4-.1-.5-.4-.5-.7c0-.5 .6-2.2 2-5.1c1.4-2.8 2.4-4.6 3-5.3c.5-.5 1.4-1.2 2.7-2.1c.7-.5 1.8-1.1 3.2-2l1.6-.9c-.1-.3-.1-.5-.2-.8c0-.3 0-.6 0-.9c0-.7 .2-1.7 .5-2.8c.4-1.1 1-2.6 1.9-4.2l2.8 18.5c.5 3 1.1 5 1.8 6c.5 .7 1.2 1 2 1h17.5c-.3-1.4-.7-2.5-1.2-3.4c-.3-.5-1-1.4-2.1-2.7l2.4-7.1c1.5 1.7 2.5 3.5 3 5.3c.5 1.6 .8 3.9 .8 6.9v1h2.1c2.3 0 4.1-.6 5.3-1.8c1.4-1.3 2.3-3.6 2.7-6.9l2 .3c-.1 .7-.1 1.3-.1 1.7c-.1 1.3-.1 2.4-.1 3.2c0 1.1 .3 2 .9 2.6c.5 .6 1.3 .9 2.3 .9c1 0 1.9-.2 2.7-.6c.8-.4 2.1-1.2 3.9-2.5l10.7-7.6c1.2-.9 2.2-1.5 2.8-1.9c1.4-.9 2.9-1.3 4.2-1.3c2.2 0 4 .8 5.3 2.3c1.6 1.9 2.4 4.6 2.4 8.3V398h19.1c-2.4-2.5-4.6-4.3-6.7-5.4c-1.8-.9-3.6-1.4-5.3-1.4c-.5 0-1 0-1.4 0c-.4 .1-1.1 .2-1.9 .4c1.1-2.5 2.3-4.4 3.7-5.6c1.3-1.2 2.8-1.7 4.6-1.7c1.3 0 2.5 .3 3.7 .9c1.2 .6 2.6 1.7 4.1 3.1c1.2 1.1 2.9 2.8 5.1 5.2c1.5 1.7 2.6 2.7 3.4 3.2c.8 .5 2 1 3.5 1.3h3.8c1.8 0 3.2-.2 4.3-.7c1.3-.5 2.2-1.5 2.8-2.8c1.1-2.6 2.5-4.7 4.3-6.3c1.6-1.4 2.9-2.2 4-2.2c1 0 2.3 1.6 3.8 4.6c1.1 2.5 1.9 4.7 2.2 6.9v.5h10.8l-3.6-20.2l-1.9-1.3c0-1.2 .2-2.3 .5-3.5c.5-1.6 1.3-3.4 2.4-5.4ZM1295 361.5l5.3 2.8l-3.3 5.6l-4.2-2.4l-2.4 4.7l-5.5-3.1l3.1-5.2l4.4 2.2Z" class="g0_53"/>
<path d="M1313.8 408.6l6.9 3.7l-3.5 6.7l-7-3.7Zm-60.5-9.5c1.1 0 1.9 .3 2.6 1.1c.7 .7 1 1.6 1 2.6c0 1-.3 1.9-1.1 2.6c-.7 .7-1.6 1.1-2.6 1.1c-1 0-1.8-.4-2.5-1.1c-.7-.7-1.1-1.6-1.1-2.6c0-1 .4-1.9 1.1-2.6c.7-.8 1.6-1.1 2.6-1.1Zm165.4-6.1c-.8 0-1.4 .9-2 2.7c1.1 .4 1.8 .7 2.4 .9c1.6 .6 2.5 .9 2.7 .9c.4 0 .7-.2 .7-.4c0-.5-.5-1.2-1.3-2.3c-1-1.2-1.8-1.8-2.5-1.8Zm-58.2-.9c-1.3 0-2.7 .4-4.4 1.3c-1.6 .8-4 2.4-7.1 4.6h7.8c6.5 0 9.8-1 9.8-3c0-.9-.7-1.7-2.1-2.2c-1.2-.5-2.5-.7-4-.7Zm-65.5-6.4c-.6 .3-1.1 .5-1.5 .7c-1.1 .6-1.9 1.1-2.6 1.6c-.5 .4-.9 .8-1.2 1.1c-.4 .5-.6 .8-.6 1c0 .3 .4 .5 1 .7c.7 .1 1.4 .2 2.1 .2c.5 0 .9-.1 1.4-.4c.5-.2 1.1-.7 2-1.3Zm-41.2-14.3c2.4 0 4.4 .7 6.1 2.1c1.6 1.3 2.5 3.1 2.5 5.3c0 1.2-.4 2.3-1.1 3.3c-.8 1-1.9 1.5-3.1 1.5c-1 0-1.9-.3-2.5-1c-.7-.6-1-1.4-1-2.2c0-1.4 .6-2.4 1.6-3.1c1.1-.7 1.7-1.2 1.7-1.7c0-.6-.3-1.2-1-1.6c-.6-.4-1.4-.6-2.5-.6c-1.3 0-2.3 .3-3.2 1.1c-.8 .7-1.2 1.6-1.2 2.6c0 1 .4 2.2 1.3 3.8c1.2 2.3 2 3.7 2.3 4.4c.8 2.1 1.2 4.4 1.2 6.8c0 1.3-.1 2.8-.3 4.4h-1.8c0-.4 0-.7 .1-.9l.1-1.5c0-1.1-.7-2.3-2.2-3.6c-2.5-2.3-3.9-3.5-4.1-3.8c-1.5-1.8-2.2-3.8-2.2-6c0-2.7 .8-4.9 2.6-6.6c1.8-1.8 4-2.7 6.7-2.7Zm130-.7l7 3.7l-3.6 6.6l-7-3.6Zm66.1-.8l1.7 10.6c.7 4 1.2 7.5 1.4 10.4c.2 2.3 .3 4.4 .3 6.5c0 1.8-.2 3.4-.6 4.9c-.4 1.4-1.2 3.4-2.4 5.9l-1.8-.8c.5-2.5 .7-4.6 .7-6.2c0-1.2-.1-2.9-.3-5.3c-.2-2.3-.4-4.7-.7-6.9c-.3-2.4-.8-5.1-1.5-8.3c-.2-1.1-.4-1.8-.4-2.3c0-.6 .4-1.6 1-3.1c.6-1.5 1.4-3.3 2.6-5.4Zm-13.8-2.3l1.3 .7c0 .1 0 .4-.1 .9c0 .7 .4 1.3 1.3 1.9c.7 .6 1.9 1.2 3.5 1.9c-.2 1.3-.5 2.5-.8 3.7c-.4 1.2-.7 2.3-1.2 3.3l-1.1-.5l3.3 18.5v8.1h-16.4v-.2h-.4c-1.5-.2-3.1-.5-4.8-1c-2.5-.8-4.7-1.6-6.6-2.6c-1.1 1.8-2.6 2.9-4.3 3.4c-.8 .3-1.9 .4-3.3 .4h-67.3c-1.4 0-2.5-.4-3.4-1.1c-.8-.7-1.5-1.8-2.1-3.4c-1.3 1.8-2.5 3-3.7 3.6c-1 .6-2.4 .9-4.2 .9h-22.5c-.7 0-1.4-.1-2-.4c-1.1-.6-2.1-1.7-2.9-3.2c-1.1-2.1-1.8-5-2.1-8.6c-1.3 1.6-2.4 2.8-3.1 3.5c-1.1 1-2 1.5-2.8 1.5c-.4 0-.8 0-1.4-.1l-3.6-.8c-1.6-.3-2.6-.5-2.9-.7c-.4-.1-.5-.4-.5-.7c0-.5 .6-2.2 2-5.1c1.4-2.8 2.4-4.6 3-5.3c.5-.5 1.4-1.2 2.7-2.1c.7-.5 1.8-1.1 3.2-2l1.6-.9c-.1-.3-.1-.5-.2-.8c0-.3 0-.6 0-.9c0-.7 .2-1.7 .5-2.8c.4-1.1 1-2.6 1.9-4.2l2.8 18.5c.5 3 1.1 5 1.8 6c.5 .7 1.2 1 2 1h17.5c-.3-1.4-.7-2.5-1.2-3.4c-.3-.5-1-1.4-2.1-2.7l2.4-7.1c1.5 1.7 2.5 3.5 3 5.3c.5 1.6 .8 3.9 .8 6.9v1h2.1c2.3 0 4.1-.6 5.3-1.8c1.4-1.3 2.3-3.6 2.7-6.9l2 .3c-.1 .7-.1 1.3-.1 1.7c-.1 1.3-.1 2.4-.1 3.2c0 1.1 .3 2 .9 2.6c.5 .6 1.3 .9 2.3 .9c1 0 1.9-.2 2.7-.6c.8-.4 2.1-1.2 3.9-2.5l10.7-7.6c1.2-.9 2.2-1.5 2.8-1.9c1.4-.9 2.9-1.3 4.2-1.3c2.2 0 4 .8 5.3 2.3c1.6 1.9 2.4 4.6 2.4 8.3V398h19.1c-2.4-2.5-4.6-4.3-6.7-5.4c-1.8-.9-3.6-1.4-5.3-1.4c-.5 0-1 0-1.4 0c-.4 .1-1.1 .2-1.9 .4c1.1-2.5 2.3-4.4 3.7-5.6c1.3-1.2 2.8-1.7 4.6-1.7c1.3 0 2.5 .3 3.7 .9c1.2 .6 2.6 1.7 4.1 3.1c1.2 1.1 2.9 2.8 5.1 5.2c1.5 1.7 2.6 2.7 3.4 3.2c.8 .5 2 1 3.5 1.3h3.8c1.8 0 3.2-.2 4.3-.7c1.3-.5 2.2-1.5 2.8-2.8c1.1-2.6 2.5-4.7 4.3-6.3c1.6-1.4 2.9-2.2 4-2.2c1 0 2.3 1.6 3.8 4.6c1.1 2.5 1.9 4.7 2.2 6.9v.5h10.8l-3.6-20.2l-1.9-1.3c0-1.2 .2-2.3 .5-3.5c.5-1.6 1.3-3.4 2.4-5.4ZM1295 361.5l5.3 2.8l-3.3 5.6l-4.2-2.4l-2.4 4.7l-5.5-3.1l3.1-5.2l4.4 2.2Z" class="g1_53"/>
<image clip-path="url(#c1_53)" preserveAspectRatio="none" x="1344" y="457" width="108" height="72" href="img/2.jpg"/>
<image clip-path="url(#c2_53)" preserveAspectRatio="none" x="1347" y="550" width="102" height="71" href="img/3.jpg"/>
<image clip-path="url(#c3_53)" preserveAspectRatio="none" x="1347" y="642" width="102" height="74" href="img/4.jpg"/>
<image clip-path="url(#c4_53)" preserveAspectRatio="none" x="1353" y="745" width="96" height="80" href="img/5.jpg"/>
<image clip-path="url(#c5_53)" preserveAspectRatio="none" x="47" y="371" width="630" height="492" href="img/6.jpg"/>
<path d="M1161.7 392.3l-.1 3.9l.1 .4l-.1-.4v.1c0 .3 .2 .6 .5 .8l.4 .1l-.4-.3l.1 .2l.2 .2l.3 .2l.3 .2h.1c.3 .1 .7 0 .9-.4c.2-.3 .1-.7-.2-1l-.1-.1l.1 .1l-.1-.1l.1 .9c.2-.4 .1-.8-.1-1.1h-.1v-.1h-.1l-.1-.1l.3 .8v-.1l-.1 .2l.1-.1l-.2 .3l-.1 .1h.1c.2-.3 .3-.7 .2-1v-.2l-.1-.1v-.1h-.1h.1h-.1l.1 .2v-.1v.6v-.8v.2v-.1v.2l.1-.5v-.2l-.1-1.9c0-.3-.1-.5-.3-.7l-.3-.2l.3 .3l-.2-.4l-.3-.3l-.2-.2l.4 .6l-.1-.3c-.1-.6-.7-1-1.3-.8c-.6 .1-1 .7-.9 1.3c.2 .6 .8 1 1.4 .9l.4-.1l-.9-.2l.2 .2l-.4-.8v.3l.6-1.2v.1c-.6 .2-.8 .9-.6 1.5c.3 .6 .9 .8 1.5 .6c.6-.2 .9-.9 .7-1.5c-.1-.3-.2-.4-.4-.6l.2 1.7v-.1c.2-.2 .3-.6 .2-.9c-.1-.4-.3-.7-.6-.8v-.1l.2 .2l-.1-.1l-.1-.1l-.5-.3l-.9-.3l.3 .1l-1.8-1l.5 .6v-.2c-.2-.3-.4-.5-.6-.6l-.6-.3c-.6-.3-1.3-.1-1.6 .5c-.3 .6-.1 1.4 .5 1.7c.6 .3 1.3 .1 1.7-.5l.1-.3c.2-.3 .2-.7 .1-1c-.1-.3-.3-.6-.6-.7l-.8-.4c-.6-.2-1.3 0-1.6 .6c-.3 .6-.1 1.3 .5 1.6c.5 .3 1.2 .2 1.6-.4l.2-.3c.2-.3 .3-.6 .2-.9c-.1-.4-.3-.6-.6-.8l-.5-.3l-.2-.1l-1.2-.4l-.8-.3h-.1l-1.5-.3h.1l-1.3-.5v.1l-1.1-.4l-1.5-.6v.1l-1.7-.8h-.1l-2-.7l-.2-.1l-1.8-.3h-.1l-1.9-.2l-2.2-.1l-.3 .1l-1.7 .5h.2l-2.1 .3l-.2 .1l-1.8 .6l-.1 .1l-1.9 .9l.2-.1l-2.3 .6l-.2 .1l-2 .9h-.1l-2 1l-.1 .1l-1.6 1l-.2 .1l-1.5 1.3l-1.6 1.4l-.1 .2l-1.3 1.5l-.1 .2l-1 2.1l.1-.1l-1.2 2l-.1 .4l-.4 1.9l-.2 1l-.1 .9v.1l-.3 4.1v4.2l.9 4.1v.2l1.1 2.8l.8 2.4l.8 2l.1 .2l1.4 2.3v.1l1.2 1.8l.2 .1l2 2l2.2 2l.4 .3l3 1.1l2.8 .9l.2 .1l3.3 .5l3.5 .3h.1l3.1 .1h.1l3.4-.1h.1l3.3-.3l3.5-.5h.1l3.4-.9l3.3-.9l.3-.1l2.7-1.5l.2-.1l2.2-2l.1-.1l2.1-2.3h.1l2.1-2.5v-.1l2-2.7v.1l2.2-2.5l.1-.2l1.5-2.4l.2-.3l1-2.6l.1-.3l.6-2.6v-.2l.2-2.4v-.2l-.3-2.8l-.1-.3l-.5-1.6l-.6-1.7l-.1-.2l-1.5-2.7l-.1-.3l-2.7-3l-.2-.2l-2.8-2.2l-.2-.2l-2.8-1.5l-2.9-1.4h-.1l-2.7-1.1l-2.6-.9l-.1-.1l-2.6-.8l-2.8-1h-.1l-3-.7l-3.1-.4c-.5-.1-.9 .2-1 .7c-.1 .5 .2 1 .7 1l3 .6h-.1l2.9 1h-.1l2.7 1.1v.1l2.7 1l-.1-.1l2.6 1.1l2.7 1.1l-.1-.1l2.9 1.4l-.1-.1l2.7 1.6l-.2-.2l2.8 2.3l-.1-.1l2.6 3l-.1-.3l1.4 2.8l-.1-.3l.6 1.7l.6 1.6l-.1-.3l.2 2.8v-.3l-.1 2.4V409l-.5 2.7v-.3l-1 2.7l.1-.2l-1.5 2.5l.1-.2l-2.2 2.6v.1l-2 2.6h.1L1167 424v-.1l-2.1 2.4v-.1l-2.1 1.9l.3-.2l-2.7 1.5l.2-.1l-3.3 .9l-3.3 .9h.1l-3.4 .5l-3.3 .3h.1l-3.4 .1h.1l-3.1-.1h.1l-3.5-.3l-3.2-.5l.2 .1l-2.8-1l.1 .1l-3-1.2l.4 .3l-2.3-2h.1l-2-1.9l.1 .2l-1.2-1.8l.1 .1l-1.4-2.3l.1 .1l-.8-2l-.9-2.3v-.1l-1-2.8v.2l-.8-4.1v.2V407v.1l.2-4.1v.1l.1-.9v.1l.2-1l.3-1.9l-.1 .4l1.2-2v-.1l1-2.1l-.2 .3l1.3-1.6l-.1 .1l1.5-1.4l1.5-1.3l-.2 .1l1.7-.9l1.9-1l2-.9l-.1 .1l2.3-.7h.2l1.9-.9h-.1l1.8-.6h-.2l2.1-.3h.1l1.7-.5h-.4h2.1h-.1l1.9 .2h-.1l1.8 .3h-.2l2 .7l1.7 .7l.1 .1l1.5 .5l1.1 .4l1.3 .4h.2l1.5 .4h-.2l.8 .2l1.2 .5l-.2-.2l.4 .3c.6 .4 1.3 .3 1.7-.3c.4-.5 .3-1.2-.3-1.6c-.5-.4-1.3-.3-1.6 .2l-.3 .3c-.2 .3-.3 .7-.2 1c.1 .4 .3 .7 .7 .8l.8 .4c.6 .3 1.3 0 1.6-.6c.3-.6 0-1.3-.5-1.6c-.6-.3-1.4-.1-1.7 .5l-.2 .3c-.1 .3-.2 .6-.1 .9c.1 .4 .3 .6 .6 .8l.6 .3l-.6-.7v.2c.2 .3 .3 .5 .6 .6l1.7 1.1l.2 .1l.9 .3l-.5-.3l.2 .1l.1 .1l.3 .2l.1 .1l-.5-.5v.1c.2 .2 .5 .4 .8 .5c.4 0 .7-.1 1-.3l-1.2 .2h.1c.6 .2 1.2 0 1.4-.6h.1c.1-.3 .1-.5 .1-.7l-.1-.3c-.1-.4-.2-.6-.5-.8l-.3-.2c-.2-.1-.5-.2-.8-.1l-.4 .1c-.3 .1-.6 .3-.7 .5c-.2 .3-.2 .6-.1 .9l.1 .3c0 .3 .2 .5 .4 .6l.2 .1l-.3-.3l.2 .4l.3 .3l.2 .2l-.4-.9v1.9l.1-.3l-.1 .5l-.1 .2v.1l.1-.2l-.1 .6v.1l.1 .1l.2 .4l.4 .3l.1 .1h.2l.1 .1l-.4-.2v-.1l-.2-.3v.1v-.2v.1l.2 .4v.1h.1l.1 .1v.1h.1l-.2-.2l.3 .3l.1 .1h.1l.2 .1c.3 .2 .7 .2 .9-.1c.3-.3 .4-.7 .2-1c-.2-.3-.6-.5-.9-.4h-.1l.7 .2l-.3-.2l.2 .2l-.1-.2l-.4-.3l-.4-.2l.5 .7v-.1c0-.3-.2-.7-.6-.8c-.3-.1-.7 .1-.9 .4c-.2 .3-.1 .7 .1 .9c.2 .2 .5 .3 .8 .2c.3-.1 .5-.4 .5-.7l-.2-3.9c0-.3-.3-.5-.6-.5c-.4 0-.6 .2-.6 .5Z" class="g0_53"/>
<path d="M1153.7 415.5l-.1-.3c0-.2-.1-.4-.3-.6l-.5-.5v.1l-.4-.5l-.1-.1l-.6-.7v.1l-.4-.4l.2 .2l-.4-.7l-.2-.2l-.4-.5l.2 .3l-.5-.8l-.4-.8l.1 .2l-.3-1l-.3-1.2v.4l.1-.5v-1.1l-.4 .8l.3-.3c.3-.2 .4-.5 .4-.8v-.5c0-.3-.2-.7-.5-.9c-.2-.2-.6-.3-.9-.2h-.1c-.3 .1-.7 .4-.8 .8c-.1 .3 0 .8 .2 1.1h.1l-.2-1l-.1 .2c-.1 .2 0 .6 .1 .8l.2 .4l-.1-.2l.4 1l.2 .3l1.7 2.2l-.2-.4l.3 1.2l.4 1.1l-.1-.3l.1 1.1v.1l.1 1.3v-.1l-.1 1.1l.1-.3l-.3 1.1l.2-.3l-.6 .6l.5-.3l-1 .3h-.1l-1.3 .5h.4l-1.4-.1h.1h-1.3l.3 .1l-1.1-.4l.4 .2l-.8-.6l.4 .5l-.3-1v.3v-.9l-.1 .4l.4-1.3v.2l.6-1.4l-.1 .1l.8-1.3l-.1 .1l1-1.1l-.1 .1l.9-1.1v.1l.8-.8l-.3 .2l.7-.5l-.1 .1l.6-.3l-.7 .1l.4 .1l-.7-.3l.2 .1l.2 .1l.1 .1c.3 .2 .6 .2 .9 .1c.6-.1 .9-.7 .8-1.3c-.1-.5-.6-.9-1.2-.9h.1c-.5 0-.9 .3-1.1 .7l-.1 .3l-.4 .8l-.8 1.9l.1-.1l-.3 .6l.3-.4l-.5 .4l.3-.2l-.4 .2c-.4 .1-.7 .6-.7 1v.4l.1 .5l.2 .4c.2 .4 .6 .6 1 .6c.4 0 .8-.2 1-.5l.1-.1l-.2 .2l.3-.5v-.1c.1-.3 .1-.7-.1-1c-.2-.3-.5-.5-.9-.5l.9 .7c-.2-.4-.6-.7-1-.7c-.4 0-.8 .3-1 .7l-.1 .5l.2-.7v.1l.1-.1h-.1l-.2 .3v.1c-.2 .5-.1 1.1 .3 1.4c.5 .3 1 .3 1.5 0c.4-.4 .5-1 .2-1.4l-.1-.4l.1 .5v-.4l-.7 1.1l.3-.1l.3-.2l.5-.3l.3-.4l.3-.6l.1-.1l.7-1.9l.3-.8v-.1l.2-.3l-1 .7h-.1c.6 .1 1.1-.3 1.2-.9c.1-.6-.2-1.1-.8-1.3l.4 .2l-.2-.1l.2 .2l-.1-.1c-.2-.2-.5-.4-.7-.4l-.4-.1c-.2 0-.4 0-.6 .1l-.6 .3h-.1l-.7 .5l-.2 .2l-.8 .8l-.9 1l-.9 1.1l-.1 .2l-.9 1.3v.1l-.6 1.4l-.1 .1l-.4 1.3v1.3l.1 .3l.3 1c.1 .2 .2 .4 .4 .6l.8 .6l.3 .1l1.1 .4h.3l1.3 .1h1.4l.4-.1l1.3-.5h-.1l1.1-.3l.5-.4l.6-.7l.2-.4l.3-1.1v-1.5l-.1-1.3v-1.1l-.1-.2l-.3-1.1l-.4-1.2l-.2-.3l-1.7-2.2l.2 .3l-.4-1v.1l-.1-.4l-.2 .9l.2-.1c.1-.3 .2-.6 .1-.9v-.1c-.1-.6-.6-.9-1.2-.9c-.5 0-1 .5-1 1c-.1 .6 .3 1.1 .8 1.2h.1l-.9-1.1v.5l.4-.9l-.2 .2c-.3 .2-.4 .4-.5 .7v.4l-.1 .8v.9l.3 1.2l.3 1.1l.1 .2l.5 .8l.4 .8l.2 .3l.5 .5l-.2-.3l.4 .7l.1 .1l.4 .4v.1l.7 .7v-.1l.4 .5l.2 .1l.6 .5c.2 .1 .4 .2 .7 .2h.2c.3 0 .5-.1 .7-.3c.1-.2 .2-.5 .2-.7Z" class="g0_53"/>
<path d="M1093.6 420.9l.4 .3c-.2-.3-.5-.4-.9-.4l-1.3-.1l-4.6-.1h-.1l-4.3 .5l-4.6 .5l-5.2 .6l-5.3 .3l-5.4 .1l-.2 .1l-4.7 .8h.2l-5 .3h.1h-4.5l-3.1 .2l.3 .1l-3.2-.5l.2 .1l-1.3-.4l-1-.2l.6 .4l-.2-.3l.3 .6v-.2l-.2 .9l.3-.5l-.2 .3l.6-.7v.1l.9-1l.1-.1l.9-1.1l.9-1.1l-.2 .2l.7-.5l.2-.2l.4-.4l-.9 .4h.4c.7-.1 1.2-.7 1.1-1.4c0-.7-.6-1.2-1.3-1.1c-.7 0-1.2 .6-1.2 1.3v.4l.1-.4l-.1 .2l.1-.1l-.2 .4l.5-.6l-.5 .3l-.3 .2l-.8 .8l-.2 .2l-.9 1.4l.2-.2l-1.4 1.6l-1.3 1.5l.2-.3l-1.3 .9l.2-.1l-1.5 .7l-.3 .2l-.6 .5l.3-.2l-.8 .3c-.6 .3-.9 .9-.8 1.6l.1 .6c.1 .2 .2 .4 .3 .6l.4 .5l.1 .1l.6 .6l.1 .1l1.1 .8l.7 .6l1.1 .9l.2 .1l.6 .3l.1 .1l.6 .2l.5 .1l.5-.1c.5 0 .9-.5 .9-1c0-.6-.4-1-.9-1.1h-.5l.7 .3l-.4-.5h-.1l-.5-.5l-1.1-.9l-.7-.6l-1-.9l.1 .1l-.7-.6l.1 .1l-.3-.5l.2 .6l-.1-.6l-.8 1.6l.7-.3l.4-.2l.6-.5l-.2 .1l1.5-.7l.1-.1l1.4-.9l.2-.2l1.3-1.5l1.4-1.6l.1-.2l.9-1.3l-.2 .2l.8-.8l-.2 .2l.5-.3c.2-.2 .4-.4 .5-.7l.2-.5l.1-.3v-.5l-.1-.5c0-.3-.2-.6-.5-.8c-.3-.2-.6-.3-.9-.2h-.4c-.3 .1-.6 .2-.8 .5l-.3 .5l.2-.3l-.7 .6l-.2 .2l-.9 1.1v-.1l-.9 1.1v-.1l-.9 1l-.7 .6l-.1 .3l-.3 .4c-.2 .3-.2 .6-.2 .9v.2c.1 .3 .2 .5 .4 .7l.3 .3c.2 .2 .4 .3 .6 .3l1 .3l1.3 .2l.1 .1l3.1 .4h.3l3.1-.3h-.1h4.5l4.9-.3h.2l4.7-.9l-.2 .1l5.4-.2l5.4-.4l5.3-.6l4.5-.5l4.3-.4h-.1l4.5 .1l1.3 .1l-.8-.3h.1c.3 .3 .8 .4 1.3 .2c.5-.2 .8-.6 .8-1.1c0-.5-.3-1-.8-1.2Z" class="g0_53"/>
<path d="M995.7 405l-.2-.4l-.1-.1l-1-1l.3 .6v-.9l-.1-.2l-.4-1.3v-.1l-.2-.8v.5l.1-.6l-.1-.5l-.3-.7l-.3 1.2l.1-.1c.3-.2 .5-.6 .4-1l-.2-1c0-.2-.1-.4-.3-.5l-1-1h-.1l-1.2-.9l-.2-.1l-1.7-.8l-.2-.1l-2.2-.7l-2.1-.5l-.1-.1l-2.6-.4l-2.7-.5h-.1l-3.1-.2l-3-.1H973l-2.7 .2h-.1l-2.7 .3h-.1l-2.1 .4h-.1l-2 .5l-2.2 .6l-2.1 .6h.2l-3.3 .1l-.3 .1l-2.1 .8h.1l-2.3 .6H951l-1 .6h-.1l-1 .5l-.4 .4l-.8 1.4l.5-.5l-2.1 .9v.1l-1.3 .6l-1.1 .6l-.4 .3l-.6 .8l-.2 .4l-.3 .9l-.3 1.1v.1l-.2 .9l.1-.1l-.3 .7v.2l-.2 .8l-.1 1.1v-.1l-.1 .8v.1l-.1 1.1v-.1l-.2 1.1l-.2 1.3l-.3 1.5v-.1l-.4 1.6l.1-.1l-.5 1.6l-.1 .1l-.3 1.8l.1-.1l-.5 1.9l-.4 1.9v.1l-.1 2.2v-.1l-.2 1.9v.1l-.2 1.7v3.5l.2 1.6l.2 1.8l.3 1.9l.3 2.2l.1 .1l.5 2.1v.1l.8 2.2l.1 .1l1 2l.1 .2l1.5 1.7l1.4 1.6l1.4 1.4l.2 .2l1.8 1.2h.1l1.7 1l1.5 .8l.2 .1l2.4 .8l2.2 .8h.1l2.1 .5h.1l2.7 .4h.2l2.2 .1l.1-.1l2.6-.1l3.2-.3h.1l2.9-.4l3.2-.5h.1l2.8-.6h.1l2.4-.8l-.1 .1l2.6-.6h.1l2.2-.7l2.1-.7v-.1l2-.8l.4-.2l1.3-1.2l-.3 .2l1.9-.8l1.8-.9l.4-.4l1.1-1.3l-.4 .3l1.7-.9c.2-.1 .4-.3 .6-.6l.8-1.9l.8-2l-.1 .1l.9-1.9l.1-.2l.6-2.6v.1l.7-2.3l.7-2.3v-.1l.7-2.5l.7-2.3v-.1l.6-2.3l.5-2.4v.1l.5-1.9v-.1l.4-1.7v-1.9h.1v-1.4l-.1-.4l-.4-1.4l-.1-.2l-.6-1.2l-.1-.1l-.7-1.1l-.8-1.3l-.1-.1l-1-1.2l-1.1-1.4l-1.3-1.4v-.1l-1.5-1.6l-1.7-1.9l-1.7-2.1l.1 .1l-1.3-1.9l-.1-.1L992 397l-1.2-1.4l.1 .1l-.8-1.1l-.3-.3l-1.4-1.1l-1.3-.9c-.4-.3-.9-.2-1.2 .1c-.3 .4-.2 .9 .1 1.2l1.2 1.1l-.1-.2l1.1 1.5l-.1-.2l.7 1.2v.1l1.1 1.5v.1l1.6 2l-.1-.1l1.2 1.9l.1 .1l1.7 2.1h.1l1.6 2h.1l1.4 1.7v-.1l1.3 1.5h-.1l1.2 1.4l1 1.1l-.1-.2l.8 1.3v.1l.8 1.1l-.2-.2l.6 1.2l-.1-.2l.5 1.3l-.1-.4v1.4v-.1v1.7V419l-.3 1.8v-.1l-.5 1.9l-.5 2.3l-.6 2.4v-.1l-.7 2.4l-.6 2.5l-.7 2.3l-.7 2.3l-.7 2.6l.1-.2l-.8 1.9l-.1 .1l-.6 2V443l-.8 1.9l.6-.7l-1.7 1l-.4 .3l-1.1 1.3l.4-.3l-1.7 .9l-1.9 .9l-.3 .2l-1.3 1.2l.4-.3l-2 .9l.1-.1l-2.1 .8v-.1l-2.1 .7h.1l-2.6 .5l-.1 .1l-2.5 .7h.2l-2.8 .6l-3.2 .5h.1l-3 .4h.1l-3.2 .2l-2.6 .2h.1H961h.2l-2.8-.4l.1 .1l-2.1-.5h.2l-2.2-.8l-2.5-.7l.3 .1l-1.5-.9l-1.8-1l.1 .1l-1.8-1.2l.2 .1l-1.4-1.4l.1 .1l-1.4-1.6l-1.5-1.6l.2 .2l-1-2v.1l-.8-2.1v.1l-.5-2.1v.1l-.4-2.2v.1l-.2-1.9l-.3-1.7v-.1l-.2-1.6v.2v-1.5l.1-1.8l.1-1.6l.2-1.9v-.1l.1-2.1v.1l.3-1.9v.1l.4-1.9v-.1l.4-1.7l-.1 .1l.5-1.6v-.1l.3-1.5l.4-1.5v-.1l.2-1.2l.2-1.1v-.1l.1-1.1v.1l.1-.9v-.1l.1-1v.1l.1-.8v.2l.2-.7l.1-.2l.2-.9l-.1 .1l.3-1.1l.3-1l-.2 .4l.7-.8l-.4 .3l1.1-.6l1.3-.7v.1l2-1c.2-.1 .4-.2 .5-.4l.8-1.3l-.4 .4l1-.6l1.1-.6l-.2 .1l2.2-.6l.1-.1l2.1-.8l-.3 .1l3.3-.2l.2-.1l2.1-.6l2.1-.5h.1l2-.6l2.1-.4h-.1l2.7-.3l2.7-.2H973l3 .2l3.1 .1H979l2.7 .5l2.5 .5h-.1l2.1 .6l2.2 .7h-.1l1.7 .9l-.1-.1l1.2 .9l-.1-.1l1.1 .9l-.4-.5l.3 .9v-.4v.1c-.1 .3-.1 .5 .1 .7l.4 .7l-.1-.6l-.1 .5l.1 .3l.2 .8l.3 1.3v-.2l-.1 .9c0 .3 .1 .5 .3 .7l1 .9l.3 .3l.5 .1c.3 .1 .6 0 .8-.2c.2-.3 .2-.6 0-.9Z" class="g0_53"/>
<path d="M963 405l1 2.3c.2 .4 .6 .6 1 .6c.4-.1 .8-.5 .8-.9l-.1-1.1l.1-1.2l-.1 .2l.3-1v-1.2l-.1-.6V402l-.1-.4l-.2-.6v.1l-.1-.5l.1 .2v-.3v.1v-.1c.1-.4-.1-.7-.3-1c-.3-.3-.6-.4-1-.3h-.1l1.1 .3h-.1c-.2-.2-.5-.4-.9-.4c-.4 .1-.8 .3-1 .7c-.1 .4-.1 .8 .2 1.2l.1 .1l-.1-.3l.5 1.3l1.1 2.5l-.1-.2l.4 2l.1 .2l.6 2v-.3l.1 2v.2l.5 2.4l.6 2.7v-.2l.1 2.7V418l-.1 2.7h-.1l.1 3l.2 2.8l.4 2.6v.1l.5 2.2v-.1l.3 2l.1 .2l.7 1.8l-.1-.3l.2 1.7l.1 .4l.9 2.1V439l.3 1.4l.3 1.4v-.2l.1 2.4v.2l.7 2.8l.5 2v-.1l.2 1v-.5l-.1 .5l1.3-.9l-.8-.1h.1l-1-.2l1 1.2v-.1c0-.5-.2-.9-.6-1.1c-.4-.2-.9-.2-1.2 0c-.4 .2-.6 .6-.6 1.1v.1c0 .5 .3 1 .8 1.2c.5 .2 1.1 0 1.5-.4c.3-.3 .4-.9 .2-1.4l.1 .8c.1-.3 .1-.5 0-.8l-.1-.1l.1 .6l.1-1v.2l.6-2.6v-.5l-.5-2.9l-.6-2.8V440l-1.1-3.1v-.1l-1.1-3.1l.1 .3l-.3-2.8v-.1l-.7-3.1l-.6-3.3v-.1l-.7-3.4l-.5-2.8l-.6-2.4v-.1l-.4-1.9v.2l-.1-1.5l-.1-.2l-.3-1.2v-.1l-.3-.9l-.3-.8v-.1l-.3-.7l.1 .5v-.9l-.1-.9v-2.7l-.1-1.4v.1l.1-1.1v-4.2l-.1-.5c0-.7-.5-1.2-1.1-1.3c-.6-.1-1.2 .2-1.5 .7c-.3 .6-.2 1.3 .2 1.7l.1 .1c.4 .4 1 .5 1.5 .2c.6-.2 .9-.7 .9-1.3v-.1c0-.6-.4-1.1-1-1.3c-.6-.2-1.2 0-1.6 .5c-.3 .5-.3 1.2 0 1.7l.1 .1c.4 .5 1 .7 1.6 .5c.6-.2 1-.8 1-1.4c0-.3-.2-.6-.4-.9c-.5-.6-1.3-.7-1.9-.3c-.6 .5-.8 1.3-.4 2l.4 .6l-.1-.2l1 2.2V401l.5 1.3v.1l.7 1.7l.8 2.2l.1 .2l1.2 2.2l-.1-.3l.5 2.4v.1l.9 2.6l-.1-.4l.2 2.6v3.4l.4 3.7v-.2l-.1 3.6v.1l.2 3.6l.2 3.1v-.1l-.1 2.7v.1l.3 2.7v.2l.6 2.6l.1 .1l.8 2.5l.2 .3l1.6 2.1l.1 .2l1.8 1.8l.2 .1l1.9 1.2l.1 .1l1.7 .8c.5 .3 1.2 0 1.5-.5c.3-.6 0-1.3-.5-1.6l-1.6-.8l.1 .1l-1.8-1.3l.2 .1l-1.7-1.8l.1 .1l-1.5-2.1l.2 .3l-.9-2.5v.1l-.6-2.6v.3l-.2-2.7v.1v-2.7l-.2-3.2v.1l-.2-3.6v.1l.2-3.6v-.2l-.5-3.8v.2v-3.3l-.1-2.6l-.1-.3l-.9-2.6l.1 .1l-.5-2.4l-.2-.3l-1.2-2.3l.1 .2l-.8-2.2l-.1-.1l-.7-1.7v.1l-.5-1.4V400l-1-2.2l.1 .3l-.2-.8c-.2-.6-.7-1-1.3-1c-.6-.1-1.2 .3-1.4 .9c-.2 .6-.1 1.2 .4 1.6h.1l-.6-1.1c0 .6 .4 1.2 1 1.4c.5 .2 1.2 0 1.6-.4c.3-.5 .4-1.2 .1-1.7l-.1-.1c-.4-.5-1-.8-1.6-.6c-.6 .2-1 .7-1 1.3v.1c-.1 .7 .4 1.2 1 1.4c.6 .2 1.3-.1 1.6-.6c.3-.6 .2-1.3-.2-1.8h-.1c-.4-.4-1-.5-1.6-.3c-.5 .3-.8 .8-.8 1.4l.1 .5v1v-.1V401v-.1v1.3l-.1 1.1v.1l.1 1.4v1.5l.1 1.2v.9l.1 .9l.1 .5l.4 .7v-.1l.3 .8l.3 .9V412l.4 1.2l-.1-.3l.2 1.5v.2l.5 1.9l.5 2.4l.5 2.8l.7 3.5v-.1l.5 3.3v.1l.6 3.1v-.1l.3 2.8l.1 .3l1 3.1l1 3.2v-.2l.5 2.8l.5 2.8v-.5l-.6 2.6v.2l-.1 .9c0 .3 .1 .6 .3 .9v.1l-.2-.4h.1h-.1h.1v-.8l.7-.7c-.5 .2-.8 .7-.8 1.2v.1c0 .5 .4 1 .9 1.1l1 .2l.8 .2c.6 .1 1.2-.3 1.4-.9l.1-.6v-.5l-.2-.9v-.1l-.5-2l-.7-2.7v.2v-2.4l-.1-.2l-.3-1.4v-.1l-.3-1.3l-.1-.2l-.9-2.2v.3l-.2-1.7v-.2l-.8-1.8l.1 .2l-.3-1.9v-.1l-.5-2.2l-.4-2.5v.1l-.2-2.8v.1l-.1-2.9v.1l.2-2.7V418l-.2-2.7v-.2l-.6-2.7l-.5-2.4v.2l-.1-2l-.1-.3l-.7-2v.1l-.4-2l-.1-.2l-1.2-2.5h.1l-.6-1.2l.1 .7v-.2l-1.1 .8l-.7-.3h.1l.5 .3h.6c.5-.1 .8-.6 .8-1.1c-.1-.5-.6-.9-1.1-.8c-.5 0-.9 .5-.8 1v.6l.2 .4v.1l.3 .6l.1 .4v-.2l.1 .6v-.2l-.1 .9v-.2l-.3 .9v.2l-.1 1.3V407c0 .3 .3 .7 .6 .8c.4 .1 .8 0 1-.2c.3-.4 .3-.8 .1-1.1l-1.3-2.2c-.2-.4-.6-.5-1-.3c-.3 .2-.5 .6-.3 1Z" class="g0_53"/>
<path d="M980.8 415.9l3.3 2.8c.2 .2 .6 .3 .8 .2c.3 0 .6-.2 .7-.5l.1-.3c.1-.3 .1-.5-.1-.8v-.1l.1 .4v-.9v.1l.1-2l-.1 .5l.5-.8l-.1 .1l.6-.7l.4-.5l-.3 .2l.4-.2c.3-.1 .5-.4 .6-.7v-.2l-1 .8h.1l-.6-.2l.1 .1c.3 .3 .7 .3 1 .2c.4-.1 .6-.4 .7-.7v-.1c.1-.3 0-.6-.1-.9c-.2-.2-.5-.4-.8-.4h-.3l-.4 .1h.1l.2-.1c-.5 .1-1 .5-1 1v3.5l.1-.3l-.3 .9l-.5 1.2l.1-.1l-.6 1l1.1-.5l-.9-.2c-.5 0-1 .3-1.2 .9l-.1 .5l.6-.7h-.2c-.4 .3-.7 .8-.6 1.3c.1 .6 .6 .9 1.2 .9c.5 0 .9-.4 1-1l.1-.2c0-.6-.3-1.1-.9-1.3c-.5-.1-1.1 .2-1.3 .7c-.3 .5-.1 1.1 .4 1.4l.1 .1c.5 .3 1.1 .2 1.5-.2l.2-.2l.1-.2l.1-.4v-.6v.2l.4-1.6l-.2 .3l.3-.3l-.2 .2l.1-.1c.2-.2 .4-.5 .4-.8v-.1c0-.4-.1-.8-.3-1c-.3-.3-.6-.5-1-.5c-.7 .1-1.2 .6-1.3 1.2c-.1 .7 .4 1.3 1 1.4l.5 .1l-.5-.2l2 1.6l-.2-.2l.6 .8l-.1-.3l.3 .7l.4 .9l.1-1.1l-.2 .2l-.1 .3l-.2 .4c-.1 .2-.2 .5-.1 .8l.2 .7l.7-1.4h-.2h.5h-.1c-.6-.1-1.1 .2-1.3 .8c-.1 .5 .1 1.1 .5 1.4c.5 .3 1.1 .2 1.5-.1l.1-.2c.4-.3 .5-1 .3-1.4l-.1-.1c-.1-.3-.4-.6-.8-.6l-.1-.1l.9 .9l-.1-.6v.2l-.3-2.7v.1v-2.4c0-.5-.4-.9-.9-.9c-.5 0-.9 .3-.9 .8l-.1 2.4v.2l.1 2.7v-.2l-.1 .5c0 .4 .1 .8 .4 1.1l.1 .1l-.3-.5v.1l.2-1.3l-.1 .2c-.3 .3-.4 .9-.2 1.3c.2 .4 .7 .7 1.2 .7l.1-.1h.4l.2-.2c.5-.2 .8-.8 .7-1.3l-.2-.7v.7l.1-.4l-.1 .2l.2-.3c.2-.3 .3-.8 .1-1.1l-.5-1l-.3-.7l-.1-.2l-.6-.7l-.2-.2l-1.9-1.6l.1 .1l-.4-.4c-.4-.4-1-.5-1.6-.2c-.5 .3-.7 .9-.6 1.5c.2 .5 .7 .9 1.3 .9l-1.3-1.1v.1l.4-1l-.1 .1l-.2 .2l-.2 .4l-.2 .4l-.3 1.6l-.1 .2v.6l.1 .6l.1 .2l.2 .2c.4 .4 .9 .5 1.4 .2c.5-.2 .7-.7 .6-1.2c-.1-.6-.5-.9-1-1h-.2c-.3 0-.7 .1-.9 .3c-.3 .3-.4 .7-.3 1v.2c.1 .4 .3 .8 .7 .9c.4 .1 .9 .1 1.2-.2l.1-.1c.1-.2 .3-.4 .3-.6l.1-.6l-1.2 .9l.9 .1c.5 .1 .9-.2 1.1-.6l.6-1.1v-.1l.5-1.2l.3-1v-.3l-.1-2.9v.1l.1-.6l-1.1 1h-.2l-.1-.1v.1h.7l-1.1-.8v.1c.1 .4 .5 .7 .9 .8c.5 0 1-.3 1.1-.7c.2-.5 0-1-.4-1.3l-.2-.1c-.2-.1-.4-.2-.6-.2h-.1c-.5 .1-.9 .4-1 .8v.2l.6-.7l-.5 .2l-.4 .3l-.5 .5h.1l-.6 .7l-.1 .1l-.5 .8l-.2 .5l-.2 2.1v.9l.1 .6l.1 .1c.1 .2 .3 .3 .5 .4l-.4-.3l.2 .2c.2 .3 .5 .4 .9 .4c.4-.1 .7-.4 .7-.8c.1-.3 0-.7-.3-.9l-3.5-2.5c-.4-.3-.8-.2-1 .1c-.3 .3-.3 .8 0 1Z" class="g0_53"/>
<path d="M949.2 425l.3 .2l.2 .2l-.1-.1l.4 .4l-.1-.1l.8 1.2l-.1-.6l-.1 .2c-.1 .4 .1 .8 .6 1c.4 .1 .9 0 1.1-.4c.1-.4 0-.9-.4-1.2l-.5-.3l.4 .8V426l-.2 .6l.1-.1l.2-.5v-.1c0-.4-.1-.7-.3-.9h-.1l.2 .3l-.1-.3l.1 .2l-.1-.3v.4l.3-1.2c.2-.5-.1-1.1-.6-1.3l-.3-.1l.3 .2l-.1-.1l-.1-.1c-.5-.3-1.2-.2-1.5 .3c-.4 .5-.3 1.1 .2 1.5l1.1 .9l-.2-.2l1.5 1.7l-.2-.8l-.1 .6c0 .2 .1 .5 .2 .7l.4 .6c.3 .5 .8 .6 1.3 .4c.5-.2 .7-.7 .7-1.2c-.1-.4-.6-.8-1.1-.8h-.7c-.2 0-.4 0-.6 .2l-.4 .3l1-.2l-.4-.1h.1l-.4-.2c-.6-.2-1.2 0-1.5 .6c-.2 .5 0 1.2 .5 1.4c.5 .3 1.2 .1 1.5-.4v-.1l-1 .6h.2c.6 0 1-.4 1.2-.9v-.1l-.1 .2l.3-.6l-.3 .4l2-2l-.1 .1l.6-.4l.1-.1l.5-.5l.2-.3l.3-.5l-1.1 .6h1l.4-.2h-.9l.9 .4h-.1l1 .6l.3 .1l.7 .2l-.5-.3l.6 .5l-.2-.2l.4 .6l-.2-.3l.3 1.3c.1 .5 .7 .9 1.2 .8c.6-.2 1-.7 .9-1.2l-.3-1.4v-.1l-.3-.8l-.3-.4l-.6-.5l-.5-.3l-.6-.2l.3 .2l-1-.6l-.1-.1l-.9-.5c-.3-.1-.6-.1-.9 0l-.4 .1h.5l-.5-.1c-.5 0-1 .2-1.2 .6l-.3 .6l.3-.3l-.5 .4l.1-.1l-.6 .4l-.2 .2l-2 1.9l-.3 .4l-.2 .7c-.1 .2-.2 .4-.1 .7v.1l.2-1l-.1 .1c-.3 .4-.3 .8-.1 1.2v.1c.2 .2 .4 .4 .6 .5l.5 .1v.1l.4 .1c.3 .1 .7 0 1-.2l.4-.3l-.7 .2h.7c.4 0 .8-.2 1-.6c.1-.3 .1-.7-.1-1.1l-.4-.6l.1 .7l.1-.6c0-.3-.1-.6-.3-.8l-1.5-1.6l-.1-.1l-1-1c-.4-.4-1-.4-1.4 0c-.5 .3-.6 .9-.3 1.4l.1 .1v.1h.1c.2 .2 .4 .4 .6 .4l.4 .1l-.9-1.2l-.2 1.2v.4l.2 .4V425l-.2 .3c-.2 .4-.1 1 .3 1.3l-.1-.1l.1 .1v-.1v.1l.1 .2l.2 .1l.3 .3l.7 .2c.2 .1 .5 .1 .7-.1c.2-.1 .4-.3 .4-.6l.1-.2l-.1-.6l-.7-1.2v.1l-.2-.6v.1V424c-.1-.2-.3-.5-.6-.6l-.3-.2c-.5-.2-1.1 0-1.3 .4c-.3 .4-.3 1 .1 1.4Z" class="g0_53"/>
<path d="M900.2 427.1c.2-.1 .4-.2 .5-.4v-.1l.1-.2l.1-.2v-.1v.1v-.1v.1l-.1 .1h.1c.1-.4 .1-.9-.2-1.2V425c-.2-.2-.5-.4-.9-.5h-.7l-4.1 .1h-.2l-3 .5l-3.9 .5l-.2 .1l-3.9 1.1l-4 .9h.1l-4.4 .9h.1l-4 .8l-3.9 .5h-.1l-3.5 .5l-2.8 .4l.1-.1l-1.5 .2h.1l-.9-.1h-.2l.7 .2h-.1l.6 1.1v-.2c0-.3-.1-.6-.3-.8l.3 .5l-.1-.1l-.7 1.6l1.1-.5l.3-.2l2.4-2.1l-.1 .1l1.2-.8l.2-.3l.8-.8l-.2 .1l.7-.6l-.5 .3l.7-.2l-.6 .1l.6 .1c.5 0 1-.2 1.3-.6c.3-.4 .4-.9 .2-1.4c-.2-.4-.6-.8-1.1-.8H866l.4 .1l-.5-.2h.1l-.8-.4c-.6-.3-1.5-.1-1.9 .6c-.3 .7-.1 1.5 .5 1.9l.3 .2c.6 .3 1.4 .2 1.9-.3c.4-.5 .4-1.3 0-1.9c-.5-.5-1.2-.6-1.8-.3l-.2 .1c-.4 .2-.7 .7-.7 1.2c0 .6 .3 1 .7 1.3h.1l-.5-.4l.2 .2c.4 .6 1.1 .8 1.7 .6c.6-.2 1-.8 1-1.5c-.1-.6-.6-1.2-1.2-1.3h-.2c-.5-.1-1 0-1.3 .4c-.4 .3-.5 .8-.4 1.3l.1 .4l.6-1.5l-.6 .4l-.3 .3l-.5 .6l-.2 .2l-.4 .9l.8-.7l-.9 .3c-.4 .2-.7 .5-.8 .9l-.2 .5l-.1 .3v1c0 .4 .2 .8 .5 1l.6 .5l.1 .1l.8 .5l.2 .1l1.1 .5l.2 .1l1.3 .3l.9 .3h.3l.9 .1c.4 0 .8-.1 1-.4l.3-.3l.4-.5l.2-.6l-.2 .3l.6-.9c.4-.5 .3-1.2-.2-1.5c-.5-.4-1.2-.3-1.6 .2l-.6 .8h-.1l-.4 .5l.6-.4l-.4 .2l.7-.1l-1-.1h.3l-.9-.3h-.1l-1.3-.3h.2l-1.1-.4l.2 .1l-.7-.5l.1 .1l-.6-.5l.5 1.1v-.5v.2l.1-.4l-.1 .3l.2-.4l-.9 .8l.9-.3c.3-.1 .6-.4 .7-.7l.5-.8l-.2 .3l.5-.6l-.3 .2l.6-.4c.5-.3 .7-.9 .6-1.4l-.1-.5c-.1-.7-.8-1.2-1.5-1.2c-.7 .1-1.3 .7-1.4 1.4c0 .7 .5 1.4 1.2 1.5l.2 .1c.6 .1 1.2-.2 1.5-.6c.3-.5 .3-1.2 0-1.7l-.1-.2c-.2-.3-.4-.5-.7-.6h-.1c-.6-.3-1.4 0-1.8 .5c-.3 .6-.2 1.4 .3 1.9c.5 .5 1.3 .5 1.8 .1l.1-.1c.4-.3 .7-.8 .6-1.3c0-.4-.3-.9-.7-1.1l-.4-.2c-.4-.2-1-.2-1.4 .1c-.4 .3-.7 .8-.7 1.3c.1 .5 .4 .9 .9 1.2l.8 .3v.1l.6 .2l.6 .1h.3c.7-.1 1.2-.7 1.2-1.4c0-.7-.5-1.3-1.2-1.4l-.5-.1l-.5 .1l-.8 .1c-.2 .1-.4 .2-.6 .3l-.7 .7l-.1 .1l-.7 .9l.2-.3l-1.1 .9h-.1l-2.5 2.1l.3-.2l-1 .5c-.4 .2-.7 .5-.8 .9v.1l.3-.5h-.1c-.2 .2-.3 .5-.3 .8v.2c0 .6 .4 1.2 .9 1.4h.1l.6 .1h1.2l1.5-.2h.1l2.8-.4l3.5-.5l4-.6h.1l3.9-.8h.1l4.3-.9l4-1h.1l3.9-1.2l-.2 .1l4-.6l3-.5h-.1l4.1-.1h-.1h.6l-.6-.2l-.4-.4v-.2v.1v-.1v.3l.1 .2l.1 .1c.1 .2 .3 .3 .5 .4c.2 .1 .5 .1 .8 0Z" class="g0_53"/>
<path d="M820.7 405.8l1.1 1.1c.2 .2 .5 .3 .8 .1c.2-.1 .4-.4 .3-.7l-.1-.3l-.1-.1l-.1-.4c-.2-.4-.6-.6-1-.5c-.5 .1-.7 .5-.7 .9c0 .4 .2 .7 .7 .8l.1 .1c.4 .1 .9-.2 1.1-.6v-.8l-.4-1.1l-.2-.3l-2-2.3l.2 .2l-.9-1.5l-.1-.2l-.8-.9l.1 .1l-.9-1.1v-.1l-.9-1.1h-.1l-.7-.8v.1l-.8-.9l-.1-.1l-1-.8l-.1-.1l-1-.6H813l-1-.6l-1.6-.7h-.1l-1.1-.4l-.1-.1l-1.5-.4l-1.5-.4H806l-1.2-.3l-2-.4h-.1l-2.1-.3l-2.4-.4l-2.3-.4l-2.3-.4h-.1l-1.9-.2h-.1l-2.4-.1H789l-2.7-.1h-.2l-2.5 .3h.1l-2.9 .2h-.2l-2.3 .5h-.2l-2.1 .8h.1l-2.1 .6l-.2 .1l-1.9 .9l.1-.1l-2.4 .8l-.2 .1l-1.8 1.1v-.1l-2.4 1.3l-2.3 1.5l-.2 .2l-1.7 2.2l.2-.2l-2.3 2.1l-.2 .3l-1.4 2.5v-.1l-1.5 2.5l-.1 .1l-1.2 2.4v.1l-1 2.4l-.7 2.4l-.8 2.5v.1l-.4 2.5l-.5 2.8v.1l-.2 2.8l-.1 2.7v2.8l.1 2.5v.2l.4 2.4l.5 2.4l.1 .2l.7 2.1l.9 2.3v.2l1.2 2.2l1.3 2.3l.1 .2l2 2.3l1.6 2.2l.2 .2l2.5 1.9l-.1-.1l1.6 1.7l.3 .2l2.4 1.4h.2l2.8 1.2l2.3 1h.2l3.4 .8l2.5 .5l2.8 .5h.1l3.3 .4h.1l2.8 .1h.1l2.9-.1h.1l2.5-.4l.2-.1l2.2-.8l-.1 .1l2.6-.6h.1l2.4-.8l-.1 .1l3.1-.7l2.7-.5l2.9-.5h.1l2.5-.6l.3-.1l1.6-.9l.1-.1l1.4-1l.1-.1l1.1-1.1l.1-.1l1.1-1.4v-.1l1.2-1.7h.1l1-1.5l.2-.3l.7-2.1v-.1l.6-1.9l.5-1.8l.1-.3l.2-2.5v-.1l.1-2.1v-.1l.1-2.6v-2.6v.1l.4-2.9l-.1 .1l.6-3.1l.5-3v-.1l.4-2.8l.4-2.5v-4.3l-.1-1.5v-.2l-.3-1.2v.2v-1.1l-.2-.6l-.5-1.1v-.1l-.6-1.1v-.1l-.8-1.4l-.2-.2l-1-1.1l-.8-.9l-.3-.2l-.8-.6l-.2-.1l-.7-.4h-.1l-.6-.3l.5 .3l-.5-.4l.4 .5l-.4-.9v.1l-.2-.6l-.3-1v.1l-.3-.9v-.1l-.2-.6l-.1-.3l-.3-.4l-.2-.3l-.7-.6c-.4-.2-.8-.3-1.2 0c-.3 .2-.5 .7-.4 1.1l.3 .8v-.3V399l.2 .9v.1l.3 1.1l.2 .7l.1 .2l.4 .9l.4 .5l.4 .4l.5 .3l.6 .2h-.2l.7 .3l-.2-.1l.9 .6l-.2-.2l.8 .9l1 1l-.2-.2l.8 1.3v-.1l.5 1.1l.5 1.1l-.1-.5l.1 1.2v.3l.3 1.2V412l.1 1.5v-.1v3.9v-.2l-.4 2.5l-.4 2.8l-.5 3l-.5 3.1l-.1 .1l-.3 2.8v.2l-.1 2.6v2.6l-.1 2.2l-.2 2.5l.1-.3l-.5 1.9V443l-.5 2v-.1L817 447l.1-.4l-1 1.6l-1.2 1.7h.1l-1.1 1.4l.1-.2l-1.1 1.1l.2-.1l-1.4 1l.2-.1l-1.5 .9l.3-.1l-2.5 .5h.1l-2.9 .6l-2.8 .5l-3.1 .7h-.1l-2.4 .7h.1l-2.6 .6h-.2l-2.2 .8h.2l-2.5 .3h.2l-3 .2h.1l-2.7-.1h.1l-3.3-.4h.1l-2.9-.5h.1l-2.5-.5l-3.4-.7l.3 .1l-2.4-1l-2.8-1.1h.1l-2.4-1.4l.2 .2l-1.6-1.6l-.2-.1l-2.4-1.9l.2 .2l-1.6-2.2h-.1l-2-2.4l.2 .2l-1.3-2.2l-1.2-2.2l.1 .1l-.9-2.3l-.7-2.1v.2l-.4-2.4l-.4-2.4v.1l-.1-2.5v.1v-2.7l.1-2.7l.2-2.7l-.1 .1l.5-2.8l.4-2.5v.2l.7-2.5l.7-2.4v.1l.9-2.4v.1l1.2-2.4l-.1 .1l1.5-2.5h.1l1.3-2.5l-.2 .2l2.3-2l.1-.2l1.6-2.1l-.3 .3l2.3-1.5l-.1 .1l2.3-1.3l1.9-1h-.2l2.4-.7l.2-.1l1.9-.9h-.2l2.1-.6h.1l2.1-.8h-.2l2.3-.4h-.1l2.9-.2l2.5-.2h-.1H789l2.4 .1l1.9 .2h-.1l2.3 .4l2.4 .4l2.4 .4l2.1 .3l1.9 .4l1.3 .2h-.1l1.5 .4l1.5 .4l1.1 .4h-.1l1.5 .7l1.1 .5l-.1-.1l.9 .7v-.1l1 .8l-.1-.1l.7 .8h.1l.7 .8l-.1-.1l.9 1.1v-.1l.8 1.2l.1 .1l.8 .8l-.1-.2l.8 1.5l.1 .2l2.1 2.3l-.3-.4l.4 1.1c.1 .4 .5 .7 .9 .7l.5-.1c.4-.1 .6-.5 .6-.9c0-.4-.2-.7-.6-.9c-.4-.1-.8 0-1.1 .3v.1c-.2 .2-.3 .5-.2 .8c0 .2 .2 .5 .5 .6l.3 .1h-.1l.3 .2c.3 .2 .7 .1 .9-.1c.2-.3 .1-.7-.2-.9l-1.2-1c-.3-.2-.5-.1-.7 .1c-.2 .2-.2 .5 0 .7Z" class="g0_53"/>
<path d="M753.5 427.3v-.2c.1-.4-.1-.8-.4-1c-.4-.3-.8-.3-1.2-.1c-.3 .3-.5 .7-.4 1.1v.3l.1 .3l.7-1.1l-.3 .1l.6 .1l-.2-.2c-.5-.2-1-.1-1.3 .3c-.3 .3-.3 .9 0 1.3c.3 .3 .8 .5 1.2 .3l.2-.1l-.3 .1l1-.2l3.1-.4h.1l1.9-.5l-.4 .1l2.6 .3h.2l2.1-.2l-.1 .1h4.6l.3-.1l2.1-.7l-.3 .1l2.6 .2l.3-.1l2.5-.6h-.2h3.1h-.1l3.8 .3h.2l3.8-.4h-.1l4 .2h.1l3.7-.2l3.4-.3h-.1l3.3-.1l3-.3l3-.4l2.9-.4l3-.4h-.2h2.9l2.5-.5h.1l2.1-.5h-.1l2-.4h.1l2.1-.7l-.1 .1l1.8-.5l1.6-.5l-.3 .1l1.8-.1c.2 0 .4-.1 .6-.3l1.1-.7l-.4 .2l1.3-.4l-.3 .1l1.2-.1c.4 0 .6-.1 .9-.3l.6-.6l-.6 .3l.6-.1c.5-.1 .9-.5 1-1l.1-.3v-.5c0-.4-.1-.7-.4-1c-.5-.5-1.3-.5-1.8 0c-.5 .5-.5 1.3 0 1.8l-.3-.8v.2v-.3l-.1 .3l1-.9l-.6 .1c-.2 0-.4 .1-.6 .3l-.7 .6l.9-.3h-1.3l-.2 .1l-1.4 .3l-.4 .2l-1.1 .8l.7-.3l-1.8 .2h-.3l-1.5 .5h.1l-1.8 .4l-.1 .1l-2 .6h.1l-2 .4l-2.1 .6h.1l-2.5 .4h.2h-2.9l-2.9 .5l-2.9 .3l-3 .5l-2.9 .3h.1l-3.2 .1h-.1l-3.4 .3h.1l-3.8 .2h.1l-3.9-.2l-.2 .1l-3.8 .4h.2l-3.8-.3h-.1l-3.1 .1h-.3l-2.5 .7l.3-.1l-2.6-.1h-.4l-2.2 .7h.4h-4.7l-2.1 .2h.2l-2.5-.4l-.4 .1l-1.9 .4h.1l-3.1 .4l-.9 .1l-.2 .1l-.2 .1c-.4 .1-.7 .4-.7 .8c-.1 .4 .1 .7 .4 1c.3 .2 .7 .2 1.1 .1l.2-.2l-.6 .1h.3c.2 .1 .5 .1 .7-.1c.2-.1 .4-.3 .4-.6l.1-.3v-.3c.1-.5-.2-1-.7-1.2c-.6-.1-1.1 .2-1.3 .7c-.2 .5 0 1 .5 1.3l.2 .1c.3 .1 .6 .1 .8 0c.3-.2 .4-.4 .5-.7Z" class="g0_53"/>
<path d="M793.5 393.3l-2.4-3l.1 .2l-.1-.3c0-.3-.2-.5-.5-.6l-.4-.1c-.3-.1-.6 0-.8 .2l-.1 .1c-.3 .2-.4 .6-.2 .9l.1 .3c.1 .2 .3 .4 .6 .5c.2 0 .5 0 .7-.2l.1-.1l.2-.3c.1-.3 .1-.6 0-.8c-.1-.3-.3-.5-.5-.5l-.1-.1l.5 .4l-.1-.1v-.1h-.1c-.2-.3-.5-.4-.9-.3h-.2c-.3 .1-.6 .4-.7 .8v.5l-.1 .9l.1-.3l-.8 2v-.1l-.6 1.3v.1l-.5 1.8l-.4 1.9v.1l-.4 1.9l-.5 1.8v.1l-.3 2l.2-.5l-1.3 1.9c-.2 .2-.2 .4-.2 .6l-.1 2.2v-.1l-.1 2l.1-.3l-.7 1.9v.4l.1 2.2v-.1v2.5v-.1l-.4 2.7v.2l.2 3l.2 3.1v-.2l-.4 2.6l.1 .4l.5 2.6v-.3l-.2 2.1v.3l.3 1.8v.1l.4 2v-.3V439l.4 1.9v-.4l-.1 1l-.1 1v-.1l-.2 1.3v-.1l-.3 1.4l-.3 1.1l-.3 .9v.2l-.1 1.1v-.1l-.2 1l.1-.2l-.3 .9v.1l-.3 .9l-.1 .4l.1 .9v-.3l-.2 1v.5l.2 .7v.2l.2 .8v-.4l-.1 .7l.2 .6l.3 .6l.1 .3l.4 .6l-.2-.9v.4c0 .5 .2 .9 .6 1.2l.3 .2c.4 .3 1 .3 1.5 0c.5-.3 .8-.8 .7-1.4c-.1-.6-.5-1-1.1-1.2H785l-.3-.1h-.6c-.5-.1-1 .2-1.3 .6c-.3 .5-.3 1 0 1.5c.2 .5 .7 .7 1.2 .7h.8l-1.4-1.2v.1c.1 .7 .7 1.3 1.4 1.3c.7 0 1.3-.6 1.4-1.3l.1-.7v-1.2l-.1-.4l-.6-1.7v.1l-.5-2.3v.1v-2.2c-.1-.5-.4-.9-.9-.9c-.5 0-.8 .4-.9 .9v2.3l.1 2.4v.1l.4 1.8v-.4l-.2 1.1v-.2l-.2 .7c-.1 .5 0 1 .4 1.4c.4 .3 1 .5 1.5 .3c.5-.2 .8-.6 .9-1.2v-.1c.1-.4 0-.8-.3-1.1c-.3-.4-.7-.5-1.1-.5H784c-.8 0-1.4 .6-1.4 1.4c0 .7 .6 1.4 1.3 1.4l.6 .1l-.2-.1l.1 .1c.7 .1 1.4-.2 1.7-.8c.2-.7 0-1.4-.5-1.8l-.3-.2l.6 1.2v-.4c0-.3-.1-.6-.2-.8l-.5-.6l.2 .2l-.4-.6l.2 .6v-.7l-.1-.4l-.2-.8v.2l-.1-.8v.5l.2-1v-1.2l-.1 .4l.3-.9v.1l.2-1l.1-.2l.1-1l.2-1l-.1 .2l.3-1l.3-1.1l.3-1.4l.1-.1l.2-1.4v-1.1l.1-.9l-.1-.4l-.4-2v.3l.1-1.8l-.1-.3l-.4-1.9l-.3-1.8v.2l.1-2.1v-.3l-.5-2.6v.4l.3-2.6v-.3l-.2-3l-.2-3v.2l.3-2.7V417l.1-2.6v-.1l-.3-2.2v.5l.6-1.9v-.3l.1-2v-2.2l-.2 .6l1.3-1.8l.2-.5l.2-2l.4-1.7v-.1l.4-1.9l.4-1.9l.4-1.8l-.1 .2l.6-1.3l.8-2v-.3l.1-.9l-.1 .2l.1-.4c.2-.5-.1-1.1-.6-1.2c-.5-.2-1.1 .1-1.2 .6c-.2 .6 .1 1.1 .6 1.2v.1h.2l-.5-.2h.1l.1 .1l.1 .1c.2 .1 .5 .2 .8 .1h.1l-1.2-.5l.3 .3v.1c.3 .3 .8 .3 1.1 0c.3-.3 .4-.7 .2-1.1l-.1-.2l-.1 .9v-.1l-.8 .3l.4 .1h.2l.2 .1l-.4-.3l2.6 3c.2 .2 .5 .2 .7 0c.2-.2 .2-.5 .1-.7Z" class="g0_53"/>
<path d="M803.9 413.9l-.2 .1c-.1 .2-.2 .4-.2 .6c0 .2 .1 .4 .2 .6l.4 .3l-.2-.6l-.1 .3l.1-.3l-.3 .5l-.1 .2l-.1 .5l.5-.4H803l-.7 .1h.2l-.7-.1l.2 .1l-.9-.4l.2 .1l-.9-.5h-.1l-.6-.4l.2 .2l-.7-.6l-.2-.2l-.5-.2h.1l-.4-.3l.1 .2l-.2-.3v.1l-.2-.4l.1 .4l-.1-.5v.2v-1v.4l.1-.4l-.4 .5l.2-.1l-.1 .1l.3-.2l-.3 .1h.6h-.1h.7l.1-.1h.7l.7-.1h.5h-.1h.2l.5-.2l.2-.1l-.6 .2c.4 0 .8-.2 1-.6c.2-.4 .2-.8-.1-1.1l-.1-.1c-.1-.2-.4-.3-.6-.3h-.1c-.5-.1-.9 .2-1.1 .6l-.1 .2v-.1l-.4 .8h.1l-1.2 2l.3-.3l-.7 .6l-.5 .4l.3-.2l-.6 .2h.3h-.5l-.2 .1h-.2c-.6 .1-1 .6-.9 1.2c0 .6 .5 1 1.1 1.1c.5 0 1-.4 1.2-.9v-.3v.1l.1-.4l-.1 .3l1.2-1.8l.6-.8l-.2 .1l.9-.8l-.3 .2l.8-.4l.9-.5l-.3 .1l.9-.1h-.2h.7l-.3-.1l.7 .2l-.3-.1l.9 .5l-.4-.4l.4 .7l-.1-.8l-.2 1l.1-.2l-.4 1l.3-.4l-1.1 1.1l.2-.2l-1.4 .8h-.1l-1.4 1c-.4 .3-.5 .8-.2 1.2c.3 .4 .8 .5 1.1 .2l1.5-.9l-.2 .1l1.5-.6l.3-.1l1.2-1l.4-.5l.3-.9l.1-.2l.2-1c0-.2 0-.5-.1-.7l-.4-.7l-.4-.4l-.9-.6l-.3-.1l-.7-.2l-.3-.1h-.9l-1 .2l-.3 .1l-.9 .4l-.8 .4l-.3 .2l-.9 .9l-.1 .1l-.6 .8v.1l-1.3 1.8l-.1 .4l-.1 .4l-.1 .6h.1h-.1h.1v.3c.1 .4 .4 .7 .8 .8c.4 .2 .8 .1 1.1-.2l.1-.1l-.4 .3l.2-.1h-.1l.4-.1h.2l.6-.3l.3-.2l.5-.4l.6-.6l.3-.3l1.1-2l.4-.8v-.1l.1-.2l-.8 .6h.1l-.8-.2c.4 .3 .9 .3 1.3 .1c.4-.3 .5-.7 .4-1.2c-.2-.4-.6-.7-1.1-.7l-.4 .2l-.3 .1l.6-.1h-.8l-.6 .1h-.8h.1h-.8l-.6 .1l-.3 .1l-.3 .1l-.1 .1l-.2 .1c-.2 .2-.4 .3-.4 .5l-.2 .4v1.3l.1 .3l.1 .5l.1 .3l.3 .3v.1l.2 .3l.2 .2l.5 .3h.1l.4 .3l-.1-.1l.7 .6l.2 .2l.7 .2l.9 .5h.2l.9 .2h.3l.7-.1h.2l.6-.3h-.1l.9-.2l.4-.5l.1-.5l-.2 .4l.4-.4l.2-.2l.2-.3c.1-.3 .1-.6-.1-.8l-.3-.4l.2 .4l-.1-.2c0-.2-.1-.4-.4-.5c-.2-.1-.4-.1-.6 .1Z" class="g0_53"/>
<path d="M763.5 405v.2l.1 .3l.1 .1l-.1-.2v.2h.1v.3v-.2v.2v-.3v.2c-.2 .4 0 .9 .4 1.1c.4 .3 .9 .2 1.2-.2c.3-.3 .3-.8 0-1.2c-.2-.3-.5-.4-.9-.4c-.3 .1-.6 .3-.8 .6v.1l-.1 .1v.2c-.1 .5 .1 1 .6 1.2l.4 .2l-.1-.1l.3 .2l.2 .1l1.3 .5h1.6c.4-.1 .6-.2 .8-.5c.2-.3 .3-.6 .2-.9l-.2-1l-.4 1.1l.7-.6l-.2 .2l.8-.3l.2-.1l.5-.4l-.6 .2h.6h-.3l.4 .1h.6l-1-.6l.2 .5l.1 .1l.4 .6v-1.1l-.2 .4l-.2 .5v.9l.1-.3l-.5 .9l.2-.2l-.8 1l-.1 .1l-.9 1.6l.2-.2l-1 1.2l.3-.3l-1.3 .8l-.1 .1l-1.2 .8l-.1 .1l-.5 .4l.3-.2l-.4 .2l.6-.1h-.4l.6 .2l.5 .8l-.1-.4v.2l.1-.7l-.1 .5l.6-1.6l.8-1.9l-.1 .2l1.2-2.1l1.2-2.1l-.1 .2l1.3-1.4V405l1-1.3l.1-.1l.5-.8v.1l.3-.6l-.5 .4h.2l-1.5-.4v.1l-.2-.6v.2v-.5v1.3v-.1l-.3 2.9l-.1 1.6V407l-.1 1.2v-.1l-.3 1V409l-.2 .8l.5-.6l-.4 .3l.4-.2l-1.1 .2h.1l-.6 .1h.4l-1-.3l-.1-.1l-1.1-.3l.6 .9v-.5c.1-.3-.1-.7-.5-.8c-.3-.1-.7 .1-.8 .4l-.2 .5c-.1 .3 0 .7 .3 .9l.9 .7h.1l.9 .6l.5 .1l.6 .1h.3l1.1-.2l.5-.2l.4-.3c.3-.2 .4-.4 .5-.6l.2-.8l.3-1v-.1l.2-1.2v-.1l.1-1.6l.2-2.8v-1l-.3 .7l.1-.1l.3-.5v-.7l-.1-.1c-.1-.6-.8-1-1.4-.8h-.1c-.3 0-.6 .2-.8 .5l-.4 .5v.1l-.5 .8v-.1l-1 1.3l.1-.1l-1.3 1.4l-.1 .2l-1.3 2.1l-1.2 2.1l-.1 .2l-.8 1.9l-.6 1.5v1.5l.1 .4c.1 .4 .4 .7 .8 .8c.3 .1 .7 .1 1.1-.1l-.6 .1h.4l.4-.1l.5-.2l.2-.3l.5-.4l-.2 .2l1.2-.9l1.3-.8l.2-.2l1-1.2l.1-.2l.8-1.5l-.1 .2l.8-1l.1-.3l.5-1v-.4l.1-.9l-.2 .5l.3-.4c.1-.4 .1-.8-.1-1.1l-.4-.6l.1 .1l-.2-.5c-.1-.4-.5-.6-1-.7h-.3l.4 .1l-.4-.2h-1c-.3 0-.5 0-.7 .2l-.5 .3l.2-.1l-.7 .3l-.3 .2l-.8 .6c-.4 .2-.5 .7-.4 1.1l.3 1c.1 .6 .7 1 1.3 .8c.5-.1 .9-.6 .8-1.2c0-.6-.6-1-1.1-1l-1.3 .1l.5 .1l-1.3-.5l.1 .1l-.3-.2h-.1l-.4-.2l.7 .8v-.2l-.1-.1l-.1-.1l-.1 1l.2-.5l.1-.3l-.1-.4l-.1-.2l-.1-.2l-.1-.1l-.1-.2c-.1-.2-.3-.4-.5-.4c-.2-.1-.4 0-.6 .1h-.1l.8 .1l-.2-.1c-.2-.2-.4-.2-.6-.1c-.2 .1-.4 .3-.4 .6Z" class="g0_53"/>
<path d="M774.8 438.4l-.3 .1l-.2 .1l.3-.1h-.1h.5h-.1l-.3-.1l.2 .1l-.5-.2l.1 .1l-1.6-.7l.6 .5l-.4-.7v.1l-.3-.5l.1 .2l-.1-.6l-.2-.3l-.3-.6v.1l-.2-.4v.1l-.1-.4c-.2-.4-.6-.6-1.1-.6h-.1c-.6 0-1 .4-1.1 1c0 .6 .3 1.1 .9 1.2l.1 .1h.4c.5 0 .8-.2 1-.6c.2-.4 .2-.8 0-1.1c-.2-.4-.6-.6-1.1-.5l.8 .2h-.1l.4 .5v-.2c-.2-.4-.6-.6-1-.7c-.5 0-.9 .3-1 .7c-.2 .4-.1 .9 .2 1.2l.4 .4l-.1-.1l1.1 1.5l-.2-.6l.1 .5v.1l.1 .5l.6-1.1l-.2 .1c-.4 .1-.6 .5-.6 .9v.3c0 .5 .3 1 .8 1.1c.5 .1 1.1-.2 1.3-.6c.2-.5 0-1.1-.4-1.4l-.1-.1l-.3-.1h-.1l.7 .8v-.1l-.2-.4V438l-.1-.1l.2 .7v-.4v.1l.3-2.1v.1l.2-.6v-.1l.1-.8l.1-.6l-.2 .6l.2-.3l-.4 .3l.5-.3l-1 .1l.4 .1l.4 .1h.6l.7-.1H775h.8h-.1l.8 .1l-.3-.1l.8 .3l-.4-.2l.7 .6l-.1-.1l.5 .7l-.1-.2l.3 .7l-.1-.3l.1 .8v-.1l.1 .8l.1-.5l-.4 .8c-.2 .5 .1 1 .5 1.2c.5 .2 1.1 0 1.3-.4l.3-.8l.1-.3l.1-.8v-.8l-.1-.4l-.2-.7l-.2-.3l-.5-.7l-.1-.2l-.7-.7l-.4-.2l-.8-.3l-.3-.1l-.8-.1h-1.6h.1h-.6l.4 .1l-.4-.2c-.4-.1-.8-.1-1.1 .1l-.5 .3l-.3 .3l-.3 .3l-.2 .6l-.1 .5l-.1 .8v-.1l-.1 .7l-.4 2.2v.6c0 .4 .2 .8 .5 1h.1l.1 .1v.1c.3 .1 .6 .2 .9 .1h.1h-.5h.1l-.2-.1l.1 .1c.3 .2 .8 .2 1.1 0c.4-.2 .6-.6 .6-1v-.3l-.6 1l.1-.1c.5-.2 .7-.6 .6-1.1l-.1-.5v.1v-.6l-.2-.5l-1.2-1.5l-.1-.2l-.4-.3c-.2-.3-.6-.4-1-.3c-.3 .1-.6 .3-.7 .6l-.1 .1v.1c-.1 .3-.1 .7 .2 1v.1c.2 .2 .5 .4 .8 .4c.5 0 .9-.2 1.1-.5c.2-.4 .2-.8 0-1.2c-.2-.3-.5-.6-1-.6h-.1l.3 .1l-.2-.1c-.4-.1-.8 .1-1.1 .4c-.3 .3-.4 .8-.2 1.2c.2 .4 .6 .6 1 .6h.1l-1-.7l.1 .3l.1 .1l.2 .4v.1l.4 .6l-.1-.3l.1 .6l.1 .3l.3 .5l.4 .6c.1 .3 .3 .4 .6 .5l1.6 .6l.2 .1l.4 .1h.8l-.5-.1l.1 .1l-.3-.2c.3 .2 .6 .3 .9 .2l.3-.1c.4-.1 .6-.5 .7-.8c.1-.4 0-.8-.3-1.1c-.3-.2-.7-.3-1.1-.2Z" class="g0_53"/>
<path d="M806.9 445.3l.2 .1c.3 .3 .8 .4 1.1 .2c.4-.2 .6-.6 .5-1.1v-.3c-.1-.3-.3-.5-.5-.7l-.2-.1c-.4-.3-1-.3-1.4 .1c-.4 .4-.4 .9-.2 1.4c.3 .4 .9 .6 1.4 .4c.4-.2 .7-.5 .7-.9c0-.5-.2-.9-.6-1.1l-.2-.1l.1 .1l-.2-.1h.1l-.3-.3l.1 .2l-.6-.8h-.1l-1.2-1.2l-.1-.1l-1.1-.9V440l-.9-.6h.1l-1-.8l.1 .1l-.6-.6l.3 .4l-.4-1l.1 .4v-.8l-.2 .6l.5-.6l-.4 .3l.9-.4l.5-.2l.1-.1l.3-.1l.2-.2l.2-.3c.3-.3 .4-.7 .2-1.1v-.1c-.2-.5-.8-.7-1.3-.6c-.5 .1-.8 .6-.8 1.2c.1 .5 .5 .9 1.1 .9h.7l.4-.1h-.2h.7c.6 0 1.1-.4 1.1-1c0-.5-.4-1-1-1.1c-.5 0-1 .4-1.1 .9l-.1 .3v.4l.1 .5l.1-.7l-.3 .6v-.1l-.3 .5l-.1 .1l-.3 .6l.3-.3l-.5 .3c-.4 .3-.6 .9-.4 1.3l.3 .7l.5-1.4l-.2 .1l.4-.1h-.1l.7 .2H804l.1 .1l.3 .8v.1l-.5 .6l.1-.1l-.2 .2l.5-.2h-.1l1.8-.6l.4-.2l.4-.4c.4-.4 .4-1 0-1.4c-.3-.4-1-.5-1.4-.1l-.4 .3l.4-.2l-1.8 .6h-.1l-.5 .1c-.2 .1-.4 .3-.5 .5h-.1c-.1 .3-.2 .6-.1 .9V439c0 .3 .1 .5 .3 .6l.1 .1l-.1-.1c.2 .2 .5 .4 .8 .4h.1l.5-.1l.3-.1c.5-.3 .7-.9 .5-1.4l-.3-.7l-.4 1.4l.5-.4l.3-.4l.4-.6l-.1 .1l.3-.5h.1l.3-.6c.2-.2 .2-.4 .2-.7l-.1-.4v.2l.1-.2l-.1 .2l.1-.4c0-.3-.1-.6-.3-.8c-.2-.3-.5-.4-.8-.4h-.8l-.4 .1h.1h-.5c-.4 0-.8 .2-.9 .5c-.2 .3-.2 .7 0 1.1v.1l.1-1.2l-.2 .2l.2-.2l-.3 .2l.2-.1l-.5 .2h.1l-.9 .4l-.4 .3l-.5 .5l-.3 .6l-.1 .8l.1 .4l.2 1l.3 .5l.6 .6l.1 .1l.9 .8l.1 .1l.9 .6l-.1-.1l1.1 1H804l1.2 1.2v-.1l.6 .8l.2 .1l.4 .3l.4 .2h.3l-.5-.2l.2 .2c.4 .2 .8 .2 1.2 0c.3-.2 .6-.6 .5-1c0-.4-.3-.8-.7-.9c-.6-.2-1.2 0-1.4 .5c-.3 .6-.1 1.2 .4 1.5l.3 .1l-.2-.2l.2 .3c.3 .2 .8 .3 1.1 .1c.4-.2 .6-.6 .5-1c0-.5-.4-.8-.8-.8l-.2-.1c-.4 0-.8 .2-.9 .5c-.2 .4-.1 .8 .1 1.1Z" class="g0_53"/>
<path d="M769.8 475l-.3 .1c-.2 .1-.4 .3-.5 .6l-.1 .1c-.1 .3-.1 .7 .1 .9v.2l-.1-.4v.2l.5-1l.1-.1l-.1 .1l-.4 .3l-.5 .8v.1l-1.2 2.3l-.2 .5v2.6v-.1l-.2 3.2v.1l.3 4l.2 4.6l.1 4.8l.1 5.2v5.1l.2 4.7l.1 3.5l.1 2.9v.2l.4 2l.4 1.8l.2 .3l.4 .8l.4 .4l.6 .4c.3 .2 .7 .3 1 .2l.8-.2l.4-.3l1-.8l.1-.2l1.2-1.5l-.1 .1l1.4-1.5l.1-.2l1.3-2v.1l1.4-2l1.3-2l.2-.2l1-2.3l.9-2l.8-1.6v-.1l.4-1.1l-.1 .2l.3-.6l.1-.4v-.1c.1-.6-.2-1.2-.8-1.4c-.6-.1-1.2 .1-1.5 .7c-.2 .5 0 1.2 .5 1.5l.1 .1l-.4-1.7l-.4 .8l-.1 .1l-.5 1.3V509l-1.3 2.2l.1-.2l-2 2.3l-1.7 2.2l-1.6 2l-1.5 1.7l-1.2 1.5l-.1 .1l-.9 1.2l.1-.2l-.8 1l.3-.3l-.6 .3l1-.1l-.6-.1l.6 .2l-1-.6l-1.4-.8l.4 .3l-1.3-1.5l-1.1-1.2l.1 .1l-1-1.4l.1 .2l-.8-1.5l-.1-.2l-1.1-1.5l-.1-.1l-1.5-1.6l.2 .2l-2-3.2c-.3-.5-1.1-.7-1.7-.3c-.6 .3-.8 1.1-.4 1.7l1.8 3.1l.1 .1l1.3 1.8l-.1-.1l1 1.6l-.1-.2l.7 1.6l.1 .2l1 1.4l.2 .2l1.1 1.2l1.3 1.5l.4 .3l1.4 .8l1 .5c.2 .1 .4 .2 .7 .2h.5c.3 0 .6-.1 .9-.3l.5-.4l.3-.2l.8-1l.1-.1l.9-1.2h-.1l1.2-1.5l1.4-1.7l1.6-2.1l.1-.1l1.6-2.1h-.1l2-2.2l.1-.2l1.4-2.2v-.2l.6-1.3v.1l.4-.8c.1-.3 .2-.6 0-1c-.1-.3-.3-.6-.7-.7h-.2c-.4-.2-.8-.1-1.1 .2c-.4 .2-.5 .7-.5 1.1l.1 .1v-.6l-.2 .6v.1L781 509l.1-.2l-.7 1.6l-1 2l-1 2.3v-.1l-1.4 1.9h.1l-1.4 2h-.1l-1.3 2l.1-.2l-1.4 1.5l-.1 .1l-1.1 1.5l.2-.2l-1 .9l.5-.3l-.8 .2l1 .2l-.6-.4l.4 .4l-.5-.8l.2 .3l-.4-1.7l-.5-2v.2l-.2-2.9v.1l-.1-3.6l-.2-4.7v.1V504l-.1-5.1l-.1-4.9l-.2-4.6v-.1l-.3-4v.2l.2-3.1v-2.7l-.1 .5l1.2-2.3l.4-.8l.1-.1c.2-.4 .1-1.1-.4-1.3c-.5-.3-1.1-.2-1.4 .3c-.3 .5-.2 1.1 .3 1.4c.3 .2 .7 .3 1 .1c.4-.1 .6-.4 .7-.8v-.2c0-.3-.1-.6-.2-.8l-.2-.2l-.1-.1l-.1-.1l.3 .6v-.3c0-.2-.2-.4-.4-.5c-.2-.1-.4-.2-.6-.1Z" class="g0_53"/>
<path d="M838.8 544.5l.2 .3c.1 .3 .5 .5 .9 .4c.4-.1 .7-.4 .7-.8c0-.4-.3-.8-.7-.9h-.2l-.1-.1h-.1l-.6 .1l-.3 .2l.7-.1l-.7-.2h-.1l-.3-.1l.4 .2l-.2-.2l.4 .9v-1.4l-.1 .5l.5-1l.6-1v.1l.6-1.1l-.5 .5l1.1-.4l.3-.3l.6-.5h.1l.4-.4l-.5 .2l.6-.1l.3-.2l.4-.2l-.5 .1h.5H843l.4 .1l-.6-.4l.2 .3l.2 .1l.4 .3l-.3-.2l.3 .3l.1 .1l.4 .4l-.2-.3l.2 .7v-.6l-.2 .9l.1-.2l-.4 1l.1-.2l-.9 1.3l-1.3 1.8l.1-.1l-1.6 2v-.1l-2.1 2.3h.1l-2.2 2.2l.1-.1l-2.6 1.9l-2.5 1.7l-2 1.4l-1.8 1.2l-.2 .1l-1.1 1l.1-.1l-1.1 .7l-.9 .6l-.1 .1l-.6 .5v-.1l-.5 .4l-.1 .1l-.4 .3c-.2 .2-.3 .5-.4 .8l-.1 .6l-.1 .7l-.1 .2v1.4l.1 1.6v-.1v1.7v-.1v1.9v-.3l-.5 1.9l.1-.2l-.9 1.6l.1-.1l-1.1 1.6l.1-.1l-1.4 1.4l.1-.1l-1.2 1.1l-.1 .1l-1 1.1l.5-.3l-1.1 .3h.2l-1.1 .1h.4l-1.1-.2c-.6-.1-1.2 .3-1.3 .8c-.1 .6 .2 1.2 .8 1.3l1 .3l.3 .1h1.4l1.2-.3c.2 0 .4-.1 .6-.3l1.1-1.1l-.1 .1l1.2-1.1l.2-.1l1.3-1.5l.2-.1l1-1.6l.1-.2l.9-1.7l.1-.2l.5-1.9l.1-.3v-5.3v.1v-1.3l-.1 .3l.2-.7l.1-.6l-.4 .7l.4-.3l-.1 .1l.5-.4v-.1l.6-.4l.9-.6l1-.7l.2-.1l1.1-1l-.1 .1l1.8-1.3h.1l1.9-1.4l2.6-1.7v-.1l2.6-1.9l.1-.1l2.2-2.3h.1l2-2.4h.1l1.5-2h.1l1.3-1.9l.8-1.3l.2-.3l.3-1.1l.1-.2l.1-.9l-.1-.5l-.3-.7l-.2-.4l-.4-.4l-.3-.4l-.3-.2l-.4-.2l.2 .1l-.2-.2c-.2-.1-.4-.2-.6-.2l-.4-.1h-.6l-.6 .1l-.4 .3l.3-.1l-.5 .1l-.5 .2l-.5 .4l-.6 .6l.3-.2l-1.1 .3c-.2 .1-.4 .3-.5 .5l-.7 1l-.1 .1l-.6 1l-.5 1.1l-.1 .5v1.4c0 .3 .1 .6 .4 .8l.2 .2l.4 .2l.3 .1l.8 .2c.3 .1 .6 .1 .8-.1l.4-.2c.3-.2 .5-.6 .5-1v-.1l-.7 1l.2-.1c.4-.1 .6-.4 .7-.7c0-.4-.2-.7-.5-.9l-.3-.2c-.3-.1-.6 0-.9 .2c-.2 .2-.3 .6-.1 .9Z" class="g0_53"/>
<path d="M796.4 561.6c.4 .1 .7 0 1-.2c.3-.2 .5-.6 .5-1v-.5v.1v-2.1l-.1-1l-.1-1.5v.2l.1-1.9v-.1l-.1-2.3l-.1-2.6v.1V546l-.1-2.2v.2l.3-1.7l-.1 .2l.4-1.3l-.1 .2l.4-.7l-.1 .2l.4-.5l-.3 .3l.6-.3l-.2 .1l.7-.2h-.3l.6 .1h.6h-.1l1.3 .4v-.1l1.1 .4l-.2-.1l1.4 .7v-.1l1.5 .8h-.1l1.1 .5v.1l1.5 .7l-.6-.7l.1 .2l-.1-.4v.9l.1 .8v-.1l.2 1.8v.1l.2 1.7v-.5l-.4 1.6V549l-.6 1.9l.3-.5l-.8 .8l-.1 .1l-.9 1.1l-.1 .3l-.5 1.1l.4-.6l-.9 .8l.3-.2l-1.7 .7l-.2 .1l-1.4 .8l.5-.2l-2.3 .3h.1l-2.1 .2h.2h-2.2h.1l-2.3-.3h.2l-2.5-.5h-.1l-2.1-.4h.2l-1.7-.4h.1l-1.7-.7l.4 .2l-1.3-1l.1 .1l-1.5-1.5l.1 .2l-1.4-2l.1 .1l-1.3-2.4l.1 .2l-.8-2.5l-.8-2.4v.2l-.4-2v.1l-.2-1.3v-.2l-.3-.9h.1l-.2-.7v.8l.1-.3c0-.3 0-.6 0-.8l-.2-.5l-.1-.2v-.1c-.2-.4-.6-.7-1.1-.7h-.3c-.5-.1-.9 .1-1.2 .5c-.3 .4-.3 1-.1 1.4l.2 .4l.7 1.2v.1l2 3l-.2-.3l.9 2.3v-.1l.6 2.4v.1l1.2 3.3v-.2l.6 3l-.1-.2v3v-.1l-.1 2.4l.2-.6l-1.2 1.9v.2l-.8 1.9v-.1l-.8 1.7l.1-.2l-1.2 1.6l-1.1 1.4l.1-.1l-1.2 1.3l.7-.4l-1.5 .4l-1.4 .4h.6l-1.6-.3l.3 .1l-1.9-.7h.1l-1.9-.9l.1 .1l-2.1-1.1h.1l-1.8-1.2l.1 .1l-1.8-1.3l-1.5-1l.1 .1l-1.2-1l.2 .2l-1.1-1.2v.1l-.8-.9l.3 .3l-.5-.9l-.5-.9l-.3-.4l-.5-.4l-.6-.5c-.2-.2-.4-.2-.6-.3l-.6-.1h-1.1l-.6 .1l-.8 .3l-.3 .2l-1 .6l-.1 .1l-1 .9l-.2 .2l-.7 1.1l-.1 .2l-.7 1.2v.2l-.5 1.3v.4l-.1 1.5v.2l.2 1.5l.1 .4l.8 1.6l.1 .3l1.1 1.4l-.1-.1l.8 1.3l.4 .4l1.4 .9l.3 .1l1.6 .5h.2l1.6 .3c.2 0 .4 0 .6 0l1.8-.6l.3-.3l1.1-.9c.2-.1 .3-.3 .4-.5l.5-2.2c.2-.6-.1-1.1-.7-1.3c-.5-.1-1.1 .2-1.3 .7l-.6 2.2l.5-.6l-1.3 .7l.4-.2l-1.8 .5h.6l-1.7-.3h.2l-1.6-.5l.3 .1l-1.4-.8l.5 .4l-.8-1.3l-.1-.1l-1-1.4l.1 .2l-.7-1.6l.1 .4l-.1-1.5v.1v-1.5l-.1 .4l.5-1.3l-.1 .2l.6-1.1l-.1 .1l.8-1.1l-.2 .3l1-.9l-.2 .1l1-.6l-.3 .1l.9-.3l-.5 .1h.8h-.3l.6 .1l-.6-.3l.6 .5l.5 .4l-.3-.4l.4 .8l.4 .9l.3 .3l.7 .9l1.1 1.1l.1 .1l1.2 1l.1 .1l1.5 1v-.1l1.7 1.3h.1l1.8 1.2l.1 .1l2 1.1h.1l2 .9l1.9 .7l.3 .1l1.6 .3c.2 0 .4 0 .6-.1l1.4-.4l1.4-.4c.3-.1 .5-.2 .7-.4l1.1-1.3l.1-.1l1.1-1.5l1.2-1.6l.1-.2l.8-1.8h.1l.7-1.9l-.1 .1l1.2-1.9c.1-.2 .1-.4 .1-.6l.1-2.4v-3.3l-.6-3v-.2l-1.3-3.3l.1 .1l-.6-2.3l-.1-.2l-.8-2.3l-.2-.2l-1.9-3v.1l-.6-1.2l.1 .3l-.1-.4c-.1-.6-.7-1.1-1.3-1c-.7 0-1.2 .5-1.3 1.2c-.1 .6 .3 1.2 1 1.4l.2 .1l-.8-.8v.1l-.1-.2l.2 .5l-.1-.8v.3c-.1 .2-.1 .5 0 .7l.1 .7l.3 .9v-.2l.1 1.3l.1 .2l.4 1.9v.2l.8 2.4l.8 2.5l.1 .2l1.3 2.4l.1 .1l1.4 2.1l.2 .2l1.5 1.4l.1 .1l1.2 1l.4 .2l1.7 .7l.2 .1l1.6 .5h.2l2.1 .3h-.1l2.5 .6h.1l2.3 .3h2.5l2-.2h.1l2.3-.3l.5-.2l1.4-.8l-.2 .1l1.7-.7l.3-.2l1-.8c.1-.1 .3-.3 .4-.5l.4-1.1l-.2 .3l.8-1.1l-.1 .1l.9-.9l.2-.5l.6-1.9l.4-1.6v-.5l-.3-1.7l.1 .1l-.2-1.8l-.1-.1l-.1-.8v.2v-.7l-.1-.4l-.1-.2c-.1-.3-.3-.5-.5-.6l-1.5-.7v.1l-1-.6h-.1l-1.5-.7v-.1l-1.4-.6h-.1l-1.1-.4l-1.4-.3h-.1l-.3-.1H800l-.6-.1h-.3l-.8 .2h-.2l-.6 .3l-.5 .3l-.4 .5l-.2 .2l-.4 .7l-.1 .2l-.4 1.3v.2l-.2 1.7v.2l.1 2.2v2.7l.1 2.5v.1l.1 2.3v-.1l-.1 1.9v.1l.2 1.5l.1 1V558l-.1 .7v-.1v1.3h-.1v.5c0 .5 .2 .8 .6 1.1q.1 0 .2 .1Z" class="g0_53"/>
<path d="M752.6 535.8l-1.5 .4v.1l-1.8 .6l-1.8 .7l-.4 .3L746 539l.3-.2l-1.5 .9l.1-.1l-1.5 .6h.1l-1.3 .4h.3l-2-.1l-1.8-.1h-1.4c-.5 0-.9 .3-.9 .8c0 .4 .4 .8 .8 .8l1.4 .1h-.1l1.8 .3l2.1 .2h.4l1.3-.4h.1l1.5-.6h.1l1.6-.8l.2-.1l1.2-1l-.4 .3l1.8-.6l1.7-.6l.4-.2l1.3-.9c.4-.3 .5-.9 .3-1.3c-.2-.5-.8-.7-1.3-.6Z" class="g0_53"/>
<path d="M730.5 554.1l-.5 1.1v.1l-.5 1.4v.2l-.3 2v.1l-.1 1.9v-.1l-.5 2.7h.1L728 566l.2-.3l-1.4 2l-1.7 2.3l.2-.2l-1.8 1.6l.1-.1l-2 1.4l.2-.1l-2.2 1h.2l-2.2 .6h.1l-1.9 .4l-1.8 .3h.2l-1.1 .1h.4l-1-.2l.5 .3l-.6-.6l.1 .1l-.6-.7l.1 .2l-.3-.7v.3v-.3v.3v-.3v.3l.1-.4v-.2l.2-.9v.1l.2-.9l-.8 .9l.5-.2l.7-.2l-.8-.1l1 .5h-.1l.9 .5l.9 .5l-.3-.2l.4 .5l-.3-.7l.3 1.6v-.2V576v-.3l-.4 2.1v.1l-.4 2.5v-.2l-.8 2.4v-.1l-1.1 2.4h.1l-1.3 2.5v.1l-1.2 2.8l-1.3 2.7l.1-.1l-1.4 2.6l.2-.2l-1.5 1.7l.1-.1l-1.5 1.5l.4-.2l-1.8 .7h.1l-1.3 .6l.3-.1l-1.1 .1l.5 .1L700 599c-.4-.2-.9 0-1.1 .4c-.2 .4 0 .9 .3 1.1l1.3 .7l.3 .1l1.1 .2l.4-.1l1.3-.3h.1l1.7-.7l.5-.2l1.5-1.5l.1-.1l1.5-1.7l.2-.2l1.3-2.6l.1-.1l1.2-2.7l1.2-2.8l1.2-2.5l.1-.1l1-2.4v-.1l.9-2.4v-.2l.4-2.5l.5-2.1V576l-.1-1.8V574l-.3-1.5c0-.3-.2-.5-.3-.7l-.5-.4l-.2-.2l-.8-.5l-1-.5l-.1-.1l-1-.5c-.3-.1-.6-.1-.9 0l-.7 .2l-.6 .2c-.4 .1-.7 .5-.8 .9l-.2 .9v.1l-.1 .9l-.1 .3v.3l.1 .3v.3l.1 .3l.1 .1l.3 .7l.1 .2l.6 .8l.1 .1l.6 .6l.5 .3l.9 .4h1.7l1.8-.3v-.1l1.9-.3l.2-.1l2.2-.6l.2-.1l2.1-1.1l.3-.2l1.8-1.5l.1-.1l1.7-1.6l.2-.2l1.5-2.4l1.4-2.1l.1-.3l.6-2.6l.5-2.7v-.1l.1-2v.1l.2-2.1v.1l.2-1.5l.2-1.2c.1-.4-.1-.7-.5-.8c-.3 0-.6 .1-.8 .4Z" class="g0_53"/>
<path d="M718.6 535.1l-.2 .5l-.1 .1l-.2 1.1l.1-.3l-.7 1.3l.1-.2l-1 1.3l-1.2 1.5l.1-.2l-1.5 1.4h.1l-1.7 1.4h.1l-1.9 1.5l-2.2 1.8l-2.2 1.8l.1-.1l-2.5 1.5c-.4 .3-.5 .9-.3 1.3c.3 .4 .9 .6 1.3 .3l2.5-1.4l2.4-1.6l2.4-1.6l.1-.1L714 545l.1-.1l1.6-1.4h.1l1.5-1.4l.1-.1l1.1-1.4v-.1l1.1-1.3l.2-.2l.6-1.4c.1-.2 .1-.4 .1-.6l-.1-1.1l-.1-.3l-.2-.5c-.1-.3-.4-.5-.7-.5c-.4 0-.7 .2-.8 .5Z" class="g0_53"/>
<path d="M695.2 576.6l-1.4 1.9l.1-.1l-1.3 1.2l.1-.1l-1 .8l-.9 .7l.3-.2l-.4 .2l-.4 .3l-.3 .3c-.2 .2-.3 .4-.4 .6v.1c-.2 .6 0 1.1 .5 1.5c.4 .3 1 .3 1.4 .1c.5-.3 .8-.8 .7-1.4c-.1-.8-.7-1.3-1.5-1.2c-.6 .1-1.2 .6-1.2 1.2c0 .7 .4 1.3 1 1.4c.7 .2 1.3-.2 1.6-.8l-.1 .1l.1-.1l.1-.3v-.3c.1-.4-.1-.8-.3-1.1l-.5-.4h-.1c-.2-.1-.4-.2-.7-.1l-.6 .1l-.5 .3l-.3 .2l-2.2 2.3v.1l-1.3 1.5l-1.4 1.7l-1.2 1.4l.5-.4l-1.7 .8l-.2 .1l-1.5 1l.5-.2l-1.8 .2h.3l-2-.1h.1l-1.7-.3l.5 .1l-1.8-.9h.1l-1.4-.9l.4 .4l-.9-1.1v-.1l-.9-1.1l.1 .2l-.9-1.5v.1l-.9-1.5l-.6-1.2v.1l-.4-.9l-.1-.3l-.6-.7l-.1-.1l-.4-.5c-.2-.2-.3-.3-.5-.4l-1.1-.4l-.4-.1l-1.1-.1h-.5l-1.5 .3h.1l-1.9 .4l-.5 .3l-1.7 1.2h.1l-2.2 1.3l-.3 .2l-1.9 1.8l-.2 .3l-1.4 2.3l-1.1 2.1l-.2 .3l-.6 2.2v.3l-.1 2l.1 .3l.2 1.6c.1 .2 .2 .4 .3 .6l1 1.3l.3 .3l1.1 .8c.2 .2 .6 .3 .9 .3l1.6-.2h.2l1.7-.3l.4-.2l2.3-1.2l.1-.1l2.3-1.5l.3-.3l2.1-2.5v-.1l2.1-3.1l.1-.1l1.7-3.3c.2-.5 0-1-.4-1.2c-.5-.3-1-.1-1.2 .3l-1.9 3.3l.1-.2l-2.4 2.8l.1-.1l-2.3 2.4l.2-.2l-2.3 1.5l.1-.1l-2.3 1.2l.4-.2l-1.8 .4h.2l-1.6 .1l.9 .3l-1-.8l.3 .3l-1-1.3l.3 .6l-.3-1.6l.1 .3v-2l-.1 .4l.7-2.2l-.2 .3l1.1-2l1.4-2.3l-.2 .3l1.8-1.8l-.2 .2l2.2-1.4h.1L662 582l-.6 .3l1.9-.4l1.5-.4h-.6l1.2 .2l-.4-.1l1.1 .4l-.5-.3l.4 .4l-.1-.1l.5 .7l-.1-.2l.4 .9v.1l.7 1.2l.9 1.6l.9 1.4l.1 .2l.9 1l.8 1.2l.5 .3l1.4 .9l1.8 1l.4 .2l1.7 .2l.2 .1l2.1 .1h.3l1.7-.3l.6-.2l1.5-1l-.2 .2l1.8-.8c.2-.1 .4-.3 .5-.4l1.2-1.5l1.4-1.7l1.3-1.6l-.1 .1l2.1-2.2l-.4 .3l.5-.3l-.7 .2l-.5-.2l.1 .1l-.3-.2l-.5-.9l.1 .3l.1 .3v.1v-.1c.2 .5 .6 .8 1.1 .8c.8 .1 1.4-.4 1.5-1.1c.1-.8-.4-1.4-1.2-1.5c-.7-.1-1.4 .4-1.5 1.2c0 .7 .4 1.3 1 1.5c.7 .2 1.4-.2 1.6-.8l.1-.1l-.3 .4l.3-.3l-.4 .3l.4-.2l.3-.2l.9-.7v-.1l.9-.8l.2-.2l1.1-1.4l.1-.3l.9-2.1c.2-.5 .1-.9-.3-1.1c-.4-.2-.9-.1-1.1 .2Z" class="g0_53"/>
<path d="M689.2 546.3l-1.3 .6l.2-.1l-1.8 .6c-.3 0-.5 .2-.7 .5l-1.7 2.2l.1-.1l-1.6 1.7l-.2 .2l-1.3 2.2V554l-1.4 2.4l.3-.3l-1.7 1.3l.2-.1l-2 1.1l.2-.1l-2 .5l-1.3 .4h-.1l-.8 .3c-.6 .3-.9 .9-.7 1.5c.2 .6 .8 .9 1.4 .7l.9-.2h-.2l1.3-.2h.1l2.1-.4l.3-.1l2.1-1.1l.2-.2l1.7-1.3l.3-.4l1.4-2.3h.1l1.3-2.2l-.2 .3l1.6-1.7l.1-.1l1.7-2.2l-.5 .4l1.7-.8l.4-.3l.9-.9c.3-.4 .4-.9 .1-1.3c-.3-.4-.8-.5-1.2-.4Z" class="g0_53"/>
<path d="M684.9 612.5l-1.7 2.3l.1-.2l-1.4 1.2h.1l-1 .8l.8-.3h-1.3l-.7 .1l.9 .2l-.9-.7l.2 .3l-.7-.9l.2 .3l-.5-1.7l-.8-2.5l.1 .2l-.2-2.7c-.1-.5-.5-.9-1.1-.9c-.5 .1-.9 .5-.9 1l.2 2.7v.2l.5 2.5v.1l.4 1.8l.2 .4l.6 .9l.2 .2l.9 .8c.2 .2 .5 .3 .9 .3h.7h-.1h1.2c.3 0 .7-.1 .9-.3l.9-.9h.1l1.3-1.4l.2-.3l1.3-2.5c.2-.4 .1-1-.3-1.2c-.4-.3-1-.2-1.3 .2Z" class="g0_53"/>
<path d="M655.8 562.2l-1.3 .4l-.2 .1l-1.3 .7l-.2 .2l-1.1 1.1l-.2 .2l-.9 1.4l-.1 .1l-.9 1.7V568l-1.1 1.6l.1-.1l-1.6 1.7l.4-.3l-2 1.1l.1-.1l-2.3 .8h-.1l-2.3 1l.3-.1l-2.6 .4l-.4 .1l-1.8 .9l-.1 .1l-1.5 1.1c-.5 .3-.6 1-.3 1.5c.3 .5 1 .6 1.5 .3l1.6-1l-.2 .1l1.8-.7h-.3l2.6-.3h.3l2.4-.9l2.3-.8l.2-.1l2-1l.4-.3l1.5-1.8l.1-.1l1.2-1.6v-.1l1-1.7l-.1 .1l1-1.4l-.2 .1l1.1-1.1l-.2 .2l1.2-.8l.1-.1l1-.8c.4-.3 .5-.8 .2-1.2c-.2-.4-.7-.6-1.1-.5Z" class="g0_53"/>
<path d="M677.6 580.4l.2 1.3c0 .2 .1 .4 .3 .4c.1 .1 .3 .1 .5 0h.1c.2-.2 .3-.5 .3-.8l-.1-.1V581c-.1-.4-.5-.7-1-.7c-.4 0-.8 .2-.9 .7c-.1 .4 .1 .8 .4 1.1l.2 .1h.1l.4 .2l-.3-.2l2.1 2.1h-.1l.8 1.1l-.2-.4l.3 1.2l.1 .3l.9 1.4l-.1-.3l.1 1c.1 .6 .6 .9 1.1 .9c.5-.1 .9-.6 .9-1.1l-.2-1.1l-.1-.4l-.8-1.5l.1 .3l-.3-1.2l-.2-.4l-.8-1.1h-.1l-2-2.2l-.3-.2l-.5-.2l-.2-.1c-.4-.1-.8 0-1.1 .3c-.3 .3-.3 .8-.1 1.1c.2 .4 .7 .6 1.1 .5l.1-.1l-.1 .1l.1-.1H678c.2 .1 .5 .1 .6 0c.2-.2 .3-.4 .2-.6l-.4-1.2c0-.2-.2-.4-.4-.3c-.2 0-.4 .2-.4 .4Z" class="g0_53"/>
</svg>