<svg viewBox="0 0 1466 825" version="1.1" xmlns="http://www.w3.org/2000/svg">
<defs>
<clipPath id="c0_42"><path d="M-.2 825.3V-.2H1467V825.3Z"/></clipPath>
<clipPath id="c1_42"><path d="M1343.9 529.1V456.4H1452v72.7Z"/></clipPath>
<clipPath id="c2_42"><path d="M1346.3 621.3V549.7h102.9v71.6Z"/></clipPath>
<clipPath id="c3_42"><path d="M1346.4 716.6V641.9h103v74.7Z"/></clipPath>
<clipPath id="c4_42"><path d="M1353 825V744.6h96.2V825Z"/></clipPath>
<clipPath id="c5_42"><path d="M6.1 825V467.7H653.9V825Z"/></clipPath>
<style>
.g0_42{fill:#F00;}
.g1_42{fill:none;stroke:#000;stroke-width:1.466;stroke-linejoin:round;}
</style>
</defs>
<image clip-path="url(#c0_42)" preserveAspectRatio="none" x="0" y="-7" width="1467" height="840" href="img/1.jpg"/>
<path fill-rule="evenodd" d="M256.6 420.5c.8 0 1.5 .3 2.1 .9c.5 .6 .8 1.3 .8 2.1c0 .8-.3 1.5-.9 2.1c-.6 .6-1.3 .9-2.1 .9c-.8 0-1.5-.3-2-.9c-.6-.6-.9-1.3-.9-2.1c0-.8 .3-1.5 .9-2.1c.6-.6 1.3-.9 2.1-.9Zm.3-22.1c2 0 3.6 .5 4.9 1.6c1.4 1.1 2 2.5 2 4.3c0 1-.3 1.8-.8 2.6c-.7 .8-1.5 1.2-2.5 1.2c-.8 0-1.5-.2-2-.7c-.6-.6-.8-1.2-.8-1.9c0-1.1 .4-1.9 1.3-2.4c.9-.6 1.3-1 1.3-1.4c0-.5-.2-.9-.7-1.3c-.6-.3-1.2-.5-2-.5c-1.1 0-1.9 .3-2.6 .9c-.7 .6-1 1.3-1 2.1c0 .8 .3 1.8 1 3c1 1.9 1.7 3.1 1.9 3.6c.7 1.7 1 3.5 1 5.4c0 1.1-.1 2.3-.3 3.6l-1.4-.1c0-.2 0-.5 0-.6l.1-1.3c0-.9-.6-1.8-1.7-2.9c-2-1.8-3.1-2.8-3.3-3c-1.2-1.4-1.8-3-1.8-4.8c0-2.1 .7-3.9 2.1-5.3c1.4-1.4 3.2-2.1 5.3-2.1Z" class="g0_42"/>
<path d="M256.6 420.5c.8 0 1.5 .3 2.1 .9c.5 .6 .8 1.3 .8 2.1c0 .8-.3 1.5-.9 2.1c-.6 .6-1.3 .9-2.1 .9c-.8 0-1.5-.3-2-.9c-.6-.6-.9-1.3-.9-2.1c0-.8 .3-1.5 .9-2.1c.6-.6 1.3-.9 2.1-.9Zm.3-22.1c2 0 3.6 .5 4.9 1.6c1.4 1.1 2 2.5 2 4.3c0 1-.3 1.8-.8 2.6c-.7 .8-1.5 1.2-2.5 1.2c-.8 0-1.5-.2-2-.7c-.6-.6-.8-1.2-.8-1.9c0-1.1 .4-1.9 1.3-2.4c.9-.6 1.3-1 1.3-1.4c0-.5-.2-.9-.7-1.3c-.6-.3-1.2-.5-2-.5c-1.1 0-1.9 .3-2.6 .9c-.7 .6-1 1.3-1 2.1c0 .8 .3 1.8 1 3c1 1.9 1.7 3.1 1.9 3.6c.7 1.7 1 3.5 1 5.4c0 1.1-.1 2.3-.3 3.6l-1.4-.1c0-.2 0-.5 0-.6l.1-1.3c0-.9-.6-1.8-1.7-2.9c-2-1.8-3.1-2.8-3.3-3c-1.2-1.4-1.8-3-1.8-4.8c0-2.1 .7-3.9 2.1-5.3c1.4-1.4 3.2-2.1 5.3-2.1Z" class="g1_42"/>
<image clip-path="url(#c1_42)" preserveAspectRatio="none" x="1344" y="457" width="108" height="72" href="img/2.jpg"/>
<image clip-path="url(#c2_42)" preserveAspectRatio="none" x="1347" y="550" width="102" height="71" href="img/3.jpg"/>
<image clip-path="url(#c3_42)" preserveAspectRatio="none" x="1347" y="642" width="102" height="74" href="img/4.jpg"/>
<image clip-path="url(#c4_42)" preserveAspectRatio="none" x="1353" y="745" width="96" height="80" href="img/5.jpg"/>
<image clip-path="url(#c5_42)" preserveAspectRatio="none" x="6" y="468" width="648" height="357" href="img/6.jpg"/>
<path d="M1355.9 469.3l2 .1c.2 0 .3-.1 .4-.3c.1-.1 .2-.3 .1-.5v-.2l-.3-.8l-.1-.7v.1l-.2-1.2h.1l-.1-.9v-.8l.1-.9v-.1l-.2-1v.3l.1-.6l-.1 .3l.3-.3v-.1l.2-.3c.2-.3 .1-.8-.2-1c-.4-.2-.8-.1-1.1 .2c-.2 .3-.2 .7 .1 1l.3 .3c.2 .1 .5 .2 .8 .1c.2-.1 .4-.3 .5-.6c.1-.4-.2-.8-.6-.9h-.5l-.1 .1l.6-.1h-.1l.3 .2v-.1c-.4-.3-1-.2-1.3 .2l-.2 .2v.1l-.6 .9l.1-.1l-2.6 3l-1.6 2.2l-1.9 2.4l-.1 .1l-2.1 3.1l.1-.1l-2.6 3h-.1l-2.5 3.4l-2.7 3.2v.1l-2.5 3.8v.1l-2.1 3.6h.1l-2.1 3.3l-.1 .1l-1.5 3.1l.1-.1l-1.5 2.5l-1.4 2.1l-1.4 2.1l-1.2 1.6v.1l-1.1 2l.1-.2l-1 1.2l-.3 .5h-.1l-.3 .5l.5-.3l-.7 .2l.5-.1h-.4l.9 .7l-.2-.5l.1 .2l-.2-1.4v.3v-1.5l-.2-2.3v-.1l-.2-2.2v-.1l-.3-2.3v.1l-.1-2.3v.3l.5-2.5l.6-2.4l.6-2.7l-.1 .2l1.1-2.3l.1-.3l.4-2.5l-.1 .3l1-2.2l-.1 .1l.8-1.8l.1-.4l.3-2l-.1 .3l.5-1.3l.1-.2l.3-1.3l-.1 .2l.5-1.2v.1l.4-1v-.1l.4-1l.1-.4v-2.5l-.2-1.1v-.4c-.1-.7-.6-1.2-1.2-1.2c-.7-.1-1.2 .3-1.4 .9c-.2 .6 .1 1.3 .6 1.6l.2 .1c.3 .1 .6 .1 .9 .1l.1-.1l-1.4-.6l.4 .7l-.1-.1l.3 .7h.1l.6 1.2v-.1l1 2.1l1.1 2.1l1.2 2.5l1.4 2.9l1.3 3.1v.1l1.6 3.3v.1l1.8 3.4v-.1l1.2 2.9l.1 .1l1.4 2.5V497l1 2.2l1.1 2.5l.1 .1l1.2 2.1v-.1l1 2l.1 .2l1.2 1.9v-.1l.7 1.3l.7 1.2l.3 .3l.9 .8l-.1-.1l.9 .9c.3 .4 .9 .4 1.3 .1c.4-.4 .4-.9 .1-1.3l-.7-1l-.7-1l.1 .2l-.6-1.3v-.1l-.7-1.2v-.1l-1.2-1.9v.1l-1-2v-.2l-1.3-2l.1 .1l-1.2-2.4l-1-2.3l-.1-.1l-1.4-2.5v.1l-1.2-2.8l-1.8-3.5l-1.6-3.3l-1.3-3.1v-.1l-1.4-2.9l-1.3-2.5l-1.1-2.1l-1-2V471l-.7-1.1l.1 .1l-.3-.7v-.1l-.3-.7c-.2-.3-.5-.6-.9-.6l-.1-.1l.5 .3l-.1-.1c-.4-.3-1-.4-1.5-.2c-.4 .3-.7 .8-.7 1.3l.1 .5l.1 1.2v-.1v.9v-.1v1.3l.1-.4l-.4 1l.1-.1l-.5 1l-.5 1.3v.2l-.3 1.3l.1-.3l-.5 1.3l-.1 .4l-.2 2.1l.1-.4l-.8 1.7v.1l-.9 2.1l-.1 .3l-.4 2.5l.1-.3l-1 2.3l-.1 .2l-.6 2.8l-.6 2.4l-.4 2.5l-.1 .3l.2 2.3v.1l.3 2.3l.2 2.3V504l.2 2.3v-.1l-.1 1.4l.1 .3l.2 1.4l.2 .3l.2 .4c.2 .4 .7 .7 1.1 .6h.4l.3-.1l.7-.3l.4-.4l.3-.5l.3-.5v.1l.9-1.2l.2-.1l1-2v.1l1.2-1.7l1.3-2.1h.1l1.3-2.2l1.6-2.4v-.1l1.5-3.1v.1l2-3.4h.1l2-3.6l2.4-3.8v.1l2.7-3.3l2.5-3.4h-.1l2.7-2.9l.1-.2l2-3l1.9-2.5l1.6-2.1h-.1l2.6-3l.2-.1l.5-1h-.1l.2-.2l-.2 .2l-.3 .2h.1c.4-.2 .7-.6 .6-1v-.1l-.6 .9c.4-.1 .7-.5 .6-.9c-.1-.4-.5-.7-.9-.6c-.4 .1-.7 .5-.6 .9c.1 .4 .3 .6 .7 .7c.3 0 .6-.2 .7-.5c.2-.3 .1-.7-.2-.9l-.3-.2c-.2-.2-.4-.2-.6-.2c-.3 .1-.5 .2-.6 .4l-.1 .3l.1-.1l-.2 .4l-.2 .3v.8l.3 1v-.2v1.7l.1 1l.1 1.1v.1l.1 .7v.1l.2 .9l.1 .2l.1 .1c.2 .2 .5 .3 .7 .2c.3-.1 .4-.4 .3-.7c0-.2-.3-.4-.6-.4l-1.9 .1c-.3 .1-.5 .3-.5 .5c0 .3 .3 .5 .5 .5Z" class="g0_42"/>
<path d="M1359 638.5l.3 .3l-.2-.8l-.1 .4l-.1 .1v.6l.7-.8l-.6 .1l-.5 .3l-.6 .6l-.1 .2l-.3 .6l.2-.3l-.5 .4l-.3 .5l-.2 .6v-.1l-.3 .8l-.1 .2l-.4 1.2l.1-.1l-.6 1.6l-.7 2.3l-1 2.6l-1.3 3.5l-1.4 3.9v-.1l-1.8 4l.1-.1l-2.2 3.7h.1l-2.3 3.4l-2.4 3.4l-2.5 3.2v-.1l-2.4 3l.1-.1l-2.5 2.2l.2-.1l-2.3 1.5l.2-.1l-2 .7l-1.4 .6l.4-.1h-.7h.3h-.3l1.1 1.2l-.1-.4v.2l.2-1.1v.1l.4-1.9l.5-2.5v.1l.8-2.7l.9-2.6v.1l1-2.2l1.1-2.1v.1l1.1-2l1.1-1.9v-.1l1-1.9l.9-2v.1l.9-1.6l-.1 .2l1.2-1.4v-.1l.8-1.2l.1-.2l.5-1l-.3 .4l.5-.4c.3-.2 .4-.5 .5-.8l.1-.8l-.3 .7l.3-.4l-.9 .4h.6l-.3-.1l.6 .2l-.4-.2l.9 .6l-.2-.1l1.3 1.1l1.5 1.5l-.2-.2l1.4 1.9l1.6 2.2l-.1-.1l1.4 2.4l1.4 2.3l1.4 2.4l1.4 2.4l1.3 2.5l1.4 2.7v.1l1.5 2.6v-.1l1.2 2.6l.1 .2l1.6 2.5l1.5 2.3l.2 .3l1.9 1.5l.2 .1l2.6 1.3l.3 .1l2.7 .4c.6 .1 1.1-.3 1.2-.8c.1-.5-.3-1.1-.8-1.2l-2.8-.5l.4 .2l-2.4-1.6l.2 .1l-1.8-1.6l.3 .3l-1.4-2.3h-.1l-1.5-2.6v.2l-1.2-2.6l-.1-.1l-1.5-2.7v.1l-1.3-2.7l-1.3-2.5l-.1-.1l-1.4-2.4l-1.4-2.4l-1.4-2.4l-1.4-2.4l-.1-.1l-1.6-2.2l-1.4-1.9l-.1-.1l-1.4-1.5h-.1l-1.3-1.2l-.2-.1l-.9-.6l-.4-.2l-.6-.1l-.3-.1h-.6c-.3 .1-.7 .2-.9 .4l-.4 .4c-.2 .2-.3 .5-.3 .8l-.1 .8l.4-.8l-.6 .5l-.3 .4l-.5 1.1l.1-.2l-.7 1.2v-.1l-1.1 1.4l-.1 .1l-.9 1.7l-.1 .1l-.9 2v-.1l-1 1.9h.1l-1.1 1.9l-1.1 2l-1.1 2.1l-.1 .1l-1 2.2l-.1 .1l-.9 2.6v.1l-.8 2.7l-.1 .1l-.5 2.4l-.5 1.9v.1l-.2 1.1v.6c0 .7 .5 1.2 1.1 1.3l.3 .1h.3l.6-.1l.4-.1l1.4-.5l2-.8l.3-.1l2.3-1.6l.1-.1l2.4-2.3l.1-.1l2.5-2.9v-.1l2.5-3.2l2.4-3.5l2.3-3.4l.1-.1l2.1-3.8l.1-.1l1.8-4l1.4-3.8l1.3-3.6h.1l.9-2.6v-.1l.7-2.3v.1l.5-1.6l.1-.1l.3-1.2v.1l.3-.8v-.2l.2-.7l-.3 .5l.4-.4l.2-.3l.3-.5l-.2 .2l.6-.7l-.5 .3l.6-.2c.4-.1 .7-.5 .7-.9v-1.1c-.1-.5-.4-.8-.9-.8h-.4c-.3 0-.6 .2-.6 .4c-.2 .3-.1 .6 .1 .8Z" class="g0_42"/>
<path clip-path="url(#c0_42)" d="M716.8 735.9l-.3 1.2v.1l-.3 1.7v.1l-.2 2.2l-.1 2.1V748v-.1l-.2 1.8v2.2v-.4l-.5 1.7l-.5 1.5l.1-.2l-.7 1.3l-.8 1.5v-.1l-.8 1.2v.1l-.9 1.5l-.9 1.8v-.1l-1.1 1.7l-.1 .1l-1.3 2.6l-1.6 2.6l-1.8 3.4V772l-2.2 3.5l-2.6 3.6l-2.7 3.7l.1-.1l-2.8 3.1l-2.4 2.7v-.1l-2.1 2.1l.1-.1l-1.9 1.5l.2-.1l-1.3 .8l.2-.2l-1 .4h.6l-.4-.1l1 .6l-.3-.4l.3 .9v-1.1l-.1-2v.2v-2.3l-.2-3v-.1l-.4-3v.3l.3-2.6v-3l-.1 .5l.6-1.9v-.1l.6-1.8l-.1 .1l.5-1.4l-.2 .3l.8-1.1l.1-.1l.7-1.2l-.2 .3l.9-.9l.2-.2l.8-1.1l-.2 .2l.8-.9l-.3 .3l1.1-.6v.1l1.4-.6l-.5 .1h2.1l2.1-.3H698l2.5 .3h2.6v-.1l2.5-.1h-.3l2.4 .5l-.1-.1l2.4 .7l-.2-.1l2.8 1.4l-.2-.1l3.2 2.2l3.3 2.2l-.1-.1l4 3.8l-.1-.1l3.8 4.6l-.1-.2l3.7 6.2v-.1l3.6 6.9l-.1-.2l10.9 30.8c.2 .5 .6 .8 1 .9c.5 .1 1-.1 1.3-.4c.3-.4 .4-.9 .2-1.3l-10.9-30.9l-.1-.1l-3.6-6.9l-.1-.1l-3.7-6.1l-.1-.2l-3.9-4.5l-.1-.1l-3.9-3.9l-.2-.1l-3.3-2.3l-3.2-2.2l-.2-.1l-2.7-1.4h-.2l-2.4-.8h-.2l-2.4-.5h-.3l-2.5 .1l-2.4 .1h.2l-2.5-.3H698l-2.1 .2h.1l-2 .1h-.4l-1.5 .6H692l-1.1 .6l-.4 .3l-.9 .8l-.1 .2l-.8 1.1l.2-.2l-.9 .8l-.3 .4l-.7 1.2v-.1l-.7 1.1l-.2 .4l-.5 1.3v.1l-.5 1.9v-.1l-.6 1.9l-.1 .5l.1 2.8v-.2l-.3 2.6v.4l.4 2.9v-.1l.1 3V791l.2 2v-.3l-.1 .8c0 .4 .1 .7 .3 1l.2 .4c.3 .4 .8 .6 1.3 .6h.4l.5-.2l1-.4l.2-.1l1.2-.8l.1-.1l1.8-1.5l.1-.1l2-2.1l.1-.1l2.5-2.7l2.7-3.1v-.1l2.8-3.7l2.6-3.6v-.1l2.3-3.5v-.1l1.8-3.3l1.6-2.6h.1l1.3-2.6v.1l1.1-1.8l1-1.8l.8-1.5v.1l.8-1.2v-.1l.8-1.6l.7-1.4v-.2l.4-1.5v.1l.5-1.7l.1-.3l-.1-2.1v.2l.2-1.9v-2.4l-.1-2.3l.1-2.1l.1-2.2v.1l.2-1.7v-1.4c0-.3-.3-.6-.7-.7c-.3 0-.6 .2-.8 .5Z" class="g0_42"/>
</svg>